<svg xmlns="http://www.w3.org/2000/svg" viewBox="0 0 150 150"><path fill="#73bf44" d="M68.6 148.8c.7-.5 1.3-.8 1.5-1.8.2-.9.3 0 1-1.8.5-1.7.7-.7 1.2-2.4s-.5-2.6-.4-3.7a30.4 30.4 0 0 1 1.4-4 24.5 24.5 0 0 0 .5-4.6 25 25 0 0 1 0-3.1 30.8 30.8 0 0 0 0-4.3c0-.8 0-1.8-1.3-2a2.9 2.9 0 0 1-1.9-1.4h.7c.7 1.1 2.2 1 2 .7a1.4 1.4 0 0 1-.3-.7h7.5c0 1 1 0 1 0h1.1c-.4 1-1.7 1.5-1.8 2.2-.1.7.7 0 1.1-.5a1.3 1.3 0 0 1 1.6-.8 2 2 0 0 0 1.6-.8h1.4c-1.2 1-1.5 1.4-2.5 1.5-1 .2-1.3.2-1.6.8-.4.7-1.1 1.1-1.9 1.7-.7.6-.3 1.3-.3 2.7 0 1.3-.3 3.1-.3 4.7a24.5 24.5 0 0 0 .3 4.6 9.4 9.4 0 0 1-.1 3.3c-.2 1.3.7 2.7 1 4.1.4 1.4 0 3 .5 3.6.4.6.2 1.6 1 2a2.3 2.3 0 0 1 1.2 1.5H68.2a1.3 1.3 0 0 1 .4-1.5ZM34.3 32.5l-.3-.8.1.9.2-.1zM130.2 112.6l.1.1v-.1h-.1z"/><path fill="#73bf44" d="m137.9 108-.5-.7 1.1-.3-1.3-.7.4-1-1.6-.2.3-.6H135v-.8l-1.4.4.3-.6-1-.7 1.7-.2-.4-.7.9-.2-1-.5.8-.9h-1.1l.7-.5-.7-.8-.5.6-.5-.7-.4.8-.5-.1h-1.2l.3-.5.2-.1.2-.5h-.6l-.3-.5h1.5l-.6-.8h.2l.3-.3.6-.3h-.2l.1-.2 1 .9.6-.8 1 .6-.2-.8 1.6-.4-2.2-.5 1.4-.2-.8-.2.9-.5h1.3l-.8-.7 1.3-.2-.8-.7v-1.1l1 .5-.6-1.1h.4l-.6-1 .8-.4-1.8-.5.4-.8-.8-.3.8-.9h-1.5l-.2-1-1.5.7v-.6l-1.1.7-.4-.7-1 1.1v-.7h-1.2l1.2-1.1-.7-.3.7-.7h-1v-1l-1 .5.4-.8-1-.3-.1.8-.8-.3.2.9-.6.2-1.3.7.4-.9-.5-.2.3-.8.3-.3-.9-.3.6-1h-.6l-.3-.4.1-.2h-.4l.4-.4-1.2-.8.5-.4-1.3-.5.3-1.2v-.6l1.7.4v-.5h1.4l.5-.3 1.3.3v-1l1.2.5-.3-2.3 1.2-.2-.8-1.2.6-.3-.6-.8.5-.5-.4-.6.8-.5-.5-.4.2-.6-1.2-2 .6-1-.9-.3v-1l-1-.2.4-.8-1-.3v-.5l.5-.4-1.1-.6.6-.5-1.2-.2.6-.9-.9-.2 1.2-1-.4-.4 1.3-.3-.8-.4 1.7.1-.4-1 1.8.3-.8-1 1.8.2-.6-.8 1.6-.6-1.1-.6 2-.4-.7-.7.7-.8h-.8l-.8-2.9v-1l-1.4-.5 1.2-.8-1-.8 1.7-.9-1.5-.6.5-.6-1.6-.5 1-.7h-1.3l.5-1.3h-1.4l.2-.9-1-.6.6-.2-1-.7 1.2-.5-1.2-.6 1.7-.2.3-1.3-1.9-1.3 2-.5-1.4-1.1 1.2-.3-2-.6 1-.5-1.3-.6 2-1-2.2-.6.6-1.2-1.4.8-1.6-2.4-.1-.8-1.6 1-.3-.9-1.5.3.2-1.3-2.1-.5 2.3-1.2-1.2-.2v-1L117 23l.8-.4-2.2-.4 1.9-1h-2.7l.6-.9-2.3.4.5-1-2.6 1.6-.6-1v-.7l-1.2.7v-.7l-1.8 2-1.5-1.3-.7 2.5-1.7-.7-.7.9-.6-.8-1.1 1.5-.8-1.4h-1.6V22l.8-.6-.5-.2V21l.3-.2-1-.2 1.1-.5-1.4-.5.1-.1 1.6-.3-1.6-.2.6-.6-1.5.2.3-.8-.8.5-.5-1-.2.5h-1l.2 1-.7-.2-.5.8v-.4l-.4.2-.5-.2-.2.4-.3.1.5-.7-.2-.6.6-.3-.6-.7 1-.3-.5-.4 1.8-1-1.5.5 1-1.2v-1l-1 .4-.3-.7-1 1V14l-.6.6-.4-.1-.3.8-.3-.3-.6.6h-.6l-.5-.3.6-.7h-1.4l1.1-.5-.5-1 1.2-.1-.4-.8h1.2l-.1-.8 1.1.2.3-1.2 1.3.1v-.9l1.2-.2-.6-.4 1-1.2-2.1.7 1-.9-.7.3.4-1 1.1-.6-1.1-.2 1-1h-1l-.6-1h1L93 3.5l.4-.2-1-.5.3-.8-1.8.6v-1L90 2l.1-1.2-1.1 1-.8-.8-.8 1.4-.5-.5-.5 1.2-.6-.3-.2 1.5-.5-.6-1 .6.4-1.6-.7.2.2-1-.9.7-.5-1-.5 1-.2-.8-1 .3.4.7-.9.2.7.7-.4.4-.6 1.3-.2-.8-1.2.2.6-1.4-1 .2V2.3l-1 .7v-.7l-.7.8-.5-.5-.4 1.3h-.8V4l-.9-.7 1-.8h-2l.4-1h-1.1L72.2.2l-2 1.8V1l-2 1V.5l-1 .7-.7-1-.4 1-.7-1.5v2l-.8-.8-.7.1.7 1.4-1.1.2.9 1-.3 1.1-.4-.9-.4 1.7-.8-.8.2 1.8-1-.5.1.8h-1l-.7-1.5-.5.7-.7-1.5-.2 1.2-1.3-.6.2.9h-1l.2.7-.6.5 1.3.7-.6.2.7 1.2.6 1.4L57 10l.1 1h-.6l-.7-.5V12l-.8-1.3-.4 1-1-1.1.3 1.6-1-.8-.1.5h-1l.6 1.8h-1l.7.9-.4.4.7.2.2.9.5-.3-.1.4-1.2-.1.7.6h-.4l.2.4-.5.4h-.5v1.8l-1.3-1-.4 2.3-1.4-.2-.6.6-1-.6-.4.8-1.4-.8-.8 1.2h-.5l-.5 1h-.6l-.3 1-.4-.9-.4 1.2v.1l-.1.3-.5-2-.1 1.7-.6-.5.2 1.5-.8-.3.5.8-1 .5.6.2v.9l1-.2v.4l-.7-.2-.5 1.9-.4.3-.2-1-.5.5-1-1.8.5 1.5-1.2-1h-1l.4 1-.6.3 1 1-.4.2.6.5-.7-.4-.3 1.4-1.7-.4.2.4h-.7l.2-1.1-1.2-.2v-1.3h-.8l-.3-1.2-.4.6-1.3-1 .9 2.1-1-1 .3.7-.9-.3-.7-1.2-.2 1.2-1-1v1l-1 .6v-1l-.6 1.1-.2-.4-.4 1.1-.9-.3.7 1.7-1 .1.3.9-1.2-.1 1 1.1-.7.8 1.4.8-.5.4 1.2.5-.3.7 1.5.1-.6.5.7 1-1.7-.4.2.8-.9-.2.7.9-1 .5 1 .5-.8.1.3 1 .8-.4.2 1 .6-.8.5.4 1.3.6-.9.2.3 1.1-1.4-.4.3.8-1.3.2.7 1h-.6l.8.7-.5.5 1.3.3v.8h1l.1 1 1.2.4-.5.5.3.7-.7.4.9.6-.3.5h-.4l.3 1-1.4-.2.6 1.2h-.7L28 55h-1.2l.3 1-1.5.2 2.5 1.2-1.7 1.6 2 .3-.6 1h.1l.7.5-.1.4h.4l-1.7.2 1.5.7-1.2.2 1 .7-.2 1.3 1.6.2-.3.7 1.7.1-.1 1.3.8.3-.8 1 1.2.7-.5.5.9.9h-1.4l.2.9-.7-.4-.3.4-1-.3.1 1.1-1.5-1.1-.2.8-1.1-1.1-.7.2v-.7h-.8v-.4h-.3l.4-1-1.1.3-.4-1-1.2.8-.2-1-1.3 1-.4-.7-2 .8-.2-1.3-1 1.6-.7-.7-.7.9-1-.5.6 2.6-.8-.5-.2 2.1-1.5-.7.2 1.3h-1.2l.5.9-1.5-.2 1.7 1-1.2.3-.2.7h1.6l-.5 1.1 1.4-.3.8.9-1-.1 1.3 1.2-1.1.2 1.6.9-1 .5.8.3-.4.9-1.8-.2.4.8-1.6-.1 1 .7-1.3.8.9.4-.5.7.7.3.1.7 1.3-.7-.2.6h1.5l1.4.2-1.2.7 1 .4-.4.5-.7.3 1.2.8h-1.5l.8 1-1.7.2 1.6.5-1.2.5.4.4-.5.9 1.9.3-.5 1 1-.3.2.6.6-.5.8.3v-1l.5.1.1-1 .8.4.8-.6v.6l1 .2-1 .8.7.3-.6.4-.2.7 1-.1.2.5 1-.5.6.5.5-.3v.7l-.9.5 1 .2-.8.5 1 .4-1 1-.9-.2v.7h-.6l.4 1.5-.9-.1.6.8-.7-.2 1.2.9h-2.3l1 .7-.7.4.7.1-1.4 1.2 1-.2.4.5-1.2.2.7.6-1.2.2.5.6-.7.2.8.6h-1.2l1 1.2-1.8-.6 1.3 1-.8.2 1.4.5-.6.6h1l-.1 1 .4-.3.8.5.4-1 .5.6 1-.6-.3.4 1.4.3-.8.3v.7h-.8l.2 1-1-.4.3.6h-2.1l1.5.3-1.4.6-.6.9 1.1.1v.7l1.3-.4v.4l.7-.2.3.3.6-.6.1.5.9-.3.4.3.3.5-.8.3 1.2.6H25v1.1l-1.2-.5v1l-1-.6-.3.6-1-.7-.7 1-1.1-.8-.4.8-1.2-.5.3.8-1.5.5 2.2.4-1.3.2.8.2-.8.6h-1.4l1 .8-1.4.3.8.5.1 1.2-.9-.4.7 1h-.5l.7.9-.7.6 1.9.3-.4.8.8.3-.7 1 1.5-.3.3 1 1.4-.8.1.6 1-.8.5.6.9-1.2.1.8 1.2-.1-1.2 1.2.7.2-.5.7 1-.1v1l1-.5-.4.8 1.1.2v-.8l.9.2-.3-.9.5-.2 1.2-.8-.2.8 1.1.4-1.1 1 .9.2-.5 1.1h1.1l-.3.5 1-.4.2.7 1-1 .6.4.6-.8 1 .4.9-.8.1.7.8.1v.8l1-.4.4.7.6-.8.1.4 1-.2-.3-1.4.7.4.3-1.2 1 .3v-1l1 .2-.2-1 .4.4.7-1.3.1.4h1l-.7 1.1h.4l-.4.8h1l-.8.7 1.6.1-.5 1 1.8-.8v.9l1-.8.3.8.9-.9.8 1V131l.6.6.4-.7.5.4-.2-.6.8-.3-.6-1h.9v-.9l.5.2-.3-.8.7.5.4-1 .5.4.5.4-.9.7.4.3-1 1 1 .3-.7.6 1 .1-.4 1 1-.5.2.6.6-.2.1.5.7-.5.3 1 .9-.5.1.3.6-.5 1 .6-.3-.9.3.3.2-1.2-.8-.6.5-.1-.5-.9h.6l-.3-.7.6.2-.3-1.3.7.2-.2-.8.5.2.1-.8.8.6.2-.7.6.8.2-.4.7.7.2-1 .6.9.2-.5.2.4.3-.7.5 1 .4-.2-.1.8h.6l-.3.9.6-.2v1.2l.7-.3-.1.7.3-.2.1 1 .9-1.4.3.6.4-1.2.4.5.2-1.1.3.4.9-.9v1.6l.2-.6.5.3.4-1.3 1 .3-.4-.8.4-.2-.8-1.2 1 .3-.7-1 1 .3-.5-.5h.6l-.7-2 1.2.2-.8-.6.7-.6h-.7l.5-.6-1 .1.2-.4-.7-.6.8-.2v-.6h.4v-.2l.3.1v-.2l.3.1 3.2 1.5 2.5-.8 1.3.4 1.4-.4.3.6v-.6l.2-.2h.5l-.2.8.7-.4-.1 1.1.7-.2v.7l.8-.5-.5 1 1.5-.5-1.2 1.5 1.4-.9v.8l1-1 .2.8.4-1 1 .5-.3-.5.8-.6-.8-.8.5.3.8-.1v-1.7l.3.2.3.1.3.2-.3.7 1 .1-.7.9h.7l-.8 1.8.9-1.2v1.5l.7.8.5-1 .6.4.1-1.5.4.3v-.8l.4-.2-.3-.8.3.2 1.4-.5.4 1.6.3-.1.6.3-.3.4-.5.4h.1l.4.5-1 .6.6 1-1 .8.5.7-.8 1 .8-.1v1.6l1.1-2-.2 1.4.4-.7.3 1-.4 1.2 1-.6-.2 1.4.8-.6 1 .3-.6.7 1.2-.3-.2.5 1.1-.4.3.9 1-1.6.6.6.5-.7.7 1 .3-1.4h1l-.3-1.6.7.1-.1-.3.5.6 1-2.6.5.8.9-1.3 1 .7 1.3-2 1 1.3.3-.6 1.7.4 1.4.7.2.2h.3l.6.7.5-.5.4.4.4-.8.4-.6.5.6v-.7l.7.5.4-.9.8.7-.3-1 2.6.5 1.3-1.4 1.6 1 .5-1 .5-.6.8.2-.8-2.3 1-.7.3-.8-.7-2 1-.5-.7-.9h.1l.2-.1h.2l.8.2.1-.7h.6l-.3-1.5 1 .2-.6-.8.7.2-1-1 1.6.2.2.6.8-.4.7 1 .2-.7 1.5.5-1.5-1.7 1.2.7-.5-.6h1l1 .8-.2-1.1 1.2.5-.3-1 .6-.9.5 1 .1-1.3.4.3v-1.2h.9l-1.3-1.3ZM34.3 32.5l-.2.1v-1Zm96 80v.2Z"/></svg>