<svg xmlns="http://www.w3.org/2000/svg" viewBox="0 0 150 150"><path fill="#73bf44" d="M26.2 104.8A3.9 3.9 0 0 1 25 103a1.4 1.4 0 0 0-1.5-1 2.3 2.3 0 0 1-2.5-1 2.1 2.1 0 0 1 .2-2.6c.4-.5.4-1.2.8-1.7a.2.2 0 0 0 0-.4c-1-.4-1.2-1.3-1.9-2a2.1 2.1 0 0 1 .4-3.4c.8-.5 1.4-1.4 2.5-1.6.3 0 .3-.4.3-.7 0-2.2 1.8-3.2 3.6-2 .3.2.6.3.8 0 .2-.4-.3-.5-.5-.6a4.6 4.6 0 0 1-2.2-1c-.2-.1-.5.1-.8.2a3.2 3.2 0 0 1-3-.6 3.7 3.7 0 0 0-1-.4 2.3 2.3 0 0 1-1.3-2.5 3.3 3.3 0 0 0 0-1c-.4-1.8-.2-4.5 1.8-5.3a.8.8 0 0 0 .5-1.1l-.2-1a2.2 2.2 0 0 1 1-2.7.7.7 0 0 0 .2-.9 9.1 9.1 0 0 1 .1-3.8c0-.3.2-.6 0-1a2.2 2.2 0 0 1-.2-2.4c.2-.4 0-.5-.3-.8a2.3 2.3 0 0 1-1-2.8 2.4 2.4 0 0 0 0-.7 2.2 2.2 0 0 1 1.7-2.6.7.7 0 0 0 .5-.9 9.3 9.3 0 0 1 .3-3.2 1.1 1.1 0 0 1 .4-.8c1.1-.5 1.9-1.5 3-2.1a1.2 1.2 0 0 0 .6-1 2.2 2.2 0 0 1 2-2c.5-.1.7-.3.6-.8l-.2-2.6a1.8 1.8 0 0 1 .3-1.1c.6-1.1.6-2.7 2-3.3v-.5a2.2 2.2 0 0 1 1.2-2.3c.7-.4 1-.8.7-1.7a2 2 0 0 1 1.2-2.6c1.6-.5 3-1.5 4.5-2a2.5 2.5 0 0 1 1.9 0c.3.1.5.6 1 .4a3.5 3.5 0 0 0 1.1-.9 2.6 2.6 0 0 1 2-1 .7.7 0 0 0 .5-.5 7.3 7.3 0 0 1 .6-1 2.8 2.8 0 0 0 .6-3.2c-.3-.7.3-1.4 1-2 .3-.3.3-.5-.2-.8a2.1 2.1 0 0 1-1.2-2.4 2 2 0 0 1 2-1.8.8.8 0 0 0 .7-.7 2.8 2.8 0 0 1 2.4-2.3c.3 0 .4-.4.5-.7a2.5 2.5 0 0 1 2.3-2A5.1 5.1 0 0 0 58.1 8a2.3 2.3 0 0 1 3.5-.3 3.3 3.3 0 0 0 1.8 1 4.5 4.5 0 0 1-.4-.2.8.8 0 0 1-.2-1 .9.9 0 0 1 1-.5.9.9 0 0 1 .7.8c0 .2-.3.5.2.7.4 0 .6-.2.8-.5l.8-1.2a2.2 2.2 0 0 1 2.4-1.2.8.8 0 0 0 1-.5A2 2 0 0 1 71.5 4a7.1 7.1 0 0 0 3.3-1 2.2 2.2 0 0 1 3 .5 6.4 6.4 0 0 0 .5.6c.3.3.6.5.7-.1a2 2 0 0 1 .8-1A14.2 14.2 0 0 0 82.2.7 2 2 0 0 1 85 .4a2.2 2.2 0 0 1 1 2.5c-.4 1 .2 1.6.4 2.3.2.5.7 0 1-.3a2.3 2.3 0 0 1 3.2-1 1.7 1.7 0 0 1 .5.5 1.3 1.3 0 0 0 1.2.5 2.3 2.3 0 0 1 2.8 1.7c.1.4.3.4.6.4a2.3 2.3 0 0 1 1.6 3.5c-.1.3-.3.5 0 .7a.5.5 0 0 0 .6 0 4.6 4.6 0 0 1 2.7-.4 2.1 2.1 0 0 1 2.2 2.2 1.1 1.1 0 0 0 .8 1.2 2.1 2.1 0 0 1 1.2 2 2.1 2.1 0 0 1-1.3 2c-1 .5-1.3 1.7-2.1 2.3-.4.2.5 1.1 1.2 1.1a1.7 1.7 0 0 0 .5 0 2.3 2.3 0 0 1 3.1 1.5 2.4 2.4 0 0 1-1.3 3.3 1.8 1.8 0 0 0-.7 1.9c.1.2.3.1.5 0 2.1 0 3 .7 3 2.7a1 1 0 0 0 0 .5 2.3 2.3 0 0 1-.4 3 .5.5 0 0 0 0 .7l.5 1a2.8 2.8 0 0 1 1.9-1.2c.3 0 .4-.3.4-.6a2.3 2.3 0 0 1 1.1-2.1 1.9 1.9 0 0 0 .6-.8 2.3 2.3 0 0 1 4-.2 6.4 6.4 0 0 1 1.1 2 1.5 1.5 0 0 0 1.4 1.2 2.2 2.2 0 0 1 2.2 2.4c0 .7.4 1 .7 1.5.2.6.2 1.3 1.2 1.3.6 0 1.2.5 2 .3 1.3-.3 2.9 1.1 2.4 2.4-.4 1.4.4 2.2 1 3a3 3 0 0 1 .7 2.5 1 1 0 0 0 .2.8 2.5 2.5 0 0 1-1.1 3.7 1.2 1.2 0 0 0-.4.3c-.4.3-.5.9-1 1.1l-1.4.8a11.4 11.4 0 0 1 2.7 2.4l.2.3c1.6.3 2 1.8 2.6 2.9a3 3 0 0 1-.3 3 4.6 4.6 0 0 1-.4.6c-.5.7-1 1.2-.1 2.2.9 1 .2 2.7-1.1 3.3-.5.2-.7.4-.6 1 .4 1-.3 1.8-.9 2.7a.7.7 0 0 0 0 1c.6.8.2 1.8.5 2.7.3.8.5 1.3 1.4 1.2a2 2 0 0 1 2.3 1.3 4.8 4.8 0 0 1 .2 2.5 2.2 2.2 0 0 1-2 1.9 2.8 2.8 0 0 0-2 1.3c-.5.9-.8 1.5 0 2.4a1.7 1.7 0 0 1 0 1.7l-.8 2c0 .2 0 .3.2.5a13 13 0 0 1 1.5 3.2 1.6 1.6 0 0 0 .8 1c1.6 1 1.8 2.3.6 3.7a4 4 0 0 0-1 1.9 2.1 2.1 0 0 1-1.2 1.6c-.5.2-.4.4-.2.8a2.5 2.5 0 0 1-.3 3.2 1.5 1.5 0 0 0-.3.4c-.5 1.6-2 2.1-3.2 2.8a5.8 5.8 0 0 0-1.3.9c-1 .9-2.2 1.6-2.7 2.9a1.2 1.2 0 0 0 0 .8 2.3 2.3 0 0 1-1.5 2.9 2 2 0 0 0-1 .8 2.2 2.2 0 0 1-2.6.8 9.9 9.9 0 0 1-2-.8.7.7 0 0 0-1.1.4c-.5 1.4-1.9 2-2.8 3-.7.6-2.8.6-3.7 0a2.3 2.3 0 0 1-1-2.3 6.8 6.8 0 0 1 .6-1.6c.2-.4.2-.7-.4-.7a2.3 2.3 0 0 1-1.8-1 1 1 0 0 0-.4-.2c-1.8-.8-1.8-.7-2.4-2.2-1.4 1-2.3 1.2-3.4.5-1-.7-1.1-1.5-.4-3.7-.3 0-.4.2-.6.3a2.5 2.5 0 0 1-2.8-.2 1.5 1.5 0 0 0-2.3.2 2 2 0 0 1-.5.4c-.4.3-.4.6-.4 1.1 0 1.3.4 2.7 0 4a2.3 2.3 0 0 1-3.7.9 5 5 0 0 0-1.3-.7 4 4 0 0 0-3.4.1c-.9.4-1.6-.4-2.3-1.1a15.6 15.6 0 0 0 .2 4.2 169 169 0 0 1 1.4 25c0 1.4 0 2.8.2 4.1 0 .8-.2 1.1-1 1.1h-7.2c-.7 0-1-.2-1-1l.5-16.7c0-4-.4-8-.5-12V114c0-1-.7-1.4-1.1-2a14.7 14.7 0 0 0-3 .5c0 .8-.7 1.3-.7 2.2a2.1 2.1 0 0 1-2.1 2 2.2 2.2 0 0 1-2.4-1.8c-.1-1-.3-1.4-1.4-1.4a1.9 1.9 0 0 1-1.7-1.3 1.3 1.3 0 0 0-1.6-.8 3 3 0 0 1-3.4-3c0-.3 0-.6-.3-.8a2.6 2.6 0 0 1-1-1.7.5.5 0 0 0-.5-.5c-.6 0-1.2-.7-1.7-.6-.7 0-.6 1-.9 1.5a3.7 3.7 0 0 1-3.8 1.8c-.3 0-.5-.2-.6.1a.5.5 0 0 0 .4.7c.7.2 1.3.5 1.5 1.2a14.3 14.3 0 0 1 .7 2.9 2 2 0 0 1-2.6 2.2 1 1 0 0 0-1.2.5c-.5 1-1.2 2-2.1 2a4.3 4.3 0 0 0-3 1.5 1.8 1.8 0 0 1-2.6 0 2 2 0 0 1-.7-2.5c.6-1 .2-1.8 0-2.7 0-.3.3-1-.4-1.1-.6-.2-1 .2-1.4.6a2 2 0 0 1-2.7.4c-.5-.2-.6 0-.7.3a2.2 2.2 0 0 1-2.6 1.3 2.1 2.1 0 0 1-1.7-2.2 1.2 1.2 0 0 0-.7-1.3 2.2 2.2 0 0 1-1.3-1.7 10.3 10.3 0 0 0-.4-1.3 2 2 0 0 1 .3-2c.7-1 1.2-2.1 2.8-2.2Zm19.3-42v.6c.1.3.3.4.6.3.2-.1.4-.4.2-.6-.7-.4-.9-1.5-2-1.5-1 0-1.4-.3-1.5-1.3l-.1-.5c-1-.7-.6-1.4 0-2 .5-.6.2-.7-.2-.9a2.2 2.2 0 0 0-2.8 1.6c-.2.8-.6 1-1.3.8a1.1 1.1 0 0 0-1.5.6 2.1 2.1 0 0 0 .8 3 2 2 0 0 0 3-1.2c0-.3.1-.6.6-.6 1 .1.7.6.4 1.2h.7a1.8 1.8 0 0 1 2.1.9c.1.2.2.5.5.5.4 0 .2-.5.5-1ZM39 110.7a8 8 0 0 0 1.8 1.6c.4.1.9.3 1 0 .1-.7.7-1.3.5-2 0-.2-.3-.2-.4-.2-1.1-.6-1.9.3-2.9.6Zm20.5-47.2a3 3 0 0 1-3 1.6c1.4 1.3 2 1.4 2.9.7 1-.7.3-1.4.1-2.3Zm13.3-3.7c-.4 0-.6.2-.6.7 0 .3 1.6 1.5 1.9 1.4l.2-.3c.4-1-.3-1.8-1.5-1.8Z"/><path fill="#73bf44" d="M55.4 83.1c11.4 0 22.3-10 21.8-21.8a22.2 22.2 0 0 0-21.8-21.8c-11.5 0-22.4 10-21.9 21.8A22.2 22.2 0 0 0 55.4 83ZM41 113.7c3.2 0 3.2-5 0-5s-3.2 5 0 5Z"/></svg>