<svg xmlns="http://www.w3.org/2000/svg" viewBox="0 0 150 150"><path fill="#73bf44" d="M15.7 46.7v.1h.2-.2Z"/><path fill="#73bf44" d="m140.3 56.6-2.7.6a12.7 12.7 0 0 0 3.6-3.5s-1.5.2-3.6.5a18.1 18.1 0 0 0-3.3-1 7.3 7.3 0 0 0-1-.2 24.2 24.2 0 0 0 2.1-3.4 21.3 21.3 0 0 0-4.4.6 13.4 13.4 0 0 0 2-3.6l-3.2 1.3-1.5-.6a7.2 7.2 0 0 0 .6-1.2c3.3-2.9 5.1-8.6 5.1-8.6a38 38 0 0 0-4.4 2 31 31 0 0 0-1.7-7.3s0 .3-1 2.6a12.7 12.7 0 0 0-1-4.8s-.7 1.6-1.8 4a13.5 13.5 0 0 0-.8-3l1.5-1.7a10.6 10.6 0 0 1-3.4.2 24.5 24.5 0 0 0 2.8-2.2l-2.4-.6a25.1 25.1 0 0 0 3.8-4.3 8.2 8.2 0 0 1-3 .4 21.7 21.7 0 0 0 4.2-5.5 18.9 18.9 0 0 0-5.8 1l-.2-1 1.5-.7a6.3 6.3 0 0 1-1.9-.5 12.4 12.4 0 0 0-.4-1.2s-.2.3-.4.8a18.3 18.3 0 0 0-3-1 24.1 24.1 0 0 0 2.4-1.9 16 16 0 0 0-7.4-.7 27.5 27.5 0 0 0 .1-5.5 30.1 30.1 0 0 0-5.2 6.3 31 31 0 0 0-4.4-6s0 .3.1 2.7a12.7 12.7 0 0 0-3-4s.1 2 0 4.8c-.5.7-1 1-2.1 2.3a22.4 22.4 0 0 0-3-5.5 21.6 21.6 0 0 0-1.4 4.3A13.4 13.4 0 0 0 90.3 8s0 1.4-.2 3.5L89 12.7a7.3 7.3 0 0 0-1-1.3C89 6.4 82 0 82 0a30 30 0 0 0 .4 8.2A31.2 31.2 0 0 0 75 6.6s.2.3 2 2a12.7 12.7 0 0 0-5-1s1.3 1.3 3 3.2a13.2 13.2 0 0 0-3.1-.5c-.4-1.2-.9-2-.9-2a10.5 10.5 0 0 1-1.2 3.1A24.5 24.5 0 0 0 69 8a24.8 24.8 0 0 0-1.6 2 25.2 25.2 0 0 0-2.2-5.3 8.2 8.2 0 0 1-.9 2.8 21.6 21.6 0 0 0-3.2-6 19.8 19.8 0 0 0-1.5 5.1 26.8 26.8 0 0 0-2.2-1.8c.7 2 .2 2.2.6 5.1a13.3 13.3 0 0 0-1.3-1s.3 1.8.7 4.3a12 12 0 0 0-2.9-1.5 28.1 28.1 0 0 0-2-3.9 29.8 29.8 0 0 0-1.6 8 30.7 30.7 0 0 0-6.8-3.2l1.4 2.3a12.7 12.7 0 0 0-4.5-2.1l2.3 4.2a33.6 33.6 0 0 0-1.2 4.7 7 7 0 0 0 0 1 24.9 24.9 0 0 0-3.6-1.7 21.5 21.5 0 0 0 1 4.3 13.5 13.5 0 0 0-3.7-1.7s.6 1.2 1.6 3.1c0 .6-.3 1-.5 1.7a7.3 7.3 0 0 0-1.5-.7C33.9 22.8 24.6 21 24.6 21a30.2 30.2 0 0 0 4.5 6.8 30.9 30.9 0 0 0-7 2.5s.4 0 3.9 1c-2.6 1-4.5 4.2-4.5 4.2l4.3-.8a13.7 13.7 0 0 0-2 2.4l-2.3-.3a10.6 10.6 0 0 1 2.1 2.7 24.4 24.4 0 0 0-3.5-1l1 2.3a25.3 25.3 0 0 0-5.8-.8 8.2 8.2 0 0 1 2 2.2 21.7 21.7 0 0 0-6.9-.3 21.3 21.3 0 0 0 3.2 3.5c-3.5.5-4.8 6.2-4.8 6.2l3.9-2.1a13.1 13.1 0 0 0-1.3 2.9l-2.1.3c1.8.8 1.7 1.4 4.2 3l-1 1.3a27 27 0 0 0-3.4 0 8.3 8.3 0 0 1 2.1 2l-1 2 2.4-.7 1 .8a7.3 7.3 0 0 0 .7.6 24.4 24.4 0 0 0-3.3 2.1 22 22 0 0 0 4.2 1.4 13.5 13.5 0 0 0-3.4 2.4s1.4 0 3.5.2l1.5 1.6a24.5 24.5 0 0 0-4 1.2 21 21 0 0 0 3.8 2.4 13.4 13.4 0 0 0-3.9 1.4s1.2.4 3 1a24.7 24.7 0 0 0-5.8 1.5c2.1.6 1.9 1.2 5.5 2.6a8 8 0 0 0 1 .3 24.3 24.3 0 0 0-2.6 3 21.8 21.8 0 0 0 4.4 0 13.5 13.5 0 0 0-2.5 3.3s1.4-.3 3.4-.9l1.5.9c-4.2 4.6-1.6 15-1.6 15l1.3-2.5a12.8 12.8 0 0 0 .5 5s.8-1.6 2.2-3.9a13.4 13.4 0 0 0 .4 3.2l-1.6 1.4a10.7 10.7 0 0 1 3.4.3 24.2 24.2 0 0 0-3.1 1.9l2.3.9a25.1 25.1 0 0 0-4.3 3.7 8.2 8.2 0 0 1 3 0 21.8 21.8 0 0 0-4.9 5 18.5 18.5 0 0 0 6.1-.4 27 27 0 0 0-1.6 3.5c1.8-1.2 2.1-.6 5.6-2.3a7.5 7.5 0 0 0 .9-.5 24.5 24.5 0 0 0 .5 4 21.6 21.6 0 0 0 3-3.4 13.5 13.5 0 0 0 .7 4.1s.6-1.2 1.7-3.1l1.6-.5a7.4 7.4 0 0 0 .3 1.6c-3.2 4 .5 12.8.5 12.8a30.2 30.2 0 0 0 3-7.6 31 31 0 0 0 6.1 4.5s-.1-.3-1-2.6a12.6 12.6 0 0 0 4 3l-1.2-4.2a13.3 13.3 0 0 0 2.6 1.8l-.1 2.2c1.1-1.7 1.7-1.4 3.7-3.6a23 23 0 0 0 0 6 20 20 0 0 0 3.8-3.7 26.9 26.9 0 0 0 1 2.8c.4-1.8 1-2 1.9-4.2a13.5 13.5 0 0 0 1.2 3.9s.5-1.3 1.2-3.2a13.5 13.5 0 0 0 1.6 2.1 27 27 0 0 0 0 3.3 35.3 35.3 0 0 0 4-4.2 30.4 30.4 0 0 0 2.5 3.2s0-.4 0-3.3h.3a14.2 14.2 0 0 0 1.8 2.3s0-.9 0-2.3h1.4c-1.3 4-.2 9.5-.2 9.5a30 30 0 0 0 4.5-6.8 31.1 31.1 0 0 0 5 5.6s0-.3-.4-2.7a12.8 12.8 0 0 0 3.3 3.7s-.2-1.9-.4-4.7a33.3 33.3 0 0 0 2.9-4 7.6 7.6 0 0 0 .4-.9 24.4 24.4 0 0 0 2.6 3 21.7 21.7 0 0 0 .7-4.4 13.5 13.5 0 0 0 2.9 3s-.2-1.4-.4-3.5l1-1.3a7.2 7.2 0 0 0 1.3 1.2c-.5 5 7.4 10.4 7.4 10.4a30.1 30.1 0 0 0-1.6-8 31 31 0 0 0 7.5.3s-.3-.1-2.2-1.6a12.7 12.7 0 0 0 5 .3s-1.4-1.1-3.4-2.8a13.9 13.9 0 0 0 3.8 0s-1.9-1.5-4.4-3.7a5.5 5.5 0 0 0-.9-.6 9.8 9.8 0 0 0 2.9 0l1.2 1.3a6.6 6.6 0 0 1-.1-1.4 11.8 11.8 0 0 0 1.1-.2s-.4-.3-1-.7a16.7 16.7 0 0 0 .1-2 21.6 21.6 0 0 0 4.8 5 18.9 18.9 0 0 0 0-5.9h1l.5 1.6a6.5 6.5 0 0 1 .8-1.8l1.2-.2-.8-.5a18.6 18.6 0 0 0 1.5-2.8 24.2 24.2 0 0 0 1.5 2.7 16 16 0 0 0 2-7.2 28.1 28.1 0 0 0 5.4 1 30 30 0 0 0-5.5-6.2 31 31 0 0 0 6.7-3.4s-.3 0-2.7-.3a12.8 12.8 0 0 0 4.4-2.2s-1.9-.3-4.7-.8a35 35 0 0 0-3-3.8 8.3 8.3 0 0 0-.8-.7 24.8 24.8 0 0 0 3.5-1.7 17.7 17.7 0 0 0-6-2.2 19.6 19.6 0 0 0-1.7-3.7 24.7 24.7 0 0 0 4.3-.1 24.8 24.8 0 0 0-1.6-2 25.2 25.2 0 0 0 5.6-1 8.2 8.2 0 0 1-2.5-1.5 21.7 21.7 0 0 0 6.6-2 22.2 22.2 0 0 0-3.4-1.9 26.1 26.1 0 0 0 4.2-3 6.6 6.6 0 0 1-2.3-.1 13.1 13.1 0 0 0 3.8-2.7s-.8 0-2.2 0a12.9 12.9 0 0 0 3-3.9s-1 .3-2.4.7a14.2 14.2 0 0 0 1.6-2.3 27.4 27.4 0 0 0 3.5-1.4A39.7 39.7 0 0 0 136 61a31.7 31.7 0 0 0 4.3-4.5ZM15.7 46.7h.2l-.2.1Z"/><path fill="#73bf44" d="M62.6 150s-.5-8.2-3.8-13.3c-3.2-5-5.2-2.8-7.5-9.8l2.7-1a7 7 0 0 0 3 5 14.4 14.4 0 0 1 5.4 7c.6 2.3 2.5.3 2.5-3.5s2.4-7.6 2.4-7.6l2.5.9s-2.2 2.7-2.6 8.4c-.4 5.8-2.3 4.3-2.1 7.6l.5 6.3ZM67.5 150s.3-9.3 3.6-13.8c3.3-4.5 1.7-11 1.7-11h4a14.4 14.4 0 0 1-.3 7c-1.1 3 .8 4.6 3 1.8a11.7 11.7 0 0 0 2.2-6.5l3.3 1.2s-.6 5-3.5 7.6c-3 2.4-6.9.7-8.7 5.7-1.7 5-1.3 8-1.3 8Z"/><path fill="#73bf44" d="M76.7 150s1.2-5.2-1.4-9.2-8.4-6.4-12.2-13.8l2.4-1.7a22.8 22.8 0 0 0 6.1 7.4c4.4 3.6 7.6 7.3 8.2 10.5.6 3.2 3.8-2.4 5-5.2 1.2-2.9 2.7-10.3 2.7-10.3l2.5.8s-1.6 8.4-4.3 12.9c-2.6 4.4-5.6 5.7-5.7 8.6Z"/></svg>