<svg xmlns="http://www.w3.org/2000/svg" viewBox="0 0 150 150"><path fill="#73bf44" d="M77.9 150h-5.2a18.3 18.3 0 0 0 .5-4.2l.2-5.5-.5-9.2h5.9s.2 7.5.4 9.7c.3 2.2.5 9.2.5 9.2Z"/><path fill="#73bf44" d="m125.9 87.6-.2-2.2.8-.3 1-1.2-1.4-1 .4-.9-.3-.5 1-1-1.5-1 .9-.2-.5-2-2.1-.9 1.2-.2-1.3-1v-1.6l-.2.2-1.5-.6-.4-1.4-1.1-.2.3-.2-.9-1h-1.5l.8-2-1-1.5-1.1 1-1-1.2-.6.6-.6-1.3h-.8l.5-1.4-.8-.6 1.2-.5-.7-1.8-1.8-.2-1.2-1 .9-1.3-1-1.2.5-.5.8-.7 2.4.8c2.4.8 0-1.1 0-1.1l.9-.4-.6-1.3-.2-.2.4-1-1.1-.5h-.5l-1.2-2 2.6.3-.7-.6 1-1.7-.9-.6.4-1-1.4-.6.7-.9-2-.1.6-1.3-2-.8 1.8-.5-.8-1.1c-.7-1.1 1.7 0 1.7 0v-.4l.8-.8-.5-.6.7-1-1-.3.7-2.1H113l-.6-.2-1.2-.6-.2.2-.7-2.6-.8-.2.4-1.4-1.6.8.6-1.4-2.1.4v-.7h-1l-.1-1.5-.3.3V29l-1.5-.4 1.8-1.1-1-.8 1-1-1.3-.8.8-.7-.6-.5-1.6-1.9-.9 2c-.8 2-1.1-1.6-1.1-1.6l-.7 1.3c-.6 1.3-.2-1.3-.2-1.3l-1-.4 1-2.3-1-.5 1.8-1.3-1-.8 1-1-.5-.5-1.1-.8-1.8.6-.3-1-.8 1.2-1-1.5-.9.5-.4-1h-.4l.4-1.2-1-.4.8-1.4-1.2-.9 1.2-1-1.9-1 .4-.7-2.4.4V6l-.8.7-1-1.4-.7 1.3-1-1-.2 1.9c-.2 1.8-.6-.7-.6-.7l-.9.7-1.3-.1.2-1.4-1.3.4-1-1.9-.7 1.3-1.1-1-.5 1.1-.4-.5V7l-1.6-1 .3 1.7-.3-.2-2.3.2.4-1.4-1.6-.2.6-2-.6-.1v-2l-1.2.6v-1L71 2.7l-.8-1-1.1 1.1-.6-1.3-.5 1h-1l-1.7-1-1.3.4L64 .4l-.8.3-1.3-.7-1 1.2-1.6-.7.5 2-1.9-.4.7 2.5-1.6-.4.4 2c.5 2.2-.8.2-.8.2l.7 1.2-.2 1.7-1.6.5 1.1 1.6-1.6.7-.6-1.7h-.8v1.3l-1.4-.5v.9l-1 .5.2 1.4-1.2.8-1.4-1.6-.7 1.4-.1-1-1 2-1.1-.2.4 2.2h-1l1 1.9h-.5l.3.7-.4 1.5-1.4-.3 1 2-1.4-.2.6 1.7-1.1.5.7 1.2 1.4 1.1-1.5.4 1.2 1.3-1 .2-1.4.7.2 1.3h-1.3l.6 1.4-.3 1.5-.7-.4 1.1 1.5-1.3.6 1.2.5-1 .5-.3 2.5 1.6.2-.4.6 1 .7H42l.2 1-1.3 1.3-1.2-1.3-1.2.6-.4-.6-.2 2-1-1-.3 2L35 45l1.3 1.7c1.2 1.7-1.5 0-1.5 0l1 2.1-1.3.2c-1.2 0-.4 1.4-.4 1.4l-1.6-.6.7 2.3h-1.1l.9 1.2-.6.3.2 1.5-1-.2-.4 1-1.7-.7.7 1.3-.7 1.6.6 1.3 1.3.3-.7.7 1 .7-1.9.9 1.3.7-.3 1.3.8 1-1.2.6 1.3 1.1-1.6-.2v.8l-1.5-.6.5 1.7c.5 1.7-.8.4-.8.4l.7 2-1.7-.2v1l-1.1-.2.5 1.8-1.5.2-.1 1.6-1.6-.8.5 1.2h-1l-.6 1.1 1.3.7-.6.8.8.4-.4.6h.6l.2 1.3-1.2.3v1.1l1.8.4-.7 1 1 .2-.2.7h1l-.6 1.4h2.3l-.6.8 1.5.5-.6.3.3 1.1-1.5.4-.8-.6-.4 1h-.8l.2 1.5-.8.4 1.2 1.5-.6 1 .8.5-.2.7.8.9-.1.5 1.1.6-.5 1-1.1.2-.2 1.5.2.7 1 .3v.6l-.6.3.9 1.3-.6.3.8 1.1-.7 1 1 .3-.3 1.2.7 1 1.7-.3.2 1 1.5.2-.5.5 1.3.6-1 1 1.4.7-.2.8 1.3.2-.4.8.7.3.3 1.8 1.1-.5 1 1.4 1.2-1 1 .7.7-1.1h1l.2-1.3 1 .3v-1.2l1.2.4v-1.9l1.2 1 2 .7H45l.5 1.3-.2.6-.9 1.5-1.1.1.5.7-1.3 1 1-.1.5 1.4 1.3-.4.2.7 1.7.4.4-.6 1.3 1 .8-1.1 1.1.8.4-1 1 .2.6-.4v-.9l.7-.6 1 .2.7 1.6 1.1-.4.2 1.2h1l.3 1h-.3l-.8 1.2-.6-.1-.3.8-.4.3h-.2v1.6h-.6l-1 2.4h-.8l.6 1.6-.6.4 1.2.8-.3.9 1.2.2v.7l1.3.2 1.2.8.8-.7v1.2l1.3-.3v1.2l1.3-.1-.1.7h1.5l.7.5.3-1.1h.8v-1.2l.7.5.6-1.9.6.5v-1c.1-1.2.7.5.7.5l.3-1 1.1.6.3-1.2.8.8.7-1 .6 1 .2-.2.2 1 1-.5.2 1.1.3-.2.4.8c1 1.6.5-.2.5-.2l.6 1.5.2-.5 1 1.1.2-2 .5.9 1.6-.4 1.5.1.6-.9.6.5.5-.8.4.7.7-.4.6 1.1.7-1.1c.7-1.2 1.2.8 1.2.8l1-1.7c.9-1.7 1.3.4 1.3.4l1.7 1.2.3-.8.6.8 1.6-.6v-.2l.5-.8-2-1.2 1.5-1.2.8 1 2.1-.8 1.4 1 .9.6.2-1.2h2l.9-1.8.8.3-.4-1.3 1.4.4.1-2.5-2.2-.5 1-.7.7-1.6-1-.9 1 .1.9-1.7 1.3 1.2 1.4-.6 1.1 1.8 1.2-.5.5 1.3 2.5-1 .6 1.3 1.8.5 1.1 1.3.5-1 1.3 1 2.2-1.6-1.4-1.3 1.8-.3-1.8-2.3 1 .2.8-.1.1 1 1.7.2.6 1.4.4-.2 1.8.8v-1l1.2-1.2 1.1-1-.4-.5-.4-1.4-.8.4.9-3-2.3-1.8v-1l.7.8 1.2-.6 2 .5-.2-1.1 1.3.5.3-.7-.7-1.2h.7l-1-.9-1-1.4-.5-1-1-.7-.4-1.2-1.7-.5 1.3-1.3-5-1.8.6-.3.6-.7 1.3-.4-1.4-2 1.3-.7.5-1.4 1.8.2 2-1.3.7-.4-1.3-.7-.1-1.2 1.8-.8-.4-.8 1-.7-1.3-1 2.5-.4Z"/></svg>