<svg xmlns="http://www.w3.org/2000/svg" viewBox="0 0 150 150"><path fill="#73bf44" d="m80 149-2-3v-7a25 25 0 0 0 0-2 1 1 0 0 1 0-1v-1l-1-1a3 3 0 0 0-1 0h-5l-2 1a20 20 0 0 1 0 4l1 3a29 29 0 0 1 0 4 3 3 0 0 1-2 2l-1 2h13v-1Z"/><path fill="#73bf44" d="M115 120h1-1l-1-2v-1h-2v-1l-2 1v-1l-1 1h-2l1-2h-1v-2 1l1-2h1l1 1v-1h1v-3h1l1-1h-2l1-1-1-1h1v-1l1 1v-1h1v-2l1 1v-1l-1-1h-2l1-1v-1h-2l1-2-1-1 2 1-1-1v-1h-1v-3l1-1h-2l1-1-1-1h2l-1-1h1l-2-2h1l-1-1h-2l2-1-3-1h1v-1l1-2h-2l1-1h-2l1-2h-3l1-1h-1l1-1h-1v-2l1 1h1l-1-2h2v-1h1v-1l1 1 2-1-2-1 1-1h-2l1-1h-2v-2l-2 1-1-1v-1h1v-1h1v-1l1-1 1 1h1l1-1-2-1h1v-1h1v-1h1l-2-1 1-1-1-1v-1h-1l-1-1h-1v-1h-1l1-1-1-1h1l-1-1h-2l2-1-1-1 1-1h-1 1v-1h2-1 1l-1-2h2l-2-1 2-1h-1l-1-1h1v-1h1l-1-1v-1h-1v-1h-1v-2h-1l-1-1v-1h-2l1-1h-2v-1h-1v-1h-1l-1-1h-1v-1h1-1 1v-1h1v-1l1 1v-1l1-1h-1l1-1h-2l1-1h-2v-1l1 1v-1h1-1 1v-1l1 1v-2l1 1v-1h-1l1-1h-2l1-1h-4l-1-1v1h-1v-1l-1 1v-2l-1-1v1l-1-1h1v-1l-1-1h1l-1-1h1l-1-1-1 1v-1h-1l1-1h-1V9h1V8l-1-1h1V6l1-1h-1V4h-1l1-1-1-1-1 1V2h-2 1-2 1l-1 1V2h-2V1l-1 1V1l-1-1-1 1V0h-1v1h-1v1l-1-1h-1V0h-1v1h-2 1V0l-2 1-1-1v1l-1 1V1l-1 2V2h-1v1h-2l2 1v1h-2l1 2h-1l-1-1v1l-1-1 1-1h-2l-1 1-1-1v1h-1l1-1h-1V4h1V3h-1 1l-1-1-2 2V3h-1v1h-3V3l-1 1h-1v1h-1v1l-1-1 1 2h-2V6v2l-1-1v2l-1-1 1 2h-2l2 1h-2l1 1h1v1h1l1 1v1l-1 1h2v1l-1-1-1 1v-1l-1 1-1-1v1h-1v2l-1-1h-1l1 1v1l-1-1-1 2h2v1h1v1h-1v1h-1v1l-1-1-1 1 1 1v1l-1-1-1 2h1v1h-1l1 1-1 1h2v1h-1v1h2l-1 1h-1l1 1h-2l1 2h-1v1l1-1 3 1-1 1h-2l2 1-1 1h1l-1 1v1l1-1 1 1h1v1h-1l1 1h-1v-1h-1l-1 1v-1l-1 1 1 1h-2l1 2h-1v-1h-1v2h-2l2 2h-1v1h-1v1h1l1 1h-2l1 1-1 1h-1v1h1v1h2-1v1h-1v1h-1l1 1h-1v1h-1l1 1v1l-1-1-1 1 1 1v1l-1-1-1 1 2 1h-1l1 1h-1v1h2l-1 1h1v1l-1 1h2l-2 1-1-1-1 2h2l1 1h-2v1h1l1 1h-2l1 1h-1l2 1-1 1h1l-1 1h-1l1 1h-1v1h1l1 1h-1l1 1h-1l1 1h-1 2l-1 1h1v1h-1v1h1l1 1h-2v1h2-1 1l-1 1h1l-1 1 1 1h-1l2 1h-1 1v1l1-1v1h-1l1 1h-1v1-1l-1 1 1 1h-1 1-1v1h-1l1 1-1 1 1 1h-1 2v1l-1-1v1h1l-1 1v1l2-1 1 1h-1 1v1h1l-1 1h-1v1h-2l-1 1h1v1h1v1h-1l1 1h-1v2h1l1 1h-2 2v1h-1 1v2h1-1l1 1h-1v1h-1v2l-1-1v1h1l-1 1v-1l-1 1 1 1h-2l1 1h-1v1h-1v1h-1l1 2 1-1v1h2l-1 1h2l-1 1h1l1 1h-2l1 1h-1l1 1h-1l1 1h2-1v1l2-1-1 1h2v1l1-1v1l1-1-1-1h2v-1h1v1h1v-2h2v1h-1v1l2-1v1h2v1h1v-1h1l1-1h1l-1-1h1v1l1-1v1h1v1h1v1l1-1 1 1v-1 1h1v-1l1 1v-1l1 1v-1h1v-1h2v1-1l1 1v-1s0 2 1 1l1-1 1 1 1-1 1 1h1v1h2l1-1v1l1 1v-1h1l1-1-1 2h2l-1-2h2v-1l-1-1h2v1l1-1 1 1h1l-1 1h2v1h1l1 1v-2 1h2l1 2h1l1 1 1-1 2 1v-2l1-1-1-1h1v-2l1 1v-1h1v-1h1v-1h1l-1-1h2l-1-1 1-1-2-1 2-1h-1l-1-1v-1h1l2-1 1 2 1-1v1l1-1 1 1 1-1 2-1-1-1 2 1-1-2h2l-1-1h1Z"/></svg>