<svg xmlns="http://www.w3.org/2000/svg" viewBox="0 0 150 150"><path fill="none" d="m75.1 89.5.2.1v-.2h-.2ZM75.7 62a1.7 1.7 0 0 0-1.3-.2c.3 1.2.6 3.3 1 3.4.3.1.4-1.5.3-3.1ZM73.3 90.5l2 1V91l-1.2-1a5 5 0 0 0-.8.5ZM92.3 50.5a27.3 27.3 0 0 1-3.6-1 51 51 0 0 0-7.3 5 39.5 39.5 0 0 1 10.9-4ZM74.3 88.7a8.5 8.5 0 0 1 1-.3q-.5-.4-.8-.9a16.1 16.1 0 0 0-4.8-1.8 40.2 40.2 0 0 1 4.5 3h.1ZM70.8 83.8a23 23 0 0 0-10.7-2 41.5 41.5 0 0 1 7.5 2.8 20.1 20.1 0 0 1 5.2 1.2 48 48 0 0 0-2-2ZM75.3 85.7 74 84a25.5 25.5 0 0 0-3.8-1.8l1.2.9a15 15 0 0 1 3.9 2.5ZM75.3 84v-1.4a26.6 26.6 0 0 0-9-5.9 46.6 46.6 0 0 1 5 3.7 21.7 21.7 0 0 1 4 3.5ZM66.6 96.2l1.5 3a17.4 17.4 0 0 1 2.5-1.4l-.4-1.9-3.6.3ZM75.7 99v-1.2A10.9 10.9 0 0 0 73 99l.5 2.1a17 17 0 0 1 2.2-2ZM75.6 97.3v-.4a17.4 17.4 0 0 0-4.6 1l.4 1.8a10.7 10.7 0 0 1 1.4-1.1 60.4 60.4 0 0 0 .1 0 10 10 0 0 1 2.7-1.3ZM70.4 95.9l.5 1.8a17.1 17.1 0 0 1 4.7-1.2v-.4a34.8 34.8 0 0 0-5.2-.2Z"/><path fill="none" d="m71.6 103.5-.5-3a15.2 15.2 0 0 0-1.6 1.7A9.6 9.6 0 0 1 71 100c0-.7-.2-1.4-.3-2a17.4 17.4 0 0 0-2.5 1.1 74 74 0 0 1 2.3 5.8l1-1.5ZM73.1 101.5l-.2-2.4a12.5 12.5 0 0 0-1.4 1l.6 2.6 1-1.2ZM72.3 103.5l1.4 7.2c0-3-.2-5.8-.5-8.1l-1 1ZM74.5 121.8a1.3 1.3 0 0 1 .2 1 25.7 25.7 0 0 0 .2 3.6s0-1.6 0-2.3c0-.6-.2-1.7.3-2a10.4 10.4 0 0 1 .5-2.2 2.7 2.7 0 0 0-1.2 1.9ZM74.4 101.6l-.7.6c.4 2.4.7 4.8.8 6.8a42 42 0 0 0-.1-7.4Z"/><path fill="none" d="M75.4 108.7a12.4 12.4 0 0 1 .6-1.1l-.2-7-1.4 1a22.3 22.3 0 0 1 1 7ZM75.5 93.5a41.9 41.9 0 0 0-4.2-1.5 22 22 0 0 1-2.6 1.4 33.1 33.1 0 0 1 6.8.7v-.6ZM89.7 62l2 1.7 1.6-2.6a18.4 18.4 0 0 0-2.4-1.6L89.7 62Z"/><path fill="none" d="m91 59 .8-1.2-.7 1.3a12.8 12.8 0 0 1 2.2 2 36.4 36.4 0 0 1 2.2-3.3 21.4 21.4 0 0 0-12.8-.8 12.5 12.5 0 0 1 8.3 2ZM75.2 119.5a3.2 3.2 0 0 1 1-.6c0-.3.2-.7.4-1v-.3a10.2 10.2 0 0 0-1.4 2ZM65.6 94.6l-.8.3.7-.4-.2-.4c-1 0-1.9 0-2.8.2l1 1.6 2.4-.5-.3-.8ZM66.3 94h-1l.3.4.7-.4ZM66.1 95.3a36.4 36.4 0 0 1 4-.4l-.1-.3v.3a35.7 35.7 0 0 1 5.2 0 40.8 40.8 0 0 0-8-.9l-1.5.6.4.7ZM69.3 107l.6-1a64 64 0 0 0-2.2-6.5l-1.5 1a11.7 11.7 0 0 1 1.5-1.1l-1.4-3.1c-.7 0-1.5.2-2.3.4a117.7 117.7 0 0 1 7.3 15.8A47.6 47.6 0 0 0 70 106l-.7.9ZM73.5 122.6a.5.5 0 0 1-.3 0l.3 2.3v-2.3ZM70.7 105.3c.6 1.8 1.2 3.4 1.6 5a89 89 0 0 0-.6-6.1l-1 1ZM75.4 92.4 72.8 91l-.7.5 3.3 1.1v-.2ZM66 48.3l-2.4-.3 2.3 1h1.3l-1.2-.7ZM64.7 50.4l1.7-.2h-2l.3.2ZM62.8 52.2a18.8 18.8 0 0 1 2.3.7l.7-.3-2-.6-1 .2ZM47.5 38.9c4.5 2.7 9.3 4.5 15.1 6.3a38.4 38.4 0 0 1 5.6 1.7 67 67 0 0 0-20.7-8ZM67 53.3l-.6-.4-.7.2.8.4.5-.2ZM67.2 52l1.4-.4-.3-.2-1.8.2.7.5ZM70.3 39.4v-.1ZM81.1 39.7 80 43.5l1-1.2a25.8 25.8 0 0 1 4.7-6.8 57.6 57.6 0 0 1 5-5.8v.1a32.8 32.8 0 0 0-9.6 9.9ZM71 52.3h-.1l.4.3-.3-.3ZM70 51.3h-.4.4ZM68 52.7a12.6 12.6 0 0 1 1.2-.5V52l-1.5.4q.2 0 .3.2ZM64.7 49.1c-1-.5-1.9-1-2.8-1.3l-4.1-.2a32.2 32.2 0 0 1 4.8 1.7l2-.2ZM67.2 53.9a17.5 17.5 0 0 1 1.9 1.2l-1.6-1.4-.3.2ZM72 55l.4.2-.4-.4v.1ZM76.5 117v-.6a17.6 17.6 0 0 0-1 1.6 11.7 11.7 0 0 1 1-1ZM70.3 54.9v-.1l-.2-.2.2.3ZM70.7 58.6a11.8 11.8 0 0 0 0 1.3 3.9 3.9 0 0 1 1.2 0 9.5 9.5 0 0 0-1.2-1.3ZM75.2 114.7a9.9 9.9 0 0 1 1-1.6v-.3a18.3 18.3 0 0 0-1 1.8ZM76.4 115.5v-.3l-.5 1 .5-.7ZM62.7 54.6a19.7 19.7 0 0 1 2.2.3l.6-.5a20 20 0 0 0-1.3-.6l-1.5.8ZM60.5 52.7a47.4 47.4 0 0 0-8 3 33.9 33.9 0 0 1 9.6-1.1l1.6-1a21.6 21.6 0 0 0-3.2-.9ZM60.8 51.3l-2.9-.3c-1.2.2-2.4.4-3.7.8a24.6 24.6 0 0 1 5.5-.2l1-.3ZM63 50.8l-.9-.4a49 49 0 0 0-3.7.5q1.6 0 3 .3l1.5-.4ZM71 53.8l-1.2-1.1c-.4 0-.7.2-1.1.4a19.7 19.7 0 0 1 2 1l.3-.3ZM76.2 111.5l-.1-2.3a21.6 21.6 0 0 0-.7 3.2l.8-1ZM65.6 55a15.3 15.3 0 0 1 2.3.7 19.4 19.4 0 0 0-1.8-1c-.2 0-.3.2-.5.3ZM85.2 42.4a24.8 24.8 0 0 1 6-2.8 51.3 51.3 0 0 1 8.4-5.5 28.4 28.4 0 0 0-12.4 5.4l-2 3ZM85.7 91.4l.2-.2-.2.2ZM90.2 91l-.7-.2c0 .2-.2.3-.3.4l.4.2.6-.5ZM89.3 62.9a74.3 74.3 0 0 0-4.6 14.5l.2 1.4a151 151 0 0 1 6.6-14.5l-2.2-1.4ZM102 76.5a54.3 54.3 0 0 0-15 9.9 31 31 0 0 1 4.2-2.3 55 55 0 0 0 10.9-7.6ZM89 88.7l1.5-.1.2-.2-1.6.3ZM92.2 89.7h-.8l-1.4.8.6.1a15.3 15.3 0 0 1 1.6-1ZM87.6 90.2l1.2.1.4-.5-1.4.2-.2.2ZM83.6 99.8v.6l-.4 2.6c-.1.7-.3 2.5 0 2.1a9.7 9.7 0 0 0 .4-2.7l.5-3a1.7 1.7 0 0 0-.5.4ZM84.4 63.4a5.6 5.6 0 0 0-4.4-3.3l-.2.9a9.8 9.8 0 0 1 2.3 3l.3-1.2-.2 1.5c-.2 2.3-.7 6.8-1 11.7l.3 1 .8-4-.5-4 .7 3c.6-3 1.2-6 2-8.6ZM80.8 108.3l-.6.4a14.7 14.7 0 0 0-1.7 1.4v1l.5-.2 2-1.2a5.2 5.2 0 0 0 0-.7 2.5 2.5 0 0 0-.2-.7ZM89 87.2l-.7.7 1-.2 1.7-1.2-2 .7ZM85.2 93.7l.3-.3-.3.3ZM78.6 113.3a20.8 20.8 0 0 1 2.4-1.8v-.7a17 17 0 0 0-2.5 2v.5ZM84.1 80.8ZM85.3 61l-.3 1.5a12.6 12.6 0 0 1 .8 5 14.3 14.3 0 0 0-1-3.4c-.6 3-1.3 7-1.7 11.2l.2 1.4.6-1.9v-1l.1.7a90.1 90.1 0 0 1 5-11.8 26.2 26.2 0 0 0-3.7-1.7ZM92 88.6h1.2l2.4-.8-3 .3-.7.5ZM91.8 91c.5 0 1 .2 1.4.4a27.4 27.4 0 0 1 7.9-.8 38.3 38.3 0 0 0-7-.9 17.7 17.7 0 0 0-2.3 1.2ZM94.7 88.7a19.8 19.8 0 0 1 4.3-.9h-3l-2.3.8h1ZM90.3 87.6q.8-.2 1.7-.2a26 26 0 0 1 3.4-2.3l-3.2 1-2 1.5ZM86.8 90.2h-.3.2ZM87.6 49.1l-.9-.4a42 42 0 0 0-4 3.5 48.7 48.7 0 0 1 4.9-3ZM88.4 90.7h-1.2l1 .2.2-.2ZM86.5 91.6l.6.3.7-.5-1-.2c0 .2-.2.3-.3.4ZM90.5 91.8l.6.4a16 16 0 0 1 1.7-.6l-1.3-.4-1 .6ZM88.8 91.7l-.7.9h.1l.9-.8-.3-.1ZM88.6 94.5h.1ZM89 93.2a12.4 12.4 0 0 1 1.5-.8l-.4-.2a15 15 0 0 0-1.1 1ZM80.6 100.5v1.7a16 16 0 0 0 .3 2.8c.1.5.7 1 .9 0l.4-4.8a3 3 0 0 0-1.6.3ZM80.2 76.7l.1-1.4-.2-1.6.1 3ZM80.5 99.4a6.6 6.6 0 0 1 .5-.7 5 5 0 0 0-.6.1v.6Z"/><path fill="none" d="m79.6 62.1-.4 1.8-.5 2.1a58 58 0 0 1 1.1 3.7l.6-2.1-.3 3.4.5 1.9A76.8 76.8 0 0 1 82 64a3.9 3.9 0 0 0-2.5-2ZM79.1 76.2a27.6 27.6 0 0 1 .5-5.4c-.4-2-.7-3.7-1-4.6a29.5 29.5 0 0 0-.6 4l-.3 3.7a15.7 15.7 0 0 1 1.4 2.3ZM77.5 80.7l.2.5a11.8 11.8 0 0 1 1.7 2.3v-.1a22 22 0 0 0-1.9-3v.3ZM79.2 47.2l.5-1.3.4-1.3-.6 1-.3 1.6ZM82.4 47.4l-2 4.3a49.7 49.7 0 0 1 3-4.3 6.6 6.6 0 0 0-1 0ZM81.8 51.8a39 39 0 0 1 4-3.6 6 6 0 0 0-1-.5 76 76 0 0 0-3 4ZM83 46.2a11.3 11.3 0 0 1 1.2 0h.2a49.2 49.2 0 0 1 4.6-4.7 19.8 19.8 0 0 0-5.2 3.4l-.7 1.3ZM86.2 38.9l1.3-1.4a31 31 0 0 0-4 3.2q-.7 1-1.2 2.2a18.6 18.6 0 0 1 4-4ZM85.7 59.4v-.2.2a23.9 23.9 0 0 1 3.7 2.4c.4-.9.9-1.6 1.4-2.4a13.3 13.3 0 0 0-10.4-1.2 9.4 9.4 0 0 1 5.3 1.2ZM77.6 79l1.2 1.2a70 70 0 0 0-1.2-3.8v2.5ZM85.2 60.9l-1.4-.5a6.5 6.5 0 0 1 1 1.6l.4-1.1ZM80.5 38.1a19.7 19.7 0 0 0-2.3 5.2 26 26 0 0 1 1.5-2.8l.8-2.4ZM78.7 117.6a11 11 0 0 1 2.2-1.1v-.8a13 13 0 0 0-2.2 1.8ZM79.2 115.5l-.6.6v.3a12.2 12.2 0 0 1 2.4-1.6v-.3a19 19 0 0 0-1.8 1ZM78.7 118.8a6.7 6.7 0 0 1 .7.2l1.4.5v-2.3a10.3 10.3 0 0 0-2 1.2v.4ZM77.2 62.5c0 .8 0 1.4.2 1.1a7 7 0 0 0 .5-1.2.8.8 0 0 1-.7 0ZM78.6 115a17.3 17.3 0 0 1 2.4-2.2v-1a21 21 0 0 0-2.4 2.1v1.1ZM79.8 106.3l-.4-4.6a4.8 4.8 0 0 0-.4 1.1 7 7 0 0 1 .3-1.4l-.1-2a4 4 0 0 0-1.1.9l.2 4.5.7-.6a7.5 7.5 0 0 0-.7.7l.1 4.3 2-1.6a3 3 0 0 1-.6-1.3ZM80 114.7l1-.5v-.4q-.6.4-1 .9ZM78.2 92.3l-.5-.8v.3l.6.5ZM78.5 88.6a45.5 45.5 0 0 0-1-1.7v.2l.3.5.7 1ZM77.5 84ZM79.4 97.4a10.1 10.1 0 0 0-1.4 0v.4a5.4 5.4 0 0 1 1.3-.4ZM77.8 94.6h.2-.2Z"/><path d="M56.7 105a21 21 0 0 0-4-1.5 34.2 34.2 0 0 1 4 1.5ZM86.7 112.5h.4-.4ZM86 109h.3-.2ZM62.5 78a25.4 25.4 0 0 0-4.9-1.8 41.9 41.9 0 0 1 4.9 1.8Z"/><path fill="none" d="M57.6 76.2"/><path d="M98.8 87h.4-.4ZM98 83l.2-.2-.2.1Z"/><path fill="none" d="M106.6 70"/><path d="M101.8 71.8a42 42 0 0 1 4.8-1.8 25.4 25.4 0 0 0-4.8 1.8ZM65.5 80.9l-.5-.1h.5Z"/><path fill="none" d="M64.7 70h-.1"/><path fill="#73bf44" d="M121.5 91a41.6 41.6 0 0 0-18.8-2.8 62.2 62.2 0 0 1 14.9-4 57.8 57.8 0 0 0-18 4.3l-3.8.7a28.6 28.6 0 0 1 4.4-2 36.5 36.5 0 0 0-5.3 2.3l-2.8.8a31 31 0 0 1 4-2.4l.6-.3a49.2 49.2 0 0 1 9.5-2.4 31 31 0 0 0-7.3 1 39.8 39.8 0 0 0 7.1-7 31.7 31.7 0 0 1 10-2.2 39.5 39.5 0 0 0-9.6 1.7 59.8 59.8 0 0 0 4-5.7 37.5 37.5 0 0 1-4.8 6 48.2 48.2 0 0 0-8.4 3.6c2.5-2.2 2.7-3 2.7-3a73.1 73.1 0 0 0-13 10.1 52.7 52.7 0 0 1 17.7-15.6c-5.2 2.3-13 6.6-18 13.5 6.6-11.7 20.6-18.9 20.6-18.9C96.8 73.7 90.6 79.8 87 85a13.5 13.5 0 0 1 3.2-4.8 17.5 17.5 0 0 0-2.5 2.5 58.8 58.8 0 0 1 14.5-18A53.4 53.4 0 0 0 86.3 83c2.5-6.7 5-12.6 7.2-17l3.3 2.6-3-3.2c1.6-3.6 3-6.2 3.8-7.5l1.6.7a14.5 14.5 0 0 0-1.6-.8l.5-1-.6.9a24.8 24.8 0 0 0-15.8-1.4 56.2 56.2 0 0 1 39-.8 53 53 0 0 0-36-2.1 58.8 58.8 0 0 1 11.1-3.7l3.6.4-2.4-.7a54 54 0 0 1 13-1 52.2 52.2 0 0 0-14.6.5 27.3 27.3 0 0 1-4.2-1.7 52.6 52.6 0 0 1 31.2-5.6s-15-3.4-32.2 5l-1.1-1a62.1 62.1 0 0 1 13.3-7A42.9 42.9 0 0 0 88 45.1a11.2 11.2 0 0 0-2-.5 80.3 80.3 0 0 1 6.8-7.2 76.7 76.7 0 0 1 20.5-3.8 74.7 74.7 0 0 0-18.6 2.2c4.9-4.2 10.8-8 17.2-9.6a47.2 47.2 0 0 0-9.9 4 33.9 33.9 0 0 0-12.5 3.6l1.1-1.4 3.5-1.7q-1.8.7-3.3 1.5a48.2 48.2 0 0 1 6.7-6.5 69 69 0 0 0-9 7.7 41 41 0 0 0-4.6 3l1-1.5c9.4-12 27-17.9 27-17.9a68.2 68.2 0 0 0-22.2 11.2 75.8 75.8 0 0 1 9.4-9.7 79 79 0 0 0-7.4 6.5 67.3 67.3 0 0 0-5.9 6.8 30.1 30.1 0 0 0-5.5 8L79.2 41l1.3-4.4A38.3 38.3 0 0 1 91.6 25a41 41 0 0 0-10 8.8l1-2.6A37.5 37.5 0 0 1 87 27a56.6 56.6 0 0 0 13.4-21.7c-3.5 9.1-8.8 15-16 21.7a67.5 67.5 0 0 1 7.6-12 78.3 78.3 0 0 0-9.4 13.7l-2.3 2a18 18 0 0 0-2.8 3.3l.3-2.1a26.3 26.3 0 0 1 3.9-5.4c7.5-8.2 7.6-10.5 7.6-10.5a94.8 94.8 0 0 0-11 12.7A249.5 249.5 0 0 1 85.3 0c-4.1 7.6-7.3 21.4-9.4 32.9l-1 1.7c-.2-3.8-.2-10.7 3-15.3a23.5 23.5 0 0 0-3.4 6.2 126.8 126.8 0 0 1 4-22.8 106.9 106.9 0 0 0-5.6 22.7V25C71.5 11.8 71.6.4 71.6.4a161.7 161.7 0 0 0-.9 19.5 36.1 36.1 0 0 0-1.7-3.4s.8 2.4 1.7 6v2.7a106.6 106.6 0 0 0-6-14.7A200.4 200.4 0 0 1 71 30.9v.7l-2.9-6.8-.5-5.8a71 71 0 0 0-.1 4.3 146.2 146.2 0 0 0-8.5-17 213.8 213.8 0 0 1 8.6 22l.2 2-1.4-2.5-.2-1.5v1.1A107 107 0 0 0 50 6.2a111.2 111.2 0 0 1 16 25.4l.2 2.1A134 134 0 0 0 43.6 6.5a233.3 233.3 0 0 1 21.2 28.4 65.9 65.9 0 0 0-23.9-17.8 72.8 72.8 0 0 1 22 17.7 21.6 21.6 0 0 0-3.6-2.3 16.7 16.7 0 0 1 5.2 5 63.7 63.7 0 0 0-28.7-14.3s18.8 5 29.8 17.3c-8-7-18.4-10-25.3-11.5a65.1 65.1 0 0 1 25.4 14.2 90.1 90.1 0 0 0-18.2-8.9s.4 1 4 3a59.6 59.6 0 0 0-11-2.2 46.4 46.4 0 0 1-7.5-6 73.8 73.8 0 0 0 6.4 6 48.7 48.7 0 0 0-12 .4 39.3 39.3 0 0 1 12.5 0A49 49 0 0 0 50.4 42a38.2 38.2 0 0 0-9 .7 60.8 60.8 0 0 1 12 .4l.8.2a38.3 38.3 0 0 1 5.5 1.8L56 45a45 45 0 0 0-7-1.5 35.2 35.2 0 0 1 5.8 1.4c-1.7 0-3.3 0-4.8.2-6-1.2-13.4-1.6-22.7-.5a76.8 76.8 0 0 1 19 .9c-13.7 2-22 8.3-22 8.3A51.5 51.5 0 0 1 48.7 46a48.3 48.3 0 0 1 7.6 2.3 52.4 52.4 0 0 0-5.8 1.3 56.6 56.6 0 0 0-5.5 2c-1.1.2-2.3.5-3.5 1A24.2 24.2 0 0 1 44 52a43.4 43.4 0 0 0-5.5 2.8 53.1 53.1 0 0 1 7.7-3.2 33.6 33.6 0 0 1 6.9-.2 53.8 53.8 0 0 0-10.7 5.3 95.1 95.1 0 0 0-9.4 3.7 79 79 0 0 1 8-2.7 47 47 0 0 0-9.3 8 64.4 64.4 0 0 1 12.6-9 52 52 0 0 1 12.5-1.6 21.4 21.4 0 0 0-4.3 4.5 25.7 25.7 0 0 1 4.8-4.4 26.9 26.9 0 0 1 3.3.2 15 15 0 0 0-3 5.5 19.9 19.9 0 0 1 3.8-5.3 17.7 17.7 0 0 1 3.4 1 8.7 8.7 0 0 0-3.9 6 7.5 7.5 0 0 1 6.4-4.5 11.6 11.6 0 0 0 .4 2.4 5 5 0 0 0-2.4 1.9 3.4 3.4 0 0 1 2.5-1.5 19 19 0 0 0 1.1 2.8 16.3 16.3 0 0 1-.5-2.7 4.3 4.3 0 0 1 2.1 1.7 13 13 0 0 0-1.5 4.9 13.2 13.2 0 0 1 2-4c.2.8.6 1.5 1 2.4a11.5 11.5 0 0 1 .6 2.6 51 51 0 0 0-2.2-3.6s1 1.8 2.3 4.8l.7 5.9.2 2.6c-2.6-5.6-5.5-11-8.3-14.2 0 0 3.2 5.7 7.2 14.7a78.5 78.5 0 0 0-9-6.5s.5 1.8 7.9 7a21 21 0 0 1 2 1.5c0 .3.2.5.3.8v1.1l-.5-.2-2.2-1.3a63.3 63.3 0 0 0-9.7-9.1 55.5 55.5 0 0 1 8 8 45 45 0 0 1-16.4-14.4s6.7 11.2 14.3 15a30.5 30.5 0 0 1 4.4 2.5l1.3 1.9a33.3 33.3 0 0 0-9.7-5.2 64.4 64.4 0 0 0-7-4 61.4 61.4 0 0 1 9.1 6.1c-4.7-2.3-11-4.2-19.5-5 0 0 15 1.7 24.5 9.5l1 1a33 33 0 0 0-4.1-1.5 55.7 55.7 0 0 0-8.4-4.6 39 39 0 0 1 6.3 4l-2.8-.7 3 .8 1.1.9a27.4 27.4 0 0 0-10.5-.7 38.2 38.2 0 0 0-8.5-1.4 36.2 36.2 0 0 1 15.3 4.6 60.5 60.5 0 0 0-15.1 1.5 62 62 0 0 1 16.8-.5 65 65 0 0 1 6.7 4.5 9.4 9.4 0 0 0-1.5.7 34.8 34.8 0 0 0-12.4-2.7 50.3 50.3 0 0 1 11.7 3.3l-.7 1a43.2 43.2 0 0 0-26.4 1.6 42.6 42.6 0 0 1 25.7-1 21.8 21.8 0 0 1-3 2.1l-2.7.2-.2-.3.2.3-3.3.4-1.1-1.4.8 1.5a36 36 0 0 0-5.4 1.4 42.8 42.8 0 0 1 5.6-1l1 2a41.3 41.3 0 0 0-13.8 6.4 51.1 51.1 0 0 1 14.3-5.6 167.6 167.6 0 0 1 7.3 17c-2-4-5.8-9.6-13.2-15.2a48.3 48.3 0 0 1 13.5 18 41.7 41.7 0 0 0-17.6-14.7s11.6 6 17 15.6A37.5 37.5 0 0 0 52 113a44.6 44.6 0 0 1 15.3 13.9 38.7 38.7 0 0 0-24.7-11.5c10.1.4 19.6 8 23.6 11.7a30.1 30.1 0 0 0-15.5-5 40.8 40.8 0 0 1 15 5.4A36.4 36.4 0 0 0 38 127a37 37 0 0 1 29 2c-10.2-3-19.9.6-19.9.6a38 38 0 0 1 17.2-.3 35.5 35.5 0 0 0-23.2 6.5 37.6 37.6 0 0 1 25.7-5 16.3 16.3 0 0 0-11.1 4 16.8 16.8 0 0 1 10.7-3.6 10 10 0 0 0-7.6 5.1c3.5-4.4 7.6-4.7 9.6-4.6-5 .4-9.7 9.2-9.7 9.2A23.7 23.7 0 0 1 66 134c-.7 1.2-1 3-.3 5.8 0 0-.5-6.3 4-6.8v.4l.7 4.5.6 3.7c.2 1 1 1.7 1 2.9l.3 5.6h2.2l-.1-2-.3-5.4c.1-1 .5-2 .5-2.8v-6.5a.7.7 0 0 0 0-.3 7.5 7.5 0 0 1 .8-2l.4 5.2c.3 4.3.4 11.3.5 13.8H79c.2-1.1 0-3.2-.5-7.3-.3-2.9-.5-7.3-.7-12.7a5 5 0 0 1 2 1.2l.2.2V140.6l-.2 7.9a6 6 0 0 0 .1 1.5h2.9a1.4 1.4 0 0 0 0-.3L83 139l.1-5.5a35.2 35.2 0 0 0 4.6 1.8 33.4 33.4 0 0 1-4.5-2.8l.2-6.2c7-1.5 15.8.2 15.8.2-7-1.5-12.1-1.6-15.8-1v-1.6a22.5 22.5 0 0 1 9.1-1.3 22.7 22.7 0 0 0-9 .6v-.4a29.7 29.7 0 0 1 3-1l-3 .8V121c7.7-4.6 17.2-5.6 17.2-5.6a44 44 0 0 0-17.1 4.6v-1a21.6 21.6 0 0 1 2.7-1.3l-2.6 1 .1-.8c6-3.5 11-11.9 11-11.9A33.8 33.8 0 0 1 84 116.2l.2-1a9.2 9.2 0 0 0 .3-2c1.3-1.3 1.4-1.8 1.4-1.8l-1.4.9.1-1.7a23 23 0 0 1 1.1-4.1 8.6 8.6 0 0 1 2.8 3.1 9.6 9.6 0 0 0-2.5-4 9 9 0 0 1 1.5-3 13.2 13.2 0 0 1 .4 4 12 12 0 0 0 .3-4.8 6 6 0 0 1 4 1.7 10.6 10.6 0 0 0 1.9 1.4l2.4 3s-.5-1-1.5-2.4a39.9 39.9 0 0 0 6.8 2.8c-9.6-5.1-5.5-5-9.7-6.7a24.2 24.2 0 0 0-1.7-1.8 15 15 0 0 1 2-1 16.1 16.1 0 0 1 4 3.5 12.1 12.1 0 0 0-3.4-3.8 21.5 21.5 0 0 1 2.6-.7 20.6 20.6 0 0 1 4.5 2.6 17.3 17.3 0 0 0-4.1-2.7 42 42 0 0 1 10.2-1 52.2 52.2 0 0 1 11.5 5 38 38 0 0 0-8.7-4.8 64 64 0 0 1 6.7.8 77 77 0 0 0-8-1.3 43.7 43.7 0 0 0-9.4-2.3 27.3 27.3 0 0 1 5.5-1 42.9 42.9 0 0 1 6.7 1.1 35.3 35.3 0 0 0-5-1.3 20 20 0 0 1 2 0l-2.9-.1a46.1 46.1 0 0 0-4.6-.6 42.4 42.4 0 0 0-4.9 0 39.4 39.4 0 0 1 5.6-3.2 41.7 41.7 0 0 1 20.7 2ZM68.7 51.4l.3.4-.4-.4Zm-.8-15v-.1Zm-.4 13.8-.3.1H67h.4Zm-1 1h.1a14.7 14.7 0 0 0-1.4.6l-.3-.2a25 25 0 0 1 1.7-.4Zm-.6-.6-1.6.5a29 29 0 0 0-.8-.6l2-.2.4.3ZM63.4 49l-2 .3c-.2 0-.3-.2-.5-.3h2.5Zm-.6-1.3L60 46.3l2.9.5 1.3.8h-1.4Zm-.2 4.1-.8.4a22 22 0 0 0-2.6-.9l1.2-.2 2.2.7Zm.8.3.6.5-.5.3a21 21 0 0 0-1-.4l.9-.4Zm-4.5-8.9a79.2 79.2 0 0 1-17.6-7.4A78.2 78.2 0 0 1 65.5 45a44.8 44.8 0 0 0-6.6-1.9Zm-5.6 2.8c1.7 0 3.3 0 4.8.2l3.3 1.6-2.5.2a37.5 37.5 0 0 0-5.6-2Zm5 3.2 1 .5-1.8.5q-1.7-.3-3.5-.4l4.4-.6Zm-9.1 1.7 4.2-1 3.4.4-1.3.4a28.7 28.7 0 0 0-6.3.2ZM47 55.3a55.3 55.3 0 0 1 9.4-3.4 25.2 25.2 0 0 1 3.7 1L58.4 54A39.5 39.5 0 0 0 47 55.3Zm14.5-.9a23 23 0 0 0-2.6-.3l1.8-1 1.5.7-.7.6Zm.8.2.6-.5a22.7 22.7 0 0 1 2 1.3 17.8 17.8 0 0 0-2.6-.8Zm1.9-1.4.4-.2 1.8 1.6a20.5 20.5 0 0 0-2.2-1.4Zm1.7-.9 1.3-.5 1.4 1.3-.3.4a23 23 0 0 0-2.4-1.2Zm2 2.1-.4-.3.4.2v.1Zm.4 5.9a13.7 13.7 0 0 1 0-1.5 11.1 11.1 0 0 1 1.4 1.5 4.5 4.5 0 0 0-1.4 0Zm1.4-5.9h.1c.2 0 .3.2.4.4l-.5-.4Zm5.4 72.4A13.6 13.6 0 0 0 74 128a20.5 20.5 0 0 1 1.1-1.8v.6Zm-.1-1.7-.7.8.7-1v.2Zm-.2-3.2v.4a11.5 11.5 0 0 0-1.3 1.9v-.1a21.4 21.4 0 0 1 1.3-2.2Zm-.1-1.5-1 1.1a25.3 25.3 0 0 1 .8-3.7l.2 2.6Zm-.2-4.5a14.5 14.5 0 0 0-.7 1.3 26 26 0 0 0-1.2-8.3l1.6-1.1.3 8Zm-3.8-10.5a12.5 12.5 0 0 0-1.6 1.3l-.5-2a20.3 20.3 0 0 1 5.4-1.2v.3a11.7 11.7 0 0 0-3.1 1.5 42.5 42.5 0 0 0-.2 0Zm-2.2-1-.6-2.1a40.6 40.6 0 0 1 6 .2l.1.5a20 20 0 0 0-5.5 1.3Zm-.3 0a20.3 20.3 0 0 0-3 1.6c-.5-1.1-1-2.3-1.7-3.4l4.2-.3.5 2.2Zm0 .4.5 2.4a11.2 11.2 0 0 0-1.8 2.4 17.7 17.7 0 0 1 1.8-2l.6 3.5-1.2 1.8c-.8-2.2-1.7-4.5-2.8-6.7a20.3 20.3 0 0 1 3-1.4Zm1 2.3A14.6 14.6 0 0 1 71 106l.3 2.8-1.2 1.5-.7-3.2Zm1.8-1.2a12.7 12.7 0 0 1 3-1.4l.1 1.4a19.9 19.9 0 0 0-2.6 2.5l-.5-2.5Zm1.6-43.5a2 2 0 0 1 1.6.4c0 2-.1 3.8-.5 3.6-.4-.1-.8-2.5-1-4Zm1 34.1.1.6-2.4-1.2a6 6 0 0 1 .9-.6l1.5 1.2Zm-.1-1.7.2-.1v.2l-.2-.1ZM69 84.2a54.4 54.4 0 0 0-5.8-4.3 31 31 0 0 1 10.5 6.8v1.6a25.3 25.3 0 0 0-4.7-4.1Zm3.2 4.3 1.5 1.8a17.5 17.5 0 0 0-4.5-2.9l-1.4-1a29.8 29.8 0 0 1 4.4 2.1ZM56 85.7a26.8 26.8 0 0 1 12.5 2.5 56 56 0 0 1 2.4 2.3 23.5 23.5 0 0 0-6.2-1.4 48.4 48.4 0 0 0-8.7-3.4Zm11.2 4.7a18.8 18.8 0 0 1 5.6 2l.8 1.1a9.9 9.9 0 0 0-1 .3h-.2a47 47 0 0 0-5.2-3.4Zm3.6 6.1 3 1.6v.3L70 97.1l.8-.6ZM69 97.8a48.9 48.9 0 0 1 4.8 1.7v.6a38.6 38.6 0 0 0-7.9-.7 25.7 25.7 0 0 0 3.1-1.6Zm4.6 3.3a41.6 41.6 0 0 0-6 0 29.5 29.5 0 0 0-.1 0 42.5 42.5 0 0 0-4.5.5l-.6-.9 1.8-.6a47.6 47.6 0 0 1 9.4 1Zm-10.4-1-.9.5c0-.2-.2-.3-.3-.5h1.2Zm-4.5.3c1-.2 2.2-.2 3.3-.3l.2.5-.8.5.9-.3.4.9-2.8.6-1.2-2Zm1.8 2.8 2.7-.5 1.6 3.6a13.6 13.6 0 0 0-1.7 1.4c.5-.5 1.1-.9 1.7-1.2a74.8 74.8 0 0 1 2.6 7.5l-.7 1.2.7-1a55.6 55.6 0 0 1 1.6 7.4 137.3 137.3 0 0 0-8.5-18.4Zm7.7 10 1.2-1.3.8 7-2-5.7Zm3.3 23-.3-2.7a.6.6 0 0 0 .4 0v2.6Zm-1.4-25 1.1-1.1c.3 2.7.5 6 .5 9.4l-1.6-8.4Zm1.7-1.6.8-.6a49 49 0 0 1 .1 8.6c-.2-2.4-.5-5.2-1-8Zm1.8 23.2c-.6.4-.4 1.6-.4 2.3v2.7a30 30 0 0 1-.3-4.2 1.5 1.5 0 0 0-.2-1.1 3.1 3.1 0 0 1 1.4-2.2 12.1 12.1 0 0 0-.5 2.5Zm1-3.7a3.7 3.7 0 0 0-1.1.7 11.9 11.9 0 0 1 1.6-2.2v.3l-.5 1.2ZM93 64.7l-2.4-2 1.4-3a21.5 21.5 0 0 1 2.8 2l-1.8 3Zm4.4-6.9a42.5 42.5 0 0 0-2.6 3.8 15 15 0 0 0-2.6-2.2l.8-1.6-1 1.5a14.6 14.6 0 0 0-9.7-2.4 25 25 0 0 1 15 .9Zm-8-9.6a31.9 31.9 0 0 0 4.1 1A46.1 46.1 0 0 0 80.8 54a59.6 59.6 0 0 1 8.6-5.7Zm-1.3-.5a56.9 56.9 0 0 0-5.8 3.5 49 49 0 0 1 4.8-4l1 .5Zm-2-1.1a45.5 45.5 0 0 0-4.8 4.2L85 46a7 7 0 0 1 1.2.5Zm-1.8-2.2h-.2a13.2 13.2 0 0 0-1.3-.2l.8-1.4a23.1 23.1 0 0 1 6.2-4 57.4 57.4 0 0 0-5.5 5.6Zm17.8-14.2a59.9 59.9 0 0 0-9.7 6.3 28.9 28.9 0 0 0-7 3.4c.6-1.2 1.4-2.3 2.2-3.5a33.1 33.1 0 0 1 14.5-6.2Zm-18.9 7.6a36.2 36.2 0 0 1 4.8-3.7l-1.5 1.6a21.7 21.7 0 0 0-4.6 4.7l1.3-2.6Zm-3.5 12.8a82 82 0 0 1 2.3-4.9 7.7 7.7 0 0 1 1.2 0 58 58 0 0 0-3.5 5Zm12 9-1.5 2.8a27.8 27.8 0 0 0-4.3-2.8v-.2.2a11 11 0 0 0-6.3-1.4 15.5 15.5 0 0 1 12.2 1.5Zm-6.5 1.8-.3 1.3a7.6 7.6 0 0 0-1.2-1.8l1.5.5Zm-5.9-19-.4 1.5-.7 1.6.4-2 .7-1.1Zm.6 33-.5-2.2.3-4-.7 2.5c-.4-1.6-.8-3-1.3-4.3l.6-2.5.4-2a4.5 4.5 0 0 1 3 2.3 89.6 89.6 0 0 0-1.8 10.2Zm.6 30.2a7.7 7.7 0 0 0-.7.7v-.6a5.9 5.9 0 0 1 .7-.1Zm-.9-27.4-.1 1.6-.2-3.4.3 1.8Zm.3-43.4-1 2.8A30.3 30.3 0 0 0 77 41a23 23 0 0 1 2.8-6Zm-2.2 32.8 1 5.4a32.2 32.2 0 0 0-.5 6.3 18.4 18.4 0 0 0-1.6-2.7l.3-4.3a34.4 34.4 0 0 1 .8-4.7Zm.9 20v.2a13.8 13.8 0 0 0-2-2.7l-.2-.6v-.4a25.7 25.7 0 0 1 2.2 3.6Zm-2.2-5.2v-3l1.4 4.6-1.4-1.6Zm-.5-19.1a1 1 0 0 0 .8-.1 8.1 8.1 0 0 1-.5 1.4c-.2.3-.2-.3-.3-1.3Zm.4 25 .1.1Zm.1 3.5.4.4a53.2 53.2 0 0 1-.1.4l-.3-.6v-.2Zm.2 5.4.6.8-.6-.5v-.3Zm.1 3.6h.2-.2Zm.2 3.2a11.8 11.8 0 0 1 1.6 0 6.3 6.3 0 0 0-1.6.4v-.4Zm.3 8.7a8.7 8.7 0 0 1 .8-.8s-.3.2-.8.7l-.2-5.3a4.6 4.6 0 0 1 1.2-1l.3 2.4a8.2 8.2 0 0 0-.5 1.7 5.6 5.6 0 0 1 .5-1.3l.4 5.3a3.5 3.5 0 0 0 .7 1.5l-2.2 2-.2-5.2Zm3 17.1-1.7-.6a7.8 7.8 0 0 0-.7-.2v-.5a12 12 0 0 1 2.4-1.3v2.6Zm0-3.5a12.8 12.8 0 0 0-2.5 1.3v-.1a15.1 15.1 0 0 1 2.6-2.1v.9Zm-2.5 0v-.5l.5-.6a22 22 0 0 1 2.1-1.2v.4a14.3 14.3 0 0 0-2.6 1.8Zm1.5-2.1 1.1-1v.5l-1.1.5Zm1.2-2.2a20.2 20.2 0 0 0-2.8 2.6v-1.3a24.6 24.6 0 0 1 2.8-2.4v1.1Zm0-1.6a24.3 24.3 0 0 0-2.9 2.2v-.7a19.8 19.8 0 0 1 3-2.2v.7Zm-2.4-.6c-.2 0-.4.2-.5.3v-1.2a17.1 17.1 0 0 1 2-1.7l.6-.5a2.9 2.9 0 0 1 .3.9 6.1 6.1 0 0 1 0 .8l-2.4 1.4Zm3.8-12.5c0 1.4-.3 4.1-.5 5.5-.2 1.3-.9.7-1 .1a18.7 18.7 0 0 1-.3-3.3v-2a3.5 3.5 0 0 1 1.8-.3Zm0-31.7-.8 4.7-.3-1.2A166.4 166.4 0 0 1 82 65.7l-.2-.3.3-1.7-.4 1.4a11.5 11.5 0 0 0-2.7-3.6l.2-1c2.5.2 4.2 2 5.2 3.9-.8 3-1.6 6.5-2.3 9.9a56 56 0 0 0-.8-3.4l.6 4.7Zm1.7 34.3a11.3 11.3 0 0 1-.6 3.1c-.3.4 0-1.6 0-2.4.2-.9.5-2.3.5-3v-.7a2 2 0 0 1 .6-.5c-.3 1.3-.5 3-.5 3.5Zm.5-25.3Zm0-7.3-.3-.8.1 1.2-.7 2.1-.2-1.6a163 163 0 0 1 1.9-13 16.6 16.6 0 0 1 1.2 4 14.7 14.7 0 0 0-.9-6l.4-1.7a30.5 30.5 0 0 1 4.2 2 105.2 105.2 0 0 0-5.8 13.8Zm1.3 22.4.3-.4-.3.4ZM86 97l.1-.2h.1l-.2.2Zm-1-14.7c0-.5 0-1-.2-1.7a86.7 86.7 0 0 1 5.4-16.9l2.6 1.7a176.3 176.3 0 0 0-7.7 17Zm20-2.7c-3.5 3.4-7.6 6-12.6 8.9a36.3 36.3 0 0 0-4.8 2.7A63.4 63.4 0 0 1 105 79.6ZM90.5 96.3l.7.1-.7.6-.5-.2.5-.5Zm-1-.6h-1.3l.3-.3 1.6-.2-.5.5Zm1.5.2 1.7-.9h1a17.8 17.8 0 0 0-2 1H91Zm.5-2.2-1.6.1 2-.3-.4.2ZM89 93l1-1a49 49 0 0 1 2.1-.8l-2 1.5-1.1.3Zm-1.8 2.6h-.3.3Zm.4 2-.7-.3.4-.5 1.1.2-.8.6Zm.1-1.4h1.5l-.2.3-1.3-.3Zm1.1 2.2.8-1h.3l-1 1Zm.6 2.3Zm.5-1.5a17.5 17.5 0 0 1 1.2-1.3l.5.3a14.5 14.5 0 0 0-1.7 1Zm2.4-1.3-.7-.4 1.1-.8 1.5.5a18.6 18.6 0 0 0-2 .7Zm11.6-1.8a32 32 0 0 0-9.1 1c-.5-.3-1-.5-1.7-.6a20.6 20.6 0 0 1 2.8-1.5 44.7 44.7 0 0 1 8 1.1Zm-6-3.3h3.6a23.2 23.2 0 0 0-5 1h-1.1l2.5-1Zm-.4 0-2.7 1H93l.7-.6c1.1-.2 2.3-.3 3.6-.3Zm-4.2-.5-2 .2 2.3-1.8 3.8-1a30.2 30.2 0 0 0-4.1 2.6Z"/><path fill="none" d="m47.2 23-.1-.1"/><path d="M86.3 112.6h.4-.4ZM90.8 29.7l-.2.1h.2Z"/><path fill="none" d="M101 26.8"/><path d="M95.7 30.3a51.5 51.5 0 0 1 5.3-3.5 31.3 31.3 0 0 0-5.3 3.5ZM54.3 50.8h-.5.5ZM54.1 45.6H54h.2Z"/><path fill="none" d="M40.3 32.2"/><path d="M46.6 33.1a31.4 31.4 0 0 0-6.2-.9 51.6 51.6 0 0 1 6.2 1ZM92.8 34.5l.5-.2-.5.2Z"/></svg>