<svg xmlns="http://www.w3.org/2000/svg" viewBox="0 0 150 150"><path fill="#73bf44" d="M88.4 73.7ZM89 74.4ZM86 61.6l.3.3a1.1 1.1 0 0 1 0-.2l-.3-.1ZM85.7 62.7h.2a2.5 2.5 0 0 1 0-.3l-.3-.1a2.7 2.7 0 0 1 0 .4ZM86.2 64ZM86.2 63.5a.7.7 0 0 1-.4 0 3.2 3.2 0 0 1 .3.2h.1l.2-.1a1.2 1.2 0 0 1-.2-.1ZM89.6 74.6a1.3 1.3 0 0 0 0-.3 1.4 1.4 0 0 1-.2.2h.2ZM83.2 63.9ZM65.7 31.7l.7.2a2.5 2.5 0 0 1 .5-.3 3.7 3.7 0 0 1-.5-.1.7.7 0 0 0 0 .1l-.3-.1a2.1 2.1 0 0 1-.6.2 1 1 0 0 1 .2 0ZM73.3 41.2a4.6 4.6 0 0 1-.7 0l.3-.4a4.8 4.8 0 0 1-1.1-.1 1.6 1.6 0 0 0 .5-.3A4.3 4.3 0 0 1 71 40a3.9 3.9 0 0 1 1-.5 5.5 5.5 0 0 1-.8-.4l.1.3a3.1 3.1 0 0 0-.2-.2 1.6 1.6 0 0 1 .1.6s-.2-.2-.4-.3a1.6 1.6 0 0 1 0 .3l.3.1a1.4 1.4 0 0 0-.3.2 2.7 2.7 0 0 1 .4 0 2.5 2.5 0 0 1-.2.3 3 3 0 0 1 .6.2 1 1 0 0 0-.3.1 2.6 2.6 0 0 1 .8.4 2.4 2.4 0 0 1-.7.2 2.5 2.5 0 0 1 .3.2 3.8 3.8 0 0 0-.6 0v.2h-.4a1.2 1.2 0 0 1 .2.2 3.3 3.3 0 0 1 .4.2 3.8 3.8 0 0 1 .5-.2 1.8 1.8 0 0 1 .2 0 4.5 4.5 0 0 1-.4-.6 3.2 3.2 0 0 1 1.3.2 4 4 0 0 0 .4-.3ZM84.7 63.6a4 4 0 0 1 .4.3 3.5 3.5 0 0 1 0-.7 3.2 3.2 0 0 1-.3-.5 2 2 0 0 1-.1.2l.1.3a1.2 1.2 0 0 0-.3-.2 4 4 0 0 1 .2.6ZM90.9 59.8ZM86 76.5l-.1.2a1.3 1.3 0 0 1 .3-.2H86ZM85.7 76.3v.3l.3-.1a2.5 2.5 0 0 1-.3-.2ZM66 30.7c.2.2.2.3.2.5l.3-.2a3 3 0 0 1-.4-.3ZM67 32.6a1.4 1.4 0 0 1 .1-.1l-.2-.3h-.2a2.8 2.8 0 0 1-.5.2l.7.2ZM73 38.8ZM70 25a3 3 0 0 1-.6-.2.6.6 0 0 1 0 .2v.2l.4.4a5 5 0 0 1 .1-.5s.1 0 .3.3a2.8 2.8 0 0 1 .6.2l-.4-1.2a6.8 6.8 0 0 1 1.1.8l-.3-.6h.2a2.2 2.2 0 0 1 .5-.3v-.1h-.3a.8.8 0 0 0 .1-.2V24a2 2 0 0 1 .2-.3 2.9 2.9 0 0 1-.4 0 1.9 1.9 0 0 1 .1-.2 3.7 3.7 0 0 1-.7.5 4.8 4.8 0 0 1 .4.4 2.7 2.7 0 0 1-1.2-.2 1 1 0 0 1-.2 0 2 2 0 0 0 0 .1l.3.4a1.6 1.6 0 0 1-.5-.1 2.6 2.6 0 0 1 .2.5ZM72.6 92ZM77.7 80.4v-.1ZM86.9 61.6h.1v-.1a2.4 2.4 0 0 1-.3-.2v.3-.2l.2.2ZM74.6 88h.1ZM105 89.8ZM80.3 79.2a1.2 1.2 0 0 1 .2 0 3.5 3.5 0 0 1-.2-.5 2.6 2.6 0 0 1 .5.2 1.6 1.6 0 0 1-.1-.5s0 .1.3.3h.2a.8.8 0 0 1 0-.2c-.6-.3-.7-1.4-.7-1.4a3.5 3.5 0 0 1 .8.6 3.5 3.5 0 0 1 .2-.5 1.8 1.8 0 0 1 0-.2l-.2.6a6.8 6.8 0 0 1-.4-1.3l-.4.7a3 3 0 0 1-.1-.8 1.8 1.8 0 0 0-.4.6 6 6 0 0 1-.2-1l-1 .6a2.7 2.7 0 0 1 .5-1l-1.1.5a2.9 2.9 0 0 1 .4-.8l-1 .4a2.7 2.7 0 0 1 .6-.9 4 4 0 0 1-.8-.1l-.1.2a1.2 1.2 0 0 1-.2 0 4.6 4.6 0 0 1 .7.5 4.5 4.5 0 0 1-.8.3 2.7 2.7 0 0 1 .7.4H77a3 3 0 0 0-.2.3 1.4 1.4 0 0 1 .3.2c.9-.3 2.2 1 2.2 1a5.7 5.7 0 0 1-1.6 0 6 6 0 0 1 .4 1.4l-.4-.3a2.5 2.5 0 0 1 .3.9s-.3-.2-.7-.5a2.3 2.3 0 0 1 .2.6h.4a2.1 2.1 0 0 0-.6.4 4.7 4.7 0 0 1 .7.1l-.2.1a3.4 3.4 0 0 1 .5.4 2.8 2.8 0 0 1 .3-.3h-.1a3.2 3.2 0 0 1 .3-.4 2.6 2.6 0 0 0 0 .3 1.5 1.5 0 0 1 .3-.4v.4a2.5 2.5 0 0 1 .4 0 3.7 3.7 0 0 1-.3-.8s0 0 .3.2a1.5 1.5 0 0 1-.2-.6s.2.1.4.3a4.3 4.3 0 0 1 .6 0ZM73.5 19.5a1.1 1.1 0 0 1-.2.1h.2ZM91.2 76.4a1.4 1.4 0 0 1 .1-.4l-.1.1v.3Z"/><path fill="#73bf44" d="M91.1 76a3.5 3.5 0 0 1 .5-.7 3.6 3.6 0 0 1-.9-.3h.3a1.5 1.5 0 0 1-.5-.2s.2-.1.5-.2a1.7 1.7 0 0 1-.4-.1l-.2.1a1.3 1.3 0 0 0 0-.4 3 3 0 0 1-.2.3l-.1-.3a2.7 2.7 0 0 1-.4.4h.2a2.7 2.7 0 0 1-1 .4l.5.2a6.8 6.8 0 0 1-1.5.5 6.2 6.2 0 0 1 .9 1.2 2.9 2.9 0 0 1-.1-.8 2.4 2.4 0 0 1 .5.4v-.3l.4.6a1.1 1.1 0 0 1 0-.2s.1.2.3.4a1.6 1.6 0 0 1 .2-.3 3.2 3.2 0 0 1-.1-.5 3.7 3.7 0 0 1 .7.6 3.4 3.4 0 0 1 .2-.4 3 3 0 0 1 .2-.3ZM86.6 75.8a1.4 1.4 0 0 1-.3-.2l-.1.4.3.6h-.2l-.1.4a4.2 4.2 0 0 1 .2.5.7.7 0 0 1 0 .1 3 3 0 0 1 .4-.2 2 2 0 0 1-.2.8 1.6 1.6 0 0 0 .2.2 3 3 0 0 1 0-.4l.3.2a3.1 3.1 0 0 1 0-.7 1 1 0 0 0 .2.3 2.7 2.7 0 0 1 .3-.8 1 1 0 0 1 0 .1 4.7 4.7 0 0 1 .4.3 2.5 2.5 0 0 1 .3.4l.1-.3v-.2a1.6 1.6 0 0 1 .1 0h.1V77c-.6-.2-1.8-.6-2-1.3ZM73.5 21.6l-.2-.1v.1h.1ZM84.4 63l-.1.1V63l-.3-.2v.3l-.2-.3v.5l-.1.1-.1-.2-.2-.1v.2l.1.2a1.3 1.3 0 0 0-.4 0 3.1 3.1 0 0 1 .4.3 1.2 1.2 0 0 1-.1 0 2.8 2.8 0 0 1 .5.2 3.4 3.4 0 0 1 .2-.6 1.4 1.4 0 0 0 0-.2s0 0 .1 0l.2-.2ZM91.5 76.3a2.9 2.9 0 0 1 .3 0 3.8 3.8 0 0 1-.1-.4 2 2 0 0 1-.2 0v.4ZM78 73ZM71.8 22.7a.7.7 0 0 0 0 .3s0 0-.2-.1a1.7 1.7 0 0 1-.3.2h.5a1.5 1.5 0 0 1-.5.3h.3a1.8 1.8 0 0 1 .4-.5l-.2-.2ZM65.8 11ZM86.6 16.6l.1-.2v.6a1.3 1.3 0 0 1 .3-.3 3 3 0 0 1-.3-.4l-.1.1v.2ZM70 4.3ZM74.4 20.2h.1a1.4 1.4 0 0 1 0-.2l-.2.1v-.5a1.4 1.4 0 0 1-.2.2 3.2 3.2 0 0 1 .3.4ZM66.3 10.6ZM98.5 54.8l.2-.2-.2-.2-.1.3a1 1 0 0 1 .1.1ZM97.7 31.8ZM58.1 22.3v-.1H58v.2h.1ZM95.4 55.5a1.8 1.8 0 0 0-.5-.2 3 3 0 0 1 .2.4l.3-.2Z"/><path fill="#73bf44" d="M95.4 55.5v.3a1.5 1.5 0 0 1 .4-.4l-.1.5a1.6 1.6 0 0 1 .3-.2v-.3a1.3 1.3 0 0 0 .3.3 3.3 3.3 0 0 1-.1-.4l.3.1a3 3 0 0 1 0-.7 1 1 0 0 0 .2.3v-.1l-.2-.2a1.4 1.4 0 0 1-.2-.1 4.2 4.2 0 0 1-.3.7 3.4 3.4 0 0 1-.5-1.1l-.4-.1a5 5 0 0 1 .3.4 5 5 0 0 1-.5 0 5 5 0 0 1 .5 1ZM104.9 90.5v-.2a1.5 1.5 0 0 1 0 .2ZM91.7 112.4ZM76.6 94.2a3.8 3.8 0 0 1 .6.7 3.7 3.7 0 0 1 .6-.7s.1 1.1-.4 1.5a.9.9 0 0 1 0 .2h.2l.3-.3a1.6 1.6 0 0 1 0 .5 2.6 2.6 0 0 1 .4-.3 2.8 2.8 0 0 1 0 .5 3.8 3.8 0 0 1 .7-.1l.4-.4a1.5 1.5 0 0 1-.1.6l.2-.3a4 4 0 0 1-.1.8 1.6 1.6 0 0 1 .4 0 4.1 4.1 0 0 1 .6 0s-.1.1-.2.2a1 1 0 0 1 .3 0v-.2h-.2l-.4-.4a2.4 2.4 0 0 1 .4 0l.1-.2a4 4 0 0 1-.3-.4s0 0 .2 0a2.1 2.1 0 0 1 0-.2 2.5 2.5 0 0 1-.6.6 2.2 2.2 0 0 1 0-.7h-.2v.2a.8.8 0 0 0-.1-.2 1.4 1.4 0 0 1-.2 0s0 0 .1 0a1.8 1.8 0 0 1-.2-.4 2.8 2.8 0 0 1-.1.4 1.9 1.9 0 0 1-.3-.9 3.2 3.2 0 0 1-.7.2 3.6 3.6 0 0 1 .6-.8 3.8 3.8 0 0 1-.8-.3s0 0 .3-.1a1.5 1.5 0 0 1-.6-.2s.3 0 .6-.2a4 4 0 0 1 .3-.5 2.8 2.8 0 0 1-.4-.2 2 2 0 0 1 .8-.4 2.2 2.2 0 0 1 0-.2 3.2 3.2 0 0 1-.2.2v-.3a3 3 0 0 1-.7.3 1 1 0 0 0 .2-.3 2.6 2.6 0 0 1-.8.3 2.6 2.6 0 0 1 .2-.5 3.2 3.2 0 0 1-.6 0 .8.8 0 0 0 .2-.1 1.6 1.6 0 0 1-.6 0s.1 0 .2-.2a1.4 1.4 0 0 1-.4 0 3.1 3.1 0 0 1-.5.2 3.7 3.7 0 0 1 .3-.9 3.8 3.8 0 0 1-.9-.1s0 0 .3-.2a1.5 1.5 0 0 1-.6 0s.2-.2.5-.3a4.8 4.8 0 0 1 .2-.6h.1a2.7 2.7 0 0 1-.5-.1 2.5 2.5 0 0 1 .4-.4 1.6 1.6 0 0 1-.5 0s.2-.2.4-.3a1.3 1.3 0 0 0 0-.1v-.1h-.1a1 1 0 0 1-.9.1 5.9 5.9 0 0 1-.2.8l-.2-.5a2.5 2.5 0 0 1-.2 1s-.2-.4-.4-.9a2.5 2.5 0 0 1-.1.6 3.7 3.7 0 0 1 .2.3 2.1 2.1 0 0 0-.6 0 4.8 4.8 0 0 1 .5.4l-.5.1a4.8 4.8 0 0 1 .7.9 1.7 1.7 0 0 0-.5-.1 4.2 4.2 0 0 1 .7 1 4 4 0 0 1-.9 0c.3.5-.5 1.3-.5 1.3v-.8a2.5 2.5 0 0 1-.4.5l.2.4a6.7 6.7 0 0 0-1-.4v.3a5.2 5.2 0 0 1 .3.6 1.7 1.7 0 0 0-.6-.2l-.2.4-.1-.5h-.2a1.2 1.2 0 0 1-.2-.1 4.7 4.7 0 0 1 0 .8l-.1-.1a1.8 1.8 0 0 1-.2 1.1h.3a2.8 2.8 0 0 1-.1-.3 3 3 0 0 1 .5.2.6.6 0 0 1 0-.1v-.8a3 3 0 0 1 .4.7v-.4a1.7 1.7 0 0 1 .4.4 2.7 2.7 0 0 1 0-.6 3.1 3.1 0 0 1 .4.4l.1-.2v-.4a1.7 1.7 0 0 1 .3.3 2.4 2.4 0 0 1 0-.5 2.8 2.8 0 0 1 .4.3.5.5 0 0 1 0-.1V94h.2a1 1 0 0 0 .1-.3 3.3 3.3 0 0 1 .2.4h.1a4 4 0 0 0 .2-.6 2.4 2.4 0 0 1 .2.3 1.5 1.5 0 0 1 .3 0l-.3-.3s.7-.1.9.3a2.5 2.5 0 0 1 .2-.5 2.7 2.7 0 0 1 .3.8 1 1 0 0 0 .1-.3 3 3 0 0 1 .2.7 3 3 0 0 1 .2-.2 3 3 0 0 1 0 .4 1.3 1.3 0 0 0 .2-.3s0 .1 0 .2a1.6 1.6 0 0 1 .4.2l-.2-.5a1.4 1.4 0 0 1 .6.4v-.5ZM53.2 67.9a1.8 1.8 0 0 0 0-.3 1 1 0 0 1-.2.1.8.8 0 0 1-.3.3l.4.1.1-.2ZM49 89.2ZM48.5 89.4l.2.3a2.2 2.2 0 0 1 .5 0l-.1-.1a8 8 0 0 1-.3 0 1 1 0 0 0 .1-.1l-.2-.2a4.3 4.3 0 0 1-.6.2 3.6 3.6 0 0 1 .3.5 1.7 1.7 0 0 0 0-.6ZM74.5 94.1ZM104.4 90.7ZM82 77.2ZM78.8 71.3h-.7a2.8 2.8 0 0 1 .7-.5 4.7 4.7 0 0 1-.9-.3 5.1 5.1 0 0 1 .8-.5 1.5 1.5 0 0 1-.2-.1 4.3 4.3 0 0 1-.6-.7 1.5 1.5 0 0 1-.5.6s0-.3 0-.6a1.5 1.5 0 0 1-.2.3v.3a1.3 1.3 0 0 0-.3-.3 3.1 3.1 0 0 1 .1.5 2.7 2.7 0 0 1-.4-.2 3.5 3.5 0 0 1 0 .5 1 1 0 0 0-.2-.2.7.7 0 0 1 0 .1 3.6 3.6 0 0 1 .2.5 4.9 4.9 0 0 1 .3-.5 3.1 3.1 0 0 1 .4 1.4 5.3 5.3 0 0 1 1-.1l-.3.3a1.3 1.3 0 0 1 .8 0 1.5 1.5 0 0 1 .3-.2l-.3-.3ZM85.2 76.9ZM89.5 59.4a3 3 0 0 1 .4.3v-.3h-.4ZM90.3 59.2a1.7 1.7 0 0 1 0 .2 2.2 2.2 0 0 1 .2.6h.3a2.6 2.6 0 0 1-.2-.2h.2a4 4 0 0 1-.5-.6ZM71.7 24.8a2.6 2.6 0 0 1 .2.1v-.1a2.7 2.7 0 0 1-.2 0ZM99 55.3a3.4 3.4 0 0 1 .4-.1l-.4-.3a2.5 2.5 0 0 1 0 .4ZM86.4 61.6l.3.4a.9.9 0 0 1 .1 0 1.2 1.2 0 0 1 0-.3 1.7 1.7 0 0 1-.2-.1.8.8 0 0 0 .2 0 2.1 2.1 0 0 0-.5-.5 4.7 4.7 0 0 1 0 .5ZM87.2 60.8l-.2.1h.2ZM92.4 75.2a.7.7 0 0 1-.1.2 2 2 0 0 1 .3 0V75a1.1 1.1 0 0 1-.2.1ZM103.1 75.4ZM99.6 55.3ZM59 22.7a1.1 1.1 0 0 1 0-.1h-.2.1ZM73.1 20.2a3.7 3.7 0 0 1 .9.4 1.8 1.8 0 0 1-.1-.3 3.9 3.9 0 0 1-.4-.6 3.7 3.7 0 0 1-.4.5ZM74 20.6a3.4 3.4 0 0 1-.6.2 1.6 1.6 0 0 1 .1.4 2.4 2.4 0 0 1 .4.2 1.6 1.6 0 0 1-.1-.5s.1.1.3.3h.2a.8.8 0 0 1 0-.2.8.8 0 0 1-.3-.4ZM53.4 68.3V68a1.6 1.6 0 0 1-.2 0l.2.2Z"/><path fill="#73bf44" d="M109.3 83.3a2.6 2.6 0 0 0-.8-.3 1 1 0 0 1 .3-.2 3.1 3.1 0 0 0-.6-.2l.2-.2a3 3 0 0 0-.4 0 1.3 1.3 0 0 1 .3-.2s0 0-.2-.1a1.4 1.4 0 0 0-.1-.4l.4.3a1.5 1.5 0 0 0-.1-.5l.2.2a3.6 3.6 0 0 0-.2-1 3.6 3.6 0 0 0 1 0s-.9-.7-1.5-.5a.8.8 0 0 0-.1-.1 1.6 1.6 0 0 1 0-.2h.5a1.8 1.8 0 0 0-.4-.3 2.6 2.6 0 0 0 .5-.2 2.8 2.8 0 0 0-.4-.2.8.8 0 0 0 0-.1 4.4 4.4 0 0 0 .4-.5h.6a1.6 1.6 0 0 0-.5-.3h.3a3.8 3.8 0 0 0-.8-.5 3.6 3.6 0 0 0 .7-.7 3.3 3.3 0 0 0-.6 0 1.9 1.9 0 0 0-.2-.8 2.7 2.7 0 0 0-.2.3 2.2 2.2 0 0 0-.2-.3h.1a1 1 0 0 0-.1-.1.6.6 0 0 1-.1-.2s0 0-.1.2h-.1a2.3 2.3 0 0 0 0-.8 2.7 2.7 0 0 0-.6.6 1 1 0 0 1 0-.3 3 3 0 0 0-.4.5l-.1-.3a2.9 2.9 0 0 0-.3.4 1.2 1.2 0 0 1 0-.4s0 0-.2.2a1.6 1.6 0 0 0-.4 0l.5-.3a1.5 1.5 0 0 0-.6-.1l.3-.2a3.7 3.7 0 0 0-.9 0 3.5 3.5 0 0 0 .3-1s-1 .5-1 1.1a1 1 0 0 0-.2.1l-.1-.2.1-.4a2 2 0 0 0-.3.2 2.8 2.8 0 0 0 0-.4s-.2 0-.3.2l-.1-.1a2.9 2.9 0 0 0 .3-.1 2.7 2.7 0 0 0-.4-.3 1.2 1.2 0 0 1 .4 0s0 0-.2-.2a1.7 1.7 0 0 0 0-.3l.3.4a1.6 1.6 0 0 0 .1-.6l.2.3a4 4 0 0 0 0-.9 3.5 3.5 0 0 0 1 .4s-.5-1-1.1-1.1a.9.9 0 0 0-.1-.2l.1-.1.5.1a1.7 1.7 0 0 0-.3-.4 2.8 2.8 0 0 0 .5 0 2.8 2.8 0 0 0-.3-.4.8.8 0 0 0 .1 0 4.8 4.8 0 0 0 .5-.3l.6.2a1.5 1.5 0 0 0-.4-.5l.3.1a3.7 3.7 0 0 0-.5-.7 3.6 3.6 0 0 0 .9-.4 3.5 3.5 0 0 0-.6-.1 1.4 1.4 0 0 0-.2-.3h.5a2 2 0 0 0-.1-.2 3.6 3.6 0 0 1 .6 0 2.4 2.4 0 0 0-.3-.3 2.5 2.5 0 0 0 .6-.3 2.6 2.6 0 0 0-.8-.2 1 1 0 0 1 .3-.2 3 3 0 0 0-.7 0c0-.2.1-.2.2-.3a3 3 0 0 0-.5 0 2.5 2.5 0 0 1 .3-.2 2 2 0 0 0 .8.2 2.8 2.8 0 0 0-.3-.4.8.8 0 0 0 .2 0 4.3 4.3 0 0 0 .5-.3l.6.2a1.6 1.6 0 0 0-.4-.5l.3.2a3.6 3.6 0 0 0-.5-.8 3.7 3.7 0 0 0 1-.3 3.4 3.4 0 0 0-.7-.2 2 2 0 0 0 .3-1 3 3 0 0 0-.3.3 2.3 2.3 0 0 0 0-.4v-.1a.7.7 0 0 1 0-.2s0 0-.2.1a2.2 2.2 0 0 0 .3-.7 2.6 2.6 0 0 0-.8.3 2.4 2.4 0 0 0 .1-.3h.2a1 1 0 0 0-.1 0 .8.8 0 0 1 0-.2s0 0-.2 0a1.2 1.2 0 0 0-.3-.1.6.6 0 0 0 .2 0l.7-.1a1.8 1.8 0 0 0-.4-.3h.5a1.6 1.6 0 0 0-.5-.3h.3a3.7 3.7 0 0 0-.8-.5 3.8 3.8 0 0 0 .6-.7s-1.1 0-1.4.6a.9.9 0 0 0-.2 0v-.1l.2-.4a1.7 1.7 0 0 0-.4.2 2.4 2.4 0 0 0 .1-.5 2.8 2.8 0 0 0-.4.1v-.1a4.2 4.2 0 0 0 0-.6l.3-.5a1.5 1.5 0 0 0-.6.2l.2-.2a3.7 3.7 0 0 0-.8.2 2.6 2.6 0 0 0 0-.3h.4a1.4 1.4 0 0 0-.5-.3h.3a3.3 3.3 0 0 0-.3-.3 3.4 3.4 0 0 0-.5-.2 3.6 3.6 0 0 0 .7-.7 3.4 3.4 0 0 0-.5 0 1.3 1.3 0 0 0-.4-.1l.5-.2a2 2 0 0 0-.2-.1l.6-.3a3 3 0 0 0-.4 0 2.3 2.3 0 0 0 .5-.6 2.7 2.7 0 0 0-.9.1 1 1 0 0 1 .2-.3 3.4 3.4 0 0 0-.5.1v-.2a2 2 0 0 0-.3 0h-.2a3.7 3.7 0 0 0 .7-.8s-1.1 0-1.4.6a.8.8 0 0 0-.2 0V57l.2-.3a1.6 1.6 0 0 0-.5 0 2.8 2.8 0 0 0 .3-.4 3 3 0 0 0-.5.1 4 4 0 0 0 0-.7l.4-.4a1.7 1.7 0 0 0-.5 0l.1-.1h-.1a5.5 5.5 0 0 0-.2-.8 3 3 0 0 0 1.3-.5 5 5 0 0 0-.5-.2 3.5 3.5 0 0 0 .5-.3l.1.1a2.3 2.3 0 0 0 0-.2 1.3 1.3 0 0 1 .4-.2s-.2 0-.4 0v-.3a3.7 3.7 0 0 0 1.2 0 4.2 4.2 0 0 0-1-1h.3l.1.2a1.6 1.6 0 0 0 0-.2 1.2 1.2 0 0 1 .3 0l-.2-.2a2 2 0 0 0 0-.6 1 1 0 0 0 0 .2l.8.8a2.6 2.6 0 0 0 0-.8l.6.6a2.5 2.5 0 0 0-.2-1l.4.5a6 6 0 0 0-.2-1.5 6 6 0 0 0 1.5.2s-1.1-1.4-2-1.3a1.4 1.4 0 0 0-.3-.2 3.1 3.1 0 0 1 .2-.2h.7a2.6 2.6 0 0 0-.7-.5 4.3 4.3 0 0 0 .9-.2 5 5 0 0 0-.6-.5h.1a7 7 0 0 0 .7-.7h1a2.6 2.6 0 0 0-.8-.6h.5a6 6 0 0 0-1.2-.8 6 6 0 0 0 1.3-1 5.1 5.1 0 0 0-.7 0 4.2 4.2 0 0 0 .8-.5 4.2 4.2 0 0 0-1.3-.3 1.6 1.6 0 0 1 .5-.3 4.9 4.9 0 0 0-1.1-.2l.3-.4a4.6 4.6 0 0 0-.7 0 2 2 0 0 1 .5-.3s-.2 0-.4-.1a2.4 2.4 0 0 0-.3-.6l.8.4a2.5 2.5 0 0 0-.4-.8l.4.2s-.6-2-1.8-2.3l.2-.3c.4 0 .6-.2.6-.2a2.6 2.6 0 0 0-.7-.3 4 4 0 0 0 .7-.4 4.9 4.9 0 0 0-.7-.2 1.4 1.4 0 0 0 .1-.2l.7-1a4.7 4.7 0 0 0-1.2.4l.4-.5a2.6 2.6 0 0 0-.8.2 4.2 4.2 0 0 0 .4-.8 4.8 4.8 0 0 0-.8.2l.1-.4.6-.4a2.6 2.6 0 0 0-.8 0 4.3 4.3 0 0 0 .5-.7 4.5 4.5 0 0 0-.7 0 .8.8 0 0 0 0-.2l.1-.2.5-.2-.4-.2a1.7 1.7 0 0 1 .1-.5 5.2 5.2 0 0 0-.5.3 4 4 0 0 0-.3-.1 6.9 6.9 0 0 1 .4-1s-.2.1-.4.2a2.5 2.5 0 0 0-.5-.3h.8s-.8-.9-1.4-.6a4.3 4.3 0 0 0 .2-.9 4.1 4.1 0 0 0-1.1.8 1.7 1.7 0 0 1 0-.6 4.7 4.7 0 0 0-.8.7v-.5a4.7 4.7 0 0 0-.6.6 2 2 0 0 1 .1-.7s-.1.1-.3.3a2.7 2.7 0 0 0-.6-.2l.8-.3a2.5 2.5 0 0 0-1-.3l.6-.1a6 6 0 0 0-1.4-.4 5.8 5.8 0 0 0 .8-1.4 4.2 4.2 0 0 0-1.8 1 .8.8 0 0 0-.4-.2.6.6 0 0 1 0-.1 1 1 0 0 0 0-.1h.5a1.5 1.5 0 0 0-.2-.4 2.4 2.4 0 0 0 .5.1 2.7 2.7 0 0 0-.2-.4 4 4 0 0 0 .6-.2l.6.3a1.6 1.6 0 0 0-.3-.6l.3.2a3.6 3.6 0 0 0-.5-.8 3.5 3.5 0 0 0 1-.3 3.4 3.4 0 0 0-.5-.2 1.2 1.2 0 0 0-.2-.3h.5l-.1-.1a4.3 4.3 0 0 1 .6 0 2.7 2.7 0 0 0-.2-.2 2.4 2.4 0 0 0 .6-.2 2.6 2.6 0 0 0-.8-.4 1 1 0 0 1 .3-.1 3 3 0 0 0-.6-.2 2.6 2.6 0 0 0 .2-.2 3.3 3.3 0 0 0-.4-.1 1.3 1.3 0 0 1 .4-.2s-.2 0-.3 0a1.6 1.6 0 0 0 0-.5l.3.4a1.6 1.6 0 0 0-.1-.6 3 3 0 0 1 .2.2 3.7 3.7 0 0 0-.2-.9 3.6 3.6 0 0 0 1 0s-.9-.8-1.5-.6a.8.8 0 0 0-.1-.1l.1-.2h.4a1.6 1.6 0 0 0-.4-.3 2.7 2.7 0 0 0 .5-.2 3 3 0 0 0-.4-.2 4.6 4.6 0 0 0 .5-.5h.5a1.5 1.5 0 0 0-.5-.4h.3a3.7 3.7 0 0 0-.8-.4 3.6 3.6 0 0 0 .7-.8 3.4 3.4 0 0 0-.6.1 2 2 0 0 0-.2-.8 2.7 2.7 0 0 0-.2.3 2.2 2.2 0 0 0-.2-.4h.1-.1a.8.8 0 0 1-.1-.3s0 .1 0 .2a1.3 1.3 0 0 0-.2 0 2.3 2.3 0 0 0 0-.7 2.6 2.6 0 0 0-.6.6.9.9 0 0 1 0-.4 3 3 0 0 0-.4.5l-.1-.2a2.6 2.6 0 0 0-.3.3 1.3 1.3 0 0 1 0-.4 2.4 2.4 0 0 0-.2.2 1.5 1.5 0 0 0-.3 0l.4-.3a1.5 1.5 0 0 0-.6 0l.3-.2a3.7 3.7 0 0 0-.9-.1 3.4 3.4 0 0 0 .4-1s-1 .5-1.1 1.1a.8.8 0 0 0-.2.2 2 2 0 0 1-.1-.2l.1-.4a1.6 1.6 0 0 0-.4.3 3 3 0 0 0 0-.6 3.5 3.5 0 0 0-.4.3 4.6 4.6 0 0 0-.3-.6l.2-.6a1.5 1.5 0 0 0-.5.4 2.7 2.7 0 0 1 .1-.3 3.7 3.7 0 0 0-.7.6 3.6 3.6 0 0 0-.4-.9 1 1 0 0 0-.4-.6.9.9 0 0 0 0-.2h.2l.3.2a1.7 1.7 0 0 0-.1-.5 2.6 2.6 0 0 0 .5.3 2.7 2.7 0 0 0-.1-.5 4 4 0 0 0 .7 0l.4.4a1.5 1.5 0 0 0-.1-.6l.2.2a3.8 3.8 0 0 0-.2-.9 3.6 3.6 0 0 0 1 0 3.4 3.4 0 0 0-.5-.4 1.9 1.9 0 0 0 .5-.7 3 3 0 0 0-.4 0 2.5 2.5 0 0 0 .1-.3h.1v-.1a.7.7 0 0 1 0-.2s0 0-.1 0a2.3 2.3 0 0 0 .5-.5 2.6 2.6 0 0 0-.9 0 1 1 0 0 1 .3-.3 3 3 0 0 0-.7 0 2.5 2.5 0 0 0 .1-.2 3 3 0 0 0-.4 0 1.2 1.2 0 0 1 .3-.2s-.1 0-.3 0a1.6 1.6 0 0 0-.2-.3l.5.1a1.5 1.5 0 0 0-.4-.5l.3.2a3.7 3.7 0 0 0-.5-.8 3.6 3.6 0 0 0 1-.4s-1.2-.4-1.6 0a.8.8 0 0 0-.2 0v-.2l.4-.2a1.7 1.7 0 0 0-.5-.1 2.9 2.9 0 0 0 .4-.4 3 3 0 0 0-.5 0v-.1a4.8 4.8 0 0 0 .3-.6l.5-.3a1.5 1.5 0 0 0-.6 0l.3-.2a3.7 3.7 0 0 0-.9-.1 3.6 3.6 0 0 0 .4-1 3.2 3.2 0 0 0-.6.4 1.4 1.4 0 0 0-.4-.1l.2-.2a1.6 1.6 0 0 0-.5 0 .8.8 0 0 1 .2-.2 3.1 3.1 0 0 0-.7 0 2.8 2.8 0 0 0 .2-.4 2.7 2.7 0 0 0-.7.3 1 1 0 0 1 .1-.3 3 3 0 0 0-.6.3v-.3a2.7 2.7 0 0 0-.3.2v-.3a2.1 2.1 0 0 0 .8-.3 3 3 0 0 0-.5-.2.8.8 0 0 0 .1 0 4 4 0 0 0 .4-.6l.5-.1a1.6 1.6 0 0 0-.5-.2h.3a3.6 3.6 0 0 0-.9-.4 3.6 3.6 0 0 0 .6-.8 3.3 3.3 0 0 0-.6.2 1.9 1.9 0 0 0-.3-.9 2.8 2.8 0 0 0-.2.3 1.9 1.9 0 0 0-.2-.3h.1-.2a.8.8 0 0 1 0-.2s0 0-.1.1a1.2 1.2 0 0 0-.1 0 2.3 2.3 0 0 0 0-.7 2.6 2.6 0 0 0-.6.7 1.5 1.5 0 0 0 0-.2v-.1a.8.8 0 0 1 0-.2l-.2.1a1.2 1.2 0 0 0-.4 0 .5.5 0 0 0 .1 0l.5-.5a1.7 1.7 0 0 0-.4 0l.4-.3a1.5 1.5 0 0 0-.6 0L82 1a3.7 3.7 0 0 0-.9 0 3.7 3.7 0 0 0 .1-.9s-.9.7-.8 1.3a1.3 1.3 0 0 0-.1.2l-.1-.2V1a1.6 1.6 0 0 0-.3.4 2.6 2.6 0 0 0-.2-.5 3.3 3.3 0 0 0-.3.4.8.8 0 0 0 0-.1 4 4 0 0 0-.4-.5V.1a1.5 1.5 0 0 0-.4.4V.2a3.7 3.7 0 0 0-.5.7 3.6 3.6 0 0 0-.6-.7 3 3 0 0 0 0 .4 2.5 2.5 0 0 0-.3-.5 2.7 2.7 0 0 0-.2.8 1 1 0 0 1-.2-.3 3.1 3.1 0 0 0-.1.7l-.2-.2a2.7 2.7 0 0 0 0 .4 1.4 1.4 0 0 1-.3-.3s0 .1 0 .3a1.6 1.6 0 0 0-.4.1l.3-.4a1.5 1.5 0 0 0-.6.2l.2-.3s-1.2.4-1.4 1.2l-.2-.1-.1-.4a1.7 1.7 0 0 0-.2.4 2.6 2.6 0 0 0-.3-.4 2.8 2.8 0 0 0-.1.4.8.8 0 0 0-.1 0l-.7-.5a2.8 2.8 0 0 0 .3.7l-.3-.2a1.7 1.7 0 0 0 0 .5 2.7 2.7 0 0 0-.4-.3 2.7 2.7 0 0 0 .1.5h-.2l-.3-.4a1.6 1.6 0 0 0 0 .5 2.7 2.7 0 0 0-.4-.3 2.7 2.7 0 0 0 0 .5.9.9 0 0 0-.1 0L71 3v-.3a2.6 2.6 0 0 0-.2.2 1 1 0 0 1-.3 0 3.5 3.5 0 0 0 .2.3v.2a4.4 4.4 0 0 1-.7-.3s0 .1.1.3a1.7 1.7 0 0 0-.2.3v-.5s-.5.5-.3.8a2.6 2.6 0 0 0-.6 0 2.7 2.7 0 0 0 .5.6 1 1 0 0 1-.4 0 3 3 0 0 0 .5.5 3 3 0 0 0-.3 0 3.2 3.2 0 0 0 .3.3 1.3 1.3 0 0 1-.4 0s0 0 .1.2a1.6 1.6 0 0 0 0 .4l-.3-.5a1.5 1.5 0 0 0-.1.5l-.1-.3a3.6 3.6 0 0 0-.3 1 3.5 3.5 0 0 0-.8-.6s.3 1.1.9 1.3a.8.8 0 0 0 0 .1l-.1.1c-.3 0-.4-.2-.4-.2a1.6 1.6 0 0 0 .2.5 2.4 2.4 0 0 0-.5-.1 2.8 2.8 0 0 0 .2.4 3.9 3.9 0 0 0-.6.2l-.6-.2a1.6 1.6 0 0 0 .3.5l-.3-.2a3.7 3.7 0 0 0 .5.8 3.5 3.5 0 0 0-1 .3 3.4 3.4 0 0 0 .5.2 1.4 1.4 0 0 0 .2.3h-.5a1.4 1.4 0 0 0 .1.1 4 4 0 0 0-.4 0l-.1-.2a3 3 0 0 0-.3.5c-.2-.3-.9-.3-.9-.3l.4.4a1.5 1.5 0 0 0-.4 0l-.1-.3a4 4 0 0 1-.2.6h-.2a3.4 3.4 0 0 0-.1-.5 1 1 0 0 1-.2.4H64a3 3 0 0 0 .1.2v.1a.8.8 0 0 0 0 .1 3.3 3.3 0 0 0-.4-.3 2.8 2.8 0 0 0 0 .6 1.6 1.6 0 0 0-.4-.3s0 .1 0 .4v.2a3.3 3.3 0 0 0-.4-.4 2.5 2.5 0 0 0-.1.5 1.7 1.7 0 0 0-.3-.4s0 .2 0 .4a3 3 0 0 0-.4-.6l-.1.7a1.2 1.2 0 0 0 0 .1 2.9 2.9 0 0 0-.5-.2 2.7 2.7 0 0 0 .2.6 1.6 1.6 0 0 0-.5-.2s.1.1.3.4v.2c-.8-.4-1.9.3-1.9.3h.4a1.5 1.5 0 0 0-.6.3s.2 0 .5.1a1.5 1.5 0 0 0-.3.2l-.3-.1a1.3 1.3 0 0 1 .1.4 3 3 0 0 0-.3-.3 2.8 2.8 0 0 0 0 .3 3.3 3.3 0 0 0-.6-.4 1 1 0 0 1 .1.4 2.7 2.7 0 0 0-.7-.4 2.3 2.3 0 0 0 .2.7 3.1 3.1 0 0 0-.4 0l.4.5a.6.6 0 0 0 .1 0 2.8 2.8 0 0 0-.4.3 2.7 2.7 0 0 0 .5.2 1.7 1.7 0 0 0-.5.2s.2 0 .5.1v.2a1 1 0 0 0-.1.1c-.6-.2-1.5.5-1.5.5a3.6 3.6 0 0 0 1 .1 3.8 3.8 0 0 0-.3.9 3.2 3.2 0 0 1 .3-.2 1.5 1.5 0 0 0-.2.5l.4-.3a1.9 1.9 0 0 0 0 .4h-.3l.5.4a2.8 2.8 0 0 0-.7.2 2.5 2.5 0 0 0 .6.3l-.3.2a2.6 2.6 0 0 1 .6 0 1.6 1.6 0 0 0-.4.4s.1 0 .4 0a1.6 1.6 0 0 0-.2.3 3.4 3.4 0 0 0-.4 0 4.7 4.7 0 0 0 .6.4 3.8 3.8 0 0 0-.2.4s0 0 .3-.1a1.8 1.8 0 0 0-.1.3s0 0 .2 0a2.8 2.8 0 0 0-1 .4 3.7 3.7 0 0 0 1 .3 3.4 3.4 0 0 0-.3.4l-.1-.1v.2a3 3 0 0 0-.1.2 5 5 0 0 0-1-.8 4 4 0 0 0 .1 1.3H57l-.1-.3a1.4 1.4 0 0 1-.2.4h-.2l.1.1a4 4 0 0 0-.2.6 5 5 0 0 0-.4-.5 3.4 3.4 0 0 0-.3 1.5 6 6 0 0 0-1.2 0 6.5 6.5 0 0 0 1.3 1.1 6.6 6.6 0 0 0-1.4.9s0 0 .6 0a2.7 2.7 0 0 0-1 .5s.5 0 1 .1a7.4 7.4 0 0 0 .8.8 1.6 1.6 0 0 0 .2.1 5.3 5.3 0 0 0-.8.5 4.7 4.7 0 0 0 1 .3 2.8 2.8 0 0 0-.8.5s.3 0 .7 0l.3.3a1.4 1.4 0 0 0-.3.2c-1-.3-2.5 1.2-2.5 1.2a6.5 6.5 0 0 0 1.8 0l-.2.4-.3.1.2.2v.2a5.6 5.6 0 0 0-.8.6l1.2.1a2.4 2.4 0 0 0-.4.6 1 1 0 0 1-.1 0l-.5-.3a1.5 1.5 0 0 0 .2.5 5 5 0 0 1-.3-.2 3.7 3.7 0 0 0 .3.9 3 3 0 0 0-.3 0v-.5a1.5 1.5 0 0 0-.3.5v-.3a3.7 3.7 0 0 0-.3.3v.1a3.2 3.2 0 0 0-.2.4 3.6 3.6 0 0 0-.7-.7 3.3 3.3 0 0 0 0 .6 1.4 1.4 0 0 0-.1.3l-.3-.5a1.2 1.2 0 0 0 0 .2L52 34l-.1.3a2.3 2.3 0 0 0-.5-.4 2.6 2.6 0 0 0 0 .8 1 1 0 0 1-.2-.2 3.6 3.6 0 0 0 .1.5v.1h-.2v.4a3.6 3.6 0 0 0-.8-.7s0 1.2.6 1.5a.9.9 0 0 0 0 .2h-.2l-.3-.3a1.6 1.6 0 0 0 0 .5 2.5 2.5 0 0 0-.4-.2 2.8 2.8 0 0 0 .1.4 1.2 1.2 0 0 0-.1 0 4.4 4.4 0 0 0-.6 0l-.4-.3a1.5 1.5 0 0 0 .1.6l-.2-.3a3.9 3.9 0 0 0 .2 1 3.7 3.7 0 0 0-1 0 3.3 3.3 0 0 0 .5.3 1.9 1.9 0 0 0-.5.8 2.9 2.9 0 0 0 .4-.1 2.6 2.6 0 0 0-.2.4.8.8 0 0 1 0 .3s0 0 .1-.1a2.2 2.2 0 0 0-.5.5 2.7 2.7 0 0 0 .9 0 1 1 0 0 1-.3.3 3 3 0 0 0 .7 0l-.1.3a3 3 0 0 0 .4-.1 1.2 1.2 0 0 1-.3.3s.1 0 .3 0a1.6 1.6 0 0 0 .2.3l-.5-.2a1.6 1.6 0 0 0 .3.5l-.3-.1a3.7 3.7 0 0 0 .6.7 3.6 3.6 0 0 0-1 .4s1.1.4 1.6 0a.7.7 0 0 0 .2 0v.3l-.4.2a1.6 1.6 0 0 0 .5 0 2.7 2.7 0 0 0-.4.4 3 3 0 0 0 .5 0l-.1.2a3.7 3.7 0 0 0-.2.5l-.5.3a1.6 1.6 0 0 0 .6.1l-.3.1a3.9 3.9 0 0 0 .9.2 3.6 3.6 0 0 0-.4.9 3.4 3.4 0 0 0 .5-.3 1.4 1.4 0 0 0 .5 0l-.2.2a1.5 1.5 0 0 0 .5 0 .7.7 0 0 1-.2.2 3.2 3.2 0 0 0 .6 0v.3H52l-.4-.4a1.7 1.7 0 0 0 .1.6l-.3-.2a3.9 3.9 0 0 0 .3 1 3.7 3.7 0 0 0-1-.1 3.4 3.4 0 0 0 .5.4 1.7 1.7 0 0 0-.4.5l-.2.1a.8.8 0 0 1-.3.2s.1 0 .2 0v.2a2.3 2.3 0 0 0-.7 0 3.2 3.2 0 0 0 .3.3 1.5 1.5 0 0 1-.5-.1 3.7 3.7 0 0 0 .3.4 2.8 2.8 0 0 0-.4.1 2.9 2.9 0 0 0 .3.3 1.4 1.4 0 0 1-.4 0s0 0 .1.2a1.8 1.8 0 0 0-.1.4l-.2-.6s-.3.6-.1 1a1.6 1.6 0 0 1-.5.1 3.6 3.6 0 0 0 .5.2 1 1 0 0 1-.2 0l-.5-.3a1.7 1.7 0 0 0 .2.5l-.3-.1a4.1 4.1 0 0 0 .4.8 3.8 3.8 0 0 0-1 .2 3.4 3.4 0 0 0 .5.3 1.5 1.5 0 0 0 .2.4l-.6-.1a1.3 1.3 0 0 0 .1.1 4.3 4.3 0 0 1-.6 0 3.3 3.3 0 0 0 .2.2 2.5 2.5 0 0 0-.7.2 2.7 2.7 0 0 0 .8.4 1 1 0 0 1-.4.1 3.3 3.3 0 0 0 .7.3l-.2.2.2.1h.2l-.1.1-.1-.1v.1a1 1 0 0 1-.2 0s0 .1.2.2a2 2 0 0 0 0 .2l-.4-.5a1.6 1.6 0 0 0 0 .7l-.1-.3a4.1 4.1 0 0 0 0 1 3.9 3.9 0 0 0-1-.3s.6 1 1.3 1a1 1 0 0 0 0 .2h-.5a1.7 1.7 0 0 0 .3.4 2.8 2.8 0 0 0-.5 0 3 3 0 0 0 .4.4.8.8 0 0 0-.2 0 5.2 5.2 0 0 0-.5.4h-.4a1.6 1.6 0 0 0 .5.4h-.3a4 4 0 0 0 .7.5 3.9 3.9 0 0 0-1 .6 3.5 3.5 0 0 0 .7 0 1.6 1.6 0 0 0 0 .7 1.6 1.6 0 0 0-.1.2h-.1a.9.9 0 0 1-.1.3s0 0 .2-.1v.1a2.3 2.3 0 0 0-.5.4 2.7 2.7 0 0 0 .8.2 1 1 0 0 1-.3.2 3.3 3.3 0 0 0 .6 0 3.3 3.3 0 0 0-.3.4 3.4 3.4 0 0 0 .5 0 1.5 1.5 0 0 1-.4.3 2.8 2.8 0 0 0 .3 0 1.7 1.7 0 0 0 .2.3c-.3 0-.5-.2-.5-.2s.3.7.7.7a1.3 1.3 0 0 1-.4.2 2.6 2.6 0 0 0 .3.1 1 1 0 0 1 0 .3 3.8 3.8 0 0 0 .3-.2 1.6 1.6 0 0 0 .2 0 2.6 2.6 0 0 0-.4.6 2.8 2.8 0 0 0 .4 0l-.3.5a3.2 3.2 0 0 0 .5-.2l-.1.5-.5.3a1.7 1.7 0 0 0 .6 0l-.3.2a4 4 0 0 0 1 .1 3.7 3.7 0 0 0-.4 1 4 4 0 0 0 .5-.3 1.5 1.5 0 0 0 .4 0l-.3.4a1.7 1.7 0 0 0 .2 0l-.4.5h.3a2.6 2.6 0 0 0-.1.7 2.8 2.8 0 0 0 .7-.5 1.1 1.1 0 0 1 0 .4 3.1 3.1 0 0 0 .5-.5v.3a3.4 3.4 0 0 0 .4-.3 1.4 1.4 0 0 1 0 .4 3 3 0 0 0 .2-.2 1.6 1.6 0 0 0 .3.1l-.5.2a1.6 1.6 0 0 0 .5.2h-.3a4 4 0 0 0 .9.5 3.8 3.8 0 0 0-.7.8 3 3 0 0 0 1.2-.4 4.6 4.6 0 0 0 .2.6 1.2 1.2 0 0 0-.2 0 7 7 0 0 0-1 .1l-.7-.5a2.6 2.6 0 0 0 .3.9l-.4-.3a6 6 0 0 0 .4 1.3 4.4 4.4 0 0 0-.5 0v-.7a2.5 2.5 0 0 0-.5.8v-.5a6.3 6.3 0 0 0-.4.5h-.1v.1a5 5 0 0 0-.3.7 6 6 0 0 0-1.1-1.1 5.4 5.4 0 0 0 0 .8 2.2 2.2 0 0 0-.2.6l-.4-.8a2 2 0 0 0 0 .3c-.3-.5-.4-.5-.5-.9a5.2 5.2 0 0 0-.2.6 3.8 3.8 0 0 0-.8-.7 4.2 4.2 0 0 0 .2 1.3 1.6 1.6 0 0 1-.5-.3 5 5 0 0 0 .2.8l-.2.2h-.2v.7a5.7 5.7 0 0 0-1.2-1.2s0 1.9.9 2.3a1.2 1.2 0 0 0 0 .4h-.3l-.5-.4a2.6 2.6 0 0 0 .1.7 4.2 4.2 0 0 0-.7-.3 4.5 4.5 0 0 0 .2.7 2 2 0 0 0-.2 0 6.1 6.1 0 0 0-1 0l-.7-.6a2.5 2.5 0 0 0 .2 1l-.4-.4a6.1 6.1 0 0 0 .4 1.4 5.9 5.9 0 0 0-1.6 0 5.5 5.5 0 0 0 .8.7A3.2 3.2 0 0 0 41 78a5 5 0 0 0 .6-.1 3.5 3.5 0 0 0-.2.5h-.2a1.8 1.8 0 0 0 .1.2 1.2 1.2 0 0 1-.1.3s.1 0 .3-.1a1.2 1.2 0 0 0 .1.2 3.6 3.6 0 0 0-.9.7 4.2 4.2 0 0 0 1.4 0 1.6 1.6 0 0 1-.4.4 4.7 4.7 0 0 0 1 0 4.7 4.7 0 0 0-.1.4 4.7 4.7 0 0 0 .6-.1 2.1 2.1 0 0 1-.4.5s.2 0 .4 0a2.6 2.6 0 0 0 .4.5l-.8-.3a2.5 2.5 0 0 0 .5.8l-.5-.2a6.1 6.1 0 0 0 1 1.2 5.8 5.8 0 0 0-1.5.6s1.7.7 2.4 0a1.3 1.3 0 0 0 .3.1v.3l-.7.4a2.6 2.6 0 0 0 .8.1 4 4 0 0 0-.6.6 4.6 4.6 0 0 0 .8 0l-.1.2a6.7 6.7 0 0 0-.4 1l-.8.4a2.5 2.5 0 0 0 1 .1l-.5.2a6 6 0 0 0 1.5.2 5.8 5.8 0 0 0-.6 1.5 5.5 5.5 0 0 0 .8-.5 2.2 2.2 0 0 0 .7.2l-.3.2a2.6 2.6 0 0 0 .9 0 1.4 1.4 0 0 1-.4.3 5 5 0 0 0 1 0 4.6 4.6 0 0 0-.3.7s.1 0 .3 0l-.1.2a4 4 0 0 0-.6-.7 1.4 1.4 0 0 1 0 .5 3.5 3.5 0 0 0-.8-.8 3 3 0 0 0 0 1 1.2 1.2 0 0 0-.2 0v-.3a1 1 0 0 1-.2.3 1.9 1.9 0 0 0-.2 0s0 .1.2.1a3.8 3.8 0 0 0-.3.5 3.5 3.5 0 0 0-.2-.4 2.6 2.6 0 0 0-.3 1.1 4.5 4.5 0 0 0-.9 0 4.7 4.7 0 0 0 1 .9 5 5 0 0 0-1.1.6s0 0 .4 0a2 2 0 0 0-.7.4s.3 0 .7 0a5.8 5.8 0 0 0 .6.7 3.9 3.9 0 0 0-.5.4 3.5 3.5 0 0 0 .7.3 2.1 2.1 0 0 0-.6.3s.2 0 .6 0a2.4 2.4 0 0 1 .1.3.9.9 0 0 0-.2.1c-.8-.2-1.9.8-1.9.8a4.8 4.8 0 0 0 1.3 0l-.1.4-.3.1.2.1v.2a4.3 4.3 0 0 0-.6.4 1.3 1.3 0 0 1 .4 0 3.5 3.5 0 0 0-.9.7 3.3 3.3 0 0 0 .9.1 4.4 4.4 0 0 0-.3.4 5.1 5.1 0 0 1 .9-.2 2 2 0 0 0-.2.3s.3-.1.7-.3a2.2 2.2 0 0 0-.2.5 4.4 4.4 0 0 0-.6.5 5 5 0 0 0 1.4 0 4.5 4.5 0 0 0-.3.6 5 5 0 0 0-.1.6s0 0 .3-.2a2.2 2.2 0 0 0-.2.7l.5-.4a3.5 3.5 0 0 0 .3.3 5 5 0 0 0-1.1.5s0 0 .4 0a2 2 0 0 0-.7.4s.3 0 .7.2a5 5 0 0 0 .5.6 1.3 1.3 0 0 0 .1.1 3.7 3.7 0 0 0-.6.3 3.3 3.3 0 0 0 .7.3 2.1 2.1 0 0 0-.6.3s.2 0 .5.1l.2.2a1.3 1.3 0 0 0-.3.2c-.7-.3-2 .6-2 .6a5 5 0 0 0 1.4.2 5 5 0 0 0-.4 1.1s0 0 .3-.3a2 2 0 0 0-.3.8l.6-.4a2.4 2.4 0 0 0-.2.6l.8-.5a.8.8 0 0 0 .2-.1 1.7 1.7 0 0 0-.2.4l-.3.1a1 1 0 0 1 .3.1 1.3 1.3 0 0 0 0 .2l.1-.1h.3a3.5 3.5 0 0 0-1 .6 3 3 0 0 0 1 .3 1.4 1.4 0 0 0-.1.1h-.3a1 1 0 0 1 .2.2 1.6 1.6 0 0 0 0 .2h.1a2.9 2.9 0 0 0 .4.3 4.2 4.2 0 0 0-.5 0 2.6 2.6 0 0 0 1 .7 4.6 4.6 0 0 0-.4.8 4.8 4.8 0 0 0 1.2-.5 5.3 5.3 0 0 0 .2 1.2s0 0 .2-.4a2 2 0 0 0 .1.8s.2-.3.4-.7a4.8 4.8 0 0 0 .7-.3 1 1 0 0 0 .1-.1 4.2 4.2 0 0 0 .1.6 2.8 2.8 0 0 0 .7-.9h.4a4 4 0 0 0-.4.4h.4a4 4 0 0 0-.6.8 1.4 1.4 0 0 1 .5-.1 3.5 3.5 0 0 0-.6 1 3.1 3.1 0 0 0 .8-.3 4 4 0 0 0 0 .5c.2-.3.3-.2.6-.5a1.9 1.9 0 0 0 0 .3l.5-.5a1.8 1.8 0 0 0 0 .5 4.3 4.3 0 0 0-.3.6 4.7 4.7 0 0 0 1.2-.4 5 5 0 0 0 .1 1.2s0 0 .2-.3a2 2 0 0 0 0 .8s.2-.3.5-.7a4.9 4.9 0 0 0 .8-.2 1.2 1.2 0 0 0 .1 0 4 4 0 0 0 0 .6 3.9 3.9 0 0 0 .6-.5 2.2 2.2 0 0 0 0 .6s.1-.1.3-.4a2.3 2.3 0 0 1 .3-.1 1 1 0 0 0 0 .3c-.5.6 0 2 0 2a4.9 4.9 0 0 0 .5-1.1 5 5 0 0 0 1 .8s0 0-.2-.5a2 2 0 0 0 .6.6s0-.3-.1-.7a2.1 2.1 0 0 0 .4.3v.3a1.8 1.8 0 0 1 .4-.3 3.9 3.9 0 0 0-.2.6 3.8 3.8 0 0 0 .4-.2 4 4 0 0 0-.1 1 1.3 1.3 0 0 1 .3-.4 3.6 3.6 0 0 0 0 1.1 3 3 0 0 0 .7-.7 1 1 0 0 0 0 .2v.2a1 1 0 0 1 .2-.1h.2a3.1 3.1 0 0 0 .5-.2 3.2 3.2 0 0 0-.2.5 2.6 2.6 0 0 0 1-.6 4.4 4.4 0 0 0 .6.7 5 5 0 0 0 0-1.3 5 5 0 0 0 1.2.4s0 0-.2-.4a2 2 0 0 0 .7.3l-.4-.6a5 5 0 0 0 0-.8 1 1 0 0 0 0-.2 4 4 0 0 0 .7.2 3.4 3.4 0 0 0-.3-.7 2.2 2.2 0 0 0 .6.2l-.3-.4v-.3a1.1 1.1 0 0 0 .3 0c.4.8 1.9 1 1.9 1a4.9 4.9 0 0 0-.9-1 5 5 0 0 0 1.1-.6s0 0-.4 0a2 2 0 0 0 .7-.4s-.3 0-.7-.1a2.3 2.3 0 0 0 .4-.3l.3.2a1.8 1.8 0 0 1-.1-.6 4 4 0 0 0 .4.4v-.4a4 4 0 0 0 .9.4 1.4 1.4 0 0 1-.2-.4 3.5 3.5 0 0 0 1 .4 3.3 3.3 0 0 0-.3-.8 4.2 4.2 0 0 0 .4 0l-.6-.5a2.5 2.5 0 0 0 .3 0s-.2-.2-.5-.5a1.9 1.9 0 0 0 .5-.1 4.6 4.6 0 0 0 .7.3 4.8 4.8 0 0 0-.7-1.2 4 4 0 0 0 .5 0 2.3 2.3 0 0 0 .6-.2v.1l-.1.2a.8.8 0 0 1 .2 0l.1.1a2.3 2.3 0 0 0 .4 0 2.5 2.5 0 0 0-.2.3 2 2 0 0 0 .9 0 3.3 3.3 0 0 0 0 .6 3.8 3.8 0 0 0 .6-.9 3.7 3.7 0 0 0 .6.7s0 0 0-.4a1.5 1.5 0 0 0 .4.5s0-.3-.1-.6a4.4 4.4 0 0 0 .3-.5v-.1a3.1 3.1 0 0 0 .4.3 2 2 0 0 0 0-.8 2.4 2.4 0 0 0 .4-.3 3 3 0 0 0 .2.5 2.8 2.8 0 0 0 .1-.2 3.3 3.3 0 0 0 .4.6 1 1 0 0 1 0-.4 2.6 2.6 0 0 0 .5.7 2.4 2.4 0 0 0 .1-.5 3 3 0 0 0 .5.4 1 1 0 0 1 0-.2 1.7 1.7 0 0 0 .4.3s0-.1 0-.3a1.5 1.5 0 0 0 .5.2s0 0-.2-.2a1.6 1.6 0 0 0 .3 0 3 3 0 0 0 .3.4 3.9 3.9 0 0 0 0-.5 3.9 3.9 0 0 0 .7.3s0 0-.1-.3a1.5 1.5 0 0 0 .5.3s0-.1-.2-.4a2.6 2.6 0 0 0 0-.4 1 1 0 0 0 0-.1 2.9 2.9 0 0 0 .5.1 2.8 2.8 0 0 0-.3-.5 1.6 1.6 0 0 0 .5.1l-.2-.3v-.2a.9.9 0 0 0 .1 0 2.7 2.7 0 0 0 1.2.3 5 5 0 0 0-.3-.4l.3-.2a3.7 3.7 0 0 0 .4-.3s0 0-.1 0l.1-.2a5 5 0 0 0 .6 1.1s0 0 0-.4a2 2 0 0 0 .4.7s0-.3.1-.7a2 2 0 0 0 .3.4 3.2 3.2 0 0 0-.2.3 1.7 1.7 0 0 1 .5-.1 4 4 0 0 0-.3.5h.4a4 4 0 0 0-.5.8 1.3 1.3 0 0 1 .5-.2 3.5 3.5 0 0 0-.5 1 3.2 3.2 0 0 0 .8-.3 4.2 4.2 0 0 0 0 .4l.6-.6a2.3 2.3 0 0 0 0 .3s.2-.2.5-.5a1.7 1.7 0 0 0 0 .5 4.4 4.4 0 0 0-.2.7 5 5 0 0 0 1.2-.6 5 5 0 0 0 .2 1.1s0 0 .2-.4a2 2 0 0 0 .2.8s.1-.3.3-.7a6 6 0 0 0 .7-.3 1 1 0 0 0 .1-.1 4 4 0 0 0 .2.6 3.7 3.7 0 0 0 .4-.6 2.2 2.2 0 0 0 .2.7s0-.2.2-.5l.3-.1a1.2 1.2 0 0 0 0 .2c-.4.7.3 2 .3 2a5 5 0 0 0 .4-1.2 5 5 0 0 0 1 .6l-.2-.4a2 2 0 0 0 .7.5s-.1-.3-.3-.7a2.2 2.2 0 0 0 .5.3v.3a1.9 1.9 0 0 1 .4-.4 3.8 3.8 0 0 0 0 .6l.3-.2a4.1 4.1 0 0 0 0 1 1.4 1.4 0 0 1 .3-.5 3.6 3.6 0 0 0 .1 1.1 3.5 3.5 0 0 0 .5-.6c.2.6 1.1.6 1.1.6l-.4-.6a2.1 2.1 0 0 0 .5.2l.1.3c0-.3.2-.3.3-.8l.3.2a4.5 4.5 0 0 0 0 .5 1.3 1.3 0 0 1 .3-.4l.4.1a7 7 0 0 0-.2-.4l.1-.1v-.2a4.4 4.4 0 0 0 .5.5 3.3 3.3 0 0 0 .1-.7 2.1 2.1 0 0 0 .5.5s0-.3 0-.6l.1-.3a3.8 3.8 0 0 0 .3.6 3.4 3.4 0 0 0 .3-.7 2.3 2.3 0 0 0 .3.6s0-.2.1-.5a4 4 0 0 0 .4.9c0-.4.2-.3.3-1a1.3 1.3 0 0 0 0-.1 4 4 0 0 0 .6.3 3.4 3.4 0 0 0-.2-.7 2.2 2.2 0 0 0 .6.3s0-.2-.2-.5v-.3c1 .5 2.5-.2 2.5-.2l-.4-.1a2 2 0 0 0 .7-.2s-.2-.1-.6-.3a2.1 2.1 0 0 0 .5-.1l.2.2a1.9 1.9 0 0 1 0-.6 4 4 0 0 0 .4.5 3.5 3.5 0 0 0 0-.4 4 4 0 0 0 .8.6 1.4 1.4 0 0 1-.1-.5 3.4 3.4 0 0 0 .9.6 3 3 0 0 0-.2-.7 5 5 0 0 0 .4.4 4.9 4.9 0 0 0 0-1.4 5 5 0 0 0 1.2.3l-.4-.3a2 2 0 0 0 .8.1s-.2-.2-.5-.5a5.4 5.4 0 0 0 0-.8.9.9 0 0 0 0-.2 4 4 0 0 0 .6.1 3.5 3.5 0 0 0-.4-.6 2.2 2.2 0 0 0 .7.1s-.2-.2-.4-.4v-.3a1.3 1.3 0 0 0 .3 0c.4.8 2 .7 2 .7a4.8 4.8 0 0 0-1-1 5 5 0 0 0 1-.6s0 0-.5 0a2 2 0 0 0 .7-.4s-.3 0-.7 0a2.1 2.1 0 0 0 .5-.4s-.4 0-1 0a.8.8 0 0 0-.1 0 1.6 1.6 0 0 0 .4-.3h.2a1.4 1.4 0 0 1-.1-.2 1.5 1.5 0 0 0 .1-.1h-.2s0-.2-.2-.3a3.4 3.4 0 0 0 1.1.2 3 3 0 0 0-.5-.7v-.2l.3.2a1 1 0 0 1 0-.3 1.6 1.6 0 0 0 0-.2 3.1 3.1 0 0 0-.2-.4 4 4 0 0 0 .5.2 2.6 2.6 0 0 0-.5-1.2 4.5 4.5 0 0 0 .8-.4 5 5 0 0 0-1.3-.2 4.8 4.8 0 0 0 .6-1.1s0 0-.4.2a2 2 0 0 0 .3-.7s-.2.1-.6.3a5.4 5.4 0 0 0-.8-.1 1.1 1.1 0 0 0-.2 0 4 4 0 0 0 .3-.6 2.9 2.9 0 0 0-1 .3l-.3-.2h.5a3.3 3.3 0 0 0-.3-.3 4 4 0 0 0 .9-.3 1.4 1.4 0 0 1-.5-.2 3.5 3.5 0 0 0 1-.4 3.6 3.6 0 0 0-.5-.3 4.3 4.3 0 0 0 .6-.5 1.2 1.2 0 0 1-.3 0 2.1 2.1 0 0 0 .5-.5s-.1 0-.3 0a1.8 1.8 0 0 0 .3-.5 4.8 4.8 0 0 0 .8-.1 5 5 0 0 0-1.2-.6 5 5 0 0 0 .8-1s0 0-.4.2a2 2 0 0 0 .5-.6s-.3 0-.8.2a5.4 5.4 0 0 0-.7-.4h-.1a3.5 3.5 0 0 0 .4-.6 3.7 3.7 0 0 0-.7 0 2.2 2.2 0 0 0 .4-.5s-.2 0-.6.2l-.2-.2a1 1 0 0 0 .2-.2c.8 0 1.4-1.4 1.4-1.4h-.3a.5.5 0 0 0 0-.4 2.5 2.5 0 0 0 .6.2 2.6 2.6 0 0 0-.5-.7 1 1 0 0 1 .4 0 3 3 0 0 0-.5-.5 2.5 2.5 0 0 0 .3 0 3.1 3.1 0 0 0-.3-.4 1.3 1.3 0 0 1 .4 0s0 0-.2-.1a1.7 1.7 0 0 0 .2-.4l.1.5a1.5 1.5 0 0 0 .2-.6l.1.4a3.9 3.9 0 0 0 .2-1 3.4 3.4 0 0 0 .9.6s-.3-1.1-.9-1.3a1 1 0 0 0 0-.2h.1l.4.1a1.7 1.7 0 0 0-.2-.4 2.6 2.6 0 0 0 .5 0 2.8 2.8 0 0 0-.3-.3.7.7 0 0 0 .2 0 3.9 3.9 0 0 0 .5-.2l.6.2a1.5 1.5 0 0 0-.3-.5 3 3 0 0 1 .3.2 3.7 3.7 0 0 0-.5-.8 3.5 3.5 0 0 0 1-.3 3.2 3.2 0 0 0-.5-.2 1.5 1.5 0 0 0-.2-.4l.5.1a1.9 1.9 0 0 0-.1-.2 3.7 3.7 0 0 1 .6 0s-.1 0-.3-.2a2.4 2.4 0 0 0 .7-.2Zm-4.2 6.5ZM79.5 79.5l-.3-.2a3.7 3.7 0 0 0 .3.8 2.5 2.5 0 0 0-.3 0v-.4a1.5 1.5 0 0 0-.4.4 2.6 2.6 0 0 1 0-.3 3.2 3.2 0 0 0-.2.4h-.1a2.8 2.8 0 0 0-.1.4h-.1a3.4 3.4 0 0 0-.5-.5l.2-.1a4.7 4.7 0 0 0-.7-.1 2.1 2.1 0 0 1 .6-.3s-.2 0-.4-.1a2.3 2.3 0 0 0-.2-.6l.7.5a2.5 2.5 0 0 0-.3-1l.4.4a6 6 0 0 0-.4-1.4 5.7 5.7 0 0 0 1.6 0s-1.3-1.3-2.2-1a1.4 1.4 0 0 0-.3-.2 3 3 0 0 1 .2-.2l.7-.1a2.7 2.7 0 0 0-.7-.4 4.5 4.5 0 0 0 .8-.3 4.6 4.6 0 0 0-.7-.4 1.2 1.2 0 0 0 .2-.1l.1-.2a4 4 0 0 0 .8.1 2.7 2.7 0 0 0-.5.9s.3-.2.9-.4a2.9 2.9 0 0 0-.4.8s.4-.2 1.1-.5a2.7 2.7 0 0 0-.4 1s.4-.3 1-.5a6 6 0 0 0 .1.9 1.8 1.8 0 0 1 .4-.6 3 3 0 0 0 0 .8s.2-.3.5-.7a6.8 6.8 0 0 0 .4 1.3s0-.1.2-.6a1.8 1.8 0 0 0 0 .2 3.5 3.5 0 0 0-.2.5 3.5 3.5 0 0 0-.8-.6s.1 1.1.7 1.4a.8.8 0 0 0 0 .2H81l-.3-.3a1.6 1.6 0 0 0 .1.5 2.6 2.6 0 0 0-.5-.2 3.5 3.5 0 0 0 .2.5 1.2 1.2 0 0 0-.2 0 4.3 4.3 0 0 0-.6 0l-.4-.3a1.5 1.5 0 0 0 .2.6ZM74.7 88Zm-2.1 4Zm5-11.7ZM65.9 10.9Zm4.1 13.3a2 2 0 0 1 0-.2 1 1 0 0 0 .2 0 2.7 2.7 0 0 0 1.2.3 4.8 4.8 0 0 0-.4-.4 3.7 3.7 0 0 0 .7-.5 1.9 1.9 0 0 0 0 .3 2.9 2.9 0 0 0 .3-.1 2 2 0 0 0-.1.3h-.2l.1.1a.8.8 0 0 1 0 .2s0 0 .1 0a2.2 2.2 0 0 0-.4.5h-.2l.3.5a6.8 6.8 0 0 0-1.1-.8s0 .1.4 1.2a2.8 2.8 0 0 0-.6-.2l-.3-.3a5 5 0 0 0-.1.5 5 5 0 0 0-.3-.4V25a.6.6 0 0 0 0-.2 3 3 0 0 0 .4.2 2.6 2.6 0 0 0-.2-.5 1.6 1.6 0 0 0 .5 0l-.3-.3Zm3.6-4.7-.2.1a1.1 1.1 0 0 0 .2-.1Zm-.2 2 .2.1h-.2v-.1ZM78 73Zm-6.4-49.6h-.3a1.5 1.5 0 0 0 .5-.3s-.2 0-.5 0a1.7 1.7 0 0 0 .3-.2h.3a.7.7 0 0 1-.1-.2l.2.2a1.8 1.8 0 0 0-.4.5Zm20.2 53a2.9 2.9 0 0 0-.3 0V76a2 2 0 0 0 .2-.1 3.8 3.8 0 0 0 .1.4Zm-.9 0a3.4 3.4 0 0 0-.2.4 3.7 3.7 0 0 0-.7-.6 3.2 3.2 0 0 0 0 .5 1.6 1.6 0 0 0-.1.3l-.2-.4a1.1 1.1 0 0 0-.1.2l-.3-.6-.1.3a2.4 2.4 0 0 0-.5-.4 2.9 2.9 0 0 0 0 .8 6.2 6.2 0 0 0-.8-1.2 6.8 6.8 0 0 0 1.5-.5s0 0-.5-.2a2.7 2.7 0 0 0 1-.3s-.1 0-.2 0a2.7 2.7 0 0 0 .4-.5v.3a3 3 0 0 0 .3-.3 1.3 1.3 0 0 1 0 .4s0 0 .2-.1a1.7 1.7 0 0 0 .4 0l-.5.3a1.5 1.5 0 0 0 .5.1l-.3.1a3.6 3.6 0 0 0 1 .3 3.5 3.5 0 0 0-.6.8 3 3 0 0 0-.2.3Zm-2.3.9a1.6 1.6 0 0 0-.2 0s0 .1 0 .2v.3a2.5 2.5 0 0 0-.3-.3.7.7 0 0 1 0-.2v.1a4.7 4.7 0 0 0-.5-.3 2.7 2.7 0 0 0-.3.7 1 1 0 0 1-.1-.3 3.1 3.1 0 0 0-.1.7l-.3-.2a3 3 0 0 0 0 .4 1.6 1.6 0 0 1-.2-.2 2 2 0 0 0 .2-.8 3 3 0 0 0-.4.2 4.2 4.2 0 0 0-.2-.6l.1-.4h.2l-.3-.6v-.4a1.4 1.4 0 0 0 .4.2c.2.7 1.4 1.1 2 1.3v.2Zm-4.5-13.9a3.4 3.4 0 0 0-.2.6 2.8 2.8 0 0 0-.5-.2 3.1 3.1 0 0 0-.3-.3 1.3 1.3 0 0 1 .4 0s0 0-.2-.2v-.2h.3v.3l.1-.1h.2l-.1-.4a.7.7 0 0 0 0-.1l.1.3v-.3l.4.2v.1h.1l-.2.2-.2-.1a1.4 1.4 0 0 1 .1.2Zm2.7-1.8v-.3a2.4 2.4 0 0 0 .2.2h-.2Zm4-1.8Zm-1.2 14.8h-.2a1.4 1.4 0 0 0 .2-.3 1.3 1.3 0 0 1 0 .3ZM86.2 64Zm-.1-.3a3.2 3.2 0 0 0-.3-.3.7.7 0 0 0 .4 0 1.2 1.2 0 0 0 .2.2l-.2.1Zm-.3-1.3a2.5 2.5 0 0 0 0 .4h-.1a2.7 2.7 0 0 0 0-.5l.1.1Zm2.6 11.3Zm.6.7ZM86.3 62c-.2 0-.3-.2-.3-.3l.2.1a1.1 1.1 0 0 0 0 .2Zm-3 2h-.1ZM72 41.9a1.8 1.8 0 0 0-.2 0 3.8 3.8 0 0 0-.5.2 3.3 3.3 0 0 0-.4-.2 1.2 1.2 0 0 0-.2-.3h.5-.1a3.8 3.8 0 0 1 .6 0 2.5 2.5 0 0 0-.3-.3 2.4 2.4 0 0 0 .7-.2 2.6 2.6 0 0 0-.8-.4 1 1 0 0 1 .3-.1 3 3 0 0 0-.6-.2 2.5 2.5 0 0 0 .2-.2 2.7 2.7 0 0 0-.4-.1 1.4 1.4 0 0 1 .3-.2s0 0-.2 0a1.6 1.6 0 0 0-.1-.4l.4.3a1.6 1.6 0 0 0-.1-.6 3.1 3.1 0 0 1 .2.2s0 0 0-.3a5.5 5.5 0 0 0 .6.4 3.9 3.9 0 0 0-.9.5 4.3 4.3 0 0 0 1.3.4 1.6 1.6 0 0 1-.5.3 4.8 4.8 0 0 0 1.1.1l-.3.4a4.6 4.6 0 0 0 .7 0 4 4 0 0 1-.4.3 3.2 3.2 0 0 0-1.3-.2 4.5 4.5 0 0 0 .4.6Zm-5.7-10.7-.2-.5a3 3 0 0 0 .4.3l-.2.2Zm.6 1 .2.3a1.4 1.4 0 0 0-.2.1c-.1 0-.4 0-.7-.2a2.8 2.8 0 0 0 .5-.2h.2Zm6.2 6.6Zm-7-7.3.3.1a.7.7 0 0 1 0-.1 3.7 3.7 0 0 0 .5.1 2.5 2.5 0 0 0-.5.3c-.2 0-.4 0-.7-.2a1 1 0 0 0-.2 0 2.1 2.1 0 0 0 .6-.2Zm18.6 31.4a2 2 0 0 0 .1-.2 3.2 3.2 0 0 0 .4.5 3.5 3.5 0 0 0 0 .7 4 4 0 0 0-.5-.3 4 4 0 0 0-.2-.6 1.2 1.2 0 0 1 .3.2s0-.2-.1-.3Zm1 13.4a2.5 2.5 0 0 0 .3.2h-.2l-.1-.2Zm.3.2h.2a1.3 1.3 0 0 0-.3.2l.1-.2Zm5.3-.5a1.4 1.4 0 0 0-.1.4V76h.1Zm1.3-.6a2 2 0 0 0-.3 0 .7.7 0 0 0 0-.2 1.1 1.1 0 0 0 .2 0l.1.1Zm-1.8-15.6h-.2a2.6 2.6 0 0 0 .2.3h-.3a2.2 2.2 0 0 0-.2-.7 1.7 1.7 0 0 0 0-.2 4 4 0 0 0 .5.6Zm-3.6 1v.1H87h.2Zm-.4.8a.8.8 0 0 1-.2 0 1.7 1.7 0 0 0 .2.1 1.2 1.2 0 0 0 0 .4.9.9 0 0 0 0-.1l-.4-.4a4.7 4.7 0 0 0-.1-.5 2.1 2.1 0 0 1 .5.5ZM71.9 24.9a2.6 2.6 0 0 0-.2-.1 2.7 2.7 0 0 0 .3 0v.1Zm10.2 52.2a.2.2 0 0 0 0 .1Zm3.1-.2Zm4.6-17.5.2.3a3 3 0 0 0-.5-.3h.3Zm-11 12.4a1.3 1.3 0 0 0-.8 0l.3-.3a5.3 5.3 0 0 0-1 .1 3.1 3.1 0 0 0-.4-1.4 4.9 4.9 0 0 0-.3.5 3.6 3.6 0 0 0-.2-.5 1 1 0 0 1 .3.1 3.5 3.5 0 0 0-.1-.5 2.7 2.7 0 0 0 .4.2 3.1 3.1 0 0 0-.1-.5 1.3 1.3 0 0 1 .3.3s0-.1 0-.3a1.5 1.5 0 0 0 .3-.3l-.1.6a1.5 1.5 0 0 0 .5-.6 4.3 4.3 0 0 0 .6.7 1.5 1.5 0 0 0 .2.1 5.1 5.1 0 0 0-.8.5 4.7 4.7 0 0 0 1 .3 2.8 2.8 0 0 0-.8.5s.3 0 .7 0l.3.3a1.5 1.5 0 0 0-.3.2ZM74 21.2l-.3-.3a1.6 1.6 0 0 0 0 .5 2.4 2.4 0 0 0-.3-.2 1.6 1.6 0 0 0-.1-.4 3.4 3.4 0 0 0 .6-.2.8.8 0 0 0 .3.4.8.8 0 0 0 0 .2h-.2Zm-.1-.6a3.7 3.7 0 0 0-.9-.4 3.7 3.7 0 0 0 .4-.5 3.9 3.9 0 0 0 .4.6 1.8 1.8 0 0 0 0 .3Zm-15 2h-.2.1Zm-5.6 45.7-.2-.1a1.6 1.6 0 0 0 .2 0Zm51 22.4ZM103 75.4Zm-3.5-20.1Zm-.2-.1a3.4 3.4 0 0 0-.5.1 2.5 2.5 0 0 0 0-.4l.5.3Zm-1-.8.3.2-.2.2a1 1 0 0 0-.1 0v-.4Zm-.7-22.6ZM95 54h.4a3.4 3.4 0 0 0 .5 1.2 4.2 4.2 0 0 0 .3-.7 1.4 1.4 0 0 0 .2.1l.2.2a1 1 0 0 1-.3-.2 3 3 0 0 0 0 .7l-.2-.1a3.3 3.3 0 0 0 0 .4 1.3 1.3 0 0 1-.2-.3s0 .1 0 .3a1.6 1.6 0 0 0-.3.2l.1-.5a1.5 1.5 0 0 0-.5.4l.2-.3h-.1a5 5 0 0 0-.5-1h.5a5 5 0 0 0-.3-.4Zm.3 1.4-.3.2a3 3 0 0 0-.2-.4 1.8 1.8 0 0 1 .5.2ZM87 16.7a1.3 1.3 0 0 0-.2.3v-.6l-.2.2v-.2a3 3 0 0 0 .4.3Zm-12.7 2.9v.5l.2-.1a1.4 1.4 0 0 0 0 .1v.1a3.2 3.2 0 0 0-.4-.4 1.4 1.4 0 0 0 .2-.2ZM70 4.3Zm-3.6 6.3Zm-8.2 11.6v.1H58l.1-.1ZM52.7 68a.8.8 0 0 0 .3-.3 1 1 0 0 0 .2 0 1.8 1.8 0 0 1 0 .2l-.1.2h-.4Zm-3.6 21.2h-.2a1.7 1.7 0 0 0 .2 0Zm-.4.1.2.2a1 1 0 0 1 0 .1s0 0 .2 0h.1a2.2 2.2 0 0 0-.5.1l-.2-.3a1.7 1.7 0 0 1 0 .6 3.6 3.6 0 0 0-.4-.5 4.3 4.3 0 0 0 .6-.2Zm25.8 4.8Zm1.7.7a1.6 1.6 0 0 0-.3-.2v-.2a1.3 1.3 0 0 1-.3.3 3 3 0 0 0 0-.4 3 3 0 0 0-.2.2 3 3 0 0 0-.2-.7 1 1 0 0 1-.1.3 2.7 2.7 0 0 0-.3-.8 2.5 2.5 0 0 0-.2.5c-.2-.4-1-.3-1-.3l.4.3a1.5 1.5 0 0 0-.3 0 2.4 2.4 0 0 0-.2-.3 4 4 0 0 1-.2.7l-.1-.1a3.3 3.3 0 0 0-.2-.4 1 1 0 0 1-.1.3h-.3l.2.2v.2a.5.5 0 0 0-.1 0 2.8 2.8 0 0 0-.4-.2 2.4 2.4 0 0 0 0 .5 1.7 1.7 0 0 0-.4-.3s0 .2.1.4l-.1.2a3.1 3.1 0 0 0-.3-.4 2.7 2.7 0 0 0-.1.6 1.7 1.7 0 0 0-.4-.4s0 .1 0 .4a3 3 0 0 0-.4-.7v.8a3 3 0 0 0-.5-.1 2.8 2.8 0 0 0 .1.4l-.3-.1a1.8 1.8 0 0 0 .2-1.1 4.7 4.7 0 0 0 0-.7 1.2 1.2 0 0 0 .3 0l.2.1.1.5.2-.4a1.7 1.7 0 0 1 .6.2 5.2 5.2 0 0 0-.4-.6l.1-.3a6.7 6.7 0 0 1 1 .4s0-.2-.2-.4a2.5 2.5 0 0 0 .4-.5v.8s.8-.8.5-1.4a4 4 0 0 0 1 .2 4.2 4.2 0 0 0-.8-1.1 1.7 1.7 0 0 1 .5 0 4.8 4.8 0 0 0-.7-.8h.5a4.8 4.8 0 0 0-.5-.5 2.1 2.1 0 0 1 .6 0 3.7 3.7 0 0 0-.2-.3 2.5 2.5 0 0 0 .1-.6l.4.8a2.5 2.5 0 0 0 .2-1l.2.6a5.9 5.9 0 0 0 .2-.8 1 1 0 0 0 .9-.1h.2a1.3 1.3 0 0 1 0 .2l-.5.2a1.6 1.6 0 0 0 .5 0 2.5 2.5 0 0 0-.4.5 2.7 2.7 0 0 0 .5 0v.1a4.8 4.8 0 0 0-.3.6l-.5.3a1.5 1.5 0 0 0 .6 0l-.3.2a3.8 3.8 0 0 0 1 .1 3.7 3.7 0 0 0-.4 1 3.1 3.1 0 0 0 .5-.4 1.4 1.4 0 0 0 .4.1l-.2.2a1.6 1.6 0 0 0 .6 0 .8.8 0 0 1-.2.1 3.2 3.2 0 0 0 .6 0 2.6 2.6 0 0 0-.2.5 2.6 2.6 0 0 0 .8-.3 1 1 0 0 1-.2.3 3 3 0 0 0 .7-.3v.3a3.2 3.2 0 0 0 .2-.2 2.2 2.2 0 0 0 0 .2 2 2 0 0 0-.8.4 2.8 2.8 0 0 0 .5.1.6.6 0 0 0 0 .1 4 4 0 0 0-.4.5l-.6.2a1.5 1.5 0 0 0 .6.2h-.3a3.8 3.8 0 0 0 .8.4 3.6 3.6 0 0 0-.6.8 3.2 3.2 0 0 0 .7-.2 1.9 1.9 0 0 0 .3.9 2.8 2.8 0 0 0 .1-.4 1.8 1.8 0 0 0 .2.3v.1a.8.8 0 0 1 .2.2v-.2h.2a2.2 2.2 0 0 0 0 .7 2.5 2.5 0 0 0 .6-.6 2.1 2.1 0 0 0 0 .2 5 5 0 0 0-.2 0 4 4 0 0 0 .3.4l-.1.2a2.4 2.4 0 0 0-.4 0s.2.1.5.3h-.1.1v.3a1 1 0 0 0-.2 0l.2-.2a4.1 4.1 0 0 0-.6 0 1.6 1.6 0 0 0-.4 0 4 4 0 0 0 0-.8l-.1.3a1.5 1.5 0 0 0 0-.6l-.3.4a3.8 3.8 0 0 0-.6 0 1.2 1.2 0 0 0-.2 0 2.8 2.8 0 0 0 .1-.4 2.6 2.6 0 0 0-.5.3 1.6 1.6 0 0 0 .1-.5s-.1 0-.3.3h-.2a.9.9 0 0 0 0-.2c.5-.4.4-1.5.4-1.5a3.7 3.7 0 0 0-.6.7 3.8 3.8 0 0 0-.6-.7s0 0 0 .5a1.4 1.4 0 0 0-.6-.4s.1.2.2.5Zm15.5 17.6Zm13.2-21.9a1.5 1.5 0 0 0 0-.2v.2Z"/><path fill="#73bf44" d="M76.3 150s-.2-17.7-.7-22.9c-.4-5.1-.2-18.9-1.1-26.4-1-7.5-1-12.4-1-12.4l4-.3s2.3 20 2.4 25.5c.1 5.5.8 17.5 1 19.7.1 2.2 1 11.5 1 13.3l.1 3.5ZM72.9 45a15.1 15.1 0 0 0 14.9-14.8 14.9 14.9 0 0 0-29.8 0A15 15 0 0 0 73 45Z"/><path fill="#73bf44" d="M78.3 99.2C90 99.2 101.2 89 100.6 77a22.7 22.7 0 0 0-22.3-22.3c-11.7 0-22.8 10.2-22.3 22.3a22.7 22.7 0 0 0 22.3 22.3ZM97 57.7c3.2 0 3.2-5 0-5s-3.2 5 0 5Z"/><path fill="#73bf44" d="M54.9 69.3c3.2 0 3.2-5 0-5s-3.2 5 0 5Z"/></svg>