<svg xmlns="http://www.w3.org/2000/svg" viewBox="0 0 150 150"><path fill="#73bf44" d="M77 150h-9.6a5.6 5.6 0 0 1 .1-2.3 7.8 7.8 0 0 0 .8-2.5c0-1.2.3-3.4 0-4a2.8 2.8 0 0 1 0-2.1 6.5 6.5 0 0 0 .3-3.5 5.1 5.1 0 0 1-.4-2.4 9 9 0 0 0 0-3.3 5.5 5.5 0 0 1-.2-2.9 18.5 18.5 0 0 0 .4-4.4l-.2-7.7h6.2v7l.3 6.3c0 2.9 0 4.7.2 6.2a11.1 11.1 0 0 0 .5 3.3 2.9 2.9 0 0 1 .3 2.2 9.7 9.7 0 0 0-.1 3.8 4.8 4.8 0 0 0 .9 2.6 3 3 0 0 1 .5 2.1 3.9 3.9 0 0 0 0 1.6Z"/><path fill="#73bf44" d="m68.7 130.1-1.4 1.5-1.4.3-.3-.7-1 .3-1-.9 1.1-.6-.6-.8.6-.7-.3-1.2.6-1.4-1.6.1-.9.7.8 1.2-.9.9-.1 1.2-1.4.2-.6 1.2-1.9-.3-.8 1.6-1.3-.1-.5.6-1.7-.3-2 .6-1.4-.7v-1.4l-1.8-.1-.3 1.1h-2.2l-.6.9-1.6-.2-.6.6-1.5-.7-2.3-.8.4-1.3-2.2-.8-.2-2.2-2.1-.8 1.3-3-1.5-1.5-2.1.2-3.1-1.5-2.1-.2-.9-1.4-2.7.5-1.3-1 2.3-1 .8-1.5-2.9-.3-1-2 1.6-1.1 2.6.1-.9-1.1-3.5.2-1.7-.8-4.6-.9-.5-1.4 1.2-.4-.6-1.5.8-1.2 2.6-1-2.6-.7-3 .9-1.4-1.8.9-2.6 2.1.1 1.6-1.1 5-.1 1.1-1.2-1.6-1.5-3 .8-1.6-.4-1.3.7-.9-1.6h-1.9l-.6-1.4-1.6-1.1 1.3-2 3.1.7 2-.9-1.7-.7-.6-2.4 1.9-.5 2.9 1.1-.3-2.3-3.1-1.5-.5-2.5 3.2-.5-.5-2-2.3-.7-1.1-1.8-1.9-.4-.3-2.5 2.1-.1 3.7 1.5.1-1.9-2-1.1-1.1-3.1h2.9l.6-1.9 3.2.8 1.3-1.2 3.3.4 3-1.5-2.6-1.6-2.5.1-3.4-1.4 2-1.7-2.5-1.4v-1.7l-1.1-2.7 3.4.3 4.3 1.5 1.4-1.7-1.9-1.9-3.1.2-2.2-1.3 1.5-1.3-3.6-.2-.7-1.4 1.4-.9L17 49l-.2-2.8 2.7.2 4.7 2.5.2-2.1-2.7-2.3.4-2.4 2.1.7 1.3-2.5 5.5 4.5.2-3.2 4.7 1.8-2.4-3.5 1.2-1.3 2 1-.3-2.6 1.1-.4v-3.2l1.4-1.3 2.1 1.2.4-2.4-.5-2.1 1.7-2.4 2 2.1 1.7.6-.4-3.7 1.7.3.2-3.2h2.3l1-1.5 2.6.9v-1.8l2.7.6-.3-2.3 1.3-.6.2-1.7 1.1-2.1 2.2-.2 1.8 1.2.5-1.5-.6-1.5.7-1.4-.7-2.1 2.3-1 3.2 1.4.9-1.7-.8-2 1.3-.7.1-2.4 2-2.1 2.7 1.7L76 1l2.8 2.4-.4 2.1 1.6-.1 1.2 1.8-.5 2.1 1.7.6.7 3.9 2-2.1 2.8 1.4 1.1-2 2.4 1.3 1.1 3.3 2.2-1.3 2.4 2.4 1.6-.6 5.1 4.2-.3 2.5 1.2.5 1.5 2.8-.6 1.1 2.7-.2 1.8 2.3.4 2.8 2.6-.3.3 2.5-.9 1.4 1.6.9 1.7-.7 1.4 2.9-.8 2.7 3.3.1L121 40l2.1 3.4-2.2 3.9 2.2.3.9 2.1 1.8-.9.7 2.2-1.2 2.3 2.4-.3 1.1 3.1-1.1 2.6 1.7 1.3-1.4 2-2.1.6.3 1.9-3.9.5-.3 2.1 4.6-.9 3.9 1.1 3.2-.9.5 2.1-3 1 1.9 1.3-2.4 2-1.6.2.1 1.1-1.4.9-1.8.7 2 1-2.1 1.2h-2.2l.4 2.4 3.1-.1 2 1.8-2.1 2.8 5-1.4 1.6 1.1 2.9-.6 1 1.7-3.2 1.8-.2 2.1-3.2 1-1.4 2.3 3.5-.6v2.2l.7 1.6-4.4 1.6 1.3 1.4 2.9-.9-.8 2.5-4.9 1.2 1.6 1.6 5.2-1.1 1 2.3-1.9 1.4 5.5-.6-.1 2.4-5.3-.1-.9 1.6-3.1.3 2.4 2.6-4 .4 3.8 2.1-1.2.9-4.4.5.8 3.8-3.8.9-1.5 3.1-2.6-.6-.1 1.5-4-1.3v2.1l-1.8.4-1.6-1.2-.7 3-2.6.4-2.7-.8-3.8 2.7-5.8-1.2-3.8-.8-3.1 1.6-4 .5-3.3-.4-1.4 1.1-3.4-.2-2.9.6-4-.9-1.7-.3z"/></svg>