<svg xmlns="http://www.w3.org/2000/svg" viewBox="0 0 150 150"><path fill="#73bf44" d="M4 121s39-22 73 2l1 1-6 2s-20-16-68-5Z"/><path fill="#73bf44" d="M0 70s66 11 78 52l1 2-7 1S67 96 0 70Z"/><path fill="#73bf44" d="M28 37s37 49 48 80l-4 2S41 71 28 37Z"/><path fill="#73bf44" d="M38 28s31 29 37 88l-6-2s-5-30-11-45c-7-16-13-22-20-41ZM150 90s-47-17-75 27l2 7s9-14 27-27c19-12 32-3 46-7Z"/><path fill="#73bf44" d="M146 105s-40-27-69 12l-2 7 4 1s8-15 22-21c15-6 38-2 45 1Z"/><path fill="#73bf44" d="M141 64s-27-2-41 8c-13 9-25 45-25 45h4l16-34c6-12 29-15 46-19Z"/><path fill="#73bf44" d="M49 36s22 14 25 32 4 46 4 46l-3 5-5-47c-2-15-12-25-21-36Z"/><path fill="#73bf44" d="M95 24s2 49-14 81l-5-1s9-29 14-53l5-27Z"/><path fill="#73bf44" d="M93 35s2 48-13 81l-6-1s10-30 14-53l5-27Z"/><path fill="#73bf44" d="M85 28s-9 45-6 68l-4 8s-9-25 10-76ZM12 112s32-29 58 0l1 8s-14-30-59-8ZM113 38S98 76 84 99l-4-1 33-60ZM79 119s21-22 47-7c0 0-20-10-47 12ZM119 59s-18 33-34 48l-3-2s25-28 37-46Z"/><path fill="#73bf44" d="M15 88s37 6 57 17l-1 3S36 94 15 88ZM86 47s0 32-7 49l-4-2s9-30 11-47Z"/><path fill="#73bf44" d="M62 56s13 29 14 48l-4-1s-5-30-10-47ZM32 112s29-16 46 9l-5 3s-8-20-41-12Z"/><path fill="#73bf44" d="M81 124s12-4 35 0c0 0-12-6-29-5s-6 5-6 5ZM75 118c17 0 17-26 0-26-16 0-16 26 0 26Z"/></svg>