<svg xmlns="http://www.w3.org/2000/svg" viewBox="0 0 150 150"><path fill="#73bf44" d="M30 19a7 7 0 0 1 1-1l1 1a1 1 0 0 0 1 1h2a1 1 0 0 0 0-1h-1v-1a2 2 0 0 0 0-1l-1 1v-1h-1l-1-1 1-2h2l2-1h1v1l-1 1 2 1v1a1 1 0 0 0 0 1c0 2 0 1-1 1l-1 1a1 1 0 0 0 0 1h1l1-1h2v-1c0 2 1 1 2 1v-2l-1-1v-1l-1 1 1-3 1-1a5 5 0 0 0 2-1c0 1 0 0 0 0v-2l-1-1c-1 0-1 0 0 0a2 2 0 0 0 1-2c-1 0 0-1 0 0l1-1h1l2 2h-1a8 8 0 0 1 1 3h1l-1 2 2-1 3-2 1-1-2-1h1V7a2 2 0 0 1 1 0V6h1c1 0 1 1 2-1h2a1 1 0 0 1 1 0v2l3 1 1 1a1 1 0 0 0 0-1l1-1v1l1 1a23 23 0 0 0 0-3v1a4 4 0 0 0 1 2h1l1-1 1 1h3a2 2 0 0 1 2-1h3l-1-1h3l1-3V3a2 2 0 0 0 2 0l1 1h1v1h-1 3c1 2 3 2 4 0h1v1-1l1-2v2a7 7 0 0 1 0 1h2V5h1l1-2a2 2 0 0 1 1-1h1v1l1-1h2a3 3 0 0 0 2 0v1l1 1 1 1v1l1 1 2-2c0 2 1 1 1 1 2 0 2 1 1 1l1 1 1 1v3c-1 1 0 1 1 2v1l-1 1h1l-1 1a2 2 0 0 1 1 1 1 1 0 0 0 2 1c1-1 0 1 1 1l1-1h1v1l1-1c2 0 1-1 1-2l1-1v1l1 1 1 1a2 2 0 0 1 2 1 1 1 0 0 0 0 1l1-2a6 6 0 0 1 0 3v1h1c0-1 0 0 0 0a1 1 0 0 0 2 0h1l1-1h1a2 2 0 0 1 0 1 1 1 0 0 0 0 2v2h1l1 1v1a2 2 0 0 0-1 2h1l1 1 1 1v1l1 1v1a1 1 0 0 0-2 0c-1-1-1 0-1 1l-2 1a2 2 0 0 1 2 1h1l1 1h1a1 1 0 0 1 1 0 1 1 0 0 0 0 2v2a10 10 0 0 0 2 1v-2h1l1-1h1v1l1 1h1l-1 1v1a11 11 0 0 0 2 1v1h1v2l-1 1h-3l-1 1c1 2-1 3-2 5a2 2 0 0 1 1 0l1-1v-1l1 1 1 1 1 2h1c1-1 1 0 1 1v1c-1 0-1 0 0 0a2 2 0 0 1 0 1v1c0 1 0 0 0 0a2 2 0 0 1-4 1v1h-2l1 1-1 1c-1-1-1 1-2 1h1v2a2 2 0 0 0 1 0v-1h3l1 1 1-1v1l1 1v2h1l-1 2 1 2a3 3 0 0 1 1 1 2 2 0 0 1-1 0v-1 1a2 2 0 0 1 0 1c0 1 0 2-1 1l-1 1h-1v2h-1a1 1 0 0 1-1 0 2 2 0 0 0-2-1v-1a2 2 0 0 1 1-1 8 8 0 0 0-2 0 9 9 0 0 0 1-2l-1-1h-3c-2 0-2-1-3-2l-1 1a1 1 0 0 0-1 0 2 2 0 0 1-1 2l-1 1h1l-1 2a1 1 0 0 1 0 1h-4a4 4 0 0 0-1 0l-1-1v2l-1 1-1 1c-1 0-1 0 0 0a1 1 0 0 1 1 1v1l2 2v-1h1l-1 1a5 5 0 0 0 3 1v2c0 1 1 1-1 2v1h-1l-1-1v2h-3a1 1 0 0 0-1-1 1 1 0 0 1-1-2c1 0 0 0 0 0l-2-1c-1 1-2-1-3-1v-1 1h-1c-1-1-1 0-1 1h-2a1 1 0 0 1 0 1h-3c-2-1-2-1-1-2h-2v-2l-1-1a2 2 0 0 1-2 0h-1l-6 2-1 3h4l1-1v5h2v-2l1 1a3 3 0 0 0 0-2h1a2 2 0 0 0 2-1v1a2 2 0 0 1 1 0 2 2 0 0 1 2 1l1 1v1h-1l1 3h-1a1 1 0 0 0-2 1h-2l-1-1h-1v1h-1s0 2-1 1h-1c0 1 0 1 0 0l-1 1h-1v-1c-1 0 0 0 0 0v2l-1-1-2 1-1-1-2 1a22 22 0 0 1-3 6 14 14 0 0 1-2 2 23 23 0 0 0-4 5c-5 7-4 5-4 13v17l-1 1h-3v-1a70 70 0 0 0 0-11 35 35 0 0 1 0-7l-1-9a52 52 0 0 1-1-10 7 7 0 0 1 0-1 4 4 0 0 0 0-3 37 37 0 0 0-8-9 51 51 0 0 1-4-5h-1a1 1 0 0 1-1-2l-2 1h-1v-1l-2 1-1 1s0 1 0 0l-2-1a11 11 0 0 0-2-1l1-1h-2v1h-1v-1s1-1 0 0l-1 1v1a4 4 0 0 0 0 3l-1 1a5 5 0 0 1-3 0s0 1 0 0l-1 1a2 2 0 0 0-1-2 1 1 0 0 1-1 0l-1-1h-1c-1-1-2 0-2 1l-1-3h-2l1-1h-1l1-1-1-2c1-1 2-2 3-1v-1h1a1 1 0 0 0-1-1v-1a3 3 0 0 0 1 0l-1-1 1-1 1-1h-6a3 3 0 0 1-2 1l-1 1a2 2 0 0 1-1 1v2h-5a2 2 0 0 0-1-1s-1 0 0 0v-5h-1v-1l1-1v-1l-1-1a1 1 0 0 1 1 0h1a1 1 0 0 1 1-1l1-2 1-1a2 2 0 0 0 2-2h1c-1-2-1-2 1-1v-2h-1v-1a1 1 0 0 0 0-2 4 4 0 0 0-4 2 1 1 0 0 1-1 0c0 2-2 1-3 1a2 2 0 0 1-1 0l-1-1-1 1v1l-1 2a1 1 0 0 1 0 1h-1c0-1 0-1 0 0-1 1-1 0-1-1h-1c-1 0-2 0-1-1l-1-3 1-1a4 4 0 0 0 1 0l1-1 1-2v-1h1v-1h1l1-1v1h2a4 4 0 0 1 2 1 1 1 0 0 1 0 1v1l5 1h1l-1-1h-1l1-1v-3a1 1 0 0 0-1-2 2 2 0 0 1-1-1v-1h-2l1-1v-1a1 1 0 0 0 1 0l1-1a2 2 0 0 0 0-1h-2l-1-2h-1l-2 1c-1-1-1 0-1 1h-2l-1-1h-1l-2 1-1 1a9 9 0 0 1-1-1v-1h-1v-3l1-1 3-1v-2a3 3 0 0 0-1-1h-2l-1 1a1 1 0 0 1 0 1H6a1 1 0 0 0-1-1v-1l-1-2H3l-2-1H0l2-1c-1-1 0-3 1-3l1 1 2-1 1-1 1 1v1h1v1a6 6 0 0 1 1 0l2-1-2-1 2-1h-1l-1-1v-1h1a1 1 0 0 0 1 0v-1l-1-1h-1v-1 1l-1 1v-2l-1 1-1-1 1-1 1-1-1 1c0-1 1-2-1-2h1v-1H7l1-1 3 1 1-1c1 1 2 1 1 3a2 2 0 0 1 3 0s2 1 2-1h1l1 3 1-1a4 4 0 0 1-1 0l1-1 1 1v1a2 2 0 0 1 2-1 5 5 0 0 1 2-3l-1-1-1-2 1-1v-2h1l2 1c1 2 1 1 1 0h1Zm31 64a3 3 0 0 1 0-2v-1l-1 1v-1h-2a1 1 0 0 0 1 1l2 2 2 1 2 1s-1 0 0 0v-1h1l1 1a2 2 0 0 0 3 1 2 2 0 0 0-1-1 20 20 0 0 0-3-3 1 1 0 0 0-2 1l-1-1a1 1 0 0 0-1 0 1 1 0 0 1-1 1Zm18 36a10 10 0 0 0 1-1l7-9c3-3 4-6 3-9l1-1a1 1 0 0 0 0-1l-1-1a28 28 0 0 0-3 1l-2 1a19 19 0 0 1-1 6 60 60 0 0 1-3 7 13 13 0 0 0-2 7Zm13-23 2-4a1 1 0 0 0-1-2 2 2 0 0 1-1-1l-1-1-3 3a2 2 0 0 0-2 2 9 9 0 0 1 0 3c-1 1 0 1 1 1h3l1-1v-1l1 1Zm-20 5a16 16 0 0 1-1-4 4 4 0 0 0-1-3l-2-2h-1a1 1 0 0 1-1 0 2 2 0 0 0-1 1h-1l-1-1 9 9Zm29-17c-2 0-4 1-4 4h-1v1h1l5-2a2 2 0 0 0 1-3 4 4 0 0 1-2 0Zm-30 9v-3c0-3-1-3-3-3v1l1 3a32 32 0 0 1 2 2Zm36-23a1 1 0 0 0 1 1 1 1 0 0 1 0 1l-1 1a6 6 0 0 0 1 1 1 1 0 0 0 1 1 1 1 0 0 0 1-1v-2c-1 0-1 0 0 0v-1s-1 0 0 0l-1-1a3 3 0 0 1-2 0ZM71 86c1-2-1-6-2-8h-1v1l1 1-1 2a23 23 0 0 1 3 4Zm2 5c0 2 0 5 2 6 0-2 1-4-2-6Zm21-1 2-5a8 8 0 0 0-3 2 2 2 0 0 1 1 1s1 0 0 0v2Zm-18-1a23 23 0 0 0 0-3 15 15 0 0 1 0-4v-1h-1l1 8Zm57-17a1 1 0 0 0 1-1v-1h-2v-1l-1 1 1 2h1Zm-19 0h-1l-1 2h1l1-1a1 1 0 0 0 0-1ZM81 87l-1 4v1-1a13 13 0 0 0 1-4Z"/><path fill="#73bf44" d="M110 79c8 0 8-12 0-12-7 0-7 12 0 12ZM132 73c7 0 7-12 0-12-8 0-8 12 0 12Z"/></svg>