<svg xmlns="http://www.w3.org/2000/svg" viewBox="0 0 150 150"><path fill="#73bf44" d="M72.3 149h-12s1.6-5.8-.3-11c-2-5.3-1.4-6.6-.8-9 .5-2.5-7.8-7.5-9.1-20.2h3a32.5 32.5 0 0 0 4.3 10.7c3.4 5.4 2.2-12-3-18.5l3.7-1.7s2.4 2.5 3.3 10c1 7.4 4.2 17.3 4 11.2-.2-6.2-.7-15.4 1-18l2.6 1.3a45.8 45.8 0 0 0 0 18.1c2.1 9.4 7.3 5.4 6.7-3.8-.6-9.3.6-14.6.6-14.6l2.8 1.5a71 71 0 0 0-.9 15 46 46 0 0 1-3.7 20.5 25.6 25.6 0 0 0-2.2 8.5Z"/><path fill="#73bf44" d="m58.1 107.3-1.2 1.3-2.1-.2-1.4 3.7-5.3 1.1 2.1 2-.9.4L51 117l-.7 1.2.7 2.2-1.6.3.1 2.5-2.7-.4-.8 1.6-.6-2.5-3.1 1-.2-1.3-2 1.6-.6-2.2-1.8.8-.1-1.7-2 .6-.2-3.9-3.1 1.3L31 115l-1.5.1.5-1-4.2.2.5-3-1.8-.3 2.2-1.6-6-3.3 6.7-.5-.6-3 2 .5-.8-4.3 2.5 1.3 2.3-3-2.8-.5 1.3-1.5-3-.6-.1-1.2-1 4-3.6-1.1V98l-3-.9-1.2 1.5-.5-1.9-3 1-.2-1.7-2.9.2 2-2.3-5.5-2 4.8-1.4-.8-2.7 4.7 1 .5-1.6 2.8 2 2-1.5 1 .5-.2-2.6 2.1-2-2.5-.7 1.4-1-3.5-2.3.3-2.1-2.2.5-1.4-1.8-.8 1.1-1.8-1.4-1.8 1.3-2-1.8 1.3-1.9-2-1.4 3.5-.2-2.5-3.8 3.7.5V67l2.8.6-.6-3.3 1.1-.9-2-.9.4-1.6-3.4 1.4-1-1.4-.8 1.3-2.5-2.5-2.7.9.4-2.5-2.1-.6.3-2.5-4.3-.3 2-2.2-3-1.3 2.3-1.4-3.3-2.2h4.1L3 43.5l4.2 2 2-1.3.5 1.2 1-.1v2.3l2.1-.2.8 3.8.8-3.5-1.7-2 .9-1.3-1.4-1 1-.6-2.6-2.6 3.3-.4-2-3.2 3.2-.9-3.9-1.2 3.2-1.2-3.3-2.5 2.9-2-1.7-2.8 4.7.3-.4-2.6 2.2-.2.8-2.6 2.3.9-.2-5 2.8 1.5-.4-4 3.2 1.3.3-2.4 3.5.7.3-2.1 2.2 1 1.8-5.2 3 .7.2-1.3 2.6.2.2-2.7 3.3 1-.5-4.5 3.6 2 1.3-1.1.3 1.2 4-.6.9 1.8 3-.7.4 1.5h2l.9 2.5 4 .1-.6-3 4.7 1.2-.2-3H72l1-.7L74.3 4l3-1.7.5 1.4 2.6-.7.5 1.9 4-.9.5 3L87 7l-2.5 1.5 2.1 1.3-2.2.5 2.4 2.7-3.1.6 1.2 3.3 1.4-.7.9 2.8 2-1.8 2.9 2.3-1.4-4.2h4L93 12.7l2.6-2 .1-2.2 1.6 1.5 2.2-1.3.6 1.6h5.2l-1 1.8 1.6 1-.9.8 2.3 1-1.8 1.1 2.6 1.7-3.1 1.5.7 2.8v2.9l3.1-1.8.3 3.8 2.6-6.3 3.2 2 3.2-3.5.6 2.8 3.3.1-.8 4.3 3.7 1.3-3.6 2.3 4.3.2-2.7 3.7 3.5 1.8.8-2 4 2.4-1.4-4.2 5.2.4 1.4-2.2 2 1.6 3.8-.8.3 2 3.1-.4.1 2.1-2 2.7 2.7.8-5.7.5 1.4 2.8-.2 1.7 5-.3-1.4 2.2h4.6l-.5 2.1.9 1.6-2 .8-3.1.9-1 2-2.5-.1.4 3.4-2 1.8 2.9-.3-1 1.8 2.5-.2-.3.9 2 .4-.4 1.1-2.9 1 2.3 1.5.4-.3v2.4h3.2l-.6 1.3.2 1.2-2.6.5.4 1.2h-2l1 3-5.7-.4-.2 3-3.4-.2-.7 1.6-1.8-1-.5 2.3 2 1.2 1.8-.5.3 1.5 3.1-.7 1.2 1.5-1 2.9 3.7-.2-.8 2.5 2.4 2-3 .5.6 3-2 .8v3l-1.5-.6-1 2.1-1.8 3.6-2.7-2-1.3 2.9-2.5-.7-1.2.4-.4-2.9-2.2 1.3-.6-1-2.4.7-.5-.8-3.2 1.3-2-2-2.3 5.3-3.9.3 4.2 1-1.9 3.6 3.4-.7-.1 2.1h1.8l-.4 5 4.4-.2-1.1 1.2 3 1-3.2 1.8-.3 3.1-1.2-.2-.2 3.6h-5l.2 2.7-1.3-3-2 1.1-3-4.1-1 3.2h-3.7l2.2 3.6H103l-2.1-3.5-2 2.1-1-2.2-3 .6-.7-2.6-4.3 4.2-1.7-1.7-6.9 1.5 1.2-6.2-5.8-.9-3-5.3-1 1L71 114l-.8 1.7-2.9-2-4.1-3.6-.2-2.6-4.3-.2-.4-.2Z"/></svg>