<svg xmlns="http://www.w3.org/2000/svg" viewBox="0 0 150 150"><path fill="#73bf44" d="m142.2 63.4-1 1.2c3.4-5 7-14.1 7-14.1-3.1 4.4-6.6 12.5-7.4 14.5l-1.2 1a63.6 63.6 0 0 0 5.9-16.1c-2.2 4.3-5.5 14.3-6.2 16.3l-1.4 1.1c3.2-4.8 4.9-17.5 4.9-17.5a160 160 0 0 0-5.1 17.6l-1.4.8c2-4 4.4-18.1 4.4-18.1a71.8 71.8 0 0 0-4.5 18.2l-1.6.8c2.7-5.7 3.6-17.7 3.6-17.7-1.6 4.8-3.4 15.6-3.8 17.8l-1.5.6c1.8-4.2 3.7-18.1 3.7-18.1a71.1 71.1 0 0 0-3.9 18.2l-1.5.6c1.7-4.3 3.2-18.3 3.2-18.3a71.1 71.1 0 0 0-3.3 18.3l-1.7.5a114 114 0 0 0 3.1-18.3 71 71 0 0 0-3.2 18.4l-1.8.5c2.4-6.2 2.5-18.7 2.5-18.7-1.3 5-2.4 16.3-2.7 18.7l-1.5.4c1.6-4.5 2.6-19.3 2.6-19.3-2.3 5.8-2.7 17-2.8 19.3l-1.5.4c1.5-4.5 2-19.5 2-19.5a74.7 74.7 0 0 0-2.1 19.5l-2 .4c2.3-6.1 2-18.9 2-18.9-1.1 5.1-2 16.9-2.2 18.9l-.7.1-1 .2c1.6-3.6 2.6-17.2 2.6-17.2a67 67 0 0 0-2.6 17.2l-2 .4c1.6-3.6 3-17.1 3-17.1-2.3 5.1-3 15.7-3 17l-1.8.4c1.6-3.6 3.1-17 3.1-17a66.8 66.8 0 0 0-3.2 17l-1.5.4c1.4-3.2 2.5-16 2.5-16-2.1 5-2.5 15.3-2.6 16l-2 .5c1.6-3.7 3-16.2 3-16.2-2.2 4.8-3 14.4-3.1 16.2l-1.8.5c1.5-3.7 2.5-16.2 2.5-16.2-2 4.8-2.5 14.5-2.6 16.3l-1.5.5a93 93 0 0 0 2.1-14.6 56.3 56.3 0 0 0-2.3 14.6l-1.5.6C109.2 71.5 109 62 109 62c-.9 3.8-1.6 12.5-1.8 14.6l-1.7.8a45.1 45.1 0 0 0 1.2-6.6l.4-3.5a.6.6 0 0 1 .1 0v-1.7l.5-.1h-.4l.2-1.6.8-.5-.8.2v-.8l-.3 1c-2.9.6-10.6 2.7-13 4.1l.3-1a59 59 0 0 0 14.3-6s-11 3.7-14.3 5.8l.3-1c2.2-.8 10.7-3.8 14.6-6.9 0 0-11 4.1-14.5 6.6 0-.5.2-1 .3-1.4 2.4-.9 10.5-4 14.3-7.2 0 0-10.5 4.3-14.2 6.9l.2-1.2c1.4-.5 10.4-4.4 14.3-8 0 0-11.4 5.3-14.2 8 0-.5.2-.9.3-1.3a63.9 63.9 0 0 0 13.8-9.5s-10.3 6-13.7 9l.3-1.4c1.8-1 9.9-5.7 13.2-9.6 0 0-10.2 6.2-13.1 9.3 0-.5.2-1 .3-1.4 1.2-.8 9.5-6 12.7-10.3 0 0-10.3 7-12.7 10.1l.4-1.7c2-1.5 9.3-7 12.1-11.1 0 0-9 7-12 10.6l.2-1.3c1.6-1.2 8-6.3 10.5-10 0 0-8 6.5-10.4 9.7l.3-1.5c1.6-1.3 7.9-6.9 10.1-10.9 0 0-7.7 7.1-10 10.5l.3-1.5c1.3-1.3 7.4-7.4 9.5-11.6 0 0-7.5 7.7-9.5 11.2l.3-1.5a55 55 0 0 0 8.8-11.5s-6.8 7.6-8.7 11l.3-1.6c1.6-1.8 7.2-8 9-12.4 0 0-6.7 7.8-9 11.7l.3-1.4c1.6-1.9 6.5-7.7 8.1-11.7 0 0-5.8 7.1-8 11l.2-1.3c1.5-1.8 6.4-7.9 8-12 0 0-6 7.5-8 11.3l.2-1a132.4 132.4 0 0 0 7.8-11.8s-5.7 6.4-7.7 11.1l.2-1.7a118.4 118.4 0 0 0 7-10.6s-5 5.7-7 10l.1-1.3a104.4 104.4 0 0 0 6.2-9.3s-4.6 5.2-6.1 8.9v-1.2a87.3 87.3 0 0 0 5.1-7.7s-3.8 4.3-5 7.4v-.3c1.6-2.9 2.6-9 2.6-9a74.8 74.8 0 0 0-2.4 7.8 40.2 40.2 0 0 0 0-8.1 86.2 86.2 0 0 0-.3 9.1V33.9l-.1.7-.1.5c0-4-1.8-10.3-1.8-10.3a105.7 105.7 0 0 0 1.7 11.1l-.4 2.4c.3-4.6-2-12.7-2-12.7a127.1 127.1 0 0 0 2 13.2l-.5 2.8c.3-5.1-2.3-14-2.3-14 .1 4.2 2 13.3 2.2 14.5l-.6 3.2c0-3.9-2.7-14.2-2.7-14.2a57 57 0 0 0 2.6 14.7l-.4 2.4c-.5-4.7-3.2-14.1-3.2-14.1a58.2 58.2 0 0 0 3 15l-.3 1.5C97 46.5 94.1 37 94.1 37c0 4.5 2.5 12.2 3.1 14l-.3 1.5c-.3-4-3.8-14.1-3.8-14.1 0 4.7 3.1 12.9 3.7 14.5l-.2 1.5c-.9-3.9-5.3-13.2-5.3-13.2.6 4.5 4.3 11.8 5.2 13.6l-.4 1.8c-.6-2.6-3-7.7-4.6-11.3l.3-.5-.4.4-1.1-2.3.4-.9-.6.6-.5-1.1.3 1.5-1.2 1.3-.1-.3v.4l-2.4 3v-.2.2a78 78 0 0 0-6.3 8.7l.8-2.7c2.4-2.9 7.3-9 9-13.4 0 0-8.2 10.1-10.2 14.4l-.2-1.6c1-1.3 7.6-9.7 9.5-15.2 0 0-8 11-9.5 15l-.2-1.9c1.5-2.3 7-10.5 8.5-15.9 0 0-6.8 10.6-8.6 15.4V49l-.1.2V49c1-1.9 5.9-9.4 7-14.3 0 0-5.8 9.8-7.1 13.9l-.3-1.6c1.1-2 5.6-10 6.5-15 0 0-5.4 10.2-6.5 14.5l-.3-1.6c.9-1.9 5-10.4 5.6-15.5 0 0-4.9 10.7-5.7 15l-.2-1.6c.8-2 4.4-10.1 4.8-15 0 0-4.2 10.2-5 14.5q0-1-.2-1.8a64 64 0 0 0 4.8-16.1s-4 10.5-5 15.3l-.3-1.5c1-2.5 4-10.3 4.1-15 0 0-3.4 9.5-4.2 14.2l-.3-1.4a60 60 0 0 0 3.9-15.3s-3.4 9.9-4 14.5l-.3-1c.7-2.4 3.2-11 3.7-15 0 0-3.5 8.7-3.9 14.3l-.4-2A130 130 0 0 0 79 18s-3.1 7.7-3.6 12.8c0-.5-.2-.9-.3-1.3a114.5 114.5 0 0 0 3-11.9s-2.9 7-3.1 11.4a58 58 0 0 0-.4-1.2A95 95 0 0 0 77 18s-2.3 5.9-2.5 9.5V27c.6-3.5-.6-10.2-.6-10.2a82 82 0 0 0 .3 9 43.7 43.7 0 0 0-3-8.4 93.7 93.7 0 0 0 3 9.5l.1.2v.2l.2.6.1.6c-1.4-4.2-5.6-10-5.6-10a116.3 116.3 0 0 0 5.8 10.9l.5 2.6c-1.4-4.9-6.8-12.4-6.8-12.4 1.5 3.8 6.3 12 6.9 12.9l.5 3a59.5 59.5 0 0 0-7.4-13.5c1.6 4.2 6.8 13 7.5 14.1l.6 3.6c-1.4-4-8-13.7-8-13.7a40 40 0 0 0 4.5 8.8l-.2.8-4.2-6.2a27.2 27.2 0 0 0 2.1 4.7v.7l-1.5-2a21.4 21.4 0 0 0 1.4 3v1.2l-2-2.5a23.7 23.7 0 0 0 1.9 3.7V41l-.4-.4a63.6 63.6 0 0 0-2.1-6.5 53.6 53.6 0 0 0 1.3 5.7l-1.5-1.6a22.3 22.3 0 0 0 2 3.1 14.4 14.4 0 0 0 1.1 2.5l-.2-.2a42.7 42.7 0 0 0-5.3-7.5 67.6 67.6 0 0 0 4 6.1l-1-.9c-2-2.8-4-5.1-4-5.1l1.7 2.9a23.1 23.1 0 0 0 2 2.8c1.2 2 2.5 3.7 3 4.4v.2l-1-.8a68.1 68.1 0 0 0-6.5-9 79.5 79.5 0 0 0 4.4 7.1l-1.3-1.2a84 84 0 0 0-3.7-4.5 103.3 103.3 0 0 0 6 9.4 47 47 0 0 0-.5-.5C66 43.4 63 39.8 63 39.8A28.7 28.7 0 0 0 66 45l-.4-.3a19.6 19.6 0 0 0 1.3 1.7l2.3 3.1-.6-.4c-2.5-3.5-5.2-6.8-5.2-6.8a27.8 27.8 0 0 0 2.7 5c-.8-.7-1.4-1-1.4-1a25.8 25.8 0 0 0 3 3c1 1.6 2.2 3 3.1 4.1L70 53c-3-4.2-7.3-9-7.3-9a37.7 37.7 0 0 0 4.8 7.4l-.9-.6-3.1-3.5a20.1 20.1 0 0 0 1.4 2.5 49 49 0 0 0 3.1 4.2l-1-.5-3.3-3.6v-.3.2l-.7-.6.6 1-.6 2-.2-.2c0 .1 0 .2.2.3l-1 3.9-.6-.5.5.7-.6 2.4h-.1a53 53 0 0 0-1.6 10l-1.7-1.3c.6-2 3.8-13.2 3.4-19.4 0 0-3.7 14.5-3.5 19.3L55.6 66c.2-.8 4.1-12.5 4-19 0 0-4.3 14.8-4 19l-1.6-1c.4-1.7 4-13.8 3.6-20.6 0 0-4 15.7-3.7 20.5L52 63.7c.5-1.7 4.1-13.7 3.8-20.5 0 0-4.2 15.7-3.9 20.4l-2.1-1.2A80 80 0 0 0 54.3 42s-4.6 15.6-4.5 20.3l-1-.5-.7-.5a216 216 0 0 0 5.5-22.1s-5.7 14.2-5.6 22L46 60c.9-2.3 5.7-15.2 5.8-22.6 0 0-5.8 17-6 22.5l-1.5-1a89 89 0 0 0 5-22.7S44.2 53 44 58.7l-1.5-1c.7-2.9 4.2-16 4.9-22.1 0 0-5.2 14-5.1 22l-1.8-1.4a85 85 0 0 0 4.1-21.9s-4.4 16.3-4.3 21.8l-1.6-1.3c.8-2.4 4.5-14.8 4.1-21.9 0 0-4.3 16.3-4.2 21.8L37 53.4c.7-2.4 4-15 3.4-22 0 0-3.8 16.4-3.5 21.9L35.6 52c.5-2.6 3-15.6 3.2-21.5 0 0-4 13.7-3.4 21.3L34 50.2a86 86 0 0 0 2.6-22.3S33.3 44.8 33.8 50l-1.1-1.5c.2-2.2 2-16.8 1.7-22 0 0-3.4 15-1.9 21.8l-1.2-1.9c.1-2.5.6-15.2 0-20.9 0 0-1.9 13.3-.2 20.6l-1-1.7c0-2.5-.4-13-2-19.3 0 0 .1 11.6 1.8 18.7l-.7-1.7a70.6 70.6 0 0 0-3.9-16S27 38 29 42.4c.5 2.5 2.9 8.6 13.8 16.3a45 45 0 0 0 .6 12.2 92 92 0 0 0-1.3-.6c0-1.8.1-8.9-1.1-12.6 0 0 0 9.3 1 12.5l-1.4-.7c0-1.7.1-8.8-1.1-12.5 0 0 .1 9.3 1 12.5l-1.3-.6c0-1.7-.2-8.8-1.5-12.5 0 0 .4 9.3 1.4 12.4l-1.3-.6c0-1.6-.2-9.2-1.6-13.1 0 0 .4 10 1.4 13l-1.3-.5c0-1.5-.2-9.3-1.6-13.3 0 0 .4 10.2 1.5 13.2l-1.6-.6c0-1.5.2-9.3-1.1-13.3 0 0 0 10.1 1 13.2l-1.3-.5a122 122 0 0 0-.7-13s-.7 8.6.6 13c-.4-.3-.9-.4-1.3-.6 0-1.5.1-8.9-1.2-12.7 0 0 .2 9.7 1 12.6l-1.2-.5c0-1.4 0-8.8-1.2-12.7 0 0 .1 9.7 1 12.7l-1.2-.6A48 48 0 0 0 27.4 52s.5 9.4 1.4 12.5l-1.3-.6c0-1.4-.1-9.2-1.6-13.2 0 0 .4 10.1 1.5 13.2a83 83 0 0 0-1.6-.7c0-1.5.1-9.2-1.2-13.2 0 0 .1 10 1 13.1l-1.5-.6a120.6 120.6 0 0 0-.7-12.7s-.7 8.3.6 12.7l-1.2-.4c0-1.6 0-8.9-1.2-12.6 0 0 .2 9.5 1 12.5l-1.3-.5c0-1.8.1-8.7-1.1-12.4 0 0 .1 9.2 1 12.4l-1-.4c0-2-.2-8.7-1.6-12.2 0 0 .5 8.8 1.4 12.2l-.9-.3a117.3 117.3 0 0 0-1.5-12.4s-.1 8.3 1.5 12.3l-1.3-.4a48 48 0 0 0-2-12.5s.7 9.3 1.8 12.4l-1-.3c0-1.5-.6-8.9-2.2-12.5 0 0 1 9.5 2.1 12.4l-1-.4a119.3 119.3 0 0 0-2.3-12.3s.4 8.4 2.2 12.3l-1.2-.5c0-1.2-.9-8.5-2.6-12 0 0 1.3 9.3 2.5 12l-1.2-.6c-.1-1.3-1-8.5-2.6-12 0 0 1.3 9.2 2.5 12-.3-.3-.7-.5-1-.6-.2-1.4-1.3-8.4-3-11.9 0 0 1.5 9 2.8 11.8l-1-.6a113.5 113.5 0 0 0-3-11.5s1 7.8 3 11.5l-1.2-.8C9 55 7.9 48 5.9 44.5c0 0 2 9 3.3 11.7l-.9-.6c-.4-1.5-2.5-9-3.7-11.3 0 0 1.4 8 3.5 11.1l-.8-.5-1-.8a67 67 0 0 1-.8-.6A38.6 38.6 0 0 0 0 46s3.6 6 5.6 7.6c1.5 1.4 6.2 5.3 15 8.2a156.5 156.5 0 0 1 23.6 10.2c0 1.3.8 9.3 2.7 13.2l-1.5-.1c-.2-1.5-1-9.8-2.8-13.9a84 84 0 0 0 2.7 13.9L44 85C44 83.4 43 75.3 41 71.3A86 86 0 0 0 44 85l-1-.1a128.8 128.8 0 0 0-3.2-13.3s.9 9 3 13.2l-1.3-.2c-.3-1.5-1.5-9.3-3.5-13 0 0 1.9 10 3.4 13l-1.2-.3c-.3-1.5-1.5-9.3-3.6-13 0 0 2 10 3.4 13l-1-.3c-.4-1.5-1.9-9.2-4-13 0 0 2.2 10 3.8 13l-1.1-.4A124.3 124.3 0 0 0 33.8 71s1.4 8.6 3.8 12.5a21 21 0 0 1-1.3-.5A52 52 0 0 0 32 70.2s2.6 10 4.3 12.8l-1-.5A116 116 0 0 0 30.4 70s2 9 4.7 12.3l-1.2-.7a116.5 116.5 0 0 0-5.4-11.4s2.4 7.8 5.2 11.3l-1-.7a68 68 0 0 0-6-10 65.2 65.2 0 0 0 5.8 9.8 12 12 0 0 1-.8-.8 42.7 42.7 0 0 0-6.3-7.7s4 6 6.2 7.8c1.1 1.5 5 5.2 17.2 6a32.2 32.2 0 0 1 13.9 4c5.7 3.2 9.5 8 10.7 12.5l.3.6a2 2 0 0 1 .8-.1l7-.3h7a2 2 0 0 1 .3.2h.3l-.1-.2.3-.3-.2.1.8-1.2.4-.4-.3.2a26.6 26.6 0 0 1 1.4-1.6H91c8.8-11 27.3-16.2 33.1-17.7a26 26 0 0 0 9.8-4.4c1.3-.9 3.8-4.5 3.8-4.5a24.4 24.4 0 0 0-3.7 4.3l-.6.4-.7.4c1.7-1.8 3.4-6.5 3.4-6.5a70.7 70.7 0 0 0-3.4 6.5l-.5.3c1.5-1.9 2.8-6.8 2.8-6.8a64.7 64.7 0 0 0-3 7l-.5.2c1-1.6 2.6-7.1 2.6-7.1-1.4 2-2.5 6.4-2.7 7.2l-.8.4c1.4-2.2 2.4-7 2.4-7a71.1 71.1 0 0 0-2.4 7l-.7.3c1-1.6 2.4-7.2 2.4-7.2-1.3 2-2.3 6.4-2.5 7.3l-.7.3c1-1.7 2.2-7.4 2.2-7.4-1.3 2.1-2.1 6.6-2.2 7.4-.3 0-.6.2-.8.3.9-1.6 2.1-7.4 2.1-7.4-1.2 2.2-2 6.7-2.2 7.4l-.8.3c1.3-2.4 2-7.7 2-7.7a74.3 74.3 0 0 0-2 7.7l-.7.2c.9-1.8 2-7.7 2-7.7a30.4 30.4 0 0 0-2 7.7l-.7.2c.8-1.9 1.7-7.7 1.7-7.7a30.1 30.1 0 0 0-1.8 7.7l-.8.3c1.2-2.5 1.5-7.7 1.5-7.7a75 75 0 0 0-1.6 7.7l-.5.1a54.5 54.5 0 0 0 1.4-7.5c-1 2.1-1.4 6.2-1.6 7.5l-.6.2a51.5 51.5 0 0 0 1.2-7.7 30 30 0 0 0-1.3 7.7l-.8.3A50 50 0 0 0 124 74c-1 2.3-1.3 6.8-1.3 7.8l-.8.2c1-2.7 1-8 1-8a75.6 75.6 0 0 0-1 8l-1 .3c.7-1.9 1.2-8.2 1.2-8.2-1 2.5-1.3 7.3-1.3 8.3-.4 0-.7.2-1.1.3.8-1.8 1.6-8.2 1.6-8.2a32 32 0 0 0-1.7 8.2l-.8.3c.7-1.9 1.5-7.7 1.5-7.7-1 2.2-1.5 6.7-1.6 7.8l-.9.2c.8-1.8 1.3-7.8 1.3-7.8-1 2.3-1.3 7-1.3 7.8l-.9.3c.7-1.8 1.3-7.8 1.3-7.8-1 2.3-1.3 7-1.3 7.8l-1 .3c1.1-2.6 1.1-8 1.1-8a77 77 0 0 0-1 8l-1 .3c.8-1.9 1.4-8.2 1.4-8.2-1 2.4-1.3 7.3-1.4 8.2l-1 .4c.8-1.9 1.6-8.2 1.6-8.2a32 32 0 0 0-1.6 8.2l-1 .3c.9-1.9 1.6-8.1 1.6-8.1-1 2.4-1.5 7.1-1.6 8.1l-.9.4c.8-2 1.5-7.8 1.5-7.8a30 30 0 0 0-1.6 7.8l-.8.3c.7-2 1.3-7.8 1.3-7.8a30 30 0 0 0-1.4 7.8l-.8.4c.7-2 1.2-7.8 1.2-7.8-1 2.3-1.3 6.7-1.3 7.8l-.9.4c1-2.7 1-8 1-8a76.3 76.3 0 0 0-1 8l-1 .4c.8-2 1.3-8.2 1.3-8.2-1 2.4-1.3 7.2-1.3 8.2l-1 .5a55.4 55.4 0 0 0 1.5-8c-1 2.3-1.5 6.8-1.6 8l-.8.4a55.9 55.9 0 0 0 1.4-7.4c-1 2.1-1.4 6.1-1.6 7.5l-.7.3a46.7 46.7 0 0 0 1.1-7c-.9 2-1.2 6.1-1.2 7.1l-.9.5a49.4 49.4 0 0 0 1.4-7.3c-1 2.1-1.4 6.3-1.5 7.3l-.8.4a48.2 48.2 0 0 0 1.2-7.3c-1 2.1-1.2 6.4-1.3 7.4l-.8.4a45 45 0 0 0 1-6.8c-.8 2-1 6-1.1 6.9l-.7.4a27.6 27.6 0 0 0 .8-6.7 64.1 64.1 0 0 0-1 6.8l-.7.4a49.5 49.5 0 0 0 1-6.8 26.7 26.7 0 0 0-1.2 7l-.6.3a49.8 49.8 0 0 0 .8-6.5 25.4 25.4 0 0 0-1 6.6l-.6.4a46.6 46.6 0 0 0 .6-6 23.5 23.5 0 0 0-.8 6l-.5.4h-.1a41.5 41.5 0 0 0 .6-5.9 23.1 23.1 0 0 0-.7 6l-.6.4a41.2 41.2 0 0 0 .6-6 23 23 0 0 0-.7 6.1l-.6.4a39.1 39.1 0 0 0 .4-6 23.4 23.4 0 0 0-.5 6l-.7.6a35.1 35.1 0 0 0 .5-5.8 22.2 22.2 0 0 0-.5 5.8l-.5.4a22.8 22.8 0 0 0 .1-5.5 52 52 0 0 0-.2 5.6l-.7.5a37.7 37.7 0 0 0 .4-5.3 20.8 20.8 0 0 0-.5 5.4l-.5.4a39 39 0 0 0 .2-5 19.5 19.5 0 0 0-.3 5.1l-.5.5a38.9 38.9 0 0 0 .1-4.3 17 17 0 0 0-.2 4.4l-.4.4a34.4 34.4 0 0 0 0-4.1 16.1 16.1 0 0 0-.2 4.2l-.3.4a19.2 19.2 0 0 0-.1-4 38 38 0 0 0 0 4.1l-.5.5a32.6 32.6 0 0 0 0-4 15.6 15.6 0 0 0 0 4l-.4.5a32.3 32.3 0 0 0 0-3.8 14.8 14.8 0 0 0-.1 3.9l-.4.4a35.3 35.3 0 0 0-.1-3.6 9.1 9.1 0 0 0-.1 2.1l-.3.1v-1l.2-.2H91v-.3l-.2.4-.4.2V96v.1L88 97.1l.2-.6a15.9 15.9 0 0 0 2.8-2s-1.1.5-2.5 1.3v-.4a15 15 0 0 0 2.6-1.6s-1 .4-2.2 1c0-.2 0-.3.2-.5A13.1 13.1 0 0 0 91 93s-.7.3-1.7.7l.4-.8a10.9 10.9 0 0 0 1.2-.8s-.3.1-1 .4l.6-1a13.4 13.4 0 0 0 1.5-1s-.4.1-1.1.4l.6-1 .8-.5-.5.2v-.1a4.8 4.8 0 0 0 .6-.2s-.1 0-.4 0l.3-.4a9 9 0 0 0 1.7-.3s-.6 0-1.5 0l.4-.4a12.5 12.5 0 0 0 2.5-.4s-1 0-2.2 0l.3-.4a11.7 11.7 0 0 0 2.3-.3s-.8 0-2 0l.5-.6a10.8 10.8 0 0 0 1.8-.2s-.6 0-1.5 0c0-.2.2-.4.3-.5a12.3 12.3 0 0 0 2.3-.3s-.8 0-1.9 0l.5-.6a10.2 10.2 0 0 0 1.6-.3s-.5 0-1.2 0l.9-.8.5-.2h-.4l.6-.4.6-.2H98l2.6-2a44.7 44.7 0 0 1 18.8-7.2c16.6-2.5 21.6-8 23-10.1 2.9-3 7.6-11.6 7.6-11.6a59 59 0 0 0-7.8 11.3ZM91.2 97l.2 1.6-.3.2v-1.6l.2-.2Zm-.4-1v1l-.2.2-.1-.9.3-.2Zm14.8-23.7h-.6l.1-1 .6-.2v1.2Zm-3.7-2.7V69l1-.3v.8l-1 .1Zm.8.6v1h-.9v-.8l1-.2Zm-9 0 .3-.1h-.3l.2-1a76.9 76.9 0 0 0 9.4-2l-.2.8a61.2 61.2 0 0 0-9.3 2.3Zm6.8 1.1v-.6l1-.2-.2.7-.8.1Zm.6.8v.5h-.6v-.4l.6-.1Zm-.5-2.3v-.3l-.1.4a40 40 0 0 0-7.2 1.6l.3-1a80.3 80.3 0 0 0 8.2-1.5l-.2.7-1 .1Zm-1.7 3v-.5h1v.3l-1 .1Zm.8.7v.3h-.9v-.2l1-.1Zm-.8-2v-.6l1.3-.2-.1.7-1.2.1ZM93 72.5l.2-.5 1-.5-1 .2.1-.2 5.4-.6-.1.6a29.8 29.8 0 0 0-5.6 1Zm5.4-.2v.4h-1v-.3l1-.1Zm-.5 7.9v.3h-.8v-.3h.8Zm-.7-.6v-.4h.7v.4h-.7ZM98 81v.5h-1V81h1Zm0-2.4h-.8v-.4h.8v.4Zm-.9-5.8a27.4 27.4 0 0 0-4.3.7l.2-.9c.6 0 2.2 0 4.2-.2v.4Zm-7.3 5.3h-.1l.7-.7.6.2-.3 1a8.5 8.5 0 0 0-.7-.4l.4-.3-.6.2Zm-1.5-.8.4-.3.2-.1.8.2-1 .4-.4-.2Zm1.1 2 .5.1-.6.4H89l-.4-.1.8-.4Zm-2 20.7c.7-.4 1.5-.7 2.2-1.2v.6l-2.3 1v-.4Zm-.1-3.6-1.4.8.2-.5 1.3-.7-.1.4Zm.2 3V99l2-1v.5l-2 1ZM86.3 96v-.4l1.5-.7-.1.4-1.4.7Zm-14.7-8.4v-.2.2H71v-.4l1.7.1.2.4h-1.3Zm.7 1-.1.5h-.5v-.6h.6Zm-2-2.4v-.5l1.8.2.2.5-2-.2Zm.4 2.2-.1.7H70v-.7h.6Zm-2-5.5H68a7.7 7.7 0 0 0-.1-1l2.4.6.4.7-1.9-.3Zm-.2 4.7.1-.7h.5v.7h-.6Zm.5.6v.9h-.5V88.2h.5Zm-.3-2v-.7h.5v.7h-.5ZM67 86v-1l.5.2v.8H67Zm.4.6v.9h-.2l-.2-1h.4Zm-.8-1.3v.6H66V85l.6.2V85.4Zm0 2c-.2 0-.3-.2-.5-.3v-.7l.4.1v1Zm-1-3h-.5v-1.6l.5.1v1.5Zm0 1.6h-.5l-.1-.7v-.6l.6.1V86Zm-.4-3.5V81l.5.2v1.2h-.5Zm0-1.8v-1.2l.6.2v1h-.6Zm0-1.8-.2-1.3 2.6 1 .6.8.1.2-2.3-.5v-.5l-.1.4-.8-.1Zm-.5 3.7V84l-.3-.8v1.2a101.3 101.3 0 0 1 .1.1l.1 1-.6-.6-.1-.5.2-3.7.6.2v1.5h-.6l.6.2Zm-1.1-2.1V83a9 9 0 0 0-.4-1s0 1 .2 2.4l-.5-.5a53.3 53.3 0 0 0 .3-5.3l.5.2a47.2 47.2 0 0 0-.2 1.6Zm-.4-2v-1.7l.7.3-.2 1.5h-.5Zm.9 2V79l.7.3-.1 1.3h-.6Zm0-1.8v-1.4c.3 0 .5.2.8.3l-.1 1.2-.7-.1Zm0-2V76l-.1.8-.9-.2a12 12 0 0 0-.2-1.8s0 .7-.1 1.7l-.6-.1c.2 0 .4.2.5.3a39.8 39.8 0 0 0 .1 7.3l-.2-.2a13 13 0 0 0-.7-2 35.2 35.2 0 0 0 0-8 24.7 24.7 0 0 0 3.4 2l1.5 1.7-2.7-.7Zm-2 6.5L62 83l.1-1.3.2 1.5Zm-.6-14 .5-1.6 1 .7-.2 1.5-1.3-.5Zm1.2 1.2v1l-1.5-1.2.2-.8 1.3 1Zm3.1-14.2.4.4-.3 1-1.4-1.2.2-1.5.6.7-.5-.2 1 .8Zm8.1-5.7-.1.8-.9-.7.2-.8.8.7Zm-.6-2 .1-.5.8.8v.5l-.9-.8Zm.6 6.1.6.4-.2.8-.6-.4.2-.8Zm16.8 17.7.1-.1-.1.1-.7-.5.6-.2 1 .5-.9.2Zm.2.7.7.3-.8.2-.6-.3.7-.2Zm-.4-2-.7-.6.6-.3 1 .6-.9.2Zm-1.4 4.2-.6-.3.8-.3.8.3-1 .3Zm1.2.1.3-.1.9.3-1.2.3s-.2 0-.3-.2l.3-.3ZM79.3 93h-.7l.5-.9 1.5-.2.4 1.3a11.4 11.4 0 0 0-1.5-.2l.5-1-.7 1Zm-6.7-12.7v.2c-.4 0-.8-.2-1.1-.3l.2-.4 1 .2v.1h-.5l.4.2ZM66 69l.2-.8.7.3-.2.8a50 50 0 0 0-.7-.3Zm.4 1.4-.1.8-.9-.3.3-1 .7.5Zm.1-8-1-.7.2-1 .7.4.4.3-.3 1Zm-.3 1.2-.2.8-1-.7.2-1 1 .9Zm-.4 1.8-.2.9-1.1-.7.2-1 1 .8Zm-.4 1.9-.3 1.3-1.3-.7.4-1.4 1.2.8Zm-.5 2.2-.2 1-1.4-.6.3-1.2 1.3.8Zm0 3.1.3-.9.9.5-.2.8-1-.4Zm.9 1.4v.5a40 40 0 0 0-1-1l1 .5Zm.4.2 1.1.5-.1.7-1-.4-.2-.2.2-.6Zm.3-1 .2-.7 1 .5h-.3l.3.1-.2.6-1-.4Zm7.3-9.1.1.8-.3-.1-1-1 1.2.3Zm0-4.6-.3-1.2.3.2v1ZM80 87l-.1-.5h1l-.6.5H80Zm0 2.8c.2.3.2.7.3 1a9.9 9.9 0 0 0-1.3-.2c0-.3.2-.5.3-.7h.8Zm-.2-3.7-.1-.5h.6l-.5.5Zm0 2.9.2.4h-.5V89l-.1.2h-.8l.1-.5 1.1.2Zm-.6-5 .2-.3 1.2.1-.6.5-.7-.1V84Zm.3-.7H79l-.1-.4h.8c0 .2-.2.3-.3.4Zm-.7-.9.5-.4H81l-.8.7a23 23 0 0 0-1.3-.3Zm.6-.9h-.8V81h1.1c0 .2-.2.3-.3.4Zm-.5-.9.5-.4h1.3l-.6.6-1.2-.2Zm.3-.8-.7-.1v-.3.3h-.2l.5-.5h1l-.6.6Zm-2-10.3.8.1-.3.5-.9-.2.3-.4Zm-.4-.8-.6-.2.3-.6.6.2-.3.6Zm.7.1.4-.6.7.2-.3.7-.8-.3Zm1.2 2.1-.3.5-.5-.1.3-.4h.5Zm-.6 1-.3.7-.7-.2.3-.5h.7Zm0 1.3 1 .1-.5.7-1-.2c.2-.1.4-.3.5-.6Zm1 1.3h.8l-.6.8-.8-.1.5-.7Zm-.6-1.8.5-.7h.8c-.1.4-.3.6-.5.9l-.8-.2Zm.4-2.3h-.4l.4-.7.4.1-.4.6Zm0-2.5-.7-.2.3-.6.7.2-.3.6Zm-1-1.6-.4-.2.3-.7.5.1-.4.8Zm-.1-3.1-.5-.3.2-.5.5.2-.2.6Zm-.3.5c0 .3-.2.5-.3.8l-.6-.3.4-.6.5.1Zm-.5 1.4-.3.8-.7-.3.3-.7.7.2Zm-.6 1.5-.1.4-1-.2.3-.4.8.2Zm-1 1 .6.2-.2.6h-.2l-.2-.7Zm0 4.1-.1.5-1-.2v-.4l1.2.1Zm.4-2.4h.7l-.1.5h-.5l-.1-.5Zm.1 7.6h.8l.1.5h-1l.1-.5Zm.8-4.5h-.3v-.6h.5l-.2.6Zm-.5-1.4.2-.4 1 .2-.2.4-1-.2Zm1 3.5h1l-.3.6h-.8l-.1-.3.2-.3Zm.4 1.7.4-.4h1l-.5.7a38.5 38.5 0 0 0-1-.3Zm2.4.9-.5.5-1.2-.1.4-.4H80Zm-.8 1-.5.6-.8-.1-.1-.5h1.4Zm0 .7.9-.8h.8l-.9.9-.7-.1Zm0-2.2.7-.9h1v.4l-.7.7-1-.2Zm1-1.2.6-.6v.8a9 9 0 0 0-.6-.2Zm-.1-1.2-.7-.1.6-.7h.7l-.6.8Zm.3-2.9-.4.5-.7-.2.4-.6.8.1-.1.2Zm-.9-1.8-.3-.2.5-.7h.3l-.5.9Zm0-2.5-.7-.3.5-1 .7.2-.6 1Zm-1-2c-.1 0-.3 0-.4-.2l.4-.7.4.1-.4.8Zm-.3-3-.4-.2.4-1 .5.3-.5 1Zm-.1-3.5-.9-.6.3-.8 1 .6-.4.8Zm-.9-4.2-.2-.2.2-1c0 .2.2.2.3.3l-.3 1Zm-.2 4.3.9.4-.3.7-.8-.5.2-.6Zm.3 1.8-.4.9-.6-.4.3-.9.7.4Zm-.6 1.6-.2.5-.7-.2.2-.6.7.3ZM76 49l-.6-.5.1-.8.7.6-.2.8Zm-.3 1.1-.1.5-.5-.5v-.5l.6.5Zm.5 13.2-.2.7-.7-.3.3-.6.6.2Zm-.5 1.5-.2.6-.6-.1V65l.1-.4.7.2Zm-.8-1.2-.3-.1-.1-.6v-.2l.5.2-.1.7Zm-.3 4.2.1.4-1.5-.4.1-.6c.3 0 .5 0 .8.2l.5.4Zm-.9 15.4 1 .2v.4H74l-.5-.1.1-.5Zm0-16.9-.7-.7 1.3.4v.5l-.6-.2Zm-.6.8c0 .1 0 .3-.2.5l-.8-.8 1 .3Zm-2.7.2.1-.5.9.6-1-.1Zm.8 5.6v.4h-.5l-.2-.1.2-.5.5.2ZM70 63l.8.2v.4l-.8-.7Zm1.1 1v-.5l1.5 1.1-1-.3-.5-.4Zm.4 5.9.7.1-.2.5-.6-.4v-.2Zm.6 8.7 1 .2-.2.5-.9-.3.1-.4Zm-.8-16.2v-.5l-.1.4-1.6-1.4v-.1l1.3.6 1.7 1.5-1.3-.5Zm0-2-1.9-1.8 1.6.8 1.5 1.6-1.3-.5Zm-1 4.4-.2.6-1-.9v-.1l1.2.4Zm-1.4 7.7.2-.5.8.4-.2.5-.8-.4Zm.5 1.5-.1.6-1-.4.2-.6 1 .4Zm0-3v-.2l.9.2-.1.3-.8-.4Zm-.1-5 .5.4-.2.5-1-.6.1-.5.6.2Zm-.3 1.8.3.2-.2.6-.9-.6.1-.4.7.2Zm-.2 2-.1.3-1-.1.2-.8.9.5Zm-.6 1.7h-.9l.9.2-.1.5-1-.4.3-.8.8.5Zm.4 5.6-.1.8-1-1.2 1.1.4Zm-.8-1.4.2-.5 1 .4-.1.5-1.1-.4Zm1.4 1.6.8.3-.2.7-.9-.2c0-.3.2-.5.3-.8Zm.3-1 .1-.3.7.2v.4l-.8-.2Zm.5-1.4.2-.6.6.3-.1.3H70Zm.5 3.3.9.3v.3l-1-.3.1-.3Zm.5-1.3.1-.4.8.3-.1.4c-.3 0-.6-.2-.8-.3Zm1.8 4.8.7.2-.1.4-.8-.1.2-.5Zm1.3 3h-.5l.8.3-.2.4L73 85l.2-.6 1 .2Zm.2 7.1h-.8v-.4h.7l.1.4Zm.3.8v.5h-1.3l.1-.4h1.2Zm.2 1.1.1.4-1.7.1v-.5h1.6Zm0-4.4h-.1l-.3-.6h.7l-.3.6Zm.2-6.6-1-.2.2-.4 1 .3-.2.3Zm-.4-1.5v-.4l1 .1v.3h-1Zm.8 2.8.1-.4.9.1-.2.3h-.8Zm.7 4.7-.3.6H75l.4-.6h.6Zm.2-5.7h-.5l.1-.5 1 .2-.2.4h-.4Zm.3-2.5V80l1 .1v.4l-1-.1Zm.9 2.3a33 33 0 0 0 .7.2l-.1.2h-.8l.2-.4Zm.4 6h.5c0 .2-.2.4-.3.5a5 5 0 0 1-.1 0h.1v.2h-.6l.4-.7Zm.3 1.2h.8l-.4.6h-.7l.3-.6Zm.5 1h.8l-.5.8h-.6l.3-.7Zm.6.8.3-.8h.7l.3 1a8.2 8.2 0 0 0-1.3-.2Zm1-3.9-.2-.5 1.3.1-.7.5h-.5Zm.4-.7.7-.4v.6a7.5 7.5 0 0 0-.7-.2Zm0-1.7-1.2-.2V85l.6-.4a63.9 63.9 0 0 0 1.2.2l-.7.6Zm-.1-1 .7-.5v.6a8 8 0 0 0-.7-.1Zm.2-.8-.9-.2.5-.4.9.1v.1l-.5.4Zm.2-1.7a11.2 11.2 0 0 0-1.1-.3l.6-.4h.7v.5l-.2.2ZM81 80l-1-.2.7-.6h.5v.6l-.2.2Zm-.5-2.3.5-.6v.7l-.5-.1Zm.4-11.2.7-1 .2.3-.6.9-.3-.2Zm.6-3a9.5 9.5 0 0 0-.8.8v-1.2l1.6-1.1-.8 1.5Zm1.2 3 .5.3-.8.5h-.1l.4-.8Zm.4-.4 1-.6.4.3-.1.3-.7.4-.6-.4Zm-.3-6.2 1.2-1 .2.3-.2.4-.8.6-.4-.3Zm1.2 4.8-.1-.1c0-.3.2-.5.4-.7l.4.3-.7.5Zm.4-3.6-.4-.3.2-.3.7-.5.4.4-1 .7Zm6-6 .7 1.2-.7.4-.7-.9.6-.6Zm-.2-2 .3-.3.5.8-.3.2-.5-.7Zm1.2 3.7.7 1-.6.4-.6-.9.5-.5Zm-.3-2.4.2-.2.9 1.4-.3.1-.8-1.3Zm-1.6 10.7-.6-.6.6-.3.7.6-.7.3Zm.5 1.3-.7.3c-.2 0-.3-.2-.4-.3l.6-.3.5.3Zm-1.7-4.4-.5-.4.6-.4.5.5-.6.3Zm.7.7.5-.4.6.6c-.2 0-.3.2-.5.3l-.6-.5Zm1.7 4.3.6.4-.8.3-.4-.4.6-.3Zm0-.9a92 92 0 0 0-.5-.4l.7-.4.6.5-.7.3Zm-.5-2.4c.2 0 .3-.2.5-.3l.8.8-.5.2-.8-.7Zm1.8 2.6.8.6-.8.3-.6-.6.6-.3Zm-.5-1.4.5-.2.7.6-.6.2a48 48 0 0 0-.6-.6Zm-.1-2 .7-.4 1 1-1 .4-.7-1Zm-.5-.4-.6-.7.7-.5.7.8c-.3 0-.5.2-.8.4Zm.4-2.2-.6-.8c.2 0 .3-.2.4-.3l.7.8-.5.3ZM90 58.1l.6.7-.5.3-.5-.7.4-.3Zm-.2 2.1.6.7-.8.4-.5-.5.7-.6Zm-1-1.2.5.6-.8.5-.5-.5.8-.6Zm-.4-2 .5-.4.6.8-.5.3-.6-.7Zm-.7.7.5.6-.9.6-.5-.5.9-.7Zm-.3-1.8.6-.6.3.5-.5.5-.4-.4Zm-1.3 1.8-.4-.3 1-1 .4.4-1 .9Zm0 1.2.2.2-.6.9-.4-.3.9-.8Zm-1.2-.1.2-.9h.2l.2.3-.6.6Zm.6 4.3.5.4-.8.4-.5-.3.8-.5Zm1 3.4-.5-.3.5-.3.4.3-.4.3Zm.3 8.3-.7.3-.4-.2.5-.4.6.3Zm-.3-10-.2-.1c0-.2.2-.3.3-.5h.1l.5.3-.7.4Zm.3-1.8-.6-.3.8-.5.2.2c0 .2-.2.4-.4.6Zm.2-2c-.2 0-.3-.2-.5-.3l.8-.5.4.4-.7.5Zm1.2 2.3.5.4-.7.3-.5-.4.7-.3Zm.4 2.3-.7.3c0-.3.2-.4.3-.6l.4.3Zm-.6 7 .6.4-.7.1h-.2c0-.2.2-.3.3-.4Zm.5-3.1.6-.3.7.4-.7.3-.6-.4Zm.3 2.8.5-.2.8.4-.6.2-.7-.4ZM90 69l.5-.3.7.5-.6.2-.6-.4Zm1.1-.6.8-.4 1 .7-1 .3-.8-.6Zm2 .4.3.2-.3 1.3a10.6 10.6 0 0 0-.9-1l1-.5Zm0-.2-.7-.8.8-.5.5.4-.2.7-.4.2Zm.3-1.4.5-.4c0 .3 0 .5-.2.8l-.3-.4Zm-.2-.3-.7-.7.6-.3.9.8-.8.2Zm-.7-2.4.8-.5.9 1-1 .3-.7-.8Zm.2-2.3.4-.4 1.2 1.4-.8.3a35 35 0 0 0-.8-1.3Zm-.3-.3-.7-1 .4-.2.8 1-.5.2Zm-.6-3 .6-.5.7 1.1-.6.3a77 77 0 0 0-.7-1Zm.4-2.5.2-.3.8 1.3-.3.2a72 72 0 0 0-.7-1.2Zm-.2-2.8.5-.5 1 1.8-.6.3-.9-1.6Zm-.2-.4-.6-1 .5-.6.6 1.2-.5.4Zm-1-1.6a96 96 0 0 0-.6-1l.6-.7.6 1.2-.6.5Zm-1-1.6-.6-1 .8-1 .5 1.3-.7.7ZM90 52l-.4.3-.5-.7.4-.5.5 1Zm-.6 1.8.4.7-.7.6-.4-.5.7-.8Zm-1-1.5.5.7-.9.8-.4-.6.9-1Zm-.3-2.3.5-.6.5 1c-.2 0-.3.2-.5.4L88 50Zm-1.2 2.4-.4-.6 1-1.2.5.8-1 1Zm.1 1.3.4.6-.7.7-.4-.5.7-.8Zm-1.4 0-.4-.4 1-1 .3.5-1 .9Zm.2 1.3.3.5-1.1 1c-.2 0-.3-.2-.4-.4l1.2-1.1ZM84.6 57l-1.2 1.1-.3-.3.1-.3 1-1 .4.5Zm-1.3 1.3-.7.7.4-1 .3.3Zm-.4 2.2-1 1h-.1v.1l-.8.9.9-1.8.7-.6c0 .2.2.3.3.4Zm-2.6 1-.1-1.2q0-.2.2-.3l1.5-1.4-1.6 3Zm.1 8.5v1l-.5-.3.5-.7Zm-1-4.5.5-.9.1 1.2a8 8 0 0 0-.6-.3Zm-.3-1.6-.4-.3.3-.6.4.2-.3.7Zm-.3-3.2a21 21 0 0 0-.4-.4l.3-.8.5.3-.4.9Zm-.2-3.4-1-1 .2-.6 1.2.8-.4.8Zm-1-4.5a20 20 0 0 0-.3-.4l.1-.7.5.4-.2.7Zm-.6-4.6.1-.9.6.7-.3.9-.4-.7Zm.3 1.2-.3 1a38 38 0 0 0-.3-.4l.2-1 .4.4Zm-.5-3.5-.8-1.3v-.4l1 1.2-.2.5Zm-.2.8-.2.8a50 50 0 0 0-.7-.8l.1-1 .8 1Zm-.8-4.3a84 84 0 0 0-1.1-2l1.2 1.6-.1.4Zm-.3 1v.4l-1-1.5V42l1 1.5Zm-.3 1.5-.2 1-1-1.1.2-1.1 1 1.2Zm.1 6.7c0 .3 0 .6-.2.8l-.4-.4.1-.8.5.4Zm-.5 7.5-.2 1-.3-.3.2-.9.3.2Zm-.6-2.2v.6l-.9-.5.2-.5.7.4Zm-.7 5.4.2.8h-.2l-.9-1.1 1 .3Zm-.3-1.1a18 18 0 0 0-.7-1l.7.2.1.8Zm-1.4-3.8 1 .5.1 1.3-1.1-1.8Zm.7-7.2-.4-.4-.1-.5.1-.5.5.4-.1 1Zm0 6.3-.9-1.3.8.5v.8Zm-.3 2.3-1-.5-2.3-2.8.9.7 2.4 2.6ZM69 57.3l-.7-.3v-.5l.7.8Zm0 2.3-1-.4.1-.5 1 .9Zm-.2 1.8v.2l-.5-.2-.5-.4.1-.4 1 .8Zm-.4 1.5-.1.4-.9-.2.2-.8.8.6Zm-1-4-1-1 .1-.9 1.2 1.2-.2.7Zm-.2 1-.1.5-1-.9v-.6l1 1Zm-1.6-1.6c-.4 0-.6-.2-.6-.2l.5.4-.1.5-1.1-1 .1-1 1.2 1.3Zm-.5 1.7-.4 1.2-1-.6.4-1.6 1 1Zm-.7 2.1-.3 1.1-.8-.5.3-1.3.8.7Zm-.5 2-.3 1a77 77 0 0 0-.8-.4l.3-1.3.8.7Zm-.5 1.9-.3 1.7-1-.5.5-1.9.8.7Zm-.3 4.6 1.5.9-.1 1c-.4 0-.8-.2-1.1-.4l-.6-.5.3-1Zm3 13.9V83l.6.2v1.2h-.6Zm0-1.9v-1.1l.8.2-.1 1-.6-.1Zm0-1.7v-1.1l3 .9.5.8L67 81v-.3.3l-.8-.1Zm1.7 1-.1.9h-.6v-1l.7.1Zm-.7 2.6v-1.1l.5.1v1h-.5Zm.5 3.6h.4v1l-.4-.5v-.5Zm2.2-8.2.2-.6 1 .3-.2.5-1-.2Zm1.2 1.2 1.2.3-.2.6-1-.3-.1-.2.1-.4Zm1.2 1.8.8.2-.1.5-1-.2.3-.5Zm-1.4 6.9h.4l-.1.8h-.4v-.8Zm1.5-1.3h.8l.3.6h-1.2v-.6Zm1.4 1.4.1.6h-.4V90l-.1.4h-.5v-.6h.9Zm-.7 4.8h2v.3l-2 .1v-.4Zm0 .8 2.2.2v.3l-2.1.1v-.6Zm2.3 1v.5h-1.7a47 47 0 0 0-.4-.7 17 17 0 0 0 2.1.2Zm.1 1v.2h-1.3l-.4-.5a16.3 16.3 0 0 0 1.7.2Zm.1.6v.4h-1l-.3-.5 1.3.1Zm0-7.7.2-.4h.8l-.3.4h-.7Zm.8.8h.6l-.3.5H76l.3-.5Zm.5-2h-.6l.4-.6h.7l-.5.7Zm.7 1.9h.7c-.2.1-.3.3-.4.6h-.7l.4-.6Zm.5 1.1h.6l-.5.7h-.6l.5-.7Zm.5 2.3.7-.1-.4.6h-.6l.3-.5Zm.4-.6.2-.5h.7l-.3.5H79Zm1-.5 1-.1.2.7a13 13 0 0 0-1.4-.1l.2-.5Zm1-2.8.5-.1v1l-.2.2-.3-1Zm0 0-.2-.8h.7v.4l-.5.4Zm-.3-1 .8-.4v.5a7.3 7.3 0 0 0-.8-.1Zm.6-.7-.8-.1-.1-.5.3-.1h.7v.7Zm-.2-19.2v-.6l.1-.3.6.4-.7.5Zm.3-1.2v-.1l1-.4s.1.2.3.2l-.5.7-.8-.4Zm.8 4.7.7-.2.6.3-.2.2-.6.2-.7-.2.2-.3Zm.7 2.2c.2 0 .3.2.5.3l-.5.4-.6-.2.6-.5Zm-.4 2.3.6-.1.4.2-.4.4-.8-.3.2-.2Zm.5-5.3.5-.7.5.2-1 .5Zm1.4 1.3.7.3-.8.3H84l.4-.6Zm.4-2.1-.8-.4.7-.2.7.3-.6.3Zm.2-4.2-.3-.2.4-.6h.1c.2 0 .4.2.6.4-.3 0-.5.2-.8.4Zm1.1 21.3c.3 0 .5.2.7.3l-.5.2-.7-.3.5-.2Zm.4-1-.2-.2s.2 0 .3-.2l-.5.2-.3-.2.4-.2.8.3c-.2 0-.4.2-.5.3Zm.1 7.2.1-.4 1-.5v.4l-1.1.5Zm.7-7.6-.7-.4.5-.3.9.4-.7.3Zm.5-12.8-.6-.3.8-.2.3.1-.5.4Zm1.8 2.1.8-.4.7.3c-.2 0-.4.3-.8.5a21 21 0 0 0-.7-.4Zm1.5 3.1.5.1v.4l-.8.4.3-.9Zm0-2.2-.5-.3.7-.7-.2 1Zm.2-1.1a8 8 0 0 0-.6-.4l.9-.5-.2.8h-.1ZM91 75l.7-.4-.2.8-.5-.4Zm-.1-.3.4-.5-.7.5-.7-.4c.3 0 .6-.2.8-.3l1 .4-.8.3Zm.2-1 .7-.3.2.1-.2.8a9 9 0 0 0-.7-.5Zm1 2 2.2.2-.1.5a13.6 13.6 0 0 0-2.4.2l.3-.8Zm-.2-2.5-.6-.4.9-.4a77.8 77.8 0 0 0-.3.8Zm0-1.2-.8-.6.9-.4.6.4-.2.5-.5.1Zm0-1.5-.9-.7.6-.3 1.2.8-1 .2Zm11.3 1.1 1-.2-.2.9h-.8v-.7Zm0-.6.1-1 1-.3-.1 1.2h-1Zm.1-1.7v-.8l1.3-.4-.2 1-1 .2Zm.1-1.6V67l1.6-.5-.3 1-1.3.2Zm2.3 3-.6.1.1-1.4.7-.2-.2 1.6Zm.2-1.7h-.7l.1-1.1.9-.4-.3 1.5Zm.3-1.7-.8.1v-1.1l1.1-.4-.3 1.4Zm.8-3.3-.4 1.5-1.1.3v-1.2l1.5-.6Zm-1.5.7-.4 1.1c-3.2.7-8.9 2-11.2 3l.2-1a73.2 73.2 0 0 0 11.4-3.1ZM94 66.4l-.6-.9 1-.6-.4 1.5Zm.4-1.7a13 13 0 0 0-.7-1l.6-.6.4.4-.3 1.2Zm.3-1.3a9 9 0 0 0-.2-.4l.1-.1-1-1.6.3-.3-.4.2-.8-1.2.6-.4 1.7 2.4-.3 1.4Zm.4-1.6a20.9 20.9 0 0 0-1.3-2.7 72 72 0 0 0-.8-1.4l.3-.3 2 3-.2 1.4Zm.3-1.6a33.6 33.6 0 0 0-2.3-4.9l.4-.5 2.3 3.8-.4 1.6ZM96 57l-.2 1.3A41.1 41.1 0 0 0 93 52l.1-.1H93l-.8-1.4.4-.4C94 53.3 95.5 56 96 57Zm-3.5-7-.4.3-.8-1.3.5-.6.7 1.6Zm-.9-2-.5.6-.7-1.4.5-.9.7 1.8ZM90 43.6l.8 2.4-.8.8-.9-1.6.9-1.6Zm-1 1.9.6 1.8-1 1-.7-1.2 1-1.6Zm-1.3 1.9.5 1.3-.7.7-.6-1 .8-1Zm-1 1.4c0 .3.2.7.4 1l-1.3 1.4-.5-.6 1.3-1.8ZM82.4 54l2.7-3.3.4.7-1.1 1.3a161.7 161.7 0 0 0-.2.1l-2.2 2.6.4-1.4Zm2.4-.2.3.5-1.4 1.3.1-.4-.2.4-.2-.3.2.4-.2.3c-1 1-2 2-2.7 3l.7-1.9c1-.8 2.1-2 3.4-3.3ZM81.4 55 80 58.2l-.2-1.3 1.6-1.8Zm-1.8 6.6a141.7 141.7 0 0 1 0 1.3l-.4-.3.4-1Zm-.4-3.5q0 .7.2 1.3l-.1.1a10 10 0 0 0-.5-.4l.4-1Zm-.2-2-1-1.1.2-1c.2 0 .4.2.5.3l.3 1.8Zm-.5-3.5.2 1.4-.4-.5.2-1Zm-.2-1.7-.2.7-.6-.7.2-1.2.5.5v.7Zm-.4-2.7.2 1.6a15 15 0 0 0-.3-.6 22 22 0 0 0 .1-1Zm0-.7h-.1l-.6-1v-.9l.4.5.2 1.4Zm-.4-2-.2-.6v-.8l-.2.5-1-1.7v-.6l1.2 1.5.2 1.6Zm-2.6-7.8 1.8 2.5.4 2.6a69 69 0 0 0-2.3-4l.1-1.1Zm-.9-1.4.8 1.2-.2.8-.7-1 .1-1Zm.7 10.5-.1.7-.8-1V46l1 .9Zm-1.5-11.7.6.9-.2.8-.5-.8.1-1Zm0 7.1.4.5-.3 1.2c0-.2-.2-.3-.3-.4l.2-1.3Zm-.4 9.5.9.7v.4l-1-.7.1-.4Zm.6 2.4v.9l-.5-.3-.2-1.2.7.6Zm-1-11.3-.3-.2.3-1.6.2.3-.3 1.5ZM71 35.3v-.9c.4 1 1 1.8 1.5 2.7v.2l-1.5-2Zm0 1.4 1.2 1.9-.1.4-1-1.3v-1Zm.1 2.5.8 1.1a39 39 0 0 0-.3 1.8l-.5-.5v-2.4Zm.4 6.7.4.4v.8l-.3-.3-.1-.6V46Zm-.3-2v-1l.2.4v.9l-.2-.2Zm-2.3 1.7 1.8 1.9.7.9.1 1-.6-.5a37.9 37.9 0 0 0-2-3.3Zm2.6 5.2.2.2v.4l-.5-.4-.7-1 1 .8Zm-.7 1.3 1.2 1 .1 1.2-1.3-2.2Zm-1.5 1.5 1.8 2.1-1-.5-1.8-2.4 1 .8ZM67 54.9l1.3 1.5-.2.5-.5-.3-.7-.7.1-1Zm-3.4-4.6 1.4 2-.6-.3 1.2 1.1 1.3 1.7-.3.9-1.8-1.7v-1.2l-.2 1-1.1-1.1.1-2.4Zm-.2 2.8 1 1.3-.4 1.4-.9-.7.3-2Zm-.3 2.2.8 1-.3 1.2-.8-.7.3-1.5Zm-.4 2.1.7.8L63 60l-.7-.5.4-2Zm-.5 2.5.6.7-.4 1.5-.7-.4.5-1.8Zm-.6 2 .7.7-.3 1.6-.8-.5.4-1.8Zm-.5 2 .8.7a61 61 0 0 0-.4 2.2l-.8-.3.7.6-.2 2H61h.2v1l-1.6-1.3c.3-.7.9-2.6 1.5-5Zm-10.6-.4a56.4 56.4 0 0 1 10.8 7.8H61c.2 0 .3.2.4.3l2.8 2.8-2.4-.8v-.4.4c-.2 1.5-.5 7.2 0 9.3-.2 0-.2-.1-.3-.2A11.8 11.8 0 0 0 61 81s0 .6.2 1.4l-.3-.2a37 37 0 0 0-.4-9.7s-.3 7 .3 9.5l-.4-.2-.4-1.5c0-2.2.2-6.2-.5-8.6 0 0-.3 7 .2 9.6l-.1-.2-.7-.5-.2-.4c.2-2 .4-6.8-.4-9.5 0 0-.2 5.1 0 8.4a132.2 132.2 0 0 0 0 1.2l-.7-.6c0-2 .1-7.5-.8-10.6a92.8 92.8 0 0 0 .4 9.5 13 13 0 0 0-.6-1.4s.1.8.3 2l-.6-.4c0-1.8 0-7.9-1-11 0 0 .1 7.8.8 10.9l-.1-.1a27 27 0 0 0-.5-2l.1 1.7-.7-.5a101.2 101.2 0 0 0-.6-10.8s-.6 6.8.4 10.6l-.4-.2-.5-1 .2.8-.3-.2c0-1.5 0-7.8-1-11 0 0 0 8.1.8 10.9l-.5-.4a14.4 14.4 0 0 0-.7-1.6s0 .5.2 1.3l-.2-.2c0-1.5 0-8.3-1.2-11.8 0 0 .2 8.8 1 11.7l-1.2-.7a45 45 0 0 0-1.4-11.8s.4 8.5 1.2 11.6l-.1-.3v.3l-1.2-.7c0-1.6 0-8-1-11.5 0 0 0 8.5.9 11.4l-1.2-.7a46 46 0 0 0-1.5-12s.4 8.4 1.2 11.8l-1-.6c-.1-2-.3-8.5-1.5-12.3l5.2 3ZM45 60.3c.1 2 .5 9.3 1.4 12.3l-1.5-.9c0-1.5.1-8-.9-12.1l1 .7ZM43.6 71c0-1.7-.2-8.6-.7-12.2l1 .6c0 2.4.2 9.6 1 12.3l-1.3-.7Zm6.1 14.6c-.1-1-1.3-8.5-3.3-12.1 0 0 1.9 9.6 3.3 12.1l-1.5-.1c-.1-1-1-8.6-3-12.3 0 0 1.6 9.8 3 12.3h-.7l-.5-.1c-.3-1.5-1.6-9.6-2.8-13.3l3.6 2c.4 2 2 9.5 3.2 11.6h-1.3Zm1.3.2c-.1-1-1.2-7.8-3-11.6l1.5 1c.4 2 1.6 8.8 2.7 10.7l-1.2-.1Zm1.2.1c0-.4-.9-7-2.5-10.6l1.1.7c.6 2.5 1.9 8.2 3 10.1l-1.6-.2Zm1.6.3a55.4 55.4 0 0 0-2.5-10l1.4 1c.5 2.8 1.5 7.5 2.4 9.2a40 40 0 0 0-1.3-.2Zm1.4.2a61.4 61.4 0 0 0-1.8-8.8l.8.6a50.7 50.7 0 0 0 2.1 8.5l-1.1-.3Zm1.2.3a53.1 53.1 0 0 0-1.7-8.2l1 .8a30.4 30.4 0 0 0 1.9 7.8l-1.2-.4Zm1.3.4-1.4-7.5.9.7a48.3 48.3 0 0 0 1.8 7.3l-1.3-.5Zm1.5.5a60.6 60.6 0 0 0-1.3-6.7l.6.5A47.5 47.5 0 0 0 60 88l-.8-.4Zm1 .5a56.8 56.8 0 0 0-1-6.2l.9.7a44.9 44.9 0 0 0 1.1 5.9 22 22 0 0 0-1-.4Zm1.2.5a53.1 53.1 0 0 0-.7-5.5l.7.6a45 45 0 0 0 1 5.3l-1-.4Zm1.2.6a48.4 48.4 0 0 0-.7-5l.5.4a41.7 41.7 0 0 0 1 5l-.8-.4Zm1 .6c0-1-.2-2.8-.6-4.6l.7.6a35 35 0 0 0 .7 4.5l-.8-.5Zm1 .6c0-.8 0-2.4-.3-4l.6.6a29.6 29.6 0 0 0 .7 4l-1-.6Zm1.2.8-.3-3.7.4.5a21 21 0 0 0 .6 3.7l-.7-.5Zm1.4 1c-.2 0-.3-.2-.5-.3l-.3-3.3.5.5h-.4l.5.1v.1l.3 1.5c0 .6.2 1 .3 1.4a24.4 24.4 0 0 1 0 .1v.4c0-.2-.2-.3-.4-.4Zm.4-2.3.5.6v.2h-.4V90Zm.2 2.3V91l.3.1v1.2h-.3Zm.2-7.6v-1l.6.1-.1 1H68Zm.4 8.7v-.8h.4a11.4 11.4 0 0 0 0 1.2l-.4-.4Zm.4-1.2h-.3v-1c.2 0 .2.2.3.3v.7Zm.5 2.1a24 24 0 0 0-.4-.4l.2-1.3h.2a12.4 12.4 0 0 0 0 1.7Zm0-9.5h-.5v-1l2.5.5c0 .3.2.5.3.8l-2.1-.3a7.2 7.2 0 0 0-.1-.8s0 .3-.1.8Zm.8 1-.1.5h-.5v-.6h.6Zm-.2 7.5h-.3.3V95l-.4-.5.1-1.8a1 1 0 0 1 .1 0l.3.3v.3Zm.5 1.2h-.3a27.2 27.2 0 0 0 .2-1l.2.2v.8Zm0-3.8H70l.1-.9h.5v.9ZM71 96l-.4-.4.2-1.2h.3l-.1 1.6Zm-.1-4.1a5 5 0 0 0 0-.6l-.1.6h-.1l.1-.8h.4v.7h-.3Zm.6 4.8-.3-.4.1-1.1h.3l-.1 1.5Zm.1.2.2-1.5.2.3a12.5 12.5 0 0 0-.1 1.6l-.3-.4Zm.4.6.2-1.5.3.5a15.8 15.8 0 0 0-.1 1.6l-.4-.6Zm.5.8.2-1.4.2.3a13.5 13.5 0 0 0-.1 1.6l-.3-.5Zm1.6 3.7a20.5 20.5 0 0 0-1.3-3l.3-1.4a34.6 34.6 0 0 1 1.8 4 5.6 5.6 0 0 0-.8.4Zm.6-3.5 1 .2.1.7h-.6l-.5-1Zm1 1.9-.4-.8.5.1v.7Zm.4-7.6h-.2l-.1-.5h.6l-.3.5Zm.8-.6h.7l-.4.6h-.7l.4-.6Zm4.6 9h-4.6v-.5a38.4 38.4 0 0 0 4.6 0v.5Zm0-1-4.6.1v-.1l.3-.4a41.7 41.7 0 0 0 4.4 0v.4Zm0-.7-4-.1.3-.4 3.8.1v.4Zm0-.7c-1-.2-2.2-.3-3.4-.3l.3-.4 3.2-.1v.8Zm.1-1c-.8-.2-1.8-.2-2.9-.2l.2-.3 2.7-.1v.5Zm0-.9h-2.4c0-.2.2-.4.3-.5l2.1-.2v.7Zm0-.9a18 18 0 0 0-1.9-.1l.3-.5 1.6-.1v.7Zm0-.9a14.5 14.5 0 0 0-1.4-.1l.1-.5s0 .2-.3.4h-.6l.3-.6 1.7-.2.2.8v.2Zm0-19.8a132.8 132.8 0 0 1 0-1l.5.4-.5.6Zm.2 3 .6-.5.6.4-.3.3-.4.2-.4.2v-.6Zm.1 1.8.3-.1.6-.2.4.3-.2.2-.7-.3.5.4-.2.2-.6.3v-.8Zm.2 1.9.2-.2.6-.2.2.2-.6.5-.4-.2Zm.2 4.5 1-.3-1 .6v-.3Zm0 1 .2-.2c.5 0 1.1-.3 1.8-.5l.3.1-.6.4h-.1l-.5.3-1 .5v-.7Zm.1 1.3a85 85 0 0 0 2.3-1h.1a18.4 18.4 0 0 0-2.4 1.1Zm0 .2a29 29 0 0 0 2.2-.7h.2l-2.3 1.3V89Zm0 1c.9-.2 2-.7 3.1-1.1l.6.3a44 44 0 0 0-3.6 1.7v-.9Zm.1 1.3 4.5-1.6v.5a45.2 45.2 0 0 0-4.4 2.2v-1Zm.1 1.4 4.4-1.8-.2.6a40 40 0 0 0-4.2 2v-.8Zm0 1 4-1.4-.2.5a29.7 29.7 0 0 0-3.7 2v-1Zm.1 1.3 3.4-1.3-.2.5a21.5 21.5 0 0 0-3.2 1.7v-.9Zm0 1.2v-.2l3-1.1-.3.5a17.2 17.2 0 0 0-2.5 1.4c0-.2 0-.4-.2-.6Zm.3.7 2.2-.8-.2.5a14.2 14.2 0 0 0-1.8 1l-.2-.7Zm1 2.2-.3.3-.2-.6.8-.4-.2.7Zm-.5-.4-.3-1c.3 0 .9-.3 1.6-.6l-.3.9a8.8 8.8 0 0 0-1 .7Zm2.7 2.3-.6.3-1-.1.1-.1 1.6-.7v.6Zm.2-1.1-1.6.8.3-.8 1.4-.6v.6Zm.3-1.2-1.4.7c0-.2 0-.4.2-.6l1.3-.6-.1.5Zm.3-1.2-1.4.7.2-.5 1.3-.7-.1.5Zm2 4-1 .4a5.3 5.3 0 0 0-.5-.2 30 30 0 0 0 2.2-1.1l-.6.8Zm-1.7-.2v-.4l2.4-1.2v.4l-2.4 1.2Zm2.9-4.9a6 6 0 0 0-.1.8l-.3.1V97a4 4 0 0 0-.1.5l-2 .8.2-.5a23.6 23.6 0 0 0 2.3-1.3Zm-1.2-11.8-.7.3-.4-.2.6-.3.5.2Zm.7-3.4-.2-.2.6-.4-.9.3-.1-.1.5-.4.6.2v.3l-.5.3Zm.2 3 .2-.8.3-.2v.8l-.5.1Zm.4-3.7c-.2 0-.3-.2-.5-.3l.7-.5-.2.8Zm-.7-1.7-.5-.2.6-.3.8.3-.9.2Zm1.1 5v-.6h.4l.1.5-.5.2Zm.5-1.7v-.5a59.2 59.2 0 0 0 .6.2l-.6.3Zm.6-2.7H91l.1-.4c.1 0 .2 0 .3-.2l1 .1v.5h-.8Zm.2 1 .6-.6v.6H92Zm.1 1v-.6h.6v.5H92Zm1.8-.1h-.7V81h.7v.4Zm0-1-.8.1V80l.9.1v.5Zm.1-1h-1v-.3h1v.4Zm0-.8h-1.1a51.5 51.5 0 0 0-.2 0l-1 .2 1-.9-1.2.7.3-1 2.4.4-.1.6Zm.2-1.2a11.8 11.8 0 0 0-2.4.3l.2-1 2.3.2v.5Zm1.2 6.8-.4.4h-.7v-.4l1.1-.1Zm0-.5h-1v-.3h1Zm0-1.5h-.9V82h1v.3Zm0-1.7h-.8V80h.8v.4Zm0-2-.7.1V78h.8v.6Zm.1-1h-.8v-.6h.8v.5Zm0-1.2h-.8V76h.9v.4Zm.1-1h-.9V75l-.1.4a14 14 0 0 0-2.3.4c0-.4.2-.7.3-1.1h3v.6Zm.2-1.3a20.8 20.8 0 0 0-3.2.4l.2-.7h3v.3Zm0 0v-.4H97v.3h-1.2Zm1 2.3h-.8V76h.8v.4Zm0-1.1H96v-.6h1l-.1.6Zm.7 7.1H97v-.5h1l-.5.5Zm.6-4.8h-.7V77h.7v.4Zm0-1.2h-.7V76h.7v.4Zm0-1.2h-.7v-.5h.8v.5Zm.4 6.4h-.1V81l1-.1-.9.6Zm1-.9h-1v-.4h1v.4Zm0-.9h-.9v-.5h.8v.5Zm0-1h-.8v-.4h.8v.4Zm0-1-.7-.1V77h.7v.5Zm0-1.3h-.6v-.6h.7v.6Zm.2-1.3h-.8v-.5h.8v.5Zm0 5.5.2-.5h.7l-.8.5Zm1-.7-.8-.1.1-.7h.8v.8Zm0-1.1h-.6v-.5h.7v.5Zm0-1.1h-.5V77h.6v.6Zm.1-1.3h-.5v-.7h.6v.7Zm.1-1.4h-.5v-.5h.6v.5Zm1.4 4-1.2.7.1-.7.7-.2h-.6v-.5l1-.1v.8Zm0-1.2h-.9V77h1v.8Zm0-1.3h-.8l.1-.9h.8v.9Zm.1-1.5h-.7v-.6l.7-.1v.7Zm0-1.3h-.6v-.5l.7-.1v.6Zm.2-1.3h-.8V72l.8-.1v.6Zm1.2 5.7-1.2.7.2-.6 1-.2v.1Zm0-.1-1-.1.2-1 1-.2-.1 1.3Zm.1-1.4h-.9l.1-1.2.9-.2v1.4Zm.1-1.6h-.8v-.8l.9-.2-.1 1Zm-.7-1.3v-.8l.9-.1v.9h-1Zm.9 4.3a35.3 35.3 0 0 0 .7-4.2l.6-.1h-.6l.2-1.1.6-.2-.4 5-1.1.6Z"/><path fill="#73bf44" d="m91.6 81.4-.6.1-.1-.3.4-.3h.3v.5ZM84 69.2l-.5.3-.4-.1.4-.5c.3 0 .4.2.6.3ZM73 69.2l.1-.5.4.1.9.6-1.4-.2ZM70.8 65.6l.1-.6 1 .7v.2l-1.1-.3ZM70.7 42.4v.2-.2ZM92.4 72.4ZM92.3 83v-.3h.4v.3h-.4ZM92.8 83.4v.4h-.4v-.4h.4ZM92.2 82.3V82l.2-.2h.2v.4h-.4ZM90.9 85.4V85h.4v.4H91ZM91 85.7ZM85 87.9l-.2-.1.6-.3.3.1-.7.3ZM85.2 88.2l-.5.2h-.1l.5-.2h.1ZM83.5 85.7h.1l-.6.3.5-.3ZM82.4 84.8l.5-.2.5.2-.2.2H83c-.2 0-.3 0-.5-.2ZM83.2 84.4l.4-.2h.1l.4.2-.4.2-.5-.2ZM77.7 97.7l.1-.2h.5l-.2.2ZM77.8 98.2l-.2.3h-.5l.2-.3h.5ZM72.5 94.2v-.6h.4v.6h-.4ZM72.8 94.7v.4-.4ZM71.4 93.1v-.5h.2v.5h-.2ZM71.6 93.5v.1h-.1ZM71.2 92.8v.3-.3ZM69.8 87.6h-.3V87h.4v.6ZM70.1 91.2v.4l-.3-.3v-.1h.3ZM69 89.6l-.1.5-.4-.5h.4ZM67.5 88.4l-.1-.4v.4ZM65.7 86.3v.3a63.6 63.6 0 0 1 0-.3ZM72 48.9l-.1-.4v.4ZM71.8 44.6l.1-.8.3.3-.1.8-.3-.3ZM91.8 80.1v-.3h.5l-.5.3ZM91.8 82.6v.4h-.4l-.1-.3h.5ZM87.7 88.5v.1l-.2.1v-.3l.2.1ZM87.3 88.1l.6-.2v.2l-.1.3a8 8 0 0 0-.5-.3ZM87.8 91.9l.1.3-.3.1V92l.2-.1ZM77.8 95h-.4l.3-.5h.4c0 .2-.2.3-.3.5ZM78.5 95.6l-.2.4h-.7l.3-.4h.6ZM78.1 93.9l.2-.4h.6l-.3.4H78ZM70.7 81v.1ZM69.6 79.2v.2l-.2-.3h.2ZM65.8 60.6ZM84.2 58.8l.5-.5-.3.6-.2-.1ZM89.9 76h-.2.2ZM90.3 82.6h.1-.1ZM90.4 84.7ZM89.2 82.8l-.4-.2.6-.3h.2l-.1.7-.3-.1ZM81.5 71.8h-.2l.8-1c.2 0 .4.2.5.3l-1.1.7ZM82 71.9h-.1ZM81.4 87.9v.2h-.3l.3-.2ZM80.6 89h.6a8 8 0 0 0-.5.4l-.1-.4ZM72.8 84.5v.3l-.2-.4h.2ZM73.2 56.2v.3-.3ZM74 86.3v.2h-.4l-.2-.4h.6v.2ZM71 71.6l.1-.5.6.3v.3H71ZM80 89.7a15.2 15.2 0 0 0 0 0ZM76.3 81.2l.1-.3h.3l1 .3-.1.1-1.3-.1ZM77.3 81.8v.1l-.3-.1h.3ZM75.5 78.4V78l1 .3h-1ZM76.2 79a.4.4 0 0 1 0 .1ZM72.7 74.2h-.2.2ZM72 68.5l.6.1-.1.3-.6-.4ZM75.2 70.5l.1.3a44.7 44.7 0 0 0-.7-.2v-.2h.6ZM74.8 69.4V69h.1l.1.4-.2-.1ZM75.1 66.3h.2l-.1.2v-.2ZM80.8 81l.3-.3v.4l-.3-.1ZM79 82ZM78.7 82h.1ZM78.8 85ZM78.5 83.9v.2h-.4v-.3h.4ZM78.3 80.4l.1-.2h.5a9 9 0 0 0-.3.4h-.2v-.2ZM77.6 77.4V77h.5l-.2.4h-.3ZM77.7 81ZM73.6 74.3a51 51 0 0 0 .9.1l-.2.5H74l-.4-.2.1-.4ZM73.5 71.5h.1ZM74 73.5l-.1-.1.1-.6h.3l.6.4-.1.3H74ZM74.8 76.1ZM74.2 77.9h.7l-.2.4h-.2L74 78V78ZM74.5 76.9h.8l-.1.3-.7-.3ZM75.1 79.3h.3-.3ZM75 75l.1-.3.5.3h-.5ZM75.8 75.7v.2l-.4-.2h.4ZM75.4 74.4h.7l.1.4v.2l-.8-.6ZM77 79.1h.3v.4a439.8 439.8 0 0 0-.5 0l.1-.4ZM77 74.5ZM77.2 75.8h.2v.3l-.2-.3ZM76.6 76.3h-.3l-.1-.1.1-.4h.1l.2.5ZM77 73.1l-.3.6V73h.3ZM76.1 70.6v.1-.1ZM75.5 73h.3v.3l-.3-.3ZM75.7 73.6h-.3v-.1l.3.1ZM77.8 81.9h.2v.3l-.3-.1.1-.2ZM78 79.2h.3l-.2.3v-.3ZM77.2 73.8H77l.1-.7h.5l-.3.7ZM74.5 69ZM73.6 70.6l-.8-.1V70l.8.5ZM73.2 72.7v.2l-.6-.3.6.1ZM72.7 77l.4.2h-.5V77ZM73 76l.2-.4h.3l.5.2-.1.3H73ZM73.3 80.4l.6.2v.2a161.6 161.6 0 0 0-.6-.4ZM73.7 79.3l.1-.4.6.2v.2h-.7ZM75 79.9h.9v.3a31 31 0 0 0-1-.3ZM77.9 84.5h.7l-.2.4-.6-.2v-.2ZM78.5 85.5h.4l.1.3v.2l-.8-.1.3-.4ZM78.9 86.4h.3v.4h-.5l.2-.4ZM79 86ZM79.4 87.3H79h.5ZM79.2 87.6H78.4h.8ZM78.9 88.6h.8-.8ZM79.7 88.3H79V88h.6v.2ZM79.2 87.7v-.1h.3v.1h-.3ZM79.4 84.6h.3l-.2.3-.1-.3ZM81.2 82.5v.5l-.4-.1.4-.4ZM81.1 70.3V70l.2.1-.2.2ZM80.8 79h.2v.1h-.2ZM80.8 67v-.2l.2.1-.2.2ZM77.4 67.4q-.3 0-.5-.2l.2-.4.5.1-.2.5ZM74.5 61l-.1.6h-.2l-.2-.8ZM72.2 66ZM72.1 73.4ZM72.3 75.5l-.1.3-.7-.3h.8ZM73 81.5h-.2.1ZM74.5 86.1h.6v.3h-.6V86ZM74.8 85.4l.2-.4.6.1-.1.4-.7-.1ZM77 83.7h.7l-.1.3h-.7l.1-.3ZM77.3 84.5ZM77.4 85.4h.6l-.2.4H77.2l.2-.4ZM78 86.3h.1l.6.1-.2.3h-.7l.2-.4ZM78.2 88h.7l-.1.2-.6-.1V88ZM78.5 89.4l.8.1h-.8v-.1ZM80 86.1l1-.5h.4v.6l-.3.2L80 86ZM81.2 85.5h.2-.2ZM81.1 69.9l.5-.2-.2.3-.3-.1ZM81.6 65.4l.7-.4-.4.6-.3-.2ZM80.6 64.9v-.4l.4-.2-.4.6ZM80.7 73.2h-.5l.1-.2.4.2ZM76 58.7l-.2-.1.2-.6h.2l-.2.7ZM75.8 54.7h-.1l.1-.5h.1v.5ZM75.7 59.6l-.2.9-.2-.1.3-1 .1.2ZM75.4 56.5l-.2-.1.2-.8.2.1-.2.8ZM75.3 61.4l-.1.6-.4-.2.2-.5.3.1ZM75 58h-.2l.2-.6h.2l-.2.7ZM74.8 53.9l-.5-.4.1-.4.5.4v.4ZM70.6 68.8l-.6-.1.1-.3.5.4ZM69.8 75.9h-.1.1ZM70.5 78l.1-.2.9.3h-1ZM74.1 87.7l-.1-.3h.6v.3H74ZM74.4 86.6v-.1l.6.1h-.6ZM75 87.5h.6l-.1.3h-.6l.1-.3ZM75.6 86.4l.1-.2h.6l-.1.3h-.6ZM76 85.6l.2-.4.6.1-.2.3h-.5ZM77 86.3h.4l-.1.3h-.5l.1-.3ZM77.2 87.8l.6.1-.1.1H77v-.2ZM80.3 88.2h.1ZM81.3 72.7V72l.3.1c0 .2-.2.3-.3.5ZM83.2 70.3c0 .2-.2.3-.3.4l-.2-.1.5-.3ZM82.7 70l.1-.2v.1ZM84 62.4l-.3.5-.2-.2c.2 0 .3-.2.5-.3ZM83.6 61.7l.1-.3.1.1-.2.2ZM88.6 81.1h.1-.1ZM89 81.2l.4.2-.6.3c-.1 0-.2 0-.3-.2l.6-.3ZM88.1 79.4l.5-.4.4.1-.9.3ZM87.9 80.3l-.4-.2.5-.2.5.2-.6.2ZM88.4 82c-.1 0-.3 0-.4.2l-.4-.2.4-.2.4.1ZM86 77.3h-.2c0-.2.2-.2.3-.3l.3.1-.5.2ZM86.3 79.2l-.5.2.3-.3h.2ZM87.7 65.3l-.3.2.3-.2ZM87.4 62.6ZM87.9 67l.4.2-.4.2c-.2 0-.3-.2-.4-.3l.4-.2ZM87.7 71.3c.2 0 .4.2.5.3l-.2.1c-.3 0-.5-.1-.7-.3l.4-.1ZM87.5 70.3l.2-.3.5.2-.5.2-.2-.1ZM87.9 68.4l.3.2-.2.1-.4.2-.4-.2.7-.3ZM87 67.8l-.7.3.4-.5.3.2ZM86.3 69.1l.3.2-.4.2-.4-.2.5-.2ZM86.9 72.1l-.6.2-.4-.2.3-.2.7.2ZM86.1 70.4h.1l-.2.4-.4-.2.5-.2ZM86.3 73.1l-.5.5-.4-.2 1-.3ZM87.2 78.5l.5.2-.2.1-.4.1-.5-.2.6-.2ZM87.6 82.4h-.2l-.4.2-.3-.2.2-.2h.1l.6.2ZM87.8 77.7ZM88.3 78.3l-.3-.1.5-.2h.2l-.5.3ZM88 76.6l-.7.2-.5-.2.7-.2.5.2ZM87.6 75.6c.2 0 .3-.2.4-.3l.4.1-.8.2ZM89 75.9l-.4.2h-.2l.5-.2ZM89.2 70.8l-.3.3-.3-.2.5-.2h.1ZM88.7 68ZM89 68.2l.2-.4.4.3-.5.2-.1-.1ZM86.2 59.7l.2-.5.2.2-.4.3ZM86.3 61.5l-.9.6-.2-.2.3-.5.4-.3c0 .2.2.3.4.4ZM85.2 65l-.3.4-.2-.1.5-.3ZM84.7 68.7l-.3-.2.6-.2-.3.4ZM85 69.8l.2.1-.4.2.3-.3ZM84.2 72.6l-.2.2-.2-.1.4-.1ZM83 67.8c0-.1 0-.2.2-.2l-.2.2ZM84.1 75l-.3.3-.4-.1.7-.2ZM84.5 76.2l.5.3-.7.2-.4-.2.2-.1.4-.2ZM84 77.4h-.2.3ZM84.1 78.5l.5-.1.5.2-.5.2-.5-.2ZM86 75.8l-.3.3-.3-.1.6-.2ZM86 78l-.3.2h-.3l.5-.2ZM86 80.9h.2l-.3.2h-.1l.2-.2ZM86 81.7l-.3.2.2-.2ZM86.2 82.7h.2l-.4.2h-.1l.3-.2ZM86.5 80.6v-.1l.4-.1.4.1-.5.2-.3-.1ZM86.5 85.5ZM87.1 84h.3l-.5.3-.3-.1.5-.3ZM87.5 85h.3a118.4 118.4 0 0 0-.9.3l.6-.3ZM87.8 83.9l-.2-.2.4-.1h.2l-.4.3ZM88 83.2l.6-.4.3.1-.9.3ZM89.5 82.2l.2-.2v.3l-.2-.1ZM89.5 85.3l.2-.2v.4h-.3v-.2ZM90.1 79.3l-.3-.2.6-.4h.3v.3l-.6.3ZM90.6 81.5l.2-.2v.2h-.2ZM89 77.7c.3 0 .4-.2.6-.3l-.5.3ZM89.4 74l.4-.5.5.2-.9.3ZM89.3 71.3l.2-.3c.1 0 .3 0 .4.2l-.6.1ZM83.4 63.3l-.2.3-.5.4-.2-.1c0-.3.2-.5.3-.7l.3-.2.3.3ZM82.4 64.2l-.2.2.1-.3h.1ZM82.4 62ZM80.6 72.6v.4l-.2-.1.2-.3ZM77 55l-.2.6-.2-.2.2-.5.2.2ZM76.6 51.7l-.2-.2.1-.6.3.2-.2.6ZM76.4 56.3l.2.2-.2.7-.2-.1.2-.8ZM76.2 53.4l-.2-.2.2-.8.2.1-.2.9ZM66.3 68.1h.2-.2ZM66.7 67a.3.3 0 0 1 0-.1l.6.3v.1l-.6-.3ZM67.2 64.7v-.3l.7.5-.7-.2ZM67.8 65.4v.2L67 65l.7.3ZM67.5 66.7h-.8l.1-.5.7.5ZM72 82.9l-.1.2-.2-.3h.2ZM72.1 91.3h.4v.5H72l.1-.5ZM72.2 90.5V90h.5v.6h-.5ZM72.7 92.6h.4l-.1.4h-.3v-.4ZM72.8 91.8v-.5h.5l-.1.5h-.4ZM75.4 90l-.2.4h-.1l-.2-.4h.5ZM76 87.8l.2-.2h.4l-.1.3H76ZM77.2 90h.5l-.3.5h-.5l.3-.6ZM81.4 74.4V74l.3-.3.4.2-.6.4ZM82.5 74.2c0 .2-.2.3-.3.4l-.6-.2c.2 0 .5 0 .9-.2ZM83.5 77h-.1.1ZM83.7 78.8l.3.2-.5.2h-.2l.4-.4ZM84 80.7l.2.1-.3.1h-.2l.2-.2ZM84 82.5l.4.2-.6.2-.5-.2.7-.2ZM84.3 80.4l.4-.1.3.1-.3.2-.4-.2ZM85 82l.3.2-.4.2-.4-.1.6-.3ZM85.5 85l-.5.2-.3-.1.4-.3.4.2ZM85.4 80h.3l-.2.1ZM85.7 84.5l.3-.1.4.1-.4.3-.5-.2h.2ZM86 86.2h.1l-.4.2.4-.2ZM87.4 86.5l.6-.4.4.2-.1.6H88l-.7-.4ZM88.2 86l.4-.2-.1.4-.3-.2ZM88.6 84.3l.5-.2-.1.5-.4-.3ZM88.5 83.5l-.2-.1.7-.4h.3l-.8.5ZM89.4 85.6h.4v.6l-.3.1h-.2v-.2l.1-.5ZM89.8 84.3ZM90 85h.4v.4h-.3L90 85ZM90.3 82.4l.2-.7h.3v.6l-.5.1ZM91 82.9v.2h-.4l.4-.2ZM93.2 68.6h.2v.2l-.2-.2ZM80.2 68.2v.3l-.4-.2.4-.6v.5ZM74.2 40l-.5-.8V39l.6.8v.2ZM74 41.2l-.1.3-.4-.6v-.3l.4.6ZM73.1 45.2l-.1.7-.3-.4.1-.7.3.4ZM72.8 47.2v.7l-.5-.4.2-.6.3.3ZM72.5 51.6v.4l-.2-.6.2.2ZM67.8 87.6v-.8h.4v.8h-.4ZM69.2 90v-.4h.5v.3l-.2.7h-.2l-.1-.1V90ZM69.3 89l.1-.7h.4v.8h-.5ZM70.2 87.6V87h.6v.5ZM71 89v-.6h.5l-.1.7H71ZM71.4 92v-.7h.4l-.1.6h-.3ZM71.6 90.5v-.7h.4l-.1.7h-.3ZM71.9 93v-.4h.5v.5h-.5ZM72.3 93.6V94.2H72l-.2-.1v-.6h.5ZM72.4 94.7h.2v.4l-.2-.2v-.2ZM73 95.5a42.1 42.1 0 0 1-.1.2v-.2ZM75.5 91.7l-.2-.5h.6l-.2.5ZM77.2 93.6h.6l-.2.3H77l.2-.3ZM77.3 96.5h.6l-.2.4H77l.3-.4ZM76.7 96l.3-.4h.4l-.2.4h-.5ZM78.2 96.9l.2-.4h.5l-.3.4ZM78.8 96l.2-.4h.6l-.3.4h-.5ZM81.5 91.7v.7l-.2-.6h.2ZM82 76.1l.6.3-.6.3-.3-.1c0-.2.2-.3.4-.5ZM83.1 79.4l-.2.1.2-.2ZM83.6 79.7l-.2.3-.4-.2.6-.1ZM83.4 81h.1l-.4.2c.1 0 .2 0 .3-.2ZM83.6 81.5l-.3.2H83l.5-.2ZM83.3 83.1l-.5.2h-.3l.5-.4.3.2ZM84.2 85.3l.3.1-.4.2-.2-.1.3-.2ZM84.3 84a78.4 78.4 0 0 1 .6-.1l-.3.2-.3-.1ZM85.1 86.6h.2l-.4.3-.3-.2.5-.1ZM85.9 87.8h.2l-.6.3h-.2l.6-.3ZM86.4 88.5l.6-.2.4.1v.4H87l-.6-.3ZM87.1 89.7h.3l-.1.1h-.2ZM87.3 90l-.1.2h-.1l-.1-.4.3.1ZM87.1 93.3l.3-.2.1.4-.5.2.1-.4ZM87.8 93.4V93l.2-.2.1.4-.3.2ZM88 91v-.4l.3-.2.1.5-.4.1ZM88.6 91.5v.4l-.4.2v-.4l.4-.2ZM88.5 89.6ZM88.4 89.4v-.2l.3-.1v.3h-.3ZM88.7 84.9l.2-.1-.2.1ZM88.9 87.4h.3v.5h-.4v-.5ZM89.4 89v.2l-.3.1V89h.3ZM89.5 87.2c.1-.2.3-.2.4-.3v.2h-.4ZM90 87.4v.3l-.4.2v-.5h.4ZM90.2 88.4v.2h-.4l.4-.2ZM90.2 86l-.1-.3h.4v.2l-.3.2ZM90.4 87l-.1-.3.1-.1h.3v.5h-.3ZM90.4 89.3h-.1ZM91 84.4h.2v.3h-.4v-.2l.2-.1ZM91.5 86v.2a684.8 684.8 0 0 0 0-.2ZM91.5 83.6v-.2h.4l-.4.2ZM91.6 84c0-.2.2-.2.3-.3v.2h-.3ZM92 84.3v.3h-.3v-.3h.3ZM92.1 85v.2l-.2.2-.1-.3h.3ZM92.2 73.4l-.1-.1h.1ZM92.4 70.9l.5-.3-.2.6-.3-.3ZM79.8 54.5l-.2.5v-.2l.2-.3ZM77.8 47.7ZM73 37.7l.3.6v.2l-.4-.5v-.3ZM72.7 39.4l.2.4v.3l-.3-.3v-.4ZM70.9 45.2l.3.3v.4l-.3-.7ZM60 81.4h-.1v-.1.1ZM67.9 92.8v-.4h.3v.8a21 21 0 0 0-.3-.4ZM68 86.1v-.8l.4.1-.1.7h-.4ZM69.4 92l-.3.1v-.3l.3.3ZM70.4 95.5 70 95v-.7h.3v1ZM70.3 91.2v.7-.7ZM70.7 94.3V94l.3.3h-.3ZM71 92.9l-.2-.3h.2v.3ZM71.5 95.2h-.3v-.4l.3.3ZM76 93.6h.7l-.2.3H76v-.3ZM76.5 94.6h.7l-.3.4h-.6l.2-.4ZM76.4 95.7h.1l-.1.2v-.2ZM76.5 96.5h.3l-.2.4-.1-.4ZM76.6 97.5h.8l-.2.2h-.6v-.2ZM76.7 98.2h.2l-.1.3h-.1v-.3ZM76.7 99h.6l-.2.5h-.3V99ZM76.8 100ZM81.6 76.7l.2.1-.2.1v-.2ZM81.6 77h.4l-.4.3V77ZM81.8 79.2h.1-.1ZM81.9 81.1h.1-.1ZM82 82.3l.2.2-.2.2v-.4ZM82 83.5l.4-.2.2.1-.6.3v-.2ZM82 83.8c.2 0 .5 0 .9-.2l-.5.4H82v-.2Z"/><path fill="#73bf44" d="m82 84 .3.1-.2.2v-.4ZM82.1 85h.2l.4.2-.6.3V85ZM82.2 86.3l.7-.3-.7.5v-.2ZM82.7 99.2a45 45 0 0 1 0 .5v-.5ZM82.8 99.9h.1l.2.6h-.3v-.6ZM83.2 101.3h-.4v-.7h.3l.2.4-.1.3ZM83.7 99.8v-.2l.2-.1-.2.3ZM88.4 102.3l.2-.2-.2.2ZM89.7 97.9l.3-.2v.6h-.2V98ZM89.8 98.7l.2-.1v.6h-.2v-.5ZM90 100l-.2.2v-.5l.2-.2v.5ZM90.2 100v-.6q.2 0 .3-.2v.2c0 .2-.2.4-.3.5ZM91 99c-.2 0-.3.2-.3.3v-.2l.2-.2ZM90.6 97.3h.2v.6h-.1l-.1-.6ZM90.9 98.8l-.2.1v-.8l.1-.1.1.8ZM90.5 99l-.3.1v-.6l.3-.2v.7ZM90.4 97.5v.6h-.2v-.5l.2-.1ZM90.4 96.3v.9h-.3v-.7l.3-.2ZM88.1 94.2l-.2.1V94l.4-.2v.1l-.2.4ZM88.7 93l-.3.1v-.4l.4-.2v.2l-.1.3ZM88.7 90.8v-.6h.2l.1.4-.3.2ZM89 92.4ZM89 91.7l-.1-.3.3-.2v.4l-.3.1ZM89.2 90l.4-.3v.3h-.4ZM89.3 90.2h.4v.2l-.4.1v-.3ZM89.5 91.5v-.4l.3-.2-.3.6ZM89.8 89h.2-.2ZM90.3 90.2H90h.3ZM90.4 90H90v-.4h.5v.4ZM90.4 87.6v-.2h.3l-.3.2ZM90.5 88.2h.5v.3l-.1.1h-.3v-.4ZM90.8 89.3h-.1v-.2l.2-.1h.2l-.3.3ZM91 86.6h.6v.4h-.5v-.4ZM91.6 88.3l-.3.1v-.2h.4l-.1.1ZM91.3 87.8l.5-.3v.3h-.5ZM92 86.2l-.1-.4h.4v.4H92ZM92 87.7v-.2h.2l-.2.2ZM92 87v-.4h.5v.2l-.5.2ZM92.5 84.6v-.3h.4v.3h-.4ZM92.6 85ZM92.6 85.2l.2-.1h.2v.3h-.4v-.2ZM93.8 81.9v.3h-.6V82h.6ZM93 86.7h-.3.2ZM92.7 86.2v-.4h.4l.1.4ZM93.2 82.7h.6v.2h-.6v-.2ZM93.3 83.4h.5v.4h-.5v-.4ZM93.8 84.2v.4h-.4v-.3h.4ZM93.3 86.2v-.4h.3l-.3.4ZM93.4 85.4V85h.4v.3h-.4ZM94 85.4l.1-.4h.3l-.3.4ZM95.3 83h-1l.1-.3h1ZM95.3 81.4h-.8V81h.8v.3ZM95.4 79.5h-.8v-.3h.8ZM95.8 83.7h-.1v-.3h.5l-.4.3ZM95.8 83v-.3h.7v.3h-.7ZM96.5 80.2v.3H96v-.3h.5ZM96 79.5v-.3h.5v.4H96ZM96.5 81v.4H96v-.3h.6ZM96.5 81.9v.4h-.7v-.4h.7ZM96.5 78.6H96v-.5h.6v.5ZM96.6 77.5H96V77h.6v.5ZM96.8 82.8v-.2h.2l-.2.2ZM98.2 73.8h-.8v-.2h.8v.2ZM101 73.7h-.6v-.4h.6v.4Z"/><path fill="#73bf44" d="M91.8 124.1a4.8 4.8 0 0 0-1.8-3.5 7.7 7.7 0 0 0 .5-.9 6.8 6.8 0 0 0-.9-6.9A3.5 3.5 0 0 0 91 110l-1-2.5a1.4 1.4 0 0 1-1.3.7 8.9 8.9 0 0 0 .7-5.3 8 8 0 0 1-1.8-1.2 1.7 1.7 0 0 1-.4.8 6.3 6.3 0 0 0-.8-1.5l.2-.3-.4-.6a8.1 8.1 0 0 1-2.2-1.7l-.2.3a10.1 10.1 0 0 0-1.9-.8v-.2h-.4a10.1 10.1 0 0 1-1.4 0l-.4-.1a9.5 9.5 0 0 1-2.2.2h-.2l.2.2a5 5 0 0 0-1.1.6l-.2-.1-1 1.3-.7.6v.6a8 8 0 0 0-.6 2.5 2 2 0 0 1-1-.5l-.8 2.4a10.2 10.2 0 0 0 1.2 4.7 1 1 0 0 1-1.3-.6l-.9 2.4a4.5 4.5 0 0 0 1.4 3.1 7.9 7.9 0 0 0-.3 6.3 4.5 4.5 0 0 0-1.2 3 4.4 4.4 0 0 0 1 2.7 16 16 0 0 0-1.9 6.2h22.2s1-2.8-1.4-6.3a4.3 4.3 0 0 0 1-2.7Z"/></svg>