<svg xmlns="http://www.w3.org/2000/svg" viewBox="0 0 150 150"><path fill="#73bf44" d="M55.6 19.4zM67 29.4v-.3l.7-2.7-.7 2 .6-4.2-.9 3.7.4-6.2-.6 5.3.1-4.2-.3 3.2v-3.1l-.3 2.9.1-5.9-.3 4.7-.2-2.3v3l-.5-6.2.1 5.7-.4-3.8.1 3.4-.7-5.4.2 4.7-.8-3.6.4 3.4-1.9-6.1 1.5 5.6-1.3-3.7.8 3.2-1.9-4.8 1.3 4.5-.8-2.2.5 2-1.2-3.5.8 3.2-1.9-5.8 1.5 5.6-.8-2.2.5 2-1.3-3.4.9 3.2-2.5-5.6 2 5.4-2-4.3 1.6 4.1-2-3.8 1.6 3.7-3-5.5 2.5 5.3-3.4-5.2 3 5-3.6-4.2 2.8 4h-.2l-.2-.3-3.7-4.7 3.4 4.8h-.2l-2.6-3 2 2.8-3-3.3 2.4 3-3.1-3 2.7 3-5.2-3.8 4.5 3.8-.4-.3-2.9-2 2.3 2-3.4-2.3 2.7 2-3.7-2.3 3.4 2.6-4-2 3.2 2-3.3-1.4 2.6 1.3h-.1l-3-1.3 2.5 1.2-2-.6 1.6.6-2.7-.9 2.1 1-3.6-.2 3 .3-1.6.3 1.6-.2-2.1.8 2.9-.8-3.7 2.2 4.1-2.2-2.3 1.9 2.8-2-3.7 3 4.1-3-3 2.8 3.4-2.6-2.1 2 2.5-2-3.3 2.8 3.6-2.6-2.8 2.6 3.4-2.8-3.3 3.9 3.7-3.8-1.9 2.3 2.3-2.3-3.8 4.5 4.2-4.4-3 3.4 3.4-3.3-2.9 3.5 3.3-3.5-3 3.4 3.4-3.3-2 2.3 2.4-2.3-4 5.1 4.6-5v.1L53 24l3.5-4.1h.2l-2 2.3L57 20l-2.5 3.3 2.8-3.2-1.6 2.1 1.9-2-3.8 5 4.3-4.8-1.6 2 1.9-2-3.1 3.5 3.5-3.2-3.1 3.1 3.5-3-2.2 2.4 2.5-2.3-3.7 3.6L60 21 55.4 26l4.2-3.9-2.5 3.4 3.5-4-1.2 1.5 1.4-1.4-2.3 2.4 2.5-2.3-1.3 1.3 1.5-1.2-3 3 3.3-2.8-3.3 3.8 3.6-3.6-2.2 2.4 2.5-2.3-1.5 1.5 1.6-1.3-1.4 1.6 1.6-1.6a1.2 1.2 0 0 1 .1.1l-5 4.2 5-3.6-1 1 1.5-1.2-1.1 1 1.3-1v.1l-3.5 2.5 3.2-1.9-2 1.7 2.7-2-3.5 3 3.8-2.7a1.2 1.2 0 0 1 .1.1l-4.7 3 5-2.6h.1l-3.7 2.2 4-1.9v.2l-2.6 1.2 2.8-1-3.7 1.8 4-1.5.1.2-1.7.6 1.8-.5v.2l-3.6 1 3.8-.7.1.2-2.7.3 2.9-.1a2 2 0 0 1 0 .2l-3.7.4h4-1.3l1.3.1v.2L64 27l2.4.6-2-.4 2 .6a1.6 1.6 0 0 1 0 .2l-1.9-.6 2 .8v.1l-1.6-.7 1.7 1v.2l-1.5-1 1.6 1.2.1.6Zm-11.4-10ZM80.3 13.5v.1-.1z"/><path fill="#73bf44" d="m67 29.6.5-.1 3.6.8-2.7-.9 5.8.7-5-1 8.4.2-7.3-.5 5.8-.1-4.4-.3H76l-4-.3 8-.1-6.5-.3 3.2-.4-4.2.1 8.6-1-7.9.5 5.3-.7-4.7.2 7.4-1.2-6.4.5 4.9-1.1-4.6.6 8.3-2.8-7.8 2.2 5-1.9-4.3 1.2 6.6-2.8-6.2 2V23l3-1-2.7.6 4.7-1.7-4.4 1.1 8-2.7-7.7 2.2 3-1.2-2.8.8 4.7-1.8-4.4 1.3 7.6-3.7-7.3 3 5.8-3-5.5 2.4 5-2.9-4.9 2.4 7.4-4.3-7.1 3.6 7-4.9-6.8 4.3 5.6-5-5.3 4v-.3l.4-.3 6.2-5.3-6.4 4.9v-.3l3.9-3.6-3.6 2.8 4.4-4.2-4.1 3.3 4-4.3-4 3.7 5-7.1-5 6.2.3-.5 2.6-4-2.5 3.2 3-4.8-2.7 3.8 3-5.2-3.3 4.8 2.4-5.6-2.4 4.5 1.7-4.6L80.9 7l1.5-4L81 6.3l.8-2.8-.8 2.3a.6.6 0 0 0 0-.1l1-3.8-1 3V0l-.3 4.1-.5-2 .3 2-1.2-2.8 1.3 4-3.2-5 3.2 5.5-2.7-3 2.8 3.7-4.3-5 4.2 5.6-3.8-4 3.7 4.5-2.8-2.8L80.4 8l-4-4.3 3.8 4.8-3.7-3.7 3.9 4.5L75 5.1l5.3 5L77 7.4l3.2 3-6.2-5 6.2 5.6-4.9-4 4.8 4.5-5-3.8 4.9 4.4-4.7-4 4.5 4.5-3-2.5 3 3L73 8l7 6-.1.2-6-4.1 5.9 4.7-.1.2-3.2-2.6 3.1 3-4.6-3.2 4.5 3.7-3-2.2 2.9 2.5v.1l-7-5L79 17l-3-2 2.9 2.4v.1L74 13.3l4.6 4.7-4.5-4.2 4.3 4.7-3.3-3 3.3 3.4-5.2-4.8 5 5.4-6.9-6 5.5 5.6-4.7-3.2 5.6 4.5-2.1-1.6 2 1.9-3.4-3 3.2 3.3-1.9-1.8 1.8 2-4.2-4 4 4.5-5.4-4.4 5 4.8-3.3-3 3.2 3.4-2.1-2 2 2.2-2.3-2 2.1 2.2v.2l-6-6.7 5 6.7-1.2-1.2 1.7 1.9a.6.6 0 0 1-.1 0l-1.3-1.5 1.2 1.7-.1.1-3.4-4.7 2.6 4.2-2.4-2.6 2.8 3.6L71 20l3.8 5.1-.1.2-4.4-6.3 4 6.7-.2.2-3-5 2.7 5.3-.2.1-1.8-3.5 1.6 3.7-.2.2-2.6-5.1 2.2 5.4-.2.1-1-2.3.8 2.4-.2.2-1.4-5 1 5.2-.2.2-.7-3.8.4 4H71l-.7-5 .2 5.3h-.1v-1.6l-.2 1.7-.2.1.3-3-.6 3.1-.2.1.6-2.7-.8 2.8h-.2l.8-2.6-1 2.7h-.3l1-2.2-1.2 2.4H68l1.3-2.2-1.5 2.3-.9.2Zm13.3-16ZM63.9 9.4z"/><path fill="#73bf44" d="m67.5 30.5.3-.5 3-2.2-2.5 1.5 4.4-4-4.1 3.2 5.8-6.5-5.3 5.4 3.8-4.6-3.2 3.3 2.9-3.4-3 3 5.4-6.5-4.6 5 1.9-2.8-2.8 3.4 5-7.4-4.9 6.5 3-4.6-3 3.8 4-6.6-3.9 5.3 2.4-4.5-2.6 4 3.3-8.4-3.4 7.5 2-5.2-2.1 4.2 2.2-7-2.6 6.2v-.1l1.1-3-1.2 2.5 1.8-4.8-2 4.2 3-8-3.3 7.4 1.1-3.2-1.3 2.8 1.7-4.9-1.9 4.3 2.3-8.4-2.6 7.8 1.5-6.6-1.8 6 1.1-6L67 14l1.6-8.6-2 8 .9-8.7-1.2 8.2L66 5l-.5 6.8-.1-.2V2.8l-.4 8.3-.2-.3-.3-5.4-.2 4.7L64 4l-.2 5.4-.8-6 .3 5.7L61.2.2l1.6 8-.2-.5L61 2.9l.9 4.2-1.7-5.5 1 4.6-2-5.9L61 6.2 58 .6l2 4.8L57.6 1l1.6 3.7-2.1-4 1.6 3.5L57 1.7l1.1 2.1L56 .4l1.6 3L53.7 0l3 2.9-2-1 2 1.1-3.1-1 4 1.7-6-.8L58 4.1h-4.2l4.8.4h-6.8L59 5l-5.8.3 6.1.1-4 .3 4.4.1-6 .2 6.2.3-5.4.4h6.2l-7 1.2 7.4-.8L57 8l4.5-.5-8.1 1.4 8.5-1-6.3 1 6.7-.6L56 9.5l6.7-.8-6.2 1 6.5-.6-4 .7 4.4-.4v.1l-8.8 2 9.3-1.4.1.1-7.1 2 7.5-1.5.1.2-4.2.8 4.5-.4-5.6 1.4 5.9-1-3.7.9 3.9-.6-8.6 2.2 9-1.5a.8.8 0 0 1 .1 0l-3.6.9L66 13v.1l-6.4 1 6.7-.5-6.3.7 6.5-.2-4.5.6 4.8-.3-7.2.8 7.5-.2-9.2 1.3 8-.5-5.7 1.5 7.4-1.4v.1l-2.7.5 2.8-.3-4.6.7 4.8-.3-2.7.3h2.7l-6 .5h6.2l-7 1.2 7.2-.8-4.5.7 4.7-.3-3 .3h3l-3 .4 3.1-.2.1.2-9.3.2 8.7.5-1.8.2H69h-2l2 .2v.1l-5.9-.4 5 .7-3.6.2 4.7.2h-6.5l6.6.5v.3l-7.8-.8 7.9 1.4v.2l-6-1 6 1.5v.2l-4-1 4 1.3v.3l-5.7-1.4 5.7 1.8v.4l-2.4-.9 2.3 1v.3l-4.8-2.2 4.7 2.6v.4l-3.4-2L69 26v.3l-4.5-3 4.3 3.5v.2L67.4 26l1.3 1.2v.3l-2.2-2.3 2 2.6a1.5 1.5 0 0 1 0 .2l-1.8-2.3 1.7 2.5-.1.2-1.6-2.4 1.5 2.7-.1.2-1.3-2.3L68 29l-.2.4-1-2.5.9 2.7-.5.7v.1ZM63.9 9.4ZM73.6 38.3l1.8-1.6v.1Z"/><path fill="#73bf44" d="m67.2 29.8-.1.2.7.3 1.3 2.2-1-2.2.3.1.9 2.5-.7-2.4.2.1.8 2.7-.5-2.6.2.1.4 2.7-.2-2.6h.1l.3 3v-2.8l.2.1V33l.1-1.6h.2l-.7 5.1 1-4.8c.2 0 .2.1.3.2l-.7 3.7 1-3.6.2.2L70 37l1.8-4.6.2.1-.9 2.2 1-2 .3.1-2.5 4.9 2.8-4.6.2.2-1.8 3.4 2-3.2.1.2-3 4.6 3.3-4.3.1.1-4.2 6 4.6-5.5.1.1-4 4.5 4.3-4.1-2.8 3.1 2.3-2.1-2.8 3.6 3.6-4a1 1 0 0 1 .1 0l-1.3 1.5L75 36l-1.7 1.7 1.6-1.3-5.6 6.1 4.2-3.9 2.1-1.5-2 2 2.1-1.8-3.2 2.9 3.4-2.5-5.2 4 5.4-3.5-4.1 3.8 4.3-3.4-1.9 1.7 2-1.5-3.4 2.9 3.5-2.6-2 1.6 2-1.4v.1l-5.6 3.8 4.7-2.6-5.6 4.6 6.9-4.9-5 4.7 5.1-4.1-3.3 2.9 3.4-2.5-4.5 4 4.6-3.5-4.7 4 4.9-3.6v.2l-3 2 3-1.7-6.9 4.7 7-4-2.8 2.1 3-1.7-4.6 3 4.6-2.6-3.2 2.6 3.3-2.1v.2l-5.9 3.8 6-3.3v.2l-7 5 7-4.3-3.2 2.6 3.2-2-4.7 3.7 4.8-3.3-5 3.7 5-3.1-4.8 3.8 4.8-3.3-6.2 4.7 6.2-4.1-3.2 2.4 3.1-2-5.3 4.2 5.4-3.6-4 3.8 3.7-3-4 4L78 51 75 54l2.2-2-3.4 3.4 4-3.5a.4.4 0 0 1 0 .1L73.2 57l4.2-4-2.5 2.8 2.8-2.7-3.5 5 3.5-4.4-1.6 3.6 1.4-2.5-.5 2 .7-2-.2 3.8.5-4.9a36.5 36.5 0 0 0-.7-12.8 21.8 21.8 0 0 0-.8-2.4 15.1 15.1 0 0 0-4-6 12.7 12.7 0 0 0-5.3-2.7Zm8.2 6.9v.1l-1.8 1.5Z"/><path fill="#73bf44" d="M72.3 149.4C76 110.7 68.5 30 68.5 30l-.6-.7-.6-.7-.7-.8a768.7 768.7 0 0 1 .6 121Z"/><path fill="#73bf44" d="M67.5 28.7v.2l-1 1.6-3.5 2 3-1.4-4.8 3.3 4.6-2.7v.1l-3.6 2.3 3.3-1.9a.5.5 0 0 1 0 .1l-6.3 4.4 5.8-3.4v.1l-3.4 2.2 3.2-1.8-6.6 4.6 6.2-3.8-5.6 5 5.2-4v.3l-4.8 4 4.5-3.4v.1l-3.1 2.7 3-2.2-.2.2-6.4 5.4 6.1-4.4-5.8 6 5-4.4-3 3 3-2.5-3.7 3.7 4-3.4-7 6.7 6.7-5.7-5 4.8 4.7-4-3.3 3.4 2.4-2.1-4.8 5 5-4.4-4.4 5.6 5-5.6v.3l-3 3.9 3-3.4-4.4 5.6 4.3-4.8-6.2 8 5.9-6.5-3 4.7 3.3-4.3-2.2 3.6 2.2-3L56 57l5.3-6.8-3.3 6.7 3.8-6.3-2.4 6.6 2.5-5.5-2.6 8.2 2.5-6-.6 5.7 1-6 1 7.5-.5-6.7 3 4.7-2.7-5 3.3 4.2-3.7-5.3 5.9 4.9-6.3-6v-.1l5.6 5-5.7-5.8 4.7 3.9-4.8-4.5v-.2l6 5-6-5.7v-.1l5 4.1-5-4.7v-.3l4.7 4.5-4.8-5.1 6.8 5.7-6.8-6.5a1.6 1.6 0 0 0 0-.1l2.9 2.6-2.9-3v-.2l4.8 5-4.7-5.6v-.4l2.6 3.3L62 45v-.4l3.4 4.8-3-4.8 5 7-5.1-8.6 3 4.2-3-4.9 3.3 4.3-3-4.8 4 5.6-4-6.6 2.2 3-2-3.5 5.4 7.5-5-8.2L68 46l-4.6-7.6 3.7 5.4-3.6-6 5 6.8-4.3-7 2.8 4-3-5a.7.7 0 0 0 0-.2l3 4.2-2.8-4.6v-.2l2.2 3-2-3.3a.6.6 0 0 1 0-.1l4.2 5.8-3.3-5.3 2.8 3.8-3.3-5.4 3 4.1-2.7-4.6a1 1 0 0 0 0-.1l2.2 3-2-3.4 4 5.5-3.7-6.1v-.2l1.4 2.1-1.2-2.3V32l1.8 3.6-1.5-4v-.2l2.2 4.7-1.9-5.1V31l1.7 3.3-1.5-3.7 1-1.6a1.5 1.5 0 0 1 .1-.1l-.2-.2Z"/><path fill="#73bf44" d="M67.2 29.6h.2l1.8-.5 2.9-2.4-2.3 2.2 4.5-3.2-4 3.2h.3l3-2.4-2.6 2.4 6-4.3-5 4.1h.2l3-2.3-2.6 2.3 6.2-4.5-5.3 4.4 6.3-3.4-5.3 3.4h.3l5-3-4.4 3h.1l3.4-2-3 2h.3l6.9-4.1-5.9 4.1 7.2-3.4-5.6 3.2 3.8-1.8-3.2 1.9 4.4-2.1-4.3 2.4 8.3-4.2-7.3 4.3 5.9-3-5 3 4-2-2.6 1.6 6-2.8-5.5 3.1 6.4-2.1-6.6 2.8h.2l4.5-1.5-4 1.6 6.4-2.2-5.7 2.4 9.2-3L86 30l5.2-1.1-5 1.5 4-.9-3.4 1 9.5-2.3-7.8 2.6 7-.9-6.9 1.5a.3.3 0 0 1 .1 0l6.7-.1-5.8.5 8.2.2-6.2.4 5.4 1.2-5.7-1 6.3 3.4-5.8-2.6 3.3 4-3.6-3.8 2.7 4.2-3.6-5 2.5 6.8-3.4-7.5h-.1l2.7 6.6-3.3-7a1 1 0 0 0-.1 0l2 5.5-2.5-5.7h-.2l2.7 7-3.3-7.3a.7.7 0 0 1-.1 0l2.2 5.7-2.7-6h-.3l2.5 5.6-3-5.9 3 8-3.7-8.2h-.2l1.5 3.3-1.8-3.5H85l3 5.8-3.6-6-.4-.1 2.2 3.4-2.6-3.5h-.3l3.3 4.4-3.4-4.1 4.7 6.7-6.2-7.4 2.9 4-3.5-4.1 2.9 4.2-3.4-4.1 3.8 5.3-4.7-5.6 2 2.8L79 29l5 7.2-5.8-7 4.4 6.2-5.5-6.5 3.7 5-4.2-5 4.5 6.5-5-6 2.8 3.8-3.7-4.4 2.8 4-3.3-4a1.2 1.2 0 0 0-.2 0l2 3-2.3-3h-.1l4 5.6-3.9-4.6 2.6 3.7-3.8-4.6H73l2.8 4-3.3-4a1 1 0 0 1-.1 0l2 3-2.3-3a.5.5 0 0 1-.1 0l3.7 5.4-4.3-5.3h-.2l1.5 2L71 29h-.3l2.8 2.8-3.2-2.7h-.1l3.5 3.4-4-3.3a1.2 1.2 0 0 0-.2 0l2.6 2.5-3-2.4a20.6 20.6 0 0 0-1.8.4v-.2Z"/><path fill="#73bf44" d="M68.5 29.3h-.1l-1.7.3-3.4-1.1 2.8 1-5-1.1 4.4 1.4a1.1 1.1 0 0 0-.1 0l-3.6-1L65 30l-6.7-1.6 5.7 1.9h-.1l-3.5-1 3.1 1.1-7-1.8 6.2 2-6.6-.8 5.7 1.2h-.2l-5.5-.8 5 1-.2.1-3.6-.5 3.3.7h-.2l-7.5-1.1 6.6 1.5-7.5-.4 6 .8-3.9-.2 3.4.5-4.5-.3 4.5.6-8.6-.7 7.9 1.2-6.2-.6 5.4.8-4.2-.2 2.8.4-6.2-.4 5.9.8-6.3.4 6.7.1-.2.2-4.4.2h4l-6.3.3 5.8.1-9.1.6 7.8.1-5 .8 5-.4-3.8.7 3.3-.3-9 1.2 7.7-.4-6.5 1.6 6.5-1-6 2.2 5.3-1.5-7.1 3 5.6-1.9-4.3 3 4.6-2.8-4.3 5 4.1-4.2L47 46l1.9-4.6-.9 4.6 1.4-5.6.2 6.8.3-7.7.1-.1V46l.5-7.2v5.4l.4-5.8v-.2l.2 7 .3-7.4.1-.1.1 5.8.3-6.2.2-.1-.2 5.9.6-6.3.1 8 .4-8.4.1-.1-.1 3.4.3-3.6.2-.1-.6 6.1 1-6.5.3-.2-.7 3.7 1-4 .3-.1-1.3 5 1.5-4.7-1.8 7.4 2.8-8.5-1 4.5 1.5-4.9-1 4.7 1.5-4.8-1.4 6 2-6.5a.3.3 0 0 0 .1 0l-.7 3.1 1-3.4h.1l-1.9 8 2.6-8-1.6 6.8 2.4-7.5-1.4 5.6 2-5.9-1.8 7.3 2.3-7-1 4.3 1.6-5-1 4.4 1.5-4.6h.1l-.8 3.2 1.1-3.4-1.4 6.2 1.7-5.3-1 4.1 1.8-5.4-1 4.5 1.5-4.6h.1l-.8 3.2 1.1-3.3-1.3 5.9 2-6.1-.6 2 1-2.1h.1L64 33.4l1.8-3.5a1.5 1.5 0 0 1 .1 0L64 34.2l2.3-4.3h.1l-1.3 3 1.7-3 1.6-.3h.2v-.3Z"/><path fill="#73bf44" d="M68.3 29.8h-.1a18 18 0 0 0-1.4-.6L64.6 27l1.7 2-3.4-3.1 2.9 3.1a1 1 0 0 0-.1 0l-2.3-2.4 1.9 2.3-4.5-4.2 3.6 4a.8.8 0 0 0-.1 0l-2.2-2.4 1.9 2.2-4.6-4.4 3.9 4.3-4.8-3.6 4 3.4h-.3l-3.9-3 3.4 3a.6.6 0 0 1-.1 0L59 26l2.2 1.9H61l-5.2-4.2 4.4 4-5.6-3.6 4.3 3.3-3-1.9 2.5 1.9-3.4-2.2 3.2 2.5-6.3-4.4 5.5 4.4-4.5-3.2 3.8 3-3.1-2 2 1.5-4.6-3 4.1 3.2-5-2.4 5.1 3H55l-3.5-1.8 3.1 1.9-5-2.6L54 28l-7.3-3.5 6 3.5-4.1-1.5 4 1.8h-.1l-3.2-1.2 2.8 1.3-7.6-3 6.1 3L45 27l5.5 2-5.5-.9 4.7 1.1a.2.2 0 0 1-.1 0l-6.8-.8 5.2 1-4.7.4h4.9l-5.6 2 5-1.5-3.2 3 3.5-2.8-2.7 3.1 3.5-3.7h.1l-3 5.4 3.7-5.8h.1l-3 5.1 3.6-5.4-2.3 4.3 2.8-4.4a1.2 1.2 0 0 0 .1 0l-3 5.4 3.6-5.6h.1l-2.5 4.5 3-4.6.2-.1-2.8 4.5 3.2-4.6-3.4 6.2 4-6.3h.2L51.6 31l2-2.7-3 4.5 3.6-4.6h.3l-2.2 2.5 2.5-2.6h.3L52 31.4l3.3-3-4.7 5 6-5.4-2.9 3 3.4-3-3 3.1 3.4-3-3.7 4 4.5-4.1-2 2.1 2.4-2.1-5 5.4 5.6-5.1-4.3 4.5 5.2-4.7-3.5 3.7 4-3.7-4.5 4.9 4.8-4.4-2.7 2.8 3.5-3.2-2.7 3 3.2-2.9-2 2.2 2.4-2.1-3.8 4.2 3.6-3.4-2.6 2.8 3.8-3.4-2.8 3 3.2-3h.1l-2 2.3 2.3-2.2-3.6 4L65 29h.1l-1.4 1.4 1.6-1.3h.2l-2.6 2 3-1.9-3.2 2.5 3.6-2.3a.7.7 0 0 1 .1 0L64 31.1l2.7-1.7 1.4.5h.2Z"/><path fill="#73bf44" d="M66.9 29.4h.2a31.6 31.6 0 0 1 19.2 12.2l5.3 7-4-4.5 2.7 6.5L87 44l1 3.9-1.6-5 .6 4.9-1-5.6-.1-.1-.6 6.8.1-8-.4 6.9v-7.5a1 1 0 0 1-.1 0l-.5 5.6.2-6-.1-.1-.6 7.1.1-7.6a.8.8 0 0 0 0-.1l-.6 6 .2-6.4-.2-.2-.2 6-.2-6.4-.7 8.1.2-8.6-.1-.1-.1 3.6-.1-3.8-.2-.1.2 6.3-.6-6.7-.3-.3.5 3.9-.8-4.1-.2-.2 1 5.2-1.3-5 1.3 7.8-2.2-9 .7 4.7-1.3-5 .8 4.9-1.2-5 1 6.2L78 34l.5 3.3-.9-3.5 1.4 8.3-2.2-8.5 1.2 7.2-2-8 1.1 6-1.5-6.2 1.2 7.6-1.8-7.3.7 4.4-1.3-5.3.7 4.7-1.2-4.9h-.1l.6 3.3-1-3.5 1.1 6.5-1.4-5.6.7 4.3-1.4-5.6.7 4.6-1.2-4.8h-.1l.6 3.3-1-3.5 1 6.2-1.6-6.4a1.5 1.5 0 0 1-.1 0l.5 2.2-.7-2.3-.3-.1 1.3 3.5-1.6-3.6h-.2l1.6 4.4-2-4.6H69l1.2 3.2-1.5-3.3-1.7-.4H67v-.2Z"/></svg>