<svg xmlns="http://www.w3.org/2000/svg" viewBox="0 0 150 150"><path fill="#73bf44" d="M77.2 150h-5l.1-19.5.5-18.7c0-5.5.6-20.4.4-28.7-.2-8.4 4.7-1 4.7-1l-.3 21.6-.3 21c-.1 6.8.2 22.8-.1 25.3Z"/><path fill="#73bf44" d="m116.9 31.2-1.7-.5.8-1-2-.6 1.3-1.6-2.4-.8.5-.7-.2-1.2-1-1 2-2.8-1.5-.4.3-1-2-.3-.6-2.4-1.3-.2-.2-.8-.8-.5.6-.7-2.1-.5.3-.9-.9-.3-.6-.5-.7-.6.2-.8h-2.1l-.2-1.4H101l-.2-2.7-1.5.3-2.5-1.2-2-.4.1.8-2 1.1.1-1.5-1.2-.3-.4.6-2-.2v.5l-.5 1-1.9-.6.4-.7-.3-1.2.3-1.4-.9-.3.3-1.3L85.1.4l-2.3.6-2 .2.3 1.1-2.1.3.2 1.2-2 .4.1.7-3 .1.2-1-2.6-1 .5-.3.2-1-.8-.1-.3-1.6h-4.2l-.8 1.7-1.1-.1.1 1.2-1.7-.2-.1.6-1.5.2.2-1.3-1.7-1-.7 1.2-1.8.5.2.8-1 .8-.8-.7-1 .8-.6.4.4.5-1.2 1.8.6.9-1 .3.6 1.6-1.1.2.4.6-1 .2-1.9-1-.2 1.3-1.9-.5.6 2.1-1.8-.2-.1 1.7-.5.8.6 1-1 .7-1.1-.5.2 2.3h-1.1v1.1l-.5.2.1.9-1.3.3-.5 1.9-.6.1v2.1l1 1-1 .8 1 1-1.4.3.4 1.7-2-.3-.6.8 1.1.6.4 1.2-1.6-.2v.9h-1.6l1.6 3-1.3.3.4 1.2-1.5.5.4.4.1 1.4-1.4.4.6.5v1.4l-1.4-.2v1.5l-.7 1.2 1.2.4-.5 1.6-.7.2V48h-1l.5 1 1.7.4-.6.3.1 1-1 .8 1.4 1-.8.5.9.9-.5.8.8.7-.5.4.5.5-.4.6.7.4-.2.7.6.4-.4 1-1.1.8h.8l.2 1-.1 1.4 2.6-.2-.2.6h2l-.8.7.5.7-.5.6.9 1-.8.8h-.9v1.5l1.9.2-.4.6 1.5.1-.3 1 1.3.7-1 .4.4 1 1.4-.2.4.6.7.2v.5h.7l.2.7h1.8l.2 1 .7-.2.4.6.9-.4.4.7.3.8.8-.5.4 1.2h1.3l-.3.5.3.3.2.6-.5.4.4.3v.4l.7.5-.4.3.1.5 1.5.4.3-.2 1.1.3.7.1.2-.7 1.7 1 .5-.3.4.4.7-.2.2.4.5-.2.2.4h1.4v1h1.3l.1 1 .4-.3.2.4.6-.2v.5l.5.1-.3.5.6.6 1.1-.3.8-.2-.5-.7h.7l.3-.6.7.5.9-.3v.5h.7v.5l.6.4.4-.1.5.4.3-.3.6.2.2-.4.3.3h.3l.1-.7.2.3.2-.2v.5l.7.3.4-.2 3.9.8.3.3.1-.2.1.5h.3l.3-.2.2.4.5-.2.3.3.4-.5.3.2.6-.4v-.4h.6V86l.9.2.5-.3.3.5h.7l-.5.6.7.2 1 .3.5-.6-.2-.4.4-.2v-.3h.5l.2-.3.4.2.1-.8h1l.2-1 1.2.2.2-.4.4.1.2-.3.6.2.4-.4.4.3L95 83l.2.6h.6l1-.4.2.3 1.4-.5v-.4l-.2-.3.6-.3v-.5l.3-.2-.5-.3.2-.6.3-.2-.2-.5h1l.5-1 .6.4.3-.8.4-.5.8.3.4-.5.6.2.1-1h1.7l.1-.5.7-.1v-.5h.6l.3-.6 1.3.2.3-1-.9-.3 1.2-.6-.3-1h1.4l-.4-.5 1.8-.3-.1-1.3h-.8l-.7-.7.7-.9-.3-.5.3-.6-.6-.7h1.8l-.2-.5 2.3.2v-2.1h.8l-1-.8-.4-.8.6-.4-.2-.6.6-.3-.3-.6.4-.4-.4-.4.7-.6-.4-.8.7-.7-.7-.4 1.2-1-.9-.6.2-1-.5-.2 1.5-.4.5-.8h-1v-1l-.7-.3-.3-1.4 1-.3-.7-1v-1.4h-.3v-.5l.8-1-.3-1.2h1l.8-1.5-.6-.5-.1-1v-.8l-.7-.2v-1.3l-1.3-.4-.4-1.1-.6.3-2-1.1 3.2-1.6v-1l1.2-.5v-1l.3-.2 1.3-.4v-1.7Z"/></svg>