<svg xmlns="http://www.w3.org/2000/svg" viewBox="0 0 150 150"><path fill="#73bf44" d="M67 67v.1ZM60.2 57l.1.3a3.8 3.8 0 0 1 0-.5l-.1.2ZM71.2 70.7l.8-.3.1-.9a3.3 3.3 0 0 1-.4.2 16 16 0 0 1-2.3.3l-.2.2a2.2 2.2 0 0 1 .3 0 12.2 12.2 0 0 1 1.7.5ZM62 59.3h-.2v.1h.2ZM53.7 35.5h.2v-.2l-.2.2ZM75.2 70.8h.2-.2ZM61.2 58l.5.8.2-.1a6 6 0 0 1-.3-1.5l-.4.7ZM53.5 37.2a3 3 0 0 0 1 .2 9.1 9.1 0 0 1-1.8 1c.2 0 .4.3.7.5a8.8 8.8 0 0 1-1.3.3 3.8 3.8 0 0 0 1.2.4s-.3.2-.7.4a4.8 4.8 0 0 1-.1 1.1l1-1.1a4.6 4.6 0 0 1-.2 1.8l.7-.8v.7l.6-.2a7.4 7.4 0 0 1-.8-3.3 11 11 0 0 1 1.2.7 8.3 8.3 0 0 1 0-1.4h-.4a5.2 5.2 0 0 1 .5-.4v-.2H55v-.5a6.5 6.5 0 0 1-1.5.8ZM73.6 70.2a9.8 9.8 0 0 1-1.4 1l.2.1.3-.2v.3l.7.3a11.3 11.3 0 0 1-.2-1.1s.1 0 .3.2a4.8 4.8 0 0 1 .1-.6ZM41 12.8ZM96.8 81.8l-.2.3h.3v-.3ZM53.7 43l-.1.7a8.8 8.8 0 0 1 1.5-.2 12.5 12.5 0 0 1-1.4-.5ZM97.9 82.3l-.4.8h.4v-.8ZM59.7 51.6a3.4 3.4 0 0 1 .5-.6l-.7-.4-1.6.5a6.2 6.2 0 0 1 1-1.6 10.1 10.1 0 0 1-2 .2 11 11 0 0 1 1.1-1.5 3.3 3.3 0 0 1-.4-.1 15.6 15.6 0 0 1-2-1l-1.9.6.5.2a8.8 8.8 0 0 1-1.2.8 2.7 2.7 0 0 1 .3.2 12.5 12.5 0 0 1 1.3 1.2h1.7a5 5 0 0 1-1 .8h.6v.2l-.2.2-.4.5a7.1 7.1 0 0 1 1 0l.1-.2.3.3a2.3 2.3 0 0 0 .7 0s-.2.2-.5.4a3 3 0 0 1 .2.4 6.8 6.8 0 0 1 2-.9 2.4 2.4 0 0 1 .6-.2ZM56 36.5l-.3-.3-.3.4.2.2.4-.3ZM52.5 45.7a2.8 2.8 0 0 1-.4.4l.4.5h1.3a4.9 4.9 0 0 1-1.2.9 7.1 7.1 0 0 1 1 .2 5.6 5.6 0 0 1 1.2-1.7l-1.2.4.7-1a2.6 2.6 0 0 1-1.8.3ZM76 15.2a3 3 0 0 1-.6.6l.6-.2v-.4ZM73 88a6.2 6.2 0 0 1 1-1.7 9.9 9.9 0 0 1-2.1.2 11.6 11.6 0 0 1 .8-1.3 5.8 5.8 0 0 1-1.1-.4 3 3 0 0 0 .5 1 9 9 0 0 1-2-.8 8.9 8.9 0 0 1 .2.9 8.9 8.9 0 0 1-1.2-.7 7.1 7.1 0 0 0 .4.9 6 6 0 0 1 2.4.8 8.7 8.7 0 0 1-1.3.6 2.4 2.4 0 0 1 .2.3A12.6 12.6 0 0 1 72 89l1.1.3a3.2 3.2 0 0 1 1.7-1.1 3.3 3.3 0 0 1 .4-.7l-.7-.3-1.5.6ZM97 83v.2h.1ZM95.3 82.1a3.8 3.8 0 0 1-.4.4 2.6 2.6 0 0 1 .4-.1V82ZM72 90.2a70.9 70.9 0 0 0 .6-.1 3.2 3.2 0 0 1-.5.1ZM97.4 84.5l.7-.2V84a4.2 4.2 0 0 1-.7.6ZM75.5 19l-.2-.7a4.1 4.1 0 0 1-.3.5c.1 0 .3 0 .5.2ZM59.3 54.5l-.9.5a6.6 6.6 0 0 1-.4.6h1a8.9 8.9 0 0 1-.9 1 3.8 3.8 0 0 0 1.2-.4s-.1.3-.3.7a5 5 0 0 1 .5 1l.1-.7a14 14 0 0 1-.3-2.7ZM70.6 91.6a8.1 8.1 0 0 1 .8.8 13.2 13.2 0 0 1 .7-1.5 10.4 10.4 0 0 1-1.5.7ZM74.9 18.9a2.7 2.7 0 0 1-.4.4h.6l-.2-.4ZM75.1 17.7a4 4 0 0 1-.4.7l.5-.2v-.5ZM75.2 17l.7.2a8.4 8.4 0 0 1 0-1.4 9.1 9.1 0 0 1-1 1l.3.2ZM74.7 20l-.2.2a5 5 0 0 1 1 .3l-.4-1.2a3.6 3.6 0 0 1-1 .7 1.8 1.8 0 0 0 .6 0ZM24.2 64.6h.2-.2ZM54.6 35.6v-.2l-.1.2h.1ZM72.8 22h-.2l.2.1V22Z"/><path fill="#73bf44" d="M142 32.5a13.8 13.8 0 0 0-3.8.2 14.5 14.5 0 0 0 .8-3.4s-.1.1-1 .9a5.8 5.8 0 0 0 .6-2.3s-.6.6-1.6 1.4a6 6 0 0 0 .3-1.5l1-.3a5 5 0 0 1-1.5-.6 11 11 0 0 0 1.6-.4l-.9-.8a11.5 11.5 0 0 0 2.5-1 3.8 3.8 0 0 1-1.3-.4 10 10 0 0 0 2.8-1.4 8.7 8.7 0 0 0-2.6-.8 4.7 4.7 0 0 0 0-.4h.9a3 3 0 0 1-.7-.6v-.6l-.3.3a8.5 8.5 0 0 0-1-1 11.2 11.2 0 0 0 1.4-.4 7.4 7.4 0 0 0-3-1.7 12.9 12.9 0 0 0 1.2-2.3 14 14 0 0 0-3.5 1.6 14.3 14.3 0 0 0-.6-3.4s0 .1-.5 1.2a5.8 5.8 0 0 0-.4-2.3s-.4.8-1 2a16.4 16.4 0 0 0-2 .9 4.2 4.2 0 0 0-.4.2 11.4 11.4 0 0 0-.3-1.8 9.9 9.9 0 0 0-1.4 1.6 6.2 6.2 0 0 0-.4-1.9s-.2.6-.7 1.5l-.7.2a3.3 3.3 0 0 0-.2-.7c1.4-1.9-.5-5.9-.5-5.9a14 14 0 0 0-1.2 3.6c-.3-.2-.5-.5-.8-.6v-.9l-.6.4-.4-.3a12.2 12.2 0 0 0-.5-2 3.8 3.8 0 0 1-.6 1.3 10 10 0 0 0-1-3 9.1 9.1 0 0 0-1.1 2.2 11.7 11.7 0 0 0-.9-1 15.6 15.6 0 0 1-.1 2.4 6 6 0 0 0-.5-.6s0 .8 0 2a5.5 5.5 0 0 0-1.2-.9 13 13 0 0 0-.7-2 13.8 13.8 0 0 0-1.4 3.6 12.8 12.8 0 0 0-1.3-1.1l.1-.3-.3.1a13 13 0 0 0-1.3-.8s.1.1.4 1v.1a6 6 0 0 0-1.8-1.2l.6 1.7a9.9 9.9 0 0 0-1 .5 14.3 14.3 0 0 0-.5-3.5s0 .2-.5 1.2a5.8 5.8 0 0 0-.3-2.3s-.4.8-1.1 1.9a15.4 15.4 0 0 0-2.1.7 3.3 3.3 0 0 0-.4.3 11.2 11.2 0 0 0-.2-1.9 10 10 0 0 0-1.5 1.5 6.2 6.2 0 0 0-.2-1.9s-.3.6-.8 1.4l-.8.2a3.4 3.4 0 0 0-.1-.7c1.5-1.8 0-6 0-6A13.8 13.8 0 0 0 99 7.3a14.3 14.3 0 0 0-2.7-2.1s0 .1.4 1.2A5.8 5.8 0 0 0 95 4.9l.5 2a6.4 6.4 0 0 0-1.4-1.1l.7 2.6a2.3 2.3 0 0 0 .1.4 4.7 4.7 0 0 0-1-.7l-.1-.9a3 3 0 0 1-.4.6 5 5 0 0 0-.5-.2l.2.5a8.1 8.1 0 0 0-.5.7 10 10 0 0 0-.5-3.1 8.7 8.7 0 0 0-1.6 2.2 5 5 0 0 0-.4-.2l.3-.8a2.9 2.9 0 0 1-.8.5 4.9 4.9 0 0 0-.5-.3l.1.4a8.1 8.1 0 0 0-1.2.7 11.3 11.3 0 0 0 0-1.4A7.4 7.4 0 0 0 85.5 9a12.9 12.9 0 0 0-1.7-1.8 14 14 0 0 0 .4 3.7 14.3 14.3 0 0 0-3.5-.5s.2.1 1 .9a5.9 5.9 0 0 0-2.3-.4s.7.6 1.6 1.6a15 15 0 0 0 .2 2.2 3.3 3.3 0 0 0 0 .5 11.3 11.3 0 0 0-1.7-.3 7.7 7.7 0 0 0 1.9 2.6 10.4 10.4 0 0 1-.3 1.1 11 11 0 0 0-.7-1.5l-.5 1a11.6 11.6 0 0 0-1.5-2.1 3.8 3.8 0 0 1-.2 1.3 9.6 9.6 0 0 0-1.9-2.3l.2-.2-1 .1a5.2 5.2 0 0 0-1-.3 2.4 2.4 0 0 0-.2 0 7.1 7.1 0 0 0 .6-1 6 6 0 0 0-1.3.2 3.8 3.8 0 0 0 .6-1l-1 .3-.4-.1a2 2 0 0 0 .2-.4 6.3 6.3 0 0 0 1.5-2.4 10.8 10.8 0 0 0-1.3.6 8.7 8.7 0 0 0-.5-2s0 0-.2.6a3.6 3.6 0 0 0-.3-1.3s-.2.4-.5 1.1a4 4 0 0 0-.2-.8l.4-.5a3 3 0 0 1-1 0 7 7 0 0 0 .8-.6l-.7-.2A7 7 0 0 0 72 6a2.3 2.3 0 0 1-.7.2 6.1 6.1 0 0 0 1.1-1.6 5.4 5.4 0 0 0-1.6.3v-.3l.4-.2a1.8 1.8 0 0 1-.6-.1 3.1 3.1 0 0 0-.1-.4s0 .1 0 .3a5.1 5.1 0 0 0-1-.3 7 7 0 0 0 .7-.6 4.5 4.5 0 0 0-2-.2 7.7 7.7 0 0 0 0-1.5 8.6 8.6 0 0 0-1.5 1.8 8.8 8.8 0 0 0-1.3-1.8s0 .1 0 .8a3.6 3.6 0 0 0-.7-1.1s0 .5 0 1.3l-.7.7a6.4 6.4 0 0 0-.8-1.6 6.1 6.1 0 0 0-.4 1.3 3.8 3.8 0 0 0-.7-1s0 .4 0 1l-.4.3a2 2 0 0 0-.3-.4c.4-1.4-1.6-3.2-1.6-3.2a8.4 8.4 0 0 0 .1 2.3 8.8 8.8 0 0 0-2-.4s0 0 .5.5a3.6 3.6 0 0 0-1.4-.3s.4.4.8 1a3.7 3.7 0 0 0-.8-.2l-.3-.6a3 3 0 0 1-.3 1 7 7 0 0 0-.3-1 6.7 6.7 0 0 0-.4.5 7 7 0 0 0-.7-1.5 2.3 2.3 0 0 1-.2.8 6.1 6.1 0 0 0-1-1.7 5.7 5.7 0 0 0-.3 1.4 7.7 7.7 0 0 0-.7-.5 9.3 9.3 0 0 1 .2 1.5 3.8 3.8 0 0 0-.4-.3s.1.5.2 1.2A3.4 3.4 0 0 0 52 3a7.8 7.8 0 0 0-.6-1.1A8.4 8.4 0 0 0 51 4a8.8 8.8 0 0 0-2-1l.5.7a3.6 3.6 0 0 0-1.3-.6l.6 1.2a9.4 9.4 0 0 0-.3 1.3 2.1 2.1 0 0 0 0 .3 7 7 0 0 0-1-.5 6 6 0 0 0 .3 1.2 3.8 3.8 0 0 0-1-.4s.1.3.4.8l-.1.5a2 2 0 0 0-.5-.2c-.4-1.4-3-1.9-3-1.9a8.5 8.5 0 0 0 1.2 2 8.8 8.8 0 0 0-2 .6s.2 0 1.2.3a3.1 3.1 0 0 0-1.3 1.2s.5 0 1.2-.2a3.7 3.7 0 0 0-.6.7l-.6-.1a3 3 0 0 1 .6.7 7 7 0 0 0-1-.3 6.7 6.7 0 0 0 .3.7 7 7 0 0 0-1.7-.2 2.3 2.3 0 0 1 .6.6 6.1 6.1 0 0 0-2 0 5.8 5.8 0 0 0 1 .9c-1 .1-1.4 1.7-1.4 1.7l1.1-.6a3.8 3.8 0 0 0-.4.9h-.6c.6.3.5.5 1.2 1l-.2.3a7.3 7.3 0 0 0-1 0 2.3 2.3 0 0 1 .6.5l-.3.6.7-.2.2.2a1.9 1.9 0 0 0 .3.2 7 7 0 0 0-1 .6 6.2 6.2 0 0 0 1.2.4 3.8 3.8 0 0 0-1 .7s.4 0 1 0l.5.5a7 7 0 0 0-1.2.3 6.1 6.1 0 0 0 1.1.7 3.8 3.8 0 0 0-1 .4s.3.1.8.3a7 7 0 0 0-1.7.4l1.6.7a2 2 0 0 0 .2.1 6.8 6.8 0 0 0-.7.9 6.2 6.2 0 0 0 1.3 0 3.8 3.8 0 0 0-.7 1s.3-.2 1-.3l.3.2a2.9 2.9 0 0 0-.6 1.6 11.3 11.3 0 0 0-1.2-1.2s0 .1.1 1a4.6 4.6 0 0 0-1.2-1.4s.1.7.2 1.6a4.8 4.8 0 0 0-.8-.8l.2-.8a6.5 6.5 0 0 1-1.3.9 8.8 8.8 0 0 0 .3-1.6l-.8.4a9.3 9.3 0 0 0 0-2 3 3 0 0 1-.7.7 7.8 7.8 0 0 0-.2-2.4 7.2 7.2 0 0 0-1.3 1.5 9.6 9.6 0 0 0-.4-1 11.9 11.9 0 0 1-.6 1.9 4.8 4.8 0 0 0-.3-.6s-.1.7-.3 1.6a4.2 4.2 0 0 0-.8-1 10 10 0 0 0-.1-1.5 11 11 0 0 0-1.7 2.4 11.2 11.2 0 0 0-1.8-2s0 .1.2 1.1a4.1 4.1 0 0 0-2-.7s.4.6 1 1.4a12.6 12.6 0 0 0-.1 1.8 3 3 0 0 0 0 .3 9 9 0 0 0-1-.3l-.4-.3.2 1.3-.3.5a2.6 2.6 0 0 0-.5-.4c0-1.8-2.9-3.6-2.9-3.6a10.8 10.8 0 0 0 .8 2.9 11.3 11.3 0 0 0-2.8 0s.2 0 .9.5a4.6 4.6 0 0 0-1.8 0s.5.4 1.3 1a4.8 4.8 0 0 0-1.2 0l-.4-.6a3.8 3.8 0 0 1-.2 1.2 9 9 0 0 0-.6-1.2 8.5 8.5 0 0 0-.4.8 9.2 9.2 0 0 0-1.2-1.7c0 .8-.2.8-.2 2.2a2.3 2.3 0 0 0 .1.8 5 5 0 0 0-.8-.2s.4.6 1 1.5a12.6 12.6 0 0 0-.3 1.7 2.6 2.6 0 0 0 0 .4A9 9 0 0 0 16 31a7.9 7.9 0 0 0 .6 1.6A4.9 4.9 0 0 0 15 32s.3.4.7 1v.6c-1-1.5-4-1.8-4-1.8a10.9 10.9 0 0 0 1.8 2.3 11.3 11.3 0 0 0-2.5 1.1s.2 0 1 .2a4.6 4.6 0 0 0-1.6.7s.6.1 1.6.3a5 5 0 0 0-1.3.7s.9.1 2 .4a1.9 1.9 0 0 0 .4 0 3.6 3.6 0 0 0-.9.5l-.6-.2a2.4 2.4 0 0 1 .3.5l-.4.2h.5a5.5 5.5 0 0 0 .3.7 7.8 7.8 0 0 0-2.4-.8 6.9 6.9 0 0 0 1 2h-.3l-.4-.3a2.3 2.3 0 0 1 0 .7l-.4.2h.4a7 7 0 0 0 0 1.2 8.6 8.6 0 0 0-1-.6 5.8 5.8 0 0 0 .6 2.6A10 10 0 0 0 8 45a11 11 0 0 0 2.8 1 11.3 11.3 0 0 0-1.6 2.3s0 0 .9-.4a4.6 4.6 0 0 0-1 1.5s.6-.2 1.6-.5a12.3 12.3 0 0 0 1.6.7 2.9 2.9 0 0 0 .4 0 9 9 0 0 0-.9 1.2 6 6 0 0 0 2.5-.4 7.3 7.3 0 0 1 .7.6 8.8 8.8 0 0 0-1.3 0l.5.7a9 9 0 0 0-2 .3 4.6 4.6 0 0 1 1.1.7l-.2.1a7.2 7.2 0 0 0 1.7.9 9.7 9.7 0 0 0-.8.6 2.4 2.4 0 0 1 .8 0l-.1.2h1.6a4.3 4.3 0 0 0-.8 1 10.4 10.4 0 0 0-1.5.4 8.9 8.9 0 0 0 3.5 1.3 8.7 8.7 0 0 0-.5.8h.9a9 9 0 0 0-.9 1.8 3 3 0 0 1 1-.4 7.8 7.8 0 0 0-.8 2.3 7.7 7.7 0 0 0 1.5-.7 10.1 10.1 0 0 0-.7 1A10.9 10.9 0 0 0 21 61a10.9 10.9 0 0 0 0 2.3 4.7 4.7 0 0 0-.2.7s.6-.3 1.5-.9a12.4 12.4 0 0 0 1.7.3 2.8 2.8 0 0 0 .4 0l-.3.7-.5.1.4.2-.1.2a5 5 0 0 0-1.2.3s.6.3 1.4.7a4.9 4.9 0 0 0-1.1.2l-.6-.6a3.8 3.8 0 0 1 0 1.3 9 9 0 0 0-.7-1.2 8.8 8.8 0 0 0-.3.9 9 9 0 0 0-1.4-1.5 3 3 0 0 1 0 1 7.8 7.8 0 0 0-1.8-1.7 7.5 7.5 0 0 0 0 1.7c-1-.6-2.7.6-2.7.6l1.5.3a4.8 4.8 0 0 0-1 .5l-.7-.4a12.3 12.3 0 0 1 .5 1.9h-.6a10 10 0 0 0-1-.7 3 3 0 0 1 .2 1 9 9 0 0 0-.8.3l.9.4v.4a2.8 2.8 0 0 0 .1.4 8.9 8.9 0 0 0-1.4-.2 7.7 7.7 0 0 0 .9 1.4 4.9 4.9 0 0 0-1.5-.2s.3.3.9.9v.8a9 9 0 0 0-1.4-.6 7.7 7.7 0 0 0 .5 1.5 4.9 4.9 0 0 0-1.4-.5s.2.4.6 1a9 9 0 0 0-2-1c.5.7.3.8 1 2a2.6 2.6 0 0 0 .1.3 9 9 0 0 0-1.4.3 7.6 7.6 0 0 0 1.3 1 4.9 4.9 0 0 0-1.5.4s.4.2 1.1.5a9.3 9.3 0 0 0 .7 1.5 2.4 2.4 0 0 0 .3.5 10.7 10.7 0 0 0-.6 1s0 0 .9-.4a4.6 4.6 0 0 0-1 1.5s.6-.2 1.5-.5a5 5 0 0 0-.6 1h-.8c.6.4.5.6 1.6 1.4a2.5 2.5 0 0 0 .5.4 9.6 9.6 0 0 0-1.5.6 11.8 11.8 0 0 1 1.7.7 4.9 4.9 0 0 0-.5.2s.6.2 1.5.5a4.2 4.2 0 0 0-1 .7 10 10 0 0 0-1.6 0 10.9 10.9 0 0 0 2.3 1.9 11.2 11.2 0 0 0-2.2 1.6s.1 0 1 0a4.6 4.6 0 0 0-1.4 1s.5 0 1.2 0a4.9 4.9 0 0 0-.6.6s.2 0 .5 0a9.7 9.7 0 0 0-1.3.7 3.2 3.2 0 0 1 1 .2c-1 2 .6 5.4.6 5.4l.3-1a4.6 4.6 0 0 0 .5 1.8s.2-.6.5-1.5a5 5 0 0 0 .5 1.3s.3-.9.7-2a1.9 1.9 0 0 0 .1-.4 3.5 3.5 0 0 0 .3 1l-.2.6a2.4 2.4 0 0 1 .4-.3l.3.4V98a6.4 6.4 0 0 0 .8-.3 7.8 7.8 0 0 0-1.1 2.3 6.8 6.8 0 0 0 2-.8 3.5 3.5 0 0 0 .1.4l-.4.4a2.3 2.3 0 0 1 .6 0l.3.4v-.4a6.7 6.7 0 0 0 1.2.2 8.7 8.7 0 0 0-.7.8 5.8 5.8 0 0 0 2.7-.3 10.2 10.2 0 0 0 .3 2 10.9 10.9 0 0 0 1.4-2.6 11.2 11.2 0 0 0 2 1.8s0-.1-.2-1a4.6 4.6 0 0 0 1.3 1.2s-.2-.7-.4-1.7a12.5 12.5 0 0 0 1-1.5 2.6 2.6 0 0 0 0-.4 8.7 8.7 0 0 0 1 1 6.4 6.4 0 0 0 0-2.3l.6-.5a8 8 0 0 0-.1 1l.7-.5a9.1 9.1 0 0 0 0 2 3 3 0 0 1 .7-.7 7.8 7.8 0 0 0 .3 2.4 8.2 8.2 0 0 0 1-1 9.5 9.5 0 0 0 .7 1.6 2.3 2.3 0 0 1 .2-.8 4.7 4.7 0 0 0 .7 1.5s0-.2.2-.7a4 4 0 0 0 .8 1 10.1 10.1 0 0 0 0 1.8 10.8 10.8 0 0 0 1.9-2.2 11.2 11.2 0 0 0 1.5 2.3s0-.2 0-1a4.6 4.6 0 0 0 1 1.4s0-.7 0-1.7a12.4 12.4 0 0 0 1.3-1.3 2.8 2.8 0 0 0 .2-.3 8.8 8.8 0 0 0 .8 1.2 7.7 7.7 0 0 0 .4-1.5 4.9 4.9 0 0 0 1 1.2s0-.5 0-1.3l.4-.4a2.7 2.7 0 0 0 .4.5c-.4 1.8 2.1 4 2.1 4a11 11 0 0 0-.1-3 11.2 11.2 0 0 0 2.6.6s0 0-.7-.7a4.6 4.6 0 0 0 1.8.3s-.5-.4-1.1-1.1a4.9 4.9 0 0 0 1.1.1l.3.8a3.9 3.9 0 0 1 .5-1.2 9 9 0 0 0 .3 1.3l.6-.7a9 9 0 0 0 .8 1.9 3 3 0 0 1 .3-1 7.8 7.8 0 0 0 1.2 2.1 8.2 8.2 0 0 0 .4-1.4l.5-.6a5 5 0 0 0 1 0s-.3-.2-.7-.6l.2-.4a11.3 11.3 0 0 0 1.8 2s0-.1 0-1a4.6 4.6 0 0 0 1 1.4s0-.7 0-1.8a12.3 12.3 0 0 0 1-1.4 2.7 2.7 0 0 0 .2-.3 9.1 9.1 0 0 0 .9 1 7.8 7.8 0 0 0 .2-1.5 5 5 0 0 0 1 1s0-.4 0-1.2l.3-.4a2.5 2.5 0 0 0 .5.4c-.2 1.8 2.6 3.8 2.6 3.8a10.9 10.9 0 0 0-.5-3 11 11 0 0 0 2.7.2s-.1 0-.8-.6a4.6 4.6 0 0 0 1.8.1s-.5-.4-1.2-1a5 5 0 0 0 1.4 0s-.7-.5-1.6-1.3a1.9 1.9 0 0 0-.4-.3 3.6 3.6 0 0 0 1 0l.5.6a2.5 2.5 0 0 1 0-.6h.4l-.4-.3a7.2 7.2 0 0 0 0-.7 7.8 7.8 0 0 0 1.8 1.8 6.8 6.8 0 0 0 0-2.1h.4l.1.6a2.4 2.4 0 0 1 .3-.7h.5l-.3-.2a6.8 6.8 0 0 0 .5-1 9.1 9.1 0 0 0 .6 1 5.8 5.8 0 0 0 .7-2.7 10.1 10.1 0 0 0 2 .4 14 14 0 0 0-.9-1 13.2 13.2 0 0 0 2.8-1.6l.2 1-.5.6h.6l.2.6a12 12 0 0 0-1 1.8c.9-.6 1-.3 2.6-1a6 6 0 0 0-.2 2.2s.5-.6 1.3-1.5a6.3 6.3 0 0 0 0 1.8s.7-.9 1.7-2a5.8 5.8 0 0 0 .1 2.3s.5-.9 1.4-2a12.3 12.3 0 0 0 1.3 1.6 4 4 0 0 1 0-1.4 6.4 6.4 0 0 0 1 1.4s0-.7.1-1.7a14.4 14.4 0 0 0 2 2s0-.2-.2-1.3a6 6 0 0 0 1.6 1.7s-.2-.9-.3-2a6.3 6.3 0 0 0 1.3 1.2s0-.3-.1-.7c2.3 1 5.9.4 5.9.4l-1.1-.7a5.9 5.9 0 0 0 2.3 0s-.8-.5-1.9-1.3a15.9 15.9 0 0 0-.5-2.2 3.5 3.5 0 0 0-.2-.4 11.6 11.6 0 0 0 1.8 0 9.7 9.7 0 0 0-1.4-1.6 6.2 6.2 0 0 0 2-.1s-.6-.4-1.4-1l-.2-.7a3.4 3.4 0 0 0 .8 0c1.7 1.6 5.9.3 5.9.3a13.8 13.8 0 0 0-3.4-1.8 14 14 0 0 0 2-2v.4c.4-1 .7-.8 1.5-2.3a3.3 3.3 0 0 0 .2-.5 11.1 11.1 0 0 0 1.3 1.4 10 10 0 0 0 .2-2 6.2 6.2 0 0 0 1.4 1.3s0-.7-.2-1.6l.5-.7c1.9 2.2 6.7 1.6 6.7 1.6l-1-.7a5.9 5.9 0 0 0 2.3 0s-.7-.4-1.6-1.2a6.2 6.2 0 0 0 1.4 0l.6.9a5 5 0 0 1 .3-1.6 11.3 11.3 0 0 0 .7 1.5l.5-1a11.3 11.3 0 0 0 1.5 2.2 3.8 3.8 0 0 1 .1-1.3 10 10 0 0 0 2 2.4 9.6 9.6 0 0 0 .3-2.1 13 13 0 0 0 .7 1.4 13.7 13.7 0 0 0 .9-3.6 14.2 14.2 0 0 0 3 1.6l-.6-1a5.9 5.9 0 0 0 2 1s-.4-.8-.9-2a15.6 15.6 0 0 0 .7-2.1 3.7 3.7 0 0 0 0-.5 11.4 11.4 0 0 0 1.6 1 10 10 0 0 0-.4-2.1 6.2 6.2 0 0 0 1.7.9s-.2-.6-.6-1.5l.2-.7a3.3 3.3 0 0 0 .7.3c.6 2.3 4.8 3.4 4.8 3.4a13.9 13.9 0 0 0-1.9-3.3 14.3 14.3 0 0 0 3.3-1s-.1 0-1.2-.3a5.8 5.8 0 0 0 2.2-.7s-.7-.2-1.9-.7a6.3 6.3 0 0 0 1.7-.5s-1-.4-2.5-1a2.3 2.3 0 0 0-.5-.1 4.5 4.5 0 0 0 1.3-.4l.7.3a3.2 3.2 0 0 1-.3-.6 5 5 0 0 0 .5-.2s-.2 0-.6-.2a7.2 7.2 0 0 0-.2-.9 10 10 0 0 0 2.9 1.5 8.6 8.6 0 0 0-1-2.6l.5-.1.4.6a2.9 2.9 0 0 1 0-1 5.5 5.5 0 0 0 .6-.2s-.2 0-.4-.1a8.4 8.4 0 0 0 .2-1.4 11.5 11.5 0 0 0 1 .9 7.3 7.3 0 0 0-.2-3.4 12.9 12.9 0 0 0 2.5-.4 13.8 13.8 0 0 0-3.3-1.9 14.3 14.3 0 0 0 2.4-2.5s-.1 0-1.2.3a5.9 5.9 0 0 0 1.5-1.6s-.8.1-2.1.3a15.5 15.5 0 0 0-2-1.1 3.8 3.8 0 0 0-.4-.2 11.2 11.2 0 0 0 1.3-1.3 8.1 8.1 0 0 0-3 0l-.6-.7a11 11 0 0 0 1.2.2 10.8 10.8 0 0 0-.5-1 11.6 11.6 0 0 0 2.7 0 3.8 3.8 0 0 1-1-1 10 10 0 0 0 3.1-.2 10.5 10.5 0 0 0-1.3-1.2 12 12 0 0 0 2.1-1 3 3 0 0 1-1-.2 6 6 0 0 0 2-.8s-.4-.1-1-.3a5.4 5.4 0 0 0 1.3-1 12.9 12.9 0 0 0 2.4.2 13.8 13.8 0 0 0-2.8-2.6 14.3 14.3 0 0 0 3-1.9s-.2 0-1.3 0a5.8 5.8 0 0 0 2-1.2s-1 0-2.3-.1a15.7 15.7 0 0 0-1.6-1.6 3.3 3.3 0 0 0-.3-.3 11.4 11.4 0 0 0 1.5-1 10.2 10.2 0 0 0-2-.6 6.3 6.3 0 0 0 1.6-1.1s-.6 0-1.6-.1l-.5-.6a3.2 3.2 0 0 0 .6-.4c2.3.6 5.3-2.7 5.3-2.7ZM41 12.8Zm55.8 69v.3h-.2l.2-.3Zm1.1.5v.7h-.4l.4-.7ZM57.1 52.7a3 3 0 0 0-.2-.4l.5-.3a2.3 2.3 0 0 1-.7 0l-.3-.4v.3a7.1 7.1 0 0 0-1.1-.1l.4-.5.2-.2v-.2h-.6a5 5 0 0 0 1-.8s-.7 0-1.7 0a12.5 12.5 0 0 0-1.3-1.2 2.7 2.7 0 0 0-.3-.2 8.8 8.8 0 0 0 1.2-.8l-.5-.2c.4 0 1-.3 1.8-.5a15.6 15.6 0 0 0 2 .9 3.3 3.3 0 0 0 .5 0 11 11 0 0 0-1 1.6 10.1 10.1 0 0 0 2-.2 6.2 6.2 0 0 0-1 1.6l1.5-.5.7.4a3.4 3.4 0 0 0-.5.6 2.4 2.4 0 0 0-.7.2 6.8 6.8 0 0 0-2 .9ZM54.8 46a5.6 5.6 0 0 0-1.3 1.7 7.1 7.1 0 0 0-1-.2 4.9 4.9 0 0 0 1.3-1s-.5 0-1.3 0l-.4-.4a2.8 2.8 0 0 0 .4-.4 2.6 2.6 0 0 0 1.8-.4l-.7 1.1 1.2-.4Zm1-9.8.2.3-.4.3-.2-.2.3-.4Zm-2 6.8a12.5 12.5 0 0 0 1.3.5 8.8 8.8 0 0 0-1.5.2l.1-.7Zm7.9 15.8-.5-.9.4-.7a6 6 0 0 0 .3 1.5l-.2.1Zm.3.5-.1.1v-.1h.1Zm-1.7-2-.1-.3.1-.2a3.8 3.8 0 0 0 0 .5Zm13 14.4-.7-.3.1-.3-.3.2h-.2a9.8 9.8 0 0 0 1.4-1.1 4.8 4.8 0 0 0 0 .6l-.4-.2a11.3 11.3 0 0 0 .2 1.1ZM69.5 70a16 16 0 0 0 2.3-.3 3.3 3.3 0 0 0 .4-.2v.9l-1 .3a12.2 12.2 0 0 0-1.6-.5 2.2 2.2 0 0 0-.3 0l.2-.2Zm5.8.8h.2-.2ZM55 37v-.1.2a5.2 5.2 0 0 0-.4.4s.2 0 .4 0a8.3 8.3 0 0 0 0 1.4 11 11 0 0 0-1.2-.7 7.4 7.4 0 0 0 .8 3.3l-.7.2V41l-.6.8a4.6 4.6 0 0 0 .3-1.8s-.5.5-1.1 1.1a4.8 4.8 0 0 0 .1-1.1l.7-.4a3.8 3.8 0 0 1-1.2-.4 8.8 8.8 0 0 0 1.3-.3l-.7-.6a9.1 9.1 0 0 0 1.8-.9 3 3 0 0 1-1-.2 6.5 6.5 0 0 0 1.4-.8v.6Zm-1.3-1.5.1-.2v.2ZM67 67Zm8.5-48-.5-.3a4.1 4.1 0 0 0 .3-.5l.2.7Zm.5-3.9v.4l-.6.2a3 3 0 0 0 .6-.6Zm0 .6a8.4 8.4 0 0 0 0 1.4 11.3 11.3 0 0 0-1-.4 9.1 9.1 0 0 0 1-1Zm-.9 2 .1.4-.5.2a4 4 0 0 0 .4-.7Zm-.2 1c0 .2 0 .3.2.5h-.6a2.7 2.7 0 0 0 .4-.4Zm.2.5.4 1.2a5 5 0 0 0-1-.3l.2-.1a1.8 1.8 0 0 1-.6 0 3.6 3.6 0 0 0 1-.8ZM72.8 22v.1h-.2l.2-.1ZM54.6 35.6h-.1v-.2l.1.2Zm-30.4 29h.1-.1ZM59 57l.3-.7a3.8 3.8 0 0 1-1.2.4 8.9 8.9 0 0 0 .8-1H58a6.6 6.6 0 0 0 .4-.7l.9-.4a14 14 0 0 0 .3 2.7l-.1.7a5 5 0 0 0-.5-1Zm11.6 34.7a10.4 10.4 0 0 0 1.5-.7 13.2 13.2 0 0 0-.7 1.5 8.1 8.1 0 0 0-.8-.8Zm1.5-1.4a3.2 3.2 0 0 0 .5-.1l-.2.2h-.3Zm2.7-1.9a3.2 3.2 0 0 0-1.7 1c-.2 0-.7 0-1.1-.2a12.6 12.6 0 0 0-1.2-1.3 2.4 2.4 0 0 0-.2-.3 8.7 8.7 0 0 0 1.3-.6 6 6 0 0 0-2.4-.8 7.1 7.1 0 0 1-.4-.9 8.9 8.9 0 0 0 1.2.7 8.9 8.9 0 0 0-.1-1 9 9 0 0 0 2 .8 3 3 0 0 1-.6-.9 5.8 5.8 0 0 0 1.1.4 11.6 11.6 0 0 0-.8 1.3 9.9 9.9 0 0 0 2-.2 6.2 6.2 0 0 0-1 1.6s.6-.2 1.6-.6l.7.3a3.3 3.3 0 0 0-.4.7Zm20.5-6.2v.3a2.6 2.6 0 0 0-.4 0 3.8 3.8 0 0 0 .4-.3Zm1.8 1-.2.1.2-.1Zm.3 1.4a4.2 4.2 0 0 0 .6-.6v.4l-.6.2Z"/><path fill="#73bf44" d="M54.3 150.4h8s1-8.9 4-14.9 6.6-7.6 9.2-16.8c2.6-9.1 1.6-9.7 6-12.8a46.8 46.8 0 0 0 12.1-11.6c4.7-6.1 14.8-20.7 14.8-20.7h-2.8s-6 9-10.6 14.9c-4.6 5.8-12 14-14 14-1.9 0-1-2.8 1-6.3s8.3-14.6 9.4-18.5l-4.8.3a74.4 74.4 0 0 1-7 15.6c-5.1 8.5-4.7 7.5-6.4 15a61.7 61.7 0 0 1-7 18.7c-2 2.3-2.7-3-2.1-7.2.6-4.3 2.7-22 1.3-31.5l-4.1 1.7s.4 12 0 18.2c-.2 6.3-1.4 13.5-1.2 15.7.2 2.1-3.2-3-3.2-5.6 0-2.7-4-12.2-9.3-18l-1.4 1.6s5 5.2 6.4 9.8c1.4 4.5 2.1 9.2 4.2 12.9 2 3.6 3.1 6.4 1.7 12-1.4 5.5-3.5 9.7-4.2 13.5ZM60.3 80c14 0 27.4-12.2 26.7-26.7a27.3 27.3 0 0 0-26.7-26.8c-14 0-27.5 12.3-26.8 26.8A27.3 27.3 0 0 0 60.3 80ZM73.5 22.9c3.8 0 3.8-6 0-6s-3.9 6 0 6Z"/><path fill="#73bf44" d="M74.8 20.8c3.9 0 3.9-6 0-6-3.8 0-3.8 6 0 6ZM70 92.7c7 0 7-11 0-11s-7.1 11 0 11ZM91.4 93c7 0 7-11 0-11s-7 11 0 11Z"/><path fill="#73bf44" d="M94.3 87.7c7 0 7-11 0-11s-7 11 0 11Z"/></svg>