<svg xmlns="http://www.w3.org/2000/svg" viewBox="0 0 150 150"><path fill="#73bf44" d="m25 104-1 2a3 3 0 0 0 0 1v2a16 16 0 0 1-1 6c0-4 1-7-1-10v9a59 59 0 0 1 0-14 12 12 0 0 0-2 7v-4l-2 3-1 1c0-1 0 0 0 0-1 0 0 0 0 0v-1c0-2 0-2 2-3a3 3 0 0 0 1-2 9 9 0 0 0 0-1l-1 1-1-3a14 14 0 0 0 0-5 3 3 0 0 1 0-2l-1-3-1 5v-6 1-3c-1 0-2 4-1 5l1 5c-2-1-1-2-2-4a4 4 0 0 0 0 3 7 7 0 0 1 0 3 4 4 0 0 0 0 3 4 4 0 0 1-1 3v-2l-1 1a2 2 0 0 1 0-2l1-1a2 2 0 0 1 0-1 36 36 0 0 0 0-5l1 2a2 2 0 0 0-1-2 1 1 0 0 1 0-1v-3a22 22 0 0 1 0-4 5 5 0 0 1 1-3v-4l-1 3-1 2v-2l-1 2a7 7 0 0 1 1-3 4 4 0 0 0 1-3l-1 2 1-4a5 5 0 0 0 0-3l-1 3-1 3v3s0 1 0 0h-1a31 31 0 0 0 0-7 2 2 0 0 1 1-2v6-3a6 6 0 0 1 1-2v-1c-1 0 0 0 0 0l1-3a3 3 0 0 1 0-1l-1 1v-1l-1 3-1-1v1a3 3 0 0 0-2 3 8 8 0 0 1 0 4v2-2l-1 1-1 1v1-3l1-1a14 14 0 0 0 0-4 2 2 0 0 0-1 3v1a14 14 0 0 1-1-4l2-2v-1a3 3 0 0 1 0-3l-1 1c-1 0-1 0 0 0v2c-1 1-2 3-1 4a3 3 0 0 1-1 3v-1a14 14 0 0 0 0-2 16 16 0 0 0 0-2v-1a2 2 0 0 0 0-3l-1 2a5 5 0 0 0-1 4v3-1c0-2-1-5 1-7a2 2 0 0 0 1-2 5 5 0 0 1 0-1v-1l-1 1H2l-2 1a7 7 0 0 1 4-2v-1a7 7 0 0 1 1-3v1a2 2 0 0 0 1-1v-2a2 2 0 0 0-2 1H3v-1a9 9 0 0 1 2-2h1v1a2 2 0 0 0-1 0 2 2 0 0 0 0 1c2 0 2 0 3-2a15 15 0 0 1 1-1 8 8 0 0 0-1 3l2-1-1 1-1 1h3a6 6 0 0 0 2 1c1 0 1 0 0 0l-2-4 2-2v-1a3 3 0 0 0 2-1l1 1 1-4-1 1h-1a3 3 0 0 0-3 1v1-1a3 3 0 0 1-3 1 2 2 0 0 1 1-1 7 7 0 0 0 2-2h3v-1l-1 1a1 1 0 0 1 0-2l2-1v-1l1-1h-1v-1c-2 0-3 2-5 3a4 4 0 0 1 3-3h1l1-1h-1l-1-1a3 3 0 0 0-2 1 21 21 0 0 1-1 2l-1 1v-1l4-4a4 4 0 0 1 3-1 3 3 0 0 0 1-1 9 9 0 0 1 9-1 4 4 0 0 1 2 1h-1l2 1c0 1 0 0 0 0h2a11 11 0 0 1 1-1h1c0-2 2-3 3-3a1 1 0 0 0 1 0 6 6 0 0 0 1 0l1-1v-2h2a6 6 0 0 1 4-2h-5a17 17 0 0 0-5 1l1-2v-1l-1-2-1 1h-1a2 2 0 0 1 1-1 4 4 0 0 0 2-2 5 5 0 0 1 1-2v2l-1 1 2-1a3 3 0 0 1 2-1 15 15 0 0 1-3 2 2 2 0 0 0-1 2 11 11 0 0 0 0 3c1-2 2-3 4-3l1-1h2l-1 1a14 14 0 0 0 5 0h1a1 1 0 0 0-1-1 6 6 0 0 0-1 1 8 8 0 0 1-2-1 9 9 0 0 1 3 0 4 4 0 0 0-5-3 3 3 0 0 1-2 0h3a3 3 0 0 0-3-2l-3 1v-1a12 12 0 0 1 3-1h-5a6 6 0 0 1 4 0h2a2 2 0 0 1 1 1l4 3a8 8 0 0 1 2 2c1 2 2 2 3 2a10 10 0 0 1 6-1 2 2 0 0 0 2-1h-2a26 26 0 0 1 4-1l3-2c-1-1 1 0 1-1l-3 1-2 1c0-1 0-2-2-1a8 8 0 0 1-2 0l2-2v1h8c-1-2-1-2-3-2v-1a1 1 0 0 1-1-1c1 0 2 2 4 1v2-1a1 1 0 0 0 1 1 4 4 0 0 1 2 1h1l1 1c0-3-2-4-4-4v-1l-2-1h-4v1h-2a8 8 0 0 1 3-1l1-1v-1l-2-1 5 1h-3l3 2h1v-1a3 3 0 0 1 0-1 3 3 0 0 1 1 2 10 10 0 0 0 2 3 6 6 0 0 1 2 2s0 1 0 0a2 2 0 0 0 1-2c2 1 3-1 4-1l-3-2h-1l-1 1-1-1a2 2 0 0 1-1 0l2-1 4 2a1 1 0 0 0 1 1 10 10 0 0 1 3-1l-2-1h2a5 5 0 0 1-1 0l-1-1c1 0 0 0 0 0a8 8 0 0 1-2-2 4 4 0 0 1 2 1h3l1 1c1 1 2 0 2-1v-3c1 0 1 2 3 1a1 1 0 0 0 0 1l2 4v-1l1 2v-2a2 2 0 0 1 1 2h1v-1h1l2-1a2 2 0 0 1-1 1h-1 1a9 9 0 0 1 4-2 1 1 0 0 1 1 1 18 18 0 0 0-4 1 6 6 0 0 1 5 0v1a25 25 0 0 0-4-1v1a7 7 0 0 0 1 0h1a8 8 0 0 1 0 1 1 1 0 0 0 0 1h1a1 1 0 0 1 1 0l-1 1h1s1-1 1 1c1 0 2 0 1-1v-1a3 3 0 0 1 2 1l-2 1h1a18 18 0 0 1 3-1h-1a1 1 0 0 1 1-1 2 2 0 0 0 2 0c1 0 0 0 0 0a2 2 0 0 1-2 2h-1 4-1a10 10 0 0 0-3 0 6 6 0 0 0-2 1l3 1-1 1h1a13 13 0 0 1 2 1v1h-1l1 2h-1l1 1a6 6 0 0 0 2 0v-1l-1-1 2 1a11 11 0 0 1 3-1h1-1a6 6 0 0 1-1 1 2 2 0 0 0-2 1l1 2 2 1a3 3 0 0 1 1 1l-3-1s0-1 0 0c-1 0 0 0 0 0a1 1 0 0 0 1 1 1 1 0 0 1 1 0v1l2 1a5 5 0 0 0 2 1c2-1 3-1 4 1a4 4 0 0 0-3-1 3 3 0 0 0-1 0h-1l1 2a2 2 0 0 1 1 0h-1v1h1c2-1 3 0 5 1a2 2 0 0 0 1 0 4 4 0 0 1 2 1 6 6 0 0 1-2 0l1 3h-1l1 1a21 21 0 0 1 6 3 8 8 0 0 0 4 2 2 2 0 0 1 1 2v-1h-1l-4-1a2 2 0 0 1-1-1 2 2 0 0 0-2-1l2 4a3 3 0 0 1-1 0h-1v3l-1-3v6l-1-1a1 1 0 0 0-1 0v1l1 1c-1 1 0 1 1 1h2l2 1h1a9 9 0 0 0 1-1l1-1v1a10 10 0 0 1-1 1l-1 1a1 1 0 0 0-2 1 14 14 0 0 0-2 3c-1 1 0 2 1 2v-2a2 2 0 0 1 1 2 1 1 0 0 0 1 1 5 5 0 0 0 3-1h1v1l5 1a4 4 0 0 1 2 2 4 4 0 0 1-1-1 10 10 0 0 0-4-1h1l3 3a6 6 0 0 1-2-1 12 12 0 0 1 2 3 9 9 0 0 1 2 5l1 4a8 8 0 0 1 1 3 2 2 0 0 0 1 1v1c-1 0 0 0 0 0v5l-1-1v-4a2 2 0 0 0-1-2l1 7a2 2 0 0 1 0 1h-1a7 7 0 0 1 0-3 10 10 0 0 0 0-3l-1 4a4 4 0 0 1 0-2 20 20 0 0 0 0-4l-1-1h-1l1 1a15 15 0 0 0 0 5l-1-4a16 16 0 0 1 0 3 9 9 0 0 0-1 2v1l-1-3a4 4 0 0 1 0 2 4 4 0 0 1-1-2 2 2 0 0 0-1-1l2 5v-1 1l1-1a1 1 0 0 1 0 1v6l-1 1v-1a15 15 0 0 0-1-5l-1-1v1a20 20 0 0 1 1 3v6l-1-8h-1a16 16 0 0 1 0 3 15 15 0 0 0 1 5h-1v-3a18 18 0 0 0 0-4 2 2 0 0 0-1-1 4 4 0 0 0 0 2v1l-1-1-1-6-1 7c0-5 2-9 1-13l-1 4v-1a13 13 0 0 0-1-2 16 16 0 0 1 0-3v-1h-1a1 1 0 0 0 0 1 8 8 0 0 1 0 3v2a13 13 0 0 1 1 5 29 29 0 0 1-1 4 9 9 0 0 0 1 4l-1 1c1-1 1 0 1 1a5 5 0 0 0 1-4 2 2 0 0 1 1 3 26 26 0 0 0-2 2l1 1v1h-1v-1l-1-1-1-2-1-3a13 13 0 0 1 0-3 1 1 0 0 0-1-1 1 1 0 0 0 0 1 12 12 0 0 1 1 6l-1 1v2a9 9 0 0 1 0 2v1l-1-1v-9a3 3 0 0 0-1 4 1 1 0 0 1 1 2v3l-1 1v1l-1 1v-1a28 28 0 0 0 0-7h-1v1l-1 3v-1l-1-4v-1 8l-1 1v-1 2a2 2 0 0 1-1-1 7 7 0 0 0-1-3v-1l1 2 1-4-1-1a10 10 0 0 1 0-2 6 6 0 0 0 0-3 10 10 0 0 0-1 2 14 14 0 0 0 0 6h-1v1a1 1 0 0 1 0-1 3 3 0 0 0 0-1v-1l-1 1a12 12 0 0 0 0 3h-1a21 21 0 0 0-2-4 4 4 0 0 0-1 4l-1-1a3 3 0 0 1 0-1v-9l-1-9a3 3 0 0 0 0 2v2a1 1 0 0 0 0 1 7 7 0 0 1 0 4v6l-1-7-1 5v-4 8l-1-1 1 10h-1v-2h-1v4-7l-1 1v2a3 3 0 0 1 0 2l-1-4c1-1-1-2-1-3v5l-1-1v-4 1a17 17 0 0 0 0 5v3a3 3 0 0 1 0-2l-1-4-1 2a11 11 0 0 1 0-3v-1l-1 1-1-3a15 15 0 0 1-1 6 4 4 0 0 1-1-4 3 3 0 0 0 0 3l-1 2v1l-1-2a32 32 0 0 0-2 6v1l-1-1v-3a2 2 0 0 0 1-2l-1-2h-1v7a3 3 0 0 1-1 2 3 3 0 0 1 0-2 8 8 0 0 0 0-3 21 21 0 0 1 0-4c-1 1 0 2-1 1v1a4 4 0 0 1 0 2l-1-3-1 2-1 2v8a34 34 0 0 0 0 4v1h-7l-1-1v-15a2 2 0 0 0 0-2 1 1 0 0 1 0-1l1-3-1 3a1 1 0 0 1-1 0v-3l-1-4a31 31 0 0 1-2-3 3 3 0 0 0-1-1h-2v-1 1a4 4 0 0 0-1 2h-1v-3l-1-2-1 2a9 9 0 0 0 0 1v1a3 3 0 0 1 0-1 3 3 0 0 0-1-2 2 2 0 0 1 0-1l-1-1v2l-3 1 1 2 1 5v1-1a7 7 0 0 0-2-3v-2a11 11 0 0 0 0 4l1 5a30 30 0 0 0 0 5 26 26 0 0 1 0 3 10 10 0 0 0 0 2l-2-1v6a4 4 0 0 0 2 3 1 1 0 0 1 0 1l-1-1a1 1 0 0 0-1 1 3 3 0 0 0 1 1h-1v1l-1-1-1-5v5l-1 2v1a2 2 0 0 0 0 3c-1 1-1 0-1-1v-4a3 3 0 0 0 0-1l1-8a11 11 0 0 0-2-4v-2l-1 4 1-2-1 4-1-1a1 1 0 0 0 0 1v3l-1-1a1 1 0 0 0 0 1v5a5 5 0 0 1 0 3l-1-5v-2l-1-2v3-4a4 4 0 0 0-1 1v1-1l-1-1v-1l-1 1a4 4 0 0 1 0-2 2 2 0 0 0 0-2 2 2 0 0 1 0-2l-1-4v2-1l-1 1v-3l-1 3a1 1 0 0 1-1-1v-1 1a15 15 0 0 0-1-2 2 2 0 0 1-1-2v-4a75 75 0 0 0-1 8v-2l-1 5-1-5v-6 1l-1-1a25 25 0 0 0 0-3v4l-1 1h-1l-1-2a14 14 0 0 0 0 2v2-2l-1-1v4a2 2 0 0 1-1 1v-1 1a10 10 0 0 1 0 2l-1-1v3-11l-1-1-1 1a9 9 0 0 0 0 3 11 11 0 0 1 0 4 6 6 0 0 0 1 2 2 2 0 0 1-1 2v-11a13 13 0 0 1-1 5 10 10 0 0 1 0-4 49 49 0 0 0 0-6 18 18 0 0 1 0-4 4 4 0 0 0 0-2l-1 5a3 3 0 0 1 0-2 9 9 0 0 1 0-2v10a2 2 0 0 1-1-2 43 43 0 0 0 0-5l-1 3s1 0 0 0v-1l-1 5v-5 2a12 12 0 0 0 0-3l-1 2-1-5v2a8 8 0 0 1 0 3h1Zm-5-20v-6l-1 2v-4 3l1-4v-2a1 1 0 0 0-1-1l-1 1-1 2a4 4 0 0 0 0 4l1-2a2 2 0 0 1 0 1 7 7 0 0 0 1 4 2 2 0 0 1 0 1l-1-1v1a4 4 0 0 0 0 1v2l1-1v-1h1v3l-1-1h-1v2l1 6v-2l1-5a5 5 0 0 0 0-3Zm123-3a10 10 0 0 0-1-4 4 4 0 0 0-2-3 4 4 0 0 1-2-1 3 3 0 0 0-2 0h-1l1 1c2 0 3 1 4 3l-2-2a4 4 0 0 0-2-1v1a2 2 0 0 0-2-2 13 13 0 0 0-2 0h1-1a3 3 0 0 0 3 3 4 4 0 0 1 2 0l2 1a5 5 0 0 1 3 3l1 1ZM8 67a8 8 0 0 0 0 2l1 1 1-1c1-1 1-2 3-2a4 4 0 0 0 0-2h-1v-1l2-1c1 0 1 0 0 0h-3l-1 1c-2 0-2 2-2 3Zm129 10v1a2 2 0 0 0 0 2 13 13 0 0 0 4 5 1 1 0 0 0 0-1 12 12 0 0 1 0-3 3 3 0 0 0 0-1l-1-1v1a2 2 0 0 1-1 0c0-2-1-3-2-3ZM36 107a9 9 0 0 0 0-2l1 4c0-2 2-3 1-5l-1-2h1l-1-4c-1 1-2 7-1 9ZM13 62a8 8 0 0 1-3-1 3 3 0 0 0-4 0l-1 4v1h1v-2l1-1v-1a4 4 0 0 1 2-1l-2 2a1 1 0 0 0 0 1l1-1a15 15 0 0 1 5-1Zm116-3v-2a8 8 0 0 0-3-4l-1-1v2a39 39 0 0 1 1 3l1 1 1 1a1 1 0 0 0 1 0Zm-66 62c0-4 1-8-1-12a5 5 0 0 0-1 2 23 23 0 0 0 1 5 9 9 0 0 1 0 2l1 3ZM83 19l2 2a2 2 0 0 0 3 1v1h-1l1 1 1-1v-1c0-2-2-2-4-3h-2ZM38 30h2a24 24 0 0 0 4 0 9 9 0 0 1 3 0h2l-2-1h-3v-1h-2a13 13 0 0 0-4 2Zm74 25 2 2 1 1v-1a11 11 0 0 1-1-3 2 2 0 0 0 0-1 1 1 0 0 0-1-1v2l-1 1ZM57 30h-6v1a1 1 0 0 0 1 0 3 3 0 0 1 1 0c3 0 4 0 5-2h-3a3 3 0 0 1 2 1Zm73 36-2-1h-1a1 1 0 0 0 1 1c2 1 2 1 4-1v-1h-4c-1 0 0 0 0 0l2 2ZM17 69l-1-1a4 4 0 0 0-2 5h1a4 4 0 0 0 2-4Zm74 46a12 12 0 0 0 2-8l-1 2a2 2 0 0 0-1 1 12 12 0 0 0 0 5ZM34 96a3 3 0 0 0 0 3v2l-1-1v3l1 1v-2l1 1a37 37 0 0 0 0-4l1-1v-1a5 5 0 0 0-1 1v2l-1-4ZM19 40l4-1a3 3 0 0 1 3 0h1a8 8 0 0 0-8 1Zm109 48a11 11 0 0 1 0 2v6l1-5a5 5 0 0 0-1-3ZM85 23l-2-2h-2l-1 1a2 2 0 0 0 1 1 2 2 0 0 0 1 0h3Zm-54 83v-1a5 5 0 0 1 1-2v-6h-1a2 2 0 0 0 0 2v7Zm10 7 1-3a1 1 0 0 0 0-1 7 7 0 0 1-1-4 8 8 0 0 0 0 2l-1 1 1 1v4Zm39-93a1 1 0 0 0-1 0l-4 4a1 1 0 0 0 1 2c0-1 2-2 1-3a6 6 0 0 0 3-3Zm38 71v-4l-1-2a4 4 0 0 1 0-1h-1v1a20 20 0 0 1 1 3 3 3 0 0 0 1 3ZM85 18c2 0 2 1 3 2l1-1a8 8 0 0 0-1-2h-1l-2 1h1ZM21 93c-1 2-3 4-2 6l1-1 1-5Zm-6-13v2a2 2 0 0 0 1 1s0 1 0 0l1-1c-2-1-1-1-1-2a3 3 0 0 0 0-2l-1 2v-3a11 11 0 0 0 0 4v-1Zm111-31 3 4v-2l-3-2Zm-6 44v-2a1 1 0 0 0-1 0 9 9 0 0 1-1 2 1 1 0 0 0 0 2h1l1-2Zm-3 16a8 8 0 0 0 0-4v-1l-1 1a4 4 0 0 0 1 4Zm-10-12 1-3a4 4 0 0 0-1-2v-1a1 1 0 0 0 0 1 2 2 0 0 1 0 2 3 3 0 0 0 0 3ZM16 55a1 1 0 0 0-1-1 7 7 0 0 0-2 3h1l1-1v1h1v-1a1 1 0 0 0 0-1l-1 1v-1a3 3 0 0 0 1 0Zm102 42 1 5a8 8 0 0 0 1-3l-2-2ZM81 25v-1h-3a1 1 0 0 0 0 1 4 4 0 0 1 2 0 1 1 0 0 0 1 0Zm-26 86a9 9 0 0 0 0-6v6Zm88-23a9 9 0 0 0-1-5l1 5Zm-29-49a2 2 0 0 0-1-2h-2l2 2h1ZM14 42c2 1 3 0 5-1h-3l-2 1Zm31-7 2-2c1 0 0 0 0 0l-2 1a1 1 0 0 0-1 1h1Zm94 56c1-1 2-3 0-5a23 23 0 0 1 0 5Zm-12-23a3 3 0 0 0 1 1l2-1-1-1h-2l1 1ZM70 96v2-1a13 13 0 0 1 0-3 1 1 0 0 0 0-1l-1 1a6 6 0 0 1 1 2ZM58 32l-1-1h-3l-1 1 2 1a16 16 0 0 0 2-1 1 1 0 0 0 1 0Zm68 16v-1a7 7 0 0 1-1-1 2 2 0 0 0-3 1c1-1 2 0 4 1Zm-84-3a1 1 0 0 0 1 1l1-2v-1l-2 2Zm5-10h3a1 1 0 0 0 1-1h-1c-1-1-2 0-3 1Zm11 80v-6 6Z"/><path fill="#73bf44" d="M37 111h1l1 3a1 1 0 0 1-1 1v4l-1-3v-5ZM36 32v1h4a1 1 0 0 1-1 1h-3a6 6 0 0 0-1 1 1 1 0 0 1-1 1v-2a5 5 0 0 0-5-1h4c1 0 2 1 3-1ZM64 125a4 4 0 0 1 1 3 6 6 0 0 0 0 3 7 7 0 0 1 0 1 8 8 0 0 0 1 2 17 17 0 0 1 1 5h-1c0 1 0 0 0 0a2 2 0 0 0-1-2v-4l-1-8ZM138 71a6 6 0 0 1 4-1 11 11 0 0 1 5 1h2l1 1h-1l-5-1h-5a1 1 0 0 1-1 0ZM43 21l-1-4v-2a16 16 0 0 0-2-3 1 1 0 0 1-1-1 9 9 0 0 1 3 3l2 7ZM88 15a1 1 0 0 1 0-1l-1-1h1a22 22 0 0 0 5-1l-1 1a17 17 0 0 1-2 0l-1 2a6 6 0 0 1 1 1l-1-1h-1ZM145 76a2 2 0 0 1 2 1v1l1 1a11 11 0 0 1 0 2v1l-1-1v-3a2 2 0 0 0-2-1 2 2 0 0 1-2-1 7 7 0 0 0 3 0ZM18 107l-1 2a2 2 0 0 0 0 1 15 15 0 0 0-1 5h-1a19 19 0 0 1 1-5c0-1 2-1 2-3ZM57 131l-1-3v1a7 7 0 0 1 0-3h1v5ZM9 56H7a46 46 0 0 0 5-2l-1 1h1a10 10 0 0 1-3 1ZM43 48c4 0 4-6 0-6s-4 6 0 6ZM114 59c5 0 5-8 0-8s-5 8 0 8ZM106 98c5 0 5-8 0-8s-5 8 0 8ZM69 98c6 0 6-8 0-8-5 0-5 8 0 8ZM54 112c5 0 5-8 0-8s-5 8 0 8Z"/><path fill="#73bf44" d="M57 116c5 0 5-8 0-8s-5 8 0 8ZM91 115c5 0 5-8 0-8s-5 8 0 8ZM117 91c6 0 6-8 0-8-5 0-5 8 0 8Z"/><path fill="#73bf44" d="M119 96c5 0 5-8 0-8-6 0-6 8 0 8Z"/><path fill="#73bf44" d="M119 102c6 0 6-8 0-8-5 0-5 8 0 8ZM127 94c5 0 5-8 0-8s-5 8 0 8Z"/><path fill="#73bf44" d="M127 98c5 0 5-8 0-8s-5 8 0 8ZM111 44c5 0 5-8 0-8s-5 8 0 8ZM80 31c5 0 5-8 0-8s-5 8 0 8ZM47 40c5 0 5-8 0-8s-5 8 0 8Z"/><path fill="#73bf44" d="M49 40c5 0 5-8 0-8s-5 8 0 8Z"/></svg>