<svg xmlns="http://www.w3.org/2000/svg" viewBox="0 0 150 150"><path fill="#73bf44" d="M85.6 150.2h-5.8a36.6 36.6 0 0 1-.3-5.5c.1-2.5.2-6.3-1.8-8.4s-5.2-2.4-7-5.5c-1.8-3-2.3-7.1-4.7-8.1l1.5-1.2a11.7 11.7 0 0 1 3 5.2 8.7 8.7 0 0 0 4.2 5.6c1.6 1 4.4 2.8 3.7-.2a39 39 0 0 1-1-7c-.3-2-3.5-4.9-4.8-7.4l1.3-.5s3.1 4.5 1.5-.8h3.8s.4 5.4 1 8.2c.5 2.8 1.4 4 1.4.7l.1-9 3.3.3-.4 7.4c-.1 2.3-1.1 6.6-.1 5.6a9.8 9.8 0 0 0 3-6 30.9 30.9 0 0 0-.3-6.9l1.5.1s.2 4.3.8 2.2c.6-2 .3-2.3.3-2.3l1.5.4a43 43 0 0 0-1.7 5.6 32 32 0 0 1-2 6.2c-1 2.4-3 3-3.3 4.5a26.2 26.2 0 0 0 .2 8.3 41.9 41.9 0 0 1 1.1 8.5Z"/><path fill="#73bf44" d="M74.5 121.8h.1c.3.4 1 1-.8.8-2-.4-1.4-.8-1.4-.8l.2 1.1-.9-.7.3 1.1-.6-.2.6 1.4-1.2-.7.6 1.3-1.6.7.1 1.1-.7-.2v2L68 128l-.2 1.3-1.2-.6-.8.6-1-1.3-.2.7-1-1-.4.7-1-1-.6 1-1.2-1-.4 1-1-.7-.2 2-.2 1.7-1.7-1-.3 1-.9-1-.7 1-.4-.8-1 1.1-.8-.5-.2 1.3-1.3-.5-.7 1.6-1.2-.7-.5 1.3-1.2-1-1.3 1-.4-1.4-1.6-.1-.5-1.6h-1.3l.1-1-.9.6-.2-1-.8.7-1.2-1.4-1.1.7-.6-2.4h-1.5v-1.9l1.6-.9-1-1.2 2-.2-.5-1 1.5-.5-.8-1.8 1.5-1-2-1.4-1.1 1.4-1-.9-.5 1.6-1.5-.9L32 117v-1.3l-1.5-.6.4-.5h.5l.4-1 1 .7 2.1-1.8-1.4-.9 1.6-.8-1.3-1-1-1.8v-.8l-1.5 1.5-.8-.5v1.3l-1.5-.3-.6-1.2s-.5 3.6-1 1.7l-.7-1.9-1.8-.1.7-1-1.9-1.5 1.5-.7-1-.8 1-.6-.8-1.9.3-.4h-1.4l-.7-2.8H24l-1.6-2h.5l-.7-1.6 1.3.6-.2-1.2 1.1.4.9-2 .6.3L25 91l1.2.1-.4-1.4h1.4l-1.4-1 .7-.8-2-.3v-1.9l.5-.4s-2 1-1.5-.4l.6-1.4h-1.4l-.6-1-.5.7-.7-1.1-.3.6-1.7-1-1 .2-.4-1.7 1.1-.4-1.7-1 .8-.2-1.5-1.6.9-.5-.6-.8 1-.2-1.2-1.6 1.4-1.4-.9-1.3 1.2.5V71l1.3-.2-.3-1.7-1.6.2-.9-1.3v-.2l-1 .2-.7-1.5.3-1 1 .3.6-1.8.5.1-1-3.6.8.6.7-1.1 1.6 1.5v-1.2l2.5.4-1.2-.9H22l-.4-1.9-.6.2.7-2.1-1.4.3.5-1.5h-1.6l1.5-1.2-1.8-1.8 1.8.2-1-2.5 1.6.7-1.1-3 .9.1 1-.7-1-2s1.6 3.1 1.3 0l-.3-3.2.8 1 .8-1.5 1.7 1.7.6-1 1.3 2.1 2.8-.4-1.8-1.8 1.3.2-.7-1.6.4-3.7 1.3 1 .4-1.3 1.6 1.6.3-1.2.6.8 2-2.8-1.6-.7.5-.3-1.6-1.7-.6-1 .8-.6-1.9-.8 1-.7-1-2.1 1.3.8v-2l2.4 1.7.8-1-1.2-1.2s2.4 2.5 1.4 0l-1-2.7 1.3.5.2-.7.4-3s1.9 1.8 1.8 1v-1l1.6 2.4 1.6-.2.8-1-1.7-.6.7-2-1.6-.7 1.4-1-1.7-1.5 1.8-.2-1.2-2 .1-2.3 1.3-.3-.1-2.1 1.6 1.3V4.6l1.3.7.8-1.9 1.6.8.5-.1 1.4 2.4h.6L49 9l1.5.2 2.2 1.2-.9-2.6L53.1 6l1.5 1.1-1.2-3s.3 2.3 1 .3l.6-2 1.5.4 1.8-.7.4 2 1.2-.7-.8 2.6 2.6 1 .6-1-.1-.4L64 5l-.1-2.4 1.4.8.8-1.5 1.7-.3-.5-1.8 2.2.7L71-.2l.8 2.4L73.6 1l.1 1.6 2.2-.3-.6 1.2 2 .7-.8 1.5L78.3 7 77 8.2l1 1-.5 2.5 2.4-1.6 2.3 1.3L81 8l1.8 1V7.7l1.4.2-.6-2.2 1.5 1 .8-1.3L87 6.8l.3-2.2s1.5 2.6 1.8.6l.3-2 .8 1.8 2-1.3.3 1.2 2.5-.1-.7 1.8L96.3 8l-.3 2 1.3.4-1.8.9.8 1.1 1.8 1.8.2-1.4 1.1 1-.4-2.4 1.9 1 .8-1.7.6 1.5 1.3-.8 1.2 1.8 1-.4.6-.4.5 1.8 2.1-.9-.3 1.7 2.4-.2-.7 1.3 1.3.8-.2 1.2s2.2-.3 1 .8l-1.3 1 .4.7 2.4 1-.1-1.4 1.1.6.7-1.2 1.2 1.6 1.7-1-.7 2 2.2.4-1 1.6.5 1.2-.7 2.5 1.5.2-1 1.4.6.6s-2.1.3-1.3.8l.8.6s-2.2.8-.6 2.2l1.7 1.3.6-1.7V32l1.3.5.5-1.7s-1.3 2 .9.6l2.2-1.5s-3.1 2.7-.6 2.3l2.6-.4-.4 1.2 2.5.5-.7.8 1.9 1.1-.2 2.9.9.6-1.2 1.4 1.1 1-1.8.7.7 1s-1.2 1.3-.7 2l.5.5-.4 1.1-1.4.6-.2.7-1.8-1 .2 2-2.7.4 1.4.7s-1.6 1.8-.7 2l.9.2 1.4.3-1 1.6 1.5.7 2 .3-1.2 1.4 1.9.2-.3 1.7 2.1-.8.5 1 1.7-1.3.5 4.7-3 .2 1.2 1-2.1.1 2.2 2.2-2 1 2 .6-2 2.2-.5 2.9-3.6.6 2.2 1.5-2.1.4.9 1-2.3.7.8.6.2 2h1.5l2-1.6.3 1.5 2.5 1-.4 1.3.9.7-1.5 1.4 2 .4-2 1.9 2.2 1.4-4.4 3.7-1.8-1.2-.3 1.2-1.7-.2.8 1.9-3 .2 1.3 2-2 .8.7 1.3-.9 3.1-2.3.1.8 2.2-2.4-1.6-1.8.9-2.6-1.5-.4 2-2.5-1.1-.9 1.5-3.8.8.1 1.5 1.6 2 1.8 1.2-1.7.6 1.9.7-1.7 1.1 1.1 2-.5 1.4 2.8 1-3 1.3 2.2 1.4 1 2.5-5 2.6.6 2.4-2.6-.4.5 2.8-2.8-2.2-2.5-1.6-1.9 2.2-.8-2.3-2.3 1.9-1-2.2-1.4.4-1.5-1.9v.2l-1.2-.6h-.3l-1.6-.1s.4 1.4-.7 1l-1.1-.3-.5 1-.5.7-1.3.9-.8 1-1-.6-1 .3-1.3-1.1s.5 2.5-.4.3l-.9-2.1-.7.3-.8-.2-1.4 1.6-.2-.7-.4-.8-.6.4"/></svg>