<svg xmlns="http://www.w3.org/2000/svg" viewBox="0 0 150 150"><path fill="#73bf44" d="M72 149H60s2-6 0-11c-2-6-1-7-1-9 1-3-8-8-9-20h3a32 32 0 0 0 4 10c4 6 3-12-2-18l3-2s3 3 3 10c1 8 5 17 4 11l1-18 3 2a46 46 0 0 0 0 18c2 9 7 5 7-4v-15l3 2a71 71 0 0 0-1 15 46 46 0 0 1-3 20 26 26 0 0 0-3 9Z"/><path fill="#73bf44" d="m58 107-1 1h-2l-1 4-6 1 2 2h-1l2 2-1 1 1 2h-1v3h-3l-1 1-1-2-3 1v-2l-2 2v-2l-2 1v-2l-2 1v-4l-4 1-1-3h-1v-1h-4l1-3h-2l2-2-6-3 7-1-1-2h2l-1-4 3 1 2-3h-3l2-2-3-1-1-1-1 4-3-1v2l-3-1-1 2-1-2-3 1v-2h-3l2-2-5-2 4-2v-2l4 1 1-2 3 2 2-1h1l-1-2 2-3h-2l1-1-3-2v-3l-2 1-1-2-1 1-2-1-2 1-2-2 1-1-1-2h3l-3-4 4 1v-2l3 1-1-4 1-1h-2l1-2-4 1-1-1v1l-3-2-3 1 1-3H6v-3H2l2-2-3-2 2-1-3-2h4l-1-4 4 2 2-2 1 1h1v3h2l1 3 1-3-2-2 1-1-2-1 1-1-2-3h3l-2-3 3-1-3-1 3-2-4-2 3-2-1-3 4 1v-3h2l1-3 2 1v-5l3 2-1-4 3 1 1-3 3 1 1-2 2 1 2-5 3 1V7h2l1-2 3 1-1-5 4 2 1-1 1 1h3l1 2 3-1 1 1h2l1 3h4l-1-3 5 1V3h3l1-1 1 2 3-1 1 1 2-1 1 2 4-1v3h2l-3 2 3 1-3 1 3 2-3 1 1 3h1l1 2 2-1 3 2-1-4h4l-2-3 3-2V9l1 1 2-1 1 2h5l-1 1 2 1-1 1 2 1-2 1 3 2-3 1 1 3v3l3-2v4l3-6 3 2 3-4 1 3h3l-1 5 4 1-4 2h4l-2 4 3 2 1-2 4 2-1-4h5l1-2 2 2 4-1v2h3v2l-2 2 3 1-6 1 2 2v2h5l-2 2h5l-1 2 1 2-2 1h-3l-1 2h-2v4l-2 1h3l-1 2h2v1h2v1l-3 1 2 2 1-1-1 3h4l-1 1v1l-2 1v1h-2l1 3h-6v3l-3-1-1 2-2-1v2l2 1h2v1h3l1 1-1 3h4l-1 2 2 2-2 1v3l-2 1v3l-1-1-1 2-2 4-3-2-1 3-3-1h-1v-3l-2 2-1-1h-3l-3 1-2-2-2 5-4 1h4l-2 4 3-1v2h2v5h4l-1 1 3 1-3 2v3h-2v4h-5v2l-1-3-2 2-3-5-1 4-4-1 3 4h-4l-2-3-2 2-1-2h-3l-1-2-4 4-2-2-7 2 1-7h-5l-3-6-1 1-2-1-1 2-3-3-4-3v-3h-5Z"/></svg>