<svg xmlns="http://www.w3.org/2000/svg" viewBox="0 0 150 150"><path fill="#73bf44" d="m68 103-1 2-1-2-2 2-1-1-4 4v-2l-3 1v-2l-3 1 1-2-3 1 1-4-4 2v-2h-4l2-3h-2l3-2h-3s4-3 1-3l-2 1v-3l-2 1v-2l-3 2v-3l-4 3-1-2h-3l1-1s-3 2-2 0v-2h-3v-2h-2l2-2-3-1 1-2v-3l-3 1 4-3-4-1 3-2-2-2 2-1-2-4 3-1-3-2 3-1-1-3-2-2 3-1-4-3v-5l3 1-3-5h3l-3-4 3 1 1-5 2 1-1-6 3 2-1-4 2 2v-7l5 2v-4l4 2 1-7 2 1 1-3 2 3 3-7 3 4 2-4 2 3 4-6 2 3s0-7 3-3l2 4 3-4 3 4 1-4 2 5V3l2 2 2-3 2 2 5-4s-1 5 1 3l3-3 1 3 2-2 1 3 1 3 1-3 2 3 3-4 1 3 2-2 1 5 4-3v5l2-2-1 4 4-1v4h2l-1 4h3l-1 3 3 2-1 1h2l-1 5 4-1-4 4 5 1-4 1 8 1-7 3 4 1-2 3h3l-4 2 4 2-4 2h3l-6 4 6 4-2 1 2 2-3 1 5 3-6 1 4 3-5 2 3 3-3 1 4 2-4 1 3 2-1 1 2 2h-5l2 4-2-2 1 5-4-2-2 5-2-1 1 6-3-3-1 4-2-2-3 5-3-4-2 5-2-1 1 3-3-1v2l-2-1-1 1-2-2-1 1-2-1v3l-2-3s-1-5-2-3l-1 3-1-4-1 2-2-3-1 2-1-2-1 2-2-2-1 3-1-1-2 3-1-1v2Z"/><path fill="#73bf44" d="M75 106c-1 7-2-1-2-4V88l-6 1 2 26-2 15-3 20h8l1-10 3-17 4-17 3-16-5-1-3 17Z"/></svg>