<svg xmlns="http://www.w3.org/2000/svg" viewBox="0 0 150 150"><path fill="#73bf44" d="M86.9 14.5a1.2 1.2 0 0 0-.2 1 .9.9 0 0 1 0 .1c.1.5-.7-.3-.4.4 0 .2.4.4.4.7l-.1.4a.4.4 0 0 1-.5-.1c-.1-.2-.2-.4-.4 0a.5.5 0 0 0 0 .6 1.9 1.9 0 0 1 .4 2c.1.3.2.2.3.2.3-.1.6-.3 1 0a.3.3 0 0 1 0 .3 1 1 0 0 1-.9.5 3.1 3.1 0 0 1-.4 0l.8.8c.2.2.8.1.6.7-.1.6-.3 1.2-1 1.4-.2 0-.6 0-.6.3 0 .4.4.4.6.6.2.2.5 0 .6-.3L88 23a10 10 0 0 0-.8 3 .2.2 0 0 1-.2.1c-.8.2-.7.5 0 .8.3.2.6.5.5.9a1.8 1.8 0 0 1-1 1c-.5.3-.9.2-.4 1 .2.4.2.8.7.9.2 0 .4.4.6.1.1-.2 0-.4-.2-.6a2.3 2.3 0 0 1 .8-1.6.3.3 0 0 0 .2-.2c.2-.7.7-.6 1.1-.7v.2c-.8.5-1 1-.5 2 0 0 .1.2.3.1h.3c.4-.2 1-.4 1.2.1.1.6-.5.6-.9.8-.5.2-.8.4-.1.9a3.8 3.8 0 0 1 .5.7c-.2.2-.5.2-.7.2-.4.2-.4.4-.3.8.4-.3.8-.7 1.3-.6.2 0 .4 0 .4.3a.4.4 0 0 1-.2.4 3 3 0 0 1-.8.4 1.1 1.1 0 0 0-.8 1.4 3.4 3.4 0 0 0 1 1.4c.3.2.4-.2.4-.4.1-.4-.4-1.3.7-.8.2 0 0-.4 0-.6a2.1 2.1 0 0 1 .6-2.1c.2.3 0 .5-.2.7a3.2 3.2 0 0 0 0 2.4c0 .1.1.3.2.2.7-.3.7.7 1.2.8.3 0-.1.4-.2.7-.4.4-.7 1 .2 1.1.4.1.2.4 0 .5-.6 1-.6 1.5.2 2.4.3.4 0 .9.3 1.3.4.7-.3.8-.6 1a1.5 1.5 0 0 0-.6 1.7 1 1 0 0 1-.3 1.3.4.4 0 0 0 0 .4c.4 0 .4-.4.6-.7.1-.2.2-.6.5-.7-.4.6 0 1.5-.8 2a.8.8 0 0 0-.3 1c.1.4.4.3.8.3a.6.6 0 0 1 .6.4c-.8-.4-.5.6-1 .8.3.3.4.6.8.8.4.2.4.4 0 .7a2.9 2.9 0 0 0-.5 3.3v.2c-.8.2 0 .7 0 1-.2.5 0 1.1-.7 1.2-.2 0-.2.5-.2.7v.9c-.2.7 0 1 .7.9a2.9 2.9 0 0 1 .6 0c-.3.5-.8.4-1 .7.1.4.5-.1.7.2-.1.3-.4.4-.6.6a1.5 1.5 0 0 0-.6 1.8.5.5 0 0 0 .5.4c.2 0 .2-.1.3-.3.3-.8.9-.2 1.3-.2.4.1.4.5.2.9v.1c-.1.4-.5.8-.2 1 .4.3.6-.2.8-.5l.4-.4c.2.8 0 1.1-.4 1.6a2.7 2.7 0 0 0-.3 2.6 1 1 0 0 1 .1 1.2c-.3 1-.3 1 .3 1.9a7 7 0 0 1 1.3-2.1c.2-.2.3-.4.2-.6-.1-.3-.3-.7 0-1 .4-.2.7 0 1 .2a3 3 0 0 0 .2-2 .5.5 0 0 1 .3-.6 1 1 0 0 0 .6-1.1c.1-.1 0 0 .1.1.3.3.7.2.8.6a3.1 3.1 0 0 1-.4 1.9 6 6 0 0 0-.5 2.3c0 .4.3.5.5.7.2.1.4.4.2.6-.1.3-.4.2-.6.1-.2-.1-.4-.2-.6 0-.2.2 0 .4.1.7a2 2 0 0 1 .2.4c0 .2.2.5 0 .7-.3.2-.4 0-.5-.2-.4-.5-.6-.3-.7 0-.4.7-.7 1.6-.4 2.1.3.7 0 1 0 1.5s0 1.2.8 1.2c.2 0 .5 0 .5.2.1.3-.2.4-.4.6-1 0-1 1-.8 1.5 0 .6-.2 1.1.2 1.6.3.4-.2.6-.5.4-.4-.2-.5 0-.5.3l-.5 1.5c0 .3-.3.6.1.8.4.1.6 0 .8-.4l1.4-3.6a2.5 2.5 0 0 1 .7-1.2c-1.4 4-3 7.8-4.5 11.7 2.7-2.6 5.6-5 7-9 .1.5-.1.7-.2 1a.5.5 0 0 0 0 .6c.3.2.4 0 .6 0l1.7-1.8c-.7 1.4-2.1 2.1-2.6 3.8-.2-.3-.5-.3-.8 0-2.6 3-5.4 5.8-7.5 9.2l-2.4 4.2a58.9 58.9 0 0 1-5.3 7 74.7 74.7 0 0 1-6.5 7c-2.6 2.7-2.8 3.3-2.5 7.2a54.4 54.4 0 0 1 0 6.4v7.1c0 2.6 0 5.3-.2 7.9v6.3l.1 1.8c0 .5-.2.7-.6.7h-3.7c-.5 0-.5-.4-.5-.8l.5-5.6a71.7 71.7 0 0 0 .3-8c0-4.5 0-9-.2-13.4l-.2-5.8a2.3 2.3 0 0 0-.5-1.3l-3.8-4.6a42 42 0 0 1-6-9.4c-.3-1-1.2-1.6-1.6-2.5-.3-.9-1-1.5-1.2-2.3L56.2 94c-.2-.4-.6-.4-1-.4-.6 0-.8-.5-.6-1.1.4-.8 0-1.2-.6-1.5-.2-.1-.4-.2-.3-.5a.7.7 0 0 0 0-.3c-1.1-.2-.6-1.4-1-2a8.4 8.4 0 0 1-1-2.5l-1-1.9.2-.3c.2-.1-.1-.4.1-.6.2.7.6 1.3.7 2.1 0 .2 0 .6.4.5.4 0 .3-.4.2-.7a6.3 6.3 0 0 1-.2-2c0 .7.2 1.2 1 1 .1-.5-1.2-.8-.3-1.5.5-.5.4.6.8.4a8 8 0 0 0 0-2.6c0-.3-.3-.4-.5-.4a1.6 1.6 0 0 1-.8-.4c-.2 0-.3-.2-.2-.4a.2.2 0 0 1 .3-.1c.6.2.6-.2.5-.5-.5-1-.6-2-1-3-.4-.7-.5-1.8-1.8-1.6.4-.4 1-.3.8-1-.2-.5-.4-.9-1-.8-.1 0-.3 0-.3-.2l.2-.3c.4 0 .5-.6 1.1-.3.4.2.3-.7.2-.8-.8-.8 0-1.1.2-1.6.2-.2.6-.1.5-.5 0-.3-.4-.4-.7-.5a4.2 4.2 0 0 0-.4 0c0-.4.4-.2.5-.4 0-.3-.3-.3-.4-.5a.8.8 0 0 1 0-1c.2-.2.5 0 .7.2.3.4.6.2 1-.1l.7-.6.3-.4c-.3-.7.4-1.2.4-1.6 0-.7.5-1 .7-1.4.2-.4.3-.6 0-.8-.2-.1-.2-.3-.3-.4a.4.4 0 0 1-.3-.5c.2-.3.4-.2.6 0a3.7 3.7 0 0 1 .3.2c.3-.3-.1-.6.2-1l.4 2.3c.3-.4.2-.8.5-1 .1.2 0 .5.2.8.1.3.1.7.5.8.5 0 .2-.6.6-.7.2 0-.2.4.1.5 0 0 .2 0 .3-.2.2-.4-.2-.6-.4-1 .5 0 1 0 .7-.9-.2-.5.3-1.1.2-1.8 0-.6-.2-1-.8-1 0-.3.4-.3.5-.4 0-.2 0-.2-.2-.2a1.6 1.6 0 0 1-.5-.1c-.3-.2-.7-.3-.7-.7 0-.5.4-.3.6-.4a1.5 1.5 0 0 0 .4-2.1c-.5-.4-.7-1.1-1.4-1.3 0 0-.2-.1-.2-.3 0-.2.2-.2.3-.2a1.2 1.2 0 0 1 1 .2c.5.4.5.2.6-.3a17.2 17.2 0 0 0 0-3.3 1.1 1.1 0 0 1 .7-1.1c.2-.1.4-.2.5 0 .2.2 0 .4-.1.5l-.5.4c0 .3 0 .8.2.8a.8.8 0 0 0 1-.6 3 3 0 0 0-.4-1.8l-.2-.7c.3-.2.4.2.7.5-.1-1 0-1.9-.9-2.4-.2-.1-.5-.3-.3-.6.2-.2.6-.2.7.2a.6.6 0 0 0 0-.7c-.3-1 0-2-.5-3a.2.2 0 0 1 .1-.2c.4-.5.2-.8-.3-.8-.8 0-.5-.5-.3-.8a2.2 2.2 0 0 0 .4-2l-.4-5.4a16.7 16.7 0 0 0 .8 3.6c.5-.9.3-1.2.3-2.2 0-1.3-.4-2.6-.3-4l1 4h.2a8 8 0 0 0-.2-2.5c0-.1-.2-.2 0-.4a.2.2 0 0 1 .2 0l.1.3v.7c0 .2 0 .6.4.5.2 0 .6-.3.4-.6a1.7 1.7 0 0 1 .3-1.8c.2-.2 0-.7 0-1.1-.3 0-.6 0-.8.3a.3.3 0 0 1-.4.1c-.1-.1 0-.3 0-.4a.8.8 0 0 1 .4-.4c1-.3.7-1 .6-1.8a4.8 4.8 0 0 1-.1-.7c0-.7-.3-.8-.8-.6a1.1 1.1 0 0 1-.4.1c-.3 0-.6 0-.6-.4a.5.5 0 0 1 .5-.5 1.3 1.3 0 0 1 1.3.4c.1.2.3.3.5.2.3 0 .2-.3.2-.5l-.6-3.8c0-.4-.2-.5-.5-.5-.2 0-.3.1-.4 0 0-.2 0-.4.2-.5a.4.4 0 0 1 0-.1c1.2-.5 1.3-1.6 1.3-2.7a.4.4 0 0 1 0-.3l.4 1.5a16 16 0 0 0 .7-4c.2 0 0 .3.3.3l.2-1.4a.3.3 0 0 0 .4.1h.1a1.2 1.2 0 0 0 .1.2l.7 1.2c.2-.2 0-.5.1-.6 0-.3 0-.8.3-.8.4-.2.5.3.5.6a.3.3 0 0 0 .3.2c.3 0 .2-.2.3-.3l.2-.7a.2.2 0 0 1 .4-.1.2.2 0 0 1 0 .3c0 .5.2.9.6.9.5 0 .6-.5.6-1a.3.3 0 0 1 .1-.2c1-.8.4-1.8.3-2.7-.1-.7-.8-.3-1.1-.8.3-.3.9.5 1-.2.1-.5-.6-.2-.8-.5v-.2c.3-.2.8.2.8-.3s-.4-.5-.6-.7a1.3 1.3 0 0 1-.6-.7 3 3 0 0 1 1.4 1c.1.3.2.4.4.3.7-.8 1.2-.4 1.5.5a.5.5 0 0 0 0-.6c-.2-.9-.7-1.7.6-2.1l.4-.6a.7.7 0 0 0-.9.1c-.1.1-.4.3-.5 0-.1-.2 0-.4.2-.5a6.4 6.4 0 0 1 .6-.4c.7-.4.7-.9 0-1.4a1 1 0 0 0 0-.1c-.4-.2-1-.4-.7-.8.2-.5.8 0 1 .2a.9.9 0 0 0 1 .2c.7-.2.9 0 .7.8-.1.5.6 1.4 1.3 1.5-.2.6-.9 1.3.3 1.6.2 0 .8.4.1.8v.3c.3.5.3.5-.1.9 1 .1 1.2 0 1.3-1 .3.1 0 .6.3.6.1 0 .3-.1.3-.3a1 1 0 0 0 0-1 1 1 0 0 0-.8-.4c-.3 0-.5-.1-.5-.4 0-.4.3-.4.6-.4 1.1-.1 1.1-.1 1.3-1.3l.2.8c0 .2 0 .5.2.4 1.6 0 .3 1 .5 1.6 0 .2-.2.6 0 .8a1.2 1.2 0 0 0 1.4.2c.4-.2.2-.6.2-.9a3.2 3.2 0 0 0-.5-1.7 1 1 0 0 1-.2-.8c.5 0 .6.4.6.8a5 5 0 0 0 .3 1.3 1 1 0 0 0 1 .5c.4-.1.2-.6.4-.9.1.4 0 .9.6.8.5 0 .7-.4.8-1a2.4 2.4 0 0 0 0-1c0-.4.2-.4.4-.8a1 1 0 0 0 .7 1.2c.3.1.6.3 0 .6-.5.4 0 .8 0 1.2-.7-.4-.7-.3-1 .6-.2.5-.5 1 0 1.5.1.1.3.4.5.4.3 0 .2-.4.3-.6l.1-.4c.2.2 0 .4 0 .6.1.2.4.3.4.2 0-.6.9-.7.7-1.4l.1-.5c.2 0 .3 0 .4.2l.2.3c.1.9.6 1.3 1.6 1.3a2.2 2.2 0 0 0-1 2.2.4.4 0 0 0 .2.3l.3-.1c.1-.8.5-.2.8-.2v.3a4 4 0 0 0-.9 2.7l-.3.4a1 1 0 0 0-.1 1.4c0 .3-.4.5-.2.7.3.3.4-.2.6-.4a.8.8 0 0 1 .7-.4ZM76.2 99.7c-.2 0-.3.3-.4.5-.7 1.3-.6 2.8-.8 4.2l.1.4c.3.1.3-.1.4-.3l.9-3.9a1 1 0 0 0-.2-1Zm-17-64.3a5 5 0 0 0 0 1.7c0 .4 0 1 .5.9.3 0 .5-.5.5-.9v-1.8c0-.3.1-.7-.3-.9l-.4.1a.8.8 0 0 0 .3.9.3.3 0 0 1 .1.4c-.1.2-.3 0-.4 0 0-.2 0-.4-.4-.4Zm-.4 19.5a12.8 12.8 0 0 0 0-1.8c-.4-1.3-.8-2.4.4-3.4-.7-.2-1.2-.1-1.1.9a1.8 1.8 0 0 1 0 .3 5.6 5.6 0 0 0 .7 4ZM79.1 7.3c.4 0-.1.8.4.6.4 0 .3-.6.2-1 0-.5-.4-.6-.8-.3-.3.2-.5.4-.9.5-.4 0-.2.4-.3.7 0 .5.3.6.6.7.4.2.4-.2.5-.4a7.4 7.4 0 0 0 .3-.8Zm1.4 98.6c-.6 0-1 0-1.2.6l-.9 2.1a.9.9 0 0 0 0 1c.7-1.3 1.5-2.4 2.1-3.7Z"/><path fill="#73bf44" d="M88.4 21.9a1.5 1.5 0 0 1 .3-1 11.3 11.3 0 0 0 1-4 1.2 1.2 0 0 0-1-1.5c1.2-.2 1-1.3 1.2-2.4.2.7.7.8 1 1.1.3-.4.7-.4 1-.7a1.7 1.7 0 0 1-.2 1.4 2.6 2.6 0 0 0-.4 1.7.8.8 0 0 1-.5 1c-.3 0-.4.3-.5.6L88.4 22ZM86.9 14.5a.8.8 0 0 0-.7.4c-.2.2-.3.7-.6.4-.2-.2.1-.4.2-.7.6-.8.9-1.9 1.4-2.7.2-.4-.2-1.3.6-1.4a5.6 5.6 0 0 1 0 .8c-.3.7-.2 1.3.6 1.4a.3.3 0 0 1 .2.3c0 .2-.2.2-.3.3a2.3 2.3 0 0 0-1.4 1.2ZM76.1 110.7c7.7 0 7.7-11.9 0-11.9-7.6 0-7.6 12 0 12Z"/></svg>