<svg xmlns="http://www.w3.org/2000/svg" viewBox="0 0 150 150"><path fill="#73bf44" d="M92 126v-1h-1 1l-2-3v1a4 4 0 0 1-1 1l-1 1-1-1a2 2 0 0 0 0-1 6 6 0 0 0 0 3s1 0 0 0a17 17 0 0 0-3-2h-1v-1a4 4 0 0 0-2-2v-1a2 2 0 0 0 0-2v1-1h-1v1l-1-1-2 1 1 1v1a24 24 0 0 1 4 2h-1a2 2 0 0 0-1 0 3 3 0 0 1-2-1h-1v1h-3l1 1c-1 0 0 0 0 0l-1 1-2-1a2 2 0 0 1 0 3h-1v3l1 11 1 8-1 1h-7l-1-1 1-16a46 46 0 0 0 1-8h-1v-1a4 4 0 0 1 0-1v-1 1a2 2 0 0 1-1 0v-1l-1-1h-1s0 1 0 0l-1 1a15 15 0 0 0-1 3 1 1 0 0 1 0 1h-2v-1h-1c0 1 0 0 0 0v-1l1-2v-1h-2v-1s0 1 0 0h-1l-1 1-1-1-1 1h-1a1 1 0 0 0 1 0 2 2 0 0 1 1 2h-2v2l-1-1a12 12 0 0 0 0-2v3a6 6 0 0 1-1-2 1 1 0 0 0 0-2l-1-1h-1v1a4 4 0 0 0 0 1v4h-1l1 1a1 1 0 0 0-2 0v-1 1-1h-1l1-1-2-1-1 1h-2c1 0 0 0 0 0v-1h-1v-1h-1s1 1 0 0l-1 1-1-1a5 5 0 0 1 0-2 4 4 0 0 0 0-2 2 2 0 0 0-2 0h-2a1 1 0 0 0-1 0v-1h-1l-1 1v-1h-1l-1-1h-2v1l-1-1h-1v-1h-1c0-1 0 0 0 0h-1v-1h-1l-2-1h-1v1h-2l1 1h-1v-1h-1 1a1 1 0 0 0-2 0 2 2 0 0 1-1 1v-1l-1 1a3 3 0 0 1-1-1v-2l-1 1-1-1v-1c-1 0 0 0 0 0l1-2-1-1a3 3 0 0 1-2 1v-1a14 14 0 0 0 2-1h1l-1-1H7v-1H6l2-1h1a1 1 0 0 0 1 0v-2a3 3 0 0 1-1-2v-1h1l1 1h1v-2h-1v-1l-1-1H9h1v-2H8v-2H6h3a2 2 0 0 1-1-1v-1H6l1-1H5v-1a1 1 0 0 0 0-1 2 2 0 0 0 0-2v1H4v-1 1-1H3a5 5 0 0 0 0-1h1a7 7 0 0 0 2-1 7 7 0 0 1-1-2H4l-1-1h3l1 1c0-1 0 0 0 0l1 1h1a2 2 0 0 0 0-1v-1c-1 0 0 0 0 0l2-1 1-1c0-1 0 0 0 0l1-2-1-1v-2s1 0 0 0h-1a6 6 0 0 1-2 1l3-3h-1l-1-1v-1H9a1 1 0 0 0 0-1l1-1H9v-1l1 1v-1 1a2 2 0 0 0 1-1l-1-1a1 1 0 0 0 0-1v-1l1-1h-1a1 1 0 0 1-1 0c-1 0 0 0 0 0v-1a2 2 0 0 0-2 0H6l1-1-1 1v-1l1-1a5 5 0 0 0 1-1c1 0 2 0 2-2H9a2 2 0 0 0 1-1v1l1-1v-3a1 1 0 0 1 1-1h-2a1 1 0 0 1-1 0l1-1a11 11 0 0 1 2-1 5 5 0 0 1 2-1v-1a1 1 0 0 1 0-1 15 15 0 0 1 0-2l-1-1v-2h-1l1-1h-1a1 1 0 0 0 1-1l1-1a1 1 0 0 0 1 0h1v-3h2s0-1 0 0h1a3 3 0 0 1 2 1h1v-4a2 2 0 0 1 2 1v1l1 1 1 1v-1l1-1v-2h3a14 14 0 0 1 2-1 1 1 0 0 0 0-2 2 2 0 0 0-1-1v-1h-1l1-1h1l1-1 1-1h-2l1-1-1-3h2l-1-1h1l-2-1v-1s-1 0 0 0a2 2 0 0 1 2-1l-1-1v-2h1a3 3 0 0 1 0 1l1-1a11 11 0 0 1 1-2l1-1h2l1-1 1-1v1l1-1v1a1 1 0 0 0 1 0 2 2 0 0 1 1-1 1 1 0 0 1 2 0v2-1a1 1 0 0 1 1-1v1h2V7s-1 0 0 0V6h2c0-1 0 0 0 0l1-1h1a1 1 0 0 1 2 0h1V2l1-1h1v1h3l1-1h1l1 1a2 2 0 0 1-1 0l2 1s-1-1 0 0h2V2l2-1a2 2 0 0 1 0 2v1l1-1a2 2 0 0 1 2-1h1V1a3 3 0 0 0 1 0h1l-1 1h1a2 2 0 0 1 2-1V0a2 2 0 0 1 1 0v1s1 0 0 0l1 1v1-1l2-1V0a1 1 0 0 1 1 1 5 5 0 0 1 0 1v1l1-1V1l1-1a1 1 0 0 1 0 1l2 1v2h2V3l1 1V3l1 1h-1l1 1-1 1h1l2 1h-1v1h3V7l2 1h1a1 1 0 0 0 1-1h2-1 1l1 4h1l-1 2v1h2a1 1 0 0 1 1 0v1h2s0-1 0 0h1a1 1 0 0 1 0 1h-2a1 1 0 0 0 0 1h3v1h1v-1l2 1v-1l1 1v-1h1l-1 1h1v1h1v2a7 7 0 0 1 1 1l1 1 1-1h1v-1l1 1-1 1h1-1c2 0 0 1 0 1l-1 2v1a5 5 0 0 0 2 0l1 1v1h-1l1 1v1l1 1h-1l-1 1a3 3 0 0 1 1 1l-1 1c-1 1 0 0 0 0l1 1v1l-1 1v1l-1 1v1l1 1h1l-1 1-1-1a3 3 0 0 1 1 2v2h1v2h-1v1a4 4 0 0 0 2-1h1l1 1h-1l-1 1h3v1-1l1 1 1 1h1-1 1c-1 2 0 1 1 1a2 2 0 0 1 1 1h1a4 4 0 0 1 2-1h3v2a13 13 0 0 0-2 0v1h3s1 0 0 0v1l-1 1a9 9 0 0 0-3 0c2 0 2 1 2 2a6 6 0 0 0 1 1v2a3 3 0 0 0 0 2 2 2 0 0 0 0 1 2 2 0 0 1 1 1l2 1a7 7 0 0 0 1 0 3 3 0 0 1 2 0v1l-1 1 2 1s-1 0 0 0a1 1 0 0 0 0 2l-1-1a5 5 0 0 0 1 3c1 0 0 0 0 0v1h-2a1 1 0 0 0 1 1v2a2 2 0 0 1 1 0l1 1v4-1l1 1-1 1v1s-1 0 0 0v3h1l1 1h-2l1 1h-2a4 4 0 0 1 1 1l-1 1a1 1 0 0 0 1 1h1v2l1 1 1 1h-1 2l-1 1h1-1l1 1h-1l-1-1v1c0-1 0 0 0 0h-1a4 4 0 0 0 0 1l-1 1h-1l1 1h-2v1l-1 1-1-1v2l-1 1h-1v2l-1-1a1 1 0 0 1 0-1h-1v1h-1l1 1a1 1 0 0 0-1 1v1a1 1 0 0 1-1-1 2 2 0 0 0-2-1v2h-1l-1 1v-1h-1l1-1-2 1a1 1 0 0 1-1 0 1 1 0 0 1 0-1c1 0 0 0 0 0v-1l-1 1v-1l-1-1h-2c0 2 0 2-1 1l-1 1v-1h-3s1 0 0 0h-1a3 3 0 0 0-3-2v-2a3 3 0 0 0-1 1l-1-1s0-1 0 0v4l-1 1h-2l-1-1-1 1a3 3 0 0 0-1 2h-1l1 1h3v1a2 2 0 0 1-1 0v1l-2 1a1 1 0 0 0 1 1 1 1 0 0 1 1 0l1 1h-3l1 2a4 4 0 0 1 0 1c1 0 0 1 0 0l-1 1h-2a1 1 0 0 1-1 0 2 2 0 0 0 0 2v1h-1v-1l-1 1h-1v-1a1 1 0 0 0-1 0 4 4 0 0 1-2 0h-1c0 1 0 1 0 0l-1 1v1h-1v1-1h-1Z"/></svg>