<svg xmlns="http://www.w3.org/2000/svg" viewBox="0 0 150 150"><path fill="#73bf44" d="M69.3 150.2h7.8a93.4 93.4 0 0 0 2.1-15.4 82.5 82.5 0 0 1 .6-10.8c.3-1.7.7-3.8.8-5.2.1-1.5-4.2 0-4.2 0a25.4 25.4 0 0 1-.9 5 17.5 17.5 0 0 1-.3-5h-2.8l.1 3.3a19.2 19.2 0 0 1 0 3.3 9.5 9.5 0 0 0 .6 3.3 9 9 0 0 1 .7 3.7 33.8 33.8 0 0 1-.9 6.9 113 113 0 0 1-2.5 8.2c-.7 1.8-1 1.8-1.1 2.7ZM16.6 104.8l1 .4.3-.4v-.1l.4-.6-2.8.8 1.1.7v-.8zM122.7 123.6h-.1.1zM26.3 111.1l.1-.1-.2-.3.1.4zM122.6 124.1h.4l-.2-.3-.2.3zM28.1 113l.5-.6-.4.1-.1.5z"/><path fill="#73bf44" d="m142.1 101.5 1.4-1.3-2.2-.4 1.5-1.1-1 .1 1.3-2.5-1 .6.5-1.8-1.1.8-.8-1.9-.5 2.2-1-.6-.2 1.6-.6-.5-.5 1.4-.4-.5-.2 1.1-1-.7-.6 1.4-.3-.8-1 1.2-.8-1-.7 2-.8-.2h-1l1-1-1-.3.7-1.4-1.4.3-.4-1-.6-1-1 1.3-.2-1-1 1.4-.1-1-1 .3.6-1.2-1.2-.2 1-1.1-.7-.7 1.4-1-.9-.3 1.1-1.2h-1.3l.6-1.6-1.7 1.5-.6-.5-.8 1.7-.4-.5-.5 1-.2-1.6-1.3.6.7-1.6-2-.5 1.4-1-1.6-.5.8-.4-.4-1.4 1.2.2-.4-1 .7-.4.4-1 1.3.5-.3-1.8.8.2-.4-1.3 1.6.2-1-1.5 1.9-.4-1.3-1.2 2.4.2-1.3-1.6h1.7l-.8-1.1.8-.1-1.5-1.4 1.8-1.8h-.8l1.7-.8-1.7-.5 2-.7-1.2-.4 1.7-.7-.7-.6 1.7-.3-1.2-1.4h1.4l-.7-.6-1.8.4.1-.8-1.2 1.3-1-.7-.9 1-.8-.7-1.2 1.2-.5-1.2-1.5 1.4-.4-1h-.4l.4-.7-1-1.2h2l-.4-1.2 1.2.2.1-1 1.4-.2-.6-.7 1-.2.7-.5-.5-.7h1.7l-1.1-1.3h1.2l-.6-1.3-.9-.3-.7-.8-.6 1.1-.4-.5-1 1-.8-.4-.3 1-1.1-.3-1.2-1 1.7-.3-.3-.8 1.3-.3.4-1-.5-.2 1.3-.3-1.1-.9 1-.4-1.3-.5 1.3-.6-1-.7 1.6-.1-1.2-.9-1.2 1.1-.2-.5-1.5 1.7-.2-1 .5-.3-.6-.5 1-.6-.9-.3 1-.5-1-.6 2.1-.8-.7-.4.7-.4-1-.6-1 .8-.1-.5-1.1.9-.4-.3-1 .7 1-1.5-1-.7 1.1-.5-.6-1 1-.3-.2-1-1.2.5-.7.7.2.5-1-.2.2 1.3-1.4-1 .9-1.5-1-.3 1-.6-.9-.8 1.8-.5-.8-.7.5-.9h-1v-.5l-.8 1.3-.4-.3-.8-.4.8-.7-.5-.4.9-.7-1-.3 1.4-1.3-1.5.3h-1.3v-.5l-.8.5.9-1.7.7-.2-.6-.6 1.1-.5-.8-.4.8-.7h-1l1.7-1.5h-1.9l1-.8-1.6.3.7-1.2-1-.1 1-1.2-1 .1.7-1-.8-.2.7-1.2-1.9.4v-1l-1.2 1.9-.4.3.3 1.4-.7-.2v.7l-1.2-.4.5 1.7-.7-.2.2 1.2-1-.6.6 1.8-1-.2V36l-1-.2-.7.7-.5-1 .3-.2-.5-.6.7-.6-.5-.6 1-.5-.7-.4.6-.9-.6-.2.5-1-1.3.7-.7-.1-.2.8-.8-.5 1.4-1.4-1.2-.4 1.4-.9-.8-.2 1.3-1.2-1.2-.2.4-1-.6-.4 1-.9-.8-.3.3-1.2h-1l.3-1.2-1.5.3.4 1.1h-1.1l.3 1.1h-.8l.4 1.1h-.7l.4 1.2-.5-.3.2 1-1.2-.6-.9.6.5-1.6h-.7l1.2-1.1-.6-.8.6-.6-1.2-.4 1-.7-1.2-.3.7-.8h-1.1l.7-1.1h-.8l.8-2-1.1.2-.6-.3.3 1.5-.8-.2.4 1.4-.9-.2.1 1.2-1.2-1.3.6-1-.7-.1.5-.7-.7-.7.8-.9-1.4-.2.7-.9H90l-.2 1.3h-.5l.2 1.4h-.7v1.1h-.9v1.2l-.9-.2-.9.7-.5-1-.6-.2 1-.8-.3-.9.6-.6-.5-.4.7-1.3-1-.2.7-1.2h-1l-.3.3-.2.9-.5-.2-.1-1 1.3-1-1-.4.1-.7-.9-.3 1.1-1-.6-.2 1.1-.6-.8-.8.7-.7-1.1-.5-1 .9.1.6-1.4.3 1-1-.8-.5 1-1.2-1.5-.2.8-1.1h-1.7l-.1 1.4-.8.6 1 .4-1 .6-.7-1.1.6-1h-1.4l.4-1-1-.8 1-1.2-1.3-.4-.8-.6-.3 1.2.6.4-.9.6 1 .5-2 .1.5-1.5-.6-.7 1-1-.9-.4.7-.8L74 1l-.4-1.2-.5 1.1.7.5-2 .2.8.7-.4.4V3l1 .8H72L73 5l-1.3-.4V3l-.7.1.2-1.4H70V.4L68.5.2l.6 1.5-1 .2 1 .7-1.2.2 1 .8-.8.4 1.1.8-.4 1.6-1.4-.2.6 1-1.2-1.4-.3-.7h-.8l.3-1.3-1.5.2-.5-.5-.2 1.4.9.2-1 .8 1.7.3V7l1 .3-1.1 1.2-1.4-.5.4-.6h-1v-.7h-1.3V5.5l-.2 2.3.7.1.9.6-1.2 1-.4-.2-1.2.4.1-1H60l-.3-1.3-1 1 1.1.8-1.5.8 1.1.9-.4 1h-1.6l1.8 1.4.6-.5-.6 1.5 1.2.1-1.5 1.2h2l-1 1h1.4l-.6.7 1 .2v1.2h-1.3L61 20l-1.4-1.3-1.2.2.4-1.5-1.6.4.4-1-1.1.5-.2-1.2-1 .8-.1-1.4-1 .1-.8.3v1.4l1-.4-1.4 1.3 1 .4-.6.9h1.2l-1 1.4-1.1-.5-.4.6-.6-.7h-1l.1-1.1-.5.1-.5-.7-1 .9-.8-1.1-.7 1.7 1.6.1-.7 1.2 1 .2-.6 1.4h.7l-.3 1-.7-.1-1.1-.5.2-.6-1.4.2.2-.8-1.3.4V24l1.4.3-1.2 1.4 1.2.5-.6 1.3 1 .2-1 1.4-1-.7-1-.5.7-.7h-1v-.6l-1 .3V25l-1.4 1.2.5.6-1.3 1 1.5.6-.7 1 1.4.2-.6 1.2h1.6L42 32.6l-.6-.8-1.3.2.2-1.3-1 .6-.2-1.4-1.2 1-.5-1.3-.5 1.5 1.3.7-1.1.9 1.2.7-.5.7 1.4.1-.4 1.9 2-.6-1 1.5-1-.6h-1.1l-.3-.8-1.4.5-.4-1.3-1 1.4 1.2.8L35 38l1.3.3-.1.8 1.5.1-.8 1.5 1.4.6-2 1.4-1-1-1.1.5-.5-1.2-.6 1.5.6 1.6.8.3-.5 1.3 1.6.1.4 2-1.4.7 1.6.8-2 .8 1.5.4-.9.9.8.5-1.5 1.3-1.1-1-.2-1-1 .4v-1.3l-2 .8-.2 1.2 1.5.3-1.3 1.2 1.6.3-1.2 1.2h1.7l-.7 1.3-.7-.7-.8.4-.3-1H28l.2-1.4H27l-.6 1.4 1 .5-.8 1 1.2.2-.2.8 1.2.2-.9 1.3 1 .2-.6 1-1.4-.7.3-1.1-1.5.3v-1l-1 1 1 1.7.8.3-1 1 1.1.4.6.5-.4 1.3 1-.5.4.5 1.1-.5-.3 1-1 .3h-.6l-.7.9-1-.5v1.3l1.7.2-.7 1.1h1.7l-.4 1.5 1.6-.2-.6 1.3-1.3.4-.6-.5-1 .4 1.6 2.6 1-.1-1 1.9 1.4.2-1.5 1.7 2.2.2-2.3 1.2-1.5-2h-1l1-1.5-2.4-.2 1.5-1.6L23 73l.4-1.9-1 1.1-1.6-2-.6 1.5-1.3-.9v1.6l1.5.9-2 2.4h1.1l-1.3 1.6 1 .2-1.2 1.9 1.4-.3-.2 2.4 1.4-.1-.9 2.8h2.7a11 11 0 0 0-1.3.9h-.2l.2.3.5-.2-.2.2.4.1-.5 1.2 1.7-.5-1 1.9 1.7.4-1.2.7 1 1-1-.1v.2h-.1v-1.7l-2 1.1-1-2.2-1 .5.2-2.8-1.7-.1.2-1.4-2.2 1.2-1.2-1.5-1 2 1.4 1-.7 1.4 2.2.4-.4 1.6 2.2.6L17 92l1.5.6-3.8 1.6-.6-1.5h-1.4l.8-2.1-1.6-.2-1-1.2-.4 2.2-1.5-3-.8 2.6-1.3.4L8.8 93l-2.3.6 2 1.4-1.7 1.9 2 1.1-1.2 2.4 5.4.8-2.5 1.3h2.8l-1.3 1.1 3.2.1-.3 1.3h.4l-.2.9-2-1 1 1.8-1.3.4 1.6.7-1 .4 2.7.6-.7.7 1.8-.4-1 1.9 1.8-.3.4 1.4 1-1.3.2 1.5 1.3-1.7.1 2.3 1.2-1.6.5 1.5.8-.8.9.8-.2-1.3 1.4 1.5.2-1.3.9.6-.3-1 .3.1.6.9-.1.2h.3l.5.7-.3.9-2.1-.8.3 1.2h-1.5l.4.8-1.5-.3v1.1l-1-.5.2.6-1.5-.5v.8l-1.3-.9-.2 1.2-2-1 1 1.9-1.3.3 1.6.8-1 .3 2.8.6-.8.7 1.9-.4-1.2 1.9 1.9-.3.4 1.4 1-1.3.2 1.5 1.3-1.7.2 2.3 1.1-1.6.5 1.5.8-.8 1 .8-.3-1.3 1.4 1.5.2-1.3 1 .6-.6-1.6 2 2.8v-1.5l1.2 1 .4-1.1.9.9.2-1.6.9 1 1-1.2-.2.4-.3.2h.2l-.2.8h1.5l-.8 1 1.1.5-1.2.2-.4 1-.4-.8-.5 1-.9-.4-.1 1-1.2-.1.8 1-.8.1 1.4.8-.8.3 1.4.4.2.6.5.3v1l1.1-.3.2.6 1-.4.2.7 1-.7 1.2 1 .8-1.3.4 1 .6-1.2.7 1 .6-1.4 1.5.3-.2-1 1.5-.4-.6-1 .9-.8-.2-1 .6.2.2-1.5 1 .3-.3-1.5h.2l1.4.3v-.9l1-.4v.9l3.3-.4.8-.7-.5.7 1.1.4-1.2.2-.5 1.1-.3-.8-.5.8-1-.2v.8h-1.2l.8 1-.8.2 1.4.7-.8.4 1.4.3.2.7.5.2v1l1.1-.2.2.5 1-.4.2.7 1-.7 1.2 1.1.8-1.4.4 1 .6-1.2.7 1 .6-1.3 1.5.2-.2-.9 1.5-.4-.6-1 .9-.9-.2-1 .6.2.2-1.5 1 .3-.3-1.6 1.6.4v-1.3l.3-.3h.6l1.7-1.2v1.5l2.6-1.2 1.4.6 1.5-.7.8.6 3.3.2.6.4.3-.2v1l.5-.4.2.6.1-.1.4.6-.9.9 1.3.8-.4.8 1.5.2.1 1.5 1-.8.2 1.4.7-.9.4 1.6 1.4-.8.8 1 .4-.6.9.7.3-.5 1 .6.3-1 .5-.1.4-.5h1.5l-.7-.6 1.6-.3-.8-.4 1-.7-1-.3v-.7l.4.5.7-1.2.4.5-.5 1h1l-.2 1.5h.6l-.5.9.6 1-.8.8 1.2.8-.4.9 1.6.2v1.5l1-.8.3 1.4.6-1 .4 1.6 1.4-.7.8 1 .4-.7 1 .7.2-.5 1 .6.3-1h.6l.4-.6h1.4l-.7-.5 1.6-.3-.7-.4 1-.7-1.1-.4.1-.8h-1l-.2-1-.5.7-.1-1.1-1.2-.6h1.3l-.5-1.3 1.4.4v-1l.1-.2.5 1.1 1-.7-.1 1.6 1.1-.6v1.2l1.5-.6-.4 1.4 2.6-2-1 1.3 1.1-.3-.1 1.3 1.7-1-.5 1.1 1-.4.6.9.9-1.3.7 1.9.7-2.1.8 2 .6-1.5.6 1.6.8-1.2 1.7.8-.5-2.2 1.6 1-.5-1 2.8.3-.9-.6 1.8-.3-1.1-.7 1.4-1.4-2.2.3.2-1.2-1.5.5.2-.7v-.1l.5.5.7-.8 1.3 1 .7-1.4 1 1.2.4-1 1.3.8.3-.6.6.8 1.2-.2.5 1.1 1.2-.8.6.7.8-1.4 1.4.5-.4-1.3 1.4.4-.6-1 1.6.3-.1-1.6 1.2-.4-.5-.6 1-.6-.3-.4.9-.8-.8-.6.1-.5-.4-.6.6-1.3-.8.4.4-1.6-.7.6-.3-1.3-.7 1-.7-.5-.4.9-1-.2.5.8-1.1-.3-1 .8.4-1.1h-1.3l1-1.2-1.5-.6h1.6l-.3-1.3 1.4.8-.1-1.3 1 .5v-1.6l1.2 1-1-3.3 1 1.4.1-1.1 1.2.6-.4-2 1 1v-1.2l1-.2-.9-1.3h2l-1.7-1.4h2.2l-1.1-1h1.7Zm-19.4 22ZM15.5 105l2.8-.8-.4.6-.3.5-1-.4v.8Zm10.8 6.2v-.4l.1.3Zm1.8 2v-.6h.5Zm94.5 11 .2-.3.2.3Z"/></svg>