<svg xmlns="http://www.w3.org/2000/svg" viewBox="0 0 150 150"><path fill="#73bf44" d="M26.3 104.8a3.9 3.9 0 0 1-1.3-2 1.4 1.4 0 0 0-1.5-.9 2.3 2.3 0 0 1-2.5-1 2.1 2.1 0 0 1 .2-2.6c.4-.5.4-1.3.8-1.8a.2.2 0 0 0 0-.4c-1-.3-1.2-1.3-1.8-1.9a2.1 2.1 0 0 1 .3-3.4c.9-.5 1.4-1.4 2.5-1.6.3 0 .3-.5.3-.8 0-2.2 1.8-3.1 3.6-2 .3.2.6.4.8 0 .2-.4-.3-.4-.5-.5a4.6 4.6 0 0 1-2.2-1c-.2-.1-.5 0-.8.1a3.2 3.2 0 0 1-3-.5 3.7 3.7 0 0 0-.9-.4 2.3 2.3 0 0 1-1.4-2.5 3.3 3.3 0 0 0 0-1c-.4-1.8-.2-4.5 1.9-5.3a.8.8 0 0 0 .4-1.1l-.2-1a2.2 2.2 0 0 1 1-2.7.7.7 0 0 0 .2-.9 9.1 9.1 0 0 1 .1-3.8c0-.3.2-.6 0-.9a2.2 2.2 0 0 1-.2-2.5c.2-.4 0-.5-.2-.7a2.3 2.3 0 0 1-1.1-2.9 2.3 2.3 0 0 0 0-.7 2.2 2.2 0 0 1 1.7-2.5.7.7 0 0 0 .5-1 9.3 9.3 0 0 1 .3-3.1 1.1 1.1 0 0 1 .4-.8c1.1-.6 1.9-1.5 3-2.2a1.2 1.2 0 0 0 .6-.9 2.2 2.2 0 0 1 2-2c.5-.2.7-.4.6-.8l-.2-2.6a1.8 1.8 0 0 1 .2-1.2c.7-1 .7-2.6 2-3.3.2 0 .1-.3.1-.5a2.2 2.2 0 0 1 1.2-2.2c.6-.4 1-.8.6-1.7a2 2 0 0 1 1.3-2.6c1.6-.5 2.9-1.5 4.4-2a2.5 2.5 0 0 1 2 0c.3.1.5.6.9.4a3.5 3.5 0 0 0 1.2-.9 2.6 2.6 0 0 1 1.9-1 .7.7 0 0 0 .6-.5 7.3 7.3 0 0 1 .6-1 2.8 2.8 0 0 0 .6-3.2c-.3-.7.3-1.4.9-2 .4-.3.4-.5-.1-.8a2.1 2.1 0 0 1-1.2-2.4 2 2 0 0 1 1.9-1.8.8.8 0 0 0 .7-.7 2.8 2.8 0 0 1 2.4-2.3c.4 0 .4-.3.5-.6a2.5 2.5 0 0 1 2.4-2 5.1 5.1 0 0 0 3.4-1.7 2.3 2.3 0 0 1 3.4-.3 3.3 3.3 0 0 0 1.9 1 4.5 4.5 0 0 1-.4-.2.8.8 0 0 1-.3-1.1.9.9 0 0 1 1-.5.9.9 0 0 1 .7.8c0 .2-.2.6.2.7.4.1.6-.2.8-.5l.8-1.1a2.2 2.2 0 0 1 2.4-1.2.8.8 0 0 0 1-.5A2 2 0 0 1 71.5 4 7 7 0 0 0 74.8 3a2.2 2.2 0 0 1 3 .6 6.4 6.4 0 0 0 .5.6c.3.3.6.5.7-.2a2 2 0 0 1 .8-1A14.1 14.1 0 0 0 82.2 1a2 2 0 0 1 2.7-.4 2.2 2.2 0 0 1 1 2.6c-.3.9.2 1.6.5 2.3.2.5.7 0 1-.4a2.3 2.3 0 0 1 3.1-.9 1.7 1.7 0 0 1 .5.4 1.3 1.3 0 0 0 1.3.5 2.3 2.3 0 0 1 2.8 1.8c0 .3.3.3.6.4a2.3 2.3 0 0 1 1.6 3.5c-.2.2-.3.4-.1.6a.5.5 0 0 0 .6 0 4.6 4.6 0 0 1 2.7-.4 2.1 2.1 0 0 1 2.3 2.2 1.1 1.1 0 0 0 .7 1.2 2.1 2.1 0 0 1 1.2 2 2.1 2.1 0 0 1-1.2 2c-1 .5-1.3 1.7-2.2 2.3-.4.2.5 1.2 1.3 1.1a1.7 1.7 0 0 0 .4 0 2.3 2.3 0 0 1 3.1 1.5 2.4 2.4 0 0 1-1.2 3.3 1.8 1.8 0 0 0-.7 1.9c0 .2.2.1.4 0 2.1-.1 3 .7 3 2.7a1 1 0 0 0 0 .5 2.3 2.3 0 0 1-.4 3 .5.5 0 0 0 0 .7c.2.3.3.7.6 1a2.8 2.8 0 0 1 1.8-1.3c.3 0 .4-.2.4-.6a2.3 2.3 0 0 1 1.2-2 1.9 1.9 0 0 0 .6-.8 2.3 2.3 0 0 1 4-.2 6.4 6.4 0 0 1 1 2 1.5 1.5 0 0 0 1.4 1.2 2.2 2.2 0 0 1 2.2 2.4c0 .6.5 1 .7 1.5.2.6.2 1.3 1.2 1.3.6 0 1.2.5 2 .3 1.3-.3 2.9 1 2.4 2.3-.4 1.5.4 2.2 1 3.1a3 3 0 0 1 .7 2.4 1 1 0 0 0 .2.8 2.5 2.5 0 0 1-1.2 3.8 1.2 1.2 0 0 0-.3.2c-.4.4-.5 1-1 1.2l-1.4.7a11.3 11.3 0 0 1 2.7 2.4l.2.3c1.5.4 2 1.8 2.6 3a3 3 0 0 1-.3 3 4.6 4.6 0 0 1-.4.5c-.5.7-1 1.2-.1 2.2.9 1 .2 2.7-1.1 3.3-.5.2-.7.4-.6 1 .3 1-.3 1.8-.9 2.7a.7.7 0 0 0 0 1c.6.8.2 1.8.5 2.7.3.8.5 1.3 1.4 1.2a2 2 0 0 1 2.2 1.3 4.8 4.8 0 0 1 .3 2.5 2.2 2.2 0 0 1-2 1.9 2.8 2.8 0 0 0-2 1.3c-.5.9-.8 1.5 0 2.4a1.7 1.7 0 0 1-.1 1.6l-.7 2c0 .2 0 .4.2.6a13 13 0 0 1 1.5 3.2 1.6 1.6 0 0 0 .8.9c1.6 1 1.7 2.3.6 3.8a4 4 0 0 0-1 1.8 2.1 2.1 0 0 1-1.2 1.7c-.5.2-.4.3-.2.7a2.5 2.5 0 0 1-.3 3.2 1.5 1.5 0 0 0-.3.5c-.5 1.6-2 2-3.2 2.7a5.8 5.8 0 0 0-1.3 1c-1 .8-2.2 1.5-2.7 2.8a1.2 1.2 0 0 0 0 .8 2.2 2.2 0 0 1-1.5 2.9 2 2 0 0 0-1 .8 2.2 2.2 0 0 1-2.6.8 9.9 9.9 0 0 1-2-.8.7.7 0 0 0-1.1.4c-.5 1.4-1.8 2-2.7 3-.7.6-2.9.6-3.8 0a2.2 2.2 0 0 1-1-2.3 6.8 6.8 0 0 1 .6-1.6c.2-.4.3-.7-.4-.7a2.3 2.3 0 0 1-1.8-1 1 1 0 0 0-.4-.2c-1.8-.7-1.8-.7-2.4-2.2-1.4 1-2.3 1.2-3.3.5s-1.1-1.5-.4-3.7c-.3 0-.4.2-.6.3a2.5 2.5 0 0 1-2.8-.2 1.5 1.5 0 0 0-2.4.2 2 2 0 0 1-.4.4c-.5.3-.4.6-.4 1.1 0 1.3.3 2.7 0 4a2.2 2.2 0 0 1-3.7.9 5 5 0 0 0-1.3-.7 4 4 0 0 0-3.4.1c-1 .4-1.6-.4-2.3-1.1a15.5 15.5 0 0 0 .2 4.2 168.7 168.7 0 0 1 1.4 25c0 1.4 0 2.7.2 4 0 .9-.2 1.2-1 1.1h-7.2c-.7 0-1-.2-1-1l.5-16.6c0-4-.4-8-.5-11.9v-6.4c0-1-.7-1.4-1.1-2a14.6 14.6 0 0 0-2.9.6c0 .8-.8 1.2-.8 2.2a2.1 2.1 0 0 1-2.1 2 2.2 2.2 0 0 1-2.3-2c-.2-.8-.4-1.3-1.5-1.2a1.9 1.9 0 0 1-1.6-1.3 1.3 1.3 0 0 0-1.7-1 3 3 0 0 1-3.4-3c0-.2 0-.4-.2-.6a2.6 2.6 0 0 1-1.1-1.8.4.4 0 0 0-.4-.4c-.7-.1-1.2-.7-1.8-.7-.7 0-.5 1-.8 1.5a3.7 3.7 0 0 1-3.9 1.8c-.2 0-.4-.1-.5.2a.5.5 0 0 0 .4.6c.6.2 1.3.5 1.5 1.2a14.2 14.2 0 0 1 .6 2.9 2 2 0 0 1-2.5 2.2 1 1 0 0 0-1.2.6c-.5.8-1.2 1.9-2.2 2a4.3 4.3 0 0 0-3 1.5 1.8 1.8 0 0 1-2.5-.2 2 2 0 0 1-.7-2.4c.6-1 .2-1.8 0-2.7 0-.3.2-1-.4-1.1-.6-.2-1 .3-1.4.6a2 2 0 0 1-2.8.5c-.4-.3-.5-.1-.6.2a2.2 2.2 0 0 1-2.6 1.3 2.1 2.1 0 0 1-1.7-2.2 1.2 1.2 0 0 0-.7-1.3 2.2 2.2 0 0 1-1.3-1.7 10.3 10.3 0 0 0-.4-1.3 2 2 0 0 1 .3-1.9c.7-1 1.2-2.2 2.8-2.2Zm19.2-42 .1.6c0 .3.2.5.5.3.3-.1.5-.4.3-.5-.7-.5-1-1.6-2-1.5-1.1 0-1.4-.3-1.5-1.4l-.1-.4c-1-.8-.6-1.5 0-2.1.5-.5.2-.7-.2-.8a2.2 2.2 0 0 0-2.8 1.5c-.2.8-.6 1-1.3.8a1.1 1.1 0 0 0-1.5.6 2.1 2.1 0 0 0 .7 3 2 2 0 0 0 3-1.1c.1-.4.2-.7.7-.7 1 .1.7.7.4 1.2.3.2.5 0 .7 0a1.8 1.8 0 0 1 2 1c.2.1.3.4.6.4.4 0 .1-.5.4-1Zm-6.4 47.8a8 8 0 0 0 1.8 1.6c.3.1.9.3 1 0 .1-.7.7-1.3.5-2l-.4-.2c-1.2-.6-2 .4-3 .6Zm20.4-47.1a3 3 0 0 1-2.9 1.6c1.3 1.3 1.9 1.4 2.8.8 1-.8.4-1.5.1-2.4Zm13.3-3.7c-.4 0-.6.3-.6.7 0 .3 1.6 1.5 1.9 1.4l.2-.3c.4-1-.3-1.8-1.5-1.8Z"/><path fill="#73bf44" d="M55.4 84.4c10.9 0 21.3-9.5 20.8-20.8a21.2 21.2 0 0 0-20.8-20.8c-11 0-21.4 9.6-20.9 20.8a21.2 21.2 0 0 0 20.9 20.8ZM40 115c5.7 0 5.8-9 0-9-5.7 0-5.8 9 0 9Z"/></svg>