<svg xmlns="http://www.w3.org/2000/svg" viewBox="0 0 5000 2867.79704"><path d="M794.70426,1567.42094c-.73686,9.0511-1.17095,14.38256-1.72145,21.14357-38.24276-21.06116-74.76508-41.17492-113.90119-62.72806-2.13347,10.27566-3.83536,18.47272-6.30784,30.38111-33.70471-36.77922-65.85882-71.86642-100.69542-109.88085-112.93542,110.5299-213.4413,231.3281-288.6033,374.89444-28.30033-43.47983-56.63561-87.01354-83.121-127.70506,35.99412-22.19651,75.50223-50.81878,110.59738-74.4609,40.69468-49.53093,70.7654-75.12,93.27149-127.61757,11.93454-27.83823,12.74739-59.91038,38.50843-84.01913,12.79529-11.97474,10.17184-40.3562,14.67412-61.283,3.5209-16.36517,7.27352-32.68048,11.28462-50.636,7.83936,4.969,11.33565,7.18512,17.4412,11.055,7.3246-30.46961,14.068-58.52148,21.32595-88.71387l13.46322,16.94081q2.78458-.8592,5.56921-1.71826c1.21714-12.80191,1.88561-25.68588,3.78723-38.38529,2.50309-16.71608,2.23317-34.84107,22.72374-42.86645,4.141-1.62179,6.59614-9.582,8.28335-15.093,8.6406-28.22286,19.36328-54.04988,39.66271-77.55737,31.08081-35.99263,56.84592-76.59079,84.50028-115.495,2.00816-2.82515,1.04044-7.76561,1.68634-13.911,6.30763,5.62711,10.92421,9.74558,14.00568,12.49462,17.73418-24.58273,34.65269-48.03467,51.83586-71.85353,13.8455,15.20212,20.313,1.59486,27.13426-6.30607,16.98963-19.67919,33.29573-39.94843,51.68194-62.16239,3.03811,7.7449,5.24517,13.37132,7.72524,19.6936,2.93312-1.701,5.068-2.39813,6.45317-3.8238,19.7368-20.3137,38.99361-41.119,59.3812-60.75168,3.66756-3.53175,11.89315-2.33012,23.74-4.23406,9.30041-12.5305,22.92076-30.88118,39.09673-52.67512,3.099,10.611,4.78657,16.38941,7.27979,24.92623,36.01977-19.06421,64.217-44.70469,88.37916-75.67092,4.08267-5.23239,12.62559-6.98456,19.10778-10.34463q1.07081,2.61094,2.14154,5.22187c16.39121-19.301,32.78235-38.60192,50.38406-59.32823,15.19325,18.4538,27.47976,17.12658,40.88709.071,7.18235-9.13674,18.73623-14.8404,28.33166-22.07438,2.37625-1.79143,5.83418-5.57091,7.0631-4.95894,27.97826,13.93282,33.7697-15.97053,50.21147-24.6497,8.45136-4.46121,20.12719-3.40031,27.82251-8.58222,14.85723-10.00462,28.1615-22.39966,41.6387-34.33541,7.22113-6.39524,13.46287-13.89653,20.14645-20.89872q1.47429,2.55579,2.94857,5.11165c7.29121-2.69007,15.49118-4.06792,21.67848-8.35225,11.70922-8.10825,21.57-18.99946,33.60114-26.47888,5.651-3.51305,14.61582-1.41559,21.96382-2.58411,4.41772-.70255,9.46372-1.75331,12.76936-4.44092,19.20583-15.61526,38.65046-31.049,56.65654-47.98755,11.48178-10.80128,17.0915-9.2438,21.48374,8.92845,21.69815-14.40665,42.05874-27.92506,62.61572-41.574,2.46753,3.31161,5.35875,7.19185,9.1885,12.33186,18.50623-15.06295,35.07418-31.15062,54.27752-42.94868,8.13432-4.99761,25.24189-5.54556,32.31759-.2144,21.55812,16.24289,34.31875,2.03414,47.84326-9.83519,16.08109-14.113,30.98749-29.56437,48.33842-46.303,3.75842,10.077,5.8071,15.56994,8.98684,24.09573,41.04014-24.02655,81.37334-47.63927,121.73743-71.27,2.09507,7.10008,4.15317,14.07423,6.81183,23.08379,37.77039-16.17512,74.26732-31.805,116.65889-49.95911-6.95048,13.44728-10.47594,20.26809-17.54318,33.94119,30.31988-9.0223,54.69914-16.22837,79.044-23.54889,7.92323-2.3825,15.94632-4.598,23.5899-7.70992,13.93172-5.672,24.80088-4.42188,29.201,12.32221,32.925-15.35263,64.55373-30.1009,100.25036-46.746-1.42026,10.09136-2.13427,15.16493-3.02419,21.4888,31.75815-9.6593,62.93111-19.14057,95.9519-29.1839,1.82942,11.38854,2.86158,17.81428,3.71078,23.10086,18.63726-4.15611,36.67824-8.03058,54.63736-12.25232,7.93944-1.86637,15.64562-4.73372,23.59364-6.55211,3.56327-.81522,10.37566-1.18757,10.77775-.03669,8.71383,24.94582,26.62226,13.59253,41.38794,10.02166,16.43068-3.9735,32.08572-11.11519,48.48649-15.26591,9.40416-2.38,23.80043-6.04413,28.76014-1.41969,24.28854,22.64607,53.18829,11.28922,79.84643,13.39333,11.82916.93367,24.24366-5.54859,38.9164-9.312-2.84663,10.1251-4.55277,16.1947-6.78192,24.12414,25.98941-4.30434,49.907-8.96708,74.02464-12.079,28.94131-3.73434,29.01528-3.16194,37.43381,26.77431l102.25153-11.17854c12.917,29.18424,20.3574,32.196,51.28824,24.77582,25.04784-6.0088,50.31563-11.10054,80.9182-17.78579-5.60709,11.81426-8.48779,17.88361-13.18488,27.78035h118.79967c-.71636,8.72436-1.12469,13.69668-1.81667,22.12493,41.18461-6.84595,80.84978-13.43931,120.51495-20.03267q.76374,2.48325,1.5272,4.96652c-10.69173,6.36422-22.52311,11.43626-31.694,19.52486-6.657,5.87145-9.79254,15.73558-14.49794,23.81953,7.97032,3.37136,15.83648,9.32441,23.92952,9.65051,29.23827,1.17817,58.553.46355,88.38159.46355v23.77218h102.85515c-9.16814,7.21606-14.54781,11.45027-24.842,19.55275h79.9553c-8.72076,12.59977-13.43586,19.41218-19.88342,28.72755,29.733,6.53555,57.36986,12.61027,93.13436,20.47158-10.47317,5.21357-17.53709,8.73-24.601,12.24635q1.24242,2.61754,2.48456,5.23511c22.92534,2.03941,45.8504,4.07885,71.02373,6.31827-2.16406,5.43812-4.08572,10.26741-6.72375,16.897,10.18839,2.58217,21.32308,8.64561,31.48044,7.3051,21.29039-2.80982,26.9864,6.63762,24.58495,26.54075,28.80224,5.94727,56.46983,11.66018,86.08872,17.776-3.31589,4.21883-7.07528,9.00173-11.98789,15.25191q80.016,30.7691,160.16406,61.58886-1.00017,2.82447-2.00034,5.649c-4.12117,1.00914-8.24263,2.01831-18.86095,4.61835,15.23148,6.66609,25.56808,10.1333,34.81323,15.48564,13.56716,7.85443,25.67168,18.453,39.66628,25.28892,13.75415,6.71824,29.01583,10.43549,43.75837,15.012,8.81329,2.736,17.89971,4.5929,30.10533,7.65947-8.49554,7.65349-13.79958,12.43178-17.2717,15.55989,37.3471,14.349,75.156,28.87551,116.46774,44.7477-9.1119,6.33059-14.27743,9.91948-22.97187,15.96,34.22429,15.53239,68.79457,7.725,101.75234,10.64374-8.35094,42.48464-3.85191,48.46329,36.18945,60.41011,22.04886,6.57852,43.2301,16.06482,64.64043,24.1787-6.63981,26.72829-2.50367,31.12233,29.17761,33.88384,14.46414,1.26077,28.86706,3.22177,43.298,4.86524l1.49339,7.05243c-12.06656,7.38568-24.13341,14.77142-40.17239,24.58841,28.554,6.784,53.4919,12.70882,84.10528,19.9821-11.848,8.82319-17.6562,13.14852-27.75318,20.66766,27.3878,10.74457,49.34857,19.36013,72.59884,28.48152-.5194,5.92006-1.14324,13.02906-1.90642,21.7251h39.57985c0,10.78924-3.8738,23.78042.96568,30.12354,6.26141,8.20669,19.13852,11.99732,29.79092,16.04958,11.28233,4.292,23.29681,6.66024,35.19883,14.77641q-26.96465,9.24439-53.92959,18.48865.30832,3.17637.61692,6.35275c21.32945,4.84841,42.96527,8.69451,63.82988,15.06464,7.76921,2.372,13.73643,10.64686,20.525,16.23013l-3.93169,7.08532h52.29186c-.94656,13.07338-7.61934,31.49817-1.41832,38.46673,7.55286,8.48731,25.93706,7.33589,39.83249,10.39685-17.8479,26.72407-9.13794,44.70376,23.52979,48.7572,13.28738,1.64867,26.7224,2.10879,45.02821,3.47954-12.248,15.3186-22.13556,27.68476-33.73452,42.192,28.65764,15.13487,55.872,29.50767,86.71422,45.79624-20.0186,7.82281-36.99251,14.47371-53.98056,21.08838-12.50314,4.86829-25.38829,8.9619-37.33878,14.93147-4.119,2.05754-9.40832,10.16041-8.21826,13.07158,6.80879,16.6559-5.28215,18.94516-15.60739,23.032-13.79875,5.46166-28.05541,10.03409-41.16605,16.822-4.72258,2.445-6.69687,10.1967-12.66132,20.04243-25.8365,2.13857-62.33815-5.73452-85.72721,30.72418,8.733,4.2173,15.74618,7.604,27.01466,13.04555-22.49874,8.25315-41.52036,15.696-60.855,22.209-25.69522,8.65552-26.90191,10.88107-13.97909,35.32432l-46.98893,21.42821c4.12117,6.5236,7.1124,11.25823,9.90749,15.6826-33.9168,15.83316-69.74529,25.93415-95.28844,57.10683,6.97944,3.95773,12.56714,7.12611,18.646,10.573-1.00059,1.65213-1.63662,4.27312-3.11422,4.89488-12.92837,5.44061-26.02377,10.48231-39.03552,15.72693-9.87508,3.98031-19.7,8.084-31.51617,12.94249,6.47526,7.91588,9.53131,11.21418,12.08263,14.865,4.83145,6.91323,9.37313,14.02854,14.03532,21.06019-9.03046,3.98433-17.76812,10.28175-27.15261,11.46918-19.26263,2.43719-38.8718,2.13732-65.09834,3.2512,13.3774,15.25545,21.31282,24.30516,32.01674,36.512-34.99606,13.16383-66.077,24.85489-97.58768,36.7076,12.71451,6.50726,24.0359,12.30176,40.53307,20.74508-32.60956,12.12516-59.46992,22.11271-90.54149,33.666,10.92166,7.34246,17.877,12.0185,24.81875,16.68526-34.91185,8.73766-70.00708,17.52088-110.45649,27.64432,13.54279,10.48313,21.72752,16.81892,33.71154,26.09551-10.10778,2.3063-17.54291,4.64516-25.15283,5.62385-27.41107,3.52546-55.02741,5.725-82.24789,10.31278-9.26592,1.56168-17.59249,8.69929-26.34815,13.28918,6.02788,6.76128,12.05576,13.52256,20.5682,23.07077-15.40184,0-29.76155-2.451-42.77718.68215-13.29375,3.20037-25.26806,11.88249-40.18347,19.34767,8.7058,6.40989,16.10935,11.861,23.26662,17.13085-31.17544,6.50961-62.60048,13.07144-96.917,20.23689,6.56391,10.46887,11.0995,17.70274,17.80053,28.39074-29.94355,0-57.25572-1.3301-84.36567.4399-20.0488,1.3089-39.97987,6.05142-59.5896,10.80655-3.20535.777-6.70906,9.832-6.09824,14.54573.85432,6.59119,5.44476,12.6983,10.10667,22.53682-41.599-6.42609-77.62586-2.78983-114.07127,11.54162,7.972,11.63123,14.03865,20.48275,21.768,31.76h-95.85577c8.01631,8.70663,15.14505,16.44952,26.11435,28.36345-38.90919-5.16372-72.93542-9.67937-110.78031-14.702,4.186,15.76986,6.45338,24.31222,8.3803,31.57172-39.58179,1.91044-79.1212,3.81881-122.32886,5.90433,7.34482,9.837,13.36245,17.89693,21.05742,28.2032-34.00268-5.52967-65.9981-10.733-99.6678-16.20866,4.68989,10.48813,8.83821,19.76541,13.41619,30.00339-34.82182,6.44521-70.42676-22.268-105.32808,2.62847,2.23553,5.52635,4.30623,10.646,7.73154,19.11484-44.23734-6.4905-84.0931-31.89153-129.77424-15.256,5.50432,9.25942,10.03437,16.88,16.54177,27.8266-27.21854-7.88445-51.97552-16.01-77.2566-21.881-9.32771-2.166-19.88425,1.40143-29.89092,1.5337-5.18631.06843-10.438-1.46389-15.58884-2.59786-35.63375-7.84483-71.37027-13.571-111.395-8.08348,4.94225,10.8096,8.47089,18.52728,13.81925,30.22486-19.05459-7.87793-35.013-14.89961-51.2863-21.09232-18.69391-7.11364-37.56068-17.28126-54.53349,4.85694-2.62916,3.42932-13.12421,3.15508-19.02356,1.39034q-89.53106-26.77953-178.64591-54.93682c-11.29369-3.58016-21.45452-10.60184-32.50693-15.13646-4.77951-1.961-10.49616-1.63814-15.787-2.3527.50833,5.25126.20056,10.76181,1.76363,15.67775,1.44616,4.54778,4.895,8.4587,8.41355,14.20389-20.80963-9.15249-39.05463-18.33005-58.12335-25.2322-18.22589-6.59715-37.30873-10.82691-59.92353-17.1983,2.41489,14.39739,3.59692,21.44483,5.27495,31.44873-50.80872-21.38513-99.0682-41.69723-147.41826-62.04742,2.12652,8.51992,4.19542,16.80839,6.383,25.57264-42.98092-20.12262-82.93378-38.82747-122.88663-57.53232q-1.99764,2.39757-3.99541,4.79529c2.92543,7.0214,5.85086,14.0428,10.8704,26.09039-29.60517-15.2391-55.86967-27.8633-81.2268-42.10306-19.1852-10.77386-31.53848-9.17008-39.53664,8.505-25.64-16.134-50.99127-32.59377-76.90631-48.11252-8.82132-5.28257-18.79946-9.08407-28.70751-12.0095-21.76381-6.42582-24.82138-4.20206-32.10068,25.42624-15-13.262-29.26833-23.01287-39.83138-35.8199-21.23014-25.74-43.63981-38.60019-68.67865-34.87764,1.57664,6.329,3.13306,12.57656,5.04406,20.24784-22.25108-16.35285-43.7894-32.18157-68.65551-50.45622-1.52013,13.977-2.4293,22.33793-3.37933,31.07281-17.17115-19.2086-33.75-37.75445-50.32893-56.30029q-2.778,2.67847-5.556,5.35708c-1.31569,7.68887-2.63138,15.37761-3.872,22.62769-3.14622,0-5.537.40569-5.71956-.058-11.989-30.44745-35.4735-40.96327-66.81876-44.13954-18.64737-1.88967-36.319-12.87338-54.59359-19.30086-5.56111-1.95587-11.67044-2.35312-17.52864-3.46423v21.02625c-9.87855-10.46776-17.837-19.13464-26.07765-27.52437-3.576-3.64082-7.2041-8.09345-11.71116-9.81843-31.77144-12.16034-63.23949-31.30828-95.839-33.61749-45.71979-3.23874-71.75373-33.869-106.7536-55.98782-1.53488,6.24645-3.13133,12.74318-4.36551,17.7659-28.21905-16.55839-56.26587-33.01566-87.125-51.12327-2.07229,13.704-3.25176,21.50383-4.93145,32.6115-10.8729-8.19235-19.925-14.41636-28.30278-21.44413-20.10628-16.86657-37.80785-32.77065-67.65078-37.73852-30.845-5.13451-59.908-25.7282-87.75816-42.80793-29.94037-18.36163-57.3238-40.85177-86.37779-60.72951C813.76079,1572.45294,804.70858,1571.045,794.70426,1567.42094Z" style="fill:#183719"/><text transform="translate(1153.89152 1179.25171)" style="font-size:470.0491027832031px;fill:#fff;font-family:Georgia-Bold, Georgia;font-weight:700;letter-spacing:0.024999465998172123em">LEAFLAND</text><text transform="translate(409.75357 2583.1189)" style="font-size:290.4729309082031px;fill:#183719;font-family:Georgia-Bold, Georgia;font-weight:700">QUALITY SPECIMEN TREES</text><text transform="translate(1643.03897 1598.01929)" style="font-size:302.5759582519531px;fill:#fff;font-family:Georgia">lea<tspan x="385.31152" y="0" style="letter-spacing:0.0999991023528542em">f</tspan><tspan x="513.96533" y="0">land.co.nz</tspan></text><path d="M779.4514,995.56519c454.64979-383.39871,1085.12769-775.10359,1782-737,1234.5,67.5,2028,962,2028,962s-826,962-1895,861c-646.88936-73.54815-1391-348-1809-559-78.95087-39.85319-258-143-333-158C537.9733,1361.66957,645.4514,1108.56519,779.4514,995.56519Z" style="fill:none;stroke:#fff;stroke-linecap:round;stroke-linejoin:round;stroke-width:25px"/><path d="M279.4514,1727.56519c155-189,273-370,273-370" style="fill:none;stroke:#fff;stroke-linecap:round;stroke-linejoin:round;stroke-width:25px"/></svg>