<svg xmlns="http://www.w3.org/2000/svg" viewBox="0 0 1000 500"><path d="M134.64033,336.47758c-.15905,1.95361-.25275,3.10437-.37157,4.56369-8.25443-4.54591-16.13751-8.88732-24.58476-13.53941l-1.36151,6.55754c-7.27492-7.93853-14.21516-15.51185-21.73439-23.717-24.37632,23.8571-46.0698,49.93054-62.293,80.91832C18.18669,381.8759,12.07072,372.47946,6.354,363.69648c7.76908-4.791,16.29663-10.96887,23.87167-16.07186,8.78366-10.6909,15.27421-16.21412,20.132-27.54535,2.576-6.00868,2.75143-12.93123,8.31177-18.13494,2.76177-2.58466,2.19552-8.71059,3.16731-13.2275.76-3.5323,1.56993-7.05385,2.4357-10.92942,1.69207,1.07252,2.44672,1.55086,3.76456,2.38615,1.581-6.57665,3.03648-12.63145,4.60306-19.14826l2.90594,3.65655,1.20207-.37087c.26271-2.7632.407-5.54412.81745-8.28519.54027-3.608.482-7.5202,4.90476-9.25242.8938-.35006,1.42373-2.06821,1.7879-3.25773,1.865-6.09171,4.17943-11.66629,8.56092-16.74021,6.70857-7.76876,12.26979-16.53158,18.23879-24.92878.43344-.60979.22457-1.67615.364-3.0026l3.023,2.69688c3.8278-5.306,7.47954-10.36794,11.1884-15.50908,2.98845,3.28127,4.38442.34424,5.85674-1.36112,3.66709-4.24761,7.18665-8.62258,11.15518-13.41731l1.66744,4.25072a7.19488,7.19488,0,0,0,1.39287-.82534c4.26005-4.38456,8.4165-8.87525,12.817-13.11282.79161-.7623,2.567-.50294,5.1241-.91389l8.43876-11.36955,1.57129,5.38015a58.81066,58.81066,0,0,0,19.076-16.333c.88122-1.12937,2.72515-1.50756,4.12428-2.23281l.46224,1.1271c3.53793-4.166,7.07584-8.332,10.875-12.80558,3.27936,3.98313,5.93132,3.69666,8.82519.01533,1.55026-1.9721,4.04408-3.20319,6.11519-4.7646.5129-.38666,1.25927-1.20244,1.52452-1.07035,6.03891,3.0073,7.289-3.44712,10.83779-5.32046,1.82417-.96292,4.34432-.73393,6.00529-1.85241a88.59726,88.59726,0,0,0,8.98743-7.41106c1.55863-1.38037,2.90586-2.99947,4.34846-4.51084l.63643,1.10331c1.57376-.58063,3.34366-.878,4.67915-1.80277,2.52735-1.75011,4.65574-4.1009,7.25257-5.71528,1.21973-.75827,3.15472-.30554,4.74073-.55776a5.95809,5.95809,0,0,0,2.75618-.95854c4.14544-3.37045,8.34243-6.70172,12.22891-10.35778,2.47826-2.33138,3.68908-1.99521,4.63712,1.92715,4.68339-3.10958,9.07808-6.02743,13.51516-8.97346.5326.71479,1.15665,1.55231,1.98327,2.66174,3.99444-3.25123,7.57051-6.72364,11.71542-9.27017,1.75574-1.07869,5.44828-1.197,6.97552-.04627,4.65317,3.50591,7.40746.43905,10.32663-2.12286,3.471-3.04619,6.68843-6.38126,10.43351-9.99418.81123,2.17506,1.25342,3.36066,1.93974,5.20089l26.27617-15.38313c.45221,1.5325.89643,3.03782,1.47029,4.98247,8.15247-3.49128,16.03007-6.86487,25.18-10.78332-1.50021,2.9025-2.26115,4.37472-3.78657,7.326,6.54433-1.9474,11.80642-3.50278,17.0611-5.08287,1.71017-.51424,3.4419-.99245,5.09172-1.66413,3.00706-1.22426,5.35309-.95443,6.30283,2.65966l21.63833-10.08978c-.30655,2.17815-.46067,3.27324-.65275,4.63821,6.85477-2.0849,13.58323-4.13136,20.71054-6.29914.39487,2.45813.61765,3.84508.80094,4.98615,4.02273-.89706,7.91674-1.73334,11.79309-2.64457,1.71367-.40285,3.377-1.02174,5.09252-1.41423.76911-.176,2.23952-.25633,2.32631-.00792,1.88081,5.38438,5.74622,2.93385,8.93329,2.16311,3.54645-.85766,6.92548-2.39914,10.46547-3.295,2.02982-.51371,5.13715-1.30459,6.20767-.30643,5.24251,4.888,11.48032,2.43669,17.23429,2.89085,2.55324.20153,5.23282-1.19762,8.39983-2.00992-.61443,2.18543-.98269,3.49551-1.46383,5.207,5.60963-.92906,10.77208-1.93548,15.97769-2.60717,6.24678-.806,6.26275-.68248,8.07983,5.779L583.86752,37.23c2.788,6.29922,4.394,6.94928,11.0702,5.34769,5.4064-1.297,10.86028-2.396,17.46563-3.83894-1.21026,2.55-1.832,3.86005-2.84587,5.9962h25.64207c-.15462,1.88309-.24275,2.95633-.39211,4.77551l26.0123-4.32391q.16485.536.32963,1.072c-2.30773,1.37368-4.86145,2.46844-6.84093,4.21431-1.43686,1.26731-2.11365,3.39641-3.12928,5.14127,1.72034.72769,3.4182,2.01261,5.165,2.083,6.31088.2543,12.63825.1,19.07654.1v5.13106h22.20056c-1.97888,1.55753-3.14,2.47146-5.362,4.22032h17.25778c-1.88231,2.71957-2.9,4.19-4.29169,6.20064l20.10239,4.41865-5.31,2.64329q.26817.565.53627,1.13l15.33,1.36375c-.46709,1.17378-.88187,2.21615-1.45127,3.6471,2.19909.55734,4.60243,1.86609,6.79483,1.57675,4.59538-.60648,5.82482,1.43269,5.30649,5.72863,6.21676,1.28368,12.18861,2.51677,18.58164,3.83683-.71571.91061-1.52715,1.943-2.5875,3.292q17.27088,6.64129,34.57028,13.29352l-.43176,1.21929-4.071.99684c3.28761,1.43883,5.51869,2.1872,7.51419,3.34247,2.92837,1.69532,5.54105,3.983,8.56168,5.45843a65.713,65.713,0,0,0,9.44494,3.24024c1.90228.59055,3.86352.99134,6.498,1.65324-1.8337,1.65195-2.97854,2.68331-3.728,3.35849,8.0611,3.09714,16.22189,6.23258,25.13874,9.65848-1.96674,1.36641-3.08169,2.14105-4.95832,3.44485,7.38707,3.35256,14.84882,1.66738,21.96253,2.29738-1.8025,9.17-.83141,10.46046,7.81123,13.03909,4.75909,1.41993,9.33091,3.46748,13.95218,5.21881-1.43315,5.76911-.5404,6.71753,6.29778,7.31358,3.122.27213,6.23076.6954,9.34556,1.05013l.32234,1.52222c-2.60448,1.59414-5.209,3.18831-8.67092,5.30723l18.15353,4.313-5.99033,4.461,15.66995,6.14753c-.11211,1.2778-.24677,2.81223-.41149,4.68921h8.543c0,2.32878-.83613,5.13284.20843,6.502,1.35148,1.77135,4.13092,2.58953,6.43016,3.46418,2.43522.92639,5.02846,1.43757,7.59742,3.18939q-5.82012,1.99533-11.64032,3.99064.06655.6856.13316,1.3712c4.60381,1.04649,9.27375,1.87665,13.77723,3.25159,1.67693.512,2.96491,2.29805,4.43017,3.50316l-.84863,1.52932h11.28684c-.20431,2.8218-1.64459,6.79866-.30614,8.30277,1.63023,1.83193,5.59833,1.5834,8.59756,2.24409-3.85234,5.7682-1.97236,9.649,5.07874,10.5239,2.868.35585,5.76784.45516,9.719.751-2.64364,3.30641-4.7778,5.97556-7.28136,9.10684,6.18555,3.26675,12.05959,6.369,18.71666,9.8848-4.32088,1.68849-7.98458,3.124-11.65133,4.55177-2.69871,1.05079-5.47988,1.93437-8.05931,3.22285-.889.44411-2.03072,2.19306-1.77385,2.82141,1.46963,3.59506-1.14012,4.08918-3.36875,4.9713a95.68269,95.68269,0,0,0-8.8854,3.6309c-1.01933.52772-1.44547,2.20089-2.73285,4.326-5.57663.46159-13.45525-1.23776-18.50362,6.63159,1.885.91028,3.3987,1.64127,5.83092,2.81579-4.85619,1.78139-8.96187,3.38788-13.13512,4.79365-5.54613,1.86824-5.80659,2.34861-3.01729,7.62451L918.51257,319.641c.88953,1.40808,1.53517,2.43,2.13847,3.385-7.3207,3.41748-15.054,5.59771-20.56734,12.32611,1.50646.85425,2.71253,1.53812,4.0246,2.28211-.216.3566-.35325.92233-.67218,1.05653-2.79049,1.17432-5.617,2.26253-8.42554,3.39454-2.13147.85913-4.25211,1.74489-6.80254,2.79355,1.39764,1.70859,2.05726,2.4205,2.608,3.2085,1.04283,1.49217,2.02312,3.028,3.02942,4.5457-1.94916.86-3.83512,2.21924-5.8607,2.47554-4.1577.526-8.3902.46132-14.051.70175,2.88742,3.29278,4.60022,5.24609,6.91059,7.88086-7.55366,2.84132-14.26227,5.36475-21.06362,7.92308,2.74434,1.40454,5.188,2.65524,8.74878,4.47768-7.03854,2.61713-12.83616,4.77287-19.54274,7.26656,2.35736,1.58482,3.85862,2.59411,5.35695,3.60139-7.53547,1.886-15.11053,3.78176-23.84125,5.96683,2.92311,2.26272,4.68973,3.63025,7.27639,5.63254-2.18169.4978-3.78651,1.00262-5.42906,1.21387-5.91648.76094-11.87727,1.23569-17.75262,2.22594-2,.33707-3.79722,1.87768-5.68706,2.86837l4.4395,4.97966c-3.32438,0-6.42382-.529-9.23315.14724-2.86937.69078-5.45394,2.56475-8.67332,4.17606l5.02193,3.69757c-6.729,1.40506-13.51187,2.82138-20.91885,4.368,1.41677,2.25963,2.39575,3.821,3.84212,6.12794-6.46311,0-12.35825-.28709-18.20974.09495a76.20328,76.20328,0,0,0-12.862,2.33252c-.69186.16772-1.44811,2.12217-1.31626,3.13959.18439,1.42267,1.17521,2.74084,2.18145,4.86442a45.51367,45.51367,0,0,0-24.62148,2.49117c1.7207,2.51052,3.03014,4.42106,4.69846,6.85516H712.56894c1.73026,1.87927,3.269,3.55052,5.6366,6.12206-8.39828-1.11456-15.7426-2.08923-23.91115-3.17332.90352,3.40381,1.39292,5.24762,1.80883,6.81453l-26.40382,1.27441c1.58533,2.12325,2.88419,3.86293,4.54509,6.08746-7.33923-1.19354-14.24522-2.31664-21.51259-3.49852,1.01228,2.26379,1.90767,4.26622,2.89579,6.476-7.516,1.39115-15.20112-4.80639-22.73432.56734.48252,1.19282.92947,2.29786,1.6688,4.1258-9.54832-1.40093-18.1509-6.88356-28.01085-3.2929,1.18806,1.99858,2.16584,3.64343,3.57042,6.00617-5.87493-1.7018-11.21855-3.45565-16.67529-4.72285-2.01332-.46752-4.29188.30248-6.45175.331a15.12431,15.12431,0,0,1-3.36474-.56073c-7.69129-1.69325-15.40477-2.92921-24.04382-1.74476,1.06675,2.33318,1.82838,3.999,2.98278,6.52383-4.11279-1.7004-7.5573-3.216-11.06978-4.55263-4.03495-1.53543-8.10721-3.73-11.77067,1.04833-.56749.7402-2.83277.681-4.1061.3001q-19.32465-5.78018-38.55946-11.85773c-2.43766-.77275-4.63081-2.28833-7.01639-3.2671a14.06143,14.06143,0,0,0-3.40752-.50781,8.30383,8.30383,0,0,0,2.19667,6.44974c-4.49161-1.9755-8.42967-3.95641-12.54551-5.44619-3.93393-1.42395-8.05283-2.33691-12.93407-3.71213.52123,3.10757.77637,4.62871,1.13856,6.788-10.96671-4.61582-21.38317-9-31.81919-13.39249.459,1.839.90555,3.628,1.37773,5.51967-9.27713-4.34332-17.90067-8.38063-26.52422-12.41794q-.43118.5175-.86238,1.035c.63144,1.51552,1.26287,3.031,2.3463,5.63142-6.39007-3.28925-12.05907-6.01409-17.53223-9.08764-4.141-2.32547-6.80736-1.9793-8.5337,1.83573-5.53421-3.48241-11.00611-7.03513-16.59969-10.38475a26.964,26.964,0,0,0-6.19631-2.59216c-4.69756-1.387-5.35752-.907-6.92871,5.48807-3.23765-2.86251-6.31736-4.96716-8.59732-7.73147-4.58237-5.55579-9.41934-8.33158-14.8238-7.52809.34031,1.36607.67625,2.71456,1.08873,4.37035-4.80274-3.52964-9.45164-6.94616-14.81881-10.89062-.32811,3.01684-.52435,4.82149-.72941,6.70685-3.70627-4.146-7.2847-8.149-10.86314-12.152l-1.19922,1.15629-.83574,4.884c-.67909,0-1.19513.08757-1.23453-.01252-2.58774-6.57187-7.6567-8.84164-14.42236-9.52721-4.0249-.40787-7.83919-2.77863-11.78364-4.166a25.951,25.951,0,0,0-3.78343-.74773V401.255c-2.13222-2.25939-3.85-4.13008-5.62868-5.94094a8.21058,8.21058,0,0,0-2.52777-2.11924c-6.85764-2.62472-13.6498-6.75767-20.68617-7.2561-9.8683-.699-15.48754-7.31038-23.042-12.08457-.3313,1.34825-.67588,2.75052-.94227,3.83464-6.09088-3.574-12.14459-7.12619-18.80532-11.03459l-1.06442,7.039c-2.34684-1.76826-4.30068-3.11167-6.109-4.62857-4.3398-3.64053-8.16055-7.07331-14.60194-8.14559-6.65767-1.10825-12.93072-5.55325-18.942-9.23979-6.46242-3.96323-12.37294-8.81757-18.644-13.108C138.75354,337.5637,136.79969,337.25981,134.64033,336.47758Z" style="fill:#183719"/><text transform="translate(212.16771 252.69255)" style="font-size:101.45675659179688px;fill:#fff;font-family:Georgia-Bold, Georgia;font-weight:700;letter-spacing:0.025001992759889728em">LEAFLAND</text><text transform="translate(317.7473 343.08122)" style="font-size:65.30888366699219px;fill:#fff;font-family:Georgia">lea<tspan x="83.16699" y="0" style="letter-spacing:0.09999058429474382em">f</tspan><tspan x="110.93555" y="0">land.co.nz</tspan></text><path d="M131.3481,213.04655c98.133-82.7539,234.21715-167.30064,384.63212-159.07625C782.43833,68.5397,953.7097,261.61121,953.7097,261.61121S775.42343,469.25212,544.68733,447.452c-139.6265-15.87485-300.23753-75.11334-390.45988-120.6562-17.041-8.602-55.68747-30.86554-71.87569-34.10319C79.22676,292.06759,102.42515,237.4368,131.3481,213.04655Z" style="fill:none;stroke:#fff;stroke-linecap:round;stroke-linejoin:round;stroke-width:5px"/><path d="M23.42663,371.04358c33.45566-40.79431,58.92513-79.86189,58.92513-79.86189" style="fill:none;stroke:#fff;stroke-linecap:round;stroke-linejoin:round;stroke-width:5px"/></svg>