<svg xmlns="http://www.w3.org/2000/svg" viewBox="0 0 512 512"><path d="M76.43185,297.21988l-.1827,2.24395-12.08822-6.65727-.66945,3.22432L52.80477,284.36933C40.819,296.09976,30.15245,308.92,22.17558,324.15652c-3.00349-4.61448-6.01068-9.23467-8.82156-13.55322,3.82-2.35569,8.013-5.39335,11.7376-7.90246,4.31888-5.25667,7.51026-7.97242,9.89881-13.54394,1.2666-2.95444,1.35287-6.35823,4.08686-8.91687,1.358-1.27086,1.07953-4.283,1.55735-6.5039.37367-1.73682.77194-3.46835,1.19763-5.37395l1.851,1.17326,2.2633-9.41512,1.42884,1.79791.591-.18235c.12918-1.35866.20012-2.726.40194-4.0738.26565-1.77406.237-3.69765,2.41165-4.54937.43948-.17212.7-1.01693.8791-1.60181a21.67632,21.67632,0,0,1,4.20937-8.23109c3.29857-3.81987,6.033-8.12851,8.96793-12.25738.21313-.29983.11042-.82415.179-1.47636l1.48641,1.326,5.50129-7.62574c1.46941,1.61338,2.1558.16926,2.87973-.66926,1.8031-2.08853,3.53365-4.23969,5.485-6.59723l.81987,2.09006a3.53779,3.53779,0,0,0,.68487-.40582c2.09465-2.15587,4.13835-4.36392,6.30207-6.44752.38923-.37482,1.26221-.24729,2.5195-.44935l4.1493-5.59036.7726,2.64539a28.91683,28.91683,0,0,0,9.37959-8.03088c.43329-.55531,1.33994-.74126,2.02789-1.09786l.22728.55419c1.73959-2.04839,3.47916-4.09679,5.34721-6.29645,1.61245,1.95848,2.91641,1.81763,4.33931.00754a15.34862,15.34862,0,0,1,3.00681-2.34274c.25219-.19012.61918-.59123.7496-.52628,2.96931,1.47867,3.584-1.69494,5.3289-2.61605.89693-.47347,2.13608-.36087,2.95278-.91082a43.56411,43.56411,0,0,0,4.41907-3.644c.76637-.67872,1.4288-1.47482,2.13812-2.218l.31293.54249a10.16663,10.16663,0,0,0,2.30072-.88641c1.24269-.86052,2.28921-2.0164,3.56606-2.81018.59973-.37284,1.55116-.15024,2.331-.27425a2.92965,2.92965,0,0,0,1.3552-.47131c2.03829-1.65723,4.10193-3.2952,6.0129-5.09287,1.21855-1.14633,1.81391-.981,2.28005.94757,2.3028-1.529,4.46365-2.96366,6.64535-4.41221l.97516,1.30876a56.673,56.673,0,0,1,5.76042-4.5581,3.78309,3.78309,0,0,1,3.42984-.02275c2.28794,1.72384,3.64221.21588,5.07756-1.0438,1.70667-1.4978,3.28867-3.13764,5.13011-4.9141.39888,1.06947.6163,1.65242.95376,2.55726l12.91988-7.56382c.22235.75352.44077,1.49368.72293,2.44986l12.3809-5.30211-1.86184,3.60214c3.21782-.95753,5.80517-1.7223,8.38887-2.49922.84088-.25285,1.69237-.488,2.50357-.81825,1.47856-.602,2.63209-.46929,3.09908,1.30775l10.63947-4.96111-.321,2.28059,10.18328-3.09726.39382,2.45167c1.978-.44108,3.89263-.85228,5.79861-1.30032.84261-.19808,1.66046-.50239,2.504-.69537.37817-.08652,1.10116-.126,1.14383-.0039.9248,2.64748,2.8254,1.44256,4.39247,1.06359,1.74377-.4217,3.40522-1.17964,5.14582-1.62015.99806-.25259,2.52592-.64146,3.05229-.15067,2.57772,2.4034,5.64482,1.19811,8.474,1.42142,1.25542.09909,2.573-.58887,4.13016-.98827-.30211,1.07456-.48318,1.71872-.71976,2.56027,2.75824-.45682,5.29659-.95167,7.85617-1.28194,3.07151-.39632,3.07936-.33557,3.97281,2.84154l10.85186-1.18637c1.37087,3.09729,2.16051,3.41693,5.44317,2.62943,2.65831-.6377,5.34-1.17809,8.58777-1.88759-.59507,1.25384-.9008,1.898-1.3993,2.94831h12.6081l-.1928,2.34809,12.79014-2.126.16207.52709a21.67976,21.67976,0,0,0-3.36365,2.07215,9.8141,9.8141,0,0,0-1.53865,2.528,8.25581,8.25581,0,0,0,2.53961,1.0242c3.103.125,6.21418.04919,9.37986.04919v2.52292h10.91592L350.6107,164.792h8.48558l-2.11021,3.04882,9.88426,2.17263-2.61088,1.2997.26368.55559,7.53768.67055-.71358,1.79327c1.08128.274,2.263.91755,3.341.77528,2.25953-.2982,2.864.70444,2.60918,2.81674l9.13651,1.88656-1.27226,1.61867,16.99806,6.53636-.21229.59952-2.0017.49015c1.6165.70746,2.71352,1.07543,3.6947,1.64347,1.43987.83358,2.72451,1.9584,4.20974,2.68389a32.311,32.311,0,0,0,4.644,1.59321c.93535.29037,1.89968.48744,3.19505.81289l-1.833,1.65136,12.36062,4.749-2.438,1.69382c3.63219,1.64844,7.3011.81984,10.79888,1.12961-.88628,4.50885-.4088,5.14336,3.84075,6.41127,2.34.69817,4.588,1.70494,6.86023,2.56606-.70468,2.83665-.26571,3.303,3.09659,3.59606,1.53507.1338,3.06364.34192,4.59517.51634l.1585.74847-4.26346,2.60954,8.926,2.12068-2.94542,2.19344,7.70485,3.02272c-.05513.62829-.12133,1.38276-.20233,2.30566h4.20057c0,1.14506-.41112,2.5238.10249,3.197.66452.871,2.03115,1.27326,3.16168,1.70332a15.728,15.728,0,0,1,3.73562,1.56821q-2.86173.9811-5.7235,1.96218l.06548.67421c2.26367.51456,4.55986.92274,6.7742,1.5988.82454.25174,1.45783,1.12994,2.1783,1.72249l-.41727.752h5.54969c-.10046,1.38746-.80864,3.34287-.15053,4.08243.80158.90075,2.75268.77855,4.22739,1.10341-1.89418,2.8362-.9698,4.74437,2.49719,5.17456,1.41018.175,2.836.2238,4.7788.36928-1.29987,1.62574-2.34922,2.93815-3.58021,4.47779,3.04141,1.60625,5.92964,3.13162,9.2029,4.86031-2.12456.83023-3.926,1.53608-5.72891,2.23809-1.327.51667-2.69443.95112-3.96273,1.58466-.43714.21837-.99849,1.07832-.87219,1.38728.72261,1.76767-.56059,2.01063-1.6564,2.44436a47.04712,47.04712,0,0,0-4.36891,1.7853c-.50121.25948-.71074,1.08217-1.34374,2.12708-2.742.227-6.61589-.6086-9.09815,3.26073.92682.44758,1.67113.807,2.867,1.38451-2.38776.8759-4.40651,1.66581-6.45848,2.357-2.727.9186-2.85507,1.1548-1.48359,3.74894l-4.98689,2.27415c.43738.69235.75483,1.19483,1.05148,1.66438-3.59956,1.68036-7.402,2.75237-10.11288,6.06069.74073.42,1.33374.75629,1.97889,1.12211-.1062.17534-.1737.4535-.33051.51949-1.37208.57741-2.76188,1.11248-4.14281,1.66908-1.048.42243-2.09074.85795-3.34478,1.37358.68722.8401,1.01155,1.19015,1.28232,1.5776.51276.7337.99476,1.48884,1.48956,2.2351a11.37375,11.37375,0,0,1-2.88168,1.21721c-2.04433.25866-4.12543.22684-6.90883.34505,1.41973,1.61905,2.26191,2.57948,3.39791,3.875l-10.35689,3.89574c1.34938.69061,2.55091,1.30557,4.30174,2.20166-3.46083,1.28683-6.31149,2.3468-9.60909,3.57293,1.15911.77925,1.89727,1.27552,2.634,1.77079-3.70516.92732-7.42978,1.85948-11.72264,2.93387,1.43729,1.11256,2.30592,1.785,3.57778,2.76949-1.07273.24477-1.86182.493-2.66945.59686-2.90911.37415-5.84.60758-8.72889,1.09448a10.55439,10.55439,0,0,0-2.7963,1.41037l2.18288,2.44848a20.45007,20.45007,0,0,0-4.5399.07239,22.40953,22.40953,0,0,0-4.26463,2.05335l2.46926,1.81808-10.28571,2.14773c.69662,1.11105,1.178,1.87877,1.88915,3.01308-3.17788,0-6.07649-.14116-8.95365.04668a37.47,37.47,0,0,0-6.32418,1.14689c-.34018.08247-.712,1.04346-.6472,1.54373a9.91375,9.91375,0,0,0,1.07261,2.39181,22.37887,22.37887,0,0,0-12.10628,1.2249l2.31022,3.37065H360.59686l2.77149,3.01019c-4.1294-.548-7.74057-1.02726-11.757-1.56031.44425,1.67364.68489,2.58024.88939,3.35068l-12.98264.62662c.77949,1.044,1.41814,1.89938,2.2348,2.99318l-10.57765-1.72021c.49774,1.11309.938,2.09768,1.42385,3.18423-3.69561.684-7.47432-2.36328-11.17837.279.23726.5865.457,1.12985.82054,2.02864-4.69486-.68883-8.92472-3.38462-13.77281-1.61911.58416.9827,1.06493,1.79146,1.75556,2.95321-2.88868-.83677-5.51611-1.69913-8.19917-2.32221a14.0599,14.0599,0,0,0-3.1723.16277,7.43642,7.43642,0,0,1-1.65442-.2757,32.66567,32.66567,0,0,0-11.82225-.8579l1.46662,3.20774c-2.02224-.83608-3.71589-1.58128-5.443-2.23851-1.984-.755-3.98628-1.834-5.78759.51546-.279.36395-1.39286.33485-2.019.14756q-9.50185-2.84208-18.95952-5.83039c-1.19859-.38-2.27695-1.12517-3.44993-1.60642a6.914,6.914,0,0,0-1.67546-.24969,4.08295,4.08295,0,0,0,1.08009,3.17131c-2.20851-.97135-4.14483-1.94535-6.16857-2.67787-1.9343-.70015-3.95954-1.149-6.35963-1.82524l.55982,3.33762-15.64535-6.585c.22568.90421.44525,1.78386.67742,2.714L210.61,348.33236l-.424.50892,1.15366,2.769c-3.142-1.61731-5.92939-2.95711-8.62052-4.46836-2.0361-1.14342-3.34715-.97321-4.196.90263-2.72115-1.71229-5.41166-3.45915-8.162-5.10614a13.2584,13.2584,0,0,0-3.0467-1.27456c-2.30977-.682-2.63427-.446-3.40681,2.69847a38.575,38.575,0,0,1-4.22727-3.80154c-2.25313-2.73175-4.63145-4.0966-7.2888-3.70153l.53532,2.14889c-2.36148-1.73551-4.64732-3.4154-7.28634-5.35487-.16133,1.48336-.25782,2.3707-.35864,3.29772-1.82236-2.03859-3.58186-4.00684-5.34137-5.97509l-.58965.56854-.41093,2.40146c-.3339,0-.58764.043-.607-.00616-1.27238-3.23136-3.76477-4.3474-7.09141-4.68449-1.979-.20055-3.8545-1.36624-5.794-2.04838a12.75879,12.75879,0,0,0-1.86029-.36766v2.2315c-1.04841-1.11094-1.893-2.03074-2.7676-2.92114a4.03724,4.03724,0,0,0-1.24289-1.042c-3.37188-1.29056-6.71155-3.32272-10.17131-3.56779-4.85219-.34372-7.61515-3.59449-11.32965-5.94193l-.46331,1.88547-9.2465-5.42566-.52337,3.461c-1.15393-.86945-2.11462-1.53-3.00375-2.27585-2.13386-1.79-4.01251-3.47791-7.17971-4.00515-3.27354-.54492-6.358-2.73051-9.31369-4.54317-3.17754-1.9487-6.08372-4.33555-9.16719-6.44516A12.88035,12.88035,0,0,0,76.43185,297.21988Z" style="fill:#183719"/><text transform="translate(114.55101 256.0236)" style="font-size:49.88584899902344px;fill:#fff;font-family:Georgia-Bold, Georgia;font-weight:700;letter-spacing:0.024998478276362753em">LEAFLAND</text><text transform="translate(166.46605 300.46794)" style="font-size:32.112098693847656px;fill:#fff;font-family:Georgia">lea<tspan x="40.89258" y="0" style="letter-spacing:0.10000672369212903em">f</tspan><tspan x="54.54688" y="0" style="letter-spacing:-0.000015205522835963057em">land.co.nz</tspan></text><path d="M74.81307,236.52938c48.25155-40.68974,115.16357-82.261,189.122-78.21711,131.0163,7.16371,215.2297,102.09614,215.2297,102.09614s-87.66259,102.09614-201.11454,91.37711c-68.65375-7.8056-147.6255-36.93291-191.98744-59.32614-8.379-4.22958-27.38129-15.17645-35.341-16.76839C49.18523,275.38368,60.59178,248.522,74.81307,236.52938Z" style="fill:none;stroke:#fff;stroke-linecap:round;stroke-linejoin:round;stroke-width:3px"/><path d="M21.74855,314.21584c16.45-20.05839,28.97323-39.26775,28.97323-39.26775" style="fill:none;stroke:#fff;stroke-linecap:round;stroke-linejoin:round;stroke-width:3px"/></svg>