<svg xmlns="http://www.w3.org/2000/svg" viewBox="0 0 150 150"><path fill="#73bf44" d="M101 115a1 1 0 0 1 2-1l2 1s0-1 0 0l1 1a2 2 0 0 1 2 0v1h-1l-1 1v-1h-1a3 3 0 0 1 0 1v1c-1 0 0 0 0 0h-3v-1l-1 1-1 1-1 1v-2a1 1 0 0 0-1 1 1 1 0 0 1-1 0v-1 1h-2v-1a1 1 0 0 0-1 0v1a12 12 0 0 1 0 1l-2-1h-3l-1 1v1a1 1 0 0 1-1 0v-1h-1v1a2 2 0 0 1 0 1v1l-1-1h-1l-1 1v1h-2v1l-1 1c-1 1-3 2-3 4a83 83 0 0 0 1 11l1 7-1 1h-5l-1-1 1-6a57 57 0 0 0 0-8v-5a2 2 0 0 0-1-2l-5-4a2 2 0 0 0-3 0l1-1h-1l-1-1-2 2v-1h-1v1-2l-1 1a2 2 0 0 1 0 1v1l-1-1-1-1v1h-1a4 4 0 0 0 0 1v1h-2l-1 1c0-1 0 0 0 0h-1v-2l-1 1v1c-2-1-2 0-2 1v-1h-2v2a2 2 0 0 1-1-2l-1-1h1l2-1h1l1-1v-1a8 8 0 0 0 3 1l1-1v-2h-1a1 1 0 0 0 0 1v1l-1-1s0-1 0 0h-1l1-1a10 10 0 0 1 1 0l-1-1v-2a4 4 0 0 0-1 1v1a1 1 0 0 0-1-1v1h-1v-1h-1l-1 1a1 1 0 0 1 0-1l-1-1v1a2 2 0 0 0-1 1c-1-2-2-1-3-2a1 1 0 0 0 0 1h-3v-1a4 4 0 0 0 0-2c-1 0-1 0 0 0s2-1 2 1c0-2 1-2 1-1l1-1v-1a2 2 0 0 1-2-1h4s0-2-2-1v-2l-1 1v-1l-1 1-1-1a2 2 0 0 1-1 2v1l-1-2h-1v1a1 1 0 0 1-1-2h1l1-1h-2l-1-1a9 9 0 0 1 2-1l-1-2 4-1a6 6 0 0 0-1-1 1 1 0 0 1-1-1h1l1-2v-1l1 1 1-2 2-1h1a2 2 0 0 0 1-1h1v-1h-1l-1-1 2-1v1h1v-2a2 2 0 0 0-2 0h-1a5 5 0 0 1 0-2l-1 1v-1l-1-1v-1l-1 1c1 2 0 0-1 0v2a1 1 0 0 1-1-1l1-2a1 1 0 0 0-1 0l-1 1h-1a3 3 0 0 1 1-2l-1-1v-2l1-1a2 2 0 0 0-2 0h2l-2-1a5 5 0 0 1 2 0h1a1 1 0 0 0-1-1v-1l1 1h2a1 1 0 0 1 2 0 2 2 0 0 0 1 0v-1c-1 0-2-1-3 1l1-3v-1h3l-1-1a1 1 0 0 1-1 0v-2h2c2 0 1 1 2 2v-2h1a3 3 0 0 1 0 1h2l-1-1v-1h-2a1 1 0 0 1 0-1v-3a1 1 0 0 0 0-1 1 1 0 0 1 1 0h1v-2a4 4 0 0 1-1 0s0-1 0 0h-1v-2l1-3c1 0 0 0 0 0l-1-1h1l-1-1a2 2 0 0 0 0-1 1 1 0 0 1 0-2h-2v-2h-1l1-1h1a4 4 0 0 0 3-3v-2a2 2 0 0 1 0-2v-1 1h-1v-3h1l1-1a1 1 0 0 1 1 0 7 7 0 0 0 1 0v-1a7 7 0 0 0 2 0 4 4 0 0 1-1-1l1-1a6 6 0 0 0 2 0c1 1 1 1 1-1l-1-1v1a6 6 0 0 0-1 0l1-2c-1 0-1-2-2-1a5 5 0 0 1 0 1 1 1 0 0 1-1 1v-2h-1l1-1h1v-1h-1 1a1 1 0 0 0-1-1c0 1 0 1 0 0a3 3 0 0 1 1-1l2-1h1v1a2 2 0 0 0 1-2v-1h1v3s0 1 0 0h1v2l1-1v-3l-1 1h-1a2 2 0 0 1 0-1v-1a1 1 0 0 0 1-2h-2c0-2-1-3-2-3v-1a1 1 0 0 1 1 1 1 1 0 0 0 1 0v-2l3-1h1a2 2 0 0 0-1-1l-1-1a3 3 0 0 0 1-1v-1c1 1 1 0 1-1a2 2 0 0 1 0-1h1v-2s-1 0 0 0h1l1 1v-1l1-1h1V8a1 1 0 0 1-1-1V5h1V3l1 1h2a2 2 0 0 1 1-1 1 1 0 0 1 1-1l1-1h1l1-1a2 2 0 0 1 0 2v1l2-1 1-1h2l-1 1 1 1v1a2 2 0 0 1-1 0h-1l1 1v2-1a2 2 0 0 1 1 0 11 11 0 0 0 2-1l2 1c1 1 2 2 1 3a1 1 0 0 0 0 2 3 3 0 0 1 1 2h-1a1 1 0 0 0 1 1 1 1 0 0 1 0 1l-1 1v1l1-1 1 1h1l-1 1h1l-1 1a4 4 0 0 1 1 0s1 0 0 0v1h1a1 1 0 0 1 1 1v3l1 1a3 3 0 0 1-1 1h1v2h-2l2 2 1 1v-3a1 1 0 0 1 1 0 2 2 0 0 1 0 2 13 13 0 0 1 2 0v1h1v1l-1 1v1l-1 1 1 1h1c-1 1 0 1 1 1h1v1a3 3 0 0 1-1 1 2 2 0 0 1 1 1v1h-1l-1 1c1 0 0 0 0 0l1 2-1 2h-2v1h2v2h3a12 12 0 0 0 0 2 4 4 0 0 1 0 1l-1-1v-1a1 1 0 0 0-1 1v1a7 7 0 0 1 1 1h1v2h-1l1 1v1h2v1h1-1a3 3 0 0 1 1 2l2-1 1-1-1 3a1 1 0 0 1 0 2l-1 1 1 1 2 1h1l-1 1 1 2-1-1-1 1h-1v1h-1l-2 2a4 4 0 0 0 0 2l1 1h-1l-1-1a1 1 0 0 0 1 1 5 5 0 0 1 0 1v2l-2-1v1h-1l1 2h1v1-2h1l1 1v1l2-1v1h2v1h3l2 1 1 1h2a1 1 0 0 1 0 1 2 2 0 0 0-1 2 1 1 0 0 1-1 2 2 2 0 0 0-1 0 1 1 0 0 0 0 1h3v1h-2c1 0 2 1 1 2h-1a3 3 0 0 1 0 1l-1 1h-2l-1-1v1l1 1v1h-2v1l-1 1 2 1v1c-1 0-2 0-1 1h-1l-3 2h1l1 1-1 1a1 1 0 0 1 1 1 3 3 0 0 0 0 1c2 1 2 2 1 3v1l-1 1v-1a16 16 0 0 1 0-2l-1 2a1 1 0 0 1 0-1l-1-1v1c0 1 0 0 0 0h-5v1l-1-1-1 1v1a1 1 0 0 0 1 1v-1l2 1-1 1h-1v2h1v-1h1a1 1 0 0 1 1 0l1-1a8 8 0 0 0-1 0Zm-28 11a2 2 0 0 0-2-3 6 6 0 0 0-3-2l-1 1 1 2a32 32 0 0 0 3 2l1 1 1-1ZM70 20a6 6 0 0 1 1 1h1l1-1a1 1 0 0 1-1 0v-1l-1-1v-2l-1 1v-1l-1 1h-1v-1a6 6 0 0 1-2 1v1h1l1 1 1-1v2a2 2 0 0 1 2 0Zm-1 97h-2l1 1a13 13 0 0 1 2 1h1l-1 1v1l2 1h1v-3l-1-1a6 6 0 0 1-2 0 4 4 0 0 0 1 0v-1h-1l-1-1-1-1c2 0 1 2 1 2ZM54 51a3 3 0 0 1-2-3h-1v2l-1-1a9 9 0 0 1 0 2v1l1-1v-1l1 1s0 1 0 0h2Zm2-1h-1v-1h-1l-1-1 1 2h2Zm-2 70c1-1-1 0-1-1 0 0 0-1 0 0a2 2 0 0 0 0 2h2v-1a3 3 0 0 0-1 0Z"/><path fill="#73bf44" d="M70 26c8 0 8-12 0-12-7 0-7 12 0 12ZM71 124c8 0 8-12 0-12-7 0-8 12 0 12Z"/><path fill="#73bf44" d="M72 126c7 0 7-12 0-12-8 0-8 12 0 12Z"/><path fill="#73bf44" d="M74 128c8 0 8-12 0-12s-8 12 0 12Z"/></svg>