<svg xmlns="http://www.w3.org/2000/svg" viewBox="0 0 150 150"><path fill="#73bf44" d="M73 9.4c0-.3-.3-.5 0-.8.7-.5 1 0 1.5.2-.5-.5 1-1.4-.4-1.7.6-.8 1.7-.6 2.3-1.4.3.1 0 .4.2.6a.5.5 0 0 0 .5.2c.2 0 .1-.2 0-.4 0-.1 0-.4.2-.4 1.5 0 .4-1 .7-1.5-.5 0-.5.5-1 .5.2-.8 0-1.6.9-2.1.3-.2.3-.6.3-.9a12.8 12.8 0 0 1 0-1.7 28.1 28.1 0 0 1 .5 5.3c.5-.3.3-.6.4-.8 0-.1 0-.4.3-.4s.2.3.3.4c.2.3.7 0 .9.4 0 .1.5 0 .5.3s-.4.3-.6.4H80c.7.2 1.4-.2 1.3.8 0 .4.9.6.3 1.2-.2.1 0 .4.2.5.2-.3.2-.7.5-.9.2 0 .2.1.2.3 0 1.1 0 1.1 1.1.9a8.4 8.4 0 0 1 1.3-.2 5 5 0 0 1-1.7.5c-.1 0-.4 0-.4.3a.6.6 0 0 0 .2.4c.3.2.3-.1.4-.2 0-.1.1-.2.3-.2a.3.3 0 0 1 .2.4c-.2 1 .7 1 1.2 1.1.5.2.9.1.5.8-.2.6.3.7.6 1 .2-.2 0-.3 0-.4.1-.2.1-.4.3-.5.4 0 .3.3.3.5a.9.9 0 0 1 0 .1c.3 1.5.4 1.6 1.9 1.5-.1.3-.4.2-.6.2-.2 0-.4.2-.3.4.3.9-.4 1.6-.2 2.5.2.4-.4.6-.5 1-.4 1.2-.4 1.2.6 1.7.1 0 .3 0 .3.3-.3.3-.6 0-.9.2.7.6.2 1.9 1.6 2-1.2 0-.4.8-.6 1-.2.3-.4-.5-.6 0a.7.7 0 0 0 0 .5c.2.4.5 0 .7 0l1.2-.6c-.2.5-.8.5-1 .9 1.2-.4 2.5.2 3.4-1 .7 1 .7 1.4-.4 1.7-.6.2-1.1 1-2 .6-.4-.2-.7.4-.7.9 0 .7-.3 1.3 0 2.1-.6-.2-.5-.6-.7-.9-.3.1-.3.6-.7.7a.2.2 0 0 1 0-.3c.4-.7 0-1.2-.5-1.7-.4-.4-.3-.4-.6.1-.1.3-.3.1-.5 0l-.6-.2c-1.1.2-1 .7-.5 1.5-1.5-.4-.6.9-1 1.2-.2.1-.3-.1-.5-.2-.1 0-.3-.2-.5 0 0 .3-.2.5 0 .6.9.4 1.2 1.3 2 1.7a1.1 1.1 0 0 0 .1-.2c0-.4-.2-.9.1-1 .5-.1.3.5.4.7a3.3 3.3 0 0 0 1.5.4c.5-.2 1-.5 1.3.3a.5.5 0 0 0 .5.3c1.3 0 1.7.5 1.2 1.8.3-.6 1.7.4 1.2-1.1 1 .3 1.8.7 2.6 0 .2-.1.4 0 .3.3 0 .3 0 .5.3.6a.5.5 0 0 0 .6-.3c.1-.2.2-.4.4-.4a.5.5 0 0 1 .4.6c0 .5.5.8.4 1.5-.4-.2-.7-.7-1 .2-.2.7-.5-.1-.9-.4 0 .8-.2 1.5-1.2 1.4.5.4 1.2.6.8 1.4 0 .2.2.3.4.4.2.1.6 0 .9.5-1.5-.8-2 0-2.3 1.2-.5-.2 0-.5-.3-.7H92c-.2.8-.8 1-1.4.6-.4-.4-.4-.2-.6.1-.2.8-.5 1.4.5 1.8.5.2 0 .6 0 .9.3.2.6-.3.9 0-.3.4-.3.6.4.8a4.2 4.2 0 0 1 1.8 1.2c1 1 1.9.7 2.9.4a3 3 0 0 1 1.9-.2c-.4.3-.4.7-.5 1.1 0 .5 0 1.2-1 .9a.6.6 0 0 0-.7.7 1 1 0 0 1-.7 1 .8.8 0 0 0-.5.7c.2.4 1-.8.7.5 0 .2.4.1.6 0 .2-.5.7-.8.7-1.3a1.6 1.6 0 0 1 .6-1.1.3.3 0 0 1 .5 0c.2.1 0 .3 0 .4-.6.4-.4.7.1.9.2 0 .5.2.4.5 0 .3-.3 0-.5 0-.1 0-.3 0-.3.2s0 .5.3.5c.5 0 1 .6 1.6 0 .3-.4 1 0 1.3-.5h.2a1.1 1.1 0 0 0 1.3.8c.2 0 .4.2.2.4-.4.4-.2.8 0 1.3-.6.1-.8-.5-1.2-.5-.4.6 0 1.2-.5 1.9-.6.7-1.2 0-1.8.5l.3-1c0-.3-.2-.4-.4-.5-.3 0-.3.2-.3.3.3 1.2-.7 1-1.3 1.1-.6.2-.9-.4-1-1l-.2-.1a.4.4 0 0 0-.2.5c.2.4-.3.4-.4.5-.3.3-.3 0-.4-.2-.4-.5-.4.4-.6.3-.4-.1-.3-.4-.4-.5 0-.3-.2-.5-.5-.2-.4.6-.6.2-.7-.2-.5.3-.2.5 0 .8.2.2.7.4.4.7-.3.3-.5-.2-.7-.4a.7.7 0 0 0-.2 0c-.2.1-.1.5-.2.7 0 .2-.1.5-.5.3-.1-.1-.3-.1-.4 0 0 .3.2.4.4.4a5.7 5.7 0 0 0 .8 0c.3-.1.6-.3.8.1.1.3.4.1.6 0a1 1 0 0 1 1.3.4 2 2 0 0 0-2.2 1 .3.3 0 0 1-.3 0 .2.2 0 0 1-.2-.3c.7-1-.4-.7-.8-1h-.6c.4.8 1.3 1.2 1.5 2.1.8.3.8 1.4 1.5 1.7a5 5 0 0 1 1.3 1.2c0 .2-.3.2-.4.2-.3.2-.5.4-.4.7.2.2.4 0 .6 0a1.7 1.7 0 0 0 2-1.1c-.4 0-.6.4-.8.6-.2 0-.4.3-.6 0 0-.1 0-.3.2-.4l.5-.5c-.5-.2-1-.2-1.2-.8a.4.4 0 0 1 .5 0c.5.2.8.2.7-.5 0-.2 0-.4.2-.4.3 0 .3.2.3.4 0 .3.2.6.5.6 1 0 1.4.6 2 1.2a5.4 5.4 0 0 0-1.6 1.1v.3c.3 0 .7.3.9.2.5-.4.7-.1.8.4.4 0 .4-.5.9-.3-.2-.4-.8-.5-.8-1a3 3 0 0 1 1.5.6c.4.3.6 1 1.2.8.1-.3-.4-.5 0-.8.2-.1.4.2.6.4.3.2.5.4 1 .2s.8 0 .7.6a3 3 0 0 0 .2 1.5c-.5-.2-1-.3-1.4.3-.1.3-.3.1-.4-.1a4.2 4.2 0 0 1 0-.8 1 1 0 0 0-.4.8 1 1 0 0 1-.3.6c-.2.2-.4.6-.7.5-.4-.3.2-.5.1-.8-.1-.2-.5 0-.6-.3 0-.2.1-.2.3-.3.1-.1.3-.2.1-.4a.3.3 0 0 0-.4 0c-.3.3-.3.3-.5-.2-.1-.3-.9-.6-1.4-.6-.2 0-.5-.2-.7 0-.2.4.2.5.3.6l1 1.2c-.5.2-.8-.2-1.2-.4.2.5.1.9.5 1 .4.2.7-.2 1.1 0-.1.5-.7.4-1 .7 0 .3.4.3.5.5.2.3.5.7-.1 1-.1 0-.3.2-.2.3l.2.2c1.3-.3 1 .7 1 1.2-.1.7.2.6.6.4a4.3 4.3 0 0 1 2-.5c0-.3-.4-.4-.2-.8a4.4 4.4 0 0 1 2 1.2c.6.6 1 .6 1.6 0 .2.6.6 1.2.3 1.9-.1.4.1.4.4.4a2 2 0 0 0 .4-.1c1.4-.5 1.4-.5 1.1 1a.6.6 0 0 0 0 .2l.9-.2a1.2 1.2 0 0 1 .3 0c-.1.4-.5.4-.7.7 1 .4 1 1.1.5 2-.4-.1-.4-.5-.7-.8l-.5.6c0 .1-.3.3-.3.1-.4-1-.8.1-1.1.1-.3-.4.2-.6 0-.9a2 2 0 0 0-.8.1c-.5.1-.7.4-.5.9.1.4 0 .3-.3.6-.2 0-.2.4-.5.9.3-1.6-.7-1.3-1.3-1.4-.6 1.4.8 2 1.4 2.9h.1c.5.2.8-.6 1.3-.3.7.3 1-.1 1.1-.6.1-.2.3-.5.4-.4.6.6 1-.2 1.4-.3.4.3-1 1 .4 1A1.5 1.5 0 0 0 109 78c0 .3-.3.5-.5.1-.2-.5-.7 0-1-.2 0 0-.2 0-.2.2a.4.4 0 0 0 .2.3c.3.3 1.2.2.3 1l.2 1c-.3 0-.2-.3-.4-.5-.2.1-.3 1-.7.2-.2-.4-.4.4-.8.2-.1-.4.3-.6.2-1 0-.3-.1-.5-.4-.5-.4-.1-.1.2-.2.3 0 .3-.2.3-.3.2l-.8-.5c-.3.3 0 1-.4 1.2-.4-.3-.3-.8-.5-1-.4 0-.4.4-.7.5a.7.7 0 0 1-.1-.1c-.2-.3.3-.7 0-.9-.5-.1-.9.4-1 .5a1.7 1.7 0 0 1-1.8.9 4.3 4.3 0 0 0 2.6.7 1.5 1.5 0 0 1 1.3.3c.2.1.4.3.3.5-.1.3-.3 0-.5 0l-.4-.2c0 .5-.1 1 .3 1.2.4.3.8.1 1.1-.2.3-.3.5 0 .4.2 0 .8.5.8 1 1 .7.2 1.6 0 2.2.8.5.9.5 1-.6 1 .5.4.9 1.1 1.4.2.1-.1.4-.3.4 0 0 .6.4.6.8.6.3 0 .5 0 .5.4 0 .6.3.6.6.3.2 0 .3-.3.4 0 .1.2.2.4-.1.5a.6.6 0 0 0-.4.7c1-.5 2.2-.2 2.8-1.3 0 0 .2-.2.3-.1.3.1 0 .5.3.7l.8-.3a1.4 1.4 0 0 1-.6 1.2 2.3 2.3 0 0 0-1 1.2c-.3.4.4.4.3.8-.4.1-.5-.6-.9-.3a1.6 1.6 0 0 0-.2 2c-.5.2-1-.3-1.2.5 0 .5-.8 0-1.2.4.6.1 1.1.6 1.1.9 0 .4-.7.3-1 .7-.1.4.4.2.5.4-.2.3-.5 0-.6.2l.1.2a.7.7 0 0 0 .9-.5 1.9 1.9 0 0 1 .7-.7c.2-.2.4-.5.7-.3.3.3-.2.4-.3.6-.2.8.5 1 .8 1 1 .2 1.3 1 1.7 1.5-.7.7-2 .3-2.3 1.6-.4 0-.2-.5-.4-.6-.2 0-.3.2-.4.3-.2.7-.5.6-.9.1a3.1 3.1 0 0 0-.2-.3c-.1-.1-.2-.3-.4-.2-.2.1-.2.3 0 .5 0 .3.3.6 0 1s-.5.8-.1 1.2c.4.5.7-.1 1.1-.2.2.2 0 .3-.1.4-.2.1-.5.2-.3.5.3.3.3-.1.5-.2.5-.2.3.1.3.4 0 .2-.2.4.1.6a.4.4 0 0 0 .3 0c.3-.3.1-.5 0-.7a1 1 0 0 1 0-.9c.1-.2.2-.6.5-.5.4 0 .1.4 0 .6 0 .4 0 .5.5.5.2 0 .5.1.6.4.1.4-.3.2-.4.3-.5.5.3.6.3 1a1.3 1.3 0 0 1-1 0c-.6 0-.7.2-.4.6.2.5.3.9-.4 1.1a1.9 1.9 0 0 0 1.6-.2 1 1 0 0 1 1.5.3 1 1 0 0 0 1.3.7c0-.4-.3-.4-.4-.6-.2-.3-.2-.6 0-.5.7.3.8 0 .8-.7.4.6 1.1.8 1 1.6 0 .3.2.5.5.3a1.4 1.4 0 0 1 .5-.2c.2 0 .4 0 .5.2 0 .2-.2.2-.3.3l-.9.3c.3.3 1 .5.8.9-.2.5-.7-.4-1.2.1-.2.2.7.4.3.7-.5.3-.7-.3-1.1-.5l-.1.8c-.5-.3-.3-.8-.5-1.2-.3 0 0 .5-.4.6a.5.5 0 0 1-.2 0c0-.2 0-.6-.4-.5-.2 0-.2.4-.2.6l.3 1.3-.1.6a.6.6 0 0 1-.8 0l-.6-.4s-.2-.2-.3 0c-.5.4-.5.4-1 0-.2.4-.4.7-.2 1 .2.3.6 0 .9 0h2c-.7.5-1.4.2-2 .6 0 .5.8.6.8 1.2-.5 0-.7-.5-1.1-.6-.3.3 0 .8-.5 1a1.5 1.5 0 0 1 0-1.2 1.5 1.5 0 0 0-.9 0c-.7 0-1.3 0-1.3 1a2.6 2.6 0 0 1-.7 2c-.3.3-.3.1-.6 0a1.8 1.8 0 0 0-1.2.4c-.4.3 0 .5.3.7.3.3 0 .5-.2.7h.7c.4 0 .7 0 .5-.5-.2-.6.3-.8.7-.6a1.8 1.8 0 0 0 2-.6c.2-.2.5-.2.6-.1.6.8 1.7.6 2.2 1.6 0 .1.5.3.2.5-.1.2-.4 0-.6-.1a3.4 3.4 0 0 1-.4-.4c-.3.5.3.5.4.9-.4.1-1 .1-.6.9.1.2.4.6 0 .9-.3.3-.6-.1-.9-.3l-.2-.2c-.3.3 0 .7-.5 1-.5-.4 0-.9-.1-1.4-.4.5-1 .9-1 1.5 0 .4 0 .8-.6.4-.3-.2-.6 0-.7.2-.4.5-.5.4-.6 0-.2-.4 0-1-.7-1-.4 0-.7-.5-1.2-.3-.2 0-.7.3-.4-.4.2-.3 0-.4-.8-.3a3.1 3.1 0 0 1 .5 1.1c.1.9-.4 1.3-1.3 1.1-.8.6-1.5-.2-2.4-.3.6.4.2 1.2 1 1.4.1 0-.1.4-.4.5a1.8 1.8 0 0 0-1 .6c1.3-.3 1.4-.2 2 1.1-.4 0-.7-.4-1 0 .4.3.8.8 1 .8a3.3 3.3 0 0 0 1.7-.5 1.7 1.7 0 0 1 2.4 0l1 .9c0 .1.3.4.4.2.2-.2.5-.3.4-.6a.3.3 0 0 1 0-.5 3.1 3.1 0 0 1 2.3 0c.2.3.5.5.3 1-.2.6-.6.2-.9.2 0 .3.6.5.2.8-.7.4-.2.6 0 1a2 2 0 0 1 3.2-1c-.8.5.2.7.3 1 .1.7.6 1 1.3.5.4-.3.7-.4 1 .2.2.6.5.9 1 .2.3-.3.4-.2.5.2a2.3 2.3 0 0 1 0 1.2c0 .4-.3.9.3 1.3.1 0 .1.4-.2.3-.4 0-.9-.3-1 .2a2.7 2.7 0 0 0-.2 1.8c0 .3.8.8-.2.8-.1 0 0 .4-.2.5-.3-.2-.2-.6-.2-.9 0-.2.1-.6-.4-.6-.3 0-.2-.2-.1-.3.1-.3.4-.5.2-.9l-.4.7c0 .2-.2.3-.4 0-.4-.6-.6-.3-.8.1-.1.3-.3.6-.6.4-.8-.6-1.4-.3-2 .1a2.8 2.8 0 0 1-.8.3c-.4 0-.8 0-.6-.6 0-.2.2-.4-.1-.5-.2-.1-.5 0-.5.2.1.5-.2.9-.3 1.3-.1.8-.1 1.3.9 1.4.2 0 0 .4-.1.3-1-.2-.7.4-.6.8a1 1 0 0 1 0 .4c-1-.8-1-.8-2-.6.5.4 1 .8.1 1.2-.2 0 .2.3.2.5.1.2.4.5.2.7-.4.3-.4-.3-.7-.3-.1.2 0 .6-.3.8-.3-.3-.2-1.1-.9-.9-.4.2-1-.2-1.3.4 0 .2-.2 0-.3 0-.1-.2-.2-.4-.4-.1-.1.1-.4.2-.2.5a1.7 1.7 0 0 1 0 .2c.3.5 1.1 1.1 0 1.7 1.2-.2 1.2-.1 1 1.5-.4-.1-.2-.6-.4-.9-.3.1-.3.6-.7.6-.2 0-.1-.2-.1-.4a.3.3 0 0 0-.3-.3c-.2 0-.3 0-.3.3a2.4 2.4 0 0 1-1 1c-.3.4-1-.3-1.1.4h-.1c0-.7-.7-.8-1-1.2-.2-.2-.2-.3-.5-.3a.5.5 0 0 0-.4.5.5.5 0 0 0 .2.5c1.1.6 1.6 1.9 2.6 2.7-.6.2-.7-.4-1-.3-.3.2 0 .7-.5 1-.4-.5 0-.8 0-1.2h-.5c-1.2.2-1.2.2-1.1-1 0-.3 0-.5-.3-.4-.8.2-1-.1-.8-.8a.2.2 0 0 0-.2-.2c-.3 2-1.2 2.7-3.7 2.6 0-.3.5-.4.5-.8 0-.3 0-.4-.5-.5-.2 0 .3-.4.2-.6-1.2.2-.2 1.3-.7 1.8-.4 0-.3-.4-.5-.6-.2 0-.2.5-.6.5-.1-.7.4-1 .9-1.6-.8.2-1.6.6-1.6-.6-1 1-.8 1.4 1.6 4.3-.5.1-.7-.4-1-.5-.3.2 0 .5-.3.8-.3 0-.3-.3-.3-.6s0-.5-.3-.5a1 1 0 0 1-1.3-.8c-.7.4-1.2 1-1 1.8 0 .1 0 .3-.2.4-.1.1-.2.4-.4.3-.2-.1-.2-.4 0-.6a.3.3 0 0 0 .1-.5c-.7.6-1 0-1.3-.6-.4.4 0 1-.4 1.2-.2 0-.3-.2-.2-.3.1-.7 0-1-.8-1-.5-.1-.3-.7-.1-1a1.8 1.8 0 0 0 .3-1c0-.1.3-.4-.1-.5-.3 0-.6 0-.6.4a7.4 7.4 0 0 1-.2 1c-.2.5-.4.8-1 .4-.7-.4-.6.4-.9.7-.3-.3 0-.7 0-1.2-.4.4-.7.5-.8-.2-.4.4-.2.8-.2 1.1 0 .2 0 .5-.3.6-.3.1-.3-.2-.4-.3-.1-.3-.3-.2-.5 0-.1.1-.2.3 0 .5a1.7 1.7 0 0 1 .7.7c-.5.1-.7-.3-1-.3-.2.3 0 .5.2.7a.6.6 0 0 1 0 .9c-.3-.3-.8 0-1-.4 0-.3 0-.6-.5-.4-.2 0-.3-.1-.4-.3 0-.3-.2-.4-.4-.3-.6.4-1 0-1.4-.4a7.4 7.4 0 0 0-.4 3.1c0 .6-.2.9-.8.8h-3.2c-.7 0-1.6.2-1.4-1-.4 0-.1.4-.2.4-1.3-.2-.5.6-.5 1.3-.7-.6-1.4-1-.8-2-.5.7-1.1 1-1.4 1.5-.2.2-.2.6-.5.6-.4 0-.2-.5-.4-.7-.4.1-.3.6-.7.7-.3-.6.2-1 .4-1.4.1-.2.5-.3.3-.6-.1-.2-.4 0-.6 0a1 1 0 0 1-.9-.8c0-.4-.2-.7-.8-.7-.4.1-.5-.1-.3-.5.2-.3.5-.7.3-1.1-.3 0-.3.5-.7.5-.1-.5.2-.8.5-1.2.2-.3.5-.5-.2-.7-.5-.2-.4-.9-.7-1.3-.5.7-1.6 1-1.2 2.2-.6-.2-.4-.6-.6-.8-.4 0-.4.7-.7.4-.3-.3 0-.6.3-.9a3 3 0 0 1 .5-.4c0-.4-.5-.2-.6-.5.2-.2.5 0 .7-.2-1-.5.1-1.2-.1-1.9-.3.7-1.5.3-1.2 1.5a.6.6 0 0 1-.4.1c-.7-.2-1 0-.7.9-.5-.2-.7-.6-1-.9-.8-.6-1.2-.5-1.5.4-.3 0-.2-.4-.5-.4-.3.3-.3.8-.8 1-.3-.1.1-.4 0-.6-.4 0-.5.7-.2 1.2l.1.3c-1.1-.3-.2.5-.5.8-.3-.2-.4-.7-1-.5-.1.1-.2-.1-.2-.3 0-.6-.4-.8-1-.8 0-.2.2-.3.3-.3.2-.1.5 0 .4-.3l-.3-.3a.3.3 0 0 0-.5.2 5.4 5.4 0 0 0-.2.8c0 .6-.2 1.2-1 .7-.2.3.4.6 0 1-.4-.3-.6-.9-1.1-1.1-.2 0-.5-.3-.5-.1-.2 1-1.1.4-1.7.8.1-.7 1.1-.7 1-1.4-1 0-1.3.2-1.6 1-.3 0-.2-.4-.4-.5-.3 0-.3.5-.7.4-.2-.3 0-.5.1-.7l.2-.4c-.7-.6.1-.9.3-1.2.5-1-.3-1-.7-1.2-.2.3.2.4 0 .7 0 .1-.2 0-.4 0-.3-.2-.7-.5-.6.3 0 .3-1.4.8-1.6.6-.2-.2.1-.4 0-.7-.3.4-.6.6-1 0-.2-.2-.4 0-.6 0-.3.1-.5.2-.6-.1-.1-.1 0-.5-.3-.4-.3 0-.6.2-.6.6 0 .2 0 .4-.3.3-.5-.3-.8 0-1.2.6-.2-1.6-1.2-1.8-2.3-1.8.5-.2.6-.8 1.2-.8-.2-.3-.5-.6-.5-1l-.1-.3c-1.8-.8 0-1.1.2-1.4a3.6 3.6 0 0 0 1-2c-.6 1-1 .1-1.5-.2l-.2.1c0 .4.1 1-.3 1-.5 0-.2-.6-.1-1 0-.6-.4-.3-.7-.3-.2 0-.4 0-.5-.2 0-.3.3-.3.5-.3a2.2 2.2 0 0 1 1 0c.5 0 .4 0 .6-.5.1-.4.6 0 1-.3-.4-.1-.7-.3-.3-.6a1.4 1.4 0 0 0 .5-1c0-.4 0-.9-.6-.8a.7.7 0 0 1-.7-.2c-.4-.4-.8-.4-1.2-.4-.2 0-.4 0-.4.2a.7.7 0 0 0 .2.4c.2.3 1 .3.6.8-.2.4-.7-.3-1-.2-.2.1-.1.3-.1.4 0 .4 0 .8-.4.8-.5 0-.1-.4-.2-.7 0-.2 0-.4-.3-.3-.3 0-.8.4-1 0-.1-.5-.4-1.1.3-1.6-1.2.4-1.5-.3-1.7-1a3.4 3.4 0 0 0-1.4-1.3c-.2.3.3.4.2.7l-1.2-.7a1.4 1.4 0 0 1-.3 1.2c-.2-1-1-1.3-1.7-1.7-.6-.5-.4-1 0-1.1.7-.3 1-.6.7-1.3.4 0 .5.2.7.4.2 0 .4.1.5-.1.2-.3 0-.4-.2-.4a1.6 1.6 0 0 1-.3 0c-.2-.1-.4-.1-.4-.4 0-.2.3-.2.5-.2.4 0 1 .4 1.3.2a.8.8 0 0 1 1.1.4c.4-.4.2-1 .7-1.2-.5-.4-.6.6-1 .2-.3-.3-.1-.7-.1-1-.5-.1-1 .3-1.4-.2-.1-.2-.2 0-.3.2-.2.2-.1.5-.5.6-.2-.3.4-1.2-.7-.8 1.3-.4 1.4-1.6 2-2.5.1 0 .2.1.2.3.3.2.6.7 1 .3.2-.2 0-.7-.4-1-.4-.3-.7-.5-.3-1 .4-.5.5.3.9.2.1-.2 0-1 .8-.4a.4.4 0 0 1 .1.6c-.1.2-.3.5 0 .7a.5.5 0 0 0 .4 0c.3-.1.2-.4.2-.7a2.5 2.5 0 0 1 0-.4 1.6 1.6 0 0 0 1.5 1c.2 0 .3.1.4.3l.8 1c.3.4.9.9 1.3.8.5-.2 0-.8 0-1.2a2.6 2.6 0 0 0 0-.8 3 3 0 0 1 0-.4c.7.2.5-.7.9-1a1.6 1.6 0 0 1 1-.4c.8.2 1.2-.2 1.6-.6-.6-.3-1-1-1.8-.5-.2-.7-1.3.4-1.4-.7-.3.3.1.8-.3 1-.3-.1-.2-.5-.5-.7-.5 1.2-1.4-.2-2 .4.1-.4.4-.7 0-1.2-.2.1-.2.6-.6.6a.6.6 0 0 1 0-.1c-.1-.3.4-.8 0-.9-.5-.1-.4.5-.5.8-.1.4-.6.8-.5 1.3a.2.2 0 0 1-.2.2c-.3 0 0-.4-.4-.5-.3 0-.2.5-.7.5a1.2 1.2 0 0 1 .7-1.2 3 3 0 0 0 .5-.4.4.4 0 0 0 .1-.5c-.1-.2-.3 0-.4 0-.3 0-.7.1-.8-.2-.2-.3.1-.4.3-.6.4-.5 0-.8-.4-.8-1.1 0-.5-.4-.2-.7l.2-.4c-.2-.2-.3 0-.5 0s-.5 0-.5-.2c0-.3.2-.3.4-.3.5 0 .6-.3.4-.7-.1-.2-.2-.4 0-.5.2 0 .3.2.4.3l.4.5c0 .1.2.3.4.2.6-.3.8-1 1.1-1.6.2-.4 0-.7-.5-.9-.2.1-.1.4-.2.6-.2.2-.5.2-.5 0 0-.8-.5-.8-1.1-.8a.8.8 0 0 1 .9-.4c.6 0 .8-.2.3-.7a.5.5 0 0 1 0-.5 4.2 4.2 0 0 0 1.4 1c.2.1.2.5.5 0 .2-.5.4.3.7.2a3.3 3.3 0 0 1 .7-1.2c.2-.2.5-.4.8-.1a.7.7 0 0 0 1 .2.9.9 0 0 0 .5-1 3 3 0 0 1 0-.4c-.3 0-1 .5-1-.5h-.3l-.8.5a.9.9 0 0 0-.8-.8c-.6 0-.6-.6-.8-1 0-.2-.1-.4-.4-.5l-.2.3c-.1.2-.2.6-.4.6-.4 0-.2-.5-.3-.7l-.2-.5a1.2 1.2 0 0 1-1.6.7c.6-.7-.6-1-.4-1.7-.4.1-.3.7-.8.6a1.2 1.2 0 0 1 .7-1.3c.3-.2.5-.4.5-.8 0-.3.2-.5.4-.6.2-.2.6-.2.6-.5s-.5-.2-.7-.3a1 1 0 0 1-.4-.3 2.6 2.6 0 0 1 2-.3c-.3.4-.6.1-.9.3 1 1 2.3 1 3.4 1.4.2-.2 0-.5 0-.7.2-.2.4-.3.5 0 .2.7.6.5 1 .2a.2.2 0 0 1 .4 0c0 .4-.4.4-.4.7a1.2 1.2 0 0 1 1 .6 1.2 1.2 0 0 0 1.2.4c.3 0 .1-.5.2-.8 0-.3-.2-.4-.5-.4-.2 0-.5 0-.4-.3 0-.3.3-.3.5-.3 1 0 2-.5 2.9 0l.4-.1c0-.4-.6-.6-.2-.8.4-.1.8.2 1.1.5.2.3 0 .6-.3.6-.6.1-.8.7-1.4 1 1.1.2 1.6-1 2.5-.8-.2-.7.2-.7.8-.6.2 0 .5.1.6-.2.2-.8.4-.2.6 0l.2.3a6 6 0 0 0 3.7.5c.2 0 .4-.3.3-.4-.3-.4 0-1-.5-1.5-.6-.6-.7.4-1.1 0-.1-.4.5-.5.4-1-.5.6-.7.3-.7-.3-.7 1.3-.7 1.3-1.7.4v.3c-.1.3 0 .8-.4.8-.5 0-.2-.5-.3-.8 0-.2 0-.5-.4-.2-.1.2-.3.4-.4.1a.6.6 0 0 1 0-.8c.2-.2.8-.3.5-.7-.3-.4-.5.3-.8.4a2.6 2.6 0 0 1-.6.1c-.4 0-.5.3-.4.6 0 .2.4.4.1.6-.3.2-.4-.1-.6-.3l-.4-.4c-.2.4 0 .9-.3 1.2-.4 0-.4-.4-.3-.5.1-.6 0-1-.7-.8-.3 0-.4-.2-.2-.5a.7.7 0 0 0-.5-1c-.6 0-.7-.4-.7-1-.3.1-.3.6-.7.7-.1-.4-.3-.9-.9-.4h-.2c.1-.8-1.1-.3-.6-1.4l-.8.7c-.3-.4.1-.6 0-1-.2 0-.3.3-.4.4-.4.4-.8.2-.7-.2 0-.7-.4-.7-.8-.8 0-.4.3-.5.5-.5.4-.2.4-.3.2-.6-.2-.2-.3-.3-.6 0-.1.2-.3.6-.6.4-.3-.1-.2-.5 0-.8.2-.7-.3-.4-.6-.4-.2 0-.5.2-.6-.1 0-.3.2-.4.4-.5a1.9 1.9 0 0 1 1.8 0l1.9.8c.2-1 1-1.8.8-3-.3-.1-.7.3-1.1 0 .1-.5.6-.5 1-.7.2 0 .6 0 .5-.2-.3-1.1.4-.7 1-.7.2 0 .2-.2.2-.3 0-.3.1-.6-.1-.8-.2-.1-.3.1-.4.2-.1.2-.2.3-.5.4.2-.8-.5-.6-.8-1 0 0-.4.3-.3.4.4.8-.4 1.1-.6 1.7-.4-.3 0-.8-.3-1.1-.4.1-.1.7-.5.7a1.2 1.2 0 0 1-.8-.6c-.2-.4.5-.3.5-.7-.5-.2-.6.3-1 .5-.3-.3 0-.7 0-1.1-.2-.7-.8 0-1-.5.9-.8 2.1-.3 3.2-.6-.1-.5-.8-.5-1-1a3.3 3.3 0 0 1 1.5.8c.3.1.4.3.7 0 .3-.5 1-.4 1.3-1 0 0 .6.5 1.1.4a2.6 2.6 0 0 0-.3.4.6.6 0 0 0 0 .6.4.4 0 0 0 .7.1c.5-.3.8 0 1 .4.1 0 .2.2 0 .3-.2.4-.2.4.2.5.6.3 1.3 0 2 0 .8 0 1-.8 1.1-1.4.2-.3.5-.2.7-.4-1.5-1-3.3.2-4.7-1 0 .1 0 0 0 0a9 9 0 0 0 1.5-.1c.5-.1 0-1 .5-1.1.4.2.2.7.3 1 .5 0 .7-.5 1.2-.4.2.3-.5.5-.2.8.3.3.7.1 1 .1h.7c.3 0 .3 0 .6-.4s1-.2 1.4-.5c-.1-.5-.7-.5-.8-1 0-.2-.2-.4 0-.6.3-.1.3.2.5.2 1 0 1 .8 1.2 1.5 0 .5.5.7.7 1.1 0 .1.2.2.4 0a10.2 10.2 0 0 0 2-1.9c.3-.4.7.3 1 0 0-.3-.2-.3-.4-.4a.6.6 0 0 1-.2-.6c0-.3.3-.3.5-.3 1 0 1.4-.9 1.8-1.7a.4.4 0 0 0-.1-.5c-.2-.1-.4 0-.5.2-.1.3-.4.7-.5.1-.2-.8-.8-.6-1.3-.8-.1.3.5.5.2.7-.3.2-.6-.3-1-.4-.1.2.1.7-.3.9-.8-.9-.8-.9-1.5-.1-.2-.8-1-1-1.8-.3.2-.8-.7-1-.8-1.5h-.3c-.5.4-.5.4-1 0-.2.3.1.7-.3 1-.4-.2-.3-.7-.3-1 0-.6-.4-.9-.8-.7a1.4 1.4 0 0 1-1.7-.7c-.3.2 0 .6-.4.8-.2 0-.2-.3-.2-.5 0-.5 0-.8-.7-1-.5-.1 0-1-.3-1.4-.2-.4.3-.5.5-.7.4-.2 1 0 1.3-.5-.4-.1-.6.3-1 .2.2-.3.4-.6.4-1 0-.3 0-.4-.3-.5-.3 0-.5 0-.7.2-.1.2-.1.7-.5.6-.3-.2 0-.6 0-1a1.3 1.3 0 0 0 0-.1c-.3-.2-.6.1-1 0 0 0-.3 0-.3-.3 0-.2.2-.3.4-.2.7 0 .8-.3.3-.8a.3.3 0 0 1 0-.5c.3 0 .4.1.5.2l.4.6c.2.1.3.3.5.2.3-.1.2-.3.2-.5s-.1-.3 0-.4c.8-.5.5-1 0-1.5a3 3 0 0 1-.3-.4c-.1-.2-.4-.5 0-.7.2-.2.2.3.5.4.5-.7 1-.8 1.6 0 .1.3.4.3.6 0 .2-.1.4-.3.7-.3.2.4-.3.6-.3 1l1 .3c.3.1.5.2.4-.3 0-.5.4-.5.7-.5.4 0 .1.3.1.5 0 .3-.4.7.2 1 .5.2.8-.2 1-.6a.7.7 0 0 0-.2-1c-.2-.2-.7-.2-.6-.6 0-.4.5-.4.9-.4.1 0 .3 0 .4-.2 0-.3-.4-.3-.5-.6 1.3-.4.2-1.6 1-2.3-.5 0-.5.4-.8.3v-.2c.3-.3.4-1 .9-.9.5.2.2 1 0 1.4-.4.8.6.7.8 1.1.1.3.4-.2.5-.4a.8.8 0 0 1 1.1-.2.8.8 0 0 0 1 .2c-.2-.5-.8-.3-1-.8.2-.3.4-.1.6 0a1.4 1.4 0 0 0 1.4-.4c.1-.2.4-.4.3-.7-.2-.3-.4 0-.7 0-.5 0-1 0-1.1-.7-.2-.5-1-.1-1.3-.5-.2.4 0 1-.5 1.1-.3-.2 0-.6-.2-.9-.3 0-.7.3-1 0v-.1c.8-.9.8-.9-.3-1.4a2 2 0 0 0-1-.3v.6l.2.7c-.6-.6-.8-1.4-1.5-1.4s-1 1-1.7 1c1.1-.7 1-2.5 2.6-2.8l.2-.2c.4-.6.8-.7 1.2.2.5-.6.8-1.7 1.8-.8.3-.5 0-1 .5-1.3.4.3 0 .8 0 1.2.5 0 .8-.6 1.4-.3 0 .4-.5.4-.7.6-.2.1-.4.2-.2.5.2.4.3.1.5 0l.2-.2a1 1 0 0 0 1.6-.3l.3.1c-.3.9.3.7.7.8a2 2 0 0 1 1.1.5l.6-.9c.1-.1.3-.3.5-.2.2.2 0 .3 0 .5l-.3.6h1c.3.2 1 .7.6-.3l.1-.2c.9 0 .5-.7.5-1-.1-.5-.6-.2-.9-.3.2-.8.8-1 1.6-.5.3.2.6.9 1 0 .2-.5.1-1-.5-1.2-.2-.1-.5-.2-.5-.7l-.1.4c-.1.3 0 .8-.4.8-.3 0-.2-.5-.2-.7 0-.3 0-.5-.4-.6-.3 0-.8.1-.4-.6 0-.2-.3-.2-.4 0a.6.6 0 0 1-1 0c-.4-.2 0-.4.1-.6v-.3c-.4 0-.9-.2-1 .2-.2.4-.3.5-.6.1s-.5 0-.7.1c-.2.2-.4.5-.6.3-.2-.3-.6-.6-.2-1 .1-.2.3-.3.2-.5-.1-.2-.4 0-.6 0-.2 0-.5.1-.6-.1 0-.4.3-.4.5-.5.5 0 .8-.1.9-.7 0-.5 0-.8-.7-.7a1.5 1.5 0 0 1-.4 0c-.2 0-.5 0-.6-.2 0-.4.4-.2.5-.4l-1-.9c-.1.4 0 .9-.3 1.2-.4-.2-.3-.6-.3-.8.3-.7 0-.8-.5-.6-.2 0-.5.1-.5-.2 0-.2.2-.3.4-.3l1.4-.2c-.8-.9-1.1-1-2.4-.2.5-1-.3-.3-.5-.5 0-.4.5-1-.6-.8.7-.2 1.1-1.4 1.8-.2.2.2.5 0 .5-.1.4-.9 1.1-1 1.8-1.2 0-.3-.7-.1-.6-.7a.7.7 0 0 1 .6-.5c.3 0 .7-.3.8 0 .2.4-.4.3-.5.6.3.3.6.6 1 .2.4-.4 1 .1 1.2-.4.1-.1.3.2.3.4.1.2.2.5.5.2.6-.5.6-.5 1.3-.2.1-.4-.1-.9.3-1.3a3.1 3.1 0 0 1 .3 1.7c0 .2 0 .4.2.4.8-.1 1.4.6 2.3.5.3 0 .7.2.9 0 .2-.3-.2-.5-.3-.8a1 1 0 0 0-.2-.2c-.2.2 0 .5-.4.6-.1-.4-.6-.7 0-1.2-.7.4-1.2.5-1-.5l-.7.4c-.4.1-.6 0-.5-.3.3-.9 0-1.1-1-1.1 1-.1 1.7-1.4 2.8-.6a.2.2 0 0 0 .3 0c.4-.6.8-1.2.6-1.8a6 6 0 0 1-.2-1.8 1.6 1.6 0 0 1 .2-.8c.4-.8.2-1-.5-1.2l-1.2-.6c.6-.2.5-.8 1-1.2.3-.3 0-.6-.5-.6a2.7 2.7 0 0 0-.9 0c-.3.1-.5.2-.6-.3-.2-.6-.7-.5-1 0a3.3 3.3 0 0 1-1 .7c0 .1-.3.2-.4 0 0-.2 0-.3.2-.4.2-.2.5-.3.6-.6-.4-.2-1-.4-1-1 .4 0 .7.3 1.1.5 0-.4 0-.4-1.8-1.5a5.4 5.4 0 0 0 1.4.4c.5 0 1 0 1.3.4 0 .2.4.3.5 0l-.1-.3c-.6-.6.2-1 .1-1.6.4.6.8.8 1.5.4-.7.8-.3 1 .2 1.1a5.7 5.7 0 0 0 2 .3c-.2-1 .5-1.7 2-2-.3-.5-1-.5-1.4-1 .3-.1.5 0 .7.2.5.3.9.4 1.2-.3.1-.3.4-.2.7-.1.7.3 1.1 0 1.3-.7 0-.5.5-.6.9-.7.2-.1.4-.2.4-.5a.4.4 0 0 0-.1-.3c-.3 0-.4.1-.6.3a4.7 4.7 0 0 1-.9.8c-.2 0-.5.2-.6 0-.3-.5-.5-1-1-.2h-.2c.3-1-1.2-1-1-1.9-.3 0-.3.2-.4.3 0 0-.2.3-.4.2-.2-.2 0-.4 0-.5l.2-1.2c-.7.3-1.4 0-2 .2-.3 0-.3-.2-.2-.3a3 3 0 0 1 .2-.5c.3-.6 1-1 1-1.8.1-.4 1-.8 1.7-.8l4.6.4a3.7 3.7 0 0 0 1.4 0c0-.4-.6-.3-.7-.6 0-.4.6-.4.5-.8-.5.3-1.2-.1-1.6.6l-.4-.8a2.2 2.2 0 0 0-.2 0c-.2.3-.2.8-.5.6-.3-.2 0-.6 0-.8.1-.2.3-.3.1-.5h-.5c-.5.1-.7.8-1.3.8-.2-.5.4-.6.4-1-.2-.2-.7-.1-.7-.6.1-.2.3-.1.5 0 .4.2.6 0 .6-.4 0-.3 0-.8.6-.4l1-.5c-.3-.4-.8-.1-1-.5.7-.2 1.4.4 2-.2.2-.2 0-.6 0-1.1l-.8.9c-.3-1 .8-1.4.5-2.2-.1-.1-.4 0-.4 0-.2 1.2-.6.2-1 .2 0 .3.1.6-.2.9-.3-.3-.2-.6-.2-.9 0-.3 0-.4-.3-.5-.2 0-.5.1-.5-.1 0-.3.4-.3.4-.5-.2-.3-.6-.2-.9-.6l2.2.6c.3 0 .7.3.7-.3 0-.5.6.2.7-.4a3.2 3.2 0 0 1-2.4-.4c.3-.1.8.1 1.2-.2-.4-.3-1-.6 0-.8.4 0 1.1 0 1-.9 0-.2.4-.1.5 0a.8.8 0 0 0 .8 0c.2 1 .8 1.4 2.3 1.5 0-.6-.3-1.5-.5-1.5-.6 0-1.2-.6-1.9 0Zm16.3 32.5c-.3-.4 0-.6.1-.9a5.1 5.1 0 0 0-.6-1.9.6.6 0 0 0-.3 0h-.8c-.4.1-1-.1-1.2.3-.1.6.5.5.9.6v.2h-1c.4.2.7.3.8.7a2.4 2.4 0 0 0 2 2.1c.4 0 .8.2.6.7-.2.4.2.4.4.5.4.4.7-.3 1.2-.1l.2-1.5h-.3c-1 0-1.2-.5-1.4-1.3-.2.2-.3.5-.6.6Zm-45 50c-.6-.2-1-.5-.7-1.1a.2.2 0 0 0-.1-.3.4.4 0 0 0-.3.1c-.3.4-.9.7-1 1.2a14 14 0 0 0 3.3 1.6c.7.2 1.2.7 2 .3.7-.4.6-.4.3-.9a8.4 8.4 0 0 1-1.3-1.5c-.3-.4-.6-.5-1-.1-.5.5-.6 0-.9-.3 0-.2 0-.5-.3-.7-.4.6.1 1.2 0 1.8Zm-.4 26.4c-.2.7-.2 1.1-.5 1.4-.5.5.3.7.2 1.2-.6 0-.8-.4-1.2-.6 0 .4 0 .7.3.9.2 0 .4.1.3.3-.4 1 .5.4.7.6.4.3.4-.3.5-.5.1-.3.3-1 .6-.7.5.4.7 0 1.1-.1-.2-.3-.6.2-.7-.2 0-1-.9-1.4-1.3-2.3Zm57.7-28.7.3.4c0 .8.5.8 1 .6.8-.1 1.5-.9 2.4-.4l.1-.3c-.2-.2-.5.3-.6 0-.1-.5-.4-.6-.8-.7-.3 0-.5-.2-.4-.6 0-.4-.2-.4-.4-.4-.3 0-.6 0-.5.4.3 1-.4 1-1.1 1Zm5.1-19.7c-.1.9-.5.9-1 .4-.2-.1-.4-.5-.7-.3a8.6 8.6 0 0 1-2.1 1.2c-.2.2-.4.3-.3.6 0 .3.3.2.5.1l3-.8c.8-.1.8-.6.6-1.2ZM90 46.6a1 1 0 0 0 .8 1.3 1.9 1.9 0 0 0 2-.4v-.3c-.6 0-.4-.8-.5-.8a2 2 0 0 1-1.2-.5s-.3.2-.3.5v.4l-.8-.2Zm14.5 26a6.5 6.5 0 0 0 1.3.7 1.4 1.4 0 0 0 1.6-.5c.3-.6-.3-.7-.8-.8l-.1-.2a.4.4 0 0 0-.8 0c0 .9-.6.8-1.2.8Zm-8.8-4.2c.8-.3.6-1 1-1.3.5-.3 1.1-.7 0-1v-.5c0-.2-.2-.5-.5-.5a.5.5 0 0 0-.5.3c-.2.3 0 .5.2.6.2.2.5.3.2.6-.6.5-.3 1.1-.4 1.8ZM83.8 11.6c-.7.1-1.4.3-1.3 1.2 0 .3 0 .5.2.6h.7c0-.4.2-.4.4-.2.4.2.6 0 .7-.3 0-.3 0-.6-.3-.6-.7 0-.4-.5-.4-.7Zm-11.6 2.5c0 .4 0 .8.4 1 .5.2.7-.1.9-.5.3-.5.4.7.8.1 0-.2.4-.4.1-.7a.7.7 0 0 0-.9-.2c-.3.2-.5.1-.8 0-.5-.5-.5 0-.5.3Zm-4.7 6.7c.2.4.2 1 .7.8a.8.8 0 0 1 1.1.5c.1.3.4.5.6.4a2.6 2.6 0 0 0 .4-1.1c.1-.3-.2-.3-.4-.3l-2.4-.3Z"/><path fill="#73bf44" d="M100.3 146.2c-.5 0-.7-.3-1-.6-.4.4 0 1-.6 1.3-.2-.7 0-1.6-1.2-1.4.3-.5.6-.8.6-1.2 0-.3.3-.6.6-.3l1.6 2.2ZM112.3 76l-.1.2c-.3 0-.5.2-.8.3 0 .3.4.6.3 1A2.7 2.7 0 0 1 110 75c0-.4.5-.4.7-.5.3 0 .2.3.2.5-.2.6 0 .7.6.7.2 0 .5-.1.7.2ZM100.5 97c7.7 0 7.7-12 0-12-7.6 0-7.7 12 0 12ZM47.3 128.7c7.7 0 7.7-11.9 0-11.9s-7.7 12 0 12ZM80.6 21.7c7.6 0 7.7-12 0-12s-7.7 12 0 12Z"/></svg>