<svg xmlns="http://www.w3.org/2000/svg" viewBox="0 0 150 150"><path fill="#73bf44" d="M72 150h5.3s-.2-8.2 0-13.5c.1-5.3-4.1-.5-4.1-.5s-.4 9-1.1 14ZM108 81.9l-.8.1v.3l.5.1.3-.5zM106.5 83l.1-.2h-.2l.1.2zM102.8 77.6l.1.2.1.1v-.3h-.2z"/><path fill="#73bf44" d="m111.1 108.4-.7-.8-.8 1-.7-.4v.6l-1.2.3-.3-.7h.6l-.2-.3.4-.1-.1-.6h.4v-.7h.5v-1l-.1-.5h-.7v-.4l-1 .3.7-.9h.6v-.7s1 .8.6 0l-.4-.8.9-.4v-.9l.5-.1-.7-1 .4-.9-1-.6-.3.3-.7-.2-.6.4-.7-.1-.3.5-.5-.2-.1-.3 1.2-.6-.4-.9v-.2l-.1-1 .4-.1-.2-.7h.5l-.2-.4s1 .7.8-.1l-.3-.8.9.1-.1-.7h.4l.3-.7.5.1v-1.1l.5-.1-.8-.8.7-.2-.6-.7.7-.3-.2-.5-.7-.3-1 .7-1.2.1.9-1.4.6-.6-.1-.4.8-.2-.4-.5h1l-.3-.7 1.1-.2-.7-.5.6-.6-.5-.4 1.2-.4-.6-.8h1.6l-1.1-1.7.4-.4-1.5-.7-.6.8-.6-.2-.4.6-.4-.5 1-.2-1.2-1.2c-1.1-1.2-1-.9-1-.9l.2.9-.7-.3-.7.4-1-.8 1-.2-.7-.6 1-.3-1.4-1.7-.2 1-.5-.2-.6-.5 1.1-.3-.3-1.1h.5l-.2-1 .7-.2-.5-.8h.5l-1-1.2-1.3.8-1 .6-.2.2v-.1l-1-1v1.2c.1 1.2-.5-.6-.5-.6v.7l-1.1-.3-.3.7L97 74l-.5-.6.1-.2.6-.5v-.4l-.2-.4h.3l.8.4v-.9h.2l.4.1V70.4l.8-.2.5-.9-.2-.3.2-.2h.4v-.1h1.2v-1l1.3.6-.2-1.8h1l-.3-1h.5v-1l.8-.1-.9-1.1-1-.6-.1.6-.6-.4-.2.8-.4-.4-2 1.1.7-.7-.8-.6 1.4-.9-.5-.7 1-.3-.2-.5-.3-.4c-.3-.5 1.4-.3 1.4-.3l-.6-.8 1-.6-.7-1.2-.3-.3-.1.7-1.1-.3 1-.6-.4-.5 1-.5-.2-.5-.4-.2 1.1-.2.2-.4-.3-.4c-.2-.4.9-.2.9-.2v-.9l.4-1-.7-.8-.2.5-.5-.4-.2.8h-.3l-.5-.4c-.5-.5 1.1-1 1.1-1l1.2-1.1-.4-.4.6-.3-1-1.5-.3 1-1-.7-.2.3-.2.4-.8-.4v1l-.7-.6-.3 1-1.2-.5.6-.2-.7-.7.4-.5-.5-.3-.7-.6 1.6-.3-.9-.6 1-.3-.6-.5.9-.5-.5-.3.6-1.1-.8-1v1.2l-.6-.7-.7.8-1.2-.3.9-.7-.5-.3.5-.6-1-.6-.3 1-.8-.2h-.2l-.4.3v.4l-1.3-.2-.3-.3-.3-.7h1l-.1-.6.8-.1-.5-.6H95l-.4-1 1.1-.5-.2-1 .9-.2-.9-.5.4-1-.7-1.2-.6.8-.8-.4-.1.9-1-.4.1.8-.8-.1v.3l-1.5-.3.5-.4.5-.6.7-.1c.7-.2-.1-.5-.1-.5l1-.8.9-.6-.2-.3 1-.8-1-.8-.8-.5v.9l-.5-.2-.2.3-.4.6-1.3-.2.7-.5V31h.6l-.2-.4.5-1 .6-.1-.2-1.2.4-.7-1-.9v.7l-.4-.3-.9.5-.5-.7 1.2-.4-.4-.5 1.1-.5-.2-.9.7-.2-.2-1-.7-.3-.7-.6-.1 1.2-.5-.2v.9c0 .8-.2-.2-.2-.2l-.5.2v.3l-.5.7c-.5.7-.8-1-.8-1l.8-.5-.6-.3.3-.6.5-.2-.6-.8.7-.4-.6-.8.8-.3-.4-1.6-.2.7-.7-.5v.6l-.8.4-.5-.3.7-.6-.6-.5.8-.4-.8-.6.7-.7-.4-1.7-.3.6-.6-.6.1 1.4-.4-.2-.3.5-.4.1-.7-.9 1.1-.4v-.7l.7-.3-.4-.5.6-.2-.4-.8h.3l-.9-2 .2.4c.1.4-.6 0-.6 0l-.6-.4v1.2l-.6-.5v.2l-.3.6-.8-.4.7-.4-.5-.3.6-.5-.5-.4.5-.2-.6-.6 1-.6-.8-1.2-.3.6-1.2-.6-.7.1-.2-.2 1.7-.3-2-1h.8l-.6-.4.2-.7H81l-1.2-.9.2-.4-1-1 1.7-.3-2-1h.8l-.6-.4.2-.7h-.3l-1.3-1-.6.8a4.9 4.9 0 0 0-1 0c-.2.1 0 0 0 1 0 1.1-.6.1-.6.1l.2.9h-.7l.7.8h-.5l-.2.6h-1.1l.1.7-1 .6.4.2-1 .6.6.4-.5.4.4.3v.8l-.8 1-.5-.7h-.5l-.5.1-.4.7.6.2-.6.6.6.3-.3.3.6.6-.3 1-1.7-1.3-.5 1-.5.6.8.3-.5 1 .6.2-.3.4.7.5-.7.6.6.2v1l.7.9-.7.3-1.2-.8-.7.3-.2.8.9.4-.4.4 1.4.7-.7.6.9.7-1.2.5.5.7-.8.7.7.6-.4.7 1 .5-1.2 1.3-.5-.5-.7-.3-.1-.4-1-.2-.4-.8h-.3l-.7-.9-.7-.4-.6.2H62l-.3 1.2.7.8-.6.5 1.2.4-1.2.8.6.3-.4.7 1.2.7.8.4-1 .5.8.5-.8.8-.9-.4-.4-.4-1-.5-1 .5 1 .8-.8.4 1 .9-.6.4 1.3.6-1.1.3.8.5-.2.6 1.1.2.6.9-1.1.3v.6l1.3.6-.5.2 1 .3-.3.6 1.5.2-.5.5 1.4.5-1.1.6 1 .5-.6.7-1.3.3-.3-.6-.9-.2-.1-.8-1-.4-.4-1-.7-1.3-1.4-.3-.9.7.8.3-.4.7.4.1-.1 1.3.6.2-.4.6.7.2-.4.9.5.3.8.2-.6.7 1.2.6-.4.7 1.2.3-.6.7c-.5.8.8.4.8.4l-.3.3.3 1 .9.4-.6.7.8.3-.8.9-.3-.3h-.5l-.8-.7-.9-.2-.6-.6-.5.2-1.5-1.2-1.6-.6-1.1.3.7.3-.6.6 1.3.3-.5.4.2.5h.5l.1 1.3-1.4-.5-1.1-.5-.8.3.8.8-.8.4 1 .6-.5.4 1.4.3-.6.6 1 .2-.3.5h.7l.5 1.1h.6l-.1 1.1-.4-.3-.6.2-1.5-1-1.3-1-1-.6-.7.5-.9.5.8.5-.3.4h.6v.7l1 .4-.7.7c-.6.7 1 .3 1 .3v.2l1.2 1-.4.4 1.1.4-.4.5.8.4-.2.2.8 1.4h-1.1l-1.3-.7h-1l-.6-.7-1.5.1-.6 1h.3v1h.4l.2.7.7.2-.4.8h.8l-.4.5.8.1.5.3 1.2.4-.9 1-.6-.1-.4-.4-1-.2-1-.6-.7.5.3.1-.3.9.6.3-.5.6.4.5-.7.5 1.6.3-.5.8.8.2-.4.4.5.9 1.2.3-.4.7h.8v.6l1-.1-.3.6h.4l.2.7.5.7v1l-.9-.1-.5.2-1.8-.7-.5.2-1.5-1-1-.6-1.4-.7-1 1h.6l-.5 1 .7.2-.2.9h.5l-.3 1.1 1.1.3-.8.8 1 .2-.3.6.7.3-.3 1 1 .3-.5.6.6.1-.7.7.7.4.3 1.2-.6.6.8.5-.3.6-.3-.3-.5-.1h-1l-.7-.5h-.3l-1.1-.3-1.2-.3-.6-.7h-.7l-.8-1.2-.6.2-.6-.8-1.5.7.4.4-1.1 1.8H40l-.5.7 1.2.4-.6.4.6.6-.7.5 1 .2-.1.7h1l-.4.5.7.2v.4l.5.6 1 1.4h-1.3l-1-.8-.6.3-.3.5.7.3-.5.7.6.2-.7.8.4.1v1.1l.5-.1.3.8.4-.1v.7h.8l-.3.7c-.2.8.8 0 .8 0l-.2.5h.5l-.2.7.5.1-.1 1 1 .3-.4.4.7.3.1 1-.5.3-.2-.4-.6.3-.3-.5h-.7l-.6-.3-.7.2-.2-.3-1 .6.3.9-.7 1 .5.1v1l.9.3-.4.8c-.4.8.5 0 .5 0l.1.4v.2l.6.1.7 1-.9-.4-.1.4h-.6l-.1.5v1h.4v.7h.4v.6l.8.3-.4 1h.5l.3 1.2.7.1-.3.6.8.3-.3.4.7.3-.3.8 1.2.2-.7.6.4.9-.3-.4-.5.3-.8-.7h-.4l-.5-.6-.2.3-.8-.6-.6.8.4.2-.3.8 1 .2-.4.7.6.4.2.5-.3.3-.3-.2-.3.3H42l-.4.4-.1.8.8-.1v.4l-.1.7.2.9.6-.2-.2.3c-.3.4.4.6.4.6l.5-.3-.1 1h.6v.7l.2-.1.5 1 .5.4h-.1l-.5.4-.3-.1-.5.3.8.8-.5.6h.5l.3.9h.3v.5h.6l-.5.7h.7l.4.8.3-.3v.6l1-.1-.2.5h.4l-.3.8.9-.2.3.3-.3.6.8-.4v.1l.5.5.6-.1.1.6h.7l-.4.4.4.4-.5.3.6.7-.8.2.5.4h-.4l-.4.5h.5v.6h.2l.3.6 1 .2v.6h.9l-.2.6h.7l-.2.5h.5l.1.4.6-.2.4.4.2-.6.3.1v-.4l.9-.4v.5l.6-.1.4.5.5-.3h.7v-.5h.9v-.3l.7.1v-.3l.7.2.2-.4.8.2v-.5l1 .4v-.5l.7.6.2-.5.6.7.4-.4.5.2v.5l1 .2-.7.7.7-.3v.4l.4.7c.4.7.6-.3.6-.3l.4.5.6-.3.3.2.6-.5.4.2.3-.3.3.1.2-.3.3.2v.3l.3-.2.6.6 1.2-.5.8.6 1.1-.7.5.6 1.3-.4h.2l.1.7 1-.8s-.3.4.5.3a1.8 1.8 0 0 0 .2 0l.2.2.3-.3.1.2.6-.3.2.3.3-.1.4.3.3-.2.6.5.3-.2.7.2.4-.4s.2 1 .5.3l.4-.7v-.4l.8.3-.7-.7.8-.2.1-.5.6-.2.3.4.6-.7.2.5.8-.6v.5l1-.4v.5l.8-.2.2.4.6-.2v.3h.8v.2h.8v.4h.7v.1l.5.3.4-.6.5.2.1-.5 1 .4-.1.4h.4l.2.5.3-.4.6.2.1-.5.5.1-.2-.5h.7l-.2-.6h1v-.6l1-.2.3-.6h.2v-.6h.5l-.4-.4-.5-.1.5-.4-.7-.2.5-.7-.5-.3.5-.4-.5-.4h.7l.1-.6.6.1.5-.5.9.3-.3-.6.3-.3.8.2-.3-.8h.5l-.2-.5.9.1v-.6l.3.3.5-.9h.6l-.5-.6h.6v-.5h.3l.4-.9h.4l-.4-.6.7-.8.8-.3a2 2 0 0 1 0-.9l-.6-.2 1-.3-.8-.8h1.3l-.3-1.2 1.1-.1-.6-1.1-.1-.3h1.3l-.3-1.4h.3l-.7-.7v.6l-.4-.4h-.2l-.3-.3-.3.2-.3-.3.2-.5.6-.4-.3-.7 1-.2-.2-.3.2.1-.1-.7h.2l-.3-.4 1.3-.3-.4-1.1c-.5-1.2 1 .2 1 .2V111l.9.1-.6-1.2.9-.1ZM107.2 82h.8l-.3.4h-.5Zm-.6.8-.1.2-.1-.2Zm-3.7-5v-.2l.1.3Z"/></svg>