<svg xmlns="http://www.w3.org/2000/svg" viewBox="0 0 150 150"><path fill="#73bf44" d="M53.4 65.2h.1l-.1-.1v.1ZM52.4 64h-.8a5.5 5.5 0 0 1 1.2 1.6l.2-.1a2 2 0 0 0 .2-.6 11.6 11.6 0 0 1-.8-.9ZM46.5 58.2a4.5 4.5 0 0 1-.1.4 3.5 3.5 0 0 1 .4-.6l-1 .4v.1a5.2 5.2 0 0 0 .7-.3ZM53.7 66.1v.1ZM69.1 66.9l-.3-.2h-.1a5 5 0 0 1 0 .7 3.4 3.4 0 0 1 .4-.5Z"/><path fill="#73bf44" d="M50.5 64.1a6.9 6.9 0 0 1 .3.9 5.2 5.2 0 0 1 .6.4 5.4 5.4 0 0 1 .2-1.5H51a3.6 3.6 0 0 1 1.2-.7h-.7a9 9 0 0 1 1.5-1 4.1 4.1 0 0 1-1-1l-.2.4a3.8 3.8 0 0 1-.4-1l-.4 1.2a3.6 3.6 0 0 1-.4-1.3l-.2.7a9 9 0 0 1-.5-1.6l-.6.9a4 4 0 0 1-.1-1 2.4 2.4 0 0 0-.4.7 7.5 7.5 0 0 1-.3-1.3l-1.3.7a3.6 3.6 0 0 1 .6-1.2l-.6.2a3.4 3.4 0 0 1-.7.8 1.4 1.4 0 0 0 .4 0 4 4 0 0 1-.7.6 4 4 0 0 1 .4.1 4 4 0 0 1-.5.3 1.7 1.7 0 0 0 .6 0s-.1.1-.3.3a2 2 0 0 1 0 .5l.4-.6a2 2 0 0 1 .1.7l.2-.3a5 5 0 0 1 .1 1.2 4.9 4.9 0 0 1 1.3-.5s-.7 1.4-1.5 1.4a1.2 1.2 0 0 1-.1.3h.7a2.1 2.1 0 0 1-.4.5 3.4 3.4 0 0 1 .7 0 3.5 3.5 0 0 1-.6.7l.4.2.7-.2a2.2 2.2 0 0 1-.3.5h.3l-.1.2a8.6 8.6 0 0 1 .9.6l-.4-.7a4 4 0 0 1 1 .4 4 4 0 0 1 .3-.8 2.2 2.2 0 0 0-.1-.3s0 0 .2.1l.3-.5ZM43.5 55.2l-.3-.1a1.7 1.7 0 0 1-.6.8 2 2 0 0 1 0 .6 3.4 3.4 0 0 1 .6-.4 3.7 3.7 0 0 1-.1.6 1.3 1.3 0 0 1 .1 0 5.2 5.2 0 0 1 .8 0l.5-.6a2 2 0 0 1 0 .8l.2-.4a5 5 0 0 1-.2 1.2 4.7 4.7 0 0 1 1.3-.1 4.3 4.3 0 0 1-.5.5 2 2 0 0 1 0 .5l.4-.3a3.5 3.5 0 0 1 .7-1c-1 0-1-.2-1.6-.2a7.4 7.4 0 0 1 1-.7v-.3l-.3-.2.5-.2c0-.2 0-.4.2-.6a6.6 6.6 0 0 1-1 .1 4.3 4.3 0 0 1 .2.5l-.8-.5h-.2a4.2 4.2 0 0 1-.2.5 3.4 3.4 0 0 1-.3-.6 2.2 2.2 0 0 1-.3.6s0-.2-.1-.5ZM86.2 42.8v-.1ZM69.7 61.6a3 3 0 0 1-.6.7 3.7 3.7 0 0 1 1-.6h-.4ZM42.2 56.2l.2-.2-.3.2h.1ZM43.9 55.1ZM88.5 42.2a4.5 4.5 0 0 1 .2-.6 4.8 4.8 0 0 1 .6 1.1 5 5 0 0 1 .9-.7s0 0-.2.4a2 2 0 0 1 .7-.5s-.1.3-.2.7a5.5 5.5 0 0 1 .3.7 1 1 0 0 1 0 .2 4 4 0 0 1 .5-.4 3.5 3.5 0 0 1 0 .7 2.1 2.1 0 0 1 .6-.4s-.1.2-.2.5l.1.3a1.2 1.2 0 0 1 .3-.2c0-.5.5-1 1-1.2l-.3.1a6 6 0 0 1 .6-1 3.2 3.2 0 0 1-1.2-.8 7 7 0 0 1 .2.8c-.4-.4-.5-.3-1.3-.8a2 2 0 0 1-.2-.2 6.2 6.2 0 0 1-.3 1 5.4 5.4 0 0 1-.6-1 3.4 3.4 0 0 1-.4 1s0-.4-.3-.9l-.3-.2A2.5 2.5 0 0 1 88 42v.6a1.9 1.9 0 0 1 .4-.4ZM69.9 54l.4.1a2 2 0 0 1-.3-.4 2.3 2.3 0 0 1-.1.3ZM96.5 57.3a3.4 3.4 0 0 1-.3 0l.2.3.1-.2v-.1ZM68 96.4ZM67 60a6.6 6.6 0 0 1 1 0 6.7 6.7 0 0 1-.8.8 1.8 1.8 0 0 1 .3.1 9 9 0 0 1 1.2.7l.5-.2-.3-.1a6.8 6.8 0 0 1 1-.6 2 2 0 0 1-.3-.1 10.4 10.4 0 0 1-1-1l-1.3-.2a3.6 3.6 0 0 1 1.2-.7h-.7a8.7 8.7 0 0 1 1.8-1 8.5 8.5 0 0 1-1.7-1.7 3.8 3.8 0 0 1-1 .4l1.3.3a3.6 3.6 0 0 1-1.3.5l.7.2a8.7 8.7 0 0 1-2 .7 7 7 0 0 1 .8 1 2 2 0 0 0 .4-.1s-.1.1-.2.3l.3.7ZM95 44a2.5 2.5 0 0 1 0-.7h-.1l-.2.5-.1-.5H94a4 4 0 0 1 .4-.4v-.5h-.3a6.3 6.3 0 0 1-.7.3 4.6 4.6 0 0 1-.5 1.1 4.8 4.8 0 0 1 1.2.1 1.7 1.7 0 0 1 .8 0ZM124.8 32.1ZM100 71.7l.2-.3a3.8 3.8 0 0 1-.4.2v-.4a4 4 0 0 1-.8.4 1.1 1.1 0 0 0 0-.1 2.6 2.6 0 0 1-.4.1l.7.2a8.7 8.7 0 0 1-2 .7 6.3 6.3 0 0 1 .5.5 2.8 2.8 0 0 1 1.3.1c.2 0 .2-.2.3-.4l-.2-.5a3 3 0 0 1 .5.2 4.2 4.2 0 0 1-.6-.3 3.4 3.4 0 0 1 .7-.3v-.1h.3ZM97.7 49.9ZM92 40.4a4.3 4.3 0 0 1 .1.6h.4l-.6-.6ZM97.3 55.9a2.5 2.5 0 0 1 .3.2v-.3h-.3ZM100.1 55.5v.4a2 2 0 0 1 .4-.7l.1.6h.4a4.6 4.6 0 0 1-.2-.6 10 10 0 0 1-1.7 0s1.9-2 3.2-1.6a2.1 2.1 0 0 1 .4-.2 8.8 8.8 0 0 1-1-.5h-.3a5 5 0 0 1-1.6-1.4l-.1.5a3.8 3.8 0 0 1-.4-1l-.4 1.1a3.7 3.7 0 0 1-.4-1.3l-.2.6a4.6 4.6 0 0 1 .1.5s0 0-.3-.2a2 2 0 0 1 .2.7s-.2-.2-.6-.4a2 2 0 0 1 .2.5h.3a1.7 1.7 0 0 0-.5.3 4 4 0 0 1 .6.1 3.5 3.5 0 0 1-.3.3 4 4 0 0 1 .8.3 1.3 1.3 0 0 0-.4.1 3.4 3.4 0 0 1 1 .5 3.1 3.1 0 0 1-.8.3 4.4 4.4 0 0 1 .3.3 5.4 5.4 0 0 0-.8 0 2.6 2.6 0 0 1 .2.2s-.3 0-.7-.1a1.8 1.8 0 0 1 .2.4 4.1 4.1 0 0 1 .7.3 5.8 5.8 0 0 1-.8.3l.4.6a2 2 0 0 1 0-.2s.2.2.4.6a2 2 0 0 1 .2-.5 4.5 4.5 0 0 1 0-.7 4.7 4.7 0 0 1 .9 1 4.1 4.1 0 0 1 .2-.6 4.5 4.5 0 0 1 .3-.5ZM92.5 40.7v.2h.2l-.2-.2ZM48.2 66.2l-.2-.5a4.2 4.2 0 0 1-.3.3 3.7 3.7 0 0 1 .5.2ZM83.6 67.6a8.4 8.4 0 0 1-1.7.6l.5.5a7 7 0 0 1 1.3-1v-.1ZM89.3 94v.1ZM91 89a3.6 3.6 0 0 1-1 .3l-.3.3a6 6 0 0 1 .7.2 4.6 4.6 0 0 1 .7-.1 6 6 0 0 1-.4-.4 4.8 4.8 0 0 1 .6-.1l-.4-.2ZM84.7 67a2.3 2.3 0 0 1 0 .4 2.4 2.4 0 0 1 .2 0 1.6 1.6 0 0 0-.2-.4ZM88.6 95a4 4 0 0 1-.5-.4 4.5 4.5 0 0 1 .1.5h.2l.2-.2ZM85 66.7a4 4 0 0 1 0 .6 1.4 1.4 0 0 1 .3.1 2 2 0 0 1 .4-.3l-.3-.3H85ZM88.5 86.8ZM88.3 95.4a1.8 1.8 0 0 0 .1.2 2.2 2.2 0 0 1 .5-.5 18.9 18.9 0 0 0-.6.3ZM69.6 62.4l-.5.7a1.7 1.7 0 0 1 .9 0 2.1 2.1 0 0 1 .3-.3c0-.2-.1-.3-.3-.4h-.4ZM96.6 73.7l-.2-.1-.2-.1a1.9 1.9 0 0 1-.6-1 2.1 2.1 0 0 1-.5-.1l-.1.4.5 1a3.8 3.8 0 0 1-1-.5 6 6 0 0 1 .2 1.2s0 0-.1 0a4.2 4.2 0 0 1 .5.4 5.1 5.1 0 0 1 0-.6 5.4 5.4 0 0 1 .6.6 2.3 2.3 0 0 0 0-.7s0 .1.3.3a2.7 2.7 0 0 1 .6-.2l-.9-.3a2.9 2.9 0 0 1 1-.3ZM93.7 74a2.4 2.4 0 0 1 0 .3 3.3 3.3 0 0 1 .6.4 2 2 0 0 0-.1-.5 6 6 0 0 1-.5-.2ZM87.6 85.4a6.6 6.6 0 0 1-.5.6 3.3 3.3 0 0 1 .8-.1 2.4 2.4 0 0 1-.3-.5ZM84 67.4v.2-.2ZM116.6 54.1l.2.2a2.2 2.2 0 0 1 .2-.2V54l-.4.1ZM118.3 73.5ZM69.5 55.7a4.9 4.9 0 0 1 .2-1.2v-.1l.1-.1a2.3 2.3 0 0 1-.2-.4s0 0 .2 0l-.1-.2v-.3h-.3l.1-.1-.2-.2a4.3 4.3 0 0 1-.6 0 1.2 1.2 0 0 0 .3-.2h-.2v.2l-.2.2a1.8 1.8 0 0 0 0 .4s-.2-.1-.3-.4a2.7 2.7 0 0 1-.3.2 5.2 5.2 0 0 1 .7 1.5 6.5 6.5 0 0 1-1.6-.6l-.1.1v.3h.4l-.3.2a1.8 1.8 0 0 0 .2.4s-.2-.1-.4-.2a2.8 2.8 0 0 1-.8.3 1.4 1.4 0 0 1 .3 0l1.6.5a7.7 7.7 0 0 1 1.5.2v-.3h-.3l.3-.2ZM83.4 67.2h-.2l.2.1ZM45.8 81.7l-.1.2a1.7 1.7 0 0 0 .2 0v-.2ZM45.2 81.5a5.2 5.2 0 0 0-.3.4 3.6 3.6 0 0 1 .3.2 3.6 3.6 0 0 1 0-.6ZM68.6 67.7v.1-.2ZM60 76.4c.1 0 .2 0 .3.2v-.2H60Z"/><path fill="#73bf44" d="m66.2 59.8-.2.4a3.6 3.6 0 0 1 .9-.2c-.1 0-.4 0-.7-.2ZM36.7 30.5h-.2.1Z"/><path fill="#73bf44" d="M126.1 86a1.7 1.7 0 0 0 .2-.2l.3.2a1.4 1.4 0 0 1-.2-.4l.2-.2h-.2a3.7 3.7 0 0 0-.2-.6 5.5 5.5 0 0 0 .6.2 3.4 3.4 0 0 0-.8-1.4 5.9 5.9 0 0 0 1-.7 6.3 6.3 0 0 0-1.7 0 6.6 6.6 0 0 0 .5-1.6s0 0-.5.4a2.6 2.6 0 0 0 .3-1l-.8.6a6.9 6.9 0 0 0-1-.1 2 2 0 0 0-.2 0 5 5 0 0 0 .3-.8 4.5 4.5 0 0 0-1 .3 2.9 2.9 0 0 0 .3-.8l-.6.4h-.3a1.6 1.6 0 0 0 0-.4c1-.4 1.2-2.4 1.2-2.4a6.3 6.3 0 0 0-1.3 1 6.6 6.6 0 0 0-.7-1.3s0 0-.1.5a2.7 2.7 0 0 0-.5-.9s0 .4-.1 1a2.8 2.8 0 0 0-.4-.7l.3-.4a2.3 2.3 0 0 1-.7.2 5.3 5.3 0 0 0 .4-.6 5 5 0 0 0-.5 0 5.3 5.3 0 0 0 .6-1 1.7 1.7 0 0 1-.6.2 4.6 4.6 0 0 0 .6-1.3 4.3 4.3 0 0 0-1 .4 5.4 5.4 0 0 0 0-.6l-.8.8a3 3 0 0 0 0-.4s-.3.3-.6.7a2 2 0 0 0 0-.3l-.1-.2a2 2 0 0 0 .2-.5v.7s.7-.7.5-1.2a3.5 3.5 0 0 0 .7.2 3.5 3.5 0 0 0-.6-1 1.4 1.4 0 0 1 .5.2 3.9 3.9 0 0 0-.6-.7 3.7 3.7 0 0 0 .4-.1 4.3 4.3 0 0 0-.5-.4 1.7 1.7 0 0 1 .6 0s-.1 0-.2-.2a2.2 2.2 0 0 0 .1-.5l.2.7a2 2 0 0 0 .3-.8v.4a4.8 4.8 0 0 0 .4-1.1 5 5 0 0 0 1.1.6s-.4-1.4-1.2-1.6a1 1 0 0 0 0-.2l.2-.1.5.2a2.1 2.1 0 0 0-.3-.6 3.6 3.6 0 0 0 .7.1 4 4 0 0 0-.3-.5 1.4 1.4 0 0 0 .1 0 5.2 5.2 0 0 0 .8-.3l.6.3a2 2 0 0 0-.3-.6l.3.2a4.8 4.8 0 0 0-.5-1 4.7 4.7 0 0 0 1.2-.4 4.5 4.5 0 0 0-.6-.3 1.9 1.9 0 0 0-.3-.4h.7a2.5 2.5 0 0 0-.2-.2 5.4 5.4 0 0 1 .8 0 4.4 4.4 0 0 0-.3-.2 3.2 3.2 0 0 0 .8-.3 3.4 3.4 0 0 0-1-.5 1.3 1.3 0 0 1 .5-.1 4 4 0 0 0-.9-.3l.3-.3a4 4 0 0 0-.6-.1 1.7 1.7 0 0 1 .5-.2s-.1-.1-.3-.2a2 2 0 0 0-.1-.4l.5.4a2 2 0 0 0-.2-.8l.3.3a4.9 4.9 0 0 0-.3-1.1 4.7 4.7 0 0 0 1.3 0s-1-1-1.8-.8a1.2 1.2 0 0 0-.3-.2l.2-.2h.5a2.2 2.2 0 0 0-.5-.4 3.3 3.3 0 0 0 .6-.3 3.8 3.8 0 0 0-.5-.3.8.8 0 0 0 .1 0 6 6 0 0 0 .5-.6l.8-.1a2 2 0 0 0-.7-.4h.4a4.9 4.9 0 0 0-1-.6 4.7 4.7 0 0 0 .9-1 4.5 4.5 0 0 0-.9.2 2.5 2.5 0 0 0-.2-1.2 3.7 3.7 0 0 0-.3.4 2.7 2.7 0 0 0-.2-.4h.1a2 2 0 0 0-.2-.1 1 1 0 0 1 0-.3s-.1 0-.2.2h-.1a3 3 0 0 0 0-1 3.4 3.4 0 0 0-.8.8 1.3 1.3 0 0 1 0-.4 3.9 3.9 0 0 0-.6.7l-.1-.4a4 4 0 0 0-.3.5 1.6 1.6 0 0 1 0-.6s-.1.1-.3.3a2 2 0 0 0-.5 0l.6-.4a2 2 0 0 0-.7-.1l.3-.2a4.9 4.9 0 0 0-1.1-.1 4.7 4.7 0 0 0 .4-1.2 4.4 4.4 0 0 0-.7.4v-.1a3.5 3.5 0 0 0 .3-.2s0 0-.2 0a5.3 5.3 0 0 0 0-1 6.3 6.3 0 0 0 .7.6 4.5 4.5 0 0 0-.3-2 7.6 7.6 0 0 0 1.5-.4 8.5 8.5 0 0 0-2-1 8.7 8.7 0 0 0 1.3-1.6s-.1 0-.8.2a2 2 0 0 0 .2-.1h.2l-.1-.1a4 4 0 0 0 .6-.8s-.4 0-1 .2a5.3 5.3 0 0 0-.7-.6 6.6 6.6 0 0 0 1.5-.8s-.1 0-.6 0a2.7 2.7 0 0 0 1-.5s-.5 0-1-.1a2.8 2.8 0 0 0 .6-.4l.4.3a2.2 2.2 0 0 1-.2-.7 5.2 5.2 0 0 0 .6.4 5 5 0 0 0 0-.5 5.1 5.1 0 0 0 1 .6 1.7 1.7 0 0 1-.2-.6 4.6 4.6 0 0 0 1.4.6 4.2 4.2 0 0 0-.5-1 4.8 4.8 0 0 0 .6 0l-.7-.8a3 3 0 0 0 .3 0s-.3-.3-.7-.7a2.4 2.4 0 0 0 .7 0 6 6 0 0 0 .9.3 6.4 6.4 0 0 0-.8-1.5 6.5 6.5 0 0 0 1.5-.4s0 0-.5-.2a2.7 2.7 0 0 0 1-.2s-.4-.2-1-.4a7 7 0 0 0-.4-1 1.8 1.8 0 0 0 0-.2 5.1 5.1 0 0 0 .7-.1 4.8 4.8 0 0 0-.7-.6 2.9 2.9 0 0 0 .8-.2s-.2-.1-.7-.3v-.4a1.7 1.7 0 0 0 .3 0c.8.5 2.6-.4 2.6-.4a6.4 6.4 0 0 0-1.6-.5 6.6 6.6 0 0 0 .8-1.3l-.5.2a2.7 2.7 0 0 0 .6-.9s-.4.2-1 .4a2.7 2.7 0 0 0 .4-.6h.5a2.3 2.3 0 0 1-.5-.5 5.1 5.1 0 0 0 .7 0l-.3-.4a5.4 5.4 0 0 0 1.3 0 1.8 1.8 0 0 1-.5-.4 4.6 4.6 0 0 0 1.4-.2 4.7 4.7 0 0 0-.8-.6c.7-.3.8-1.5.8-1.5l-.8.6a2.8 2.8 0 0 0 .2-.7l.4-.1-1-.5.2-.3a5.6 5.6 0 0 0 .7-.1 1.7 1.7 0 0 1-.5-.4l.1-.4-.5.2-.2-.1a1.7 1.7 0 0 0-.2-.1 5.3 5.3 0 0 0 .7-.6 4.5 4.5 0 0 0-1-.1 2.8 2.8 0 0 0 .6-.6s-.3 0-.7 0l-.4-.2a5.3 5.3 0 0 0 .8-.4 4.6 4.6 0 0 0-.9-.4 2.9 2.9 0 0 0 .8-.4s-.3 0-.7-.1a5.2 5.2 0 0 0 1.2-.5c-.5 0-.5-.2-1.3-.4a2 2 0 0 0-.2 0 5.2 5.2 0 0 0 .4-.7 4.3 4.3 0 0 0-.9.2 2.9 2.9 0 0 0 .4-.8s-.3.1-.7.3l-.3-.1c.7-1.2-.3-3.2-.3-3.2l-.1.5a2.7 2.7 0 0 0-.3-1s-.1.4-.3 1a2.8 2.8 0 0 0-.3-.7l.3-.4a2.3 2.3 0 0 1-.7.1 5.4 5.4 0 0 0 .6-.5 5 5 0 0 0-.5-.1 5.3 5.3 0 0 0 .7-1 1.7 1.7 0 0 1-.6.2 4.6 4.6 0 0 0 .8-1.2 4.4 4.4 0 0 0-1 .1 6 6 0 0 0 .6-.5 6.3 6.3 0 0 0-1.8.1 6.5 6.5 0 0 0 .4-1.5l-.5.4a2.7 2.7 0 0 0 .2-1s-.2.2-.7.6a7 7 0 0 0-1 0 1.3 1.3 0 0 0-.2.1 5.2 5.2 0 0 0 .1-.8 4.7 4.7 0 0 0-.8.4 2.8 2.8 0 0 0 .1-.8s-.2.2-.5.5h-.4a1.5 1.5 0 0 0 0-.4c1-.6.9-2.6.9-2.6a6.4 6.4 0 0 0-1.2 1.3 6.5 6.5 0 0 0-.9-1.3s0 0 0 .6a2.7 2.7 0 0 0-.5-.9s0 .4 0 1a2.9 2.9 0 0 0-.6-.7s0 .5 0 1.2a1 1 0 0 0 0 .2 2 2 0 0 0-.4-.4l.1-.4a1.5 1.5 0 0 1-.2.2l-.2-.2v.3a3.6 3.6 0 0 0-.3.2 4.5 4.5 0 0 0 .2-1.4 4 4 0 0 0-1 .7l-.1-.1c0-.2.2-.3.2-.3a1.3 1.3 0 0 1-.4 0l-.2-.1v.2a4 4 0 0 0-.7 0 5.2 5.2 0 0 0 .3-.5 3.4 3.4 0 0 0-1.5.6 6 6 0 0 0-.5-1 6.4 6.4 0 0 0-.3 1.6 6.6 6.6 0 0 0-1.5-.6s0 0 .3.4a2.6 2.6 0 0 0-1-.4s.3.3.6.9a6.8 6.8 0 0 0-.3 1 1.4 1.4 0 0 0 0 .2 5.3 5.3 0 0 0-.8-.4 3.7 3.7 0 0 0 .5 1.3l-.3.4a5.2 5.2 0 0 0 0-.6 5.2 5.2 0 0 0-.4.4 5.3 5.3 0 0 0-.4-1.2 1.8 1.8 0 0 1-.2.6 4.6 4.6 0 0 0-.6-1.3 4.9 4.9 0 0 0-.2.4 5.6 5.6 0 0 0-.5-.2 2 2 0 0 0 .2-.2 8.6 8.6 0 0 0 .8-1h1.2a3.2 3.2 0 0 0-1-.7h.6a7.8 7.8 0 0 0-1.7-1 7.7 7.7 0 0 0 1.5-1.5 7 7 0 0 0-1.4.2 4 4 0 0 0-.4-1.8 6.2 6.2 0 0 0-.4.6 4.9 4.9 0 0 0-.4-.7h.2a3.2 3.2 0 0 0-.3-.2 1.7 1.7 0 0 1-.2-.4s0 .1-.1.4a2.4 2.4 0 0 0-.3 0 4.8 4.8 0 0 0 .1-1.5 5.5 5.5 0 0 0-1.3 1.2 2.1 2.1 0 0 1 0-.8 6.4 6.4 0 0 0-.9 1.1l-.2-.6a6 6 0 0 0-.5.8 2.6 2.6 0 0 1 0-.8s-.2.1-.4.4a3.4 3.4 0 0 0-.8-.1l1-.6a3.2 3.2 0 0 0-1.3-.1l.6-.3a7.8 7.8 0 0 0-1.9-.3 7.6 7.6 0 0 0 .7-1.9s-2.2 1-2.2 2.3a2 2 0 0 0-.4.2l-.2-.3.2-.9a3.4 3.4 0 0 0-.8.6 5.6 5.6 0 0 0 0-1.1 6.1 6.1 0 0 0-.8.6 2 2 0 0 0 0-.2 9 9 0 0 0-.6-1.1l.3-1.2a3.2 3.2 0 0 0-1 .8l.2-.6a7.8 7.8 0 0 0-1.5 1.1 7.5 7.5 0 0 0-.8-1.8 7 7 0 0 0-.3 1 3 3 0 0 0-.6.6l-.1-1.1a3 3 0 0 0-.3.3 8.2 8.2 0 0 1-.1-1.3 6.2 6.2 0 0 0-.5.6 5 5 0 0 0-.6-1.2 5.5 5.5 0 0 0-.5 1.7 2 2 0 0 1-.3-.7 6.4 6.4 0 0 0-.3 1.5 6.3 6.3 0 0 0-.5-.4 6 6 0 0 0 0 .9 5.5 5.5 0 0 1-.4-.5 4.2 4.2 0 0 0 .4-1.8 6.3 6.3 0 0 0-.9.6 2.1 2.1 0 0 0 0-.3 8.5 8.5 0 0 0-.5-1.1l.5-1.2a3.3 3.3 0 0 0-1.1.7l.3-.6a8 8 0 0 0-1.6 1 7.7 7.7 0 0 0-.7-2 7.2 7.2 0 0 0-.5 1.4 4 4 0 0 0-1.8-.5 6.5 6.5 0 0 0 .4.7 4.3 4.3 0 0 0-.8 0V.7a2.7 2.7 0 0 0-.2.2 1.6 1.6 0 0 1-.5 0s.1.1.3.3l-.1.2a4.8 4.8 0 0 0-1.3-.8 5.5 5.5 0 0 0 .5 1.7 4.1 4.1 0 0 0-.5-.2V2a2.9 2.9 0 0 0-.2.2 1.6 1.6 0 0 1-.3-.2l.1.5a2.6 2.6 0 0 0-.3.6 1.2 1.2 0 0 0 0-.3l-.3-1.4a3.5 3.5 0 0 0-.5.8l-.2-1a3.2 3.2 0 0 0-.5 1l-.1-.7a7.8 7.8 0 0 0-.9 1.8 7.6 7.6 0 0 0-1.5-1.4s.1 2.4 1.3 3a1.7 1.7 0 0 0 .1.3l-.4.1-.7-.5a3.4 3.4 0 0 0 .2 1 5.5 5.5 0 0 0-1-.4 6.1 6.1 0 0 0 .3 1 1.8 1.8 0 0 0-.2 0 8.7 8.7 0 0 0-1.3 0l-1-.6a3.2 3.2 0 0 0 .4 1.1 11 11 0 0 1-.5-.4 7.8 7.8 0 0 0 .6 1.8 5.4 5.4 0 0 0-.7 0v-1a3.3 3.3 0 0 0-.7 1v-.6a7.5 7.5 0 0 0-.5.7h-.2l.1.2a7.2 7.2 0 0 0-.4.8A7.6 7.6 0 0 0 66.4 8a7.2 7.2 0 0 0 .2 1 3 3 0 0 0-.4.8l-.5-1a3.1 3.1 0 0 0-.1.4L64.9 8a6.6 6.6 0 0 0-.1.7 5 5 0 0 0-1.1-.9 5.6 5.6 0 0 0 .2 1.7 2.2 2.2 0 0 1-.6-.4 7 7 0 0 0 .2 1l-.1.3H63l.2.4-.3.5a7.6 7.6 0 0 0-1.4-1.5s0 2.4 1 3a1.8 1.8 0 0 0 .2.4h-.5a20 20 0 0 1-.6-.5 3.4 3.4 0 0 0 .2 1 5.6 5.6 0 0 0-1-.5 6.2 6.2 0 0 0 .2 1 2.1 2.1 0 0 0-.2 0l-.2-.2v.2h-.3V14h-.4l.2-.1a2.3 2.3 0 0 0-.7.1l-.8-.6a3.5 3.5 0 0 0 .2.8 1 1 0 0 1-.3-.2s0 .1 0 .2v-.5a2.1 2.1 0 0 0-.5.6V14a5.1 5.1 0 0 0-.8 1 5 5 0 0 0-.8-1.2 4.6 4.6 0 0 0 0 .8 1.9 1.9 0 0 0-.4.4l-.1-.7a2.1 2.1 0 0 0-.2.2 5.5 5.5 0 0 1-.2-.8s-.1.2-.3.4a3.3 3.3 0 0 0-.5-.6 3.6 3.6 0 0 0-.1 1.1 1.4 1.4 0 0 1-.3-.4 4.2 4.2 0 0 0 0 1 3.6 3.6 0 0 0-.4-.2 4 4 0 0 0 .1.6l-.1-.1v-.2l-.1.1a1 1 0 0 1-.2-.2s0 .1 0 .3a2 2 0 0 0-.2.1l.3-.7a2.1 2.1 0 0 0-.7.4l.2-.4a5 5 0 0 0-1.1.6 5 5 0 0 0-.3-1.3s-.9 1.3-.4 2a1.2 1.2 0 0 0-.1.3l-.3-.1-.2-.6a2.3 2.3 0 0 0-.2.7 3.5 3.5 0 0 0-.4-.6 4 4 0 0 0-.2.6 1.3 1.3 0 0 0-.1-.1 5.6 5.6 0 0 0-.7-.4l-.3-.8a2.1 2.1 0 0 0-.3.8v-.4a5.2 5.2 0 0 0-.4 1.1 4.9 4.9 0 0 0-1.1-.9 4.6 4.6 0 0 0 .2 1 2 2 0 0 0-.8 0 2.3 2.3 0 0 0-.2 0 2 2 0 0 0-.2 0 1 1 0 0 1-.3 0s0 .1.2.2l-.1.2a3.1 3.1 0 0 0-.9-.5 3.6 3.6 0 0 0 .3 1 1.4 1.4 0 0 1-.4-.2 4.6 4.6 0 0 0 .2.7 3.6 3.6 0 0 0-.6-.1 4 4 0 0 0 .3.5 1.7 1.7 0 0 1-.5-.2v.3a2.1 2.1 0 0 0-.2.4v-.7s-.7.6-.6 1.1a2 2 0 0 1-.6 0s0 0 .2.2a3.8 3.8 0 0 0-.5-.2 4 4 0 0 0 .2.6 1.1 1.1 0 0 0-.2 0 5.5 5.5 0 0 0-.8 0l-.6-.5a2.1 2.1 0 0 0 .2.8l-.3-.3a5.2 5.2 0 0 0 .3 1.2 5 5 0 0 0-1.4 0 4.8 4.8 0 0 0 .7.6 2.1 2.1 0 0 0-.5.5 2.4 2.4 0 0 0-.2.2l-.1-.1a1.6 1.6 0 0 0 0 .2 1.1 1.1 0 0 1-.3.1s.1 0 .3.1v.2a3.2 3.2 0 0 0-1 0 4.3 4.3 0 0 0 .4.4 1.9 1.9 0 0 1-.6-.1 4.7 4.7 0 0 0 .4.6 3.5 3.5 0 0 0-.6 0 4 4 0 0 0 .4.5 1.8 1.8 0 0 1-.6-.1s.1.1.3.3a2.2 2.2 0 0 0-.2.5l-.3-.7s-.4.8-.1 1.2a2 2 0 0 1-.6.2 4.7 4.7 0 0 0 .5.3 1.1 1.1 0 0 1-.1 0l-.7-.5a2.2 2.2 0 0 0 .2.7l-.3-.2a5.2 5.2 0 0 0 .5 1.1 5 5 0 0 0-1.4.3 4.5 4.5 0 0 0 .7.3 2 2 0 0 0 .2.5l-.7-.1a2 2 0 0 0 .2.2 5.3 5.3 0 0 1-.9-.1 4.4 4.4 0 0 0 .3.4 3.2 3.2 0 0 0-.9.2 3.7 3.7 0 0 0 1 .6 1.4 1.4 0 0 1-.4 0 4.3 4.3 0 0 0 .8.5l-.2.2-.3-.1a3.7 3.7 0 0 0 0 .3 2.4 2.4 0 0 0 0 .6v-.2a1.5 1.5 0 0 0-.1.1 1 1 0 0 1-.2-.1s0 0 0 .2a1.6 1.6 0 0 0-.1.4.8.8 0 0 0 0-.1l-.2-1a2.1 2.1 0 0 0-.3.6l-.1-.7a2 2 0 0 0-.4.7v-.4a4.8 4.8 0 0 0-.6 1 4.8 4.8 0 0 0-1-.8s.2 1.5 1 1.8a1 1 0 0 0 0 .3h-.3l-.4-.3a2.1 2.1 0 0 0 .1.6 3.4 3.4 0 0 0-.6-.2 3.8 3.8 0 0 0 .2.6h-.2a6 6 0 0 0-.7 0l-.6-.4a2 2 0 0 0 .2.7l-.3-.2a4.8 4.8 0 0 0 .3 1.1 3.1 3.1 0 0 0-.4 0v-.6a2 2 0 0 0-.4.6v-.4a4.4 4.4 0 0 0-.4.5 4 4 0 0 0-.2.6 4.9 4.9 0 0 0-1-1 4.3 4.3 0 0 0 .1.8 1.8 1.8 0 0 0-.2.4l-.3-.6a1.8 1.8 0 0 0-.1.3l-.4-.8a4.1 4.1 0 0 0-.1.5 3.1 3.1 0 0 0-.7-.6 3.4 3.4 0 0 0 .2 1.1 1.3 1.3 0 0 1-.4-.3 4.2 4.2 0 0 0 .1.7v.2H27v.5a4.8 4.8 0 0 0-1-1s0 1.6.7 2a1 1 0 0 0 0 .2h-.2l-.4-.3a2.1 2.1 0 0 0 .1.6 3.6 3.6 0 0 0-.6-.3 4 4 0 0 0 .2.6 1.4 1.4 0 0 0-.2 0 5.6 5.6 0 0 0-.8 0l-.6-.4a2 2 0 0 0 .2.7l-.3-.3a4.9 4.9 0 0 0 .3 1.2 4.9 4.9 0 0 0-1.3 0 4.3 4.3 0 0 0 .7.5 2.5 2.5 0 0 0-.7 1 3.5 3.5 0 0 0 .5-.1 3 3 0 0 0-.2.4h-.1v.2a1 1 0 0 1 0 .3s0 0 .2-.2a1.5 1.5 0 0 0 .1.2 2.9 2.9 0 0 0-.7.6 3.4 3.4 0 0 0 1 0 1.3 1.3 0 0 1-.3.3 4 4 0 0 0 1 0 4 4 0 0 0-.2.4 3.8 3.8 0 0 0 .5-.2 1.8 1.8 0 0 1-.3.4s.1 0 .3 0a2.2 2.2 0 0 0 .3.4c-.4 0-.7-.2-.7-.2a2 2 0 0 0 .5.7l-.4-.2a4.9 4.9 0 0 0 .7 1 4.6 4.6 0 0 0-1.2.5s1.4.5 2 0a1.2 1.2 0 0 0 .3 0v.3l-.6.3a2.2 2.2 0 0 0 .7.1 3.4 3.4 0 0 0-.5.5 3.8 3.8 0 0 0 .6 0 1.5 1.5 0 0 0 0 .2 5.1 5.1 0 0 0-.4.7l-.6.4a2 2 0 0 0 .8 0l-.4.3a4.8 4.8 0 0 0 1.1.1 4.7 4.7 0 0 0-.4 1.2 4.2 4.2 0 0 0 .7-.4 1.8 1.8 0 0 0 .5.2l-.2.2a2 2 0 0 0 .7 0 1 1 0 0 1-.3.2 4.3 4.3 0 0 0 .8 0 3.8 3.8 0 0 0-.2.5 3.5 3.5 0 0 0 1-.3 1.3 1.3 0 0 1-.2.4 4 4 0 0 0 .8-.4v.4a3.7 3.7 0 0 0 .4-.2l-.1.3a2.8 2.8 0 0 0-1 .4 3.6 3.6 0 0 0 .6.2 1.3 1.3 0 0 0 0 .1 5.6 5.6 0 0 0-.5.7c-.4 0-.7.2-.7.2a2 2 0 0 0 .7.3h-.4a5 5 0 0 0 1 .5 4.6 4.6 0 0 0-.7 1 4.3 4.3 0 0 0 .8-.2 2.5 2.5 0 0 0 .4 1 3.8 3.8 0 0 0 .3-.3 2.8 2.8 0 0 0 .2.4s0 0 .1 0a1 1 0 0 1 .2.3v-.2h.2a3 3 0 0 0 0 .9 3.4 3.4 0 0 0 .7-.9v.4a3.2 3.2 0 0 0 .2.5 2.2 2.2 0 0 0-.6-.2s0 .2.3.5l-.1.2c-1-.4-2.4.5-2.4.5h.5a2 2 0 0 0-.7.4s.2 0 .6.2a2 2 0 0 0-.4.2 3.4 3.4 0 0 0-.3-.2 1.7 1.7 0 0 1 .1.5 4 4 0 0 0-.4-.4 3.7 3.7 0 0 0 0 .4 4 4 0 0 0-.8-.4 1.3 1.3 0 0 1 .1.4 3.5 3.5 0 0 0-1-.5 3 3 0 0 0 .4 1 4 4 0 0 0-.6-.1l.6.7a1.3 1.3 0 0 0 .1.1 4 4 0 0 0-.6.3 3.4 3.4 0 0 0 .7.3 2.2 2.2 0 0 0-.6.3s.2 0 .6 0l.1.3a1.2 1.2 0 0 0-.2.1c-.8-.3-2 .7-2 .7a4.7 4.7 0 0 0 1.4.1 5 5 0 0 0-.4 1.2s0 0 .3-.3a2 2 0 0 0-.2.7l.5-.4a2.2 2.2 0 0 0-.1.5 4 4 0 0 0-.3.1l.7.4a3.6 3.6 0 0 0-1 .3 3.2 3.2 0 0 0 .8.4 4.3 4.3 0 0 0-.4.3 3.3 3.3 0 0 1 .8 0 2.1 2.1 0 0 0-.6.4s.2 0 .6 0a2.1 2.1 0 0 0-.3.4 3.7 3.7 0 0 0-.5.2 5.6 5.6 0 0 0 .9.4 5.1 5.1 0 0 0-.4.5s0 0 .5-.2a2.3 2.3 0 0 0-.2.5s0 0 .3-.1v.2a3.7 3.7 0 0 0-1.4.4 4.7 4.7 0 0 0 1.3.4 5 5 0 0 0-.6 1s0 0 .3-.2a2 2 0 0 0-.4.7s.3-.1.7-.3a5 5 0 0 0 .8.2 1 1 0 0 0 .1 0 3.8 3.8 0 0 0-.3.6 3.4 3.4 0 0 0 .7-.1 2.1 2.1 0 0 0-.3.6s.2-.1.5-.2h.3a1.1 1.1 0 0 0-.1.3c-.8.2-1.3 1.6-1.3 1.6a4.9 4.9 0 0 0 1.2-.6 5 5 0 0 0 .3 1.2s0 0 .1-.5a2 2 0 0 0 .2.8s.1-.3.3-.6a2.2 2.2 0 0 0 .2.5s0-.3.3-.8a.9.9 0 0 0 0-.2 1.7 1.7 0 0 0 .2.5l-.1.2a1 1 0 0 1 .2 0l.1-.1a2.3 2.3 0 0 0 .3 0 3.5 3.5 0 0 0-.5.9 3 3 0 0 0 .9-.3v.2l-.2.1a1.1 1.1 0 0 1 .3 0l.1.2v-.1a3 3 0 0 0 .5 0 3.7 3.7 0 0 0-.3.4 2.6 2.6 0 0 0 1.2 0 4.4 4.4 0 0 0 .1.8 4.8 4.8 0 0 0 .7-1 5 5 0 0 0 .8.8s0 0 0-.5a2 2 0 0 0 .5.6s0-.3-.1-.8a5.9 5.9 0 0 0 .4-.6v-.2a4.2 4.2 0 0 0 .5.5 2.8 2.8 0 0 0 0-1 3.2 3.2 0 0 0 .5-.5 3.8 3.8 0 0 0 .3.7 4 4 0 0 0 .2-.3 4 4 0 0 0 .4.8 1.3 1.3 0 0 1 .1-.5 3.4 3.4 0 0 0 .6.9 3.4 3.4 0 0 0 .2-.6 4.2 4.2 0 0 0 .6.5 1.1 1.1 0 0 1 0-.4 2.1 2.1 0 0 0 .5.5s0-.1 0-.3a2 2 0 0 0 .7.2s-.1-.1-.3-.3a2.2 2.2 0 0 0 .5.1 4.4 4.4 0 0 0 .3.5 6.4 6.4 0 0 0 0-.7 5 5 0 0 0 1 .4s0 0-.1-.2l.1.1a2.2 2.2 0 0 0 .2.2 6.8 6.8 0 0 0-1 .6 5.9 5.9 0 0 0 1.3.4 3.7 3.7 0 0 0-1 .6s.4 0 1 .1l.3.4a2.1 2.1 0 0 0-.4.2c-1.4-.4-3.3 1.5-3.3 1.5a8.3 8.3 0 0 0 2.3 0l-.2.6a6 6 0 0 0-.4.2l.3.2v.3a7.3 7.3 0 0 0-1 .7l1.6.2a3.6 3.6 0 0 0-.7 1.1s.4-.2 1.1-.4a3.8 3.8 0 0 0-.5 1s.6-.3 1.5-.6a3.6 3.6 0 0 0-.6 1.2s.5-.3 1.3-.7a7.3 7.3 0 0 0 .2 1.2v-.1a3.8 3.8 0 0 0 .2.4.8.8 0 0 0-.1 0 5.5 5.5 0 0 0-.8 0l-.6-.5a2 2 0 0 0 .2.8l-.3-.3a5 5 0 0 0 .3 1.2 5 5 0 0 0-1.3 0 4.3 4.3 0 0 0 .7.5 2.5 2.5 0 0 0-.7 1 3.8 3.8 0 0 0 .5-.1 3.4 3.4 0 0 0-.2.4h-.1v.2a1 1 0 0 1 0 .2s0 0 .2 0a3 3 0 0 0-.6.7 3.4 3.4 0 0 0 1 0 1.3 1.3 0 0 1-.3.3 3.9 3.9 0 0 0 .9 0l-.2.3a4.1 4.1 0 0 0 .6 0 1.7 1.7 0 0 1-.4.3s.2 0 .4 0a2.1 2.1 0 0 0 .3.4l-.7-.2a2 2 0 0 0 .5.6 6 6 0 0 1-.4-.1 5 5 0 0 0 .7 1 4.8 4.8 0 0 0-1.2.4s1.4.6 2 .1a1.1 1.1 0 0 0 .3 0l-.1.3-.5.3a2.1 2.1 0 0 0 .6 0 3.7 3.7 0 0 0-.5.6 3.6 3.6 0 0 0 .6 0 1.2 1.2 0 0 0 0 .2 5.4 5.4 0 0 0-.3.7l-.7.4a2 2 0 0 0 .8 0l-.4.3a4.9 4.9 0 0 0 1.2.1 4.8 4.8 0 0 0-.5 1.2 4.3 4.3 0 0 0 .7-.4 1.8 1.8 0 0 0 .6.1l-.3.3a2 2 0 0 0 .7 0 1 1 0 0 1-.2.2 4.2 4.2 0 0 0 .8 0 3.7 3.7 0 0 0-.3.5 3.5 3.5 0 0 0 1-.4 1.3 1.3 0 0 1-.1.5 3.9 3.9 0 0 0 .8-.4v.4a3.9 3.9 0 0 0 .3-.3v.3a2.8 2.8 0 0 0-1 .5 3.8 3.8 0 0 0 .6.2 1.3 1.3 0 0 0-.1.1 5.3 5.3 0 0 0-.5.7l-.7.1a2 2 0 0 0 .7.3l-.4.1a5 5 0 0 0 1.1.5 4.7 4.7 0 0 0-.7 1 4.2 4.2 0 0 0 .8-.2 2.5 2.5 0 0 0 .4 1 3.5 3.5 0 0 0 .2-.4 2.7 2.7 0 0 0 .3.4l-.1.1h.2a1 1 0 0 1 .1.3v-.2a1.3 1.3 0 0 0 .2 0 3 3 0 0 0 .1.9 3.3 3.3 0 0 0 .7-.9 3 3 0 0 0 0 .3l-.1.1h.2a1 1 0 0 1 0 .3 2.3 2.3 0 0 0 .1-.2 1.5 1.5 0 0 0 .5 0 1 1 0 0 0-.1 0l-.7.7a2.3 2.3 0 0 0 .6 0l-.5.4a2 2 0 0 0 .8-.1l-.3.3a4.7 4.7 0 0 0 1.2-.2 4.7 4.7 0 0 0-.2 1.3s1.2-1 1-1.7a1.2 1.2 0 0 0 .2-.2l.2.1v.6a2.1 2.1 0 0 0 .4-.5 3.4 3.4 0 0 0 .2.7 3.9 3.9 0 0 0 .3-.5 1.3 1.3 0 0 0 .1.1 5.4 5.4 0 0 0 .5.6v.7a2 2 0 0 0 .5-.6v.4a4.8 4.8 0 0 0 .7-1 4.8 4.8 0 0 0 .8 1 4.3 4.3 0 0 0 0-.5 3.4 3.4 0 0 0 .4.7 3.4 3.4 0 0 0 .3-1 1.3 1.3 0 0 1 .2.3 4 4 0 0 0 .1-.9 3.8 3.8 0 0 0 .3.3 3.9 3.9 0 0 0 0-.6 1.7 1.7 0 0 1 .4.4s0-.1 0-.3a2.2 2.2 0 0 0 .5-.2l-.4.6a2 2 0 0 0 .7-.4l-.2.4s1.6-.5 1.9-1.4h.2l.2.6a2.1 2.1 0 0 0 .2-.6 3.4 3.4 0 0 0 .4.6 3.9 3.9 0 0 0 .2-.6 1 1 0 0 0 .1.1l.8.5a3.9 3.9 0 0 0-.3-.9l.4.3a2 2 0 0 0-.1-.6 3.6 3.6 0 0 0 .6.3 3.8 3.8 0 0 0-.1-.6h.3l.3.5a2 2 0 0 0 0-.7 3.6 3.6 0 0 0 .6.5 3.7 3.7 0 0 0 0-.6 1 1 0 0 0 .1 0h.2l.1.5.2-.4a1.3 1.3 0 0 1 .5.2 4.2 4.2 0 0 0-.3-.5v-.2c.5.2.6.1.8.3l-.1-.3a2 2 0 0 0 .3-.5v.7s.7-.6.4-1.1a3.2 3.2 0 0 0 .8.1 3.5 3.5 0 0 0-.6-.9 1.3 1.3 0 0 1 .4.1 4 4 0 0 0-.6-.7 3.2 3.2 0 0 0 .4 0 3.8 3.8 0 0 0-.4-.4 1.6 1.6 0 0 1 .5 0s0-.1-.2-.3a2 2 0 0 0 .2-.4l.2.6a2 2 0 0 0 .2-.7l.1.4a5 5 0 0 0 .4-1.2 4.8 4.8 0 0 0 1 .7s-.3-1.5-1-1.7a1.2 1.2 0 0 0-.2-.2h.2l.5.1a2.2 2.2 0 0 0-.3-.5 3.1 3.1 0 0 0 .7 0 4 4 0 0 0-.3-.5 1.4 1.4 0 0 0 .2 0 5.5 5.5 0 0 0 .7-.2l.7.3a2 2 0 0 0-.4-.7l.4.2a5 5 0 0 0-.6-1 4.7 4.7 0 0 0 1.3-.4 4.3 4.3 0 0 0-.7-.3 1.9 1.9 0 0 0-.2-.4h.6a2 2 0 0 0-.1-.1 4.8 4.8 0 0 1 .8 0 3.8 3.8 0 0 0-.3-.3 3.1 3.1 0 0 0 .8-.3 3.4 3.4 0 0 0-1-.4 1.4 1.4 0 0 1 .4-.2 4 4 0 0 0-.8-.3l.3-.3a4 4 0 0 0-.6 0 1.6 1.6 0 0 1 .5-.3s-.2 0-.3-.1a2 2 0 0 0-.2-.5l.6.4a2 2 0 0 0-.2-.7l.3.3a5 5 0 0 0-.3-1.2 4.8 4.8 0 0 0 1.3 0s-1.1-1-1.9-.8a1 1 0 0 0-.2-.2l.1-.2h.6a2 2 0 0 0-.6-.4 3.5 3.5 0 0 0 .7-.2 3.8 3.8 0 0 0-.6-.3 1.2 1.2 0 0 0 .2-.1 6.2 6.2 0 0 0 .5-.6h.7a2 2 0 0 0-.7-.5h.5a5 5 0 0 0-1-.6 4.6 4.6 0 0 0 .8-1 4.4 4.4 0 0 0-.8.2 2.5 2.5 0 0 0-.3-1.1 3.7 3.7 0 0 0-.2.4 2.9 2.9 0 0 0-.3-.5h.2a2 2 0 0 0-.2-.1 1 1 0 0 1-.1-.3s0 .1-.1.3a1.2 1.2 0 0 0-.2 0 3 3 0 0 0 0-1 3.4 3.4 0 0 0-.7.8 1.3 1.3 0 0 1 0-.5 4 4 0 0 0-.6.7l-.1-.4a4 4 0 0 0-.4.5 1.7 1.7 0 0 1 0-.5 3.5 3.5 0 0 0-.2.2 2 2 0 0 0-.5 0l.6-.4a2 2 0 0 0-.8 0l.4-.3a4.8 4.8 0 0 0-1.2 0 4.6 4.6 0 0 0 .5-1.3s-1.4.6-1.4 1.4a1.1 1.1 0 0 0-.3.2l-.1-.3.1-.5a2.1 2.1 0 0 0-.5.4 3.5 3.5 0 0 0 0-.7 3.7 3.7 0 0 0-.5.4 1 1 0 0 0 0-.1 5.6 5.6 0 0 0-.3-.7l.1-.8a2 2 0 0 0-.6.5l.2-.4a5 5 0 0 0-1 .8 4.8 4.8 0 0 0-.5-1.2 4.3 4.3 0 0 0-.2.7 1.8 1.8 0 0 0-.4.3v-.7a2 2 0 0 0-.2.2 5 5 0 0 1 0-.8h-.1a5.6 5.6 0 0 0 .1-.7 2.2 2.2 0 0 0 0-.3 6.8 6.8 0 0 0 1 .5 6 6 0 0 0-.3-1.2 3.7 3.7 0 0 0 1.1.4s-.2-.3-.5-.8l.2-.5a2 2 0 0 0 .4.2c.4 1.3 3 1.8 3 1.8a8.4 8.4 0 0 0-1.3-1.9 8.7 8.7 0 0 0 2-.7s0 0-.7-.2a3.5 3.5 0 0 0 1.3-.4s-.5-.2-1.2-.4a3.8 3.8 0 0 0 1-.4s-.7-.2-1.6-.5a1.4 1.4 0 0 0-.3 0 2.8 2.8 0 0 0 .8-.3l.4.2a1.9 1.9 0 0 1-.2-.4l.3-.2h-.3a4.7 4.7 0 0 0-.2-.6 6 6 0 0 0 1.8.8A5.3 5.3 0 0 0 68 68a2.8 2.8 0 0 0 .3-.1l.3.3a1.9 1.9 0 0 1 0-.3l1.1-.5a3.8 3.8 0 0 0-.5 1s.6-.3 1.5-.6A3.6 3.6 0 0 0 70 69s.5-.3 1.3-.7a7.4 7.4 0 0 0 .2 1.3 2.5 2.5 0 0 1 .4-.8 3.9 3.9 0 0 0 .2 1s.2-.3.5-.8a8.9 8.9 0 0 0 .6 1.6s0-.1.2-.7a3.6 3.6 0 0 0 .4 1.3s.1-.5.4-1.2a3.9 3.9 0 0 0 .3 1s.1-.1.2-.4a6.9 6.9 0 0 0 3 1.9s0 0-.4-.7a3.5 3.5 0 0 0 1.3.6s-.3-.4-.7-1.1a9.2 9.2 0 0 0 .3-1.4 2.2 2.2 0 0 0 0-.3 6.8 6.8 0 0 0 1 .5A6 6 0 0 0 79 69a3.8 3.8 0 0 0 1.1.5s-.2-.4-.5-.9l.1-.4a2 2 0 0 0 .5.1c.4 1.4 3 1.9 3 1.9a10.7 10.7 0 0 0-.6-1.2 8 8 0 0 0 1.8 0l-.2.5-.5.3c.2 0 .3 0 .4.2v.3a7.6 7.6 0 0 0-1 .7l1.5.2a3.6 3.6 0 0 0-.7 1.1s.5-.2 1.2-.4a3.8 3.8 0 0 0-.6.9s.7-.3 1.6-.6a3.6 3.6 0 0 0-.6 1.3s.5-.3 1.3-.7a7.4 7.4 0 0 0 .2 1.2 2.5 2.5 0 0 1 .4-.7 3.9 3.9 0 0 0 .2 1s.2-.4.5-.9a8.9 8.9 0 0 0 .5 1.6s0 0 .3-.7a3.6 3.6 0 0 0 .4 1.3s.1-.5.4-1.1a3.8 3.8 0 0 0 .3 1s0-.2.2-.4a4.6 4.6 0 0 0 1.4 1.1 2.9 2.9 0 0 0-1-.1s.4.3.7.7a7 7 0 0 0 0 1 1.3 1.3 0 0 0 .1.3 4.8 4.8 0 0 0-.8-.2 4.5 4.5 0 0 0 .4.8 2.8 2.8 0 0 0-.8-.1s.2.2.5.5v.4a1.8 1.8 0 0 0-.4 0c-.6-1-2.6-.9-2.6-.9a6.3 6.3 0 0 0 1.3 1.2 6.6 6.6 0 0 0-1.3.9s0 0 .6 0a2.6 2.6 0 0 0-.9.6s.4 0 1 0a2.9 2.9 0 0 0-.7.5s.5 0 1.2 0a1 1 0 0 0 .3 0 2 2 0 0 0-.5.4h-.4a1.6 1.6 0 0 1 .2.1l-.2.2h.3a3.5 3.5 0 0 0 .2.4 4.5 4.5 0 0 0-1.4-.3 4 4 0 0 0 .7 1l-.1.2-.3-.2a1.4 1.4 0 0 1 0 .4l-.1.2h.2a3.9 3.9 0 0 0 0 .6 5 5 0 0 0-.5-.3 5 5 0 0 0 .1.6 6.1 6.1 0 0 0-.8.2 6 6 0 0 0-.6-1.9 6.1 6.1 0 0 0-.5 1 6.7 6.7 0 0 0-.5-1.8 3.3 3.3 0 0 1-.4.9 5.4 5.4 0 0 0-1.3-1.9 5.4 5.4 0 0 0-.1 1.6 5 5 0 0 0-.6-.5 6.8 6.8 0 0 0-.3-.8l-.3.4h-.3a2 2 0 0 1 .2.2 4.2 4.2 0 0 0-.4.8 4 4 0 0 0-1-.4s.2.3.5.8a8.7 8.7 0 0 0-1.5-1s0 .1.6 1.6a3.7 3.7 0 0 0-.9-.4l-.3-.4-.2.7a7 7 0 0 0-1.1-1.2 2.4 2.4 0 0 1 0 .8 6 6 0 0 0-1.4-1.3 5.3 5.3 0 0 0 .1 1.7h-.2l-.2-.4a1.8 1.8 0 0 1-.2.5 3.4 3.4 0 0 0-.3 0l.2.2a5.2 5.2 0 0 0-.4.8 6.5 6.5 0 0 0-.4-.7 4.5 4.5 0 0 0-.4 2 7.9 7.9 0 0 0-1.6-.2 8.4 8.4 0 0 0 1.7 1.6 8.7 8.7 0 0 0-1.9 1.1s.1 0 .8 0a3.6 3.6 0 0 0-1.2.8s.6 0 1.4.1a10.1 10.1 0 0 0 .9 1 1.8 1.8 0 0 0 .2.2 7 7 0 0 0-1 .5 6 6 0 0 0 1.2.4 3.8 3.8 0 0 0-1 .7s.4 0 1 0l.3.4a2 2 0 0 0-.3.3c-1.4-.4-3.3 1.5-3.3 1.5a8.4 8.4 0 0 0 2.3 0l-.2.5-.5.2.4.2v.4a7.6 7.6 0 0 0-1 .7l1.5.2a3.7 3.7 0 0 0-.7 1s.5-.1 1.2-.4a3.8 3.8 0 0 0-.5 1s.6-.3 1.5-.6a3.6 3.6 0 0 0-.6 1.3s.5-.3 1.3-.7a7.5 7.5 0 0 0 .2 1.2 2.4 2.4 0 0 1 .4-.7 4 4 0 0 0 .2 1s.2-.4.5-.9a8.9 8.9 0 0 0 .5 1.6s0 0 .3-.7a3.6 3.6 0 0 0 .4 1.3s.1-.5.4-1.1a3.9 3.9 0 0 0 .3 1s0-.2.2-.4a6.9 6.9 0 0 0 3 1.8s0 0-.4-.6a3.5 3.5 0 0 0 1.3.6s-.3-.5-.7-1.2a9.3 9.3 0 0 0 .3-1.3 2.2 2.2 0 0 0 0-.3 7 7 0 0 0 1 .5 6 6 0 0 0-.3-1.2 3.8 3.8 0 0 0 1 .4s-.1-.3-.4-.9l.1-.4a2.1 2.1 0 0 0 .5.2c.4 1.3 3 1.8 3 1.8a8.4 8.4 0 0 0-1.3-1.9 8.7 8.7 0 0 0 2-.7s0 0-.7-.2a3.5 3.5 0 0 0 1.3-.5s-.5-.1-1.2-.3a3.8 3.8 0 0 0 1-.4s-.7-.2-1.6-.5a1.6 1.6 0 0 0-.3 0 2.8 2.8 0 0 0 .8-.4l.3.2-.2.2 1-.2a7 7 0 0 0 1 .5 1.1 1.1 0 0 0 .1 0 5.1 5.1 0 0 0-.5.7 4.8 4.8 0 0 0 1 0 2.9 2.9 0 0 0-.6.7s.3-.1.7-.2c.1 0 .2 0 .3.2a1.5 1.5 0 0 0-.2.3c-1 0-2 1.8-2 1.8a6.4 6.4 0 0 0 1.7-.6 6.6 6.6 0 0 0 .2 1.6s0 0 .2-.5a2.7 2.7 0 0 0 .1 1s.2-.3.5-.7a2.8 2.8 0 0 0 0 .6 6 6 0 0 0-.3.3 2.3 2.3 0 0 1 .8 0 5 5 0 0 0-.7.5 5.2 5.2 0 0 0 .5.2 5.4 5.4 0 0 0-1 .8 1.7 1.7 0 0 1 .7 0 4.6 4.6 0 0 0-1 1 4 4 0 0 0 1.2 0 2.2 2.2 0 0 0 0 .2h-.3a1.3 1.3 0 0 1 .4.2 2.7 2.7 0 0 0 0 .3s0 0 .1-.2a4 4 0 0 0 .6.3 5.5 5.5 0 0 0-.5.4 3.3 3.3 0 0 0 1.5.3 6 6 0 0 0-.2 1.2 6.4 6.4 0 0 0 1.3-1.2 6.6 6.6 0 0 0 .7 1.4s0 0 0-.6a2.7 2.7 0 0 0 .6 1s0-.5.1-1a7.1 7.1 0 0 0 .8-.7 1.6 1.6 0 0 0 .1-.2 5.1 5.1 0 0 0 .4.8 4.8 4.8 0 0 0 .4-1 2.8 2.8 0 0 0 .4.8s0-.3.1-.7l.3-.2a1.5 1.5 0 0 0 .2.3c-.3 1 1 2.5 1 2.5a6.4 6.4 0 0 0 0-1.7l.5.1.2.4.1-.3h.2a5.7 5.7 0 0 0 .5.9 1.7 1.7 0 0 1 .1-.6 4.5 4.5 0 0 0 .9 1.1 4.2 4.2 0 0 0 .2-1 5.8 5.8 0 0 0 .5.2 7.3 7.3 0 0 1-.3-1 2.2 2.2 0 0 0 .3.1s-.1-.3-.3-.8a2.4 2.4 0 0 0 .7.2 5.8 5.8 0 0 0 .5.8 6.4 6.4 0 0 0 .1-1.8 5.6 5.6 0 0 0 .8.3v.2-.1a6 6 0 0 0 .8.1s0 0-.4-.4a2.7 2.7 0 0 0 1 .3l-.5-.6a4.3 4.3 0 0 0 .4-.4 6.6 6.6 0 0 0 .7 1.4s0 0 0-.5a2.7 2.7 0 0 0 .5 1s0-.5.2-1a7 7 0 0 0 .8-.7 1.5 1.5 0 0 0 .2-.1 5.3 5.3 0 0 0 .3.7 4.5 4.5 0 0 0 .4-.8 2.9 2.9 0 0 0 .4.8s0-.3.2-.8l.3-.2a1.5 1.5 0 0 0 .1.4c-.4 1 .9 2.5.9 2.5a6.4 6.4 0 0 0 .2-1.7 6.6 6.6 0 0 0 1.4.6s0-.1-.3-.5a2.7 2.7 0 0 0 1 .4l-.5-.8a2.8 2.8 0 0 0 .8.2l-.7-1a1 1 0 0 0-.1-.2 2 2 0 0 0 .5.2l.2.3a1.6 1.6 0 0 1 0-.2 2 2 0 0 0 .3 0l-.2-.2a3.4 3.4 0 0 0 .2-.4 4.6 4.6 0 0 0 .6 1.3 4 4 0 0 0 .4-1.2 1.6 1.6 0 0 0 .2 0v.4a1.3 1.3 0 0 1 .3-.3 2.4 2.4 0 0 0 .2 0v-.1a3.6 3.6 0 0 0 .4-.5 5.2 5.2 0 0 0 .1.7 3.4 3.4 0 0 0 .9-1.4 6 6 0 0 0 1 .6 6.3 6.3 0 0 0-.7-1.6 6.5 6.5 0 0 0 1.6-.3s0 0-.6-.2a2.7 2.7 0 0 0 1-.2s-.3-.2-.8-.4a7.1 7.1 0 0 0-.4-1 1.5 1.5 0 0 0-.1-.2 5.2 5.2 0 0 0 .8-.1 3.5 3.5 0 0 0-1.2-.9 4.3 4.3 0 0 1 0-.5 5.3 5.3 0 0 0 .5.6v-.6a5.3 5.3 0 0 0 1 .8 1.7 1.7 0 0 1 0-.6 4.6 4.6 0 0 0 1.1.8 4.1 4.1 0 0 0-.2-1.2 4.8 4.8 0 0 0 .6.1c-.4-.2-.3-.3-.7-.8a3 3 0 0 0 .4 0l-.6-.7a2.4 2.4 0 0 0 .7 0 5.7 5.7 0 0 0 .8.5 6.4 6.4 0 0 0-.6-1.7 6.6 6.6 0 0 0 1.6 0s0-.1-.5-.4a2.7 2.7 0 0 0 1 0s-.3-.2-.8-.6a7 7 0 0 0-.3-1 1.5 1.5 0 0 0 0-.2 5.2 5.2 0 0 0 .8 0 4.4 4.4 0 0 0-.7-.7 2.9 2.9 0 0 0 1 0s-.3-.2-.7-.5v-.3a1.5 1.5 0 0 0 .3 0c.7.7 2.7 0 2.7 0a6.2 6.2 0 0 0-1.6-.7 6.5 6.5 0 0 0 1-1.2s0 0-.5.1a2.7 2.7 0 0 0 .7-.8s-.4.1-1 .2a2.7 2.7 0 0 0 .5-.5h.5a2.2 2.2 0 0 1-.5-.5 5.1 5.1 0 0 0 .8.2 6 6 0 0 0-.2-.5 5.4 5.4 0 0 0 1.2.2 1.8 1.8 0 0 1-.5-.5 4.7 4.7 0 0 0 1.5 0 4 4 0 0 0-.9-.8ZM124.8 32ZM68 96.4Zm31.8-24.6a3.4 3.4 0 0 0-.7.3 4.2 4.2 0 0 0 .6.3 3 3 0 0 0-.5-.2s0 .2.2.5l-.2.4a2.8 2.8 0 0 0-1.4 0 6.3 6.3 0 0 0-.5-.6 8.7 8.7 0 0 0 2-.7s-.1 0-.7-.2a2.6 2.6 0 0 0 .5-.1 1.1 1.1 0 0 1-.1.1 4 4 0 0 0 .8-.4v.4a3.8 3.8 0 0 0 .4-.2l-.1.3H99.8ZM66.4 59a7 7 0 0 0-.8-1 8.7 8.7 0 0 0 2-.7s0 0-.7-.2a3.6 3.6 0 0 0 1.3-.5s-.5 0-1.2-.3a3.8 3.8 0 0 0 1-.4 8.5 8.5 0 0 0 1.6 1.6 8.7 8.7 0 0 0-1.8 1.1s0 0 .7 0a3.6 3.6 0 0 0-1.2.7s.6 0 1.4.2a10.4 10.4 0 0 0 1 1 2 2 0 0 0 .1.1 6.8 6.8 0 0 0-1 .6l.4.1-.5.2a9 9 0 0 0-1.2-.7 1.8 1.8 0 0 0-.3 0 6.7 6.7 0 0 0 .7-.9 6.6 6.6 0 0 0-1 0c0-.3-.2-.5-.3-.7 0-.2.2-.3.2-.3a2 2 0 0 1-.4.1ZM93 43.8a4.6 4.6 0 0 0 .5-1.1 6.3 6.3 0 0 0 .7-.4l.2.1.1.5a4 4 0 0 0-.4.4s.2 0 .5 0l.1.5.2-.5a2.5 2.5 0 0 0 .1.7 1.7 1.7 0 0 0-.9 0h.1a4.8 4.8 0 0 0-1.2-.2Zm-1-3.4.5.5-.4.1a4.3 4.3 0 0 0-.2-.6Zm.5.5v-.2l.2.2h-.2Zm7.3 15a4.1 4.1 0 0 0-.2.6 4.7 4.7 0 0 0-1-.9 4.5 4.5 0 0 0 .1.7 2 2 0 0 0-.2.5l-.3-.6a2 2 0 0 0-.1.2l-.4-.6a5.8 5.8 0 0 0 .8-.3 4.1 4.1 0 0 0-.7-.3 1.8 1.8 0 0 0-.2-.4h.7a2.6 2.6 0 0 0-.2-.1 5.4 5.4 0 0 1 .8 0 4.4 4.4 0 0 0-.3-.3 3.1 3.1 0 0 0 .8-.3 3.4 3.4 0 0 0-1-.5 1.3 1.3 0 0 1 .4-.1 4 4 0 0 0-.8-.3 3.5 3.5 0 0 0 .3-.3 4 4 0 0 0-.6 0 1.7 1.7 0 0 1 .5-.3s-.1 0-.3-.1a2 2 0 0 0-.2-.5l.6.4a2 2 0 0 0-.2-.7l.3.2a4.6 4.6 0 0 0-.1-.5l.2-.6a3.7 3.7 0 0 0 .4 1.3s.1-.5.4-1.2a3.8 3.8 0 0 0 .4 1s0-.1 0-.4a5 5 0 0 0 1.8 1.4s0 0 .1 0a8.8 8.8 0 0 0 1.1.5 2.1 2.1 0 0 0-.4.2c-1.3-.4-3.2 1.5-3.2 1.5a10 10 0 0 0 1.7 0 4.6 4.6 0 0 0 .2.7h-.4v-.6a2 2 0 0 0-.4.7v-.4a4.5 4.5 0 0 0-.3.4h-.2.1Zm-2-6a.5.5 0 0 0-.1 0Zm-.5 6 .4-.1-.1.3a2.5 2.5 0 0 0-.3-.2Zm-.8 1.5-.1.2-.2-.3a2.2 2.2 0 0 0 .3 0v.1ZM89 40.8l.3.2.3.9a3.4 3.4 0 0 0 .4-1 5.4 5.4 0 0 0 .6 1 6.2 6.2 0 0 0 .3-1 2 2 0 0 0 .2.2c.8.5.9.4 1.3.8a7 7 0 0 0-.2-.8 3.2 3.2 0 0 0 1.2.8 6 6 0 0 0-.6 1h.2c-.4.2-.9.6-1 1.1a1.2 1.2 0 0 0-.2.2v-.8a2.1 2.1 0 0 0-.5.4 3.5 3.5 0 0 0 0-.7 4 4 0 0 0-.4.4 1 1 0 0 0 0-.2 5.5 5.5 0 0 0-.4-.7c0-.4.2-.7.2-.7a2 2 0 0 0-.7.5l.2-.4a5 5 0 0 0-1 .7 4.8 4.8 0 0 0-.5-1.1 4.5 4.5 0 0 0-.2.6 1.9 1.9 0 0 0-.3.4V42a2.5 2.5 0 0 0 .8-1.2ZM69.9 54a2.3 2.3 0 0 0 .1-.3 2 2 0 0 0 .3.4l-.4-.1ZM50 64.8a4 4 0 0 0-.4.8 4 4 0 0 0-.9-.4s.2.3.4.7a8.6 8.6 0 0 0-1-.6l.2-.2H48a2.2 2.2 0 0 0 .3-.5s-.3 0-.7.2l-.4-.2a3.5 3.5 0 0 0 .6-.7 3.4 3.4 0 0 0-.7 0 2.1 2.1 0 0 0 .4-.6s-.2.1-.5.2l-.2-.1a1.2 1.2 0 0 0 .1-.3c.8 0 1.5-1.4 1.5-1.4a4.9 4.9 0 0 0-1.3.5 5 5 0 0 0 0-1.2s-.1 0-.3.3a2 2 0 0 0 0-.7s-.2.2-.4.6a2 2 0 0 0-.1-.5l.3-.3a1.7 1.7 0 0 1-.6 0 4 4 0 0 0 .5-.3 4 4 0 0 0-.4-.1 4 4 0 0 0 .7-.6 1.4 1.4 0 0 1-.4 0 3.4 3.4 0 0 0 .7-.8l.6-.2a3.6 3.6 0 0 0-.6 1.2s.5-.3 1.3-.7a7.5 7.5 0 0 0 .3 1.3 2.4 2.4 0 0 1 .4-.8 4 4 0 0 0 .1 1s.2-.3.6-.8a9 9 0 0 0 .5 1.6s0-.1.2-.7a3.6 3.6 0 0 0 .4 1.3s.2-.5.4-1.2a3.8 3.8 0 0 0 .4 1s0-.1.1-.4a4.1 4.1 0 0 0 1.1 1 9 9 0 0 0-1.5 1s0 0 .7 0a3.6 3.6 0 0 0-1.2.7s.2 0 .6 0a5.4 5.4 0 0 0-.2 1.5 5.2 5.2 0 0 0-.6-.4 6.9 6.9 0 0 0-.3-.9c0 .2-.2.3-.3.5l-.2-.1a2.2 2.2 0 0 1 0 .3ZM46.8 58a3.5 3.5 0 0 0-.3.6h-.1a4.5 4.5 0 0 0 .1-.4 5.2 5.2 0 0 1-.7.3v-.1l1-.4Zm6.6 7.2v-.1h.1v.1Zm-.4.3-.2.1a5.5 5.5 0 0 0-1.2-1.7l.8.1a11.6 11.6 0 0 0 .8 1 2 2 0 0 1-.2.5Zm.7.6v.1Zm-5.7-.4.2.5a3.7 3.7 0 0 0-.5-.2 4.2 4.2 0 0 0 .3-.3ZM43.9 55a3.4 3.4 0 0 0 .3.6 4.2 4.2 0 0 0 .2-.5h.1l.9.5a4.3 4.3 0 0 0-.2-.5 6.6 6.6 0 0 0 1 0l-.2.5-.5.2.3.2v.3a7.4 7.4 0 0 0-1 .7c.6 0 .6.2 1.6.2a3.5 3.5 0 0 0-.7 1l-.4.3a2 2 0 0 0 0-.5 4.3 4.3 0 0 0 .5-.5 4.7 4.7 0 0 0-1.3.1 5 5 0 0 0 .2-1.2l-.3.4a2 2 0 0 0 .1-.8l-.5.5a5.2 5.2 0 0 0-.8 0 1.3 1.3 0 0 0-.1.1 3.7 3.7 0 0 0 0-.6 3.4 3.4 0 0 0-.5.4 2 2 0 0 0 0-.6 1.7 1.7 0 0 0 .6-.8l.3.1.1.5a2.2 2.2 0 0 0 .3-.6Zm0 0Zm-1.7 1.1.2-.2-.2.2Zm44-13.4v-.1Zm-17 19.5a.2.2 0 0 1-.1 0 3 3 0 0 0 .6-.7l.3.1a3.7 3.7 0 0 0-.9.6Zm-.5 4.4h.1l.3.2a3.4 3.4 0 0 0-.4.6 5 5 0 0 0 0-.8ZM70 63a1.7 1.7 0 0 0-1 0l.6-.7h.4c.2.1.2.2.3.4a2.1 2.1 0 0 0-.3.3Zm-.5-7a7.7 7.7 0 0 0-1.6 0V56l-1.5-.5a1.4 1.4 0 0 0-.3 0 2.8 2.8 0 0 0 .8-.3l.4.2a1.8 1.8 0 0 1-.2-.4l.3-.2h-.3l-.1-.3.1-.1a6.5 6.5 0 0 0 1.6.6 5.2 5.2 0 0 0-.7-1.5 2.7 2.7 0 0 0 .3-.2l.3.4a1.8 1.8 0 0 1 0-.4l.1-.2.2-.1h-.1v-.2h.1a1.2 1.2 0 0 1-.2.3 4.3 4.3 0 0 0 .6 0l.2.2v.1h.1v.3h.1v.3a2.3 2.3 0 0 0 .1.3v.1h-.1a4.9 4.9 0 0 0-.2 1.3l-.3.1.3.1v.3Zm13.9 11.1v.1h-.2.2Zm.6.2v.1Zm34.3 6Zm-1.5-19.1-.2-.2.3-.1a2.2 2.2 0 0 0-.1.3ZM36.7 30.5h-.2.2Zm8.2 51.4a5.2 5.2 0 0 1 .3-.4 3.6 3.6 0 0 0 0 .6 3.6 3.6 0 0 0-.3-.2Zm.8 0 .1-.2v.2a1.7 1.7 0 0 1-.1 0ZM60 76.4h.2v.2l-.2-.2ZM66 60.2l.2-.4.7.2a3.6 3.6 0 0 0-1 .2Zm2.6 7.5v.1-.1Zm13.8 1-.5-.5a8.4 8.4 0 0 0 1.7-.6h.1a7 7 0 0 0-1.3 1Zm2.2-1.3a2.3 2.3 0 0 0 0-.4 1.6 1.6 0 0 1 .3.3 2.4 2.4 0 0 0-.3 0Zm.7 0a1.4 1.4 0 0 0-.4 0 4 4 0 0 0 .1-.7h.4l.3.4a2 2 0 0 0-.4.3Zm3.2 19.4Zm.8 7.2v.1Zm1.8-4.3a4.6 4.6 0 0 0-.7.1 6 6 0 0 0-.7-.2l.2-.3a3.6 3.6 0 0 0 1-.3l.4.2a4.8 4.8 0 0 0-.6 0l.4.5Zm-3.5-4.3a2.4 2.4 0 0 0 .3.5 3.3 3.3 0 0 0-.8.1 6.6 6.6 0 0 0 .5-.6Zm.5 9.2a4 4 0 0 0 .5.3l-.2.3h-.2a4.5 4.5 0 0 0-.1-.6Zm.3 1a1.8 1.8 0 0 1 0-.2l.1-.2h.4a2.2 2.2 0 0 0-.5.4Zm5.3-21.3a2.4 2.4 0 0 0 0-.3l.5.2a2 2 0 0 1 0 .5 3.3 3.3 0 0 0-.5-.4Zm2.3.2-.4-.3a2.3 2.3 0 0 1 .1.7 5.4 5.4 0 0 0-.5-.6 5.1 5.1 0 0 0-.1.6 4.2 4.2 0 0 0-.5-.5h.1a6 6 0 0 0-.3-1.1 3.8 3.8 0 0 0 1 .4s-.1-.3-.4-.9l.1-.4a2.1 2.1 0 0 0 .5.2 1.9 1.9 0 0 0 .7.9h-.1.2l.2.2a2.9 2.9 0 0 0-.9.3s.4 0 1 .3a2.7 2.7 0 0 0-.7.2Z"/><path fill="#73bf44" d="M73 150.4h10.6s-.3-1.7 0-12.5c.4-10.8.6-19.9.6-22.7 0-3-.6-10.3 1-12 1.5-1.9 5.6-1.6 7.3-2.6 1.7-.9 5.3-1.2 6.7-4.3a6.8 6.8 0 0 0 .4-5.2l-1.6.4s.6 3.3-.8 5.3c-1.5 2-5.3 2.6-7.7 3-2.4.5-5 .3-5.2-1.3 0-1.6-1.4-7.9-1.4-9.9s.4-5.2 1.5-6.7 1.1-2 4.1-2.9c3-.9 6.3-2 10-2.8l9-2.6-.1-1.4-9.4 2.3c-3.8 1-7 1.8-9 2.5-2 .6-3.8 1-3 0a13.6 13.6 0 0 0 2.6-4.8 2 2 0 0 0-1-2.1l-1 .7s-.5 3.6-1.8 4.9c-1.3 1.2-3 .4-3-1.6s.6-16.6.3-20.7c-.3-4-8.4.7-8.4.7l.4 17c.2 2.9-2.8 1.9-5.9-.7-3.1-2.7-9-3.5-9-3.5l-.6 1.9s5.8 1.5 8.4 3.7c2.5 2 6.2 3.6 6.6 6.4.5 2.9.2 6.7.4 8 0 1.4-2.8 1.3-6 1.4-3.2.1-10.2 1.3-10.2 1.3v1.8l12-1c1.8 0 4.1.1 4.7 3 .7 3 1.2 13.2 1.2 16.4 0 3.1-.5 10.4-.9 15.7s-.5 12.2-.8 16c-.3 4-1 9-1 9Z"/><path fill="#73bf44" d="M74.8 89c18 0 35.1-15.7 34.3-34.2a34.8 34.8 0 0 0-34.3-34.2c-17.9 0-35 15.8-34.2 34.2.8 18.6 15 34.3 34.2 34.3Z"/><path fill="#73bf44" d="M90.3 94.3c10.2 0 10.3-16 0-16-10.2 0-10.2 16 0 16ZM49.2 72a14.4 14.4 0 1 0-14.4-14.3A14.6 14.6 0 0 0 49.2 72Z"/><path fill="#73bf44" d="M45.5 58.3a14.4 14.4 0 1 0 0-28.8 14.4 14.4 0 0 0 0 28.8Z"/><path fill="#73bf44" d="M54.5 46.8a14.6 14.6 0 0 0 14.3-14.4 14.4 14.4 0 1 0-28.7 0 14.6 14.6 0 0 0 14.4 14.4Z"/><path fill="#73bf44" d="M78 37.6a14.6 14.6 0 0 0 14.3-14.4 14.4 14.4 0 1 0-28.8 0A14.6 14.6 0 0 0 78 37.6Z"/><path fill="#73bf44" d="M85 34.8a14.6 14.6 0 0 0 14.4-14.4 14.4 14.4 0 0 0-28.8 0A14.6 14.6 0 0 0 85 34.8Z"/><path fill="#73bf44" d="M92.1 40.5A14.6 14.6 0 0 0 106.5 26a14.4 14.4 0 0 0-28.8 0 14.6 14.6 0 0 0 14.4 14.4Z"/><path fill="#73bf44" d="M106.5 46.4A14.6 14.6 0 0 0 120.8 32a14.4 14.4 0 1 0-28.7 0 14.6 14.6 0 0 0 14.4 14.4Z"/><path fill="#73bf44" d="M108.1 45.5A14.6 14.6 0 0 0 122.5 31a14.4 14.4 0 0 0-28.8 0 14.6 14.6 0 0 0 14.4 14.4Z"/><path fill="#73bf44" d="M101.3 62.6a14.4 14.4 0 1 0-14.4-14.3 14.6 14.6 0 0 0 14.4 14.3Z"/><path fill="#73bf44" d="M103.6 80a14.4 14.4 0 1 0-14.4-14.5A14.6 14.6 0 0 0 103.6 80Z"/><path fill="#73bf44" d="M105.8 99.2a14.4 14.4 0 1 0-14.4-14.4 14.6 14.6 0 0 0 14.4 14.4Z"/><path fill="#73bf44" d="M104.6 103.7a14.4 14.4 0 1 0-14.3-14.4 14.6 14.6 0 0 0 14.3 14.4ZM60.1 98c11.5 0 11.5-17.9 0-17.9S48.6 98 60.1 98Z"/><path fill="#73bf44" d="M55.7 94c11.5 0 11.6-17.8 0-17.8-11.4 0-11.5 17.9 0 17.9Z"/><path fill="#73bf44" d="M54.8 82.7c11.5 0 11.5-17.8 0-17.8s-11.5 17.8 0 17.8ZM36.8 71c9 0 9-14 0-14s-9 14 0 14ZM32.6 48.8c8.3 0 8.4-13 0-13-8.3 0-8.3 13 0 13ZM62.7 27.4c8.3 0 8.3-13 0-13s-8.3 13 0 13ZM79.9 16.1c8.3 0 8.3-12.9 0-12.9s-8.3 13 0 13Z"/></svg>