<svg xmlns="http://www.w3.org/2000/svg" viewBox="0 0 150 150"><path fill="#73bf44" d="M77 28h-.1a1.1 1.1 0 0 1 0 .2V28ZM49.2 74.3ZM75.4 33v-.3a1.1 1.1 0 0 1-.1.4s-.1-.1-.2-.4a1.3 1.3 0 0 1 0 .3v.2a1 1 0 0 0-.3 0 2.5 2.5 0 0 1 .3.2 2 2 0 0 1-.2 0v.1a2.2 2.2 0 0 1 .8-.3 2 2 0 0 1 .2 0 2.8 2.8 0 0 1-.4-.5v.2ZM64.6 22.3a1 1 0 0 1-.3.2s0-.1 0-.3a1 1 0 0 1-.1.1 1.5 1.5 0 0 1 0 .2.8.8 0 0 0-.2-.1 1.7 1.7 0 0 1 0 .2 1.5 1.5 0 0 1-.2 0 1.8 1.8 0 0 1 0 .2.6.6 0 0 0 0-.1 1.6 1.6 0 0 1 0 .5 1.3 1.3 0 0 1-.4-.3l.1.2a.6.6 0 0 0-.2 0 .7.7 0 0 1-.1 0 1 1 0 0 1-.3 0 2.1 2.1 0 0 1 0 .4 2.2 2.2 0 0 1-.4-.4 2.2 2.2 0 0 1-.2.5s0 0 0-.2a1 1 0 0 1-.2.4v-.4a2.3 2.3 0 0 1-.4-.2 1.7 1.7 0 0 1-.1.2 1.6 1.6 0 0 1-.2-.3 1 1 0 0 1-.1.3v-.2L61 23c.1.4-.3 1-.3 1a2 2 0 0 1 0-.6 2.2 2.2 0 0 1-.6.2s0 0 .2-.2a1 1 0 0 1-.4.1s0 0 .2-.2a.9.9 0 0 1-.2 0v.2a.8.8 0 0 0-.2-.2 1.9 1.9 0 0 1 0 .3 1.7 1.7 0 0 1-.1-.1 1.8 1.8 0 0 1 0 .4.6.6 0 0 0-.2-.2 1 1 0 0 1 0 .2 4.2 4.2 0 0 1 .5.4 4.4 4.4 0 0 1-1.2 0 4.6 4.6 0 0 1 .3 1.1s0 0-.3-.2a1.8 1.8 0 0 1 .2.7s-.2-.2-.5-.4a1.9 1.9 0 0 1 .1.4l.3.1a1.6 1.6 0 0 0-.4.2 3.6 3.6 0 0 1 .5.1l-.3.3a3.7 3.7 0 0 1 .8.3 1.2 1.2 0 0 0-.4.1 2.8 2.8 0 0 1 .8.3 1.2 1.2 0 0 1 .3-.4 2.5 2.5 0 0 1-.4-.3 2.8 2.8 0 0 1 .7 0 2.9 2.9 0 0 1-.2-.7s0 0 .2.2a1.2 1.2 0 0 1 0-.4s0 0 .3.2a3.3 3.3 0 0 1 .4 0 2.1 2.1 0 0 1 0-.3 2 2 0 0 1 .4.2 1.2 1.2 0 0 1-.1-.4s0 0 .2.2h.2a.6.6 0 0 1 0-.2c-.4-.2-.4-1-.4-1a2.7 2.7 0 0 1 .5.5v-.2a1.5 1.5 0 0 1 0-.2h.1a2.5 2.5 0 0 1 0-.4.8.8 0 0 0 .2.2 2 2 0 0 1 0-.7 1.8 1.8 0 0 1 .3.3l.1-.2.2.4a1 1 0 0 1 0-.1s.1.1.3.3a1 1 0 0 1 0-.2 2.5 2.5 0 0 1 0-.4 2.7 2.7 0 0 1 .6.5 2.7 2.7 0 0 1 .1-.3 2.6 2.6 0 0 1 .2-.3s0 0 0 .2a1.2 1.2 0 0 1 .3-.4v.4a2 2 0 0 1 .2 0 2.8 2.8 0 0 1-.2-.7s0 0 .2.2a1.2 1.2 0 0 1-.1-.4s.1 0 .3.2a3.2 3.2 0 0 1 .5 0 2.1 2.1 0 0 1 0-.4 2 2 0 0 1 .3.2 1.2 1.2 0 0 1 0-.4 1.8 1.8 0 0 1 0-.3h-.1a1.9 1.9 0 0 1 0 .1.8.8 0 0 0-.2-.2l-.1-.1h-.1L65 22a1 1 0 0 1 0 .2s-.1-.1-.2-.3v.2a2.5 2.5 0 0 1-.2.2ZM77.2 27.3H77a2.5 2.5 0 0 1 .1.4 1.6 1.6 0 0 1 0-.4ZM56.6 58.1ZM50.8 70l-.2.2a1 1 0 0 1 .1.2.9.9 0 0 1 .1 0 1.3 1.3 0 0 1 .2-.2l-.2-.1ZM61.6 68.7v-.1ZM63.5 46.5v.2h.3a1.6 1.6 0 0 1-.3-.2ZM76.4 33.5a.6.6 0 0 1-.2.1v.1a1.7 1.7 0 0 1 .2-.2ZM82.7 40.5v-.2a1.4 1.4 0 0 1-.2.3h.2ZM109.7 46.2a.9.9 0 0 1 0-.2v.2ZM56 60.5ZM47.3 56.4v.1h.4a3.1 3.1 0 0 1 .2-.5 2.1 2.1 0 0 1-.3-.2 1.6 1.6 0 0 1 .6-.2 1.7 1.7 0 0 1 0-.2 2 2 0 0 1-.2.2v-.3a2.4 2.4 0 0 1-.5.3.8.8 0 0 0 .2-.3 2 2 0 0 1-.6.2 2.1 2.1 0 0 1 .1-.3 2.4 2.4 0 0 1-.5 0 .6.6 0 0 0 .2-.1 1.2 1.2 0 0 1-.4 0s0 0 .1-.1a1 1 0 0 1-.3-.1 2.6 2.6 0 0 1-.4.2 2.7 2.7 0 0 1 .3-.7 2.8 2.8 0 0 1-.7 0s0 0 .2-.2a1.2 1.2 0 0 1-.4 0s.1-.1.4-.2a3 3 0 0 1 .1-.5 2.3 2.3 0 0 1-.3 0 2 2 0 0 1 .3-.4 1.3 1.3 0 0 1-.4 0s.1 0 .3-.2v-.1a.7.7 0 0 1-.1 0c-.4.2-1.2-.1-1.2-.1a2.7 2.7 0 0 1 .7-.3 2.8 2.8 0 0 1-.4-.5s0 0 .2 0a1.2 1.2 0 0 1-.2-.3s.1 0 .4.1a1.2 1.2 0 0 1-.2-.2h-.2a1 1 0 0 0 .2-.3 2.2 2.2 0 0 1-.3.1 2 2 0 0 1 0-.2 2.4 2.4 0 0 1-.5 0 .8.8 0 0 0 .2-.2 2 2 0 0 1-.6 0h-.2a3.7 3.7 0 0 1 .5 1 3.3 3.3 0 0 1-.5-.3 1.4 1.4 0 0 1-.4 0l.4.4a1.6 1.6 0 0 1-.2 0l.5.5a3.2 3.2 0 0 1-.4 0 2.4 2.4 0 0 1 .3.6 2.6 2.6 0 0 1-.8-.3 1 1 0 0 0 .1.3 3 3 0 0 1-.6-.3 3 3 0 0 1 0 .3 3.2 3.2 0 0 1-.3-.3 1.3 1.3 0 0 0 0 .4s0 0-.2-.1a1.6 1.6 0 0 1-.3.2h.5a1.5 1.5 0 0 1-.5.3h.3a4 4 0 0 1-.7.4l.2.3a4.4 4.4 0 0 1 .3.4 3.6 3.6 0 0 1 .3-.2 2.4 2.4 0 0 1-.2 1l.2.3a3.5 3.5 0 0 1 0-.5l.3.2a3.6 3.6 0 0 1 .2-.8 1.2 1.2 0 0 0 .2.3 3.2 3.2 0 0 1 .2-1 2.9 2.9 0 0 1 .4.7 3.7 3.7 0 0 1 .3-.3 4.8 4.8 0 0 0 0 .8 1.7 1.7 0 0 1 .2-.2v.6a1.7 1.7 0 0 1 .4-.3 4.1 4.1 0 0 1 .2-.6 4.4 4.4 0 0 1 .5 1 4.5 4.5 0 0 1 .9-.6s0 0-.2.4a1.9 1.9 0 0 1 .6-.5s0 .3-.2.7a5.1 5.1 0 0 1 .3.6 1 1 0 0 1 0 .2 3.5 3.5 0 0 1 .5-.4 3.1 3.1 0 0 1 0 .7 2 2 0 0 1 .5-.4ZM109.3 46.5a2.8 2.8 0 0 1 .4-.6l-.2-.1a3.2 3.2 0 0 1-.2.6v.1ZM56.2 59.9a2 2 0 0 1 .2.6.7.7 0 0 0 .1-.3s0 0 0 .1a3.5 3.5 0 0 1 .5-.3 1.4 1.4 0 0 1 .1-.3l-.5.1a1.4 1.4 0 0 1 .1-.2 4 4 0 0 0-.6.2 3.2 3.2 0 0 1 .2-.3 2.4 2.4 0 0 1-.7-.1 2.7 2.7 0 0 1 .7-.5 1 1 0 0 0-.3 0 3.3 3.3 0 0 1 .4-.3v-.2l-.2-.2a2.2 2.2 0 0 1-.2.3 2 2 0 0 1-.2-.3 1.2 1.2 0 0 1-.1.3s0 0-.1-.3h-.1c-.2.5-1.1.8-1.1.8v-.2a1.2 1.2 0 0 1-.3.2s0-.2.2-.4a1.3 1.3 0 0 1-.3.2v.2a1 1 0 0 0-.2-.3 2.2 2.2 0 0 1 0 .3l-.2-.1a2.2 2.2 0 0 1 0 .5.8.8 0 0 0-.2-.2 2 2 0 0 1-.2.6 1.8 1.8 0 0 1-.2-.4 2.5 2.5 0 0 1 0 .3l-.2-.2v.1a4.6 4.6 0 0 1 .9.6s0 0-.4 0a1.9 1.9 0 0 1 .6.4h-.7a5 5 0 0 1-.5.6 1 1 0 0 1 0 .1 2.4 2.4 0 0 1 .3.1l.1-.6a2.2 2.2 0 0 1 .3.5V61a1.3 1.3 0 0 1 .3.3 2 2 0 0 1 0-.4 2.3 2.3 0 0 1 .3.3v-.5a1.2 1.2 0 0 1 .3.2 2 2 0 0 1 0-.4 2.3 2.3 0 0 1 .3.3.5.5 0 0 1 0-.1V60.4a2 2 0 0 1 .1 0 .8.8 0 0 0 .2-.2 2.3 2.3 0 0 1 0 .3h.2a3 3 0 0 0 .1-.4s0 0 .1.1a1.1 1.1 0 0 1 .3 0c-.2 0-.3-.2-.3-.2s.6 0 .7.2a2 2 0 0 1 .2-.3Z"/><path fill="#73bf44" d="M66.4 51.9a1.6 1.6 0 0 1 0-.6l-.2.3a3.7 3.7 0 0 1-.2-.9 3.7 3.7 0 0 1-.9.4 3.6 3.6 0 0 1 .3-.6 2 2 0 0 1-.7-.5 2.7 2.7 0 0 1 .3 0 2.1 2.1 0 0 1-.2-.3h-.1v-.1a.8.8 0 0 0-.2-.2s.1 0 .2 0a2.3 2.3 0 0 1-.6-.3 2.6 2.6 0 0 1 .7-.4 2.2 2.2 0 0 1-.2 0h-.1a1 1 0 0 1 0-.1.8.8 0 0 0-.2 0l.2-.2a1.3 1.3 0 0 1 .1-.3.7.7 0 0 1 0 .1l-.7.4a1.8 1.8 0 0 1 .2-.5l-.5.3a1.6 1.6 0 0 1 .2-.5l-.2.2a3.8 3.8 0 0 1 .3-1 3.7 3.7 0 0 1-1 0 3.6 3.6 0 0 1 .6-.4 2.7 2.7 0 0 1-.5-.2 2.6 2.6 0 0 1 0 .3 3 3 0 0 1-.3-.3 1.3 1.3 0 0 0 .1.4s0 0-.2-.1a1.6 1.6 0 0 1-.4.2h.6a1.6 1.6 0 0 1-.6.3h.4a3.8 3.8 0 0 1-.9.5 3.7 3.7 0 0 1 .7.8 2.7 2.7 0 0 1-1.2-.4 2.5 2.5 0 0 1-.3.3 2.1 2.1 0 0 1 .3.2 2 2 0 0 1-.4.2 1.2 1.2 0 0 1 .3.2h-.3v.1a.7.7 0 0 1 0 .1c.5-.1 1.1.5 1.1.5a2.8 2.8 0 0 1-.7 0 2.8 2.8 0 0 1 .2.7s0 0-.2-.2a1.2 1.2 0 0 1 0 .4s0 0-.2-.2a1.1 1.1 0 0 1 0 .3h.2a1 1 0 0 0-.3.2 2.3 2.3 0 0 1 .4 0l-.2.2a2.3 2.3 0 0 1 .5.1.8.8 0 0 0-.2.1 2 2 0 0 1 .5.3 1.8 1.8 0 0 1-.4.2 2.3 2.3 0 0 1 .1.2 3 3 0 0 0-.4 0H61a1.6 1.6 0 0 1 .3.3l.2.1h-.1a.7.7 0 0 1 0 .3.9.9 0 0 1 .2.1l.1-.1v-.5a1.7 1.7 0 0 1 .3.3 2.7 2.7 0 0 1 0-.5 3 3 0 0 1 .4.3 1 1 0 0 1 0-.1 3.9 3.9 0 0 1 .3-.5l-.1-.6a1.5 1.5 0 0 1 .5.4l-.1-.3a3.8 3.8 0 0 1 .7.6 3.7 3.7 0 0 1 .4-1 3.4 3.4 0 0 1 .1.7 1.4 1.4 0 0 1 .4.2v-.2a1.6 1.6 0 0 1 .4.4.8.8 0 0 0 0-.3 3 3 0 0 1 .4.5 2.6 2.6 0 0 1 .2-.5 2.7 2.7 0 0 1 .3.8 1 1 0 0 0 .1-.3 3.1 3.1 0 0 1 .2.7 2.8 2.8 0 0 1 .2-.3 3.2 3.2 0 0 1 0 .4l.2-.2a2.2 2.2 0 0 1-.2-.8 3 3 0 0 1 .4.2.7.7 0 0 1 0-.1 4.1 4.1 0 0 1 .2-.6l-.1-.2h-.1l-.3.6ZM67.1 51.3ZM107.4 45.2a4.6 4.6 0 0 1 .8.4s0 0-.4 0a1.9 1.9 0 0 1 .6.4h-.7a4.6 4.6 0 0 1-.5.6 1 1 0 0 1-.1.1 3.6 3.6 0 0 1 .5.3 3.2 3.2 0 0 1-.6.2 2 2 0 0 1 .5.4h-.5l-.1.2a1 1 0 0 1 .2.1 1.2 1.2 0 0 1 .8.2 2.8 2.8 0 0 1-.1-.4s0 0 .2.2a1.1 1.1 0 0 1-.2-.5s.2.1.4.3a3 3 0 0 1 .4 0 .6.6 0 0 1 .1 0 2.2 2.2 0 0 1 0-.4 2 2 0 0 1 .3.1 1.2 1.2 0 0 1-.1-.3s0 0 .2.2h.2a.6.6 0 0 1 0-.2c-.5-.2-.5-1-.5-1h.2a1.3 1.3 0 0 1 .2-1 .9.9 0 0 1 0-.2h-.3l-.2.4a1.7 1.7 0 0 1 0-.5 2.7 2.7 0 0 1-.4.4 3 3 0 0 1 0-.5.8.8 0 0 1-.2 0 4.2 4.2 0 0 1-.6.2l-.1.3ZM58.9 28ZM49.5 45.7ZM41.5 54.8ZM65.8 22.8h.1a.6.6 0 0 1 0-.2l-.2.1v.1ZM59.4 28l.2.1a1 1 0 0 0-.2 0 2 2 0 0 1 0 .4 2.2 2.2 0 0 1 .1-.2v-.1h.1a.8.8 0 0 0 .1 0v.1a1.8 1.8 0 0 1 .2-.2V28a.6.6 0 0 0 0-.1 1.1 1.1 0 0 1 0-.1 1.7 1.7 0 0 1 .2-.3 3 3 0 0 1-.7.3v.1ZM56.6 60.8l.2-.2a2.3 2.3 0 0 1 0 .4 1 1 0 0 0 .2-.3s0 0 0 .2a1.3 1.3 0 0 1 .3.1l-.2-.3a1.3 1.3 0 0 1 .3 0 3 3 0 0 1 .1-.3 3.8 3.8 0 0 1-1 0 2 2 0 0 1 .1.4ZM52.6 61.9v-.1ZM47.5 57a.8.8 0 0 1 0-.2v-.1a1.2 1.2 0 0 1-.2-.2l-.1.4.1.2a1 1 0 0 1 .2-.1ZM49 45.7ZM59.7 28.4a1.1 1.1 0 0 1 .2.3.7.7 0 0 1 0-.2h-.2ZM59 23.7ZM44.6 48.7ZM44.1 50ZM45.4 48.6ZM44 49.7v.1a1.1 1.1 0 0 1 .2-.3 3 3 0 0 1-.3 0v.2ZM59 23.5a.8.8 0 0 1-.2.2 1.5 1.5 0 0 1 .2 0v-.2ZM58.5 23.7a1.6 1.6 0 0 1 0-.3 2 2 0 0 1-.3.2l.1.1a.8.8 0 0 1 .2 0ZM44 48.7v.2l.4.1a1.6 1.6 0 0 1-.5.2h.1a2.7 2.7 0 0 1 .6 0 2.8 2.8 0 0 1-.2-.5.7.7 0 0 1-.3-.1.8.8 0 0 1-.2 0ZM97.3 82.3a.9.9 0 0 1 0 .2v-.2ZM101.6 61.4l-.2-.2v.2l.1.1a1.2 1.2 0 0 1 .1-.1ZM106.4 74ZM106 75a1.1 1.1 0 0 1 .2.2.9.9 0 0 0 0-.2h-.1ZM116 60h-.2.1ZM97.7 82.2h-.1a1.4 1.4 0 0 1 .1 0ZM114.1 68.8ZM107.5 57.4a2 2 0 0 1-.2.1v-.2a2.3 2.3 0 0 1-.5.2.7.7 0 0 0 .1-.2 2 2 0 0 1-.6.2 2.3 2.3 0 0 1 .2-.4 2 2 0 0 1-.3 0l.1.2a5 5 0 0 1-.8-.4 3 3 0 0 1-.3.2 5 5 0 0 1-.2.7l-.2-.4a1.9 1.9 0 0 1-.2.7l-.2-.6a2 2 0 0 1-.1.5l.2.2a1.6 1.6 0 0 0-.5 0 3.7 3.7 0 0 1 .4.3h-.4a3.2 3.2 0 0 1 .4.5 3.1 3.1 0 0 1 .3-.5s0 0 0 .3a1.1 1.1 0 0 1 .2-.4v.4a1.3 1.3 0 0 1 .2-.3l.1.5a.4.4 0 0 1 0 .1 1 1 0 0 1 .2-.2v-.2l.1.1a1.4 1.4 0 0 1 .2.1 2 2 0 0 1-.2-.6 1.8 1.8 0 0 1 .4.3.6.6 0 0 1 .1-.1l-.1-.1a.5.5 0 0 0 .2 0 1.5 1.5 0 0 1 .3 0 2.2 2.2 0 0 1-.1-.2 1.5 1.5 0 0 1 .7.1 2.5 2.5 0 0 1 .1-.4 2 2 0 0 1-.2-.1 1.6 1.6 0 0 1 .5-.3l.1-.1ZM104.8 42.9l.1.2a2.9 2.9 0 0 1 .3-.4h-.2a3.2 3.2 0 0 1 .4-.3 2.7 2.7 0 0 0-.3 0 1.7 1.7 0 0 1-.3.5ZM116.5 59.8l-.1-.2h-.1l.2.2ZM110.5 46.2a1 1 0 0 1 .2 0 1.3 1.3 0 0 1-.1-.2h-.1v.2ZM120.8 36.4ZM77 62.3ZM69.3 84.3ZM118.5 85.5ZM114 70.8a2.3 2.3 0 0 1 .5.3 2.1 2.1 0 0 1 0-.3 2.1 2.1 0 0 1 .3.2 1 1 0 0 0-.1-.3s0 0 .2.1a1.2 1.2 0 0 1 .2 0l-.4-.2a1.2 1.2 0 0 1 .4-.2h-.2a2.5 2.5 0 0 1 1-.3 2 2 0 0 1-.2-.3v.3a2.2 2.2 0 0 1-.3-.6l-.2.6a2 2 0 0 1-.3-.7v.4a5 5 0 0 1-.4-1l-.1.3a2.4 2.4 0 0 1 .3.6 2.7 2.7 0 0 1-.7-.3 3 3 0 0 1-.2.6v-.2a1.2 1.2 0 0 1-.2.4l-.1-.4a1.2 1.2 0 0 1-.1.3l.1.2a1 1 0 0 0-.3 0 2.4 2.4 0 0 1 .3.2 2 2 0 0 1-.3 0 2.3 2.3 0 0 1 .4.4.8.8 0 0 0-.3 0 1.7 1.7 0 0 1 .3.3h.2a1.6 1.6 0 0 1-.2-.5 2 2 0 0 1 .5.3.8.8 0 0 0 0-.2ZM118.6 68.6h.1a1.7 1.7 0 0 1 .1-.2 1.3 1.3 0 0 1-.2 0v.2ZM113 71.2ZM110.2 46.3v.1a1 1 0 0 1 .1-.1 1.3 1.3 0 0 1-.1-.2v.2ZM114 76ZM97.7 82.8a2.3 2.3 0 0 1-.3 0l.1.2a2.6 2.6 0 0 1 .2-.2ZM113.8 75.8a2.3 2.3 0 0 1 .1-.2 2.4 2.4 0 0 1-.2-.1.6.6 0 0 1-.2.2.8.8 0 0 1 0 .2h.2v-.1ZM98.4 83.2a1.2 1.2 0 0 1 .1-.3v.3ZM114 75.8ZM117.7 59.5v-.2a2.1 2.1 0 0 1-.3-.1 2.7 2.7 0 0 1 .3.3ZM118.2 68.9zM118 58.6ZM104.4 42.7a2.3 2.3 0 0 1-.5.2 2.2 2.2 0 0 1 .4 0l.2-.2a1.5 1.5 0 0 0 0 .5 3 3 0 0 1 0-.5.7.7 0 0 1-.1 0ZM102.7 60.7v.3a1.9 1.9 0 0 1 .3 0 2.4 2.4 0 0 1-.1-.3h-.2ZM64 45.8a3.7 3.7 0 0 1 .3.3 1.3 1.3 0 0 1 .2 0 2.6 2.6 0 0 1-.5-.3ZM104.2 59.9ZM103.7 59.7ZM105.3 56.7v.2-.2ZM100.4 62V61.6h.1-.2a1.6 1.6 0 0 1 .1.2ZM102 61v.1a2 2 0 0 1 .1.3l.1-.2-.1-.1a1.2 1.2 0 0 1-.2 0ZM107.2 58v-.1.1ZM67.6 72.4h-.2v.3l.1.2a3 3 0 0 1 0-.5ZM67.8 72.8a1.2 1.2 0 0 0-.3.2.5.5 0 0 1 0 .2l.2-.1a1.8 1.8 0 0 1 0-.3ZM68.2 73.4l.1-.2a1.8 1.8 0 0 1-.2.1V73.6a.6.6 0 0 1 .2-.1.5.5 0 0 1 0-.1ZM65.5 71a1 1 0 0 1 0-.2h-.2l-.3.4a1.6 1.6 0 0 1 0-.5 2.8 2.8 0 0 1-.4.3 2.9 2.9 0 0 1 0-.4 1.2 1.2 0 0 1-.2 0 3.9 3.9 0 0 1-.5.2l-.3.4a2.3 2.3 0 0 1 0 .4 2.8 2.8 0 0 1 .7-.4l-.1.3a1.2 1.2 0 0 1 .3-.3s0 .2-.1.4a2.8 2.8 0 0 1 .1.5 2.3 2.3 0 0 1 .4-.2 1.6 1.6 0 0 1-.2.7 1.6 1.6 0 0 0 .2.2 2.2 2.2 0 0 1 0-.4 1.7 1.7 0 0 1 .2.2 2.3 2.3 0 0 1 0-.6.8.8 0 0 0 .2.3 1.3 1.3 0 0 1 0-.2 1.4 1.4 0 0 1 .2-1.1ZM65.9 71.6a3.2 3.2 0 0 1-.2.5 2.3 2.3 0 0 1 .1-.2 2.8 2.8 0 0 0 .1.5 1 1 0 0 1 .1-.1v.3a1 1 0 0 1 .2-.1 2.6 2.6 0 0 1 .1-.4 3.4 3.4 0 0 1-.4-.5ZM67.4 72a1.3 1.3 0 0 0-.3.3s0-.1 0-.3a1.7 1.7 0 0 1-.3-.2l.1.5a1.6 1.6 0 0 1-.4-.4v.3h-.1a2.8 2.8 0 0 1 .3.5 2.8 2.8 0 0 1 .5-.4v.2a.9.9 0 0 1 .1-.1l.1-.3ZM93.8 38a3.8 3.8 0 0 1 0 .6 4.5 4.5 0 0 1-.8-1 4.5 4.5 0 0 1-.6 1V38a1.9 1.9 0 0 1-.4.6s0-.3 0-.7a4.8 4.8 0 0 1-.5-.5 1 1 0 0 1 0-.2 3.7 3.7 0 0 1-.4.5 3.4 3.4 0 0 1-.2-.6 2 2 0 0 1-.4.5s0-.2 0-.6l-.1-.1a1.3 1.3 0 0 1-.2.2.9.9 0 0 1 0 .4 3.3 3.3 0 0 1-1 1.2 5.6 5.6 0 0 1 0-.7 3 3 0 0 1-.2 0 2.6 2.6 0 0 1 0 .3.8.8 0 0 0-.2 0 2 2 0 0 1 0 .1 2.3 2.3 0 0 1-.1-.2h-.2a2 2 0 0 1 0 .3 2 2 0 0 1-.4-.3 1.2 1.2 0 0 1 0 .4s0 0-.2-.2h-.2a2.1 2.1 0 0 1 .1.3 2 2 0 0 1-.3-.2 1.2 1.2 0 0 1 0 .4s0 0-.2-.2a2.3 2.3 0 0 1 .2.5c-.2-.1-.2 0-.5-.3a2.4 2.4 0 0 1-.2.3 1.9 1.9 0 0 1-.2-.3 1.2 1.2 0 0 1-.1.3s0-.1-.1-.3h-.1c-.2.5-1.1.8-1.1.8l.1-.2a1.2 1.2 0 0 1-.4.2s0-.2.2-.4a1.3 1.3 0 0 1-.3.1v.2a1 1 0 0 0-.2-.2 2.3 2.3 0 0 1 0 .3l-.2-.1a2.2 2.2 0 0 1 0 .5.8.8 0 0 0-.2-.2 2 2 0 0 1-.1.6 1.9 1.9 0 0 1-.3-.4 2.4 2.4 0 0 1 0 .3 2.7 2.7 0 0 1-.4-.6 2.9 2.9 0 0 1-.5.6v-.3a1 1 0 0 1-.1.3 3 3 0 0 1 .3 0 3 3 0 0 1-.3.4 1.1 1.1 0 0 1 .2 0l.7.2a3 3 0 0 1-.7.3h.4a1.6 1.6 0 0 1-.4.3 2.8 2.8 0 0 1 .5.2 3.1 3.1 0 0 1-.5.3l.2.1h.5a1.7 1.7 0 0 1-.4.3 2.6 2.6 0 0 1 .5.1 3 3 0 0 1-.3.3 1 1 0 0 1 .1 0l.1.2V43l.2.1h.1a2.8 2.8 0 0 1 .4.4 4 4 0 0 1 0-.4c.2.3.3.3.4.7a1.9 1.9 0 0 1 .1-.2s.1.2.3.5a1.7 1.7 0 0 1 .2-.4 4.2 4.2 0 0 1 0-.6 4.5 4.5 0 0 1 .8.8 4.2 4.2 0 0 1 .2-.5l.3-.5v.4a1.9 1.9 0 0 1 .4-.6l.1.6a3 3 0 0 1 .4 0 4.6 4.6 0 0 1-.4-1s0 0 .3.2a2 2 0 0 1-.2-.7s.2.2.6.4a4.8 4.8 0 0 1 .7 0 1 1 0 0 1 .2 0 3.6 3.6 0 0 1-.2-.6 3 3 0 0 1 .6.2 2 2 0 0 1-.2-.6s.2.1.4.3h.3a1 1 0 0 1 0-.3c-.8-.3-.9-1.7-.9-1.7a4.4 4.4 0 0 1 1 .8 4.5 4.5 0 0 1 .4-1s0 .1 0 .4a1.9 1.9 0 0 1 .4-.6l.1.6a2.2 2.2 0 0 1 .3-.5l.1.9a.7.7 0 0 1 0 .1 1.4 1.4 0 0 1 .3-.3l-.1-.3a1 1 0 0 0 .2.1v.1a2.5 2.5 0 0 1 .4.1 3.1 3.1 0 0 1-.3-1 2.8 2.8 0 0 1 .7.5 1.4 1.4 0 0 1 0-.1V39a.9.9 0 0 0 .2 0 1.8 1.8 0 0 1 .1-.1v.1a2.6 2.6 0 0 1 .5 0 3.4 3.4 0 0 1-.2-.4 2.3 2.3 0 0 1 1 .3 4 4 0 0 1 .2-.5 3 3 0 0 1-.3-.4ZM75.5 55.8h-.2a1.1 1.1 0 0 1 0 .3h.1v-.3ZM75 56ZM68.8 73.4l.1-.2v.2ZM63.5 70.7l-.1.3a3.8 3.8 0 0 1-.1-1 3.8 3.8 0 0 1-1 .3 3.4 3.4 0 0 1 .3-.4 1.5 1.5 0 0 1 0-.4l-.4.3a1.5 1.5 0 0 1 0-.2l-.5.4a3.5 3.5 0 0 1 0-.4 2.5 2.5 0 0 1-.6.2 3 3 0 0 1 .3-.4 1.6 1.6 0 0 1-.3-.2.8.8 0 0 0 0 .3 2.3 2.3 0 0 1-.4-.3 2 2 0 0 1 0 .3 2.3 2.3 0 0 1-.3-.2 1 1 0 0 0 .1.3s0 0-.1-.1a1.3 1.3 0 0 1-.3.2h.4a1.2 1.2 0 0 1-.4.2h.3a3 3 0 0 1-.6.4 3.7 3.7 0 0 1 .3.3 2 2 0 0 1-1-.2v.2l.1.2a1.3 1.3 0 0 1-.3 0 1.9 1.9 0 0 1 .1.3 2.2 2.2 0 0 1-.3-.1 1.8 1.8 0 0 1 0 .4c0 .2.2.3.2.3a1.2 1.2 0 0 1-.5-.2l.2.2a3 3 0 0 1-.5-.2 4 4 0 0 1 0 .4 2.5 2.5 0 0 1-.3-.3 1.4 1.4 0 0 1-.2 0v.1a1.2 1.2 0 0 1-.3-.1v.2a1.2 1.2 0 0 1-.3-.3.6.6 0 0 0 0 .2 2.4 2.4 0 0 1-.4-.3 2.1 2.1 0 0 1 0 .4 2 2 0 0 1-.4-.5.8.8 0 0 0 0 .2 2.3 2.3 0 0 1-.3-.4l-.1.2a2.2 2.2 0 0 1-.1-.4 1.8 1.8 0 0 1-.3.2 1.7 1.7 0 0 1 0 .6 2.4 2.4 0 0 1-.3-.2 3.4 3.4 0 0 1-.3.4v.5a1.2 1.2 0 0 1-.2-.4v.3a2.8 2.8 0 0 1-.5-.5 2.7 2.7 0 0 1-.4.6 2.6 2.6 0 0 1 0-.5 1.5 1.5 0 0 1-.7 0 2.3 2.3 0 0 1 .2-.1 2 2 0 0 1-.3 0 1.1 1.1 0 0 1-.1-.1.6.6 0 0 0-.2 0s0 0 .2-.1v-.1a1.7 1.7 0 0 1-.6.2 2 2 0 0 1 .3-.6 1.2 1.2 0 0 1-.2 0v.1a.7.7 0 0 0-.2 0s0 0 .1-.1a1 1 0 0 1 0-.3.5.5 0 0 1-.1.1l-.2.5a1.2 1.2 0 0 1-.1-.3c0 .2-.1.3-.2.3a4.1 4.1 0 0 1 .2.5 4.5 4.5 0 0 1-1-.6 4.6 4.6 0 0 1-.3 1l-.1-.3a1.9 1.9 0 0 1-.2.7l-.3-.6a1.9 1.9 0 0 1-.1.4l.2.3a1.6 1.6 0 0 0-.5 0 3.5 3.5 0 0 1 .4.3 3.5 3.5 0 0 1-.4 0 3.6 3.6 0 0 1 .6.7 1.2 1.2 0 0 0-.4 0 3.2 3.2 0 0 1 .5.8 3 3 0 0 1-.7-.2c.2.4 0 .7-.2 1a2.9 2.9 0 0 1 .2-.4 2.7 2.7 0 0 1 .4.8 1 1 0 0 0 0-.3 3.1 3.1 0 0 1 .3.6l.2-.2a3 3 0 0 1 0 .3l.2-.2a2.2 2.2 0 0 1-.2-.7 3.2 3.2 0 0 1 .4.2.7.7 0 0 1 0-.1 4 4 0 0 1 .1-.6l-.2-.5a1.6 1.6 0 0 1 .5.2l-.2-.3a3.9 3.9 0 0 1 .9.4 3.8 3.8 0 0 1 .2-1 3.4 3.4 0 0 1 .3.7 2 2 0 0 1 .8-.4 2.8 2.8 0 0 1-.1.4 2.3 2.3 0 0 1 .4-.1v-.1a.8.8 0 0 0 .3 0s0 .1-.1.2v.1a2.3 2.3 0 0 1 .6-.4 2.6 2.6 0 0 1-.1.8 2 2 0 0 1 .2-.1v-.2a1.2 1.2 0 0 1 0 .1.8.8 0 0 0 .2-.1v.2a1.1 1.1 0 0 1 .2.3.6.6 0 0 1 0-.1v-.7a1.6 1.6 0 0 1 .3.3V74a1.5 1.5 0 0 1 .4.5v-.3a3.8 3.8 0 0 1 .5.7 2.7 2.7 0 0 1 .2-.2v-.1a4.4 4.4 0 0 1 .4-.4 3.4 3.4 0 0 1 0 .8v.1l.2-.1-.1-.2h.1a2.6 2.6 0 0 1 0-.5.8.8 0 0 0 .2.2 2 2 0 0 1 0-.6 1.8 1.8 0 0 1 .3.3 2.3 2.3 0 0 1 .1-.3l.2.5a1 1 0 0 1 0-.2s.1.2.2.4a1 1 0 0 1 .2-.3 2.6 2.6 0 0 1 0-.4 2.7 2.7 0 0 1 .5.5 2.3 2.3 0 0 1 .1-.3 2.4 2.4 0 0 1 .2-.3s0 0 0 .2a1.1 1.1 0 0 1 .2-.3v.3a1.9 1.9 0 0 1 .3 0 2.8 2.8 0 0 1-.2-.6s0 0 .2.1a1.2 1.2 0 0 1-.1-.4s.1.1.3.3a3.3 3.3 0 0 1 .5 0 2.5 2.5 0 0 1 0-.4 2 2 0 0 1 .3.1 1.2 1.2 0 0 1 0-.3s0 0 .2.1h.1a.5.5 0 0 1 0-.1c-.4-.2-.5-1-.5-1a2.8 2.8 0 0 1 .6.4 2.8 2.8 0 0 1 .3-.6s0 0 0 .2a1.2 1.2 0 0 1 .2-.4v.4a1.3 1.3 0 0 1 .3-.3v.5a.5.5 0 0 1 0 .1.9.9 0 0 1 .2-.2v-.1a.8.8 0 0 1 .1 0 1.8 1.8 0 0 1 .2.2 2 2 0 0 1-.2-.7 1.7 1.7 0 0 1 .5.3v-.2a.8.8 0 0 1 .2 0 1.6 1.6 0 0 1 .3 0 2.2 2.2 0 0 1-.2-.2 1.5 1.5 0 0 1 .7.2 2.4 2.4 0 0 1 .1-.5l.1.2a1.3 1.3 0 0 1 0-.4ZM40.6 78.7ZM100.1 40.9a1.9 1.9 0 0 1 .6-.5s-.1.3-.2.7a5.5 5.5 0 0 1 .3.7 3.6 3.6 0 0 1 .5-.3 3.2 3.2 0 0 1 0 .7 2 2 0 0 1 .5-.4s0 .2-.1.5v.2a1.1 1.1 0 0 1 .3-.1 1 1 0 0 1 .2-.5 2.6 2.6 0 0 1-.4-.3 2.8 2.8 0 0 1 .4-.1 2 2 0 0 1-.3-.3v.1a1.4 1.4 0 0 1 0-.2.8.8 0 0 0-.3-.1s.1 0 .2 0a1.2 1.2 0 0 1 0-.1 2.3 2.3 0 0 1-.6-.2 2.7 2.7 0 0 1 .8-.4 2.1 2.1 0 0 1-.3-.1.8.8 0 0 0-.2 0l.1-.2a1.2 1.2 0 0 1 .2-.3.6.6 0 0 1-.1 0l-.6.4a1.6 1.6 0 0 1 .1-.4l-.4.3a1.5 1.5 0 0 1 .2-.6l-.3.2a3.8 3.8 0 0 1 .3-.8 3.7 3.7 0 0 1-1-.1s1-.8 1.5-.5a.9.9 0 0 1 .2-.1l-.1-.2h-.4a1.7 1.7 0 0 1 .4-.3 2.7 2.7 0 0 1-.5-.3 3 3 0 0 1 .5-.2.9.9 0 0 1-.1 0 4.2 4.2 0 0 1-.4-.5l-.5-.1a1.6 1.6 0 0 1 .5-.3h-.3a3.7 3.7 0 0 1 .8-.4 2.7 2.7 0 0 1-.2-.3l-.4.3a1.8 1.8 0 0 1 .1-.4h-.2v-.1a2.5 2.5 0 0 1-.1-.2 2 2 0 0 1 0 .6s-.2-.2-.4-.4h-.3a3.5 3.5 0 0 1 .2.5 3.2 3.2 0 0 1-.6-.3 2 2 0 0 1 0 .6s0-.1-.3-.3a3.6 3.6 0 0 1 .3.9c-.2-.3-.3-.2-.7-.5a1.2 1.2 0 0 1-.2-.1 3.6 3.6 0 0 1-.1.5 3.3 3.3 0 0 1-.4-.5 2 2 0 0 1-.2.5l-.2-.5h-.2c-.2.8-1.7 1.3-1.7 1.3l.2-.4a1.9 1.9 0 0 1-.7.4s.2-.3.3-.6a2 2 0 0 1-.4.2v.3a1.5 1.5 0 0 0-.3-.4 3.5 3.5 0 0 1 0 .5l-.3-.2a3.6 3.6 0 0 1-.2.8 1.2 1.2 0 0 0-.2-.3 2.8 2.8 0 0 1-.1.7 4.2 4.2 0 0 1 .3 1 4.6 4.6 0 0 1 1-.6s-.1 0-.3.4a1.9 1.9 0 0 1 .7-.4s-.1.2-.3.6a4.8 4.8 0 0 1 .3.7v.1a3.7 3.7 0 0 1 .5-.3 2.4 2.4 0 0 1-.2 1 3.2 3.2 0 0 0 .2.3 3.7 3.7 0 0 1 0-.5l.3.2a3.6 3.6 0 0 1 .1-.8 1.2 1.2 0 0 0 .3.4 3.3 3.3 0 0 1 .2-1 2.9 2.9 0 0 1 .4.7 3.6 3.6 0 0 1 .3-.4 4.8 4.8 0 0 0 0 .8 1.8 1.8 0 0 1 .2-.2v.6a1.7 1.7 0 0 1 .4-.3 4.2 4.2 0 0 1 .2-.6 4.4 4.4 0 0 1 .5 1.1 4.5 4.5 0 0 1 .8-.7s0 0 0 .4ZM44.3 40ZM41 78.3V78v.2ZM40.6 78.4ZM49.1 74.9a1.6 1.6 0 0 1-.1.1l.1.2v-.3ZM56.2 75.7a1 1 0 0 1 0 .2 1.2 1.2 0 0 1 0-.2ZM56.2 75.7l.2.1.2-.1a.5.5 0 0 1-.2-.2.7.7 0 0 1-.2.2ZM106.4 94.4ZM102 102ZM47.3 15.3a1.8 1.8 0 0 1-.1-.2 1.5 1.5 0 0 1 .3 0 1 1 0 0 1-.2-.2s0 0 .2 0h.1a.5.5 0 0 1 0-.2.6.6 0 0 1-.4-.1l-.2.6.1.3a1.3 1.3 0 0 1 .2-.2ZM98 83a1.9 1.9 0 0 1 .1-.1 4.6 4.6 0 0 0-.6.2 3.5 3.5 0 0 1 .2.4 4.4 4.4 0 0 1 .5-.5H98ZM95.4 82.7ZM97 82.7v-.4a2.8 2.8 0 0 1-.2-.4 2.2 2.2 0 0 1-.3.2 2 2 0 0 1-.1-.4 1.2 1.2 0 0 1-.2.3s0 0 0-.3l-.1-.1a.8.8 0 0 1-.1.1.6.6 0 0 1 0 .4 2.4 2.4 0 0 1 .1.4 3.4 3.4 0 0 1 .3-.4 4.7 4.7 0 0 0 0 .8 2 2 0 0 1 .2-.2v.6a1.8 1.8 0 0 1 .4-.3v-.3ZM99.9 67.5a1.2 1.2 0 0 1 0-.2.5.5 0 0 1-.1 0v.2ZM113.6 74.6a2 2 0 0 1-.4-.2 2.2 2.2 0 0 1 .5-.2l-.4-.2h.2a1.4 1.4 0 0 1 .1-.3c-.2 0-.3.2-.3.2a1.2 1.2 0 0 1 .1-.4l-.2.1a3 3 0 0 1 .3-.6 2.8 2.8 0 0 1-.8-.1s.7-.6 1.1-.4a.8.8 0 0 1 .1 0v-.2h-.4a1.2 1.2 0 0 1 .4-.3 2 2 0 0 1-.4-.1 2.4 2.4 0 0 1 .3-.2 1.8 1.8 0 0 1-.3-.3 2 2 0 0 1-.3-.1c.2.3-.2.7-.2.7v-.4a1.2 1.2 0 0 1-.2.2v.2l-.4-.2v.2a2.4 2.4 0 0 1 .2.2.7.7 0 0 0-.3 0l-.1.1v-.2h-.2a2.3 2.3 0 0 1 0 .3 2.2 2.2 0 0 1-.4-.3 1.2 1.2 0 0 1 0 .4s0 0-.2-.2h-.2a2.2 2.2 0 0 1 .1.3 2 2 0 0 1-.4-.2 1.2 1.2 0 0 1 .1.4s0-.1-.2-.2a2.2 2.2 0 0 1 .2.5c-.2-.1-.2 0-.5-.3a2.6 2.6 0 0 1-.2.3 2 2 0 0 1-.2-.3 1.2 1.2 0 0 1-.1.3s0-.1-.1-.3a1.4 1.4 0 0 0-.2 0c-.1.5-1 .8-1 .8v-.2a1.2 1.2 0 0 1-.3.2s0-.2.2-.4a1.3 1.3 0 0 1-.3.1v.2a1 1 0 0 0-.2-.2 2.4 2.4 0 0 1 0 .3 2 2 0 0 1-.2-.1 2.2 2.2 0 0 1 0 .5.8.8 0 0 0-.2-.2 2 2 0 0 1-.2.6 1.9 1.9 0 0 1-.2-.4 2.5 2.5 0 0 1 0 .3 2.8 2.8 0 0 1-.5-.6 2.5 2.5 0 0 1-.2.4l.2.1a.8.8 0 0 0-.3.1 2 2 0 0 1 .6.3 1.8 1.8 0 0 1-.5.1l.2.2a3 3 0 0 0-.5 0 1 1 0 0 1 .1.1s0 0-.1 0a3 3 0 0 1 .4.4 3 3 0 0 1 .2-.4 2.7 2.7 0 0 1 .3.8 1 1 0 0 0 .1-.3 3 3 0 0 1 .2.6l.2-.2a2.8 2.8 0 0 1 0 .3l.2-.2a2.2 2.2 0 0 1-.2-.7 3.2 3.2 0 0 1 .4.2.9.9 0 0 1 0-.1 4.1 4.1 0 0 1 .2-.6l-.3-.5a1.6 1.6 0 0 1 .5.2l-.1-.3a3.9 3.9 0 0 1 .8.4 3.7 3.7 0 0 1 .2-1 3.4 3.4 0 0 1 .3.7 2 2 0 0 1 .8-.4 3.1 3.1 0 0 1-.1.4 2.3 2.3 0 0 1 .4-.1v-.1a.8.8 0 0 0 .3 0s0 .1-.1.2v.1a2.3 2.3 0 0 1 .6-.4 2.6 2.6 0 0 1 0 .8 1.7 1.7 0 0 1 .1-.1v-.2a1.4 1.4 0 0 1 .1.1.8.8 0 0 0 .1-.1v.2a1.1 1.1 0 0 1 .2.3.8.8 0 0 1 0-.1v-.7a1.6 1.6 0 0 1 .3.3V74a1.5 1.5 0 0 1 .4.5v-.3a3.8 3.8 0 0 1 .5.7 2.9 2.9 0 0 1 .3-.3ZM64 46.2ZM91 75.6a.6.6 0 0 1-.2 0 5 5 0 0 1-.8.9 4.3 4.3 0 0 1 .8.3 2.7 2.7 0 0 1 .2-.4 2.2 2.2 0 0 1-.3-.1 2 2 0 0 1 .3-.3 1.2 1.2 0 0 1-.4 0s.1-.1.3-.2v-.2ZM99.4 67a2.8 2.8 0 0 1-.3-.4l-.1.3v.2a2.5 2.5 0 0 1 .4-.1ZM89.7 74.4a3.9 3.9 0 0 1-.4.4h.1a5.7 5.7 0 0 1 .7.5h.2a3 3 0 0 1-.4-.6s0 0 .2.1a1.2 1.2 0 0 1-.2-.3s.1 0 .3 0a1.2 1.2 0 0 1-.1-.2h-.2a1 1 0 0 0 .2-.2 2.1 2.1 0 0 1-.3 0V74a2.3 2.3 0 0 1-.5 0 .7.7 0 0 0 .2-.2 1.8 1.8 0 0 1-.5 0 4.3 4.3 0 0 1-.5.6 2.7 2.7 0 0 1 1.2 0ZM99.3 67.8a1.8 1.8 0 0 0 .2.2 2.3 2.3 0 0 1 0-.3l.1.1a2.1 2.1 0 0 1 .1-.4 1 1 0 0 1-.3 0 1.3 1.3 0 0 1 0 .4ZM88.5 81.6v.3h.1a1.7 1.7 0 0 1 .2-.4 4.3 4.3 0 0 1-.4.2h.1ZM95.4 82a2.9 2.9 0 0 1-.6 0s0 0 .2 0a1.1 1.1 0 0 1-.5 0s.1-.1.3-.3a1.2 1.2 0 0 1-.4 0s.2-.1.4-.3a.4.4 0 0 1 0-.1 1 1 0 0 1-.2 0v.2a1.2 1.2 0 0 0 0-.2h-.2.1a1.8 1.8 0 0 1 0-.2 2 2 0 0 1-.4.5v.1a4.8 4.8 0 0 1 .2.7 1.1 1.1 0 0 1 0 .1 3.7 3.7 0 0 1 .5-.3 2.5 2.5 0 0 1-.2 1 3.2 3.2 0 0 0 .2.3 3.4 3.4 0 0 1 0-.5l.3.2a3.7 3.7 0 0 1 .1-.8.9.9 0 0 0 .2.2 2.7 2.7 0 0 1 0-.6ZM94 81v.2a.6.6 0 0 0-.2-.2 1.7 1.7 0 0 1-.2-.3v.3a1.4 1.4 0 0 1-.3-.7 2.6 2.6 0 0 1-.5.2 2.7 2.7 0 0 1 .4-.6 2.8 2.8 0 0 1-.6-.3s0 0 .2 0a1.2 1.2 0 0 1-.4-.2s.2 0 .4-.1a3 3 0 0 1 .3-.4 2.2 2.2 0 0 1-.3-.2 1.6 1.6 0 0 1 .5-.2 1.6 1.6 0 0 1 .1-.2 2.1 2.1 0 0 1-.2.1v-.2a2.2 2.2 0 0 1-.5.2.7.7 0 0 0 .1-.2 2 2 0 0 1-.6.2 2 2 0 0 1 .2-.3 2.5 2.5 0 0 1-.5 0 .6.6 0 0 0 .2-.2 1.2 1.2 0 0 1-.4 0s0 0 .1 0a1 1 0 0 1-.3-.1 2.5 2.5 0 0 1-.4.2 2.7 2.7 0 0 1 .3-.7 2.8 2.8 0 0 1-.7-.1h-.4a2.5 2.5 0 0 1 .2 1.3 3.7 3.7 0 0 1-.4-.3 3 3 0 0 1 0 .5h.1l-.1.1a1 1 0 0 0 0 .3s-.1 0-.2-.2a1.3 1.3 0 0 1-.2 0 3.1 3.1 0 0 1 .4 1 3.5 3.5 0 0 1-1-.5 3.2 3.2 0 0 1 0 .3h.3l-.2.2a1 1 0 0 0 .1.2s0 0-.2-.1a1.5 1.5 0 0 1-.5.1.8.8 0 0 1 .2 0l1 .3a2.2 2.2 0 0 1-.7.3l.7.2a2 2 0 0 1-.7.3h.4a5.3 5.3 0 0 1-.6.3l.1.5a2 2 0 0 1 .3-.5l.2.9a.7.7 0 0 1 0 .1 1.5 1.5 0 0 1 .2-.3l-.1-.3a1 1 0 0 0 .2.1v.1a2.1 2.1 0 0 1 .4.1 3.2 3.2 0 0 1-.3-1 2.7 2.7 0 0 1 .7.5 1.5 1.5 0 0 1 .1-.1l-.2-.2a.8.8 0 0 0 .3 0l.1-.1v.1a2.8 2.8 0 0 1 .5 0 4 4 0 0 1-.2-.4 2.3 2.3 0 0 1 1 .3 4 4 0 0 1 .3-.8 4.4 4.4 0 0 1 .4 1.2 4.5 4.5 0 0 1 1-.6s-.1 0-.3.4a1.7 1.7 0 0 1 .4-.3V81ZM87.3 81.7a1.2 1.2 0 0 1-.2 0v.5-.4a4.5 4.5 0 0 1 1 .8v-.2a1.4 1.4 0 0 1-.8-.7ZM72.7 35.4ZM75.2 23.8a1.4 1.4 0 0 0 0-.2 2 2 0 0 0 0 .2ZM48.9 75.2ZM44.2 40.9h.2l.4-.2a1.7 1.7 0 0 1-.2.5 2.6 2.6 0 0 1 .5-.1 3 3 0 0 1-.2.4l.8.2a3 3 0 0 1-.7.3h.4a1.6 1.6 0 0 1-.4.3 2.7 2.7 0 0 1 .5.2 3 3 0 0 1-.5.3l.2.1h.5a1.6 1.6 0 0 1-.4.4 2.6 2.6 0 0 1 .6 0 3 3 0 0 1-.4.3 1 1 0 0 1 .1.1h.4v.2a1 1 0 0 0 .2.2 3.4 3.4 0 0 1-.4 0v.3c.3 0 .3.2.5.2l-.2.1a1.6 1.6 0 0 1-.1.4l.4-.3s0 .7-.4.8a2.6 2.6 0 0 1 .4.4 2.7 2.7 0 0 1-.8 0 1 1 0 0 0 .3.3 3.1 3.1 0 0 1-.7 0 3 3 0 0 1 .1.3 3 3 0 0 1-.4 0 1.4 1.4 0 0 0 .3.2s-.1 0-.3 0a1.5 1.5 0 0 1-.2.4l.5-.2a1.6 1.6 0 0 1-.3.5l.3-.2a3.7 3.7 0 0 1-.5.8 3.1 3.1 0 0 1 .6.2 2 2 0 0 1 .3 0 1.2 1.2 0 0 1 0-.3s0 .1.2.2h.2a.6.6 0 0 1 0-.1c-.5-.3-.5-1.1-.5-1.1a2.7 2.7 0 0 1 .6.5V47.2h.1a2.4 2.4 0 0 1 0-.5.8.8 0 0 0 .2.2 2 2 0 0 1 0-.6 1.9 1.9 0 0 1 .3.3 2.5 2.5 0 0 1 0-.3l.3.4a1 1 0 0 1 0-.1s.1.1.2.3a1 1 0 0 1 .2-.2 2.5 2.5 0 0 1 0-.4 2.7 2.7 0 0 1 .5.5 2.2 2.2 0 0 1 .1-.3 2.6 2.6 0 0 1 .2-.3s0 0 0 .2a1.2 1.2 0 0 1 .2-.3v.3a2 2 0 0 1 .3 0 2.8 2.8 0 0 1-.2-.6s0 0 .2.1a1.2 1.2 0 0 1-.1-.4s0 0 .2.1a3.5 3.5 0 0 1-.1-.6 3.7 3.7 0 0 1-1 .4 3.5 3.5 0 0 1 .4-.6 2 2 0 0 1-.8-.4 3 3 0 0 1 .4-.1 2.3 2.3 0 0 1-.3-.3.8.8 0 0 0-.2-.2s0 0 .2 0v-.2a2.3 2.3 0 0 1-.7-.2 2.6 2.6 0 0 1 .8-.3 2.3 2.3 0 0 1-.2-.1H47a.9.9 0 0 0-.1-.1s0 0 .2-.1a1.2 1.2 0 0 1 .1-.3.6.6 0 0 1-.1 0l-.6.4a1.6 1.6 0 0 1 .1-.4l-.4.3a1.6 1.6 0 0 1 .2-.6l-.3.2a3.8 3.8 0 0 1 .4-.9 3.7 3.7 0 0 1-1 0s.9-.8 1.4-.6a.8.8 0 0 1 .2 0v-.2l-.5-.1a1.7 1.7 0 0 1 .4-.2 2.6 2.6 0 0 1-.4-.3 3 3 0 0 1 .4-.2 3 3 0 0 1-.4-.5 3.9 3.9 0 0 1-.1.5 1.2 1.2 0 0 0-.3-.4 3.2 3.2 0 0 1-.2 1 3 3 0 0 1-.4-.6 4 4 0 0 1 0 .5 4.4 4.4 0 0 1-.7-.9 4.5 4.5 0 0 1-.7.9 1 1 0 0 1-.1.5ZM51.3 70.8a2.4 2.4 0 0 1 0-.2H51a1.6 1.6 0 0 1 .2.2ZM45.6 45.5ZM67.4 51v.1ZM61.6 69l-.1.1Z"/><path fill="#73bf44" d="M51.5 71V71.3a1 1 0 0 1 0-.3ZM51.1 69.8a2.1 2.1 0 0 1 .1.2.4.4 0 0 1 .1 0 .6.6 0 0 1 0-.2H51ZM68.2 50.9ZM77.5 27.3ZM67.8 51.1a1.8 1.8 0 0 1-.1.2h.1a2.6 2.6 0 0 1 0-.2ZM72 22.6v-.1ZM63.8 45.4l.3.3a2.8 2.8 0 0 1 .3-.1 1 1 0 0 1 0-.1l-.1-.1H64a1.4 1.4 0 0 1-.3 0ZM64.6 46.5l-.1-.2H64a2.2 2.2 0 0 1 .1.3.6.6 0 0 1 .2 0 1 1 0 0 1 .2-.1ZM73 35.6v-.2a1.4 1.4 0 0 1 0-.3h-.2v.1l.1.1v.2ZM75.6 32.3v.1h.3a1.2 1.2 0 0 1-.1 0 1.3 1.3 0 0 1-.2-.1ZM75.6 32.5v.2h.2a1 1 0 0 1-.2-.2ZM81.4 51l-.2.1v.1c.1 0 .2 0 .2-.2ZM86.5 17.1a3.2 3.2 0 0 1 .4 0 4.6 4.6 0 0 1-.3-.9 3 3 0 0 1-.1.6v.3ZM86.4 16.6a.8.8 0 0 1 0 .1ZM86.9 16.4a1.5 1.5 0 0 1-.1-.2 2.2 2.2 0 0 1-.2-.1l.3.3ZM86 17h.1a1.6 1.6 0 0 1 .1 0l-.1-.3a1 1 0 0 1 0 .1v.2ZM76.2 23.8l.1-.2a.5.5 0 0 0 .1.2 1 1 0 0 1 .1 0 1.7 1.7 0 0 1 0 .3 2.2 2.2 0 0 1 .2-.2 1.4 1.4 0 0 1 .2.6 2.6 2.6 0 0 1 .5 0 2.8 2.8 0 0 1-.6.5 2.9 2.9 0 0 1 .6.3s0 0-.2 0a1.2 1.2 0 0 1 .4.3h-.4a2.9 2.9 0 0 1-.3.4.8.8 0 0 1-.1 0 2 2 0 0 1 .3.2 2 2 0 0 1-.4.2 1.3 1.3 0 0 1 .3.1h-.3v.2c.5 0 1.1.5 1.1.5h-.1a1.8 1.8 0 0 1 .1.3.9.9 0 0 1 0-.1s.1.1.3.3a1.1 1.1 0 0 1 0-.2 2.6 2.6 0 0 1 0-.4 2.7 2.7 0 0 1 .6.5 2.8 2.8 0 0 1 .1-.3 2.6 2.6 0 0 1 .2-.3s0 0 0 .2a1.2 1.2 0 0 1 .3-.4v.4a1.9 1.9 0 0 1 .2 0 2.9 2.9 0 0 1-.2-.7s0 0 .2.2a1.2 1.2 0 0 1-.1-.4s.1 0 .3.2a3.2 3.2 0 0 1 .5 0 2.1 2.1 0 0 1 0-.4 2 2 0 0 1 .3.2 1.2 1.2 0 0 1 0-.4s0 0 .3.2a1.9 1.9 0 0 1-.4-.6 2.4 2.4 0 0 1 0-.5h-.2l.1-.1.1-.2a3.6 3.6 0 0 1-.8 0 1.2 1.2 0 0 0 .3-.3 3.2 3.2 0 0 1-1 0 2.8 2.8 0 0 1 .6-.6h-.3a1 1 0 0 0 .1-.2 1.5 1.5 0 0 1 0-.2 3.1 3.1 0 0 1 .2-.3 3.7 3.7 0 0 1-.4 0l.1-.3a3 3 0 0 1-.4.6s0 0 0-.3a1.3 1.3 0 0 1-.2.5l-.1-.5a3.2 3.2 0 0 1-.4-.3 2.2 2.2 0 0 1-.2.3 2.2 2.2 0 0 1-.2-.4 1.3 1.3 0 0 1-.2.4v-.4h-.2a.7.7 0 0 1 0 .1c.1.5-.4 1.2-.4 1.2a2.9 2.9 0 0 1-.1-.8 3 3 0 0 1-.6.2 1.4 1.4 0 0 1 0 .4ZM85.9 17.1zM76.2 23.3ZM75.6 33.6ZM75.3 23.6l.1.2a2.3 2.3 0 0 1 .4-.4.8.8 0 0 0 0 .3 1.7 1.7 0 0 1 .3-.4 1.3 1.3 0 0 1-.3.1s0-.1.2-.4a1.2 1.2 0 0 1-.2.1v.3a1 1 0 0 0-.2-.3 2.5 2.5 0 0 1 0 .4l-.2-.2a1.9 1.9 0 0 1 0 .3ZM80.8 25h-.3l.1.1.2-.2ZM82.4 39.8a1 1 0 0 1-.2.4l.2.1.3-.1a3 3 0 0 1-.3-.4ZM86 17.1h.1ZM83.1 46.2a1 1 0 0 1 0-.2H83a1.6 1.6 0 0 0 .2.2ZM81.3 51.4a3 3 0 0 1 .3.4 1.8 1.8 0 0 1-.2-.4h-.1ZM73.5 23.4a.6.6 0 0 1 .1 0 .5.5 0 0 1 0-.2 2.5 2.5 0 0 1-.2.2ZM83.8 43.8v-.2.1Z"/><path fill="#73bf44" d="M125.3 76a2.5 2.5 0 0 0 .5 0 2.7 2.7 0 0 0-.7-.4 2.8 2.8 0 0 0 .4-.5s0 0-.2 0a1.2 1.2 0 0 0 .3-.3s-.2 0-.5.1l-.2-.1a2.1 2.1 0 0 0 .4-.4 2 2 0 0 0-.4 0 1.2 1.2 0 0 0 .2-.3s-.1 0-.3 0h-.2a.6.6 0 0 0 .1-.2c.5 0 .9-.8.9-.8a2.8 2.8 0 0 0-.7.3 3 3 0 0 0-.1-.7s0 0-.1.2a1.2 1.2 0 0 0 0-.4s-.2.1-.3.3a1.3 1.3 0 0 0 0-.3l.1-.1a1 1 0 0 1-.3 0 2.3 2.3 0 0 0 .3-.2 2 2 0 0 0-.2-.1 2.3 2.3 0 0 0 .4-.3.7.7 0 0 1-.3 0 2 2 0 0 0 .5-.5 1.9 1.9 0 0 0-.5 0 2.5 2.5 0 0 0 0-.2l-.4.2a1.3 1.3 0 0 0 0-.2s0 .1-.3.2a1.3 1.3 0 0 0 0-.3 2.5 2.5 0 0 0 .3-.3 2.8 2.8 0 0 0-.7.1 3 3 0 0 0 0-.7v.2a1.1 1.1 0 0 0 0-.4l-.3.3a3.2 3.2 0 0 0-.5 0 2.2 2.2 0 0 0 0-.3 2.3 2.3 0 0 0-.4.2 1.2 1.2 0 0 0 0-.4s0 0-.1.2h-.2a.7.7 0 0 0 0-.1c.4-.3.3-1.2.3-1.2a2.7 2.7 0 0 0-.5.6 2.8 2.8 0 0 0-.4-.5s0 0 0 .3a1 1 0 0 0-.5-.2s.1.1.2.3a1.4 1.4 0 0 0-.2 0v-.3a1 1 0 0 1-.3.3 2.2 2.2 0 0 0 0-.4 2 2 0 0 0-.1.2 2.3 2.3 0 0 0-.1-.5.8.8 0 0 1-.2.2 1.2 1.2 0 0 0 0-.2 5.3 5.3 0 0 0 1-.4s0 0-.4-.1a2 2 0 0 0 .7-.3s-.3 0-.7-.2a2.2 2.2 0 0 0 .6-.2s-.4-.1-.9-.3a1 1 0 0 0-.2 0 1.6 1.6 0 0 0 .5-.2l.2.1a1 1 0 0 1 0-.2 2 2 0 0 0 0-.1h-.1a3 3 0 0 0-.1-.4 3.5 3.5 0 0 0 1 .5 3 3 0 0 0-.4-.9h.2l.1.1a1.1 1.1 0 0 1 0-.3 1.5 1.5 0 0 0 .2 0l-.1-.1a2.7 2.7 0 0 0 0-.5 3.9 3.9 0 0 0 .4.3 2.6 2.6 0 0 0-.2-1.2 4.4 4.4 0 0 0 .9-.2 4.9 4.9 0 0 0-1.2-.6 5 5 0 0 0 .8-1s0 .1-.5.2a2.1 2.1 0 0 0 .6-.6s-.3 0-.8.2a5.3 5.3 0 0 0-.7-.4 1.4 1.4 0 0 0-.2 0 3.9 3.9 0 0 0 .5-.5 2.7 2.7 0 0 0-1.2 0 4.3 4.3 0 0 0 .5-.6 4.2 4.2 0 0 1-.8.2 3.5 3.5 0 0 0-.3-1 3.8 3.8 0 0 0-.3.5 3.7 3.7 0 0 0-.3-1 2 2 0 0 1-.2.4 2.2 2.2 0 0 0-.4-.6.4.4 0 0 0 0-.3 2 2 0 0 0 .5 0 2 2 0 0 0-.4-.5.8.8 0 0 1 .3 0 2.3 2.3 0 0 0-.4-.3 2 2 0 0 0 .3 0 2.4 2.4 0 0 0-.3-.3 1 1 0 0 1 .3 0s0 0-.1-.1a1.2 1.2 0 0 0 0-.3l.2.4a1.2 1.2 0 0 0 .1-.4l.1.2a3 3 0 0 0 .2-.7 2.8 2.8 0 0 0 .6.4s-.2-.8-.6-1a.7.7 0 0 0-.1 0l.1-.1h.3a1.2 1.2 0 0 0-.1-.2 2 2 0 0 0 .4 0 2.2 2.2 0 0 0-.2-.3 3.2 3.2 0 0 0 .5-.1l.4.1a1.2 1.2 0 0 0-.2-.3h.2a2.9 2.9 0 0 0-.3-.5 2.8 2.8 0 0 0 .7-.2 2.5 2.5 0 0 0-.4-.2 1 1 0 0 0-.1-.2h.3a1.3 1.3 0 0 0 0-.1 2.9 2.9 0 0 1 .4 0 2.5 2.5 0 0 0-.2-.2 1.8 1.8 0 0 0 .5-.2 2 2 0 0 0-.6-.2.7.7 0 0 1 .3-.1 2.3 2.3 0 0 0-.5-.2l.2-.1a2.4 2.4 0 0 0-.4-.1 1 1 0 0 1 .3-.1s0 0-.2-.1a1.1 1.1 0 0 0 0-.3l.3.3a1.1 1.1 0 0 0-.2-.5l.2.2a2.9 2.9 0 0 0-.2-.7 2.7 2.7 0 0 0 .8 0s-.6-.6-1-.4a.7.7 0 0 0-.2-.1V51h.4a1.2 1.2 0 0 0-.3-.3 2.1 2.1 0 0 0 .4-.1 2.1 2.1 0 0 0-.4-.2.5.5 0 0 0 .1 0 3.3 3.3 0 0 0 .3-.4h.4a1.2 1.2 0 0 0-.3-.3h.2a2.8 2.8 0 0 0-.6-.3 2.7 2.7 0 0 0 .5-.6 2.6 2.6 0 0 0-.5.1 1.5 1.5 0 0 0-.1-.7 2.3 2.3 0 0 0-.2.3 1.7 1.7 0 0 0-.1-.3.6.6 0 0 1-.1-.2s0 0 0 .1h-.2a1.8 1.8 0 0 0 0-.5 2 2 0 0 0-.4.4.7.7 0 0 1 0-.2 2.2 2.2 0 0 0-.3.3l-.1-.2a2.2 2.2 0 0 0-.2.3 1 1 0 0 1 0-.3s0 0-.1.2a1.2 1.2 0 0 0-.3 0l.3-.3a1.2 1.2 0 0 0-.4 0l.2-.1a2.8 2.8 0 0 0-.7-.1 2.8 2.8 0 0 0 .3-.7s-.8.3-.8.8a.7.7 0 0 0-.2 0v-.4a1.3 1.3 0 0 0-.3.3 2 2 0 0 0 0-.4 2.3 2.3 0 0 0-.2.2 3.2 3.2 0 0 0-.3-.5l.1-.4a1.2 1.2 0 0 0-.3.3v-.3a2.9 2.9 0 0 0-.5.5 2.7 2.7 0 0 0-.3-.7 2.6 2.6 0 0 0 0 .4h-.2l-.1-.2a3.8 3.8 0 0 0 0-.6.8.8 0 0 0 0-.2 2.8 2.8 0 0 0 .5.2 2.9 2.9 0 0 0-.2-.5 1.6 1.6 0 0 0 .5.1l-.3-.3V45a1 1 0 0 0 .2 0c.3.6 1.5.7 1.5.7a3.7 3.7 0 0 0-.7-.8 3.9 3.9 0 0 0 .8-.4s0 0-.3 0a1.6 1.6 0 0 0 .5-.3s-.2 0-.5 0a1.6 1.6 0 0 0 .3-.3l.3.2a1.3 1.3 0 0 1-.1-.4 3 3 0 0 0 .3.2 2.6 2.6 0 0 0 0-.3 3 3 0 0 0 .6.3 1 1 0 0 1-.1-.3 2.6 2.6 0 0 0 .8.3 2.4 2.4 0 0 0-.3-.6 3 3 0 0 0 .4 0c-.2 0-.2-.2-.5-.4a1.6 1.6 0 0 0 .2 0s-.1-.1-.4-.4a1.4 1.4 0 0 0 .4 0 3.4 3.4 0 0 0 .5.2 3.7 3.7 0 0 0-.4-1 3.8 3.8 0 0 0 .9-.1s0 0-.4-.1a1.6 1.6 0 0 0 .6-.2s-.2 0-.5-.2a4 4 0 0 0-.3-.5.8.8 0 0 0 0-.1 3 3 0 0 0 .4-.2 2.6 2.6 0 0 0-.4-.3 1.6 1.6 0 0 0 .5-.1s-.2 0-.4-.2v-.2a.9.9 0 0 0 .1 0c.5.3 1.6-.2 1.6-.2a3.6 3.6 0 0 0-1-.3 3.7 3.7 0 0 0 .5-.8l-.3.1a1.6 1.6 0 0 0 .3-.5s-.2.1-.5.2a1.6 1.6 0 0 0 .2-.3h.3a1.3 1.3 0 0 1-.3-.3 3 3 0 0 0 .4 0 2.8 2.8 0 0 0-.1-.2 3.2 3.2 0 0 0 .7 0 1 1 0 0 1-.3-.3 2.7 2.7 0 0 0 .8 0 2.7 2.7 0 0 0-.4-.4c.4-.2.4-.9.4-.9l-.4.3a1.6 1.6 0 0 0 0-.3l.3-.1-.6-.3.1-.2a3.3 3.3 0 0 0 .4 0 1 1 0 0 1-.3-.2l.1-.3a6 6 0 0 0-.3.1.9.9 0 0 0-.2 0 3.2 3.2 0 0 0 .4-.4 2.7 2.7 0 0 0-.6 0 1.6 1.6 0 0 0 .4-.5s-.2 0-.4.1c-.1 0-.2 0-.3-.2a3 3 0 0 0 .5-.2 2.7 2.7 0 0 0-.5-.2 1.6 1.6 0 0 0 .4-.3s-.1 0-.4 0a3 3 0 0 0 .7-.3l-.7-.2a1 1 0 0 0-.1 0 2.8 2.8 0 0 0 .2-.5 2.6 2.6 0 0 0-.5.2 1.6 1.6 0 0 0 .2-.5s-.2 0-.4.2h-.2c.4-.7-.1-2-.1-2l-.1.4a1.6 1.6 0 0 0-.2-.6s0 .2-.2.5a1.5 1.5 0 0 0-.1-.4l.2-.2a1.3 1.3 0 0 1-.5 0 3 3 0 0 0 .4-.2h-.3a3 3 0 0 0 .4-.6 1 1 0 0 1-.3 0 2.6 2.6 0 0 0 .4-.6 2.5 2.5 0 0 0-.5 0 3.7 3.7 0 0 0 .3-.2 3.7 3.7 0 0 0-1 0 3.7 3.7 0 0 0 .1-.9l-.2.3a1.6 1.6 0 0 0 .1-.6s-.1.1-.4.4a4 4 0 0 0-.6 0 1.1 1.1 0 0 0-.1 0 2.9 2.9 0 0 0 0-.5 2.6 2.6 0 0 0-.4.3 1.6 1.6 0 0 0 0-.5s0 .1-.2.3h-.3a1 1 0 0 0 0-.2c.6-.4.5-1.5.5-1.5a3.7 3.7 0 0 0-.6.7 3.8 3.8 0 0 0-.5-.7s0 0 0 .3a1.5 1.5 0 0 0-.4-.5s0 .2 0 .5a1.7 1.7 0 0 0-.3-.4s0 .3 0 .8a1.3 1.3 0 0 0-.2-.2v-.2a.9.9 0 0 1-.1.1h-.1a2 2 0 0 0-.2.2 2.6 2.6 0 0 0 .1-.8 2.2 2.2 0 0 0-.6.4V25a.8.8 0 0 1-.1 0 1.4 1.4 0 0 0-.2 0s0 0 0 .1a2.4 2.4 0 0 0-.3 0 2.7 2.7 0 0 0 .1-.3 2 2 0 0 0-.8.4 3.5 3.5 0 0 0-.3-.6 3.9 3.9 0 0 0-.2 1 3.8 3.8 0 0 0-.9-.5s0 0 .2.3a1.5 1.5 0 0 0-.5-.2s0 .2.2.5a3.8 3.8 0 0 0-.1.6 3 3 0 0 0-.4-.1 2.2 2.2 0 0 0 .2.7l-.1.2a3.2 3.2 0 0 0 0-.3 2.8 2.8 0 0 0-.3.2 3.1 3.1 0 0 0-.2-.6 1 1 0 0 1-.2.3 2.7 2.7 0 0 0-.3-.8 2.6 2.6 0 0 0-.2.4 3.3 3.3 0 0 0-.4-.4.9.9 0 0 1 0 .2 1.6 1.6 0 0 0-.3-.4s0 .1 0 .3a1.3 1.3 0 0 0-.3-.2l.2-.2a3.7 3.7 0 0 0-.3-.2l-.1-.3-.2.2a2.2 2.2 0 0 0-.3 0 1.2 1.2 0 0 1 .4-.2 3.7 3.7 0 0 0-.8-.3l.3-.2a3.7 3.7 0 0 0-.5-.1 1.6 1.6 0 0 1 .4-.3s-.1 0-.3 0a2 2 0 0 0-.1-.5l.5.4a1.9 1.9 0 0 0-.2-.7l.3.2a4.6 4.6 0 0 0-.3-1 4.4 4.4 0 0 0 1.2 0s-1-1-1.7-.8a1 1 0 0 0-.2-.1l.1-.2h.5a2 2 0 0 0-.5-.4 3.3 3.3 0 0 0 .6-.2 3.6 3.6 0 0 0-.5-.3 1 1 0 0 0 .1-.1 4.8 4.8 0 0 0 .5-.5l.7-.1a1.9 1.9 0 0 0-.6-.4h.4a4.6 4.6 0 0 0-1-.5 4.4 4.4 0 0 0 .8-1 4.1 4.1 0 0 0-.8.2 2.4 2.4 0 0 0-.2-1 3.8 3.8 0 0 0-.2.3 2.8 2.8 0 0 0-.2-.4 1.7 1.7 0 0 0-.1-.1 1 1 0 0 1-.1-.3s0 .1 0 .3h-.2a2.8 2.8 0 0 0 0-1 3.2 3.2 0 0 0-.7.8 1.3 1.3 0 0 1 0-.5 3.8 3.8 0 0 0-.6.7l-.1-.4a3.5 3.5 0 0 0-.3.5 1.5 1.5 0 0 1 0-.5s-.1 0-.2.2a2 2 0 0 0-.5 0l.6-.4a1.9 1.9 0 0 0-.8 0l.4-.2a4.5 4.5 0 0 0-1-.1 4.4 4.4 0 0 0 .3-1.2s-1.2.6-1.3 1.4a1 1 0 0 0-.2.1l-.1-.2.1-.5a2 2 0 0 0-.5.4 3.3 3.3 0 0 0 0-.7 3.6 3.6 0 0 0-.4.4.8.8 0 0 0 0-.2 5.4 5.4 0 0 0-.4-.6l.2-.7a1.9 1.9 0 0 0-.6.5l.2-.4a4.5 4.5 0 0 0-1 .7 4.4 4.4 0 0 0-.4-1.1 4 4 0 0 0-.2.6 1.8 1.8 0 0 0-.3.3v-.6a1.6 1.6 0 0 0-.2.2 4.7 4.7 0 0 1-.1-.8 3.7 3.7 0 0 0-.3.3 3 3 0 0 0-.4-.6 3.1 3.1 0 0 0-.2 1 1.2 1.2 0 0 1-.2-.4 3.8 3.8 0 0 0-.2.8 3.6 3.6 0 0 0-.3-.2 3.8 3.8 0 0 0 0 .5 3.1 3.1 0 0 1-.2-.3 2.4 2.4 0 0 0 .2-1 3.5 3.5 0 0 0-.5.3 1.2 1.2 0 0 0 0-.1 5 5 0 0 0-.3-.7l.3-.7a1.9 1.9 0 0 0-.6.4l.1-.3a4.6 4.6 0 0 0-.9.6 4.4 4.4 0 0 0-.4-1.2 4 4 0 0 0-.2.8 2.4 2.4 0 0 0-1.1-.3 3.8 3.8 0 0 0 .2.4 2.5 2.5 0 0 0-.4 0v-.2a1.6 1.6 0 0 0-.2.2.9.9 0 0 1-.2 0s0 0 .1.1v.2a2.8 2.8 0 0 0-.8-.5 3.2 3.2 0 0 0 .3 1 2.4 2.4 0 0 0-.3-.1v-.2l-.1.1a1 1 0 0 1-.2-.1s0 .1 0 .2a1.5 1.5 0 0 0-.1.4.7.7 0 0 0 0-.1l-.2-.9a2 2 0 0 0-.3.5V13a1.9 1.9 0 0 0-.4.6v-.4a4.6 4.6 0 0 0-.5 1 4.5 4.5 0 0 0-1-.8s.2 1.4.8 1.7a1.3 1.3 0 0 0 0 .3h-.2l-.4-.3a2 2 0 0 0 .2.6 3.1 3.1 0 0 0-.6-.3 3.5 3.5 0 0 0 .2.6 1.3 1.3 0 0 0-.2 0 4.9 4.9 0 0 0-.7 0h-.1a1 1 0 0 0-.6-.5.7.7 0 0 0-.1-.1l.1-.1.4.1a1.3 1.3 0 0 0-.3-.3 2.1 2.1 0 0 0 .5 0 2.4 2.4 0 0 0-.3-.3.6.6 0 0 0 .1 0 3.1 3.1 0 0 0 .5-.2l.4.1a1.2 1.2 0 0 0-.3-.4l.3.1a3 3 0 0 0-.4-.6 3 3 0 0 0 .7-.3 2.7 2.7 0 0 0-.5-.1 1.2 1.2 0 0 0 .1-.4 1.4 1.4 0 0 0 .1-.2.6.6 0 0 1 .2-.2s-.1 0-.2 0a1.8 1.8 0 0 0 .5-.3 2.1 2.1 0 0 0-.7-.2.8.8 0 0 1 .3-.1 2.7 2.7 0 0 0-.4-.1 2.3 2.3 0 0 0 .2-.3 2.3 2.3 0 0 0-.3 0 1 1 0 0 1 .2-.2s0 0-.2 0a1.4 1.4 0 0 0 0-.3l.3.2s-.1-.5-.4-.6a1.2 1.2 0 0 1 .2-.3 2.6 2.6 0 0 0-.4 0h.5a1.2 1.2 0 0 0-.4-.3h.3a3 3 0 0 0-.6-.4 3 3 0 0 0 .5-.5 2.7 2.7 0 0 0-.4 0 1.2 1.2 0 0 0-.3-.1l.4-.2a1.4 1.4 0 0 0-.2 0l.5-.3a2.6 2.6 0 0 0-.3 0 2 2 0 0 0 .3-.5 2.1 2.1 0 0 0-.6.1.8.8 0 0 1 .2-.2 2.4 2.4 0 0 0-.6 0V8a2.4 2.4 0 0 0-.2 0 1 1 0 0 1 .1-.2s0 0-.2 0a1.3 1.3 0 0 0-.2-.2h.4a1.2 1.2 0 0 0-.3-.2h.3a3.1 3.1 0 0 0-.6-.5 3 3 0 0 0 .7-.4s-.9-.2-1.2.1a.7.7 0 0 0-.2 0v-.1l.3-.2a1.3 1.3 0 0 0-.4 0 2 2 0 0 0 .3-.4 2.4 2.4 0 0 0-.4 0 3.6 3.6 0 0 0 .1-.5l.4-.3a1.2 1.2 0 0 0-.5 0L85 5a3.1 3.1 0 0 0-.7 0 2.9 2.9 0 0 0 .2-.8 2.7 2.7 0 0 0-.5.3 1.2 1.2 0 0 0-.2-.3 1.3 1.3 0 0 0 0-.1 1 1 0 0 0-.1-.1.6.6 0 0 1 0-.2s-.1 0-.1.1a1 1 0 0 0-.1 0 1.9 1.9 0 0 0 0-.5 2 2 0 0 0-.5.4.9.9 0 0 1 0-.3 2.4 2.4 0 0 0-.3.3 2.2 2.2 0 0 0 0-.4 2.5 2.5 0 0 0-.3.3 1 1 0 0 1 0-.3s0 0-.1.1a1.3 1.3 0 0 0-.3 0l.4-.2s-.5-.2-.7 0a1 1 0 0 1-.2-.4 2.4 2.4 0 0 0 0 .3 1 1 0 0 1 0-.2c0-.2.2-.3.2-.3a1.2 1.2 0 0 0-.5 0l.2-.1a3 3 0 0 0-.7.2 3 3 0 0 0 0-.8 2.6 2.6 0 0 0-.2.3 1.2 1.2 0 0 0-.3 0l.1-.3a1.4 1.4 0 0 0-.1 0 3.4 3.4 0 0 1 .1-.4 2.6 2.6 0 0 0-.2.1 1.9 1.9 0 0 0 0-.5 2 2 0 0 0-.5.5.8.8 0 0 1 0-.3 2.6 2.6 0 0 0-.3.5 2.4 2.4 0 0 0-.1-.2 2.3 2.3 0 0 0-.2.3 1 1 0 0 1 0-.3 2 2 0 0 0-.2.1 1.3 1.3 0 0 0-.3 0l.4-.2a1.2 1.2 0 0 0-.5 0l.2-.2a3 3 0 0 0-.7 0 3 3 0 0 0 .2-.7s-.8.4-.8 1a.8.8 0 0 0-.1 0l-.1-.1v-.3a1.3 1.3 0 0 0-.3.2 2.1 2.1 0 0 0 0-.4 2.4 2.4 0 0 0-.3.3v-.1a3.2 3.2 0 0 0-.3-.4l.1-.5a1.2 1.2 0 0 0-.3.4V.4a3.1 3.1 0 0 0-.5.5 3 3 0 0 0-.4-.7 2.5 2.5 0 0 0 0 .6 1.3 1.3 0 0 0-.5 0 1.6 1.6 0 0 0-.1-.2s0 0-.1 0a.6.6 0 0 1-.2 0v.1a1.8 1.8 0 0 0-.3-.4 2.3 2.3 0 0 0-.1.3 1 1 0 0 1-.1-.4 2.6 2.6 0 0 0-.2.4 2 2 0 0 0-.2-.3 2.2 2.2 0 0 0 0 .4 1 1 0 0 1-.2-.3 2 2 0 0 0-.1.2 1.3 1.3 0 0 0-.3 0l.3-.3s-.5 0-.7.3a1.2 1.2 0 0 1-.2-.2 2.5 2.5 0 0 0 0 .3V.1a1.2 1.2 0 0 0-.4.4V.3a3 3 0 0 0-.4.6 3 3 0 0 0-.5-.7 2.5 2.5 0 0 0 0 .4 1.1 1.1 0 0 0-.2.3V.5a1 1 0 0 0-.2.1 3.3 3.3 0 0 1-.1-.5s0 .2-.1.3a1.8 1.8 0 0 0-.4-.4 2.1 2.1 0 0 0 0 .7.8.8 0 0 1-.2-.2 2.4 2.4 0 0 0 0 .5 2.4 2.4 0 0 0-.2-.1 2.1 2.1 0 0 0 0 .3V1a.6.6 0 0 1-.2 0 1 1 0 0 0-.1.1c0-.2.2-.3.2-.3a1.2 1.2 0 0 0-.5.2l.2-.2a3 3 0 0 0-.7.3 2.9 2.9 0 0 0-.2-.8s-.4.8-.2 1.2a.7.7 0 0 0 0 .2l-.2-.1-.1-.3a1.3 1.3 0 0 0-.1.4 2 2 0 0 0-.3-.4 2.4 2.4 0 0 0 0 .4.5.5 0 0 0-.2-.1 3.2 3.2 0 0 0-.4-.2l-.1-.5a1.2 1.2 0 0 0-.2.5v-.3a3 3 0 0 0-.3.7 2.8 2.8 0 0 0-.6-.5 2.6 2.6 0 0 0 .1.5 1.2 1.2 0 0 0-.4 0 1.4 1.4 0 0 0-.2 0 .6.6 0 0 1-.2 0s0 .1 0 .2a1.9 1.9 0 0 0-.5-.2 2.1 2.1 0 0 0 .2.6.8.8 0 0 1-.2-.1 2.7 2.7 0 0 0 0 .3 2 2 0 0 0-.3 0 2.3 2.3 0 0 0 .2.3 1 1 0 0 1-.3-.2V3a1.2 1.2 0 0 0-.1.3v-.4s-.4.3-.3.6a1.2 1.2 0 0 1-.4 0s0 0 .1.1a2.4 2.4 0 0 0-.3-.1 2.2 2.2 0 0 0 .1.4 3.3 3.3 0 0 0-.5 0l-.4-.3a1.2 1.2 0 0 0 .1.4l-.2-.2a3 3 0 0 0 .2.7 3 3 0 0 0-.8 0 2.8 2.8 0 0 0 .4.4 1.2 1.2 0 0 0-.3.3v.1h-.1a.6.6 0 0 1-.2.1s0 0 .1 0v.2a1.8 1.8 0 0 0-.5 0 2.3 2.3 0 0 0 .2.2 1 1 0 0 1-.3 0 2.7 2.7 0 0 0 .2.3 2.2 2.2 0 0 0-.4 0 2.1 2.1 0 0 0 .3.3 1 1 0 0 1-.3 0s0 0 0 .1a1.3 1.3 0 0 0 0 .3v-.3a1.1 1.1 0 0 0-.1 0v-.1l-.1.1a2.3 2.3 0 0 0-.4.4 2.1 2.1 0 0 0-.3-.5 2 2 0 0 0 0 .4 1 1 0 0 0-.4 0 1.1 1.1 0 0 0 0-.1.8.8 0 0 0-.1 0 .5.5 0 0 1-.2-.1s0 0 0 .1a1.3 1.3 0 0 0-.2-.3 2 2 0 0 0 0 .2.8.8 0 0 1-.2-.2 1.9 1.9 0 0 0 0 .3 1.6 1.6 0 0 0-.3-.2 1.7 1.7 0 0 0 0 .2.8.8 0 0 1-.1-.2s0 0 0 .1a1 1 0 0 0-.3 0l.2-.2s-.4 0-.5.3a.8.8 0 0 1-.2-.2 2 2 0 0 0 0 .2v-.4a1 1 0 0 0-.2.3v-.2a2.3 2.3 0 0 0-.3.4 2.2 2.2 0 0 0-.4-.4 1.9 1.9 0 0 0 0 .3.8.8 0 0 0-.1.2l-.1-.3a2.3 2.3 0 0 1-.2-.3 1.8 1.8 0 0 0 0 .2 1.4 1.4 0 0 0-.3-.3 1.6 1.6 0 0 0 0 .5.6.6 0 0 1-.2-.2 1.8 1.8 0 0 0 0 .5 1.5 1.5 0 0 0-.2-.1 1.7 1.7 0 0 0 .1.2s0 0-.1 0a.5.5 0 0 1 0-.1 1 1 0 0 0-.2.1l.2-.3a.9.9 0 0 0-.4.2l.1-.2a2.2 2.2 0 0 0-.4.3 2.2 2.2 0 0 0-.2-.6s-.3.6-.2 1H54v-.3a1 1 0 0 0-.2.3 1.5 1.5 0 0 0-.2-.3 1.8 1.8 0 0 0 0 .3.6.6 0 0 0-.1 0 2.4 2.4 0 0 0-.3-.2L53 7a1 1 0 0 0-.1.3v-.2a2.3 2.3 0 0 0-.2.5 2.1 2.1 0 0 0-.5-.4 2 2 0 0 0 0 .4 1 1 0 0 0-.2 0h-.2a.5.5 0 0 1-.2 0s0 .1.1.2a1.3 1.3 0 0 0-.4-.2 1.6 1.6 0 0 0 .1.5.6.6 0 0 1-.1-.1 2 2 0 0 0 0 .3 1.6 1.6 0 0 0-.2-.1 1.8 1.8 0 0 0 .1.2.8.8 0 0 1-.2 0 .8.8 0 0 0-.1.3v-.4s-.3.3-.2.5a.9.9 0 0 1-.3 0 1.5 1.5 0 0 0-.1 0 1.8 1.8 0 0 0 0 .3 2.5 2.5 0 0 0-.4 0l-.2-.2a1 1 0 0 0 0 .3l-.1-.1a2.2 2.2 0 0 0 .1.5 2.1 2.1 0 0 0-.6 0 2 2 0 0 0 .3.2.9.9 0 0 0-.2.3h-.1a.9.9 0 0 0 0 .1.5.5 0 0 1-.1 0 .6.6 0 0 0 0 .2 1.4 1.4 0 0 0-.3 0 1.8 1.8 0 0 0 .1.2.9.9 0 0 1-.2-.1 2.2 2.2 0 0 0 .1.2 1.7 1.7 0 0 0-.2 0 1.7 1.7 0 0 0 .2.3.8.8 0 0 1-.3 0s0 0 .1 0a1 1 0 0 0 0 .3l-.2-.3s-.2.3 0 .5a.8.8 0 0 1-.3 0 2 2 0 0 0 .2.2l-.3-.2a1 1 0 0 0 0 .3 2.2 2.2 0 0 0 .2.4 2.2 2.2 0 0 0-.6.1 2 2 0 0 0 .3.2.8.8 0 0 0 0 .2h-.3a1 1 0 0 0 .1 0 2.3 2.3 0 0 1-.3 0s0 0 0 .1a1.5 1.5 0 0 0-.3.1 1.6 1.6 0 0 0 .4.3.6.6 0 0 1-.2 0 1.8 1.8 0 0 0 .4.2l-.1.1a1.4 1.4 0 0 0 .1 0h.1v.1h-.1a.5.5 0 0 1-.1 0s0 0 0 .1a1 1 0 0 0 0 .1l-.1-.2a1 1 0 0 0 0 .3l-.1-.1a2.2 2.2 0 0 0 0 .5 2.1 2.1 0 0 0-.6-.1 2 2 0 0 0 .4.3 1.8 1.8 0 0 0-.6.4l.2-.4a4.5 4.5 0 0 0-1 .6 4.4 4.4 0 0 0-.3-1.1 4 4 0 0 0-.3.8 2.3 2.3 0 0 0-1-.3 3.8 3.8 0 0 0 .1.4 2.6 2.6 0 0 0-.4 0v-.2a1.5 1.5 0 0 0-.1.2.9.9 0 0 1-.3 0s0 0 .1.1v.1a2.8 2.8 0 0 0-.8-.4 3.2 3.2 0 0 0 .3 1 2.4 2.4 0 0 0-.3-.1v-.2a1.6 1.6 0 0 0 0 .1 1 1 0 0 1-.3-.1l.1.2a1.5 1.5 0 0 0-.2.4.8.8 0 0 0 0-.2l-.1-.8a2 2 0 0 0-.3.5l-.1-.6a1.9 1.9 0 0 0-.4.6v-.4a4.5 4.5 0 0 0-.5 1 4.4 4.4 0 0 0-1-.8s.2 1.4.9 1.7a1 1 0 0 0 0 .2h-.2a13 13 0 0 1-.4-.2 2 2 0 0 0 .1.6 3 3 0 0 0-.6-.3 3.6 3.6 0 0 0 .2.6 1 1 0 0 0-.1 0 5 5 0 0 0-.8 0l-.5-.4a1.9 1.9 0 0 0 .2.7l-.3-.2a4.6 4.6 0 0 0 .3 1 3.3 3.3 0 0 0-.3 0l-.1-.5a2 2 0 0 0-.4.5v-.3a4.3 4.3 0 0 0-.3.4 4.1 4.1 0 0 0-.2.6 4.4 4.4 0 0 0-1-.9 4.2 4.2 0 0 0 .2.7 1.7 1.7 0 0 0-.3.4l-.2-.6a2 2 0 0 0-.1.3l-.4-.7a4 4 0 0 0 0 .4 3 3 0 0 0-.7-.5 3.2 3.2 0 0 0 .1 1 1.2 1.2 0 0 1-.3-.3 3.9 3.9 0 0 0 .1.7v.1h-.3l.1.2-.1.3a4.5 4.5 0 0 0-.9-.9s0 1.4.7 1.8a1.1 1.1 0 0 0 0 .2h-.2l-.4-.3a2 2 0 0 0 .1.6 3.2 3.2 0 0 0-.6-.3 3.6 3.6 0 0 0 .2.6 1.2 1.2 0 0 0-.2 0 5 5 0 0 0-.7 0l-.5-.4a1.9 1.9 0 0 0 .1.7l-.3-.3a4.6 4.6 0 0 0 .3 1 4.4 4.4 0 0 0-1.2 0 4.1 4.1 0 0 0 .6.6 2.4 2.4 0 0 0-.6.9 3.7 3.7 0 0 0 .5-.1 2.6 2.6 0 0 0-.2.4h-.1a1.6 1.6 0 0 0 0 .1 1 1 0 0 1 0 .3s0 0 .2-.1v.1a2.8 2.8 0 0 0-.6.6 3.1 3.1 0 0 0 1 0 1.2 1.2 0 0 1-.3.3 3.7 3.7 0 0 0 .8 0l-.1.3a3.6 3.6 0 0 0 .5-.1 1.6 1.6 0 0 1-.4.4s.2 0 .4 0a2 2 0 0 0 .2.3l-.6-.2a1.9 1.9 0 0 0 .5.6l-.4-.1a4.6 4.6 0 0 0 .7.9 4.4 4.4 0 0 0-1.2.4s1.3.6 2 .1a1.2 1.2 0 0 0 .2 0l-.1.3-.5.2a2 2 0 0 0 .6.1 3.2 3.2 0 0 0-.5.5 3.5 3.5 0 0 0 .6 0 1.3 1.3 0 0 0 0 .2 5 5 0 0 0-.3.7l-.6.3a1.9 1.9 0 0 0 .7 0l-.3.3a4.6 4.6 0 0 0 1 .1 4.4 4.4 0 0 0-.4 1.1 4 4 0 0 0 .7-.3 1.7 1.7 0 0 0 .5 0l-.3.3a2 2 0 0 0 .7 0 1 1 0 0 1-.3.2 3.8 3.8 0 0 0 .8 0 3.2 3.2 0 0 0-.2.5 3.2 3.2 0 0 0 1-.4 1.2 1.2 0 0 1-.3.4 3.7 3.7 0 0 0 .8-.3v.3a3.5 3.5 0 0 0 .3-.2v.3a1.8 1.8 0 0 0-.3 0 2 2 0 0 0-.8.4 3.4 3.4 0 0 0-.3-.6 3.7 3.7 0 0 0-.2 1 3.8 3.8 0 0 0-.9-.4s0 0 .2.3a1.6 1.6 0 0 0-.5-.3s0 .2.2.5a3.9 3.9 0 0 0-.1.6.9.9 0 0 0 0 .1 3.1 3.1 0 0 0-.5-.2 2.2 2.2 0 0 0 .3.8l-.1.2a3 3 0 0 0-.1-.4 3 3 0 0 0-.2.3 3.1 3.1 0 0 0-.2-.7 1 1 0 0 1-.2.3 2.7 2.7 0 0 0-.3-.8 2.7 2.7 0 0 0-.2.5 3.2 3.2 0 0 0-.4-.5.8.8 0 0 1 0 .3 1.6 1.6 0 0 0-.3-.4s0 0 0 .2a1.4 1.4 0 0 0-.4-.2 3.4 3.4 0 0 0-.1-.6 3.7 3.7 0 0 0-.5.9 3.8 3.8 0 0 0-.7-.6s0 0 .1.3a1.5 1.5 0 0 0-.4-.4s0 .2 0 .6a4.2 4.2 0 0 0-.2.5 1 1 0 0 0 0 .1 3 3 0 0 0-.4-.3 2.7 2.7 0 0 0 0 .6 1.7 1.7 0 0 0-.4-.4s0 .2.1.5v.1a1 1 0 0 0-.3 0c0-.7-1-1.2-1-1.2a3.7 3.7 0 0 0 .3 1 3.8 3.8 0 0 0-1 0s.1 0 .4.2a1.5 1.5 0 0 0-.6 0s.2.1.4.3a1.6 1.6 0 0 0-.4 0 2.6 2.6 0 0 0-.1-.1 1.3 1.3 0 0 1 0 .4 3 3 0 0 0-.3-.4 3 3 0 0 0-.1.3 3 3 0 0 0-.5-.6 1 1 0 0 1 0 .4 2.6 2.6 0 0 0-.6-.6 2.3 2.3 0 0 0 0 .7l-.1-.2a.8.8 0 0 1-.1.3H26h.1a2.4 2.4 0 0 0-.1.4 3 3 0 0 0-.2-.3 2 2 0 0 0-.3.9 3.5 3.5 0 0 0-.6-.1 3.7 3.7 0 0 0 .7.7 3.8 3.8 0 0 0-.8.4s0 0 .3 0a1.6 1.6 0 0 0-.5.3s.2 0 .5.1a4.2 4.2 0 0 0 .4.5 1.1 1.1 0 0 0 .1 0 3 3 0 0 0-.4.3 2.7 2.7 0 0 0 .5.2 1.6 1.6 0 0 0-.4.2s.1 0 .4.1l.1.2a1 1 0 0 0-.2 0c-.6-.1-1.4.7-1.4.7a3.7 3.7 0 0 0 1 0l-.1.2-.2.1.1.1v.2a3.4 3.4 0 0 0-.5.3 1 1 0 0 1 .4 0 2.6 2.6 0 0 0-.7.5 2.5 2.5 0 0 0 .7.1 3.2 3.2 0 0 0-.2.3 4 4 0 0 1 .6-.2 1.5 1.5 0 0 0-.1.2s.2 0 .5-.1a1.4 1.4 0 0 0-.1.3 3.4 3.4 0 0 0-.5.4 3.7 3.7 0 0 0 1 0 3.2 3.2 0 0 0-.2.4v.1a3.5 3.5 0 0 0 0 .4s0 0 .2-.2a1.6 1.6 0 0 0-.2.6l.4-.3a2.7 2.7 0 0 0 .2.2 3.9 3.9 0 0 0-.8.4s0 0 .3 0a1.6 1.6 0 0 0-.6.3s.3 0 .6.1a4.1 4.1 0 0 0 .4.5 3 3 0 0 0-.4.3 2.6 2.6 0 0 0 .5.2 1.7 1.7 0 0 0-.5.2s.2 0 .5.1v.2a.9.9 0 0 0-.1.1c-.6-.2-1.5.5-1.5.5a3.7 3.7 0 0 0 1 .1 3.8 3.8 0 0 0-.3.9s0 0 .3-.2a1.6 1.6 0 0 0-.3.5l.5-.3a1.7 1.7 0 0 0-.1.5l.6-.4a1.2 1.2 0 0 0 0 .3h-.3a.8.8 0 0 1 .2 0 1.1 1.1 0 0 0 0 .2h.1a2 2 0 0 0 .2 0 2.7 2.7 0 0 0-.7.4 2.3 2.3 0 0 0 .7.2 1.1 1.1 0 0 0 0 .1h-.3a.7.7 0 0 1 .2.2 1.3 1.3 0 0 0 0 .1 2.2 2.2 0 0 0 .4.2 3 3 0 0 0-.4.1 2 2 0 0 0 .8.5 3.4 3.4 0 0 0-.4.6 3.7 3.7 0 0 0 1-.4 3.8 3.8 0 0 0 .1 1s0-.1.1-.4a1.6 1.6 0 0 0 .1.6s.1-.2.3-.5a4.1 4.1 0 0 0 .6-.2.8.8 0 0 0 0-.1 3 3 0 0 0 .1.5 2 2 0 0 0 .6-.7 2.4 2.4 0 0 1 .3 0 3 3 0 0 0-.4.3h.3a3 3 0 0 0-.4.6 1 1 0 0 1 .4-.1 2.6 2.6 0 0 0-.5.7 2.5 2.5 0 0 0 .6-.1 3 3 0 0 0 0 .3l.5-.4a1.6 1.6 0 0 0 0 .2l.4-.3a1.4 1.4 0 0 0 0 .4 3.3 3.3 0 0 0-.3.4 3.7 3.7 0 0 0 1-.3 3.8 3.8 0 0 0 0 1s0 0 .2-.3a1.6 1.6 0 0 0 0 .6s.1-.2.3-.5a4 4 0 0 0 .6-.2.8.8 0 0 0 .1 0 3 3 0 0 0 0 .4 2.6 2.6 0 0 0 .5-.3 1.7 1.7 0 0 0 0 .5s0-.2.2-.4h.2a.9.9 0 0 0 0 .2c-.4.4 0 1.5 0 1.5a3.6 3.6 0 0 0 .4-.9l.1.1a1.4 1.4 0 0 0 .6 1 1 1 0 0 0 0 .2H35l-.4-.3a2 2 0 0 0 .2.6 3.2 3.2 0 0 0-.6-.3 3.6 3.6 0 0 0 .2.6 1 1 0 0 0-.2 0 4.9 4.9 0 0 0-.7 0 16 16 0 0 1-.6-.3 1.9 1.9 0 0 0 .3.7l-.3-.3a4.6 4.6 0 0 0 .3 1 3 3 0 0 0-.4 0v-.5a2 2 0 0 0-.4.6v-.4a4.5 4.5 0 0 0-.3.4h-.1a4 4 0 0 0-.2.6 4.4 4.4 0 0 0-.8-.9 4 4 0 0 0 0 .7 1.7 1.7 0 0 0-.2.4l-.3-.6a1.7 1.7 0 0 0 0 .3l-.4-.7-.1.4a2.9 2.9 0 0 0-.6-.5 3.2 3.2 0 0 0 .1 1 1.2 1.2 0 0 1-.3-.3 3.9 3.9 0 0 0 0 .7v.1h-.2v.5a4.5 4.5 0 0 0-1-.9s0 1.4.7 1.8a1 1 0 0 0 0 .3h-.2l-.4-.4a2 2 0 0 0 .2.6 3.3 3.3 0 0 0-.6-.2 3.5 3.5 0 0 0 .1.5h-.1a5 5 0 0 0-.7 0l-.6-.4a1.9 1.9 0 0 0 .2.7l-.3-.3a4.6 4.6 0 0 0 .3 1 4.3 4.3 0 0 0-1.2 0 4 4 0 0 0 .6.6 2.4 2.4 0 0 0-.6.9 3.4 3.4 0 0 0 .4 0 2.9 2.9 0 0 0-.1.3h-.2a1.7 1.7 0 0 0 .1.2 1 1 0 0 1 0 .2s0 0 .1 0h.1a2.7 2.7 0 0 0-.6.6 3.2 3.2 0 0 0 1 0 1.2 1.2 0 0 1-.3.3 3.7 3.7 0 0 0 .8 0l-.2.3a3.5 3.5 0 0 0 .6 0 1.6 1.6 0 0 1-.4.3s.2 0 .3 0a2 2 0 0 0 .3.4l-.6-.2a1.8 1.8 0 0 0 .4.6 6 6 0 0 1-.3-.2 4.5 4.5 0 0 0 .6.9 4.4 4.4 0 0 0-1 .5s1.2.5 1.8 0a1.1 1.1 0 0 0 .2 0v.3l-.5.2a2 2 0 0 0 .6.2 3.1 3.1 0 0 0-.5.4 3.4 3.4 0 0 0 .6 0 1 1 0 0 0 0 .2 5 5 0 0 0-.3.7l-.6.3a1.9 1.9 0 0 0 .7.1l-.4.2a4.5 4.5 0 0 0 1.1.1 4.5 4.5 0 0 0-.4 1.1 4 4 0 0 0 .6-.3 1.7 1.7 0 0 0 .5.1l-.2.2a2 2 0 0 0 .7 0 1 1 0 0 1-.3.2 3.8 3.8 0 0 0 .8 0 3.2 3.2 0 0 0-.3.5 3.2 3.2 0 0 0 1-.3 1.2 1.2 0 0 1-.2.3 3.6 3.6 0 0 0 .8-.3 3.6 3.6 0 0 0 0 .4 3.4 3.4 0 0 0 .3-.3v.3a2.6 2.6 0 0 0-1 .4 3.7 3.7 0 0 0 .6.2 1 1 0 0 0-.1.1 4.7 4.7 0 0 0-.4.6l-.7.2a1.8 1.8 0 0 0 .7.3H31a4.7 4.7 0 0 0 1 .5 4.4 4.4 0 0 0-.7 1 4.2 4.2 0 0 0 .8-.3 2.3 2.3 0 0 0 .4 1 3.6 3.6 0 0 0 .2-.4 3 3 0 0 0 .2.4l-.1.1h.2a1 1 0 0 1 .1.3v-.3a1.3 1.3 0 0 0 .2 0 2.8 2.8 0 0 0 .1.9 3.2 3.2 0 0 0 .6-.8 2.5 2.5 0 0 0 0 .3s0 .1.1.1a1 1 0 0 1 0 .2l.2-.2a1.4 1.4 0 0 0 .4 0 .7.7 0 0 0-.1 0l-.6.7a2 2 0 0 0 .5 0l-.4.4a1.9 1.9 0 0 0 .7-.1l-.3.2a4.6 4.6 0 0 0 1-.1 4.4 4.4 0 0 0 0 1.2s1-1 1-1.6a1 1 0 0 0 0-.2l.2.1v.6a2 2 0 0 0 .4-.5 3.2 3.2 0 0 0 .2.6 3.6 3.6 0 0 0 .3-.5 1.2 1.2 0 0 0 .1.2 5 5 0 0 0 .5.5v.7a1.9 1.9 0 0 0 .4-.6v.4a4.6 4.6 0 0 0 .6-.9 4.4 4.4 0 0 0 .8 1 4 4 0 0 0 0-.5l.1.2a3.3 3.3 0 0 0 .3.4s0-.2 0-.3h.2a4.2 4.2 0 0 0 .4.4 1 1 0 0 0 .1.1 3 3 0 0 0-.4.3 2.7 2.7 0 0 0 .5.2 1.6 1.6 0 0 0-.4.2s.1 0 .4 0l.1.2a1 1 0 0 0-.2.1c-.5-.2-1.4.6-1.4.6a3.7 3.7 0 0 0 1 0l-.1.3-.2.1.1.1v.1a3.2 3.2 0 0 0-.5.3 1 1 0 0 1 .4 0 2.7 2.7 0 0 0-.7.6 2.4 2.4 0 0 0 .7 0 3.4 3.4 0 0 0-.2.4 4.2 4.2 0 0 1 .6-.2 1.5 1.5 0 0 0-.1.2s.2 0 .5-.2a1.4 1.4 0 0 0-.1.4 3.6 3.6 0 0 0-.5.3 3.7 3.7 0 0 0 1 0 3.1 3.1 0 0 0-.1.5h-.1a3.5 3.5 0 0 0 0 .5s0 0 .2-.2a1.6 1.6 0 0 0-.2.5l.4-.2a2.9 2.9 0 0 0 .2.2 3.8 3.8 0 0 0-.8.4s0 0 .3 0a1.6 1.6 0 0 0-.5.3s.2 0 .5 0a4 4 0 0 0 .4.6 3 3 0 0 0-.4.2 2.6 2.6 0 0 0 .5.3 1.7 1.7 0 0 0-.4.2s.1 0 .4.1l.1.2a.9.9 0 0 0-.2 0c-.6-.2-1.5.6-1.5.6a3.6 3.6 0 0 0 1 0 3.8 3.8 0 0 0-.3 1s0-.1.3-.3a1.6 1.6 0 0 0-.2.6l.4-.3a1.7 1.7 0 0 0-.1.5l.6-.4a.7.7 0 0 0 0-.1 1.2 1.2 0 0 0 0 .3l-.2.1a.9.9 0 0 1 .1 0v.2l.1-.1a2 2 0 0 0 .3 0 2.7 2.7 0 0 0-.8.5 2.3 2.3 0 0 0 .7.2v.1H42a.7.7 0 0 1 .1.2 1.4 1.4 0 0 0 0 .1h.1a2 2 0 0 0 .3.2 3 3 0 0 0-.4 0 2 2 0 0 0 .8.6 3.4 3.4 0 0 0-.3.6 3.7 3.7 0 0 0 .9-.4 3.8 3.8 0 0 0 .1.9s0 0 .2-.3a1.6 1.6 0 0 0 0 .6s.2-.2.3-.6a4 4 0 0 0 .6-.2 2.9 2.9 0 0 0 .2.4 2 2 0 0 0 .5-.7 2.4 2.4 0 0 1 .3 0 2.9 2.9 0 0 0-.4.3h.4a3.2 3.2 0 0 0-.5.6 1 1 0 0 1 .4 0 2.7 2.7 0 0 0-.5.7 2.4 2.4 0 0 0 .7-.2 3.4 3.4 0 0 0-.1.4l.5-.4a1.4 1.4 0 0 0 0 .2l.4-.3a1.4 1.4 0 0 0 0 .3 3.6 3.6 0 0 0-.3.5 3.7 3.7 0 0 0 1-.3 3.8 3.8 0 0 0 0 1s0-.1.2-.4a1.6 1.6 0 0 0 0 .6s.2-.2.4-.5a4 4 0 0 0 .5-.1 1 1 0 0 0 .1 0 3 3 0 0 0 0 .4 2.5 2.5 0 0 0 .5-.4 1.7 1.7 0 0 0 0 .5s.1-.1.2-.3h.2a.9.9 0 0 0 0 .1c-.4.5 0 1.6 0 1.6a3.6 3.6 0 0 0 .5-.9 3.8 3.8 0 0 0 .7.6s0 0-.1-.3a1.6 1.6 0 0 0 .4.4s0-.2-.1-.5a1.6 1.6 0 0 0 .3.2v.3a1.3 1.3 0 0 1 .3-.3 3 3 0 0 0-.1.4h.3a3 3 0 0 0-.1.6 1 1 0 0 1 .2-.2 2.6 2.6 0 0 0 0 .8 2.3 2.3 0 0 0 .5-.5 1 1 0 0 0 .1.1v.2a.8.8 0 0 1 .1-.1 1.3 1.3 0 0 0 .2 0 2.5 2.5 0 0 0 .3-.1 3 3 0 0 0 0 .3 2 2 0 0 0 .7-.4 3.3 3.3 0 0 0 .4.5 3.7 3.7 0 0 0 0-1 3.8 3.8 0 0 0 1 .3s-.1 0-.3-.2a1.5 1.5 0 0 0 .6.1l-.3-.4a4 4 0 0 0 0-.6 1 1 0 0 0 0-.2 3 3 0 0 0 .5.2 2.6 2.6 0 0 0-.2-.5 1.8 1.8 0 0 0 .5.1l-.3-.3v-.2a1 1 0 0 0 .2 0c.3.6 1.5.7 1.5.7a3.7 3.7 0 0 0-.7-.8 3.9 3.9 0 0 0 .8-.4s0 0-.3 0a1.6 1.6 0 0 0 .5-.3s-.2 0-.5 0a1.5 1.5 0 0 0 .4-.3l.2.2a1.4 1.4 0 0 1-.1-.4 3.3 3.3 0 0 0 .3.2 2.4 2.4 0 0 0 0-.3 3.1 3.1 0 0 0 .6.4 1 1 0 0 1 0-.4 2.6 2.6 0 0 0 .7.4 2.4 2.4 0 0 0-.3-.7 3.2 3.2 0 0 0 .4 0c-.2 0-.2-.2-.5-.4a1.7 1.7 0 0 0 .2 0s-.1-.1-.4-.4a1.3 1.3 0 0 0 .4 0 3.3 3.3 0 0 0 .5.2 3.7 3.7 0 0 0-.4-1 4 4 0 0 0 .9-.1s0 0-.4-.1a1.6 1.6 0 0 0 .6-.2s-.2 0-.5-.2a4 4 0 0 0-.3-.5 1 1 0 0 0 0-.1 3 3 0 0 0 .5-.1 2.8 2.8 0 0 0-.5-.4 1.6 1.6 0 0 0 .5-.1s-.1 0-.4-.2v-.2a1 1 0 0 0 .1 0c.5.3 1.6-.2 1.6-.2a3.6 3.6 0 0 0-1-.3 3.8 3.8 0 0 0 .5-.8l-.3.1a1.5 1.5 0 0 0 .3-.5s-.2.1-.5.2a1.6 1.6 0 0 0 .2-.3h.3a1 1 0 0 1-.1-.1 2.7 2.7 0 0 0 .3 0 2.7 2.7 0 0 0-.1.7s.7-.6.6-1a.7.7 0 0 0 0-.1h.2v.4a1.2 1.2 0 0 0 .2-.3 1.9 1.9 0 0 0 .1.4 2.1 2.1 0 0 0 .2-.3 3.2 3.2 0 0 0 .4.4v.4a1.1 1.1 0 0 0 .2-.3v.2a2.8 2.8 0 0 0 .4-.5 2.8 2.8 0 0 0 .5.6 2.2 2.2 0 0 0 0-.4 2 2 0 0 0 .2.4 2 2 0 0 0 .2-.6.8.8 0 0 1 .1.2 2.3 2.3 0 0 0 .1-.5l.2.2a2.1 2.1 0 0 0 0-.4 1 1 0 0 1 .2.3v-.2a1.3 1.3 0 0 0 .3-.1l-.2.3a1.2 1.2 0 0 0 .4-.2l-.1.2s.9-.3 1-.8h.2v.4a1.2 1.2 0 0 0 .2-.4 1.8 1.8 0 0 0 .2.4 2.1 2.1 0 0 0 .2-.4l.5.4a2.2 2.2 0 0 0-.2-.6l.2.2a1.2 1.2 0 0 0 0-.3 2 2 0 0 0 .3.1 2.3 2.3 0 0 0 0-.3h.1l.2.3a1.2 1.2 0 0 0 0-.4 2 2 0 0 0 .4.3 2 2 0 0 0 0-.4h.1l.1.3a1.7 1.7 0 0 0 .1-.2.8.8 0 0 1 .3 0 2.8 2.8 0 0 0-.2-.2v-.1l.5.1V85a1.3 1.3 0 0 0 0-.3l.1.4s.4-.4.3-.6a2 2 0 0 0 .4 0 2 2 0 0 0-.4-.5.8.8 0 0 1 .3 0 2.2 2.2 0 0 0-.3-.3h.2a2.1 2.1 0 0 0-.3-.3 1 1 0 0 1 .3 0s0 0 0-.1a1.2 1.2 0 0 0 0-.3l.1.4a1.2 1.2 0 0 0 .2-.5v.3a2.8 2.8 0 0 0 .2-.7 2.7 2.7 0 0 0 .7.4s-.3-.9-.7-1a.7.7 0 0 0 0-.1h.4a1.2 1.2 0 0 0-.2-.3 2 2 0 0 0 .4.1 2.3 2.3 0 0 0-.2-.3.7.7 0 0 0 .1 0 3.4 3.4 0 0 0 .4-.2l.4.2a1.2 1.2 0 0 0-.2-.4l.2.1a2.8 2.8 0 0 0-.3-.6 2.7 2.7 0 0 0 .7-.2 2.5 2.5 0 0 0-.4-.1 1 1 0 0 0-.1-.3h.4a1.3 1.3 0 0 0-.1 0 2.6 2.6 0 0 1 .4 0 2.3 2.3 0 0 0-.1-.2 1.7 1.7 0 0 0 .4-.2 2 2 0 0 0-.5-.2.7.7 0 0 1 .2-.1 2.3 2.3 0 0 0-.5-.2l.2-.2a2.2 2.2 0 0 0-.3 0 1 1 0 0 1 .2-.2s0 0-.2 0a1.1 1.1 0 0 0 0-.3l.3.2a1.2 1.2 0 0 0-.1-.4l.2.2a2.9 2.9 0 0 0-.2-.7 3 3 0 0 0 .7 0s-.6-.6-1-.5a.6.6 0 0 0-.2 0 1.5 1.5 0 0 1 .1-.2h.3a1.3 1.3 0 0 0-.3-.2 2 2 0 0 0 .4-.1 2 2 0 0 0-.3-.2 3.6 3.6 0 0 0 .3-.4h.5a1.1 1.1 0 0 0-.4-.3h.2a2.9 2.9 0 0 0-.6-.3 2.7 2.7 0 0 0 .5-.6 2.5 2.5 0 0 0-.5 0 1.5 1.5 0 0 0-.1-.6 2.3 2.3 0 0 0-.2.3 1.8 1.8 0 0 0 0-.3s0 0-.1 0a.6.6 0 0 1 0-.2s-.1 0-.1.1h-.1a1.8 1.8 0 0 0 0-.5 2 2 0 0 0-.5.4.8.8 0 0 1 0-.3 2.3 2.3 0 0 0-.3.4v-.2a2.3 2.3 0 0 0-.2.3 1 1 0 0 1 0-.3s-.1 0-.2.1a1.1 1.1 0 0 0-.3 0l.4-.2a1.2 1.2 0 0 0-.5 0l.2-.2a2.6 2.6 0 0 0-.3 0 1.6 1.6 0 0 0 .4-.3 3.4 3.4 0 0 0 .4.6 3.8 3.8 0 0 0 0-1 3.8 3.8 0 0 0 1 .2s0 0-.3-.2a1.5 1.5 0 0 0 .6.2l-.3-.5a4.4 4.4 0 0 0 0-.6 1 1 0 0 0 0-.1 2.9 2.9 0 0 0 .5.1 2.7 2.7 0 0 0-.2-.5 1.7 1.7 0 0 0 .5.2l-.3-.4V71a.9.9 0 0 0 .3 0c.2.6 1.4.7 1.4.7a3.7 3.7 0 0 0-.7-.7 3.8 3.8 0 0 0 .9-.5s0 0-.4 0a1.5 1.5 0 0 0 .6-.3s-.3 0-.6 0a1.6 1.6 0 0 0 .4-.2h.2a1.3 1.3 0 0 1-.1-.3 3.1 3.1 0 0 0 .3.3v-.3a3 3 0 0 0 .7.3 1 1 0 0 1-.2-.3 2.6 2.6 0 0 0 .8.3 2.3 2.3 0 0 0-.3-.6 3.5 3.5 0 0 0 .4 0l-.5-.5a1.5 1.5 0 0 0 .2 0s-.1-.1-.4-.3a1.4 1.4 0 0 0 .4-.1 3.4 3.4 0 0 0 .5.2 3.7 3.7 0 0 0-.4-.9 3.9 3.9 0 0 0 .9-.2s0 0-.3-.1a1.6 1.6 0 0 0 .6-.1s-.3-.1-.6-.3a4.2 4.2 0 0 0-.2-.5 1.1 1.1 0 0 0-.1-.1 3 3 0 0 0 .5-.1 2.8 2.8 0 0 0-.5-.3 1.6 1.6 0 0 0 .5-.2s-.1 0-.4-.1v-.2a.8.8 0 0 0 .2-.1c.5.4 1.5-.2 1.5-.2a3.6 3.6 0 0 0-1-.3 3.7 3.7 0 0 0 .5-.8l-.3.2a1.6 1.6 0 0 0 .4-.5s-.2 0-.5.2a1.6 1.6 0 0 0 .2-.4h.2a1.3 1.3 0 0 1-.3-.3 3.1 3.1 0 0 0 .5 0l-.2-.2a3.2 3.2 0 0 0 .7 0 1 1 0 0 1-.3-.2 2.7 2.7 0 0 0 .8-.2 2.5 2.5 0 0 0-.4-.3c.4-.1.4-.8.4-.9l-.4.4a1.7 1.7 0 0 0 0-.4h.3l-.5-.3V61a3.2 3.2 0 0 0 .5-.1 1 1 0 0 1-.3-.2v-.3l-.2.2a1.5 1.5 0 0 0-.3-.2 3 3 0 0 0 .4-.3 2.7 2.7 0 0 0-.6 0 1.6 1.6 0 0 0 .4-.4s-.2 0-.4 0l-.2-.1a3.4 3.4 0 0 0 .4-.3 2.7 2.7 0 0 0-.5-.2 1.7 1.7 0 0 0 .4-.2s-.1 0-.3 0a3 3 0 0 0 .6-.4l-.7-.2a.8.8 0 0 0-.1 0 3 3 0 0 0 .2-.4 2.7 2.7 0 0 0-.5 0 1.6 1.6 0 0 0 .2-.4s-.1.1-.4.2h-.2a2 2 0 0 0 0-1.6 1.7 1.7 0 0 0 .6-.4 3.4 3.4 0 0 0 .4.6 3.7 3.7 0 0 0 0-1 3.9 3.9 0 0 0 1 .2s-.1 0-.3-.2a1.6 1.6 0 0 0 .6.2l-.4-.5a4.2 4.2 0 0 0 .1-.6 1 1 0 0 0 0-.1 3 3 0 0 0 .5.1 2.8 2.8 0 0 0-.2-.5 1.6 1.6 0 0 0 .4.2l-.2-.4v-.2a1 1 0 0 0 .2 0c.3.6 1.4.7 1.4.7a3.8 3.8 0 0 0-.6-.7 3.8 3.8 0 0 0 .8-.5s0 0-.3 0a1.6 1.6 0 0 0 .5-.3s-.2 0-.5 0a1.5 1.5 0 0 0 .3-.2h.3a1.3 1.3 0 0 1-.2-.3 3.2 3.2 0 0 0 .4.3 3 3 0 0 0 0-.3 3.1 3.1 0 0 0 .6.3 1 1 0 0 1-.1-.3 2.2 2.2 0 0 0 .5.2 4.1 4.1 0 0 0 .4.5 4.5 4.5 0 0 0-1.1.5s1.3.5 1.9 0a1 1 0 0 0 .2 0 2.4 2.4 0 0 1 0 .3l-.5.3a2 2 0 0 0 .6 0 3.2 3.2 0 0 0-.5.5 3.6 3.6 0 0 0 .6 0 .8.8 0 0 0 0 .2 5 5 0 0 0-.3.7l-.7.3a1.9 1.9 0 0 0 .8.1l-.4.2a4.5 4.5 0 0 0 1.1.2 4.4 4.4 0 0 0-.5 1 4 4 0 0 0 .7-.3 1.7 1.7 0 0 0 .5.1l-.2.2a2 2 0 0 0 .6 0 1 1 0 0 1-.2.2 3.8 3.8 0 0 0 .8 0 3.2 3.2 0 0 0-.3.5 3.2 3.2 0 0 0 1-.3 1.3 1.3 0 0 1-.2.4 3.7 3.7 0 0 0 .8-.4v.4a3.6 3.6 0 0 0 .3-.2l-.1.2a2.7 2.7 0 0 0-.9.4 3.6 3.6 0 0 0 .6.3.9.9 0 0 0-.1 0 4.9 4.9 0 0 0-.4.7l-.7.1a1.9 1.9 0 0 0 .7.3h-.4a4.6 4.6 0 0 0 1 .5 4.4 4.4 0 0 0-.7 1 4 4 0 0 0 .8-.3 2.3 2.3 0 0 0 .3 1 3.7 3.7 0 0 0 .2-.3 2.5 2.5 0 0 0 .3.4h-.1.2a1 1 0 0 1 .1.3v-.2h.2a2.8 2.8 0 0 0 0 .8 3.1 3.1 0 0 0 .7-.8 2.3 2.3 0 0 0 0 .3v.1a.8.8 0 0 1 0 .2 2.4 2.4 0 0 0 .3-.2 1.5 1.5 0 0 0 .4 0 .8.8 0 0 0-.2.1l-.6.6a2 2 0 0 0 .6 0l-.4.4a1.8 1.8 0 0 0 .7-.1l-.3.3a4.6 4.6 0 0 0 1-.2 4.4 4.4 0 0 0 0 1.2s1-.9.9-1.6a1.1 1.1 0 0 0 .1-.2l.2.2v.5a2 2 0 0 0 .4-.5 3.2 3.2 0 0 0 .2.6 3.6 3.6 0 0 0 .3-.4 4.9 4.9 0 0 0 .6.6v.7a1.9 1.9 0 0 0 .4-.6v.5a4.7 4.7 0 0 0 .6-1 4.4 4.4 0 0 0 .8 1 4.2 4.2 0 0 0 0-.5 3 3 0 0 0 .3.6 3.2 3.2 0 0 0 .3-1 1.2 1.2 0 0 1 .2.4 3.6 3.6 0 0 0 .1-.9l.3.3a3.5 3.5 0 0 0 0-.6 1.6 1.6 0 0 1 .3.4s0-.1 0-.3a2 2 0 0 0 .5-.2l-.3.6a2 2 0 0 0 .7-.3l-.2.3s1.4-.5 1.7-1.3h.2l.2.6a2 2 0 0 0 .2-.6 3.3 3.3 0 0 0 .3.6 3.6 3.6 0 0 0 .2-.6 1.2 1.2 0 0 0 .1.1 4.5 4.5 0 0 0 .6.4 1.5 1.5 0 0 1-.1.1l-.2-.2a1.2 1.2 0 0 0 0 .4 2 2 0 0 0-.3-.2 2 2 0 0 0 0 .3 3.1 3.1 0 0 0-.5 0l-.3-.2a1.1 1.1 0 0 0 .1.4 9 9 0 0 1-.2-.2 2.8 2.8 0 0 0 .2.7 3 3 0 0 0-.8 0 2.5 2.5 0 0 0 .4.3 1.4 1.4 0 0 0-.4.6 2.1 2.1 0 0 0 .3 0 1.8 1.8 0 0 0 0 .2h-.2a.6.6 0 0 1 0 .2s0 0 .2 0a1.7 1.7 0 0 0-.4.4 2 2 0 0 0 .6 0 .8.8 0 0 1-.2.2 2.4 2.4 0 0 0 .6 0 2.2 2.2 0 0 0-.1.2 2.2 2.2 0 0 0 .3 0 1 1 0 0 1-.2.2s0 0 .2 0a1.2 1.2 0 0 0 .1.2l-.3-.1a1.2 1.2 0 0 0 .2.3H99a1.1 1.1 0 0 0-.3.2l.1-.2a2.9 2.9 0 0 0-.5.4 2.7 2.7 0 0 0-.3-.7 2.6 2.6 0 0 0-.1.4 1.5 1.5 0 0 0-.7-.2 2.4 2.4 0 0 0 .1.3 1.6 1.6 0 0 0-.3 0v-.1a.6.6 0 0 1-.2 0s0 .1.1.2a1.8 1.8 0 0 0-.5-.2 2 2 0 0 0 .2.6 1.8 1.8 0 0 0-.2 0V67a.7.7 0 0 1-.2 0v.2a.9.9 0 0 0 0 .2.6.6 0 0 0 0-.1l-.2-.5a1.2 1.2 0 0 0-.1.3l-.1-.4a1.2 1.2 0 0 0-.2.4v-.3a2.9 2.9 0 0 0-.4.6 2.7 2.7 0 0 0-.5-.4s0 .8.5 1a.6.6 0 0 0 0 .2h-.1l-.3-.2a1.3 1.3 0 0 0 .1.4 2 2 0 0 0-.4-.2 2.2 2.2 0 0 0 .1.4 3 3 0 0 0-.5 0l-.4-.3a1.1 1.1 0 0 0 .2.5l-.2-.2a2.8 2.8 0 0 0 .2.7 2.3 2.3 0 0 0-.2 0v-.4a1.2 1.2 0 0 0-.3.4V69a2.6 2.6 0 0 0-.2.2 2.2 2.2 0 0 0-.2.4 2.7 2.7 0 0 0-.5-.6 2.5 2.5 0 0 0 0 .5 1 1 0 0 0 0 .2l-.3-.3a1 1 0 0 0 0 .1l-.2-.4a2.3 2.3 0 0 0-.1.2 1.8 1.8 0 0 0-.4-.3 2 2 0 0 0 .1.6.7.7 0 0 1-.2-.1 2.5 2.5 0 0 0 0 .4h-.1v.4a2.8 2.8 0 0 0-.6-.6s0 1 .4 1.1a.6.6 0 0 0 0 .2H91l-.2-.2a1.2 1.2 0 0 0 0 .4 2 2 0 0 0-.3-.2 2.1 2.1 0 0 0 0 .3 3.2 3.2 0 0 0-.5 0l-.3-.2a1.2 1.2 0 0 0 0 .4v-.2a2.8 2.8 0 0 0 0 .7 2.8 2.8 0 0 0-.7 0 2.5 2.5 0 0 0 .4.3 1.5 1.5 0 0 0-.4.6 2.6 2.6 0 0 0 .3 0 1.6 1.6 0 0 0 0 .2H89a.6.6 0 0 1 0 .2s0 0 .2 0a1.7 1.7 0 0 0-.4.4 6.3 6.3 0 0 1-.7.2 3.5 3.5 0 0 0-.3-1.1 3.6 3.6 0 0 0-.3.5 3.8 3.8 0 0 0-.3-1 1.9 1.9 0 0 1-.2.5 3.2 3.2 0 0 0-.8-1 3.2 3.2 0 0 0 0 .8 3 3 0 0 0-.4-.2 4 4 0 0 0-.2-.5l-.1.3-.2-.1a1.5 1.5 0 0 1 0 .2 2.5 2.5 0 0 0-.1.4 2.2 2.2 0 0 0-.6-.2s.1.2.3.4a5.2 5.2 0 0 0-1-.6s.1.1.5 1a2.1 2.1 0 0 0-.6-.2l-.1-.3a3.9 3.9 0 0 0-.2.4 4 4 0 0 0-.6-.7 1.4 1.4 0 0 1 0 .5 3.5 3.5 0 0 0-.8-.7 3 3 0 0 0 0 .9l-.2-.2a1 1 0 0 1 0 .3 2 2 0 0 0-.3 0s0 0 .1 0a3 3 0 0 0-.2.5 3.8 3.8 0 0 0-.2-.4 2.6 2.6 0 0 0-.3 1.2 4.5 4.5 0 0 0-.9 0 4.8 4.8 0 0 0 1 .9 5 5 0 0 0-1 .6s0 0 .4 0a2 2 0 0 0-.7.4s.3 0 .8 0a5.5 5.5 0 0 0 .5.7.8.8 0 0 0 .1 0 4 4 0 0 0-.5.4 3.5 3.5 0 0 0 .7.2 2.2 2.2 0 0 0-.6.4s.2 0 .6 0l.1.3a1.2 1.2 0 0 0-.2.1c-.8-.2-1.9.9-1.9.9a4.9 4.9 0 0 0 1.4 0l-.1.3a4 4 0 0 0-.3.1 2 2 0 0 0 .2.1v.2a4.4 4.4 0 0 0-.6.4l1 .1a2.1 2.1 0 0 0-.5.7s.3-.1.7-.3a2.2 2.2 0 0 0-.3.6s.3-.2.8-.4a2 2 0 0 0-.3.8s.3-.2.7-.4a4.2 4.2 0 0 0 .2.7 1.4 1.4 0 0 1 .2-.4 2.2 2.2 0 0 0 .1.5s.1-.2.3-.5a5.1 5.1 0 0 0 .3 1s0 0 .2-.4a2.1 2.1 0 0 0 .2.7s0-.3.2-.7a2.2 2.2 0 0 0 .2.6s0 0 .1-.2a4 4 0 0 0 1.8 1s0 0-.3-.3a2 2 0 0 0 .8.3s-.2-.2-.4-.6a5.5 5.5 0 0 0 .2-.8 1 1 0 0 0 0-.2 3.9 3.9 0 0 0 .6.3 3.3 3.3 0 0 0-.2-.7 2.2 2.2 0 0 0 .5.2 1.7 1.7 0 0 0 .7 1.2 1 1 0 0 0 0 .3h-.2l-.4-.3a2 2 0 0 0 .2.6 3.3 3.3 0 0 0-.6-.2 3.6 3.6 0 0 0 .2.5 1.2 1.2 0 0 0-.2 0 5.1 5.1 0 0 0-.7 0l-.6-.3a1.8 1.8 0 0 0 .3.7l-.4-.3a4.7 4.7 0 0 0 .4 1 3 3 0 0 0-.4 0V85a2 2 0 0 0-.4.6v-.4a3.9 3.9 0 0 0-.3.4h-.1v.1a4.3 4.3 0 0 0-.2.5 4.4 4.4 0 0 0-.9-.8 4.1 4.1 0 0 0 .1.6 1.7 1.7 0 0 0-.2.4l-.3-.5a1.8 1.8 0 0 0 0 .2l-.4-.7a3.6 3.6 0 0 0-.1.4 3 3 0 0 0-.6-.5 3.2 3.2 0 0 0 0 1 1.2 1.2 0 0 1-.3-.2 4 4 0 0 0 .2.6l-.1.1h-.2v.5a4.4 4.4 0 0 0-1-.8s0 1.4.7 1.7a1 1 0 0 0 0 .3h-.2l-.4-.3a2 2 0 0 0 .1.6 3.2 3.2 0 0 0-.5-.3 3.5 3.5 0 0 0 .1.5 1 1 0 0 0-.1 0 4.8 4.8 0 0 0-.8 0l-.5-.4a1.9 1.9 0 0 0 .2.7L79 89a4.6 4.6 0 0 0 .2 1.1 4.4 4.4 0 0 0-1.2 0 4 4 0 0 0 .7.5 2.4 2.4 0 0 0-.6 1 3.2 3.2 0 0 0 .4-.2 2.6 2.6 0 0 0-.2.5 1 1 0 0 1-.1.3s0 0 .2 0h.1a2.8 2.8 0 0 0-.7.6 3.2 3.2 0 0 0 1 0 1.2 1.2 0 0 1-.3.4 3.7 3.7 0 0 0 .9 0l-.2.2a3.5 3.5 0 0 0 .5 0 1.6 1.6 0 0 1-.3.3s.1 0 .3 0a2.1 2.1 0 0 0 .3.4l-.6-.2a1.9 1.9 0 0 0 .4.6l-.4-.2a4.6 4.6 0 0 0 .7 1 4.5 4.5 0 0 0-1.1.4s1.3.5 1.9 0a1.1 1.1 0 0 0 .2 0v.3l-.5.3a2 2 0 0 0 .6 0 3.3 3.3 0 0 0-.5.5 3.6 3.6 0 0 0 .6 0 1 1 0 0 0 0 .2 5 5 0 0 0-.3.7l-.7.3a1.9 1.9 0 0 0 .8.1l-.4.2a4.6 4.6 0 0 0 1.1.2 4.5 4.5 0 0 0-.5 1 4 4 0 0 0 .7-.3 1.7 1.7 0 0 0 .5.1l-.2.2a2 2 0 0 0 .7 0 1 1 0 0 1-.3.2 3.8 3.8 0 0 0 .8 0 3.3 3.3 0 0 0-.3.5 3.2 3.2 0 0 0 1-.3 1.2 1.2 0 0 1-.2.4 3.7 3.7 0 0 0 .8-.4v.4a3.6 3.6 0 0 0 .3-.2l-.1.2a2.6 2.6 0 0 0-.9.4 3.3 3.3 0 0 0 .6.2l-.1.2a5 5 0 0 0-.4.6l-.7.1a1.9 1.9 0 0 0 .7.3h-.4a4.7 4.7 0 0 0 1 .5 4.5 4.5 0 0 0-.7 1 4 4 0 0 0 .8-.3 2.3 2.3 0 0 0 .4 1 3.6 3.6 0 0 0 .1-.3 2.9 2.9 0 0 0 .3.3l-.1.1a1.5 1.5 0 0 0 .2 0 1.1 1.1 0 0 1 .1.3v-.2a1.3 1.3 0 0 0 .2 0 2.8 2.8 0 0 0 0 .8 3.2 3.2 0 0 0 .7-.8v.4a1 1 0 0 1 0 .2c.1 0 .2 0 .3-.2a1.5 1.5 0 0 0 .4 0 .6.6 0 0 0-.1 0l-.7.7a2 2 0 0 0 .6 0l-.4.4a1.9 1.9 0 0 0 .7-.1l-.3.3a4.5 4.5 0 0 0 1-.2 4.4 4.4 0 0 0 0 1.2s1-.9.9-1.6a1.1 1.1 0 0 0 .2-.2l.1.2v.5a2 2 0 0 0 .4-.5 3.3 3.3 0 0 0 .2.6 3.4 3.4 0 0 0 .3-.4 5.2 5.2 0 0 0 .6.6v.7a1.9 1.9 0 0 0 .4-.6v.4a4.5 4.5 0 0 0 .6-.8 4.5 4.5 0 0 0 .8.9 4.2 4.2 0 0 0 0-.5 3 3 0 0 0 .3.6 3.2 3.2 0 0 0 .3-1 1.2 1.2 0 0 1 .2.4 3.5 3.5 0 0 0 .1-.9l.3.2a3.6 3.6 0 0 0 0-.5 1.6 1.6 0 0 1 .3.4s0-.1 0-.3a1.8 1.8 0 0 0 .5-.2l-.3.6a1.9 1.9 0 0 0 .7-.3l-.2.3s1.4-.5 1.7-1.3h.2l.2.6a2 2 0 0 0 .2-.6 3.3 3.3 0 0 0 .3.6 3.6 3.6 0 0 0 .2-.6h.1l.8.6a3.6 3.6 0 0 0-.3-.9l.4.3a2 2 0 0 0-.2-.6 3.2 3.2 0 0 0 .6.3 3.6 3.6 0 0 0-.1-.6h.3l.3.5a2 2 0 0 0 0-.6 3.3 3.3 0 0 0 .5.4 3.5 3.5 0 0 0 0-.6 1.1 1.1 0 0 0 .2 0l.1.1.1.4.2-.3a1.3 1.3 0 0 1 .4.1 3.8 3.8 0 0 0-.2-.4v-.2c.4.2.5.1.7.3v-.3a1.9 1.9 0 0 0 .2-.4v.6s.6-.6.4-1a3 3 0 0 0 .7 0 3.2 3.2 0 0 0-.6-.8 1.3 1.3 0 0 1 .5.1 3.6 3.6 0 0 0-.6-.6 3.3 3.3 0 0 0 .4-.1 3.6 3.6 0 0 0-.4-.4 1.5 1.5 0 0 1 .5.1s-.1-.1-.2-.3a2 2 0 0 0 .1-.4l.2.6a1.9 1.9 0 0 0 .2-.7l.2.4a4.7 4.7 0 0 0 .3-1 4.3 4.3 0 0 0 1 .5s-.4-1.3-1.1-1.5a1 1 0 0 0-.1-.2l.2-.1.5.2a2 2 0 0 0-.3-.5 3.2 3.2 0 0 0 .7 0 3.9 3.9 0 0 0-.3-.4.9.9 0 0 0 .1 0 5.2 5.2 0 0 0 .7-.3l.6.3a1.9 1.9 0 0 0-.3-.6l.3.2a4.6 4.6 0 0 0-.5-1 4.5 4.5 0 0 0 1.2-.3 4 4 0 0 0-.6-.3 1.8 1.8 0 0 0-.3-.4h.6a1.9 1.9 0 0 0-.1-.1 4.6 4.6 0 0 1 .7 0s0 0-.2-.2l.1-.1a2.9 2.9 0 0 0 .4-.1c-.4.5 0 1.6 0 1.6a3.6 3.6 0 0 0 .4-.9 3.8 3.8 0 0 0 .7.6s0 0-.1-.3a1.6 1.6 0 0 0 .4.4s0-.2 0-.5a1.5 1.5 0 0 0 .2.2v.3a1.3 1.3 0 0 1 .3-.3 3 3 0 0 0-.1.4h.3a3.1 3.1 0 0 0-.1.6 1 1 0 0 1 .3-.2 2.7 2.7 0 0 0 0 .8 2.2 2.2 0 0 0 .4-.5 1 1 0 0 0 .1.1v.2a.8.8 0 0 1 .2-.1 2.5 2.5 0 0 0 .4-.1 2.7 2.7 0 0 0 0 .3 2 2 0 0 0 .7-.4 3.4 3.4 0 0 0 .4.5 3.6 3.6 0 0 0 0-1 3.9 3.9 0 0 0 1 .3 3.2 3.2 0 0 1-.3-.2 1.5 1.5 0 0 0 .6.1l-.3-.4a4.3 4.3 0 0 0 0-.6 1 1 0 0 0 0-.2 3 3 0 0 0 .5.2 2.7 2.7 0 0 0-.2-.5 1.7 1.7 0 0 0 .5.1l-.3-.3v-.2a1 1 0 0 0 .3 0c.2.6 1.4.7 1.4.7a3.6 3.6 0 0 0-.7-.8 3.8 3.8 0 0 0 .9-.4s0 0-.4 0a1.6 1.6 0 0 0 .6-.3s-.3 0-.6 0a1.6 1.6 0 0 0 .4-.3l.2.2a1.4 1.4 0 0 1-.1-.4 3.4 3.4 0 0 0 .3.2v-.3a3 3 0 0 0 .7.4 1 1 0 0 1-.2-.4 2.6 2.6 0 0 0 .8.4 2.5 2.5 0 0 0-.3-.7 3.2 3.2 0 0 0 .4 0c-.2 0-.2-.2-.5-.4a1.7 1.7 0 0 0 .2 0s-.1-.1-.4-.4a1.3 1.3 0 0 0 .4 0 3.3 3.3 0 0 0 .5.2 3.6 3.6 0 0 0-.4-1 4 4 0 0 0 .9-.1s0 0-.3-.1a1.6 1.6 0 0 0 .6-.2s-.3 0-.6-.2a4 4 0 0 0-.2-.5 1 1 0 0 0-.1-.1 3 3 0 0 0 .5-.1 2.6 2.6 0 0 0-.5-.4 1.7 1.7 0 0 0 .5-.1s-.1 0-.4-.2v-.2a.9.9 0 0 0 .2 0c.5.3 1.5-.2 1.5-.2a3.6 3.6 0 0 0-1-.3 3.8 3.8 0 0 0 .5-.8l-.3.1a1.6 1.6 0 0 0 .4-.5s-.2.1-.5.2a1.6 1.6 0 0 0 .2-.3h.2a1.3 1.3 0 0 1-.3-.3 3 3 0 0 0 .5 0l-.2-.2a3 3 0 0 0 .7 0 1 1 0 0 1-.3-.3 2.7 2.7 0 0 0 .8 0 2.6 2.6 0 0 0-.4-.4c.4-.2.4-.9.4-.9l-.4.4a1.7 1.7 0 0 0 0-.4l.3-.1a4.8 4.8 0 0 1-.5-.3v-.2a3.3 3.3 0 0 0 .5 0 1 1 0 0 1-.3-.2 2.3 2.3 0 0 0 0-.3l-.2.1h-.2a3 3 0 0 0 .3-.4 2.7 2.7 0 0 0-.6 0 1.6 1.6 0 0 0 .4-.4s-.2 0-.4 0l-.2-.2a2.8 2.8 0 0 0 .4-.2 2.7 2.7 0 0 0-.5-.2 1.6 1.6 0 0 0 .4-.3s-.1 0-.3 0a3 3 0 0 0 .6-.3l-.7-.2a1 1 0 0 0-.1 0 2.8 2.8 0 0 0 .2-.4 2.7 2.7 0 0 0-.5 0 1.7 1.7 0 0 0 .2-.4s-.1 0-.4.2h-.2a1.4 1.4 0 0 0 .2-1 1.4 1.4 0 0 0 .1 0 2.6 2.6 0 0 0 0 .5 2.8 2.8 0 0 0 .5-.6 3 3 0 0 0 .4.5s0 0 0-.3a1.2 1.2 0 0 0 .3.4s0-.2 0-.5a3.1 3.1 0 0 0 .2-.3.8.8 0 0 0 0-.1 2.5 2.5 0 0 0 .3.2 1.6 1.6 0 0 0 0-.6 1.8 1.8 0 0 0 .3-.2 2.4 2.4 0 0 0 .1.4l.2-.2a2.3 2.3 0 0 0 .2.4.8.8 0 0 1 0-.2 2 2 0 0 0 .4.5 2 2 0 0 0 0-.4 2.3 2.3 0 0 0 .5.3.6.6 0 0 1 0-.2 1.2 1.2 0 0 0 .3.3s0 0 0-.2a1.2 1.2 0 0 0 .3.1s0 0-.1-.1a1.3 1.3 0 0 0 .3 0 2.3 2.3 0 0 0 .2.3v-.4a2.9 2.9 0 0 0 .5.2s0 0-.1-.2a1.2 1.2 0 0 0 .4.2s0 0-.2-.3a1.6 1.6 0 0 0 0-.3 2.4 2.4 0 0 0 .4 0 2 2 0 0 0-.2-.4 1.2 1.2 0 0 0 .4.1l-.2-.2v-.2a.6.6 0 0 0 .1 0 2 2 0 0 0 1 .2 3.8 3.8 0 0 0-.4-.3 3 3 0 0 0 .6-.3s0 0-.2 0a1.2 1.2 0 0 0 .4-.3s-.2 0-.5 0a1.2 1.2 0 0 0 .3-.2l.2.1a1 1 0 0 1-.1-.3 2.4 2.4 0 0 0 .2.2 1.8 1.8 0 0 0 0-.2 2.4 2.4 0 0 0 .5.2.7.7 0 0 1-.1-.3 2 2 0 0 0 .6.2 1.7 1.7 0 0 0-.3-.4h.2a.6.6 0 0 1 0-.2 1.1 1.1 0 0 0 .1 0 1.5 1.5 0 0 0 0-.3 2.6 2.6 0 0 0 .2.1 1.5 1.5 0 0 0-.2-.6Zm-4.5-39.6ZM69.3 84.3Zm7.8-22Zm41.4 23.2Zm.3-17a1.7 1.7 0 0 0 0 .1h-.2v-.2a1.3 1.3 0 0 0 .2 0Zm-5 2.8h-.2a1.7 1.7 0 0 0-.3-.4.8.8 0 0 1 .3 0 2.3 2.3 0 0 0-.4-.4 2 2 0 0 0 .3 0 2.4 2.4 0 0 0-.3-.3 1 1 0 0 1 .3 0s0 0-.1 0a1.2 1.2 0 0 0 0-.4l.2.4a1.2 1.2 0 0 0 .1-.4l.1.2a3 3 0 0 0 .2-.6 2.7 2.7 0 0 0 .7.3 2.4 2.4 0 0 0-.3-.6l.1-.2a5 5 0 0 0 .3 1s0-.1.1-.5a2 2 0 0 0 .3.7s0-.2.2-.6a2.2 2.2 0 0 0 .2.6s0-.1.1-.3a2 2 0 0 0 .2.3 2.5 2.5 0 0 0-1 .3s0 0 .2 0a1.2 1.2 0 0 0-.4.2s.2 0 .4.1a1.2 1.2 0 0 0-.2.1h-.2a1 1 0 0 1 0 .2 2.1 2.1 0 0 0-.2-.2 2.1 2.1 0 0 0 0 .3 2.3 2.3 0 0 0-.5-.3.8.8 0 0 1 .1.2 2 2 0 0 0-.5-.3 1.6 1.6 0 0 0 .2.6Zm-.8 0v-.1Zm-6.6 2.8Zm-.1 1.1a1.1 1.1 0 0 0-.2-.2h.1a.9.9 0 0 1 0 .2Zm-8.6 7a1.4 1.4 0 0 0-.1 0h.1Zm3.7-21 .2.2a1.2 1.2 0 0 0 0 .1l-.2-.1v-.2Zm14.4-1.2h.1a.6.6 0 0 0-.1 0Zm-1.7 8.8Zm2.4-9-.2-.2.2.2Zm-5.8-13.5a1 1 0 0 0-.2 0V46a1.3 1.3 0 0 0 .2.3ZM107 57.9a2.5 2.5 0 0 0-.1.4 1.5 1.5 0 0 0-.7-.1 2.2 2.2 0 0 0 .1.2 1.5 1.5 0 0 0-.2 0 .6.6 0 0 0-.1 0 .5.5 0 0 1-.2 0s0 0 .1 0a.6.6 0 0 0 0 .2 1.8 1.8 0 0 0-.5-.3 2 2 0 0 0 .2.6 1.4 1.4 0 0 0-.2 0v-.2a.5.5 0 0 1-.2 0v.2a1 1 0 0 0 0 .2.4.4 0 0 0 0-.1l-.2-.5a1.3 1.3 0 0 0-.1.3l-.1-.4a1.1 1.1 0 0 0-.2.4v-.3a3.1 3.1 0 0 0-.3.5 3.2 3.2 0 0 0-.4-.4l.4-.1a3.7 3.7 0 0 0-.4-.3 1.6 1.6 0 0 1 .5 0s-.1-.1-.2-.2a2 2 0 0 0 .1-.5l.2.6a1.9 1.9 0 0 0 .2-.7l.2.4a5 5 0 0 0 .2-.7 3 3 0 0 0 .3-.2 5 5 0 0 0 .8.4s0 0 0-.1a2 2 0 0 0 .2 0 2.3 2.3 0 0 0-.2.3 2 2 0 0 0 .6-.2.7.7 0 0 1 0 .2 2.3 2.3 0 0 0 .4-.2v.2a2 2 0 0 0 .2-.1v.1a1.6 1.6 0 0 0-.6.3 2 2 0 0 0 .2 0Zm-2-15.2a2.9 2.9 0 0 0-.2.4v-.2a1.7 1.7 0 0 0 .2-.5 2.7 2.7 0 0 1 .3 0 3.2 3.2 0 0 0-.4.3ZM104 60Zm-.4-.2Zm1.6-3v.2-.2Zm-.8-13.5a1.5 1.5 0 0 1 0-.5s-.1.1-.2.3a2.2 2.2 0 0 0-.4-.1 2.3 2.3 0 0 0 .5-.2 3 3 0 0 0 .1.4v.1Zm-1.6 17.5a2.4 2.4 0 0 0 .1.3 1.9 1.9 0 0 0-.2 0v-.3h.1Zm4.2-2.8h.1v.1-.1Zm-4.9 3.3v.2a2 2 0 0 0-.3-.3 1.2 1.2 0 0 0 .2 0h.1Zm-1.7.5h-.1v.2a1.6 1.6 0 0 0 0-.3l.1.1Zm-3.3 20.8a.9.9 0 0 0 .1-.2v.2Zm.5.3a2.6 2.6 0 0 0-.2.2l-.1-.3a2.3 2.3 0 0 0 .3 0Zm.8.1a1.2 1.2 0 0 0 0 .3v-.3Zm15-7.2a.6.6 0 0 0 .2-.2 2.4 2.4 0 0 0 .2 0 2.3 2.3 0 0 0-.1.3H113.5a.8.8 0 0 0 0-.1Zm.5.1Zm0 .2Zm4.2-7.1Zm-.2-10.3Zm-.3.7v.2a2.7 2.7 0 0 0-.3-.3 2.1 2.1 0 0 0 .3.1Zm-7.4-13a1 1 0 0 0 0 .2.4.4 0 0 0 0-.1l-.1-.1V46a1.3 1.3 0 0 0 .1.2Zm-.6-.3a.9.9 0 0 0 0 .2v-.3.1Zm-.2-.2.2.1a2.8 2.8 0 0 0-.4.6 3.2 3.2 0 0 0 .2-.7Zm-1.3-1a3 3 0 0 0 0 .4 2.7 2.7 0 0 0 .5-.4 1.7 1.7 0 0 0 0 .5s.1-.1.2-.3h.2a.9.9 0 0 0 0 .1 1.3 1.3 0 0 0-.1 1h-.2s0 .8.5 1a.6.6 0 0 0 0 .1h-.2l-.2-.1a1.2 1.2 0 0 0 0 .3 2 2 0 0 0-.3-.1 2.2 2.2 0 0 0 .1.3 3 3 0 0 0-.5 0l-.4-.2a1.1 1.1 0 0 0 .2.5l-.2-.2a2.8 2.8 0 0 0 0 .4 1.2 1.2 0 0 0-.7-.2 1 1 0 0 0-.2 0l.1-.3h.5a2 2 0 0 0-.5-.4 3.2 3.2 0 0 0 .6-.2 3.6 3.6 0 0 0-.5-.3 1 1 0 0 0 .1 0 4.6 4.6 0 0 0 .5-.6l.7-.1a1.9 1.9 0 0 0-.6-.4h.4a4.6 4.6 0 0 0-.8-.4l.1-.3a4.2 4.2 0 0 0 .6-.1.8.8 0 0 0 .1 0Zm-25.5-4.3h-.2a1.4 1.4 0 0 0 .2-.2v.2Zm-6.5-6.9a.6.6 0 0 0 .2 0 1.7 1.7 0 0 0-.2.1Zm-9 17.7H67Zm-.3.2a4.1 4.1 0 0 0-.2.6.7.7 0 0 0 0 .1 3 3 0 0 0-.4-.2 2.2 2.2 0 0 0 .2.8l-.1.2a3.2 3.2 0 0 0 0-.4 2.8 2.8 0 0 0-.3.3 3.1 3.1 0 0 0-.2-.7 1 1 0 0 1-.1.3 2.7 2.7 0 0 0-.3-.8 2.6 2.6 0 0 0-.2.5 3 3 0 0 0-.5-.5.8.8 0 0 1 0 .3 1.6 1.6 0 0 0-.3-.4s0 0 0 .2a1.4 1.4 0 0 0-.4-.2 3.4 3.4 0 0 0-.1-.6 3.7 3.7 0 0 0-.4.9 3.8 3.8 0 0 0-.7-.6s0 0 0 .3a1.5 1.5 0 0 0-.4-.4s0 .2.1.6a3.9 3.9 0 0 0-.3.5 1 1 0 0 0 0 .1 3 3 0 0 0-.4-.3 2.7 2.7 0 0 0 0 .5 1.7 1.7 0 0 0-.4-.3s0 .2.1.5v.1a.9.9 0 0 0-.2 0 .7.7 0 0 0-.1-.3h.1l-.2-.2a1.6 1.6 0 0 0-.3-.3h.4-.1a3 3 0 0 1 .4 0 2.3 2.3 0 0 0-.1-.2 1.8 1.8 0 0 0 .4-.2 2 2 0 0 0-.5-.3.8.8 0 0 1 .2 0 2.3 2.3 0 0 0-.5-.2l.2-.2a2.3 2.3 0 0 0-.4 0 1 1 0 0 1 .3-.2s0 0-.2 0a1.1 1.1 0 0 0 0-.3l.3.2a1.2 1.2 0 0 0-.1-.4l.2.2a2.8 2.8 0 0 0-.2-.7 2.8 2.8 0 0 0 .7 0s-.6-.6-1-.5a.7.7 0 0 0-.2 0l.1-.2h.3a1.2 1.2 0 0 0-.3-.2 2 2 0 0 0 .4-.2 2.1 2.1 0 0 0-.3-.1.5.5 0 0 0 0-.1 2.5 2.5 0 0 0 .3-.3 2.7 2.7 0 0 0 1.2.4 3.7 3.7 0 0 0-.7-.8 3.8 3.8 0 0 0 .9-.4s0 0-.4 0a1.6 1.6 0 0 0 .6-.3s-.2 0-.6-.1a1.6 1.6 0 0 0 .4-.2l.2.1a1.3 1.3 0 0 1-.1-.4 3 3 0 0 0 .3.3 2.6 2.6 0 0 0 0-.3 2.7 2.7 0 0 0 .5.2 3.6 3.6 0 0 0-.6.4 3.7 3.7 0 0 0 1 0 3.8 3.8 0 0 0-.3 1s0 0 .2-.2a1.6 1.6 0 0 0-.2.5l.5-.3a1.8 1.8 0 0 0-.2.5l.6-.4a.7.7 0 0 0 .1 0 1.3 1.3 0 0 0 0 .2l-.3.1a.8.8 0 0 1 .2 0 1 1 0 0 0 0 .2h.1a2.2 2.2 0 0 0 .2 0 2.6 2.6 0 0 0-.7.4 2.3 2.3 0 0 0 .7.2 1 1 0 0 0 0 .1h-.3a.8.8 0 0 1 .2.2v.1a2.1 2.1 0 0 0 .3.2 2.7 2.7 0 0 0-.3.1 2 2 0 0 0 .7.5 3.6 3.6 0 0 0-.3.6 3.7 3.7 0 0 0 1-.4 3.7 3.7 0 0 0 .1 1s0-.1.1-.4a1.6 1.6 0 0 0 .1.6s.1-.2.3-.5l.2.1ZM55.3 60l.3.3a1.1 1.1 0 0 0-.3 0V60a3 3 0 0 1-.2.4h-.2a2.3 2.3 0 0 0 0-.3.8.8 0 0 1-.2.2 2 2 0 0 0-.2 0l.2.2a.5.5 0 0 0-.1.2 2.3 2.3 0 0 0-.3-.3 2 2 0 0 0 0 .4 1.2 1.2 0 0 0-.3-.2s0 .1 0 .3v.2a2.3 2.3 0 0 0-.2-.3 2 2 0 0 0-.1.4 1.3 1.3 0 0 0-.3-.3s0 .1 0 .3a2.2 2.2 0 0 0-.3-.5v.6a2.4 2.4 0 0 0-.4 0v-.1a1 1 0 0 0 0-.1 5 5 0 0 0 .5-.5l.7-.1a1.9 1.9 0 0 0-.6-.4h.4a4.6 4.6 0 0 0-1-.6h.1l.2.1a2.5 2.5 0 0 0 0-.3 1.8 1.8 0 0 0 .2.4 2 2 0 0 0 .2-.6.8.8 0 0 1 .1.2 2.2 2.2 0 0 0 .1-.5l.2.1a2.2 2.2 0 0 0 0-.3 1 1 0 0 1 .2.3v-.2a1.3 1.3 0 0 0 .3-.2l-.2.4a1.2 1.2 0 0 0 .4-.2l-.1.2s.9-.3 1-.8h.2v.3a1.2 1.2 0 0 0 .2-.3 2 2 0 0 0 .2.3 2.2 2.2 0 0 0 .1-.3.7.7 0 0 0 .1 0l.1.1.2.1v.2a3.3 3.3 0 0 0-.5.3 1 1 0 0 1 .3 0 2.7 2.7 0 0 0-.7.5 2.4 2.4 0 0 0 .7 0 3.2 3.2 0 0 0-.2.4 4 4 0 0 1 .6-.2 1.4 1.4 0 0 0 0 .2s.1 0 .4-.1a1.4 1.4 0 0 0-.1.3 3.5 3.5 0 0 0-.5.3.7.7 0 0 1-.1.2 2 2 0 0 0-.2-.6 2 2 0 0 0-.2.3c-.1-.2-.7-.2-.7-.2Zm.6.5Zm-6.7 13.8ZM64.8 22l.1.2a1 1 0 0 0 0-.2h.2l.1.1v.1h.1a.8.8 0 0 1 .2.2 1.9 1.9 0 0 0 0-.2 1.8 1.8 0 0 0 .1.5 1.2 1.2 0 0 0 0 .3 2 2 0 0 0-.3-.2 2.1 2.1 0 0 0 0 .4 3.2 3.2 0 0 0-.5 0l-.3-.2a1.2 1.2 0 0 0 .1.4l-.2-.2a2.8 2.8 0 0 0 .2.7 2 2 0 0 0-.2 0v-.4a1.2 1.2 0 0 0-.3.4v-.2a2.6 2.6 0 0 0-.1.2h-.1a2.7 2.7 0 0 0-.1.4 2.7 2.7 0 0 0-.6-.5 2.5 2.5 0 0 0 0 .4 1 1 0 0 0 0 .2l-.2-.3a1 1 0 0 0 0 .1l-.3-.4v.2a1.8 1.8 0 0 0-.4-.3 2 2 0 0 0 0 .7.8.8 0 0 1-.2-.2 2.5 2.5 0 0 0 0 .4 1.5 1.5 0 0 0 0 .2l-.1.2a2.7 2.7 0 0 0-.5-.6s0 1 .4 1.1a.6.6 0 0 0 0 .2h-.2l-.2-.2a1.2 1.2 0 0 0 0 .4 2 2 0 0 0-.3-.2 2.1 2.1 0 0 0 0 .3 3.3 3.3 0 0 0-.4 0l-.4-.2a1.2 1.2 0 0 0 .1.4l-.2-.2a2.9 2.9 0 0 0 .2.7 2.8 2.8 0 0 0-.7 0 2.5 2.5 0 0 0 .4.3 1.2 1.2 0 0 0-.3.4 2.8 2.8 0 0 0-.8-.3 1.2 1.2 0 0 1 .4-.1 3.7 3.7 0 0 0-.8-.3l.3-.3a3.6 3.6 0 0 0-.5 0 1.6 1.6 0 0 1 .4-.3s0 0-.3 0a1.9 1.9 0 0 0 0-.5l.4.4a1.8 1.8 0 0 0-.2-.7l.3.2a4.6 4.6 0 0 0-.3-1 4.4 4.4 0 0 0 1.2 0 4.2 4.2 0 0 0-.5-.5 1 1 0 0 0 0-.2.6.6 0 0 1 .1.2 1.8 1.8 0 0 0 .1-.4 1.7 1.7 0 0 0 .1 0 1.9 1.9 0 0 0 0-.2.8.8 0 0 1 .2.2v-.2a.9.9 0 0 0 .2 0l-.2.2a1 1 0 0 0 .4 0h-.2a2.2 2.2 0 0 0 .5-.1 2 2 0 0 0 .1.6s.4-.6.3-1h.2v.3a1 1 0 0 0 .1-.3 1.6 1.6 0 0 0 .2.3 1.7 1.7 0 0 0 0-.2h.1a2.3 2.3 0 0 0 .3.2v.4a1 1 0 0 0 .2-.4v.2a2.2 2.2 0 0 0 .3-.5 2.2 2.2 0 0 0 .5.4 2.1 2.1 0 0 0-.1-.4 1 1 0 0 0 .3 0 .5.5 0 0 0 .1 0 .6.6 0 0 1 .2 0s0 0 0-.2a1.3 1.3 0 0 0 .3.3 1.6 1.6 0 0 0 0-.5.6.6 0 0 1 0 .1 1.8 1.8 0 0 0 0-.3 1.5 1.5 0 0 0 .3.1 1.7 1.7 0 0 0-.1-.2.8.8 0 0 1 .2.1 1.5 1.5 0 0 0 0-.2 1 1 0 0 0 .1-.1v.3a1 1 0 0 0 .2-.3v.1a2.5 2.5 0 0 0 .2-.2.5.5 0 0 1 .1 0s0 0 0-.1Zm12 6h.1v.1a1.1 1.1 0 0 0 0-.1Zm.3-.7a1.6 1.6 0 0 0 .1.4 2.5 2.5 0 0 0-.1-.4Zm-1.4 6a2.2 2.2 0 0 0-.7.2h-.1a2 2 0 0 0 .2-.1 2.5 2.5 0 0 0-.3-.3 1 1 0 0 1 .4 0s-.1 0-.2 0a1.3 1.3 0 0 0 .1-.4l.2.4a1.1 1.1 0 0 0 0-.4l.1.2.1-.2a2.8 2.8 0 0 0 .4.5 2 2 0 0 0-.2 0ZM63.6 46.7v-.2a1.6 1.6 0 0 0 .2.1h-.2Zm-2 22a1 1 0 0 0 0-.1Zm-5-10.6Zm-5.8 12.3a1 1 0 0 0-.2-.2l.2-.1h.2a1.3 1.3 0 0 0-.2.3Zm-4-14.3a3.5 3.5 0 0 0-.4.4 1 1 0 0 0 0-.2 5.1 5.1 0 0 0-.4-.6l.2-.7a1.9 1.9 0 0 0-.6.5l.2-.4a4.5 4.5 0 0 0-1 .7 4.4 4.4 0 0 0-.4-1.1 4.1 4.1 0 0 0-.2.6 1.7 1.7 0 0 0-.3.3V55a1.7 1.7 0 0 0-.2.2 4.8 4.8 0 0 1-.1-.8 3.7 3.7 0 0 0-.3.3 2.9 2.9 0 0 0-.4-.6 3.2 3.2 0 0 0-.2 1 1.2 1.2 0 0 1-.2-.4 3.6 3.6 0 0 0-.2.8l-.3-.2a3.5 3.5 0 0 0 0 .5l-.2-.3a2.4 2.4 0 0 0 .2-1 3.6 3.6 0 0 0-.3.2 4.4 4.4 0 0 0-.3-.4l-.2-.3a4 4 0 0 0 .7-.4s0 0-.3 0a1.5 1.5 0 0 0 .5-.3s-.2 0-.5 0a1.6 1.6 0 0 0 .3-.2l.3.1a1.3 1.3 0 0 1-.1-.4 3.2 3.2 0 0 0 .3.3 3 3 0 0 0 0-.3 3 3 0 0 0 .6.3 1 1 0 0 1-.1-.3 2.6 2.6 0 0 0 .8.3 2.4 2.4 0 0 0-.3-.6 3.2 3.2 0 0 0 .4 0l-.5-.5a1.6 1.6 0 0 0 .2 0s-.1-.1-.4-.3a1.4 1.4 0 0 0 .4-.1 3.3 3.3 0 0 0 .5.2 3.7 3.7 0 0 0-.5-.9h.2a2 2 0 0 0 .6 0 .8.8 0 0 1-.2.2 2.4 2.4 0 0 0 .6 0 2 2 0 0 0-.1.2 2.2 2.2 0 0 0 .3 0 1 1 0 0 1-.2.2s0 0 .2 0a1.2 1.2 0 0 0 .2.2l-.4-.1a1.2 1.2 0 0 0 .2.3h-.2a2.8 2.8 0 0 0 .4.5 2.7 2.7 0 0 0-.7.3s.8.3 1.2 0a.7.7 0 0 0 .1 0v.2l-.3.2a1.3 1.3 0 0 0 .4 0 2 2 0 0 0-.3.3 2.3 2.3 0 0 0 .4 0 .8.8 0 0 0 0 .1 3 3 0 0 0-.2.5c-.3 0-.4.2-.4.2a1.2 1.2 0 0 0 .4 0l-.2.1a2.8 2.8 0 0 0 .7.1 2.7 2.7 0 0 0-.3.7 2.6 2.6 0 0 0 .4-.2 1 1 0 0 0 .3 0l-.1.2a1.2 1.2 0 0 0 .4 0 .6.6 0 0 1-.2.1 2.4 2.4 0 0 0 .5 0 2.1 2.1 0 0 0-.1.3 2 2 0 0 0 .6-.2.8.8 0 0 1-.2.3 2.4 2.4 0 0 0 .5-.3v.3a2 2 0 0 0 .2-.2 1.7 1.7 0 0 0 0 .2 1.6 1.6 0 0 0-.6.2 2.1 2.1 0 0 0 .4.2 3.1 3.1 0 0 0-.3.4l-.4.1v-.1a2 2 0 0 0-.5.4 3.1 3.1 0 0 0 0-.7Zm-5.3-1.3Zm3.9-6.2ZM44 50Zm.1-.6a1.1 1.1 0 0 0-.2.3v-.1l-.1-.1a3 3 0 0 0 .3 0Zm.4-.8Zm-.2 0a2.8 2.8 0 0 0 .2.5 2.7 2.7 0 0 0-.6 0 1.6 1.6 0 0 0 .4-.2s-.2 0-.4-.1v-.2a.8.8 0 0 0 .1-.1.7.7 0 0 0 .3.1Zm14-25.3a1.6 1.6 0 0 0 .1.3.8.8 0 0 0-.2 0 2 2 0 0 0 .1-.3Zm.4.3a.8.8 0 0 0 .1-.2v.2a1.5 1.5 0 0 0-.1 0Zm.2 0Zm1 3.8a1.7 1.7 0 0 0 0 .3h-.1a.6.6 0 0 1 0 .2v.1a1.8 1.8 0 0 0-.2.2v-.1h-.2v.1a2.2 2.2 0 0 0-.2.2 2 2 0 0 0 .1-.4 1 1 0 0 1 .2 0s0 0-.2-.2v-.1a3 3 0 0 0 .6-.3Zm5.8-5a.4.4 0 0 0 .1.1.6.6 0 0 0 0 .2h-.2l.1-.2ZM49.5 45.8Zm10.4-17a1.1 1.1 0 0 0-.2-.3h.2v.1a.7.7 0 0 0 0 .2Zm-1-.6Zm-10 17.6Zm-1.6 10.8a1.2 1.2 0 0 0 .3.2h-.2l.1.1a.8.8 0 0 0 0 .2 1 1 0 0 0-.2.1l-.1-.2v-.4Zm5.3 5.3Zm5-1.4a3 3 0 0 0-.2.4 1.3 1.3 0 0 0-.3-.1s0 .1.2.3a1.3 1.3 0 0 0-.3-.1v-.2a1 1 0 0 1-.2.3 2.3 2.3 0 0 0 0-.4l-.2.2a2 2 0 0 0 0-.4 3.8 3.8 0 0 0 1 0ZM64.4 46a1.3 1.3 0 0 0-.2.1 3.7 3.7 0 0 0-.4-.3h.1a2.6 2.6 0 0 0 .5.2Zm-.4.2Zm.1.4a2.2 2.2 0 0 0-.1-.4l.4.1v.2a1 1 0 0 0-.1.1.6.6 0 0 0-.2 0Zm.2-1.1a2.8 2.8 0 0 0-.3.2l-.3-.3a1.4 1.4 0 0 0 .3 0h.2Zm3.8 5.4ZM73 35.3V35a1.4 1.4 0 0 0 .2.3l-.2.2V35.3Zm2.7-2.8a1 1 0 0 0 .2.2h-.3v-.2Zm.3 0a8 8 0 0 1-.3 0v-.2a1.3 1.3 0 0 0 .2 0 1.2 1.2 0 0 0 0 .2Zm1.6-5.2Zm-2.3-3.5a2 2 0 0 1 0-.2 1.4 1.4 0 0 1 0 .2Zm-2.5 11.6ZM45 39.5a4.4 4.4 0 0 0 .7 1 4 4 0 0 0 0-.6 3 3 0 0 0 .4.6 3.2 3.2 0 0 0 .2-1 1.2 1.2 0 0 1 .3.4 3.9 3.9 0 0 0 0-.5 3 3 0 0 0 .4.4 1 1 0 0 0 .1.1 3 3 0 0 0-.5.2 2.6 2.6 0 0 0 .5.3 1.7 1.7 0 0 0-.4.2s.2 0 .4 0l.1.2a.8.8 0 0 0-.2.1c-.5-.2-1.4.5-1.4.5a3.7 3.7 0 0 0 1 .1 3.8 3.8 0 0 0-.4.9s0 0 .3-.2a1.6 1.6 0 0 0-.2.6l.4-.3a1.6 1.6 0 0 0-.1.4l.6-.4a.6.6 0 0 0 .1 0 1.2 1.2 0 0 0-.1.3H47a.9.9 0 0 1 .2.1 1.3 1.3 0 0 0 0 .2V43a2.3 2.3 0 0 0 .3 0 2.6 2.6 0 0 0-.8.4 2.3 2.3 0 0 0 .7.2v.2h-.2a.8.8 0 0 1 .2.1 1.5 1.5 0 0 0 0 .2V44a2.3 2.3 0 0 0 .3.3 3 3 0 0 0-.4 0 2 2 0 0 0 .8.5 3.5 3.5 0 0 0-.3.6 3.7 3.7 0 0 0 .9-.4 3.5 3.5 0 0 0 0 .6l-.1-.1a1.2 1.2 0 0 0 .1.4l-.2-.1a2.8 2.8 0 0 0 .2.6 2 2 0 0 0-.2 0v-.3a1.2 1.2 0 0 0-.3.3v-.2a2.6 2.6 0 0 0-.2.2 2.2 2.2 0 0 0-.1.4 2.7 2.7 0 0 0-.6-.5 2.5 2.5 0 0 0 0 .4 1 1 0 0 0 0 .2l-.2-.3a1 1 0 0 0 0 .1c-.2-.2-.3-.2-.3-.4a2.5 2.5 0 0 0 0 .3 1.9 1.9 0 0 0-.5-.3 2 2 0 0 0 .1.6.8.8 0 0 1-.2-.2 2.4 2.4 0 0 0 0 .4v.1h-.1V47.5a2.7 2.7 0 0 0-.6-.5s0 .8.4 1a.6.6 0 0 0 0 .2l-.3-.2a1.2 1.2 0 0 0 0 .4 2 2 0 0 0-.3-.2 3.1 3.1 0 0 0-.6 0 3.7 3.7 0 0 0 .5-.9l-.3.2a1.6 1.6 0 0 0 .3-.5s-.2 0-.5.2a1.5 1.5 0 0 0 .2-.4h.3a1.4 1.4 0 0 1-.3-.3 3 3 0 0 0 .4 0 3 3 0 0 0-.1-.2 3.1 3.1 0 0 0 .7 0 1 1 0 0 1-.3-.2 2.7 2.7 0 0 0 .8-.1 2.6 2.6 0 0 0-.4-.4c.4-.1.4-.8.4-.8l-.4.3a1.6 1.6 0 0 0 0-.4h.3l-.6-.3.1-.2a3.4 3.4 0 0 0 .4-.1 1 1 0 0 1-.3-.2l.1-.3-.3.2v-.1a1 1 0 0 0-.2 0 3 3 0 0 0 .4-.4 2.6 2.6 0 0 0-.6 0 1.6 1.6 0 0 0 .4-.4s-.2 0-.5 0l-.2-.1a3 3 0 0 0 .5-.3 2.7 2.7 0 0 0-.5-.2 1.6 1.6 0 0 0 .4-.2s-.1 0-.4 0a3 3 0 0 0 .7-.4l-.7-.2a1 1 0 0 0-.1 0 3 3 0 0 0 .2-.4 2.6 2.6 0 0 0-.5 0 1.7 1.7 0 0 0 .2-.4s-.2.1-.4.2h-.2a1 1 0 0 0 .1-.5 4.5 4.5 0 0 0 .7-.9Zm.6 6ZM49 75.2Zm2.4-4.6a2.4 2.4 0 0 0 0 .2 1.6 1.6 0 0 0-.2-.2h.2Zm0-.8a.6.6 0 0 0 0 .2 2.1 2.1 0 0 0-.2-.2H51.4Zm.2 1.2a1 1 0 0 0 0 .3V71Zm10-2v.2-.1Zm5.9-18a.5.5 0 0 0 0 .1Zm.4.1a2.6 2.6 0 0 0 0 .3h-.1a1.8 1.8 0 0 0 .1-.3Zm7.8-17.5Zm7.6 12.6a1.6 1.6 0 0 1-.3-.3h.2a1 1 0 0 0 0 .3Zm-1-6a1 1 0 0 0 .1-.4h.1a3 3 0 0 0 .3.4l-.3.1h-.2Zm3.9-23V17Zm-5.3 7.7-.2.2-.1-.1h.3Zm.6 26.1-.1.2h-.1l.2-.2Zm.2.8a3 3 0 0 0-.3-.4h.1a1.8 1.8 0 0 0 .3.4h-.1Zm2.2-8v-.2.2Zm3-27.6a1.5 1.5 0 0 0 0 .2l-.2-.3a2.2 2.2 0 0 0 .2.1Zm-.2 0a4.6 4.6 0 0 0 .3 1 3.2 3.2 0 0 0-.4 0v-.4a3 3 0 0 0 0-.6Zm-.2.4v.1a.8.8 0 0 0 0-.1Zm-.2.3a1.6 1.6 0 0 0 0 .2H86v-.3a1 1 0 0 0 0-.1l.1.2Zm-.3.2Zm-9.1 6a2.9 2.9 0 0 0 0 .9s.6-.7.4-1.2a.7.7 0 0 0 .1-.1h.1l.1.4a1.3 1.3 0 0 0 .2-.4 2.2 2.2 0 0 0 .2.4 2.2 2.2 0 0 0 .1-.3.6.6 0 0 0 .1 0 3.2 3.2 0 0 0 .4.3v.5a1.3 1.3 0 0 0 .3-.5v.3a3 3 0 0 0 .3-.7l.1.1-.1.3a3.7 3.7 0 0 0 .4 0 3.1 3.1 0 0 0-.1.3h-.2a1.5 1.5 0 0 0 .1.2 1 1 0 0 1 0 .2s0 0 .1 0a1.3 1.3 0 0 0 .1 0 2.8 2.8 0 0 0-.6.6 3.2 3.2 0 0 0 1 0 1.2 1.2 0 0 1-.3.3 3.6 3.6 0 0 0 .8 0v.2l-.2.1h.1a2.4 2.4 0 0 0 .2.5h-.1a1.9 1.9 0 0 0 .4.5h-.3a1.2 1.2 0 0 0 0 .3 2 2 0 0 0-.4-.2 2.1 2.1 0 0 0 .2.4.7.7 0 0 0-.1 0 3.2 3.2 0 0 0-.5 0l-.3-.2a1.2 1.2 0 0 0 .1.4l-.2-.2a2.9 2.9 0 0 0 .2.7 1.9 1.9 0 0 0-.2 0v-.4a1.2 1.2 0 0 0-.3.4V27a2.6 2.6 0 0 0-.1.2h-.1a2.8 2.8 0 0 0-.1.4 2.7 2.7 0 0 0-.6-.5 2.6 2.6 0 0 0 0 .4 1.1 1.1 0 0 0 0 .2l-.2-.3a.9.9 0 0 0 0 .1 1.8 1.8 0 0 0-.2-.2h.1s-.6-.7-1-.5a.7.7 0 0 0-.2 0l.1-.2h.3a1.3 1.3 0 0 0-.3-.2 2 2 0 0 0 .4-.2 2 2 0 0 0-.3-.2 2.9 2.9 0 0 0 .4-.4h.4a1.2 1.2 0 0 0-.4-.2h.2a2.9 2.9 0 0 0-.6-.4 2.8 2.8 0 0 0 .6-.5 2.6 2.6 0 0 0-.5 0 1.4 1.4 0 0 0-.2-.6 2.2 2.2 0 0 0-.1.2 1.7 1.7 0 0 0-.2-.2h.1a1 1 0 0 0-.1-.1.5.5 0 0 1 0-.2s0 0-.1.2h-.1a1.4 1.4 0 0 0 0-.4 3 3 0 0 0 .6-.2Zm-.6.2Zm-.6.2a2.5 2.5 0 0 0 0-.4 1 1 0 0 1 .1.3V23a1.2 1.2 0 0 0 .3 0l-.2.3a1.3 1.3 0 0 0 .3 0 1.7 1.7 0 0 0-.3.3.8.8 0 0 1 0-.3 2.3 2.3 0 0 0-.4.4v-.2a1.9 1.9 0 0 0 0-.3l.2.2Zm-2-.3a.5.5 0 0 0 0 .1.6.6 0 0 0-.1.1 2.5 2.5 0 0 0 .1-.2Zm-1.6-.7v.1a1.1 1.1 0 0 0 0-.1Zm-24.8-8a.6.6 0 0 0 .4.2.5.5 0 0 0 0 .1h-.3a1 1 0 0 0 .2.3 1.5 1.5 0 0 0-.3 0 1.8 1.8 0 0 0 .2.2 1.3 1.3 0 0 0-.3.2l-.1-.3.2-.6ZM44.3 40Zm-3.7 38.7Zm0-.2v-.1Zm.3-.2v-.2l.2.2h-.2ZM49 75a1.6 1.6 0 0 0 .1-.1v.3L49 75Zm7.6.7-.2.1a5 5 0 0 1-.2-.1.7.7 0 0 0 .2-.2.5.5 0 0 0 .2.2Zm-.4 0a1.2 1.2 0 0 0 0 .2 1 1 0 0 0 0-.2Zm7-4.3a1.5 1.5 0 0 0-.6-.2 2.2 2.2 0 0 0 .2.2 1.6 1.6 0 0 0-.3 0 .8.8 0 0 0-.1 0 .5.5 0 0 1-.2 0s0 0 .1.1a.9.9 0 0 0 0 .1 1.7 1.7 0 0 0-.5-.3 2 2 0 0 0 .2.7 1.8 1.8 0 0 0-.2-.1v-.1a.9.9 0 0 1-.2 0v.1a.9.9 0 0 0 0 .2l-.1-.6a1.3 1.3 0 0 0-.2.3v-.4a1.2 1.2 0 0 0-.3.4v-.2a2.8 2.8 0 0 0-.3.6 2.8 2.8 0 0 0-.6-.5s0 .9.5 1a.5.5 0 0 0 0 .2h-.1l-.3-.1a1.2 1.2 0 0 0 .1.3 2 2 0 0 0-.4-.1 2.5 2.5 0 0 0 .2.3.9.9 0 0 0-.1 0 3.3 3.3 0 0 0-.5 0c-.2 0-.3-.2-.3-.2a1.2 1.2 0 0 0 .1.4l-.2-.1a2.8 2.8 0 0 0 .2.6 1.9 1.9 0 0 0-.2 0v-.3a1.1 1.1 0 0 0-.3.3v-.2a2.4 2.4 0 0 0-.2.3 2.3 2.3 0 0 0-.1.3 2.7 2.7 0 0 0-.6-.5 2.6 2.6 0 0 0 0 .4 1 1 0 0 0 0 .3l-.2-.4a1 1 0 0 0 0 .2l-.3-.5a2.3 2.3 0 0 0 0 .3 1.8 1.8 0 0 0-.5-.3 2 2 0 0 0 .1.6.8.8 0 0 1-.2-.2 2.6 2.6 0 0 0 0 .4v.1h-.1V75l-.1-.1a3.4 3.4 0 0 0 0-.8 4.4 4.4 0 0 0-.4.4 2.7 2.7 0 0 0-.2.3 3.8 3.8 0 0 0-.5-.7s0 0 0 .3a1.5 1.5 0 0 0-.4-.5s0 .2 0 .5a1.6 1.6 0 0 0-.3-.3s0 .2 0 .7a.6.6 0 0 0 0 .1 1.1 1.1 0 0 0-.2-.3v-.2a.8.8 0 0 1-.1.1 1.2 1.2 0 0 0-.1 0 2 2 0 0 0-.2.2 2.6 2.6 0 0 0 .1-.8 2.3 2.3 0 0 0-.5.4h-.1V74a.8.8 0 0 1-.1 0 1.5 1.5 0 0 0-.2 0s0 0 0 .1a2.3 2.3 0 0 0-.3 0 2.8 2.8 0 0 0 .1-.3 2 2 0 0 0-.8.4 3.4 3.4 0 0 0-.3-.6 3.8 3.8 0 0 0-.2 1 3.9 3.9 0 0 0-.9-.5s0 0 .2.3a1.6 1.6 0 0 0-.5-.2s0 .2.2.5a4 4 0 0 0 0 .6.7.7 0 0 0-.1 0 3.2 3.2 0 0 0-.4-.1 2.2 2.2 0 0 0 .2.7l-.1.2a3 3 0 0 0 0-.3c-.2 0-.2.2-.3.2a3.1 3.1 0 0 0-.2-.6 1 1 0 0 1-.1.3 2.7 2.7 0 0 0-.4-.8 2.9 2.9 0 0 0-.2.4c.1-.3.4-.6.2-1a3 3 0 0 0 .7.2 3.2 3.2 0 0 0-.5-.9 1.2 1.2 0 0 1 .4.1 3.6 3.6 0 0 0-.6-.6 3.5 3.5 0 0 0 .4-.1 3.5 3.5 0 0 0-.4-.4 1.6 1.6 0 0 1 .5 0s0 0-.2-.2a1.9 1.9 0 0 0 .1-.4l.3.6a1.9 1.9 0 0 0 .2-.7v.4a4.6 4.6 0 0 0 .4-1.1 4.5 4.5 0 0 0 1 .6 4.1 4.1 0 0 0-.2-.5l.2-.3a1.2 1.2 0 0 0 .1.3s0-.2.2-.5a1 1 0 0 0 .1.2v.1h.1a1.2 1.2 0 0 0 .2-.1 2 2 0 0 0-.3.6 1.7 1.7 0 0 0 .5-.2v.2a.6.6 0 0 1 .1 0 2 2 0 0 0 .4 0 2.3 2.3 0 0 0-.2.3 1.5 1.5 0 0 0 .7 0 2.6 2.6 0 0 0 0 .4 2.7 2.7 0 0 0 .4-.6 2.8 2.8 0 0 0 .5.5s0 0 0-.3a1.2 1.2 0 0 0 .3.4s0-.2 0-.5a3.4 3.4 0 0 0 .2-.4 2.4 2.4 0 0 0 .3.2 1.7 1.7 0 0 0 0-.6 1.8 1.8 0 0 0 .3-.2 2.2 2.2 0 0 0 0 .4l.2-.2a2.3 2.3 0 0 0 .3.4.8.8 0 0 1 0-.2 2 2 0 0 0 .4.5 2.1 2.1 0 0 0 0-.4 2.4 2.4 0 0 0 .4.3.6.6 0 0 1 0-.2 1.2 1.2 0 0 0 .3.3s0-.1 0-.2a1.2 1.2 0 0 0 .4.1s0 0-.1-.2a1.4 1.4 0 0 0 .2.1 2.5 2.5 0 0 0 .2.3 4 4 0 0 0 0-.4 3 3 0 0 0 .6.2s0 0-.2-.2a1.2 1.2 0 0 0 .5.2s-.1-.1-.2-.3a1.8 1.8 0 0 0 0-.3.5.5 0 0 0 0-.1 2.2 2.2 0 0 0 .3.1 1.9 1.9 0 0 0-.1-.4 1.3 1.3 0 0 0 .3.1l-.2-.2v-.2a.8.8 0 0 0 .2 0 2 2 0 0 0 .9.2 3.7 3.7 0 0 0-.3-.3 3 3 0 0 0 .6-.4s0 0-.3 0a1.2 1.2 0 0 0 .4-.2s-.2 0-.4 0a1.3 1.3 0 0 0 .3-.2h.1a1 1 0 0 1 0-.2 2.3 2.3 0 0 0 .2.2 2 2 0 0 0 0-.3 2.3 2.3 0 0 0 .5.3.8.8 0 0 1-.1-.3 1.6 1.6 0 0 0 .3.2 3 3 0 0 0-.3.4 2.5 2.5 0 0 0 .7-.2 3.5 3.5 0 0 0 0 .4c0-.2.1-.2.4-.4a1.5 1.5 0 0 0 0 .2l.4-.3a1.5 1.5 0 0 0 0 .4 3.4 3.4 0 0 0-.3.4 3.8 3.8 0 0 0 1-.3 3.8 3.8 0 0 0 0 1s0 0 .2-.3a1.3 1.3 0 0 0 0 .4v-.2a2.4 2.4 0 0 0-.2.5Zm2 .6a2.3 2.3 0 0 0-.1.6 1.7 1.7 0 0 0-.2-.2 2.2 2.2 0 0 0 0 .4 1.6 1.6 0 0 1-.2-.2 1.6 1.6 0 0 0 .2-.7 2.3 2.3 0 0 0-.3.2 2.8 2.8 0 0 0-.2-.5l.1-.4a1.2 1.2 0 0 0-.3.3v-.3a2.8 2.8 0 0 0-.5.4 2.3 2.3 0 0 0-.1-.4l.3-.4a3.9 3.9 0 0 0 .5-.2 1.2 1.2 0 0 0 .2 0 2.9 2.9 0 0 0 0 .4 2.8 2.8 0 0 0 .4-.3 1.6 1.6 0 0 0 0 .5s.1-.2.3-.4h.2a1 1 0 0 0 0 .2 1.4 1.4 0 0 0-.2 1 1.3 1.3 0 0 0 0 .3.8.8 0 0 1-.1-.3Zm1 .5a1 1 0 0 0-.2.1v-.3a1 1 0 0 0-.1 0 2.8 2.8 0 0 1 0-.4 2.3 2.3 0 0 0-.2.2 3.2 3.2 0 0 0 .2-.5 3.4 3.4 0 0 0 .4.5 2.6 2.6 0 0 0 0 .4Zm1 0v-.2a2.8 2.8 0 0 0-.5.4 2.8 2.8 0 0 0-.3-.6l.2.1-.1-.3a1.6 1.6 0 0 0 .4.4s0-.2 0-.5a1.7 1.7 0 0 0 .2.2v.3a1.3 1.3 0 0 1 .3-.2v.3a.9.9 0 0 0-.3.1Zm.2 0 .2-.1a3 3 0 0 0-.1.5l-.1-.2v-.3Zm.2.6a1.2 1.2 0 0 1 .2-.3 1.8 1.8 0 0 0 0 .3h-.2Zm.6.5-.1-.2v-.1a1.8 1.8 0 0 0 .1-.2.6.6 0 0 0 .1.1v.2a.6.6 0 0 0-.1.2Zm.6-.2.1-.2v.2ZM75 55.9v.2a1 1 0 0 0 0-.2Zm.3 0 .2-.1v.2l-.1.1a1.1 1.1 0 0 0 0-.3ZM93 38.6a3.4 3.4 0 0 0 .2.4 2.6 2.6 0 0 0-.5 0V39a1.8 1.8 0 0 0 0 .1.9.9 0 0 1-.4 0s0 0 .2.2a2.8 2.8 0 0 0-.8-.4 3.1 3.1 0 0 0 .3 1 2.5 2.5 0 0 0-.3-.1v-.2l-.1.1a1 1 0 0 1-.2 0v.2a1.4 1.4 0 0 0-.1.3.7.7 0 0 0 0-.1l-.2-.9a2.2 2.2 0 0 0-.3.5v-.6a1.9 1.9 0 0 0-.4.6v-.4a4.5 4.5 0 0 0-.6 1 4.4 4.4 0 0 0-.9-.8s.1 1.4.8 1.7a1 1 0 0 0 0 .3h-.2l-.4-.3a2 2 0 0 0 .2.6 3 3 0 0 0-.6-.2 3.6 3.6 0 0 0 .2.5 1 1 0 0 0-.2 0 4.8 4.8 0 0 0-.7 0l-.6-.3a2 2 0 0 0 .2.7l-.3-.3a4.6 4.6 0 0 0 .4 1 3 3 0 0 0-.4 0v-.5a1.9 1.9 0 0 0-.4.6v-.4l-.3.4h-.1v.1a4.2 4.2 0 0 0-.2.5 4.5 4.5 0 0 0-.9-.8 4.2 4.2 0 0 0 .1.6 1.7 1.7 0 0 0-.2.4l-.3-.5a1.9 1.9 0 0 0 0 .2l-.4-.7a4 4 0 0 0-.1.4 2.8 2.8 0 0 0-.4-.3V43l-.1.1H83.6a1 1 0 0 0-.1 0 3 3 0 0 0 .3-.4 2.6 2.6 0 0 0-.5 0 1.7 1.7 0 0 0 .4-.4s-.2 0-.5 0l-.2-.1a3.1 3.1 0 0 0 .5-.3 2.8 2.8 0 0 0-.5-.2 1.6 1.6 0 0 0 .4-.2s-.2 0-.4 0a3 3 0 0 0 .7-.4L83 41a1.1 1.1 0 0 0-.2 0 3 3 0 0 0 .3-.4 3 3 0 0 0-.3 0 1 1 0 0 0 .2-.3v.3a2.9 2.9 0 0 0 .4-.6 2.7 2.7 0 0 0 .4.6 2.4 2.4 0 0 0 0-.3 1.9 1.9 0 0 0 .3.4 2 2 0 0 0 .1-.6.8.8 0 0 1 .1.2 2.2 2.2 0 0 0 .1-.5l.2.1a2.3 2.3 0 0 0 0-.3 1 1 0 0 1 .2.2v-.2a1.3 1.3 0 0 0 .3 0l-.2.3a1.2 1.2 0 0 0 .4-.2l-.1.2s1-.3 1-.9l.2.1.1.3a1.2 1.2 0 0 0 .1-.3 1.9 1.9 0 0 0 .2.3 2.4 2.4 0 0 0 .2-.3l.5.3a2.3 2.3 0 0 0-.2-.5l.3.2a1.2 1.2 0 0 0-.1-.4 2 2 0 0 0 .3.2 2.1 2.1 0 0 0 0-.4h.1l.2.3a1.2 1.2 0 0 0 0-.4 2 2 0 0 0 .4.3 2 2 0 0 0 0-.4l.2.1a2.3 2.3 0 0 0 0 .2 2 2 0 0 0 .1-.1.8.8 0 0 1 .3 0 2.6 2.6 0 0 0-.2-.2 1.4 1.4 0 0 0 0-.2 3 3 0 0 0 .4.1 5.6 5.6 0 0 0 0 .7 3.3 3.3 0 0 0 .9-1.2.9.9 0 0 0 0-.4 1.3 1.3 0 0 0 .2-.2l.1.1v.6a2 2 0 0 0 .4-.5 3.4 3.4 0 0 0 .2.6 3.7 3.7 0 0 0 .3-.5 1 1 0 0 0 .1.2 4.8 4.8 0 0 0 .5.5v.7a1.9 1.9 0 0 0 .4-.6v.4a4.5 4.5 0 0 0 .6-.9 4.5 4.5 0 0 0 .8 1 3.8 3.8 0 0 0 0-.5 3 3 0 0 0 .3.4 4 4 0 0 0-.2.5 2.3 2.3 0 0 0-1-.3Zm6.5 2.5a4.4 4.4 0 0 0-.5-1.1 4.2 4.2 0 0 0-.2.6 1.7 1.7 0 0 0-.4.3v-.6a1.8 1.8 0 0 0-.2.2 4.8 4.8 0 0 1 0-.8 3.6 3.6 0 0 0-.3.4 2.9 2.9 0 0 0-.4-.7 3.3 3.3 0 0 0-.2 1 1.2 1.2 0 0 1-.3-.4 3.6 3.6 0 0 0-.1.8l-.3-.2a3.7 3.7 0 0 0 0 .5 3.2 3.2 0 0 1-.2-.3 2.4 2.4 0 0 0 .2-1 3.7 3.7 0 0 0-.5.3v-.1a4.8 4.8 0 0 0-.3-.7l.3-.6a1.9 1.9 0 0 0-.7.4l.2-.4a4.6 4.6 0 0 0-1 .6 4.2 4.2 0 0 0-.2-1 2.8 2.8 0 0 0 .1-.7 1.2 1.2 0 0 1 .2.3 3.6 3.6 0 0 0 .2-.8l.3.2a3.5 3.5 0 0 0 0-.5 1.5 1.5 0 0 1 .3.4s0-.1 0-.3a2 2 0 0 0 .4-.2l-.3.6a1.9 1.9 0 0 0 .7-.4l-.2.4s1.5-.5 1.7-1.4l.2.1.2.5a2 2 0 0 0 .2-.5 3.3 3.3 0 0 0 .4.5 3.6 3.6 0 0 0 .1-.5 1.2 1.2 0 0 0 .2 0l.7.6a3.6 3.6 0 0 0-.3-.9l.4.3a2 2 0 0 0-.1-.6 3.2 3.2 0 0 0 .6.3 3.5 3.5 0 0 0-.2-.6h.3l.3.5a2 2 0 0 0 0-.6 2.5 2.5 0 0 0 .3.2v.2-.1h.1a1.8 1.8 0 0 0-.1.4s.2 0 .4-.3a2.7 2.7 0 0 0 .2.3 3.7 3.7 0 0 0-.8.4s0 0 .3 0a1.6 1.6 0 0 0-.6.3s.3 0 .6 0a4.2 4.2 0 0 0 .4.6 3 3 0 0 0-.4.2 2.7 2.7 0 0 0 .5.3 1.7 1.7 0 0 0-.4.2s.1 0 .4.1v.2c-.7-.2-1.6.5-1.6.5a3.7 3.7 0 0 0 1 .2 3.8 3.8 0 0 0-.3.8s0 0 .3-.2a1.5 1.5 0 0 0-.2.6l.4-.3a1.6 1.6 0 0 0-.1.4l.6-.3a.6.6 0 0 0 0-.1 1.2 1.2 0 0 0 0 .3l-.2.1a.8.8 0 0 1 .1 0 1.4 1.4 0 0 0 0 .2l.1-.1a2.1 2.1 0 0 0 .3 0 2.7 2.7 0 0 0-.8.5 2.3 2.3 0 0 0 .7.2 1.2 1.2 0 0 0 0 .1h-.3a.8.8 0 0 1 .2.1 1.4 1.4 0 0 0 0 .2 2 2 0 0 0 .4.2 2.8 2.8 0 0 0-.4 0 2.6 2.6 0 0 0 .4.4 1 1 0 0 0-.2.5 1.1 1.1 0 0 0-.2.1l-.1-.2.1-.5a2 2 0 0 0-.5.4 3.2 3.2 0 0 0 0-.7 3.6 3.6 0 0 0-.4.4 1 1 0 0 0 0-.1 5.5 5.5 0 0 0-.4-.7c0-.4.2-.7.2-.7a1.9 1.9 0 0 0-.6.5l.1-.4a4.5 4.5 0 0 0-.8.7Zm.5 26.1a1.2 1.2 0 0 0 0 .2l-.1-.1Zm-.2.1a2.1 2.1 0 0 0 0 .4l-.2-.1a2.3 2.3 0 0 0 0 .3 1.8 1.8 0 0 1-.2-.2 1.3 1.3 0 0 0 .1-.4 1 1 0 0 0 .3 0Zm-.6-.8a2.8 2.8 0 0 0 .3.4 2.5 2.5 0 0 0-.3.1L99 67v-.3ZM91 76a2 2 0 0 0-.3.3 2.2 2.2 0 0 0 .3 0 .7.7 0 0 0 0 .1 2.7 2.7 0 0 0-.2.4 4.3 4.3 0 0 0-.8-.3 5 5 0 0 0 .7-.9.6.6 0 0 0 .2 0v.2l-.3.1a1.2 1.2 0 0 0 .4.1Zm-2-2.2a1.8 1.8 0 0 0 .5 0 .7.7 0 0 1-.2.2 2.3 2.3 0 0 0 .6 0l-.1.2a2.1 2.1 0 0 0 .3 0 1 1 0 0 1-.2.1s0 0 .2 0a1.2 1.2 0 0 0 .1.3l-.3-.1a1.2 1.2 0 0 0 .2.3H90a3 3 0 0 0 .4.4H90a5.7 5.7 0 0 0-.7-.3h-.1a3.9 3.9 0 0 0 .4-.5 2.7 2.7 0 0 0-1.2 0 4.3 4.3 0 0 0 .5-.6Zm-.2 7.8a1.7 1.7 0 0 0-.2.4v-.4l-.1.2-.1-.1a4.3 4.3 0 0 0 .4-.2Zm-1.7.2v.4-.6a1.2 1.2 0 0 0 .2.1 1.4 1.4 0 0 0 .8.7v.2a4.5 4.5 0 0 0-1-.8Zm6.5-.3.2-.4a4.5 4.5 0 0 0-1 .6 4.4 4.4 0 0 0-.3-1.2 4 4 0 0 0-.3.8 2.3 2.3 0 0 0-1-.3 4 4 0 0 0 .2.4 2.8 2.8 0 0 0-.5 0v-.1.1a.8.8 0 0 1-.4 0s0 0 .2.2a2.7 2.7 0 0 0-.8-.4 3.2 3.2 0 0 0 .3 1 2.1 2.1 0 0 0-.3-.1v-.2a1.3 1.3 0 0 0-.1.1 1 1 0 0 1-.2 0v.2a1.5 1.5 0 0 0-.1.3.7.7 0 0 0 0-.1l-.2-.9a2 2 0 0 0-.3.5v-.5a5.3 5.3 0 0 0 .5-.2s0 0-.4-.1a2 2 0 0 0 .7-.3s-.3-.1-.7-.2a2.2 2.2 0 0 0 .6-.3s-.4 0-.9-.2a.8.8 0 0 0-.2 0 1.5 1.5 0 0 0 .5-.2h.2a1 1 0 0 1 0-.1v-.1h-.1a3.2 3.2 0 0 0-.1-.4 3.5 3.5 0 0 0 1 .5 3.1 3.1 0 0 0-.4-1 1.3 1.3 0 0 0 .2 0l.2.2a1 1 0 0 1 0-.3l.1-.1h-.1a3 3 0 0 0 0-.5 3.7 3.7 0 0 0 .4.3 2.5 2.5 0 0 0-.2-1.2l.4-.1a2.8 2.8 0 0 0 .7 0 2.7 2.7 0 0 0-.3.8 2.5 2.5 0 0 0 .4-.2 1 1 0 0 0 .3 0l-.1.2a1.2 1.2 0 0 0 .4 0 .6.6 0 0 1-.2 0 2.5 2.5 0 0 0 .5 0 2 2 0 0 0-.2.4 2 2 0 0 0 .6-.2.7.7 0 0 1 0 .2 2.2 2.2 0 0 0 .4-.2v.2a2.1 2.1 0 0 0 .2-.1 1.6 1.6 0 0 0 0 .2 1.6 1.6 0 0 0-.6.2 2.2 2.2 0 0 0 .4.1.5.5 0 0 0-.1.1 3 3 0 0 0-.3.4h-.4a1.2 1.2 0 0 0 .4.3h-.2a2.8 2.8 0 0 0 .6.3 2.7 2.7 0 0 0-.4.6 2.6 2.6 0 0 0 .5-.2 1.4 1.4 0 0 0 .2.7s0-.1.1-.3a1.7 1.7 0 0 0 .2.3.6.6 0 0 1 .1.2V81h.1v.2a1.7 1.7 0 0 0-.4.3Zm1.5 1.7-.3-.2a3.4 3.4 0 0 0 0 .5 3.2 3.2 0 0 1-.2-.3 2.5 2.5 0 0 0 .2-1 3.7 3.7 0 0 0-.5.3 1.1 1.1 0 0 0 0-.1 4.8 4.8 0 0 0-.3-.7v-.2a2 2 0 0 0 .5-.4 1.8 1.8 0 0 0 0 .1v.1a1.2 1.2 0 0 1 0 .2l.1-.2a1 1 0 0 0 .3 0l-.5.4a1.2 1.2 0 0 0 .4 0l-.3.3a1.1 1.1 0 0 0 .5 0h-.2a2.9 2.9 0 0 0 .6 0 2.7 2.7 0 0 0 0 .6.9.9 0 0 1-.2-.2 3.7 3.7 0 0 0-.1.8Zm.3-.5Zm1.6.3a1.8 1.8 0 0 0-.4.3v-.6a2 2 0 0 0-.2.2 4.7 4.7 0 0 1 0-.8 3.4 3.4 0 0 0-.3.4 2.4 2.4 0 0 0-.2-.4.6.6 0 0 0 0-.4.8.8 0 0 0 .2-.1v.4a1.2 1.2 0 0 0 .3-.3 2 2 0 0 0 .1.4 2.2 2.2 0 0 0 .2-.3.4.4 0 0 0 0 .1 2.8 2.8 0 0 0 .4.4v.7Zm.5 0a4.6 4.6 0 0 1 .6-.1 1.9 1.9 0 0 0 0 .2s0 0 .1 0a4.4 4.4 0 0 0-.5.4 3.5 3.5 0 0 0-.2-.4Zm4.5 19Zm4.4-7.6Zm6.4-20.2v.3a1.5 1.5 0 0 0-.4-.5s0 .2 0 .5a1.6 1.6 0 0 0-.3-.3s0 .2 0 .7a.8.8 0 0 0 0 .1 1.1 1.1 0 0 0-.2-.3v-.2a.8.8 0 0 1 0 .1 1.4 1.4 0 0 0-.2 0 1.7 1.7 0 0 0-.2.2 2.6 2.6 0 0 0 .1-.8 2.3 2.3 0 0 0-.5.4h-.1l.1-.3a.8.8 0 0 1-.2 0 1.3 1.3 0 0 0-.1 0v.1a2.3 2.3 0 0 0-.4 0 3.1 3.1 0 0 0 .1-.3 2 2 0 0 0-.8.4 3.4 3.4 0 0 0-.3-.6 3.7 3.7 0 0 0-.2 1 3.9 3.9 0 0 0-.8-.5s0 0 .1.3a1.6 1.6 0 0 0-.5-.2s.1.2.3.5a4.1 4.1 0 0 0-.2.6 3.2 3.2 0 0 0-.4-.1 2.2 2.2 0 0 0 .2.7l-.1.2a2.8 2.8 0 0 0 0-.3l-.3.2a3 3 0 0 0-.2-.6 1 1 0 0 1-.1.3 2.7 2.7 0 0 0-.3-.8 3 3 0 0 0-.2.4 3 3 0 0 0-.4-.4h.1a1 1 0 0 0 0-.1 3 3 0 0 1 .4 0s0 0-.2-.2a1.8 1.8 0 0 0 .5-.1 2 2 0 0 0-.6-.3.8.8 0 0 1 .3 0s-.1-.1-.2-.2a2.5 2.5 0 0 0 .2-.4 2.8 2.8 0 0 0 .5.6 2.5 2.5 0 0 0 0-.3 1.9 1.9 0 0 0 .2.4 2 2 0 0 0 .2-.6.8.8 0 0 1 .1.2 2.2 2.2 0 0 0 .1-.5 2 2 0 0 0 .2.1 2.4 2.4 0 0 0 0-.3 1 1 0 0 1 .2.2v-.2a1.3 1.3 0 0 0 .3 0l-.2.3a1.2 1.2 0 0 0 .4-.2l-.1.2s.9-.3 1-.9a1.4 1.4 0 0 1 .2.1v.3a1.2 1.2 0 0 0 .2-.3 2 2 0 0 0 .2.3 2.6 2.6 0 0 0 .1-.3.5.5 0 0 0 .1 0l.5.3a2.2 2.2 0 0 0-.2-.5l.2.2a1.2 1.2 0 0 0 0-.4 2 2 0 0 0 .3.2 2.2 2.2 0 0 0 0-.4h.1l.2.3a1.2 1.2 0 0 0 0-.4 2.2 2.2 0 0 0 .3.3 2.3 2.3 0 0 0 0-.4.6.6 0 0 0 .1 0l.1.1v.2l.2-.2a.7.7 0 0 1 .3.1 2.4 2.4 0 0 0-.2-.2v-.2c.3.1.3 0 .5.2l-.1-.2a1.2 1.2 0 0 0 .2-.2v.4s.4-.4.2-.7a2 2 0 0 0 .3 0 1.8 1.8 0 0 0 .3.4 2.4 2.4 0 0 0-.3.2 2 2 0 0 0 .4.1 1.2 1.2 0 0 0-.4.2s.2 0 .4 0v.2c-.5 0-1.2.5-1.2.5a2.8 2.8 0 0 0 .8 0 3 3 0 0 0-.3.7s0 0 .2-.1a1.2 1.2 0 0 0-.1.4l.3-.2a1.4 1.4 0 0 0 0 .2h-.3l.4.3a2.2 2.2 0 0 0-.5.2 2 2 0 0 0 .4.2 2.9 2.9 0 0 0-.3.3 3.8 3.8 0 0 0-.5-.7Z"/><path fill="#73bf44" d="m114 70.9 1.5.6.1-1s-2-1.1-3.4-.5c-1.3.6-1.3 1.4-2 1.3a7 7 0 0 1-2.9-1.1 5.5 5.5 0 0 0-2.6-1c-1.6-.4-1.5-.2-2.9-.9-1.3-.7-1.7-1.8-2.6-2.2a7.1 7.1 0 0 0-3.1-.5 9.4 9.4 0 0 0-4.2.8c-1 .6-1 2-2.5 2.6a8.7 8.7 0 0 1-3.4.4l-2.4.2 3.6-1.8a28.8 28.8 0 0 1 5.2-2.1c1.3-.2 2-.5 2.4-1a3.2 3.2 0 0 1 3-2c2.2-.1 3-.3 3.6-1a4 4 0 0 1 3.4-1.4 12.7 12.7 0 0 0 3.8-.1c2.8-.3-.6-1.9-.6-1.9a29.8 29.8 0 0 1-3.6 0c-1-.2-1-.4-.5-1.7l1.8-4.1h-1.1a8 8 0 0 1-1 3 4.3 4.3 0 0 0-1 2.1 4 4 0 0 1-2.3 2.3 4.3 4.3 0 0 1-2.8.7c-1.4 0-1.6.4-2.8 1-1.3.7-1.4 1.8-2.5 2a30.3 30.3 0 0 0-3.4 1.1c-1 .4-2.7 1.5-3.8 2l-2.6 1a15.2 15.2 0 0 1 1-4.1 21 21 0 0 0 1.8-4 3.5 3.5 0 0 1 1.8-3 35.4 35.4 0 0 0 4.8-3c1-1 .8-2 2.1-2.5a6.5 6.5 0 0 1 5.1 1.1c1.4 1 1.7 0 1.7 0a10.9 10.9 0 0 0-1.2-.9 7.7 7.7 0 0 0-3.4-1.4 5.8 5.8 0 0 0-3.7.7c-1 .7-1.2 2.3-2.5 3a15 15 0 0 1-3.2 1.4c-.5.2-1.5.7-1.3-.4.1-1 0-4 1.2-5.7a21.5 21.5 0 0 0 2.8-4.1c.4-1 0-1.7 2.4-2.7 2.4-1 3.3-1.8 4.4-1.7 1.1 0 3.7 1 5-.1 1.3-1.1 2-1.1 2.7 0l2 4.3.8-.7-1.5-3c-.4-.9-.5-1.5-1.2-1.9a2.7 2.7 0 0 0-2.2-.3c-1 .2-1 1-1.8 1.2a5.9 5.9 0 0 1-2-.2s1-.4 2-.8a15 15 0 0 0 4-1.7c1-.9-.5-.7-.5-.7l-2.3 1.3a30.7 30.7 0 0 1-3.2 1.1c-.9.3-2.3.8-2.3.4a7 7 0 0 1 .4-1.5 3.8 3.8 0 0 1 1.6-1.8c1-.4-.2-.7-.2-.7a8.7 8.7 0 0 0-2.1 1.8c-.4.7-.4 2.1-1.6 2.8L91 41.3a5.4 5.4 0 0 0-2 1.4c-.4.8-.9 2.5-1.2 2.9-.3.3-.6-.7-.3-1.4a39.8 39.8 0 0 0 1.3-5 21.5 21.5 0 0 0 .4-4.6l-1.3.6a22.5 22.5 0 0 1-1.8 7.8c-1.8 4.3-1.2 3.5-2.1 5.7a23 23 0 0 0-1.8 6.4 12 12 0 0 1-1.5 4.8c-.4.8-1-.1-1.3-.8a30.6 30.6 0 0 0-2.1-3 30.7 30.7 0 0 1-1-5l.5-5.3c.2-1.2-3.2-1.2-3.2-1.2l-.2 6.6c0 2.3 0 4.1 1.7 6.7A14.7 14.7 0 0 1 78 64c.2 1.6-1 6.7-1 6.7a24.9 24.9 0 0 0-1.5-2.5 16.2 16.2 0 0 0-2.3-2s-2.6-4-2.7-4.4c0-.5-1.3 1.5-1.3 1.5a19.3 19.3 0 0 0 3.2 4.8c2.2 2.3 2.8 2.6 3.4 4.2.7 1.6-.9 5.6-1 7.6a93.2 93.2 0 0 1-1.6 9.5L71.8 95l-1.4 5.4c-.2.3-.4 1-1.4-.5a19.6 19.6 0 0 1-1.8-5.5c-.4-1.5-.6-4.3-1.2-6.5s-1.5-3.6-1.5-6.3c0-2.7.8-6.6.8-8.1a16.7 16.7 0 0 0-1.2-7l-2-4.4a32.1 32.1 0 0 1-2.4-5.3l-1.2-4.7-2.5 1.5a7.3 7.3 0 0 0-3-.8c-3.5-.4-3.3-.8-5.5-1.6a26.6 26.6 0 0 0-5.3-1l-.1 1a16 16 0 0 1 6.4 1.9 30.8 30.8 0 0 0 6.4 2.1A26 26 0 0 0 58.4 66c2.3 3.8 1.9 5.5 1.3 7.3a7.5 7.5 0 0 0-3-.3c-3.5.2-3.4-.2-5.7-.6a26.7 26.7 0 0 0-5.4-.2v1.2a16 16 0 0 1 6.7.6 30 30 0 0 0 7 1.1A7.9 7.9 0 0 0 59 77c.3 4.2.1 7.2.9 9.6a26.9 26.9 0 0 1 1.6 6.7 46.4 46.4 0 0 0 2.5 10.5c1.3 3.5 1.8 5.2 1.8 7.7s-1.3 10.7-1.7 13.1c-.3 2.4-1.6 8.2-2 10.2-.3 2-1.5 6.4-1.7 8-.1 1.5-1.2 7.3-1.2 7.3h16.5a115.2 115.2 0 0 0 0-12c-.4-3.7-1-7.6-1.1-11.8a136.4 136.4 0 0 1 1-15 125 125 0 0 1 4-21.5c.8-3.9.5-7.6 1.1-9.6a25.8 25.8 0 0 0 1-5.5c0-.5.2-1.4 1-1.3.7 0 1.6 0 1.7.7v4.2c.3.9.8 2 1.7 2 .9 0 2.5-.2 3.2.6.8.7 1.3 1.7 1.4 3.7.2 1.9-.5 3.5.2 5.1.7 1.7 1.7 2 1.7 2.8 0 1-1.3 2.4.5 3.9s3.2 1.2 3.7 2a15.3 15.3 0 0 1 1 2.9c.4 1.3 1.1 0 1.1 0a11.4 11.4 0 0 0-.6-2.6 3.1 3.1 0 0 0-1.6-1.6c-.7-.5-2-.7-2.7-1.6a2.5 2.5 0 0 1-.5-2.3c.2-.7.7-.2 1.4-.6.8-.3 2-.7 2.6.2a1.5 1.5 0 0 0 1.8.6 1.4 1.4 0 0 1 1.5.5c.5.5 2.4 0 2.4 0l-.3-.6a5.3 5.3 0 0 1-1.6.1 3.6 3.6 0 0 0-1.9-.8 3.6 3.6 0 0 1-1.8-.6 5 5 0 0 0-2.2-.4 3.2 3.2 0 0 1-1.9-.4 14.7 14.7 0 0 1-1.6-3.3c-.1-.8.3-2.3.2-3.5a9 9 0 0 0-1-3.8c-.7-1.1-.7-1.5-2.3-1.7-1.7-.2-2.5.2-2.9-1-.3-1.3.3-2.6 0-3.7-.2-1.1-.1-2.7-1.4-2.7a22.4 22.4 0 0 1 3.6-.4 4.8 4.8 0 0 0 3.4-1.4c.6-.7 1-1.7 2-2.3 1.1-.5 4.4-.7 5 .1a6 6 0 0 0 4.5 2.9c2.6.1 3.4 1.2 4.5 1.7a7 7 0 0 0 2.8.8 2.3 2.3 0 0 1 2.3 1.4 82 82 0 0 1 1.8 3.7l.8-.6a13.3 13.3 0 0 0-1-2.7l-1.2-2c-.1-.3-1.4-.7-1.1-1.3.2-.6 2-.4 2-.4Z"/><path fill="#73bf44" d="M90.4 77.2c10.1 0 19.8-8.9 19.4-19.3a19.7 19.7 0 0 0-19.4-19.4c-10.1 0-19.8 9-19.3 19.4a19.7 19.7 0 0 0 19.3 19.3ZM57.6 84.4c16 0 16-24.8 0-24.8s-16 24.8 0 24.8Z"/><path fill="#73bf44" d="M58.8 72.4c11.4 0 22.4-10 21.8-21.8a22.2 22.2 0 0 0-21.8-21.9c-11.4 0-22.4 10-21.8 21.9a22.2 22.2 0 0 0 21.8 21.8Z"/><path fill="#73bf44" d="M66.8 52.1c11.4 0 22.3-10 21.8-21.8A22.2 22.2 0 0 0 66.8 8.4c-11.4 0-22.4 10-21.8 21.9A22.2 22.2 0 0 0 66.8 52Z"/><path fill="#73bf44" d="M90.6 65c11.4 0 22.3-10.1 21.8-22a22.2 22.2 0 0 0-21.8-21.7c-11.4 0-22.4 10-21.8 21.8a22.2 22.2 0 0 0 21.8 21.8Z"/><path fill="#73bf44" d="M102.4 88.3c8 0 15.7-7.1 15.4-15.4a15.6 15.6 0 0 0-15.4-15.4c-8 0-15.8 7-15.4 15.4.4 8.3 6.8 15.4 15.4 15.4Z"/><path fill="#73bf44" d="M93 85.2c6.4 0 6.4-9.9 0-9.9s-6.4 10 0 10ZM82.6 79.7c6.4 0 6.4-10 0-10-6.3 0-6.3 10 0 10ZM114.8 74.6c6.4 0 6.4-9.9 0-9.9s-6.4 10 0 10Z"/><path fill="#73bf44" d="M113.4 66c6.3 0 6.3-10 0-10-6.4 0-6.4 10 0 10ZM59.8 88.4c6.4 0 6.4-10 0-10s-6.4 10 0 10ZM42.4 78.9c6.3 0 6.3-10 0-10-6.4 0-6.4 10 0 10ZM84 25c6.3 0 6.3-10 0-10-6.4 0-6.5 10 0 10ZM91.3 87.7c7.6 0 7.6-12 0-12-7.7 0-7.7 12 0 12Z"/><path fill="#73bf44" d="M87.6 85.5c2.5 0 2.5-4 0-4-2.6 0-2.6 4 0 4Z"/></svg>