<svg xmlns="http://www.w3.org/2000/svg" viewBox="0 0 150 150"><path d="M79.60482,9.5187c.1891.19059.35386.71048.64421.38284.57891-.65329,1.41059-.45457,2.0705-.79026a1.48448,1.48448,0,0,0,.55741-.40454c.16144-.20834.37506-.4853.65615-.28751.262.18438-.20406.38844-.09245.62487,1.36723.02356,1.73762.37,1.76814,1.783.01148.53082.33764.90533.69338.696.87042-.51216,1.14018.16483,1.48372.624.20676.27638.37388.57723.60478.8525.34458.41076.4402.76959-.11427,1.30975-.64047.62394-1.6014,1.15435-1.55917,2.30374.01556.42361-.4945.46112-.6902.77931.23941.21749.55352.16275.81017.29223.75634.38158.90964.70293.52311,1.45332-.10154.19712-.3768.34753-.167.6245.07031.0928.14453.18254.29211.12019a.728.728,0,0,0,.49791-.65269c.01993-.26617.0512-.53148.07837-.80664,1.03653.37533,1.09443,1.12705.96369,1.98592-.15857,1.04163-.92475,1.62249-1.2525,2.49017-.18048.47782-.00272.53344.38721.48308a3.88684,3.88684,0,0,1,1.41168.13751,1.0921,1.0921,0,0,1,.867,1.405c-.26036.89492.19889,1.00411,1.07357,1.22907-.67189-.53553-1.10138-.93616-.33425-1.46729.17126-.11857.26535-.50566-.1672-.69762.50115-.03233.92631.17169,1.37927-.19774.48338-.39424.88485-.6429.292-1.24093a.58826.58826,0,0,1-.08921-.67353c.097-.23091.36385-.37071-.00081-.72648-.268-.26149.30229-.494.51958-.45323.56679.10622,1.022-.83761,1.60153-.14533.03521.04206-.05046.27977-.11544.29789-.58651.16348-.516.47088-.38709.97716.08188.32153-.27832.63984.3905.3299.26168-.12126.61233.51927.6767.87228.06794.37256-.39572.46738-.65733.37019-.71449-.26542-.87443.0336-1.0221.68424a3.51553,3.51553,0,0,1-.80955,1.16383c-.11874.15128-.38054.21832-.13394.48092.20363.21686-.03451.68032.31669.782.44751.12953.312-.415.53476-.58218a1.489,1.489,0,0,0,.66091-1.20541c.00611-.24686.25807-.54138.46882-.4381,1.087.53271,2.32258.08726,3.41253.58411.70545.32158.9179.74221.4135,1.31086-.39983.45075-.22232.50906.19613.60811.2599.06153.6213.14227.59363.44534-.0378.41389-.43011.31173-.71845.28926-.51268-.03995-.67735.41984-.97244.68522a.35013.35013,0,0,0-.01232.32295.33548.33548,0,0,0,.46727.1275c.38938-.17812.75416-.419.995.21564.21026.554-.22613.62675-.77623.80675.58246.15511.94159-.02659,1.28236.31347.63354.63223.72921,1.1471-.04331,1.53526-.47555.23895-.63307,1.20626-1.48389.71105-.12072-.07026-.1907.24417-.14716.42871.04706.19945.12158.334.36055.19445.18021-.10522.37882-.17851.56-.28232.31425-.18009.40563.07284.55565.256.23989.29292.055.47827-.17934.54647-1.069.31114-.78026,1.39334-1.48853,2.06554.69371.03556.82829-.43173,1.19731-.4863a1.19265,1.19265,0,0,1,1.384,1.25537c.06042.93687.23377.91565,1.05217.87659.91214-.04355,1.67723-.5627,2.57721-.562a1.55267,1.55267,0,0,1,.86179.14975.82016.82016,0,0,0,1.17564-.21676c.34427-.41874.77271-.482,1.047-.07871.29948.44027-.34668.40806-.50443.64577.086.23873.29618.15489.459.17782.25654.03612.62319-.04668.675.28273.04607.29295-.31421.30292-.526.3816-.46082.17116-.26664.4333-.11794.70386a.7292.7292,0,0,1-.45936,1.18858c-.23587.083-.61044.055-.50578.46163a.56081.56081,0,0,0,.71863.392c.867-.33535,1.27542.00778,1.38323.84195.08845-.01619.12868-.01147.14-.02742.212-.2985.26563-.77945.78959-.71929.16852.01935.23155.17869.23936.33625a.84242.84242,0,0,1-.58945.90018c-.281.11227-.45636.40071-.86028.30774-.4069-.09367-.38175.382-.49445.62157a.4936.4936,0,0,0,.11609.58044c.25519.18757.43847-.0822.63172-.193.25627-.147.46862-.37826.79778-.36639.23816.0086.50706-.02623.64631.21438.18389.31773-.15668.38393-.29876.54923a6.502,6.502,0,0,0-.54869.70722c-.20514.31889-.51687.66971.18851.81763a.66723.66723,0,0,1,.48595.69288c-.09564.80418.55758,1.22683.82123,1.84076.05829.13573.147.30045.313.27954.89-.11215.78893.52338.63547.979-.22456.66682-.24989,1.4458-.88469,1.95437.306.0869.47833-.2322.74584-.21741.31171.01724.93056.0492.76564.30557-.43431.67508,1.31551,1.3721-.10467,1.92443-.68665.26706-.87418,1.00953-1.4342,1.64234.61656-.05211,1.12858-.41933,1.33921.2158a.74478.74478,0,0,1-.55687.97537.4413.4413,0,0,0-.3231.5547c.16012.80675-.23783,1.15022-1.185,1.13612a3.32366,3.32366,0,0,0,2.73951-.49575c.15869-.18455.31277-.3188.5165-.13762.32637.29027.79716.569.63388,1.083-.11095.34935-.17163.56161.11361.858.23927.24863.10638.55506-.15056.78354-.19358.17213-.51634.20033-.5854.53694.19091.36067.73457-.058.91191.45253a2.48773,2.48773,0,0,1-1.55991.35085c-.52552-.04734-.92041-.16613-.64766-.81784.06865-.16407.09926-.2601-.08928-.353a2.88565,2.88565,0,0,0-1.796.75367c-.21218.66487-.90561.83549-1.33826,1.27681-.13314.13581-.4018-.0186-.52588-.21328a.59793.59793,0,0,1-.00918-.68156,9.00743,9.00743,0,0,1,.71427-.79105,4.37448,4.37448,0,0,0-2.11782,2.4964c.81393.12794,1.76765-.00332,2.3541.64609a2.30253,2.30253,0,0,0,.83108.66065c.62949.26792,1.21827.43982,1.77275-.1742.1439-.15937.4179-.20044.72735-.33826-.24592.81966.11341,1.13088.82314,1.24836.32874.05441.777.17946.80088.60683.02438.43629-.44043.38723-.71854.52437a2.375,2.375,0,0,0-.37124,2.3155c.16482.22544.41162.41193.1816.68527-.28582.33966-.34113-.17746-.542-.18722a1.43052,1.43052,0,0,0-.35408.01051c-.217.04477-.55471-.08788-.60684.22811-.04816.29193.25084.37141.484.41992a1.32555,1.32555,0,0,1,.65542.24955c.27012.23143.50627.393.41334.85736-.1422.71046.2253.95679.87283.72248.5304-.19195,1.05365-.29993,1.27237-.967.13769-.42.586-.47267.99016-.261a1.4017,1.4017,0,0,0,.74129.28305c.412-.0317.5424.11.41816.52247-.14624.48554.05534.71073.56822.76627.2786.0302.832-.10693.63751.54382-.03042.10184.00168.18674.1084.178,1.287-.106,1.14036,1.61472,2.39917,1.53909l-.16152.28837a10.88807,10.88807,0,0,1-1.54111.12071c-.37995-.02043-.52349-.359-.482-.73532a.34816.34816,0,0,0-.31817-.44331c-.32233-.06286-.29292.1751-.37667.36373-.49933,1.12467-.366,1.43318.82,2.03288.49591.25077.74193.84744,1.37279.9684-.84434.78036-.95638,1.97236-2.01883,2.6101a3.815,3.815,0,0,0,1.86764-.09352c1.24079-.15179,1.801.28986,1.86227,1.50547.00593.11753.02348.31524-.03091.34261-.569.28639-.36478,1.20675-1.14584,1.34664-.32443.05811-.29225.51841-.3275.77027-.08526.60946-.24548.98286-.95617.80136-.20855-.05327-.51441.01376-.50607.24223.02457.67077-.77552.95527-.68439,1.68652a.58763.58763,0,0,1-.79017.60812c-.38771-.14421-.89641-.386-.57918-.98465.23335-.44036.30144-.8497-.24491-1.00975-.56476-.16543-.779.17973-.83318.73993-.039.40316-.2634.76986-.27743,1.20929-.02125.66536-.546.9304-1.12644.59181-.48439-.28257-.92609-.63885-1.39109-.96555-.31493.27381-.09713.67374-.33207.93244-.24209.26658.01712.38182.17511.56435.20108.23233.36034.27208.6012.09261.18844-.14042.39174-.54157.62464-.19.19636.29644-.04873.62357-.32178.84184-.14988.1198-.33493.08174-.60583.014a3.28347,3.28347,0,0,0,1.31445.713c.17812.04887.34893.14864.35342.35462.00464.21175-.17237.31276-.34857.35615-.75234.18525-.56578,1.15553-1.20193,1.43235.37957.69432.8738,1.37361.2859,2.19483.89638.78338,1.27785,1.99237,2.38388,2.67888-.45817.20234-.7864.32455-1.09032.49133-.14685.08058-.22953.12637-.3772-.00005-.77494-.66338-1.04434-.73965-2.40529-.73119a.57756.57756,0,0,0,.4601.6657c.72551.11181.66462.38958.42841.96007-.12352.29835.41767.52019.567.93079.416,1.14413.51819,1.10609-.64214,1.61681-.05122.02253-.09053.07226-.154.183.40329-.16791.55142.33723.85119.27449.34447-.07211.22-.52134.43225-.73451.61536-.61791,1.21233-.443,1.91031.057-.5591.29711-.79777.93419-1.48544.92858a.31364.31364,0,0,0-.211.14574c-.60819.97484-.60648.97634-1.90517.79006a.40888.40888,0,0,0-.4543.20774c-.1099.2141.05938.31569.214.41868.39728.26461.99021.31729.99346.99665.4602-.10894.57919-.718,1.07853-.60868.34545.07565.12121.41185.23935.604.24761-.06757.23779-.32321.35942-.47741a.701.701,0,0,1,.76859-.33167.54622.54622,0,0,1,.4419.50492.82131.82131,0,0,1-.43775.73148c-.28911.21119-.70164.18217-.93886.49422-.12409.16324-.31793.30212-.22295.54488.11709.29929.32006.15453.52078.09724.38609-.1102.90688-.32478.48836.44842-.1346.24868.03.24058.1823.25453.26749.02448.56117.09342.61439-.31063.04917-.37325.28242-.732.62135-.59564.59121.23782.49794.93382.58308,1.43006.06335.36926-.28247.71259-.77532.659-.74353-.08087-.73914-.07925-1.24437.66014-.14736.21565-.55464-.00637-.646.3544.22394.34483.57529-.06376.87112.20754a.707.707,0,0,0-.63155.84956c.023.34441-1.6733,1.3035-1.9885,1.15321-.44033-.20994-.83636-.48272-.61052-1.15916-.36685.1006-.75126.02035-.90564.45333-.04262.11955-.10787.26912-.22714.175-.73738-.58213-1.11346.06715-1.571.4421-.71279.58406-.74706.57944-1.78553-.287-.09052.27113.16563.43246.197.66308a.81621.81621,0,0,1-.4264.905.57062.57062,0,0,1-.78877-.20914c-.39866-.56114-.72117-.86107-1.3933-.25463-.43541.39285-1.194-.1703-1.05358-.819.1823-.84236-.26369-.83006-.76814-.66384-.60532.19947-1.31025.014-1.83547.59643-.27178.3014-.6657.13735-1.00718-.19182a.77317.77317,0,0,0-1.32692.469c-.03862.54291-.23545.98007-.74751.88193-.57286-.10979-1.21238-.50541-1.13033-1.19146.0883-.7384-.2362-.79355-.78172-.82538a42.5528,42.5528,0,0,1-4.95942-.72783,13.557,13.557,0,0,0-7.11147.58257c-1.72921.62454-3.59.57736-5.34867,1.06289-1.46674.40494-1.613.497-1.53787,2.01066.51564,10.39337.26075,20.79505.37541,31.19263.02342,2.12335.23008,4.24438.33575,6.36732.02328.46764.10793,1.055-.64638,1.00413-.56246-.03793-3.1358.03162-3.63842.01082-.50488-.02089-.57562-.35843-.54248-.74794.47776-5.61486.22021-11.25612.6288-16.87685.20151-2.77227.05152-5.56848.13318-8.35172.12733-4.33949-.14135-8.67448-.08454-13.01267.02714-2.07309-.00842-2.03866-1.9668-2.6313a35.99822,35.99822,0,0,0-7.12685-1.2825,4.83054,4.83054,0,0,0-1.68537.11275c-.35206.09088-.90762.70243-1.15437-.25508-.07487-.29053-2.35963.41084-2.44231.80731-.19393.93-1.05834,1.579-1.03227,2.60659.00615.24261-.28476.48021-.539.5547-.8467.24806-.53051.72829-.25833,1.193.07278.12425.25753.22493.14037.376-.36667.47268-.94512.25975-1.41878.39375-.37147.10508-.518-.25849-.63669-.50824-.15026-.31613.036-.47286.34834-.36613.44036.15044.685.2508.58636-.4392-.04662-.32633.59962-.52567.70851-1.12553-.74628.60163-1.73086-.74727-2.26786.5882-.34355-.62738-1.21031-.89965-.85979-1.78908.06389-.16216.1354-.47434.24747-.3638.58241.5745,1.37155-.26679,1.92886.36111a.69411.69411,0,0,0-.68211-.674c-.37842-.03365-.718.00338-.78322-.49451a.29667.29667,0,0,0-.17584-.18347.35467.35467,0,0,0-.24649.03112c-.61008.29267-1.53354.08971-1.70253,1.08687a.76043.76043,0,0,0,.03484.60231c.08906.1375.51211.13854.22233.43223a.5906.5906,0,0,1-.64666.20831.98071.98071,0,0,0-1.48727.59068c-.16408.40256-.60893.288-1.00137.4104.43055.53047.41306.92008-.28484,1.15657-.70262.23808-.44716.72793-.22367,1.17173.13287.26386.37115.5211.06087.7984a.6378.6378,0,0,1-.82808.03208c-.40506-.25757-.71324-.29766-.82324.30352-.04873.26632-.18745.53969-.5308.49668-.35026-.04387-.3624-.33655-.381-.61586-.01666-.2501.05344-.69366-.31354-.59-.37944.1072-.9325-.229-1.15532.39441a4.26375,4.26375,0,0,1-.62023,1.47771,2.479,2.479,0,0,1-.55993-.92423c.04926-.17529.40364-.48349-.10089-.45148-.43491.02762-.649-.09777-.62517-.50571.03357-.5752-.27681-.71979-.84482-.6165a3.40486,3.40486,0,0,1,.23033-.31411,3.2406,3.2406,0,0,0,1.13737-2.12147c.01944-.33422-.14259-.39616-.35389-.29411-.30051.14513-.62459.26084-.564.77168a1.37133,1.37133,0,0,1-.66687,1.43471c-.34195.17927-.1396.49013-.31534.675q-.0501-.02893-.0988-.06022c-.63321-.43044-.95117-.91972-.33428-1.61784.24142-.27322.09446-.79813-.02341-.80735-.87658-.06864-1.4833-.92-2.392-.80167-.18624.02426-.35383.19271-.5953.33249-.1092-.66486-.70066-1.16007-.2985-1.97228.1971-.39807-.76062-.83787-1.21357-.544a1.02506,1.02506,0,0,1-1.39737-.56613c-.641-1.25954-.64157-1.2613-1.92615-.81933-.208.07156-.4404.1797-.46334-.16374-.03507-.52494-.75909-1.05217.00759-1.587.1625-.11334.03925-.26206-.10392-.34963-.12741-.07793-.24806-.16814-.37964-.23782-1.24082-.65728-1.27657-.82077-.3515-1.83516-.33605-.05386-.66233.18337-.99648-.02961.063-.08033.11839-.19835.15664-.193,1.52508.21351,1.32242-1.31148,1.97145-1.97458a.19671.19671,0,0,0-.04109-.31188.39446.39446,0,0,0-.32239.019,1.38068,1.38068,0,0,0-.6056.75138c-.04744.13585-.16023.27555-.33845.22185-.2212-.06669-.20326-.26769-.19327-.44539a1.84145,1.84145,0,0,1,.44925-.86442c.44949-.69738.23233-1.29906-.62178-1.40335-.82726-.101-1.34311-.43216-1.40527-1.30855-.00885-.12479-.05218-.306-.16948-.26691-.5775.19227-.84841-.18365-1.17317-.54017-.16806-.18449-.81847-.02565-.61649-.3809.21089-.37091.23983-1.04513.91167-1.06729.23836-.00786.52346-.1228.70649-.02947.97077.495,1.00068-.3375,1.26023-.85384.02452-.04879.04013-.1021.05988-.15331-.98581-.19641-.41348-1.97475-1.80414-1.78654-.18281.02473-.44878-.16673-.37756-.40659a.59675.59675,0,0,1,.80271-.37432c.68243.40478.75554-.1016.87588-.50867.17286-.58477.69057-.95491.82062-1.61621.086-.43709.805.08506,1.22232-.09759a3.40544,3.40544,0,0,0,.33644.62461,1.24,1.24,0,0,0,1.28721.58437c.57651-.13481.48434-.61372.51711-1.00316a2.36548,2.36548,0,0,1,1.73477-2.01938c.17537-.03988.38711-.00322.32429-.27049-.04385-.18661-.23323-.18458-.36954-.12947a1.40484,1.40484,0,0,1-1.12154.04116.98943.98943,0,0,0-1.14792.08863c-.24227.19716-.56814.11927-.86339.09715-.16987-.36694-.29012-.72722.11372-1.03213.07068-.05336.17706-.183.18793-.17464.98257.76037.75332-.45794,1.11451-.69756a1.06793,1.06793,0,0,1,1.09371-.044c.29823.11663.88335.3023.82835-.16644-.04569-.38945.54359-1.19276-.45075-1.28421-.43483-.04-.32532-.41677-.43442-.67012-.146-.33913-.05831-.84356-.52885-.96688a.89022.89022,0,0,0-.99887.16939c-.27374.34972.13088.59838.23791.88255a2.33606,2.33606,0,0,0,.42949.55358,1.38166,1.38166,0,0,1-2.03518-.53306c-.115-.20449-.07588-.59421-.5053-.47266-.1631.04617-.38677.18353-.47212-.04036a.44513.44513,0,0,1,.331-.56c.70448-.16934.909-.902,1.46738-1.23311a.69641.69641,0,0,0,.27054-.724c-.0854-.41337-.3855-.11864-.58208-.11339-.73324.01957-.274-.95691-.92661-.99959.48309-.07253.93231.11958,1.42455-.17026-.36272-.37207-.55973-.94009-1.25158-.63046-.26.11635-.40765-.07026-.506-.23845-.17758-.30385.0229-.58094.15675-.83821.11628-.2235.29312-.18717.52922-.10356a3.48837,3.48837,0,0,0,2.18492.39781.47017.47017,0,0,1,.48584.17278,4.41139,4.41139,0,0,0,1.86125,1.02772c.16174.07484.36588.09448.36944.3186.00339.21261-.1903.27833-.34052.37481-.18214.117-.52481.08173-.46856.43144.01431.089.15061.18438.25176.22819.2788.12068.649.06826.70255-.18739.19708-.941.83431-1.23366,1.91587-1.17229-.59339-.5783-1.12926-.76836-1.42991-1.34592-.24438-.46949-.38381.38436-.77724.43272-.09484-.22268.12478-.3926.15772-.58744a.44466.44466,0,0,0-.16145-.482c-.312-.19417-.21745.14689-.29494.25689-.20559.29188-.33553.18918-.39968-.08677-.08227-.35386.10178-.85482-.653-.65443-.30809.08177-.38471-.49747-.33924-.79874.053-.351.05572-.57834-.36808-.64173-.02433.33031.33479.70422-.09284.97424a.87658.87658,0,0,1-1.01206-.07574,1.10568,1.10568,0,0,0-1.428-.01257c.15114-1.02194.8084-.691,1.3358-.8118-.247-.37571-.74059-.81435-.14542-1.17059a1.42259,1.42259,0,0,1,1.74712.12961c.902.78958,1.0831.74137,1.35345-.43368.28782-1.251,1.07582-1.96428,2.011-1.53825.55049.25079,1.16127.03024,1.68782.50034.37432.33417,1.01624-.07321,1.49918-.28034.16836-.0722.12675-.32255-.0377-.45522a1.39044,1.39044,0,0,1-.36749-.37284c-.12308-.20706-.08169-.63069-.43862-.57018a3.04752,3.04752,0,0,0-1.03547.42336c-.18279.111-.14368.65835-.48629.43409-.34272-.22432-.10065-.58753.11535-.85419.07408-.09145.17461-.17042.11106-.338-.2962-.17517-.61555.05607-.92908.001-.30093-.05286-.60468-.11766-.7461-.41651-.08214-.1736.14557-.33614.22875-.30386.59515.231.5634-1.043,1.23712-.50915.13872.10992.20252.39586.24529-.02773.01688-.16707.10343-.31957.24974-.335.76694-.081,1.16462-.29943.64766-1.15084-.14564-.23986.22827-.423.466-.334.77986.292,1.23766-.39515,1.82764-.61968.41419-.15762.16236-.697-.16958-.85179-.70016-.32643-1.05837-1.21282-2.01923-1.14013-.37975.02872-.50926-.42416-.56138-.80724-.07344-.5397-.19459-1.07958.55877-1.18843-.04592-.388-.4146-.045-.488-.3412.03029-.25027.40942-.23135.46747-.44973.06052-.22771.478-.686-.29824-.57542-.476.06781-.75152-.42848-1.1081-.67946-.1916-.13485-.082-.28277.09863-.41237.55515-.39824.36164-.68983-.184-.81675-.56384-.13115-.37222-.51291-.33824-.84459.05882-.57416.48046-.17612.59445-.13082.45383.18034,1.01462-.09843,1.40645.40566.20719.26657.32988-.11343.408-.25245.29722-.5291.57286-.69231,1.10093-.198.40634.38033.78735-.08282,1.02067-.33952.27694-.30472-.08335-.66679-.33006-.6487-1.1332.08313-1.53211-.80757-2.14431-1.45941-.7966-.84818-.88517-.83543-2.08293-.37919.17266-.70227-.06493-.98088-.78452-.91764a.91678.91678,0,0,1-.96835-.66366c-.121-.47054-.17425-.99184.55743-1.10487a3.20335,3.20335,0,0,0,1.12216-.45423c-.92956.08179-.94717-1.32187-1.97049-1.08181-.16739.03927-.21968-.32358-.19551-.44192.08882-.435.52167-.0268.72783-.30109.01088-.19217-.60723-.27763-.1763-.62933q.36729-.1769.73443-.35385c.16937-.05.39091-.04849.49908-.15888.462-.47142.76412-.26,1.0777.17276.10748.14832.20814.43286.4677.32018a.44214.44214,0,0,0,.21987-.605.56668.56668,0,0,1,.16217-.65518c.1861-.15576.154-.22615-.02636-.39916-.74228-.71182-.6247-1.47174.34126-1.79192a1.18532,1.18532,0,0,0,.99246-1.3066c.02852-1.02217,1.12673-.5368,1.329-.402.775.51635.81005-.05863.94065-.49548.27665-.92543.261-.93013,1.2002-1.34568-.57922-.31367-.9-.8647-1.70415-.59878-.41256.13643-1.04686.33428-1.47028-.15763.05041-.28085.212-.21617.353-.20137.2061.02165.45141.0891.50469-.2073.08067-.44875-.2919-.1182-.39351-.21463A6.653,6.653,0,0,1,42.287,39.88867c-.24078-.41913.215-.84664.549-1.10084.256-.19489.69978-.31487.82637.24.04293.18815.11777.25977.29928.19967a.49055.49055,0,0,0,.37264-.35219c.055-.27683-.09309-.73056.27989-.75264.38119-.02256.16061.5021.35761.71959a3.21482,3.21482,0,0,1,.54538.692c.11449.23412-.23115.3741-.32373.64062a1.09539,1.09539,0,0,0,.97593-.32214,3.21921,3.21921,0,0,0,1.22958-1.90915c.12181-.44805.69157-.39326.84754.22456.04325.17131.03248.40159.25622.42344.40478.03954.07272-.31417.2193-.46139.42753-.42939.2067-.88918-.07438-1.27664-.3002-.41381-.73677-.14968-1.07365-.05386-.36945.10508-.68267.34045-1.07736.05985-.28636-.20357-.52067-.40911-.453-.798a.80079.80079,0,0,1,.61436-.68553,1.15069,1.15069,0,0,0,.4537-1.99486c-.20368-.18914-.38617-.06509-.57781.00663a.6218.6218,0,0,1-.74192-.13311c-.27727-.31123-.02152-.59591.13426-.80654a6.59833,6.59833,0,0,1,2.43315-1.76088c.35951-.187.61242-.4833.97571-.65759.79094-.37945,1.27034.23982,1.9227.52384a1.82131,1.82131,0,0,0-.28971-1.71413c-.33-.36906.07523-.74429.38956-1.04273-.52239-.17847-.48216.41879-.86426.47656a1.0022,1.0022,0,0,0-1.02914-.75319c-.40054.02087-.23528-.331-.24147-.53961-.01055-.3556-.07368-.7589.285-.9807.32875-.20327.27968.30932.51078.33829.00554-.58831-.0657-.73125-.65416-.58886-.91359.221-.4865-.82716-1.038-1.00567-.19819-.06414.2081-.38737.4458-.56963a8.41634,8.41634,0,0,1,2.07344-1.3778,1.05856,1.05856,0,0,0,.48214-1.00221c-.02263-.53136.18885-.74479.65963-.70165.43276.03967,1.01613-.13479,1.08828.6065a.98633.98633,0,0,0,.33076.73c.666-1.15507,1.76388-.96369,2.88851-.90708a2.08235,2.08235,0,0,0-1.47192-1.65542c1.005-.586,1.39952,1.17814,2.367.353-.55722-.35352-.83366-.95064-1.30109-1.38934-.48594-.4561-.32854-1.16619.31331-1.17614,1.11067-.01721,1.74452-1.0026,2.75247-1.17642.31387-.05413.1661-.409.26513-.61236.122-.25052.24214-.5076.556-.516a.66481.66481,0,0,1,.56254.38618c.6443,1.00493,1.03744,1.15425,2.16423.81508.399-.1201.84812.14132,1.232-.24888a1.16632,1.16632,0,0,0,.37057-.57162,1.98908,1.98908,0,0,0-1.43741-1.85588,1.73653,1.73653,0,0,1-1.64624-2.207,1.95362,1.95362,0,0,1,1.95692-1.66568c.38925-.02972.56858.45813,1.00615.39682.64282-.09007,1.18772.60855,1.94846.28777a1.67539,1.67539,0,0,1-.8938-1.65436.51148.51148,0,0,0-.30651-.5116c-.27561-.14051-.36292.0769-.47083.25739-.19584.32757-.48764.30811-.78429.19042a.5219.5219,0,0,1-.35522-.5635.69012.69012,0,0,1,.53935-.64137c.63632-.18283,1.27418-.36021,1.9172-.54147a1.8684,1.8684,0,0,0-.0894-.185c-.18839-.29354-.81652-.47588-.44616-.9068.32939-.38325.94128-.2612,1.35385-.08276.43961.19013.24641.59914.00211.90256-.16541.20544-.435.385-.28177.691.16513.32991.46212.14735.71826.1283.462-.03437.549.13951.41632.59965-.16.55484.00471.91083.7209.76863.4808-.09546.53815-.04119.48952-.5274-.09439-.94358.29257-1.96433-.44543-2.81484-.156-.17982.08882-.40026.08092-.58452-.00892-.20826.20644-.5081-.1038-.639-.8685-.36649-.62957-.57166.04962-.89759a3.43534,3.43534,0,0,0,.94845-.9199c.56439-.65134.895-.62765,1.30055.14383.083.15793.10181.36475.34293.33192.18827-.02563.42214-.17191.38874-.31421-.18252-.77727.4978-1.01484.8306-1.47858.22792-.31757.59579-.54426.63369-1.01842a.46127.46127,0,0,1,.59652-.399.4211.4211,0,0,1,.24922.592c-.25141.74934.18484.66651.6744.65066.301-.00974.71843-.1896.90055.16876.16718.32894-.14039.6093-.30643.8866-.1332.22245-.37668.43785-.06809.69971a.61512.61512,0,0,0,.8255.0701c.58931-.66045.99082-.218,1.47609.12529,1.23926.87682,1.25044.86464.73126,2.3724-.10625.30857-.34049.72541.03015.87657.41268.1683.57012-.29073.7084-.62207.47818-1.14579.82695-1.34022,1.91454-.97613-.55066.24737-.96612.47357-.50644,1.14565.21439.31343-.18253.80966-.52121.76963-1.26762-.14983-1.055.89215-1.3357,1.53884-.04533.10444-.01424.271-.08456.33141-.80444.69116-.634,1.28973.17222,1.83434.32528-.22783-.10819-.44151-.0408-.7014.20365-.78546.70239-.87573,1.6969-.26591ZM51.26653,44.06682c.185.41262.42506.324.69137.08244a2.88262,2.88262,0,0,0,.57594-1.6411c.00041-.37923.08379-.58693.5-.49682.18146.03928.37155.09306.38236-.183.00652-.16626-.131-.26467-.26731-.32386a1.3394,1.3394,0,0,0-1.64708,1.09593c.00166.409.05056.818.08467,1.2265.022.26331-.11179.30237-.3242.24406-.12811-.1659-.2884-.33282-.24388-.55761.11465-.579-.22014-.67948-.65383-.59556-.36679.071-.71276.15538-.97593-.18694a.33873.33873,0,0,1-.0035-.3211c.27982-.34007.64815-.18977.9962-.14528a.74135.74135,0,0,0,.206-.05038c-.773-.75293.344-.938.442-1.62219a3.168,3.168,0,0,1-2.91069-.26215c.00134.53185.54123.78762.576,1.298A2.85433,2.85433,0,0,0,51.26653,44.06682Zm44.64078,58.83074a1.2934,1.2934,0,0,1-1.28467-.39438.4154.4154,0,0,0-.63832.04015c-.20925.36642.13874.26386.319.2875.16814.02206.21239.1912.12081.25152-.49.32271-.43381.88369-.62578,1.33466-.082.19266-.52365.24922-.29414.54077.23425.29761.542.2419.8632.00953a1.00439,1.00439,0,0,1,1.17232.04147c.39692.23874.05914.56238.07489.85979.58793.05335.55175-.73472,1.0797-.70767.37088.019.50644-.20341.30067-.51341-.134-.20184-.1543-.7064-.669-.28291a1.31038,1.31038,0,0,1-1.22532.05036c.28436-.53892.5436-1.03027.80291-1.52156.73611-.21777.75867-.92837.96638-1.481.18175-.48361.39294-.80589.95474-.67881.14267.03226.31451.29825.36707-.05514.03387-.22763-.1405-.25064-.34216-.289-.72317-.13753-1.39073.32447-2.13975.14267a.50169.50169,0,0,0-.44283.76473,2.06147,2.06147,0,0,0,.55629.90472C96.13931,102.41645,96.02973,102.648,95.90731,102.89756Zm-17.4682,5.58323c.79505-.12684,1.58639-.31671,2.38613-.36407a2.66459,2.66459,0,0,0,2.08576-1.22138,2.5243,2.5243,0,0,1,1.12013-.95483c.47515-.20152.74926-1.13969.463-1.4475a1.09268,1.09268,0,0,1,.34922-1.76458c.15812-.07566.46-.093.4779-.18148.16848-.8346-.89845-1.03082-.95282-1.7981-.01745-.24607-.38214-.2011-.52611-.08179-.40511.33578-.93892.62627-.98018,1.20944a.64637.64637,0,0,1-.3727.62109,7.56413,7.56413,0,0,0-3.77,3.99527c-.19287.53494-.40693,1.06215-.6033,1.59584C78.004,108.39363,78.10086,108.55414,78.43911,108.48079Zm-13.33732-6.11525a1.5986,1.5986,0,0,1,1.03068,1.1585c.31956.87132-.17915,1.01135-.584,1.414-.375.373.08467.64768.2779.8828.32229.39221.40454.02315.51259-.22455a.70382.70382,0,0,1,.77141-.48938c.40981.06379.4944.39582.45921.75264-.04122.41793.23506.51673.54457.56284a42.99716,42.99716,0,0,1,4.97824,1.12086c.20353.05555.39352.12887.53344-.13529a1.69046,1.69046,0,0,0-.6919-1.97351c-1.02954-.56079-2.27229-.639-3.17283-1.534-.28116-.27941-1.016-.90068-1.274.25684-.08862.39764-.57477.49634-.98747.30013-.31707-.15071-.75388-.29017-.671-.7254.08876-.46626.55236-.34564.89759-.37342.05011-.004.09669-.05221.22-.12319A11.89024,11.89024,0,0,0,65.10179,102.36554ZM69.04271,5.69833c-.55793,1.68952-.3106,3.3269-.47637,4.92371-.03567.34356-.03683.92554.28643,1.083a5.52829,5.52829,0,0,1,1.911,1.82444c.24072.316.33678.202.58818-.03979.35444-.34092.12508-.83776.349-1.095.69374-.797.45884-1.3885-.2392-1.9838-.30718-.262-.346-.55207.05765-.7895.27555-.16209.40094-.41933.1876-.67208-.41008-.48583-.45055-1.37469-1.39188-1.31044-.17632.012-.42415-.19046-.35554-.32957C70.4369,6.34135,69.552,6.19569,69.04271,5.69833ZM108.594,90.84349c-.57312-.35281-.89605-.66986-.42522-1.26026.24826-.31131-.25813-1.34808-.64248-1.49252a2.53762,2.53762,0,0,0-1.55142.656.81264.81264,0,0,1-.80094.693,6.59345,6.59345,0,0,0-1.44939.40536c-.30048.12337-.69018.39335-.41842.77658.3042.429,1.64356.41657,2.08727.071.458-.35667.83654-.34355.99551.2867.08375.33194.22466.69891.54555.35756C107.38261,90.86026,107.92925,90.946,108.594,90.84349Zm-.45967-39.82918c-.4312-.25411-.823-.50051-1.22989-.71838a.544.544,0,0,0-.66732.00172c-.1706.179.00485.41811.1068.56928a2.09638,2.09638,0,0,1,.31813,1.62252c-.11852.624-.75123.84552-1.08469.339-.327-.4967-.40511-.02747-.58465.03694-.33721.121-.38261.5812-.221.61813.43746.1.81381.678,1.01678.57412.79525-.40689,1.74729.12187,2.5371-.65571.44194-.43509.25051-.92473.66785-1.2958a1.77,1.77,0,0,1-1.9477-.92158C107.36305,50.945,107.74517,51.14,108.13435,51.01431Zm-16.99327,56.0108c.83682-.2114,1.52923-.38553,2.22114-.5616.20244-.05149.44014-.08982.44619-.35669a.38913.38913,0,0,0-.30915-.39495c-.34754-.064-.26654.19492-.27631.40325-.0126.26868-.22966.23139-.40049.20213a.7798.7798,0,0,1-.59938-.34473.16424.16424,0,0,1,.1286-.26409c.56917-.06214.57254-.37032.28269-.72379-.30537-.37241-.56561-.10363-.79858.14113-.38782.40746-.75874.317-1.18885.0293-.39574-.26468-.81789-.60129-1.266.037-.15322.21829-.63646.43358-.88819.19614-.49235-.4644-1.02078-.13481-1.51558-.25646,2.50626,1.69673,2.50626,1.69673,3.22434,1.54824-.05091-.32505-.91029-.42434-.33851-.85854a1.318,1.318,0,0,1,1.35478.12679C91.604,106.19044,91.32246,106.586,91.14108,107.02511ZM102.19121,57.5233c.4302.33418.68183,1.23914,1.42315.39232a.5045.5045,0,0,1,.72732.06965c.35359.85553.71183.07161,1.02472.01326.46734-.08716.30418-.46535.22606-.79283-.11775-.49343.00038-.81695.61182-.7825.41943.02364.57945-.27569.54528-.64747-.01988-.21631-.03608-.56767-.34418-.52837-.337.043-.80359.00524-.87262.53278-.10464.79974-.57445.94129-1.24386.6864-.21008-.08-.51752-.16027-.53066.06265C103.6946,57.60888,102.95151,57.50263,102.19121,57.5233ZM70.66614,101.11619c.28755.38288,1.17432.54009.84245.9743-.61762.808.11284.79593.40975,1.11631.31631.34135.87384.39551,1.031.9271a.42748.42748,0,0,0,.4554.22921c.2732-.02313.32368-.276.31684-.4706a2.01528,2.01528,0,0,0-.47248-1.4996C72.49031,101.48148,71.5413,101.48069,70.66614,101.11619Zm46.9595-19.02482c.65084-.44409.8827-1.24855,1.57116-1.28469.61626-.03232.74106-.41517.89344-.85061.06618-.18909.36835-.49524-.028-.51764-.28853-.01631-.84211-.57034-.928.13066-.11126.90736-.60187.64945-1.15681.4637.30458.4365.59151.82787-.0955,1.08961C117.42832,81.29517,117.64458,81.62922,117.62564,82.09137Z" style="fill:#73bf44"/><path d="M44.27334,114.95032a2.479,2.479,0,0,0,.55993.92423c-.10753.43082-.2153.86139-.32785,1.31106-.33746-.14233.11385-.53837-.24349-.563-.21682-.015-.22658.23029-.21776.414.02232.46508-.18366.76356-.65476.78761-.57.02909-.72178-.255-.55645-.79637.16419-.5376.48881-1.03784-.05078-1.64852a1.32754,1.32754,0,0,0-.649-.42829c-.37364-.10985-.68937-.23666-.732-.66524-.04785-.48106.26819-.69225.67046-.81743.03207.02054.065.04061.098.05979a5.77459,5.77459,0,0,1,.722.86888A1.01963,1.01963,0,0,0,44.27334,114.95032Z" style="fill:#73bf44"/><path d="M40.25949,61.54066c.3979-.03132.73038.10366.46919.76518a1.80963,1.80963,0,0,0,.221,1.36869,1.19464,1.19464,0,0,1,.08492.85876.4614.4614,0,0,1-.44458.36909.36766.36766,0,0,1-.37184-.32229.71286.71286,0,0,0-.45143-.58183c-.52614-.25374-1.22393-.5105-.37359-1.2359.10442-.08909.02837-.3901.03764-.59282C39.45046,61.74012,39.65632,61.5084,40.25949,61.54066Z" style="fill:#73bf44"/><path d="M53.737,112.77153a1.41291,1.41291,0,0,0,.8349.38062c.16431.04907.37819.09056.31428.33636a.28328.28328,0,0,1-.367.17418,13.15252,13.15252,0,0,1-2.71595-.95688c-.27591-.1447-.04992-.38232-.00189-.54663.099-.33857.16126-.02869.25.03414a.41709.41709,0,0,0,.70441-.21927c.182-.696.70217-.49355,1.15-.52826a.51723.51723,0,0,1,.55368.35443c.12074.26271-.07356.38233-.22192.52221C54.0875,112.46376,53.931,112.598,53.737,112.77153Z" style="fill:#73bf44"/><path d="M47.11275,116.78874a3.30194,3.30194,0,0,1,.96332.16687c.99134.55145,1.56282-.02086,2.09429-.72784.16064-.2137.27746-.53855.60873-.35.36811.20951.34249.611.284.96712a.35906.35906,0,0,1-.59959.27156c-.54194-.3716-.60671.08881-.72494.39577-.16509.4286-.29241.93322-.84827.89778a1.04827,1.04827,0,0,1-1.01077-.87047C47.80114,117.11773,47.30616,117.26061,47.11275,116.78874Z" style="fill:#73bf44"/><path d="M63.09758,14.75566a.7294.7294,0,0,1-.35066.58962,1.73742,1.73742,0,0,1-2.6072-.52892.42291.42291,0,0,1,.50123-.61191,8.33222,8.33222,0,0,0,1.86074.0502C62.85723,14.25435,63.07526,14.37753,63.09758,14.75566Z" style="fill:#73bf44"/><path d="M36.75535,50.93149c-.20467-.29312.11756-.56947.01571-.89121-.31382-.06274-.47163.08339-.53528.39574-.05943.29162-.10519.63024-.47908.664-.23182.0209-.35331-.20166-.42934-.39925-.12715-.33042-.34174-.72.02137-.98561a7.81458,7.81458,0,0,1,1.59831-.93823c.46949-.19385.49349.27949.5564.58618A1.75763,1.75763,0,0,1,36.75535,50.93149Z" style="fill:#73bf44"/><path d="M112.13781,61.32809a1.4459,1.4459,0,0,1,1.29753,1.83867.62723.62723,0,0,1-.68843.45225c-.3342-.04116-.49261-.27807-.58933-.59313-.05781-.18824.20148-.50712-.22236-.56271-.29351-.0385-.80053.0685-.69144-.42544A.96879.96879,0,0,1,112.13781,61.32809Z" style="fill:#73bf44"/><path d="M39.08111,49.2829q-.36718.17694-.73443.35385a1.72456,1.72456,0,0,1,.54667-2.47,1.03453,1.03453,0,0,1,1.1788-.087c.37734.19716.12624.53749.02156.78564-.14969.35485-.324.75155-.8512.47643-.20013-.10443-.43835-.13678-.54166.10062C38.53059,48.83374,39.0368,48.96185,39.08111,49.2829Z" style="fill:#73bf44"/><path d="M79.60482,9.5187l-.00335-.00313Z" style="fill:#73bf44"/><path d="M50.58065,45.8871c4.50416,0,4.51162-7,0-7-4.50417,0-4.51163,7,0,7Z" style="fill:#73bf44"/><path d="M104,59.8871c4.50417,0,4.51163-7,0-7-4.50417,0-4.51163,7,0,7Z" style="fill:#73bf44"/><path d="M105.74194,56.33871c4.50416,0,4.51162-7,0-7-4.50417,0-4.51163,7,0,7Z" style="fill:#73bf44"/><path d="M106.06452,93.371c4.50416,0,4.51162-7,0-7-4.50417,0-4.51163,7,0,7Z" style="fill:#73bf44"/><path d="M96.90323,105.1129c4.50416,0,4.51162-7,0-7-4.50417,0-4.51163,7,0,7Z" style="fill:#73bf44"/><path d="M96.06452,105.95161c4.50416,0,4.51162-7,0-7-4.50417,0-4.51163,7,0,7Z" style="fill:#73bf44"/><path d="M91.93548,107.371c4.50417,0,4.51163-7,0-7-4.50416,0-4.51162,7,0,7Z" style="fill:#73bf44"/><path d="M90,107.24194c4.50417,0,4.51163-7,0-7-4.50417,0-4.51163,7,0,7Z" style="fill:#73bf44"/><path d="M71.74194,14.56452c4.50416,0,4.51162-7,0-7-4.50417,0-4.51163,7,0,7Z" style="fill:#73bf44"/><path d="M72.03226,12.79032c4.50416,0,4.51162-7,0-7-4.50417,0-4.51163,7,0,7Z" style="fill:#73bf44"/><path d="M72.09677,10.53226c4.50417,0,4.51163-7,0-7-4.50416,0-4.51162,7,0,7Z" style="fill:#73bf44"/><path d="M72.09677,11.30645c4.50417,0,4.51163-7,0-7-4.50416,0-4.51162,7,0,7Z" style="fill:#73bf44"/><path d="M69.01613,8.004a.5003.5003,0,0,0,0-1,.5003.5003,0,0,0,0,1Z" style="fill:#73bf44"/><path d="M69.04032,8.74194a.5003.5003,0,0,0,0-1,.5003.5003,0,0,0,0,1Z" style="fill:#73bf44"/><path d="M69.004,9.27419a.5003.5003,0,0,0,0-1,.5003.5003,0,0,0,0,1Z" style="fill:#73bf44"/><path d="M68.89516,9.86694a.5003.5003,0,0,0,0-1,.5003.5003,0,0,0,0,1Z" style="fill:#73bf44"/></svg>