<svg xmlns="http://www.w3.org/2000/svg" viewBox="0 0 150 150"><path fill="#73bf44" d="M71 150h-7a79 79 0 0 0 0-8l-2-17h3l1 10c0 3 1 14 2 9l2-19h2l-1 11c0 3 0 4 1-1a84 84 0 0 0 0-10h3a61 61 0 0 1-1 11l-3 14Z"/><path fill="#73bf44" d="M124 58h2l-3-2 2-2h-2v-1h-2l-1-2-1 2-1-2-1 2v-2l-1 1-2-1 1-2-1-1 2-2h-1l1-1-1-1 1-2-2-1v-1l-2 1-1-1-1 1-1-1-1 1v-2h-2v-2l-1-1 2-1 1 1 1-1v-1l1-1-1-1 1-1 1-1-3-1-2-1v-2h-1l1-1 1-1h-1l2-2-1-1-1-2-2 2-1-1v2l-2-2-1-1 1-1-1-1 2-1-1-1 1-1-2-1 1-1h-1v-1l-1-1 1-1h-2l1-1-2-1-2-1 1-1c1-1-2-1-2-1l-1-2-1 1-2-1v2l-1-1-2 1-1-1h-1V1l-2 1V1l-1 1-1-1-1 1h-2v3l-2-1-1 2v1l-2-1 1 2h-1v1h-2V8l-1-1v1l-1-2-1 2V7l-2-1V4h-1l1-2-2 1-1-2-1 2v2h-1l-2-1 1-1V1h-2l-1-1v2l-2-2-1 2-1-2-3 2-1-1-1 2-1-1v2h-1l1 3h-1l1 2-1 1-1-1-1-1v1h-2v3h-1v1h-1l-1 1-1-3-1 2h-2l1 1h-1l1 2h-2l1 2-1-1-2 4-1-1v1l-1-1v4h-2l3 2c2 2-2 1-2 1l2 1-2 1h1l1 1-1 1h2l-3 3h3v1l1 1-1 1 1 2h-1v1h-1l1 2h-1l1 2h-1v3l2-1v1l2 1-1 1 2 1h-2l1 2h-1l1 1h-1l-2 2-1-1-1 2h-1v3h-1l1 2h-1l1 3h-1l3 1v1h-1l1 2h-1l-3 1v2h-1v2h-1l1 2h-1l2 2-1 1h-1l1 2-1 1h-1l2 2h-1l1 2h-1l2 2h-1l2 2-1 2 2 1h-1l1 1h1l1-1-1 1h3v1l1 1-2 1v1h-1v3l2-1v1h1l-1 1v1h-1l1 1-2 1v1h1l1 1h2l1-1 1 1 1-1v1l1 1h-1v2h-2l1 1h-1v1h-1l2 1-1 1 2 1-1 1 2 1-1 1h1l-1 1 1 1v1l1 1h-1c-2 1 0 1 0 1v2l-1-1v2h-1l1 2-1 1v1h1l-1 2 1 1 1-1 1 1 1-2v1-1h2v-2l1 1v1l-1 1h1v2h-1l1 1-1 2h1v1c-1 1 0 0 0 0v2l1-1 1 1 1-1 1 1v-1h1v-1h1v-2 1-2l1 1v-2l1 1v-2l1 1-1-2 1-1h1l-1-1 1-1-1-2 1 1 1-2 1 1v1h1v1h1v1h1l-1 1h2l-1 1h1v1h1v-1h1v2l1-1 1 1v-1l2 1v-1l1 1v-1h2v-1h1v-2l1 1v-1l1 1 1-1v1-1l1 1h1l1 2 1 1h1l1 2 1-1v1l1-1v1l3-1-2 1 2-1v1l4 3 1-1h2v-2l1 1v-2l1 1v-2l1 1h1c1-1 1 1 1 1h2-1v3l2-2 1 1 1-2 2 1v-3l1-1v-3l-1-1 1-1-2-1 1-2-3-1 2-1-2-1 2-1v-2 1h3v-2l3-1-2-1 1-1v-1l-2-1v-1l-2-1v-1h-3 1l-2-2-1-1 2-1-2-1 3-1-1-1h2l-1-1h1v-2h4v-1h4v-2l-3-1 7-2v-1h-1l1-1-1-1h1l-2-1h1l-2-1v-2l-1-1h-2l1-2 1-1-3-1 1-3h3l-1-2 3 1-1-3 2 1 1-1h2l-1-2 1-2h-1l1-1h-2l2-2v-2l2 1v-1h2l-2-2h3v-1h2l-1-2h2Z"/><path fill="#73bf44" d="M69 138c6 0 6-10 0-10s-6 10 0 10Z"/><path fill="#73bf44" d="M68 143c5 0 6-8 0-8-5 0-5 8 0 8Z"/><path fill="#73bf44" d="M68 147c4 0 4-6 0-6s-4 6 0 6Z"/></svg>