<svg xmlns="http://www.w3.org/2000/svg" viewBox="0 0 150 150"><path fill="#73bf44" fill-rule="evenodd" d="M74 140.9c-.8.7.5 2.3-.8 2.3l.1 4.2a.4.4 0 0 1-.7 0c-.2-2.3-.2-4.6-.5-7a.6.6 0 0 1 0-.8c0-2.2.3-4.7-.2-7-.2-.2-.2-.4 0-.7a14 14 0 0 0 .1-1.5v-2.2a31 31 0 0 0-.1-3.1c-.2-.5-.3-1.6 0-1.9v-5c0-.6-.5-1.9 0-2.3v-7a1 1 0 0 1-.2-.5 4.7 4.7 0 0 0 .3-2.2v-.4a5.7 5.7 0 0 0-1.8-.4 10 10 0 0 0 1.8.1v-.3l-.6-.3v.2a2.7 2.7 0 0 0-1.4-.9c-.2.2-.8.7-.8 1l-.2.1a18.2 18.2 0 0 0-1.4 1.6c-.5.1-.4 1-.4 1.5-.2 0-.2-.7-.4-.8 0-.5-.3-1.7 0-2v-.4a4 4 0 0 0-1.8 2.4c-.2.2 0 .7-.3 1v-1a.6.6 0 0 0-.1 0 9.4 9.4 0 0 1 .4-1.4l-.1-.2h-.1l-.4.8v-.5c-.4.2-1 1.2-1.2 1.5h-.1a6.4 6.4 0 0 1 .6-2.6v-.1a25.2 25.2 0 0 0-4.4.5c-.3.4-.8 1.7-1.2 1.8 0-.5.4-1 .4-1.5a16.5 16.5 0 0 0-2.2.6l-1.4 1.2.2-.6c-.3 0-.7.3-1 .4a6.6 6.6 0 0 1 .9-.7 1 1 0 0 0 .7-.7c-.3 0-.5.4-.7.7-.2 0-.2-.2-.3-.4a13.3 13.3 0 0 0-4 1.9h-.1a9 9 0 0 1 3.4-1.9c.1 0 .3 0 .4-.2h.4v-.2l1.5-.4a13.4 13.4 0 0 1 3.9-2.8c.4-.5.7-.8.5-1.4h-.4a28.3 28.3 0 0 0-4 3.3 13.2 13.2 0 0 1 2.4-3.2v-.1h-1.9l-.7.3c.2-.7 3-1 3.6-1.1a9.7 9.7 0 0 0 1.4-1 12.6 12.6 0 0 1 2.1-3c.5-.4.8-.5 1-1-.6 0-2 1.4-2.6 1.9L60 99c.6-1.9 2.8-3.3 4.3-4.4.5-.2 1.8-.7 1.9-1.2a2 2 0 0 0-1 .3 14.9 14.9 0 0 0-5.3 1.8 7.3 7.3 0 0 1 2-2c.3-1 2.8-1.8 3.8-2.1a5.4 5.4 0 0 1 2.5.4 5.4 5.4 0 0 0 2-.4v-.7a3.3 3.3 0 0 0-1 0c-1.9-.1-4.8-.8-6.6.2a.7.7 0 0 1 0-.1 6.3 6.3 0 0 1 1.9-1.2 4.6 4.6 0 0 0-.1-.5c-.6.2-1.1.3-1.4.8h-.1v-.1l-1 .5a4.2 4.2 0 0 1 1-1 7 7 0 0 1 1.7-1.7c0-.4.5-.6.6-1H65c-.2.1-.6.5-.8.5l.1-.2a5.4 5.4 0 0 0-1.6.7c.1.8-1 1.7-1 2.7a7.2 7.2 0 0 0-.7 2.8c-.5-.3-.8-1.4-.8-2 .2-.2-.1-.9.1-1 0-.7.6-1 .8-1.6-.6.1-1 1.3-1.4 1.8a2.5 2.5 0 0 1-.2 1c-.7-.8 1-2.1.8-2.5l.3-.3c-1.2.2-2.3.9-3.4 1.1l-2.9 1.5-1 .7a1.5 1.5 0 0 1 .4-.5 19.3 19.3 0 0 1 6.4-3l.2-.1c.3-.8 2-1.5 2.7-1.8v-1.2H63l-.6 1a.7.7 0 0 0-.1 0 6.3 6.3 0 0 1 .2-1.6v-.2a13.3 13.3 0 0 0-2 2.4 6.2 6.2 0 0 1 1.8-2.9.7.7 0 0 1 .2-.4v-.1a11.8 11.8 0 0 0-2.9 2.7 15.5 15.5 0 0 1 2-2.7c-.2 0-.3.4-.6.4a2.8 2.8 0 0 0 .6-.9 1.4 1.4 0 0 1 .2-.4c-.5-.2-2.2 1.2-2.6 1.5a.7.7 0 0 0-.1 0 6.9 6.9 0 0 1 1.8-2 39.4 39.4 0 0 0-4.6 2.5v.3H56l-.6.4a5.6 5.6 0 0 1 .6-.8 14.3 14.3 0 0 1-.8-2 2 2 0 0 0-.2-.8 8.2 8.2 0 0 0-1 .2 2.6 2.6 0 0 1 .9-.6 2 2 0 0 0-.2-.8 5.8 5.8 0 0 0-1.6.4l-.1.4c0-.1 0-.3-.2-.4h-.4c-.1-.1.3-.2.4-.3-.3-.5.1-1.2 0-1.7a.6.6 0 0 0-.1 0 26.4 26.4 0 0 0-4 5.2c-.1-.2.2-1 .2-1.3 1.1-2 2.2-3.9 4.2-5.2a.9.9 0 0 0 0-.4 16.7 16.7 0 0 0-5.7 4.7c.3-2 3-3.6 4.3-5a7 7 0 0 1 1.3-2 1.5 1.5 0 0 0 0-.4h-.3c0-.2.3-.3.4-.4l.5-1.4a8 8 0 0 0 1-2 5.2 5.2 0 0 0-1.1-.4 21.4 21.4 0 0 0-2.8 3.6h-.1c.1-1.4 1.2-2.7 2-3.7v-.2l-.5-.1-1 1.1a.6.6 0 0 0-.1 0l.7-1.3h-.4c0-.2-3-.9-3.5-1a19.5 19.5 0 0 1 4.7.3c.3-.2 1-.7 1.2-1l-2.3-1.6a9.8 9.8 0 0 1 3 1.1h.2c.5-.3 3.3-1.4 3.8-1a9.8 9.8 0 0 1 1.5-.5l-.1-.3h.7a2.1 2.1 0 0 1 .7-.4v.3a7.8 7.8 0 0 0 1.9-.9c.4-.6-.1-.9-.1-1.5a6.4 6.4 0 0 0-1.3 1s-.1.6-.3.6a1.5 1.5 0 0 0 0-.4h-.1v-.6a9 9 0 0 1-.1-3.2l.2-.7c-.1-.2-.3-.4-.5-.4a14.4 14.4 0 0 0-3.6 3.2h-.1c-.1-1 1.4-2.6 2.2-3.1v-.2a11.9 11.9 0 0 0-2.5 2.2c0-.7.6-1.2.6-1.9l-2 2.1c.6-1.5 2.4-2.6 3.7-3.5V58a11 11 0 0 0-4.8-1.8c-.6-.5-2.5.7-2.9 1l-.5.6a2.4 2.4 0 0 1 .5-1.2c-.7 0-1.6 2.5-1.8 3.2a6.3 6.3 0 0 1-.2 1.2l-.2-.8c-.4-.4-.2-1.8-.1-2.3a8.5 8.5 0 0 0 .6-1.2 11.3 11.3 0 0 0-1.6.5 2.8 2.8 0 0 0-.1.4 27.1 27.1 0 0 0-2.4 4.8 2.7 2.7 0 0 1-.4 1.1 5.7 5.7 0 0 1 .2-3.4 5.8 5.8 0 0 1 1-2.1.5.5 0 0 0-.1 0 32.4 32.4 0 0 0-6.4 4.6 13.3 13.3 0 0 1 5.4-4.8l1.8-.4 2-.8v-.1l.3-.1a8.8 8.8 0 0 1 2.6-.5h.2a.5.5 0 0 0 .5 0c2-.3 4.3.7 6.1 1.6l.5.3a4.8 4.8 0 0 0 1.5-.8 7.1 7.1 0 0 1-.7-1.9c-.5-.7-.7-2-1.2-2.7h-.8a11.6 11.6 0 0 1-2.2.2l-4 .7-1.6.4a38.6 38.6 0 0 1 7.8-1.4c.2-.2.6 0 .8-.1a13.3 13.3 0 0 0-1-2.9c-.7 0-1.6 2-2.2 2.2-.2-.7 1.2-3.3 1.5-3.7l-.1-.3H57l-1 .7-1.1 1.3c-.2-.8.5-1.7.5-2.5-.7 0-2 1.3-2.5 1.8 0-.5.6-.7.7-1-.8-.1-1.5 1.8-2 2-.3-.8 1.6-2.2 2.1-2.6l1.8-.8c.5-.9-.3-1-1-1.6a7 7 0 0 0-3 2.3h-.1c.3-1 1.8-2 2.7-2.5v-.1l-1.3-.8a7.2 7.2 0 0 0-1.7-.6 7.4 7.4 0 0 0-4.5 2.2h-.1a4.4 4.4 0 0 1 2.9-2.6c-1.5-.2-3 1.8-3.7 3a11.2 11.2 0 0 0-1.7 3.3c-.1-.3-.3-1.6 0-2 0-1.5 1.4-3.4 2.4-4.4v-.1c-1 0-1.8 0-2.7.2a15.3 15.3 0 0 0-5.5 3.4h-.1l.2-1c-.2.2-.2.5-.5.6a3.2 3.2 0 0 1 1.5-2.4 18.6 18.6 0 0 0-7 2.6h-.1a5.3 5.3 0 0 1 .8-.7 28.2 28.2 0 0 1 6.7-2.3l.3-.1h-.7a20.5 20.5 0 0 0-7.2 1.8H32a15 15 0 0 1 7-2.2h2.1a10.2 10.2 0 0 1 3.8-.8c.7.4 1.2.1 2 0a6 6 0 0 1 1.8-2.6c1-.4 1.4-.7 1.6-1.8.5-.8.6-1.3 1.6-1.4l-1.5-3a6.6 6.6 0 0 0-2.2 0 13.7 13.7 0 0 0-2.8 0 3.3 3.3 0 0 0-1.3 1l-.6 1c-.1-.9.6-1.3 1.2-1.8V33c-.5 0-1.1.5-1.6.5.4-.6 1.8-.8 2.5-1a6.5 6.5 0 0 1 3.1-1 1 1 0 0 0 .5 0c-.1-.3-1-.4-1.2-.5a1.1 1.1 0 0 1 0-.1v-.1h.1v-.4a5.2 5.2 0 0 1 1.6-.5l-.1.2v.1l.4-.1V30c0-.3 1-.1 1.3-.1-.3.2-1.4.5-1.5.8l.4.7c.2 0 .7-.6 1-.8a14.4 14.4 0 0 1 1.7-.6c-.2-.2-1-.1-1.2-.1a.5.5 0 0 1 0-.1 21.7 21.7 0 0 1 2.8-.1l-.4.2.1.2c.5 0 1-.3 1.6-.3h.5a.9.9 0 0 0 0 .2c-1.1 0-2.2 1.4-2.9 2l-2.1 1.4a9.4 9.4 0 0 0 1.2 2.6 3 3 0 0 1 2.7 1.7l.7.1h.2l.5-1c.4-.5.5-.4.2-1-.3 0-.4.2-.6.3a1 1 0 0 1 0-.5l1.4.1.4.3c1-1.3 1.8-2.6 3.6-2.5A6 6 0 0 1 64 33a1.2 1.2 0 0 0 .6-.6 4.6 4.6 0 0 1 1.3-.2v.1c-.1.2-.5.1-.7.3h.1c.2 0 .6 0 .8-.2 0-.2.4-.3.5-.3a9.6 9.6 0 0 0 .7-1c.2-.2.5-.4.6-.7h-.4l.4-.4a1.9 1.9 0 0 0-.7-.1c.1-.3 1-.2 1.2-.2a.5.5 0 0 0 .1-.3c-.2 0-.5 0-.6-.2a14.9 14.9 0 0 0-4-.8l-1 .6c-.4-.8 1.3-1.3 1.8-1.4a6 6 0 0 0 1 0c0-.2-.8-.5-1-.5l-.7.3c.2-.2.3-.3.3-.5a10.6 10.6 0 0 0-5.3.3v-.2h-.1a3.9 3.9 0 0 1 2.6-1.2v-.1c-1.1-.4-1.8.3-2.8.9l-1.2.9v-.1a9.9 9.9 0 0 1 2.7-2.1 1 1 0 0 1 0-.1l-1.6-.4-1.5.5a7.7 7.7 0 0 1-2 .8l.6-.5 1-.5a9 9 0 0 0-1.6.5 3.3 3.3 0 0 1 1.6-1.2v-.1a25.3 25.3 0 0 0-2.8-.4c.9-.7 3 .5 4 0a4 4 0 0 1 1 0c-1.4-.8-1.4-.8-2.3-1.1a19.6 19.6 0 0 0-5.2-.1l-1.3.4c1.3-1 2.6-1 4.2-1.1v-.1c-.2-.1-.7-.2-.8-.4a11.5 11.5 0 0 1 1.5.4 17 17 0 0 1 2.8.5l1.8 1a4.3 4.3 0 0 0-1.8-.4l1.6.9h1.4l-.5-.2v-.1l1 .2c-.1-.3-3.7-2.2-3.8-2.2a3.8 3.8 0 0 0-.8-.3h-.9V21a1.6 1.6 0 0 1 .7 0 8.5 8.5 0 0 1 3.9 1.2c1 .2 2 .8 3.1 1a2.2 2.2 0 0 0 .8-.1c1.5-.2 2.8-.8 4.4-.8l.7-.5c-.4 0-2.3-.2-2.5 0a25.2 25.2 0 0 0-3.4 1.3c0-.5 1.9-1.2 2.3-1.4l.3-.1c.4-.8 3-.7 3.7-.7l1.3.3c.5-.1 3.2-.8 3.6-.4a23.8 23.8 0 0 1 2.6.5v-.6a3.1 3.1 0 0 0-.4-2.7V18l-.1.7h-.1a11.3 11.3 0 0 1-1.3-3.1 6.2 6.2 0 0 0-1.3-.1h-.7c-.8 1-.6 2.2-.6 3.4-.3 0-.7-1-.7-1.3-.8.4-1 2.3-1.7 2.6 0-.5 0-1.6.3-1.9a7.2 7.2 0 0 1 .9-2.2v-.3h-.2l.4-.4v-.6h-1.6a3.8 3.8 0 0 0-.5 1.3v-1.2a11.5 11.5 0 0 0-1.7.2c-.2-.2.3-.2.4-.3h-.8c-.4.4-.3 3-.5 3.1a1 1 0 0 1-.3-.5 11 11 0 0 1-.6-2.4 7.3 7.3 0 0 0-1 .1c.3-.4.7-.3 1-.5V14a1.4 1.4 0 0 0 0-.7 1.1 1.1 0 0 0-.4.7 1.4 1.4 0 0 0-.4.5v-.4H65v-.2h.5c.2-.5 1-1.7 1-2l-.5.5c0-.4.5-.8.6-1a6.9 6.9 0 0 0-1.8.6l-1.4 1.8.6.1v.1h-.7a13.4 13.4 0 0 0-1.7 3.3h-.1a4.4 4.4 0 0 1 .1-2.6l.2-.6c-.3 0-.3.3-.6.3.3-.6 1-1 1.3-1.6a16 16 0 0 0-3.5 1.9l-1 1.7.4-1.3a36.2 36.2 0 0 0-3.6 3c-.3.2-.6.6-.8.6a18.2 18.2 0 0 1 5.4-4.9 13.4 13.4 0 0 1 3.2-2.6A18.9 18.9 0 0 1 65 10a8.1 8.1 0 0 1 4.7-1.7 6.1 6.1 0 0 0 1.1 0l.2-1.7a24.1 24.1 0 0 0 .6-3.2.5.5 0 0 0 0-.4 2.3 2.3 0 0 1 .8-.4 1.3 1.3 0 0 0 0-.3l.8-.2H75a5 5 0 0 0-2.3-.4v.1l.3.1V2l-1.5-.2v.1l.7.2v.2L70 2a13.5 13.5 0 0 0-4.3 2.7A9.4 9.4 0 0 1 68 2.2c-.7 0-1.4 0-2.1.2a8.2 8.2 0 0 1-1.7.4c1-1.6 4-1.5 5.7-1.5a1 1 0 0 1 .1-.1 8.5 8.5 0 0 0-2.5-.5h-.4c-1.5-.4-3.5 0-5 .1.2-.6 2.9-.7 3.4-.8h4.2a11.2 11.2 0 0 1 7 2.7c.4 0 .7.5 1.2.6a1.3 1.3 0 0 1 0-.7h.5a5 5 0 0 1 .1 1c.4.3.9-.1 1.1.1.6 0 1.1.8 1.4 1.2a6.2 6.2 0 0 1 1.3.4c0 .2-.3 0-.5 0l.2.3h.3a5.1 5.1 0 0 1 2.3.7 7.8 7.8 0 0 0-2.4-.1 2.2 2.2 0 0 1-.2.8l1.5.1 1.7.4a4.4 4.4 0 0 0 1 .4c0-1.8 0-4 1-5.5 1 0 1.3 3.5 1.3 4.2-.2.2.1 1.2-.2 1.5 0 .5-.6.9-.7 1.3 1 .2 2.4-1.4 3.1-2 .1-1-1-1.7-1-2.6V2.4c0-.5 0-1.7.3-2.1a3.4 3.4 0 0 1 1.9 3A3.1 3.1 0 0 1 92 5c0 .8-.8 1.3-.8 2.1a3.5 3.5 0 0 0 1-.6v-.2a2.9 2.9 0 0 0 1.3-1c1.5-1.5 4-1.3 6-1.2a12.3 12.3 0 0 1 2.3 1h-.6a15 15 0 0 0-5 .8c-1.4.3-2.8 0-4.1.8l-1.9 1.5a16.3 16.3 0 0 0 2.8-.6c.7 0 3 0 3.4.5a12.5 12.5 0 0 1 5.5 2.5l-1-.3a54.9 54.9 0 0 0-8.2-1.1 5.9 5.9 0 0 0-3-.6l-.6.5a1 1 0 0 0 0 .1 5.8 5.8 0 0 1 2.4.1v.1c-.4 0-3-.3-3.1.4a36.6 36.6 0 0 0 3.8-.1h2c.3 0 2 .2 2.3.6a4.9 4.9 0 0 0-2-.3 7.5 7.5 0 0 0-2 0c.7.2 2.3 0 2.7.3a19.8 19.8 0 0 1 7.3 3.2c1.1 1 .4.5 1.6.5.4.6.8 0 1 .8l1.4-.4c.5-1 .4-1 1.2-.4h1.7v.1a3.5 3.5 0 0 0-.7 0 2 2 0 0 1-.3 1.4l-.3.2c.2.3 3 0 3.4 0 2.3.5 5.4 2 6.4 4a8.7 8.7 0 0 0-6-3l-1-.2a12.5 12.5 0 0 1-2-.2v-.1h-.4.3v.1l-2 .5h-.4v.2a7.3 7.3 0 0 0-2.8.7h2.1a13.9 13.9 0 0 1 7.9 4l-1.4-.9-2.9-1a10.7 10.7 0 0 1-1.8-.6 16.4 16.4 0 0 1-2.8-.5 2 2 0 0 0-1.6.1v.1c.3.4 2.7 1.8 3.1 1.6v-.2c-.1-.2 0-.3.1-.6a2 2 0 0 1 1.7 1 4 4 0 0 1 .7.3v.2a12.1 12.1 0 0 1 4.1 2.2 5.4 5.4 0 0 1 1.2.2c0 .3-.5.1-.7.2a4.2 4.2 0 0 1 .7.9c-.4-.4-1.4-1-2-.6.1.2.8.5 1 .6l.7.7a4 4 0 0 1-1.2-.5l-1.2-.4 1.5 2a19.7 19.7 0 0 1 2.8 1.4v.1l-2.1-.5c0 .4.6 1 .5 1.5-.8-.8-.4-1.9-2-1.9l-1.4-.3a1.3 1.3 0 0 1 0 .8c-.1.1 0 .7 0 .8a6.4 6.4 0 0 1-.4-1.7l-3.5-.6h-.2a4.5 4.5 0 0 0 0 .5h-.1c-.8-1.1-.7-.9-1.8 0l2.5 1.2a14 14 0 0 1 2.5 2.2.8.8 0 0 0-.1.2.5.5 0 0 1 0 .3c-.3-.5-1.1-1.1-1.8-1-.5 1-.8 1-.3 1.8-.2 0-.3-.3-.5-.3l-2.4 4.1c.4.7 1.4.3 2 0 .5-1.2 2.6-1.7 3.7-1.9h1.4c.2 0 1 .2 1 .4s-.7-.1-.9.2a10.8 10.8 0 0 1 5.2.6c-.9 0-1.7-.2-2.6-.3h-1.2c-.6 0-2 0-2.4.4h.7l5.4 1.4 1.2.7a13.2 13.2 0 0 0-1.8-.4.8.8 0 0 0 0 .1 5.6 5.6 0 0 1 1.2 1.3 9.6 9.6 0 0 0-2.7-1.4l-5.4.3h-1.1c0 .4.7.6 1 .6a14 14 0 0 1 4.5 2.7c1 1 2.5 2.1 3.2 3.5a.6.6 0 0 0-.1 0c-2.3-2.2-5-3.6-7.7-5.4l.2 1c-.5 0-1-1-1.7-1l1.9 2c.7 1.5 2 3.5 1.8 5.2a23.6 23.6 0 0 0-6-7.2 2.7 2.7 0 0 0-1-1 6.5 6.5 0 0 0-.8.3v.1c.7.5 1.7 1.3 1.7 2.3l-.8-.4a39 39 0 0 1 1.7 2.2c0 .5.7.6 1.1.8v.1a5.6 5.6 0 0 0-.8-.2 7.9 7.9 0 0 1 .9 2.2l-2.4-2.6-2-.2c.2.8 1.4 1.2 2.1 1.6l.5.5v.1a12.8 12.8 0 0 0-1.7-.6v.1l-.7-.4a9.8 9.8 0 0 0-2.4-.5 2.6 2.6 0 0 0-.4 2 3.7 3.7 0 0 0 .5 1.7 2.5 2.5 0 0 0 1.4-.4c2.4-.4 4.8 1.6 6.4 3.1a.6.6 0 0 0 0 .1l-1.3-.5a19.7 19.7 0 0 0-5.6.9v.4a12 12 0 0 1 4.9 3c-.3 0-.6-.3-.8-.4l-3.7-1.3h-.4v1.8c.3.4.8 1.2 1.3 1.3a3.6 3.6 0 0 1 3.6-1.1 19.2 19.2 0 0 0-1.7 1.1v.1h-.3a.2.2 0 0 0 0 .3h-.3a5 5 0 0 0-1 .4v.2c-.2-.1-.2 0-.4.1h3a1.9 1.9 0 0 0 .5-1.2c.6-.5 3-1.5 3.6-.5-1 .7-2.6.9-3.7 1.5a.8.8 0 0 0 0 .1l2.4.1v.2h.2a9 9 0 0 1 5 3.7 2.8 2.8 0 0 1 .5 1l-.9-1a17.2 17.2 0 0 0-4.8-3c-1-.9-1.6-.8-2.8-.8a21.1 21.1 0 0 0 2.7 1.4c.7.5 2.2 1.5 2.3 2.4a20 20 0 0 0-6.2-3.2 4.8 4.8 0 0 0-1-.5 25.1 25.1 0 0 0-3.9.6v.1a10.6 10.6 0 0 1 2.4.5c.7.3 2.4.9 2.8 1.6a12.5 12.5 0 0 0-4.7-1.5v.1c.3.2.9.4 1 .8l-.5-.2c0 .5 1.6 1.2 2 1.5v.1c-.5-.2-1.7-1-2.2-.8a.8.8 0 0 1 0-.1c-.2 0-.5-.2-.7-.1.1 0 .3 0 .3.2a1 1 0 0 0-.6.1 6.5 6.5 0 0 0-1.6 0v.2a12.3 12.3 0 0 0 2.1.5c1.3-.8 4.2 1.2 5 2v.1l-.4-.2c-.4-.7-3.3-1.9-4-1.6.3.2.7.2 1 .5-.5 0-4.2-1.7-4.7-1.2l.1 1.6c-.3-.2-.7-1-1-1.3-.7 0-1.6.6-2.4.7v.6c-.2 0-.4-.4-.6-.4a4.8 4.8 0 0 0-1.5 2.7h.1c.2-.1.8-.6 1-.5-.3.5-1.5 1-1.5 1.7a3.7 3.7 0 0 0-.4 1.2 1.2 1.2 0 0 0 .5-.9 5.1 5.1 0 0 1 4.3-2.4 7.2 7.2 0 0 1 3.8-.4h-.7a14.8 14.8 0 0 0-2.8.7l-.7.4-.4.2c-.2 0-.5.1-.5.4l-.4.3c.1.2 1.4 0 1.8.3l1.1-.6a10.4 10.4 0 0 1 4.8-.6l2.8.6 1.1.6a20.8 20.8 0 0 0-9 .3 9 9 0 0 0 1 .8l1.5-.7a14.9 14.9 0 0 1 2.8-.3c2.2.2 4.5.5 6.2 2a29 29 0 0 0-5-.7h-2c-.2 0-1 0-1.2.2.2.3 1 0 1 .5a3 3 0 0 0-2.7 0l.1.3 1-.2a9.1 9.1 0 0 1 1.8.1l1.5.6a4.6 4.6 0 0 1 1.4 1.2 1.1 1.1 0 0 0-.2 0 7.3 7.3 0 0 0-5.5-1.5 1 1 0 0 0 0 .1c.3.3 1.2.2 1.5.2 3.3-.2 6.3 3.6 7.7 6.1a43.2 43.2 0 0 0-7-4.4v.2a5.3 5.3 0 0 0-2.7-1.2 2.4 2.4 0 0 1-.2.9 3.6 3.6 0 0 0 .6.8c-.3 0-.4-.3-.7-.3l-.2 1.4a22.3 22.3 0 0 0-.8 3.1l3.1.1c1.3.1 2.6.5 3.8.5a11.1 11.1 0 0 1 1.5-.7 6.8 6.8 0 0 1 2.8.2 14.3 14.3 0 0 1 2.3 1.5 8.2 8.2 0 0 1 2 .7c.7.6 2.2 1.7 2 2.7a5.2 5.2 0 0 0-1.3-1.6 17 17 0 0 0-4.3-1c.1.4 2.8 1.2 3.4 1.5a7.6 7.6 0 0 1 1 .8 10.5 10.5 0 0 1 3.1 7c-.2-.2 0-.8-.3-1a10.8 10.8 0 0 0-1.7-3.6c-1.4-1.7-3-3.5-5.2-4.3v.1l.4.4a8.4 8.4 0 0 1 2 4.6V82a5 5 0 0 1 1 2.8l-.3-.8a13.6 13.6 0 0 0-4.1-3.8.7.7 0 0 0-.1 0v.2h-.2a2.7 2.7 0 0 0-2.2-1.8 6.7 6.7 0 0 1 1.7 4.3 8 8 0 0 1 0 2.5 3.2 3.2 0 0 1-.4 1c-.3-.2 0-2.3-.5-2.8a8.5 8.5 0 0 0-.9-2.6l-1-2.2c0-.4.1-.8-.2-1a10.4 10.4 0 0 0-2.1-1.2l.5.5a9.2 9.2 0 0 1 1 2.1c.4.4.5 2.7.5 3.1a3.3 3.3 0 0 1-.3 1.2 3.6 3.6 0 0 1-.2-1.2 11.5 11.5 0 0 1-1.4-3c-.5-.8-1.7-2.2-1.7-3.2a10.7 10.7 0 0 0-2.6 0h-.2l-1-.1a.3.3 0 0 0-.1 0v.1h-2c1 .4.7.8.6 1.9-.2.2-.1 1.4-.5 1.7l-.1.5a1.2 1.2 0 0 0-.1 0 9.1 9.1 0 0 1-.9-3c-.4-.4.7-.8.7-1.2a12.6 12.6 0 0 0-1.8.2v1.4a14.5 14.5 0 0 1-.5 1.8.3.3 0 0 0-.1 0 3.7 3.7 0 0 1-1-2.6c-.2-.3-.2-.3-.5-.1v-.1l.2-.2c0-.3-.4-1-.8-1 0 .4-.2 1 0 1.3v.2a6.6 6.6 0 0 0 .7 1.7 12.6 12.6 0 0 1 .1 1.9L89 78.6a21 21 0 0 0-.3 2.2c1 0 1.3.2 1.7 1.1 0 .3-1.4-.2-1.6-.3a.4.4 0 0 0 0 .1 9.4 9.4 0 0 0 1.8 1.5c1.4 0 2 1.3 2.6 2.3a5 5 0 0 0 1-.2 7 7 0 0 1 5 1c.4.3.8.5 1 .8l2-.2v.2a4.7 4.7 0 0 0-1.4.4v.2l1.5.6a9 9 0 0 1 4.7 1 .6.6 0 0 0 0 .1 8.3 8.3 0 0 1-2-.4h-1.6c1 .7 2.4 1.7 2.6 2.9a.5.5 0 0 0-.1 0c-.9-.9-2.5-2.8-3.8-2.8a.4.4 0 0 0-.1 0c1.4 1.5 2.7 2 3.4 4a16.5 16.5 0 0 0-4.5-4l-.8.3a4.4 4.4 0 0 1 .3 1.1c.6.4 1.6.7 2 1.4a14 14 0 0 1-1.8-.5c0 .3 0 .9-.2 1l-.1-1.1h-.2c0 1.1-.2 2.2-.4 3.3l-.1.3c-.3-.2 0-1.2-.2-1.4A17.4 17.4 0 0 0 99 91a23.6 23.6 0 0 0-2.6 0s-.3.3-.3.5a7.9 7.9 0 0 1 2.7 1.2 19.7 19.7 0 0 0-3.2-.3l-.6.9v-1h-2.4c-1-.5-2 .4-3 1a3.8 3.8 0 0 0-1.3.6c0 .4.4.6.4 1-.7-.7-.6-.8-1.3-.4a1 1 0 0 1 .3-.3c0-.5-.7-.8-1-.9 0 .2 0 .4-.2.6l.2.2c-.4 0-.3.6-.4 1h.1a3.6 3.6 0 0 0-.5 2c-.4.5-.1 2-.5 2.4 0 .5 0 .6-.2 1v.2a.7.7 0 0 0-.2.7 6.5 6.5 0 0 1 2 1.3c.7 0 1.3 0 1.3-.6a9.6 9.6 0 0 0-2.2-.4l-.3-.1c0-.3 2 0 2.2 0h.6c.3-.4 1-1.5 1.5-1.5a1.5 1.5 0 0 1 0 1.5l-.2.5a2.3 2.3 0 0 0 .9.2c.1-.2.6-1 1-1a1.2 1.2 0 0 0 .2.5v.8a36.6 36.6 0 0 1 3.7.8c.7.4 3 1.4 3.3 2.3A12.6 12.6 0 0 0 92 103v.1a12.2 12.2 0 0 0 2.3.7h.1a6 6 0 0 1 4.1 2.1l.2.1a12.6 12.6 0 0 1 7.6 3.5v.1l-.3-.2v-.1a24.7 24.7 0 0 0-6.7-3h-.1v.2l.7 1.2a6.8 6.8 0 0 1 .2 2.6l-.5.8a7.1 7.1 0 0 0-.7-2.5c0-1.2-1.4-2.2-1.7-3.2a7.7 7.7 0 0 0-3-1.3 3.2 3.2 0 0 1 1.8 2.5c.4.4 0 1.2 0 1.7a2.5 2.5 0 0 1-.5-.9l-1.1-2c-.5-.3-1.6-1.5-2-1.4 0 .2 0 .2.4.6.4 1 2.6 2.7 2.5 3.8l-1.4-1.5h-.1l-.1.2-.6-.4c-.7-.4-1.3-1-2.1-1.1.5.6 1.5 1.6 1.5 2.4a2.8 2.8 0 0 1 .2.7c.5 1 1.5 2.5 1.4 3.7-.2-.1-.8-1.3-1-1.5v1.7a1 1 0 0 0 0 .1c-.4-.3-.1-1.7-.5-2.1A4.2 4.2 0 0 0 91 108a.8.8 0 0 0 .1.4 13 13 0 0 1 .4 3c-.3-.1-.2-1-.4-1.3 0-.4-1.7-4.2-2.3-4.2-.1.4-.1 1.6-.4 1.8a16.3 16.3 0 0 1-1.3 3.6H87v-1.6l-.1-1.5a43 43 0 0 0-2.6-1.6c-.2 0-.5.5-.6.7v-1c-.2 0-.5 1.6-.3 1.8 0 .5-.5 1-.5 1.5-.4.4-.2 1.8-.6 2.2 0 1.2-.7 2.5-.7 3.7-.2.3 0 1 0 1.2-.3.4-.1 1.1-.4 1.3a19.9 19.9 0 0 0 0 5.1 5.8 5.8 0 0 0-.4 2.7 7.4 7.4 0 0 0 0 3.1v.2a5 5 0 0 0-.3 2.3 8.1 8.1 0 0 0 0 3.2 14.6 14.6 0 0 0-.3 2.8 10.9 10.9 0 0 0 0 3l-.1 1.5-.3 5.8c0 .3-.1.6-.5.3v-4a15 15 0 0 0 .1-2.9c-.3-.3.1-1.3.1-1.7v-.7c.2-.1.1-.8.1-1a10.3 10.3 0 0 0 0-3l.2-1.5a20.9 20.9 0 0 0 .2-3.7 2.6 2.6 0 0 1 .1-1.6l.1-1.8v-.7a4.6 4.6 0 0 0 .1-1.4 11 11 0 0 0-.8 4.5c.2.3 0 .4-.2.8a25 25 0 0 1-.5 3 23.4 23.4 0 0 0-.1 3.9l-.4 1.2c-.2 1.8-.6 3.6-.7 5.4l-.1.9c0 1.5-.5 3-.5 4.5-.3.3.1 1.9-.7 1.7a1.4 1.4 0 0 1-.2-.7c.2-.2 0-1.1.2-1.3a3.4 3.4 0 0 1 .1-1.2c.1-1.2.4-2.5.4-3.7v-6.2a4.3 4.3 0 0 1-.2-1.9c0-2.3.5-4.7.2-7a5.5 5.5 0 0 1 .2-2v-1.1c.3-.2.3-4 .3-4.8-.2-.3.4-2.2.4-2.7.2-.3.4-4.1.4-4.7v-1c.4-.6.9-3 .5-3.6h-.1l-.9 1.2c0 .5.4 2.5-.1 3l-.3 3v1.2c-.2.1-.1.5-.1.7a6.7 6.7 0 0 0-.1 1.7c-.3.3 0 1.6 0 2a7 7 0 0 0-.4 3v.5a13.4 13.4 0 0 0-.3 2.3v.7c-.1.1 0 .6 0 .8-.3.2 0 1.6 0 2a9.6 9.6 0 0 0-.6 4 12.9 12.9 0 0 0-.2 3c-.4.3.1 1.8 0 2.3a5.1 5.1 0 0 0-.5 2.5v.5c0 1-.3 2-.3 3.1-.2.2 0 1.3-.2 1.5 0 .2-.1 2.3-.8 1.3v-1.5c.3-.3 0-2.1.3-2.5v-3a4.2 4.2 0 0 0-.1-.5Zm-1-5.7v-1.6c0-.6.3-1.3 0-1.8a23.4 23.4 0 0 1-.2-3.3v-1.9l.3-2.3a16.7 16.7 0 0 1-.4-3.4v-2a15.5 15.5 0 0 1 .2-2c.2-.4.2-.5 0-.8a17.3 17.3 0 0 1-.2-2v-2.6a12.8 12.8 0 0 1 .2-2.3 27.8 27.8 0 0 1 .7 8 8.3 8.3 0 0 1 .4 3.4l-.2 3.5c-.5.5-.1 1.8 0 2.3-.2 2.4-.2 4.8-.5 7.3a.7.7 0 0 0 0 .8v4.5l-.2-.1-.1-3.7Zm4.5 2.8v-.6.6Zm0-.8v-.6h.1v.6Zm-3.2-2v-.3c.2 0 0 .7 0 .9v3.2c-.3.3 0 1.4-.3 1.8v-.5a41.8 41.8 0 0 0 .3-5Zm3.2-1.2v-1.7c.1-1.3-.2-3.5.5-4.6l-.2-.8a36 36 0 0 1 .5-6.5c0-.4.3-.7 0-1a30.6 30.6 0 0 1 .9-7.1l.1-.2a23.6 23.6 0 0 1 .4-5l1 1.8h.1l.5 1c0 .3-.2.6 0 .9a30.5 30.5 0 0 1-.4 4.7 8 8 0 0 0-.5 1.5c0 1.4-.2 2.7-.4 4-.4.3-.1 1.6-.5 2a1.3 1.3 0 0 1-.3.8c.5 1.3-.5 3.2-.5 4.6-.2.3-.4.3-.2.7a28.6 28.6 0 0 1-.7 6.1h-.1a8.4 8.4 0 0 1-.2-1.2Zm-2.5-3.8c.3.4.1 1.3.1 1.7-.2-.1-.1-.7-.1-1v-.7Zm0-.4a11.7 11.7 0 0 1 0-2.5V126c0-.4.2-1.2-.1-1.5-.3-2.3 0-4.6 0-6.8l.1-.5c0-.5.5-1.6.2-2v-2.5a11.4 11.4 0 0 0 0-2.4v-1c.2-.1.1-1.2.2-1.5l1.7-1.4a1.7 1.7 0 0 1 0 .7 8.4 8.4 0 0 0-.1 1.3 8.4 8.4 0 0 0-1 3h.1l.5-.6c.1.5-.3.7 0 1.2l-.2 5.4-.4 3a.7.7 0 0 0-.1.9v3.2c-.2.1-.2 1-.2 1.2v.5c-.3.2 0 1.2-.2 1.5 0 .3 0 2-.5 2.2Zm-.8-15.8a11 11 0 0 1-.3-3c-.4-.4.1-2-.3-2.6 0-.7-.4-1.6-.3-2.3l1 .2a1 1 0 0 0 .2.5c0 2.4 0 4.7-.2 7.1a.3.3 0 0 0-.1 0Zm8-5.6c-.4-.6 0-2 .2-2.9.2 0 .5.3.6.4a5.5 5.5 0 0 1-.8 2.4v.1Zm-.6-1.5-.2-.4a3.8 3.8 0 0 0-.6-.5l-.1-1.6c.4 0 1 .7 1.1 1l-.2 1.5Zm-5.9-.7c0-.3-.4-1.1.2-1 .2.3.5.9-.2 1Zm15.2-.1a5.8 5.8 0 0 0-1.9-1.4 11.3 11.3 0 0 1 1.7.6 2.9 2.9 0 0 1 .3.8Zm-33.5-.2v-.1a.7.7 0 0 1 .5-.2c0 .2-.4.2-.5.3Zm8.3-.1a2.7 2.7 0 0 1 .4-.7h.3a1.4 1.4 0 0 1-.7.7Zm21.3-.1-.6-.8a.6.6 0 0 1 0-.1 4.2 4.2 0 0 1 .7.3v1.2m0 .6v.2l-.1 1h-.1a11.2 11.2 0 0 0-2-2.3c0-.2.4-.6.5-.8.5 0 1 .6 1.6.7m-8 0c-.3-.4-.4-1 .1-1 .2.4.3.8-.1 1Zm-4.8-.6a1.4 1.4 0 0 1 .2 0l.2.4h-.2a.6.6 0 0 1-.1.6 4.6 4.6 0 0 1-1-.2L73 104a3 3 0 0 1 1.2 1Zm2.2.4a3.7 3.7 0 0 1 0-.8 2 2 0 0 1 .8-.5v.6a4.3 4.3 0 0 1-.8.7Zm14.9 0c-.3-.2-1.2-.6-1.3-.8l.4-.3a3 3 0 0 1 1.5 1 1.6 1.6 0 0 1-.6 0Zm6.4 0-1.6-1a7.2 7.2 0 0 1 1.7.9Zm-39.6-.1v-.1c.2-.2.7-.6 1-.6a1.2 1.2 0 0 1-1 .7Zm16.4-.4a10.6 10.6 0 0 1-1.2-1.4c0-.5-.4-1.7-.4-1.8a5.8 5.8 0 0 1 1.9.2l-.2 3a.6.6 0 0 0-.1 0Zm-14.6-.1c.3-1 1.5-1.4 2.5-1.8.2-.2.8-.6 1-.6.3.8.9 1.7.3 2.4h-1.5l-.1-.2a4.1 4.1 0 0 0-2.1.1v.1H61.1c-.2.3-1.2.3-1.5.3a.5.5 0 0 1 .2-.3Zm6.5 0 1-1v.1c-.2.5-.5.9-1 1Zm9.1 0v-.6c.2.3.3.4.1.6Zm14.2-.2c-.4-.4-1.5-.2-1.5-1 .8-.5 1 0 1.9.4a1 1 0 0 1-.2.6h-.2Zm-2.6-.2-1-.5c.4-.1.8.1 1.3.1a.7.7 0 0 1-.3.4Zm-5.8-.1-.6-.2v-.1a1.2 1.2 0 0 1 1 0v.2h-.4Zm-7.8-.2c-.3-.3-.5-.3-.6-.7a.6.6 0 0 1 .1 0 3.1 3.1 0 0 1 .6.7h-.1Zm5-.2a1.4 1.4 0 0 1 0-.5l.5-.2v.5a1.4 1.4 0 0 1-.4.2Zm8.9-.1c-.1-.4-.6-.6-.7-1h.3c.3.2.8.7.8 1a.5.5 0 0 1-.4 0Zm-11 0a13.3 13.3 0 0 1-.1-1.6.8.8 0 0 1 .4 0l.3 1.3-.6.4Zm10.8 0c-.3 0-.9 0-1.1-.2a1.4 1.4 0 0 1 .2-.5.8.8 0 0 1 .1 0 3.6 3.6 0 0 1 .8.7Zm-16 0a1 1 0 0 1-.4-.5.5.5 0 0 1 .1 0 1.2 1.2 0 0 1 .3.4Zm21.9 0-.3-.3h.3v.2Zm-24.8 0a.5.5 0 0 1 0-.4h.3c0 .2-.1.2-.3.3Zm12.9-.3-.3-.1a.4.4 0 0 1 0-.3h.1a.5.5 0 0 1 .2.4Zm6.7-.1-.6-.6a1.6 1.6 0 0 1 .7.2 3.4 3.4 0 0 1 0 .4Zm-7.3-.2a.7.7 0 0 0 0-.3h.3a.6.6 0 0 1-.2.3Zm-15.8-.2a6.3 6.3 0 0 1 0-1l2.2-.3v.1a4.4 4.4 0 0 0-2 1.1h-.2Zm19.7 0 .1-.6h.1c0 .2 0 .5-.2.6Zm-6.2-.1v-.2h.4v.1a.8.8 0 0 1-.4.1Zm-11 0c.2-.3.5-.6.2-1 .4-.6 1.2 0 1.7.2l-1.8.8Zm15.7 0a.7.7 0 0 1-.3-.2v-.8a1 1 0 0 1 .5 0 1.5 1.5 0 0 1 .1 1H83Zm-1.5-.1a1.5 1.5 0 0 0-.6-.2 1.7 1.7 0 0 1 1.3-.8v.8a2 2 0 0 1-.7.2Zm-2.4 0-.7-.4c0-.3.2-.3 0-.7v-.2c.8.4.8.3.8 1.2a.6.6 0 0 0-.1 0Zm7.4-.2v-.2c.2 0 .2 0 .3.2Zm-7 0v-.5h.1c0 .3 0 .4-.2.4Zm1-.1a2.4 2.4 0 0 1 .1-.8 2 2 0 0 1 .8 0c0 .3-.6.7-.9.8Zm-18.7-.3a3.3 3.3 0 0 1 .4-.7h1a.7.7 0 0 1 .1.5 9.1 9.1 0 0 1-1.5.2Zm14.7-.2c-.4-.1-.3-.4-.2-.7a2.4 2.4 0 0 1 1-.2l-.6.9h-.2Zm3.2 0-.3-.2v-.2a1 1 0 0 1 .5 0c0 .1 0 .4-.2.4Zm5.6 0c-.1-.2-.3-.3-.4-.3a.8.8 0 0 1 0-.1 2.2 2.2 0 0 1 .7.2v.1Zm-20.6-.1v-.3h.7c.1.2-.7.3-.7.3Zm5-.2h-.4c.1-.2.4-.2.4 0h.4a.7.7 0 0 1-.5.4v-.4Zm3.3-3.4a4.1 4.1 0 0 0 .6-1.5l.7-1.2c0 .5.5.7.4 1.3.4.7.2 3.2.2 3.6-.2.1 0 1 0 1.1a6.8 6.8 0 0 1-2-.2c0-.4.3-.7.3-1.1a3.8 3.8 0 0 1-.2-2Zm-7 3.3c-.6-.2-1.7-.6-1.7-1.2 1 0 1.8.2 2.8.3l1 .7-2.1.2Zm13 0-.7-.4v-.7a5 5 0 0 1 .7 0 3 3 0 0 1 0 1Zm-9.8-.2-.1-.4.9.2v.2h-.8Zm10.2 0c-.3-1.1-.2-1 .7-1.2a2.6 2.6 0 0 1 0 .8 2.8 2.8 0 0 1-.7.4Zm4.3-.3c-.2-.2-.6-.2-.8-.2a1.5 1.5 0 0 1 0-.6l1.3.1a1.4 1.4 0 0 1 0 .6 1 1 0 0 1-.5 0Zm-12-.8-.4-.2c-.3.4-.8.4-1 .9-.3 0-1-.6-1.3-.7-1.3-.5-1.5-2.7-3-3v-.2l1-1.5c.6.1 1.3 1.9 1.3 2.5.1.2 0 .7.3 1 .2-.3.1-1.7.2-2 1.1.3.4 1.3 1 2 .2-.4 0-1 .3-1.3.3 0 1.2.5 1.5.7a6.2 6.2 0 0 1 .2 1.8 2.2 2.2 0 0 0 .2 1c-.2.2-.6-.2-.7-.2a2.7 2.7 0 0 1 0-.7h.4Zm4.7.6c.1-.3.7-1.1 1-1.2a4 4 0 0 1 0 1.1l-1 .1Zm5.8-.2h-1.4a1 1 0 0 1 0-.5 4.4 4.4 0 0 1 1.6 0c0 .3.1.5-.2.5Zm-3.9-.7a3 3 0 0 1 0-.7l.6-.2a2.2 2.2 0 0 1 0 .6l-.6.3Zm5.8 0a5.4 5.4 0 0 0-1-.3c0-.8.3-1.5.3-2.3a8.1 8.1 0 0 1 2-1.5c0 .6-.8 3.8-1.3 4.1Zm-21.7 0v-.1l.7-.8c0 .6-.1.7-.7.8Zm1.4-.3c-.4-.6 1-2.2 1-2.4.2.2.1.9.1 1.1l.9 1.3h-2Zm15.5 0a1.3 1.3 0 0 1-.1-.7 2.9 2.9 0 0 1 1.2 0 2.1 2.1 0 0 1 0 .5l-1.1.1Zm3-.1c-.2-.2-1-.1-1.3-.1a1.6 1.6 0 0 1 .1-.5 3.4 3.4 0 0 1 1.4.3v.2h-.2Zm.2-.4a9.3 9.3 0 0 0-1.3-.5 4.2 4.2 0 0 1 .6-2.2 3.8 3.8 0 0 1 .2-1.7h.1a6.8 6.8 0 0 0 .4 1.5 5.3 5.3 0 0 0 .4-1.2c.1.7.3 2.3-.3 3 0 .2.1 1-.1 1Zm-4.1-.1v-1.4a9.3 9.3 0 0 0 .1-2 .4.4 0 0 1 .1-.1A12.3 12.3 0 0 1 79 99l-.5.2Zm.8-.3a8 8 0 0 1-.2-2.4 5.5 5.5 0 0 1 2-1.1v.2a11.2 11.2 0 0 0-.5 3 4.1 4.1 0 0 1-1.3.3Zm-16.6 0a2 2 0 0 1 .8-1.1c.1.7-.2.9-.8 1Zm10.4-.6h-.1v-.7a4.7 4.7 0 0 1 0 .7Zm-1.5-.2a16 16 0 0 0-1-1.5c0-.6.3-1.1.3-1.7h.2l.5 3.2Zm.6-.5a10 10 0 0 1-.4-2 1.2 1.2 0 0 1 .5.2v1.8H72Zm-6.7-.3c-.7-.4.3-1.4.7-1.8 0 .3-.4 1.8-.7 1.8Zm18-.1a12 12 0 0 1 .7-3.5l.8-.4a4.5 4.5 0 0 1 .9.4 6.5 6.5 0 0 1-.4 2c-.4.3-1.5 1.4-2 1.5ZM66 95.4a2.4 2.4 0 0 1-.7 1c0-.4.5-.8.7-1Zm9 .8-.4-.8v-.2h.2a1 1 0 0 1 .2 1Zm-1.9 0v-2a2.1 2.1 0 0 1 .7.3 5.5 5.5 0 0 1-.6 1.2v.5Zm6-.1a4.2 4.2 0 0 1 0-1 3.3 3.3 0 0 1 0-1.5 5.7 5.7 0 0 1 2.5-.6v.3a8 8 0 0 0-1.2.8c-.2.4-.8 1.9-1.4 2Zm-2.7-.4H76c-.2-.3-.4-1.1-.2-1.5l.5.2a4.4 4.4 0 0 1 0 .9 4.8 4.8 0 0 1 .2-.8l1.2.2V96l-.3 3.5a4.8 4.8 0 0 0-1.2 1c-.2.3-.3.9-.7.9v-.4c0-.2 0-3.7.5-4.2a2.3 2.3 0 0 1 .1-.4h.2l-.1-.3a4 4 0 0 0 0-.4Zm-6.9-.3a4.3 4.3 0 0 0-.8-.7l-.1-1 .5-.5a8.6 8.6 0 0 1 .5 2.2Zm13.8 0c-.3-.2 0-.8-.2-1 0-.2.2-.3.5-.3a3 3 0 0 1-.3 1.3Zm-17.3 0-.1-.1.1-.8 1.2-.7a1 1 0 0 0 0 .1 5 5 0 0 1-1.2 1.4Zm6.2-.3a2.2 2.2 0 0 1-.1-.7l.2-.1v1-.2Zm-.3-1v-.3l.4-.2v.2l-.4.2Zm16.4-.3-.8-.8a5.9 5.9 0 0 1 1.6.3l-.8.5Zm-21.4-.2a3.2 3.2 0 0 1 .6-.5.5.5 0 0 1-.6.5Zm10.9 0-.8-.4V93h.6a1 1 0 0 1 .1 0 .8.8 0 0 1 .1.6Zm-6.1-.2a.9.9 0 0 1-.2-.6.8.8 0 0 1 .5.4l-.3.2Zm14.2-.1-.2-.2.4-.1v.2h-.2Zm-23-.1V93a15.7 15.7 0 0 1 5.1-1 9.1 9.1 0 0 1-1.5 1c-.2-.2-1.9-.6-2.2-.3a7.8 7.8 0 0 1-1.4.4Zm11.5 0c-.1-.2-.3-.3-.3-.5a3.2 3.2 0 0 1 1.1-.3 2.4 2.4 0 0 1 0 .6 4.3 4.3 0 0 1-.8.2Zm15 0a7.3 7.3 0 0 0-2.3-.8c0-.4.5-.9.2-1.1l.2-1.6a12.3 12.3 0 0 1 3.5-3.1l.2 1.3c.3-.4.8-2 1.2-1.9 0 0 .7 1.2.5 1.4l-.4 2.6h.1l.9-1.2a.3.3 0 0 1 0 .3h.2v-.7c.5-.6 1.4-1.7 1.4-2.5a7.4 7.4 0 0 1 1.8.7v.1c-.7.2-.8.6-.8 1.3l-.2.6a9 9 0 0 0-2.7 1.9c-.7 1.2-.8 1.2-2.2 1.8a7 7 0 0 1-1.6.9Zm-21.5 0a.5.5 0 0 1-.2-.4 6.3 6.3 0 0 1 1.5-.8.4.4 0 0 1 0 .3l-1.3.8ZM76 93a2 2 0 0 1 0-.7l.7.4v.2a2 2 0 0 1-.7.1Zm1.2-.3c-.1-.2-.2-.2-.2-.5l.8.1c-.1.3-.2.3-.6.4Zm-3.5-.3c-.6-.4-.5-.5-.5-1.2a7.1 7.1 0 0 1 2 .7v.2a4.3 4.3 0 0 1-1.5.3Zm12.3-.2c-.4-.3-1-.2-1.5-.5a5 5 0 0 1 .1-1h.1l1.4 1.2v.3H86Zm-6.7 0-.1-.2c0-.3.2-.4.4-.6-.3-.3-.4 0-.7-.1a11.3 11.3 0 0 1 0-2.8h.6a1.3 1.3 0 0 1 .1.4h.2c0 1 1.2 1.9 1.2 2.8a4 4 0 0 0-1.6.5 7.2 7.2 0 0 0 1.8 0v.1a3.2 3.2 0 0 0-1.4.7l-.8.4v-.3c.2-.2-.2-.6.3-.8v-.1Zm3.5 0v-.3a3 3 0 0 1 .8.1.7.7 0 0 0 0 .1h-.8Zm-13.4 0a.3.3 0 0 1-.1-.3c.2 0 1-.4 1-.2s-.7.3-.9.4Zm2-.2v-.4l.6.1c0 .3-.4.2-.6.3Zm5.1-.1-.5-.5a21.4 21.4 0 0 1 .1-2.3c.2-.1.6-.4.8-.3a5.8 5.8 0 0 1 0 3h-.4Zm16 0h-.1a9 9 0 0 1 3-1.2l-.2.7H94a5.2 5.2 0 0 0-1.5.5Zm-15.4 0a1.1 1.1 0 0 0 0-.2 4.4 4.4 0 0 0 0-1.3 7.4 7.4 0 0 0 0-1.8c.5-.2.6-.3 1-.1a25.2 25.2 0 0 1-.2 3 1.9 1.9 0 0 1-.3 0 .4.4 0 0 1 0 .3h-.5Zm6.2-.3h-.6a7.6 7.6 0 0 1 .5-2.2c.3 0 .8.5 1 .7a3.2 3.2 0 0 1-.4 1.5h-.5Zm9.6-.3c0-.2 1.7-1 1.8-1.2l.9-.6a1.1 1.1 0 0 1-.2.8l-2.5 1Zm-22 0V91a1.9 1.9 0 0 0 .1-.7h.7a.5.5 0 0 1 .2.5 1.6 1.6 0 0 1-1 .3Zm15.2-.3v-.5l.3.2-.1.2a.8.8 0 0 0-.2 0Zm-11-.3a3.7 3.7 0 0 0-1.4-.4v-.1a1.6 1.6 0 0 1 1.5-.4v.9Zm10.7 0a3.6 3.6 0 0 1-1-1.4 1.6 1.6 0 0 1 1.1 1.3Zm14.2-.3a3.4 3.4 0 0 1 0-.6l.1.6h-.1Zm-17.8-.1c-.3-.7-.8-1.1-1.2-1.8v-.7a13.1 13.1 0 0 1 1.4 1l-.1 1.5Zm4.2 0a4.2 4.2 0 0 0-.6-.9 14.6 14.6 0 0 1-.5-2.2l1.1 2a8.1 8.1 0 0 0-.6-3.5v-.2a3.3 3.3 0 0 1 1.6-.5v.7a53 53 0 0 0-.9 4.6Zm-14.8 0-.4-.3a3.8 3.8 0 0 1 .2-1l.3 1.2Zm.7-.1c-.5-1-.6-1 0-1.9a1.1 1.1 0 0 1 .1 0v1.8a1 1 0 0 0-.1 0Zm-1.4-.4a3 3 0 0 1-.7-2 1.8 1.8 0 0 1 .7 0 3.4 3.4 0 0 1 .2 2h-.2Zm26.6-.1a1.2 1.2 0 0 1-.4 0c.2-.4 1.3-.8 1.7-1 0 .5-.1.4-.3.7h.2a3 3 0 0 1 .2.7 7 7 0 0 0-2 0V90c.2 0 .5-.1.6-.3Zm-24.4-.2.1-1.8a4.4 4.4 0 0 1 1.9-.8 7 7 0 0 1 0 .9l-1 .8c-.2.2-.6.8-1 .9Zm11.3-.4-.9-.7v-.2c.4 0 .7.5 1 .8l-.1.1Zm-20.9 0c0-.5.7-1 1-1.1 0 .6-.5.7-1 1Zm5.7-.8h.1a.4.4 0 0 1 0-.4h.3A3.4 3.4 0 0 1 70 89a.2.2 0 0 1-.3-.1h-.1c-.5 0-2.2-.4-2.6 0a10.7 10.7 0 0 0-1.7.3l.2-.5a9.1 9.1 0 0 0 2.2-.5c.5 0 1-.4 1.5-.3l.1.3Zm16.2.6-.4-.4a5 5 0 0 0 .1-.6c.2 0 .4.8.4 1Zm14 0c0-.2-.2-.2-.1-.4l.2.4Zm-18.6-.1-.5-.4c0-.2 0-.3.2-.4a1 1 0 0 1 .3.8Zm-9.1 0a1.8 1.8 0 0 1-.2-1.3c-.2-.1 0-.9-.1-1.1l1-.6a2.1 2.1 0 0 1-.5 1.4v1.2a.7.7 0 0 0-.2.3Zm29-.2a5.6 5.6 0 0 0-1-.4c0-.4 1.2.2 1.4.2v.1l-.3.1Zm-2.6-.5-.5.4v-.1c.1-.3.3-.3.5-.3Zm-18.5-.2c0-.2-.4-1 0-1.2a2.3 2.3 0 0 1 .6.7 2.8 2.8 0 0 0-.2.8l-.3-.1.1.3c-.4-.1-.4-.3-.7-.7l.1-.2h.1c0 .2 0 .4.3.4Zm5 .2a8.4 8.4 0 0 0-.9-.7c0-.6 0-1.5.7-1.6.7 1 .3 1.2.2 2.3Zm13.6-.2h-.5a1.3 1.3 0 0 0-.1-.6 1.7 1.7 0 0 1 .9.6h-.3ZM66 88c0-.8 1-1.5 1.8-1.5a5.4 5.4 0 0 1-.3 1l-1.5.5Zm16.8 0-.3-.6a1.3 1.3 0 0 1 .4.2v.3Zm-11.5-.1-.3-.8.3-.3v1Zm-8.8-.2c0-.3 1.6-1 2-1a8.2 8.2 0 0 1-2 1Zm19.7-.1a5 5 0 0 0-.8-.4v-.3c.3-.4.9.3.9.7Zm-12 0a8 8 0 0 1-.2-1.3l.2-.1c.2.4.4.9.7 1.2v.2h-.6Zm29.4-.1H99a13 13 0 0 0-1.2-1.3 5.8 5.8 0 0 0-2.3-.4 1.8 1.8 0 0 1-1-.2h.2c2.2 0 3.5.3 5.1 1.8a1 1 0 0 1-.4 0Zm-1.4-.1a11.2 11.2 0 0 1-1.8-1.3c.5 0 1.9.7 2 1.3h-.2Zm-28.9 0L69 87l.3-.4h.1l.1.5Zm-1-.1a.5.5 0 0 1 .4-.4.5.5 0 0 1 0 .4h-.3Zm14.8-.3c-.3-.2-.9-.6-.9-1a1.8 1.8 0 0 1 1.3-.3 5.8 5.8 0 0 1-.3 1.3Zm-5 0a3.5 3.5 0 0 0-1.1-.1c-.2-.2-.1-.3 0-.5a12 12 0 0 1 1.3.4v.1a1.1 1.1 0 0 0-.1 0Zm2.3 0c-.3-.2-.4-.2-.6-.6l.2-.5c.3 0 .6.8.5 1Zm-9.6-.1a6.4 6.4 0 0 1-.3-1l.3-.3h.4c0 .2 0 1.2-.4 1.3Zm-7.5-.2A4 4 0 0 1 65 86a.5.5 0 0 1 0 .3 6.6 6.6 0 0 0-1.8.4 10 10 0 0 0-2 1.5h-.7c.5-.4 2-1.7 2.7-1.6Zm29.8 0c-.2 0-.4-.6-.3-.7a1.5 1.5 0 0 1 .5 0l-.1.8Zm-2.4-.2-.2-.7c.4.1.7.6.2.8a11.7 11.7 0 0 0-2.5 2c-.1.1-.4.7-.6.7a22.3 22.3 0 0 1 .6-3.9c.4 0 1.2.8 1.6 1l-.3-.6c.4 0 1 .5 1.2.7Zm-12.4 0-.5-.6c.2-.1.3-.3.5-.3.1.2 0 .6 0 .8Zm-15-.2a4.2 4.2 0 0 1 .4-1.8c1 0 1.3.4 1.3 1.3l-1.7.5Zm3.6 0V86a3.9 3.9 0 0 1 .7-.1 2.8 2.8 0 0 1-.7.2Zm14.5-.3c-.2 0-.2 0-.3-.3.2-.1.3.1.4.2l-.1.1Zm-14.6 0v-.1a3.4 3.4 0 0 1 .9-.2 5.3 5.3 0 0 0-.9.3ZM91 83.5a4 4 0 0 1 2 2c-.5.2-.8.1-.8-.5a3 3 0 0 1-1.2-1.5Zm-9.3 2.1c-.4-.3-1-.8-1-1.3.6-.3 2.9-1.2 3.1 0-.5.5.3.8-.9 1a3.7 3.7 0 0 0-1.2.3Zm8.7 0h-.2a9.5 9.5 0 0 0-1.9-1.5c.8 0 2.2.5 2.4 1.3-.2 0-.2 0-.3.2Zm-24.8 0a1.4 1.4 0 0 1 0-.6 3.5 3.5 0 0 1 .8.3.6.6 0 0 0 0 .1l-.8.1Zm25.5-.2-.1-.3.3.2-.2.1Zm-19.8 0v-.1a1 1 0 0 1 1.1-.4v.1a2.3 2.3 0 0 1-1.1.3Zm20.2-.1c-.4-.4-1.3-.9-1.2-1.4a14.1 14.1 0 0 0-1.6-1.8 1 1 0 0 1 0-.1 11.4 11.4 0 0 1 3 3.2.3.3 0 0 1-.2.1ZM67 84v.2c.3 0 .5.6.6.8l-.2.1-1.1-.7a.5.5 0 0 1 .7-.4Zm.8 1c-.1-.2-.2-.4 0-.5v.5Zm6-.1-.4-.2c0-1 .8-.5.9 0a1.1 1.1 0 0 1-.5.2Zm12-.2c-.1-.2 0-.2 0-.4.4 0 1.2-.4 1.6.2a5.5 5.5 0 0 0-1.7.2Zm-11-.3c-.2-.1-.4-.2-.5-.5h.5c.2.3.2.4 0 .5Zm-7.6-.4c-.1-.2-.2-.3-.1-.5h.1c.2.2.6.7.3.9l-.3-.4Zm-1.5.3-.3-.1v-.5l.6.2a1.1 1.1 0 0 1 0 .4h-.3Zm-9.6-.2a23.5 23.5 0 0 1-.2-2.8c.9-.2 4.2-1 4.6-.2 0 .2-.3.2-.4.3l-2.8 1.8c-1 .9-1 .9-1.2.9Zm8.4 0L64 84l.3-.6h.2a2.3 2.3 0 0 1 .1.6Zm9.4-.3-.2-.1v-.1a.8.8 0 0 1 .5.1.5.5 0 0 1-.3.1Zm.7 0-.2-.3h.4v.2h-.2Zm11.8-.1-.5-.2c.3-.5 0-2 .4-2.3a2.8 2.8 0 0 1 0-.5h.2c.6.4.5 1.4 1 1.8-.2.4 0 .7 0 1l-1 .2Zm2.4 0v-.1h-.4l.2-.8c.2 0 .6.6.7.8H89v.1h.6l.2.4-1-.3a1 1 0 0 1 .1-.1Zm-5.3-.3a15.2 15.2 0 0 1-3-1.3c-.1-.5.7-.8 1-1.1a10.5 10.5 0 0 1 2.3 2.4h-.3Zm-2.4 0a.6.6 0 0 1 0-.1h-.6V83a1.8 1.8 0 0 0 .1-.7c.3 0 2 .7 1.8 1h-1c0 .2-.7.3-1 .4l.1-.3.6-.1Zm-15 0-.6-.4h.7v.3H66Zm-4.3-.3c.2-.3 1-.8 1.2-1v.1a2.5 2.5 0 0 1-1.2.9Zm22.1-.5L83 80a5.2 5.2 0 0 1 1.1.4v2.1Zm-5.7-.2-.6-.5h.7v.5a.4.4 0 0 0-.1 0Zm-7.3 0-.3-.1v-.1a.6.6 0 0 1 .3-.1l.2.2-.2.1Zm.4-.1-.2-.4c.2-.2.4-.1.7-.1v.3l-.5.2Zm-3.2-.2L68 82l.1-.2h.1a.7.7 0 0 1 0 .3h-.1Zm4 0v-.3h.4v.1l-.5.1Zm13.3-.7a3.6 3.6 0 0 1 .1-1.1h.4c0 .1 0 1.3-.2 1.4a9 9 0 0 1-.3 2H85l-.4.1a7 7 0 0 1 .8-2.4h.1Zm-7.9.2a.3.3 0 0 1 .2-.4.6.6 0 0 1 .3.4h-.5Zm-4-.2-.1-.3h.3v.2a.5.5 0 0 1-.3.1Zm-11.1-.1a.6.6 0 0 1 .5-.2l-.5.2Zm20.7 0c-.2-.3-.7-.8-.7-1l.2-.2.6 1.1h-.1Zm-4.8-.1a1.5 1.5 0 0 1-.2-.9h.2c.1 0 .2.8 0 .9Zm32 0a10.5 10.5 0 0 0-3-2.3 5 5 0 0 1-.3-1.4 6.7 6.7 0 0 1 1.9.4 10 10 0 0 1 1.5 3.2.6.6 0 0 0-.1 0Zm-34-.1v-.5a.5.5 0 0 1 .3.1v.2l-.3.2ZM61 81v-.2h.4l-.4.2Zm2.3 0a.2.2 0 0 1 0-.2l.6-.3c0 .2-.4.4-.6.5Zm-1.4-.4a4.3 4.3 0 0 0-1.1-.3 10 10 0 0 1 1.3.2v.1h-.2Zm26 0v-.4a.2.2 0 0 1 .2 0 .8.8 0 0 1-.2.4Zm-12.4 0-.2-.2.1-.1h.2v.3h-.1Zm-19.5 0v-.4a2 2 0 0 1 .7 0c0 .2-.5.1-.6.3a7.7 7.7 0 0 1 3.7-.3c-1.4 0-2.5.6-3.8.7v-.3Zm6.8-.2-.4-.2a.8.8 0 0 1 0-.1 3.5 3.5 0 0 1 .9.1v.1a2 2 0 0 1-.5.1Zm17.9-.3.3-.1a.7.7 0 0 1 0-.1h.4-.2v.2a2.5 2.5 0 0 1-.7 1 5.1 5.1 0 0 1-.4-1h.6Zm-16.4-.2a31.3 31.3 0 0 0-3.8-.5c.4-.5 3.6.1 4 .4l.1.2c.2.1.4 0 .6.2a3.3 3.3 0 0 1-.7 0s-.5 0-.4-.2h.2Zm1.2 0c-.2 0-.2 0-.2-.2l.6.1a.8.8 0 0 0 0 .1h-.4ZM88 80c-.1-.4-.5-.9-.4-1.3h.6a8 8 0 0 1 0 1.2Zm-32-.2c-.1-.5-.4-1.3-.4-1.8-1.2-1.3 0-2 1-3 0 .3-.3.5-.2.9a18.3 18.3 0 0 0 2.1 3 8.5 8.5 0 0 1-1.2.6 5 5 0 0 1-1.4.3Zm1.8-.1v-.1a3 3 0 0 1 1-.3v.1l-1 .3Zm9.6-.1v-.2a.7.7 0 0 1 .3 0 .6.6 0 0 0 0 .2h-.3Zm18.6-.1h-.1l.1-.7h.1l.1.4-.2.3Zm-11-.1v-.1a.4.4 0 0 1 .3-.1v.1H75Zm8.8 0-.1-.1V79a1.2 1.2 0 0 1 .4 0 .3.3 0 0 1 0 .2h-.3Zm1.3 0a1.1 1.1 0 0 1-.1-.5h.3c0 .2 0 .4-.2.5Zm-19.5 0a10 10 0 0 0-4.4-.7h-1a4.9 4.9 0 0 1-.7-1.5l-.7-1.1a.5.5 0 0 1 0-.1 12.4 12.4 0 0 1 3.3.4 8 8 0 0 0 1.4 1l-.3-1a2 2 0 0 0 .6-.3h.4c.7.7 2.4 2.2 2.6 3l-.8.2.4.1h.7a.5.5 0 0 1 .1.3l-.4.3a2.6 2.6 0 0 1-1-.5l-.2-.2Zm4.8-.1c-.2 0-.2-.1-.2-.3a.8.8 0 0 1 .6.1c-.1.2-.2.2-.4.2Zm-2 0-.2-.1v-.2c.2 0 .5-.1.6.2Zm13.1 0-.4-.4a.8.8 0 0 1 .4 0v-.1a1.5 1.5 0 0 1 .6.1v.2a.9.9 0 0 1-.6.1Zm-6.8-.1c-.2-.2-.2-.2-.2-.5a.9.9 0 0 1 .4.1c0 .2 0 .3-.2.4Zm-7.5-.2c-.2-.4-1.3-3.2-1-3.5l.5.6c.1.6 1 2.3.8 2.8h-.3Zm6.6-.2-.2-.1a.4.4 0 0 1 0-.3 1 1 0 0 1 .5.2c-.1 0-.2 0-.3.2l.5.3a1.1 1.1 0 0 1-.6-.2v-.1Zm32.5 0a14 14 0 0 1-3.5-1.8v-.1c.7-.2 2.2.4 3 .5a4.2 4.2 0 0 1 .8 1.4h-.3Zm-28.5 0v-.3a4 4 0 0 1 .5 0v.1l-.5.1Zm-11.9-1.3c.3-.3-.6-2.3-.7-2.7.4.2.7.3.7.8.2.2 0 .8.3 1 .2.7.5 1.3.6 2a8.3 8.3 0 0 1-.9-1.1Zm4.6 1.1.4-.4h.2a.4.4 0 0 1 0 .4h-.6Zm17.6 0a2.2 2.2 0 0 1-.6-.2c0-.3.6-.7.9-.8v1H88Zm-5.2 0c-.1-.3 1.1-1.3 1.3-.6l-1.3.5Zm1.4 0V78c.3 0 .2.2.1.4h-.1Zm-3-.1h-.1v-.2h.5v.1h-.5Zm1 0c-.3-.1-.3 0-.3-.3a.8.8 0 0 1 .3 0v.3Zm2.8 0-.3-.9a12.4 12.4 0 0 1 1-1.1c.3.1-.1 1.6-.3 1.8l-.4.1Zm-7.7-.2c-.1 0-.2-.1-.1-.3.1-.1.7-.2.8 0-.2.2-.5.2-.7.3Zm-7.2-.1v-.6a1 1 0 0 1 .6.5h-.6Zm17.2-.2c-.6-1-.3-1.5-.2-2.7v-.1h.2a2.2 2.2 0 0 1 .1.7 7.4 7.4 0 0 1 .8 1.6 5.8 5.8 0 0 0-.9.5Zm-12.9-.2-.8-.5V77l.4-.2a4 4 0 0 0 .9.7v.1h-.5Zm-2-.1v-.1l.2-.4a1 1 0 0 1 .1 0c0 .4.1.5-.3.5Zm6 0-.3-.1a1 1 0 0 1 0-.1l.5-.1-.1.3Zm-1.8 0a5.7 5.7 0 0 1-.2-1.8h.2c.2.7.9.7 1.5 1.1v.2a3.6 3.6 0 0 1-1.5.4Zm-5.3-.1c0-.7.3-1.1.4-1.8h.6c0 .4-.7 1.4-1 1.8Zm13.3-.1-.1-.3a.6.6 0 0 1 .4 0l-.3.3Zm-19-.3-2.8-2.5a1.5 1.5 0 0 1-.2-.6c.4 0 .9.4 1.3.5l.9 1.4a3.7 3.7 0 0 1 .7 1.2Zm15.2-.1-.3-.2v-.2h.1a6 6 0 0 1 2-1.1L80.8 77Zm21.5-.3-1-.6H103.7c-.1.4-1 .5-1.3.6Zm-50.4 0c.1-.3.6-1.1.9-1.1v.6l-.9.4Zm27.8 0h-.3v-.4c.2 0 .4 0 .5.3l.3.2.5.3a1.2 1.2 0 0 0 0 .1 1 1 0 0 1-.5.2L80 77l.1-.2h-.3v-.3Zm.5 0-.1-.1a.7.7 0 0 1 .2-.7c0-.6-.4-.5-.8-.4 0-.7 1.4-.3 2-.4v.4c-.3 0-1.3.5-1 .9l-.3.2Zm27.6-.1c-.7-.3-1.7-.4-2-1l.8.2c-.4-.7-1.5-1-2.2-1.5v-.1c.4 0 2.3.4 2.3 1a10.4 10.4 0 0 0 1 1.3Zm-32.4 0c0-.2 0-.2-.5-.3v-.1a3.2 3.2 0 0 1 .7-.3v.6h-.2Zm9.2-.4-.4-.1V76l1.3-.5.6-.3a2 2 0 0 1 0 .6 1.3 1.3 0 0 1-.1.5c-.3 0 0-.3 0-.5-.2 0-.2.3-.4.4a.7.7 0 0 0-.8-.1 2 2 0 0 0 .6.2 1.1 1.1 0 0 1-.3.5h-1c.1-.3.4-.5.5-.6Zm-31.6 0V76c.4-.9.4-1.6 1.5-2a2.4 2.4 0 0 1 .6 0c0 .2-.7.7-.9.9-.4.6-.5 1-1.2 1.3Zm14.5 0c-.1-.5-.5-1-.5-1.6a11.2 11.2 0 0 0 2.2-2 8 8 0 0 1 2.2 2c-1.3.5-2.6 1.2-3.9 1.6Zm7.2-.2c-.3-.4.3-1.5.7-1.5l.1.2.2-.1c0 .9-.1 1-1 1.4Zm18.7-.3 1.4-.2c.8-.2 3-1 3.7-.3l-1 .1c-.4.3-1.3.3-1.6.6h-2.7a7.3 7.3 0 0 0-2 .3H91V76a20 20 0 0 1 4.6-1.6v.3c-.4.2-2 .6-2.2 1Zm10.5.2a8.6 8.6 0 0 0-2.2-.5c-.3-.3-2.2-.2-2.6-.2 0-.3 1.6-.2 1.7 0 .3 0 3.5-.5 3.7.7a2.3 2.3 0 0 1-.6 0Zm-13 0a3.4 3.4 0 0 0-1-1.6v-.1l2.2-.6 3 .4v.1a12.3 12.3 0 0 1-1.6.5L91 76Zm-35.6-.2a4.7 4.7 0 0 1-.7 0c0-.4 1.6-1.6 2-1.8h.4c0 .3-1.3 1.5-1.6 1.8l-.6 1a2.6 2.6 0 0 1-.5 1.4l.1 1.9a8.3 8.3 0 0 1-1.4.4 5 5 0 0 1 .3-2.2 8.9 8.9 0 0 0 1.2-1.4 2.3 2.3 0 0 1-.6.1c0-.2.2-.4.3-.5.2-.1 1-.5 1-.7Zm8.4 0c-.5-.3-1.7-.8-1.7-1.4a7.7 7.7 0 0 1 1.7 1.3 1 1 0 0 0 0 .1Zm8.4-.7a1.3 1.3 0 0 1 .4.6c-.2 0-.3-.3-.4-.4-.3 0-.4.3-.6.5-.7.5-.9.7-.8 1.6H70v.2c-.2 0-.3.2-.4.5-.5 0-.8.3-1.2.3v.3H68a4.7 4.7 0 0 1-.4-2.2 20.6 20.6 0 0 1 4.2-1.7l.3.3Zm5 .4h-.6a1.1 1.1 0 0 1 0-.4c.5-.3 1.3-1 2-1v.6l-1 .6v.1a17.7 17.7 0 0 1 1 0v.6a6.6 6.6 0 0 0-1-.4.6.6 0 0 1-.5 0Zm-10.6 0-.2-.2V75h.1a.5.5 0 0 1 0 .4Zm23.1 0-.2-.1V75l.3.3a1 1 0 0 0 0 .1Zm-7.7 0a.4.4 0 0 1 0-.3c.3 0 .5 0 .5.2H82Zm6.5 0c-.4-.3-.7-.4-1-.8v-.1l1 .5c.1.2.2.3 0 .4Zm-16-.3a1 1 0 0 1-.2-.5h.1a1.8 1.8 0 0 1 .1.5Zm.3 0a.8.8 0 0 1-.1-.6l.3-.1-.2.7Zm10.8 0-.4-.3c.2-.3.5-.2.6-.3.2 0 .5 0 .6.3l-.8.2Zm24 0L105 74l-1-.3c.1-.2.9-.1 1.1-.1a29 29 0 0 1 3.5.4c.2 0 .6.2.7.4a2.4 2.4 0 0 1-1.5.6ZM58.3 75c-.2-.2-.8-.6-1.1-.3-.2 0-.2 0-.3-.2l.7-.7c.8 0 2.2-.2 2.5.8a7.4 7.4 0 0 0-1.8.4Zm8 0a3.3 3.3 0 0 1-1-2c.2 0 .4-.4.7-.4.2.3.7 2.2.2 2.4Zm32.5 0v-.1l.5-.1a.7.7 0 0 1-.5.2Zm-10.2-.3a4.3 4.3 0 0 0-1-.4c0-.1.4-.5.6-.5.2.3.5.5.5 1h-.1Zm-3.8 0-.2-.3c.3 0 .9-.3 1.1.2a3.6 3.6 0 0 0-.9 0Zm11.3 0c0-.6.2-.3.6-.2l-.6.2Zm-14.5-.2h-.4v-.1l.6-.1a.3.3 0 0 1-.2.2Zm-9.4-.1a5.4 5.4 0 0 0-2.2-2.2c.2-.7 1.5.7 2 .9 0 .1.5 1 .4 1.3h-.2Zm.5-.1a6.3 6.3 0 0 1-.7-1.5c.2 0 .6.5.8.7a47.5 47.5 0 0 0-.1.8Zm-10.2 0a3.6 3.6 0 0 0-.7-.6v-.1a1.2 1.2 0 0 1 .8.6h-.1Zm2-2.1a5.5 5.5 0 0 1 1 2c-.8 0-1.4-1.5-1.4-2.1h.5Zm15.8 1.6.1-.3a3.5 3.5 0 0 1 1.5.3c-.3.2-1.5.5-1.6 0Zm8.3.2-.2-.4a.3.3 0 0 1 .3 0v.4a.7.7 0 0 0-.1 0Zm7 0-2-.5v-.1a12.3 12.3 0 0 1 2-.1l.1.5v.1h-.1Zm-5.8 0v-.6c.2 0 1.7 0 1.7.2l-1.7.3Zm-13 0v-.2c.1-.3 1.7-.3 2-.3a12.3 12.3 0 0 0-2 .4Zm-2.9-.1a5 5 0 0 1 1.7-1.7v.6a10.1 10.1 0 0 1-1.7 1Zm6.3-.2h-.3v-.2h.3v.2Zm18.7 0h-.6l-2 .2a1.7 1.7 0 0 1 .1-.7h2.4c.3.2 1.7-.1 2 .2a3.5 3.5 0 0 1 2 .5 11.7 11.7 0 0 0-2.2.2 9.5 9.5 0 0 1-3.8.2v-.1l2-.4Zm-23.7 0a.5.5 0 0 1-.1-.3 1.6 1.6 0 0 1 .5-.3v.5l-.4.1Zm9-.1c-.7-.1-.8-.3-.3-1a6.4 6.4 0 0 1 1.7.6v.1a8.1 8.1 0 0 0-1.3.3Zm8.3-.2c-1-.2-1.9 0-2.7-.2v-1.5a4.1 4.1 0 0 0 .1-.9l.8-.8 2.6.4a6.9 6.9 0 0 0 .5 1.8 5.3 5.3 0 0 0 .3-1.5 3.4 3.4 0 0 1 1.3.3 13.3 13.3 0 0 1 .1 2h-.2c-1 0-1.9.3-2.8.4Zm-25.7 0a2.9 2.9 0 0 1-.3-1.2 9.2 9.2 0 0 0 1-.8 3.8 3.8 0 0 1 1.1.4 17 17 0 0 1-1.8 1.5Zm19.8 0a2.4 2.4 0 0 0-.6-.2l-.5-.8a1.4 1.4 0 0 1 1 0 1.5 1.5 0 0 1 .2.9Zm-13.9-.2-.8-.8v-.1l.2-.2c.2.1.9.9.6 1.1Zm7.1-.4V71A8.3 8.3 0 0 1 81 71a2.6 2.6 0 0 1-.4.8l-.4 1.4c-.1 0-.3.1-.4 0v-.3Zm8.7-.2c.3 0 .3-.5.6-.5a5.1 5.1 0 0 1-.2 1h-.5a.7.7 0 0 1 .1-.5Zm-34 .6a7.3 7.3 0 0 1 1.2-2.3l1.7.2c.2.3.8 1 .8 1.2a20.6 20.6 0 0 0-3.7.9Zm26.3 0-.1-.1c.1-.4.2-.4.6-.6 0 .2-.3.3-.4.5a2.9 2.9 0 0 1 1.5-.7 1.6 1.6 0 0 1-.1 1c-.3 0-1.3.1-1.5-.2ZM74 73h-.1v-2.3a20.5 20.5 0 0 0 .3-2.2c.3-.4 1.5-1.4 1.4-.3.5.6 0 .7 0 1.4a7 7 0 0 0-.2 2.1 12.5 12.5 0 0 1-1.4 1.3Zm-8.9-.2a3 3 0 0 1-.4-2 1.9 1.9 0 0 0 .6 0c.5.4.2 1.4 0 2H65Zm7.7 0a3 3 0 0 1-.5-1c.2-.2-.3-.5-.4-.5L71 70a5.3 5.3 0 0 1 1.4-.8 3.3 3.3 0 0 0 .2 1.8 5 5 0 0 1 .6-1.8c0 1 .2 2.8-.3 3.5Zm-12.4-.1v-.2h.4c0 .2-.3.1-.4.2Zm2-.1-.2-.2v-.1c.2 0 .3 0 .4.2h-.2Zm24.3-.1v-.3h.2l-.2.3Zm1.7 0h-.1c0-.3-.1-1.2.1-1.5 0-.4.4-.9.5-1.3h.3l-.1 1.7a4.1 4.1 0 0 0-.7 1.1ZM60 72.3c-.3 0-.9-.3-.9-.6.9-.3 1.4-.3 1.7.6Zm21 0c.3-.5.8-1.5 1.6-1.2-.1 1-.7 1-1.6 1.2Zm-9.5-.2c-.1-.1-.4-.4-.4-.6.2 0 .3.3.4.5v.1Zm15.3 0a1 1 0 0 1-.3-.4.4.4 0 0 1 .4.3.5.5 0 0 0-.1 0Zm-22.2 0c-.3-.1-.6-.5-.7-.7.1-.2.2-.3.4-.3a.6.6 0 0 1 0 .4 1 1 0 0 1 .3.5Zm20.6-.1c-.2-.3-.2-.4-.2-.7h.1a1 1 0 0 1 .2.7.5.5 0 0 0-.1 0Zm-16.3-.3a158.9 158.9 0 0 1-1-.7 3.7 3.7 0 0 1 1.5.4v.2H69Zm-9.8-.3a8 8 0 0 1-.6-1.8c.4.3 1.3 1 1.3 1.5l-.7.3Zm11.4 0-.4-.3v-.2a.9.9 0 0 1 .5.5Zm.9 0L71 71h.4l.1.2-.1.1Zm-7.8-.2c-.6-.3-.2-.7.3-.7.1.3-.1.5-.2.7a.7.7 0 0 0-.1 0Zm-1.2-.3c-.2-.2-.8-.7-.9-1l.3.1v-.3a3.3 3.3 0 0 1 1.7-1c0 .3-.3.8-.4 1h.1l.2-.1c-.3.6-.2 1.2-1 1.3Zm23.4 0a.7.7 0 0 0-.3-.2c0-.2 0-.2.2-.2a.6.6 0 0 1 .2.3Zm-24.9 0-.8-1a8.1 8.1 0 0 1-1.2-1c.4-.2 1.2-.6 1.4.1h-.1c.2.6 1.2 1.2 1.3 1.8h-.6Zm10.1-.1c-.2-.2-.9-.6-.1-.6l.3.5H71Zm15.3 0c-.6-.6-.1-1 .3-1.6.1 0 .2 0 .3.2 0 .4-.3.5-.5.8l-.1.5Zm-29.3 0-.6-.5.3-.1a1.8 1.8 0 0 1 .3.4 1.3 1.3 0 0 0 0 .1Zm22.8 0c-.1-1.1 1-.6 1.5-.4v.2l-1.5.1Zm15.4 0a3.5 3.5 0 0 0-1-.7 6 6 0 0 1 .3-1.6l.8.1v2.1Zm-12.6-.1-.2-.2v-.2l.4.2a1.5 1.5 0 0 0 0 .1l-.2.1Zm7.3-.1a1.6 1.6 0 0 1 0-.7 1.5 1.5 0 0 1 .5 0 1 1 0 0 1-.5.7Zm-5.3-.4a1 1 0 0 1 .2-.5h.1l.2.2a1.5 1.5 0 0 1-.5.3Zm-3 0-1-.3a.9.9 0 0 1 0-.1l.6-.3.6.4v.1a.4.4 0 0 1-.3.1ZM88 70a1 1 0 0 0-.1-.5h.3c0 .2 0 .5-.2.5Zm-18.3-.2-.8-.3c0-.2.6-.9.9-.8l.5.8a.8.8 0 0 1-.6.3Zm13.5-.2v-.1c0-.1 0-.2.2-.1 0 .2 0 .2-.2.2Zm2 0c-.4-.4-.3-.4 0-.9h.1v.9Zm-19.6 0c0-.3.4-.3.6-.3l-.6.3Zm27.2 0-1.4-.5a3.8 3.8 0 0 1 1.4-1l.1 1.4H93Zm-38-.2a1.4 1.4 0 0 1-.5 0v-.2c.4-.2.6-.5.9 0h-.1.4c0 .5-.4.4-.7.3Zm30.8 0c0-.3 0-.7.6-.7l.2.2a1.4 1.4 0 0 1-.8.5Zm-6 0V69h.4l-.3.3Zm3.3 0c-.5-.8-2.3-1.4-3.1-1.6v-.3c.4 0 2.8 1.4 3.2 1.6a.8.8 0 0 0 0 .1l-.1.1Zm-12.5-.1a85 85 0 0 1-.3-.5l.1-.3h.1a1.8 1.8 0 0 1 .1.8Zm17.5-.1a1.3 1.3 0 0 1 .3-1h.5c-.1.6-.2.9-.8 1Zm3 0-1-.2a1.8 1.8 0 0 1 .1-1 13.1 13.1 0 0 1 2.5 0 .6.6 0 0 0 0 .2c-.5.3-1 .9-1.6 1Zm-29.5-.1-.4-.7a.5.5 0 0 1 0-.1l1.2.1c0 .2-.6.4-.7.7Zm6.6 0-.5-.3v-.1a5 5 0 0 1 1.4-.4c0 .2-.7.7-1 .8Zm15.6-.1a9.6 9.6 0 0 0-3.8-2.3v-.6c1-.1 3.4 2 4 2.5v.2l-.2.2ZM70.9 69c.2-.8 1-1.9 1.9-1.4v.1c-.6 0-1.4 1-1.9 1.3Zm7 0a1 1 0 0 1-.7-.8 3 3 0 0 1 1.8.4v.1l-1 .2c0 .2.8.1 1 .1a2 2 0 0 1 0 .8c-.2 0-.5.1-.6.3h.5c0 .6.2 1-.6 1l-.7.4c.5 0 1-.2 1.3-.3v.3a11.7 11.7 0 0 1-.1 1.6 6.9 6.9 0 0 1-2.1.3c0-1.2 0-1.1 1.3-1.6.2 0 .6 0 .7-.3-.1-.1-1.6.3-1.7.4a9.5 9.5 0 0 1 .8-2.2l.1-.7Zm7.7 0c0-.5 0-.5.4-.5l-.2.4a.8.8 0 0 0-.2 0Zm-32.1-.2a1.1 1.1 0 0 1 .7-.5l.2.2c-.3.3-.6.2-1 .3Zm33-.2c0-.3 1-1 1.2-1v.4l-.7.4v.1c.8-.2.6-.1.5.8-.5 0-.5-.2-1-.5v-.1a.9.9 0 0 1 0-.1Zm-28.2 0-.1-.1v-.2h.4l-.3.2Zm7.4-.1v-.1a2.6 2.6 0 0 1 1.4-1.1 4 4 0 0 1-1.4 1.2Zm-9.8-.2v-.1c.4-.2.7-.5 1-.2v.1l-1 .2Zm7.8 0A24.1 24.1 0 0 0 61 68a2.2 2.2 0 0 1-.8-1.2c.8-.5.3-.2 1.1 0a2.1 2.1 0 0 0 0-.6 2.5 2.5 0 0 1 1.4.4 4.5 4.5 0 0 1 1.7 1v.4c-.3.2-.3.3-.7.3Zm1.7 0v-.1a.8.8 0 0 1 .7-.6l-.7.7Zm-7.8-.2-.3-.1a2 2 0 0 1 .8-1c.2.4.9.6 1 1l-1.5.1Zm10-.3a2.2 2.2 0 0 1 .9-.5l.1.2c0 .5-.6.5-1 .4l-.5.1.4-.3Zm27.8.2-.4-.1v-.1h.5v.1l-.1.1Zm-38-.6c-.1.3-.3.5-.6.4l.3-.3c-.6 0-1.2.4-1.8.4l-.3-.1c.2-.6 2.6-1.2 3.3-1.3a3.4 3.4 0 0 1-1 1Zm21.3.3c-.7-.3-2 .5-1.7-.9.3-.2 2.1.3 2 .9h-.3Zm9.5 0a2 2 0 0 1 0-.5h.5c0 .2-.2.4-.5.5Zm.6-.3.2-.4h.2c0 .3-.2.4-.4.4Zm-20 0v-.2h.2c0 .2 0 .2-.2.2Zm1.2 0a.7.7 0 0 1 .1-.5 2 2 0 0 1 .2 0l-.1.4H70Zm5.9-.1h-.2V67l.3-.2-.1.4Zm-11.7 0a7 7 0 0 0-1.3-.9c-.1-.5.1-1.3.8-1.3 0 .6.6 1.6.6 2.1h-.1Zm28.6-.1-2.5-.1v-.3a17.5 17.5 0 0 1 2.7-.5v.9h-.2Zm2.8 0-.4-.1a1.2 1.2 0 0 1 .8-.4l-.2.4h-.2ZM65.3 67a9.5 9.5 0 0 1 .2-1.3l.7-.4c.1.2.2.5.5.5v.1a3.6 3.6 0 0 1-1.4 1Zm-5.3-.4-.7-.4c.1-.2.8-.2 1-.2l.2.2v.1l-.5.3Zm17-.1-.1-.3c.4-.3 1.1-.8 1.7-.7l.1.9-1.8.1Zm-9.8 0c-.1-.2-.2 0-.4 0 0-.3.2-.3.3-.4.2 0 .2 0 .3.3h-.2Zm20.5-.1a11.8 11.8 0 0 0-4.9-1.7l-.8-.1-.3-.3c.4-.4 1.2-1.4 1.7-1.4l3 2.3a.4.4 0 0 1 .1 0 21 21 0 0 0-2.3-3.3c.5-.5.6-.9 1.3-1a17 17 0 0 1 1.5 1.2 13.3 13.3 0 0 0 .5 2.4 6.3 6.3 0 0 0 .1 1.4l.3-.6c.2.3-.1.8-.1 1Zm10.2-.1-.4-.2v-.1c.2 0 .5 0 .6.2h-.2Zm-35.4 0a3.9 3.9 0 0 0-.8-.4V66a7.3 7.3 0 0 1 1-.4v.8Zm5 0a.8.8 0 0 1 0-.5c.1-.1.2-.3.4-.3a49.6 49.6 0 0 0-.3.7Zm1.1-.1a1 1 0 0 1 .8-.6c-.1.4-.4.5-.8.6Zm7.1 0c-.1-.2.3-.4.4-.4 0 .2-.1.3-.4.4Zm-11.1 0a3.9 3.9 0 0 1-.4-1.4 3.4 3.4 0 0 1 1.2-.4 7.5 7.5 0 0 1-.1 1.2c-.2 0-.5.2-.5.4l.5-.2-.2 1.4a2.4 2.4 0 0 1-.5-1Zm23.8 0V66a15.4 15.4 0 0 0 .2-2.1 2.3 2.3 0 0 1 1 1c-.5 1-.4 1-1.2 1.3Zm8-.1L96 66a1.2 1.2 0 0 1 0-.2 3.8 3.8 0 0 1 .9-.2.7.7 0 0 1-.3.5l-.2.1a6.1 6.1 0 0 1-1.5.6v-.2a1.5 1.5 0 0 1 .9-.5h.5Zm-5.6-.7v.1a10 10 0 0 1 2.7-.2c-.2.5-.9.4-1.4.4l-1.6.3c0-.3 0-.5.3-.6Zm-17.5.5-.2-.3v-.2h.4c0 .3 0 .4-.2.5Zm24.9-.2a.7.7 0 0 0 0 .1h-.3l-.2-.1h.5Zm-24 0v-.6h.6c-.2.3-.2.6-.6.7Zm-12.8 0 .6-.3a1 1 0 0 1-.6.3Zm33.7 0v-.7a1.2 1.2 0 0 1-.2-.5 7.2 7.2 0 0 1 1.7.7v.2l-1.5.3ZM77 65.5v-.2a2.3 2.3 0 0 1 .6-.1v.1l-.6.2Zm20.3 0-.5-.3c.2-.4 1.3-.3 1.6-.3v.2a2.3 2.3 0 0 0-1.1.3Zm-21.4 0V65h.3v.3l-.3.1Zm-10.3-.1a2.3 2.3 0 0 1 .2-1 2.7 2.7 0 0 0 .6-.2h.2v.6c-.2 0-.3 0-.4.3l-.6.3Zm25.7 0a.7.7 0 0 1 0-.1 1.6 1.6 0 0 0 .5-.2 1 1 0 0 1-.5.3Zm-19 0-.2-.2a1.4 1.4 0 0 1 .1-.5c.2 0 .3 0 .5.2 0 .2 0 .4-.3.4Zm-4.6-.1-.2-.5a3 3 0 0 1 .8-.2c0 .3-.4.5-.6.7Zm28.9-.2a7.7 7.7 0 0 0-3-1.2v-.1a8.2 8.2 0 0 1 3.7.8 1 1 0 0 0 0 .1l-.7.4Zm-4-.1.4-.1h1v.1h-1.3ZM78 64.9a2.2 2.2 0 0 1-1-.4V64c.3 0 1.2.4 1.3.8H78Zm2.2-.2a1.9 1.9 0 0 1 0-.6c.3 0 1.2 0 1 .6h-.5v.1h.3v.2l.2-.1a11.5 11.5 0 0 1 6.3 1.7.7.7 0 0 0 0 .1 4 4 0 0 0-1.3 1.4c-.6 0-1 .5-1.6.5a.8.8 0 0 1-.4 0L80 65.9a1.7 1.7 0 0 1 .1-1l.1-.1Zm-9.6 0h-.1c0-.4 0-.6.4-.5a.7.7 0 0 1-.1.5c.2.1-.2.7-.4.7a1.2 1.2 0 0 1 .2-.7Zm23.7 0a3.7 3.7 0 0 0-1.7-.4c.2-.5 1.7 0 2 .2l-.3.2Zm-27.2 0a.7.7 0 0 0-.3-.2.6.6 0 0 1 0-.4c.6 0 1.2-.3 1.6 0v.2a9.5 9.5 0 0 1-1.3.3Zm7.2-.1v-.2h.3l-.3.2Zm-2 0v-.4h.2v.3h-.1Zm17.3-.2-1-1.3.2-1.8a6.4 6.4 0 0 1 1 2.4c0 .2 0 .6-.2.7Zm-25.4-.1a2.8 2.8 0 0 1 1.4-.6c0 .5-1 .6-1.4.6Zm27.3-.1c.4-1 2.3-2 3.1-2.3a4.3 4.3 0 0 0-.9 1 8.3 8.3 0 0 1-2.2 1.3Zm-2.4-.1a3.1 3.1 0 0 1-.5-.5l.1-.1c.2 0 .3.3.4.5Zm-7.8 0c-.2-.3-.6-.4-.8-.5a8 8 0 0 1-.2-2.6c.1-.1.2-.3.4-.3a7.8 7.8 0 0 0 1.6 1.4 9.3 9.3 0 0 1-1 2ZM63.8 64c-.2-.5 1-1.8 1.2-2.2l1.2.1-.2.6a10.5 10.5 0 0 0-2 1.5h-.2Zm2 0c0-.4.2-.6.6-.6v.4a2.6 2.6 0 0 1-.5.1Zm1.2-.3a1 1 0 0 1 0-.5 5.5 5.5 0 0 0 2-.8v.1l.2-.1a2.5 2.5 0 0 1-.6 1.1l-1.6.2Zm3.7 0v-.4a13.2 13.2 0 0 1 1-1.2h.7v.2a1.8 1.8 0 0 0-1.2 1.3Zm7.6-1.9v1.6l-1-.1a2 2 0 0 1 1-1.5Zm-14.7 1.6a1.4 1.4 0 0 1-.1-.7l.8-.4-.6 1h-.1Zm27-.4a8 8 0 0 1 1.5-3.8 15.6 15.6 0 0 1-1.5 3.8Zm-19.9-.5v-.3h.4a.9.9 0 0 1-.4.3Zm6.3-.2V62l.4-.3a.7.7 0 0 1-.4.7Zm-14.8-.2v-.7a.8.8 0 0 1 .2 0v.7h.2v.2c-.1.1-.4.6-.6.6a2.5 2.5 0 0 1 .2-.8Zm6.8 0c-.3-.1-.9-.3-1-.6.4-.2.8-.6 1.2-.4 0 .3 0 .8-.2 1Zm4.1 0-.3-.1v-.3c.2 0 .3.2.4.3a.4.4 0 0 0-.1 0Zm-.6-.1-.5-.1c.2-.5.3-.2.6 0h-.1Zm-1.3 0-.3-.1a1.5 1.5 0 0 1 0-.6c.3 0 .7 0 1 .2a1.5 1.5 0 0 1-.7.4Zm2 0c0-.3-.2-.5-.3-.8.5 0 .6 0 .8.5a.9.9 0 0 1-.4.2Zm13.7-.1c-.4-.3-1-.6-1.2-1 .4-.2 1.3.6 1.3 1Zm3.7-.3.1-1.5h.4l.1.2a4.7 4.7 0 0 1-.6 1.3Zm-15 0a2.8 2.8 0 0 1 .2-1.6h.2c-.3.4-.2 1.2-.3 1.6h-.1Zm14.3-.2a11.5 11.5 0 0 0-1-.6v-1.4a4.9 4.9 0 0 0 .1-1c.9.1 1.2 0 1.2 1a9 9 0 0 0-.2 2Zm-24.3-.1c.1-.2.5-.2.4 0h-.4Zm21.1-.2a5 5 0 0 1-1.1-.9h1c.1.2-.1.5.2.8v.1Zm1.4-.6-.4-.5a1.5 1.5 0 0 1 .7.3v.1H88Zm-15.4 0a5.8 5.8 0 0 1-1.4-1c.9-.4.8-.4 1.6.3a2.8 2.8 0 0 1-.1.6h-.1Zm4.8-.4a.8.8 0 0 1 .2-.4v.3h-.2Zm10.8 0a6.8 6.8 0 0 0-2.3-1.6 5.5 5.5 0 0 1 .2-.8c.6 0 .8 1 1.2 1.1L87 58l1.4.4a12.2 12.2 0 0 1 0 1.7Zm4.3 0a1.4 1.4 0 0 1 .2-.7h.2a.8.8 0 0 1-.4.6Zm-7.2-.1c-.1-.4-1-.2-.9-.9.3-.2 1.7.6 2 .7a.5.5 0 0 0 0 .1 4.9 4.9 0 0 0-1 0Zm-16.6-.1-.2-.2c.1 0 .2-.2.3 0v.1h-.1Zm-11-.1a2 2 0 0 1 1-1c0 .3-.7.9-1 1Zm3.9-.1-.5-.4c0-.2.2-.3.4-.3a1 1 0 0 1 0 .7Zm29.8 0a2 2 0 0 1 0-.6h.5a1 1 0 0 1-.5.6Zm-10.9-.4a.3.3 0 0 1-.1-.2 1 1 0 0 1 .3 0v.2a.9.9 0 0 0-.2 0Zm.8 0c0-.7.2-.6.7-.3 0 .3-.5.3-.7.3Zm-19.2-.1a1.5 1.5 0 0 1-.2-1l.1.1a2 2 0 0 1 .2.9Zm-2.2 0a.9.9 0 0 1 .2-.4l.2.1-.4.2Zm22.6-.1-.1-.2v-.2l.4.2a.6.6 0 0 1-.3.2Zm-20-.2c-.2-.2-.2-.3-.2-.7a4.8 4.8 0 0 1 2.6.6 7 7 0 0 0-2.3 0 .5.5 0 0 0 0 .1 14.2 14.2 0 0 0 2.2 1 8.6 8.6 0 0 1-1.9 1.7l-.3-1.7a9.1 9.1 0 0 1-.1-1Zm-2 0a.3.3 0 0 1-.1-.3 6.8 6.8 0 0 1 .8-.1v.2a6.3 6.3 0 0 1-.7.2Zm30.8 0-.1-1.1a5.4 5.4 0 0 1 1.6-.3c-.3.7-1 .9-1.5 1.4Zm-25.6-.5c-.2-.2-1.2-.4-1.1-.6a7.1 7.1 0 0 0 1.5-.3h.4a2 2 0 0 1-.8 1Zm3.5 0c.2-.4.2-.5.7-.5v.2a2.6 2.6 0 0 1-.7.2ZM79 58a3.3 3.3 0 0 1-.5-.7c.1-.2.6 0 .8.2 0 .2 0 .4-.3.5Zm18.8-.2c0-.2.4-.1.5-.1H98Zm-13.3-.1a.3.3 0 0 1-.1-.3 1 1 0 0 1 .4-.1l.2.3a.7.7 0 0 1-.5 0Zm10.2 0c-.1-.2.3-.3.4-.3v.2h-.4Zm-3.6-.1a1.8 1.8 0 0 1 0-.6 1.8 1.8 0 0 1 1.8-.3v.1l-1 .4a1.5 1.5 0 0 1-.8.4Zm-9.7-.1V57c.2 0 .3.2.2.3h-.2Zm5-.7a17.3 17.3 0 0 1 2.2.2.6.6 0 0 1 0 .4c-.5 0-2.1.1-2.3-.5v-.1Zm-2.3.4V57h.3v.1h-.3Zm15 0c-.7-.3-1.4-.2-2-.4 1-.4 1.2-.2 2.1.2a.7.7 0 0 0 0 .1h-.2Zm-37-.3a1.7 1.7 0 0 1 .6-.3v.1l-.7.2Zm8.7 0c-.1-.2.6-.4.8-.4-.1.3-.5.4-.8.4Zm15.6-.1-.2-.1a6.5 6.5 0 0 1 0-1c.7 0 2.2 0 2.3.8-.3 0-1.9 0-2.1.3Zm6.8-.7c-.3.5-1.5.2-2 .2a5.7 5.7 0 0 1 .5-1.6 6.2 6.2 0 0 1 1.7.2 10.4 10.4 0 0 0-.2 1.2Zm-29 .2.2-.3h.5c0 .2-.6.2-.7.3Zm32-.3v.2H96l-.7.2V56l.2-.1a1.1 1.1 0 0 1 0-.5 4.4 4.4 0 0 1 .8 0 1.6 1.6 0 0 0 0 .7Zm-3 .1c.3-.2.2-.8.4-1.1a1.5 1.5 0 0 1 .3 0 3.6 3.6 0 0 1-.5 1.2h-.1Zm-14.2 0-.3-.1c0-.3.3-.4.6-.3v.5H79Zm5.2 0c-.2 0-.3 0-.3-.3a.9.9 0 0 1 .5.2.7.7 0 0 0 0 .1h-.2Zm13.9 0-.2-.2.8-.1v.1a2.8 2.8 0 0 1-.6.1ZM69 55.8h-.7v-.2c.9-.4 1-.6 1.7-.2a.5.5 0 0 0 0 .1 3.7 3.7 0 0 1-1 .3Zm-4.2 0-.1-.1a8.2 8.2 0 0 1 1-1 6.5 6.5 0 0 1 1 0c0 .3-1 .9-1.1 1h-.8Zm22.7-.2c-.4-.1-.9 0-1.2-.2v-.8a3 3 0 0 1 1.4 1Zm-17.2-.2-.2-.4c.4-.3.8 0 1.3 0v.2a9.7 9.7 0 0 1-1 .2Zm17.6-.1c-.3-.4-1.2-1-1.4-1.4a5 5 0 0 1 1.7-.3 2.7 2.7 0 0 1-.3 1.2v.4Zm17.5 0h-.6v-.1h.6Zm-23.5 0v-.4a1 1 0 0 1 .2 0c0 .2 0 .3-.2.3Zm16.5-.1-.7-.4c-.3-.5-.2-1.3-.5-1.8.2-.1 1.6.2 2 .3a4.5 4.5 0 0 1 .5.9 3 3 0 0 0 0-.5v-.2c.5.1 1.2.2 1.5.8l-2.8.9Zm-7 0-.1-.6h.2v.5h-.2ZM73 55l-.2-.1c0-.2.1-.2.3-.3l.4.3H73Zm29.2 0a7.8 7.8 0 0 0-1-.1l-.1-.1c.1-.2 1.4-.3 1.6-.3v.4h-.5Zm-21-.4-.5-.6c.5-.2.7-.3 1.1 0a1 1 0 0 1-.2.6v.2a.6.6 0 0 1-.4-.1v-.1Zm9.1 0a2.3 2.3 0 0 0-.3-.5l.2-.2.2.2v.5Zm-6.3 0a2.9 2.9 0 0 1 .2-.9.3.3 0 0 1 .3.1.8.8 0 0 0 0 .4c-.2.2-.3.3-.5.3Zm-9.1-.1v-.7h.1v.7Zm21.5-.2-1.4-.4a3.3 3.3 0 0 1 .5-1.2h.1a14.2 14.2 0 0 1 .9 1.6Zm5.2-.2v-.5c.1 0 .5.2.5.4l-.5.1Zm-24.3 0c.2-.6 1.5-.9 1-.2l-1 .2Zm-14.6-.3a6.1 6.1 0 0 1 3-1 1.6 1.6 0 0 1-1.1.6 14.8 14.8 0 0 0-1.9.4Zm31.6-.1-.2-.1a12 12 0 0 1 .7-1.2h.2a3.5 3.5 0 0 1-.5 1.2h-.2Zm-5 0-.3-.1v-.2h.9v.1a1 1 0 0 0-.6.1Zm-12-.1-.1-.7a1.8 1.8 0 0 1 .5-.1c.1.1.4.3.4.5a3.7 3.7 0 0 0-.9.3Zm23.5-.3c-.5-.3-1.4-.5-1.5-1.2a3.6 3.6 0 0 1 1.5 1v.2Zm-34.3 0a.7.7 0 0 1 0-.1 1 1 0 0 0 .5-.1h.2c-.2.2-.4.2-.7.2Zm3 0-.1-.2h.4l-.3.2ZM94 53a8.8 8.8 0 0 0 0-1.2c.5-.2 1-.3 1.1.1-.2.3-.7 1.3-1 1.4v.2c-.3 0-1.3-.8-1.6-1l.1-.4a3.5 3.5 0 0 1 .9-.2 6.9 6.9 0 0 0 .5 1Zm-14.6.3L79 53l.4-1a1 1 0 0 1 .1 0v1.2a.4.4 0 0 0-.1 0Zm-7.6-.1h-.2V53a.7.7 0 0 1 .4 0v.1h-.2Zm4.5 0a.7.7 0 0 1-.2-.5h.3v.4h-.1Zm8.8 0a.8.8 0 0 0-.5-.2v-.2l.6.1v.2H85Zm-6.4-.3a.8.8 0 0 1-.3-.4c.3 0 .5-.2.7-.3a2.2 2.2 0 0 0-.3.7Zm-7-.1-.3-.2 1.1-.1c0 .2-.5.2-.7.3Zm4.3-.3a.7.7 0 0 1-.3-.3h-.3a.6.6 0 0 1 1.1-.2 1.4 1.4 0 0 0-.1.4H76Zm16.1 0v-.1c0-.2.1-.3.3-.3 0 .2-.1.3-.3.3Zm-25.9-.2.1-.7.7.5-.8.2Zm11.2 0V52a3.5 3.5 0 0 1 1.4-.4l.2.1c-.1.3-1.4.6-1.6.7Zm6.7 0h-.2c0-.2.6-.3.8-.3v.1l-.3.2c0 .3-.3.3-.5.3 0-.2.2-.1.2-.3Zm3.3 0v-.4c.3-.2.6-.4.7.1a1.1 1.1 0 0 1-.7.2c0 .3-.7.6-1 .6 0-.2.6-.5.7-.7l.3.1Zm10.8-.2a4.6 4.6 0 0 0-1.4-.4l-.1-.2c.4-.4 1.6 0 1.6.6Zm-9.8-.2c-.1-.1-.3-.2-.3-.4a4.4 4.4 0 0 1 1.8-.5c0 .5-1 .7-1.5.9Zm1.2-.2a4.2 4.2 0 0 1 .8-.3l-.8.3Zm-15.5 0a10.8 10.8 0 0 0-2.5-.4c-.1-.8-.4-.6 0-1.4a7.7 7.7 0 0 1 .5-2.1h.1l1 .8-.2.2h.3v.1a41.3 41.3 0 0 0-.5.4l.8-.2a10.9 10.9 0 0 1 .9 1.2 8.7 8.7 0 0 1-.3 1.4Zm26.2-.1-1.3-.8c.5 0 1.5 0 1.3.8Zm-24.8 0a4.3 4.3 0 0 1-.2-1.2 4 4 0 0 1 1-.6l.3.2v1.2a3.6 3.6 0 0 1-1.1.4Zm3.7 0a.5.5 0 0 1-.1-.3l.4-.2-.1.4h-.2Zm-9.4 0a3.3 3.3 0 0 0-.6-.6l.1-1.5a1.1 1.1 0 0 1 .6 0v.8c-.3.3.1.8 0 1.2Zm7.7-.1a.6.6 0 0 1 .8-.4v.1a3.4 3.4 0 0 1-.8.3Zm4-.2.2-.6h.7a.8.8 0 0 1-.2.5H82a.8.8 0 0 0 0 .1h.2a8 8 0 0 0 0 1.3 6.2 6.2 0 0 1-1.8 1 4.6 4.6 0 0 0 1.1-2.2l.2-.1Zm3.7 0v-.1c.2-.2.4-.3.6-.2v.1a7.1 7.1 0 0 1-.6.2Zm-1.4 0a.6.6 0 0 1 0-.4h.1a.4.4 0 0 1 .2.3h-.3Zm-6.4-.2c0-.1 0-.7.2-.3l-.2.3Zm7.5 0v-.3a.6.6 0 0 1 .3 0c0 .1 0 .2-.3.2Zm-6-.1a.7.7 0 0 1 0-.6l.7-.3c0 .7 0 .7-.7.9Zm7.4 0-.3-.2a.6.6 0 0 1 0-.1.5.5 0 0 1 .5.2h-.2Zm-27.2 0a6.3 6.3 0 0 1-.7-1.8 3 3 0 0 1 .8 1.7Zm28.2-.4v.1a.4.4 0 0 1-.5 0v-.1h.5Zm-19 0a10 10 0 0 0-1.6-.5 1.1 1.1 0 0 1 .2-.7 5.7 5.7 0 0 1 1.4.3 7.6 7.6 0 0 1 0 .9Zm31.8 0a1.2 1.2 0 0 0-.5-.2 2.7 2.7 0 0 0-.6-.5v-.1c.4-.2.7 0 1 .2a1.2 1.2 0 0 1 0 .6Zm-12.5-.1-.3-.2v-.1a6.8 6.8 0 0 1 2.2-.8 1.5 1.5 0 0 1 .4.7 7.5 7.5 0 0 1-2.3.4Zm-7.3-.1c0-1 .8-.8 1.6-.8 0 .2-.5.2-.6.2a2.7 2.7 0 0 1-1 .6Zm-9.8 0a1.4 1.4 0 0 1 .1-1.5v1.3h.1v.1h-.2Zm14.3 0a1 1 0 0 1-.4-.3V50l.6.2-.2.1ZM74.5 50a3.6 3.6 0 0 1-.7-1 2.7 2.7 0 0 1 .8-.3 7.5 7.5 0 0 1 0 1.2.3.3 0 0 0-.1 0Zm-9.3 0a2.5 2.5 0 0 1-.5-1l1 .1a3.8 3.8 0 0 1 0 .8h-.5Zm24.9 0-.3-.8a6.4 6.4 0 0 1 1-.2v.7a1.9 1.9 0 0 1-.7.2Zm7.5-.1-.3-.1a.4.4 0 0 1 0-.2 3.4 3.4 0 0 1 .7.1v.1h-.4Zm-19-.2-.6-.7c.3-.2 1.2.1 1.4.4a2.8 2.8 0 0 1-.8.3Zm13 0a2.2 2.2 0 0 1 0-.7 2.3 2.3 0 0 1 1.5.3l-1.6.3Zm6.9 0c-.3-.2-.1-.4 0-.6a6.5 6.5 0 0 1 1.3 0l-1.3.5Zm-.7-.2-.2-.1v-.2c.3 0 .5-.2.5.3Zm-38.8 0c-.3-.2-.4-.5-.5-.8l.2-.3c.2.2 0 .6.3.9a.3.3 0 0 1 0-.1c0-1-.2-1.5 1.3-1.7a1.6 1.6 0 0 1 .7-.2 4.3 4.3 0 0 0 .6.8 5.7 5.7 0 0 0-1.5 1.2l.6-.3c1.2-.6 1.1-.8 2 0 0 .7-1.6 1.7-1.4 2.6.3-.3 1.8-1.9 2.1-1.9l2.2 2.3a.9.9 0 0 1 0 .4c-.8.3-3.2.8-3.7 1.8a3 3 0 0 0-.9.8h.2a14.1 14.1 0 0 1 4-.5 6 6 0 0 1-.8 1.1c-.4 0-2.4.3-2.4.8a6.2 6.2 0 0 1 2.2-.5.3.3 0 0 1 0 .2 5.6 5.6 0 0 0-2.7.8h-.1l-.8-2.1a17 17 0 0 0-.7-2 5.6 5.6 0 0 0-.7-2.7 1.5 1.5 0 0 0-.2-.7Zm10.8-.3-.4-.2v-.7c.2.2.5.7.4 1Zm11-.1h-.4l.4-.1-.4-.3c0-.6-.2-2.5.2-3 .4-.1 2.8-.7 3-.4a1 1 0 0 1 .4-.1.7.7 0 0 0 0 .1c-.4.2-.4.2-.5.1a4.5 4.5 0 0 0-1.8 3 8.8 8.8 0 0 1 4.5-2.5h.1v.2a2.2 2.2 0 0 0-1.4.8c1.4-.2 2.1-.7 3.1.6a4.2 4.2 0 0 0-2.6 1.1.7.7 0 0 0 0 .1 14.7 14.7 0 0 0 2.7-.7h.4c.2.2.3.2.4.5a10.1 10.1 0 0 0-3 1.4c-1.2.1-2.7-.8-4-.9-.2.3-.8 0-1 0Zm12.4 0c0-.3-.2-.2-.4-.3a2.1 2.1 0 0 0-1.2-.6c0-.7.3-1.2.3-1.8a11.2 11.2 0 0 1 1.1-1.4h.1c.3.4 1.3 1.5 1.3 2-.8.4-.7 1.5-1.2 2Zm1.2 0-.1-.2a9.7 9.7 0 0 1 .2-1.5A1.4 1.4 0 0 1 95 49l-.5.1Zm4.4-.3c0-.4.9-.6 1.2-.5v.5h-1.2Zm-2.2-.3a3.8 3.8 0 0 1 .1-1 7.3 7.3 0 0 1 1.5-1.7c.1.6-1.2 2.2-1.5 2.7Zm-23.4-.1a8.6 8.6 0 0 0-1-.9v-.2a6 6 0 0 1 2 .8.4.4 0 0 1-.2.3c-.1-.2-.6 0-.8 0Zm16 0-.1-.4c.2-.3 1.4 0 1.7.2v.1h-1.5Zm-12.7-.1-.2-.1a.5.5 0 0 1 .2-.4h.2v.5h-.2Zm-11.2 0c.1-.4.6-1.1 1.1-1-.4.5-.4.9-1 1Zm14.3-1.7v1.8a2.6 2.6 0 0 1-1-.1h-1c-.2-1-.4-1.8.6-2.2h.5a1.4 1.4 0 0 1 .9-.1v.6Zm-10 1.5a.6.6 0 0 1 0-.4 1.1 1.1 0 0 1 0-.1l.1.5Zm25.5 0a4 4 0 0 1-.4-1.1c-.2-.1-1.6-2-1.2-2.4 0-.6 2.2-2.8 2.8-2.9l-.1.6c-.3.2.1 2.4.4 2.3a9.5 9.5 0 0 1 1-1.3c.4-.6 1.6-1.7.4-1.8 0-.3.8-.2 1-.2a.3.3 0 0 1-.2.3l.2.1c.1 1.6.6 2.4-1 3.2a6.8 6.8 0 0 0-1.5 1.3c-1 .4-.8 1.3-1.4 2Zm-27 0a.4.4 0 0 1 0-.4.8.8 0 0 1 .1 0v.4Zm7.5 0c-.2-.1-.2-.1-.1-.3l.2.2v.1h-.1Zm.4 0c-.5-.6-.5-.5-.5-1.3l.9.8-.4.5Zm-8.7-.1a2 2 0 0 0-.2-.5c.4 0 .4.2.3.5h-.1Zm23.2 0a7.5 7.5 0 0 0-1.6-.5 10.7 10.7 0 0 0-3.4-2.4V45a5.8 5.8 0 0 1 2.5-.5l1 .2-.3-.3a12 12 0 0 0 2.4-.3c0 .5 0 2.1-.3 2.5a7.9 7.9 0 0 1 0 1.3h-.3Zm15-.2a16.3 16.3 0 0 0-3.5-.2c.8-1.1 1.4-.6 2.5-.3.3.3 1 0 1.3.4l-.3.1ZM63 47.5l-.7-.4c.2-.5 1.8-.5 2.2-.3a1.6 1.6 0 0 1-1.5.7Zm-3.2-.1a2 2 0 0 0 .3-.9c.3 0 .5.2.5.4a2.1 2.1 0 0 1-.8.5Zm16.8 0-1-.9c-.2-.9.3-1.8.3-2.7.3-.5.5-.4 1-.2l-.2 3.8h-.1Zm24.6-.1c0-.4-.2-.7-.3-1.1.4-.1.7.4 1 .5a4.5 4.5 0 0 1-.7.6Zm-43.7-.4a1.1 1.1 0 0 1 1-.8 1.7 1.7 0 0 1-1 .8Zm3.5-.1.4-.7.4.1v.3l-.8.3Zm-.4-.2v-.2l.4-.2a.5.5 0 0 1-.4.4Zm-1.4 0v-.2a2.2 2.2 0 0 1 .8-.2 3.6 3.6 0 0 1-.8.3Zm18.3-.2a10.7 10.7 0 0 1 .9-2 1 1 0 0 1 .7.2.8.8 0 0 1-.3.7c-.8.7-1.1 1-1.3 1Zm-8-.2a.7.7 0 0 1 0-.4 5.6 5.6 0 0 1 1.3-.2c-.1.4-.9.6-1.2.6Zm30.7-.5a8 8 0 0 0-1.4.5c-.2-.3.8-1.7 1.1-2 .2.1.4 1 .5 1.3.7 1.5.6 1.2-.2 2.5l-1 .1a2.5 2.5 0 0 1 .4-1.2h.2v-.1h-.1c0-.4.3-.9.5-1.1Zm-40 .5V46a2 2 0 0 1 .6 0 1.2 1.2 0 0 1-.5.2ZM68 46a.9.9 0 0 1-.3-.2l.6.1v.1H68Zm.3-.2a6.4 6.4 0 0 0-2.3-.6c-.2-.3-1.1 0-1.5-.3 0-1.4 2.3 0 3 0 .3.4.7 0 .9.9Zm1.6-.4a.7.7 0 0 0 0 .1l-1.1.3a.8.8 0 0 1 .3-.6 3 3 0 0 1 .8.2Zm-1.3.3c-.1-.1-.3-.4-.2-.6h.2v.6Zm3.8-.1a2.2 2.2 0 0 1-.6 0 1.8 1.8 0 0 1-.2-.7c.3 0 .4.4.7.5-.3-.5-1-1-1.2-1.4a18.1 18.1 0 0 1 3.8 2.4v.5h-.3l.2.2v1.1a9.8 9.8 0 0 1-2.5-1 6.5 6.5 0 0 1 .2-.8h.1V46a12.6 12.6 0 0 1 1.5.6c-.2-.4-1-.6-1.3-.8v-.1h.1v-.2h-.5Zm-16.4 0-1-.8c0-.3.7-.3.9-.2a1.9 1.9 0 0 0 .3.8l-.2.3Zm21.5 0a14.7 14.7 0 0 1 0-1.7l.7.3a3.7 3.7 0 0 1-.7 1.4Zm-17.7 0a2.2 2.2 0 0 1 .4-.7 1.3 1.3 0 0 0 .4 0c0 .3-.6.6-.8.6Zm10.1-.2-.4-.4c0-.3.3-.7.4-.9h.1a9.8 9.8 0 0 1 .8 1.3 2.5 2.5 0 0 1-.9 0Zm-12.8 0c.1-.3.4-.2.6-.2a1.4 1.4 0 0 1-.6.2Zm17.8 0a30 30 0 0 0-4.2-2.6l-.1-.1.2-.4a13.2 13.2 0 0 1 4.2.8 13.8 13.8 0 0 1 0 2.3h-.1Zm16.9-.7V44c.3 0 .4 0 .6.2a9.1 9.1 0 0 0-.5 1.1l-.1.2v-1Zm-31.3.7c.2-.5 1-.5 1.4-.3 0 .3-1 .2-1.4.3Zm31.9 0a1.7 1.7 0 0 1 .3-.7c.4 0-.1.6-.3.7Zm-33.9-.3-.2-.1v-.1h.4v.2h-.2Zm26.7 0-.6-.3v-.2l1-.4a7.9 7.9 0 0 1 .9.1c0 .2-1 .6-1.3.7ZM59 44.7a2.6 2.6 0 0 1 1.1-1 5.6 5.6 0 0 0-1 1Zm0 0H58.5c0-.3.1-.3.3-.4a2.5 2.5 0 0 0 0 .4Zm-20.2 0a3.3 3.3 0 0 1 1.8-1.6 6.3 6.3 0 0 0-1.7 1.6Zm42-.2c-.4-1.3 1.8-.4 2.4-.2v.1l-2.5.1Zm3.6 0c-.3-.1-.8-.3-1-.6h.6c.2.2.7 0 1 .1a1.2 1.2 0 0 1-.6.5Zm8.7 0a.3.3 0 0 1 0-.4l.2.3a.3.3 0 0 1-.2.1Zm-34.8 0c-.2-.2.4-.5.5-.6-.1.3-.3.5-.5.6Zm4.2 0a4.6 4.6 0 0 1-.5-.2c0-.2 1.3-.8 1.7-.8-.3.3-.8.9-1.2 1ZM51 36.7l.2.5 2.5 2.3.5 1c.3 1 1.4 2.3 1.4 3.2-.2.1-.2.2-.3.4-.8.5-.5.2-1.1-.5-.8-.6-.9-.7-1-1.7-.4-.4-.4-1.4-.8-2 0-.9-1.2-1.4-2-1.7-.2-.3.3-1.4.6-1.5Zm3.2 7.6c-.4-.3-.7-.3-.7-.8a1.7 1.7 0 0 1 .8.7Zm14.4 0c-.2-.3-.2-.8-.2-1.1a2.1 2.1 0 0 1 .6.2c0 .1-.2.8-.4.8ZM57.3 44l-.4-.1c.2-.3.8-.3 1.1-.3a2.4 2.4 0 0 1-.7.4Zm21 0-.7-.4v-.6c.3 0 1 .3 1 .5s-.1.4-.3.5Zm9.2-.2a2.7 2.7 0 0 0-.5-.2.8.8 0 0 1 0-.1 18.6 18.6 0 0 1 2.7-.7l1 .4a12.6 12.6 0 0 0-3.2.6Zm-16.7-.3.1.3-.4-.4a1.5 1.5 0 0 0-.2-.1.5.5 0 0 1 .1-.3c.7 0 1.2.8 1.8.9a.5.5 0 0 1 .1 0 24.5 24.5 0 0 1 2.6 1.7v.2l-2.5-1.7c-.5 0-1.1-.5-1.6-.6Zm21.6.3c-.8-.5-.5-1.1-.1-1.8l.4.3c0 .4-.4 1.1-.2 1.5Zm-25-.2a9.8 9.8 0 0 0-1.4-.2c0-.2.6-.5.8-.6.7.1.4.4.7.7v.1h-.2Zm-11 0v-.3l.2-.1a1 1 0 0 1 0 .4h-.3Zm.4-.1v-.5a7 7 0 0 1 2.5-.3v.4a1.1 1.1 0 0 1-.6.1c-.4-.6-1.3.2-1.9.3Zm22.3 0c-.2-.2 0-.4.2-.6a.4.4 0 0 1 .2 0 .5.5 0 0 1-.4.6Zm-14.5-.1a3.5 3.5 0 0 1 2-1l-1.2 1h-.8l-.7.7a3 3 0 0 1 .7 0l-.4.6a4.1 4.1 0 0 1-1.2-.2.7.7 0 0 1 0-.1c.2-.2 1.3-1.2 1.6-1Zm17.5 0-.1-.1c.5-.3 3-1.6 3.2-1.3-.2.3-.8.2-1 .6.5 0 1.2-.5 1.8-.4l.4.3v-.3a10 10 0 0 1 1.8.2v.1c-.7.2-1.5.7-2.2.7a6.3 6.3 0 0 0-4 .2Zm12-.1c-.1-.7.5-1 1.1-1.2-.2.3-.8 1.1-1.2 1.2Zm-41.4 0a27.3 27.3 0 0 1-2.9-1.2L49 42a7.6 7.6 0 0 1 3.3.6l.6.8h-.1Zm3.2 0c-.2-.6-1.4-2.7-1.3-3l1 .9c-.1-1.3-1.2-2.5-2-3.5v-.1h1c0 .2.7.8.8.8a1.7 1.7 0 0 0-.1-.6h.6l-.2 1h.1l.7-.8.8.1v.1a13.2 13.2 0 0 0-1.2 5h-.2Zm22.8 0-.4-.3.7-.2v.1c0 .2 0 .3-.3.3Zm20.6-.1v-1c-.1 0 0-.3 0-.4.3.4.6 1 0 1.4Zm-43-.2a11.5 11.5 0 0 1 1.3-4.8h.3c0 .9-.6 1.7-.6 2.6-.2.6-.3 2-1 2.2Zm20 0a1.4 1.4 0 0 1 .1-.6 1.3 1.3 0 0 1 .4.2v.2l-.6.2ZM59.7 43a1 1 0 0 1 0-.1.9.9 0 0 1 .7-.3c-.2.3-.4.3-.7.4Zm25-1.4.4.1v.1a26.7 26.7 0 0 0-3 1.2l.1-.1a16.4 16.4 0 0 1 2.3-1.2v-.1a2.6 2.6 0 0 0-2.1.3c-.8.7-.2 1.7-1.5 1.2V43a9.3 9.3 0 0 1 1.9-1.8l.3-.2c-1.1 0-1.8.8-2.7 1.2v-.4a11.3 11.3 0 0 1 1.3-1 7 7 0 0 1 2.7-.1l-.6-.5a7.6 7.6 0 0 1 2.2 1c0 .5-.5.2-.8.2l-.6.2Zm-16 1.2-.6-.1v-.3l.6.2a1.2 1.2 0 0 0 0 .2Zm.5 0-.7-.4a1.5 1.5 0 0 1 .8.2l-.1.2Zm8.3 0v-.2l.5.1h-.5Zm1.4 0a14.4 14.4 0 0 0-1.4-.5V42a7.2 7.2 0 0 1 1.7.6v.1Zm-15.6-.2a.8.8 0 0 1 .5-.2v.1l-.5.2c-.5.2-2 1-2 1.7a4.9 4.9 0 0 1-1 .2v-.1a6 6 0 0 1 3-1.9Zm1.7 0a6.2 6.2 0 0 1 1.4-.4 7.1 7.1 0 0 1-1.4.5Zm26 0-1.2-.5a2 2 0 0 1 .4-1 4.7 4.7 0 0 1 1 .2l-.1.4a5.9 5.9 0 0 1 0 1Zm-49.1 0-.1-.1a8.5 8.5 0 0 1 2.2-.3c-.4.4-1.6.4-2.1.4Zm57.8 0-.2-.7a1.1 1.1 0 0 1 .5.2l-.2.5h-.1Zm-20.4 0-1.7-.9.2-2.1h.1c.4.5 2 2.4 1.4 3Zm14.9 0v-.2c.2-.2.7-.6 1.1-.6a6.6 6.6 0 0 1-1.1.7Zm-33.4-.1c-.1-.1-.2-.1-.2-.3A5.5 5.5 0 0 1 62 42c.2.2-1 .5-1.2.6Zm-12 0a9.6 9.6 0 0 0-1-.2V42a3.5 3.5 0 0 1 1.2.2l-.2.1Zm-2.7-.2c-.1 0-.4 0-.4-.2.2 0 .6-.1.8 0v.2h-.4Zm17.7-.2-.8.2c0-.3.6-.3.8-.2Zm8.2.1c-.1.1-1-.1-1.2-.2a8.2 8.2 0 0 1 1.1.1.8.8 0 0 0 0 .1Zm-8 0V42a1.2 1.2 0 0 1 .6 0l-.5.2H64Zm12.6 0h-.2a.7.7 0 0 1 .1-.5.3.3 0 0 1 .3 0v.4h-.2Zm3-.2a9.5 9.5 0 0 0-1.4-2.4l-.2-1.1c.3-.4 1.2-2.1 1.7-2.2V42h-.1ZM65 42l-.3-.1v-.2c.3 0 1.1-.5 1.3 0a2.1 2.1 0 0 1-1 .3Zm7.1 0a.3.3 0 0 1-.4-.2h.6c0 .1.2 0 .4 0a5.9 5.9 0 0 1 1.2.2 1.4 1.4 0 0 0 .2.4 2.4 2.4 0 0 1 .1-.4c.5 0 1 .1 1 .8H75l-.8-.2a3 3 0 0 1-.9-.2l-1.2-.4Zm2.4-.2h-.2a3 3 0 0 1 0-.5h.1a1 1 0 0 1 .2.5Zm11.7 0v-.2a.8.8 0 0 1 .5 0l-.5.1Zm6.3 0v-.5c0-.1.2 0 .4 0v.4h-.4Zm8.6 0V41.4a.3.3 0 0 1 .3.2h-.3Zm-27.4-.1a10.4 10.4 0 0 1-2.2-.4v-.2a.7.7 0 0 1-.3-.3c.6-1 1.5-2 1.4-3l.2-.5a.3.3 0 0 1 .2 0c0 .5 0 1.5.4 1.9a7.6 7.6 0 0 0 .3 1.7c0 .3.2.5.1.8Zm20.7 0 .1-.3a5.5 5.5 0 0 1 1 0 .5.5 0 0 0 .1.1c-.3.3-.8.2-1.2.2Zm5.2 0-.3-.2c.2-.3 1-.2 1.2-.2l-.1.3h-.8ZM70 41.5l-2-.3-.1-.1c.2-.6 1.8-.1 2.2 0v.3a1 1 0 0 0-.1 0Zm-20 0a6.9 6.9 0 0 1-1.4-.1c0-.5 1-1.4 1.3-2 0 0 0-.8.2-.8 0 1.4 1.5 2.1 1.8 3.4a7.4 7.4 0 0 0-1.9-.6Zm13.4-.2a2.1 2.1 0 0 1-.7 0h.7Zm13.1 0a1.8 1.8 0 0 1 .1-.7c.1-.1.2 0 .2.2 0 .1 0 .4-.3.4Zm-10-.1a5.7 5.7 0 0 1-1.3-.7 7.1 7.1 0 0 1 1.9.6h-.6Zm29.8 0A4.8 4.8 0 0 0 95 41v-.1c1-1 1-1.6 2-.6h.2v.2c-.3.3-.7.7-1 .8Zm-35 0a3 3 0 0 1 .5-1v-.1c.5.8.4.8-.5 1Zm36.5-.1v-.6c.7 0 1 0 1.3.5l-1.3.1a1.5 1.5 0 0 1-1 .2c0-.2.6-.7.8-.8a1 1 0 0 0 .2.6Zm-21.7 0v-.7l.1-.5c.3.3.5 1.2 0 1.2Zm4.5 0a35.5 35.5 0 0 1 .2-5.7 1.3 1.3 0 0 0 .2-.5c.2-.2.8-.9 1.1-1l.4.9c0 .6-.8 2-.6 2.4a28.8 28.8 0 0 0 1.9-2.8l.2.2-.4 1h.1c.5-.3 1.4-1 2-1a5.2 5.2 0 0 1 .6 1.8 1.2 1.2 0 0 1 .1.7 9.4 9.4 0 0 0-3.8 2.2 8.4 8.4 0 0 1-2 1.8Zm19.3 0a2.4 2.4 0 0 1-.7-.1.3.3 0 0 1 0-.3l.8.2.3.1h-.4Zm3.4-.2h.2v.1h-1 .8ZM87.8 41a8 8 0 0 0 1.8-.6v.1a5.8 5.8 0 0 1-1.5.6l.7.1c.1.4.3.5.7.7a3.4 3.4 0 0 1-.7-.1c-.5-.4-.9-.1-1.4-.2l-.2-.4a.2.2 0 0 1-.2 0c.1-.4 1.2-1 1.6-1.2a1.4 1.4 0 0 1 .3 0v.2a4.3 4.3 0 0 0-1.1.8Zm-23.8 0a4.5 4.5 0 0 0-1.5 0c.1-.4.8-.8 1.2-.7l.4.2v.4c.5-.6.5 0 1 .1l.4.2v.1h-1v.2h-1 .2l.5-.1v-.1l-.2-.3Zm11.3 0a3.8 3.8 0 0 1-.3-2.5.6.6 0 0 1 .6.4c-.3.2 0 2-.3 2.1Zm28.2 0a6.6 6.6 0 0 0-1.2 0c-.7-.7-.7-.5-.2-1.4l1.9 1.3v.1h-.5Zm-35.7 0a11.6 11.6 0 0 1-.5-1.2l-.2.1-.3-.1a.7.7 0 0 1 0-.1 33.3 33.3 0 0 1 3.8-1.3h.1a1.6 1.6 0 0 0 .2.5l-.5 1c-.9-.5-1 0-1.7 0a1.4 1.4 0 0 1 .2.7 6.5 6.5 0 0 0-1.1.4Zm-2.3-.4c-.5-.1-1-.2-.6-.7a7 7 0 0 1 3.6-1.7 1 1 0 0 0-.1.1c-1 .6-1.9 1.7-3 1.8l.1.3v.2Zm-3 0a2 2 0 0 0-.1-.6v-.2l.7.2c0 .3-.4.4-.6.5Zm28.8 0-.7-.6v-.1l.7-.2a2.7 2.7 0 0 1 0 .8Zm-5-.2c-.4-.5-1-.6-1.5-1 .8-.1 1.4-.5 2 0l.7.1a2.6 2.6 0 0 1-1.1.9Zm-22.2-.1-.3-.2c0-.2.3-.2.5-.2l.1.2v.2H64Zm20.6-1.1-2.3 1V40a14.6 14.6 0 0 1 3.2-2.3l.8-.2v.1c-.5.4-1.5.9-1.7 1.5Zm16.4.6-.2-1.2.7.6c0 .3-.2 1.2-.5.6Zm-38 .1-.9-.3c0-.5.6-.8 1-1l.4.4-.4.9H63Zm.5 0v-.2s0-.2.2-.3h.1a.3.3 0 0 1 0 .2l-.3.2Zm37.4-.1-1.1-.6c.2-.2.3-.4.5-.4a4.9 4.9 0 0 1 .6 1Zm-11-.2-.5-.3c.2-.7 1.3-.6 1.9-.6v.3a7.4 7.4 0 0 1-1.5.6Zm-25.6-.2c-.2-.4-.3-.4 0-.7h.2v-.2a7.4 7.4 0 0 1 1.5-1l.4.3v-.5a8.9 8.9 0 0 1 2-.5l.2.3a14.5 14.5 0 0 0-1.7.8 8.5 8.5 0 0 1-2.6 1.5Zm31.7-.2a3.6 3.6 0 0 0-1.5-.6.7.7 0 0 1 0-.1 2.7 2.7 0 0 1 2.2 0c.3.5-.3.7-.6.8-.1.4-1.2 1.3-1.5 1.6a2 2 0 0 1-.9 0c-.2-.4-.3-.7-.6-.9a3.9 3.9 0 0 1-.2.8 1 1 0 0 1-.5 0v-.5h-.2l-.3.1a6.7 6.7 0 0 1 0-1c.7-.3 2.3-1 3-.4l1.1.2Zm-35.4 0c0-.3-1.3-.5-1.5-.6.1-.4.4-1.3 1-1.4 0 .7 1 1.4.9 2l.4.5a7 7 0 0 0-.5 1.8 6.4 6.4 0 0 1-2.7 1 3.4 3.4 0 0 1-1.4.4c.3-1.6 1.3-2.7 2.1-4.1a8.6 8.6 0 0 1 1.7.4Zm24.4-.1a2.3 2.3 0 0 1 1.4-.8 1.4 1.4 0 0 1 .1.6 5 5 0 0 1-1.5.2Zm14.4-.1c-.6-.2-1-.1-1-.7l1.2-.6.5.8c0 .2-.5.4-.7.5Zm-11-.1v-.1l.4-.1a.7.7 0 0 1-.3.2ZM60.3 37c1.3-.2 1.5 0 2.5.9a1.5 1.5 0 0 1-.7.8 3.4 3.4 0 0 0-1-1.3l-.8-.4Zm37.5 1.6c.1-.2.4-.2.6-.3v.3ZM58 38.2h-.2a.6.6 0 0 1 .2-.4l.2.2-.2.2Zm5.8 0a.3.3 0 0 1 0-.2l.2-.1c0 .1 0 .2-.2.3Zm11.6 0-.2-.1v-.2l.3.2-.1.1Zm18.2 0h-.8c0-.3.2-.4.4-.5a15.2 15.2 0 0 1 1.8.2v.1a8.6 8.6 0 0 1-1.4.2Zm4.3 0a.8.8 0 0 1 .3-.4l.1.2-.4.2Zm-.2 0a5.4 5.4 0 0 1-.2-1.5 1.8 1.8 0 0 1-.1-.8c.5.7 1 1.5.3 2.3ZM57.3 38a2 2 0 0 0-.6-.2c0-.2.4-.5.6-.8.3 0 .4.3.5.5l-.3.5h-.2Zm7 0a.5.5 0 0 1 .2-.7c.5 0 .2.6-.1.7Zm13.8 0c-.3-.3 0-1.4 0-1.8.3-.5 1-1.7 1.5-1.7l.1.1a1 1 0 0 0 0 1 6.3 6.3 0 0 1-1.6 2.4Zm12.2-.4v-.1a2.1 2.1 0 0 1 1.1.1v.3h-1a7.2 7.2 0 0 0-3 .6l-.4.1v-.6c.6-.5 2.9-1 3.3-.4Zm2 .3-.2-.2a1 1 0 0 1 0-.1h.3a.5.5 0 0 1-.2.3Zm6-.1v-.2a2.1 2.1 0 0 1 1-1q0 .4.2.6a2.6 2.6 0 0 1-1.1.6Zm-2.8-1.2a3.3 3.3 0 0 0-.6-1l1-.9a2.3 2.3 0 0 1 .2.8h.2c0 .7.3 1.4.3 2.2-.3-.1-.7-.7-1-.9l-.1-.2Zm-30.5.9c0-.4.4-.8.8-.5-.6.5-.6.5-.8.5Zm36.7 0a3.6 3.6 0 0 1-1.1-.2v-.2c.3 0 2-.6 2.3-.3a1.9 1.9 0 0 1-1.2.7Zm-47.7 0a1.1 1.1 0 0 1-1.1-1 2.9 2.9 0 0 1 1.2.9H54Zm16.2-.1h-.5v-.2a6.1 6.1 0 0 1 1.5-.1 9.2 9.2 0 0 0-1 .3Zm2.2 0v-.3h.2v.2Zm19 0c-.7-.6-1.3.3-1.3-1.1a.6.6 0 0 1 .4 0v.2c.4-.3.5-.6 1-.5a8.7 8.7 0 0 1 0 1.3.5.5 0 0 0-.1 0Zm-15-.2a1.4 1.4 0 0 1 .1-1 2 2 0 0 1 .4 1h-.4Zm-12.8 0c-1-.6-2.6-1.2-3.8-.6a6.2 6.2 0 0 0-.7 0v-.2a.4.4 0 0 1 0-.4c1-1 2-2 3.5-1.9V34c.1 0 2.3 0 2.6.4a14.8 14.8 0 0 0-.6 2.3 1.4 1.4 0 0 1-1 .6Zm24.6-.4a2.8 2.8 0 0 1 1.4-.3 1.3 1.3 0 0 1 .3.6 3.8 3.8 0 0 1-1.7-.3Zm4 .2a3.2 3.2 0 0 1 0-1h.6v.4l.7-.9a1.4 1.4 0 0 1 .1 0v.2a5.6 5.6 0 0 0-.7 1l-.7.3Zm8.3 0a6.6 6.6 0 0 0-.4-1c.4-.5 1.4-1.8 1.6-.5-.3.6-.4 1.3-1.2 1.5ZM69 37a.6.6 0 0 1 0-.4 3.6 3.6 0 0 1 1.9 0 12.2 12.2 0 0 0-1.9.3Zm19.2-.2a2 2 0 0 1-1 .1c-.1-.6.3-1.8-.1-2.2-.2-1.1.5-.2.9.2l-.1.2h.2a3.2 3.2 0 0 1 .7.8 2.3 2.3 0 0 0-.6 1Zm17.6.1c-.2-.1-.5 0-.7-.2l.8.1a.7.7 0 0 0 0 .1Zm-31 0a7.6 7.6 0 0 0-1.2-.3c0-.4 1.2-1.3 1.5-1.4a.7.7 0 0 0 0 .1c-.4.7-.2.8-.2 1.5h-.2Zm-23.8-.3c0-.2.4-.5.5-.6.5 0 .6.3.8.7l-1.3-.1Zm50.4.2v-.2c.4-.2 1.1-.8 1.3-.1a8.6 8.6 0 0 0-1.3.3Zm-3.3-.1c-.5-1-.3-.8.2-1.5h.1l.3.4-.5.7-.1.4Zm-26.5 0c-.2-.2-.8-.2-1-.4 1.1 0 2-.4 3.1-.3l-.5.6a11.7 11.7 0 0 0-1.6 0Zm31.4-.2a.5.5 0 0 1 0-.5h.2v.4h-.2Zm1.4-.1v-.1c.1 0 1-.8 1.2-.2a4.5 4.5 0 0 1-1.2.3Zm-37.8-.1.1-.6a1.4 1.4 0 0 1-1.1.5 4 4 0 0 1 .7-1.5c.3 0 1.5.8 1.4 1.3a1.9 1.9 0 0 1-1 .3Zm28-.2V36h.2a1 1 0 0 1 .3.4h-.2l.3.3h-.6a.7.7 0 0 1 0-.5Zm14.1-.7a6.5 6.5 0 0 0 1.4-.1c-1 .3-1.6 1.3-2.6.7V36l1.2-.5Zm-50.3.8c0-1 1.6-2.3 2.6-2.3 0 .4-.8.7-1 1-.5.4-1 1.2-1.6 1.3Zm47.6-.2-.3-.3.6-.2c0 .2 0 .4-.3.5Zm-8.4-.3-.9-1.4c0-.2.1-.6.4-.6a4.5 4.5 0 0 1 .6 1.9 1.2 1.2 0 0 0-.1 0Zm-32.5 0a3.3 3.3 0 0 1 .5-1.3h.3a4.4 4.4 0 0 1-.7 1.2Zm10.7 0c-.2-.3-.5-.5-.5-.7l.5-.3v1Zm2.5-.1v-.3a6 6 0 0 0 .1-1.2 2.3 2.3 0 0 1 .8.1c0 .3-.6 1-.8 1.3Zm11.4-.4-.4-.8h.2v-.2h.2l.2.1v-.2l.4-.2.5.2V34c.2.1.6.2.8.5l-.2.3a7.1 7.1 0 0 0-1.7.5Zm19.3 0c.4-.5 1-.5 1.7-.5a9 9 0 0 1-1.7.5Zm-5-.3-.4-.2a5.2 5.2 0 0 1 0-1h.6c0-.2-.5-.3-.7-.3a20.3 20.3 0 0 1 0-4.4h1.1c.6.3 1.9 1 2 1.6l-2.5 4.2a1.2 1.2 0 0 0-.2 0Zm-1.6 0a1 1 0 0 1-.2-.6c.3 0 .4.1.4.5h-.2Zm-8.3-.1a.3.3 0 0 1 0-.3h.2a.4.4 0 0 1-.2.3Zm8.8 0-.4-.6a1.3 1.3 0 0 1 .5-.2c.2.2.3.3.3.6l-.4.1Zm-22-.2c0-.3-.2-.8.3-.8a2 2 0 0 1-.2.8h-.2Zm-5.8-.1c-.5-.1-1.4-1.2-1.4-1.5a2.5 2.5 0 0 1 1.3.2c.2.2 1 .9 1 1.2a.8.8 0 0 1-.7.1v.2a.6.6 0 0 1-.3.1l-.1-.3h.2Zm2 0c-.2-.2-.2-.3 0-.3l.1.3H77Zm22.6 0a11.3 11.3 0 0 1-.9-1.2 4 4 0 0 1-1-.4c0-.4 1-1 1.4-1 .2.9 1.4 1.5 1.4 2a5.7 5.7 0 0 1-1 .6Zm-4.6 0c0-.4.5-.7.7-.3l-.7.3Zm-10.9-.3c-.2-.2 0-.7.2-1a1 1 0 0 0 .4 0 .5.5 0 0 1 .3.4l-.9.6Zm-1.5 0v-.6a.3.3 0 0 1 .2 0 .7.7 0 0 1-.2.6Zm-3.5 0-.8-.3v-.6l.7-.5.2.2v.1c-.6.5.1.6.1 1h-.2Zm2.4-.1a1.6 1.6 0 0 1 .2-.6c.4 0 0 .5-.2.6Zm9.7 0-.5-.4c.2-.2.5 0 .6.2v.1ZM78 34v-.2a.5.5 0 0 1 .2-.2v.4c0 .2 0 2.2-.2 2.2 0-.6-.4-1.9 0-2.2Zm11 0v-.2l.4-.1v.1a6 6 0 0 0-.3.1ZM74 34a7.3 7.3 0 0 0-1.8-.5.8.8 0 0 1-.4-.8 11.2 11.2 0 0 1 1.6.4 5.4 5.4 0 0 1 .7.8Zm2 0a.6.6 0 0 1-.1-.5h.2v.4Zm-8.6-1c-.6 0-.7 1-1.3.7a7.3 7.3 0 0 1 1-1.1.6.6 0 0 1 .4.2h.2a2.2 2.2 0 0 0 .3 1c-.1 0-.2 0-.3.2.8 0 1 .4 1.7 1 0-.3-.1-.6 0-.8.3 0 .4.2.6.4v-.4a6.2 6.2 0 0 1 2 .3l2.6.1.3.5a8.6 8.6 0 0 0-1 .8c-1 0-1.8-.6-2.8-.7a21.9 21.9 0 0 1-2.3 0c-.6.5-.5.5-1-.2l-1-1a6.9 6.9 0 0 0 .6-1Zm9.7.8a.4.4 0 0 0-.2-.2l.1-2.4c.1-.1-.1-.5.2-.5a30.1 30.1 0 0 1 0 3.1v.2l-.3.1v-.3Zm.8-.2c0-.2 0-.4.3-.4 0 .3 0 .3-.3.4Zm19.5 0c-.1-.2 0-.3.2-.5h.2v.2h-.3v.3Zm4.3 0-.7-.8c.4 0 .7.4 1 .7h-.3Zm-36-.1a4.7 4.7 0 0 0-1.1-.4v-.2c.5 0 1.1-.3 1.7-.4a2.2 2.2 0 0 1-.7 1Zm30.7 0-.3-.1v-.2c.3-.1.5 0 .6.3h-.3Zm5.6 0a9.5 9.5 0 0 0-1-1v-.2a1.6 1.6 0 0 1 .8-.1c.2.3.8.8.8 1.2h-.6Zm-7-.1a4.2 4.2 0 0 0-.9-.4c0-.2.6-.5.8-.6l.5.4c-.1.2-.2.5-.4.6Zm-12.3-.1-.1-.5.3.3-.2.2Zm-31.5 0-.7-1.5c0-.3 1.2-.6 1.5-.8.5-.3 1.6-1 2-.8a7.3 7.3 0 0 0-2.2 1.8c-.1.4-.2 1-.6 1.2Zm24.9 0a2 2 0 0 1-.9-1.6l.4-.7h.1a6 6 0 0 1 .6 1.2l-.1 1a.5.5 0 0 0-.1 0Zm2.3 0V33l.4-.4h.2v.2a2 2 0 0 1-.6.4Zm1.2 0-.2-.5a2 2 0 0 1 .5-.2c.2.1 0 .4 0 .6h-.3Zm-1.6-.2a1.3 1.3 0 0 1 0-.6h.2a1 1 0 0 1 0 .5l-.2.1Zm15.1-.2-.5-.2.3-1.5a3 3 0 0 1 1.3.7c-.3.3-.6 1-1 1Zm-14.7-.1v-.3a.7.7 0 0 1 .3-.1c0 .2-.2.3-.3.4Zm-3.2 0a4.6 4.6 0 0 1-1.3-1.1c-.3-.2-1-.4-1-.8a13 13 0 0 1 1.8 0 5.6 5.6 0 0 1 .6 1.8 1.3 1.3 0 0 0-.1 0Zm-25.9-1.2a2.4 2.4 0 0 1 1 1 3.9 3.9 0 0 1-1-.4 12.7 12.7 0 0 0-2 0V32c.4-.4 1.6-.1 2-.5Zm29.9 1a.3.3 0 0 1 0-.2 1.3 1.3 0 0 1 .6-.2 2.5 2.5 0 0 1-.6.4Zm14.7 0a1 1 0 0 1 .5-.6v.1l-.5.5Zm-25-.4H70h-.1l-.5.4c.7 0 1.6-.2 1.9.8h-1.8a2 2 0 0 1-.6-1.2Zm29.4-.2c-.3-.3-1.6 0-2 0-.2.3-.3.2-.5 0 .8-.4 2.5-.9 3.3-.2v.1h-.6v.2a4.4 4.4 0 0 0-1.3 1.2l-.5-.5 1.1-.7h.5Zm-19.6 0c-.2-.3-1-1.3-.3-1.6a4.1 4.1 0 0 1 .4 1.4 4.2 4.2 0 0 0 .4-1.7l.8-.1a15.7 15.7 0 0 1 0 1.7l-1.3.3Zm6.3-.2h-.1v-.3a.5.5 0 0 1 .4.1.7.7 0 0 0 0 .1.5.5 0 0 1-.3.1Zm7.5 0v-.6c0 .1.2.5 0 .6Zm-25.1 0a4.7 4.7 0 0 1 1.9-1.5c-.3.8-1.2 1.1-1.9 1.5Zm27.7-.2s-.2 0-.3-.2c.7-.6.7-.4 1.7-.3v.1l-1.4.4Zm-12 0v-.2a.4.4 0 0 1 .2 0c.1.2-.2.2-.3.2Zm-8-.1a1.2 1.2 0 0 1-.2-.7h.3v.7Zm19.5-.1a11.9 11.9 0 0 0-1.6-.6v-.1l2 .2c0 .2-.3.3-.4.5Zm-4.8-.4v.3c-.4-.1-1 0-1.3-.4a5.5 5.5 0 0 1 1-.2c.2 0 .2.2.3.2a1.1 1.1 0 0 1 .8.7c-.6 0-.6-.3-.8-.6Zm-9 .3V31h.1c.2.1 0 .3-.2.4Zm-32.5-.5 1-.5c0 .3 0 .4-.2.7.4-.1.8 0 .7.6a2.6 2.6 0 0 1-.8-.5l-.7-.2v-.1Zm35 .3a2.3 2.3 0 0 0-.7 0V31a1.1 1.1 0 0 1 1-.2v.2h-.2ZM69 31l.2-.4h.1v.2a.6.6 0 0 1-.3.2Zm21.3-.1v-.2h.4v.2h-.4Zm-18.7-.1-.7-.6V30a1.2 1.2 0 0 1 .9.7Zm10.8 0c0-.3 0-.3.2-.4l.2.1a.7.7 0 0 0 0 .1l-.4.1Zm5.7-.1v-.2h.4a.7.7 0 0 0 0 .1l-.4.1Zm-6.8 0a3.7 3.7 0 0 1-.2-.8.9.9 0 0 1 .6.1.6.6 0 0 1-.4.7Zm-8.9 0-.4-.5c.9 0 1.4-.4 2.3-.2l.2.5a9.2 9.2 0 0 1-2.1.2Zm2.3 0a1.6 1.6 0 0 1-.2-2c.6 0 .6 1.3.6 1.7v.2h-.4Zm8.4-.6h.7v.2a.7.7 0 0 1-.7-.2Zm7.2 0h-.7v-.2a1 1 0 0 1 .5 0v-.2h.4l.4.4a1.3 1.3 0 0 1-.6 0Zm5.3 0c-.3 0-1.9 0-2-.2a5 5 0 0 1 2.7-.3c0 .3-.5.5-.7.6Zm-7.7 0-1-.1h-.4v-.2h.3a.6.6 0 0 0 .1-.3c-.8.2-1.5-.2-2.2.4a6 6 0 0 1-2.2-.7c.5-.8.7-.9 1.5-1l.3.1V28c1.1-.4 3.4-.5 4.3.5 0 .2.2.4.3.5-.1.3-.4.2-.5.6a.8.8 0 0 1 .2.4l-.7.1Zm18.8 0c0-.3-.4-.6-.4-.9l.9.2a1.7 1.7 0 0 1-.4.7ZM83 30l-.8-.3.1-.3a3.3 3.3 0 0 1 .9.3v.1c-.1 0-.2 0-.2.2Zm23.2-.2-1-.7a1 1 0 0 1 0-.1c.6 0 .8.3 1.1.8ZM74 29.8l-.5-.4c.5-.7.7-.2.8.4Zm8-.1-1-.5c.2-.3 1 0 1.2 0a.4.4 0 0 1-.3.5Zm10.6 0a3.4 3.4 0 0 1 0-1c.2 0 .4.4.5.6l-.5.4Zm-.7 0-.3-.5H91c-.8.1-3.1-1.1-3.1-2a14.3 14.3 0 0 1 2-.3 22.7 22.7 0 0 1 2 1.3 166.6 166.6 0 0 0-.1 1.4Zm1.5-.4v-.1c.3-.8.5-1.7 1-2.5a3.7 3.7 0 0 0 1.6 2v.2a16.5 16.5 0 0 1-2.6.4Zm9-.1-.1-.2h.9v.4a1.5 1.5 0 0 1-.1.5 1 1 0 0 1-.4-.5h.2c0-.2-.3-.2-.4-.2Zm-29.4 0c-.1-.2-.7-.3-.7-.4l1-.1c0 .1-.1.4-.3.4Zm25.8 0V29h1.5a13.9 13.9 0 0 1 1.6.1 12.1 12.1 0 0 1 1.2 1v2.6l-.1-.4c-.6-.3-1.3-.4-2-.8h-.1a.3.3 0 0 0 0 .3c0 .5-.4.2-.7 0a14 14 0 0 0-4-1.7c0-.2.4-.4.6-.5.5 0 .8.4 1.3.4a2.2 2.2 0 0 0-1-.7 6 6 0 0 1 1.7-.3Zm-16.6 0-.3-.3c.2-.1.4-.3.6-.2l-.1.4h-.2Zm25.7-.1c-1.3-.5-2.7-.8-4-1.4a2.3 2.3 0 0 1 1 .1c.7 0 2.8.7 3 1.3ZM93 29l-.5-.6a13 13 0 0 1 .1-1.7h1.3c.2.4-.8 1.7-.8 2.3ZM81 28.9a1.2 1.2 0 0 1-.3-.5l.2-3h.2l.4 1.6c.4.4.9.9.9 1.4l-.9.4H81Zm-10.5 0c-.1-.2 1-1 1-1.1.5-.1 3-.4 2 .6a8.4 8.4 0 0 1-1.3.1 4.2 4.2 0 0 0-1.7.3Zm-1.6 0-.3-.3v-.1a1 1 0 0 1 .6-.2.6.6 0 0 1-.3.5Zm27.6-.1c-.1-.2.3-1.3.4-1.6.3-.2 1.7.4 2 .5v.1a4.1 4.1 0 0 1-2.4 1ZM79 28.7l-1-.3-.1-.8.3.1c.3 0 .7.7.9 1Zm-11-.2L65 27v-.2a2.7 2.7 0 0 1 1.2 0v.3l.3-.3a4 4 0 0 1 2 1.3c-.2.2-.2.3-.6.4Zm14.4-.2a8.7 8.7 0 0 1 0-1.4.6.6 0 0 1 .2 0l.6.6a1 1 0 0 1-.8.8Zm16 0c.4-.3.5-.5 1-.3-.4.2-.6.3-1 .3Zm-15.1-.2v-.4h.2l.1.2-.3.2Zm-9.7-.2a1.5 1.5 0 0 0-.1-.4c0-.2.3 0 .4.2a.4.4 0 0 1-.3.2Zm-5.5-.5a7.5 7.5 0 0 1 1.3-1.5 3.7 3.7 0 0 1 1.6.2c0 .4-2 1.8-2.3 1.8l-.6-.4Zm7.8.5a.7.7 0 0 1-.1-.3c.3-.4.5-.6 1-.7a3.2 3.2 0 0 1-1 1Zm24.1 0-.3-.3c.3-.6 1-.2 1.7 0a5.4 5.4 0 0 1-1.4.2Zm3-.1c-.6-.1-1.1-.5-1.6-.6.3 0 1.5.1 1.8.5l-.3.1Zm-11.3-.1a9.5 9.5 0 0 1-1-.9c.1-.2.8-.1 1.1-.1a3.1 3.1 0 0 1 0 1Zm7.1-.5c.2-.2.5-.3.7 0-.1.4-.5.2-.7 0Zm-30.8.1c-.4 0-1-.5-1.3-.7 0-.5 1.2-.6 1.6-.7a14 14 0 0 0-.3 1.4Zm15.9 0c.2-.6 1-1.3 1.5-1a4 4 0 0 1 1.6.7 2.4 2.4 0 0 1-.7-.2 4.3 4.3 0 0 0-2.4.4Zm14.8 0a2.2 2.2 0 0 1-.9-.3v-.2l.8.1.1.3ZM87.6 27a3.2 3.2 0 0 0-1.6-1v-.1a2.4 2.4 0 0 1 1-.1v.2c.4-.4 2.2.6 2.4.6a7.4 7.4 0 0 1-1.8.4Zm-10.7-.2c-.4-.2-1 0-1.4 0l-.8-1.1 1-1.2c.4.5 1.5 1.8 1.3 2.3a1.3 1.3 0 0 0-.1 0Zm-3 0-.1-.1c0-.3 0-.3.3-.5v.6Zm5.9 0a9 9 0 0 0-1.7-2.2v-1.4c.4 0 1.3.9 1.7 1.2v2.3Zm21.6 0v-.1a3.8 3.8 0 0 1 1.6-.7l.5.2v.2a15.5 15.5 0 0 0-2.1.3Zm-24.1-.2a1.1 1.1 0 0 1-.2-.4.4.4 0 0 1 .3.4Zm11-1a.2.2 0 0 1 .1 0c.5.1 2.8 0 2.8.6-.6.6-1 .4-1.6 0-.3 0-1-.3-1.2-.5Zm12.3 1c-.2-.2.4-.6.5-.8a11.3 11.3 0 0 1 1.3 0 .9.9 0 0 0 0 .2 6.8 6.8 0 0 1-1.8.6Zm3.2-.1.2-.7-.2.6Zm-11.1 0V26c.4-.1 1-.5 1.5-.2v.6h-1.5Zm19.5-.1-1.9-.7a4 4 0 0 1-.4-1.2 2.8 2.8 0 0 1 .8-.1 8.3 8.3 0 0 1 1.6 2ZM84.8 26l-.2-1.2.7-.3a3.9 3.9 0 0 1 .7 1 3.7 3.7 0 0 1-1.2.6l-.3.2c0-.1-.3-.6 0-.7l.3.4Zm13 0c-.1-.3-1-.4-1.4-.5-.3-.4-.3-1-.6-1.4a2.6 2.6 0 0 1 1.1-.9 10.2 10.2 0 0 0 1.4 2.5v.2c-.1.1-.3 0-.4.2.2.2.1.3 0 .5l-1.3-.2v-.2l1.2-.1Zm-32.6 0a7 7 0 0 1-1.3-.4c.5-.3 1 0 1.3.3Zm.7-.2v-.4h.5l-.5.4Zm-.6 0-.3-.2v-.1l.4.1v.1Zm22.8-.2h-.7.7ZM80.7 22v-4c0-.3 0-.7.4-.7 4 1.7 7.9 3.7 10.6 7.2a2.2 2.2 0 0 1 .2.8l-1 .3c-.6-.3-2.3-1-3-.3h-.5c-.2-.2-.3-.3-.5-.3v.5c-.6 0-1 .1-.6-.5 0-.6-.6-.6-1-.7-.5-.3-.6-.4-1.2-.4a4.4 4.4 0 0 0-3.4-1.9Zm29 3.7c-.2-.3-1.7-.1-1.4-.9a2.8 2.8 0 0 1 1-.1c.2.2.6.7.5 1Zm-6.5 0c-.3-.5 0-.7.3-1l.9-.2c-.4.7-.5 1-1.2 1.1Zm-9.5-.2a2 2 0 0 0-1-.2c0-.3.3-.6 0-1 .1-.5 2.8-2.3 2.8-2.3.3-.2.8-.6 1-.6.2 1-.4 1.4-.9 2.2-.3-.3-.7-.7-1-.7a2.4 2.4 0 0 0-.4 1.5v1.1h-.5Zm-21.7 0c-.2 0-.6 0-.7-.3h.5l.2.1v.2Zm-9.4-.2-.5-.2a1.1 1.1 0 0 1 1.4 0l-1 .2Zm41.6 0a.6.6 0 0 1 .6-.4c0 .3-.3.3-.6.4Zm3.6 0-1-.2v-.2a4.5 4.5 0 0 1 1 0l.2.2v.1h-.2Zm-34.3-.1c-.4-.5.5-1 .9-1a1.5 1.5 0 0 1-1 1Zm26.6 0a6.9 6.9 0 0 0-2.4-2.8 19.2 19.2 0 0 1 2-1.7 7.6 7.6 0 0 1 3.6 1c0 .2 0 1.5-.3 1.4l-.3-.3a3.4 3.4 0 0 0-1.8-.4l-.5-.1v.3h.4c.4.6.5 1.4 1.2 1.9a10.6 10.6 0 0 0-2 .7ZM60.6 25l-.5-.2a.5.5 0 0 1 0-.1h.9v.2a.8.8 0 0 1-.4 0Zm3.2 0-.4-.2v-.1a1 1 0 0 1 1 .1v.1h-.6Zm1.6-.2a.5.5 0 0 1-.2-.3h2c-.1.6-1.4.3-1.8.3Zm3.1-.2c-.2-.3.3-.3.4-.2l-.4.2Zm36-.2c-.4 0-.6-.3-1-.3a3.3 3.3 0 0 1-.3-.8 12.5 12.5 0 0 0 .8-1.1c.3 0 .8.6 1.1.8 0 .3-.2.7 0 .9l-.4.3-.3.2Zm-42 0-.3-.2a1.1 1.1 0 0 1 .9-.1c0 .2-.4.2-.6.3Zm4.2-.3c.3-.4.5-.9 1-.4a1 1 0 0 1-.4.5 1 1 0 0 1-.6 0Zm7.3 0-.6-.1a3.7 3.7 0 0 1 0-.6c.7-.3.7-.2 1.5.3v.2c-.3.3-.5.2-1 .2Zm3.3 0-.9-.3c0-.3.7-.8 1-.9v1.2Zm-12.7 0V24a.7.7 0 0 1 .4-.2v.1l-.4.2Zm5.2-.2a1.3 1.3 0 0 0-.3-.4v-.1c.1-.1.3-.4.5-.4 0 .2.2.3.4.5a.9.9 0 0 1-.6.4Zm12.5-.1c-.3-.2-.5-.3-.8-.1-.2-.2-.5 0-.8-.3v-1.3a21.7 21.7 0 0 1 2.2 1.6 3.5 3.5 0 0 1-.5 0l.3.4c.2.5.8 1.1.9 1.6a.3.3 0 0 1 .2 0c.6.6.7.6.1 1.2h-.1l-.8-1.1a4.8 4.8 0 0 1-1.1-2h.4Zm-20.7 0-.5-1a3.6 3.6 0 0 1 1.6.8l-1.1.1Zm13.4-.2a3.5 3.5 0 0 0-.7-.5V23c.5-.2.6.2.8.5H75Zm37-.2c-.7-.3-1.6-.2-2.3-.5v-.1l1.3-.2a8.7 8.7 0 0 1 1.2.6.8.8 0 0 0 0 .1h-.2Zm-45.2-.2a3.4 3.4 0 0 1 1.3-.4c0 .5-1 .5-1.3.4l-.2.2a4.8 4.8 0 0 0 0 .7 1.2 1.2 0 0 1-.9-.3v-.3c.3 0 .8-.4 1.1-.3Zm40.4.1-.4-.6c0-.6 0-.7-.7-.8a7.1 7.1 0 0 0-1.5-1.4v-.3c.8.1 3.8 2.2 3.6 2.8a4.4 4.4 0 0 1-1 .3Zm-31.4 0c.1-.6 1-1.1 1.5-1.2.2.2.1.3.1.6a5.3 5.3 0 0 0-1.6.5Zm1.5-1.8v.2c-1 .3-1.4 1.8-2.4 1 .3-.3 1-.3 1.1-.5-.2-.3-1.8-.3-2.2-.3a2.8 2.8 0 0 1-.8.2l-.2-.2a.8.8 0 0 1-.4 0v-.2a8.9 8.9 0 0 0 2.3-.2h2.6ZM71.1 23c-.3 0-.6-.2-.8-.3v-.2a4.6 4.6 0 0 1 1.3 0c-.1.3-.2.5-.5.5Zm22.8 0a4.8 4.8 0 0 1 2.1-1.7c-.2.3-2 1.6-2.1 1.6Zm-14.2-.3c-.2 0-.2 0-.8-.8h.9v.8h-.1Zm25.7 0c-.3-.3-1.2-1.1-1-1.4.4 0 1 .7 1.3.9a.4.4 0 0 1-.3.4Zm-26.5-.2c-.5-.1-.8 0-.7-.6.4 0 .7.3 1 .6h-.3Zm-7.7-.2c.2-.5.8-.3 1.2-.2a.7.7 0 0 0 0 .1h-1.2Zm25.6-.4a1.5 1.5 0 0 1 .2-.9c.3-.2.9-.7 1.2-.7a5.8 5.8 0 0 1-1.4 1.6ZM68 21.3c.4 0 2.3-.1 2.4.2-.2.2-.8 0-1-.1H68Zm39.3 0c-.1-.3-.6-.4-.8-.5v-.1l1.5.2a.6.6 0 0 1 .1.3h-.6c.1.6 2.6.7 3 1.2a2.6 2.6 0 0 1-1.2.2 12.3 12.3 0 0 0-1.5-1c-.2.1-.5-.1-.5-.3ZM98 21c.1-.3.7-.9 1-.7 0 .3-.7.7-1 .7Zm5-.6-1.6-.6a.7.7 0 0 1 0-.1c.5-.1 1.6.2 1.7.7Zm-23-1.7v-.1a4.8 4.8 0 0 1 0 1.4 6.7 6.7 0 0 0 0 1.6c-.6-.2-1.1.3-1.6 0v-.9l1.6-2Zm23.2 1.2-.6-.2v-.1a6.5 6.5 0 0 0 .8.1v.2Zm-24.9 0v-3.5c.6 0 1.2.3 1.7.5a12.6 12.6 0 0 1 0 1.3 21.3 21.3 0 0 1-1.6 2.2v-.5Zm23.8-.5c0-.2.3-.2.5-.2l.1-.2.2.1c-.1.3-.5.3-.8.3ZM77.5 19l-.7-1.4.1-1.6h.3a13.4 13.4 0 0 1 .2 2v.6h.1v.4Zm24.4-1-.3-.3a4.5 4.5 0 0 1 1.2-.5.6.6 0 0 1 0 .5 3.9 3.9 0 0 1-.9.3Zm-20.5-1c0-.4 1.5-1.8 1.8-2.2a6.2 6.2 0 0 1 1.7.7.8.8 0 0 1 0-.1 14.4 14.4 0 0 0-1.2-1c0-.5 2-2.2 2.4-2.6h.3v-.3l.2-.2a11 11 0 0 1 1.2 0 9.9 9.9 0 0 0 3.7.7l.3.2V12a1.6 1.6 0 0 1 .6 0l.2.4V12h.6a2.5 2.5 0 0 0 .3 1v-1h.2a11.6 11.6 0 0 1 1 1.9 14 14 0 0 0 .3-1.6 5.5 5.5 0 0 1 .7 2.3v.1c.6-.5-.2-2-.2-2.5.7 0 1.7 2.2 1.7 3 .2.2 0 1.2.3 1.3a8.6 8.6 0 0 0-.8-3.3l-.5-.9a9 9 0 0 1 2.2.4l2.6 1.6c.1.2.7.8 1 .8a8.8 8.8 0 0 0-4.3-3.4c-.5 0-1-.3-1.4-.4v-.1a6.1 6.1 0 0 1 1.4.4 19.4 19.4 0 0 1 5.3 2.6c0 .3-.4 1-.6 1.3a2.1 2.1 0 0 0 .3 1.1 3 3 0 0 1-2.3 1.1l1-1.6a2.7 2.7 0 0 1 .7 0 .5.5 0 0 0-.1-.3l-1.4.2a2.5 2.5 0 0 0-1.4 1.8l.4 1v.2a5.5 5.5 0 0 1-2.2 1.3 16.3 16.3 0 0 1 .7-2.4 5.6 5.6 0 0 1 .4-1c-.9 0-1.5.8-2 1.5A6.8 6.8 0 0 1 96 20l.1 1a19.1 19.1 0 0 0-3.3 2.6c-.2-1.2-.1-2.5-.2-3.7a.4.4 0 0 0-.6 0v1.8l-.1 2.6h-.1a29.6 29.6 0 0 0-9.3-6.8v.2a3.6 3.6 0 0 1-1.3-.5v-.1h.2Zm21.8.5v-.1c.6-.7 1.7-.8 2.5-1l1.2-.1v.2a29 29 0 0 0-3.7 1ZM77.6 17c-.2 0-.1-.4-.1-.5V16h.1v.9Zm3.4-.2c.1-.9 1-1.5 1.4-2.2a1.6 1.6 0 0 1 .5 0 8.3 8.3 0 0 1-1.9 2.2Zm-.3-.2c-.2-.3.2-1.6.3-2 .1-.2.6-.6.8-.2-.2.5-.7 2-1 2.2Zm27.1-.4h.5l-.5.1a4.3 4.3 0 0 1-.5 0h.5ZM78.5 16h-.2V16a9.3 9.3 0 0 1 0-2.6c.5-.1 1.1.2 1.5.4a1.5 1.5 0 0 1 0 .5c-.2.3.1 1.7.1 2v.3a1.3 1.3 0 0 1-.6-.1 1.6 1.6 0 0 1-.8-.4Zm26.3 0v-.3c.3-.2 1.3-.9 1.6-.7l.4.7-2 .3Zm-27.2-3v2.6h-.2l-.3-3a1.7 1.7 0 0 1 .5.3Zm-.6 2.6c-.2-.2 0-1.5 0-1.8l.2 1.7H77Zm-1.9-.4-1.3-.3c0-.1.5-.8.6-.7a8.8 8.8 0 0 1 .8 1Zm.1-.2a8 8 0 0 0-.7-1c0-.4.8-1 1-1.5l.5.1c-.3.4-.7 1-.7 1.4v1Zm-3.5-.4-1.2-.2a12 12 0 0 1 1.4-2.2c.2 0 .3.2.5.3a6.8 6.8 0 0 0-.6 2l-.1.1Zm-2.7-.2h-1.3v-.2l1.3.2Zm11.8 0c0-.2.1-.3.3-.3v.1c-.1.2-.1.2-.3.2Zm-11.3 0v-.2a5.6 5.6 0 0 1-1.8-.2 1.9 1.9 0 0 1 1-1.7v1.3h.1c.5-1.1.8-2.5 2.3-1.9v.2a5.8 5.8 0 0 0-1.3 2.4h-.3Zm13.9-.3a1.2 1.2 0 0 1-.4-.3 8.3 8.3 0 0 1 2.8-2.2v.1a15.2 15.2 0 0 1-2.4 2.4Zm-20.5-1.6a9.7 9.7 0 0 1-2.5.7c0-.3 1.6-1.1 2-1.3.6-.2 2.7-1.2 3.3-1a16.8 16.8 0 0 1-2.8 1.6Zm19.3.7c0-.4 1-1 1.3-1-.3.3-1 1-1.3 1Zm.6-2c-.8-.3-1.5 1.2-1.5 1.7a2 2 0 0 1-.6-.2v-1.9l2.2.3-.1.1Zm-8.9 1.6.3-.7h.4v.2a2.4 2.4 0 0 1-.7.5Zm2.8-.6.2.1v.4c-.2 0-.3-.2-.5-.4l.3-.1Zm6-.9a2.5 2.5 0 0 0 .5 0v-.2a.7.7 0 0 1 .6.7 8.3 8.3 0 0 1-1.4.8 2.9 2.9 0 0 1 .4-1.3Zm-2.9 1c-1-.3-1.2-.3-1.3-1.5h1.4v1.6Zm-7.4 0-.3-.3.1-.3c.2 0 .3.2.4.4l-.2.2Zm-4.2-.1a2.3 2.3 0 0 1 .2-.9h.5a1.2 1.2 0 0 1-.7.9Zm8.9 0c-.2-.6.3-1.6.5-.8a1.2 1.2 0 0 0 0 .7H77Zm-.4 0-.4-.2c0-.5-.3-.9-.3-1.3 1-.4.8.8.9 1.4h-.2Zm-4-.5a.4.4 0 0 0-.2-.1c0-.3.1-.4.3-.5l.3.1c-.1.2-.2.5-.4.5Zm11.4-.1a.4.4 0 0 1 0-.3h.5v.2H84Zm-12.8 0a3.9 3.9 0 0 1-.9-.7c.1-.6 1 .1 1.1.3a.4.4 0 0 1-.2.3Zm4.5-.5c-.3-.3-.8-.6-.8-1 .7 0 .7.4.8 1Zm-7.1-.1v-.1h.4l-.4.1Zm3 0a4.4 4.4 0 0 0-1-.5c.2-.6 1.2 0 1.4.1a.5.5 0 0 1-.4.4Zm23.9-.1a5 5 0 0 1-2-.4v-.1a5.7 5.7 0 0 1 2.3.4h-.3Zm-29 0a.4.4 0 0 1 0-.1c0-.2.4-.3.6-.4 0 .4-.4.4-.6.4Zm19.5-.1c.1-.3.8-.5 1.1-.5a4.8 4.8 0 0 1-1.1.5Zm-20.3 0c-.5-.1-.5-.2-1.2-.2v-.1a8.9 8.9 0 0 1 4.3-1v.1a3.3 3.3 0 0 1-1.1.4 6.8 6.8 0 0 1-2 .7ZM86.2 8a4.5 4.5 0 0 1 .9 1.7c-.4.1-.7.3-1 .6-.7.6-.5-.3-1.3.1h-.1a9 9 0 0 0-3-1 7 7 0 0 1-1-1.2l4.5-.3 1 .1ZM69 10.5c.1-.2.2-.2.4-.2 0 .3-.1.2-.4.2Zm7.2-.5a4.5 4.5 0 0 0 .2-.4c.3.2.3.3.3.6-.2.1-.4.1-.5-.2Zm-6.6 0h-.3v-.2a2 2 0 0 1 .7-.2.6.6 0 0 1-.4.5Zm6.5 0c-.4.1-.3-.4-.3-.6h.2l.1.6Zm-1.5 0-.3-.1a1 1 0 0 1 .5 0 .7.7 0 0 0 0 .1h-.2Zm2.5 0a1.7 1.7 0 0 1-.2-1c.2-.3.6 0 .8-.3h.2A1.3 1.3 0 0 1 77 10Zm-2.1-.3h-.2c0-.3.4-.4.7-.3 0 .3-.2.3-.5.3Zm-.9-.3c0-.2-.2-.1-.2-.2a2.7 2.7 0 0 1 .7.1c0 .3-.3.2-.5.1Zm-4.4 0a7 7 0 0 0-3.2 0c0-.3 1.7-.7 2.2-.8h2.1v.1a6.6 6.6 0 0 0-1 .6Zm.3 0c.1-.3.4-.3.7-.4V9.3h-.7Zm6.6 0h-.1a1.4 1.4 0 0 1 0-.4h.2v.4Zm-3.2-.1a16 16 0 0 0-2.5 0c.2-.8 2.2-.4 2.5 0Zm7.5 0-.2-.1v-.3a.6.6 0 0 1 .4.4h-.2Zm-1.1-.1V9c0-.2 0-.2.2-.2v.3h-.2Zm-4-.4c-1-1-2.9-.7-4.3-.4v-.1a6.5 6.5 0 0 1 1.4-1c.6-.2 2.5-.5 3 .2v1.3Zm-4.2-1c0-.7.9-1.4.9-2a6.1 6.1 0 0 0 .6-2.5 1.7 1.7 0 0 1-.3-1 16.6 16.6 0 0 1 1.8 0c-.3.6.3 1.2.4 1.8a4.7 4.7 0 0 1 .4 1.7c-.8 0-2.7.2-3 1.1.8-.4 2.6-1.1 3.2-.4v.2a3.8 3.8 0 0 0-3 .6l-1 .4Zm7.3-.2-.3-.2v-.3a1.6 1.6 0 0 1 1-.5 1.9 1.9 0 0 1 .3.8l-1 .2Zm-2 0c0-.6.4-1.3 1-1.2V7a4.9 4.9 0 0 1-1 .5Zm3.9-.4a3.6 3.6 0 0 1 0-.9 2 2 0 0 1 .9-.1 3.2 3.2 0 0 1 .2.9l-1.1.1Zm-2.1-.5v-.5c.5-.3.6-.4.7.3a2.4 2.4 0 0 1-.7.2ZM77 6.1c0-.6.5-.7.5-1.3a2 2 0 0 1 .2.7l-.7.6Zm3.5-.2v-.6a1.6 1.6 0 0 1 .6 0l.2.3-.8.3ZM78 4.5a.7.7 0 0 1-.1-.6 1.1 1.1 0 0 1 .1 0v.6Zm-1.1-.7c-.2-.8-1-1-1.7-1.4a.7.7 0 0 1 0-.1c1 0 1.2.7 2 1.2v.1l-.3.2Zm.8-.1a1 1 0 0 1-.4-.6c.2.2.5.3.5.6a1.2 1.2 0 0 0-.1 0ZM71.2 1A7 7 0 0 0 70 .5c.6 0 2.5-.1 2.9.3a.5.5 0 0 0 0 .1h-.3a4.6 4.6 0 0 1-1.4 0Z"/></svg>