<svg xmlns="http://www.w3.org/2000/svg" viewBox="0 0 150 150"><path fill="#73bf44" d="M80 133.5h-6.3s-.3-5-.3-6.6v-8.4h4.9l.2 6.5a29.6 29.6 0 0 0 1 5.8 11.4 11.4 0 0 1 .4 2.7Z"/><path fill="#73bf44" d="M146.4 66.8 150 64l-1.3-.3.4-3.6-3.8-.4-.4-2-1.9 1 1-3.4-4 3.1-1.9-2.8-.6 2.7-5.3-1.6 2.5-3-2.2-.4 2.8-2.3v-2l-1.1.3-.2-3.5-5.1.2 2.2-2.4-3 .2 1.8-2.5-2.6-.3 2-1.7-.8-1.9-.6-2h-1.5v-2.5l-1.5 1-.5-2.7-2.9 1.1-1-1.4-1 3-3-.2 2-3.7-1 .4-.3-2-2 1.2c-2 1.3-.4-2.5-.4-2.5l-3.9-2.2-2.2.7-.7-2.2-2 1.2-.3-1.9-3.1 1.3-1.2-2.2-2 2.4-4-3.9-2 2.7-1-2-2.3 2.3-1-3-1.2 2.4-1.6-2.1-2.7-1-1.8 1.2-2-3-1.6 1.6-.3-2.6-3 2-1-2.3-3 1.9-1.2-1.9-2.4 1.4-1-1.4-.7 2.1-2-1.8.1 2.3-3.1 4-1.9-3.2-1.8 2.4-1.1-2-1.5 3-.9-2-2.5 5.2-1.6-2-.5 3.4-1.7-1.5v4.9l-2-1.5-.2 3.7-2.2-1.9.7 4c.7 4-1.8-1-1.8-1l-.8 4.1-1.2-1.4-1.3.8-1.3-2.4-.7 3.4c-.7 3.4-1.6-1.3-1.6-1.3l-1.6-.9-3-.5-2-2.8-1.3 2c-1.3 2-3-2.5-3-2.5l1.2 3.6-1.3 4-1.8-1.9 1.7 4.3-2.7-.3-2-1-1.8.2-1.4-1.4.1 3-2.6-1.6 1.6 3.5-2.3-.3 1.4 2.9-1.5.4 3 2.7-1.9.1 1.6 2.3-2.8.5 2.6 2.4-2.2-.4 1 3.1-3.5.5 1.3 3.1-2.2-.6-2.5 1.5-3.5-1.1 2.9 3.1L2.9 67l2 2.6H2.7l.3 2.1-1.6.1.7 1.8L0 75.7l5.3 2-2.6 1.9 1.8.2L3.1 82l2.5.4L4.3 84 8.6 85 7 86.5l2 .5-2 1.5-2.2.8 3.4 1.6-2.5.8 1 1.6H4.5l1.3 1.5-2.6 1.3 2.4.8-1.2 1.8 3.8.2.2 1.8h2.4l-1 1.9 3-.8-.6 2 2.6-.6v2l1.8-.2-.7 2 4.9-1-1.1 1.6 3.6-.8-.3 2 3.4-1.6-.6 1.6 3.5.6-.8 1.2 2.5.3-1.6 1.6-1 2.2 3.7-.4-1.1 1.9 2.6-.5.7 1.7L38 115v1.3l2.7-1.6.7 2.8L43 116l.4 1.4 3.3-2.4-1.6 2.4 2.6-.5-.3 1-1 1.5-.6 2.2 4-2.4-.2 1.4 2-1.2 1.6 1.5 1.5-1.8.4 2 1.6-1 .5 1.8 1.3-1.8.7.7 1.2-.4 1-2.8.2 2.6c.3 2.6 2-.5 2-.5l-1.7 3.2 2.5-.8v1l1.5-.8.3.7 1-1.4.5.7.7-2.5.8.3 1.4-2 .8 1.9.8-.6v1.7l1.5-.8 1.5 2.2 1-2.5 1 1.3 2.6-1.6.5 1.2.5-1.2 1.5 2.4.2-1.1 1.7 1.3.1-2.6 1.6 4.2 2-2 4.3 4.4 3.1-3.6 2 3.9 1.4-3.7 1.4 2.8.8-2.7 3 .8v-3.5l4.7-3.3 3.8.7-1.2-3.6 4 1.3-.8-3.4 3.6-3 3.7 2 .8-3.6 3.8 2.5-.6-1.6 3.7 1.2.1-5 5-.6-2.8-2.1 3.3-1.8-1.5-.2 1.3-3.4-2-.2 1.5-1.5-2.3-.9 4.4-2.1-1.8-1 5.2-1-3.6-2.2 7.5-1-1.8-1.8 4.2-2-2.3-1 3.7-2.4-3.1-2.7 3-2.9-2.7 1L146 71l-3-.4 5.4-2.7Z"/></svg>