<svg xmlns="http://www.w3.org/2000/svg" viewBox="0 0 150 150"><path fill="#73bf44" d="M111.6 65.8a1.3 1.3 0 0 1 .2.2l.2-.2v-.5a4.8 4.8 0 0 1-.4.4.8.8 0 0 1 0 .1ZM110.7 83.1ZM108.3 66.3l.1-.4.1.2v-.5s0-.2-.2-.2a3.6 3.6 0 0 1-.4.4 3.6 3.6 0 0 1 .4.5ZM111.3 65ZM90.1 54.9l.2.1h.4l-.6-.1ZM109.4 65.5l-.1.2a1.7 1.7 0 0 1 .5 0l-.4-.2ZM73.5 56.8a1.9 1.9 0 0 1 .2 0 3.8 3.8 0 0 1 .7-.4 2.8 2.8 0 0 1-.6-.2 3.1 3.1 0 0 1 .5-.2 1 1 0 0 1-.1-.1l-.1-.1a6 6 0 0 1-.4 0l.2-.2a1 1 0 0 0-.3-.3 3.3 3.3 0 0 1 .4 0l.2-.1-.6-.4h.3a1.7 1.7 0 0 1 .2-.4l-.5.2s.1-.7.6-.8a2.8 2.8 0 0 1-.4-.4 2.8 2.8 0 0 1 .9 0 1 1 0 0 0-.3-.3 3.7 3.7 0 0 1 .6.1 2.6 2.6 0 0 1-.1-.7 4.6 4.6 0 0 1-.6.7 5.2 5.2 0 0 1-.1-.8 1.8 1.8 0 0 1-.2 0l-1.2.6a5.6 5.6 0 0 1 .3-.8 3.9 3.9 0 0 1-1.3.1 4.6 4.6 0 0 1 1-1 1.7 1.7 0 0 0-.6 0 5.3 5.3 0 0 1 1-.8l-.5-.2a5.2 5.2 0 0 1 .6-.4 2.2 2.2 0 0 0-.7 0s.1-.2.3-.4a2.8 2.8 0 0 1 0-.7l-.5.9a2.7 2.7 0 0 1-.1-1l-.3.4a7 7 0 0 1-.2-1.3c-.4 0-1.5 0-1.8-.7a1.2 1.2 0 0 1-.3 0v.3l.4.4a2.5 2.5 0 0 1-.4 0v.6l-.2.3a5.4 5.4 0 0 1 1.5-.1 4.2 4.2 0 0 1-1.4 1l.1.2a2.7 2.7 0 0 1-.3 0 1 1 0 0 1-.4 0l.2.1h-.4l.2.3h.6a2.4 2.4 0 0 1-.6.4 3.8 3.8 0 0 1 .8.2 4.6 4.6 0 0 1-.6.4 1.5 1.5 0 0 1 .2.1 6.2 6.2 0 0 1 .7.6h.8a2.3 2.3 0 0 1-.7.6h.5a5.6 5.6 0 0 1-1.2.8 6.2 6.2 0 0 1 1 .2 6 6 0 0 1-.5.3 5.5 5.5 0 0 1 .2.8l.2.2.3-.2v.4l.4.2a6.4 6.4 0 0 1 .5-1.6s.9 1.8.3 2.7a1.6 1.6 0 0 1 0 .4l.4-.2.3-.6a2.8 2.8 0 0 1 .2.8 4.6 4.6 0 0 1 .6-.7 5.2 5.2 0 0 1 .1.8ZM109.3 66.2l-.3-.3h-.1l.1.3a2.8 2.8 0 0 1 .3 0ZM109.5 65.5h.2v-.2a1.4 1.4 0 0 1-.2.2ZM110.5 65.5a2.3 2.3 0 0 1-.1-.2l-.1.2h.2ZM109.3 66v.2a1.7 1.7 0 0 1 .2 0l-.2-.1ZM72.1 45.8a1.9 1.9 0 0 1-.5.4h.4a5.2 5.2 0 0 1-1 .7 4.6 4.6 0 0 1 .8.7 2.5 2.5 0 0 1 .5-1.7h-.2ZM75.1 53.2ZM75.3 52.8v.2h.2l-.2-.2Z"/><path fill="#73bf44" d="M69.7 54.2a1.8 1.8 0 0 0 .2-.3l-.2.1v.2ZM39.6 56.4a1.1 1.1 0 0 1-.2.2h-.2l.3.1.3-.1-.2-.2ZM61.3 28H61h.2ZM75.6 52.7h-.2.1ZM51.3 57.5a4.2 4.2 0 0 1-.6-1 5.5 5.5 0 0 1 .6 0s0-.2.2-.3v-.4h-.3l.2-.3a4.5 4.5 0 0 1-1.7-.7 5.1 5.1 0 0 1 .8-.2 2.1 2.1 0 0 1 .3-.5h-.7a1.2 1.2 0 0 0-.4 0 5.1 5.1 0 0 1 .4-.4 3.5 3.5 0 0 1-.8-.5 2.8 2.8 0 0 0-.5-.3 3 3 0 0 1 0 .3h.1a1.8 1.8 0 0 1-.1.2 1 1 0 0 0 0 .3s-.1 0-.2-.2h-.2a3.1 3.1 0 0 1 .4 1 3.6 3.6 0 0 1-1-.5 2.6 2.6 0 0 1 0 .3h.2l-.1.1a1.1 1.1 0 0 0 0 .3s0 0-.2-.2a1.7 1.7 0 0 1-.4.2 1 1 0 0 1 .1 0l1 .3a2.2 2.2 0 0 1-.6.3l.7.2a2.1 2.1 0 0 1-.8.3h.4s-1.6.9-2.5.3a1.4 1.4 0 0 0 0 .5 4.3 4.3 0 0 1-.4-.6v.3a2.3 2.3 0 0 1-.3-.3v.5a2.1 2.1 0 0 1-.5-.6v.4a5.2 5.2 0 0 1-.7-1 5 5 0 0 1-.9 1 4.7 4.7 0 0 1 0-.6 2 2 0 0 1-.3-.5l-.2.7a2 2 0 0 1-.1-.3 5.4 5.4 0 0 0-.3.9 4.5 4.5 0 0 1-.3-.8 1 1 0 0 1-.2.3l-.7.7v-.3a2.3 2.3 0 0 1-.4-.3l.2.7a2.1 2.1 0 0 1-.6-.5v.2h.1v.2a4.3 4.3 0 0 1 0 .5 5.8 5.8 0 0 1 .9-.2l.5-.6a2.1 2.1 0 0 1 0 .8l.2-.4a5 5 0 0 1 0 1.4 4.8 4.8 0 0 1 1.4 0 4.7 4.7 0 0 1-.6.5 2 2 0 0 1-.1.5l.7-.3a2 2 0 0 1-.2.3 5.3 5.3 0 0 0 .9-.3 4.6 4.6 0 0 1-.3.4 3.3 3.3 0 0 1 1 0 3.6 3.6 0 0 1-1 .8 1.4 1.4 0 0 0 .5 0 4.1 4.1 0 0 1-.7.6l.3.2a4 4 0 0 1-.5.3 1.8 1.8 0 0 0 .6 0s-.2.2-.3.3a2.2 2.2 0 0 1 0 .5l.4-.6a2.1 2.1 0 0 1 0 .8l.3-.4a5 5 0 0 1 0 .6 2 2 0 0 1 .8.4h.5l-.2.3a1.4 1.4 0 0 1 .2 0v-.3l-.4-.6a2.9 2.9 0 0 1 .8.2 4.6 4.6 0 0 1-.4-.9 5 5 0 0 1 .9.2 1.8 1.8 0 0 1 0-.2 7.2 7.2 0 0 1 0-1l-.7-.8a2.7 2.7 0 0 1 1 .3 9 9 0 0 0-.4-.5 6.6 6.6 0 0 1 1.6.4 6.3 6.3 0 0 1 0-1.7 6 6 0 0 1 .6.7 2.5 2.5 0 0 1 .6.2l-.3-.9a2.5 2.5 0 0 1 .3.2 6.8 6.8 0 0 0-.3-1 5.3 5.3 0 0 1 .5.2 4.2 4.2 0 0 1 .1-1.1 4.6 4.6 0 0 1 1 1.1 1.7 1.7 0 0 0 0-.6 5.3 5.3 0 0 1 .7 1 5 5 0 0 1 .2-.5 5 5 0 0 1 .4.7 4.5 4.5 0 0 0 0-.5h-.2v-.2ZM74.5 54ZM103.6 62.4ZM97.4 31v-.3h-.1l-.1.3h.2ZM108.7 66.5a2.7 2.7 0 0 0 .1-.5 1.4 1.4 0 0 0-.2.2l.1.3ZM93.5 55.5s.8 1.3.4 2a1.2 1.2 0 0 1 .1.3l.3-.1.2-.6a2.3 2.3 0 0 1 .2.7 3.7 3.7 0 0 1 .4-.6 4.3 4.3 0 0 1 .9-1 1.8 1.8 0 0 0-.7.1 5.4 5.4 0 0 1 1-.9l-.6-.1a5.3 5.3 0 0 1 .6-.5 2.3 2.3 0 0 0-.7 0s.2-.1.4-.3a2.8 2.8 0 0 1-.2-.7l-.4.9a2.7 2.7 0 0 1-.2-1 9 9 0 0 0-.2.5 6.5 6.5 0 0 1-.3-1.6 6.4 6.4 0 0 1-1.5.7v.3a4.5 4.5 0 0 1-1-1 3.7 3.7 0 0 1 0 .4l.1.1a2.5 2.5 0 0 1-.2 0 1.4 1.4 0 0 0 0 .4s0-.2-.2-.3a2.1 2.1 0 0 1-.6 0 1 1 0 0 1 .1.1l1 .8a3 3 0 0 1-.8 0l.7.6a2.7 2.7 0 0 1-1 0l.4.3a6.8 6.8 0 0 1-1 0 1.6 1.6 0 0 1-.4.4h.4a4 4 0 0 1-.4.3v.2a1.2 1.2 0 0 0 .3-.4 4.2 4.2 0 0 1 .1 1l.4-.3a4.2 4.2 0 0 1 0 .6 1.8 1.8 0 0 0 .3-.5s0 .2 0 .4a2.2 2.2 0 0 1 .5.2l-.3-.6a2.1 2.1 0 0 1 .7.3 8 8 0 0 0-.2-.3 5.2 5.2 0 0 1 1.1.5 5 5 0 0 1 .3-1.3Z"/><path fill="#73bf44" d="m93.5 52.7-.1-.4H93a3.8 3.8 0 0 1 0 1 6.2 6.2 0 0 1 .4-.6ZM96.4 76.5a1 1 0 0 1 .1.2v-.2ZM104.2 62.2v.3h.1v.4a3.4 3.4 0 0 1 .3.1v-.3a2.7 2.7 0 0 1-.4-.5ZM87 85.7h.1ZM117.8 65.3V65a1.7 1.7 0 0 1-.2 0l.2.2ZM106.5 64.7ZM105 64.6a5.3 5.3 0 0 1 .4-1.2 5 5 0 0 1-.5.1 5.1 5.1 0 0 1 .3-.7 3.6 3.6 0 0 0-.5.3h.1a3.6 3.6 0 0 1-1 .4 1.4 1.4 0 0 0 .4.2 4.2 4.2 0 0 1-1 .3c.2 0 .3.2.4.3a4 4 0 0 1-.6 0 3.5 3.5 0 0 0 .3.3 2.8 2.8 0 0 1 1.1-.4 4 4 0 0 1-.3.6 1.4 1.4 0 0 1 .2 0c.6.1.6.3 1 .3a4.4 4.4 0 0 1-.5.2 2.6 2.6 0 0 1 .5.2 4.3 4.3 0 0 1 .3-1.3 1.8 1.8 0 0 0-.5.4ZM98.6 41v-.4l-.4-.5a2.8 2.8 0 0 1 .8.1 4.7 4.7 0 0 1-.4-.8 5.3 5.3 0 0 1 .9.2 1.6 1.6 0 0 1 0-.2 7.4 7.4 0 0 1 0-1l-.7-.8a2.7 2.7 0 0 1 1 .2l-.4-.4a6.5 6.5 0 0 1 1.6.4 6 6 0 0 1 0-1.4l-.5.3a2.3 2.3 0 0 1 0-.4 5.2 5.2 0 0 1 0-1 5 5 0 0 1-1.3.4 4.6 4.6 0 0 1 .3-.5 3.5 3.5 0 0 1-.7.4 3.6 3.6 0 0 1 .4-1.1 1.3 1.3 0 0 0-.4.2 4.2 4.2 0 0 1 .4-.9 3.6 3.6 0 0 1-.5 0 4.2 4.2 0 0 1 .3-.3 4.1 4.1 0 0 1-1.6-.6 4.9 4.9 0 0 1 .7-.2 2 2 0 0 1 .3-.4H98a5.2 5.2 0 0 1-.8-.1 1.7 1.7 0 0 1 0 .2 7.2 7.2 0 0 1 .1 1l.7.7a2.7 2.7 0 0 1-1-.1l.4.4a6.6 6.6 0 0 1-1.5-.2 6.3 6.3 0 0 1 .1 1.6l.4-.1a4.8 4.8 0 0 1-1 1.8 1.6 1.6 0 0 1-.2.2l.3.2.7-.3a2.8 2.8 0 0 1-.4.8 4.4 4.4 0 0 1 1-.2 5.2 5.2 0 0 1-.5.7 1.5 1.5 0 0 1 .2 0 3.9 3.9 0 0 1 .7.3l.7-.1a2.7 2.7 0 0 1-.7.7h.6l-.5.4a1.7 1.7 0 0 1 1 .7 1.6 1.6 0 0 1 .3 0ZM102.2 37ZM101.6 36.8a3.2 3.2 0 0 1 .3 0l.2-.3v-.1h-.1a4.4 4.4 0 0 1-.8-.1 6.4 6.4 0 0 1 .4.5ZM60.9 29.5ZM94 51.6a4 4 0 0 1-.3.5 3.3 3.3 0 0 1 .4-.4v-.1ZM95.2 51l-.4-.2a3 3 0 0 1-.1.6 1.1 1.1 0 0 1 .3-.1 1.6 1.6 0 0 1 .2-.3ZM93.6 52.3a1.4 1.4 0 0 0 0 .3v-.3Z"/><path fill="#73bf44" d="M95.5 36c.1 0 .3 0 .5-.2a6.2 6.2 0 0 1-.7-.7 6.1 6.1 0 0 1 .2 1ZM97.3 30.6ZM111.2 84v.2h.1l.1-.3-.2.1ZM56.7 88.2a3 3 0 0 1 .3 0l-.1-.3-.2.3ZM57.5 88v-.1ZM89.6 80.2a1.2 1.2 0 0 1-.3-.2l-.1.3.4.1a.9.9 0 0 1 0-.2ZM53.2 86.8ZM71.8 83.6l-.1.3v.1l.5-.2a1.6 1.6 0 0 1-.4-.2ZM31.4 50.2a1.2 1.2 0 0 1 .1.3l.3-.1.1-.6a2.3 2.3 0 0 1 .3.7 4.9 4.9 0 0 1 0-1 4.1 4.1 0 0 1-.7.4 1 1 0 0 1 0 .3ZM91.4 80.3l.4.2a5.1 5.1 0 0 1-1.3 0 4 4 0 0 1 .2.5 1.4 1.4 0 0 1 .6.7 1.5 1.5 0 0 1 .3.1v-.3l-.3-.7a2.9 2.9 0 0 1 .8.4 4.5 4.5 0 0 1-.2-.9 1.8 1.8 0 0 1-.5 0ZM29.1 82.4a4.4 4.4 0 0 1 .5.5 5.1 5.1 0 0 1-.3-.5h-.2ZM32 81.3h-.2l.2.1v-.1ZM39 28.4ZM23.6 70.8a4 4 0 0 1-.3-.2 3.8 3.8 0 0 1 .4-.2l-.3-.1a2.6 2.6 0 0 1-.6.4 5.4 5.4 0 0 1 .5.2 3 3 0 0 1 .3-.1ZM118 65.1a1.8 1.8 0 0 1 .3.4v-.4h-.3ZM117.6 65.4a2 2 0 0 1 .2.3v-.3h-.2ZM119.2 64.9a5.3 5.3 0 0 1-.3-.7 2.3 2.3 0 0 0-.1.7s-.1-.1-.3-.4a2.8 2.8 0 0 1-.6 0l.7.6a3.1 3.1 0 0 1-.3 0 5 5 0 0 1 .8 1 5 5 0 0 1 .7-1.2 3.9 3.9 0 0 1-.3-.5 5.2 5.2 0 0 1-.3.5ZM92.5 79.6a1.8 1.8 0 0 0-.1.5s-.1 0-.2-.3a2.2 2.2 0 0 1-.6 0l.6.5h-.1a5.3 5.3 0 0 1 .6.3 1.5 1.5 0 0 1 0-.2v-.3a3.9 3.9 0 0 1-.2-.5ZM105 77.2a4.1 4.1 0 0 1 .4-.5 1.2 1.2 0 0 1-.1 0 5.8 5.8 0 0 1-.8-.3l-.7.2a2.1 2.1 0 0 1 .5-.7 7 7 0 0 0-.5.2 5.1 5.1 0 0 1 .8-1 5 5 0 0 1-1.3-.5 4.6 4.6 0 0 1 .9-.3 2.6 2.6 0 0 1-.3-1.2 4.2 4.2 0 0 1 .4.3 3 3 0 0 1 0-.5h-.1a1.7 1.7 0 0 1 .1-.2 1 1 0 0 0 0-.3s.1 0 .2.2a1.7 1.7 0 0 1 .2 0 3.1 3.1 0 0 1-.5-1 3.6 3.6 0 0 1 1.1.4 3 3 0 0 1-.1-.3h-.2l.1-.1a1 1 0 0 0-.1-.2s.1 0 .3 0a1.7 1.7 0 0 1 .4-.1 1 1 0 0 1-.2 0l-1-.3a2.3 2.3 0 0 1 .7-.3l-.8-.1a2 2 0 0 1 .8-.3l-.5-.1a5.1 5.1 0 0 1 1.2-.5 5 5 0 0 1-.9-1s1.4 0 1.8.7v-.2l-.2-.5a2.3 2.3 0 0 1 .6.2 3.6 3.6 0 0 1-.2-.7 4 4 0 0 1 .6.3 1.3 1.3 0 0 1 0-.2 5.6 5.6 0 0 1 .1-.8l-.4-.7a2.3 2.3 0 0 1 .4.1 1 1 0 0 1 0-.4 3.2 3.2 0 0 1 0-.4h-.1v-.4a2.8 2.8 0 0 1-.6-.3l.3.8s-1.1-.4-1.1-1.1a4.4 4.4 0 0 1-.7.4l.3.1a3.6 3.6 0 0 1-1 .5 1.4 1.4 0 0 0 .4.2 4.6 4.6 0 0 1-.7.3v.1l.1.2h-.3c0 .2 0 .3-.2.4a5 5 0 0 1 1.4.2s-1.4 1-2 .5a1.2 1.2 0 0 1-.4.1l.2.3.5.1a2.3 2.3 0 0 1-.6.3 3.6 3.6 0 0 1 .6.4 4.1 4.1 0 0 1-.6.2 1.4 1.4 0 0 1 .1.1 5.7 5.7 0 0 1 .4.7l.8.2a2 2 0 0 1-.8.3l.4.1a5.2 5.2 0 0 1-1.2.4 5 5 0 0 1 .8 1.2 4.6 4.6 0 0 1-.9-.3 2.2 2.2 0 0 1-.2.7l.4.8h-.4a2.3 2.3 0 0 1-.4.3h.8s-.7.7-1.2.5a3.6 3.6 0 0 1 .2.7 3.6 3.6 0 0 1-1-.5 1.4 1.4 0 0 0 .1.4 4.1 4.1 0 0 1-.8-.5v.4a4.1 4.1 0 0 1-.5-.4 1.8 1.8 0 0 0 .1.6s0-.1-.3-.3a2.3 2.3 0 0 1-.4.2l.7.2a2 2 0 0 1-.9.3l.5.2a5.2 5.2 0 0 1-1.2.3 5 5 0 0 1 .7 1.2s-1.6-.4-1.7-1.3a1.2 1.2 0 0 1-.3 0v.2l.1.5a3.7 3.7 0 0 1 .3.8 1.8 1.8 0 0 0 .2-.6 5.3 5.3 0 0 1 .5 1.1 5 5 0 0 1 .3-.4 5.2 5.2 0 0 1 .2.7 2.2 2.2 0 0 0 .2-.6s.1.1.2.4a2.8 2.8 0 0 1 .7.1l-.6-.7a2.7 2.7 0 0 1 1 .2l-.4-.4a6.7 6.7 0 0 1 1.6.3 6.4 6.4 0 0 1-.1-1.7s1.5 1.4 1.2 2.4a1.5 1.5 0 0 1 .2.3l.3-.2v-.8a2.8 2.8 0 0 1 .5.7 4.5 4.5 0 0 1 .3-.9 4.8 4.8 0 0 1 .7 1.2l.4-.5v-1a2.9 2.9 0 0 1 .3.2ZM112.5 65.4ZM95.4 78.1v.2a2.3 2.3 0 0 1 .5.3v-.4a4 4 0 0 1-.5 0ZM111.6 85.8a5 5 0 0 1 .4-1.4 3.6 3.6 0 0 1-.9 1.2 1.4 1.4 0 0 1-.1.2l.3.2.6-.3a1.5 1.5 0 0 1 0-.2l-.3.3ZM94.5 79.1V79v.2ZM57 87.4a4.1 4.1 0 0 1-.1.4 4.2 4.2 0 0 1 .4 0 2.5 2.5 0 0 1-.2-.4ZM97.2 58.2a5.8 5.8 0 0 1 .4-.8v-.2l-.6.3a4.1 4.1 0 0 1 .2.8ZM96.1 57.3a4.2 4.2 0 0 1-1 0 3.8 3.8 0 0 1 .2.5 1.3 1.3 0 0 1 .1-.1 5.6 5.6 0 0 1 .7-.4ZM48.9 52.7v.1ZM60.6 29.2h.3l-.1-.1-.2.1ZM59.7 27.3ZM69.4 47.7ZM59 26l.3-.2H59v.2ZM47.5 48.8v-.2h-.2l.2.2ZM50.2 52.3a3.8 3.8 0 0 0-.3-.2 2.4 2.4 0 0 1-.7.1 3 3 0 0 1 0 .5 3.5 3.5 0 0 1 .6 0l-.2-.4a4.4 4.4 0 0 1 .6 0ZM51.5 56.6ZM98.6 58.3l-.4.1a1.7 1.7 0 0 1 0 .3 3.4 3.4 0 0 1 .4-.4ZM112 65.2v.1-.1ZM109.2 19v-.1ZM72.5 16.3v-.1l-.3-.3a2.4 2.4 0 0 1 .3.4ZM95.5 2ZM111.2 83.5v.1a1.6 1.6 0 0 1 0-.1Z"/><path fill="#73bf44" d="M105 77.3a2.4 2.4 0 0 1 .4.5v-.5l.4.4a3.2 3.2 0 0 1 .4 0 4 4 0 0 1-.3-.4 4.1 4.1 0 0 1 .6 0 3.4 3.4 0 0 0-.3-.2 2.7 2.7 0 0 1-1.1.2ZM103 62.2Z"/><path fill="#73bf44" d="M132.8 42.5a6.4 6.4 0 0 0-1.7 0 6.6 6.6 0 0 0 .3-1.5s0 0-.4.4a2.7 2.7 0 0 0 .3-1s-.3.2-.7.6a2.8 2.8 0 0 0 0-.7l.5-.1a2.3 2.3 0 0 1-.7-.3 5 5 0 0 0 .8-.2l-.4-.3a5.3 5.3 0 0 0 1.1-.5 1.8 1.8 0 0 1-.6-.2 4.6 4.6 0 0 0 1.3-.7 4 4 0 0 0-1.2-.3v-.2h.4a1.4 1.4 0 0 1-.3-.3 2.7 2.7 0 0 0 0-.3s0 0-.1.2a4 4 0 0 0-.5-.5 5.2 5.2 0 0 0 .6-.1 3.4 3.4 0 0 0-1.3-.9 5.9 5.9 0 0 0 .5-1 6.4 6.4 0 0 0-1.6.7 6.6 6.6 0 0 0-.3-1.5s0 0-.2.5a2.7 2.7 0 0 0-.2-1s-.1.3-.4.9a7.1 7.1 0 0 0-1 .4 2 2 0 0 0-.2.1 5.3 5.3 0 0 0-.1-.8 4.6 4.6 0 0 0-.6.7 2.8 2.8 0 0 0-.2-.9s-.1.3-.3.7l-.4.1a1.5 1.5 0 0 0 0-.3c.6-.9-.3-2.7-.3-2.7a6.4 6.4 0 0 0-.5 1.6c-.2 0-.3-.2-.4-.3v-.4l-.3.2h-.2a5.6 5.6 0 0 0-.2-1 1.8 1.8 0 0 1-.3.6 4.6 4.6 0 0 0-.4-1.4 4.2 4.2 0 0 0-.5 1 5.7 5.7 0 0 0-.4-.5 7.2 7.2 0 0 1-.1 1.1 2.6 2.6 0 0 0-.2-.2s0 .3 0 .9a2.6 2.6 0 0 0-.6-.4 6 6 0 0 0-.3-1 6.3 6.3 0 0 0-.6 1.7 5.6 5.6 0 0 0-.6-.5v-.1h-.1a5.9 5.9 0 0 0-.6-.4s0 .1.2.5a2.7 2.7 0 0 0-.9-.5l.3.8a4.9 4.9 0 0 0-.5.2 6.6 6.6 0 0 0-.2-1.6s0 0-.2.5a2.7 2.7 0 0 0-.2-1s-.2.3-.5.9l-.7.2-.4-.1a4.5 4.5 0 0 0 1-.6 5.7 5.7 0 0 0-1-.1 5 5 0 0 0 1.2-.9s0 0-.5 0a2.1 2.1 0 0 0 .7-.4s-.4 0-.8 0a5.7 5.7 0 0 0-.6-.6 1.2 1.2 0 0 0-.2 0 4 4 0 0 0 .6-.5 3.7 3.7 0 0 0-.8-.1 2.2 2.2 0 0 0 .6-.5s-.2 0-.6 0l-.2-.2a1.2 1.2 0 0 0 .2-.1c.8.1 1.8-1.1 1.8-1.1a5 5 0 0 0-1.3.1 5.1 5.1 0 0 0 .2-1.2s0 0-.3.3a2.1 2.1 0 0 0 .1-.8s-.2.2-.5.5a2.3 2.3 0 0 0 0-.5l.4-.1a1.8 1.8 0 0 1-.6-.2 4 4 0 0 0 .6-.2l-.3-.2a4.1 4.1 0 0 0 .8-.5 1.4 1.4 0 0 1-.4 0 3.6 3.6 0 0 0 1-.7 3 3 0 0 0-1-.2v-.2h.3a1 1 0 0 1-.3-.2 2 2 0 0 0 0-.2v.1a3 3 0 0 0-.5-.3 4.2 4.2 0 0 0 .5-.2 2.7 2.7 0 0 0-1-.5 4.6 4.6 0 0 0 .3-.9 5 5 0 0 0-1.2.7 5.1 5.1 0 0 0-.3-1.2s0 0-.2.4a1.5 1.5 0 0 0 0-.3 2.3 2.3 0 0 0-.2-.5s0 .2-.2.6a3 3 0 0 0-.6 0 1.3 1.3 0 0 0-.1.1 4.2 4.2 0 0 0 0-.6 3.6 3.6 0 0 0-.6.4 2.2 2.2 0 0 0 0-.7s-.1.2-.4.5h-.2a1.2 1.2 0 0 0 0-.3c.6-.5.3-2 .3-2a5 5 0 0 0-.8 1.1 5.1 5.1 0 0 0-.8-1s0 .1 0 .5a1.5 1.5 0 0 0-.2-.3 6.6 6.6 0 0 0 .5-.7s0 0-.6.2a2.7 2.7 0 0 0 .7-.8l-1 .3a7.3 7.3 0 0 0-1-.4 1.7 1.7 0 0 0-.2-.1 5 5 0 0 0 .6-.7 4.9 4.9 0 0 0-.8 0h-.2a2.8 2.8 0 0 0 .5-.7l-.7.3-.3-.2a1.6 1.6 0 0 0 .2-.3c1-.1 1.8-2 1.8-2a6.4 6.4 0 0 0-1.6.7 6.6 6.6 0 0 0-.3-1.6s0 0-.2.6a2.7 2.7 0 0 0-.2-1s-.1.3-.4.7a2.8 2.8 0 0 0-.1-.6l.3-.3a2.3 2.3 0 0 1-.7 0 5.3 5.3 0 0 0 .6-.5l-.5-.2a5.3 5.3 0 0 0 .9-.8 1.8 1.8 0 0 1-.6 0 4.6 4.6 0 0 0 1-1 4.3 4.3 0 0 0-1.2 0 5.6 5.6 0 0 0 .2-.5l-1 .5a2.7 2.7 0 0 0 .1-.4s-.3.2-.8.5a2.4 2.4 0 0 0 0-.7 5.8 5.8 0 0 0 .7-.7 6.4 6.4 0 0 0-1.7.3 6.6 6.6 0 0 0 .1-1.6s0 0-.3.5a2.7 2.7 0 0 0 0-1s-.2.2-.6.7a7.2 7.2 0 0 0-1 .1 1.5 1.5 0 0 0-.2 0 5.2 5.2 0 0 0 0-.8 4.6 4.6 0 0 0-.7.6 2.8 2.8 0 0 0 0-.9s-.2.2-.5.6h-.3a1.7 1.7 0 0 0 0-.4c.8-.6.5-2.6.5-2.6a6.3 6.3 0 0 0-1 1.4 6.6 6.6 0 0 0-1-1.2v.5a2.7 2.7 0 0 0-.7-.8s0 .4.1 1a2.8 2.8 0 0 0-.4-.5v-.5a2.3 2.3 0 0 1-.6.4 5.2 5.2 0 0 0 .4-.7l-.6.1a5.2 5.2 0 0 0 .4-1.2 1.8 1.8 0 0 1-.5.4 4.6 4.6 0 0 0 .2-1.4 4.6 4.6 0 0 0-.8.5c0-.7-1.2-1.1-1.2-1.1l.3.8a2.8 2.8 0 0 0-.5-.3V.5l-.8.8-.2-.2a5.9 5.9 0 0 0 0-.7 1.8 1.8 0 0 1-.4.4l-.4-.3V1l-.1.2a1.7 1.7 0 0 0-.2.1 5.2 5.2 0 0 0-.3-.7 4.6 4.6 0 0 0-.4.8 2.9 2.9 0 0 0-.4-.7s0 .2-.2.7l-.4.3a5.2 5.2 0 0 0-.1-.9 4.5 4.5 0 0 0-.6.7 2.9 2.9 0 0 0-.2-.8s-.1.2-.3.6a5.2 5.2 0 0 0-.2-1.3c-.1.4-.3.4-.7 1a1.7 1.7 0 0 0 0 .3 5.2 5.2 0 0 0-.6-.6 4.5 4.5 0 0 0-.1.9 2.9 2.9 0 0 0-.7-.6s0 .3.1.7c0 .1 0 .2-.2.3-.9-1-3-.7-3-.7l.4.3a2.7 2.7 0 0 0-1 0s.2.2.7.6a2.8 2.8 0 0 0-.7 0l-.3-.4a2.2 2.2 0 0 1-.1.7 5.1 5.1 0 0 0-.3-.7l-.3.5a5.3 5.3 0 0 0-.6-1 1.7 1.7 0 0 1-.1.6 4.6 4.6 0 0 0-1-1.2 4.4 4.4 0 0 0 0 1 5.9 5.9 0 0 0-.4-.6 6.4 6.4 0 0 0-.4 1.6 6.6 6.6 0 0 0-1.4-.7l.3.5a2.7 2.7 0 0 0-1-.5s.2.3.5.9a7 7 0 0 0-.3 1 1.8 1.8 0 0 0 0 .2 5 5 0 0 0-.8-.4 4.6 4.6 0 0 0 .2 1 2.9 2.9 0 0 0-.8-.5s.2.3.3.7v.3a1.6 1.6 0 0 0-.4-.1c-.3-1-2.2-1.6-2.2-1.6a6.4 6.4 0 0 0 .9 1.5 6.5 6.5 0 0 0-1.6.5s.1 0 .6.1a2.7 2.7 0 0 0-1 .3s.3.2.9.4a2.9 2.9 0 0 0-.8.2s.5.2 1.1.4a1 1 0 0 0 .3.1 2 2 0 0 0-.6.2l-.4-.2a1.5 1.5 0 0 1 .2.3 2.5 2.5 0 0 0-.2.1s0 0 .2 0a3.6 3.6 0 0 0 .1.5 4.6 4.6 0 0 0-1.3-.7 4 4 0 0 0 .4 1.2 2.2 2.2 0 0 0-.2.1c0-.2-.2-.3-.2-.3a1.4 1.4 0 0 1 0 .4l-.2.2h.1a4 4 0 0 0 0 .7 4.9 4.9 0 0 0-.5-.5 3.4 3.4 0 0 0 0 1.6 5.9 5.9 0 0 0-1 .2 6.3 6.3 0 0 0 1.4.8 6.6 6.6 0 0 0-1 1.2s0 0 .5-.1a2.7 2.7 0 0 0-.7.7s.4 0 1-.2a6.8 6.8 0 0 0 .9.6 1.7 1.7 0 0 0 .2 0 5 5 0 0 0-.6.7 3.8 3.8 0 0 0 1.4 0s0 .2.2.3a5.1 5.1 0 0 0-.5 0l.2.4a5.4 5.4 0 0 0-1.2 0 1.8 1.8 0 0 1 .5.4 4.1 4.1 0 0 0-1.2 0H72v.2l-.3.2a4 4 0 0 0 .1-.7 4 4 0 0 0-.4.2 4.2 4.2 0 0 0 0-1 1.3 1.3 0 0 1-.3.4 3.6 3.6 0 0 0 0-1.2 3.2 3.2 0 0 0-.6.7 4.6 4.6 0 0 0-.2-.4 5.3 5.3 0 0 1-.3.8 2.5 2.5 0 0 0-.1-.2s0 .3-.2.7a2 2 0 0 0-.3-.4 4.7 4.7 0 0 0-.1-.7 5 5 0 0 0-.8 1 5.2 5.2 0 0 0-.8-.9s0 .1 0 .6a2 2 0 0 0-.9-.3s.2.2.5.6a5.7 5.7 0 0 0 0 .8 1.1 1.1 0 0 0 0 .2 4.2 4.2 0 0 0-.5-.2l-.2-.1.1.6-.1.2a1.3 1.3 0 0 0-.2-.2c0-.8-1.4-1.6-1.4-1.6a5 5 0 0 0 .4 1.3 5.1 5.1 0 0 0-1.3 0s0 0 .4.2a2.2 2.2 0 0 0-.8 0s.2.2.6.5a2.2 2.2 0 0 0-.6 0c0-.2-.2-.3-.2-.3a1.8 1.8 0 0 1 0 .6 4 4 0 0 0-.3-.6l-.2.4a4.2 4.2 0 0 0-.6-.8v1a1 1 0 0 0 0 .4 2.3 2.3 0 0 0-.4-.1s.2.3.5.7a5.7 5.7 0 0 0-.2.8 1.3 1.3 0 0 0 0 .1 4.3 4.3 0 0 0-.6-.2 3.6 3.6 0 0 0 .3.7 2.3 2.3 0 0 0-.7-.2s.1.2.3.5v.2c-.5-.7-1.8-.8-1.8-.8a5 5 0 0 0 .8 1 5.2 5.2 0 0 0-1.1.6s0 0 .4 0a2.1 2.1 0 0 0-.7.4s.3 0 .7.1a2.3 2.3 0 0 0-.6.3s.4 0 1 .2a.8.8 0 0 0 .1 0 1.7 1.7 0 0 0-.4.3l-.3-.1a1.1 1.1 0 0 1 .2.2h-.2l.2.1a2.8 2.8 0 0 0 .1.3 3.6 3.6 0 0 0-1-.4 3.1 3.1 0 0 0 .4.9h-.1a4 4 0 0 0-.2-.1 1 1 0 0 1 0 .3l-.2.1h.2a3 3 0 0 0 0 .6 4 4 0 0 0-.5-.3 3 3 0 0 0 .2 1l-.2.3-.4.1a3 3 0 0 0-.6 0 1.3 1.3 0 0 0-.1 0 4.4 4.4 0 0 0 0-.4l.2-.2-.6.2-.3-.2a1.2 1.2 0 0 0 .2-.2c.8 0 1.5-1.5 1.5-1.5a5 5 0 0 0-1.3.5 5.1 5.1 0 0 0-.1-1.3s0 0-.2.5a2.1 2.1 0 0 0-.1-.9s-.2.3-.4.7a2.2 2.2 0 0 0 0-.5c0-.2.2-.3.2-.3a1.8 1.8 0 0 1-.6 0 4 4 0 0 0 .5-.3 4 4 0 0 0-.4-.2 4.2 4.2 0 0 0 .7-.6 1.4 1.4 0 0 1-.4 0 3.6 3.6 0 0 0 .7-.8 3.6 3.6 0 0 0-.7 0c.3-.5-.3-1.3-.3-1.3l-.2.7a2.2 2.2 0 0 0-.2-.5l.2-.3a5.4 5.4 0 0 1-.8.3l-.1-.3a4.6 4.6 0 0 0 .4-.4 1.4 1.4 0 0 1-.5 0c0-.2-.2-.3-.2-.3l-.1.3h-.2a1.2 1.2 0 0 0-.2.1 4.2 4.2 0 0 0 .1-.6 3.7 3.7 0 0 0-.6.3 2.2 2.2 0 0 0 0-.6s-.1.1-.4.4H53a4.1 4.1 0 0 0 .2-.6 3.7 3.7 0 0 0-.7.2 2.2 2.2 0 0 0 .3-.7s-.2.1-.5.3a4.1 4.1 0 0 0 .5-.9l-1 .4a1.3 1.3 0 0 0-.1.1 4 4 0 0 0-.1-.6 3.5 3.5 0 0 0-.5.5 2.3 2.3 0 0 0-.1-.6s-.1.2-.3.5a4.5 4.5 0 0 0-.7.3 1.3 1.3 0 0 0-.2.1 5.3 5.3 0 0 0-.5-.3s0 0 .2.5a2.1 2.1 0 0 0-.7-.5s.1.3.3.7a2.2 2.2 0 0 0-.5-.3v-.4l-.7.8a1.1 1.1 0 0 0-.1.2 4.4 4.4 0 0 0-.3-.7 5.4 5.4 0 0 1-.3.8 2.4 2.4 0 0 0-.2-.2s0 .2-.2.7a2 2 0 0 0-.3-.5 4.6 4.6 0 0 0 0-.7 5 5 0 0 0-.8 1 5.2 5.2 0 0 0-.8-1s0 0 0 .5a2.1 2.1 0 0 0-.5-.7s0 .2 0 .6a2.4 2.4 0 0 0-.2-.3s0 0 0 .2a4.4 4.4 0 0 0-.3-.6 1.5 1.5 0 0 1-.2.5c-.9-.5-2.5.3-2.5.3l.5.1a2.1 2.1 0 0 0-.8.3s.3 0 .7.2a2.3 2.3 0 0 0-.6.2s.4.1 1 .3a1.6 1.6 0 0 0-.4.2h-.2a1.1 1.1 0 0 1 0 .1v.1h.1a2.8 2.8 0 0 0 .1.4 3.6 3.6 0 0 0-1-.5 3.2 3.2 0 0 0 .3 1h-.1l-.2-.2a1 1 0 0 1 0 .3l-.2.1h.2a3.3 3.3 0 0 0-.1.5 3.8 3.8 0 0 0-.4-.3 2.7 2.7 0 0 0 .1 1.3 4.6 4.6 0 0 0-.9.1 5 5 0 0 0 1.2.7 5.1 5.1 0 0 0-.8.9s0 0 .5-.1a2.1 2.1 0 0 0-.6.6s.3 0 .8-.2a5.9 5.9 0 0 0 .7.4 1.1 1.1 0 0 0 .2 0 4.2 4.2 0 0 0-.5.6 3 3 0 0 0 1 0c.1 0 .2 0 .3.2a4.3 4.3 0 0 0-.4 0 4 4 0 0 0 .2.3 4.2 4.2 0 0 0-1 0 1.4 1.4 0 0 1 .4.3 3.6 3.6 0 0 0-1.2.1 3.8 3.8 0 0 0 .5.5 4.3 4.3 0 0 0-.7.3 1.1 1.1 0 0 1 .3.1 2.2 2.2 0 0 0-.7.3s.2 0 .4.1a2 2 0 0 0-.5.4 4.7 4.7 0 0 0-.8 0 5 5 0 0 0 1 .9 5 5 0 0 0-.8.5V28a4 4 0 0 0-.2.4 4.2 4.2 0 0 0-.6-.8 1.4 1.4 0 0 1 0 .5 3.6 3.6 0 0 0-.7-1 3.5 3.5 0 0 0-.1.9 4.6 4.6 0 0 0-.3-.6 5 5 0 0 0-.3 1.4 5.1 5.1 0 0 0-1.1-.6s0 0 .2.4a2.1 2.1 0 0 0-.7-.4s.1.2.3.7a5.5 5.5 0 0 0-.2.8 1.2 1.2 0 0 0 0 .1 4 4 0 0 0-.6-.3 3.5 3.5 0 0 0 .1.7 2.3 2.3 0 0 0-.6-.3s0 .2.2.4a4.4 4.4 0 0 0-1-.4 5.8 5.8 0 0 0 .5 1 5 5 0 0 0-1.4-.6s0 0 .2.4a2.1 2.1 0 0 0-.7-.3s.1.3.4.7a5.8 5.8 0 0 0 0 .8 1.3 1.3 0 0 0 0 .1 4 4 0 0 0-.7-.2 3.5 3.5 0 0 0 .3.7 2.3 2.3 0 0 0-.7-.2s.2.2.4.5v.3a1.3 1.3 0 0 0-.4 0c-.3-.9-1.9-1-1.9-1a5 5 0 0 0 .9 1 5.1 5.1 0 0 0-1.1.6s0 0 .4 0a2.1 2.1 0 0 0-.7.4s.3 0 .7.2a2.3 2.3 0 0 0-.4.2l-.4-.2a1.8 1.8 0 0 1 .2.6 4 4 0 0 0-.5-.4 3.7 3.7 0 0 0 0 .4 4.2 4.2 0 0 0-.8-.4 1.4 1.4 0 0 1 .2.4 3.6 3.6 0 0 0-1-.4 3.1 3.1 0 0 0 .3.9h-.2l-.1-.2a1 1 0 0 1 0 .3l-.2.2h.1a3.2 3.2 0 0 0 0 .5 4 4 0 0 0-.4-.3 2.6 2.6 0 0 0 .1 1.2 4.7 4.7 0 0 0-.9.2 5 5 0 0 0 1.3.6 5.2 5.2 0 0 0-.8 1s0 0 .4-.2a2.1 2.1 0 0 0-.5.7s.3-.1.7-.2a5.5 5.5 0 0 0 .8.4 1.4 1.4 0 0 0 .1 0 4 4 0 0 0-.4.5 3.6 3.6 0 0 0 .7 0 2.3 2.3 0 0 0-.4.6s.2 0 .6-.2l.2.2a1.1 1.1 0 0 0-.2.2c-.8 0-1.5 1.5-1.5 1.5a5 5 0 0 0 1.3-.5 5.2 5.2 0 0 0 0 1.3s.1 0 .3-.4a2.1 2.1 0 0 0 0 .8s.2-.3.5-.6a2.2 2.2 0 0 0 0 .5l-.3.2a1.8 1.8 0 0 1 .6 0 4.2 4.2 0 0 0-.5.4 3.7 3.7 0 0 0 .4.1 4.2 4.2 0 0 0-.8.6 1.4 1.4 0 0 1 .5 0 3.6 3.6 0 0 0-.8.8 3.3 3.3 0 0 0 .9 0 4.5 4.5 0 0 0-.2.5 5.6 5.6 0 0 1 .8-.4 2.3 2.3 0 0 0-.1.3s.3-.1.7-.3a2 2 0 0 0-.2.5 4.6 4.6 0 0 0-.5.5 5 5 0 0 0 1.4-.1 5.1 5.1 0 0 0-.2 1.2s0 0 .3-.3a2.1 2.1 0 0 0-.1.8s.2-.2.5-.5a5.8 5.8 0 0 0 .8 0 1.3 1.3 0 0 0 .2-.1 4.2 4.2 0 0 0-.1.5 1.8 1.8 0 0 0-.1.2s.2-.1.6-.2l.2.1a1.2 1.2 0 0 0-.1.3 1.5 1.5 0 0 0-1 .6 4.6 4.6 0 0 0-.4-1 5 5 0 0 0-.3 1.3l-.3-.2V49l-.2.2H30a4.5 4.5 0 0 0-.3-.8 1.4 1.4 0 0 1-.2.5 3.6 3.6 0 0 0-.5-1 3 3 0 0 0-.3 1 4.5 4.5 0 0 0-.2-.5l-.2 1a1.3 1.3 0 0 0 0 .1 3.9 3.9 0 0 0-.6-.3 2.8 2.8 0 0 0 .3 1.1 3.3 3.3 0 0 1-.2.4 4.1 4.1 0 0 0 0-.6c-.2 0-.3.2-.4.3a4.2 4.2 0 0 0-.2-1 1.3 1.3 0 0 1-.2.5 3.6 3.6 0 0 0-.5-1 3.3 3.3 0 0 0-.3.8 4.4 4.4 0 0 0-.3-.4 5.4 5.4 0 0 1 0 .9 2.2 2.2 0 0 0-.2-.2s0 .3 0 .7a2 2 0 0 0-.4-.3 4.6 4.6 0 0 0-.3-.7 4.1 4.1 0 0 0-.5 1.7 4.4 4.4 0 0 0-.4-.2v.4a4.2 4.2 0 0 0-.8-.4 1.4 1.4 0 0 1 .2.5 3.6 3.6 0 0 0-1-.3 3.5 3.5 0 0 0 .3.7 4.6 4.6 0 0 0-.5-.3 5 5 0 0 0 .5 1.3 5.1 5.1 0 0 0-1.2.1s0 0 .4.2a2.1 2.1 0 0 0-.8.1s.3.2.7.4a5.5 5.5 0 0 0 .3.8 1.2 1.2 0 0 0 0 .1 4 4 0 0 0-.6.1 3.6 3.6 0 0 0 .5.5 2.2 2.2 0 0 0-.7.1s.2.1.5.2a4.5 4.5 0 0 0-1.2.3 5.6 5.6 0 0 0 1 .5 5 5 0 0 0-1.4.4s0 0 .4.1a2.1 2.1 0 0 0-.8.3s.3 0 .8.2a5.6 5.6 0 0 0 .4.7 1.1 1.1 0 0 0 .1.1 4 4 0 0 0-.6.2 3.5 3.5 0 0 0 .6.4 2.2 2.2 0 0 0-.6.3s.2 0 .5.2l.1.2a1.3 1.3 0 0 0-.2.1c-.8-.4-2 .4-2 .4a5 5 0 0 0 1.2.3 5.2 5.2 0 0 0-.5 1.2s0 0 .4-.3a2.1 2.1 0 0 0-.4.8s.3-.2.6-.4a2.3 2.3 0 0 0-.2.5h-.3a1.7 1.7 0 0 1 .4.4 4.2 4.2 0 0 0-.6 0l.3.3a4.2 4.2 0 0 0-1 .2c.4.1.3.2.9.5a1.2 1.2 0 0 0 .2 0 5.2 5.2 0 0 0-.8 1s0 0 .4-.1a2.1 2.1 0 0 0-.5.6s.3 0 .7-.2a2.2 2.2 0 0 0-.4.5s.4 0 1-.2a.9.9 0 0 0 .1 0 1.6 1.6 0 0 0-.3.3 4 4 0 0 0-.3 0 1.1 1.1 0 0 1 .2.2 1.6 1.6 0 0 0 0 .2s0 0 .1 0a2.9 2.9 0 0 0 .3.1 3.6 3.6 0 0 0-1.2.2 3.2 3.2 0 0 0 .8.5 1.7 1.7 0 0 0-.1.2l-.3-.1a1 1 0 0 1 .2.3v.2a3 3 0 0 0 .3.4 4.2 4.2 0 0 0-.5 0 2.7 2.7 0 0 0 .7.9 4.6 4.6 0 0 0-.7.6 5 5 0 0 0 1.4 0 5.2 5.2 0 0 0-.2 1.1s0 0 .3-.3a2.1 2.1 0 0 0-.2.8s.3-.2.6-.5a5.6 5.6 0 0 0 .8 0 1 1 0 0 0 .2 0 4.2 4.2 0 0 0-.1.6l.1-.1a4.2 4.2 0 0 0 .3.8l-.1.1h-.3a5.3 5.3 0 0 0-.5-.5v.4h-.3a1.6 1.6 0 0 1 .2.2 3.2 3.2 0 0 0 0 .6 3 3 0 0 0-.7 0s.2.2.5.4a6.7 6.7 0 0 0-1.4-.1s.1 0 1 .8a2.8 2.8 0 0 0-.7.1l-.4-.1.1.5a5.3 5.3 0 0 0-1.1-.4 1.7 1.7 0 0 1 .3.5 4.6 4.6 0 0 0-1.4-.4 4 4 0 0 0 .6 1 2.2 2.2 0 0 0-.1.2l-.3-.2a1.4 1.4 0 0 1 0 .4l-.2.2h.2a3.7 3.7 0 0 0 0 .6 5.3 5.3 0 0 0-.5-.3 3.4 3.4 0 0 0 .5 1.5 6 6 0 0 0-1.1.4 6.4 6.4 0 0 0 1.6.6 6.6 6.6 0 0 0-.8 1.3s0 0 .5-.2a2.7 2.7 0 0 0-.5.9s.3-.2.9-.4a7.3 7.3 0 0 0 1 .3 1.6 1.6 0 0 0 .2 0 5.2 5.2 0 0 0-.5.8 4.6 4.6 0 0 0 1-.1 2.8 2.8 0 0 0-.5.7s.3 0 .7-.3l.3.2a1.6 1.6 0 0 0-.1.3c-1 .2-1.7 2.1-1.7 2.1A6.3 6.3 0 0 0 21 83v.5l-.2.3h.3v.2a5.7 5.7 0 0 0-.4.9c.4-.3.5-.2 1.2-.5a2.8 2.8 0 0 0-.1 1s.2-.3.6-.7a2.9 2.9 0 0 0 0 .8s.3-.3.8-.9a2.7 2.7 0 0 0 0 1s.3-.3.7-.8a5.7 5.7 0 0 0 .6.7 1.8 1.8 0 0 1 0-.6 2.9 2.9 0 0 0 .5.6s0-.3 0-.8a6.7 6.7 0 0 0 1 1s-.1-.1-.2-.6a2.7 2.7 0 0 0 .7.7s0-.4 0-1a2.9 2.9 0 0 0 .5.7s0-.2 0-.4a5.2 5.2 0 0 0 2.7.2s-.1 0-.5-.3a2.7 2.7 0 0 0 1 0s-.3-.2-.8-.6a7.2 7.2 0 0 0-.3-1 1.8 1.8 0 0 0 0-.2 5.2 5.2 0 0 0 .8 0v-.5a2.1 2.1 0 0 0 .3.7s0-.3.2-.7a5.8 5.8 0 0 0 .6-.5 1.2 1.2 0 0 0 .1-.2 4.2 4.2 0 0 0 .3.6 3.6 3.6 0 0 0 .3-.6l.6-.1a4.3 4.3 0 0 0-.4.8 1.4 1.4 0 0 1 .5-.2 3.6 3.6 0 0 0-.3 1.1 3.3 3.3 0 0 0 .7-.5 4.6 4.6 0 0 0 0 .5l.6-.7a2.1 2.1 0 0 0 0 .3s.2-.2.5-.6a2.1 2.1 0 0 0 .2.7 4.5 4.5 0 0 0 0 .6 4 4 0 0 0 1-1.4 3.8 3.8 0 0 0 .3.3l.1-.4a3.1 3.1 0 0 0 .3.3h-.2a2.7 2.7 0 0 0 .5.4 1.7 1.7 0 0 0-.5.2s.1 0 .4.1a3.2 3.2 0 0 0-.8.2c.3 0 .3.2.7.3a1 1 0 0 0 .2 0 3.3 3.3 0 0 0-.4.5 2.8 2.8 0 0 0 .6 0 1.7 1.7 0 0 0-.3.4s.1 0 .4-.1h.2c-.5.7-.2 2-.2 2l.2-.3a1.6 1.6 0 0 0 0 .7s.1-.2.3-.5a1.6 1.6 0 0 0 0 .4l-.1.2a1.3 1.3 0 0 1 .4 0 3 3 0 0 0-.4.2l.3.2a3.2 3.2 0 0 0-.6.5 1 1 0 0 1 .4 0 2.8 2.8 0 0 0-.6.6 2.4 2.4 0 0 0 .8 0 3.3 3.3 0 0 0-.2.4c.2-.2.3 0 .7-.3a.7.7 0 0 0 .1 0 3.2 3.2 0 0 0 0 .4 2.7 2.7 0 0 0 .5-.4 1.8 1.8 0 0 0 0 .6s.2-.2.3-.5h.2a1 1 0 0 0 0 .2c-.4.5.1 1.7.1 1.7a4 4 0 0 0 .4-1 4 4 0 0 0 .8.5s0 0-.1-.3a1.7 1.7 0 0 0 .5.4l-.2-.5a1.7 1.7 0 0 0 .4.2v.3l.4-.5a3 3 0 0 0 0 .8 2.6 2.6 0 0 0 .5-.5 3.3 3.3 0 0 0 .2.4 2.7 2.7 0 0 1 .2-.6 1.8 1.8 0 0 0 .2.5s0-.1.1-.4a1.8 1.8 0 0 0 .2.3 3.5 3.5 0 0 0 0 .4 4.9 4.9 0 0 0 .5-.5 3.9 3.9 0 0 0 .4.4s0 0 0-.4a1.9 1.9 0 0 0 .2.3s0-.2 0-.3h.2a3 3 0 0 0 0 1.2 4 4 0 0 0 .6-.9 4 4 0 0 0 .6.7s0 0 0-.3a1.7 1.7 0 0 0 .4.5s0-.3 0-.6a4.2 4.2 0 0 0 .3-.6 3.4 3.4 0 0 0 .4.3 2.8 2.8 0 0 0 .1-.6 1.8 1.8 0 0 0 .4.4s0-.2 0-.4v-.2a1 1 0 0 0 .2.2c0 .6 1 1.3 1 1.3a4 4 0 0 0-.2-1 4 4 0 0 0 1 0s0 0-.3-.2a1.7 1.7 0 0 0 .6 0s-.2-.1-.4-.3a1.8 1.8 0 0 0 .5 0s-.3-.2-.6-.5a.7.7 0 0 0-.1 0 1.3 1.3 0 0 0 .4 0h.1a1.3 1.3 0 0 0 .2-.1s0 0-.2-.1a2.4 2.4 0 0 0 0-.3 2.8 2.8 0 0 0 .7.7 2.5 2.5 0 0 0 0-.8l.2.2a.9.9 0 0 1 0-.2h.2v-.1a2.5 2.5 0 0 0 .1-.4 3 3 0 0 0 .2.4 2 2 0 0 0 .3-1 3.7 3.7 0 0 0 .7.2 4 4 0 0 0-.7-.8 4 4 0 0 0 .8-.5s0 0-.3 0a1.7 1.7 0 0 0 .5-.3s-.2 0-.6-.1a4.7 4.7 0 0 0-.4-.5 3.2 3.2 0 0 0 .4-.3 2.2 2.2 0 0 0-.8-.3 2.5 2.5 0 0 0-.2-.5h.1a7.1 7.1 0 0 0 .6.6v-.5a2.7 2.7 0 0 0 .6.8s0-.4 0-1a2.8 2.8 0 0 0 .4.5l-.1.5a2.3 2.3 0 0 1 .6-.4 5.1 5.1 0 0 0-.3.7h.5a5.3 5.3 0 0 0-.3 1 1.8 1.8 0 0 1 .5-.3 4.6 4.6 0 0 0-.3 1.5 4.5 4.5 0 0 0 .9-.6c0 .7 1.1 1.2 1.1 1.2l-.3-1a2.8 2.8 0 0 0 .6.4v.5c.2-.4.3-.3.7-.8l.3.2a5.5 5.5 0 0 0-.1.8 1.8 1.8 0 0 1 .5-.4l.4.2-.1-.5.2-.2a1.4 1.4 0 0 0 .1-.1 5.3 5.3 0 0 0 .3.7 4.7 4.7 0 0 0-.5 0 1.3 1.3 0 0 1 .4.3 3.6 3.6 0 0 0-1.2.2 3.3 3.3 0 0 0 .8.5 4.3 4.3 0 0 0-.4.3 5.4 5.4 0 0 1 .8.2 2.2 2.2 0 0 0-.2.1s.3 0 .7.1a2 2 0 0 0-.4.4 4.9 4.9 0 0 0-.8.1 5 5 0 0 0 1.2.7 5.2 5.2 0 0 0-.9.9s0 0 .6-.1a1.9 1.9 0 0 0-.3 1s.2-.3.6-.6a5.9 5.9 0 0 0 .8 0 1.1 1.1 0 0 0 .2 0 4.2 4.2 0 0 0-.2.5v.2l.5-.2.2.2a1.2 1.2 0 0 0-.1.2c-.9 0-1.6 1.4-1.6 1.4a5 5 0 0 0 1.3-.4 5.2 5.2 0 0 0 0 1.3s.1 0 .3-.4a2.1 2.1 0 0 0 0 .8s.2-.3.5-.6a2.2 2.2 0 0 0 0 .5l-.3.2a1.7 1.7 0 0 1 .6 0 4 4 0 0 0-.5.4l.3.2a4.2 4.2 0 0 0-.7.6h1a1 1 0 0 0 .4-.1 2.4 2.4 0 0 0-.1.4s.1-.1.3-.2a5.6 5.6 0 0 0 .8 0 4.1 4.1 0 0 0-.6.8 5.7 5.7 0 0 1 .8-.2 2.2 2.2 0 0 0-.1.3s.3-.1.7-.2a1.9 1.9 0 0 0-.2.5 4.6 4.6 0 0 0-.6.4 4.5 4.5 0 0 0 1.5 0 5.2 5.2 0 0 0-.4 1.2s0 0 .5-.4a2 2 0 0 0 .2 1s.1-.4.3-.8a5.3 5.3 0 0 0 .8-.4 1.2 1.2 0 0 0 .1 0 4.3 4.3 0 0 0 .1.5v.2l.8-.6a3 3 0 0 0 .8 1.1v-1a1.4 1.4 0 0 0 0-.2 4 4 0 0 0 .5.1 4.6 4.6 0 0 0 .1.6l.4-.7a3.5 3.5 0 0 0 1.3 1.2 5 5 0 0 0-.4-1.3 5.2 5.2 0 0 0 1.2-.1s0 0-.5-.3a3.4 3.4 0 0 0-.1-.7 1.1 1.1 0 0 0-.1-.1 4 4 0 0 0 .7 0 3.6 3.6 0 0 0-.5-.6 2.2 2.2 0 0 0 .7 0s-.2-.2-.5-.4V97a1.2 1.2 0 0 0 .2 0c.6.5 2.1.1 2.1.1a5 5 0 0 0-1.2-.6 5.2 5.2 0 0 0 .9-1s0 0-.4.1a2.1 2.1 0 0 0 .5-.6s-.1 0-.3.1a2.3 2.3 0 0 0 .3-.1s-.2 0-.6-.2l-.1-.2a1.2 1.2 0 0 0 .2-.1c.8.3 2.1-.6 2.1-.6a5 5 0 0 0-1.3-.2 5.2 5.2 0 0 0 .5-1.1s0 0-.4.2a2.1 2.1 0 0 0 .3-.7s-.2.1-.6.3a2.3 2.3 0 0 0 .2-.5h.4a1.9 1.9 0 0 1-.5-.4 4 4 0 0 0 .6 0l-.2-.3a4.2 4.2 0 0 0 .9-.2 1.4 1.4 0 0 1-.4-.2 3.6 3.6 0 0 0 1-.3 3.6 3.6 0 0 0-.5-.4l-.2-.2a2.3 2.3 0 0 0 .1-.4s-.1 0-.3.2l-.2-.2a5.2 5.2 0 0 0 1-.6s0 0-.4 0a2.1 2.1 0 0 0 .8-.4s-.3 0-.8-.1a5.5 5.5 0 0 0-.5-.6 1 1 0 0 0-.1-.2 4.1 4.1 0 0 0 .5-.2 3.5 3.5 0 0 0-.6-.3 2.2 2.2 0 0 0 .6-.4s-.3 0-.6 0l-.2-.3a1.2 1.2 0 0 0 .3-.1c.8.3 2-.8 2-.8a5 5 0 0 0-1.4 0 5.2 5.2 0 0 0 .4-1.3s0 0-.3.3a2 2 0 0 0 .2-.7c.3 1 2.2 1.5 2.2 1.5a6.5 6.5 0 0 0-1-1.5 6.5 6.5 0 0 0 1.6-.4s0 0-.5-.2a2.7 2.7 0 0 0 1-.3s-.4-.1-1-.3a2.9 2.9 0 0 0 .9-.3s-.5-.2-1.2-.4a1.2 1.2 0 0 0-.2 0 2.1 2.1 0 0 0 .6-.3l.3.2a1.5 1.5 0 0 1-.1-.3l.2-.1h-.3a3.6 3.6 0 0 0 0-.5 4.6 4.6 0 0 0 1.2.7 4 4 0 0 0-.4-1.2h.2l.2.2a1.4 1.4 0 0 1 0-.4 2.5 2.5 0 0 0 .3-.1s0 0-.2 0a4 4 0 0 0 0-.7 5.3 5.3 0 0 0 .6.4 3.4 3.4 0 0 0-.1-1.6h.4a5.6 5.6 0 0 0 .2.6s0 0 .2-.4a2.1 2.1 0 0 0 .1.8s.2-.3.4-.7a5.6 5.6 0 0 0 .7-.4h.1a4 4 0 0 0 .2.6 3.5 3.5 0 0 0 .4-.6 2.2 2.2 0 0 0 .2.7s0-.2.2-.5l.3-.1a1.1 1.1 0 0 0 0 .2c-.4.7.3 2.1.3 2.1a5 5 0 0 0 .4-1.2 5.2 5.2 0 0 0 1 .6s0 0-.1-.4a2.1 2.1 0 0 0 .7.5s-.1-.3-.3-.7a2.2 2.2 0 0 0 .5.3v.3a1.7 1.7 0 0 1 .4-.4 4.1 4.1 0 0 0-.1.6 4 4 0 0 0 .3-.2 4.2 4.2 0 0 0 0 1 1.4 1.4 0 0 1 .4-.4 3.6 3.6 0 0 0 .1 1.1 3.6 3.6 0 0 0 .5-.5 1 1 0 0 1 .1 0 2 2 0 0 0 .1.2s0 0 0-.2a3 3 0 0 0 .6.1 4.2 4.2 0 0 0-.4.4 2.6 2.6 0 0 0 1.3 0 4.6 4.6 0 0 0 0 .8 5 5 0 0 0 .8-1.1 5.1 5.1 0 0 0 .9.8s0 0-.1-.4a2.1 2.1 0 0 0 .6.6s-.1-.3-.2-.8a6 6 0 0 0 .5-.7 1.3 1.3 0 0 0 0-.2 4 4 0 0 0 .5.5 3.6 3.6 0 0 0 0-.7 2.3 2.3 0 0 0 .6.4 5.6 5.6 0 0 0 .6.9 6.6 6.6 0 0 0-1.5.5s.1 0 .9.2a2.4 2.4 0 0 0-1 1s.4-.2 1-.3a2.8 2.8 0 0 0-.5.6l-.5-.1a2.2 2.2 0 0 1 .5.6 5.1 5.1 0 0 0-.8-.3l.2.5a5.3 5.3 0 0 0-1.2-.1 1.8 1.8 0 0 1 .4.4 4.6 4.6 0 0 0-1.4 0 4.6 4.6 0 0 0 .6.7c-.7.1-1 1.3-1 1.3l.8-.4a2.8 2.8 0 0 0-.2.6h-.5l1 .7-.3.3a5.7 5.7 0 0 0-.7 0 1.8 1.8 0 0 1 .4.4l-.2.4.5-.1.2.2a1.4 1.4 0 0 0 .2 0 5.4 5.4 0 0 0-.7.5 4.6 4.6 0 0 0 .9.3 2.9 2.9 0 0 0-.7.5s.2 0 .7 0l.3.4a5.3 5.3 0 0 0-.8.3 4.4 4.4 0 0 0 .8.5 2.9 2.9 0 0 0-.9.3s.3 0 .7.2a5.2 5.2 0 0 0-1.3.3c.5.1.4.3 1.2.6a1.6 1.6 0 0 0 .2 0 5.2 5.2 0 0 0-.5.7 4.6 4.6 0 0 0 1 0 2.9 2.9 0 0 0-.6.7s.3-.1.7-.2c.1 0 .2 0 .3.2-.9 1-.3 3.1-.3 3.1l.3-.5a2.7 2.7 0 0 0 0 1s.2-.3.5-.7a2.8 2.8 0 0 0 .1.6l-.3.3a2.2 2.2 0 0 1 .7 0 5.3 5.3 0 0 0-.7.5 5.2 5.2 0 0 0 .5.2 5.3 5.3 0 0 0-.9.8 1.8 1.8 0 0 1 .6 0 4.6 4.6 0 0 0-1 1 4 4 0 0 0 1.3 0 5.3 5.3 0 0 0-.3.7c.4-.3.4-.1 1.1-.5a1.9 1.9 0 0 0 .2-.1 5 5 0 0 0 .1.8 4.6 4.6 0 0 0 .7-.7 2.9 2.9 0 0 0 .1.9s.2-.3.4-.7h.3a1.6 1.6 0 0 0 .1.3c-.7.8.1 2.7.1 2.7a6.4 6.4 0 0 0 .7-1.6 6.6 6.6 0 0 0 1.2 1s0-.1-.2-.6a2.7 2.7 0 0 0 .9.6l-.3-.9a2.9 2.9 0 0 0 .6.4v.5c.2-.4.3-.3.7-.8a4.8 4.8 0 0 0 0 1.3 4.2 4.2 0 0 0 .8-.8 5.6 5.6 0 0 0 .3.6 4.5 4.5 0 0 1 .4-.9 2.9 2.9 0 0 0 .2.8s.1-.2.3-.7a2.8 2.8 0 0 0 .3.5 5.7 5.7 0 0 0 0 .7 7.8 7.8 0 0 0 .9-1 6.5 6.5 0 0 0 .5.8s0-.1 0-.7a3 3 0 0 0 .4.5s0-.2 0-.5h.3a5 5 0 0 0 0 2 6.4 6.4 0 0 0 1-1.4 6.6 6.6 0 0 0 1 1.1s0 0 0-.5a2.7 2.7 0 0 0 .6.8s0-.5 0-1a7 7 0 0 0 .5-.9 1.7 1.7 0 0 0 .1-.2 5.3 5.3 0 0 0 .6.7 4.7 4.7 0 0 0 .1-1 2.9 2.9 0 0 0 .6.7s0-.3 0-.8l.2-.3a1.6 1.6 0 0 0 .3.3c-.2 1 1.5 2.2 1.5 2.2a6.4 6.4 0 0 0-.3-1.7 6.6 6.6 0 0 0 1.6 0s0 0-.5-.3a2.7 2.7 0 0 0 1 0s-.2-.1-.7-.5a3 3 0 0 0 .9 0s-.4-.3-1-.8a1.2 1.2 0 0 0-.2-.1 2 2 0 0 0 .6 0l.3.3a1.4 1.4 0 0 1 0-.3l.2-.1-.2-.1a3.5 3.5 0 0 0 0-.5 4.6 4.6 0 0 0 1 1.1 4 4 0 0 0 0-1.2 2.1 2.1 0 0 0 .3 0v.3a1.3 1.3 0 0 1 .2-.4 2.6 2.6 0 0 0 .3 0s0 0-.2-.1a4 4 0 0 0 .3-.6 5 5 0 0 0 .4.5 3.4 3.4 0 0 0 .4-1.5 5.9 5.9 0 0 0 1.1.2 6.4 6.4 0 0 0-1.1-1.3 6.6 6.6 0 0 0 1.4-.7s0 0-.6 0a2.7 2.7 0 0 0 1-.6s-.5 0-1-.1a7.4 7.4 0 0 0-.7-.8 2.1 2.1 0 0 0-.2-.2 5.4 5.4 0 0 0 .8-.3 3.7 3.7 0 0 0-1.3-.5 4.2 4.2 0 0 0-.4-.8 5.3 5.3 0 0 0 1 0 5.2 5.2 0 0 0-.4-.4 5.4 5.4 0 0 0 1.2-.3 1.7 1.7 0 0 1-.5-.3 4.6 4.6 0 0 0 1.4-.4 4.6 4.6 0 0 0-.7-.4 5.6 5.6 0 0 0 .8-.6 1.4 1.4 0 0 1-.4 0 2.8 2.8 0 0 0 .8-.6s-.2 0-.5 0a2.7 2.7 0 0 0 .6-.8s-.2 0-.5.1a3 3 0 0 0 .4-.5 6 6 0 0 0 .7-.3 8.3 8.3 0 0 0-.9-.3 6.7 6.7 0 0 0 1-1s-.1 0-.6.1a2.7 2.7 0 0 0 .7-.7s-.3 0-.8.1a4 4 0 0 0-.6-.2 1.6 1.6 0 0 0-.3 0 5.1 5.1 0 0 0 .5-.8 4.6 4.6 0 0 0-1 .2 2.4 2.4 0 0 0 .3-.4 2.2 2.2 0 0 0 0 .2s.2-.2.6-.5a5.8 5.8 0 0 0 .8 0 1.4 1.4 0 0 0 .2 0 4 4 0 0 0-.2.6 3.5 3.5 0 0 0 .7-.4 2.2 2.2 0 0 0-.1.7s.1-.1.4-.4a4.2 4.2 0 0 0 .8 0 1 1 0 0 0 .5-.2 4.1 4.1 0 0 0 0 .4 5 5 0 0 0 1-1 5.2 5.2 0 0 0 .6 1s0 0 0-.4a2.1 2.1 0 0 0 .5.7s0-.3 0-.8a2.3 2.3 0 0 0 .4.5s0-.2 0-.6l.2.4a2.9 2.9 0 0 1 .2-.7 3 3 0 0 0 .3 0 4.5 4.5 0 0 0 .3.7 1.4 1.4 0 0 1 .1-.5h.3v-.1a4.8 4.8 0 0 0 .7.2 7 7 0 0 0-.3-.5v-.3a5.2 5.2 0 0 0 1.1.2s0 0-.3-.3a2.1 2.1 0 0 0 .8.1s-.2-.2-.5-.5a5.7 5.7 0 0 0 0-.8 1.2 1.2 0 0 0 0-.2 4.1 4.1 0 0 0 .6.1 3.6 3.6 0 0 0-.4-.6 2.3 2.3 0 0 0 .7 0s-.2 0-.4-.3v-.3a1.2 1.2 0 0 0 .3 0c.4.7 2 .6 2 .6a5 5 0 0 0-1-.9 5.1 5.1 0 0 0 1-.7s0 0-.4 0a2 2 0 0 0 .7-.4s-.3 0-.8 0a2.2 2.2 0 0 0 .5-.4l.3.2a4.1 4.1 0 0 1-.3-.8 3.7 3.7 0 0 0 1-.4 3.6 3.6 0 0 0-.6-.3 2.2 2.2 0 0 0 .6-.3s-.2 0-.5 0a4.5 4.5 0 0 0 1-.7 5.6 5.6 0 0 0-1-.1 5 5 0 0 0 1.1-.9s0 0-.4 0a2.1 2.1 0 0 0 .6-.4s-.3 0-.7 0a5.6 5.6 0 0 0-.7-.6 1 1 0 0 0-.1 0 4 4 0 0 0 .5-.4 3.7 3.7 0 0 0-.7-.2 2.2 2.2 0 0 0 .6-.4s-.3 0-.6 0l-.2-.2a1.2 1.2 0 0 0 .2-.2c.8.1 1.8-1 1.8-1a5 5 0 0 0-1.3 0 5.1 5.1 0 0 0 .2-1.2s0 0-.3.4a2.1 2.1 0 0 0 0-.9s-.1.3-.4.6a2.2 2.2 0 0 0 0-.6l.4-.1a1.7 1.7 0 0 1-.6-.2 4.1 4.1 0 0 0 .6-.2l-.4-.2a4.2 4.2 0 0 0 1-.5 1.4 1.4 0 0 1-.6 0 3.6 3.6 0 0 0 1-.7 3 3 0 0 0-1-.2v-.1h.4a1 1 0 0 1-.3-.2 2 2 0 0 0 0-.3s0 0-.1.2a3 3 0 0 0-.4-.4 3.8 3.8 0 0 0 .5-.1 2.7 2.7 0 0 0-1.1-.6 4.6 4.6 0 0 0 .3-.8 5 5 0 0 0-1.1.6 5.2 5.2 0 0 0-.4-1.2s0 0-.1.4a1.6 1.6 0 0 0 0-.3 2.3 2.3 0 0 0-.2-.5s-.1.3-.2.6a3 3 0 0 0-.6.1 1 1 0 0 0-.2 0 4.2 4.2 0 0 0 0-.6 3.6 3.6 0 0 0-.5.4 2.3 2.3 0 0 0 0-.6s-.2.1-.4.4h-.3a1.2 1.2 0 0 0 0-.2c.5-.5.4-1.6.4-2l.3.5a1.8 1.8 0 0 1 0-.7 4.6 4.6 0 0 0 1 1.2 4.5 4.5 0 0 0 0-1 5.7 5.7 0 0 0 .4.6 6.4 6.4 0 0 0 .4-1.6 6.4 6.4 0 0 0 1.4.7l-.2-.5a2.7 2.7 0 0 0 .9.5s-.2-.3-.5-.9a7 7 0 0 0 .3-1 1.6 1.6 0 0 0 0-.2 5.3 5.3 0 0 0 .8.4 4.7 4.7 0 0 0-.2-1 2.8 2.8 0 0 0 .8.5s-.1-.3-.3-.7l.1-.3a1.7 1.7 0 0 0 .3.1c.3 1 2.3 1.6 2.3 1.6a6.4 6.4 0 0 0-1-1.5 6.6 6.6 0 0 0 1.6-.5s0 0-.5-.1a2.7 2.7 0 0 0 1-.3s-.4-.2-1-.4a2.9 2.9 0 0 0 .9-.2s-.5-.2-1.2-.5a1 1 0 0 0-.2 0 2 2 0 0 0 .6-.2l.3.2a1.5 1.5 0 0 1-.1-.3 2.2 2.2 0 0 0 .2-.1s-.1 0-.3-.1a3.6 3.6 0 0 0 0-.4 4.6 4.6 0 0 0 1.2.7 4 4 0 0 0-.4-1.2l.2-.1.2.3a1.4 1.4 0 0 1 0-.4 2.5 2.5 0 0 0 .3-.2s0 0-.2 0a4 4 0 0 0 0-.7 5.3 5.3 0 0 0 .6.5 3.4 3.4 0 0 0-.1-1.6 5.9 5.9 0 0 0 1.1-.2 6.3 6.3 0 0 0-1.5-.8 6.6 6.6 0 0 0 1-1.2s0 0-.5.1a2.7 2.7 0 0 0 .8-.7s-.5 0-1 .1a7.1 7.1 0 0 0-1-.5 1.6 1.6 0 0 0-.1 0 5.3 5.3 0 0 0 .6-.7 3.8 3.8 0 0 0-1.4 0l-.3-.3a4.9 4.9 0 0 0 .6 0l-.3-.4a5.4 5.4 0 0 0 1.3 0 1.8 1.8 0 0 1-.5-.4 4.6 4.6 0 0 0 1.4 0 4.8 4.8 0 0 0-.6-.6 5.5 5.5 0 0 0 1-.5 1.4 1.4 0 0 1-.4-.1 2.8 2.8 0 0 0 .9-.4s-.2 0-.5-.1a2.5 2.5 0 0 0 .6-.5 5.9 5.9 0 0 0 1.1.1 6.4 6.4 0 0 0-1.3-1.2 6.6 6.6 0 0 0 1.4-.8s0 0-.6 0a2.7 2.7 0 0 0 .9-.6s-.4 0-1 0a7.4 7.4 0 0 0-.8-.8 1.8 1.8 0 0 0-.1-.1 5.2 5.2 0 0 0 .7-.5 4.6 4.6 0 0 0-1-.3 2.9 2.9 0 0 0 .8-.5s-.3 0-.7 0l-.3-.3a1.6 1.6 0 0 0 .3-.2c1 .3 2.4-1.2 2.4-1.2ZM87.1 85.7Zm30.7-20.6v.2l-.2-.2a1.7 1.7 0 0 0 .2 0Zm-11.3-.4Zm-1.7.6a4.4 4.4 0 0 0 .5-.2c-.4 0-.4-.2-1-.3a1.4 1.4 0 0 0-.2 0 4 4 0 0 0 .3-.6 2.8 2.8 0 0 0-1 .4 3.5 3.5 0 0 1-.4-.2 4 4 0 0 0 .6-.1l-.3-.3a4.2 4.2 0 0 0 .9-.3 1.4 1.4 0 0 1-.5-.2 3.6 3.6 0 0 0 1.1-.4h-.1a3.6 3.6 0 0 1 .5-.3 5.1 5.1 0 0 0-.3.7 5 5 0 0 0 .5-.1 5.3 5.3 0 0 0-.3 1.2 1.8 1.8 0 0 1 .5-.4 4.3 4.3 0 0 0-.3 1.3 2.6 2.6 0 0 0-.5-.2Zm-12.5-8.7a2.1 2.1 0 0 0-.7-.3s.1.2.3.6a2.2 2.2 0 0 0-.5-.2v-.4a1.8 1.8 0 0 1-.4.5 4.2 4.2 0 0 0 0-.6l-.3.2a4.2 4.2 0 0 0-.1-1 1.2 1.2 0 0 1-.2.5v-.2a4 4 0 0 0 .3-.4s0 0-.4 0a1.6 1.6 0 0 0 .5-.3 6.8 6.8 0 0 0 .9 0s0 0-.5-.4a2.7 2.7 0 0 0 1 0s-.2-.2-.6-.5a3 3 0 0 0 .8 0s-.4-.3-1-.8a1 1 0 0 0-.1-.1 2.1 2.1 0 0 0 .6 0l.2.3a1.4 1.4 0 0 1 0-.4 2.5 2.5 0 0 0 .2 0s0 0-.2-.1a3.7 3.7 0 0 0 0-.5 4.5 4.5 0 0 0 1 1.1v-.3a6.4 6.4 0 0 0 1.6-.7 6.5 6.5 0 0 0 .3 1.6s0 0 .2-.6a2.7 2.7 0 0 0 .2 1s.2-.3.4-.8a2.8 2.8 0 0 0 .2.7l-.4.3a2.3 2.3 0 0 1 .7 0 5.3 5.3 0 0 0-.6.5l.5.1a5.4 5.4 0 0 0-.9.9 1.8 1.8 0 0 1 .7 0 4.3 4.3 0 0 0-.9.9 3.7 3.7 0 0 0-.4.6 2.3 2.3 0 0 0-.2-.7s-.1.3-.2.6l-.3.1a1.2 1.2 0 0 0 0-.2c.3-.8-.5-2.1-.5-2.1a5 5 0 0 0-.3 1.3 5.2 5.2 0 0 0-1.1-.5s0 0 .2.3Zm12.3 6.4a3.4 3.4 0 0 0-.3-.1v-.7a2.7 2.7 0 0 0 .4.5l-.1.3Zm-8.1 13.7a1 1 0 0 0 0-.2v.2Zm-3.4-24.4h.3v.4a6.2 6.2 0 0 0-.2.5 3.8 3.8 0 0 0 0-.9Zm4.2-21.7v.1l.1.3h-.2v-.4Zm0 0ZM96 35.8l-.5.3a6.1 6.1 0 0 0-.2-1 6.2 6.2 0 0 0 .7.7Zm-2.4 16.5v.3a1.4 1.4 0 0 1 0-.3Zm.2-.1a4 4 0 0 0 .2-.6l.1.1a3.3 3.3 0 0 0-.3.5Zm1-1.4.4.2a1.6 1.6 0 0 0-.2.3 1.1 1.1 0 0 0-.3 0 3 3 0 0 0 0-.5Zm2.5-10.6.5-.5-.6.1a2.7 2.7 0 0 0 .7-.7s-.3 0-.7.1a3.9 3.9 0 0 0-.7-.2 1.5 1.5 0 0 0-.2 0 5.2 5.2 0 0 0 .4-.8 4.4 4.4 0 0 0-1 .2 2.8 2.8 0 0 0 .5-.8l-.7.3-.3-.2a1.6 1.6 0 0 0 .1-.2 4.8 4.8 0 0 0 1.1-1.8l-.4.1a6.3 6.3 0 0 0-.1-1.6 6.6 6.6 0 0 0 1.5.2s0 0-.4-.4a2.7 2.7 0 0 0 1 .1s-.3-.2-.7-.7a7.2 7.2 0 0 0 0-1 1.7 1.7 0 0 0-.1-.2 5.2 5.2 0 0 0 .8.1h.4a2 2 0 0 0-.3.4 4.9 4.9 0 0 0-.7.2 4.1 4.1 0 0 0 1.6.6 4.2 4.2 0 0 0-.3.4 3.6 3.6 0 0 0 .5 0 4.2 4.2 0 0 0-.4.8 1.3 1.3 0 0 1 .4-.2 3.6 3.6 0 0 0-.4 1 3.5 3.5 0 0 0 .7-.3 4.6 4.6 0 0 0-.3.5 5 5 0 0 0 1.3-.4 5.2 5.2 0 0 0 0 1 2.3 2.3 0 0 0 0 .4s.2-.1.5-.3a6 6 0 0 0 0 1.4 6.5 6.5 0 0 0-1.6-.4s0 0 .4.4a2.7 2.7 0 0 0-1-.2s.3.3.7.8a7.4 7.4 0 0 0 0 1 1.6 1.6 0 0 0 0 .2 5.3 5.3 0 0 0-.9-.2 4.7 4.7 0 0 0 .4.8 2.8 2.8 0 0 0-.8-.1s.2.2.5.5v.4a1.6 1.6 0 0 0-.4 0 1.7 1.7 0 0 0-1-.8Zm5-3.2h-.2.1Zm-.3-.6v.5a3.2 3.2 0 0 0-.4-.1 6.4 6.4 0 0 0-.4-.5 4.4 4.4 0 0 0 .8 0Zm1.6 26Zm5.2 3.6a2.7 2.7 0 0 1 0 .5l-.2-.3a1.4 1.4 0 0 1 .2-.2Zm.2 0c.2 0 .3.2.3.2a2.8 2.8 0 0 0-.3 0l-.1-.2Zm.4.2v-.1l.1.1a1.7 1.7 0 0 0-.1 0Zm-.1-.5.1-.2.4.3a1.7 1.7 0 0 0-.5 0Zm.2-.2a1.4 1.4 0 0 0 .1-.2v.2h-.1Zm1 0h-.2v-.2a2.3 2.3 0 0 0 .2.2Zm-2.2-.1.3.2v.5l-.2-.2-.1.4a3.6 3.6 0 0 0-.4-.5 3.6 3.6 0 0 0 .4-.4Zm2.4 17.7Zm1.2-17.8.1.5-.2.2a1.3 1.3 0 0 0-.2-.2 4.8 4.8 0 0 0 .3-.5Zm-.6-.2ZM90.1 54.9h.6l-.4.1h-.2Zm-17.3 1.8a2.8 2.8 0 0 0-.2-.8s-.1.2-.3.6l-.4.2a1.6 1.6 0 0 0 0-.4c.6-.9-.3-2.7-.3-2.7a6.4 6.4 0 0 0-.5 1.6 5 5 0 0 0-.4-.2v-.4l-.3.2-.2-.2a5.5 5.5 0 0 0-.2-.8 6 6 0 0 0 .5-.3 6.2 6.2 0 0 0-1-.1 5.6 5.6 0 0 0 1.2-1s0 0-.5 0a2.3 2.3 0 0 0 .7-.5s-.3 0-.8 0a6.2 6.2 0 0 0-.7-.6 1.5 1.5 0 0 0-.2 0 4.6 4.6 0 0 0 .6-.5 3.8 3.8 0 0 0-.8-.2 2.4 2.4 0 0 0 .6-.4s-.2 0-.6 0l-.2-.2v-.1h.4l-.2-.1a1 1 0 0 0 .4 0 2.7 2.7 0 0 0 .3 0s0 0 0-.1a4.2 4.2 0 0 0 1.3-1.1 5.4 5.4 0 0 0-1.5.1l.1-.4h.2l-.1-.2v-.3a2.5 2.5 0 0 0 .4 0s-.1-.1-.4-.4V47a1.2 1.2 0 0 0 .3 0c.3.6 1.4.7 1.8.7A7 7 0 0 0 72 49s0 0 .3-.5a2.7 2.7 0 0 0 0 1s.3-.3.5-.8a2.8 2.8 0 0 0 .1.7l-.3.3a2.2 2.2 0 0 1 .7 0 5.2 5.2 0 0 0-.6.5l.4.2a5.3 5.3 0 0 0-.9.8 1.7 1.7 0 0 1 .6 0 4.6 4.6 0 0 0-1 1 3.9 3.9 0 0 0 1.3 0 5.6 5.6 0 0 0-.3.7c.4-.3.4-.2 1.2-.5a1.8 1.8 0 0 0 .2-.1 5.2 5.2 0 0 0 0 .8 4.6 4.6 0 0 0 .7-.7 2.6 2.6 0 0 0 .1.7 3.7 3.7 0 0 0-.6 0 1 1 0 0 1 .3.2 2.8 2.8 0 0 0-1 0 2.8 2.8 0 0 0 .5.4c-.5.1-.6.8-.6.8l.5-.2a1.7 1.7 0 0 0-.2.3h-.3c.3.2.2.3.6.5l-.2.1a3.3 3.3 0 0 0-.4 0 1 1 0 0 1 .3.3l-.2.3.4-.1a1 1 0 0 0 .2.2 3.1 3.1 0 0 0-.5.2 2.8 2.8 0 0 0 .6.2 3.8 3.8 0 0 0-.7.3 1.9 1.9 0 0 0-.2.1 5.2 5.2 0 0 0-.1-.8 4.6 4.6 0 0 0-.6.7Zm-21.2 1a4.5 4.5 0 0 1-.1.5 5 5 0 0 0-.4-.7 5 5 0 0 0-.2.5 5.3 5.3 0 0 0-.7-1 1.7 1.7 0 0 1 0 .6 4.6 4.6 0 0 0-1-1.1 4.2 4.2 0 0 0 0 1.1 5.3 5.3 0 0 0-.6-.3 6.8 6.8 0 0 1 .3 1 2.5 2.5 0 0 0-.3 0l.3.8a2.5 2.5 0 0 0-.6-.2 6 6 0 0 0-.6-.7 6.3 6.3 0 0 0 0 1.7 6.6 6.6 0 0 0-1.6-.4s.1 0 .4.5a2.7 2.7 0 0 0-1-.3s.3.3.7.8a7.2 7.2 0 0 0 0 1 1.8 1.8 0 0 0 0 .2 5 5 0 0 0-.9-.2 4.6 4.6 0 0 0 .4.9 2.9 2.9 0 0 0-.8-.2s.2.2.5.6v.3a1.4 1.4 0 0 0-.3 0l.2-.3h-.5a2 2 0 0 0-.8-.4 5 5 0 0 0 0-.6s0 .1-.3.4a2.1 2.1 0 0 0 0-.8s-.2.3-.4.6a2.2 2.2 0 0 0 0-.5l.3-.2a1.8 1.8 0 0 1-.6-.1 4 4 0 0 0 .5-.3l-.3-.2a4.1 4.1 0 0 0 .7-.5 1.4 1.4 0 0 1-.4 0 3.6 3.6 0 0 0 .8-.8 3.3 3.3 0 0 0-.9 0 4.6 4.6 0 0 0 .3-.5 5.3 5.3 0 0 1-.9.3 2 2 0 0 0 .2-.3s-.3.1-.7.3a2 2 0 0 0 .1-.5 4.7 4.7 0 0 0 .6-.5 4.8 4.8 0 0 0-1.5 0 5 5 0 0 0 .1-1.4s0 0-.3.4a2.1 2.1 0 0 0 0-.8s-.1.2-.4.6a5.8 5.8 0 0 0-.8.1 1 1 0 0 0-.2.1 4.3 4.3 0 0 0 0-.5h.1v-.2l-.1-.2a2.1 2.1 0 0 0 .6.5s0-.3-.2-.7a2.3 2.3 0 0 0 .4.3v.3l.7-.7a1 1 0 0 0 .2-.3 4.5 4.5 0 0 0 .3.8 5.4 5.4 0 0 1 .3-.9 2 2 0 0 0 .1.3s0-.3.2-.7a2 2 0 0 0 .3.5 4.7 4.7 0 0 0 0 .7 5 5 0 0 0 .9-1 5.2 5.2 0 0 0 .7 1s0-.1 0-.5a2.1 2.1 0 0 0 .5.6s0-.2 0-.5a2.3 2.3 0 0 0 .3.3s0-.1 0-.3a4.3 4.3 0 0 0 .3.6 1.4 1.4 0 0 1 .1-.5c1 .6 2.5-.2 2.5-.2l-.4-.1a2.1 2.1 0 0 0 .8-.3s-.3 0-.7-.2a2.2 2.2 0 0 0 .6-.3s-.4 0-1-.3a1 1 0 0 0-.1 0 1.7 1.7 0 0 0 .4-.2l.3.2a1.1 1.1 0 0 1-.1-.3h.1l-.2-.1a2.6 2.6 0 0 0 0-.3 3.6 3.6 0 0 0 1 .5 3.1 3.1 0 0 0-.4-1h.2l.2.2a1 1 0 0 1 0-.3 1.8 1.8 0 0 0 .1-.1s0 0-.1 0a3 3 0 0 0 0-.4 2.8 2.8 0 0 1 .6.3h-.1a3.5 3.5 0 0 0 .8.5 5.1 5.1 0 0 0-.4.3 1.2 1.2 0 0 1 .4 0s.3 0 .7.1a2.1 2.1 0 0 0-.3.5 5.1 5.1 0 0 0-.8.2 4.5 4.5 0 0 0 1.7.6v.1l-.2.4h.2v.3l-.1.4a5.5 5.5 0 0 0-.6-.1 4.2 4.2 0 0 0 .6 1v.2h.2Zm-12.4-1 .2-.1a1.1 1.1 0 0 0 .2-.2l.2.2-.3.1h-.3Zm22-28.7h-.1.2Zm13.3 26Zm.9-1.3h.2-.2Zm0 .1v.3l-.1-.1v-.2Zm-.3.4Zm-3.3-5.6a4.6 4.6 0 0 0-.8-.7 5.2 5.2 0 0 0 1-.7s0 0-.4 0a1.9 1.9 0 0 0 .5-.4l.2.1a2.5 2.5 0 0 0-.5 1.7Zm-2 6.6-.1-.2h.2a1.8 1.8 0 0 1-.1.2Zm-9-24.7Zm0-.3h-.2l.2-.1v.1Zm8.6 18.5Zm-19.6 5a3.5 3.5 0 0 0-.5 0 3 3 0 0 0 0-.5 2.4 2.4 0 0 0 .6-.1 3.8 3.8 0 0 1 .3.2 4.4 4.4 0 0 0-.6 0l.2.4Zm-2.3-4v.1l-.2-.2h.2Zm1.4 4v.1Zm2.6 3.9Zm8.2-29.3Zm-2.6 60a2.5 2.5 0 0 0 .2.6 4.2 4.2 0 0 0-.4 0 4.1 4.1 0 0 0 .2-.5Zm37.4-8.2V79v.2Zm.8-21.3a3.8 3.8 0 0 0-.1-.5 4.2 4.2 0 0 0 1 0 5.6 5.6 0 0 0-.8.4 1.3 1.3 0 0 0-.1.1Zm2.3-.6v.2a5.8 5.8 0 0 0-.4.8 4.1 4.1 0 0 0-.2-.7l.6-.3Zm1 1.1a3.4 3.4 0 0 0-.4.4 1.7 1.7 0 0 0 0-.3l.4-.1Zm4.4 3.9Zm3 15.1a4 4 0 0 0 .2.4 3.2 3.2 0 0 0-.4 0l-.4-.4v.4a2.4 2.4 0 0 0-.3-.4 2.7 2.7 0 0 0 1.1-.2 3.4 3.4 0 0 1 .3.3 4.1 4.1 0 0 0-.6 0Zm5.2 6.2a1.6 1.6 0 0 0 0 .1v-.1Zm0 .7V84l.2-.1v.3h-.1Zm.8-19v.1ZM109.2 19v-.1ZM95.5 2Zm-23 14.2a2.4 2.4 0 0 0-.3-.2l.4.2Zm-13.2 9.6-.2.2v-.3h.2ZM39 28.4Zm-7 52.9v.1h-.2l.3-.1Zm.1-31.7a4.9 4.9 0 0 0 .1.8 2.3 2.3 0 0 0-.3-.6s0 .2-.1.6h-.3a1.2 1.2 0 0 0 0-.2 1 1 0 0 0 0-.3 4.1 4.1 0 0 0 .6-.3Zm-8.7 20.7h.3a3.8 3.8 0 0 0-.4.3 4 4 0 0 0 .3.2 3 3 0 0 0-.3.1 5.4 5.4 0 0 0-.5-.2 2.6 2.6 0 0 0 .6-.4ZM29 82.4h.2a5.1 5.1 0 0 0 .3.5 4.4 4.4 0 0 0-.5-.5Zm24.1 4.4Zm3.5 1.4.2-.3.1.3a3 3 0 0 0-.3 0Zm.8-.3ZM71.8 84h-.1l.1-.4a1.6 1.6 0 0 0 .3.1l-.3.3Zm17.4-3.7.1-.3a1.2 1.2 0 0 0 .3.2.9.9 0 0 0 0 .2l-.4-.1Zm2.1.5.4.7-.1.3a1.5 1.5 0 0 0-.3-.1 1.4 1.4 0 0 0-.6-.7 4 4 0 0 0-.2-.5 5.1 5.1 0 0 0 1.3 0s0 0-.4-.2a1.8 1.8 0 0 0 .5 0 4.5 4.5 0 0 0 .2.9 2.9 2.9 0 0 0-.8-.4Zm1.4-.2a5.3 5.3 0 0 0-.6-.3h.1l-.6-.4a2.2 2.2 0 0 0 .6 0l.2.2a1.8 1.8 0 0 1 0-.5 3.9 3.9 0 0 0 .3.5v.3a1.5 1.5 0 0 0 0 .2Zm2.7-2.3v-.2a4 4 0 0 0 .5 0v.5a2.3 2.3 0 0 0-.5-.3Zm9.4-.3-.4.5a4.8 4.8 0 0 0-.7-1.2 4.5 4.5 0 0 0-.3 1 2.8 2.8 0 0 0-.5-.8s0 .3 0 .8l-.3.2a1.5 1.5 0 0 0-.2-.3c.3-1-1.2-2.4-1.2-2.4a6.4 6.4 0 0 0 0 1.7 6.7 6.7 0 0 0-1.5-.3s0 0 .4.4a2.7 2.7 0 0 0-1-.2s.2.3.6.7a2.8 2.8 0 0 0-.7-.1c0-.3-.2-.4-.2-.4a2.2 2.2 0 0 1-.2.6 5.2 5.2 0 0 0-.2-.7 5 5 0 0 0-.3.4 5.3 5.3 0 0 0-.5-1.1 1.8 1.8 0 0 1-.2.6 3.7 3.7 0 0 0-.4-.8h.1l-.2-.5.1-.3a1.2 1.2 0 0 0 .3.1c.1.9 1.7 1.3 1.7 1.3a5 5 0 0 0-.7-1.2 5.2 5.2 0 0 0 1.2-.3s0 0-.5-.2a2 2 0 0 0 .9-.3s-.3 0-.7-.2a2.3 2.3 0 0 0 .4-.2l.3.3a1.8 1.8 0 0 1 0-.6 4.1 4.1 0 0 0 .4.4v-.4a4.1 4.1 0 0 0 .8.5 1.4 1.4 0 0 1-.1-.4 3.6 3.6 0 0 0 1 .5 3.6 3.6 0 0 0-.2-.7c.5.2 1.2-.6 1.2-.6h-.8a2.3 2.3 0 0 0 .4-.3l.4.1-.4-.8a2.2 2.2 0 0 0 .2-.7 4.6 4.6 0 0 0 .9.3 5 5 0 0 0-.8-1.2 5.2 5.2 0 0 0 1.2-.4s0 0-.4-.1a2 2 0 0 0 .8-.3s-.3 0-.8-.2a5.7 5.7 0 0 0-.4-.7 1.4 1.4 0 0 0-.1-.1 4.1 4.1 0 0 0 .6-.2 3.6 3.6 0 0 0-.6-.4 2.3 2.3 0 0 0 .6-.3s-.2 0-.5-.1l-.2-.3a1.2 1.2 0 0 0 .3-.1c.7.4 2-.5 2-.5a5 5 0 0 0-1.3-.2l.2-.3.3-.1-.1-.2v-.1a4.6 4.6 0 0 0 .7-.3 1.4 1.4 0 0 1-.5-.2 3.6 3.6 0 0 0 1-.5h-.2a4.4 4.4 0 0 0 .7-.5c0 .7 1 1.1 1.1 1.1l-.3-.8a2.8 2.8 0 0 0 .6.3v.5-.1a3.2 3.2 0 0 0 0 .4 1 1 0 0 0 0 .4 2.3 2.3 0 0 0-.3 0s.2.2.4.6a5.6 5.6 0 0 0-.1.8 1.3 1.3 0 0 0 0 .2 4 4 0 0 0-.6-.3 3.6 3.6 0 0 0 .2.7 2.3 2.3 0 0 0-.6-.2s.1.2.3.5v.2c-.5-.6-1.9-.8-1.9-.8a5 5 0 0 0 .9 1 5.1 5.1 0 0 0-1.2.6s0 0 .5 0a2 2 0 0 0-.8.4s.3 0 .8.1a2.3 2.3 0 0 0-.6.3s.4.1 1 .2a1 1 0 0 0 .1 0 1.7 1.7 0 0 0-.4.3l-.3-.1a1 1 0 0 1 .1.2l-.1.1h.2a3 3 0 0 0 .1.3 3.6 3.6 0 0 0-1-.3 3.1 3.1 0 0 0 .4.8 1.7 1.7 0 0 0-.2.1l-.2-.2a1 1 0 0 1 0 .3 1.7 1.7 0 0 0-.1.2s0 0 .1 0a3 3 0 0 0 0 .5 4.2 4.2 0 0 0-.4-.3 2.6 2.6 0 0 0 .3 1.2 4.6 4.6 0 0 0-1 .3 5 5 0 0 0 1.4.5 5.1 5.1 0 0 0-.8 1s0 0 .5-.2a2.1 2.1 0 0 0-.5.7s.3 0 .7-.2a5.8 5.8 0 0 0 .8.3 1.2 1.2 0 0 0 .1 0 4.1 4.1 0 0 0-.3.5 2.9 2.9 0 0 0-.3-.2s0 .4 0 1Zm6.5 8-.3-.2a1.4 1.4 0 0 0 .1-.2 3.6 3.6 0 0 0 .8-1.2 5 5 0 0 0-.3 1.4s0 0 .4-.3a1.5 1.5 0 0 0-.1.2l-.6.3Zm1.2-20.5Zm5.1 0h.2v.2a2 2 0 0 0-.2-.3Zm.4-.4h.2l.1.4a1.8 1.8 0 0 0-.3-.4Zm1.1 1a5 5 0 0 0-.8-1 3.1 3.1 0 0 0 .3 0s-.3-.2-.7-.6a2.8 2.8 0 0 0 .6 0l.3.4a2.3 2.3 0 0 1 .1-.7 5.3 5.3 0 0 0 .3.7 5.2 5.2 0 0 0 .3-.5 3.9 3.9 0 0 0 .3.5 5 5 0 0 0-.7 1.1Z"/><path fill="#73bf44" d="M72.8 102.6s.6 0 1.1-.8c.6-.8 2.7-3.3 3.2-4.3a2.9 2.9 0 0 0 .2-3c-.5-1.3-1.2-2.6-.8-3.6.4-1 1.6-2.2 2.1-3.6a6.6 6.6 0 0 1 1.8-2.5 9.1 9.1 0 0 0 1.9-4A24.8 24.8 0 0 0 83 76 44 44 0 0 0 83 68h2.5a31.6 31.6 0 0 1 .5 5.6 34.1 34.1 0 0 1-.8 7 17.4 17.4 0 0 1-2.4 6 10.4 10.4 0 0 0-2.3 4c-.3 1.6-.4 1.7 0 2.4a1.4 1.4 0 0 0 1.9.8 8.4 8.4 0 0 0 3.3-1.5 22.7 22.7 0 0 0 3.7-4.2 35.9 35.9 0 0 0 2.4-5H94a16.9 16.9 0 0 1-1.4 3.5A50.1 50.1 0 0 1 89 92c-1 1.1-1.8 2.8-3.5 4-1.8 1-3.7 2-5.2 4.3a23.1 23.1 0 0 0-2.9 5.1 21.8 21.8 0 0 0 0 6.2 94.2 94.2 0 0 1 .6 11.9V138.6c.1 1.7.9 7.4.9 7.4l.4 4H72l-.6-10.7a57 57 0 0 1 .4-9.1 89.2 89.2 0 0 0-.2-10l-1.4-9.5a75.6 75.6 0 0 0-2.3-9.3c-.8-2.5-1.4-4-1.8-5.7-.4-1.6-1.2-5.5-.3-8.4 1-2.8 1.8-3.3.1-6.3a21.9 21.9 0 0 0-3-3.9L65 75a17.6 17.6 0 0 1 4.2 7c1 4 .1 4.8-.2 6.7a13.5 13.5 0 0 0 .7 6.4c.7 2 1.6 2.6 2.1 4.4s.4 3 1 3Z"/><path fill="#73bf44" d="M58.9 82.7c13 0 25.4-11.4 24.8-24.8A25.2 25.2 0 0 0 59 33.1c-13 0-25.4 11.4-24.8 24.8a25.2 25.2 0 0 0 24.8 24.8Z"/><path fill="#73bf44" d="M75.7 74.8c13 0 25.4-11.4 24.8-24.8a25.2 25.2 0 0 0-24.8-24.8c-13 0-25.4 11.4-24.8 24.8a25.2 25.2 0 0 0 24.8 24.8Z"/><path fill="#73bf44" d="M88.7 71.1c13 0 25.4-11.4 24.8-24.8a25.2 25.2 0 0 0-24.8-24.8c-13 0-25.4 11.4-24.8 24.8a25.2 25.2 0 0 0 24.8 24.8Z"/><path fill="#73bf44" d="M94.3 77.9c13 0 25.4-11.4 24.8-24.8a25.2 25.2 0 0 0-24.8-24.8c-13 0-25.4 11.4-24.8 24.8a25.2 25.2 0 0 0 24.8 24.8Z"/><path fill="#73bf44" d="M95.5 80.2c13 0 25.4-11.4 24.8-24.8a25.2 25.2 0 0 0-24.8-24.8c-13 0-25.4 11.4-24.8 24.8a25.2 25.2 0 0 0 24.8 24.8Z"/><path fill="#73bf44" d="M95.7 80.4c13 0 25.4-11.4 24.8-24.8a25.2 25.2 0 0 0-24.8-24.8c-13 0-25.4 11.4-24.8 24.8a25.2 25.2 0 0 0 24.8 24.8Z"/><path fill="#73bf44" d="M110.6 74.3c10.8 0 10.9-16.9 0-16.9s-10.9 16.9 0 16.9Z"/><path fill="#73bf44" d="M107.1 87c10.9 0 10.9-16.8 0-16.8s-10.9 16.9 0 16.9Z"/><path fill="#73bf44" d="M108 87c11 0 11-16.8 0-16.8-10.8 0-10.8 16.9 0 16.9Z"/><path fill="#73bf44" d="M97 84.2c10.9 0 10.9-16.9 0-16.9-10.8 0-10.8 16.9 0 16.9Z"/><path fill="#73bf44" d="M100.1 88c10.9 0 10.9-16.8 0-16.8-10.8 0-10.8 16.8 0 16.8Z"/><path fill="#73bf44" d="M104.4 86.7c10.8 0 10.9-16.9 0-16.9s-10.9 16.9 0 16.9Z"/><path fill="#73bf44" d="M106.9 85c10.9 0 10.9-17 0-17s-10.9 17 0 17Z"/><path fill="#73bf44" d="M108.5 84.2c10.8 0 10.8-16.9 0-16.9-10.9 0-11 16.9 0 16.9Z"/></svg>