<svg xmlns="http://www.w3.org/2000/svg" viewBox="0 0 150 150"><path fill="#73bf44" d="M4.9 67.6a2.5 2.5 0 0 1-2-.2c-.5-.2-.7 0-.9.2a1.7 1.7 0 0 1-2.4.2 1.3 1.3 0 0 1 0-1.4c.2-.3.6-.6.3-1a.3.3 0 0 1 .2-.5c1.1-.2.7-.8.3-1.4-.3-.4 0-.6.4-.7.6-.2.6 0 .7.3 0 .2 0 .5.1.4.7-.5 1.3-.2 2 0l.3-.3c0-.3-.1-.4-.3-.5a1 1 0 0 1 0-1.4c.4-.3.3-.9.9-1.1a1.7 1.7 0 0 1 2 .5c.4.9.8 1 1.9 1a3.7 3.7 0 0 1-1.2-2.4c.2-.5.3-1 1-1 .3 0 .8-.2.6-.7-.1-.2-.1-1.1-.9-.5a.3.3 0 0 1-.2 0c-.3-.7-.8-1.4-.6-2 0-.5.1-1.5 1.2-1.6.2 0 .4-.5.6 0 .2.4.3 0 .5 0 .5 0 .7-.4.8-.8 0-.3-.3-.6.1-.7a.6.6 0 0 1 .8.5c.1.4.8.7.5 1.3 0 .1 0 .3.2.3.5-.6 1.3-.3 1.8-.6.8-.5.3-1.2.1-1.6a1.1 1.1 0 0 1 .4-1.5c.3-.2.8 0 1-.5.1-.3 0-.7.4-1a1.8 1.8 0 0 0 2.2.4c.3-.2.5 0 .5.2 0 .4.3.5.6.5a.4.4 0 0 0 .5-.3c0-.3-.3-.4-.4-.6-.3-.7-.7-.7-1.5-.8-.4 0-1.4-.6-.9-1.6.2-.3 0-.5-.2-.5-.7 0-.5-.7-.5-1 0-.3.4-.2.8-.2.3 0 .4-.4.3-.4-1.3-.4-.9-1.5-1.1-2.2a1.5 1.5 0 0 0-.6-1c-.3-.2-1-.7.1-1 .3 0 .5-.2.5-.4 0-1 .8-1.4 1.6-1.7.7-.2 1-1 1.7-1 .2 0 0-.4 0-.6-.2-.5-.3-1.2.7-1a.6.6 0 0 0 .6-.4c.2-.4.5-.3.7 0 .2.5.5.6.8.3.5-.4.2-.5-.2-.6.4-.3-.5-1.2.6-1.2.4 0 .3-.5.7-.5.9-.1 1.7-.6 2.5.2 0 0 .7.1.8-.1.3-.5.7-.2 1-.2.3 0 .7.3.9 0a.7.7 0 0 0-.4-1c-.6-.2-.6-.7-.5-1.2 0-.5.1-1-.7-.8-.2 0-.6-.4-.8-.6.4-.3.2-1 .6-1.2.5-.1.5-.4.4-.7-.2-.4-.5-.3-.8-.2-.5.2-1 0-.9-.4 0-.7-.5-.9-.8-1.3-.4-.4-1-.7-.6-1.5.1-.2-.3-.7-.6-1-.7-.7-.7-1.1 0-1.8.5-.3.8-.9 1.4-1 .4.5-.4.4-.3.8.1.1.2 0 .4 0 .4 0 1.8.5.6-.8 0 0 0-.5.6-.3.9.4 1 .7.7 1.4-.3.7 0 1 .7 1.2a6.6 6.6 0 0 1 1.1.4h.1c.5-.5 1.2-.1 1.8-.3.3 0 .5-.6 0-1a.8.8 0 0 1-.4-1c.2-.5.9-.4 1.2-.3.6.3 1.5.5 1.2 1.5l.2.3c.4-.7.9-1 1.7-.7.2.1.5.2.6 0 .1-.3.4-.5.1-.8a.6.6 0 0 1-.2-.5c.1-1.4-.3-2.3-2-2.4a.6.6 0 0 1-.4-1c.5-.8 0-1.3-.4-1.9 0 0-.2 0-.2-.2-.1-.2.1-.4.3-.4.8.3.7-1.3 1.6-.7.1 0 .2.4.4.3.7-.5 1 .2 1.6.4-1.2-.8-.6-2.5-2-3.2-.2 0-1-.6-.2-1.1-.5-.5-.7-1 0-1.4.5-.2.7-1 1.4-.7 0-.3.2-.4.5-.5.5-.1.9-.3.9.5 0 .6.8.4 1 1a2.3 2.3 0 0 1 .4 1.2c0 .6.1 1 1 .8.9-.2 1.3.3 1.3 1.3 0 .7-.5 1.3 0 2 0 .2-.1.5-.3.4-1-.5-.9.6-1.4.9 1 0 2.1.1 2.5 1.4a4.6 4.6 0 0 1 1.6-1.5c.6-.3.7-.8.2-1.2-.6-.5-.6-1 0-1.4.1-.1.2-.2 0-.3 0-.2-.3-.4-.5-.2-.8.5-1-.4-1.4-.6.3-.4-.5-1.2.7-1.4a10 10 0 0 0 2.3-.7c.2-.1.8 0 .3-.6-.2-.2 0-.3.2-.4l.6-.1c.1-.1.2-.5.5-.3.2.2.1.4 0 .6-.1.6 0 .8.5.3.3-.3.4 0 .5.2 0 .7-.4 1-1 1l1.7 1.8 1.4 1.7s.6.8.9 0a2.2 2.2 0 0 1 1.2.3c.3.2.5.8.9.5.5-.5-.5-.6-.5-1 .7 0 1-.2.5-.8-.3-.5.3-.6.3-1 0-.6.4-.1.6-.1a3.2 3.2 0 0 1 2.9 2.5c.1.6.8 1.1 0 1.8l.2.5c.7.1.7 1.4 1.8.8 0 0 .2 0 .3.2l-.1.3c-.6.5-.5.6.2.8.5.2 1.2.5.9 1.4a1.9 1.9 0 0 0 .1 1.3c.1.2.3.6.6.7.4 0 .4-.3.6-.5.1-.4.4-.8 0-1-.9-.5-.6-.9 0-1.3.4-.3 0-.6-.1-.9-.2-.2-.3-.4 0-.6.2-.1.4 0 .4.2.3.4.5.2.7 0 .3-.2 0-.3-.2-.5-1-.9-.8-2 .5-2.3.5-.2.2-.7.9-.9 1-.3.8.6 1.3.8-.4.2.4 1-.6 1-.4 0-.8.7-.8 1.1a.8.8 0 0 0 .8.8c.2 0 .5.2.4.5-.4.8.5.7.8.9.3.2.4-.3.3-.4-.4-.5 0-.8.1-1.2v-.2c.2-.2.4-.1.5 0 .7.2 2-.7 2.1.7.2.9.8.9 1.4 1.2-.8-.8.1-2.5-2-2.6.5-.3 1.2-.3.6-1-.1-.1.1-.4.4-.2.4.4.7.3 1-.1a.6.6 0 0 1 .7-.3.5.5 0 0 1 .4.7c-.1.3-.2.5.2.5a.9.9 0 0 0 .8-.4c.2-.2-.1-.3-.2-.4-.5-.3-.5-.9-1-1-.2 0-.2-.2-.1-.3.4-.8.2-1-.6-1.3-.4 0-.5-.6-.5-1 0-.2.4-.2.7-.1.8 0 1-.7 1.4-1.2.3-.3.5-.8 1.1-.2-.4-.6.3-1.1 0-1.7.7 0 1-.7 1.7-.9a.5.5 0 0 1 .5.2c.3.4.6.6 1.2.2.4-.2.6.4 1 .6-.4.5 0 1.1-.2 1.4-.8 1.3.8 1.2 1 1.8-1-1-.4-2-.1-3.1.1-.6-.3-1.7 1-1.5.3 0 .2-.3 0-.4-.7-.3-.3-.5.1-.6a1.6 1.6 0 0 0 1.1-.6c.3-.5.6-1 1.4-.7a7.3 7.3 0 0 0 1.5-.4c.4-.1.5-.2.8.3.2.4.7.6.9 1.2-1-.2-1.1.6-1.5 1.2-.7 1.2 0 2.6-.4 3.8a1.3 1.3 0 0 1-.1-.2c-.1-.3 0-1-.5-.9a1 1 0 0 0-.6 1.2 1.6 1.6 0 0 1 0 .6c0 .3-.4.5 0 .8.3-.4.7.8 1.2-.2.3-.5 1.5-.6 2.3-.9.2 0 .4.2.4.4.3.8 1.1.6 1.7.8.3 0 .4-.1.4-.4a6.7 6.7 0 0 0-.2-.7l-.4-2.5.2-.5c.4-.5 1-1-.2-1.3a.9.9 0 0 1-.4-1 1.4 1.4 0 0 0-.2-1.7 3.3 3.3 0 0 1-.5-1.4c-.2-.6.4-.4.5-.4a2.8 2.8 0 0 1 1.7.8c.1.1 1 .6-.1.7-.4 0-.3.3-.2.5a5.4 5.4 0 0 0 .5.7c.4.4.5.7 0 1.1a1.6 1.6 0 0 0-.4.8c0 .2.1.4.4.5.1 0 .4.3.5 0 .3-.8 1.5-.3 1.9-1.2-.6 1.1.8 1.6.6 2.6l.9.4c0-.2.8-.3.1-.7-.3-.2 0-.5 0-.7.1-.4.2-.8-.2-1-.7-.5.2-1.1-.2-1.6a4.5 4.5 0 0 1 1.2-.6c.5 0 .3.4.3.6 0 .2 0 .5.2.5.3 0 .3-.3.3-.5.1-.5-.2-1 0-1.6l.4 1.7a.5.5 0 0 0 .6.3c.3 0 .3-.3.3-.5a15.2 15.2 0 0 1 .2-2c.1-1 1.1-1 1.8-1.3.2 0 .4.2.5 0 .3-.7.7-1 1.2-.3a.2.2 0 0 0 .4 0c.2-.2.3-.6.6-.2.3.3.9.5.5 1.2-.2.4 0 .9-.7 1.1a.6.6 0 0 0-.1 1c.3.3.6.7-.1 1-.2 0-.4.3-.4.5-.2.4-.2.9.2 1 .3.1.5-.2.8-.4.8-.7.9-1.9 1.9-2.3-.2-.6.3-.6.8-.7a1.9 1.9 0 0 1 1.9.6c.3.4 0 .5-.4.5-.5.2-.5.3-.1.6s.1.5 0 .9c-.2.5-1 1.2 0 1.8.3.3-.4 1 .4.9.6-.1 1.3-.5 1.3-1.2 0-1 1-.5 1.3-.9l.2.5c-.2 1.1.4.8 1 .4 0 .9.3 1.8-.9 2.1-.2.1 0 .5 0 .7a2 2 0 0 0 1.9 1.5.4.4 0 0 0 .5-.4c0-.2-.2-.3-.4-.3a2.5 2.5 0 0 1-.4 0c-.4-.2-.4-.5-.3-.8 0-.3.4-.1.5 0a2 2 0 0 1 1.5.8c0 .2.4.3.2.4-.8.5-.7 1-.1 1.6.1.2 0 .4-.3.5a11 11 0 0 1-2.9 0l-.3.1c-.6 0-1 .8-1.2.7-.6-.3-.8-.1-1.2.3-.2.3-.4 0-.6 0a1 1 0 0 0-1.4.4l-1 2.1a.3.3 0 0 0 .1.4.4.4 0 0 0 .5 0l1-.7c.1-.4-.7-.3-.3-.8a1.3 1.3 0 0 1 1.7-.6c.6.3.8 0 1.3-.3-.3.8.6 1.5-.3 2.2-.2 0 .2 1 .4 1.4.1.3.3.5 0 .6-1 .2-.8.6-.3 1.1a.7.7 0 0 1 .2.7 3 3 0 0 0-3.2.5c.9 0 1.6.3 1.9 1.2.1.6 0 .9-.7.7-.2 0-.4 0-.5.2-.1.3.1.3.3.4a1 1 0 0 1 .6 1.1c0 .4-.6.2-.8.4-.6.5-1.4.6-2 1.2a1 1 0 0 0-.2 1c0 .4.4 0 .7 0l1.6-.3c.2-.1.3-.3 0-.4-.2-.2-.6-.3-.4-.6a1.2 1.2 0 0 1 .8-.7c.4 0 .9-.4 1.2-.2 1 .9.8-.1 1-.8.5 1.1 1.6.3 2.3 1 .2.1.5-.2.6-.4l1-1c.6-1.3 1.3-.4 1.8 0 .6.5.9.3 1.2-.2l1.6-1.8a3.6 3.6 0 0 1 .3 2c.7-.5 1.5-.6 1.9-1.3 0-.1.2-.2.4-.1.6.4.6-.3.6-.5-.1-1 1-.8 1.3-1.3 0-.1.3 0 .4 0 1 .7 1 .7 1.3-.6 0 .8 0 1.6.6 2 .2.1.1.3 0 .4a1.9 1.9 0 0 0 0 1.9c.5 1.1.4 1.6-.7 2.4-.3.2-.2.5-.1.7.1.3 0 .8.5 1 0 0 .7-.7.6-.8 0-.1-.1-.3 0-.4.4 0 .5.2.6.4l.3.4c1.6.2 1 1.8 1.7 2.6.1.2 0 .6.6.3.4-.1.4.4.3.6 0 .4.2.5.5.5.4-.1.1-.3 0-.5 0-.2 0-.4.2-.5.8-.2.8-.5.4-1l-.2-.4a7.2 7.2 0 0 0 1.3-2.1c.1-.3.5.2.7.4.4.5.6 1.3 1.5 1 .2 0 .7 0 .2-.4-.2-.2 0-.3.1-.3 1.3-.2 1-1 .8-1.9.5-.1.7.3 1 .4a1 1 0 0 0 1 0 1.3 1.3 0 0 1 1.8.3 2 2 0 0 0 1.5.6 2.8 2.8 0 0 1 2.2 1.3.8.8 0 0 1 0 .2c-1.3.2-.2.8-.1 1 .1 1-.6.8-1 .8-.7-.1-1.3 0-1.6.7-.5 0-.2-1-.8-.6a1.4 1.4 0 0 0-.9 1.5A8 8 0 0 0 134 38c.1.1.3.3.2.5-.2.2-.4-.2-.6 0 .3 1 .3 1 1.3.7.5 0 1.2-.3 1.6.3a.4.4 0 0 0 .5.1c.8-.5 1.5 0 2.3-.1.2 0 .4.1.3.2-.3.8.7 1.3.4 2l-.7.2c-.5-.1-.9-.1-.7.6a.2.2 0 0 1-.2.2c-.4 0-.4-.3-.4-.6s-.2-.6-.6-.5c-.3 0-.6.3-.4.8v.3c.2.8 0 1.2-.8.5 0 1.4 0 1.4-1.3.7-.7-.4-1.5-.6-1.2-1.8.1-.7-.6-.1-1-.2a.7.7 0 0 1 .5 1c-.3.2-.5-.7-.7-.1-.1.3-.7.6-.3 1 .2.3.6.5.3.8-.2.2-.7 0-1 .2-.7-1-1.4 0-2.2 0h-.1c-.4-.2-.9-.7-1.2-.2a4.5 4.5 0 0 0-1 2.5.7.7 0 0 0 .5.7c.3.1.5-.1.6-.4l.1-.2c1.4.4 1.5-1 2.5-1.4a2.2 2.2 0 0 1 .7 2.5c0 .3.5.9.2 1.4a.7.7 0 0 1-.5.4c-.7.2-1.6.2-1.7 1.2 0 .3-.5 0-.7.4 1.4.6 1.3 1.8 1 3v.5h.4c0-.9 1-.7 1.3-.7.9 0 1.4-.9 2.4-.6.7.3 1.3-.5 2-.8.5-.1.7-.2.6.4 0 .6 0 .9.7.4a.4.4 0 0 1 .2 0c.3.7 1.2.4 1.6 1 .2.2.6.6.4.9a8.1 8.1 0 0 0-.9 3.1c0 .4-.8.2-1 .7 0 .4-.3.6-.8.4-.7-.3-1.2.5-1 1.6a1.3 1.3 0 0 1 1.9 1c0 .2-.1.4-.3.5a2 2 0 0 0-1.1 1.8c0 .3-.2.6-.6.4-.6-.4-1.3-.3-2-.8v1c1.2.1 0 1.5 1.1 1.7-.6.3-1.9.2-.8 1.2a.1.1 0 0 1 0 .1c0 .3-.5.7 0 1 .4.2.7-.4 1-.6.3-.1.5-.3.8 0a2.6 2.6 0 0 0 1.3.2c.2 0 .5 0 .5-.4-.1-1.2.8-1.7 1.7-2l.3-.3c-.1-1 .9-.9 1.3-1.3.3-.3.7 0 .8.3 0 .3.4.2.4.7 0 1.3-1.4 2.2-.9 3.6a.4.4 0 0 1 0 .2c-.8 0-1.2.7-1.8 1-.2 0-.6 0-.6.2-.1.4.2.6.6.7a23 23 0 0 0 3.7.6.5.5 0 0 1 .3.1 16.6 16.6 0 0 1-3.2-.3c-.3 0-.7-.4-.9 0a1.2 1.2 0 0 0 0 1.1 1 1 0 0 1-1 1.2c-.2 0-.2.2-.3.2-.6.3-.8 1.6-2 1-.4-.3-.5.2-.6.4a.8.8 0 0 0 .3 1 .4.4 0 0 0 .6 0c.5-1 1.4-.6 2.1-.7.3 0 .4.2.4.4a.6.6 0 0 0 1 .4c.3-.7 1.1-.5 1.5-1 .3-.4.8-.2 1 0l1.1 1c1 .7 1.4.7 2.2-.2.6-.7 1-.6 1.5.2.2.5.3 1 1.1 1 .3 0 .3.2.3.5-.3 1.1 0 1.6 1.2 2a1.4 1.4 0 0 1 1.1 1.1c0 .5.2.7-.4.5-.6 0-.5.5-.5.7.1.6 0 .5-.5.6a3 3 0 0 1-3.4-1.3 1.4 1.4 0 0 0-2 .3c-.3.4-.3.6.3.6l1.2.2a3.9 3.9 0 0 1 1.1.2h-1.5c-.4 0-1.2-.4-1 .6l-.4.3c-.2.3-.8-.2-.8.3.1.7-.7 1.6 0 2.2a4 4 0 0 1 .9 1.6c.3.7.6 1.3 1.7 1.4.2 0 1.3.3.5 1.2l.1.3c.2.3.7.6.1.8a1.7 1.7 0 0 1-1.8-.2c-.4-1-.4-1-1.4-.9 0 .5.6.4.6.9-.5 0-1 .6-1.4-.2a2 2 0 0 1-1.9-.2l-.2.2c.4.8-.8 1.6 0 2.3a1.6 1.6 0 0 1 2.2.6c.2.4.7.7.2 1.3-.3.2.4.4.4.8a1.4 1.4 0 0 1-2 1c-.5-.2-.8-.3-1.2.2-.5.7-1 .5-1.4-.3-.3-.4-.6-1.1-1.2-.2-.1.2-.3.2-.5.2a2.2 2.2 0 0 0-1.3 1.9c-.1.3.1.2.3.2.5 0 .9.4 1.2.6.3.2.7.6 0 .7l-.3.1c.8.4-.3 1.3.4 1.7a.2.2 0 0 1 .1.1c0 .8.3 1 1.3.8.5 0 .9 0 1.1.5.3.6.7.6 1.1.1a.4.4 0 0 1 .6 0c.4.4.7 0 .9-.3.4-.5.8-1 1.5-.6l-.2-.6v-.4c.3-.1.5 0 .6.2.4.8.5 1.8 1.1 2.5-.8.6-.2 1.4-.1 2-.5 0-.5-.2-.8-.3-.3-.2-.5-.6-.8 0a1.2 1.2 0 0 1-1.3.5c-1.2-.3-1.2-.3-1.1.9-.3 0-.5-.4-.7-.1-.3.3 0 .4.1.5.2.3-.6 1.2-1 1-.7-.1-.8.4-.9 1 0 .5 0 .8.7.7.6 0 .6.5.4.9-.4.7.3.9.6.9 1.7 0 2.7 1 2.3 2.6.5.1 1-.5 1.3.1 0 .1.3.1.4 0 .3-.9.8 0 1.3-.1 0 .4.5.9.3 1.3a8.4 8.4 0 0 0-.4 4c0 .7-.7 1-1.2 1.4-.1.2-.5-.3-.6-.6a1 1 0 0 0-.9-.6c-.3 0-.7-.3-.7-.5.2-1.4-1-.8-1.6-1.2h-.2c0 .8-.6 1-1 1.4-.4.4-1.1.5-1.6 1l-.3.1a9.6 9.6 0 0 0 .5 3.6c0 .2.2 0 .3 0 .2 0 .4 0 .4.3 0 .2-.1.3-.3.3-.9.3-1 .6 0 1a.6.6 0 0 1 .2.4c0 .2-.2.3-.4.3a14 14 0 0 1-3.2-.3c-.6-.1-.9-.8-1.2-1.3-.7-1-1.2-2.1-2.6-2.5-.9-.2-.6-1.2-1.1-1.7-.6-.5-.8-1.1 0-1.7a.2.2 0 0 0-.1-.4.4.4 0 0 0-.4 0 2 2 0 0 1-.9.4c-.8 0-1.2 0-1.2-.8 0-1-.8-2-.4-3.1.1-.3 0-.6.2-.8.5-.5 0-.8-.4-1.3.3.9-.4 1.3-.3 2v.2c-.4.2-2-.5-2-.9-.2-1-.9-1.4-1.9-1-.3.3-.3.2-.6 0-.5-.5-1-.2-1.1.5a17 17 0 0 0 0 2.4c0 .4 0 1 .8 1 .5 0 .5.8.6 1.2.2.5-.5.1-.7.3l-1.2.4c-.7.4-1.3-.2-1.5-.6-.3-.4 0-1.2.4-1.4 1.4-.8 1.4-2 1.3-3.3 0-.3-.1-.6-.3-.6-1 .1-1.3-1.3-2.4-1 0 .3.3.7-.6.7-.4 0-1 .4-.4 1.1.5.6-.1 2-1 2a1.5 1.5 0 0 0-1.2 1 7.7 7.7 0 0 1-1.6-2.6 1.9 1.9 0 0 1 .1-1.2 1.1 1.1 0 0 0 .1-.8c-.2-1-.4-1.8-1.5-2-.1 0-.4 0-.3-.1 0-.9-.8-1-1.1-1.6-.3.4-.6.8-1.1.6-.2-.1-.5-.2-.4-.5a1.4 1.4 0 0 0-1-1.7c-.2-.1-.2-1 0-1.2a1.7 1.7 0 0 0 0-2.8 35.4 35.4 0 0 1-4.6-3.1 4.3 4.3 0 0 1-.7-.6c-.2-.3-.4-.6-.9-.1-.1.2-.6.1-1 .1l-.6.1c-.3.6-1.1.5-1.6 1.1l2.4 1c0-.7-.7-1-.7-1.7.5.9 1.3 0 2 .3a1.5 1.5 0 0 1 1 1c.2.6.5.7 1 .8 1 .2 1.3.7 1 1.7 0 .5 0 1-.3 1.4-.2.3.2.4.5.4.9 0 1 .5.7 1.1v.5c.3.2.6.6.2.7-.3.2-.7.6-1.1.1-.5-.5-.8-.2-.8.3.2 1.2-.9.5-1.2.8-.5-.4-1.1-.4-1.6-.7a1.5 1.5 0 0 1-.6-1.8c0-.2.3-.3 0-.4-1-.7-2-1.3-2-2.6l-.6-.2c-.6 0-.8-.6-1-1-.3-.8-.7-1.1-1.5-1a1 1 0 0 1-.6 0c-1.8-1-3.3 0-4.7.7-3.6 2-6.1 5-8.8 7.9-2.2 2.5-3.3 5.6-4.5 8.6a5.8 5.8 0 0 0 .2 3.5c.9 3.8.9 7.6 1.3 11.4a13.6 13.6 0 0 1-.4 4 17.2 17.2 0 0 0 .3 7.3l.1.6c.2 1.1.1 1.2-1 1.2h-7c-.8 0-1-.2-1-1 .7-3.7 1-7.4 1.5-11 .2-1.7-.4-3.4-.6-5.1-.3-2.9.1-5.7.1-8.6 0-1.8.8-3.5.2-5.3a21.4 21.4 0 0 0-3.4-6.7c-.8-1.2-1.8-2.2-2.7-3.2-.4-.5-.7-1-1.3-.2a.5.5 0 0 1-1-.2c0-.6-.8-1.2.1-1.8-.7 0-1.4 0-1.6.9-.1-.6-.4-.9-1-.6-.2.1-1 .6-.8-.5.1-.3-.5-.4-.7-.7 1-.2 1.8-1.2 3-.6a3 3 0 0 0-3-1.5c-.4 0-.7.1-.8 0-.3-.9-.6-.6-1.2-.4a2.4 2.4 0 0 1-2.9-1.7.8.8 0 0 0-.7-.5l-2.8-.6a1 1 0 0 0-1 .3 1.6 1.6 0 0 1-1.8.3 1.8 1.8 0 0 0-2 .2c-.3.1-1.3-.4-.2.8-.8-.4-1.1-.5-1.6 0-.3.3-1.2.2-1.5.4-.9.5-1-.1-1.4-.5-.3-.3-.4 0-.6 0a8.2 8.2 0 0 0-1.8 1.3 1 1 0 0 1-1.6-.5c-.3-.5-.5-1.2-1.4-1-.2 0-.3 0-.3-.3a.7.7 0 0 0-.4-.7c-1-.4-.5-.8-.1-1.2.2-.3.6-.6.3-.8-.3-.2-.6-.7-1.2-.5a1.7 1.7 0 0 1-2.2-.6c-.3-.5-.7-.8-1.4-.3a1 1 0 0 1-1.3.3c-.3-.2-1 .8-1 1.2 0 .1.1.2 0 .2-.7.7-.3 1.4.1 2 0 .2.3.5 0 .5-.4 0-.8.4-1.2 0-.4-.6-.9-.8-1.5-.3-.1.1-.3 0-.4 0a.9.9 0 0 0-1.2.2c-.3.6-.5 1.3-1.4 1.2-.2 0-.1.3-.1.5 0 .6-.1 1.1-1.1 1.2-.7 0-1.4.4-2.1 0-.2 0-.4.1-.5.4 0 .2 0 .3-.2.4a5 5 0 0 0-2.1 2.2c-.1.5.7.4.7 1-.4 0-.9 0-.6.6 0 .2-1 .7-1.4.7-.9-.2-1 .1-1 1 0 .2 0 .6-.6.3-.3-.2-.6 0-.8.3-.7.6-1.1.5-1.4-.3a3 3 0 0 0-.2-.7c-.4-.5.1-.5.4-.5 1.4 0 1.4 0 1-1.3a1.7 1.7 0 0 1 .2-1.5c.2-.3.4-.7 0-.8-.6-.1-.4-1.5-1.5-.8a2.1 2.1 0 0 1-2.7-.5.6.6 0 0 1 0-.8c.2-.3.8-.6.3-1.2l.4-.3c.5-.3 1.2-.5 1.4-1.2.1-.3.4-.2.7-.3 1-.2 1.2-.8.5-1.6a5.1 5.1 0 0 0-1-.8c-.7-.5-1-.1-1.2.3-.1.2-.2.6-.5.4-.7-.5-1.3.2-1.9.2-.5-1.1.5-2 .5-3 0-.7 1.5-1.6 2.2-1.5.3.1.4 0 .6-.2.2-.3.4-.4.7-.1.5.4.9-.1 1-.3.4-.3.4-1 1-1 .2-.1.2-.5 0-.6-.7-.2-.3-.6-.4-1 0-.5.1-.5.5-.5a.4.4 0 0 0 .4-.2c.1-.1.3-.3.5-.2a.4.4 0 0 1 .1.6c-.4.5.4.4.4.8 0 .1.4 0 .4 0 .2-.4.5-.8.1-1-.7-.6-.8-1.7-2-1.8l-.2-.2c.7-.5 0-.9 0-1.3 0-.6-.4-.6-.7-.2-.5.5-.7.5-1-.1a1.4 1.4 0 0 0-1-.7c-1.2 0-1.3-1-1.6-1.7a.7.7 0 0 0-.6-.5 1.3 1.3 0 0 1-1-2c.2-.3.5 0 .7 0a5.3 5.3 0 0 1-.8-3.1c0-.5.5-.5.8-.7-.3-.7-1.3-.6-1.4-1.5 0-.4.1-1-.2-1.4.6.1.7-.7 1.3-.6.3 0 .8.2 1-.3 0-.2.2-.2.3 0 .2.1.1.3 0 .5 0 .2-.5.4.1.6.5.2.5-.1.6-.4.3-.7 1.2-.9 1.4-1.7l.2-1a.4.4 0 0 0-.3-.4c-.2-.1-.4 0-.5.2-.5.7-.9.5-1-.2-.1-.4-.3-.5-.7-.7a1.3 1.3 0 0 1-.8-1.7c.2-.4 0-.5-.4-.6l-1-.5c-.2-.1-.2-.3-.4-.3s-.2.2-.2.3ZM105 77.1c-.3.4-.9.2-1.1.5 0 .3.8-.1.2.4-.4.4-.4.7.2 1a1.2 1.2 0 0 0 1.3-.5 2.2 2.2 0 0 0 .3-1.7l1-.6c0-.1.1-.4 0-.4-.5.2-1.2-.5-1.7.2-.5.6-.9.7-1.3-.1-.3-.6-.6-.5-1-.1a2.4 2.4 0 0 0-.8 2 9 9 0 0 1 3-.7ZM37.2 93.9l-.7-.5a1 1 0 0 0-1-.3c-.4.1-.5.4-.4.7 0 .4.2 1 .6 1 .8-.1 1.6.3 2.4 0a10.4 10.4 0 0 0 2.5 1.6c.5.2 1 .3 1.2-.3.2-.4.3-.7-.3-1a1.9 1.9 0 0 1-.7-2.3c0-.2 0-.3-.2-.3a21.7 21.7 0 0 0-3.3-.4c-1 0-1.2.4-.5 1.2a4.9 4.9 0 0 1 .4.6Zm70-64.3c-.3.4-.9-.2-1.1.4-.3.8-1.1.7-1.7 1.1-1 .7-2.2.6-3 1.4a.8.8 0 0 1-1.5-.1c.2.3-.5.5-.2.8a5.3 5.3 0 0 1 1.3 2.3c.2-.4 0-.8.5-.9.3 0 .5-.1.3-.4-.5-.7 0-.6.4-.7.8 0 1.8-.3 1.4 1a.3.3 0 0 0 .1.3c.7.5.4 1 .5 1.9-1-1-2 .1-3-.7a1.4 1.4 0 0 1-.7 1.3 1.6 1.6 0 0 1 1.4 1l.1.4c.9-.2 1.8.6 2.6-.2a1.3 1.3 0 0 0-.3-.1c-.2 0-.6-.1-.5-.4 0-.4.4-.3.7-.2h.1c.6.1 1.4.7 1.2-.6 0-.2.3-.2.4-.3.7-.4 1.1-1.8.7-1.9-1-.2-.3-.7-.4-1-.2-.5 0-.8.1-1.2a6.7 6.7 0 0 1 .5-3.2ZM46.3 95.5c-.2-.2-.3-.3-.4 0-.1.3-.1.6.1.7a26.3 26.3 0 0 1 3.2 1.7 18.5 18.5 0 0 1 2 .3c1.1.1 2.2.8 3.4.1l.4.2c.2.1.2.7.6.3.4-.4.2-.7-.2-.9l-1.7-1A16.7 16.7 0 0 0 49 95a4.4 4.4 0 0 1-2-.7 1.6 1.6 0 0 0-2.3.4c-.2.1-.3.3 0 .4.2 0 .5.4.9.2a.2.2 0 0 0 0-.3c-.2-.2-.4-.3 0-.5a1 1 0 0 1 1 0 .6.6 0 0 1 .2.7c0 .2-.2.3-.4.2Zm31.1 10.9a64.3 64.3 0 0 1 6.8-6c-1.9 0-3.7 0-5.6.2a1.4 1.4 0 0 0-1.2 1.5v4.3ZM17.2 94.7l-.3-.2c-.4-.1-.9-.2-.8-.6a1.7 1.7 0 0 1 .8-1.2c.4-.3.6.2.8.4.2.2.3.2.6.2 1.5 0 2 .3 1.7 1.5.3-.1.6 0 1-.2-.3-.8-.3-1.8-1-2.2-.4-.4-.8-1.3-1.6-1-.7.3-1.3-.4-2 0a6.3 6.3 0 0 1-1.5.5c-.8.2-1.5 1.6-1 2 .6.7-.4.8-.4 1.3s-.5-.1-.8.1c0 .4.3.6.5.8.2.1 0 .6.4.4.2-.1.5-.2.5-.6 0-.2-.5-.7.1-.8.5 0 .6.3.7.7 0 .3.5.7.8.2.3-.5.7-.4 1.2-.4-.9-.8.2-.6.3-1ZM92 98c-.9.8-2 1.2-2.8 2-.6.6-.7 1.6-2 1.3l-.2.2a71.9 71.9 0 0 0-6.7 5.8 5.8 5.8 0 0 0-1.2 2.2c1.1-.8 2-1.8 3.1-2.7a57.5 57.5 0 0 0 7.8-6.6l2-2.2Zm-6-5.2c-.5.6-1.5.4-1.2 1.4 0 .3-.3.2-.4.1-.4 0-.7 0-.9.3-.2.4-.6.2-.8.1-.7-.4-1.2 0-1.8.3L79 96.2a1.1 1.1 0 0 0-.6.8v.5c.3.1.4 0 .5-.1a9.4 9.4 0 0 1 4.3-1.4l3-.4c.4 0 1-.2.5-.6a3 3 0 0 1-.9-2.1Zm-6.5 7.1h3.9a3.3 3.3 0 0 0 2.2-.6c.5-.3.3-.8.3-1.2a.4.4 0 0 0-.5-.3c-2 .3-4.2.4-6 2.1Zm-.7-4L80 95c.7-.5 1.6-.7 1.9-1.6a2 2 0 0 1 1.4-1.2c.3 0 .7.2.8-.2.1-.4-.5-.4-.7-.4-.5-.2-.7-.7-1.2-.6a1.8 1.8 0 0 0-1.2 1c-.3.3-.4.9-.9.8-.6 0-.6.3-.7.6l-.7 2.4Zm24 4.4a28 28 0 0 0 3 2.4c.5.5 1.2 1 2 .3.3-.2.7 0 .7-.6 0-.5-.3-.7-.7-.8l-4.5-1.3a2.5 2.5 0 0 0-.6 0ZM28.3 28.6c.2.5-.7 1.4.7 1.4 0 0 .1.1 0 .2 0 .2-.1.3.2.4a.3.3 0 0 0 .3-.3v-1.5c.3.2.4.6.9.6-.1-.7.6-1 1-1.3.1-.2.5-.4 0-.6a13 13 0 0 1-2.3-1.1c-.2 0 0 .3-.2.3-.6.6-1 1.1 0 1.8a.3.3 0 0 1 0 .5c-.4.2-.3-.3-.6-.4Zm48.8-13.3c-.2-.4-1-.4-1-1-.2-.4-.8-.6-1.2-.5h-.2a2.7 2.7 0 0 1-2.3-.6c-.3-.2-.6-.3-1 0s0 .6.2.9c0 .1.4.3.3.5-.3.2-.6-.3-.7 0-.2.3 0 .7.3 1 .2.2.4.4.6.1.7-.6 1-.2 1.2.5.2-.2.2-.3.1-.4a1.5 1.5 0 0 1 .8-1.6 1.4 1.4 0 0 1 1.7.5 2.4 2.4 0 0 0 1.2.6ZM44.6 87.6c0 .4 0 1 .3 1 .8-.2.6.2.6.7 0 .8 1 1.7 1.9 1.9.6 0 .7-.5 1.1-.5.3 0 .6.7.7 0 .1-.4 0-.7-.6-.9a2.6 2.6 0 0 1-1.2-.5c-.8-.8-2-1-2.8-1.7Zm27-66.8c.7 0 1.5.6 1.5-.7a.2.2 0 0 1 .1-.1 2.5 2.5 0 0 1 2.9 0 1.4 1.4 0 0 0 .6.2c.3 0 .5-.2.4-.5-.2-.6-.3-1.3-1-1.5l-1.1-.1c-.5-.2-.6-.4-.6.3 0 .6-.7.8-1.3.5-.2-.1-.3-.3-.6-.1.5 1.1.3 1.6-.9 2ZM132 121.9c.3-.3 0-.5 0-.7 0-.3.3-.4.4-.2.4.4 1 1 .7 1.6-.3.6.5.3.4.7.3 0 .4-.2.4-.4a2.8 2.8 0 0 0 0-1.5c-.6-1.1-1.6-1.7-2.4-2.5-.2-.3-.5-.8-1-.3a.7.7 0 0 0 0 1c.5.8 1.7 1 1.5 2.3ZM89.6 95.6c.3 0 .8.2 1.1-.3l1.3-1.7c.2-.3 0-.6-.3-.5-.9 0-1.8-.2-2.4.9a4.7 4.7 0 0 1-.7.8c-.2.2-.4.4-.3.6.1.3.4.2.6.2h.7Zm19-23.8c.2-.8.6-.8 1.1-.4.3.2.6.3.6 0 .2-.6.6-.7 1-.9.2 0 .4-.2.4-.4 0-.3-.3-.3-.5-.4l-1.9-.5c-.7-.2-1 .3-1 .8s-.1 1.1.3 1.8Zm-65-56.5c-.2.3 0 .5.2.7.2.4.5.8.5 1.2a1.7 1.7 0 0 0 .7 1.7c.7-1 .4-2.2.5-3.2.2-1.2-.4-1.2-1.2-1.2-.2.4.4.8 0 1-.4.4-.4-.3-.8-.2Zm51.8 80.9a8 8 0 0 0 5.1.3c-1.7-.8-3.3-1.5-5.1-.3Zm-44.1-6c0 .8.1 1.4.7 1.4.5.1 1-.4 1.6.1.6-.6 1-.2 1.6.2.3.2.7 0 1-.3.2-.2-.1-.4-.3-.6-.4-.6-.9-.2-1.4-.1-.5.1-1-1-1.6-.5-.6.5-1 .4-1.6-.2Zm46 1c.6-.5 1.5-.4 2.1-.8.2-.1.6-.2.4-.4-.5-.3-.2-.5 0-.7.2-.2 0-.4 0-.6-.2-.1-.3-.3-.5-.2a2.2 2.2 0 0 1-2 1v.1c-.7.6-.3 1 0 1.6Zm8.8-25a8.3 8.3 0 0 0 3-1c1.1-.4 1-1 1.2-2-1.2 1.4-3 1.6-4.2 3ZM50.2 23.7c-.2-.3-.7-.5-.3-1 .1-.1 0-.7-.5-.8a8.2 8.2 0 0 1-1.2-.3c-.6-.2-.7.3-.8.7-.1.5 1.2 1.6 1.8 1.4h1Zm-18 16a13 13 0 0 0-2.4-1.1c-.2 0-.2-.7-.6-.3a.8.8 0 0 0-.1 1c.6 1.3 1.4 1.4 2.6.6a2.2 2.2 0 0 1 .4-.1Zm62.1-28c.3-.2.8-.3.8-.9a2.8 2.8 0 0 1 0-1.5c.2-.4-.2-.8-.6-1a.4.4 0 0 0-.5 0c-.3.3-.3.6-.2 1 0 .5.6 1 0 1.7-.3.3.2.6.5.7Zm1.4 64.8a7.5 7.5 0 0 0-2.8 1.1c-.7.3-.1.8.1.9.5.2 1.1-.2 1.5-.4.5-.3.8-1 1.2-1.6Zm34.3 28a2.8 2.8 0 0 0 1.5-.8c.3-.2 0-.7-.2-.6-.8.4-1.6-.3-2.4.2a1 1 0 0 0-.4.6c0 .3 0 .8.6.4.3-.2.5 0 .9.1ZM5.4 66.1c-.2 0-.3.2-.3.3l.2.2a.2.2 0 0 0 .2-.3l-.1-.2Z"/><path fill="#73bf44" d="M14.4 48.2c-.7 0-1 .7-1.8.7a5.2 5.2 0 0 1-2.5-.6c-.3-.2-.3-.9-.3-1 .8-.1.7-1 1.1-1.4.4-.5.6-.2 1 .2.4.5 1.1.7 1.3 1.5.1.2.5-.2.6-.3.3-.2.5-.6 1-.4.4.1.9.4.8.8 0 .4-.5.7-1.2.5ZM5.2 73.4a9 9 0 0 0-.9-1A5.2 5.2 0 0 1 3 70.6a9.4 9.4 0 0 1 1.1 0c.3 0 .4 0 .5-.3.1-.3 0-.8.6-.6a2.8 2.8 0 0 1 1.4.6.4.4 0 0 1 0 .4c0 .1-.3 0-.4 0-.3-.1-.4-.5-.7-.4.5.7.5.7 2.3 1-.8.1-1.3.7-2.1.3-.4-.1-.3.4-.2.5a1.1 1.1 0 0 1-.2 1.3ZM107.5 23.2a2.5 2.5 0 0 1 1.8-1.9c.7 0 .6.5.7.7a1.6 1.6 0 0 1-1.2 2.3 1.2 1.2 0 0 1-1.3-1ZM4.9 67.6c0-.1 0-.3.2-.3s.2.2.3.3H5ZM5.4 66.2l.1.2a.2.2 0 0 1-.2.3l-.2-.2c0-.1 0-.2.3-.3ZM97.2 98.8c12.6 0 24.6-11 24-24-.6-13-10.5-24-24-24-12.5 0-24.6 11-24 24 .6 13 10.6 24 24 24Z"/><path fill="#73bf44" d="M78 105.4c12.6 0 24.6-11 24-24-.5-13-10.5-24-24-24-12.5 0-24.5 11-24 24 .6 13 10.6 24 24 24Z"/><path fill="#73bf44" d="M42 97.2c12.6 0 24.6-11 24-24-.5-13-10.5-24-24-24-12.5 0-24.5 11-24 24 .6 13 10.6 24 24 24Z"/><path fill="#73bf44" d="M55.6 99.2c12.6 0 24.6-11 24-24-.6-13-10.5-24-24-24-12.5 0-24.6 11-24 24 .6 13 10.6 24 24 24ZM123.7 112c14.2 0 14.2-22 0-22-14.1 0-14.1 22 0 22Z"/><path fill="#73bf44" d="M34.6 55.8c14.1 0 14.2-22 0-22s-14.2 22 0 22Z"/><path fill="#73bf44" d="M49.5 41.3c14.2 0 14.2-22 0-22-14.1 0-14.2 22 0 22ZM78 38.5c14.1 0 14.1-22 0-22-14.2 0-14.2 22 0 22ZM17.5 100.9c7 0 7-11 0-11s-7.1 11 0 11ZM77.7 108.2c7.1 0 7.1-11 0-11-7 0-7 11 0 11Z"/><path fill="#73bf44" d="M81.5 107.4c7.1 0 7.1-11 0-11-7 0-7 11 0 11Z"/><path fill="#73bf44" d="M78.3 110c7.1 0 7.1-11 0-11-7 0-7 11 0 11ZM103 106.2c7 0 7-11 0-11-7.1 0-7.1 11 0 11Z"/><path fill="#73bf44" d="M107.1 109c7 0 7-11 0-11s-7 11 0 11ZM105 44.1c9.6 0 9.6-15 0-15-9.7 0-9.7 15 0 15Z"/></svg>