<svg xmlns="http://www.w3.org/2000/svg" viewBox="0 0 150 150"><path fill="#73bf44" d="M110.4 84.5a14.5 14.5 0 0 1-5.8.5 22.5 22.5 0 0 1-2.7-.5l-4.2-1.4c-.7-.2-.7-.3-.7-1 0 .1 0 .4.2.6v-.5c.1 0 0 .2.2.3l-.1-.7.3.6v-.6l.1.3.1-.3a2 2 0 0 0 .1.2s0 .1.1 0c-.1-.5.4-.2.6-.4h-4a3.8 3.8 0 0 1-1.5-.4.3.3 0 0 1-.2-.2l-.2-1 .4 1.1a11.5 11.5 0 0 0-.1-1.3c.1.3 0 .6.3.8 0-.3-.1-.5 0-.8l.2.8a.7.7 0 0 0 0-.4l.1-.3c.2 0 .2.1.2.2s0 .3.2.4v-.6l.2.5c0-.9.5-.3.9-.5a4.4 4.4 0 0 0-.5-.1l-2.2-.2c-.4 0-.5-.2-.4-.7l.1.2c.1-.3.4-.1.6-.2a.5.5 0 0 0-.4-.1l-2.8-.4c-.3 0-.5-.1-.5-.4.1-1-.1-1-.9-1.1h-.3c-.3-.2-.4-.4-.4-.6.3.2.3.2.4-.1-.4-.1-.4-.1-.8-.6a.6.6 0 0 0-.1-.1.9.9 0 0 1-.6-1.1c.1.2 0 .5.3.8l-.1-1c.2.3.1.6.3 1 0-.4-.2-.7 0-.8.3-.1.3.3.4.4 0-.6 0-.6-.5-.7a21.4 21.4 0 0 1-2.6-.6s-.3 0-.2-.1c0-.4-.2-.8 0-1.3.1.4 0 .8.2 1 .2-.2.6-.4.3-.9.2.3.1.6.3.6.2 0 .1-.3.1-.4v-.1c.2.5.5.1.7.1 0 0 .1-.2.2 0 .1 0 0 .1 0 .2v.2l1.1-1.2c0 .6-.6.9-.7 1.4a.6.6 0 0 0 .3-.2l1.4-1.7s.1-.2.3-.1l-.1.2-1.4 1.8s-.2.1 0 .3l1.8-2.2h.1c-.4 1-1.2 1.6-1.7 2.4v.1l1.5-1.7c0 .8-.8 1.2-1 1.8.4-.1.4-.5.7-.6 0 .4-.3.6-.4 1 .3 0 .3-.5.7-.3 0 .2-.3.3-.2.5.3-.2.7-.3.7-.8l-.2 1.2a12.7 12.7 0 0 1 0 1.4c0 .2 0 .4.2.4.3 0 .5 0 .6-.3a.3.3 0 0 1 .2-.2.8.8 0 0 0 .7-.6l.1.3c.2 0 .4 0 .4-.3 0 0 0 .2.2.3l.1-.3c0 .2.1.5.3.4h.5s.3-.2.3.1c0 .1 0 .1 0 0 .2 0 .4 0 .5-.2v.5c.1 0 0-.3.3-.2 0 .1-.1.3.1.3.1 0 .2.2.1.3-.1.2-.2.4.2.3h.1c0 .2.1.2.2.2.4 0 .6-.2.7-.5 0 .3-.3.4-.2.8l.7-.8c0 .3-.3.5-.2.7.2 0 .2-.3.4-.3.2.2-.1.4 0 .6.2 0 .2-.5.5-.3.2 0-.2.3 0 .5.1 0 .2-.4.4-.1 0 .1-.2.3 0 .4a2.5 2.5 0 0 1 .2-.2.2.2 0 0 1 .3 0V78.6c.2-.3.6 0 .6-.5.1.2 0 .4 0 .4.4.1.6-.2.7-.5 0 .3-.2.5-.1.8.3-.2.2-.6.4-.8 0 .3-.2.6 0 .9.2-.2.1-.5.3-.7v.3l-.2 1.2c0 .2 0 .5.2.3a2.4 2.4 0 0 1 1.4-.5h.3c0-.4.2-.2.2-.2.4.3.6.2.7-.2l.1.2c.2 0 0-.3.2-.4l.1.4c.3-.4 0-.8.3-1.2 0 .3-.2.7 0 1 .7-.1.4-.7.6-1.1V79c.2 0 .2-.1.2-.2a3.1 3.1 0 0 1 0-.9c.2.5 0 .9.2 1.2.2-.1 0-.3 0-.5V78c.2.4 0 .7.3 1v-.7c.1.2 0 .4.3.5v-1.5a9 9 0 0 0 .2 1.5v-1.3a7.6 7.6 0 0 1 .1.9c0 .2.2.1.3.2.2.1.2 0 .2-.1.2-.2.2-.4.2-.6 0 .1 0 .3.2.4l.2-.4s0 .2.2.1l.2-.1.1-.1c.2 0 .3 0 .5-.2a7.8 7.8 0 0 1 .7-.6l.6-.4a13.4 13.4 0 0 0 1.3-1.2V75c-.2-.2-.3-.4.1-.6h-1s-.3 0-.2-.1c0-.2.1-.4.4-.3l.2-.1a20 20 0 0 1 1.7-2.1.4.4 0 0 0 .1-.3c0-.2.2-.3.3-.4l.3-.3a4.7 4.7 0 0 0 .5-1.6c0-.5 0-.6-.6-.5a14.8 14.8 0 0 1-6.4.8 12.3 12.3 0 0 1-1.7-.1 17.9 17.9 0 0 0-1.9-.5 12.3 12.3 0 0 0-2-.5c-.2 0-.4 0-.4-.3 0-.2-.1-.2-.2-.2-.5 0-.6-.3-.6-.7l.1-.8.3 1.2h.2a3 3 0 0 1 0-1.4 2.7 2.7 0 0 0 .5 1.2 3.9 3.9 0 0 1 0-.8c.3 0 .2.3.4.3.2-.2 0-.5.1-.5.3-.2.2.2.4.3.2-.2-.1-.4 0-.5.3-.2.3.2.4.1.2-.1 0-.3 0-.4.2-.2.3.2.4 0v-.3c.2-.2.2.2.4.1 0-.1-.1-.2 0-.4.6.1 0-.4.2-.5.1 0 .1.3.3.3 0-.5-.4-.8-.4-1.2l.5 1 .1-.1c-.1-.6-.6-1-.6-1.6l.7 1.3.1-.1-1.2-2.2v-.1l1.3 2c-.2-.7-.7-1.3-1-2l.1-.1 1.1 1.9.2-.1-1-1.9 1 1.6h.2l-1-1.6.1-.1 1 1.4-.8-1.4h.1l.9 1.1-.7-1.3c.2 0 .6.2.6-.3l-2.2.6c-.5.2-.5.1-.6-.4 0 .2.2.2.4.3a5.5 5.5 0 0 0 0-1.1l.4 1a11.7 11.7 0 0 0-.2-2.3l.6 1.8a4.8 4.8 0 0 0-.2-1.3 6.4 6.4 0 0 1 .6 1c0-.4-.3-.7 0-1.1.1.3 0 .6.4.9 0-.5-.4-.9-.3-1.4l.4 1v-.1l-.5-1.6h.1l.6 1.4-.3-1.5.5 1.2a7 7 0 0 0-.4-1.4c-.1-.2-.2-.5-.5-.5a.2.2 0 0 1-.2-.1c0-.4-.3-.3-.4-.2a3.2 3.2 0 0 1-1.7.6c-.2 0-.4 0-.5-.2 0-.1 0-.3.2-.4l-.7-.1c0-.2.2-.1.2-.3L96 57a.6.6 0 0 1-.6-.5 2 2 0 0 0-.3-.8c-.2-.3-.5 0-.8 0-.2 0-.4 0-.4-.2 0-.3-.2-.7 0-1 .2.3 0 .6.2 1 .3-.4 0-.7 0-1.1.3.4.2.7.3 1 .2-.1 0-.3.1-.4.2 0 .1.2.3.3v-.7l.3.7c0-.3-.2-.6 0-.7.2 0 0 .3.2.3 0-.2.1-.3.3 0 .2 0 .4 0 .4-.2a1.3 1.3 0 0 1 .3-.7 9.4 9.4 0 0 1 .8-.6c.1-.2.1-.5.5-.5v-.2a.4.4 0 0 1 0-.1.8.8 0 0 0 .6-.2c.2-.1.2-.3.3-.5.3-.5.9-.8 1-1.4l.1.1v-.7c.2.2 0 .5.3.7a4.5 4.5 0 0 1 0-.6c0-.2-.3-.4.1-.5.2 0 .4-.1.5.2.1-.3.1-.3-.2-.4-.4 0-.5-.2-.4-.6a2.5 2.5 0 0 0 .1-1.1c0-.3-.1-.4-.4-.3a10 10 0 0 1-5.1 0l-1.2-.4a16.7 16.7 0 0 1-1.8-.5c-.3 0-.5-.3-.8-.4a14.3 14.3 0 0 1-2.5-1l-.7-.5c-1.1-.5-2.1-1.2-3.2-1.8-.1 0-.3-.1-.1-.2.2 0 .2-.3.4-.3s.2-.2.2-.3v-.3c.4-.1.5-.2.3-.5h.1c0-.1.3-.1.3-.3.2.4.5.4.8.6.3.1.4.3.2.6a7 7 0 0 0-.5.8s-.2.2 0 .3a.3.3 0 0 0 .3 0 1 1 0 0 1 .7-.3 2.7 2.7 0 0 0 1.3 0 1.5 1.5 0 0 1 .6-.1c.3 0 .7 0 .9-.2.2-.3.7 0 1-.4l.1.2-.1 1-.2 1.7s0 .4.2.3c.1-.1.4-.3.4-.5.1-.4.6-.4.8-.5.4-.2.5-.2.5-.6V43a8.7 8.7 0 0 0 .1 1c.2-.3 0-.7.2-1l.1.6c.2-.3 0-.6.2-.9 0 .3 0 .6.2 1v-1l.1.6a3.2 3.2 0 0 0 1.2-.9v1a.1.1 0 0 0 .1.1h.1c.1-.5.4-.9.3-1.4a.2.2 0 0 1 0-.2v.8s0 .2.2.2c.1 0 0-.1 0-.2v-1.2c.3.3 0 .7.3 1 .2-.5 0-1 0-1.5.3.4.1 1 .3 1.3h.1v-2c.2.6 0 1.1.3 1.6v-2.2l.4 2.2h.1l-.4-4c.3 1.1.3 2.3.6 3.5h.2l-.6-4.4c.3 1.4.4 3 .8 4.3h.1l-.5-3.3.6 2.9h.1v-1.5a2.2 2.2 0 0 0 .7 1.6c0-.2.2-.3.1-.5v-.2c.1-.2.1-.2 0-.4v-.4l.3.4v-.6c0 .1 0 .3.2.3.3 0-.2-.5.3-.2V38.9s0 .2.2.1 0-.3 0-.5c0 .1.2.4.2 0a1.4 1.4 0 0 0 0-.4s0 .3.2.2l-.1-.6c.2 0 .1.3.3.2l-.2-.6c.2 0 .1.3.4.4 0-.4-.4-.6-.4-1 .2.2.2.5.4.6 0-.3-.3-.4-.2-.6.3-.3-.2-.3-.1-.5V35.9a.9.9 0 0 0-.4.1 9.2 9.2 0 0 1-5.4.4 8 8 0 0 1-2.8-1 .5.5 0 0 0-.3 0A3.2 3.2 0 0 1 90 35s-.1-.2 0-.2c.3 0 0-.3 0-.4a6.8 6.8 0 0 1-.1-.9c.2.3 0 .7.4.9l-.3-1.5c.2.4.2.8.5 1l-.4-1.5c.3.4.3.9.6 1.3l-.6-2.3h.1l.7 2h.2l-.9-2.6 1 2.2h.1l-.8-2.2 1 1.9-.8-2 .9 1.5-.6-1.4a7.2 7.2 0 0 0 .8 1l-.3-.7c.2.1.1.3.4.4l-.5-1 .2.2c0-.3-.2-.4-.5-.3a7.4 7.4 0 0 1-2.3.1c-.2 0-.3 0-.3-.4l.1-1c0-.3 0-.5-.3-.3a1 1 0 0 1-.7 0s-.2 0-.2-.2c.3-.5.2-1 .4-1.4a.8.8 0 0 0 .1-.8v-.2c.2 0 .1.2.3.2-.1-.2-.2-.5.3-.6-.3 0-.6 0-.6-.4s-.2-.5-.7-.4a2.5 2.5 0 0 1-1.5-.1.3.3 0 0 1-.2-.4c0-.3.2.2.2 0l.2-.2c0-.4.3-.8.2-1.2v-1.7a9 9 0 0 0 .3 2v-3a17.6 17.6 0 0 0 .3 2.4 24.6 24.6 0 0 0 0-2.7 20 20 0 0 0 .3 2.1c0-.5.7-1 .3-1.6.6.3.6 1 1 1.4a3.9 3.9 0 0 0 0-1c0-.4-.2-.7-.4-1.1l.6.7-.5-1.2c.3.2.2.5.6.7a13 13 0 0 1-.6-1.4l.6.7-.7-1.2h.1l.6.8c-.1-.4-.4-.6-.4-1a2.3 2.3 0 0 1 0-.8h-.4a3.4 3.4 0 0 1-2 .1.7.7 0 0 0-.2 0 1.3 1.3 0 0 1-1-.3.4.4 0 0 0-.3-.2 1.1 1.1 0 0 1-1-.3s0-.2-.2-.2a1 1 0 0 1-.7-.3 7 7 0 0 0-1.5-.9c-.6-.2-.7-.7-.9-1l.1-.4c.4 0 .3-.2.4-.4l.2-.6c.2.2 0 .5.2.8l.5-2-.2 1.8h.1l.4-1.6c0 .4-.2.8 0 1.2a14 14 0 0 0 .3-1.8v1.4l.2-1.6a21.4 21.4 0 0 1 .2 3.4 9.1 9.1 0 0 0 0 1.3v.2l.2-.2c0-.5.3-.9.2-1.4.1 0 0 .2.2.2.1 0 0-.1 0-.2V13a4.7 4.7 0 0 0 .3 1h.1l-.1-2.3.1 1a2 2 0 0 0 .3 1 8 8 0 0 0-.1-1.5c.1.3 0 .7.3 1v-.6c.1 0 .2.3.2 0v-.3c.1 0 0 .2.3.2-.2-.4 0-.7 0-1a5.6 5.6 0 0 0-.4-2.6c-.1-.2-.2-.3-.4-.3a5.4 5.4 0 0 1-2.7-.8 2.5 2.5 0 0 1-1.2-2.2v-.9a2.9 2.9 0 0 0 .8 1l-.1-.4-1-1.9a1.6 1.6 0 0 1-.2-.4 15 15 0 0 0-.8-3 2.2 2.2 0 0 0-.5 0 .6.6 0 0 1-.3.3l-.8.4a5.6 5.6 0 0 0-.9 1.5c-.2.4 0 1-.7 1.1l-.1.2a6.1 6.1 0 0 0-.5.8c-.1.3-.1.6-.5.4l-.3.2a5.7 5.7 0 0 0-.9 2.5 3.4 3.4 0 0 0 0 .7v.2l.3-.2c0 .3-.3.5-.2.8.2 0 .1-.2.2-.2 0 .3-.2.5 0 .9l.6-1.8c0 .5-.2 1-.3 1.4a.6.6 0 0 1-.6.5 1.5 1.5 0 0 0-.8.2.5.5 0 0 1-.4 0H70c-.7-.1-.8 0-1 .7l-.1.3a7.7 7.7 0 0 0-.2 2.8c0 .3.2-.1.3 0 0 0-.2.2 0 .3.1 0 0-.2.2-.2-.1.4-.1.4-.6.4h-.1l-.5 1.4.6-.7a9 9 0 0 0-.6 1.2l.8-1-1 1.6c.4-.1.4-.4.6-.5-.1.4-.5.6-.4 1l1-1.5-1 2h.1l.8-1.4h.1l-.8 2.2h.2l.8-1.8a8.2 8.2 0 0 1-.5 2.2.3.3 0 0 1-.1.2l-2.2.7a11.4 11.4 0 0 1-1.7.3 3.1 3.1 0 0 1-1.3 0l-2-.5c.8.2.2.5 0 .8l-.2.4.5-.2a7.4 7.4 0 0 0-.5.8c.6-.2.6-.9 1.1-1.3-.2.7-.7 1.2-1 1.8.5-.3.6-.8 1-1.1a13.2 13.2 0 0 1-1 1.8c.5-.3.5-.7.8-1l-.6 1.4c.4-.2.4-.7.8-1 0 .6-.5 1-.6 1.7.4-.3.4-.7.6-1 .4.6-.2 1-.2 1.6.3-.3.3-.7.5-1 0 .3-.1.5 0 .8l.6-2-.5 2.3c0 .2-.2.2-.4.2a6 6 0 0 1-2-.4c-.3-.1-.5 0-.6.2a4.7 4.7 0 0 0-.3 1.1c0 .3.2.6 0 1 .2-.1.2-.4.4-.3.2 0 .1.3.1.4a5.6 5.6 0 0 1 0 .9c.1.1.1.3.3.3l.2-.2.2-.4c0 .3-.3.6-.2 1l.7-1.5-.7 1.8.2.1.9-2.2-.8 2.6h.1l1-2.8-.7 2.8c0 .2-.2.4 0 .6l-.1.2c-.3 0-.5 0-.3.4v.1c-.3.6 0 1 .1 1.6 0 .1.1.1.2 0 .2-.1.1 0 .1.2a10.6 10.6 0 0 0 .6 2c.1.3 0 .4-.2.4a12 12 0 0 0-1.8.5 6.1 6.1 0 0 1-2 .2 7.8 7.8 0 0 1-3.3-.4c-.1 0-.4-.2-.4.2a3.8 3.8 0 0 0 .1 1.7 21 21 0 0 0 1 2.4 2 2 0 0 0 .9.8c.2.1.3 0 .3-.1l.3-1a10.2 10.2 0 0 0-.2 1.4c.3-.3.2-.7.4-1a13.1 13.1 0 0 0-.2 1.5c.3-.3.2-.6.3-.9v1c.2 0 .1-.2.2-.4v.5c.3-.1.2-.3.3-.4-.1.3 0 .6.2.7.1.1.2.2.1.3h-.3l-1.7-1c-.1 0-.2-.1-.4 0 .3.4-.1.6-.2.9l.6-.6-.6.8.8-.7-.8 1 .9-.7-1 1v.1l1.3-1-1.2 1.4.5-.2a2.2 2.2 0 0 1-.3.3c-.2.2.2.2.1.3-.2.5-.2.5-.8.5h-.3a1.4 1.4 0 0 0 .6.1c.3.1.5.2.2.5a.5.5 0 0 0-.1.4s0-.2.2-.2v.3s0-.1.1 0c0 0-.2.2 0 .3.2.2.3 0 .4 0a.6.6 0 0 1-.5.5l-1.6.2a5.6 5.6 0 0 1-3.3-.6c-.2-.1-.5-.4-.8-.1v-.2c-.3 0-.3.5-.6.2a1 1 0 0 0-.1 0 3 3 0 0 1-.2.5c-.2.2-.1.6-.2.8v.1c.3 0 .2 0 .1.2 0 0-.1.2.1.1.1 0 0 .1 0 .2v.3s.1-.3.3-.1l-.1.3s-.1 0 0 .1c.1 0 .2-.2.4 0l-.2.3v.2l.4-.2-.2.8a.8.8 0 0 0 .1 0c0-.1.1-.3.3-.2v.3c-.1.1-.2.2-.1.3l.7-1a5.4 5.4 0 0 1-.4 1.3h.1l.4-.7c.2.5-.1.8-.1 1.3.2-.5.7-.8.8-1.4a.6.6 0 0 1 .1-.4 9 9 0 0 1-.5 2l.1.1.5-1.2a10.6 10.6 0 0 1-.2 1.7h.1l.5-.6a4.4 4.4 0 0 0 0 1.1 1.3 1.3 0 0 0 .3-.6l.6-2.4c0-.1 0-.2.2-.2l.1.2a1.9 1.9 0 0 1 0 .2l-.5 3v.2c.2 0 .2-.2.2-.2l.3-1.7a5.4 5.4 0 0 1 .3-1.3c.2.2.1.4.1.6l-.2 2.4.1.3.4-2.8h.1v3.4c.3-1.1.2-2.3.3-3.1v2.9l.1.2h.1a5.2 5.2 0 0 0-.5 1.7L54 53c0 .5-.3.9-.3 1.4.2 0 .1-.3.3-.4 0 .2-.2.4-.1.6.2 0 .1-.2.3-.3a.5.5 0 0 0 .3.7c.2.1 0-.2.2-.3v.4c0 .1 0 .3.2.3s.2-.1.2-.3a4.4 4.4 0 0 1 .1-1v1.4l.2-.6a3.5 3.5 0 0 1 0 .6.3.3 0 0 0 .4.3c.2 0 0-.2.1-.3v-.7c.2.5 0 .8.2 1.2.2-.3 0-.6.1-1 .1.4 0 .8.2 1l.1-.2c0 .5.5.6.8.8 0 0 .3 0 .3.2l-.3.2-1 .4-1.5.4a9.5 9.5 0 0 1-2 .8 3.8 3.8 0 0 0-1.1.4h-.3a12.6 12.6 0 0 1-3 .7 6.7 6.7 0 0 1-1.3.1 16.3 16.3 0 0 1-3.3-.4c-.3 0-.4 0-.4.4a3.5 3.5 0 0 0 .5 1.7 9.5 9.5 0 0 0 1.3 2.3c.4.4.6 1 1 1.3.2 0 .2 0 .1.1-.1.3 0 .5 0 .8a4.3 4.3 0 0 0 .4 1.2c-.4.1-.8-.2-1 0-.2.2-.6.4-.4.8l.2-.3a1.1 1.1 0 0 0 .3.8.6.6 0 0 1 0 .5.4.4 0 0 0 0 .4l.3-1.3h.1a10.3 10.3 0 0 0-.2 1.6c.2 0 .2-.3.2-.4 0 0 0-.2.2-.2.1 0 0 .2 0 .2v.6c.2-.1 0-.4.3-.5v.6c.1-.1.1-.3.3-.3v.5a12 12 0 0 1 .5-1.5c0 .6-.2 1.1-.1 1.7.2-.4 0-.8.3-1.2v1.4a10.5 10.5 0 0 1 .3-1 7.7 7.7 0 0 0 .1 1c.2 0 0-.3.2-.4a1.3 1.3 0 0 1 .2.8 2.8 2.8 0 0 0 .2-.3.1.1 0 0 1 .2 0c0 .1-.1.6.3.3 0 .2.3.3.5.4.3 0 .3.5.6.5s.4.1.5.3c.1.1.1.2.4.3.2 0 .3.3.4.5 0 .1-.2.3-.4.3a2.4 2.4 0 0 0-1 .2 9 9 0 0 1-1.6.5 9.2 9.2 0 0 1-3.7-.2h-.4a1.1 1.1 0 0 0-.3 1 1.6 1.6 0 0 0 .5 1c.3.1.1.2 0 .3 0 .1.3 0 .3.3a.2.2 0 0 1 0 .2c-.4.3-.4.3-.3.7 0-.1 0-.4.2-.5v.7c.2-.3 0-.5.3-.8a4.4 4.4 0 0 0 .1 1c.1-.4 0-.7.3-1a2 2 0 0 0 0 1.1c.1-.2 0-.5.2-.7a.8.8 0 0 0 .5 1c.5.2.4.2.5-.3v.5c0 .3.4 0 .4.3.2-.1.5 0 .6.1.3.1.4.2.4 0 .1 0 0 .2.2.3l.1-1v.9a.1.1 0 0 0 .2.1v-.7a3 3 0 0 1 .1.6c0 .1 0 .2.2.3 0 0 0-.2.2-.2l.1.4c.2-.2.1-.5 0-.8l.4.9.1-.7c0 .3 0 .6.2.7.2.1.4.1.6.4h.1c.1-.2.2 0 .3 0 0 .3.4.2.6.4l-.3.2a10.7 10.7 0 0 1-2.7.8 13.4 13.4 0 0 1-2.1.4 11.2 11.2 0 0 1-3.8-.7.5.5 0 0 0-.6.2c-.2.3-.3.7-.8.8.3 0 .4 0 .4.2 0 .4.2-.1.3.2 0 .1-.2.3-.1.5.1-.1 0-.4.3-.5 0 .3-.2.6 0 1 .3.2.7.4.8.8.4-.3.3.2.4.3a13.6 13.6 0 0 1 .8-2 1.6 1.6 0 0 1 0 .2 7 7 0 0 1-.5 1.5c-.2.2 0 .6 0 .6.3 0 .3 0 .3.2 0 .4.5.2.5.5.2 0 0-.3.2-.4v.6c.3-.1.2-.4.4-.6 0 .4-.5.8 0 1.2.2-.1.1-.4.3-.4.2-.1.2 0 .2-.2l.1-1c.2.6 0 1.1.1 1.7a3 3 0 0 0 .2-1c.3.4 0 .8.2 1.3l.4-2.8v2.8h.1l.2-1.2.1.3v-1.1V87h.2l.2-2.2h.1v2.4h.1c.2-.7 0-1.4.2-2.2a8.8 8.8 0 0 1 0 2l.2.1.1-.2v-1.3a5.3 5.3 0 0 1 .2 1.7l.1.3c.2 0 .1-.2.1-.3v-1.5c.2.6 0 1.3.2 2h.2v-1.4c0 .5 0 1.1.2 1.7v-1.7a11 11 0 0 0 .3 1.9 5.5 5.5 0 0 0 .1-1.3c0-.2-.1-.6.1-.6.3-.1.4.2.6.4a1.3 1.3 0 0 0 .6.7c.2.1.5.2.6.5 0 .3.3.2.4.3.2-.2.3.5.6 0 0 0 .2.1.2 0v-.5c0 .3 0 .6.2.9v-1l.1 1.3c.2-.1.1-.3.2-.4 0 .4.2.5.6.5a.8.8 0 0 1 .4.2c.3.1.4.5.8.6 0 0 0 .2.2.2v-.3a3.8 3.8 0 0 0 0-.4l-.2-2.2c.2.2.1.5.5.7l-.4-1.3c.3.4.4.9.6 1.3h.1l-.6-2.1 1 2.4.2-.1-.8-2.2a20.5 20.5 0 0 1 1 2.1c0 .3 0 .6-.3.6-.4 0-.5.3-.9.5a.3.3 0 0 1 .4.2c.2-.1 0-.3.3-.3v.3c.4 0 0 .4.2.5 0 0-.2.5.2.3l.1.2v.4h-.1c-.2 0 0-.2-.2-.2l.1.4c.4.2.8.1 1.1.4.1 0 .1-.2.2 0l-.2.1a.5.5 0 0 0-.4.2 1.3 1.3 0 0 1-.6.4 34.4 34.4 0 0 1-5.4 2 5.2 5.2 0 0 0-.7.2 21.2 21.2 0 0 1-2.6 1h-.3c-.5 0-1-.3-1.4 0h-.1c0-.2-.1-.2-.2 0 0 .2-.3.2-.4.2a13.3 13.3 0 0 1-4.4-.4c-.6 0-1.1-.8-1.8-.2-.2-.2-.2 0-.1 0l.1.4c.2 0 .2.1.2.3-.2.6.2 1 .4 1.3.1.3.3 0 .3.1 0 .5.4.7.6 1 .2.4.3 1 .8 1.3 0 0 0 .4.3.2v.1a.6.6 0 0 0 .4.5c.2.1.2.2.1.4h.3c-.1.4.2 0 .3 0 0 .2-.2.3 0 .5 0 0 0-.2.2-.2.1.2-.2.4 0 .6l.4-1v1l.3-.6v1a1.8 1.8 0 0 0 .4-1 10.6 10.6 0 0 1 0 1.3c.2 0 0-.3.2-.3s0 .2.2.2c.1.2.4.2.5.3l.1-.1a2.4 2.4 0 0 0 0-.2c0-.2.2-.2.3-.2.2 0 0 .1 0 .2.1.2 0 .4.2.6.2-.2 0-.6.3-.6.1.2 0 .5.2.8.2-.1 0-.5.2-.5s0 .3.2.4c.2 0 .1-.2.3-.3v.3s0 .2.2.2 0-.2.1-.2c.3.4.4.5.5.3 0 .3.4.6.7.6.3 0 0-.4.2-.6a.5.5 0 0 1 .2.4.1.1 0 0 0 .2 0 1.4 1.4 0 0 1 1 .5c0 .1 0 .3.2.3.1 0 0-.2 0-.4v-1.7c.1.1 0 .3.3.4 0-.4-.2-.7-.1-1.1a10 10 0 0 1 .5 1.1 5.1 5.1 0 0 0 0-1.6l.5 1.5c.2-.3 0-.6 0-.9.4.2.2.6.5 1 .2-.3-.1-.6.1-.8l.2.6c0 .1 0 .3.2.2.1 0 0-.1 0-.2l-.2-1.2.4 1.2s0 .2.2.2v-.3l-.3-1h.1l.1.2c.2.5.1 1 .8 1.1l.3.3h.3v-.2l-.5-1.6v-.3a.2.2 0 0 1 .4 0 1.3 1.3 0 0 0 1 .2 3.7 3.7 0 0 1 1 0h.3a.3.3 0 0 0 0-.3c-.1-.5 0-1.1-.2-1.7l.4.7v-.9c.1.3 0 .6.3.8.2-.2 0-.4 0-.6.2.2.1.4.4.6 0-.3-.2-.6-.1-.8.2.2.1.6.4.7v-.9c.1.3 0 .7.4.9l-.2-1c.2.3.2.7.5.9v-.4l-.2-.3a.4.4 0 0 1 .2.3c0 .4.5.2.6.5v-.1c.2-.3.4-.3.7-.2.2.1.4-.1.6.2.2-.3.5-.3.7-.1a2.3 2.3 0 0 0-.3-1c0-.1-.1-.3 0-.4a2.3 2.3 0 0 1 .7-.5.5.5 0 0 1 .6.2l-.1-.8c.1 0 0 .3.3.3l-.2-1 .4 1c.2-.2 0-.4 0-.6.1.1 0 .4.3.4v-.5l.3.5c0-.1-.1-.3 0-.4v.2a.5.5 0 0 1 .7-.3c0-.2.2-.2.2-.2h.2l.1-.2a.8.8 0 0 0 .8-.3c.2-.1.5 0 .7.3a4.2 4.2 0 0 1 .6 1s0 .3.2.3.1-.3.1-.4a5 5 0 0 1 0-1.1c.2 0 .2.2.2.2.2 0 0-.3.1-.3a9.4 9.4 0 0 1 1.3 1 1 1 0 0 0 0-.2c0-.7 0-.7.6-1 .2-.2.2 0 .2 0 .4-.4.9 0 1.3-.3a3 3 0 0 1 .6-.2c.3-.1.3-.4.4-.7v.7l.4-1a1.6 1.6 0 0 1-.5 1.5l-3.7 3.4a12 12 0 0 1-2.4 1.7 17 17 0 0 1-2.5 1l-.7.3c.3 0 .3.3.4.4.4.2.2.3 0 .5a8.3 8.3 0 0 1-3 1.6l-2.5 1a6 6 0 0 1-2.8.4 11.7 11.7 0 0 1-2-.3l-.5.1c-.3.7-.3.7-1 .5h-.5c-.7-.2-.8-.2-.7.6l.1.4a4.1 4.1 0 0 0 .4 1c.2.1.1.2-.1.3a2.2 2.2 0 0 1-1.4-.2l-1.9-.8c.3.3-.2.4-.1.5l.3-.2v.3l.3-.1-.2.3c.2 0 .2-.2.4-.3-.1.4-.5.6-.5 1l.7-.8-.7 1 .9-1-.8 1.3 1-1-.9 1.3c.4-.1.4-.5.8-.6-.2.4-.5.6-.6 1 .4-.3.5-.7 1-1-.2.4-.6.8-.7 1.2l.9-1-.8 1.3c.3 0 .3-.4.6-.6 0 .4-.4.6-.5 1l.8-.9-.6 1.1h.1l.6-.8c0 .4-.4.6-.5 1.1l.6-.7c0 .5-.4.7-.4 1.2.3-.2.3-.6.6-.8 0 .4-.4.6-.3 1l.7-1.2a12.8 12.8 0 0 1-.5 1.5h.1l.6-1c0 .5-.3.8-.4 1.4a1.9 1.9 0 0 0 .4-.6c0-.1 0-.2.2-.2v.3c0 .2-.3.4-.2.7.3-.2.3-.6.5-.8.1.4-.2.8-.2 1.2.3-.2.2-.5.5-.7.1.3-.1.6 0 .8.2 0 .1-.2.2-.3.3.2 0 .6.3 1l.6-2.3a13 13 0 0 1-.2 2.1h.1l.5-2.1a23.3 23.3 0 0 1-.2 2.5h.2l.3-2v2l.3-1.8v2.2a12 12 0 0 0 .3-1.5v1.9c.3-.3.1-.7.2-1l.1 1.1c.2-.2.1-.4.2-.5a4.8 4.8 0 0 0 0 .5c0 .2.1.4.3.4.3 0 .2-.2.2-.4l.2-2.8.1.6c.2-.2 0-.5.2-.7v.9c.3-.1.2-.4.3-.5a.6.6 0 0 0 .3.6 1 1 0 0 0 .5.6c.2 0 .2.2.1.3a.7.7 0 0 0 .1 1c.2 0 0 .5.4.4l.2.6.3-.5c0 .3-.2.4-.1.6.3-.3.3-.8.6-1.2l-.5 1.6c.2 0 .2-.3.3-.4a.2.2 0 0 1 0 .1c0 .4-.1.8.4.8.1 0 0 .1 0 .2l.1.2.3-.6c0 .3-.2.6-.1 1l.4-1a10.3 10.3 0 0 0-.2 1.1c.3-.3.2-.7.5-1l-.2 1.3c.3-.3.2-.7.4-1v1.2c.2-.2 0-.6.3-.8.2.3 0 .7 0 1 .3-.2.2-.5.4-.6.2.2-.1.5 0 .8.2 0 .1-.3.3-.3l.1.3.2.2c.2 0 .2-.1.2-.2v-1.2l.1 1.4h.1c.2-.5 0-1 .2-1.5a9 9 0 0 0 .2 1.8c.2-.5 0-1 0-1.8a8.6 8.6 0 0 0 .3 1.7c.2-.4 0-.9 0-1.4l.3 1.8h.1v-.3c.1.1.4.1.4.3 0 .4.5.3.6.5a4 4 0 0 0 0-.7l-.1-1.4c0-.1-.1-.3.1-.3l1.2.1c.1 0 .4 0 .5.2.1.4.5.8.5 1.3 0 0 0 .1.2 0v-1.3c0-.2 0-.4.2-.4a6.2 6.2 0 0 1 1.3-.2c.3 0 .6-.3.8 0 .2-.2.4.3.6 0 .1.2.4 0 .5.1.2 0 .4.4.5 0 0-.1 0 0 0 0a1.3 1.3 0 0 0 .8.1c.3 0 .5-.1.4-.5a1.5 1.5 0 0 0 .5.2l-.2-.4-.9-.8c-.3-.3-.3-.4 0-.8v-.1c.1 0 .1-.2.2 0 0 .2.2 0 .3 0a2.6 2.6 0 0 0 .5-1c.1-.2.2-.5.5-.6a1.5 1.5 0 0 1 1 .1 2.4 2.4 0 0 0 1.6 0c.4 0 .4.1.4.4v5.8l-.2 9.9c-.1 3.1 0 6.2-.3 9.4l-.4 5-.3 4.9c0 .4 0 .5.4.5h5.3c.3 0 .5 0 .4-.4l-.1-2.3-.4-4.8-.4-5.7v-7.2l-.2-11.3-.1-7.4V105c.1.1 0 .4.2.4s.2-.2.3-.4c0 .5.3.5.5.6.2.1 0-.2.2-.2 0 .3 0 .3.2.2.1 0 0 .3.2.2 0 0 .2 0 .2-.2a3 3 0 0 1 0-.4c0 .3 0 .5.2.7v-.3l.3.1c0 .3.5.3.3.7l-.2.4c-.2.3-.1.5.2.5a1.8 1.8 0 0 1 .7.1c.5.3.6 0 .7-.4 0 .2-.2.4-.1.7.3-.2.3-.5.5-.6 0 .1-.2.3 0 .4 0 0 .1-.2.2-.1.1.3.4.4.6.6.2.4.3.1.3-.1.2.1.3.4.5.3.1 0 .1.2.3 0 0 .3.3.5.2.8a5.3 5.3 0 0 0 0 1v.1a.1.1 0 0 0 .2 0c0-.6.6-.8.8-1.2h.3a.9.9 0 0 0 .8.5c.4 0 .6.3.9.3.3 0 .5.4.9.3.2.4.5.4.8.4.1 0 .3.2.5.1 0 0 .1.1 0 .1 0 .5.3.5.5.5.4.1.5.4.3.7l-.2.5a.2.2 0 0 0 0 .1c0 .1.1 0 .2 0 .2-.2.4 0 .5.1h.2c.4-.5.8 0 1.2 0a1.4 1.4 0 0 1 .9.3l.3-.1c0-.2.3 0 .3 0 .2.4.4.3.6-.1v.2l.2-.1c0-.1 0-.3.2-.5a1.1 1.1 0 0 1-.1.5v.2c.4 0 .1.3.1.4v.7a1 1 0 0 0 .5-.7l.1.4c.2-.2.1-.5.3-.7.2.2 0 .4.1.6.2-.2 0-.5.3-.7l.1.7c.2-.1 0-.4.3-.5l.1.6.1-.8a1.4 1.4 0 0 0 .2.5l1-.7v2.3l.1.3a.2.2 0 0 0 .3-.1c.1-.4.5-.5.8-.7.3-.3.8-.3.6-1 .1.2 0 .4.2.6.2-.3 0-.5.1-.8l.1.7c.2-.2 0-.4.1-.6.1 0 0 .3.2.4l.1-.5.1.2c.2 0 .1-.1.1-.2v-.8.7l.2.2c0-.3.2-.1.3 0a.3.3 0 0 0 .3-.2c.2-.3.5-.3.6-.6.4 0 .5-.4.7-.5a5.8 5.8 0 0 0 1.1-1.4c.2-.3.6-.5.6-.9l.2.2v-.5c.1 0 .1.2.2.1.1 0 0 0 0-.2v-.4a1 1 0 0 0 .6.5 2 2 0 0 1 .3-1c.2-.4.7-.8.4-1.3l.3.4-.2-.7c.2 0 .2.3.4.4 0-.2-.2-.4-.1-.6.1 0 0 .3.3.2l-.2-.4c.2 0 .2.2.3.2 0-.4.5-.7 0-1h.2a.5.5 0 0 0 .1-.5 4.7 4.7 0 0 0-.7-1l-.3.1-1.3.5a7 7 0 0 1-2.2.3c-.7 0-.7 0-.9-.5v.1a1 1 0 0 1-1.3.5l-2.8-.6a7.7 7.7 0 0 1-2.4-.6c-.2-.1-.4 0-.5-.3a1.1 1.1 0 0 1 0-.6c.2.2 0 .4.3.6v-.5c.2 0 .1.2.3.3l-.2-1.5c.3.4.2.9.5 1.3l-.2-1.3.2.3c.5-.4 0-.8 0-1.2l.4.2c-.1-.2-.1-.4-.4-.4l-.3-.1c0-.3.1 0 .1-.1a.3.3 0 0 0 0-.2l.1-.1c.2 0 .1-.2 0-.3a.3.3 0 0 1 0-.3l.2.2c-.2-.3 0-.6.1-1l.1.5c.2 0 0-.2.2-.3l.1.2.2-.2.1-.6v.9a3.5 3.5 0 0 0 .3-.9v1c.3-.2.1-.4.3-.7l-.1 1.7v.5c.2 0 .3-.2.4-.3.3-.2.5-.6.8-.6.4 0 .5-.2.5-.5a.4.4 0 0 0 .5 0c.5-.2.3-.7.4-1.1 0 .3-.1.6.1.8l.1-.8v.5a.2.2 0 0 0 .3.2l.1-.3c0-.2.1 0 .2 0h.2a11 11 0 0 1 .8-.9l1.1-1.5a3.5 3.5 0 0 0 .8-1.7c0-.4 0-.5-.5-.5h-1.3c-.2.1-.3 0-.3-.3 0 0 .1.2.2 0l-.4-1V93l.5 1h.1l-.4-1c.3.2.3.6.6 1 0-.5-.3-.7-.2-1l.3.6c0-.3-.5-.8.3-.9l-1 .1c-.3 0-.5 0-.4-.3l-.1-.2-.1-.1-.1-.2h.3c0-.2-.2-.5.2-.8a1.4 1.4 0 0 0-.6.2 7.8 7.8 0 0 1-2.8.7h-.4V92c.2 0 .2 0 .2-.2 0 .2.2.4.3.2a.8.8 0 0 1 .8-.4v-.1l1-.7c.2-.1.6-.2.6-.7.1.1 0 .3.2.4.2-.1 0-.5.4-.6 0 .2-.2.5 0 .7l.2-.5c0-.1 0-.3.3-.3 0 .2-.2.5 0 .8.1-.3 0-.6.4-.7 0 .2-.2.4 0 .8a2.3 2.3 0 0 1 .5-1.1 4.5 4.5 0 0 0 0 1l.1-.5c0-.1 0-.2.2-.2.1 0 0 .1 0 .2l.1.5.2-.6c.2.2 0 .5.2.9l.2-1.3v.8c0 .2 0 .4.2.4.3 0 .2.1.2.3v.5c0 .2 0 .3.2.4l.3-.2c.2-.4.5-.7 1-.6h.1c0-.4.3-.3.4-.3.5 0 .7-.4 1-.5.3 0 .3-.3.3-.5a2 2 0 0 1 0-.4c0 .2 0 .4.2.6.1-.1 0-.3 0-.4.2.1 0 .3.3.4v-.4c.1.1.1.1.4 0 .2 0 .6 0 .7-.3.5-.6 1.2-.9 1.6-1.5a22.4 22.4 0 0 0 1.6-2 1 1 0 0 0 .2-.8V84.8l.1-.2c0-.2-.3-.1-.5 0ZM100 69.2l2.5.6c.1 0 .3.5.2.7h-.2a8.8 8.8 0 0 1-2.6-1.2Zm-4.3-.9c.2.2 0 .6.2.8.2-.2 0-.4 0-.6.3 0 .3.3.4.5 0-.3 0-.3.3-.2l1.3.5c.2 0 .4.1.3.3 0 .2-.2.4-.4.3a6 6 0 0 1-1.9-.7.7.7 0 0 1-.2-.9Zm-1.9-15.2.5-.2a8.4 8.4 0 0 0 1-.3c.2-.1.3 0 .3.1l.1 1.6a.1.1 0 0 1-.1.1.7.7 0 0 1-.8-.5c0-.3-.2-.3-.4-.3h-1.6c.3-.3.6-.6 1-.5Zm-2-1.4-.2 1.4c.4-.5.4-1.1.7-1.5a12.5 12.5 0 0 0-.2 1.6c.3-.4.3-1 .5-1.4 0 .5-.2 1-.3 1.4 0 .3-.2.4-.4.4a3.5 3.5 0 0 1-1.2-.4c1 0 .8-.9 1.2-1.5Zm-4.7-.3a.6.6 0 0 1 .6.2c.2.2.5 0 .7 0a.4.4 0 0 1 .3 0c0 .1.2.2.3.1.1-.1.1 0 .1.1a1.4 1.4 0 0 1 0 .2c0 .2-.2.5 0 .6.2.1.2-.2.3-.3.1 0 .3-.2.4 0h.2c.2-.1.4-.3.5 0 .1.3 0 .5-.1.8H90l-2.8-1h-.1c-.2-.4-.6-.5-1.1-.7h1ZM92.3 36l1.9.6c.2 0 .2.3.2.5s-.3 0-.4 0a6.2 6.2 0 0 1-1.7-1Zm-3.2-1h.1c.2 0 .2.4.4.4.1 0 .3-.2.5 0a2 2 0 0 0 .6.1c.2.1.3.2.2.5l-.2.4c-.2.5-.5.6-.9.2l-.9-1.4c0-.2 0-.2.2-.3Zm-35 17.3a.2.2 0 0 1 0-.1v.1Zm2.7-1.4a8.1 8.1 0 0 1-.8 0c-.4 0-.5-.2-.8-.3-.1.1 0 .4-.2.4a.6.6 0 0 1-.4 0c-.2 0-.2-.1-.1-.3v-1.2a3.7 3.7 0 0 0 1.1.7c.4.2.7.5 1.2.4.3.4.5.2.7 0-.2.3-.5.2-.7.3ZM49.6 82c-.2.1-.2 0-.2-.1 0-.4 0-.6.4-.8l1.8-.6a4.5 4.5 0 0 1-2 1.5Zm2.7-9.4c-.2 0-.1-.1-.1-.2.1-.6 0-1.3.2-2l.2 1.5c.2-1.1-.3-2.3.1-3.5a5 5 0 0 1 .1 1l.2 1 .2 1.2a1.1 1.1 0 0 1-1 1Zm1.5-.9a.5.5 0 0 1-.3.2v-.2c-.1-.7-.5-1.5 0-2.2a7 7 0 0 0 .3 1.9v.3Zm-.9-12c-.3-.9-.3-1 .6-1.2a4.5 4.5 0 0 1 .7-.2 8.9 8.9 0 0 1-1.3 1.4Zm3-1.2c-.2.2-.3.2-.4 0-.2-.5-.2-.6.3-.8l1.3-.4-1.2 1.2Zm14.5-20.5h.7c.2 0 .4 0 .3-.3 0-.1 0-.2.2-.2l1-.1h.1L71 38.7l-.8.5c-.2 0-.3 0-.3-.2v-.4c0-.3 0-.5.5-.4Zm-6.2-14.8V23l.2-.6-.2 2c0 .2 0 .3-.2.3s-.2-.2-.2-.3l.1-.8c0-.2 0-.2.3-.3Zm-1.2 1 1-3-.4 3a1 1 0 0 1 0 .2c-.2.2-.3.2-.5.2s-.1-.2 0-.4Zm-3.8 62a.1.1 0 0 1-.2-.2c0-.1.1 0 .2 0v-.3l-.3-1.6c.5.5.3 1.1.7 1.6v-.6l-.2-.6v-.2l.2.1.3 1a.8.8 0 0 0 .3.4c0-.7-.5-1.3-.4-2l.7 2 .2-.1-.7-2c.5.6.6 1.4 1 2h.1l-.7-2c.5.7.6 1.5 1 2.1a10 10 0 0 1-2.2.4Zm2-43.5c-.2 0-.1-.1-.1-.2 0-.2 0-.2.2-.2h1.5a3.9 3.9 0 0 1-1.6.4ZM65.5 84l-2 .2-.2-.1.1-.2c.3-.2.5-.3.6-.6.2-.2-.2-.4-.2-.7.7.5 1.5.7 2.1 1.3l-.4.1Zm-.8-42.2a2.4 2.4 0 0 1-.6 0 17 17 0 0 1-2.8.5h-.9s-.2 0-.2-.2l-.3-.6c-.1.7-.1.7-.8.7-.3 0-.5-.1-.4-.5l.1-2.3a2 2 0 0 1 0-.2c.1.4 0 .7.2 1 .2-.3 0-.6.1-1 .2.5 0 1 .2 1.4a1.5 1.5 0 0 0 .1-.9v-.9c.2.7.1 1.3.3 1.8.1-.5 0-1 0-1.6a10.5 10.5 0 0 0 .4 1.8 2 2 0 0 0 0-.9c.3.4.1.8.4 1.2.1-.3 0-.5 0-.8a1.8 1.8 0 0 1 .1.5c0 .4.3.4.5.5.1 0 .3 0 .4.2 0 .2.3.2.4.4 0-.7-.4-1.3 0-2 .2.1.1.4.3.5v-.5l.3.6c.2 0 0-.2.2-.2.1 0 0 .3.3.3V40c0 .3.1.5.4.4.5 0 .8.4 1.2.4 0 0 .1.1.2 0v-.3c0-.1-.2-.2 0-.4a.5.5 0 0 1 .6 0h.2c.5-.3.9.2 1.3.2s.3-.1.2-.3a7.7 7.7 0 0 1-.3-.8c.6.3 1.4 0 1.9.7l-.2-1.5.4.6.1-.1c0-.2 0-.4.2-.5l.3.4c.3.6.3.6-.3.9-1.5.7-3 1.5-4.5 2ZM68.5 61c-.3-.6-.3-.7.3-1l.7-.3h.2a16.1 16.1 0 0 1-1.2 1.3Zm.8-1.8-2.2 1c-.2.2-.4.3-.5 0l-.2-.5c.2 0 .3.3.5 0l.5.1c0-.7 0-.7.7-.9a.3.3 0 0 0 .2 0c0-.2.2-.3.3 0l.1.1c.2 0 0-.2.1-.2s0 .3.2.3c.2-.1 0-.2 0-.4 0-.4.2-.6.5-.6a.4.4 0 0 0 .4-.1c.1-.2.2-.4.5-.2.3-.5.7-.4 1-.5h.4c0 .2 0 .3-.2.3a13.1 13.1 0 0 1-2.3 1.6Zm2.9-1.2a1 1 0 0 1 .1.6c.3-.2.2-.5.3-.7a.8.8 0 0 1 .1 1.4l-.3.3c-.2.1-.3.1-.4 0-.8-1.1-1-.8.2-1.6ZM72 45.7l.1.2.8 1.1c0 .1.2.2 0 .3 0 .1-.1 0-.2 0a5.3 5.3 0 0 1-.8-1.2v-.4ZM71.3 96l1-.9s.1-.2.2 0a.2.2 0 0 1 0 .3l-.8 1c-.2.1-.3.2-.2.4a.5.5 0 0 0 .5.1h.5c.2.2.3.4 0 .5-.1 0-.2.1-.2.3a.3.3 0 0 1-.6.2 1.3 1.3 0 0 1-.6-1.3.6.6 0 0 1 .2-.6Zm-1.6 1.4 1-.8a15 15 0 0 1-.2 2.3h-.1l-.8-1.2.1-.3Zm3.4 11.5v4.2l-.4-.2a8.3 8.3 0 0 1-2.1-2.7l-1.3-2.7v-.1l1.4 2.4.1-.1c-.3-.8-.8-1.5-1.1-2.4.5.8.8 1.7 1.4 2.4-.1-.8-.6-1.3-.8-2l.8 1.5a2 2 0 0 0 .2.2c0 .1 0 .3.2.2v-.4s0 .4.3 0l.1.2s.1.3.3.1a.4.4 0 0 0 .1-.4l-.2-.5c.3-.2.6 0 .9 0 .2 0 .1.2.1.3Zm0-70a.3.3 0 0 0-.3.3v1c0 .6-.2.8-.8.8-.2 0-.3 0-.3-.2l-.7-1.2c-.1-.2 0-.3 0-.4l2-1.1h.3c.2.6.3.6-.3.8Zm2.3-3.4a.6.6 0 0 1-.3.5l-1.4 1c-.1 0-.2.2-.4 0a.3.3 0 0 1 0-.4l.4-.2c.1 0 .2.3.4 0 .2-.1 0-.3 0-.5l-.2-.4c.2 0 .3.2.3.2.3-.1.5.1.8 0 .2 0 0-.2 0-.3 0-.1-.1-.3 0-.4a.1.1 0 0 1 .2 0c.2 0 .2.3.2.5Zm8.1-12.7a3.3 3.3 0 0 0 1.6-2 9 9 0 0 0 .4-1v4c0 .4 0 .5-.3.4l-.8-.1c-.5-.2-.5-.2-.2-.7l-.6-.2-.3-.1a.3.3 0 0 1 .2-.3Zm-1.6-1c.3 0 .3-.1.4-.4l.4-.8-.5 1.5 1-.5a6.5 6.5 0 0 1-.2 1.2.2.2 0 0 1-.3.2 8.2 8.2 0 0 1-.9-.3c-.1 0-.4 0-.4-.3a.5.5 0 0 1 .5-.5Zm-3 10.8v.5c.2-.3 0-.6.3-.7v.4l.1-.6c.3.1.2.4.3.6v-.2l.1-.3c.2 0 .1.2.2.3 0-.2 0-.2.3-.2.2-.5.6-.2.8-.2.4 0 .5.3.4.8l-.7 2.5c0 .4-.2.4-.5.3a8.6 8.6 0 0 1-2.8-2 .7.7 0 0 1-.3-.5l.1-2h.1v2.2h.1l.1-1.2v1.2h.2l.1-1.4c.2.4 0 .9.2 1.3a8.7 8.7 0 0 0 .1-1.3l.1 1.2h.1v-.8c.2.2 0 .5.3.7Zm0 16.7-.7 1.2-.3.2-.1-.3c-.1-.8.3-1.3 1.2-1.1Zm-1.7-22c.3 0 .5-.5.8-.1h.1c.2-.1.2 0 .3.1a1 1 0 0 1-.8.4c-.2.1-.3 0-.5-.2v-.2Zm.5 3.2c.3 0 .5-.2.6 0 .2.1 0 .3-.2.4 0 .3-.2.2-.4.1-.3-.1-.7 0-.8-.5a1 1 0 0 0 .8 0Zm-.2 53.3s-.1.2-.2.1c-.3-.3-.6-.5-.5-1v.3l.2-.5v.4l.1-.5.1.4v-.5c.2.1 0 .3.2.4v-.5l.1.4.1-.3c.1-.1 0 .2.1 0 .2-.2.1.2.2 0h.3l.2.2c.3.2 0 .3 0 .4l-.9.7Zm1.7 1.4c0 .8 0 .8-.7.4-.3-.1-.6-.2-.5-.7l.1.4V85c0-.1 0-.3.2-.3l.2.2a.5.5 0 0 1 .6-.3c.2 0 .1.3.1.4ZM79.1 65a2.5 2.5 0 0 0 .2-.8v.4l.1.2.1-.2v-.4c.2.1 0 .3.2.3v-.3h.2c.2.3.3 0 .5 0l-.5-.2a13.6 13.6 0 0 1-2.9-1.3 3.9 3.9 0 0 1-.4-.3.5.5 0 0 1 0-.9 3 3 0 0 0 1.4.8 1 1 0 0 1 .4.3c.4.3.9.2 1.3.3a.7.7 0 0 1 .5.3c.2-.2 0-.4.2-.5v.7l.3-.6v.9c.2-.2.1-.4.2-.7v.7a2 2 0 0 0 .2-1 3.4 3.4 0 0 1-.7 2.5.3.3 0 0 1-.4.2l-1-.4Zm1.8 21.5c0 .2-.2.2-.3 0a2.7 2.7 0 0 1-.9-1.7.4.4 0 0 1 .6-.4 5.3 5.3 0 0 1 1 .7v.4c0 .4-.2.7-.4 1Zm3.3 7.8a.2.2 0 0 1-.3.1 10.8 10.8 0 0 1-2.6-1.5c.2.1.5-.3.7 0 0 .1.1 0 .2 0 0 0 0-.2.2-.2.3.1 0 .3.1.4.2 0 .2-.4.4-.2s-.1.3 0 .5c.2 0 .2-.4.4-.2.2.1 0 .3 0 .5a.6.6 0 0 1 .9.3.3.3 0 0 1 0 .3Zm5.4 4a11.4 11.4 0 0 1-3-.8s-.2 0-.2-.2l.2-.1a8.3 8.3 0 0 0 1-.5.7.7 0 0 1 1 .3v.1c.1.2.2.4.4.4l.2-.4.3-.8-.3 1.2c.4-.4.4-.8.7-1.1 0 .7-.8 1.3-.3 2Zm7 6.7c.4.1.2.4.2.6 0 .3-.3.1-.4 0a4.1 4.1 0 0 1-1.3-.9l1.5.3Zm-2.8-.5a1.8 1.8 0 0 1-.3.9.1.1 0 0 1-.2 0c-.3-.2-.7-.4-.8-.8 0-.1-.1-.3 0-.4.4-.1.2.2.4.3 0-.2 0-.5.3-.2.3 0 .6 0 .6.2Zm0-5.2c.2.3 0 .5-.3.6a7.2 7.2 0 0 1-1.4.2c-.7 0-.8-.2-.5-.9.2.2 0 .5.2.7v-.2c0-.2 0-.4.2-.4v.3c.2-.4.2-.4-.3-.6.3 0 .3-.2.4-.3 0 .2 0 .4.2 0 .3.4.4 0 .5 0 .3.2.2-.1.4-.2v.5c.3-.3.3-.7.6-1 0 .4-.3.7-.3 1.2.3-.3.3-.6.4-.8.1.2 0 .3 0 .4a.7.7 0 0 0 0 .5Zm5.2-15c0 .2 0 .3-.3.2a2 2 0 0 1-1-.3.5.5 0 0 1-.1-.6c0-.2.3 0 .4 0l.9.3c.2 0 .2.2.1.4Zm3.4 1.8-.5-.2c-.2-.2-.6-.3-.5-.8h-.1a2.1 2.1 0 0 1-1.1-.8l2 .6c.3.2.2.4.2.7v.5Z"/><path fill="#73bf44" d="M99.6 92.1h.2v.4l-.1-.1-.1-.1ZM111 84.6v.3-.1ZM111 85V85v.1ZM110.9 84.8Z"/></svg>