<svg xmlns="http://www.w3.org/2000/svg" viewBox="0 0 150 150"><path fill="#73bf44" d="M66.4 150.2H76l1-8c.6-3.6.3-7 .7-9.6.4-2.6 1.2-4.8 1.3-7.3a18.3 18.3 0 0 1 .9-6.7 33 33 0 0 1 3-7 28.6 28.6 0 0 0 3-4.8l1.2-4.5-4.2-.6a30.2 30.2 0 0 1-2.5 6.8c-1.5 2.3-2-.2-2.2-1.5-.2-1.3-2-6.5-2-6.5l-2.8 3 1.7 7.7c.7 2.6 1.2 4 .6 7a15.3 15.3 0 0 1-2.5 6c-.7 1-1.7-4.2-1.9-5.2-.2-1-1.8-6-1.5-7.3.4-1.3 1.6-3.7 2.1-5.3l1-3.3-2.3-.3A40.4 40.4 0 0 1 69 108c-.8 1.8-1 2-1.4 1-.4-1.2-3-6.2-3-6.2l-5 3s2.5 6 4.2 9.3a38.9 38.9 0 0 1 3.6 9.6 60.9 60.9 0 0 1 .8 10.6 25.7 25.7 0 0 1-.3 7.2c-.7 3.3-1.3 5-1.5 7.8ZM73 71.7ZM73.3 78.2a3.6 3.6 0 0 1 .4-.2 5.2 5.2 0 0 1-.6-.2 1.8 1.8 0 0 1 .2.4ZM76 86.3a3.8 3.8 0 0 1 0-.5l-.3.4h.2ZM73 71a.4.4 0 0 0 .1 0ZM85.3 68.9a4.9 4.9 0 0 1 0 .5 7 7 0 0 1 .4-.7l-.4.2ZM72.6 81l-.7.2h-.6a2.6 2.6 0 0 1 .2.5s-.2-.1-.5-.3l-.3.1a1.2 1.2 0 0 1 .1.3 1.7 1.7 0 0 1 1 1l.4-.3v-.3l-.3-.3.5-.2c0-.2 0-.4.2-.6ZM69 86.4ZM78.7 50a1.3 1.3 0 0 1 .2.3 1.1 1.1 0 0 1 .5.3 2.2 2.2 0 0 1 .6-.7 5 5 0 0 1-.6-.4 2.8 2.8 0 0 1-.2 0 2.4 2.4 0 0 1 .4.6s-.3-.1-.6-.2l-.3.1ZM76.6 86l-.2.5h.1a3.8 3.8 0 0 1 .2-.4V86ZM73 79.4a1.7 1.7 0 0 1 .6 0 2.2 2.2 0 0 1 .4-.2c0-.2-.2-.3-.3-.4h-.1a4.6 4.6 0 0 1-1 .2 4.9 4.9 0 0 1 .4.4ZM91.2 75.3h-.8a3 3 0 0 1 .8-.6 4.5 4.5 0 0 1-.6-.2 8 8 0 0 1-.7.8 7.8 7.8 0 0 1 1.3.5 1.7 1.7 0 0 1 .2-.2l-.2-.3ZM90.8 73.7a1.9 1.9 0 0 1-.2 0h.2ZM90.1 73ZM91.7 69ZM78.1 52.5ZM76 87l-.4-.7a1.8 1.8 0 0 0-.1.3l.4.3ZM79.1 51.5v.1-.1ZM87 40.5ZM110 58.6l.4.2a2.2 2.2 0 0 1-.5-.7s.3 0 .7.2a2.3 2.3 0 0 1-.3-.4l.1.2a3.8 3.8 0 0 1-.8-.1 2.4 2.4 0 0 1 .4.6s-.3 0-.6-.2h-.3a1.1 1.1 0 0 1 .2.3c.4.1.8.6 1 1.1a4.6 4.6 0 0 1 .4-.2 5.3 5.3 0 0 1-.8-1ZM107.5 63.3ZM89.3 71.2a7.3 7.3 0 0 1-.8 1 2.2 2.2 0 0 1 .3 0 6.1 6.1 0 0 1 .6.3 2.4 2.4 0 0 1 .7-.3h-.7a7.1 7.1 0 0 1 1.6-.9 7 7 0 0 1-1.3-1.4 6.7 6.7 0 0 1 1.2.2 3.7 3.7 0 0 1 .4-1.6l.1-.5a5.4 5.4 0 0 1-1.3.2s0 0 .4-.3a2.2 2.2 0 0 1-.9.1s.2-.2.6-.5a2.5 2.5 0 0 1-.7 0s.3-.2.7-.6a.9.9 0 0 1 .1-.2 1.8 1.8 0 0 1-.5.1 2.9 2.9 0 0 1-.1.2 1.3 1.3 0 0 0 0-.2 1.8 1.8 0 0 1-.2 0s0 0 .1-.2a2.8 2.8 0 0 1 0-.3 3.8 3.8 0 0 1-.8 1 3.3 3.3 0 0 1 0-1 1.5 1.5 0 0 1-.2 0l-.1.2a1 1 0 0 0-.2-.3 1.5 1.5 0 0 1-.2 0s0 0 .1-.1a2.9 2.9 0 0 1-.3-.5 3.8 3.8 0 0 1-.2.5 3.5 3.5 0 0 1-.3-.7 6.7 6.7 0 0 1-.7-.3h-.3a4.5 4.5 0 0 1-.4-.4 4.8 4.8 0 0 1 .2.6h.4a3.2 3.2 0 0 1-.3.3 2 2 0 0 0 .2.4s-.2 0-.5-.2a2.9 2.9 0 0 1-.8.3 1.8 1.8 0 0 1 .3 0l1.7.6a4.2 4.2 0 0 1-1 .4l1.2.4a4 4 0 0 1-1.4.5l.8.2-.8.4a6.4 6.4 0 0 1 .6 1.8 7.5 7.5 0 0 0 1.4-.3 8 8 0 0 1-.9 1.3 5.2 5.2 0 0 1 2.2-.2ZM65.6 88.3v.3l.2-.3h-.2ZM126.3 34.5ZM112.3 63.4l.1.4a2.5 2.5 0 0 1 .3-.2v-.1a4.5 4.5 0 0 1-.4 0ZM41.7 75.6a2.5 2.5 0 0 1-.4 0v.3a1.5 1.5 0 0 0 .4-.3ZM89.5 36.9a2.8 2.8 0 0 1 .5-.2 4 4 0 0 1-.4-.2l-.1.4ZM80.6 49.3a5 5 0 0 1-.2-.7 4 4 0 0 1-.7.3 1.1 1.1 0 0 1-.2 0 4.1 4.1 0 0 1 .3.3 4.4 4.4 0 0 1 .8 0ZM105.9 65.6a2 2 0 0 0 0-.2l-.1-.4h-.2a.8.8 0 0 1-.2-.1v.1a2.7 2.7 0 0 1 .5.6ZM92.6 67.3a1.4 1.4 0 0 1-.2.2 1 1 0 0 1 0 .4v.3h.3a4 4 0 0 1-.1-.8ZM89.9 35.8ZM70.5 60.8a3.8 3.8 0 0 1 .2.4h.1l-.1-.3a1.5 1.5 0 0 0-.2 0ZM73.4 87.5a7.4 7.4 0 0 1 .2-.8s.2.2.4.5a4 4 0 0 1 1 .4l-.8-1.8a9.5 9.5 0 0 1 1.2.7 8.1 8.1 0 0 1-.2-1.2l-1.5.7a4 4 0 0 1 .7-1.3l-1.7.6a4.2 4.2 0 0 1 .6-1l-1.2.4a4 4 0 0 1 .7-1.2 6.4 6.4 0 0 1-.8 0h.1a6.4 6.4 0 0 1-.6-.2 2.2 2.2 0 0 0-.5 0s.1 0 .2-.2a4.5 4.5 0 0 1-.3-.2 5.4 5.4 0 0 1-.4 1.2l-.1-.4a2.2 2.2 0 0 1-.3.8s0-.3-.2-.7a2.3 2.3 0 0 1-.2.5l.3.3a1.8 1.8 0 0 0-.6 0 4.3 4.3 0 0 1 .4.4h-.4a4.3 4.3 0 0 1 .7.8 1.5 1.5 0 0 0-.5 0 3.8 3.8 0 0 1 .6 1 3.6 3.6 0 0 1-.8-.2c.3.5-.4 1.2-.5 1.2v-.7a2.4 2.4 0 0 1-.3.4l.1.4a6.5 6.5 0 0 0-.8-.4v.2a5.9 5.9 0 0 1 .8 1.3 7 7 0 0 1 .4-1.1 7.3 7.3 0 0 1 .5.8 5.8 5.8 0 0 1 .4-.9l-.3-.1a3.9 3.9 0 0 1 .4-.1 2 2 0 0 0 .2-.6s0 .2.2.5h.3a5.9 5.9 0 0 1-.1-1.9 6.6 6.6 0 0 1 1.5 1.5 2.6 2.6 0 0 0 0-1 7.6 7.6 0 0 1 1.2 1.4ZM66.6 88.4v.1a5 5 0 0 1 .7.5 5.2 5.2 0 0 1 0-1h-.2a1.2 1.2 0 0 1-.2 0 4.3 4.3 0 0 1 0 .7l-.3-.3ZM52.4 64.6l-.3.3h.4a1.1 1.1 0 0 1-.1-.3ZM38.8 83.9ZM17.2 68.6l.3.2a2.2 2.2 0 0 1-.3-.2ZM44.7 104a4.1 4.1 0 0 1-.7-.2.8.8 0 0 1 0 .2 3 3 0 0 1 0 .6l.3.4.2-.1.1-.4-.4-.2.5-.2a6.4 6.4 0 0 1 .3-.7l-.5.1a3.9 3.9 0 0 1 .2.5ZM65.7 65.4a4.3 4.3 0 0 1 .5-.5 3.7 3.7 0 0 1 0 .8 2.3 2.3 0 0 1 .6-.4s0 .2-.2.6l.2.2a1.4 1.4 0 0 1 .2-.2c0-.8 1.6-1.5 1.6-1.5.7-.5 1.9-1.3 2.9-1a2.2 2.2 0 0 1 .4-.3l-.3-.4h-1.1a4.1 4.1 0 0 1 1-.8 6.5 6.5 0 0 1-1.2-.4s0-.1.2-.2h-.3c0 .5-.7 1-.7 1v-.7a2.5 2.5 0 0 1-.3.4 3.8 3.8 0 0 1 0 .4 1.9 1.9 0 0 0-.5-.4 4.6 4.6 0 0 1 .2.7 4.5 4.5 0 0 1-.6-.3 4.8 4.8 0 0 1 .1.8 1.5 1.5 0 0 0-.4-.3A4 4 0 0 1 68 64a3.5 3.5 0 0 1-.8-.7l-.1.1.3.3a1.5 1.5 0 0 0-.6 0 2 2 0 0 1-.3 0 2.2 2.2 0 0 1-.8.1 5 5 0 0 1 .3 1 6.5 6.5 0 0 1-.8-.5 5.9 5.9 0 0 1 .3.8 1.2 1.2 0 0 1 0 .2ZM43.2 24.1l.3.1a1.2 1.2 0 0 1 .1-.2.9.9 0 0 1 0-.3H43l.1.4ZM95 16.2a6.3 6.3 0 0 1-.5-1.4 5.6 5.6 0 0 1-.8.9 2.2 2.2 0 0 1-.2.2 6.3 6.3 0 0 1 .7.3 6.2 6.2 0 0 1 .9 0ZM110 57.5l.1.1.2-.1a1.6 1.6 0 0 1-.3 0ZM82.2 44.2a4.2 4.2 0 0 1-.4.3v.2l-.3-.1h-.2v.2h.3a1.2 1.2 0 0 0-.2.3v.2a2.3 2.3 0 0 1-.2.2 2.4 2.4 0 0 1-.3.8 5.2 5.2 0 0 1 1 .3 5.5 5.5 0 0 1-1.4.5 5.5 5.5 0 0 1 .7 1 3.7 3.7 0 0 1 .7 0 1 1 0 0 1 .2 0 4.2 4.2 0 0 1-.2-.7 3.8 3.8 0 0 1 .7.3 2.3 2.3 0 0 1-.1-.7s.2.1.5.4h.2a1.2 1.2 0 0 1 0-.3c-.8-.5-.8-2.1-.8-2.1a5.2 5.2 0 0 1 1 1l.2-.3-.1-.3h.2l.1-.1a4.6 4.6 0 0 1-.1-.8 1.5 1.5 0 0 0 .4.3 3.7 3.7 0 0 1-.2-1.2 3.4 3.4 0 0 1 .8.6 4.7 4.7 0 0 1 .1-.4l.4.8a2.2 2.2 0 0 1 .1-.3s.1.3.3.7a2 2 0 0 1 .3-.5 5.2 5.2 0 0 1 0-.8 5.3 5.3 0 0 1 1 1 4.2 4.2 0 0 1 .2-.6 4.9 4.9 0 0 1 .4-.6s0 0 0 .5a2.2 2.2 0 0 1 .4-.7l.1.6a3.2 3.2 0 0 1 .5 0 5.3 5.3 0 0 1-.4-1.2s0 0 .3.3a2.2 2.2 0 0 1-.2-.8s.2.2.6.5l.6-.1-.2-.1.5-.3v-.3l.3.1h.2a2 2 0 0 1 0-.4l-.2.2a2.6 2.6 0 0 1 0-.3 1.6 1.6 0 0 0-.3 0s.1-.1.3-.2a2.4 2.4 0 0 1 .2-.6 1 1 0 0 1-.2.1l-1 .7a3.2 3.2 0 0 1 .2-.8l-.3.2v.1h-.2l-.4.2V41a5.4 5.4 0 0 1-.6-.2c.4.9-.7 2-.8 2v-1.2a3.5 3.5 0 0 1-.6.8l.3.5c-.5-.3-.6-.2-1.4-.5l-.1.4a7.4 7.4 0 0 1 .5.8 2.3 2.3 0 0 0-.8-.2l-.3.5-.2-.6-.3-.1a1.5 1.5 0 0 1-.3-.1 6.7 6.7 0 0 1 0 1 6.2 6.2 0 0 1-1-.7 3.8 3.8 0 0 1 0 1.1l-.6-.8-.6-.1.1.4a4.4 4.4 0 0 1 .6.2ZM51.2 91.1l.2-.3v-.2a2.8 2.8 0 0 1-.4 0s.1 0 .3-.2l-.2-.5h.1a1.7 1.7 0 0 1-.2 0s0-.1.2-.2a2.7 2.7 0 0 1 0-.3 3.7 3.7 0 0 1-.8.9 3.2 3.2 0 0 1-.1-1 1.5 1.5 0 0 1-.2 0v.3a1.3 1.3 0 0 0-.2-.3 2 2 0 0 1-.2 0s0 0 0-.1a3 3 0 0 1-.2-.5 3.7 3.7 0 0 1-.2.5 2.7 2.7 0 0 1-.5-1.2 4.8 4.8 0 0 1-.9.2 5.1 5.1 0 0 1 .8-1.1 5.3 5.3 0 0 1-1.2-.5s0 0 .5 0a2.2 2.2 0 0 1-.8-.4s.3 0 .8-.2a5.6 5.6 0 0 1 .5-.7.7.7 0 0 1 0-.1 4.5 4.5 0 0 1-.6-.3 3.1 3.1 0 0 1 1-.5l.1-.3a3.9 3.9 0 0 1-.3.2V84a4.4 4.4 0 0 1-1 .4 1.5 1.5 0 0 0 .3-.4 3.9 3.9 0 0 1-1.1.4 4.3 4.3 0 0 1 .2-.6 4.6 4.6 0 0 1-.9 0 1 1 0 0 0 .3-.3 2.3 2.3 0 0 1-.8 0s.2 0 .3-.2a2 2 0 0 1-.6-.1 5 5 0 0 1-.8.4 5.3 5.3 0 0 1 .6-1.3 5.4 5.4 0 0 1-1.3-.2s0 0 .4-.2a2.2 2.2 0 0 1-.8-.1s.3-.1.7-.4a6 6 0 0 1 .3-.8v-.1a4.3 4.3 0 0 1-.6-.1 3.8 3.8 0 0 1 .6-.6 2.4 2.4 0 0 1-.8 0s.3-.2.6-.4v-.2a1.2 1.2 0 0 1-.2-.1c-.7.6-2.2 0-2.2 0a5.1 5.1 0 0 1 1.3-.6 5.4 5.4 0 0 1-.8-1s0 0 .4.1a2.3 2.3 0 0 1-.5-.7s.3.1.8.2a2.2 2.2 0 0 1-.4-.4h-.3a1.8 1.8 0 0 0 .4-.4 4.3 4.3 0 0 1-.7 0l.2-.3a4.4 4.4 0 0 1-1 0l.2.3a5.8 5.8 0 0 1-1-.3 2.1 2.1 0 0 1 .1.2 7.5 7.5 0 0 1-.1 1.2l.6.9a3 3 0 0 1-1-.4l.3.5a7.8 7.8 0 0 1-1.1-.3 5.5 5.5 0 0 1 .1.7s0 0-.3-.3a2.2 2.2 0 0 1 .2.8s-.2-.2-.5-.4a2.6 2.6 0 0 1 0 .5h.4a1.8 1.8 0 0 0-.5.3 4.1 4.1 0 0 1 .6.2l-.3.3a4.1 4.1 0 0 1 1 .3 1.4 1.4 0 0 0-.6.2 3.8 3.8 0 0 1 1.1.4 3.6 3.6 0 0 1-.9.4 4.7 4.7 0 0 1 .4.3 6.2 6.2 0 0 0-1 0 2.4 2.4 0 0 1 .3.2s-.3 0-.8 0a2.1 2.1 0 0 1 .3.4 4.5 4.5 0 0 1 .7.3 5.2 5.2 0 0 1-1.2.4 1 1 0 0 1 .6.4 3.7 3.7 0 0 1 .5-.7 3.8 3.8 0 0 1 .3 1.1 1.4 1.4 0 0 0 .2-.4 4.3 4.3 0 0 1 .2 1l.4-.3a4.4 4.4 0 0 1 0 .7 1.8 1.8 0 0 0 .3-.5s0 .1 0 .3a2.4 2.4 0 0 1 .6.3l-.4-.7a2 2 0 0 1 1 .5V84a5.3 5.3 0 0 1 .7 1 5.2 5.2 0 0 1 .9-1s.2 1.6-.5 2a1.2 1.2 0 0 1 0 .4h.2l.5-.5a2.4 2.4 0 0 1-.1.8 4.1 4.1 0 0 1 .6-.5 4.3 4.3 0 0 1 0 .7h.1a6 6 0 0 1 .9 0l.6-.7a2.2 2.2 0 0 1-.2.9l.3-.4A5.5 5.5 0 0 1 46 88a5.2 5.2 0 0 1 1.4-.1 4.6 4.6 0 0 1-.5.5 2.1 2.1 0 0 1-.1.6l.6-.4v.3c.4-.2.5-.1.8-.4a4.8 4.8 0 0 1-.2.5 3.4 3.4 0 0 1 1 0 3.9 3.9 0 0 1-1 .8 1.4 1.4 0 0 0 .6 0 5.2 5.2 0 0 1-.4.4 5.5 5.5 0 0 1 1 1 2.6 2.6 0 0 0 0-1 7.6 7.6 0 0 1 1.1 1.4 7.6 7.6 0 0 1 .3-.8s.1.2.3.5a4 4 0 0 1 1 .4l-.3-.6a2.6 2.6 0 0 1-.3 0ZM27.8 37.3a2.2 2.2 0 0 1-.2-.5 3.6 3.6 0 0 1-.4-.2l.2.7h.4ZM65 88.7a1.8 1.8 0 0 1 .2.3l.2.1.1-.2a4 4 0 0 1-.4-.2ZM137.2 67.9v.2-.2ZM93.8 67.8a.3.3 0 0 0 0 .1ZM130.2 85.8ZM111.4 63.3l.3-.1V63a2.5 2.5 0 0 1-.7-.1s.3-.2.7-.4a5.7 5.7 0 0 1 .3-.8 1.2 1.2 0 0 1 .1-.2 4 4 0 0 1-.7 0 4 4 0 0 1 .6-.6 2.5 2.5 0 0 1-.7-.1s.2-.1.5-.3l.1-.3a1.2 1.2 0 0 1-.3 0 1.5 1.5 0 0 1-1 .2h-.2a5.2 5.2 0 0 1-1-.3l.3-.1a4 4 0 0 1-.4-.3 5.3 5.3 0 0 1-.3 1.3l-.2-.5a2.2 2.2 0 0 1-.2.8s-.1-.2-.3-.7a2.4 2.4 0 0 1-.1.6l.2.3a1.8 1.8 0 0 0-.6-.1 4.2 4.2 0 0 1 .5.4 4.3 4.3 0 0 1-.4.1 4.3 4.3 0 0 1 .6.8 1.4 1.4 0 0 0-.5-.1 3.8 3.8 0 0 1 .7 1 3.8 3.8 0 0 1-.8-.2c.2.6-.5 1.3-.5 1.3V64a2.2 2.2 0 0 1-.4.5l.2.3a6 6 0 0 0-.8-.3l-.1.2a4.5 4.5 0 0 1 .3.5 1.4 1.4 0 0 0-.5 0 5.4 5.4 0 0 1 .5.8 5.2 5.2 0 0 1 .4-.8 5.1 5.1 0 0 1 .6 1.4 2 2 0 0 0 .3-.6 5.8 5.8 0 0 1 .4 1.3l.4-.4a6 6 0 0 1 0 .6l.3-.4a4.1 4.1 0 0 1-.4-1.4 5.7 5.7 0 0 1 .8.4 1.7 1.7 0 0 1 0-.3 7.4 7.4 0 0 1 .3-1l-.5-1a3 3 0 0 1 1 .5l-.3-.6a7.3 7.3 0 0 1 1.6.8 6 6 0 0 1 .1-1.2h-.2ZM83 104.1v.1ZM103.4 103.5ZM90.5 41.8a.4.4 0 0 0 .1 0h-.2.1ZM88.7 40.1l-.2.2h.1a1.7 1.7 0 0 1 .1-.2ZM88.1 38.9l.5.5.2-.5a5.6 5.6 0 0 1-.7 0Z"/><path fill="#73bf44" d="M89.8 37.8a1.6 1.6 0 0 1 .3-.2l-.2-.4-.8-.1.3-.2a11 11 0 0 0-.2-.6 3.7 3.7 0 0 1-.4 1.2s-.1-.5-.4-1.1a3.8 3.8 0 0 1-.2.8l.3.5a3 3 0 0 0-1-.1 6.2 6.2 0 0 1 .6.4 2.2 2.2 0 0 1 1.7-.2ZM49.3 64.6v-.4a1.8 1.8 0 0 1-.2.4h.2ZM68.4 65a4 4 0 0 1-.3.7 5.5 5.5 0 0 1 1.3.1s0 0-.5.3a2.2 2.2 0 0 1 .9 0s-.3.2-.7.4a2.3 2.3 0 0 1 .6.1l.2-.3a1.1 1.1 0 0 0 0 .2h.1V66l-.3-.2.5-.3.2-.6a8.3 8.3 0 0 1-2 0ZM71.2 60.8a1.3 1.3 0 0 1 0 .1v-.1ZM87.9 39.5a4.2 4.2 0 0 1 .5.5l.1-.4a2.7 2.7 0 0 0-.6-.1ZM48.8 64.2V64ZM64.9 64v.1-.1ZM63.9 90.2l-.2-.5a3.6 3.6 0 0 1-.2-.4 2.2 2.2 0 0 1-.2.6 3 3 0 0 1 .6.3ZM51.7 90a1.1 1.1 0 0 1 .2-.2 1.7 1.7 0 0 1-.5 0l-.1.2.2.2.2-.3ZM62.4 90h-.1Z"/><path fill="#73bf44" d="M51.2 65.6h.2a4.3 4.3 0 0 1-.2-.6 3.7 3.7 0 0 1 .7.3 2.3 2.3 0 0 1-.2-.7s.1 0 .4.3l-.3-.9a3 3 0 0 1-.1.3l-.2-.4a4.4 4.4 0 0 1-.4.1 5.3 5.3 0 0 1 0 .8 7 7 0 0 1-.6-.6 2.7 2.7 0 0 1-.7 0 5.2 5.2 0 0 1-.4.5h.3a3 3 0 0 1-1 .3 5.1 5.1 0 0 1 .9.7 5.7 5.7 0 0 1-1 .2c.1 0 .2 0 .2.2a4.2 4.2 0 0 1 .4.7 2.4 2.4 0 0 1 .3-.5v.7a4 4 0 0 1 .5 0 5.3 5.3 0 0 1-.4-1.2s0 0 .4.3a2.2 2.2 0 0 1-.3-.9s.3.2.7.5a6.1 6.1 0 0 1 .8 0ZM62.8 89.3a1.4 1.4 0 0 1-.1.2l.2.3h.3l-.2-.4-.2-.1ZM62.7 64.4a1.8 1.8 0 0 1 .2-.2 1.1 1.1 0 0 1 0-.1l-.2.3Z"/><path fill="#73bf44" d="M142.7 77.6a4.9 4.9 0 0 0-.3-2.2 8.3 8.3 0 0 0 1.6-.4 9.4 9.4 0 0 0-2.3-1 9.6 9.6 0 0 0 1.5-1.9s0 0-.8.3a4 4 0 0 0 1-1.2s-.6.2-1.4.4a11 11 0 0 0-1.4-.7 1.7 1.7 0 0 0-.3-.1 7.6 7.6 0 0 0 .8-1 5.2 5.2 0 0 0-2.1.2 8 8 0 0 0 .9-1.3 8 8 0 0 1-1.5.4 6.6 6.6 0 0 0-.7-2l-.2.4a2.8 2.8 0 0 0-.4-.5 1.5 1.5 0 0 1 .5 0 4.4 4.4 0 0 0-.6-.7 3.3 3.3 0 0 0 .4 0 4.2 4.2 0 0 0-.5-.5 2 2 0 0 1 .6 0s0 0-.2-.2a2.2 2.2 0 0 0 .1-.5l.3.7a2.2 2.2 0 0 0 .2-.9l.2.5a5.4 5.4 0 0 0 .3-1.3 5.1 5.1 0 0 0 1.3.7s-.5-1.6-1.3-1.8a1.3 1.3 0 0 0-.2-.2l.3-.1.6.2a2.4 2.4 0 0 0-.4-.6 3.5 3.5 0 0 0 .8.1 4.4 4.4 0 0 0-.4-.6 1.3 1.3 0 0 0 .2 0 5.6 5.6 0 0 0 .8-.2l.8.3a2.2 2.2 0 0 0-.4-.8l.4.3a5.2 5.2 0 0 0-.7-1.2 5.2 5.2 0 0 0 1.4-.3 5 5 0 0 0-.7-.4 2 2 0 0 0-.3-.4h.8a2.6 2.6 0 0 0-.2-.2 5.6 5.6 0 0 1 .9 0 4.8 4.8 0 0 0-.4-.3 3.5 3.5 0 0 0 1-.3 3.8 3.8 0 0 0-1.2-.5 1.4 1.4 0 0 1 .5-.2 4.3 4.3 0 0 0-1-.3l.4-.3a4.4 4.4 0 0 0-.6-.1 2 2 0 0 1 .5-.3s-.2 0-.4-.1a2 2 0 0 0-.1-.5l.6.4a2.3 2.3 0 0 0-.2-.8l.3.3a5.4 5.4 0 0 0-.3-1.2 5 5 0 0 0 1.4 0s-1.2-1.2-2-1a1.3 1.3 0 0 0-.3 0c0-.2.1-.3.2-.3h.6a2.4 2.4 0 0 0-.6-.5 3.5 3.5 0 0 0 .7-.2 4.2 4.2 0 0 0-.6-.4h.1a6.3 6.3 0 0 0 .6-.7l.8-.1a2.2 2.2 0 0 0-.7-.4h.4a5.3 5.3 0 0 0-1-.7 5 5 0 0 0 .9-1 4.8 4.8 0 0 0-1 0 2.8 2.8 0 0 0-.2-1.2 3.8 3.8 0 0 0-.3.5 3.5 3.5 0 0 0-.3-.5h.2l-.2-.1a1 1 0 0 1-.2-.4s0 .2 0 .3h-.2a3.3 3.3 0 0 0 0-1 3.8 3.8 0 0 0-.8.8 1.4 1.4 0 0 1 0-.5 4.3 4.3 0 0 0-.7.8 4.3 4.3 0 0 0-.1-.5 4.8 4.8 0 0 0-.4.6 1.8 1.8 0 0 1 0-.6s-.1.1-.3.3a2 2 0 0 0-.5-.1l.7-.4a2.2 2.2 0 0 0-.9 0l.4-.3a5.4 5.4 0 0 0-1.3-.1 5 5 0 0 0 .5-1.4s-1.5.7-1.5 1.6a1.4 1.4 0 0 0-.3.2l-.1-.3.1-.6a2.3 2.3 0 0 0-.5.5 3.8 3.8 0 0 0 0-.8 4.5 4.5 0 0 0-.6.4 1.4 1.4 0 0 0 0-.1 5.7 5.7 0 0 0-.4-.8l.2-.8a2.2 2.2 0 0 0-.7.5l.2-.4a5.3 5.3 0 0 0-1 .8 5.2 5.2 0 0 0-.6-1.3 5 5 0 0 0-.2.8 2 2 0 0 0-.4.3V45s-.2 0-.3.2a5.5 5.5 0 0 1 0-.9 4 4 0 0 0-.4.4 3.4 3.4 0 0 0-.4-.8 3.7 3.7 0 0 0-.3 1.1 1.4 1.4 0 0 1-.3-.4 4.3 4.3 0 0 0-.2 1 4.2 4.2 0 0 0-.3-.3 4.2 4.2 0 0 0 0 .6 3.4 3.4 0 0 1-.3-.3 3 3 0 0 0 .3-1.2 4 4 0 0 0-.6.4 1.5 1.5 0 0 0 0-.2 5.7 5.7 0 0 0-.3-.8l.2-.8a2.2 2.2 0 0 0-.7.5l.2-.4a5.3 5.3 0 0 0-1 .7 5.1 5.1 0 0 0-.5-1.4 4.8 4.8 0 0 0-.3 1 2.8 2.8 0 0 0-1.3-.4 4.4 4.4 0 0 0 .3.5 2.7 2.7 0 0 0-.6 0v-.2a4.1 4.1 0 0 0-.5-.7l-.1-.2a5.2 5.2 0 0 0 .9-.2 5 5 0 0 0-.8-.6 3.2 3.2 0 0 0 1-.3s-.4-.1-.8-.3l-.2-.4a2 2 0 0 0 .4 0c1 .6 3-.4 3-.4a7 7 0 0 0-1.9-.6 7.2 7.2 0 0 0 1-1.5l-.6.3a3 3 0 0 0 .6-1s-.4.2-1 .4a3 3 0 0 0 .4-.7h.5a2.5 2.5 0 0 1-.6-.5 5.7 5.7 0 0 0 .9 0 5 5 0 0 0-.3-.4 5.9 5.9 0 0 0 1.3 0 2 2 0 0 1-.5-.5 5 5 0 0 0 1.5-.2 5.1 5.1 0 0 0-.8-.7c.7-.2.8-1.6.8-1.6l-.8.6a3 3 0 0 0 .2-.7l.4-.2c-.4 0-.4-.2-1-.5l.1-.3a6.1 6.1 0 0 0 .8-.1 2 2 0 0 1-.6-.4l.2-.5c-.2 0-.4.2-.5.3l-.3-.2a2.2 2.2 0 0 0-.2 0 5.5 5.5 0 0 0 .7-.7 5 5 0 0 0-1-.1 3.1 3.1 0 0 0 .6-.7s-.3 0-.8 0l-.4-.2a5.7 5.7 0 0 0 .9-.5 5.2 5.2 0 0 0-1-.4 3 3 0 0 0 .8-.5s-.3 0-.7 0a5.6 5.6 0 0 0 1.3-.7c-.5 0-.5-.1-1.4-.3h-.2a5.7 5.7 0 0 0 .4-.8 4.7 4.7 0 0 0-1 .1 3.1 3.1 0 0 0 .4-.8s-.2.1-.7.3h-.4c.8-1.3-.2-3.6-.2-3.6l-.2.6a3 3 0 0 0-.4-1s0 .3-.3.9a3 3 0 0 0-.2-.7l.3-.4a2.5 2.5 0 0 1-.8 0 5.7 5.7 0 0 0 .6-.5l-.5-.1a5.9 5.9 0 0 0 .8-1 1.9 1.9 0 0 1-.7 0 5 5 0 0 0 .9-1.2 4.8 4.8 0 0 0-1 .2 6.4 6.4 0 0 0 .5-.6 7 7 0 0 0-1.9.1 7.1 7.1 0 0 0 .3-1.7l-.4.5a3 3 0 0 0 .2-1.2s-.3.4-.8.8a7 7 0 0 0-1.1 0 1.3 1.3 0 0 0-.3 0 5.5 5.5 0 0 0 .2-.9 5.3 5.3 0 0 0-.9.5 3.2 3.2 0 0 0 .2-1s-.3.3-.6.6h-.4a1.7 1.7 0 0 0 0-.4c1-.6 1-2.8 1-2.8a7 7 0 0 0-1.4 1.4 7.3 7.3 0 0 0-1-1.4s0 0 0 .6a3 3 0 0 0-.6-1s0 .5 0 1a3.1 3.1 0 0 0-.5-.6s0 .5-.1 1.3a1.1 1.1 0 0 0 0 .3 2.3 2.3 0 0 0-.4-.6v-.4a1.6 1.6 0 0 1-.2.2 2.5 2.5 0 0 0-.2-.1s0 0 0 .3a3 3 0 0 0-.3.2 5 5 0 0 0 .2-1.6 4.4 4.4 0 0 0-1 .8 2.4 2.4 0 0 0-.2-.1l.2-.4a1.5 1.5 0 0 1-.4.1l-.3-.1v.2a4.2 4.2 0 0 0-.6 0 5.6 5.6 0 0 0 .2-.6 3.8 3.8 0 0 0-1.6.7 6.7 6.7 0 0 0-.6-1.2 7 7 0 0 0-.3 1.9 7.1 7.1 0 0 0-1.6-.8s0 .1.3.6a3 3 0 0 0-1-.5s.2.4.5 1a7.5 7.5 0 0 0-.3 1 1.6 1.6 0 0 0 0 .3 5.7 5.7 0 0 0-.8-.4 4.1 4.1 0 0 0 .4 1.4l-.2.4a6 6 0 0 0-.1-.6l-.4.4a5.8 5.8 0 0 0-.4-1.3 2 2 0 0 1-.3.7 5.1 5.1 0 0 0-.6-1.5 5.4 5.4 0 0 0-.3.8 6 6 0 0 0-.8-.9 1.6 1.6 0 0 1 0 .5 3.1 3.1 0 0 0-.7-.8s0 .2 0 .5a2.7 2.7 0 0 0-.7-.4 6.6 6.6 0 0 0-.3-1.2 7.2 7.2 0 0 0-.8 1.7 7.1 7.1 0 0 0-1.3-1.1s0 0 .2.6a3 3 0 0 0-1-.7s.2.4.4 1a8 8 0 0 0-.6 1 1.8 1.8 0 0 0 0 .3 5.6 5.6 0 0 0-.7-.6 5 5 0 0 0 0 1 3.1 3.1 0 0 0-.8-.6s0 .3.2.8l-.2.4a1.8 1.8 0 0 0-.3-.3c0-.8-1-1.5-1.6-1.8l1-.2a3.5 3.5 0 0 0-1.1-.7h.7a8.7 8.7 0 0 0-1.8-1 8.3 8.3 0 0 0 1.6-1.7 7.8 7.8 0 0 0-1.6.2 4.5 4.5 0 0 0-.4-2 6.6 6.6 0 0 0-.5.7 5.6 5.6 0 0 0-.3-.8h.2l-.4-.2a1.8 1.8 0 0 1-.2-.5s0 .2-.1.5h-.3a5.3 5.3 0 0 0 0-1.7 6 6 0 0 0-1.3 1.3 2.4 2.4 0 0 1 0-.8 7 7 0 0 0-1 1.2 8 8 0 0 0-.3-.6 6.4 6.4 0 0 0-.5.8 3 3 0 0 1 0-1s-.3.3-.5.5a4 4 0 0 0-.9 0l1.1-.7a3.6 3.6 0 0 0-1.4-.1l.7-.4a8.8 8.8 0 0 0-2-.2 8.3 8.3 0 0 0 .7-2.2S84 6.2 83.8 7.7a2 2 0 0 0-.4.2l-.2-.4.2-1a3.8 3.8 0 0 0-.9.8 6.1 6.1 0 0 0 0-1.3 6.9 6.9 0 0 0-.8.7 1.8 1.8 0 0 0-.1-.2 10 10 0 0 0-.6-1.3l.3-1.2a3.6 3.6 0 0 0-1 .8l.2-.7a8.7 8.7 0 0 0-1.7 1.3 8.3 8.3 0 0 0-.9-2 7.6 7.6 0 0 0-.3 1.1 3.3 3.3 0 0 0-.7.6V4a3 3 0 0 0-.4.4 9 9 0 0 1-.1-1.5 7.4 7.4 0 0 0-.5.7 5.6 5.6 0 0 0-.7-1.4 6 6 0 0 0-.5 1.9 2.3 2.3 0 0 1-.5-.7 7 7 0 0 0-.2 1.6 6.5 6.5 0 0 0-.6-.5 6.9 6.9 0 0 0 0 1A6.3 6.3 0 0 1 73 5a4.6 4.6 0 0 0 .4-2 7 7 0 0 0-1 .7 2 2 0 0 0 0-.3 9.3 9.3 0 0 0-.5-1.3l.5-1.2a3.6 3.6 0 0 0-1.2.7l.3-.7A8.6 8.6 0 0 0 69.8 2 8.3 8.3 0 0 0 69-.2a7.7 7.7 0 0 0-.5 1.5 4.5 4.5 0 0 0-2-.6 7.2 7.2 0 0 0 .4.8 4.5 4.5 0 0 0-.8 0v-.3l-.3.2a1.8 1.8 0 0 1-.5 0s.1.1.3.3l-.1.3A5.3 5.3 0 0 0 64 1a6 6 0 0 0 .6 1.9 4.2 4.2 0 0 0-.5-.2v-.4l-.3.2a1.8 1.8 0 0 1-.3-.2l.2.5a2.9 2.9 0 0 0-.4.7 1.2 1.2 0 0 0 0-.3L63 1.7a3.7 3.7 0 0 0-.6 1c0-.8-.2-1.2-.2-1.3a3.6 3.6 0 0 0-.6 1.3v-.8a8.6 8.6 0 0 0-1 1.9 8.4 8.4 0 0 0-1.7-1.5s.1 2.6 1.4 3.2a2 2 0 0 0 .1.5H60l-.8-.5a3.7 3.7 0 0 0 .3 1 6.2 6.2 0 0 0-1.2-.4 6.8 6.8 0 0 0 .4 1 2.1 2.1 0 0 0-.3 0 9.3 9.3 0 0 0-1.3.2L56 6.5a3.6 3.6 0 0 0 .4 1.3l-.6-.4a8.6 8.6 0 0 0 .7 2 6 6 0 0 0-.7 0l-.2-1.1a3.7 3.7 0 0 0-.6 1l-.1-.6a9.1 9.1 0 0 0-.5.8h-.2l.1.1a8 8 0 0 0-.4 1A8.4 8.4 0 0 0 52.2 9a8 8 0 0 0 .2 1.2 3.3 3.3 0 0 0-.4.8l-.6-1.1a3.5 3.5 0 0 0-.1.4l-.7-1.2a7.7 7.7 0 0 0-.2.7 5.6 5.6 0 0 0-1.2-1 6 6 0 0 0 .3 2 2.3 2.3 0 0 1-.7-.5 7.6 7.6 0 0 0 .2 1.2l-.1.3-.4-.1.1.4-.2.6a8.4 8.4 0 0 0-1.6-1.7s0 2.7 1.2 3.4a2 2 0 0 0 .1.5h-.5l-.7-.6a3.8 3.8 0 0 0 .2 1A6.2 6.2 0 0 0 46 15a6.8 6.8 0 0 0 .3 1 1.5 1.5 0 0 0-.3 0 8.9 8.9 0 0 0-1.4 0l-1-.8a3.6 3.6 0 0 0 .3 1.3l-.5-.5a8.6 8.6 0 0 0 .5 2 8.7 8.7 0 0 0-2.3 0 7.7 7.7 0 0 0 1.2 1 4.4 4.4 0 0 0-1.1 1.7 7.2 7.2 0 0 0 .8-.1 5.3 5.3 0 0 0-.3.8l-.3-.1a3.3 3.3 0 0 0 .2.3 1.9 1.9 0 0 1-.2.5s.2 0 .4-.2l.2.2a5.4 5.4 0 0 0-1.3 1 6 6 0 0 0 2 .2 2.3 2.3 0 0 1-.7.5s.2 0 .4 0a2.2 2.2 0 0 0-.1.5 3.8 3.8 0 0 0-.5-.7 4.6 4.6 0 0 0-.2.7 1.1 1.1 0 0 0-.1-.1 6.3 6.3 0 0 0-.8-.5l-.3-.8a2.3 2.3 0 0 0-.3.9l-.1-.5a5.7 5.7 0 0 0-.4 1.2 5.3 5.3 0 0 0-1.2-1 5.2 5.2 0 0 0 .2 1 2.3 2.3 0 0 0-.8.3 2.5 2.5 0 0 0-.3 0v-.2a2 2 0 0 0-.2.1 1.1 1.1 0 0 1-.3 0s0 0 .2.2a1.5 1.5 0 0 0-.1.2 3.6 3.6 0 0 0-1-.6 4 4 0 0 0 .4 1.2 1.5 1.5 0 0 1-.5-.3 5.1 5.1 0 0 0 .2.8 4 4 0 0 0-.6-.1 4.4 4.4 0 0 0 .3.5 2 2 0 0 1-.6-.2l.1.4a2.2 2.2 0 0 0-.3.4v-.8s-.8.7-.6 1.2a2.1 2.1 0 0 1-.7 0s.1.1.2.2a4.4 4.4 0 0 0-.5-.2 4.6 4.6 0 0 0 .2.7H34a7 7 0 0 0-.9 0l-.7-.6a2.3 2.3 0 0 0 .3 1l-.4-.4a5.7 5.7 0 0 0 .3 1.3 5.8 5.8 0 0 0-1.5 0 5.1 5.1 0 0 0 .8.6 2.3 2.3 0 0 0-.5.7 2.5 2.5 0 0 0-.3.1l-.1-.1a2 2 0 0 0 0 .2 1 1 0 0 1-.3.2 2.8 2.8 0 0 0 .3 0v.3a3.4 3.4 0 0 0-1.1 0 4 4 0 0 0 .4.4 2 2 0 0 1-.6-.1 5 5 0 0 0 .4.6 4.2 4.2 0 0 0-.7.1 4.3 4.3 0 0 0 .5.5 2 2 0 0 1-.6-.1s0 .1.2.3a2.4 2.4 0 0 0-.2.6l-.2-.8s-.5.9-.2 1.4a2.2 2.2 0 0 1-.6.1 5 5 0 0 0 .5.4 1 1 0 0 1-.1 0l-.8-.5a2.5 2.5 0 0 0 .3.7l-.4-.2a5.6 5.6 0 0 0 .6 1.3 5.5 5.5 0 0 0-1.5.2s.1.1.3.2l-.4.8a1.4 1.4 0 0 1-.5 0 5 5 0 0 0 .3.3 3.7 3.7 0 0 0-.6.2 7.4 7.4 0 0 0-1-.7s0 0 .2.6a3 3 0 0 0-.8-.7s0 .4.2 1a8 8 0 0 0-.5 1 2.1 2.1 0 0 0 0 .3 5.5 5.5 0 0 0-.8-.6 5.2 5.2 0 0 0 0 1 3 3 0 0 0-.7-.6s0 .3.2.8l-.2.3a1.6 1.6 0 0 0-.4-.2c0-1.2-2-2.1-2-2.1a7 7 0 0 0 .6 1.8 7.3 7.3 0 0 0-1.7.1s0 0 .5.3a3 3 0 0 0-1.1.1s.4.2.9.6a3 3 0 0 0-.8 0l-.3-.3a2.5 2.5 0 0 1 0 .8 5.7 5.7 0 0 0-.5-.8 5.6 5.6 0 0 0-.2.6 5.9 5.9 0 0 0-.9-1 2 2 0 0 1 0 .6 5 5 0 0 0-1-1.1 4.4 4.4 0 0 0 0 1.4 2.4 2.4 0 0 0-.3 0l-.1-.4a1.4 1.4 0 0 1-.2.4l-.3.1.2.1a4.3 4.3 0 0 0-.3.7 5.7 5.7 0 0 0-.4-.6A3.7 3.7 0 0 0 14 43a6.4 6.4 0 0 0-1.2-.2 7 7 0 0 0 1.2 1.4 7.3 7.3 0 0 0-1.5.9s0 0 .6 0a3 3 0 0 0-1 .6s.5 0 1.1.1a8.3 8.3 0 0 0 .8.9l.1.1a5.9 5.9 0 0 0-.8.5 5 5 0 0 0 1 .3 3.1 3.1 0 0 0-.8.5s.3 0 .8.1l.2.4a1.7 1.7 0 0 0-.3.2c-1.1-.4-2.8 1-2.8 1a7 7 0 0 0 2 .2l-.3.4-.3.2.2.2v.2a6.2 6.2 0 0 0-.9.6 2 2 0 0 1 .7 0 5 5 0 0 0-1.3 1 4.8 4.8 0 0 0 1.2.2 5.6 5.6 0 0 0-.3.5 7.3 7.3 0 0 1 1.1-.2 2.7 2.7 0 0 0-.2.3s.4-.1 1-.3a2.7 2.7 0 0 0-.3.7 6.2 6.2 0 0 0-.8.6 6.9 6.9 0 0 0 1.9.1 5.7 5.7 0 0 0-.3.8h-.2l.1.2a6.7 6.7 0 0 0-.2.7s.1 0 .5-.4a3 3 0 0 0-.3 1l.7-.4a5.6 5.6 0 0 0 .4.4 7.2 7.2 0 0 0-1.6.7s.1 0 .7.1a3 3 0 0 0-1 .5s.4 0 1 .2a8 8 0 0 0 .7 1 1.4 1.4 0 0 0 .2.1 5.6 5.6 0 0 0-.9.4 5.3 5.3 0 0 0 1 .4 3.1 3.1 0 0 0-1 .5s.4 0 .9.1l.2.4a1.6 1.6 0 0 0-.4.1c-1-.4-2.8 1-2.8 1a7 7 0 0 0 2 .2A7.3 7.3 0 0 0 14 64s0 0 .5-.4a3 3 0 0 0-.4 1.1l.9-.6a3.2 3.2 0 0 0-.3.9l1.1-.7a1.4 1.4 0 0 0 .2-.2 2.2 2.2 0 0 0-.2.6l-.4.2a1.6 1.6 0 0 1 .4.1 2.2 2.2 0 0 0 0 .3l.2-.2a3.6 3.6 0 0 0 .4.2 5 5 0 0 0-1.5.7 4.3 4.3 0 0 0 1.3.4 2.1 2.1 0 0 0 0 .2h-.4a1.6 1.6 0 0 1 .3.3 2.5 2.5 0 0 0 0 .3l.2-.1a4 4 0 0 0 .5.5 5.3 5.3 0 0 0-.7.1 4.7 4.7 0 0 0 1 .8 2.7 2.7 0 0 0 .2.6 3.6 3.6 0 0 0-.7-.2 4.3 4.3 0 0 0 .2.7 1.2 1.2 0 0 0-.1 0 6.4 6.4 0 0 0-.9 0l-.6-.4a2.2 2.2 0 0 0 .2.8l-.3-.3a5.4 5.4 0 0 0 .4 1.2 4 4 0 0 0-.5 0v-.7a2.2 2.2 0 0 0-.5.7v-.4a4.5 4.5 0 0 0-.3.5 1.2 1.2 0 0 0-.2 0s0 0 .1 0a4.7 4.7 0 0 0-.3.7 5.1 5.1 0 0 0-1-1 4.6 4.6 0 0 0 .1.7 2 2 0 0 0-.3.5 16 16 0 0 1-.3-.6 2 2 0 0 0 0 .2c-.3-.4-.4-.4-.5-.8a4.6 4.6 0 0 0-.1.5 3.4 3.4 0 0 0-.8-.6 3.8 3.8 0 0 0 .2 1.2 1.3 1.3 0 0 1-.4-.3 4.6 4.6 0 0 0 .1.8v.1h-.3v.6a5.1 5.1 0 0 0-1-1s0 1.6.7 2a1.3 1.3 0 0 0 0 .3H10l-.5-.3a2.3 2.3 0 0 0 .1.7 3.6 3.6 0 0 0-.7-.4 4.2 4.2 0 0 0 .2.7H9a6 6 0 0 0-.8 0l-.6-.5a2.2 2.2 0 0 0 .2.8l-.4-.3a5.5 5.5 0 0 0 .3 1.3 5.2 5.2 0 0 0-1.4 0 4.7 4.7 0 0 0 .8.6 2.8 2.8 0 0 0-.8 1 4.4 4.4 0 0 0 .6 0 3.5 3.5 0 0 0-.2.4h-.2a2 2 0 0 0 .1.2 1 1 0 0 1-.1.3s0 0 .2-.1a1.8 1.8 0 0 0 .2.1 3.3 3.3 0 0 0-.8.7 3.7 3.7 0 0 0 1.2 0 1.5 1.5 0 0 1-.4.4 4.3 4.3 0 0 0 1 0 4.2 4.2 0 0 0-.2.3 4.7 4.7 0 0 0 .6-.1 2 2 0 0 1-.4.4s.2 0 .4 0a2.3 2.3 0 0 0 .3.5l-.7-.3a2.2 2.2 0 0 0 .5.7l-.5-.1a5.4 5.4 0 0 0 .8 1 5.2 5.2 0 0 0-1.3.6s1.6.6 2.2 0a1.4 1.4 0 0 0 .3 0v.4l-.6.2a2.4 2.4 0 0 0 .7.2 4.2 4.2 0 0 0-.6.5 4.3 4.3 0 0 0 .7 0 1.2 1.2 0 0 0 0 .2 6 6 0 0 0-.3.8l-.8.4a2.2 2.2 0 0 0 .9.1l-.5.2a5.4 5.4 0 0 0 1.3.2 5.2 5.2 0 0 0-.5 1.3 5 5 0 0 0 .8-.4 2 2 0 0 0 .6.1l-.3.3a2.3 2.3 0 0 0 .8 0 1.2 1.2 0 0 1-.3.2 4.4 4.4 0 0 0 .9 0 4.2 4.2 0 0 0-.3.6 3.7 3.7 0 0 0 1.1-.4 1.5 1.5 0 0 1-.2.5 4.4 4.4 0 0 0 1-.5v.5a4.2 4.2 0 0 0 .3-.3v.3a3.2 3.2 0 0 0-1.1.5 4 4 0 0 0 .6.3 1 1 0 0 0 0 .1 5.9 5.9 0 0 0-.6.7l-.8.2a2.2 2.2 0 0 0 .8.3l-.4.1a5.3 5.3 0 0 0 1.2.5 5.1 5.1 0 0 0-.8 1.2 4.8 4.8 0 0 0 .9-.3 2.7 2.7 0 0 0 .4 1.2 4.2 4.2 0 0 0 .2-.5 3.3 3.3 0 0 0 .3.5 1.5 1.5 0 0 0 .1.1 1.2 1.2 0 0 1 .2.3v-.3a1.4 1.4 0 0 0 .2 0 3.3 3.3 0 0 0 .1 1 3.8 3.8 0 0 0 .8-1 2.9 2.9 0 0 0 0 .4l-.2.1a1.7 1.7 0 0 0 .3 0 1.1 1.1 0 0 1 0 .3l.1-.2a1.6 1.6 0 0 0 .5 0 .8.8 0 0 0-.1 0l-.7.8a2.4 2.4 0 0 0 .7-.1l-.6.5a2.2 2.2 0 0 0 .9 0l-.4.2a5.5 5.5 0 0 0 1.3-.2 5.3 5.3 0 0 0-.1 1.4s1.2-1 1-1.9a1.5 1.5 0 0 0 .3-.2l.2.2v.6a2.3 2.3 0 0 0 .4-.5 3.8 3.8 0 0 0 .2.7 4.1 4.1 0 0 0 .4-.5v.1a5.8 5.8 0 0 0 .6.6v.9a2.2 2.2 0 0 0 .6-.7v.4a5.3 5.3 0 0 0 .7-1 5 5 0 0 0 1 1.1 4.5 4.5 0 0 0 0-.6 3.5 3.5 0 0 0 .3.7 3.8 3.8 0 0 0 .3-1.2 1.5 1.5 0 0 1 .3.5 4.4 4.4 0 0 0 .1-1l.4.3a4.2 4.2 0 0 0 0-.7 1.9 1.9 0 0 1 .3.5s0-.1.1-.4a2.4 2.4 0 0 0 .5-.2l-.4.7a2.2 2.2 0 0 0 .8-.4l-.2.4a5.4 5.4 0 0 0 1.2-.6 3 3 0 0 0 .4.2 4 4 0 0 0-1 .3 3.8 3.8 0 0 0 .8.5l-.4.3a3.7 3.7 0 0 1 .8 0 2.3 2.3 0 0 0-.6.5s.2 0 .6 0a2.5 2.5 0 0 0-.3.4 4.6 4.6 0 0 0-.5.2 6.3 6.3 0 0 0 .9.4 5.2 5.2 0 0 0-.4.6s0 0 .5-.2a2.5 2.5 0 0 0-.2.5s.1 0 .3-.1l.1.2a4 4 0 0 0-1.6.5 5.3 5.3 0 0 0 1.4.4 5.4 5.4 0 0 0-.7 1.1s0 0 .4-.2a2.2 2.2 0 0 0-.4.8s.3-.2.8-.4a6.1 6.1 0 0 0 .8.3 1 1 0 0 0 .2 0 4.2 4.2 0 0 0-.4.6 3.5 3.5 0 0 0 .8-.1 2.3 2.3 0 0 0-.4.6s.3 0 .6-.2l.3.1a1.3 1.3 0 0 0-.2.3c-.8.2-1.3 1.8-1.3 1.8a5.3 5.3 0 0 0 1.3-.7 5.4 5.4 0 0 0 .3 1.2s0 0 .1-.4a2.2 2.2 0 0 0 .3.8s0-.3.2-.7a2.4 2.4 0 0 0 .3.7s.1-.4.3-1a1 1 0 0 0 0-.2 1.7 1.7 0 0 0 .2.5l-.1.3a1.2 1.2 0 0 1 .2-.1l.1.2v-.2a2 2 0 0 0 .4-.1 3.8 3.8 0 0 0-.6 1 3.3 3.3 0 0 0 1-.3v.2l-.2.2a1.1 1.1 0 0 1 .4 0v.2l.1-.2a3.2 3.2 0 0 0 .6.1 3.8 3.8 0 0 0-.4.4 2.8 2.8 0 0 0 1.3 0 4.8 4.8 0 0 0 .1 1 5.3 5.3 0 0 0 .8-1.3 5.5 5.5 0 0 0 .9 1s0-.1-.1-.5a2.2 2.2 0 0 0 .6.6s0-.4-.1-.8a6 6 0 0 0 .4-.8 1.1 1.1 0 0 0 .1-.1 4.8 4.8 0 0 0 .5.5 3.1 3.1 0 0 0 0-1.2 3.8 3.8 0 0 0 .6-.4 4.2 4.2 0 0 0 .2.7 4.3 4.3 0 0 0 .3-.4 4.4 4.4 0 0 0 .5.9 1.4 1.4 0 0 1 0-.5 3.7 3.7 0 0 0 .7 1 3.9 3.9 0 0 0 .2-.7 4.4 4.4 0 0 0 .7.6 1.2 1.2 0 0 1-.1-.4 2.3 2.3 0 0 0 .6.5s0-.2 0-.4a2.3 2.3 0 0 0 .7.3s0-.1-.2-.4a2.6 2.6 0 0 0 .5.2 4.7 4.7 0 0 0 .4.5 7.4 7.4 0 0 0 0-.8 5.6 5.6 0 0 0 1 .5s0 0-.2-.4a2 2 0 0 0 .6.3 8.8 8.8 0 0 0-.8.5c.7 0 .7.2 1.8.3a4 4 0 0 0-.7 1.2s.5-.2 1.2-.5a4.3 4.3 0 0 0-.6 1s.7-.3 1.7-.6a4 4 0 0 0-.7 1.4s.6-.4 1.5-.8a8.3 8.3 0 0 0 .2 1.4 2.6 2.6 0 0 1 .5-.8 4.3 4.3 0 0 0 .2 1s.2-.3.5-.9a9.8 9.8 0 0 0 .6 1.8s0-.1.3-.8a4 4 0 0 0 .4 1.4s.2-.5.5-1.2a4.2 4.2 0 0 0 .4 1s0 0 .1-.4a7.5 7.5 0 0 0 3.4 2s-.1 0-.5-.6a3.9 3.9 0 0 0 1.4.6s-.3-.5-.7-1.3a10.3 10.3 0 0 0 .3-1.4 2.5 2.5 0 0 0 0-.3 7.2 7.2 0 0 0 1.1.5 6.6 6.6 0 0 0-.3-1.3 4.1 4.1 0 0 0 1.2.5s-.3-.4-.6-1l.2-.5a2.4 2.4 0 0 0 .4.2c.5 1.5 3.4 2 3.4 2a9.3 9.3 0 0 0-1.4-2l.7-.2v.2a1.7 1.7 0 0 1 .2-.3l.3-.1a4.6 4.6 0 0 0 .2.7s.2-.4.5-1a9.7 9.7 0 0 0 .6 1.8s0-.1.3-.8a4 4 0 0 0 .4 1.5s.2-.6.5-1.3a4.3 4.3 0 0 0 .4 1s0 0 .1-.4a7.5 7.5 0 0 0 3.4 2.1s-.1 0-.5-.7a3.9 3.9 0 0 0 1.4.6s-.3-.5-.7-1.3a11 11 0 0 0 .3-1.4 2.6 2.6 0 0 0 0-.3 7.7 7.7 0 0 0 1.1.5 6.7 6.7 0 0 0-.3-1.3 4.2 4.2 0 0 0 1.2.5s-.3-.4-.6-1l.2-.5a2.6 2.6 0 0 0 .5.2c.4 1.5 3.3 2 3.3 2a9.4 9.4 0 0 0-1.4-2 9.1 9.1 0 0 0 1.3-.5l.2.5.2-.6a4.2 4.2 0 0 0 .5 1.2s.1-.5.4-1.2a4.2 4.2 0 0 0 .4 1s0 0 .2-.4a7.5 7.5 0 0 0 3.3 2s0 0-.4-.6a3.9 3.9 0 0 0 1.4.6s-.3-.5-.8-1.3a10 10 0 0 0 .4-1.4 2.5 2.5 0 0 0 0-.3 7.7 7.7 0 0 0 1.1.5 6.6 6.6 0 0 0-.4-1.3 4 4 0 0 0 1.2.4s-.2-.3-.5-.9l.1-.5a2.1 2.1 0 0 0 .5.2 3.2 3.2 0 0 0 2 1.6l-.1.3a4.7 4.7 0 0 0 .6-.1h.3a3 3 0 0 0 .4 1 4.5 4.5 0 0 0 .2-.4 3.2 3.2 0 0 0 .3.4v.1a2.1 2.1 0 0 0 .1 0 1 1 0 0 1 .2.3v-.2a1.4 1.4 0 0 0 .2 0 3.3 3.3 0 0 0 .1 1 3.7 3.7 0 0 0 .8-1 2.7 2.7 0 0 0 0 .4l-.1.1a1.8 1.8 0 0 0 .2 0 1.2 1.2 0 0 1 0 .3l.2-.3a1.7 1.7 0 0 0 .4 0 1.1 1.1 0 0 0-.1.1l-.7.7a2.3 2.3 0 0 0 .7 0l-.6.5a2.1 2.1 0 0 0 .9-.1l-.4.3a5.4 5.4 0 0 0 1.3-.2 5.3 5.3 0 0 0-.1 1.4s1.2-1 1-2a1.5 1.5 0 0 0 .3-.1l.2.2v.6a2.3 2.3 0 0 0 .4-.6 3.8 3.8 0 0 0 .2.8 4.2 4.2 0 0 0 .4-.6l.1.2a5.2 5.2 0 0 0 .6.6v.8a2.2 2.2 0 0 0 .5-.7v.5a5.1 5.1 0 0 0 .7-1 5.3 5.3 0 0 0 1 1 4.7 4.7 0 0 0 0-.5 3.7 3.7 0 0 0 .3.7 3.8 3.8 0 0 0 .3-1.2 1.5 1.5 0 0 1 .3.4 4.3 4.3 0 0 0 .2-1l.3.3a4 4 0 0 0 0-.6 1.9 1.9 0 0 1 .3.5s0-.2.1-.4a2.4 2.4 0 0 0 .5-.2l-.4.6a2.2 2.2 0 0 0 .8-.3l-.2.4s1.7-.6 2-1.6h.3l.2.7a2.4 2.4 0 0 0 .2-.7 3.6 3.6 0 0 0 .4.7 4.1 4.1 0 0 0 .3-.7 1.3 1.3 0 0 0 0 .1c.6.4.7.3 1 .6a4.3 4.3 0 0 0-.3-1l.4.4a2.3 2.3 0 0 0-.2-.8 3.6 3.6 0 0 0 .7.4 4 4 0 0 0-.2-.7h.4l.4.5a2.3 2.3 0 0 0 0-.7 3.8 3.8 0 0 0 .6.5 4.1 4.1 0 0 0 0-.7 1.1 1.1 0 0 0 .2.1h.2v.5a3.5 3.5 0 0 0 .3-.4 1.4 1.4 0 0 1 .5.2 4.4 4.4 0 0 0-.3-.5 2.3 2.3 0 0 0 0-.3 6 6 0 0 1 .9.4s0-.2-.1-.4a2.2 2.2 0 0 0 .3-.4v.7s.7-.7.5-1.3a3.6 3.6 0 0 0 .8.2 3.8 3.8 0 0 0-.7-1 1.4 1.4 0 0 1 .5.1 4.6 4.6 0 0 0-.6-.8 4.2 4.2 0 0 0 .4 0 4.3 4.3 0 0 0-.5-.4 1.7 1.7 0 0 1 .6 0s0-.1-.2-.3v-.2h.3l.1.4a2.6 2.6 0 0 0 .2-.5h.1v.1l.2-.2a1.3 1.3 0 0 0 .3-.1 5.7 5.7 0 0 0 0 .9 5 5 0 0 0 .8-.7 3.2 3.2 0 0 0 .1 1s.2-.3.4-.8h.4a1.7 1.7 0 0 0 0 .4c-.7.8 0 3 0 3a6.8 6.8 0 0 0 .8-1.8 7.3 7.3 0 0 0 1.3 1.2s0-.1-.2-.6a3 3 0 0 0 1 .7s-.2-.4-.3-1a3 3 0 0 0 .6.5l-.1.5a2.4 2.4 0 0 1 .6-.5 5.4 5.4 0 0 0-.2.8l.5-.2a5.8 5.8 0 0 0-.1 1.3 2 2 0 0 1 .5-.4 5.1 5.1 0 0 0 0 1.6 4.4 4.4 0 0 0 .9-1 1.8 1.8 0 0 0 .2.1l-.2.4a1.4 1.4 0 0 1 .4-.2l.3.2v-.2a3.8 3.8 0 0 0 .6-.2 5.2 5.2 0 0 0-.2.7 3.8 3.8 0 0 0 1.5-.9 6.6 6.6 0 0 0 .7 1 7 7 0 0 0 .2-1.8 7.3 7.3 0 0 0 1.6.5s0 0-.4-.5a3 3 0 0 0 1.1.4l-.6-1a8 8 0 0 0 .1-1 1.5 1.5 0 0 0 0-.3 5.6 5.6 0 0 0 .9.3 5 5 0 0 0-.4-1 3 3 0 0 0 1 .3l-.6-.7.1-.3a1.8 1.8 0 0 0 .4 0c.5 1.1 2.7 1.3 2.7 1.3a7.1 7.1 0 0 0-1.3-1.5 7.2 7.2 0 0 0 1.6-.7s0 0-.6-.1a3 3 0 0 0 1-.5s-.4 0-1-.2a3.2 3.2 0 0 0 .6-.3l.5.2a2.5 2.5 0 0 1-.3-.8 6.1 6.1 0 0 0 .7.5 5.4 5.4 0 0 0 0-.5 5.8 5.8 0 0 0 1.2.6 2 2 0 0 1-.3-.6 5 5 0 0 0 1.5.6 4.6 4.6 0 0 0-.5-1.2 6.2 6.2 0 0 0 .7 0c-.4-.2-.4-.3-.9-.8a3.1 3.1 0 0 0 .4 0s-.3-.3-.7-.7a2.6 2.6 0 0 0 .7-.1 6.2 6.2 0 0 0 1 .4 7.2 7.2 0 0 0-1-1.7 7.2 7.2 0 0 0 1.8-.4s0 0-.6-.2a2.9 2.9 0 0 0 1.1-.3s-.4-.1-1-.4a8.1 8.1 0 0 0-.5-1 2.2 2.2 0 0 0-.1-.2 5.8 5.8 0 0 0 .9-.2 5.1 5.1 0 0 0-.8-.7 3 3 0 0 0 .9-.2s-.3-.1-.8-.3l-.1-.4a1.6 1.6 0 0 0 .4-.1c1 .6 3-.4 3-.4a6.8 6.8 0 0 0-1.9-.5 7.3 7.3 0 0 0 1-1.5l-.7.2a3 3 0 0 0 .7-1s-.4.2-1 .4a3 3 0 0 0 .4-.6h.5a2.6 2.6 0 0 1-.6-.5 5.7 5.7 0 0 0 .8 0 5.6 5.6 0 0 0-.3-.4 6 6 0 0 0 1.4-.1 2 2 0 0 1-.6-.4h.1v.1l.1-.1a3 3 0 0 0 .3 0 4.4 4.4 0 0 0 .4.7s0-.3.3-.8h.2a4.6 4.6 0 0 0 .3.7s0-.2.2-.5a7.5 7.5 0 0 0 3.3 2s0 0-.4-.6a3.9 3.9 0 0 0 1.3.6s-.3-.5-.7-1.3a10.9 10.9 0 0 0 .4-1.4 2.5 2.5 0 0 0 0-.3 7.8 7.8 0 0 0 1 .5 6.8 6.8 0 0 0-.3-1.3 4.1 4.1 0 0 0 1.2.5s-.2-.4-.5-1l.1-.5a2.3 2.3 0 0 0 .5.2c.5 1.5 3.4 2 3.4 2a9.3 9.3 0 0 0-1.5-2 9.5 9.5 0 0 0 2.2-.9s-.1 0-.8-.2a3.9 3.9 0 0 0 1.4-.5s-.5-.1-1.3-.3a4.2 4.2 0 0 0 1.1-.5s-.7-.2-1.7-.5a1.5 1.5 0 0 0-.3 0 3 3 0 0 0 .8-.4l.5.2a2 2 0 0 1-.2-.4l.3-.2h-.4a5.1 5.1 0 0 0-.2-.6 6.7 6.7 0 0 0 2 .8 5.8 5.8 0 0 0-.8-1.7l.3-.1.3.4a2 2 0 0 1 0-.6 3.6 3.6 0 0 0 .4-.2s-.1 0-.3 0a5.6 5.6 0 0 0 0-1 7.5 7.5 0 0 0 .8.5Zm-16.4-43.1Zm-13.9 29.3-.1-.4a4.5 4.5 0 0 0 .4 0v.2a2.5 2.5 0 0 0-.3.2Zm-3.1-5a1.1 1.1 0 0 0-.2-.3l.3-.1.6.2a2.4 2.4 0 0 0-.4-.6 3.8 3.8 0 0 0 .8.1s0-.1-.1-.2a2.3 2.3 0 0 0 .3.4l-.7-.2a2.2 2.2 0 0 0 .5.7l-.5-.2a5.3 5.3 0 0 0 .8 1 4.6 4.6 0 0 0-.4.2c-.2-.5-.6-1-1-1Zm-1.8 4.5Zm-42 25h.3l-.1.3-.1-.3ZM41.4 75.6a2.5 2.5 0 0 0 .4 0 1.5 1.5 0 0 1-.3.3l-.1-.3Zm45.7-35a.2.2 0 0 1 0-.1Zm18.4 24.3a.8.8 0 0 0 .2 0l.2.1v.4a2 2 0 0 1 0 .2 2.7 2.7 0 0 0-.4-.6V65ZM72.2 87.1a6.6 6.6 0 0 0-1.5-1.5 5.9 5.9 0 0 0 .1 1.9h-.3l-.2-.5a2 2 0 0 1-.2.6 3.9 3.9 0 0 0-.4 0s.1.1.3.2a5.8 5.8 0 0 0-.4.9 7.3 7.3 0 0 0-.5-.8 7 7 0 0 0-.4 1 5.9 5.9 0 0 0-.9-1.2l.1-.2a6.5 6.5 0 0 1 .8.4s0-.2-.1-.4a2.4 2.4 0 0 0 .3-.4v.7s.8-.7.5-1.2a3.6 3.6 0 0 0 .8.1 3.8 3.8 0 0 0-.6-1 1.5 1.5 0 0 1 .5.1 4.3 4.3 0 0 0-.7-.7l.4-.1a4.3 4.3 0 0 0-.4-.4 1.8 1.8 0 0 1 .6 0s-.1-.1-.3-.3a2.3 2.3 0 0 0 .2-.5l.2.7a2.2 2.2 0 0 0 .3-.8l.1.4A5.4 5.4 0 0 0 71 83a4.5 4.5 0 0 0 .3.2l-.2.2a2.2 2.2 0 0 1 .5 0 6.4 6.4 0 0 0 .6.3s0 0 0-.2a6.4 6.4 0 0 0 .7.1 4 4 0 0 0-.7 1.2s.5-.2 1.2-.4a4.2 4.2 0 0 0-.6 1s.7-.3 1.7-.6a4 4 0 0 0-.7 1.3s.6-.3 1.5-.7a8.1 8.1 0 0 0 .2 1.2 9.5 9.5 0 0 0-1.2-.7s.1.2.7 1.8a4 4 0 0 0-1-.4l-.3-.5a7.4 7.4 0 0 0-.2.8 7.6 7.6 0 0 0-1.2-1.3 2.6 2.6 0 0 1 0 .9ZM67 88a1.2 1.2 0 0 0 .2 0h.2a5.2 5.2 0 0 0 0 1 5 5 0 0 0-.7-.5v-.1l.3.3a4.3 4.3 0 0 0 0-.7Zm3.8-26.8a3.8 3.8 0 0 0-.2-.4 1.5 1.5 0 0 1 .2 0l.1.3Zm8.8-12.3a1.1 1.1 0 0 0 .2 0 4 4 0 0 0 .7-.3 5 5 0 0 0 .2.7 4.4 4.4 0 0 0-.8 0 4.1 4.1 0 0 0-.3-.4ZM90 36v-.1Zm0 .8a2.8 2.8 0 0 0-.4.2l.1-.4.4.2Zm2.8 31.5h-.3v-.3a1 1 0 0 0 0-.4 1.4 1.4 0 0 0 .2-.2 4 4 0 0 0 0 .9ZM87 71.4a8 8 0 0 0 1-1.3 7.5 7.5 0 0 1-1.5.3 6.4 6.4 0 0 0-.6-1.8l.8-.4-.8-.2a4 4 0 0 0 1.4-.5s-.5-.1-1.3-.4a4.2 4.2 0 0 0 1.1-.4s-.7-.2-1.7-.5a1.8 1.8 0 0 0-.3-.1 2.9 2.9 0 0 0 .8-.3l.5.2a2 2 0 0 1-.2-.4 3.2 3.2 0 0 0 .3-.2s-.2 0-.4 0a4.8 4.8 0 0 0-.2-.7 4.5 4.5 0 0 0 .5.3l-.1.2h.3a6.7 6.7 0 0 0 .7.2 3.5 3.5 0 0 0 .3.7 3.8 3.8 0 0 0 .2-.5 2.9 2.9 0 0 0 .3.5 1.5 1.5 0 0 0 .1.1 1 1 0 0 1 .2.3v-.3a1.5 1.5 0 0 0 .2 0 3.3 3.3 0 0 0 .1 1 3.8 3.8 0 0 0 .8-1 2.8 2.8 0 0 0 0 .4l-.1.2a1.8 1.8 0 0 0 .2 0 1.3 1.3 0 0 1 0 .2 2.9 2.9 0 0 0 .1-.2 1.8 1.8 0 0 0 .5 0 .9.9 0 0 0-.1 0l-.7.8a2.5 2.5 0 0 0 .7 0l-.6.4a2.2 2.2 0 0 0 .9 0l-.4.2a5.4 5.4 0 0 0 1.3-.2v.5a3.7 3.7 0 0 0-.5 1.6 6.7 6.7 0 0 0-1.2-.2 7 7 0 0 0 1.3 1.4 7.1 7.1 0 0 0-1.6.9s0 0 .7 0a2.4 2.4 0 0 0-.7.3 6.1 6.1 0 0 0-.6-.3 2.2 2.2 0 0 0-.3 0 7.3 7.3 0 0 0 .8-1 5.2 5.2 0 0 0-2.2.2Zm-13.4 7.4.3.4a2.2 2.2 0 0 0-.4.3 1.7 1.7 0 0 0-.6 0 4.9 4.9 0 0 0-.3-.5 4.6 4.6 0 0 0 .9-.2h.1Zm-1.5 3.4v.3l-.4.2a1.7 1.7 0 0 0-1-1 1.2 1.2 0 0 0-.1-.2h.3c.3 0 .5.2.5.2a2.6 2.6 0 0 0-.2-.5h.6l.7-.1-.2.6a8 8 0 0 0-.5.2l.3.3ZM69 86.4Zm10.2-37a2.8 2.8 0 0 0 .2 0 5 5 0 0 0 .6.5 2.2 2.2 0 0 0-.6.7 1.1 1.1 0 0 0-.5-.3 1.3 1.3 0 0 0-.2-.3l.3-.1.6.2a2.4 2.4 0 0 0-.4-.6Zm6 19.5.5-.2a7 7 0 0 0-.3.7 4.9 4.9 0 0 0-.1-.5Zm-11.5 9a3.6 3.6 0 0 0-.4.3 1.8 1.8 0 0 0-.2-.4 5.2 5.2 0 0 0 .6.2Zm-.6-6.2a.8.8 0 0 0-.2 0h.2Zm0-.6Zm2.8 15.2-.2-.1.2-.4a3.8 3.8 0 0 0 0 .5Zm3.9-35.5Zm-.7.6v.2-.2Zm-1 1.1Zm-2.5 33.8.3.6-.4-.3a1.8 1.8 0 0 1 0-.3Zm.8.2.2-.5a3.8 3.8 0 0 0-.1.5h-.1Zm13.5-11.2a8 8 0 0 0 .7-.8 4.5 4.5 0 0 0 .6.2 3 3 0 0 0-.8.5s.3 0 .8.1l.2.3a1.7 1.7 0 0 0-.2.2 7.8 7.8 0 0 0-1.3-.5Zm.9-1.6h-.2a1.9 1.9 0 0 0 .1 0Zm-.7-.8Zm1.6-3.9Zm2-1.2v.1ZM71.3 61a1.3 1.3 0 0 0 0-.1v.1Zm-1 4.7-.5.3.4.2v.3l-.2.1a1.1 1.1 0 0 1 0-.2s0 .1-.2.3a2.3 2.3 0 0 0-.6 0l.7-.4a2.2 2.2 0 0 0-.9-.1l.5-.3a5.5 5.5 0 0 0-1.3 0 4 4 0 0 0 .3-.7 8.3 8.3 0 0 0 2 0l-.2.5ZM88 39.5a2.7 2.7 0 0 1 .6 0l-.1.5a4.2 4.2 0 0 0-.5-.5Zm.8.6a1.7 1.7 0 0 0 0 .3l-.2-.1.2-.2Zm-.1-.7L88 39a5.6 5.6 0 0 0 .7 0l-.2.5ZM88 38a6.2 6.2 0 0 0-.5-.4 3 3 0 0 1 1 0s-.2-.1-.4-.4a3.8 3.8 0 0 0 .2-.8l.4 1.1a3.7 3.7 0 0 0 .4-1.2l.2.6c-.2 0-.3.2-.3.2l.8.1.2.4a1.6 1.6 0 0 0-.3.2 2.2 2.2 0 0 0-1.7.2Zm2.5 3.8h-.2.2ZM49.3 64.6h-.2a1.8 1.8 0 0 0 .2-.4v.4Zm-.5-.4V64Zm15 25.5v.5a3 3 0 0 0-.5-.3 2.2 2.2 0 0 0 .2-.6 3.6 3.6 0 0 0 .2.4Zm-1 0-.1-.2a1.4 1.4 0 0 0 0-.2l.3.1.2.5a6 6 0 0 0-.3-.1Zm.1-25.5a1.8 1.8 0 0 0-.2.2l.1-.3a1.1 1.1 0 0 0 .1 0Zm-10.8.7.2-.4a.5.5 0 0 0 .1.1 1.1 1.1 0 0 0 0 .3h-.2Zm10.3 25v.2h-.1v-.2ZM50 66.1l-.4-.3A5.3 5.3 0 0 0 50 67a4 4 0 0 0-.4 0l-.1-.7a2.4 2.4 0 0 0-.3.5 4.2 4.2 0 0 0-.4-.7l-.1-.2a5.7 5.7 0 0 0 .9-.2 5.1 5.1 0 0 0-.8-.7 3 3 0 0 0 .9-.2s-.1 0-.3-.1a5.2 5.2 0 0 0 .4-.5 2.7 2.7 0 0 0 .7 0 7 7 0 0 0 .6.6 5.3 5.3 0 0 0 0-.8 4.4 4.4 0 0 0 .4-.1l.2.4a3 3 0 0 0 .1-.3l.3.9-.4-.3a2.3 2.3 0 0 0 .2.7 3.7 3.7 0 0 0-.7-.3 4.3 4.3 0 0 0 .2.6h-.2a6.1 6.1 0 0 0-.8.1l-.7-.5a2.2 2.2 0 0 0 .3.9Zm1.4 23.8a1.7 1.7 0 0 0 .5-.1 1.1 1.1 0 0 0-.2.1l-.2.3-.2-.2V90Zm13.5-26v.1a1 1 0 0 0 0 .1V64Zm.4.5a6.5 6.5 0 0 0 .8.5 5 5 0 0 0-.3-1 2.2 2.2 0 0 0 .8-.1 2 2 0 0 0 .2 0s0 0 .1 0a1.5 1.5 0 0 1 .6 0s-.1-.1-.3-.3h.1a3.5 3.5 0 0 0 .8.6A4 4 0 0 0 68 63a1.5 1.5 0 0 1 .4.3 4.8 4.8 0 0 0-.1-.8 4.5 4.5 0 0 0 .6.3 4.6 4.6 0 0 0-.2-.7 1.9 1.9 0 0 1 .5.4 3.8 3.8 0 0 0 0-.4 2.5 2.5 0 0 0 .4-.4l-.1.8s.8-.6.7-1.2h.3l-.2.3a6.5 6.5 0 0 0 1.3.4 4.1 4.1 0 0 0-1.1.7s.4 0 1 .1l.4.4a2.2 2.2 0 0 0-.4.3c-1-.3-2.2.5-3 1 0 0-1.4.7-1.5 1.5a1.4 1.4 0 0 0-.2.2l-.2-.2.2-.6a2.3 2.3 0 0 0-.6.4 3.7 3.7 0 0 0 0-.8 4.3 4.3 0 0 0-.5.5 1.2 1.2 0 0 0 0-.2 5.9 5.9 0 0 0-.4-.8Zm44.8-6.8a1.6 1.6 0 0 0 .1-.1v.1ZM93.7 15.7a5.6 5.6 0 0 0 .8-.9 6.3 6.3 0 0 0 .6 1.4 6.2 6.2 0 0 0-1 0 6.3 6.3 0 0 0-.6-.3 2.2 2.2 0 0 0 .2-.2Zm-11.6 28 .6.8a3.8 3.8 0 0 0 0-1.1 6.2 6.2 0 0 0 1 .8 6.7 6.7 0 0 0 0-1.1 1.5 1.5 0 0 0 .3 0l.3.2.2.6.3-.5a2.3 2.3 0 0 1 .8.2 7.4 7.4 0 0 0-.5-.8l.1-.4c.8.3 1 .2 1.4.5l-.3-.5a3.5 3.5 0 0 0 .5-.8L87 43s1.2-1.2.8-2a5.4 5.4 0 0 0 .7 0v.3l.3-.2h.3l-.1-.1.3-.2a3.2 3.2 0 0 0-.3.8l1.1-.7a1 1 0 0 0 .2-.1 2.4 2.4 0 0 0-.2.6l-.3.1a1.6 1.6 0 0 1 .3.1 2.6 2.6 0 0 0 0 .3l.2-.2a2 2 0 0 0 0 .3 5 5 0 0 0-.2.1h-.4l.1.2-.5.3h.2l-.6.2-.6-.5a2.2 2.2 0 0 0 .2.8l-.3-.3a5.3 5.3 0 0 0 .4 1.2 3.2 3.2 0 0 0-.5 0v-.6a2.2 2.2 0 0 0-.5.7v-.5a4.9 4.9 0 0 0-.3.5H87h.1a4.2 4.2 0 0 0-.3.7 5.3 5.3 0 0 0-1-1 5.2 5.2 0 0 0 .1.8 2 2 0 0 0-.3.5l-.3-.7a2.2 2.2 0 0 0 0 .3l-.5-.8a4.7 4.7 0 0 0-.1.4 3.4 3.4 0 0 0-.8-.6 3.7 3.7 0 0 0 .2 1.2 1.5 1.5 0 0 1-.4-.3 4.6 4.6 0 0 0 .1.8v.1h-.3v.6a5.2 5.2 0 0 0-1-1s0 1.6.7 2a1.2 1.2 0 0 0 0 .4H83l-.5-.4a2.3 2.3 0 0 0 .1.7 3.8 3.8 0 0 0-.7-.3 4.2 4.2 0 0 0 .2.6 1 1 0 0 0-.2 0 3.7 3.7 0 0 0-.7 0 5.5 5.5 0 0 0-.7-.9 5.5 5.5 0 0 0 1.4-.5 5.2 5.2 0 0 0-1-.3 2.4 2.4 0 0 0 .3-.8 2.3 2.3 0 0 0 .1-.3h.2v-.1a1.2 1.2 0 0 1 .1-.3s0 0-.3 0v-.1l.2-.1.3.1v-.2a4.2 4.2 0 0 0 .4-.3 4.4 4.4 0 0 0-.6-.2v-.4l.5.1Zm-38.6-20a.9.9 0 0 0 .1.3 1.2 1.2 0 0 0-.1.2l-.3-.1-.1-.4h.4Zm-16 13.1a2.2 2.2 0 0 0 .3.5 7 7 0 0 1-.4 0l-.2-.7a3.6 3.6 0 0 0 .4.2ZM17.3 68.6a2.2 2.2 0 0 0 .3.2 9 9 0 0 1-.3-.2Zm21.6 15.3Zm6 20.2c-.4 0-.6.2-.6.2l.4.2v.4l-.3.1-.2-.4a3 3 0 0 0 0-.6.8.8 0 0 0 0-.2 4.1 4.1 0 0 0 .6.2 3.9 3.9 0 0 0-.2-.5h.5a6.4 6.4 0 0 0-.3.6Zm6-12.8-.3-.5a7.6 7.6 0 0 0-.3.8 7.6 7.6 0 0 0-1.2-1.3 2.6 2.6 0 0 1 0 .9 5.5 5.5 0 0 0-.9-1 5.2 5.2 0 0 0 .4-.4 1.4 1.4 0 0 1-.5 0 3.9 3.9 0 0 0 .8-.8 3.4 3.4 0 0 0-1 0 4.8 4.8 0 0 0 .3-.5c-.3.3-.4.2-.9.4l.1-.3-.6.4a2.1 2.1 0 0 0 0-.6 4.6 4.6 0 0 0 .6-.5 5.2 5.2 0 0 0-1.4.1 5.5 5.5 0 0 0 .1-1.3l-.3.4a2.2 2.2 0 0 0 .2-.9l-.6.6a6 6 0 0 0-.9.1h-.2a4.3 4.3 0 0 0 .1-.7 4.1 4.1 0 0 0-.6.5 2.4 2.4 0 0 0 0-.8s-.1.2-.4.5H43a1.2 1.2 0 0 0 0-.3c.8-.5.6-2.2.6-2.2a5.2 5.2 0 0 0-.9 1.1 5.3 5.3 0 0 0-.8-1s0 0 0 .7a2 2 0 0 0-.9-.5s.2.3.4.7a2.4 2.4 0 0 0-.5-.3l-.1-.3a1.8 1.8 0 0 1-.3.5 4.4 4.4 0 0 0 0-.7 6 6 0 0 0-.4.3 4.3 4.3 0 0 0-.2-1 1.4 1.4 0 0 1-.2.4 3.8 3.8 0 0 0-.3-1.1 3.7 3.7 0 0 0-.5.7 1 1 0 0 0-.6-.4 5.2 5.2 0 0 0 1.2-.4 4.5 4.5 0 0 0-.7-.3 2.1 2.1 0 0 0-.3-.5l.8.1a2.4 2.4 0 0 0-.2-.2 6.2 6.2 0 0 1 .9 0 4.7 4.7 0 0 0-.4-.3 3.6 3.6 0 0 0 1-.4 3.8 3.8 0 0 0-1.2-.4 1.4 1.4 0 0 1 .5-.2 4.1 4.1 0 0 0-1-.3l.4-.3a4.1 4.1 0 0 0-.6-.2 1.8 1.8 0 0 1 .5-.2s-.1 0-.4-.1a2.6 2.6 0 0 0 0-.4v-.1l.5.4a2.2 2.2 0 0 0-.2-.8l.3.3a5.5 5.5 0 0 0-.1-.7 7.8 7.8 0 0 0 1.1.3s0 0-.4-.5a3 3 0 0 0 1.1.4l-.6-1a7.5 7.5 0 0 0 .1-1 2.1 2.1 0 0 0 0-.3 5.8 5.8 0 0 0 .9.3l-.1-.3a4.4 4.4 0 0 0 1 0l-.3.4a4.3 4.3 0 0 0 .7-.1 1.8 1.8 0 0 1-.4.4s.1 0 .3 0a2.2 2.2 0 0 0 .4.4c-.5 0-.8-.2-.8-.2a2.3 2.3 0 0 0 .5.7l-.4-.2a5.4 5.4 0 0 0 .8 1 5.1 5.1 0 0 0-1.3.6s1.5.7 2.2.1a1.2 1.2 0 0 0 .3 0l-.1.3-.6.3a2.4 2.4 0 0 0 .8.1 3.8 3.8 0 0 0-.6.6 4.3 4.3 0 0 0 .7 0l-.1.2a6 6 0 0 0-.3.8l-.7.4a2.2 2.2 0 0 0 .8.1l-.4.2a5.4 5.4 0 0 0 1.3.2 5.3 5.3 0 0 0-.6 1.3 5 5 0 0 0 .8-.4 2 2 0 0 0 .6.1l-.3.3a2.3 2.3 0 0 0 .8 0 1 1 0 0 1-.3.2 4.6 4.6 0 0 0 1 0 4.3 4.3 0 0 0-.3.6 3.9 3.9 0 0 0 1-.4 1.5 1.5 0 0 1-.1.4 4.4 4.4 0 0 0 .9-.4v.4a3.9 3.9 0 0 0 .3-.2v.3a3.1 3.1 0 0 0-1 .5 4.5 4.5 0 0 0 .6.3.7.7 0 0 0-.1 0 5.6 5.6 0 0 0-.5.8l-.8.2a2.2 2.2 0 0 0 .8.3l-.5.1a5.3 5.3 0 0 0 1.2.5 5.1 5.1 0 0 0-.8 1.1 4.8 4.8 0 0 0 1-.2 2.7 2.7 0 0 0 .4 1.2 3.7 3.7 0 0 0 .2-.5 3 3 0 0 0 .3.5h-.1a2 2 0 0 0 .2 0 1.3 1.3 0 0 1 .1.4l.1-.3a1.5 1.5 0 0 0 .2 0 3.2 3.2 0 0 0 0 1 3.7 3.7 0 0 0 .8-1 2.7 2.7 0 0 0 0 .4l-.1.1a1.7 1.7 0 0 0 .2 0v.2h-.1l.2.4-.3.2a2.8 2.8 0 0 0 .4 0v.2l-.2.3a2.6 2.6 0 0 0 .3 0l.3.6a4 4 0 0 0-1-.4ZM65.2 89a1.8 1.8 0 0 0-.1-.3 4 4 0 0 0 .4.2v.2l-.3-.1ZM83 104.1v.1Zm20.4-.6Zm6.5-39.8.3.6a3 3 0 0 0-1-.5s.2.3.5 1a7.4 7.4 0 0 0-.3 1 1.7 1.7 0 0 0 0 .3 5.7 5.7 0 0 0-.8-.4 4.1 4.1 0 0 0 .4 1.4l-.2.4a6 6 0 0 0-.1-.6l-.4.4a5.8 5.8 0 0 0-.4-1.3 2 2 0 0 1-.3.6 5.1 5.1 0 0 0-.6-1.4 5.2 5.2 0 0 0-.4.8 5.4 5.4 0 0 0-.6-.7V65a1.4 1.4 0 0 1 .6.1 4.5 4.5 0 0 0-.3-.5v-.2a6 6 0 0 1 .9.3s0-.1-.2-.3a2.2 2.2 0 0 0 .4-.5v.8s.7-.7.5-1.3a3.8 3.8 0 0 0 .8.2 3.8 3.8 0 0 0-.7-1 1.4 1.4 0 0 1 .5 0 4.3 4.3 0 0 0-.6-.7 4.3 4.3 0 0 0 .4 0 4.2 4.2 0 0 0-.5-.5 1.8 1.8 0 0 1 .6 0s0 0-.2-.2a2.4 2.4 0 0 0 .1-.6l.3.7a2.2 2.2 0 0 0 .2-.8l.2.5a5.3 5.3 0 0 0 .3-1.3 4 4 0 0 0 .4.3l-.3.1a5.2 5.2 0 0 0 1 .3h.2a1.5 1.5 0 0 0 1-.2 1.2 1.2 0 0 0 .3 0v.3l-.6.3a2.5 2.5 0 0 0 .7.1 4 4 0 0 0-.6.5 4 4 0 0 0 .7.1 1.2 1.2 0 0 0 0 .2 5.7 5.7 0 0 0-.4.8l-.7.4a2.5 2.5 0 0 0 .7 0v.2h-.3l.2.1a6 6 0 0 0-.1 1.2 7.3 7.3 0 0 0-1.6-.8Zm20.3 22a.2.2 0 0 0 0 .1Zm7-17.8v.2-.2Z"/><path fill="#73bf44" d="M66.6 100c20.3 0 39.7-17.9 38.7-38.8-.9-21-17-38.7-38.7-38.7C46.4 22.5 27 40.3 28 61.2c1 21 17 38.7 38.7 38.7Z"/><path fill="#73bf44" d="M76.7 98.2c20.3 0 39.6-17.8 38.7-38.7-1-21-17-38.7-38.7-38.7-20.2 0-39.6 17.8-38.7 38.7 1 21 17 38.7 38.7 38.7Z"/></svg>