<svg xmlns="http://www.w3.org/2000/svg" viewBox="0 0 150 150"><path fill="#73bf44" d="m91.8 125.8.2-.7c-.2-.1-.4.2-.6 0-.1-.3.3-.3.2-.6-.2-.9-.2-1.8-1.2-2.2h-.3a3.8 3.8 0 0 1-1.4 1.1c-.2.1 0 .3 0 .4-.2.3.1.8-.5.9-.6 0-.9-.2-1-.8a1.6 1.6 0 0 0-.6-1.1 5.8 5.8 0 0 0 .6 2.5c0 .3.4.5.1.7-.2.2-.6 0-.8-.2a17.3 17.3 0 0 0-2.3-1.9c-.4-.2-.5-.7-1.2-.4l-.4-.8a4.2 4.2 0 0 0-1.2-2.2c-.2-.2-.5-.5-.2-.8a1.6 1.6 0 0 0 .2-1.7c-.3.1-.1.4-.2.6a3 3 0 0 1-.5.5c-.3-.3-.2-.6-.2-.9 0-.3 0-.5-.3-.5-.5 0-.4.1-.3.4.2.3-.3.4-.4.4-.3-.2-.7-.1-.7-.6a2.2 2.2 0 0 1 .1-.4c-.6.3-1.5.3-2 1 .6.1 1 .3.7 1-.1.6.4.8.8 1a24 24 0 0 1 3.5 2.7c-.2.3-.4.1-.5 0a2.5 2.5 0 0 0-1.4-.5 2.5 2.5 0 0 1-1.7-1c-.5-.8-1-.2-1.3 0-.5.1 0 .5 0 .8a2.1 2.1 0 0 0 .1.3c-.6.4-.8-.8-1.4-.4-.4.3-1 .2-1.4.6 0 .3 1-.1.3.5-.2.2.2.3.3.6.2.8-.5.7-.5.6-.7-.5-1.6-.2-2.4-.5a1.9 1.9 0 0 1 .4 2.2c-.2.5-.4.6-1 .4-.3 0-.4 0-.4.5v2.5c0 3.7.7 7.4.9 11 .2 2.7.6 5.2 1 7.8.1 1.2 0 1.2-1.2 1.2h-7c-.8 0-1-.1-1-1 1-5.4 1-11 1.7-16.5a46 46 0 0 0 .3-7.3c0-.3 0-.5-.3-.5-.6 0-.4-.5-.3-.8a4.3 4.3 0 0 1 .4-1c.1-.3.2-.5-.2-.6-.2-.1-.6-.2-.3.3a2.5 2.5 0 0 1-1.2 0c-1-.3-.2-.5 0-.7-.3 0-1 .5-.7-.4.2-.5-.4-.2-.7-.5v.3c-.1.1 0 .3-.3.2-.7-.1-1 0-1 .5a14.9 14.9 0 0 0-.6 3.3 1 1 0 0 1-.8.8c-.3 0-.4.4-.6.3-.2-.3.2-.6 0-.9-.2 0-.3.4-.6.4-.3-.2.3-.5 0-.6-.3-.1-.9-.3-1-.2-.5.4-.3 0-.4-.2-.3-.4 0-.8.2-1.1.2-.6.7-1 .8-1.8v-.7c.3-.4-.1-.5-.3-.4-.4.4-1 0-1.4.3-.2-.3.1-.5.1-.8-.2 0-.7.8-.8-.1 0-.2-.2-.2-.3-.1-.5.5-1.2.5-1.8.8-.2-.2 0-.5-.2-.7-.5.3-1 .8-1.6.5a.2.2 0 0 0-.3.2.6.6 0 0 0 .3.5 1.8 1.8 0 0 1 1 1.1v.5c-.3-.2-.4.4-.6 0a.4.4 0 0 0-.3 0c-.3 0-.6-.5-.9-.2-.1.2 0 .6.1.9a1.4 1.4 0 0 1 0 .4c0 .2.2.6-.2.6-.3 0-.3-.3-.3-.6a11.6 11.6 0 0 0-.5-2c-.4 1 .1 1.9-.3 2.8a6.4 6.4 0 0 1-.4-2.3 1.5 1.5 0 0 0-.7-1.3c-.3-.2-.4-.6-.5-1a.5.5 0 0 0-.6-.2c-.2 0-.2.2-.2.5a3.9 3.9 0 0 0 0 1c.1 1.2-.5 2.3-.4 3.4v.8c0 .6-.1.7-.7.3l.3.7a1.2 1.2 0 0 0-1.2.2c-.1-.4.2-.6.1-.8-.3 0-.3.3-.7.2-.1-.3.2-.4.3-.7l-.6.1c-.1-.5.3-.6.5-.8-1 0-1.7-.3-1.6-.9-.3.8-1 .3-1.5.8-.2.1-.1.8-.6.5-.2-.2-1 .5-.7-.4 0-.3-.5 0-.7-.2 0-.4.5-.3.7-.6-.5-.1-1 .3-1.5-.2-.2-.3 0-.6.2-1-.5.5-.8.2-1-.1-.3 0 .5.8-.3.4-.3-.1-.4.2-.6.3-.6.4-.8.2-1-.5a5.3 5.3 0 0 1 0-2.5 4.3 4.3 0 0 0-.6-2 1.6 1.6 0 0 0-1.2.2c-.8.7-1.7.3-2.6.2a1.3 1.3 0 0 0-.8.2c-.3-.3 0-.5 0-.9-.4.3-.7.4-1 0h-.3c0 1-.8 0-1 .6-.1-.4.1-.6 0-.8-.1 0-.3.4-.4.2-.2-.5-.3-1-1-.9.2-.6-.2-.5-.5-.3l-.2-.1c-.5-.7-.6-.6-1.1 0-.2.2-.5.7-.8.5-.1-.1-1 0-.4-.7-.4-.2-.7-.8-1.2-.2-.3-.3 0-.5 0-.7 0 0-.1-.1-.1 0-.4.2-.7.3-.9-.3 0-.2 0-.1-.4 0-.4.2-.8-.1-1.1.3-.3-.4 0-.5 0-.7 0-.3-.7.4-.7-.4 0-.2-.2 0-.3 0-.7.4-1-.3-1.4-.6-.1-.1 0-.5-.4-.3-.2 0-.7 0-.6.5l-.1.3c-.7-.1-1.1.4-1.7.4l.3.5c-.4 0-.8-.1-1 .2-.3-.4.2-.5.1-.8-.3 0-.5.3-.9.1.1-.4.5-.3.8-.6a1.2 1.2 0 0 0-1.3.5 2 2 0 0 1-1.8 1c-.2-.2.1-.4 0-.6-.2 0-.5.6-.8.2a2.8 2.8 0 0 1-.4-1c-.1-.6.2-1.1 0-1.7-.6.2-1 .7-1.4 1-.7.3-1 0-1.3-.7-.2-.4.2-.9-.1-1.3l.2-.1c.7-.3.7-1.1 1.2-1.5l-.2-.4c-.5 0-.3-.4-.3-.8a2.9 2.9 0 0 1-2.6.5c-.1 0-.2-.1-.2-.3a.8.8 0 0 1 .7-.7 13.5 13.5 0 0 0 2-.5c.3 0 .6-.1.5-.4l-.4-.3c-.4-.2-1-.2-1-.8l-.5.2c-.3 0 .6-.8-.3-.5-.2 0 0-.5-.2-.7-.1-.1 1.3-1 1.3-1 0 .8.6.2.8.4a.7.7 0 0 0 1-.3c.2-.4.5-.8.2-1.4a2.6 2.6 0 0 1-.3-2c0-.1-.5-.4-.4-.8l.1-.4.5.1 1.4 1c.1 0 .4.2.6 0a2 2 0 0 0 .2-.6c.2-.7-.6-1.2-.2-1.8 0-.2-.1-.1-.2-.1-.4 0-.6-.5-.5-.6.3-1-.4-.6-.7-.6-.5 0-1.3.5-1.2-.6l-.4-.2c.4-.3.6 0 .9-.1-.1-.3-.8-.5 0-.7.3-.2 1.1-.3.9-.8-.3-.7-.8-.2-1.2 0-.2.1-.4 0-.6.2-.2-.3-.6 0-.6-.1.1-.4-.3-.7.1-1 .2 0 .3 0 .2-.3 0-.8 0-.8-.8-.7l-1 .2-.2-.1 2.4-.6a1.7 1.7 0 0 1-1.2-.6c.4-.2-.5-1 .6-.9-.5-.1-.7-.5-1.1-.2-.1 0-.5 0-.6-.2-.2-.2.2-.2.2-.4-.1-.1-.3 0-.4 0-.3 0-.7.4-.9 0-.1-.3-.6-.7-.2-1.2a.8.8 0 0 0 .1-1 .4.4 0 0 1 0-.5 1.6 1.6 0 0 0 .2-1.5c0 .4-.1.5-.5.4-.3 0-.1.5-.5.4-.3-.3 0-.7 0-1-.4.2-.2.7-.6.8-.4-.2 0-.6-.2-.8l-.6.4a5 5 0 0 0 0-1.3s.4-.4.7-.4a7.1 7.1 0 0 0 2.3-.5c.1 0 .2-.5 0-.6a6.5 6.5 0 0 1-1.4-1.3c-.3-.4-.8-.1-1-.6-.2-.2-.3-.5-.2-.7.2-.5.3 0 .5 0 .2-.5.7.3 1-.1.2.7.9.1 1.2.5.2.1.6 0 .5.5v.2l.2-.2c.3-.6 0 .6.5.1.2-.2.7.1.7.6 0 .3 0 .5.3.6l.4.2A2 2 0 0 0 9 82c-.3-.6-.4-1.1.6-1-.3-.2-.5 0-.7-.3v-.2h.4c.7-.9.8-.9 2-.5.1 0 1-.8 1-1-.3-1 .4 0 .5-.3-.3-.4-.2-.8 0-1.3.4-.7-.4-1.1-.6-1.7 0-.2-.2-.3 0-.4.4-.1.5-.2 0-.4-.2 0 0-.2.2-.2 0-.1.6 0 .1-.4.2-.2.4-.7.2-.6-.5 0-1-.4-1.5 0A6.3 6.3 0 0 1 9.4 75c.8-1.2 2.2-1.9 2.7-3.3-.2-.2-.5 0-.8 0-.6.1-.9-.2-.7-.8.1-.4.5-.8-.3-.8 0-.7-.4-.5-.7-.4a1.1 1.1 0 0 0-.5-.8l.7-.4-1-.1c.2-.4.8-.5.7-1 .4 0 .3.4.5.5.2-.2-.1-.5.1-.7.4 0 .3.3.5.5a1.8 1.8 0 0 0 .3-.5c.2-.6-.1-1-.7-1.1a.8.8 0 0 0 .1-1.2c-.3-.4-.8-.6 0-1l.5-.9c-.4 0-.6 0-.8.3a.6.6 0 0 1-.8.3c-.5-.2 0-.5-.1-.6-.2-.4.2-.8 0-.9a1.7 1.7 0 0 0-1.4 0c-.2.2-.3.2-.4-.1-.1-.4-.4.2-.6 0-.2-.3.2-.4.1-.7l-.7.4c-.1-.4.3-.7 0-1 .4-.1.3-.8.8-.8a5.2 5.2 0 0 0 1.7-.4c1-.5 1.2-.6 1.7-2-.2-.2-.4.2-.7 0a1.7 1.7 0 0 0 .3-1.1c.4 0 .3.3.5.4.1-.3 0-.7.5-.6.4 0 0-.5.4-.7.3-.2-.2-.8.2-1.2-.7 0-.4-.6-.3-1a1.4 1.4 0 0 1 1-1.3c-.7 0-1.1-.4-1.6.1a.8.8 0 0 1-.8-.2c-.4-.5 0-.8.3-1a10.5 10.5 0 0 1 2.1-1 4.7 4.7 0 0 1 1.7-.4.8.8 0 0 0 .7-.6c.2-.5-.3-.4-.4-.6a1.1 1.1 0 0 1-.3-1 14.4 14.4 0 0 1 .6-2c.2-.5-.6 0-.6-.4-.9.1-.5-.5-.5-.9 0 0 .2-.1 0-.3-.8-.3-.9-.8-.4-1.4 0-.1.3-.1 0-.3-.1 0-.4 0-.3-.2 0-.3.4-.1.6-.3-.2-.2-.6-.1-.7-.5a1.1 1.1 0 0 0 .9-.8c.2-.6.8-.5 1.2-.5a1.1 1.1 0 0 0 .5-.2c.2 0 .2-.8.7-.2l.1-.3c0-.6.5-1.2 0-1.8 0-.1-.3-.6.2-.9.3-.1.6.2.9.2.5.1.4.2.7-.3 0-.2.4-.6.6-.4.2.3 1 .3.5.9a3 3 0 0 1 2.4.7c.3 0-.2-1 .5-.3.2.1.2 0 .2-.1-.1-.6.2-.8.7-.8-1-.2-.5-.9-.6-1.4-.1-.6.7-.6.5-1.1a2.4 2.4 0 0 1 1.2 0c.6.4.6 1 .7 1.5.1.3-.2.9.6.7.2 0 .1.2 0 .3v.2c1-.4.3.7.7.7 0 .1 0 .2.2.2a.2.2 0 0 0 .2-.2v-.8c.1-.4 0-.8.7-.9.5 0 .2-1 .8-1.2l-.8.3c-.2-.7 1-.8.6-1.6 1 .5 2 0 2.8.3.2 0 .1-.2.2-.2a14 14 0 0 1 1.4-1 1.2 1.2 0 0 0 .4-1.8 2.5 2.5 0 0 0-1.3-1c0-.3.4-.3.4-.5-.2-.2-.5 0-.8-.2.3-.3.9-.4.4-1.3.8.8.9-.1 1.3 0 0-.8.5-.7 1-.7.4 0 0-.7.4-.9-.6.4-.9 0-1-.4-.3-.3 0-.5.4-.6.3-.1 0-.3 0-.4.1-.9-.6-1.6-.5-2.5 0-.2-.4-.3-.1-.4.2 0 .5-.3.7 0 .1.3.4 0 .6.2a.2.2 0 0 0 .3 0 .7.7 0 0 0 0-.4c-.4 0-.5-.3-.7-.5-.2-.1-.5 0-.3-.3 0-.3 0-.6.6-.4-.4-.6-1-.6-1.4-1l-.4-.1c.7-.1-.3-1 .4-1h.1a2.2 2.2 0 0 1 2-.6c-.5-.4-.7-1-1.2-1.2-.4-.2-.5-.8-.3-1.2 0-.2.5-.4.8-.3a2.8 2.8 0 0 1 1 .3c.6.5.7.3.8-.4a10.7 10.7 0 0 1 .2-1.6c.1-.4 0-.8.7-.8.4 0 .6-.6 1-.9.9-.4.6.1.7.4.2 0 0-1 .7-.2.5.5 1.4 0 1.5-.8v-.6c.5.2.8-.1 1.2-.2v.4c.2 0 .2-.4.5-.4h.1a.5.5 0 0 0 .4.7.7.7 0 0 0 .9-.4 2 2 0 0 1 1.2-1 .8.8 0 0 1 1 .8c0 .4.5-.2.6.2 0 .2-.3.3-.4.5.5 0 0 .6.4.6.2 0 .3-.3.3-.5a1 1 0 0 1 .5-.8c.3.2 0 .4.2.6.2-.3.3-.7.8-.2.2.2.7.3.9-.1.1-.3.7-.7.2-1-.3-.3.2-.6-.2-.7.7-.4-.1-.3 0-.6 0-.3.4 0 .6-.2a3.9 3.9 0 0 1-.6-.1c-.2-.2-.7-.2 0-.5.3-.2-.3-.3-.1-.5.2-.2.4 0 .6 0 0-.2-.3-.3-.2-.5.5-.3 1 .2 1.6 0 .4-.2.3.3.6.6-.2-1.2.6-.8 1-.8s.6.1.8-.3a1.5 1.5 0 0 1 2-.4c.6.3 1 .3 1.2-.1.4-.7 1-1.4.1-2.1-.2-.2 0-.6-.3-.7.2 0 0-.8.6-.4.2.2.7-.3 1.2-.2.2 0 .3 0 .3.2v.2c.5-.8 1 .2 1.6 0 .8-.5 1.2-.2 1.5.7.7 0 .4-1 1.1-1 .2 0 .4-.8.8-.5.5.2.5.8.3 1.3a2.2 2.2 0 0 1 0 .2c.8-.3.4.7 1 .8 0-.1-.1-.8.6-.3.3.2 1-.2 1.6 0 .3 0 .3-.6.4-.9.3-.6 1-1 1.4-.7a1.7 1.7 0 0 1 .6 1.7c0 .3-.3.6 0 .7.4.1.7-.2.8-.5a2.2 2.2 0 0 1 2.2-1.2l1-.2c0-.2-.4-.1-.3-.5a3.4 3.4 0 0 0 1-.4c.2.3.6.3.6.6 0 .1-.4.2-.1.4.2-.5.6.4 1 0A1.7 1.7 0 0 1 77 1c.3.1.3 0 .1-.3a.5.5 0 0 1 .4-.6 1.8 1.8 0 0 1 .6 0c-.4.3.6.4.2.8-.1 0 .2.5-.2.7.6 0 .4.6.6 1 .1.2.3.2.4.1.3 0 .5-.1.1-.3.7-.2.7-1.2 1.4-1.4a1 1 0 0 0 .3-.1c.1-.2 0-.7.5-.4a.8.8 0 0 1 .4.7 5.4 5.4 0 0 1 0 .8c0 .4 0 .8.4.8s.7-.3.9-.7l.3-1c0-.2.2-.5.6-.5a.5.5 0 0 1 .4.6c.1.7.8 1 1.2 1.4.2.2.5.3.3.7-.2.6.5 0 .5.4 0 .3-.4.2-.6.4.6.3 1-.2 1.4-.3.3 0 .4-.6.7 0 0 0 .1-.5.4-.5.3.1 0 .5.3.7.3-.2.1-.6.5-.8.3.3-.2 1 .6 1l-.8.3c.2.1.6 0 .7.3-.5.2-.6.8-1 1.1.5.3 1.2 0 1.7 0 1-.1 1.3.2 1.4 1L91 7c.6.5.8 1 0 1.6l3.3-.6s-.5-.3 0-.5 1.4 0 1.6.4c.2.3-.3.1-.3.4.6 0 1 .7 1.6.4a1.2 1.2 0 0 0 .7-1.2c.3 0 .5.2.7.3-.4-1.3.8-.2.9-.8 0 .4-.2.5-.2.7.2 0 .4-.3.7-.1-.3 1.4.9 2.7.4 4.2.6 0 1-.4 1.5-.2-.6.7-1.6 1-1.5 2.2.2 0 .7-.3.6.4 0 .4.4.4.5.3.4-.2 1 .4 1.2-.4a.8.8 0 0 1 1 0c.4.3 0 .3-.1.5-.2.1.1.5 0 1 .5-.7 1-.3 1.6-.3a.2.2 0 0 0 0-.2c.2-.2.3-.4.5 0 .1.3.6-.4.8.2.2-.1.4-.3.4.2a.6.6 0 0 1-.4.7c-.5 0-1 .5-1.5.5a.8.8 0 0 0-.6.4 4 4 0 0 0 .9.4c.5.2.8-.4 1.2-.6.3-.3 1-.3 1.1 0a.8.8 0 0 1-.2.8c-.2.1-.2.3 0 .4.2.3 0-.2.2-.2.4.1.8-.1 1.2.2.3-.3-.2-.4 0-.7.7.2 1.5.1 2.2.6.3 0-.1-.4.2-.5.3 0 .2.4.5.6.3-.3 0-.6.2-1 .3.3.4.8 1 .6-.2.4-.6.4-.8.6h.7v.2c-.2.3-.2.7 0 .8.2.2.4.7.9.3.2-.2.3 0 .3.2a4.5 4.5 0 0 1 0 .8c-.4 0-.4.2-.5.5-.2.3-.2.4.1.5a7.3 7.3 0 0 1 1.2.5c.6.3.6.8.6 1.3 0-.8 1-.5 1-1.2.1-.1.4.3.6.5l.1-.8c.4 0 .3.4.4.7.3-.3 0-.7.4-1 .3.4.3.9.9.8-.2.4-.5.3-.7.5.2.2.5 0 .7.2-.3.5-.8.2-1.3.4 1.8 0 0 .7.3 1-.7.5-.5 1.5-1 2.1-.2.2.1.5.4.6a4.7 4.7 0 0 0 1.4.5c.5 0 1.2 0 1 1l.2.4c-.2.2-.4-.1-.6 0 .3.3.2.7.2 1 0 .3-.3.8.4.7 0 .6.8.4.9 1 0 .5 0 .7-.5.8h-1c-.3 0-.4.3-.5.6 0 .4.4 0 .4.2a2.8 2.8 0 0 1 .6 1.3c0 .5-.5.3-.7.4-.3 0-.6 0-.7.3-.1.4.4.2.5.4.2.2.2.5.6.5a.4.4 0 0 1 .1.5c-.3.5-.9 1-.5 1.7-.3 0 0 .7-.7.7-.5 0-.5.8-.3 1.3 0 .2.4.4-.1.5-.3.1.2.9.7.9a1.9 1.9 0 0 1 .5.1c.3 0 .5.3.4.5 0 .2-.3.3-.5.3l-1.6-.3a3 3 0 0 1 .9 1.8c.1.7 0 1.6.9 2-.4.9.6.7.8 1 .3.7-.4.8-.7 1-.3 0-.3.2-.5.3-.2 0-.2.2-.1.4s.2 0 .4 0a4 4 0 0 0 1.6-.5c.5-.3.9 0 1.3-.2.2 0 .4.4.4.7 0 .4-.2.2-.3.1 0 .6-.8.5-1 .9a.4.4 0 0 0 .7.5c.5-.2 1 .6 1.6 0 0 0 0 .5.2.7l.3-.7c0 .6 1.3 0 .7 1 .4-.2 1-.7.8.2 0 .3.5.3 1 .2l-.5.5.6-.1c-.6 1.7.6.6 1 .7a1.5 1.5 0 0 1 1.3 1.2c.2 1 .7.4 1 .2a4.1 4.1 0 0 1 2.2-.8c.1 0 .5.2.6-.2.7 0 1.3-.6 2.1-.4.2 0 .3.1.1.3a.3.3 0 0 0 0 .4c.4.6.3 1-.4 1.3a12.7 12.7 0 0 0-1.3.5l-.1.3 2.4.2c.3 0 .8.1.2.6-.2.1-.2.3-.1.5.2.5-.4.7-.7.7a9 9 0 0 0-3 .1c1.4.2 1.6 1.4 2.1 2.3a6.5 6.5 0 0 0 .7 1.1c.5.6.3 1 0 1.4a3.3 3.3 0 0 0-.1 2.7 2 2 0 0 0 .5.5 1.5 1.5 0 0 1 1 1.5c-.2 1.1.6.8 1.2.8a7.1 7.1 0 0 0 1-.4 2.8 2.8 0 0 1 2.7.4c.2.2.4.4 0 .5-.6.3-1 1-1.7 1 .9 0 1.4.8 2.2 1 .3.1-.3.4-.2.7.3 0 .5-.2.8 0a1 1 0 0 0-.2 1.2l-.7-.2a4.6 4.6 0 0 0 1 2.5c0 .2 0 .3-.2.3-.8 0 .2.3 0 .4-.5.3-1 0-1.4 0-.2 0-.6 0-.6.2a.8.8 0 0 0 .5.9c.1 0 .5 0 .2.3.5.4 0 .8 0 1.2-.1.3 0 .6.4.4a1.9 1.9 0 0 1 1.1 0c.5.2 1 .4.7 1-.3.7.2 1.2 0 1.8 0 .8-.3 1.6-.5 2.4.3 0 .4-.4.7-.3 0 .3-.4.8.4.7l-.3 1c-.6 0-.5.5-.6.8v.3c-.2 0-.8-.3-.2.2.2.3.7.7 0 1.2-.5.5-.1 1.2.6 1.2.3 0 .6.5 1 0 .1-.2.2.3.2.4 0 .2.5.7 0 .6-.4-.1-.3.6-.5.3-.4-.6-.7 0-.7 0-.1.4.4.3.4.7-.4.4-1 0-1.6.3a4 4 0 0 1 .8 1.2c-.3.3-1-.4-1 .4a1.2 1.2 0 0 0 1.2 1.1c.5 0 1 0 1.4.3.3.4.6.8-.1 1.1-.4.2-.5.4-.1.7.3.4.8.6.8 1.2 0 .2.5-.4.5.4 0 .4.3.4-.2.7h.3c.3 0 .7-.4.9 0 0 .4-.5.3-.8.4.3.2.8 0 1 .2 0 .4-.4.1-.5.4l.7.3c0 .4-.5.2-.6.5 0 .3-.2.3-.3 0l-.2-.2c-.4 0-.4 0-.4-.7l-.1.5c-.7-.2-.6.5-.8.7-.5.6-.7-.1-1-.2a3.6 3.6 0 0 0 0 1.2c0 .5-.2.4-.4.8-.2.7-.4.3-.8.1l.2 1c-.5-.5-1-.5-1.4-.1.2.1.9.1.2.5a.6.6 0 0 0-.3.6c.2.7-.4.8-.7 1-.6 0-1.4 0-1.6-.9-.5.6 0 1.1-.1 1.7-.2.5-.2.6-.7.5-.2 0-.7-.1-.8 0-.2.3 0 .6.2.9.4.6.3 1.2-.2 1.2-.4 0-.4-.6-.8-.7a1.1 1.1 0 0 1-.7-.8s0-.6-.5-.5c-.5.2-.4.5-.4.8 0 .4.3 1-.5.8.2.3.6.2.7.5a1.3 1.3 0 0 0-1 1.5c.2.6-.3.4-.3.4a.7.7 0 0 1-.7-.4 1.5 1.5 0 0 0-1.6-1.1c0 .2.7.5 0 .6-.3 0-.2.2-.1.4.2.2 0 .4-.2.3-.6-.2-.7.4-1.1.6l-1.2.5c0-.3.3-.4.3-.6-.3-.1-.6.3-.9 0 0-.4.5-.3.6-.7-.6.2-1.4-.1-1.6.8a.8.8 0 0 1-.6 0 1.2 1.2 0 0 1-.3-.7c.6-.3.2-.5 0-.7l-.4-.7c0 .8-.4 1-1 .8-.2 0-.3 0-.2-.4.2-.5-.3-1-.9-1-.4 0-1 .6-1.5-.3.2 1.4.1 1.4-1 1.1-.4 0-.6-.3-.7.3l-.8.2c.1-.4-.7-.6-.1-1-.9-.3-1.4.5-2.2.5-.2-.3.2-.4.1-.7-.4 0-.5.3-.6.5-.7 1-.7 1-1.3 0a3.1 3.1 0 0 0-2.5-1.8c1-.3 0-.8.3-1.2-.9-.2 0-.3 0-.5a3 3 0 0 0-.9 0c-.5.2-.8-.1-1-.6-.1-.2 0-.5-.4-.3-.2 0-.4.2-.3.4a1 1 0 0 1 0 .2c.3 1.3 0 2.7.2 4 0 .5 0 1-.7.9-.3 0-.4.1-.5.3-.6.4-1 .6-1.6 0-.3-.4-1-.4-1.2-1-.4.2-.6.6-.9 1a2.6 2.6 0 0 0-.5 1.4c-.5-.2-.4.4-.7.5-.1 0-.4-.1-.4.1s.2.3.4.4c.6.3 1.3.1 2 .2l1.1-.2c.3 0 .3.2.4.4.1.2 0 .3-.1.5a1.6 1.6 0 0 1-1 .5c-.5.1-.6.2-.7.7 0 1-1 .9-1.5 1.3a1.3 1.3 0 0 0 1 .4 1.2 1.2 0 0 1 1.3.7c.1.2.4.3.2.5-.2.1-.3.5-.6.3a.8.8 0 0 0-.4 0c-.4 0-1-.3-1.1.2-.2.4.2.8.5 1.2a3.5 3.5 0 0 1 .6 1.4c0 .5-.2.6-.4.5-.5-.3-.8.2-.9.4-.4.8-.8.7-1.4.2-.3-.3-.3-.2-.5.1a1 1 0 0 1-1.3.2 3.3 3.3 0 0 1-.4-.3 2 2 0 0 0 .3 1.6c.2.4-.2.6.1.8-.2.2-.3.4-.5.4.2-.5-.7-.3-.5-.7a1.4 1.4 0 0 0 .1-.4c-.1.4-1 .2-.7.9l-1-.1c.3-.6-.5-.5-.5-1a.5.5 0 0 0-.7 0 3.6 3.6 0 0 1-2.1.4c-.3 0-.5.4-.8.5-.4 0-.5.1-.8-.2-.1-.2-.4-.2-.4.2a4.3 4.3 0 0 1 0 .9c-.1.2.2.8-.5.4h-.2c.4 1.2-1 0-.8.9-.3-.5 0-.7 0-1-.3 0-.4.4-.7.3Z"/></svg>