<svg xmlns="http://www.w3.org/2000/svg" viewBox="0 0 150 150"><path fill="#73bf44" d="M77.3 150h-5l.6-9.5.6-9.9v-8.8h4l.2 8.8-.2 9.7-.2 9.7ZM26.9 41l-.6-1s.5 1.6.6 1Z"/><path fill="#73bf44" d="m135.6 107.4.8-1.2-2 .4-1.3-1.4-1.1.1.5-1.6-1.4.2.3-2-1.7 1.2-1.2-.7-.8 2-1-.8-1.2 1.8-.4-1c-.5-1.1-1 1-1 1l-2-.9.8-.5.3.1-.1-.1 1.6-1-1.8-.2 2.3-1.3-1.4-.4 1.6-1-1.4-1 1.8-.8-2-.8 2.4-1.4-1.5-.6-.3-.7 1.2-1.3-1.7-.3 1-1.1-1.4-.3.7-1-1.5-.4 1.2-1.6-1.7-.2.1-1.1-.2-2.2 1.8-1.2-1.8-.4 1.8-.6-.4-1.7-1.7-1.5 2 .5.7-1.8 1.7 1 1-2.1 1.6.8 2.6-1.4-1.6-1.2h2l-1-1.3 1.6-.3 1.3-1.5-1.2-.4 1.1-1.6-2.6-.6 1.1-1.1-1.7-.5 2.1-1.4-1.8-1.9L132 64l-1-.7 3.2-.9-1.2-1.6h2l-.8-1 1.5-1.3-.9-.3 3.1-2.8-3-.8 2-2-3.2-.6.5-1-1.5.2v-1.7l-1 .5.4-3.3h-1.4l3.2-2.9h-2.8l1.3-2.7-1.8.1-.2-1.4-1.3 1.4-.7-1.2.1 2-1.3-1.4-2-.6.2-2-2.1.5.4-2.1-2.5-.3.4-1h-1l.5-1.4-2.1-.3.9-1.5-3.4-.7.5-1.5-3.2.9.2-1.9-1.9 1-.4-1.6-.8.8-1-1.4-.6 1.5-1.4-1 .3 1.8-4.7-1.1 1.2-1.7-1.8-.8 2.2-1-1.7-1 1.4-1.3-2.6-1 1.6-1.3-2.7.4.3-1.7-2.1.4.4-1.6-2.3.6-.8-1.5-1 2-.3-1.1-2.7-.3 1.7-1.8-1.4-.6 1.9-1-2.8-.8-.2-1.8-1.3 1.1-1.2-1.2-.8 1.5-1.8-.2 2.2-1.4-1.2-.4 1.9-1-1.4-.6-.3-1.4-2 .6-1.8.8L82.6 8l-.8 1.2-.3-1.7-.8.2.2-1.7-1.2.2.4-2.3-2.5-.8 1-1.2-2-.3.7-1.6-2.2 1.4-.4-1.2-1 1.7L72.5.4v1.7l-2.8.7L68 1.5l-.3 2-1-.5-1.2 1.3L64 3.1l-.7.6-.7-1.9-.6 1-.7-1.8-.7 1.3-1.2-1v2l.1 3-1.2-.5 1.1 2-.7-.1.7 2.3-1.6-.6 2 2.1h-.7l-.5 1.2 2.3.4-1.7 1.3.9 2-2-.4 1 1.6h-2.1l.7 1-2 .5-.7-1.8-.8.9-1.8-1.6-.8 1-1-1.6-1.8.7-.7-1-.8.9-1-1-.8 1.4-1-.8.5 2.8-1.5-1.1 1 1.8-.9.7 1.4.4-.5 2-.7-1-.4 1.1-1-.9v1.6l-1.6-1v1.7l-.5 1 .7 1.5H39l2 1.8-.9.2-.1 1.5L41 30l-.6 1 1.3.1-.7 1v.7l-1.4-.2V34l-1.5-.2 1.1 1.7-1.6-.2-.5 1L36 35l-.8.4-.1-1.1-1 .4-.4-1.1-1.1 1.7-1-1.1-1.7 1.6 1.7 1.4h-2.2l-.6.4-1.2-1.4-.4 1.8-.4-.6.2 2.5a4.7 4.7 0 0 1 0 1l.1.3H26l.5 2-1.6-1.6-.5 1.5-1.1-1.1-.7 2.1-.6-.3.9 2-1 .3 1.8.9-.2 1.3L25 48l-.7.9 1.8 1-1.4.5 1.2 1-1.1.1V53l-1-.7v1h-1.4l1.3 1-.8 1.3 1 .1.7 1.2.8-.7v1l1.8-.3-1 1.1.5.3 1.4 1.2-2.3-.1.5 1.4-2.6-1.1-.2 1.5-1.3-1.3-1.7 1-.8-1-.5 1.2-2.2-.4 1.2 1.2-.5 1.2-.8 1 1.2.5-.5.5 1.4.5-.4 1h1v1.7l2.1-1.1-.6 1 2.1.5-1.2.7.2 1.2H20l.8.8-1.7.9 2.5 1.3-.7 1.3 1 .2-.8 2 1.8-.8-.5 2 2-1v.8l2.1-.4-1.8 2 1.7.7-2 1.2 2 .2L26 83l1.5-.1-.7 1 1.6.3v1.7l1.9-1-.8 1.6h2l-1 1 2 1.1-1.3.3-.6 1.5-1-.6-.7 1.8-1.7-1-.7 1.5-.9-1.5-.5 1-1.7-1.4-.6.8-.5-1.2-3 .7-.6-1.4-.6 1.2-1.6-1.2-.4 1.5-1.7-1.2 2 3.7-3-.8 1.8 1.7-1.5.7h.4l.5 1.8-1.6.3.8.8-1.8.7 1.6 1-.8 1h1l-.2 1.2 1.8-.3-.3 1 1.2-.3.5.7 1-.2.9 1.6 1.3-.6.7 1.7 1-1.5.6 1.1 1.2-1.7.8 1.3.7-1.4v1.2l1.3 1-1 .5-.6 1.6-1.7.6.9.9-1.2 1h.7l-.5 2.5 1.5-.2-.4 1.9 1-.3-.2 1 1.3.1-.7 1.3 1.5.4v1.8l1.3-.2-.5 1.4 1.3-.4.1 1.2 1.2-.4.7.8 1.4-1.8v1l1-.5-.4 1.6h.9v1l2 .2.5 1.3 1.2-1 1.8 1.2.9-.6.4 1 1.4-.8.3 2.3 1.6-1 .7 1.2 1-.8.7.5.8-2.3 1.2 1 1.2-2 .7 1 1-1.1.7 1.7.8-.4.1 1.6 1.3-.3-.2 1 1.4-.5-.2.8 1.6-.2.2-.1.4.2-.4 1.2h1.2v1.5l1.4-.4v1.4l2-2.2v1.9l.7-2 1.1.3v-.2l1.2-.9.4-.1.3.8.2-.2v.5l1.1-.9.1.1.3 1.7 1.3-1 1.1-.3.1-.2.2.1.6-1 1.2 1.3.1-1.7.4.2-.1-.8.3.1v.1h.1l.3.2h.4l.3 1.3 1.5-1.7 1.3 1.3.4-1.4 1.5.8.3-1.6 1.5.9.2-.4.7.3-.9.8 1 .5-.6 1 2-.2-.2 1.4 2.3.4v-2.2l1.3 1.6.8.3-.4 1.8 1.7-.8-.2.7 1.8-1.7a4.4 4.4 0 0 1 .8-.7l.1-.3.8 1 1.2-1.7-.2 2.2 1.4-.5-.2 1.6 2.1-.8.2.6 1-2 .8.7-.4-2 1.1-.6-1.4-1.1H98l-.2-1 2-.2.7-1.4.4.3v.6l.4-.3 1 .9-.1-.5.3.3V122l.8-.2h.7v-.2l-.2-.2-.3-.6.5-1.2-.5-.1v-.6l.2-.2-.3-.2v-.4l2.3 1 1-.6.9 1.3.4-.2 1.2.5v1l.3-.2v.6l1-.3 1.2 2 .2-1.7 1.2-.5h1.3l1.9.4 1.2-1.4 1 1 .4-1.2 2.3.9-.1-2.2 1.8.7-.3-1.7 1.4 1 .4-1.6 1.3 1.7.6-1.8 1 1v-1.2l2.5.6 1.1-1.7 1.8.7-.6-1.5h3.4l-1.2-.9 1.5-.9-1.1-.6 1.2-1.1-1.7-.3 2-1.1-1.6-.7 2-1Z"/></svg>