<svg xmlns="http://www.w3.org/2000/svg" viewBox="0 0 150 150"><path fill="#73bf44" d="M64 82.9c4.5-.3 5.2 2.4 5.2 2.4a7.2 7.2 0 0 1 1.2-4.4 6 6 0 0 0 .6 5.5 7 7 0 0 1 .1-2 4 4 0 0 0 1.3 2.3c-1.3-2.5-.5-4-.5-4a2.4 2.4 0 0 0 1 2c0-2.4 1-3.1 1-3.1a2.5 2.5 0 0 0 .4 2.2c.8-1.6 0-4.2 0-4.2 1.9 1.8 1.5 5.6 1.5 5.6s3.6-6.7.4-10.8c0 0 4.6 3.8 1.3 11.4a8.7 8.7 0 0 0 2.2-6.3 9.5 9.5 0 0 1 .8 5.8 11.7 11.7 0 0 0 1-4.9 9 9 0 0 1 0 5s1.9-.7 1.7-4.7a6 6 0 0 1-.7 5.2 20.6 20.6 0 0 0 11-4.2s-4 4-7.6 4.6c0 0 .9.8 3.7-.1a11.8 11.8 0 0 1-4.3 2.5 9.3 9.3 0 0 0 1.8-.2 12.8 12.8 0 0 0-5.5 3.2c-1.9 2.2-1.8 6.2-1.8 6.2a22.2 22.2 0 0 0 2-2.6l.3 1.3a8.6 8.6 0 0 0-1.5 4 2.8 2.8 0 0 0 .8-1.4 7.8 7.8 0 0 1-.5 2.6 1.3 1.3 0 0 0 1-.2c.2-.4-.2 1.8-1 3a1.6 1.6 0 0 0 1-1 10.3 10.3 0 0 1-.9 2.5 2 2 0 0 0 .8-.5 34 34 0 0 1-1.1 3.2s.9-.3 1-1l.3 1.7a11.4 11.4 0 0 1-1.5 1.8s.7 0 1-.4a7.3 7.3 0 0 1-1 2.2.5.5 0 0 0 .7 0 5 5 0 0 1-1 2.2.6.6 0 0 0 .6-.2 4 4 0 0 1-.4 2s.3.2.4 0a4.2 4.2 0 0 1-.6 1.6s.5.3.6 0a6 6 0 0 1-.6 2.1s.7 0 .8-.3a7.6 7.6 0 0 1-.8 2s.7.2 1-.2a10.5 10.5 0 0 1-.6 3.6s1 .3 1.1 0l.6 1a8.3 8.3 0 0 1-1 2.5s1-.3 1.1-.8a3.9 3.9 0 0 1-.4 2.6s.8 0 1-.4c0 0 .6 2.3-.3 3.7 0 0 .9-.2 1-.8l1 1.4a5.8 5.8 0 0 1-1.4 2s1-.2 1-.4a3.8 3.8 0 0 1-.6 1.8s.5 0 .6-.2a2.5 2.5 0 0 1-.6 1.7.3.3 0 0 0 .3 0 2.7 2.7 0 0 1-.6 2.2 1.7 1.7 0 0 0 .6-.3 6.3 6.3 0 0 1-.7 3s.5-.1.7-.4a6.7 6.7 0 0 1-1 3 1.3 1.3 0 0 0 .8-.5 6.6 6.6 0 0 1-.5 3h-16a5.2 5.2 0 0 1-.4-2.8l.5.2s-.4-.3-.1-1.2a7 7 0 0 1-.3-2.6 1.3 1.3 0 0 0 .7.4 6.7 6.7 0 0 1-1-3c.2.3.7.5.7.5a6.3 6.3 0 0 1-.7-3 1.8 1.8 0 0 0 .6.2 2.7 2.7 0 0 1-.6-2.1.3.3 0 0 0 .4 0 2.5 2.5 0 0 1-.7-1.7c.1.2.7.2.7.2a3.8 3.8 0 0 1-.8-1.9c.1.2 1.2.4 1.2.4a5.7 5.7 0 0 1-1.5-2l1-1.3c.2.5 1 .8 1 .8-.8-1.4-.3-3.8-.3-3.8.2.5.8.5 1 .5a.7.7 0 0 0 0-.1 4 4 0 0 1-.4-2.5 1.6 1.6 0 0 0 .7.6 4.8 4.8 0 0 1-.1-.8 8.7 8.7 0 0 1-.5-1.6l.6-1a.3.3 0 0 0 .1.1 3.8 3.8 0 0 1 .1-1 1 1 0 0 1 .7.8 4.7 4.7 0 0 0-1-3.7 2.3 2.3 0 0 1 .8.5c-1.3-2.3-.8-3-.8-3a.8.8 0 0 1 .4.3 4.4 4.4 0 0 0-.8-2.5 1.3 1.3 0 0 1 .9.5 4.2 4.2 0 0 0-.5-2.4c.7.2.8.4.8.4a2.6 2.6 0 0 0-1.3-1.9l.1-1 .7.3a3.4 3.4 0 0 1-.8-2.1 1.1 1.1 0 0 0 .7.4 4 4 0 0 1-.8-2.7c.3.6.6.5.6.5a3 3 0 0 1-.2-2.4 1.2 1.2 0 0 1 .7.7c.3-1.8-.5-2-.5-2l.4-1.2a1.7 1.7 0 0 1 .6.8c.2-3.1-1-3.5-1-3.5l.8-1.6a2.8 2.8 0 0 1 .8 1.6c.8-4-1.2-5.4-1.2-5.4a4.2 4.2 0 0 1 1.5 1.2 8.8 8.8 0 0 0-5.8-4.9 6.4 6.4 0 0 1 2.3.2 5.3 5.3 0 0 1-3-3.2 5 5 0 0 0 2.5 2 4.2 4.2 0 0 1-1.7-2.3 3 3 0 0 0 2 1.3 3 3 0 0 1-1.3-3.2c.2.6 1 1.2 1 1.2 0-2.4-2.5-2.4-2.8-2.3ZM52.8 36.5s-3.3 10.8-8.4 15.9c0 0 3.6-10.2 8.4-16Z"/><path fill="#73bf44" d="M44.4 53.8a54 54 0 0 0 1-19.5 77.5 77.5 0 0 0-1 19.5Z"/><path fill="#73bf44" d="M47.7 33.6a139.7 139.7 0 0 0-3 17.1l.6.3s2.7-9.7 2.4-17.4Z"/><path fill="#73bf44" d="M50.3 34a113.6 113.6 0 0 0-5 14.5l1 .5a72.1 72.1 0 0 0 4-15ZM44.6 46.8s-.6-7.2-3.5-12.4a70.4 70.4 0 0 0 3 18.6l.3.8.3-2.4Z"/><path fill="#73bf44" d="M38.7 35.3A109.1 109.1 0 0 1 43.9 51l-.3 2s-4.8-8.9-5-17.7Z"/><path fill="#73bf44" d="M40.7 45.8s-2.5-7.4-5.9-10.2a29.6 29.6 0 0 0 2.9 8 34.8 34.8 0 0 0-6.4-7.6 76.7 76.7 0 0 0 4.5 8s-4.3-5.7-8-7.9a42.4 42.4 0 0 0 4.8 7.2s-4.5-5-8.5-7.1c0 0 1 2 5 5.8a41.6 41.6 0 0 0-8-5.4 27.5 27.5 0 0 0 3.9 4.3 40.2 40.2 0 0 0-8.6-4.7s1.1 1.9 6.4 5.1c0 0-6.8-3.8-12.4-5.3a43.1 43.1 0 0 0 8.3 5.9 49.7 49.7 0 0 0-8-3.3 18.4 18.4 0 0 0 5.2 3.5 89.5 89.5 0 0 0-9-4 21.9 21.9 0 0 0 5 3.4 74 74 0 0 0-7.5-3.1 14 14 0 0 0 4 2.6s-3.8-1.5-5.7-2.1a6.5 6.5 0 0 0 2.6 1.8 21.4 21.4 0 0 0-3.8-.6 209 209 0 0 0 42.4 14l.5-.3v-2.3l-2-5.2Z"/><path fill="#73bf44" d="M42.9 53.4A162.1 162.1 0 0 1 71.6 86l1 .2s-8.2-13.7-29.4-33.4ZM81.8 34.4S88.5 45 95.4 49c0 0-6.8-9.7-13.6-14.5Z"/><path fill="#73bf44" d="M95.8 50.3A59.3 59.3 0 0 1 89 30a85.5 85.5 0 0 1 7 20.3Z"/><path fill="#73bf44" d="M86.4 30a153.3 153.3 0 0 1 8 17.2l-.4.5s-5.6-9.5-7.6-17.8Z"/><path fill="#73bf44" d="M83.7 31a125.5 125.5 0 0 1 9.5 14l-1 .8A79 79 0 0 1 83.8 31ZM93.5 43s-1.5-7.8 0-14.2a77.1 77.1 0 0 1 2.3 20.6v.9l-1-2.4Z"/><path fill="#73bf44" d="M96.4 29.1a120 120 0 0 0-.9 18.2l.9 2s2.5-10.8 0-20.2Z"/><path fill="#73bf44" d="M97.3 40.8s.5-8.6 3.3-12.5a32.4 32.4 0 0 1-.7 9.4 38.3 38.3 0 0 1 4.5-10 84 84 0 0 1-2.3 9.8s2.8-7.3 6.2-10.7a46.5 46.5 0 0 1-3.1 9s3.3-6.7 6.9-10c0 0-.5 2.4-3.6 7.5a45.4 45.4 0 0 1 6.8-8 30.2 30.2 0 0 1-2.8 5.7 44 44 0 0 1 7.7-7.5s-.6 2.4-5.2 7.3c0 0 6.1-6 11.6-9.2a47.2 47.2 0 0 1-7.1 8.6 55.2 55.2 0 0 1 7.5-5.8 20.2 20.2 0 0 1-4.4 5.2 97.2 97.2 0 0 1 8.2-6.8 24 24 0 0 1-4.3 5 81.8 81.8 0 0 1 7-5.5 15.3 15.3 0 0 1-3.3 4s3.5-2.7 5.3-4a7.2 7.2 0 0 1-2.2 2.8 23.6 23.6 0 0 1 4-1.8 229.5 229.5 0 0 1-40.9 27.3l-.6-.3-.6-2.4.5-6Z"/><path fill="#73bf44" d="M97.3 49.5a178.3 178.3 0 0 0-21 42.8l-.9.4S80.1 76 96.7 48.8ZM140.3 74.4a36.8 36.8 0 0 1-8.5-8c-3.7-5-7.5-4.7-7.5-4.7l4.3-.4s4.7 4 11.7 13.1Z"/><path fill="#73bf44" d="M143.2 73s-7.9-6.6-12-8.5c-4.2-1.8-.7-3.2-.7-3.2s9.2 6.9 12.7 11.7Z"/><path fill="#73bf44" d="M145.7 70.8S134.8 64 132 63.2c-2.9-.6-.6-2.1-.6-2.1a64.8 64.8 0 0 1 14.3 9.7Z"/><path fill="#73bf44" d="m143.5 66.9-9.2-3.4c-3.6-1.4-.3-1.3-.3-1.3s2.8-.4 9.5 4.7ZM130.8 66.4a14.5 14.5 0 0 0-7.4-3.9c-4.3-.7 3.5-1 3.5-1a21.3 21.3 0 0 1 4 4.9Z"/><path fill="#73bf44" d="M125.1 62.6s-8.8.5-12.8-1l-.7-.2a80.4 80.4 0 0 0-3.4-12.3 40.1 40.1 0 0 1-2.7-9.7s2.2 5.1 3.7 9.3c0 0-1.7-7-1.4-11.9a65.2 65.2 0 0 1 2.5 9.9 46 46 0 0 1 0-12.2s.6 4.5.8 6.6a19 19 0 0 1 .5-4.4 67.7 67.7 0 0 1 1.4 10.5 63.6 63.6 0 0 0 1.8-10 48.2 48.2 0 0 1-.9 14.4s3.5-9 4.2-13.2a36.7 36.7 0 0 1-2.6 13.7s4.9-7.5 7.1-11.6a66.9 66.9 0 0 1-5.5 13s6.1-7.3 10-10.3c3.7-3 0-.2 0-.2s-5.3 8.2-9.1 12.3c0 0 7-6.5 12.5-8.9a72.2 72.2 0 0 1-8.4 7.7 46 46 0 0 1 10.2-5.3 89 89 0 0 1-9 6.1 66.6 66.6 0 0 1 10.7-4.1 48.2 48.2 0 0 1-7 4 46.4 46.4 0 0 1 8-2.5 84.4 84.4 0 0 1-8 3.3 46 46 0 0 1 9.2-1.8s-5.6 2-10.3 3a99 99 0 0 1 14.3-1.8 119.6 119.6 0 0 1-13.6 3.2 93.7 93.7 0 0 1 17.1-1.1 125.2 125.2 0 0 1-13.6 2.2 64.9 64.9 0 0 1 15.7.4 96 96 0 0 1-12.5 1.1s10.1-.5 15.2 1.1a50.7 50.7 0 0 1-5.5.4s.9-.1 3.8 1c0 0-9.5.3-13.6-.4a39.2 39.2 0 0 0-8-.3Z"/><path fill="#73bf44" d="M111.8 60.8S87.8 76.6 82 86.3l1.1.2s10.4-13.1 29.3-25.4ZM46.1 66.5a12 12 0 0 1 6.8-1c3.6.6-2.4-1.8-2.4-1.8a17.7 17.7 0 0 0-4.4 2.8Z"/><path fill="#73bf44" d="M51.6 65s6.7 2.9 10.3 2.8h.6a66.7 66.7 0 0 1 6-8.7 33.2 33.2 0 0 0 4.7-6.8s-3 3.4-5.4 6.3a46.7 46.7 0 0 0 4.4-9 53.9 53.9 0 0 0-4.7 7 38 38 0 0 0 3.3-9.5s-1.7 3.4-2.4 5a15.5 15.5 0 0 0 .8-3.6 55.7 55.7 0 0 0-4 7.8 52.5 52.5 0 0 1 1.4-8.3 40 40 0 0 0-3.3 11.5s-.2-7.9.4-11.4a30.4 30.4 0 0 0-1.8 11.4s-1.7-7.2-2.3-11a55.4 55.4 0 0 0 .8 11.6s-2.9-7.3-5-10.7c-2.2-3.4 0-.1 0-.1a96.8 96.8 0 0 0 3.8 12s-3.7-7-7.5-10.3a59.6 59.6 0 0 0 4.6 8.2 38.1 38.1 0 0 0-6.6-6.9 73.8 73.8 0 0 0 5.4 7.3 54.7 54.7 0 0 0-7.3-6.2 40 40 0 0 0 4.5 5 38.4 38.4 0 0 0-5.7-4A70.2 70.2 0 0 0 52 59a38.2 38.2 0 0 0-6.7-3.9s3.9 3 7.2 5.2A81.9 81.9 0 0 0 42 55a99.5 99.5 0 0 0 9.7 6.3 77.6 77.6 0 0 0-13-5.6 103 103 0 0 0 10 5.4 53.6 53.6 0 0 0-12.4-4 79.3 79.3 0 0 0 9.4 4.4s-7.7-3.2-12.2-3.3a42 42 0 0 0 4.3 1.8 9.4 9.4 0 0 0-3.3-.3s7.4 2.8 10.8 3.4a32.9 32.9 0 0 1 6.4 2Z"/><path fill="#73bf44" d="M62.5 67.3s14.4 18.9 16.3 28h-1s-4.5-13.2-16-28ZM75 52.8A166.3 166.3 0 0 0 99 36.4s-9.9 5-13.6 7.7c0 0 7.1-5.4 10.4-9.6a62.5 62.5 0 0 0-7.5 4.6s10.2-11 15.8-19.8c0 0-5.5 4.4-6.6 6a77.7 77.7 0 0 0 4.6-6.6l-2.1 1.7a21.7 21.7 0 0 0 1.6-3.4s-9.2 8.6-12 12.8a102 102 0 0 0 8.7-17.5S89 23.2 85.3 32.5c0 0 5.5-17 6.2-24.3 0 0-1.6 3.2-2 4.3 0 0 .8-4 .8-5.4 0 0-5.5 11-7.3 18.2 0 0 3.9-15.7 3.8-22.6a137.3 137.3 0 0 0-7.2 25S81.2 9.5 78.2.7a151.4 151.4 0 0 0-2.2 17S76 5.8 73.6 0c0 0-1.9 12-.8 22 0 0-1.8-16-4.5-21.1 0 0 0 3.4.2 5.2a19 19 0 0 0-1.3-4s.3 10 1.4 19.6c0 0-2-11.7-5.4-17.9 0 0-.6 5.9 4 23.6 0 0-6-14.7-10.7-20.5a64 64 0 0 0 4.1 12.5s-3-6.2-5.5-8.5c0 0 1.6 4.5 3.4 8.7a61.3 61.3 0 0 0-4-5.2 35 35 0 0 0 3.2 10.2s-2.4-5-4.4-7.1c0 0-.2.6.3 3 0 0-1.7-4.4-4.1-6.9 0 0-.2.4 1.2 4a33.9 33.9 0 0 0-3.2-5.2 28 28 0 0 0 2 5 50.8 50.8 0 0 0-4.5-6.3s1.4 3.4 4 8a101.2 101.2 0 0 0-6.4-9 111.8 111.8 0 0 0 6 11S43 12.3 39.7 9.6c0 0 3.1 5.3 7 11 0 0-6.3-8.7-9-10.7a54.6 54.6 0 0 0 6.4 9.8s-5.2-6.5-8.2-8.8a55.1 55.1 0 0 0 5.3 7 31.4 31.4 0 0 0-6.2-5.7s19.8 27 40 40.6Z"/><path fill="#73bf44" d="M74 51.7s.8 13.5 0 33c-1 19.5 1.3 1 1.3 1s-.6-27.6.6-34Z"/><path fill="#73bf44" d="M79 72a89.6 89.6 0 0 1-10.6-11.6s4.6 3.9 6.3 5.7a39 39 0 0 1-4.3-6.3 33.4 33.4 0 0 1 3.3 3.4 95.3 95.3 0 0 1-6-12.4 32.5 32.5 0 0 1 2.8 4 42 42 0 0 1-1.6-4l1 1a11.8 11.8 0 0 1-.5-2s3.8 5.7 4.7 8.3a55.3 55.3 0 0 1-2.4-10.3S75.2 54.7 76 60c0 0-1-9.6-.4-13.5l.5 2.5s0-2.2.2-3a64.6 64.6 0 0 1 1.7 10.5s-.1-8.7.7-12.4a74.2 74.2 0 0 1 .9 14.1s1.3-9.9 4-14.2a82 82 0 0 1-1 9.2s1.5-6.1 3.4-9A54.2 54.2 0 0 1 83.9 56s2.9-8.3 5-10.6L88 48a10 10 0 0 1 1.1-2s-1.3 5.3-3 10.2c0 0 2.4-6 5-8.8 0 0-.4 3.2-5 12 0 0 4.9-7 8.1-9.6a34.6 34.6 0 0 1-3.7 6.2 22 22 0 0 1 4-3.9s-1.4 2.2-2.9 4.2a33.7 33.7 0 0 1 2.8-2.2 19 19 0 0 1-3 5 19.4 19.4 0 0 1 3.2-3.3 4 4 0 0 1-.5 1.6 13 13 0 0 1 3-3.2s0 .3-1.1 2a18.3 18.3 0 0 1 2.3-2.4 15.4 15.4 0 0 1-1.6 2.5 27 27 0 0 1 3-2.9s-1 1.7-3 3.8a54 54 0 0 1 4.5-4 61.5 61.5 0 0 1-4.5 5s4-3.9 6-5c0 0-2.2 2.5-5 5 0 0 4.4-3.8 6.1-4.5a29.6 29.6 0 0 1-4.6 4.4 38.7 38.7 0 0 1 5.4-3.7 29.9 29.9 0 0 1-3.6 3 17 17 0 0 1 4-2.2S91.2 67.3 79 72Z"/><path fill="#73bf44" d="M79.8 71.5s-2.1 7-4 17.4c-1.9 10.4-.8.3-.8.3s3.6-14.4 3.7-18Z"/></svg>