<svg xmlns="http://www.w3.org/2000/svg" viewBox="0 0 150 150"><path fill="#73bf44" d="M79 149.9H68.7l-1-8.3c-.2-3.5-2-15.4-2.3-17.8-.3-2.3-2.6-13-2.6-13h9.7l.4 5.3.8 4.5c.2 1.2 1 2.6 1.2.5.2-2.2 0-3.4.3-5 .3-1.5 1-4.6 1-5.3h2.4l-.5 3.5c-.2 1.1.7-1.4.7-1.4l.6-2h1.9l-1.5 4.2a14.2 14.2 0 0 0-1 5 45.6 45.6 0 0 1-.7 5.3c-.3 2-1.4 4.5-1.4 6 0 1.7.5 7.8.8 9.8.4 2 1.2 7 1.3 8.7Z"/><path fill="#73bf44" d="M127.9 83.8s-3.4-1.9-3.3-2l1.2-1.9v-1.5l-1.9.5.6-.8-1.8-1.5-1.5.8.4-1.7-2.2-1L118 76l-.9-1.2h-1.8v-1.3l-1.3-.6.6-1.3-1.7-.9 1-.8-1.8-1.5 3 .6.8-.6 1.6 2.2 1.4-1.9 1.4.5-.7-1.7 2 1.1-.3-2.6 2.2 1.1.3-2.2 2.3.6-1.1-1.8.8-.8-1.2-1.2 1.5-.6-1-1.4 1.8-1-1.4-1.4 1-.4-1-.7-.5-2.3-2-.1 1-1.3-1.6-1-.9 1.2-1.5-1.6.9-2-1.6-1.2 1.1-1.5-2-.5 1.3-1.7-1.7-.5-.4-1.5-1.5 1.3.3-2.4-2.7-1-1 2.5-.5-2.4-2.5.6 1-1.7-1.2-1.1-1.2 1.6-.8-1.4-.8 1-2.4-1.1-.1 2.4-1-1v2l-.5.1-.6.7.1-2.6-.6-.4 1.7-2.3-.4-1 1.4-1.1-1.5-.7 2-1.4 1.5-.8-1.5-1.3 1.6-1.8-2-1.4 1-1.7-1.8-1-1 3-.3-1-1.5-1a21.8 21.8 0 0 1-1.5 2 11.7 11.7 0 0 1-.2-2.3l-1.8-.9-.4 1.6-1.5-1-.5 1.6-.9-1-.3 1.4-1.2-.5 1.4-1.8-1.2-.6 1.2-1-.8-1.5h-.5V20l-.8-.1 1.2-1-.9-1 1.8-.2-2-2.4 2-.9-1.7-1.7-1.5.4 1.3-1.8-2.7-.6-1 2.1-.5-1.8-1.9-.4-.4 2.6-1.2-1.3-2.4 2.2-1.5-.7.4 2-.9-.5-.6 2-1.2-2-1.4.7.7-1.3-1.5-.4 1.2-.8v-1.6l1.5-1.1-1.7-.7s-.1-.9 0-1a12.3 12.3 0 0 0 1-1.3H77l-2.2-2.2V2.7l-1.2.1 1.2-1L72.4.6l-3 1.6.5-1.6-1.4-.5-2.3 1.6L64.5.3 62.8 3l-1.1-1-1-.9-.8 1-.3-1.5-.4-.4-1.7.9a11.4 11.4 0 0 0-2.4-.5c-.1.2-1.5 0-1.5 0l.5 2.9-2.4-1-.2 2A20.8 20.8 0 0 0 49 4c-.2 0 1.2 2.5 1.2 2.5l.1 1.4-1.3-.1 1 2.9-2.8-2-.3 1.6-1.5.7.3-.8-2.6-1 1.2-1-2-1.6L40.5 8V6.6l-2-.6-.3 2.2-1.8-.6.2 2 .8 1.8-1.6-.2.6 1.5-1.4-.2-.4 2-.9-.2.3 1.9-2.4-.2-1 2 1.2.2-.5.6.2 2-1 .4 1 1.1-1.5.2.1 1.4-1.1 1.4V24l-1-.6-.7 1.7-1.9.4.3 1.7-1.2.4.3 2.3-.8.2.5 2-.6-.3-1 1.8 2.8 2-.8.7 1.3.9-1.4.6.7.3v1l-1.4 1 2.4 1.5-2.9-.3 1 2 2.1-.3-.5 1 2.2.4-.8.7 2 1.5-1.3 1.9 1 .6.3 1-1 1 1.4.5.1 1.3-1.6-.5 1.1 1.8-2.1.3 1.5 1-.4 1.7h-1.2l1.2.5-1.4.5-.3.8h-1.8l.1 1.9-1.4-.2.9 1.7-1.3 1.4-1-.4 1 1.9-.8.6-.6 1.4 2.6 1.5-.8.6.9 1.3 1 .3 1.1.8-.4 1.7 2.4.1-.7 1.4 1.8.3-.7 1.3 2-.3L31 78l1.7.5-.4 1.7 3-.1-.4.4.5 1.4h2.2l1 2.3.7-1 1.1 1.2 2.1.3-1.2 1.7 1 1.7v1.1l-1.7.2 1.8 2.1-1.7.3 1 1.5-.8.3.2.8 1.4 1.6-1.8-.3v1.7a9 9 0 0 1-1-1.2l-1 1.6-1-1.4-.5 1.3-2-.3.5 1.7-1.8 1 .5 1.5-1-.5 1.5 2.9-1.2-.6 1.7 2.4h-1.6l1.1 2.3 2.8-.5-1 1.4 1 .6-1.3.6.7 2-1.8-1 1.4 2.7-1.4-.4 1.4 1.4-1 1.6 1.6.9-1 .9 2.4.7-1 1.6 1.4.5-1 1.1 1.1.5-.6 1.4-1.5-1.2-.6 1-.8-.5-.2.9-.9.4 1.2 1.2-1.6 1 2 1.2-1.3.4 2 .6-.7.6 1.3 1 2.5-.7-1 1.3 1.4.5.4-1 1.6-.6-.6-1.3 1.6.2-.4-1.7 1-.4v1h1.2l1-1.8.7.4 1.4-2v.9l1.8.3-1.8 1.4 2.1.8-1.9.6.7 1.7 1.7-.7-.3.9 2-.6-.4 1.1 2.8-.3.5-1.6 1.2.5.4-1.6 1.7.3-.4-1.7h1.3v-2l1.6.8-.6-2.1.6.2.5-1.2-.5-1.2h.8l-.5-1.2 1.2.2.6.5.8-.6 1.3.4-.5-1.4 1.4-.3.2-2 2.6-.2 1.3-.3.7-1.4 1 .3-.2-1.5c-.1-.3 1.2-.4 1.2-.4h.8l.8-.7 1.2.4.6-.7.8.9.7-.3.8 1.2 1-1 .5 1.2H83l-1 1.1h2.9l.5 1.5 1.4-.3.2 1.7 1.2.5 2.1 1.3-1-2.5 2.6.6 1.2-1.6 2.4 1.2 1.3-.8-.2 2 1.7.5.8 1 .8 1.8 2-.1-.5 2 2.3-1 .8 1.5 1-1.7 2 .5-.5-1.6 2-.4-1.1-1.1 1-.8-.4-1.8 1.3-1.4-1.2-1 1.7-.5-.7-1.2 1.7-.5-.4-.7 2.6-.2-.7-1.8 2-.9-.7-1.3 2-1.2-2-1 1.4.3 1.4-1.5.7 1.6c0 .3 1-1 1-1l2.3-1-.8-2 1.5.5v-2l-.7-1.5-1.4-.7 2-1-1-.4 1-.6-.7-.2v-.8l1.7-1.3-2-.3.8-1-1-1.4h1.8l.2-1.2h1.3V89l1.5.1-.8-1h1l.2-1.4 1 .1-.8-2Z"/></svg>