<svg xmlns="http://www.w3.org/2000/svg" viewBox="0 0 150 150"><path fill="#73bf44" d="M77.3 150.3h-5l.6-9.6.5-9.8.2-8.9h4l.1 8.9-.2 9.7-.2 9.7ZM26.7 41l-.6-1.1s.5 1.5.6 1Z"/><path fill="#73bf44" d="m135.8 107.5.8-1.1-2 .3-1.2-1.4-1.2.1.5-1.6-1.4.2.3-2-1.7 1.2-1.2-.6-.8 1.8-1-.7-1.2 1.8-.4-1c-.5-1-1 1-1 1l-2-.9.8-.4h.3l-.1-.1 1.5-1-1.7-.2 2.3-1.3-1.4-.4 1.6-1-1.4-1 1.8-.8-2-.8 2.4-1.5-1.5-.5-.3-.7 1.2-1.3-1.7-.3 1-1.2-1.4-.2.7-1-1.5-.4 1.2-1.7-1.7-.1v-1.2l-.2-2.1 1.9-1.2-1.8-.4 1.8-.6-.4-1.7-1.7-1.6 2 .5.7-1.8 1.7 1 1-2 1.6.8 2.6-1.5-1.6-1.2 2 .1-.9-1.4 1.6-.3 1.2-1.5-1.2-.4 1.2-1.6-2.7-.6 1.2-1.1-1.7-.5 2-1.5-1.8-1.8 1.4-1.2-1.1-.7 3.2-1-1.1-1.5 2-.1-.8-1 1.5-1.3-1-.3 3.2-2.7-3.1-1 2-2-3.2-.5.5-1-1.5.2v-1.7l-1 .5.4-3.4H131l3.3-2.8h-2.9l1.3-2.8-1.7.2-.3-1.5-1.3 1.5-.7-1.3.2 2-1.4-1.3-2-.6.2-2-2.1.4.4-2-2.5-.3.4-1h-1l.4-1.5-2-.3.9-1.5-3.5-.7.5-1.5-3.2.9.3-1.8-2 .9-.4-1.6-.7.8-1-1.4-.7 1.5-1.3-1 .2 1.8-4.7-1.1 1.2-1.7-1.8-.8 2.3-1-1.8-1 1.4-1.3-2.5-1 1.5-1.3-2.7.4.3-1.7-2.1.4.4-1.6-2.3.6-.8-1.6-1 2-.4-1-2.6-.3 1.6-1.8L93 15l2-1.1-2.8-.7-.2-1.9-1.4 1.2-1.1-1.2-.9 1.4-1.8-.1 2.2-1.5-1.2-.4 2-1-1.5-.5-.3-1.5-2 .6-1.7.8-1.6-1.5-.8 1.3-.3-1.8-.8.3.2-1.7-1.2.1.5-2.2-2.6-1 1-1-2-.4.7-1.6-2.2 1.4-.4-1.2-1 1.8L72.5 0v1.7l-2.8.7-1.8-1.3-.4 2-.9-.4L65.3 4 64 2.8l-.7.7-.6-2-.7 1-.7-1.8-.7 1.3-1.2-1v2.1l.1 3-1.1-.6 1 2.1-.6-.2.6 2.3-1.6-.6 2.1 2.2h-.7l-.6 1.2 2.4.4-1.8 1.2 1 2-2.1-.4 1 1.7H57l.7 1-2 .5L55 17l-.8 1-1.8-1.7-.8 1.1-1-1.6-1.8.7-.7-1-.8.8-1-.9-.8 1.4-1.1-.9.6 2.9-1.5-1.1 1 1.8-.9.7 1.4.4-.5 1.9-.7-.9-.4 1-1-.8v1.6l-1.6-1v1.7l-.6 1 .8 1.5h-2.2l1.9 1.9h-.8l-.2 1.6 1.3-.3-.6 1 1.2.1-.6 1v.7l-1.5-.1.1 1.4-1.6-.3 1.2 1.8-1.7-.3-.4 1-1.4-1.1-.8.4v-1.2l-1 .5-.5-1.2-1 1.8-1-1.2-1.8 1.6 1.7 1.4h-2.1l-.7.5-1.2-1.5L27 38l-.4-.6.2 2.6a4.7 4.7 0 0 1 0 1l.2.3h-1.2l.5 2-1.6-1.6L24 43 23 42l-.8 2-.5-.2.9 2-1 .2 1.8 1-.2 1.3 1.7-.4-.7.9 1.8 1-1.4.5 1.2 1-1.1.1v1.4l-1-.7v1h-1.4l1.3 1-.8 1.3 1 .2.7 1.2.8-.7v1l1.8-.4-1 1.1.5.3 1.5 1.2h-2.4l.5 1.3-2.6-1.1-.2 1.6-1.3-1.4-1.7 1-.9-1-.4 1.2-2.2-.3 1.1 1.1-.4 1.3-.9 1 1.3.5-.5.4 1.4.5-.5 1.1h1.2v1.7l2-1.1-.6.9 2 .5-1 .8v1.2h-2l.7.8-1.7.9 2.5 1.3-.8 1.3 1.2.2-1 2 1.9-.8-.5 2 2-1v.8l2.1-.4-1.8 2 1.7.7-2 1.2 2 .2-.4 1.2 1.5-.1-.7 1 1.6.4v1.6l1.9-1-.7 1.7h2l-1 1 2 1-1.4.3-.6 1.5-1-.6-.7 1.9-1.7-1-.7 1.5-.9-1.6-.5 1.1-1.7-1.4-.6.7-.5-1.1-3 .7-.6-1.5-.6 1.2-1.6-1.2-.5 1.6-1.6-1.3 2 3.8-3-.9 1.8 1.8-1.6.7h.5l.5 1.8-1.6.3.8.8-1.9.7 1.6 1-.7 1h.9l-.2 1.2 1.8-.3-.2 1 1.2-.3.4.7 1-.2 1 1.7 1.3-.7.6 1.7 1-1.4.7 1 1.2-1.7.8 1.3.7-1.4v1.3l1.3 1-1 .4-.6 1.7-1.7.5.9 1-1.2 1h.7l-.5 2.5 1.5-.2-.4 1.8 1-.2-.2 1H26l-.7 1.3 1.5.5v1.7l1.3-.2-.4 1.5 1.2-.5.1 1.3 1.2-.4.7.8 1.4-1.8v1l1-.5-.3 1.6h.8v1l2 .2.6 1.3 1.2-1 1.7 1.2 1-.6.4 1 1.4-.8.2 2.3 1.7-1 .6 1.2 1-.8.8.5.8-2.3 1.2 1 1.2-2 .7 1 1-1.1.7 1.7.8-.4.1 1.6 1.4-.3-.3 1 1.5-.5-.2.8 1.5-.2.2-.1.4.2-.4 1.2h1.2v1.5l1.5-.3v1.3l1.9-2.2v1.9l.8-2 1 .3v-.1l1.2-1 .5-.1.2.8.3-.2v.6l1.1-1 .1.1.2 1.7 1.3-1 1.2-.3.1-.2.1.1.7-1 1.2 1.3.1-1.7.4.2-.1-.8.3.1v.1h.1l.3.2h.4l.3 1.3L75 125l1.3 1.3.4-1.4 1.5.8.3-1.6 1.6.9.1-.4.7.3-.9.8 1 .5-.6 1 2-.2-.2 1.5 2.3.3v-2.2l1.4 1.7.7.2-.3 1.8 1.6-.8-.2.7 1.9-1.7a4.4 4.4 0 0 1 .8-.7v-.3l.8 1 1.2-1.7-.2 2.2 1.4-.5-.1 1.6 2.1-.8.2.6 1-2 .8.7-.4-2 1.1-.6-1.4-1.1h1.1v-1l1.9-.2.7-1.4.4.3v.6l.4-.3 1 .9-.1-.5.3.3v-1.5l.8-.2h.8l-.1-.2-.1-.2-.4-.6.6-1.3h-.6v-.6l.2-.2-.2-.3v-.4l2.2 1 1-.5.9 1.2.5-.1 1.2.4v1h.3l-.2.5 1.2-.3 1.1 1.9.2-1.6 1.3-.5h1.3l1.9.3 1.2-1.4.9 1 .5-1.2 2.3 1-.1-2.2 1.8.7-.4-1.7 1.5.9.4-1.5 1.3 1.6.6-1.8 1 1v-1.1l2.5.6 1.1-1.8 1.8.7-.5-1.4h3.3l-1.2-1 1.5-.8-1-.7 1.1-1-1.6-.4 2-1-1.7-.8 2.1-1Z"/></svg>