<svg xmlns="http://www.w3.org/2000/svg" viewBox="0 0 150 150"><path fill="#73bf44" d="m60.3 57.2.1.2a4 4 0 0 1 0-.5l-.1.3ZM61.3 58l.4 1 .2-.3a6.4 6.4 0 0 1-.2-1.4l-.4.7ZM62 59.4v.1-.1ZM71.2 70.8l.8-.4.1-.8a3.8 3.8 0 0 1-.4 0 16.1 16.1 0 0 1-2.2.4l-.3.2a2 2 0 0 1 .3 0 11.4 11.4 0 0 1 1.7.6ZM73.6 70.2a10 10 0 0 1-1.4 1l.2.1.4-.2-.2.3.8.4a10 10 0 0 1-.2-1.2s.2 0 .4.2a4.7 4.7 0 0 1 0-.6ZM67 67.1h.1-.1ZM75.3 70.8ZM53.8 35.7h.2v-.2l-.2.2ZM41.1 13.2ZM96.7 81.8l-.2.3h.3v-.3ZM97.8 83v-.7l-.4.7h.4ZM75.5 19.3l-.2-.7a4.5 4.5 0 0 1-.3.4l.5.3ZM60.2 51.1c-.2-.1-.4-.3-.7-.3l-1.5.5a6.2 6.2 0 0 1 1-1.6 10.4 10.4 0 0 1-2 .1 11 11 0 0 1 1.1-1.5h-.4a16.2 16.2 0 0 1-2-1l-1.9.6.5.1a9 9 0 0 1-1.2.9 3 3 0 0 1 .3.1 13 13 0 0 1 1.3 1.2h1.7a5.3 5.3 0 0 1-1 .8h.6v.2l-.2.2-.4.5a7 7 0 0 1 1 .1l.1-.3.3.4a2.5 2.5 0 0 0 .7 0s-.2.1-.5.4l.2.3a6.9 6.9 0 0 1 2-.8 2.4 2.4 0 0 1 .6-.2 3.1 3.1 0 0 1 .4-.7ZM56 36.7s0-.2-.2-.3l-.3.4.2.2.4-.3ZM52.6 45.9a2.6 2.6 0 0 1-.4.4l.4.4H54a4.8 4.8 0 0 1-1.2 1 6.8 6.8 0 0 1 1 .1 5.6 5.6 0 0 1 1.2-1.7l-1.2.5.7-1.1a2.7 2.7 0 0 1-1.8.4ZM53.9 43.2l-.2.7a8.8 8.8 0 0 1 1.5-.3 12.7 12.7 0 0 1-1.3-.4ZM53.6 37.4a3 3 0 0 0 1 .2 9 9 0 0 1-1.8 1c.2 0 .4.3.7.5a8.4 8.4 0 0 1-1.2.3 3.8 3.8 0 0 0 1.1.4s-.3.2-.7.4a4.8 4.8 0 0 1-.1 1.1l1-1.1a4.5 4.5 0 0 1-.2 1.7l.7-.7v.6l.6-.1a7.3 7.3 0 0 1-.8-3.4 10.5 10.5 0 0 1 1.2.8 8.3 8.3 0 0 1 0-1.4h-.4a5.3 5.3 0 0 1 .5-.4V37H55v-.5a6.5 6.5 0 0 1-1.5.8ZM72 90.2h.5l.1-.2a3.1 3.1 0 0 1-.5.2ZM73 87.9a6.2 6.2 0 0 1 1-1.7 9.8 9.8 0 0 1-2.1.3 12.5 12.5 0 0 1 .8-1.3 5.8 5.8 0 0 1-1.1-.5 3 3 0 0 0 .5 1 9.2 9.2 0 0 1-2-.8l.2 1a9.5 9.5 0 0 1-1.1-.7 7.8 7.8 0 0 0 .3.8 6 6 0 0 1 2.4.8 9.3 9.3 0 0 1-1.3.7 1.8 1.8 0 0 1 .3.2 12.5 12.5 0 0 1 1 1.4l1.3.2a3.1 3.1 0 0 1 1.6-1 3.4 3.4 0 0 1 .4-.8c-.3 0-.5-.2-.7-.3L73 88ZM70.6 91.5a8.1 8.1 0 0 1 .8.8 13 13 0 0 1 .7-1.5 10.5 10.5 0 0 1-1.5.7ZM95.2 82a3.5 3.5 0 0 1-.4.4 2.2 2.2 0 0 1 .4 0V82ZM76 15.5a3 3 0 0 1-.6.6l.6-.2v-.4ZM97 83l-.2.2h.2V83ZM59.3 54.6l-.8.5a6.9 6.9 0 0 1-.4.6h1a8.5 8.5 0 0 1-.9 1 3.9 3.9 0 0 0 1.2-.4s-.1.3-.4.7a4.8 4.8 0 0 1 .6 1l.1-.7a14 14 0 0 1-.4-2.7ZM97.2 84.4l.8-.1-.1-.4a4.3 4.3 0 0 1-.7.5ZM75.1 18a3.6 3.6 0 0 1-.4.7l.5-.2V18ZM74.9 19.2a2.7 2.7 0 0 1-.4.4h.6l-.2-.4ZM75.3 17.3l.6.2a8.4 8.4 0 0 1 0-1.4 8.6 8.6 0 0 1-1 1l.4.2ZM74.7 20.3l-.2.2a4.8 4.8 0 0 1 1 .3 49 49 0 0 0-.4-1.2 3.5 3.5 0 0 1-1 .7 1.8 1.8 0 0 0 .6 0ZM24.4 64.7h.2-.2ZM54.7 35.8v-.1h-.1l.1.1ZM72.8 22.3h-.2l.2.1v-.1Z"/><path fill="#73bf44" d="M141.7 32.8a13.8 13.8 0 0 0-3.8.1 14.3 14.3 0 0 0 .7-3.4s0 .1-.9.9a5.8 5.8 0 0 0 .5-2.2s-.6.5-1.5 1.3a6 6 0 0 0 .3-1.4l1-.4a4.9 4.9 0 0 1-1.5-.6 11 11 0 0 0 1.6-.4 10 10 0 0 0-.9-.7 11.5 11.5 0 0 0 2.4-1 3.7 3.7 0 0 1-1.2-.4A10 10 0 0 0 141 23a8.6 8.6 0 0 0-2.6-.7l.2-.5h.7a3 3 0 0 1-.7-.5l.1-.6-.3.3a8.2 8.2 0 0 0-1-1 11 11 0 0 0 1.3-.4A7.4 7.4 0 0 0 136 18a12.6 12.6 0 0 0 1.1-2.3 13.5 13.5 0 0 0-3.4 1.6 14.3 14.3 0 0 0-.6-3.4s0 .1-.5 1.2a5.8 5.8 0 0 0-.4-2.3s-.4.8-1 2a16 16 0 0 0-2 .9l-.4.2a11.3 11.3 0 0 0-.3-1.8 9.6 9.6 0 0 0-1.3 1.6 6.2 6.2 0 0 0-.4-1.9s-.3.6-.7 1.5c-.3 0-.5.1-.8.3a3.4 3.4 0 0 0-.2-.8c1.4-1.9-.4-5.8-.4-5.8a14 14 0 0 0-1.3 3.5l-.7-.6-.1-.8-.5.4a10 10 0 0 0-.5-.3 12.2 12.2 0 0 0-.5-2 3.8 3.8 0 0 1-.6 1.2 9.9 9.9 0 0 0-1-3 9 9 0 0 0-1 2.2 10.9 10.9 0 0 0-.9-1 14.6 14.6 0 0 1-.1 2.4 6.7 6.7 0 0 0-.6-.5s0 .8 0 2a5.3 5.3 0 0 0-1.2-1 12.7 12.7 0 0 0-.6-2 13.6 13.6 0 0 0-1.4 3.6 12.2 12.2 0 0 0-1.3-1.1l.1-.2h-.3a13.2 13.2 0 0 0-1.3-.7s.1 0 .5 1a5.9 5.9 0 0 0-1.8-1.2l.5 1.7a9.8 9.8 0 0 0-1 .5 14.2 14.2 0 0 0-.5-3.4s0 .1-.5 1.1a5.8 5.8 0 0 0-.3-2.3s-.4.8-1 2a15.5 15.5 0 0 0-2.2.7 3.8 3.8 0 0 0-.4.2 11.3 11.3 0 0 0-.2-1.8 10.3 10.3 0 0 0-1.4 1.4 6.1 6.1 0 0 0-.3-1.8s-.3.5-.8 1.4c-.2 0-.4 0-.7.2a3.4 3.4 0 0 0-.2-.8c1.6-1.7 0-5.8 0-5.8A13.8 13.8 0 0 0 99 7.6a14.2 14.2 0 0 0-2.7-2.1s0 0 .4 1.1a5.8 5.8 0 0 0-1.8-1.4l.5 2a6.3 6.3 0 0 0-1.4-1l.7 2.5a2.4 2.4 0 0 0 .1.5 4.6 4.6 0 0 0-1-.8l-.1-.8a2.9 2.9 0 0 1-.4.6 5 5 0 0 0-.5-.2l.3.5a7.7 7.7 0 0 0-.6.7A9.9 9.9 0 0 0 92 6a8.8 8.8 0 0 0-1.5 2.3A4.2 4.2 0 0 0 90 8l.2-.7a3 3 0 0 1-.8.4l-.5-.2.2.4a7.8 7.8 0 0 0-1.3.6 11 11 0 0 0 .1-1.4 7.4 7.4 0 0 0-2.6 2.2 12.6 12.6 0 0 0-1.8-1.8 13.8 13.8 0 0 0 .4 3.7 14.3 14.3 0 0 0-3.4-.4s.1 0 1 .8a5.9 5.9 0 0 0-2.3-.3s.7.6 1.6 1.5A14.6 14.6 0 0 0 81 15a3.9 3.9 0 0 0 .1.5 11.5 11.5 0 0 0-1.8-.3 7.7 7.7 0 0 0 2 2.6A9.8 9.8 0 0 1 81 19a10.7 10.7 0 0 0-.7-1.5l-.6 1a11.5 11.5 0 0 0-1.5-2.1 3.8 3.8 0 0 1 0 1.3 9.6 9.6 0 0 0-2-2.3l.2-.2-1 .1a4.7 4.7 0 0 0-1-.3 1.5 1.5 0 0 0-.2 0 6.8 6.8 0 0 0 .6-1 5.6 5.6 0 0 0-1.3.2 3.9 3.9 0 0 0 .6-1l-.9.4-.4-.2a2 2 0 0 0 .1-.4 6.3 6.3 0 0 0 1.5-2.4 11.7 11.7 0 0 0-1.3.6 8.6 8.6 0 0 0-.4-2s0 0-.3.7a3.6 3.6 0 0 0-.3-1.4s-.2.5-.5 1.2a3.9 3.9 0 0 0-.2-.9l.4-.5a2.9 2.9 0 0 1-1 .1 7 7 0 0 0 .8-.6l-.7-.2A6.9 6.9 0 0 0 72 6.3a2.3 2.3 0 0 1-.8.1A6 6 0 0 0 72.3 5a5.2 5.2 0 0 0-1.6.3v-.3l.4-.2a1.9 1.9 0 0 1-.5-.2 3.3 3.3 0 0 0-.2-.3s0 0 0 .2a5.2 5.2 0 0 0-.9-.3 7.1 7.1 0 0 0 .7-.5 4.5 4.5 0 0 0-2.1-.2 7.9 7.9 0 0 0 0-1.6 8.5 8.5 0 0 0-1.4 1.8A8.7 8.7 0 0 0 65.4 2s0 .1 0 .8a3.5 3.5 0 0 0-.8-1.1s0 .5 0 1.3l-.6.7a6.3 6.3 0 0 0-.9-1.6 6 6 0 0 0-.3 1.2 3.7 3.7 0 0 0-.7-1s0 .5 0 1l-.4.4a2.3 2.3 0 0 0-.3-.4c.4-1.4-1.6-3.2-1.6-3.2a8.7 8.7 0 0 0 0 2.3 8.8 8.8 0 0 0-2-.4s0 0 .6.5a3.5 3.5 0 0 0-1.4-.3s.3.4.8 1a3.9 3.9 0 0 0-.9-.2l-.2-.6a2.9 2.9 0 0 1-.3 1 7 7 0 0 0-.3-1l-.4.5a7 7 0 0 0-.7-1.5 2.2 2.2 0 0 1-.2.8 6 6 0 0 0-1-1.7 5.4 5.4 0 0 0-.3 1.4 6.5 6.5 0 0 0-.6-.5 9.1 9.1 0 0 1 .1 1.5 3.6 3.6 0 0 0-.4-.3s.1.5.3 1.2a3.4 3.4 0 0 0-.9-.4 7.7 7.7 0 0 0-.5-1.1 8.2 8.2 0 0 0-.5 2.2 8.9 8.9 0 0 0-1.9-.9l.4.7a3.7 3.7 0 0 0-1.3-.6l.7 1.1a9.5 9.5 0 0 0-.3 1.4 2.3 2.3 0 0 0 0 .3 7.3 7.3 0 0 0-1-.5 6 6 0 0 0 .2 1.2 3.7 3.7 0 0 0-1-.5s.2.4.4.9l-.1.4a2 2 0 0 0-.4-.1c-.5-1.4-3-2-3-2a8.5 8.5 0 0 0 1.2 2 8.9 8.9 0 0 0-2 .7s.1 0 1.1.3a3.1 3.1 0 0 0-1.2 1.2s.4-.2 1.2-.3a4 4 0 0 0-.6.7h-.6a3 3 0 0 1 .6.7 7 7 0 0 0-1-.3l.2.6a7 7 0 0 0-1.6-.2 2.3 2.3 0 0 1 .6.6 6.1 6.1 0 0 0-2 0 6 6 0 0 0 1 1c-1 0-1.4 1.7-1.4 1.7l1-.6a3.7 3.7 0 0 0-.3.8h-.6l1.2 1-.3.3a7.6 7.6 0 0 0-1 0 2.4 2.4 0 0 1 .7.5l-.3.6.7-.2.2.2a2.8 2.8 0 0 0 .3.2 6.5 6.5 0 0 0-1 .6 6 6 0 0 0 1.2.4 3.8 3.8 0 0 0-1 .7s.4 0 1 0l.4.5a7 7 0 0 0-1 .3 6 6 0 0 0 1 .7 3.8 3.8 0 0 0-1.1.4s.3 0 .9.3a7 7 0 0 0-1.7.4c.6.1.5.3 1.5.7a1.9 1.9 0 0 0 .3 0 6.9 6.9 0 0 0-.7 1 6.2 6.2 0 0 0 1.2 0 3.9 3.9 0 0 0-.7.9s.4-.1 1-.3l.4.3a2.9 2.9 0 0 0-.6 1.6 11.2 11.2 0 0 0-1.2-1.3s0 .2.1 1a4.5 4.5 0 0 0-1.2-1.3s.1.6.2 1.6a4.6 4.6 0 0 0-.8-.8l.2-.8a6.3 6.3 0 0 1-1.3.8 8.8 8.8 0 0 0 .3-1.6l-.8.5a9 9 0 0 0 0-2.1 2.8 2.8 0 0 1-.7.8 7.8 7.8 0 0 0-.2-2.5 7.2 7.2 0 0 0-1.3 1.6 9.2 9.2 0 0 0-.4-1 12 12 0 0 1-.6 1.8 4.7 4.7 0 0 0-.3-.5s0 .6-.3 1.5a4.3 4.3 0 0 0-.8-.9 10.4 10.4 0 0 0-.1-1.6 10.7 10.7 0 0 0-1.7 2.5 11.1 11.1 0 0 0-1.7-2s0 0 .1 1.1a4.1 4.1 0 0 0-2-.7s.4.5 1 1.4a11.2 11.2 0 0 0 0 1.7 3 3 0 0 0 0 .4 9.1 9.1 0 0 0-1.1-.4l-.3-.2.2 1.2-.4.5a3 3 0 0 0-.4-.4c0-1.8-3-3.5-3-3.5a10.8 10.8 0 0 0 .8 2.8 11.1 11.1 0 0 0-2.7 0s.1.1.8.6a4.6 4.6 0 0 0-1.7 0s.5.4 1.3 1a4.8 4.8 0 0 0-1.2 0l-.4-.7a3.8 3.8 0 0 1-.2 1.2 9 9 0 0 0-.6-1.1 8.6 8.6 0 0 0-.4.8 9.1 9.1 0 0 0-1.2-1.7c0 .8-.2.8-.2 2.2a2.3 2.3 0 0 0 .1.8 5 5 0 0 0-.8-.2s.4.5 1 1.4a12.6 12.6 0 0 0-.3 1.7 3 3 0 0 0 0 .4 9 9 0 0 0-1.4-.5 7.6 7.6 0 0 0 .6 1.5 4.8 4.8 0 0 0-1.5-.5s.3.4.7 1v.6c-1-1.4-4-1.8-4-1.8a10.7 10.7 0 0 0 1.8 2.3 11.2 11.2 0 0 0-2.4 1.1s.1 0 1 .2a4.5 4.5 0 0 0-1.7.7s.7.1 1.6.3a5.1 5.1 0 0 0-1.3.7s.9.1 2 .4a1.6 1.6 0 0 0 .5 0 3.8 3.8 0 0 0-1 .5l-.6-.2a2.3 2.3 0 0 1 .3.5 4.1 4.1 0 0 0-.3.2s.1 0 .4 0l.3.7a7.8 7.8 0 0 0-2.4-.8 6.7 6.7 0 0 0 1 1.9l-.3.2-.4-.4a2.4 2.4 0 0 1 0 .6l-.3.3h.3a6.8 6.8 0 0 0 0 1.2 9.2 9.2 0 0 0-1-.6 5.7 5.7 0 0 0 .6 2.6 10 10 0 0 0-1.9.6 10.8 10.8 0 0 0 2.8 1 11.3 11.3 0 0 0-1.6 2.2s.1 0 1-.3a4.6 4.6 0 0 0-1.1 1.4s.7-.2 1.6-.5a13 13 0 0 0 1.6.7 3.4 3.4 0 0 0 .4 0 8.5 8.5 0 0 0-.9 1.2 6 6 0 0 0 2.6-.4 7 7 0 0 1 .6.6 9 9 0 0 0-1.3 0l.5.7a9.1 9.1 0 0 0-2 .3 4.8 4.8 0 0 1 1.1.7l-.2.1a7 7 0 0 0 1.8 1 9.8 9.8 0 0 0-.8.6 2.4 2.4 0 0 1 .7 0l-.1.1h1.6a4.2 4.2 0 0 0-.8 1 10 10 0 0 0-1.5.4 8.9 8.9 0 0 0 3.5 1.3 8.1 8.1 0 0 0-.5.8h.9a9 9 0 0 0-.9 1.8 3 3 0 0 1 1-.4 7.8 7.8 0 0 0-.8 2.3A7.5 7.5 0 0 0 19 61a9.5 9.5 0 0 0-.7 1 10.6 10.6 0 0 0 2.8-.9 11.1 11.1 0 0 0 .1 2.2 5 5 0 0 0-.2.8s.6-.4 1.5-1a12.3 12.3 0 0 0 1.7.4 2.6 2.6 0 0 0 .4 0 8 8 0 0 0-.3.6l-.5.2.3.1v.3a5.1 5.1 0 0 0-1.2.2s.5.3 1.4.8a5 5 0 0 0-1.2.2l-.5-.6a3.9 3.9 0 0 1 0 1.2 9.3 9.3 0 0 0-.8-1.1 8.8 8.8 0 0 0-.3.8 9 9 0 0 0-1.3-1.5 3 3 0 0 1 0 1 7.7 7.7 0 0 0-1.8-1.6 7.6 7.6 0 0 0 0 1.7c-1-.7-2.7.6-2.7.6l1.5.3a4.7 4.7 0 0 0-1 .5 6.8 6.8 0 0 0-.7-.4 11.8 11.8 0 0 1 .5 1.8l-.6.1a9.5 9.5 0 0 0-.9-.8 3 3 0 0 1 .1 1l-.7.4.8.3v.5a3 3 0 0 0 .1.3 8.3 8.3 0 0 0-1.4-.2 7.7 7.7 0 0 0 .9 1.4 4.8 4.8 0 0 0-1.5-.2s.3.4.9.9v.8a8.8 8.8 0 0 0-1.3-.6 7.7 7.7 0 0 0 .4 1.5 4.8 4.8 0 0 0-1.4-.5s.3.4.6 1a8.9 8.9 0 0 0-2-1c.5.7.3.8 1 2a2.6 2.6 0 0 0 .2.3 8.4 8.4 0 0 0-1.4.3 8 8 0 0 0 1.2 1 4.9 4.9 0 0 0-1.5.3s.5.2 1.2.6a9.4 9.4 0 0 0 .6 1.5 2.9 2.9 0 0 0 .3.5 10.9 10.9 0 0 0-.6 1s.1 0 1-.4a4.7 4.7 0 0 0-1 1.5s.5-.3 1.4-.6a5 5 0 0 0-.6 1H11c.7.4.5.6 1.6 1.5a2.5 2.5 0 0 0 .5.4 9.9 9.9 0 0 0-1.5.6 11.6 11.6 0 0 1 1.7.6 4.8 4.8 0 0 0-.5.3s.6.2 1.5.5a4.2 4.2 0 0 0-1 .6 10 10 0 0 0-1.6 0A10.8 10.8 0 0 0 14 89a11 11 0 0 0-2.1 1.6s0 0 1 0a4.5 4.5 0 0 0-1.5 1s.5 0 1.2 0a5 5 0 0 0-.6.6s.2 0 .5 0a9.8 9.8 0 0 0-1.3.7 3.2 3.2 0 0 1 1 .2c-1 2 .7 5.4.7 5.4l.2-1a4.5 4.5 0 0 0 .6 1.8s.1-.6.5-1.5a5 5 0 0 0 .5 1.3s.2-.9.6-2a2 2 0 0 0 .1-.4 3.4 3.4 0 0 0 .4 1l-.3.6a2.5 2.5 0 0 1 .5-.3l.2.4v-.5a6.4 6.4 0 0 0 .8-.2 7.7 7.7 0 0 0-1.1 2.3 7 7 0 0 0 2-.8l.1.3-.4.4a2.2 2.2 0 0 1 .6 0 3.7 3.7 0 0 0 .3.4s0 0 0-.3a6.8 6.8 0 0 0 1.2.1 8.4 8.4 0 0 0-.7.9 5.8 5.8 0 0 0 2.6-.3 10.3 10.3 0 0 0 .4 2 11 11 0 0 0 1.4-2.7 11.2 11.2 0 0 0 2 1.8s0 0-.3-1a4.6 4.6 0 0 0 1.4 1.3s-.2-.7-.4-1.7a12.5 12.5 0 0 0 .9-1.5v-.4a8.2 8.2 0 0 0 1.1 1 6.4 6.4 0 0 0 0-2.4l.5-.4-.1 1 .8-.5a9 9 0 0 0 0 2 3.1 3.1 0 0 1 .7-.8 7.9 7.9 0 0 0 .2 2.5 8 8 0 0 0 1-1 9.3 9.3 0 0 0 .8 1.6 2.4 2.4 0 0 1 .1-.8 4.7 4.7 0 0 0 .7 1.5s.1-.3.2-.8a4.3 4.3 0 0 0 .8 1 10.2 10.2 0 0 0 0 1.9 11 11 0 0 0 1.9-2.2 11.3 11.3 0 0 0 1.5 2.2s0-.1 0-1a4.6 4.6 0 0 0 1 1.5s0-.7 0-1.7a11.7 11.7 0 0 0 1.3-1.3 2 2 0 0 0 .2-.3 8.9 8.9 0 0 0 .8 1.2 7.7 7.7 0 0 0 .4-1.6 5 5 0 0 0 .9 1.3s0-.5 0-1.3l.5-.4a2.6 2.6 0 0 0 .3.4c-.4 1.8 2.2 4 2.2 4a10.8 10.8 0 0 0-.2-2.9 11 11 0 0 0 2.7.5s-.1 0-.7-.6a4.5 4.5 0 0 0 1.7.3s-.4-.5-1-1.2a5 5 0 0 0 1 .2l.4.7a4 4 0 0 1 .4-1.1 8.8 8.8 0 0 0 .3 1.2l.6-.7a9.2 9.2 0 0 0 .9 2 3 3 0 0 1 .2-1.1 7.8 7.8 0 0 0 1.2 2.1 7.9 7.9 0 0 0 .5-1.4l.4-.5a5.1 5.1 0 0 0 1 0s-.3-.2-.7-.6l.3-.5a11.3 11.3 0 0 0 1.7 2s0 0 0-1a4.6 4.6 0 0 0 1 1.4s0-.7 0-1.7a12.5 12.5 0 0 0 1-1.4 2.8 2.8 0 0 0 .1-.3 8.7 8.7 0 0 0 1 1 7.9 7.9 0 0 0 .2-1.5 4.8 4.8 0 0 0 1 1s0-.4 0-1.2c0-.2.2-.3.3-.5a2.6 2.6 0 0 0 .5.5c-.2 1.8 2.6 3.7 2.6 3.7a10.7 10.7 0 0 0-.6-2.9 11.2 11.2 0 0 0 2.7.2s0 0-.7-.6a4.6 4.6 0 0 0 1.7.1s-.5-.4-1.2-1a5 5 0 0 0 1.4 0s-.7-.5-1.6-1.3a1.8 1.8 0 0 0-.3-.3 3.5 3.5 0 0 0 1 0l.5.5a2.4 2.4 0 0 1 0-.5h.3l-.3-.3a6.2 6.2 0 0 0 0-.7 7.8 7.8 0 0 0 1.7 1.8 6.8 6.8 0 0 0 0-2.1h.4c0 .3.2.5.2.5a2.3 2.3 0 0 1 .3-.6 3.8 3.8 0 0 0 .4 0s-.1-.1-.3-.2a6.9 6.9 0 0 0 .6-1 8.4 8.4 0 0 0 .5 1 5.8 5.8 0 0 0 .7-2.7 9.8 9.8 0 0 0 2 .4l-.9-1a13.3 13.3 0 0 0 2.8-1.6l.2 1-.5.6h.6l.2.6a12.2 12.2 0 0 0-1 1.7 26 26 0 0 1 2.5-.9 5.9 5.9 0 0 0-.1 2.2s.5-.6 1.3-1.5a6.2 6.2 0 0 0 0 1.7s.6-.8 1.7-2a5.8 5.8 0 0 0 0 2.3s.6-.8 1.4-2a12.1 12.1 0 0 0 1.3 1.7 4 4 0 0 1 .1-1.4 6.3 6.3 0 0 0 1 1.4s0-.7 0-1.7a14.3 14.3 0 0 0 2 2s0-.2-.2-1.3a5.9 5.9 0 0 0 1.6 1.6s-.1-.8-.3-2a6.2 6.2 0 0 0 1.3 1.2s0-.2 0-.7c2.2 1.2 5.8.5 5.8.5l-1.1-.7a6 6 0 0 0 2.3 0s-.8-.5-1.8-1.3a17.2 17.2 0 0 0-.6-2.1 3 3 0 0 0-.2-.5 11.4 11.4 0 0 0 1.8 0 10 10 0 0 0-1.4-1.5 6 6 0 0 0 2-.2s-.6-.3-1.4-.9l-.2-.7a3.5 3.5 0 0 0 .8-.1c1.7 1.6 5.8.4 5.8.4a13.9 13.9 0 0 0-3.3-1.8 13.9 13.9 0 0 0 2-2v.4c.4-1 .7-.8 1.5-2.4a3 3 0 0 0 .2-.4 11.3 11.3 0 0 0 1.3 1.3 9.8 9.8 0 0 0 .2-2 6.3 6.3 0 0 0 1.4 1.3s-.1-.6-.3-1.6l.5-.6c1.9 2.2 6.7 1.6 6.7 1.6l-1-.7a6 6 0 0 0 2.3 0s-.7-.5-1.6-1.2a6.3 6.3 0 0 0 1.4 0l.6.8a5 5 0 0 1 .3-1.5 11.7 11.7 0 0 0 .7 1.5 11 11 0 0 0 .5-1 11.4 11.4 0 0 0 1.5 2.2 3.8 3.8 0 0 1 .1-1.4 9.9 9.9 0 0 0 2 2.5 9.7 9.7 0 0 0 .2-2.2 12.6 12.6 0 0 0 .7 1.5 13.7 13.7 0 0 0 1-3.6 14 14 0 0 0 3 1.6l-.6-1.1a5.8 5.8 0 0 0 2 1s-.4-.7-1-1.9a15.5 15.5 0 0 0 .7-2.1v-.5a10.7 10.7 0 0 0 1.7 1 10 10 0 0 0-.4-2.1 6.3 6.3 0 0 0 1.7.9s-.3-.6-.7-1.5l.3-.7a3.5 3.5 0 0 0 .7.3c.5 2.2 4.7 3.3 4.7 3.3a13.7 13.7 0 0 0-1.9-3.2 14.2 14.2 0 0 0 3.3-1s-.1 0-1.1-.3a5.8 5.8 0 0 0 2.1-.7s-.7-.2-1.9-.6a6.5 6.5 0 0 0 1.7-.6s-1-.4-2.5-1a2.3 2.3 0 0 0-.5-.1 4.4 4.4 0 0 0 1.3-.4l.7.4a3.5 3.5 0 0 1-.3-.6l.5-.3-.6-.1a7.7 7.7 0 0 0-.2-1 9.9 9.9 0 0 0 2.9 1.5 8.6 8.6 0 0 0-1-2.5l.5-.2.4.6a2.8 2.8 0 0 1 0-.9l.6-.3h-.4a8.8 8.8 0 0 0 .2-1.5 11.3 11.3 0 0 0 1 1 7.3 7.3 0 0 0-.2-3.5 12.8 12.8 0 0 0 2.5-.4 13.8 13.8 0 0 0-3.3-1.8 14.2 14.2 0 0 0 2.4-2.5s-.2 0-1.2.3a5.9 5.9 0 0 0 1.5-1.6s-.8.1-2.1.3a15.3 15.3 0 0 0-2-1.1 4.6 4.6 0 0 0-.4-.2 10.5 10.5 0 0 0 1.3-1.3 8.2 8.2 0 0 0-3 0l-.6-.7a11.4 11.4 0 0 0 1.3.2 12 12 0 0 0-.6-1 11.4 11.4 0 0 0 2.7 0 3.8 3.8 0 0 1-1-.9 9.9 9.9 0 0 0 3-.2 10.3 10.3 0 0 0-1.2-1.2 12 12 0 0 0 2.1-1 3 3 0 0 1-1-.3 6 6 0 0 0 2-.8s-.4 0-1-.2a5.4 5.4 0 0 0 1.3-1 12.6 12.6 0 0 0 2.4.1 13.8 13.8 0 0 0-2.8-2.5 14.2 14.2 0 0 0 3-1.9s-.2 0-1.3 0a5.8 5.8 0 0 0 1.9-1.2s-1 0-2.2-.2a16 16 0 0 0-1.6-1.6 3.1 3.1 0 0 0-.4-.2 11.3 11.3 0 0 0 1.6-1 10.4 10.4 0 0 0-2-.6 6 6 0 0 0 1.6-1.1s-.6 0-1.6-.1l-.5-.6a3.3 3.3 0 0 0 .6-.4c2.3.6 5.3-2.6 5.3-2.6ZM41 13.2Zm55.6 68.6v.2h-.2l.2-.2Zm1.1 1.2h-.4l.4-.7v.7ZM59.1 52a6.9 6.9 0 0 0-2 .8v-.3l.4-.4a2.5 2.5 0 0 1-.7 0l-.3-.4v.3a7 7 0 0 0-1.1 0l.4-.6.2-.2V51h-.6a5.3 5.3 0 0 0 1-.8s-.7 0-1.7 0a13 13 0 0 0-1.3-1.2 3 3 0 0 0-.3-.1 9 9 0 0 0 1.2-.9l-.5-.1 1.8-.6a16.2 16.2 0 0 0 2 1h.5a11 11 0 0 0-1 1.5 10.4 10.4 0 0 0 2-.1 6.2 6.2 0 0 0-1 1.6s.5-.3 1.4-.5c.3 0 .5.2.7.3a3.1 3.1 0 0 0-.4.7 2.4 2.4 0 0 0-.7.2ZM55 46a5.6 5.6 0 0 0-1.3 1.7 6.8 6.8 0 0 0-.9-.2 4.8 4.8 0 0 0 1.2-.9s-.5 0-1.3 0l-.4-.4a2.6 2.6 0 0 0 .4-.4 2.7 2.7 0 0 0 1.8-.4l-.7 1 1.2-.4Zm1-9.7.2.3a5 5 0 0 0-.4.3l-.2-.2.3-.4Zm-2 6.8a12.7 12.7 0 0 0 1.3.4 8.8 8.8 0 0 0-1.5.3l.2-.7Zm7.8 15.7-.4-.9.4-.7a6.4 6.4 0 0 0 .2 1.4l-.2.2Zm.4.5-.1.1v-.1Zm-1.7-2-.1-.2.1-.3a4 4 0 0 0 0 .5Zm13 14.4-.8-.4.2-.3-.4.2h-.2a10 10 0 0 0 1.4-1.1 4.7 4.7 0 0 0 0 .6l-.4-.2a10 10 0 0 0 .2 1.2Zm-4-1.8a16.1 16.1 0 0 0 2.3-.3 3.8 3.8 0 0 0 .4-.1v.8l-1 .4a11.4 11.4 0 0 0-1.6-.5 2 2 0 0 0-.3 0l.3-.3Zm5.9.8ZM55 37.2V37v.2a5.3 5.3 0 0 0-.4.4s.2 0 .4 0a8.3 8.3 0 0 0 0 1.4 10.5 10.5 0 0 0-1.2-.8 7.3 7.3 0 0 0 .8 3.4l-.7.1v-.6l-.6.7a4.5 4.5 0 0 0 .3-1.7s-.4.4-1.1 1.1a4.8 4.8 0 0 0 .1-1.1l.7-.4a3.8 3.8 0 0 1-1.1-.4 8.4 8.4 0 0 0 1.2-.3l-.7-.6a9 9 0 0 0 1.8-.9 3 3 0 0 1-1-.2 6.5 6.5 0 0 0 1.5-.8v.6Zm-1.3-1.5.1-.2v.2ZM67 67h.1-.1Zm8.5-47.8L75 19a4.5 4.5 0 0 0 .3-.4l.2.7Zm.6-3.8-.1.4-.6.2a3 3 0 0 0 .7-.6Zm-.1.6a8.4 8.4 0 0 0 0 1.4l-.7-.2-.3-.2a8.6 8.6 0 0 0 1-1Zm-.9 2 .1.4-.5.2a3.6 3.6 0 0 0 .4-.7Zm-.2 1c0 .2 0 .3.2.5h-.6a2.7 2.7 0 0 0 .4-.4Zm.2.5.4 1.2a4.8 4.8 0 0 0-1-.3l.2-.2a1.8 1.8 0 0 1-.6 0 3.5 3.5 0 0 0 1-.7Zm-2.3 2.7v.1l-.2-.1h.2Zm-18 13.5h-.2v-.1l.1.1ZM24.3 64.7h.2-.2ZM59 57l.4-.7a3.9 3.9 0 0 1-1.2.4 8.5 8.5 0 0 0 .8-1h-.9a6.9 6.9 0 0 0 .4-.6l.8-.5a14 14 0 0 0 .4 2.7l-.1.7a4.8 4.8 0 0 0-.6-1Zm11.6 34.5a10.5 10.5 0 0 0 1.5-.7 13 13 0 0 0-.7 1.5 8.1 8.1 0 0 0-.8-.8Zm1.5-1.3a3.1 3.1 0 0 0 .5-.2l-.1.2H72Zm2.7-2a3.1 3.1 0 0 0-1.6 1l-1.2-.1a12.5 12.5 0 0 0-1.1-1.4 1.8 1.8 0 0 0-.3-.2 9.3 9.3 0 0 0 1.3-.7 6 6 0 0 0-2.4-.8 7.8 7.8 0 0 1-.3-.8 9.5 9.5 0 0 0 1.1.6l-.1-.9a9.2 9.2 0 0 0 2 .8 3 3 0 0 1-.6-1 5.8 5.8 0 0 0 1.1.5 12.5 12.5 0 0 0-.8 1.3 9.8 9.8 0 0 0 2-.3 6.2 6.2 0 0 0-1 1.7s.7-.3 1.6-.7l.7.3a3.4 3.4 0 0 0-.4.7Zm20.4-6.1v.2a2.2 2.2 0 0 0-.4.1 3.5 3.5 0 0 0 .4-.3Zm1.7 1h-.1.1Zm.3 1.3a4.3 4.3 0 0 0 .7-.5v.4l-.7.1Z"/><path fill="#73bf44" d="M54.5 150h7.8s1-8.8 4-14.8c3.1-6 6.6-7.6 9.2-16.7 2.6-9.1 1.6-9.7 6-12.8a46.7 46.7 0 0 0 12-11.5c4.7-6.1 14.7-20.6 14.7-20.6h-2.7s-6 9-10.6 14.8c-4.6 5.8-12 13.9-13.9 14-2 0-1-2.8 1-6.3a143 143 0 0 0 9.3-18.4l-4.7.3a73.9 73.9 0 0 1-7 15.5c-5.1 8.5-4.7 7.5-6.4 15a61.3 61.3 0 0 1-7 18.5c-2 2.3-2.6-3-2-7.2.5-4.2 2.6-21.9 1.2-31.3l-4 1.7s.3 12 0 18.1c-.3 6.2-1.4 13.4-1.3 15.6.2 2.2-3.1-2.8-3.1-5.5s-4-12.1-9.3-18l-1.4 1.6s5 5.3 6.5 9.8c1.3 4.5 2 9.2 4 12.8 2.2 3.7 3.2 6.4 1.8 12-1.4 5.5-3.5 9.6-4.1 13.4ZM63.9 80c14.2 0 28-12.5 27.3-27.2a27.8 27.8 0 0 0-27.3-27.3c-14.3 0-28 12.5-27.3 27.3.6 14.8 12 27.3 27.3 27.3Z"/><path fill="#73bf44" d="M72.3 90.5c7 0 7-11 0-11s-7 11 0 11ZM73.3 26c7 0 7-11 0-11s-7 11 0 11ZM90 92.8c7.6 0 7.6-11.9 0-11.9-7.7 0-7.7 12 0 12Z"/></svg>