<svg xmlns="http://www.w3.org/2000/svg" viewBox="0 0 150 150"><path fill="#73bf44" d="M7.8 51.7a1 1 0 0 1 .2 0h-.2Z"/><path fill="#73bf44" d="m149 59-3 .4a12.9 12.9 0 0 0 4-2.6s-1.6.2-4 .4a27.4 27.4 0 0 0-3.8-.8l-1.1-.1a17.8 17.8 0 0 0 2.4-2.5 35.5 35.5 0 0 0-5 .4 9.8 9.8 0 0 0 2.3-2.6l-3.7 1-1.7-.5a5.2 5.2 0 0 0 .7-1 16.5 16.5 0 0 0 5.8-6.3l-5 1.5a16.9 16.9 0 0 0-2-5.4s0 .3-1 2a7 7 0 0 0-1.3-3.6s-.7 1.2-2 3a7.2 7.2 0 0 0-.8-2.3 23 23 0 0 0 1.6-1.2 18.2 18.2 0 0 1-3.8.2 30.1 30.1 0 0 0 3.2-1.7l-2.8-.5a23.6 23.6 0 0 0 4.3-3.1 13.5 13.5 0 0 1-3.2.3 18.5 18.5 0 0 0 4.6-4 31.7 31.7 0 0 0-6.6.7 7.1 7.1 0 0 0-.2-.8l1.7-.5a11.5 11.5 0 0 1-2.1-.4 8.2 8.2 0 0 0-.5-.8s-.2.2-.4.6a32.5 32.5 0 0 0-3.4-.7 28.5 28.5 0 0 0 2.7-1.5 27.2 27.2 0 0 0-8.4-.5 13.2 13.2 0 0 0 .1-4 27 27 0 0 0-5.8 4.6 27.6 27.6 0 0 0-5.1-4.5s0 .3.2 2a11.1 11.1 0 0 0-3.4-2.9s.1 1.4 0 3.5c-.6.6-1.3.8-2.4 1.8a17.1 17.1 0 0 0-3.5-4.1 12.5 12.5 0 0 0-1.5 3.1 11.5 11.5 0 0 0-2.8-2.5s0 1-.2 2.6l-1.4.9a6.6 6.6 0 0 0-1.1-1c1.4-3.7-6.6-8.4-6.6-8.4a14.7 14.7 0 0 0 .5 6 51.8 51.8 0 0 0-8.4-1.1s.3.1 2.2 1.4a21.1 21.1 0 0 0-5.5-.7s1.4 1 3.3 2.4a22.7 22.7 0 0 0-3.5-.4 15.4 15.4 0 0 0-1-1.5 6.4 6.4 0 0 1-1.4 2.3 13.5 13.5 0 0 0-1-2.6l-1.8 1.5a16.2 16.2 0 0 0-2.5-4 4.8 4.8 0 0 1-1 2.1 15.7 15.7 0 0 0-3.7-4.4 11 11 0 0 0-1.6 3.8L55 20.7c.7 1.4.1 1.6.7 3.7a15.7 15.7 0 0 0-1.6-.7s.4 1.3.9 3.2a16.5 16.5 0 0 0-3.3-1.1 20.7 20.7 0 0 0-2.4-3 15.4 15.4 0 0 0-1.8 6 46 46 0 0 0-7.7-2.4l1.6 1.7a19.1 19.1 0 0 0-5-1.6l2.5 3.1a17.3 17.3 0 0 0-1.3 3.6 3.3 3.3 0 0 0 0 .7 35.6 35.6 0 0 0-4-1.3 11.8 11.8 0 0 0 1.1 3.2 20.4 20.4 0 0 0-4.3-1.2s.8.8 1.9 2.2a12.2 12.2 0 0 1-.5 1.2 11.6 11.6 0 0 0-1.8-.4c-1.7-3.6-12.3-5-12.3-5a25 25 0 0 0 5.2 5 48 48 0 0 0-8 1.9s.4 0 4.4.7a11.5 11.5 0 0 0-5 3.1s1.9-.3 4.8-.6a13 13 0 0 0-2.3 1.8l-2.5-.2a9.2 9.2 0 0 1 2.4 2 39.3 39.3 0 0 0-4-.8 15.5 15.5 0 0 0 1 1.7 43.9 43.9 0 0 0-6.5-.6 8.5 8.5 0 0 1 2.3 1.6 37.9 37.9 0 0 0-7.8-.2 20.9 20.9 0 0 0 3.6 2.6C1.4 51 0 55.2 0 55.2l4.4-1.6a8.1 8.1 0 0 0-1.5 2.1L.5 56c2 .6 2 1 4.8 2.2l-1.1 1h-4a9 9 0 0 1 2.5 1.4 17.7 17.7 0 0 0-1.2 1.5l2.8-.5 1 .6 1 .5a31.2 31.2 0 0 0-3.9 1.5 33.7 33.7 0 0 0 4.8 1A17.3 17.3 0 0 0 3.4 67s1.5 0 4 .1L9 68.3a39.5 39.5 0 0 0-4.5 1A28 28 0 0 0 8.8 71a20.5 20.5 0 0 0-4.4 1s1.3.3 3.5.8a41.2 41.2 0 0 0-6.7 1c2.4.5 2.1 1 6.2 2a9.4 9.4 0 0 0 1 .2 24.6 24.6 0 0 0-2.8 2.3 38 38 0 0 0 5 0 11.4 11.4 0 0 0-2.8 2.4s1.5-.3 3.9-.7l1.6.6c-4.7 3.5-1.8 11.1-1.8 11.1l1.5-1.8a6.4 6.4 0 0 0 .5 3.6s1-1.1 2.6-2.8a6.5 6.5 0 0 0 .4 2.3l-1.9 1.1a18.8 18.8 0 0 1 4 .2 32.3 32.3 0 0 0-3.6 1.4l2.7.6a28 28 0 0 0-5 2.8 14.5 14.5 0 0 1 3.4 0 22 22 0 0 0-5.4 3.6 31.7 31.7 0 0 0 6.9-.2 17.6 17.6 0 0 0-2 2.6c2.2-1 2.5-.5 6.4-1.7l1-.4a12.5 12.5 0 0 0 .6 3 22 22 0 0 0 3.4-2.5 7 7 0 0 0 .9 3s.7-1 1.8-2.3l1.8-.4a4.2 4.2 0 0 0 .5 1.2c-3.7 3 .5 9.4.5 9.4a18.6 18.6 0 0 0 3.5-5.6 38.2 38.2 0 0 0 6.8 3.3s-.1-.2-1-1.8a16.2 16.2 0 0 0 4.5 2.1l-1.5-3a17.4 17.4 0 0 0 3 1.3 11.5 11.5 0 0 0-.1 1.6c1.3-1.2 1.9-1 4.2-2.6a11.1 11.1 0 0 0 0 4.4 21.6 21.6 0 0 0 4.3-2.8 16.5 16.5 0 0 0 1.2 2.1c.4-1.3 1-1.4 2-3a8 8 0 0 0 1.5 2.8s.5-1 1.3-2.4a11.3 11.3 0 0 0 1.8 1.6 13.3 13.3 0 0 0 0 2.5 36.8 36.8 0 0 0 4.6-3.2 29 29 0 0 0 2.8 2.4s0-.3 0-2.4h.3a12.4 12.4 0 0 0 2 1.6s0-.6 0-1.6h1.6c-1.4 2.9-.2 7-.2 7a24.4 24.4 0 0 0 5.1-5 31.4 31.4 0 0 0 5.7 4.1s0-.2-.4-2a12.7 12.7 0 0 0 3.7 2.7s-.3-1.4-.5-3.5a28.7 28.7 0 0 0 3.3-2.9 3.7 3.7 0 0 0 .5-.7 24.6 24.6 0 0 0 3 2.3 11.2 11.2 0 0 0 .7-3.3 13.8 13.8 0 0 0 3.3 2.2s-.2-1-.5-2.6l1.3-1a8.4 8.4 0 0 0 1.3 1c-.5 3.7 8.4 7.6 8.4 7.6a15.6 15.6 0 0 0-1.8-6 54 54 0 0 0 8.6.4s-.4-.2-2.5-1.2a22.3 22.3 0 0 0 5.6.2s-1.6-.8-3.9-2a24 24 0 0 0 4.4 0s-2.2-1.2-5-2.8a6.6 6.6 0 0 0-1-.5 16.5 16.5 0 0 0 3.2 0c.8.7 1.4 1 1.4 1a2.8 2.8 0 0 1-.2-1l1.3-.2-1.2-.5a7.8 7.8 0 0 0 .2-1.5 22.6 22.6 0 0 0 5.5 3.7 9 9 0 0 0-.1-4.3h1.2a12.4 12.4 0 0 0 .5 1.1 4 4 0 0 1 .9-1.3c.8 0 1.4-.2 1.4-.2l-.9-.3a12.7 12.7 0 0 0 1.7-2 18.2 18.2 0 0 0 1.7 2c1.7-2.4 2.2-4.1 2.2-5.4a48.2 48.2 0 0 0 6.1.7 29.6 29.6 0 0 0-6.1-4.5 43.3 43.3 0 0 0 7.6-2.5s-.4 0-3.1-.2a18 18 0 0 0 5-1.7s-2.2-.2-5.3-.6a30.3 30.3 0 0 0-3.5-2.8 8.9 8.9 0 0 0-1-.5 37.2 37.2 0 0 0 4.2-1.3 27.3 27.3 0 0 0-7-1.6 12.6 12.6 0 0 0-1.8-2.7 41.9 41.9 0 0 0 4.8 0 22.4 22.4 0 0 0-1.8-1.5 41.3 41.3 0 0 0 6.4-.8 11.7 11.7 0 0 1-2.9-1 34.8 34.8 0 0 0 7.5-1.5 34 34 0 0 0-3.8-1.4 31.5 31.5 0 0 0 4.7-2.3 11 11 0 0 1-2.5 0 16.4 16.4 0 0 0 4.2-2s-.9 0-2.4 0a11 11 0 0 0 3.3-3s-1 .3-2.6.6a11.4 11.4 0 0 0 1.8-1.7 39.9 39.9 0 0 0 3.9-1c-1.8-.6-3.4-1-4.8-1.2a32.4 32.4 0 0 0 5-3.3ZM7.8 51.7H8a1 1 0 0 0-.2 0Z"/><path fill="#73bf44" d="M61 132.8s-.6-9.3-4.3-15c-3.7-5.8-6-3.2-8.5-11.1l3-1.2a8 8 0 0 0 3.4 5.7c3.2 2.4 5.4 5.5 6 8 .7 2.5 3 .3 3-4s2.7-8.7 2.7-8.7l2.8 1s-2.5 3.1-3 9.6-2.6 4.8-2.4 8.6l.6 7.1ZM66.5 132.8s.4-10.6 4-15.6c3.8-5 2-12.4 2-12.4h4.6a16.4 16.4 0 0 1-.4 7.8c-1.3 3.5.9 5.3 3.4 2.1a13.4 13.4 0 0 0 2.5-7.4l3.8 1.3s-.7 5.8-4 8.6c-3.4 2.8-7.9.9-9.8 6.5-2 5.7-1.6 9.1-1.6 9.1Z"/><path fill="#73bf44" d="M77 132.8s1.3-5.9-1.6-10.4c-3-4.5-9.5-7.3-14-15.7l2.9-2a25.8 25.8 0 0 0 6.9 8.5c5 4.1 8.5 8.3 9.2 11.9.7 3.6 4.3-2.7 5.7-6 1.4-3.2 3-11.6 3-11.6l3 1s-2 9.5-5 14.5c-3 5.1-6.3 6.5-6.5 9.8Z"/></svg>