<svg xmlns="http://www.w3.org/2000/svg" viewBox="0 0 150 150"><path fill="#73bf44" d="M80 150H70a8 8 0 0 1 0-2 17 17 0 0 0-1-4 49 49 0 0 1-1-6 36 36 0 0 0-1-4 8 8 0 0 1 0-2h3l1 3a27 27 0 0 0 0 5l1 3 2 2v-4a30 30 0 0 0 0-4v-5h6v11a16 16 0 0 0 0 4 9 9 0 0 1 0 3Z"/><path fill="#73bf44" d="M129 92h1l-1-1 1-1h-2l1-1-2-1h-2l-1-1-1 1h-2l-1-1h2l-1-1 1-1h-2l1-1h-1v-1l-1 1-1-1v1l-1-1h-1l1-1-1-1h-1l1-1h-1 1l-1-1h1v-1h1l-1-1h2l-1-1h1l-1-1h1-1v-2h-2 1l-2-1h-1v-1h-1l1-1-2-1h2l-1-1h1v-2l1 1v-1h1l-1-1h1-1v-1h-2l1-1-1-1h-2 1l-1-1-1-1h1v-1h-2l-1-1h1l-1-1h2l-1-1 1-1h1v-2l1 1v-1h2l-1-1h2l-1-2h2v-1h-1v-2h-2l1-1h-1v-1h-2v-1h-1l2-1h-1l2-1-1-1 1 1 1-1v1l2-1 1-1 2 1-1-2 2 1-1-1 1-1h-1l1-1h-1l-1-1 1-1h-2v-1 1l-1-1-1 1-2-1h2l-1-1h1-1l1-1h-1l-1-1-1 1v-1h-2v-1h-1l-1-1-1-1v-1l-1-1h2l-1-1 1-1 1-1v-1h1l1 1v-1h1l1-1-1-2h1l-1-1h2l-2-1h1v-1h-1l-1-1-1 1-1-1-1 1-1-2h-1l2-1h-1l1-1h-2l1-1h-2v-1l-2-1h1l-1-1-1 1V8h-1l-1 1h-2v1h-1l1 1-2-1v2h-1l-1 1-1-1-1 1v-1h-1l-1-1v-1h-1l-1-1h-1V8h-2l1-1h-2l-1-1-1 1-1-1-1 1-1-1h1V5v1l1-1h2l-2-1h1l-2-1h-3l-1 1h-3V3h-1l1-1h-2l1-1h-1l-1-1h-1v2l-1-1-1 1 2 1h-1l1 1h-1l-1 1h-1l1 1h-1v1h4-1v1h1v1h1v2h1v2h-1l-1 1-1-1-1 1v-1h-4v-1h-1v-1h-1v-1h-2V9v1l-2-1-1 1v1h-1l1 1h-2l1 1h-1l1 1v2l-2-1-1 2-1-1-1 2v-1l-1 1-1-1v1l-1-1v2h-1l1 1-1 1h2l-1 1v1l-1-1v1l-1 1h-1l1 1h-2l-1-1v1l-1-1v2l-1-1-1 1 2 1h-1l1 1h-1l1 2 1-1v1h2-1v1l2-1v1l1 1h-1v1h1l1-1 1 1 1 1v1h1l1 1 1 1h-2 1l-1 1h-1l1 2h-3l1 2h-1v-1h-2l1 1h-2l1 1h-2l2 2h-2l1 2 1-1h2l-1 1 1 1-1 1h2v1h1l1-1v2-1l1 1 1 1-1 1-1-1v1h-2v1h-1v-1l-1 1h-1v1h-1l1 1h-1v1l1 1-1 1h1v1l-1-1v1h-1v2l-1-1h-1l1 2-1 1h1l-1 1h-2v1l-1-1-1 1 1-1h-2l-1 1h-1l-1 1h1v1h2l-1 1h2l-1 2h1v1h-1l1 1h-1v1l-2-1v1h-2l2 1 2 1-2 1h3v1h2l-2 1v1h-1v1l-1-1v2l-1-1 1 1-2 1h1l-1 1h-1v1l-1-1-2 2-1-1 1 2h-1l1 2h-2l2 1h-2l1 2 1-1v1l2-1 1 2h1l-1 1h-2l2 2-1-1-1 2h1l2 1h-2l1 1-2 1v-1l-1 2-1-1v2h-1v1h-1l3 2h-2l2 2h-2l-1 2 2-1v2h2l-1 1 1 1-1 1-1-1v2l-1-1-1-1-1 2-1-1 1 2-3-1v1l-2-1 1 2h-1v2h1l1 1 1-1 1 1h4v1l1-1 1 1-1 1-1 1 2 1h-2v2l2-1 1 1 1-2 1 1 1-1h1v-1l1 1v-1h3v-1h1v-1l2 1h2l-1 1h1l-1 2h1v1l1-1v1l1-1 1 1v-1l1 1h1l-1 1 1 1h-1l1 1-2 1h1v1l1-1 1 1 1-1 1 1v-1l1 1 1-1 1 1v-1l1 1 1-1v1l1-1v2h1-1l2 1h-1v1h1v1l1-1 1 1h1l1 1 1-1v1l1-1 1 1 1-1h1v-2 2-1h2l1 1v-1h6v1h1v1l1-1v1h2v1l1-1 1 1 1-1 1 2v-2h2l-1-1 1-1 1 1v-2l1 1h1l1-1 1 1v-2h3l-2 1h1v2l1-1 2 1v-1 1l2 1 1-1h1v1l2-1v-1l2 1 1-2 1 2 1-2 2 1h1l2 1 1-1 2 1 2-1-2-1h2l-1-2h2v-1h1v-1h1v-1l2 1v-1h2l-1-2h1l-1-1 2-1-1-1 1-1-3-1 3-1-2-1 1-1v-1h-1v-1h-1v-1h-2l1-1a11 11 0 0 1-1-1 6 6 0 0 0 0-1h1l1-1 1 1 1-1 1 1v-2h1v-2l1-1h-1v-1l-1-1h1l-1-1v-1h-1l1-1h-1l2-1h-1l2-1-1-1h1v-1h1v-1h-2l1-1-1-1h1l-1-1h2Z"/></svg>