<svg xmlns="http://www.w3.org/2000/svg" viewBox="0 0 150 150"><path fill="#73bf44" d="M76.4 48.3a3 3 0 0 1 .3-.3 1.7 1.7 0 0 1-.7-.9l-.2.1v.2a1.6 1.6 0 0 1 0 .2l.1-.3a4.5 4.5 0 0 1 .2.4h.1a4.2 4.2 0 0 1 .2.6ZM77.4 61.8v-.1ZM70.8 79.3l.1.2.2.1a1.5 1.5 0 0 1-.3-.3ZM92.8 31.3h-.3a2 2 0 0 1 .2-.2h-.2a1 1 0 0 1-.4.4v.1a2.2 2.2 0 0 1 .7-.2 1.1 1.1 0 0 1 0-.1ZM79.3 60.4h.2a1.4 1.4 0 0 1-.2 0ZM81.4 56.9a2.6 2.6 0 0 1-.3-.2 4.5 4.5 0 0 1-.7.8 3.5 3.5 0 0 1 .6.3h.1a1.4 1.4 0 0 1-.5-.2s.2-.1.5-.2a3.4 3.4 0 0 1 .3-.5ZM75.5 47.4a1.2 1.2 0 0 1 0-.3 3 3 0 0 1-.4.5h.3v-.2ZM45.6 86a1.5 1.5 0 0 1 0 .1h.1l-.1-.2ZM50.8 62.6v-.1h-.2a1.4 1.4 0 0 1 .2 0ZM53 61.4v.1l.1.2a1 1 0 0 0-.3 0h-.2a1.5 1.5 0 0 1-.5 0 3.1 3.1 0 0 1 .1.7 3.5 3.5 0 0 1-.7-.6 3.6 3.6 0 0 1-.4.8s0 0 0-.3a1.3 1.3 0 0 1-.2.3h.3l.2-.2a1.9 1.9 0 0 0 0 .6 4.3 4.3 0 0 1 .4-.6 4.2 4.2 0 0 1 .2.4 4.4 4.4 0 0 1 .7-.7 1.4 1.4 0 0 0 0 .5 3.3 3.3 0 0 1 .6-.6l.2-.2a2.2 2.2 0 0 1-.5-.4ZM53.5 62.8v-.1.1ZM102 80.7v-.1h-.2a1.5 1.5 0 0 1-.2 0 1 1 0 0 1-.1.2 2 2 0 0 1 .5 0ZM98.4 55.9h-.2a3.3 3.3 0 0 1 .3.1l-.1-.1ZM99 81.7a2.7 2.7 0 0 1 .2-.4 4.3 4.3 0 0 1-.7 0l.2.4a3.2 3.2 0 0 1 0-.4 3.6 3.6 0 0 1 .3.4ZM101.3 81a1.6 1.6 0 0 1-.2 0l.2.4a1.5 1.5 0 0 0 0-.5ZM98.1 55.6a5.4 5.4 0 0 1 1.4.1 5.2 5.2 0 0 1 0-.5l-.3.2a2 2 0 0 1 0-.6 3.2 3.2 0 0 1-.5.4 3.5 3.5 0 0 1 0-.6h-.1l-.2.1v.4l-.2-.3a1.2 1.2 0 0 0-.5 0 4.3 4.3 0 0 1 .3-.4v-.2c-.4.2-.5.1-.7.3a3 3 0 0 1 .3.1 2.5 2.5 0 0 1-.4.2 1.5 1.5 0 0 1 .4.3s-.2 0-.4 0l-.1.2a.7.7 0 0 1 .1 0 1.1 1.1 0 0 1 1 .3ZM98.4 35.6ZM104.5 34.2a1.8 1.8 0 0 0 .1-.3l-.2.1a1 1 0 0 1 0 .2ZM92.6 30.8Z"/><path fill="#73bf44" d="M101.7 81.1h.1a13 13 0 0 0-.3-.3 1.4 1.4 0 0 1-.2.1l.2.3h.2ZM101 81.1h-.2v.2l.1-.2ZM73.2 66.8l.1-.1v-.1a2.2 2.2 0 0 1 0 .2ZM71.4 26.4v-.3a1.5 1.5 0 0 1-.1 0H71l.1.3a1.1 1.1 0 0 1 .2 0Z"/><path fill="#73bf44" d="M71.7 26.5a3.2 3.2 0 0 1 .1-.4 1.6 1.6 0 0 0-.4.3 1.6 1.6 0 0 1 .3.1ZM74 67ZM61.3 45.9v-.3l-.1.1a1.5 1.5 0 0 1 .1.2ZM72 26.6v-.1h-.2l.2.1ZM60.5 43.6a1.3 1.3 0 0 1-.2.3v.2a3 3 0 0 1 .5 0v-.4l-.3-.1ZM64.8 84.8a1 1 0 0 1-.2-.2 1.8 1.8 0 0 1-.2.5l.2.2V85a2 2 0 0 1 .2.2.9.9 0 0 1 0-.4ZM73.4 67.7v.1l.1-.2ZM56.5 58.7a1 1 0 0 1-.1.2v-.2Z"/><path fill="#73bf44" d="M60.7 44.3a1.6 1.6 0 0 1 .2 0V44a1.5 1.5 0 0 0-.2.2ZM60.8 46.1h.1-.1ZM70.2 43.2V43a1 1 0 0 1 0 .1 3.5 3.5 0 0 1 .4-.2 1.6 1.6 0 0 0-.5 0s0-.1.2-.3a1.8 1.8 0 0 1-.1-.4l-.3.6a4.3 4.3 0 0 1-.2.4 2.6 2.6 0 0 1 .5 0ZM67.7 38.8l-.3.1.1.1a1.6 1.6 0 0 1 .2-.2ZM61.8 43.7a4 4 0 0 1-.2.6 4 4 0 0 1-.4-.7 2.2 2.2 0 0 1-.2.6 2.8 2.8 0 0 1 .5 0 2.3 2.3 0 0 1-.4.5 2.8 2.8 0 0 1 .3 0l-.5.4a1.3 1.3 0 0 1 .2 0s-.2 0-.5.2a1.4 1.4 0 0 1 .4.2 3.2 3.2 0 0 1 .3 0v-.3a3.4 3.4 0 0 1 .5.4 1 1 0 0 1 0-.1 5.3 5.3 0 0 1 .4-.7l-.2-.7a2 2 0 0 1 .6.5 8 8 0 0 0-.1-.4 4.7 4.7 0 0 1 .8.8 4.4 4.4 0 0 1 .5-1.1 4 4 0 0 1 .2.6 1.7 1.7 0 0 1 .3.4l.1-.7a2.2 2.2 0 0 1 .2.2 4.7 4.7 0 0 0 0-.7 4 4 0 0 1 .3.3 2.8 2.8 0 0 1 .4-.7 3.2 3.2 0 0 1 .3 1 1.2 1.2 0 0 0 .2-.3 3.6 3.6 0 0 1 0 .8l.4-.2a3.8 3.8 0 0 1 0 .5 3 3 0 0 0 .2-.3 2.5 2.5 0 0 1-.1-1 3.6 3.6 0 0 1 .4.4.6.6 0 0 1 0-.2 5.5 5.5 0 0 1 .3-.7c0-.4-.2-.6-.2-.6a1.9 1.9 0 0 1 .6.4l-.1-.4a4.5 4.5 0 0 1 .9.7 4.7 4.7 0 0 1 .4-1.2 4.3 4.3 0 0 1 .3.8 2.3 2.3 0 0 1 1-.2 1.9 1.9 0 0 1-.1-.7 4 4 0 0 0-.2.3 4.3 4.3 0 0 1-.2-1 4.4 4.4 0 0 1-1.1.5s.4-1.3 1.2-1.5a1 1 0 0 1 0-.2h-.1l-.5.1a2 2 0 0 1 .3-.5 3.2 3.2 0 0 1-.7 0 3.3 3.3 0 0 1 .3-.4 1.2 1.2 0 0 1-.1 0 5 5 0 0 1-.7-.3l-.6.3v-.1h-.1a4.4 4.4 0 0 1 .6.8 1.5 1.5 0 0 0-.5-.1 3.8 3.8 0 0 1 .7 1 3.7 3.7 0 0 1-.8-.2c.2.6-.5 1.3-.5 1.3v-.8a2.3 2.3 0 0 1-.4.5l.2.4-.9-.4v.3a4.5 4.5 0 0 1 .2.5 1.5 1.5 0 0 0-.5-.1c0 .2-.2.3-.2.3v-.4h-.3a1.4 1.4 0 0 1-.2-.1 4 4 0 0 1 0 .7 3.6 3.6 0 0 1-.6-.6 2.4 2.4 0 0 1 0 .8s-.1-.2-.4-.5l-.3-.1a4.6 4.6 0 0 1 .1.7 4 4 0 0 1-.7-.3 2.4 2.4 0 0 1 .2.7s-.2-.2-.5-.4a4.3 4.3 0 0 1 .4 1l-1-.5v-.1ZM66.9 40.6ZM70.4 43.4l.1-.1h-.1ZM93.4 44v.2h.2l-.2-.2ZM74 66.5zM67.2 38.8l.2.1v-.1h-.2ZM67.6 38.5l.2-.3V38a2.3 2.3 0 0 1-.2.5ZM57 59.2l-.3-.1h-.3a3.3 3.3 0 0 1 .2.3.8.8 0 0 1 .2 0 1.1 1.1 0 0 1 .1-.2ZM70.7 79.6a2.8 2.8 0 0 1-.6-.3 1.4 1.4 0 0 0 .1.4 3.7 3.7 0 0 1-.7-.4v.4a3.7 3.7 0 0 1-.3-.2v.2a2.6 2.6 0 0 1 .9.5 3.7 3.7 0 0 1-.6.2 1.2 1.2 0 0 1 .1 0 2.6 2.6 0 0 1 .3.5 5.3 5.3 0 0 1 1.4-.4 5.2 5.2 0 0 1-.6-.9ZM59.4 84.7a1.1 1.1 0 0 1 0-.2.7.7 0 0 1-.2-.3l.2.5ZM57.2 62.3a3.5 3.5 0 0 1 .2-.5l.2-.3a1.8 1.8 0 0 1 0-.4l-.4.6a1.9 1.9 0 0 1-.1-.7l-.2.4a4.7 4.7 0 0 1-.2-1.1 4.4 4.4 0 0 1-1 .6 3 3 0 0 1 .8-1.4 3.5 3.5 0 0 1-.8-.3 3.5 3.5 0 0 1 0 .8l-.2-.3a1.5 1.5 0 0 1 0 .6s-.2-.2-.4-.5a3.3 3.3 0 0 1 .2.3 1.4 1.4 0 0 0-.4 0c0 .3-.5.7-.5.7v-.5a1.5 1.5 0 0 1-.2.2v.3a1.2 1.2 0 0 0-.3-.2 3 3 0 0 1 .1.3 2.4 2.4 0 0 1-.4-.1 3 3 0 0 1 .1.5 1 1 0 0 0-.3-.2 2.4 2.4 0 0 1 .1.7v.3c.4.2 1 .7 1 1.2a1.1 1.1 0 0 1 .3.2v-.7a2 2 0 0 1 .5.4 3.1 3.1 0 0 1 0-.7 3.4 3.4 0 0 1 .4.4 1.1 1.1 0 0 1 0-.1 5.2 5.2 0 0 1 .4-.7l-.1-.7a1.9 1.9 0 0 1 .5.5v-.4a4.6 4.6 0 0 1 .7.8ZM73.2 87.6a2.8 2.8 0 0 1 .2.2 1.6 1.6 0 0 0 .2-.4 2.9 2.9 0 0 1-.4.2ZM72.1 93.3v-.1l-.3.2h.1a1.6 1.6 0 0 1 .2-.1ZM72.3 85.8l-.1.1h.1ZM38.2 89.8v.1l.1-.1ZM88.8 43.6a3.2 3.2 0 0 1 .5-.3 2.4 2.4 0 0 1-.5-.2 1.2 1.2 0 0 0 .2.4s-.1 0-.2-.1v.2ZM88.4 43.2l-.2-.1.1.1ZM78.6 25.9a3.5 3.5 0 0 1 .3-.3 3.5 3.5 0 0 1 0 .6 2.7 2.7 0 0 0 .2-.3 2.5 2.5 0 0 1-.2-1 3.6 3.6 0 0 1 .5.3v-.1a5.2 5.2 0 0 1 .3-.7c0-.4-.2-.7-.2-.7a1.9 1.9 0 0 1 .6.5 4 4 0 0 0-.1-.4 4.4 4.4 0 0 1 .9.6 4.5 4.5 0 0 1 .4-1 4.2 4.2 0 0 1 .2.7 2.4 2.4 0 0 1 1.1-.3 3.5 3.5 0 0 1-.2.4 2.8 2.8 0 0 1 .4 0 1.7 1.7 0 0 1-.2-.2s.2 0 .5 0a3.8 3.8 0 0 1 .3-.5 1 1 0 0 1 .1-.1 2.6 2.6 0 0 1-.4-.2 2 2 0 0 1 .7-.3 1.3 1.3 0 0 1 0-.2 2.8 2.8 0 0 1-.2.2 2.5 2.5 0 0 1 0-.3 2.8 2.8 0 0 1-.6.3.9.9 0 0 0 .1-.3 2.4 2.4 0 0 1-.7.2 2.7 2.7 0 0 1 .2-.4 2.8 2.8 0 0 1-.6 0 .7.7 0 0 0 .2-.1 1.4 1.4 0 0 1-.5 0s0 0 .2-.1a1.2 1.2 0 0 1-.4-.1 3 3 0 0 1-.5.2 4.7 4.7 0 0 1 .2-.4l-.3-.2a1.7 1.7 0 0 1-.5.1l.5.4a2.1 2.1 0 0 1-.3 0l.6.6a4 4 0 0 1-.4 0 3 3 0 0 1 .3.7 3.2 3.2 0 0 1-1-.4 1.2 1.2 0 0 0 .2.4 3.8 3.8 0 0 1-.8-.4 2.9 2.9 0 0 1 0 .4 3.9 3.9 0 0 1-.4-.3 1.5 1.5 0 0 0 .2.4s-.2 0-.3-.1a2 2 0 0 1-.4.2l.6.1a1.9 1.9 0 0 1-.6.3h.4a5 5 0 0 1-.9.5v.3l.3.2.1.2.3.3h-.2a2 2 0 0 1 0 .3ZM97.5 82.7a1 1 0 0 1-.1-.1 1.8 1.8 0 0 1 .1.5l.3.1a1.2 1.2 0 0 0-.3 0v.3l-.1-.2a3.5 3.5 0 0 1-.4.1 2.7 2.7 0 0 1 .5.2 4.7 4.7 0 0 1 .8-.4l-.8-.5ZM116.9 78.6a1.7 1.7 0 0 0-.4 0 2.6 2.6 0 0 1 .2.2l.2-.2ZM36.4 95.7ZM97.6 83.7h.1a1.2 1.2 0 0 1 .2 0h-.3ZM25.1 74.5ZM77.7 63h.3a1.3 1.3 0 0 1 0-.3 1.3 1.3 0 0 1-.5-.8 3.5 3.5 0 0 1-.6 0 3.1 3.1 0 0 1 .2.5 3.3 3.3 0 0 1-1-.4 1.3 1.3 0 0 0 .2.4 3.8 3.8 0 0 1-.8-.4v.4a3.5 3.5 0 0 1-.3-.2v.2a2.7 2.7 0 0 1 1 .5 3.6 3.6 0 0 1-.6.2 2.7 2.7 0 0 1 .3.4 3.4 3.4 0 0 1 .7 0 1.2 1.2 0 0 1 .2 0 4.5 4.5 0 0 1-.2-.6 4.3 4.3 0 0 1 .7.4 2.3 2.3 0 0 1 0-.8s.1.2.4.5ZM89.5 43a4 4 0 0 1 .2.4 1.6 1.6 0 0 1 .2 0s-.1 0-.3.4a3.5 3.5 0 0 1 .1.5.7.7 0 0 1 0 .1 2.6 2.6 0 0 1 .4-.2 2 2 0 0 1-.2.7v.2a2.2 2.2 0 0 1 .1-.3l.2.2a2.7 2.7 0 0 1 .2-.6 1 1 0 0 0 .1.3 2.6 2.6 0 0 1 .4-.7 2.5 2.5 0 0 1 .1.4 2.8 2.8 0 0 1 .4-.4.7.7 0 0 0 0 .3 1.4 1.4 0 0 1 .3-.4s0 0 0 .2a1.3 1.3 0 0 1 .4-.2 3 3 0 0 1 .1-.5 3.2 3.2 0 0 1 .4.8 3.4 3.4 0 0 1 .6-.5 2.7 2.7 0 0 0 0 .3 1.4 1.4 0 0 1 .3-.3l.2-.2a2 2 0 0 1 .2-.4l-.5.4a1.8 1.8 0 0 1 .2-.7l-.3.2a4.5 4.5 0 0 1 .3-1 4.5 4.5 0 0 1-1.2-.1s1-1 1.8-.7a1.4 1.4 0 0 1 .2-.1l-.2-.2h-.5a2 2 0 0 1 .6-.4 3.3 3.3 0 0 1-.6-.2 3.5 3.5 0 0 1 .5-.3.8.8 0 0 1-.1-.1 4.6 4.6 0 0 1-.5-.6h-.2a1.4 1.4 0 0 1-1-.2 1.2 1.2 0 0 1-.3 0v.3l.5.2a2 2 0 0 1-.6.1 3.1 3.1 0 0 1 .4.5 3.4 3.4 0 0 1-.6 0 1 1 0 0 1 .1.1 4.7 4.7 0 0 1 .2.7l.6.4a1.9 1.9 0 0 1-.7 0l.4.3a4.7 4.7 0 0 1-1.2 0 4.6 4.6 0 0 1 .5 1.2 4.3 4.3 0 0 1-.7-.4 1.7 1.7 0 0 1-.5.1l.2.2a2 2 0 0 1-.7 0 1 1 0 0 0 .3.2 3.8 3.8 0 0 1-.8 0ZM83.6 60.9a3.8 3.8 0 0 1-.6-.4s0 0 .3 0a1.4 1.4 0 0 1-.5-.3s.2 0 .5 0a1.5 1.5 0 0 1-.3-.2 3 3 0 0 1-.2.1 1.2 1.2 0 0 0 .1-.3 2.6 2.6 0 0 1-.3.2 2.5 2.5 0 0 1 0-.3 2.8 2.8 0 0 1-.6.3 1 1 0 0 0 .2-.3 2.4 2.4 0 0 1-.7.3 2.2 2.2 0 0 1 .2-.6h-.3l.4-.4h-.2l.4-.3a1.2 1.2 0 0 1-.3 0 3 3 0 0 1-.5.1 3.4 3.4 0 0 1 .5-.8 3 3 0 0 1-.3 0h.1s-1.3.5-1.9 0a1.1 1.1 0 0 1-.2 0v.3l.5.3a2 2 0 0 1-.6 0 3.4 3.4 0 0 1 .4.5 3.7 3.7 0 0 1-.5 0 1 1 0 0 1 0 .2 4.7 4.7 0 0 1 .2.7l.6.3a2 2 0 0 1-.4.1v.7a2.5 2.5 0 0 1 .4-.5s0 .4 0 1a1.2 1.2 0 0 1 0 .2 1.8 1.8 0 0 1 .3-.4v-.3a1.3 1.3 0 0 0 .2.2 1.8 1.8 0 0 1 .1-.1v.2s.2 0 .3.2a3.8 3.8 0 0 1-.2-1.2 3.4 3.4 0 0 1 .8.6 1.5 1.5 0 0 1 .2-.1l-.2-.3a1.1 1.1 0 0 0 .3.1 1.8 1.8 0 0 1 .2-.1v.2a3.4 3.4 0 0 1 .5 0 4.4 4.4 0 0 1-.2-.4 2.8 2.8 0 0 1 1.2.5ZM77.6 90.7ZM93.2 64.2a1.4 1.4 0 0 1 .2-.2c.1-.9 1.6-1.5 1.7-1.6-.3 0-.4-.2-.4-.2l1-.2a1 1 0 0 1 .2 0 4.5 4.5 0 0 1-.3-.7 4 4 0 0 1 .8.2 2.4 2.4 0 0 1-.3-.6s.2 0 .5.3l.3-.1c-.5-1 .3-2.7.3-2.7l.2.5a2.3 2.3 0 0 1 .2-.8s.1.3.3.7a2.5 2.5 0 0 1 .2-.5l-.3-.3a1.9 1.9 0 0 0 .6 0 4.4 4.4 0 0 1-.4-.4h.4a4.4 4.4 0 0 1-.6-.9 1.5 1.5 0 0 0 .5.1 3.6 3.6 0 0 1-.5-.9h-.2a3.5 3.5 0 0 1 .3.8s0 0-.2-.2a1.4 1.4 0 0 1 .1.5l-.4-.2a1.6 1.6 0 0 1 .2.4l-.6-.4a1 1 0 0 1 0 .2l.2.1a.8.8 0 0 0-.2 0 .5.5 0 0 1 0 .2v-.1a2.1 2.1 0 0 1-.3 0 2.4 2.4 0 0 1 .7.4 2.1 2.1 0 0 1-.6.2l.2.1a.7.7 0 0 0-.2.1v.2-.1a2 2 0 0 1-.3.2 2.4 2.4 0 0 1 .3.1 1.8 1.8 0 0 1-.7.4 3 3 0 0 1 .3.6 3.3 3.3 0 0 1-.8-.4 3.4 3.4 0 0 1-.2.8s0 0-.1-.3a1.4 1.4 0 0 1-.1.5s-.1-.2-.2-.4a4 4 0 0 1-.5-.3.9.9 0 0 1-.1 0 2.5 2.5 0 0 1-.1.4 1.9 1.9 0 0 1-.4-.6 1.8 1.8 0 0 0-.3 0 3 3 0 0 1 .3.2h-.3a2.9 2.9 0 0 1 .4.6.9.9 0 0 0-.4-.1 2.3 2.3 0 0 1 .4.6 2.1 2.1 0 0 1-.5-.1 3 3 0 0 1 0 .3l-.5-.4a1.6 1.6 0 0 1 0 .2l-.3-.3a1.3 1.3 0 0 1 0 .4 3 3 0 0 1 .2.4 3.4 3.4 0 0 1-.8-.3 3.3 3.3 0 0 1-.1.8l-.2-.3a1.3 1.3 0 0 1 0 .6s-.1-.2-.3-.5a4 4 0 0 1-.5-.2 2.8 2.8 0 0 1-.1.4 2.7 2.7 0 0 1-.4-.3 1.6 1.6 0 0 1 0 .4s-.1-.1-.2-.3H90a.9.9 0 0 1 0 .1 1 1 0 0 1 .1.8l.1.4a5.5 5.5 0 0 1 1-.8s0 0 0 .4a2.3 2.3 0 0 1 .6-.5s0 .3-.2.8a6.3 6.3 0 0 1 .4.8 1.4 1.4 0 0 1 0 .2 4.2 4.2 0 0 1 .6-.5 3.8 3.8 0 0 1 0 .8 2.4 2.4 0 0 1 .5-.4l-.2.6.2.3ZM95 35.3ZM95.3 36v-.3a2.6 2.6 0 0 1-.3.1 2.8 2.8 0 0 1 .3.3ZM95.3 36.4v-.1h-.2a1.2 1.2 0 0 1 .2 0ZM97 36.6v-.1ZM95 35.6a1.4 1.4 0 0 1-.2 0l.2.2v-.2ZM94.5 36.6a3.5 3.5 0 0 1 .2.3 2.8 2.8 0 0 1 .2-.4h-.1a1.8 1.8 0 0 1 .2-.1 2.3 2.3 0 0 1-.5-.1 1.2 1.2 0 0 0 .3.3s-.1 0-.3 0ZM92.5 26.1ZM92.7 32h-.1ZM96.6 36.5v-.3a1.2 1.2 0 0 1-.2 0 2.8 2.8 0 0 1 .2.3ZM94 36.5v.4a3.6 3.6 0 0 1-.5-.2 1.6 1.6 0 0 0 .4.4s-.2 0-.4 0a2 2 0 0 1-.2.3l.6-.1a2 2 0 0 1-.1.2 3.7 3.7 0 0 1 .4 0 2.3 2.3 0 0 1 .2-1 3.2 3.2 0 0 1-.5 0ZM95.8 36a2.7 2.7 0 0 1 .1.1h.1v-.2a2.2 2.2 0 0 1-.2 0ZM94.9 34.9ZM97.2 36.3a2.1 2.1 0 0 1 .3 0l-.2-.3-.2.2.1.1ZM93.9 43.9a3.1 3.1 0 0 0-.3-.2l-.1.2a3.8 3.8 0 0 1 .4 0ZM97.6 80.2a1.2 1.2 0 0 1 .2.2c.6-.2 1.4.2 1.8.5a3.2 3.2 0 0 1 0-.6 3.8 3.8 0 0 1 .5.5 4 4 0 0 1 .4-.4 5.6 5.6 0 0 1-1.1-.7s0 0 .5 0a2.2 2.2 0 0 1-.8-.4s.3 0 .8-.1a2.3 2.3 0 0 1-.5-.3l-.4.1a2 2 0 0 0 .2-.5 4.6 4.6 0 0 1-.5.3v-.4a4 4 0 0 1-.7.4 1.4 1.4 0 0 1-.2.1 4.3 4.3 0 0 1 .6.3 3.7 3.7 0 0 1-.7.3 2.4 2.4 0 0 1 .7.4s-.3 0-.7.1l-.1.2ZM97.2 54.4Z"/><path fill="#73bf44" d="M95.5 63.9v-.1a4.4 4.4 0 0 1-.5-.4 4 4 0 0 1 .7-.2 2.3 2.3 0 0 1-.6-.4s.2 0 .6 0a3.2 3.2 0 0 1-.6-.4 5.3 5.3 0 0 1-.6 1.4 5.3 5.3 0 0 1 1 0ZM96 36.2ZM95.5 35.7h.1ZM95 35.3h.1a1.6 1.6 0 0 1 0 .1v.1a1.8 1.8 0 0 1 .2-.3 1.5 1.5 0 0 1-.2 0ZM93.6 37.7a1.2 1.2 0 0 1-.2.2 24.7 24.7 0 0 0 .2-.2ZM93.4 38.7a4.5 4.5 0 0 1 .8-.4 3.7 3.7 0 0 1-.5-.4 4.5 4.5 0 0 1-.6.7l.3.1ZM70.8 26.3a1.2 1.2 0 0 1 .1.2.9.9 0 0 1 .3 0 2.1 2.1 0 0 1-.4-.4v.2ZM54.8 90a2.9 2.9 0 0 1 .3.2h.2a2.3 2.3 0 0 1-.5-.3ZM54.8 94.2ZM55 89.8a2 2 0 0 1 .3-.1 1 1 0 0 1 .1 0l-.1-.3a3.7 3.7 0 0 1-.3.4ZM55.2 90.8h-.1l-.2.1H55.2ZM54.8 91.6h-.2a.8.8 0 0 1 .2 0ZM55.3 90.4h-.1.1ZM46.9 104.6l-.3-.1a1.8 1.8 0 0 1 0 .2 1.2 1.2 0 0 1 .3-.1ZM46.7 104a2.1 2.1 0 0 1-.2-.2 1 1 0 0 1 0 .2.6.6 0 0 1 0 .3l.3-.1a1.1 1.1 0 0 1 0-.1ZM54.8 91v.1l-.2.1h.4a1.3 1.3 0 0 1-.2-.1ZM77 25.3a1.3 1.3 0 0 1 .2.2 3.3 3.3 0 0 1 .1-.4.9.9 0 0 1-.3-.3 1 1 0 0 1-.2 0 2.4 2.4 0 0 0 0 .2l.3.4v-.1ZM86.7 27.4a5.4 5.4 0 0 1 .8.1l.5-.3-.1-.1a1 1 0 0 1 0-.1 2.6 2.6 0 0 1-.3.3 2.9 2.9 0 0 1-.2-.4 1.4 1.4 0 0 1-.2.3s0-.1 0-.4H87a1 1 0 0 1-.1 0 .9.9 0 0 1-.2.6ZM83.6 11.9v-.1ZM96.8 23ZM87.8 27.8l.3-.2a4.8 4.8 0 0 1-.4 1 2.8 2.8 0 0 1 .4 0l.1-.5a2 2 0 0 1 .3.6v-.4a4.3 4.3 0 0 1 .3.5h.1a3.4 3.4 0 0 1 .2.5 4.4 4.4 0 0 1 .9-.8 4 4 0 0 1-.1.7 1.5 1.5 0 0 1 .2.4l.3-.5a2.1 2.1 0 0 1 0 .2l.4-.7a3.5 3.5 0 0 1 .1.4 3 3 0 0 1 .7-.4 3.2 3.2 0 0 1-.2 1 1.2 1.2 0 0 0 .4-.3 4 4 0 0 1-.2.7l.1.1h.2v.5a3.7 3.7 0 0 1 .5-.4h-.2a1.5 1.5 0 0 1 .3-.3 2.3 2.3 0 0 0-.5 0 2.8 2.8 0 0 1 .3-.3 2.3 2.3 0 0 1-.5-.3 2.6 2.6 0 0 1 .6-.2L92 29l.3-.1a1.4 1.4 0 0 1 0-.3l-.3.2a1.3 1.3 0 0 1 .1-.5l-.2.2a3.4 3.4 0 0 1 .3-.8 3.4 3.4 0 0 1-1 0s.9-.7 1.4-.5a.7.7 0 0 1 .2-.1l-.2-.2h-.3a1.5 1.5 0 0 1 .4-.3 2.8 2.8 0 0 1-.3-.1 3 3 0 0 1-1 .6 2.8 2.8 0 0 0 0-.2 1.4 1.4 0 0 1-.4.2s0-.2.2-.4a1.5 1.5 0 0 1-.3.1 2 2 0 0 1 0 .3 1.2 1.2 0 0 0-.3-.3 2.8 2.8 0 0 1 0 .4l-.2-.2a2.7 2.7 0 0 1 0 .6.9.9 0 0 0-.2-.3 2.3 2.3 0 0 1-.2.8 2.3 2.3 0 0 1-.3-.5 3 3 0 0 1 0 .4 3.3 3.3 0 0 1-.6-.7 3.2 3.2 0 0 1-.5.7 3 3 0 0 0 0-.3 1.4 1.4 0 0 1-.3.4s0-.2 0-.5l-.2-.2a1.7 1.7 0 0 1-.2.5ZM83.4 12.2a2.8 2.8 0 0 1 .2-.3l-.3.2h.1ZM38.4 89.8v.4a1.4 1.4 0 0 1 .2-.3h-.2ZM46.4 87.8v-.3a2.3 2.3 0 0 1 .2.2 2.8 2.8 0 0 1 .2-.6 1 1 0 0 0 .2.3 2.4 2.4 0 0 1 .3-.7 3 3 0 0 1 .1.4 2.7 2.7 0 0 1 .4-.4.6.6 0 0 0 0 .3 1.4 1.4 0 0 1 .4-.4s0 0 0 .2a1.3 1.3 0 0 1 .3-.2 3 3 0 0 1 .1-.5 3.3 3.3 0 0 1 .4.8 3.4 3.4 0 0 1 .6-.5v.3a1.4 1.4 0 0 1 .4-.4l-.2.6a3.6 3.6 0 0 1 .2.4.6.6 0 0 1 0 .1 2.8 2.8 0 0 1 .4-.2 2.4 2.4 0 0 1 0 .5 1.6 1.6 0 0 1 .4-.3l-.1.4v.1a.9.9 0 0 1 .2 0c0-.6 1-1 1-1a3.3 3.3 0 0 1-.3.8 3.4 3.4 0 0 1 .8.1s0 0-.3.2a1.4 1.4 0 0 1 .6 0s-.2.1-.5.3a1.6 1.6 0 0 1 .4 0l.2-.2a1.2 1.2 0 0 0 0 .4 2.9 2.9 0 0 1 .2-.3v.2a2.8 2.8 0 0 1 .5-.4 1 1 0 0 0 0 .3 2.4 2.4 0 0 1 .6-.5 2 2 0 0 1 0 .6v-.1a.7.7 0 0 0 .2.2 2.2 2.2 0 0 1 .1.4 2.6 2.6 0 0 1 .2-.3 1.8 1.8 0 0 1 .2.8 2.9 2.9 0 0 1 .5 0v-.1a2.3 2.3 0 0 1 .4.1 1.5 1.5 0 0 1-.2-.4s.2 0 .4.2h.2c-.4-.7.2-1.7.2-1.7v.3a1.4 1.4 0 0 1 .2-.6s0 .2.2.5a1.6 1.6 0 0 1 0-.3 3 3 0 0 1 0-.2 1.2 1.2 0 0 0 .3 0 2.7 2.7 0 0 1-.3-.2h.3a2.8 2.8 0 0 1-.4-.6 1 1 0 0 0 .3 0 2.3 2.3 0 0 1-.4-.6 2.3 2.3 0 0 1 .6.2 3.4 3.4 0 0 1-.3-.3 3.4 3.4 0 0 1 .9 0 3.4 3.4 0 0 1-.1-.7l.2.2a1.4 1.4 0 0 1-.1-.6s.1.2.4.4a3.8 3.8 0 0 1 .5 0h.1a2.6 2.6 0 0 1 0-.4 2.5 2.5 0 0 1 .3.3 1.4 1.4 0 0 1 0-.3 1.4 1.4 0 0 1-.2-.2l.2.4s-1.5-.6-1.7-1.5l-.2.2-.2.4a2 2 0 0 1-.2-.5 3 3 0 0 1-.4.5 3.4 3.4 0 0 1-.1-.6 1 1 0 0 1-.2.1l-.7.5a3.7 3.7 0 0 1 .3-.9l-.4.3a2 2 0 0 1 .1-.6 3.3 3.3 0 0 1-.6.3 3.7 3.7 0 0 1 .2-.6h-.3l-.3.5a2 2 0 0 1 0-.6 3.4 3.4 0 0 1-.5.4 3.6 3.6 0 0 1 0-.6.9.9 0 0 1-.2 0h-.1l-.2.4-.1-.3a1.3 1.3 0 0 0-.4.1s0-.1.2-.3a3.2 3.2 0 0 1-.9.2v.2h.4a1 1 0 0 0-.3.2 2 2 0 0 1 0 .2v-.1a3.1 3.1 0 0 1-.5.4 4.6 4.6 0 0 1 .5.1 2.8 2.8 0 0 1-1.1.7 4.9 4.9 0 0 1 .4.9 5.3 5.3 0 0 1-1.3-.7 5.4 5.4 0 0 1-.3 1.3s0 0-.2-.4a2.3 2.3 0 0 1-.1.8l-.4-.7a5.8 5.8 0 0 1-.8-.4 1.2 1.2 0 0 1-.1-.1 4.4 4.4 0 0 1-.2.7 3 3 0 0 1-.7-1 3.6 3.6 0 0 0-.4-.1 4.4 4.4 0 0 1 .5.5H47a4.4 4.4 0 0 1 .6.8 1.4 1.4 0 0 0-.5-.1 3.9 3.9 0 0 1 .6 1 3.5 3.5 0 0 1-1-.2l.2.5-.7-.5v.2H46a4.7 4.7 0 0 1 0 .6v.1a2.6 2.6 0 0 1 .4-.2 2 2 0 0 1-.2.7v.2ZM38.5 89.5h.2l-.2-.2v.4h.3a3 3 0 0 1-.3-.2ZM46.6 104.8a2.2 2.2 0 0 1 0 .3.6.6 0 0 1 .2 0 .8.8 0 0 1 .1-.1v-.2h-.3ZM59 17.1h-.2a2 2 0 0 0 .2.3 2.6 2.6 0 0 1 0-.3ZM84.7 100a2.8 2.8 0 0 1 0 .5 2.6 2.6 0 0 1-.3-.2 2.3 2.3 0 0 1 0 .4h.1a2.3 2.3 0 0 1 .4-.3.5.5 0 0 1-.2-.4ZM97 23a2.3 2.3 0 0 1 0 .2l.2-.2v-.2l-.1-.3a1.5 1.5 0 0 1-.1.4l.1.1a.6.6 0 0 0-.2 0ZM85.2 100.3ZM84.6 99.7l.3.2a1.3 1.3 0 0 1 0-.3h-.3ZM53.7 100.4ZM84.6 99.9v-.2a1.7 1.7 0 0 1 0 .2ZM97.7 91h.3a1.7 1.7 0 0 1 .2-.4h-.6a1.9 1.9 0 0 1 .2-.2 4.8 4.8 0 0 0-.8 0 4 4 0 0 1 .3-.3 2.9 2.9 0 0 1-.7-.3 3.2 3.2 0 0 1 .9-.4 1.2 1.2 0 0 0-.4-.1 3.8 3.8 0 0 1 .8-.3l-.2-.2a3.7 3.7 0 0 1 .5-.1 1.5 1.5 0 0 0-.5-.2s.2 0 .4-.1a2 2 0 0 1 0-.5l-.4.4a1.9 1.9 0 0 1 .2-.7l-.3.3a4.8 4.8 0 0 1 .3-1.1 4.5 4.5 0 0 1-1.2 0s1-1 1.8-.7a1.3 1.3 0 0 1 .2-.2 1.9 1.9 0 0 0-.1-.2H98a2 2 0 0 1 .6-.4 3 3 0 0 1-.6-.2 3.6 3.6 0 0 1 .5-.3h-.1a5.3 5.3 0 0 1-.5-.6 3 3 0 0 1-.8 0v.3h.3a1 1 0 0 0-.2.2v.2h-.1a3 3 0 0 1-.4.3 4.7 4.7 0 0 1 .5.1 2.8 2.8 0 0 1-1.2.7 5 5 0 0 1 .5.9 5.3 5.3 0 0 1-1.3-.7 5.5 5.5 0 0 1-.3 1.3s0 0-.2-.4a2.3 2.3 0 0 1-.2.8s-.1-.3-.3-.7a5.6 5.6 0 0 1-.8-.4 1.3 1.3 0 0 1-.2-.1 5 5 0 0 1-.1.7 3 3 0 0 1-.7-1 4 4 0 0 0-.4-.1 4.4 4.4 0 0 1 .4.5H92a4.3 4.3 0 0 1 .6.9 1.5 1.5 0 0 0-.5-.2 3.9 3.9 0 0 1 .6 1 3.5 3.5 0 0 1-1-.2 4.2 4.2 0 0 1 .1.5l-.7-.6a2 2 0 0 1 0 .3l-.5-.5a2.1 2.1 0 0 1 0 .6 5 5 0 0 1 .3.7 5.3 5.3 0 0 1-1.4-.5 5.6 5.6 0 0 1-.1 1.3s0 0-.2-.4a2.2 2.2 0 0 1-.1.8l-.4-.7a6.4 6.4 0 0 1-.9-.3h-.1a4 4 0 0 1 0 .6 3.9 3.9 0 0 1-.6-.5 2.3 2.3 0 0 1-.1.7l-.4-.5-.2-.1a1.6 1.6 0 0 1 0 .3c.5.7 0 2.2 0 2.2a5.3 5.3 0 0 1-.7-1.3 5.5 5.5 0 0 1-1 .9s0-.1.1-.5a2.3 2.3 0 0 1-.7.5s.1-.3.2-.7a2.4 2.4 0 0 1-.4.3v.4a2 2 0 0 0-.4-.4 3.8 3.8 0 0 1 .1.6l-.4-.1a4.7 4.7 0 0 1 0 1 1.6 1.6 0 0 0-.3-.4 3 3 0 0 1 0 .8 3.8 3.8 0 0 1 0 .4l-.2-.1a1.2 1.2 0 0 1-.1.4l.4-.3a1.8 1.8 0 0 1 0 .2 3.8 3.8 0 0 0 .5-.2 2.8 2.8 0 0 1-.1.3 2.1 2.1 0 0 1 .6 0 2.4 2.4 0 0 1-.6.5 1 1 0 0 0 .4 0 2.8 2.8 0 0 1-.5.4 2.3 2.3 0 0 1 .2.1 3.2 3.2 0 0 1-.3.2 1.2 1.2 0 0 0 .4 0s-.1.1-.2.2a1.6 1.6 0 0 1 0 .4l.3-.5a1.4 1.4 0 0 1 0 .6l.2-.3a3.3 3.3 0 0 1 0 .9 3.4 3.4 0 0 1 1-.4s-.5 1-1.1 1a.6.6 0 0 1-.1.2 1.9 1.9 0 0 0 .2 0h.3a1.4 1.4 0 0 1-.2.4 2.2 2.2 0 0 1 .5 0 2.5 2.5 0 0 1-.5.5l.3.1.5-.1a1.4 1.4 0 0 1-.3.4l.3-.1a3.4 3.4 0 0 1-.5.7 3 3 0 0 1 .6.2 1.9 1.9 0 0 1 .3-.1 1.7 1.7 0 0 1-.1-.2 3 3 0 0 1-.4 0 1 1 0 0 0 .3-.3 2.1 2.1 0 0 1 0-.2l.2.1h.1a.6.6 0 0 1 .1 0 2.3 2.3 0 0 1-.3-.4 2.4 2.4 0 0 1 .5 0 1.4 1.4 0 0 1-.3-.4s.1 0 .4.1l.2-.1a2.9 2.9 0 0 1-.4-.3 2.4 2.4 0 0 1 .4-.1 1.4 1.4 0 0 1-.4-.3s.2 0 .4 0a2.7 2.7 0 0 1-.6-.3l.7-.2a2.7 2.7 0 0 1-.1-.4 2.5 2.5 0 0 1 .5.2 1.5 1.5 0 0 1-.2-.5s.1.1.3.2h.2c-.3-.6.2-1.7.2-1.7v.3a1.4 1.4 0 0 1 .2-.5s.1.2.2.5a1.6 1.6 0 0 1 .1-.4l-.1-.2a1.2 1.2 0 0 0 .3 0 2.7 2.7 0 0 1-.2-.2h.2a3 3 0 0 1-.3-.5 1 1 0 0 0 .3 0 2.4 2.4 0 0 1-.4-.6 2.3 2.3 0 0 1 .5.1 2.6 2.6 0 0 1-.3-.3 3.3 3.3 0 0 1 1 .1 3.4 3.4 0 0 1-.2-.8l.2.2a1.4 1.4 0 0 1 0-.5s0 .1.3.4a4 4 0 0 1 .5 0 .7.7 0 0 1 .1 0 2.6 2.6 0 0 1 0-.4 2.4 2.4 0 0 1 .4.2 1.4 1.4 0 0 1 0-.4s0 .1.2.3h.2a.9.9 0 0 1 0-.2c-.5-.3-.4-1.4-.4-1.4a3.3 3.3 0 0 1 .6.7 3.4 3.4 0 0 1 .5-.6s0 0 0 .3a1.4 1.4 0 0 1 .3-.5s0 .2 0 .5a1.6 1.6 0 0 1 .3-.3s0 .2 0 .6a.7.7 0 0 1 0 .1 1 1 0 0 1 .1-.2 2 2 0 0 1 0-.2.6.6 0 0 0 .1.1 1 1 0 0 1 .1 0 1.8 1.8 0 0 1 .2.2 2.3 2.3 0 0 1 0-.8 2 2 0 0 1 .4.4v-.2a.7.7 0 0 0 .2 0 .8.8 0 0 1 .1 0 2 2 0 0 1 .3.1 3.3 3.3 0 0 1 0-.3 1.7 1.7 0 0 1 .6.4 3 3 0 0 1 .3-.6 3.5 3.5 0 0 1 .2 1 3.5 3.5 0 0 1 .8-.4s0 0-.2.3a1.4 1.4 0 0 1 .5-.3s-.1.2-.3.5a4.1 4.1 0 0 1 .1.5v.1a2.6 2.6 0 0 1 .4-.1 2 2 0 0 1-.2.6v.2a2.6 2.6 0 0 1 .1-.3 2.4 2.4 0 0 1 .2.2 2.8 2.8 0 0 1 .3-.6.9.9 0 0 0 0 .3 2.3 2.3 0 0 1 .4-.6 2.3 2.3 0 0 1 .1.4 3.1 3.1 0 0 1 .4-.5.8.8 0 0 0 0 .3 1.5 1.5 0 0 1 .4-.4s0 .1 0 .3a1.3 1.3 0 0 1 .3-.2 3.2 3.2 0 0 1 .1-.6 3.7 3.7 0 0 1 .3.5ZM77.5 48.2ZM103 99.8v.2ZM102.9 99.5v.3a.5.5 0 0 1 .1 0v-.4ZM97.7 91.3v.1h.1ZM67.2 83.9v.4a2.8 2.8 0 0 1 .2-.1 1.9 1.9 0 0 1-.2-.3ZM66.7 101a1 1 0 0 0 0-.2v.1ZM82.2 93a2.5 2.5 0 0 1 0 .2v.1H82a2.6 2.6 0 0 1 .3 0 2.6 2.6 0 0 1-.2-.4ZM58.2 102a1.4 1.4 0 0 1 0 .5l.1-.3a3.5 3.5 0 0 1 0 .9 3.3 3.3 0 0 1 .8-.1 3.3 3.3 0 0 1-.3.3 1.4 1.4 0 0 1 0 .4v-.1c.2 0 .3-.2.3-.2a1.3 1.3 0 0 1 0 .2 3.5 3.5 0 0 0 .5-.2s0 .1-.1.3a2.1 2.1 0 0 1 .6 0 2.1 2.1 0 0 1 .1.3 1.2 1.2 0 0 0 0-.4s0 0 .2.1v-.2h-.2a2 2 0 0 1 .2-.2v-.1a3 3 0 0 1 0-.4 3.4 3.4 0 0 1-.8.3s0 0 .2-.3a1.4 1.4 0 0 1-.5.2l.3-.4a4.9 4.9 0 0 1 0-.6 2.6 2.6 0 0 1-.4 0 2.3 2.3 0 0 1 .2-.4 1.4 1.4 0 0 1-.4.1l.2-.3a1.9 1.9 0 0 0 0-.2.8.8 0 0 1-.2 0c-.3.6-1.3.6-1.3.6a3.4 3.4 0 0 1 .6-.7 3.5 3.5 0 0 1-.7-.4s0 0 .3 0a1.4 1.4 0 0 1-.5-.3s.2 0 .5 0a1.3 1.3 0 0 1-.3-.2l-.2.1a1.3 1.3 0 0 0 .1-.4 2.7 2.7 0 0 1-.3.3v-.3a2.8 2.8 0 0 1-.6.3 1 1 0 0 0 .1-.3 2.4 2.4 0 0 1-.7.3 2.3 2.3 0 0 1 .3-.6 3 3 0 0 1-.3 0l.4-.4a1.4 1.4 0 0 1-.2 0s.2-.1.4-.3a1.3 1.3 0 0 1-.4 0 3 3 0 0 1-.4 0 3.2 3.2 0 0 1 .4-.7 3.5 3.5 0 0 1-.8-.2s0 0 .3-.1a1.4 1.4 0 0 1-.5-.2s.2 0 .5-.1a4.5 4.5 0 0 1 .2-.5.6.6 0 0 1 .1-.1 2.7 2.7 0 0 1-.4-.1 2.4 2.4 0 0 1 .4-.3 1.5 1.5 0 0 1-.5-.1s.2 0 .4-.2v-.1a.9.9 0 0 1 0-.1c-.6.3-1.5-.2-1.5-.2a3.3 3.3 0 0 1 .9-.3 3.4 3.4 0 0 1-.4-.7l.3.2a1.4 1.4 0 0 1-.3-.5s.2 0 .4.2a1.4 1.4 0 0 1-.1-.3 2.3 2.3 0 0 1-.3 0 .9.9 0 0 0 .3-.2h-.4l-.4-.1a1.2 1.2 0 0 1 .2.3 3 3 0 0 1 .3.3 3.3 3.3 0 0 1-.9 0 3 3 0 0 1 .2.4 3.5 3.5 0 0 1 0 .4s0 0-.1-.1a1.4 1.4 0 0 1 0 .5l-.3-.3a2.2 2.2 0 0 1-.2.2 3.4 3.4 0 0 1 .8.4s0 0-.3 0a1.4 1.4 0 0 1 .5.3s-.2 0-.6 0a4 4 0 0 1-.3.5 2.7 2.7 0 0 1 .3.2 2.4 2.4 0 0 1-.4.2 1.5 1.5 0 0 1 .4.2s-.2 0-.4.1l-.1.2a.7.7 0 0 1 .1 0c.6-.1 1.4.5 1.4.5a3.3 3.3 0 0 1-1 .1 3.4 3.4 0 0 1 .3.8s0 0-.2-.2a1.4 1.4 0 0 1 .1.5l-.4-.3a1.4 1.4 0 0 1 .2.5l-.6-.4a1.2 1.2 0 0 1 0 .2l.2.1a.8.8 0 0 0-.2 0 .5.5 0 0 1 .4.3 2.3 2.3 0 0 1 .3-.5 2.4 2.4 0 0 1 .2.8.8.8 0 0 0 .1-.3 2.7 2.7 0 0 1 .2.6l.2-.1a2.5 2.5 0 0 1 0 .4 1.2 1.2 0 0 0 .2-.3s0 0 0 .2a1.5 1.5 0 0 1 .4.1l-.3-.4a1.3 1.3 0 0 1 .6.3v-.4a3.4 3.4 0 0 1 .5.7 3.4 3.4 0 0 1 .6-.8s0 1-.4 1.4a.8.8 0 0 1 0 .2h.2l.3-.3a1.6 1.6 0 0 1 0 .5 2.2 2.2 0 0 1 .4-.3 2.8 2.8 0 0 1-.1.5 4.3 4.3 0 0 1 .6-.1l.4-.4ZM59.1 111.3a1.5 1.5 0 0 1-.3.2h.2a1.3 1.3 0 0 1 .1-.2ZM77.3 90.1l.3-.3v-.3a1.2 1.2 0 0 1-.4 0c-.4.9-2 1-2 1a5.2 5.2 0 0 1 1-1.1 5.5 5.5 0 0 1-1.2-.7s0 0 .5 0a2.3 2.3 0 0 1-.8-.4s.3 0 .8-.1a2.4 2.4 0 0 1-.5-.3l-.4.1a2 2 0 0 0 .2-.5 4.2 4.2 0 0 1-.5.3 3.9 3.9 0 0 1 0-.4 4.2 4.2 0 0 1-.8.4l.1.1h-.3a1.4 1.4 0 0 1 .5.3s-.2 0-.5 0a3.8 3.8 0 0 1-.4.4.8.8 0 0 1 0 .1 3 3 0 0 1 .3.2 2.4 2.4 0 0 1-.5.2 1.5 1.5 0 0 1 .4.2s-.1 0-.4 0a1.1 1.1 0 0 0 0 .2 1 1 0 0 1 0 .1c.6-.1 1.3.6 1.3.6a3.4 3.4 0 0 1-.9 0l.1.2.2.1a1.6 1.6 0 0 1-.1 0 1 1 0 0 1 0 .2 2.9 2.9 0 0 1 .4.3.9.9 0 0 0-.3 0 2.4 2.4 0 0 1 .6.5 2.2 2.2 0 0 1-.6 0l.1.3a3.5 3.5 0 0 0-.5-.1 1.1 1.1 0 0 1 0 .1s-.1 0-.4-.1a1.6 1.6 0 0 1 .1.3 3.1 3.1 0 0 1 .4.3 3.3 3.3 0 0 1-.9 0 2.4 2.4 0 0 1 .1.4 1.7 1.7 0 0 1 1.3-.2v-.2c0-.2-.2-.3-.2-.3a1.5 1.5 0 0 1 .5.2 2.3 2.3 0 0 1-.2-.5 2.8 2.8 0 0 1 .4.2.6.6 0 0 1 0-.2l.1-.6a2.7 2.7 0 0 1 .4.6v-.4a1.5 1.5 0 0 1 .2.4 2.4 2.4 0 0 1 .2-.5 2.6 2.6 0 0 1 .2.4l.2-.3-.1-.3a1.5 1.5 0 0 1 .3.2 2.4 2.4 0 0 1 0-.5 3 3 0 0 1 .4.3v-.2l-.1-.2h.3a.8.8 0 0 0 0-.3 2.6 2.6 0 0 1 .2.4h.2a3.4 3.4 0 0 0 .1-.5 2.3 2.3 0 0 1 .2.2 1.5 1.5 0 0 1 .3 0l-.3-.3a1.8 1.8 0 0 1 .4 0ZM69.8 85.2a3.4 3.4 0 0 1 .8.1s0 0-.3.2a1.4 1.4 0 0 1 .6 0s-.2.1-.5.3a1.4 1.4 0 0 1 .4 0l.1-.2a1 1 0 0 0 0 .4 3 3 0 0 1 .3-.3 2.4 2.4 0 0 1 0 .2 2.8 2.8 0 0 1 .5-.4.9.9 0 0 0 0 .3 2.3 2.3 0 0 1 .5-.5v.3a4.8 4.8 0 0 1 .6-1 5.6 5.6 0 0 1-1.3-.3s0 0 .5-.1a2.2 2.2 0 0 1-.9-.3s.3 0 .8-.3a5.9 5.9 0 0 1 .4-.7 1.5 1.5 0 0 1 .1-.2 4.4 4.4 0 0 1-.7-.2 3.9 3.9 0 0 1 .7-.4 2.4 2.4 0 0 1-.7-.2s.2-.1.6-.3v-.2a1.2 1.2 0 0 1-.2-.1c-.7.5-2.2-.4-2.2-.4a1.2 1.2 0 0 0 0 .2l.8.2a1.9 1.9 0 0 1-.7.2l.4.1a4.5 4.5 0 0 1-1 .4 4.4 4.4 0 0 1 .6 1 4 4 0 0 1-.8-.2 2.4 2.4 0 0 1-.4 1 4 4 0 0 1-.2-.4 2.8 2.8 0 0 1-.3.3l.1.1a1.7 1.7 0 0 1-.1 0 1 1 0 0 0-.2.3V84l-.1.3a4.1 4.1 0 0 1 .2.5.5.5 0 0 1 0 .1 2.6 2.6 0 0 1 .4-.2 2.3 2.3 0 0 1 0 .5 1.5 1.5 0 0 1 .3-.3v.5a.9.9 0 0 1 .2 0c0-.6 1-1 1-1a3.5 3.5 0 0 1-.3.8ZM77.8 90.1a2 2 0 0 1-.3.1.4.4 0 0 1 .2.2 2.8 2.8 0 0 1 .1-.3ZM70.8 99.1ZM79 60.7v.4a1.7 1.7 0 0 1 .3-.4H79ZM81.3 21.6v-.1.1ZM45.8 86.1v.1ZM76.7 25.6a1.7 1.7 0 0 1 .3.3v-.5a2.3 2.3 0 0 1-.4 0v.2ZM80.6 49a4.5 4.5 0 0 1-.7.8 1.2 1.2 0 0 1-.5.6 1 1 0 0 1 0 .3h.2l.4-.3a2 2 0 0 1-.1.6 2.7 2.7 0 0 1 .3-.2l-.1-.1h.5a2.5 2.5 0 0 1-.3-.3 2.4 2.4 0 0 1 .4-.2 1.4 1.4 0 0 1-.4-.2s.2 0 .4 0a2.7 2.7 0 0 1-.6-.4h.6a1 1 0 0 1 .2-.1 2.5 2.5 0 0 1-.2-.4V49ZM89.5 43.4l-.1.1a1 1 0 0 1 .1 0v-.1Z"/><path fill="#73bf44" d="M60 104v-.1h-.1ZM52.2 81.3v.1-.1ZM81.2 56a.6.6 0 0 1-.1 0s0 0-.2 0a2 2 0 0 1-.3.4l.4-.1.3-.2.1-.1a.7.7 0 0 1-.2 0ZM60.7 103.6ZM53 81.8v-.1h-.1l.1.1ZM81.1 56.3a1.6 1.6 0 0 1-.4.5l.3-.1a2.2 2.2 0 0 1 .4-.3 1.2 1.2 0 0 1-.3 0ZM97.5 23v-.3l-.1-.3a1.2 1.2 0 0 1 0 .4 1.2 1.2 0 0 1 0 .1ZM79 48.8v.1ZM78.7 61l.3-.3a3.6 3.6 0 0 1-.4 0 3 3 0 0 1 .1.3ZM77.9 48ZM83.1 24.5h.1-.1ZM77.4 48.6v-.2a1.3 1.3 0 0 1 0 .2ZM83 24.2a1 1 0 0 0 .1 0 1 1 0 0 1-.2 0ZM68 83.8a1.6 1.6 0 0 1 0 .2v-.1ZM79.2 49.5h.1a2.4 2.4 0 0 1 0-.6l-.1.1a2.2 2.2 0 0 1 0 .2v.3ZM78.4 61.5h-.2v.1l.2-.1ZM104.5 33.8h.3-.1a3.7 3.7 0 0 1 .1.8l.3-.2a3.8 3.8 0 0 1 0 .6 3 3 0 0 0 .2-.3 2.4 2.4 0 0 1-.1-1 3.8 3.8 0 0 1 .4.3 1 1 0 0 1 0-.2 4.5 4.5 0 0 1 .4-.6V33a1.7 1.7 0 0 1-.4-.1.9.9 0 0 0 .2.3 2.8 2.8 0 0 1-.6-.3 2.5 2.5 0 0 1 0 .3 2.9 2.9 0 0 1-.3-.2 1.2 1.2 0 0 0 .1.3s-.1 0-.2 0a1.3 1.3 0 0 1-.3.1h.5a1.4 1.4 0 0 1-.5.4ZM89.1 62.1a1 1 0 0 1-.1.2 1 1 0 0 1 .1 0V62ZM99.4 22.3ZM98.3 83v.2h.2l-.2-.2ZM72.4 86a1 1 0 0 1 .2 0h-.1a1.6 1.6 0 0 1 .1.4 2.8 2.8 0 0 1 .2-.3 1 1 0 0 1 0 .1l.6-.4a2 2 0 0 1-.6-.1 4.2 4.2 0 0 1-.4.1 1 1 0 0 0 0 .2ZM103.3 34.3l-.1.2v-.2ZM99.5 35.9a1.1 1.1 0 0 1 .2.1l.2-.2-.1-.4a.7.7 0 0 0 0 .3 2.8 2.8 0 0 1-.4-.6l-.1.2a1 1 0 0 1 .2.6ZM97.8 22.7a1 1 0 0 1 0-.1l.1-.1-.1-.3a2.5 2.5 0 0 1 .2 0 2.6 2.6 0 0 1-.3-.3 3.2 3.2 0 0 1-.1.6 3 3 0 0 1 .2.2ZM98.3 22.3l.1.1-.2-.1ZM99.2 35.2a2.8 2.8 0 0 1 0-.3 1.3 1.3 0 0 1-.2.1 2.2 2.2 0 0 1 .2.2ZM106.3 33l-.1-.4a1 1 0 0 1-.2 0 1.8 1.8 0 0 1 .2.2 1 1 0 0 1 .1.1ZM85.9 62.7h-.2.2ZM86.3 63.4l.3.4a3.5 3.5 0 0 1 0-.4 1.6 1.6 0 0 1-.3-.3 2.4 2.4 0 0 1-.3.5 3.2 3.2 0 0 1 .2.3 4.5 4.5 0 0 1 0-.5ZM84.5 61.4l.1-.2V61a.8.8 0 0 1-.2 0 .7.7 0 0 1-.2.3v.2l.3-.1ZM88.8 62a1.5 1.5 0 0 1-.2.2v.2a2.1 2.1 0 0 1 .2-.3ZM72.9 86.3v.1l.2-.1h-.2ZM87 63.3ZM88.3 62.3ZM88.1 62.5zM88.5 62.4a1.2 1.2 0 0 0 0 .2 1.4 1.4 0 0 1 0-.2Z"/><path fill="#73bf44" d="M126 89.9a2.6 2.6 0 0 0-.6-.6.9.9 0 0 0 0-.1h.3a.9.9 0 0 1-.1-.2v-.2a3 3 0 0 0-.2-.4 3.8 3.8 0 0 0 .4.1 2.4 2.4 0 0 0-.5-.9 4.2 4.2 0 0 0 .6-.5 4.5 4.5 0 0 0-1.2 0 4.6 4.6 0 0 0 .3-1s0 0-.3.2a1.9 1.9 0 0 0 .2-.7s-.2.2-.5.4a4.9 4.9 0 0 0-.8 0 1 1 0 0 0-.1 0 3.9 3.9 0 0 0 .2-.6 3.3 3.3 0 0 0-.6.3 2 2 0 0 0 .1-.6s-.1 0-.4.3h-.2a1 1 0 0 0 0-.3c.7-.3.7-1.7.7-1.7a4.5 4.5 0 0 0-.8.8l-.2-.3a2.3 2.3 0 0 0 .1-.3h-.2a3.7 3.7 0 0 0 0-.7 1.2 1.2 0 0 1-.3.3 3.2 3.2 0 0 0 .2-1 2.9 2.9 0 0 0-.6.4 3.9 3.9 0 0 0-.1-.4l-.4.7a2.1 2.1 0 0 0 0-.3s-.2.3-.4.6a1.6 1.6 0 0 0-.2-.4 4.3 4.3 0 0 0 .1-.7 4.5 4.5 0 0 0-.9.8 4.4 4.4 0 0 0-.2-.5l-.3-.5v.4a2 2 0 0 0-.4-.6v.5h-.4a4.6 4.6 0 0 0 .4-1s0 0-.4.2a1.9 1.9 0 0 0 .3-.6s-.3.1-.6.3a5.2 5.2 0 0 0-.7 0 .9.9 0 0 0-.2 0 3.4 3.4 0 0 0 .2-.6 3.2 3.2 0 0 0-.6.2 2 2 0 0 0 .2-.6s-.2.1-.4.3h-.3a1 1 0 0 0 .1-.3 1.1 1.1 0 0 0 .6-.6h.2l-.1-.2a4 4 0 0 0 .2-.9l-.3.2a4 4 0 0 0-.5-.8 4.4 4.4 0 0 0 .4 0 4.1 4.1 0 0 0-.4-.5 4.3 4.3 0 0 1 .4 0 3 3 0 0 0 .7 1.1 4 4 0 0 0 .2-.7l.1.1a6.1 6.1 0 0 0 .8.4l.3.7a2.2 2.2 0 0 0 .2-.8l.2.4a5.6 5.6 0 0 0 .3-1.3 5.4 5.4 0 0 0 1.3.7 5 5 0 0 0-.4-1 2.8 2.8 0 0 0 1.1-.6 4.3 4.3 0 0 0-.5-.1 3.3 3.3 0 0 0 .4-.4l.1.1v-.2a1 1 0 0 1 .3-.2s-.2 0-.3 0a1.3 1.3 0 0 0 0-.2 3.3 3.3 0 0 0 1-.3 3.8 3.8 0 0 0-1.1-.6 3.3 3.3 0 0 0 .3 0h.2v-.1a1.2 1.2 0 0 1 .2 0s-.1-.1-.3-.2a1.9 1.9 0 0 0-.1-.5.7.7 0 0 0 .1.1l.9.6a2.4 2.4 0 0 0-.2-.7l.6.5a2.4 2.4 0 0 0-.3-.8l.4.3a5.4 5.4 0 0 0-.4-1.3 5.3 5.3 0 0 0 1.5-.1s-1.3-1.1-2.2-.8a1.3 1.3 0 0 0-.2-.2l.2-.2h.6a2.5 2.5 0 0 0-.7-.5 4.1 4.1 0 0 0 .8-.3 4.2 4.2 0 0 0-.7-.3.9.9 0 0 0 .2-.1 6 6 0 0 0 .5-.7l.8-.1a2.2 2.2 0 0 0-.7-.4h.4a5.5 5.5 0 0 0-1.2-.7l.4-.3.5.4a2.2 2.2 0 0 0-.2-.8l.3.3a5.2 5.2 0 0 0 0-.6h-.1a5 5 0 0 0-.2-.7 5.3 5.3 0 0 0 1.4 0 5.1 5.1 0 0 0-.6-.5 2 2 0 0 0-.2-.5l.8.2a2.6 2.6 0 0 0-.2-.2 6 6 0 0 1 1 .2 3.9 3.9 0 0 0-.3-.4 3.5 3.5 0 0 0 1-.1 3.8 3.8 0 0 0-1-.8 1.5 1.5 0 0 1 .5 0 4.9 4.9 0 0 0-.7-.5v-.2l.2-.1-.3-.1-.1-.4a5.4 5.4 0 0 0 1.4 0s-1.2-1.2-2-1a1.2 1.2 0 0 0-.3-.1l.2-.2h.7a2.4 2.4 0 0 0-.7-.5 3.8 3.8 0 0 0 .8-.3 4.4 4.4 0 0 0-.6-.3l.1-.1a6.6 6.6 0 0 0 .6-.6l.8-.1a2.2 2.2 0 0 0-.7-.5h.5a5.6 5.6 0 0 0-1.2-.7 5.4 5.4 0 0 0 1-1 5 5 0 0 0-1 .1 2.8 2.8 0 0 0-.2-1.3 4.1 4.1 0 0 0-.3.5 3.3 3.3 0 0 0-.2-.6h.2a2 2 0 0 0-.3 0 1.2 1.2 0 0 1 0-.4s-.1.1-.2.3a1.7 1.7 0 0 0-.2 0 3.3 3.3 0 0 0 .1-1 3.8 3.8 0 0 0-.9.7 1.6 1.6 0 0 1 0-.5 4.4 4.4 0 0 0-.6.8l-.2-.5a4.2 4.2 0 0 0-.3.6 2 2 0 0 1 0-.6s-.2 0-.3.3a2.3 2.3 0 0 0-.6-.1l.7-.4a2.3 2.3 0 0 0-.9-.1l.5-.2a5.5 5.5 0 0 0-1.4-.2 5.3 5.3 0 0 0 .6-1.4s-1.6.7-1.7 1.6a1.2 1.2 0 0 0-.2.2l-.1-.3.1-.6a2.4 2.4 0 0 0-.6.4 3.6 3.6 0 0 0 0-.8 4.2 4.2 0 0 0-.5.5 1.6 1.6 0 0 0 0-.2 5.2 5.2 0 0 0-.4-.8l.2-.8a2.3 2.3 0 0 0-.7.5l.2-.4a5.7 5.7 0 0 0-1 .7 3 3 0 0 0-.2-.3v-.2a4 4 0 0 0 .4-.2 2.7 2.7 0 0 0-.7-.4l-.1-.2a1.7 1.7 0 0 0 0-.1 3.9 3.9 0 0 0 .2.2 3.5 3.5 0 0 0 0-.3 3.7 3.7 0 0 0 .8.4 1.2 1.2 0 0 1-.2-.4 3.2 3.2 0 0 0 1 .3 3.1 3.1 0 0 0-.2-.5 4 4 0 0 0 .7 0 1 1 0 0 1-.2-.2 2 2 0 0 0 .6 0s0 0-.2-.1a1.7 1.7 0 0 0 .5-.1 4.2 4.2 0 0 0 .7.4 4.6 4.6 0 0 0-.4-1.2 4.6 4.6 0 0 0 1 0s0 0-.3-.3a1.9 1.9 0 0 0 .8 0s-.3-.2-.7-.4a5.7 5.7 0 0 0-.2-.7 1 1 0 0 0 0-.1 3.6 3.6 0 0 0 .5 0 3 3 0 0 0-.4-.5 2 2 0 0 0 .6-.1s-.2-.1-.5-.3V48a1.1 1.1 0 0 0 .2 0c.6.4 2 0 2 0a4.6 4.6 0 0 0-1.2-.5 4.5 4.5 0 0 0 .7-.9s0 0-.4.1a1.9 1.9 0 0 0 .5-.5s-.2 0-.6.1a2.3 2.3 0 0 0 .3-.3h.3a1.7 1.7 0 0 1-.3-.4 3.6 3.6 0 0 0 .5.1 2.8 2.8 0 0 0-.2-.3 3.7 3.7 0 0 0 .9 0 1.3 1.3 0 0 1-.3-.3 3.2 3.2 0 0 0 1 0 2.6 2.6 0 0 0-.7-.5 1 1 0 0 0 .2-.2l.2.1a.9.9 0 0 1-.1-.2 1.5 1.5 0 0 0 0-.2 2.6 2.6 0 0 0-.2-.4 3.5 3.5 0 0 0 .4.1 2.4 2.4 0 0 0-.5-1 4 4 0 0 0 .6-.4 4.5 4.5 0 0 0-1.2 0 4.5 4.5 0 0 0 .3-1.1s0 0-.3.3a1.9 1.9 0 0 0 .2-.7s-.2.1-.5.4a4.8 4.8 0 0 0-.8 0 1 1 0 0 0-.1 0 3.2 3.2 0 0 0 .2-.6 3.4 3.4 0 0 0-.6.2 2 2 0 0 0 .1-.6s-.1.2-.4.4h-.2a1 1 0 0 0 0-.3c.7-.4.7-1.8.7-1.8a4.6 4.6 0 0 0-.8.9 2.4 2.4 0 0 0-.2-.3l.1-.3h-.2a4.2 4.2 0 0 0 0-.7 1.2 1.2 0 0 1-.3.2 3.2 3.2 0 0 0 .2-1 3 3 0 0 0-.6.5 3.5 3.5 0 0 0-.1-.4l-.4.7a1.8 1.8 0 0 0-.1-.3s-.1.3-.3.6a1.8 1.8 0 0 0-.2-.4 4 4 0 0 0 .1-.7 4.5 4.5 0 0 0-.9.8 3.7 3.7 0 0 0-.2-.5 3.8 3.8 0 0 0-.3-.5s0 0 0 .4a2 2 0 0 0-.4-.6v.5a3 3 0 0 0-.5 0 4.6 4.6 0 0 0 .4-1s0 0-.3.2a1.9 1.9 0 0 0 .3-.7s-.3.2-.6.4a5.3 5.3 0 0 0-.7-.1 1 1 0 0 0-.2 0 3.8 3.8 0 0 0 .2-.5 3 3 0 0 0-.6.2 2 2 0 0 0 .2-.6s-.2.1-.4.3h-.3a1 1 0 0 0 .1-.3c.7-.3.9-1.7.9-1.7a4.5 4.5 0 0 0-1 .8 4.6 4.6 0 0 0-.4-1s0 0-.1.3a1.9 1.9 0 0 0-.3-.6l-.1.6a1.9 1.9 0 0 0-.3-.5l-.2.8a.8.8 0 0 0 0 .2 1.5 1.5 0 0 0-.2-.4v-.2a1.7 1.7 0 0 0-.2 0v.1a2.7 2.7 0 0 0-.3.2 3.1 3.1 0 0 0 .3-1 2.7 2.7 0 0 0-.7.4l-.1-.1.2-.2a1 1 0 0 1-.3 0l-.1-.1a.7.7 0 0 0 0 .1 2.6 2.6 0 0 0-.5 0 3.3 3.3 0 0 0 .2-.4 2.4 2.4 0 0 0-1 .3 4 4 0 0 0-.3-.8 4.3 4.3 0 0 0-.4 1.1 5 5 0 0 0-.8-.6.7.7 0 0 1 0-.2 1.9 1.9 0 0 0 0-.4 2.6 2.6 0 0 0 .3.2 1.8 1.8 0 0 0-.2-.8 3 3 0 0 0 .6-.2 3.4 3.4 0 0 0-.9-.4 3.4 3.4 0 0 0 .5-.6s0 0-.3 0a1.4 1.4 0 0 0 .4-.4s-.2.1-.6.2l-.3-.2a2.5 2.5 0 0 0 .5-.5 2.2 2.2 0 0 0-.5 0 1.5 1.5 0 0 0 .3-.3s-.2 0-.4 0h-.2a1 1 0 0 0 .2-.2c.5 0 1-1 1-1a3.4 3.4 0 0 0-.9.3 3.4 3.4 0 0 0 0-.8s0 0-.2.3a1.5 1.5 0 0 0 0-.6s-.2.2-.3.4a1.6 1.6 0 0 0 0-.3 2 2 0 0 0 .1-.2 1.2 1.2 0 0 1-.4 0 2.7 2.7 0 0 0 .4-.2 3 3 0 0 0-.3-.1 2.6 2.6 0 0 0 .5-.4.8.8 0 0 1-.3 0 2.4 2.4 0 0 0 .5-.6 2.2 2.2 0 0 0-.6 0l.1-.3a3.5 3.5 0 0 1-.5.3 1 1 0 0 0 0-.2s-.1.1-.4.2a1.4 1.4 0 0 0 0-.3 3 3 0 0 0 .4-.4 3.4 3.4 0 0 0-.9.1 3.4 3.4 0 0 0 .1-.8 2.5 2.5 0 0 1-.2.2 1.3 1.3 0 0 0 .1-.5l-.3.4a3.9 3.9 0 0 0-.6 0 .8.8 0 0 0-.1 0 3 3 0 0 0 0-.4 2.3 2.3 0 0 0-.4.2 1.5 1.5 0 0 0 0-.4s0 .1-.2.3h-.2a.7.7 0 0 0 0-.2c.5-.3.4-1.4.4-1.4a3.2 3.2 0 0 0-.6.7 3.5 3.5 0 0 0-.5-.7s0 .1 0 .5a1.2 1.2 0 0 0-.6-.3s.1.1.3.4a1.5 1.5 0 0 0-.3-.1v-.3a1.2 1.2 0 0 1-.3.3 2.8 2.8 0 0 0 0-.4l-.2.2a2.6 2.6 0 0 0-.1-.6.9.9 0 0 1-.2.3 2.4 2.4 0 0 0-.2-.8 2.4 2.4 0 0 0-.3.5c-.1-.4-.8-.3-.8-.3l.4.3a1.4 1.4 0 0 0-.4 0l-.1-.2a2.3 2.3 0 0 1-.1.4c-.1-.2-.4-1-.9-1a.8.8 0 0 0 0-.2h.5a1.5 1.5 0 0 0-.2-.3 2.3 2.3 0 0 0 .5 0 3 3 0 0 0-.3-.3h.2a4 4 0 0 0 .5-.2l.5.2a1.4 1.4 0 0 0-.3-.5l.3.2a3.4 3.4 0 0 0-.5-.8 3.4 3.4 0 0 0 1-.2 3.2 3.2 0 0 0-.5-.2 1.3 1.3 0 0 0-.2-.3h.5a1.1 1.1 0 0 0-.2 0 3.5 3.5 0 0 1 .6 0s0-.2-.2-.3a2.3 2.3 0 0 0 .6-.2 2.4 2.4 0 0 0-.7-.3.9.9 0 0 1 .3-.1 2.9 2.9 0 0 0-.6-.2l.2-.2a2.6 2.6 0 0 0-.4 0 1.3 1.3 0 0 1 .3-.2s0 0-.2-.1a1.3 1.3 0 0 0-.1-.4l.4.3a1.4 1.4 0 0 0-.2-.5l.3.2a3.6 3.6 0 0 0-.3-.8 3.3 3.3 0 0 0 1 0s-.8-.7-1.4-.6a.6.6 0 0 0-.1 0l.1-.2h.4a1.4 1.4 0 0 0-.4-.3 2.4 2.4 0 0 0 .5-.2 2.7 2.7 0 0 0-.4-.2 4 4 0 0 0 .4-.5h.5a1.4 1.4 0 0 0-.4-.3h.3a3.5 3.5 0 0 0-.8-.4 3.2 3.2 0 0 0 .7-.7 3.1 3.1 0 0 0-.6.1 1.8 1.8 0 0 0-.2-.8 2.6 2.6 0 0 0-.2.3 1.6 1.6 0 0 0-.2-.3h.1-.1a.6.6 0 0 1 0-.3 1.8 1.8 0 0 0-.1.2h-.1a2.1 2.1 0 0 0 0-.7 2.4 2.4 0 0 0-.6.6.9.9 0 0 1 0-.4 2.9 2.9 0 0 0-.4.5v-.2a2.7 2.7 0 0 0-.3.3 1.3 1.3 0 0 1 0-.4s0 0-.2.2a1.4 1.4 0 0 0-.3 0l.4-.3a1.4 1.4 0 0 0-.5 0l.2-.2a3.4 3.4 0 0 0-.8 0 3.4 3.4 0 0 0 .3-1s-1 .5-1 1a.8.8 0 0 0-.1.2L95 11v-.4a1.5 1.5 0 0 0-.3.3 2.8 2.8 0 0 0 0-.5 2.8 2.8 0 0 0-.3.3.8.8 0 0 0 0-.1 4.2 4.2 0 0 0-.3-.5l.1-.5a1.4 1.4 0 0 0-.4.3 2.3 2.3 0 0 1 .1-.2 3.4 3.4 0 0 0-.6.5 3.3 3.3 0 0 0-.4-.8 3.2 3.2 0 0 0-.1.4 1.2 1.2 0 0 0-.3.3v-.5a1 1 0 0 0-.1.1 3.3 3.3 0 0 1-.1-.5 2.8 2.8 0 0 0-.2.2 2.2 2.2 0 0 0-.3-.5 2.3 2.3 0 0 0-.2.7 1 1 0 0 1-.1-.3 2.9 2.9 0 0 0-.2.7l-.2-.2a2.5 2.5 0 0 0 0 .4 2.2 2.2 0 0 1-.2-.2 1.9 1.9 0 0 0 .2-.8 2.8 2.8 0 0 0-.4.3.7.7 0 0 0 0-.1 4 4 0 0 0-.2-.6l.2-.4a1.4 1.4 0 0 0-.4.3v-.3a3.2 3.2 0 0 0-.6.4 3.2 3.2 0 0 0-.3-.8 2.9 2.9 0 0 0-.2.5 1.7 1.7 0 0 0-.8-.2 3 3 0 0 0 .2.3 2 2 0 0 0-.4 0 .7.7 0 0 1-.3 0s0 0 .1.1a.8.8 0 0 0 0 .1 2 2 0 0 0-.6-.3 2.4 2.4 0 0 0 .2.7 1.5 1.5 0 0 0-.2 0V9a.7.7 0 0 1-.2 0v.2a1.2 1.2 0 0 0 0 .3.4.4 0 0 0-.1-.2l-.1-.6a1.7 1.7 0 0 0-.2.4l-.1-.5a1.4 1.4 0 0 0-.2.5v-.3a3.3 3.3 0 0 0-.5.7 3.2 3.2 0 0 0-.6-.6s0 1 .5 1.3a.7.7 0 0 0 0 .2l-.4-.2a1.5 1.5 0 0 0 .1.4 2.7 2.7 0 0 0-.4-.1 2.8 2.8 0 0 0 .1.4.7.7 0 0 0-.1 0 3.8 3.8 0 0 0-.5 0l-.5-.3a1.4 1.4 0 0 0 .2.5 7 7 0 0 1-.2-.1 3.4 3.4 0 0 0 .2.7 2.6 2.6 0 0 0-.3 0v-.4a1.6 1.6 0 0 0-.3.5v-.3l-.1.1a3.3 3.3 0 0 0-.6 0 2 2 0 0 0 .4-.5s-.2 0-.5 0l-.3-.1a3.8 3.8 0 0 0 .6-.3 3.4 3.4 0 0 0-.7-.3 2 2 0 0 0 .6-.3s-.2 0-.5 0a3.6 3.6 0 0 0 .8-.4l-.8-.2a1.5 1.5 0 0 0-.2 0 4 4 0 0 0 .3-.6 3 3 0 0 0-.7.2 1.9 1.9 0 0 0 .3-.6s-.2.1-.5.2h-.2c.5-.8-.2-2.3-.2-2.3V7a1.8 1.8 0 0 0-.3-.7s0 .3-.2.6a2.1 2.1 0 0 0-.2-.4l.3-.3a1.6 1.6 0 0 1-.6 0 3.3 3.3 0 0 0 .4-.3h-.3A3.6 3.6 0 0 0 81 5a1.2 1.2 0 0 1-.4 0 3.2 3.2 0 0 0 .5-.8 3 3 0 0 0-.6.2 4.8 4.8 0 0 0 .3-.4 4.5 4.5 0 0 0-1.2 0 4.6 4.6 0 0 0 .2-1l-.2.3a2 2 0 0 0 .1-.7s-.2.2-.5.4a5 5 0 0 0-.7 0 1 1 0 0 0-.2 0 3.5 3.5 0 0 0 .1-.5 3 3 0 0 0-.5.3 2 2 0 0 0 0-.6s-.1.2-.3.4h-.3a1 1 0 0 0 0-.3c.7-.4.6-1.8.6-1.8a4.6 4.6 0 0 0-.8 1 4.5 4.5 0 0 0-.6-1s0 0 0 .4a1.9 1.9 0 0 0-.4-.6s0 .3 0 .6a2.1 2.1 0 0 0-.4-.4s0 .3 0 .8a.9.9 0 0 0 0 .2 1.5 1.5 0 0 0-.3-.3V1a1 1 0 0 1 0 .1 1.8 1.8 0 0 0-.2 0s0 0 0 .1a2.1 2.1 0 0 0-.3.2 3.2 3.2 0 0 0 .2-1 2.7 2.7 0 0 0-.7.5 1.2 1.2 0 0 0 0-.1V.6a1 1 0 0 1-.2 0H74a2.9 2.9 0 0 0-.4.1 3.5 3.5 0 0 0 .2-.4 2.3 2.3 0 0 0-1 .4 4.3 4.3 0 0 0-.4-.7 4.5 4.5 0 0 0-.2 1.2 4.5 4.5 0 0 0-1-.5s0 0 .2.3a2 2 0 0 0-.7-.3s.1.3.3.7a5 5 0 0 0-.1.7.9.9 0 0 0 0 .1 3.5 3.5 0 0 0-.6-.3 2.6 2.6 0 0 0 .3 1 2.8 2.8 0 0 0-.1.2 4 4 0 0 0-.1-.4 4 4 0 0 0-.3.3 3.6 3.6 0 0 0-.2-.8 1.2 1.2 0 0 1-.2.4 3.2 3.2 0 0 0-.4-1 3.5 3.5 0 0 0-.2.5 3.8 3.8 0 0 0-.5-.5 1 1 0 0 1 0 .3 2 2 0 0 0-.4-.5s0 .1 0 .3a1.7 1.7 0 0 0-.5-.3 3.9 3.9 0 0 0-.1-.7 4.5 4.5 0 0 0-.5 1 4.6 4.6 0 0 0-1-.6s.1 0 .2.3a1.9 1.9 0 0 0-.6-.4s.1.3.2.7a4.8 4.8 0 0 0-.3.6 1 1 0 0 0 0 .1 3.7 3.7 0 0 0-.5-.3 3.2 3.2 0 0 0 0 .6 2 2 0 0 0-.5-.4s0 .2.1.5v.3a1 1 0 0 0-.3-.2c0-.7-1.3-1.3-1.3-1.3a4.5 4.5 0 0 0 .4 1.1 4.6 4.6 0 0 0-1.1.1s0 0 .4.2a1.9 1.9 0 0 0-.8 0s.3.2.6.4a1.8 1.8 0 0 0-.5 0l-.2-.2a1.7 1.7 0 0 1 0 .5 3.5 3.5 0 0 0-.3-.5l-.1.4a3.6 3.6 0 0 0-.6-.7 1.2 1.2 0 0 1 0 .5 3.2 3.2 0 0 0-.7-.7 2.7 2.7 0 0 0 0 .8h-.1l-.1-.2a1 1 0 0 1-.1.3h-.2.1a2.8 2.8 0 0 0-.2.5 3.2 3.2 0 0 0-.2-.4 2.4 2.4 0 0 0-.3 1 4.1 4.1 0 0 0-.8 0 4.4 4.4 0 0 0 .8.8 4.7 4.7 0 0 0-1 .6s.1 0 .5 0a1.9 1.9 0 0 0-.7.3s.3 0 .7.1a4.6 4.6 0 0 0 .5.6 1.5 1.5 0 0 0 .1 0 3.4 3.4 0 0 0-.5.4 3.3 3.3 0 0 0 .6.2 2 2 0 0 0-.5.3s.2 0 .5 0l.1.3a1 1 0 0 0-.2.1c-.7-.2-1.7.7-1.7.7a4.4 4.4 0 0 0 1.2 0 3.1 3.1 0 0 0-.1.4 2.6 2.6 0 0 0-.3 0l.2.2v.2a3.8 3.8 0 0 0-.6.3 1.2 1.2 0 0 1 .4 0 3.2 3.2 0 0 0-.8.7 3 3 0 0 0 .8 0 3.8 3.8 0 0 0-.2.4 5 5 0 0 1 .7-.1 1.4 1.4 0 0 0-.1.2s.2-.1.6-.2a1.7 1.7 0 0 0-.2.4 3.8 3.8 0 0 0-.5.4 4.4 4.4 0 0 0 1.2 0 3.5 3.5 0 0 0-.2.6 4.5 4.5 0 0 0-.2.5s0 0 .3-.2a1.9 1.9 0 0 0-.2.7l.5-.3a2.7 2.7 0 0 0 .3.2 4.5 4.5 0 0 0-1 .5s0 0 .4 0a1.9 1.9 0 0 0-.7.4s.3 0 .7.1a4.8 4.8 0 0 0 .4.6.9.9 0 0 0 .1 0 3.6 3.6 0 0 0-.5.3 3.2 3.2 0 0 0 .6.3 2 2 0 0 0-.6.3s.2 0 .5 0c0 .2.1.2.2.3a1.1 1.1 0 0 0-.3.1 1.1 1.1 0 0 0-.8 0v-.2l-.2.4a4.2 4.2 0 0 0-.8.4h.3a4.3 4.3 0 0 0-.1 1l-.4-.3a4.5 4.5 0 0 0 0 .6l-.3-.3a3 3 0 0 0 .3-1.2 4.4 4.4 0 0 0-.6.4 1.1 1.1 0 0 0 0-.2 5.8 5.8 0 0 0-.4-.8l.3-.8a2.3 2.3 0 0 0-.7.5l.2-.5a5.4 5.4 0 0 0-1.1.7 5.4 5.4 0 0 0-.5-1.3 5 5 0 0 0-.3.9 2.8 2.8 0 0 0-1.3-.4 4.4 4.4 0 0 0 .3.5 3.2 3.2 0 0 0-.6 0v-.2a1.6 1.6 0 0 0-.1.2 1 1 0 0 1-.4 0s.1 0 .2.2v.1a3.4 3.4 0 0 0-1-.5 3.8 3.8 0 0 0 .4 1.2 2.7 2.7 0 0 0-.3-.2v-.2a1.6 1.6 0 0 0-.2.2 1.1 1.1 0 0 1-.2-.2s0 .1.1.3a1.7 1.7 0 0 0-.2.5.9.9 0 0 0 0-.2l-.2-1a2.5 2.5 0 0 0-.4.6l-.1-.8a2.2 2.2 0 0 0-.4.8V16a5.4 5.4 0 0 0-.7 1.2 5.4 5.4 0 0 0-1-1s0 1.7.9 2a1.3 1.3 0 0 0 0 .4h-.2l-.5-.3a2.4 2.4 0 0 0 .2.7 3.7 3.7 0 0 0-.8-.3 4.2 4.2 0 0 0 .3.6 1.3 1.3 0 0 0-.2 0 6 6 0 0 0-.9.1 16 16 0 0 1-.7-.5 2.2 2.2 0 0 0 .3.9l-.4-.3a5.5 5.5 0 0 0 .4 1.2 4.1 4.1 0 0 0-.4 0l-.1-.7a2.3 2.3 0 0 0-.4.7v-.4a5.7 5.7 0 0 0-.4.5H46a4.8 4.8 0 0 0-.2.7 5.4 5.4 0 0 0-1-1 5.2 5.2 0 0 0 0 .8 2.1 2.1 0 0 0-.2.5l-.4-.7a2.4 2.4 0 0 0 0 .3c-.3-.5-.4-.5-.5-.9a4.9 4.9 0 0 0-.1.5 3.5 3.5 0 0 0-.8-.6 3.9 3.9 0 0 0 .2 1.2 1.5 1.5 0 0 1-.4-.3 5 5 0 0 0 .1.8l-.1.2-.3-.1.2.3-.2.3a5.3 5.3 0 0 0-1-1s0 1.7.8 2.1a1.3 1.3 0 0 0 0 .3h-.3l-.5-.4a2.4 2.4 0 0 0 .2.8 3.8 3.8 0 0 0-.7-.4 4.6 4.6 0 0 0 .2.7 1.3 1.3 0 0 0-.2 0 6.3 6.3 0 0 0-.9 0l-.6-.5a2.2 2.2 0 0 0 .2.8L39 25a5.6 5.6 0 0 0 .3 1.3 5.4 5.4 0 0 0-1.4 0 5 5 0 0 0 .8.6 2.8 2.8 0 0 0-.8 1 4.1 4.1 0 0 0 .5 0 3.4 3.4 0 0 0-.2.5h-.1a2 2 0 0 0 .1.1 1.2 1.2 0 0 1-.1.4s0 0 .2-.2l.1.2a3.3 3.3 0 0 0-.8.7 3.8 3.8 0 0 0 1.3 0 1.5 1.5 0 0 1-.4.4 4.4 4.4 0 0 0 1 0l-.2.3a4.1 4.1 0 0 0 .6-.1 1.8 1.8 0 0 1-.4.4s.2 0 .4 0a2.2 2.2 0 0 0 .3.5l-.7-.2a2.3 2.3 0 0 0 .5.7l-.4-.2a5.5 5.5 0 0 0 .8 1 5.4 5.4 0 0 0-1.4.6s1.6.7 2.3 0a1.3 1.3 0 0 0 .3.1l-.1.3-.6.3a2.4 2.4 0 0 0 .8.2 3.6 3.6 0 0 0-.6.5 4.3 4.3 0 0 0 .7 0 1.6 1.6 0 0 0-.1.2l-.1.3-.2-.3a3.3 3.3 0 0 0 0 .6 1.3 1.3 0 0 0-.3.3l-.1-.5-.1.1a4 4 0 0 1-.2-.5s0 .1-.1.3a2.2 2.2 0 0 0-.5-.5 2.5 2.5 0 0 0 0 .8 1 1 0 0 1-.2-.3 2.9 2.9 0 0 0 0 .7 2.7 2.7 0 0 0-.3-.1 2.7 2.7 0 0 0 .1.4v-.2a1 1 0 0 0-.2 0s0 0 0 .1a1.4 1.4 0 0 0-.2 0l.2-.4a1.5 1.5 0 0 0-.5.3l.1-.3a3.7 3.7 0 0 0-.8.4 3.5 3.5 0 0 0-.2-1s-.6 1-.3 1.5a1 1 0 0 0 0 .2 2 2 0 0 1-.2 0l-.1-.5a1.5 1.5 0 0 0-.2.5 2.4 2.4 0 0 0-.3-.4 3 3 0 0 0-.1.4 1.1 1.1 0 0 0-.1 0 4 4 0 0 0-.5-.4l-.2-.5a1.4 1.4 0 0 0-.2.6v-.3a3.7 3.7 0 0 0-.3.8 3.5 3.5 0 0 0-.8-.7 3.1 3.1 0 0 0 .2.7 1.5 1.5 0 0 0-.5 0H34.3a.7.7 0 0 1-.3 0s0 .1.2.2a1 1 0 0 0 0 .1 2.2 2.2 0 0 0-.7-.4 2.6 2.6 0 0 0 .2.8 1 1 0 0 1-.3-.2 3.4 3.4 0 0 0 .2.5 2.5 2.5 0 0 0-.5 0 3 3 0 0 0 .2.3 1.3 1.3 0 0 1-.3-.2 2 2 0 0 0 0 .3 1.6 1.6 0 0 0-.2.3v-.6s-.4.5-.3.8a1.3 1.3 0 0 1-.5 0s0 0 .2.1a3 3 0 0 0-.4-.1 2.8 2.8 0 0 0 .2.4.8.8 0 0 0-.2 0 4 4 0 0 0-.5 0l-.5-.3a1.5 1.5 0 0 0 .2.5l-.3-.2a3.7 3.7 0 0 0 .2.9 3.5 3.5 0 0 0-1 0 3.3 3.3 0 0 0 .6.4 1.5 1.5 0 0 0-.3.4 2 2 0 0 0-.2 0 1.4 1.4 0 0 0 0 .1.8.8 0 0 1-.3.2s0 0 .2 0v.1a2.1 2.1 0 0 0-.7 0 3.2 3.2 0 0 0 .3.3 1.3 1.3 0 0 1-.4 0 3.3 3.3 0 0 0 .3.3 2.8 2.8 0 0 0-.5.1 3 3 0 0 0 .3.3 1.2 1.2 0 0 1-.4 0s0 0 .2.1a1.6 1.6 0 0 0-.1.4l-.2-.5s-.3.5-.1.9a1.4 1.4 0 0 1-.4 0 3.5 3.5 0 0 0 .4.3.9.9 0 0 1-.2 0L28 43a1.6 1.6 0 0 0 .1.5l-.2-.2a3.7 3.7 0 0 0 .3.8 3.5 3.5 0 0 0-.9.2 3.5 3.5 0 0 0 .5.2 1.4 1.4 0 0 0 .1.4l-.5-.1a1.7 1.7 0 0 0 .1.1 3.8 3.8 0 0 1-.6 0 2.8 2.8 0 0 0 .2.2 2.5 2.5 0 0 0-.6.2 2.6 2.6 0 0 0 .7.3 1 1 0 0 1-.3.1 3 3 0 0 0 .6.3 2.6 2.6 0 0 0-.2.2s0 0 .2 0l.2.1h-.2v.1a.7.7 0 0 1-.2 0s0 0 .2.1a1.3 1.3 0 0 0 0 .2l-.3-.4a1.5 1.5 0 0 0 0 .6l-.2-.3a3.6 3.6 0 0 0 0 .9 3.5 3.5 0 0 0-.9-.2s.6 1 1.2.9a.8.8 0 0 0 .1.1l-.2.1h-.4a1.6 1.6 0 0 0 .4.3 2.5 2.5 0 0 0-.5.1 2.8 2.8 0 0 0 .3.3.8.8 0 0 0-.1 0 4.5 4.5 0 0 0-.5.4h-.3a1.5 1.5 0 0 0 .4.3h-.3a3.7 3.7 0 0 0 .6.5 3.5 3.5 0 0 0-.8.5 3.2 3.2 0 0 0 .6.1 1.5 1.5 0 0 0 0 .5 1.7 1.7 0 0 0-.1.2h-.1a1.2 1.2 0 0 0 0 .1.6.6 0 0 1 0 .2h.2a2.2 2.2 0 0 0-.6.4 2.5 2.5 0 0 0 .8.1 1 1 0 0 1-.3.3 3.2 3.2 0 0 0 .5 0 2.9 2.9 0 0 0-.2.4 2.7 2.7 0 0 0 .4 0 1.3 1.3 0 0 1-.3.2 2.5 2.5 0 0 0 .3 0 1.5 1.5 0 0 0 .2.3c-.3 0-.5-.2-.5-.2s.2.7.6.7a1.2 1.2 0 0 1-.3.1 2.6 2.6 0 0 0 .2.1.8.8 0 0 1 0 .3 3.2 3.2 0 0 0 .3-.2h.1a2.4 2.4 0 0 0-.3.5 3 3 0 0 0 .4 0l-.3.5a3.1 3.1 0 0 0 .5-.2l-.1.5-.5.3a1.5 1.5 0 0 0 .6 0l-.3.2a3.7 3.7 0 0 0 .9 0 3.6 3.6 0 0 0-.3 1 3.3 3.3 0 0 0 .4-.3 1.3 1.3 0 0 0 .4 0l-.4.4a1.6 1.6 0 0 0 .2 0l-.3.4a3.1 3.1 0 0 0 .3 0 2.3 2.3 0 0 0-.1.6 2.5 2.5 0 0 0 .6-.4 1 1 0 0 1 0 .3 3 3 0 0 0 .5-.4v.3a3 3 0 0 0 .3-.3 1.3 1.3 0 0 1 0 .4 3 3 0 0 0 .2-.2 1.5 1.5 0 0 0 .3.1l-.5.1a1.5 1.5 0 0 0 .5.2l-.3.1a3.6 3.6 0 0 0 .8.3 3.6 3.6 0 0 0-.6.8s1.1-.2 1.4-.7a1 1 0 0 0 .1 0v.1l-.1.4a1.7 1.7 0 0 0 .3-.1v.4a1.7 1.7 0 0 0 .4.7l-.2.3a1.7 1.7 0 0 0 .3-.1.3.3 0 0 0 0 .1 1.3 1.3 0 0 0 .1.2h-.3l-.4-.5a2.4 2.4 0 0 0 0 .8 4 4 0 0 0-.6-.4 4.6 4.6 0 0 0 0 .7 5.7 5.7 0 0 0-1-.1l-.6-.6a2.3 2.3 0 0 0 .2.8l-.3-.3a5.5 5.5 0 0 0 .1 1.3 5.3 5.3 0 0 0-1.4-.2 4.7 4.7 0 0 0 .4.5 3.8 3.8 0 0 0-.8-.2 3.8 3.8 0 0 0 .7 1 1.5 1.5 0 0 1-.6 0 4.3 4.3 0 0 0 .6.7h-.4a4.1 4.1 0 0 0 .5.5 1.9 1.9 0 0 1-.6 0s0 0 .2.3a2.3 2.3 0 0 0-.2.5l-.2-.8a2.2 2.2 0 0 0-.3.9l-.1-.5s-1 1.7-.4 2.7h-.3l-.5-.3a2.3 2.3 0 0 0 .3.7 3.7 3.7 0 0 0-.8-.2 4.4 4.4 0 0 0 .3.7 1.5 1.5 0 0 0-.1 0c-.7 0-.7.2-1 .2a4.4 4.4 0 0 0 .9.5h-.6a2.3 2.3 0 0 0 .6.5 4 4 0 0 0-.7.2 4.5 4.5 0 0 0 .6.4l-.3.2-.6-.1a2.4 2.4 0 0 0 .5.6 3.7 3.7 0 0 0-.8 0 4.3 4.3 0 0 0 .5.5 1.3 1.3 0 0 0-.2 0l-.2.2-.4-.2.1.4a1.5 1.5 0 0 1-.4.2 4.4 4.4 0 0 0 .6.2v.2a6.2 6.2 0 0 1-.8.4s.2 0 .4.1a2.2 2.2 0 0 0 .1.6l-.6-.5s0 1 .6 1.2a3.9 3.9 0 0 0-.7.5 3.8 3.8 0 0 0 1.2.2 1.5 1.5 0 0 1-.4.3 4.4 4.4 0 0 0 1 .1l-.3.4a4.6 4.6 0 0 0 .7 0 1.9 1.9 0 0 1-.5.3s.2 0 .4 0a2.4 2.4 0 0 0 .3.5c-.5-.1-.7-.3-.7-.3a2.3 2.3 0 0 0 .4.8l-.4-.2a5.4 5.4 0 0 0 .6 1.1 5.3 5.3 0 0 0-1.4.4s1.5.8 2.2.4a1.2 1.2 0 0 0 .3 0l-.1.3-.6.3a2.4 2.4 0 0 0 .7.2 4 4 0 0 0-.6.4 4.6 4.6 0 0 0 .7.2 1.4 1.4 0 0 0-.2.2 6.6 6.6 0 0 0-.4.7l-.7.3a2.2 2.2 0 0 0 .8.3l-.5.1a5.5 5.5 0 0 0 1.3.4 5.4 5.4 0 0 0-.7 1.2 5 5 0 0 0 .7-.3 2 2 0 0 0 .6.2l-.6.5a2.4 2.4 0 0 0 .3 0l-.7.6h.5a3.5 3.5 0 0 0-.4.9 3.8 3.8 0 0 0 1.1-.4 1.5 1.5 0 0 1-.2.4 4.5 4.5 0 0 0 1-.4v.4a4.3 4.3 0 0 0 .5-.3 2 2 0 0 1-.2.5s.1 0 .3-.1a2.2 2.2 0 0 0 .5.2l-.8.1a2.2 2.2 0 0 0 .8.5H30a5.5 5.5 0 0 0 1.2.7 5.3 5.3 0 0 0-1 1s1.6 0 2-.8a1.3 1.3 0 0 0 .4 0v.2l-.4.5a2.4 2.4 0 0 0 .7-.2 4 4 0 0 0-.3.7 4.3 4.3 0 0 0 .7-.2 1.2 1.2 0 0 0 0 .2 5.8 5.8 0 0 0 0 .9l-.5.7a2.2 2.2 0 0 0 .8-.3l-.3.4a5.5 5.5 0 0 0 1.3-.4 5.4 5.4 0 0 0 0 1.5 5 5 0 0 0 .6-.8 2.8 2.8 0 0 0 1.1.7 4.8 4.8 0 0 0 0-.5 3.5 3.5 0 0 0 .4.2v.1a2.1 2.1 0 0 0 .2-.1 1.2 1.2 0 0 1 .3.1s0 0-.1-.2l.1-.2a3.4 3.4 0 0 0 .7.8h-.2l-.3-.1a1.5 1.5 0 0 0 .1.4 2.4 2.4 0 0 0-.4-.1 2.6 2.6 0 0 0 .2.4 1 1 0 0 0-.1 0l-.7.1a2.8 2.8 0 0 0 .6.3 9 9 0 0 1-.4 0 1.5 1.5 0 0 0 .4.3 2.6 2.6 0 0 0-.4.2 2.9 2.9 0 0 0 .4.2l-.2.2-.4-.1a1.5 1.5 0 0 0 .3.3 2.5 2.5 0 0 0-.5 0 2.7 2.7 0 0 0 .3.4.7.7 0 0 0-.1 0H36a2.5 2.5 0 0 0 .1.2 1 1 0 0 1-.3.2 2.8 2.8 0 0 0 .4 0v.2a3.8 3.8 0 0 1-.5.2s.1 0 .2.1a1.5 1.5 0 0 0 .1.4l-.3-.4s0 .7.3.8a2.4 2.4 0 0 0-.4.3 2.4 2.4 0 0 0 .7.2 1 1 0 0 1-.2.1 2.7 2.7 0 0 0 .6.1 2.4 2.4 0 0 0-.2.2 2.7 2.7 0 0 0 .4 0 1.1 1.1 0 0 1-.3.2s.1 0 .3 0a1.4 1.4 0 0 0 .2.4l-.5-.2a1.4 1.4 0 0 0 .3.5l-.3-.2a3.4 3.4 0 0 0 .4.7 3.2 3.2 0 0 0-.9.3s1 .5 1.4.2a.8.8 0 0 0 .2 0v.2l-.4.2a1.4 1.4 0 0 0 .4.1 2.3 2.3 0 0 0-.4.3 2.7 2.7 0 0 0 .4.1 3.9 3.9 0 0 0-.3.6c-.3 0-.5.2-.5.2a1.4 1.4 0 0 0 .5.1 4 4 0 0 1-.2 0 3.4 3.4 0 0 0 .8.3 3.3 3.3 0 0 0-.5.8 3 3 0 0 0 .5-.2 1.2 1.2 0 0 0 .3.1l-.4.3a1.6 1.6 0 0 0 .2 0l-.4.4a2.5 2.5 0 0 0 .3 0 2.2 2.2 0 0 0-.2.6 2.4 2.4 0 0 0 .7-.3 1 1 0 0 1-.2.3 2.7 2.7 0 0 0 .6-.3v.3a3 3 0 0 0 .3-.2 1.3 1.3 0 0 1-.1.3s.1 0 .2-.1a1.4 1.4 0 0 0 .3.2h-.5a1.4 1.4 0 0 0 .5.3h-.3a3.4 3.4 0 0 0 .7.4 3.4 3.4 0 0 0-.6.7s1 0 1.3-.5a.8.8 0 0 0 .2 0 1.4 1.4 0 0 1 0 .1l-.2.3a1.6 1.6 0 0 0 .4 0 2.6 2.6 0 0 0-.2.4 2.4 2.4 0 0 0 .5-.2.6.6 0 0 0 0 .1 4 4 0 0 0 0 .6l-.4.4a1.4 1.4 0 0 0 .6-.2l-.2.3a3.4 3.4 0 0 0 .8-.3 3.3 3.3 0 0 0 0 1 3.3 3.3 0 0 0 .4-.5 1.7 1.7 0 0 0 .7.4 2.3 2.3 0 0 0-.1-.3 2.2 2.2 0 0 0 .3 0 .8.8 0 0 1 0 .2 1.2 1.2 0 0 0 .1 0 .6.6 0 0 1 .2 0s0 0 0-.2a2 2 0 0 0 .4.4 2.4 2.4 0 0 0 0-.7 1 1 0 0 1 .3.2 2.8 2.8 0 0 0 0-.6 2.6 2.6 0 0 0 .2.1 2.8 2.8 0 0 0-.1-.4 1.2 1.2 0 0 1 .3.3 2.2 2.2 0 0 0 0-.3 1.4 1.4 0 0 0 .2-.2v.5a1.4 1.4 0 0 0 .3-.4v.3a3.4 3.4 0 0 0 .6-.5 3 3 0 0 0 .2.5 2.7 2.7 0 0 0-.9.5 3.4 3.4 0 0 0 1 0 3.4 3.4 0 0 0-.3.8s0 0 .2-.1a1.4 1.4 0 0 0-.2.5l.4-.3a1.6 1.6 0 0 0 0 .3 3 3 0 0 0-.3.1c.2 0 .2.1.5.3a2.5 2.5 0 0 0-.6.2 2.3 2.3 0 0 0 .5.3 2.8 2.8 0 0 0-.3.2 2.4 2.4 0 0 1 .5 0 1.6 1.6 0 0 0-.3.3s.1 0 .3 0a1.6 1.6 0 0 0-.1.2 2.5 2.5 0 0 0-.4.1 4 4 0 0 0 .6.3 3.5 3.5 0 0 0-.2.4s0 0 .3-.1a1.6 1.6 0 0 0-.2.3s.1 0 .3 0a2.6 2.6 0 0 0-1 .4 3.3 3.3 0 0 0 .9.2 3.6 3.6 0 0 0-.4.7s0 0 .2-.1a1.4 1.4 0 0 0-.3.5s.2-.1.5-.2a3.5 3.5 0 0 0 .6.1 2.6 2.6 0 0 0-.2.4 2.4 2.4 0 0 0 .5 0 1.5 1.5 0 0 0-.2.4s.1-.1.4-.2h.1a.8.8 0 0 0 0 .2c-.6.2-.9 1.2-.9 1.2a3.4 3.4 0 0 0 .8-.5 3.5 3.5 0 0 0 .2.9s0 0 .1-.3a1.4 1.4 0 0 0 .2.5s0-.2.1-.5a1.6 1.6 0 0 0 .2.5s0-.3.2-.6a.6.6 0 0 0 0-.2 1.1 1.1 0 0 0 .1.4v.1a1 1 0 0 0 .2 0 1.7 1.7 0 0 0 .2-.1 2.4 2.4 0 0 0-.4.7 2.1 2.1 0 0 0 .7-.2l-.2.2a.8.8 0 0 1 .3 0 1 1 0 0 0 0 .1 1.9 1.9 0 0 0 .4 0 3 3 0 0 0-.2.2 1.8 1.8 0 0 0 .8 0 3 3 0 0 0 0 .6 3.4 3.4 0 0 0 .5-.8 3.5 3.5 0 0 0 .6.6s0 0 0-.3a1.4 1.4 0 0 0 .4.4s0-.2-.1-.5a4 4 0 0 0 .3-.5 3 3 0 0 0 .3.2 2 2 0 0 0 0-.7 2.4 2.4 0 0 0 .4-.3 2.7 2.7 0 0 0 .2.5 2.4 2.4 0 0 0 .1-.3 2.9 2.9 0 0 0 .3.6 1 1 0 0 1 0-.3 2.4 2.4 0 0 0 .5.6 2.6 2.6 0 0 0 .1-.4 2.9 2.9 0 0 0 .5.3.8.8 0 0 1-.1-.2 1.4 1.4 0 0 0 .4.3s0 0 0-.2a1.4 1.4 0 0 0 .5.2s-.1-.1-.2-.3a1.6 1.6 0 0 0 .3.1 3.2 3.2 0 0 0 .3.3 5 5 0 0 0 0-.5 3.5 3.5 0 0 0 .6.3s0 0-.1-.2a1.4 1.4 0 0 0 .5.2s-.1-.1-.2-.3a2 2 0 0 0 0-.4.6.6 0 0 0 0-.1 2.6 2.6 0 0 0 .4 0 2.3 2.3 0 0 0-.2-.4 1.5 1.5 0 0 0 .4.1l-.2-.3v-.2a.7.7 0 0 0 .1 0 2.5 2.5 0 0 0 1.1.3 4.4 4.4 0 0 0-.3-.4 3.5 3.5 0 0 0 .7-.4s0 0-.3 0a1.4 1.4 0 0 0 .4-.2l.2-.1a3.6 3.6 0 0 0 .5.2 3 3 0 0 0-.1.4 2.4 2.4 0 0 0 .5-.1 1.5 1.5 0 0 0-.3.4s.2 0 .4-.2h.2a.9.9 0 0 0-.1.3c-.6 0-.9 1.1-.9 1.1a3.5 3.5 0 0 0 .8-.4 3.3 3.3 0 0 0 .2.8s0 0 .1-.3a1.4 1.4 0 0 0 .2.5s0-.2.2-.4a1.5 1.5 0 0 0 0 .4s.2-.3.3-.6a.5.5 0 0 0 0-.1 1.1 1.1 0 0 0 .2.3l-.1.1a.7.7 0 0 1 .1 0s0 0 .1 0a1.7 1.7 0 0 0 .2-.1 2.3 2.3 0 0 0-.3.7 2.1 2.1 0 0 0 .6-.2l-.1.2a.8.8 0 0 1 .2 0 1.3 1.3 0 0 0 0 .1 2 2 0 0 0 .4 0 3 3 0 0 0-.2.3 1.8 1.8 0 0 0 .8 0 3.1 3.1 0 0 0 0 .5 3.4 3.4 0 0 0 .6-.8 3.6 3.6 0 0 0 .6.6s0 0-.1-.3a1.4 1.4 0 0 0 .4.4s0-.2 0-.5a4.8 4.8 0 0 0 .2-.5 2.8 2.8 0 0 0 .4.3 1.9 1.9 0 0 0 0-.8 2.3 2.3 0 0 0 .3-.3 2.6 2.6 0 0 0 .2.5l.1-.2a2.9 2.9 0 0 0 .3.5.9.9 0 0 1 .1-.3 2.4 2.4 0 0 0 .4.6 2.3 2.3 0 0 0 .1-.4 3 3 0 0 0 .5.4.8.8 0 0 1 0-.3 1.5 1.5 0 0 0 .3.3s0 0 0-.2a1.5 1.5 0 0 0 .5.2s0-.1-.2-.3a1.5 1.5 0 0 0 .3.1 3.3 3.3 0 0 0 .3.4 5 5 0 0 0 0-.5 3.5 3.5 0 0 0 .6.3s0 0-.1-.3a1.4 1.4 0 0 0 .5.3s-.1-.2-.2-.4a1.7 1.7 0 0 0 0-.4.6.6 0 0 0 0-.1 2.7 2.7 0 0 0 .4.1 2.6 2.6 0 0 0-.2-.4 1.5 1.5 0 0 0 .5 0l-.3-.3v-.1a.8.8 0 0 0 .2 0 2.5 2.5 0 0 0 1 .2l-.3-.4a3.4 3.4 0 0 0 .7-.4s0 0-.3 0a1.4 1.4 0 0 0 .5-.3s-.2 0-.5 0a1.3 1.3 0 0 0 .3-.2h.2a1.4 1.4 0 0 1-.1-.3 2.6 2.6 0 0 0 .3.2 2.5 2.5 0 0 0 0-.2 2.8 2.8 0 0 0 .6.2 1.1 1.1 0 0 1-.2-.3 2.5 2.5 0 0 0 .8.3 2.2 2.2 0 0 0-.4-.6h.1a1.6 1.6 0 0 0 .2 0 .6.6 0 0 1 0-.1 1.3 1.3 0 0 0 0-.1 2 2 0 0 0 0-.4 2.9 2.9 0 0 0 .3.2 1.7 1.7 0 0 0-.2-.8 3.1 3.1 0 0 0 .6-.2 3.4 3.4 0 0 0-.9-.3 3.4 3.4 0 0 0 .5-.7s0 0-.3.1a1.4 1.4 0 0 0 .4-.4s-.2 0-.5.1l-.4-.1a2.4 2.4 0 0 0 .5-.5 2.4 2.4 0 0 0-.5 0 1.5 1.5 0 0 0 .3-.4s-.2 0-.4.1h-.1a1.1 1.1 0 0 0 0-.2c.6 0 1-1 1-1a3.5 3.5 0 0 0-.8.3 3.4 3.4 0 0 0 0-.9s0 0-.2.3a1.4 1.4 0 0 0 0-.5s-.2.1-.3.4a1.8 1.8 0 0 0 0-.4l.1-.1a1.2 1.2 0 0 1-.4 0 3 3 0 0 0 .4-.3 2 2 0 0 0-.3 0 2.8 2.8 0 0 0 .5-.5 1 1 0 0 1-.3 0 2.5 2.5 0 0 0 .5-.5 2.2 2.2 0 0 0-.6 0 2.5 2.5 0 0 0 .1-.3l-.5.2v-.1l-.4.2a1.6 1.6 0 0 0 .1-.4 2.8 2.8 0 0 0 .3-.3 3.3 3.3 0 0 0-.9 0 3.5 3.5 0 0 0 .2-.8l-.2.3a1.4 1.4 0 0 0 0-.6l-.3.4a3.7 3.7 0 0 0-.6 0 2.8 2.8 0 0 0 0-.4 2.2 2.2 0 0 0-.4.3 1.5 1.5 0 0 0 0-.5s-.1.1-.3.3h-.2a1 1 0 0 0 0-.2c.5-.3.4-1.3.4-1.3a3.3 3.3 0 0 0-.6.7 3.5 3.5 0 0 0-.5-.7s0 0 0 .5a1.2 1.2 0 0 0-.5-.4s0 .2.2.4a1.6 1.6 0 0 0-.3 0v-.3a1.2 1.2 0 0 1-.3.3 2.3 2.3 0 0 0 0-.4l-.2.1a2.4 2.4 0 0 0-.1-.5 3.4 3.4 0 0 0 .7.3 3 3 0 0 0-.2-.5 1.2 1.2 0 0 0 0-.3l.3.3a1.6 1.6 0 0 0 0-.2l.5.4v-.3a2.1 2.1 0 0 0 .5.1 2.4 2.4 0 0 0-.4-.6 1 1 0 0 1 .3 0 2.7 2.7 0 0 0-.3-.5h.2a2.7 2.7 0 0 0-.2-.3 2.5 2.5 0 0 1 .2 0 1.8 1.8 0 0 0 .5.7 2.8 2.8 0 0 0 0-.4.8.8 0 0 0 .2 0 3.6 3.6 0 0 0 .4.3l.3.4a1.4 1.4 0 0 0 0-.5l.2.3a3.2 3.2 0 0 0 .2-.8 2.9 2.9 0 0 0 .4.2v.1h.2a2 2 0 0 0-.1.2s0 0 .2 0a2.6 2.6 0 0 0-1 .4 3.3 3.3 0 0 0 1 .2 3.4 3.4 0 0 0-.5.7s0 0 .3-.1a1.4 1.4 0 0 0-.3.5s.2-.1.5-.2a3.6 3.6 0 0 0 .5.1 1 1 0 0 0 .1 0 2.7 2.7 0 0 0-.2.4 2.5 2.5 0 0 0 .5 0 1.5 1.5 0 0 0-.2.4s.1-.1.3-.2h.2a1 1 0 0 0 0 .2c-.6.2-1 1.2-1 1.2a3.4 3.4 0 0 0 .9-.5 3.4 3.4 0 0 0 .2.9s0 0 0-.3a1.4 1.4 0 0 0 .2.5s0-.2.2-.5a1.5 1.5 0 0 0 .1.5s.1-.3.3-.6a.5.5 0 0 0 0-.2 1.2 1.2 0 0 0 0 .4v.1a.8.8 0 0 1 .1 0h.1a1.5 1.5 0 0 0 .3-.1 2.5 2.5 0 0 0-.4.7 2 2 0 0 0 .6-.2v.2a.7.7 0 0 1 .1 0v.1h.1a2 2 0 0 0 .4 0 3.3 3.3 0 0 0-.3.2 1.8 1.8 0 0 0 .9 0 3.3 3.3 0 0 0 0 .6 3.3 3.3 0 0 0 .5-.8 3.4 3.4 0 0 0 .6.6s0 0 0-.3a1.5 1.5 0 0 0 .3.4s0-.2 0-.5a4 4 0 0 0 .2-.5 2.9 2.9 0 0 0 .4.2 2 2 0 0 0 0-.7 2.3 2.3 0 0 0 .4-.3 3.1 3.1 0 0 0 .1.5l.2-.3a2.6 2.6 0 0 0 .3.6 1 1 0 0 1 0-.3 2.4 2.4 0 0 0 .5.6 2.1 2.1 0 0 0 0-.4 2.9 2.9 0 0 0 .5.3.7.7 0 0 1 0-.2 1.5 1.5 0 0 0 .4.3s0 0-.1-.2a1.4 1.4 0 0 0 .5.2s0-.1-.1-.3a1.6 1.6 0 0 0 .3.1 2.9 2.9 0 0 0 .2.3 4.2 4.2 0 0 0 0-.5 3.5 3.5 0 0 0 .7.3s0 0-.2-.2a1.4 1.4 0 0 0 .5.2s0-.1-.2-.3a2.8 2.8 0 0 0 0-.4v-.1a2.6 2.6 0 0 0 .5 0 2.3 2.3 0 0 0-.3-.4 1.5 1.5 0 0 0 .5.1l-.3-.3v-.1a.8.8 0 0 0 .2 0 2.5 2.5 0 0 0 1.1.2 4 4 0 0 0-.4-.4 3.4 3.4 0 0 0 .7-.4s0 0-.3 0a1.4 1.4 0 0 0 .5-.3s-.2 0-.5 0a1.6 1.6 0 0 0 .3-.2h.2a1.3 1.3 0 0 1 0-.3 2.7 2.7 0 0 0 .2.2v-.2a2.8 2.8 0 0 0 .6.2.8.8 0 0 1-.1-.3 2.4 2.4 0 0 0 .7.3 2.2 2.2 0 0 0-.3-.6h.2a.9.9 0 0 1 0-.1l.1-.1a2.4 2.4 0 0 0 .7.1.9.9 0 0 1-.2.2 2.9 2.9 0 0 0 .6 0 2 2 0 0 0-.1.3 2.8 2.8 0 0 0 .4 0 1.1 1.1 0 0 1-.3.2s0 0 .2 0a1.6 1.6 0 0 0 .2.3c-.3 0-.5-.2-.5-.2a1.4 1.4 0 0 0 .3.5l-.3-.1a3.6 3.6 0 0 0 .4.7 3.2 3.2 0 0 0-.8.2s.9.5 1.3.2a.9.9 0 0 0 .2.1v.2l-.4.1a1.5 1.5 0 0 0 .4.2 2.2 2.2 0 0 0-.4.2 2.6 2.6 0 0 0 .4.1 1 1 0 0 0 0 .1 5 5 0 0 0-.3.5l-.5.2a1.4 1.4 0 0 0 .6.1l-.3.1a3.4 3.4 0 0 0 .8.3 3.2 3.2 0 0 0-.5.7 3 3 0 0 0 .5-.1 1.2 1.2 0 0 0 .3 0l-.3.4a1.6 1.6 0 0 0 .1 0l-.4.4a2.9 2.9 0 0 0 .3 0 2.2 2.2 0 0 0-.2.5 2.4 2.4 0 0 0 .7-.3.9.9 0 0 1-.1.3 2.8 2.8 0 0 0 .5-.2 2.4 2.4 0 0 0 0 .2 2.8 2.8 0 0 0 .3-.2 1.1 1.1 0 0 1 0 .4s0 0 .1-.2a1.5 1.5 0 0 0 .3.2H88a1.4 1.4 0 0 0 .5.4h-.3a3.4 3.4 0 0 0 .7.4 3.4 3.4 0 0 0-.6.6s1 0 1.3-.5a1 1 0 0 0 .2 0 1.4 1.4 0 0 1 0 .2l-.2.3a1.5 1.5 0 0 0 .4-.1 2.7 2.7 0 0 0-.2.4 2.4 2.4 0 0 0 .5-.1 4.2 4.2 0 0 0 0 .6l-.3.4a1.4 1.4 0 0 0 .5-.1l-.2.2a3.5 3.5 0 0 0 .8-.2 3.3 3.3 0 0 0 0 .9 3 3 0 0 0 .4-.5 1.8 1.8 0 0 0 .7.5 2.4 2.4 0 0 0-.1-.4 2 2 0 0 0 .3.1v.1a1.2 1.2 0 0 0 .1 0 .6.6 0 0 1 .2 0s0 0 0-.1v-.1a2 2 0 0 0 .4.5 2.4 2.4 0 0 0 0-.8.9.9 0 0 1 .3.3 2.6 2.6 0 0 0 0-.7l.2.1a2.7 2.7 0 0 0-.1-.3 1 1 0 0 1 .3.2 2 2 0 0 0 0-.2 1.4 1.4 0 0 0 .2-.3v.5a1.4 1.4 0 0 0 .3-.3v.3a3.4 3.4 0 0 0 .6-.6 3.3 3.3 0 0 0 .4.9s.3-1 0-1.4a1 1 0 0 0 0-.2h.2l.2.4a1.5 1.5 0 0 0 0-.5 2.3 2.3 0 0 0 .4.4 2.7 2.7 0 0 0 0-.5 1 1 0 0 0 .1 0 4 4 0 0 0 .5.2l.3.5a1.4 1.4 0 0 0 0-.5l.2.2a3.6 3.6 0 0 0 0-.8 3.2 3.2 0 0 0 1 .3 3.4 3.4 0 0 0-.3-.4 1.2 1.2 0 0 0 0-.4l.4.4a1.6 1.6 0 0 0 0-.2l.4.3v-.3a2.2 2.2 0 0 0 .5.2 2.3 2.3 0 0 0-.3-.7.9.9 0 0 1 .3.1 2.6 2.6 0 0 0-.4-.5h.3a3 3 0 0 0-.3-.3h.3a1.9 1.9 0 0 0 .4.7 2.6 2.6 0 0 0 0-.5.7.7 0 0 0 .2 0 4 4 0 0 0 .5.3l.2.5a1.3 1.3 0 0 0 .1-.6l.1.3a3.4 3.4 0 0 0 .2-.8 3.3 3.3 0 0 0 .8.4 3 3 0 0 0-.3-.5 1.8 1.8 0 0 0 .8-.4 2.5 2.5 0 0 0-.4-.1 1.9 1.9 0 0 0 .3-.3v.1a1 1 0 0 0 0-.1.6.6 0 0 1 .2-.2s0 0-.2 0a2.1 2.1 0 0 0 .6-.2 2.4 2.4 0 0 0-.6-.4h.2a.5.5 0 0 0 0-.1.9.9 0 0 1 .2 0s0 0-.2-.1a1.3 1.3 0 0 0 0-.3l.6.4a1.6 1.6 0 0 0-.1-.4l.4.3a1.4 1.4 0 0 0-.2-.5l.2.1a3.6 3.6 0 0 0-.2-.7 3.3 3.3 0 0 0 .9-.1s-.8-.7-1.4-.5a1 1 0 0 0-.1-.1v-.1l.5-.1a1.5 1.5 0 0 0-.4-.2 2.4 2.4 0 0 0 .4-.2 2.7 2.7 0 0 0-.4-.2l.1-.1a4.4 4.4 0 0 0 .4-.4l.5-.1a1.4 1.4 0 0 0-.5-.2h.3a3.5 3.5 0 0 0-.8-.5 2.2 2.2 0 0 0 .3-.2l.3.3a1.3 1.3 0 0 0-.1-.5l.2.2v-.2a3 3 0 0 0 .4-.4 2.1 2.1 0 0 0 0 .6s.2-.1.4-.4h.3a3.6 3.6 0 0 0-.2.6 3.5 3.5 0 0 0 .6-.3 2 2 0 0 0-.1.6s.1-.1.3-.3a3.5 3.5 0 0 0-.3.8c.3-.2.3 0 .8-.4a.8.8 0 0 0 .1-.1 3.7 3.7 0 0 0 .2.6 3.2 3.2 0 0 0 .4-.6 2 2 0 0 0 .1.6s.1-.2.2-.5h.2c.3.8 1.7 1.4 1.7 1.4l-.1-.4a1.8 1.8 0 0 0 .6.3s-.1-.2-.3-.5a2 2 0 0 0 .4.2 3.1 3.1 0 0 0 0 .3 1.7 1.7 0 0 1 .4-.4 4.5 4.5 0 0 0 0 .5 3.4 3.4 0 0 0 .3-.2 3.7 3.7 0 0 0 0 .9 1.2 1.2 0 0 1 .3-.4 3.2 3.2 0 0 0 .2 1 3 3 0 0 0 .4-.6 4.3 4.3 0 0 0 0 .5 4.4 4.4 0 0 0 .8-.9 4.9 4.9 0 0 0 .6 1v-.4a2 2 0 0 0 .4.6s0-.3 0-.7a5 5 0 0 0 .5-.6h.1a4 4 0 0 0 .3.4 3 3 0 0 0 .2-.6 2 2 0 0 0 .4.5s0-.2 0-.6l.2-.1a1.3 1.3 0 0 0 .1.2c-.1.7 1 1.6 1 1.6a4.4 4.4 0 0 0-.2-1.2 4.6 4.6 0 0 0 1.1.2 4 4 0 0 1-.3-.2 1.9 1.9 0 0 0 .8.1s-.2-.2-.5-.5a2 2 0 0 0 .6.1s-.3-.2-.6-.6a.6.6 0 0 0-.1-.1 1.4 1.4 0 0 0 .4 0c0 .2.2.2.2.2a1 1 0 0 1 0-.2 1.5 1.5 0 0 0 .2 0s-.1 0-.2-.1a2.2 2.2 0 0 0 0-.3 3.2 3.2 0 0 0 .7.8 2.7 2.7 0 0 0 0-.8h.2v.2a1 1 0 0 1 .2-.2 1.7 1.7 0 0 0 .2 0s0 0 0-.1a2.8 2.8 0 0 0 .2-.4 3.4 3.4 0 0 0 .1.4 2.3 2.3 0 0 0 .5-1 4.1 4.1 0 0 0 .7.3 4.5 4.5 0 0 0-.6-1 4.5 4.5 0 0 0 1-.4s0 0-.4 0a1.9 1.9 0 0 0 .7-.3s-.2-.1-.6-.2a4.7 4.7 0 0 0-.4-.7.9.9 0 0 0-.1 0 3.7 3.7 0 0 0 .5-.3 2.6 2.6 0 0 0-.8-.4 2.8 2.8 0 0 0 0-.3l.2.3a3 3 0 0 0 0-.4 3.8 3.8 0 0 0 .8.4 1.2 1.2 0 0 1-.2-.4 3.2 3.2 0 0 0 1 .4 3.6 3.6 0 0 0-.2-.6 3.8 3.8 0 0 0 .7 0 1 1 0 0 1-.2-.1 2 2 0 0 0 .7 0s-.1 0-.3-.2a1.7 1.7 0 0 0 .5-.1 4.4 4.4 0 0 0 .7.4 4.5 4.5 0 0 0-.4-1.1 4.6 4.6 0 0 0 1-.2s0 0-.3-.1a1.9 1.9 0 0 0 .8-.1s-.3-.1-.6-.4a5.1 5.1 0 0 0-.3-.7 3.7 3.7 0 0 0 .6-.1 3.1 3.1 0 0 0-.5-.5 2 2 0 0 0 .6 0s-.2-.2-.4-.4l-.1-.2a1 1 0 0 0 .2 0c.6.5 2 0 2 0a4.5 4.5 0 0 0-1.2-.5 4.8 4.8 0 0 0 .7-.9s0 0-.3.1a1.9 1.9 0 0 0 .4-.5s-.2 0-.6.1a1.9 1.9 0 0 0 .3-.3h.3a1.6 1.6 0 0 1-.3-.4 3.6 3.6 0 0 0 .5.1l-.2-.3a3.7 3.7 0 0 0 .9 0 1.3 1.3 0 0 1-.3-.2 3.2 3.2 0 0 0 1 0ZM25.1 74.5Zm11.3 21.2Zm80.5-17h-.2a2.6 2.6 0 0 0-.2-.2 1.7 1.7 0 0 1 .4.1Zm-19.3 5h.3a1.2 1.2 0 0 0-.2 0h-.1Zm0 0a2.7 2.7 0 0 0-.6-.3 3.5 3.5 0 0 0 .4 0h.1v-.1a1.2 1.2 0 0 1 .3 0s-.1-.1-.3-.2a1.8 1.8 0 0 0-.1-.5 1 1 0 0 0 .1.1l.8.5a4.7 4.7 0 0 0-.8.4Zm-5-20a3.8 3.8 0 0 0 0-.8 4.2 4.2 0 0 0-.5.5 1.4 1.4 0 0 0 0-.2 6.3 6.3 0 0 0-.4-.8l.2-.8a2.3 2.3 0 0 0-.7.5l.2-.4a5.5 5.5 0 0 0-1 .8l-.2-.4a1 1 0 0 0-.1-.8.9.9 0 0 0 0-.2h.2c0 .3.2.4.2.4a1.6 1.6 0 0 0 0-.4 2.7 2.7 0 0 0 .4.3 2.8 2.8 0 0 0 0-.4.7.7 0 0 0 .1 0 4 4 0 0 0 .5.2l.3.5a1.3 1.3 0 0 0 0-.6l.2.3a3.3 3.3 0 0 0 0-.8 3.4 3.4 0 0 0 1 .3 3 3 0 0 0-.3-.4 1.3 1.3 0 0 0 0-.4l.4.3a1.6 1.6 0 0 0 0-.2l.4.4a3 3 0 0 0 0-.3 2.1 2.1 0 0 0 .5.1 2.3 2.3 0 0 0-.4-.6.9.9 0 0 1 .4 0 2.9 2.9 0 0 0-.4-.4h.3a3 3 0 0 0-.3-.4 1.8 1.8 0 0 1 .3 0 1.9 1.9 0 0 0 .4.7 2.5 2.5 0 0 0 0-.4.9.9 0 0 0 .2 0 4 4 0 0 0 .5.3l.2.4a1.4 1.4 0 0 0 0-.5l.2.3a3.4 3.4 0 0 0 .2-.8 3.3 3.3 0 0 0 .8.4 3 3 0 0 0-.3-.6 1.8 1.8 0 0 0 .7-.4 2.4 2.4 0 0 0-.3 0 2 2 0 0 0 .3-.3.7.7 0 0 1 .2-.2s0 0-.2 0a.7.7 0 0 0 0-.1 2.1 2.1 0 0 0 .6-.2 2.4 2.4 0 0 0-.7-.3 2.1 2.1 0 0 0 .3-.1.8.8 0 0 1 .2 0s0-.1-.2-.2a1 1 0 0 0 0-.3l.6.5a1.6 1.6 0 0 0-.2-.4l.4.2a1.4 1.4 0 0 0-.1-.5l.2.2a3.5 3.5 0 0 0-.3-.8h.2a3.6 3.6 0 0 0 .5 1 1.5 1.5 0 0 1-.5-.2 4.4 4.4 0 0 0 .6.8l-.4.1a4.4 4.4 0 0 0 .4.5 1.9 1.9 0 0 1-.6-.1s.1.1.3.3a2.5 2.5 0 0 0-.2.5l-.3-.7a2.3 2.3 0 0 0-.2.8l-.2-.5s-.8 1.7-.3 2.7h-.3l-.5-.2a2.4 2.4 0 0 0 .3.6 4 4 0 0 0-.8-.2 4.5 4.5 0 0 0 .3.7 1 1 0 0 0-.2 0c-.6 0-.6.2-1 .2l.4.2c-.1 0-1.6.7-1.7 1.6a1.4 1.4 0 0 0-.2.2c0-.2-.1-.2-.2-.3l.2-.6a2.4 2.4 0 0 0-.6.4Zm-10-2.8a3.4 3.4 0 0 0-.6-.1v-.2a1.8 1.8 0 0 0-.2.1 1.1 1.1 0 0 1-.3 0s0 0 .2.2a1.5 1.5 0 0 0-.2.1 3.4 3.4 0 0 0-.8-.6 3.8 3.8 0 0 0 .2 1.2l-.3-.2v-.2a1.8 1.8 0 0 0-.1 0 1.3 1.3 0 0 1-.2 0v.2a1.8 1.8 0 0 0-.3.4 1.2 1.2 0 0 0 0-.2v-1a2.5 2.5 0 0 0-.4.5v-.7a2 2 0 0 0 .4 0s-.2-.2-.6-.4a4.7 4.7 0 0 0-.2-.7 1 1 0 0 0 0-.1 3.7 3.7 0 0 0 .5 0 3.4 3.4 0 0 0-.4-.6 2 2 0 0 0 .6 0s-.2-.1-.5-.3V58a1.1 1.1 0 0 0 .2 0c.6.4 2 0 2 0l-.2-.1h.3a3.4 3.4 0 0 0-.5.8 3 3 0 0 0 .5-.2 1.2 1.2 0 0 0 .3.1l-.4.3h.2l-.4.4h.3a2.2 2.2 0 0 0-.2.6 2.4 2.4 0 0 0 .7-.3 1 1 0 0 1-.2.3 2.8 2.8 0 0 0 .6-.3 2.5 2.5 0 0 0 0 .3 2.6 2.6 0 0 0 .3-.2 1.2 1.2 0 0 1-.1.3s0 0 .2 0a1.5 1.5 0 0 0 .3 0l-.5.1a1.4 1.4 0 0 0 .5.3H83a3.8 3.8 0 0 0 .6.4 2.8 2.8 0 0 0-1.3-.5 4.4 4.4 0 0 0 .2.5Zm-5 29.8Zm-.3-27.4a4.3 4.3 0 0 0-.7-.4 4.5 4.5 0 0 0 .2.7 1.2 1.2 0 0 0-.2 0 3.4 3.4 0 0 0-.7-.1 2.7 2.7 0 0 0-.2-.3l-.1-.1a3.6 3.6 0 0 0 .5-.2 2.7 2.7 0 0 0-.8-.5v-.2a3.5 3.5 0 0 0 .2.2V62a3.8 3.8 0 0 0 .8.4 1.3 1.3 0 0 1-.2-.4 3.3 3.3 0 0 0 1 .4 3.1 3.1 0 0 0-.2-.5 3.5 3.5 0 0 0 .6 0 1.3 1.3 0 0 0 .4.8 1.3 1.3 0 0 0 0 .3h-.2l-.5-.5a2.3 2.3 0 0 0 .1.8Zm-4.1 24.3a2.9 2.9 0 0 0 .4-.2 1.6 1.6 0 0 1-.2.4 2.8 2.8 0 0 0-.2-.2ZM72 93.2h.1a1.6 1.6 0 0 0-.2.2l.1-.2Zm.2-7.3h.1-.1Zm-2.6-5.4a1.2 1.2 0 0 0 0-.1 3.7 3.7 0 0 0 .5-.2 2.6 2.6 0 0 0-.9-.5v-.2a3.7 3.7 0 0 0 .3.2v-.4a3.7 3.7 0 0 0 .7.4 1.4 1.4 0 0 1-.1-.4 2.8 2.8 0 0 0 .6.3 5.2 5.2 0 0 0 .6 1 5.3 5.3 0 0 0-1.4.3 2.6 2.6 0 0 0-.3-.4Zm-10.2 4a1.1 1.1 0 0 0 0 .2l-.3-.5h.1a.7.7 0 0 0 .2.3ZM56.5 62a1.9 1.9 0 0 0-.5-.5s0 .3.1.7a5.2 5.2 0 0 0-.3.7 3.4 3.4 0 0 0-.5-.3 3.1 3.1 0 0 0 0 .7 2 2 0 0 0-.5-.4s0 .2 0 .5v.2a1.1 1.1 0 0 0-.2-.2c0-.5-.7-1-1-1.2v-.3a2.4 2.4 0 0 0-.2-.7 1 1 0 0 1 .3.2 3 3 0 0 0 0-.5 2.4 2.4 0 0 0 .3.1 3 3 0 0 0-.1-.3 1.2 1.2 0 0 1 .3.2s0-.1 0-.3a1.5 1.5 0 0 0 .2-.2v.5s.5-.4.5-.8a1.4 1.4 0 0 1 .4.1 3.3 3.3 0 0 0-.3-.3h.1l.3.5a1.5 1.5 0 0 0 0-.6l.2.3a3.5 3.5 0 0 0 .1-.8 3.5 3.5 0 0 0 .8.3 3 3 0 0 0-.9 1.4 4.4 4.4 0 0 0 1.1-.6 4.7 4.7 0 0 0 .2 1l.2-.3a1.9 1.9 0 0 0 .1.7s.1-.2.3-.6a1.8 1.8 0 0 0 .1.4l-.1.2-.1.1a3.5 3.5 0 0 0-.2.5 4.6 4.6 0 0 0-.8-.8s0 0 .1.4ZM38.2 89.8h.1v.1-.1Zm40.3-64.5V25a.8.8 0 0 1-.1.1l-.2-.2-.1-.3a5 5 0 0 0 .9-.4s0 0-.4 0a1.9 1.9 0 0 0 .6-.4s-.2 0-.6-.1a2 2 0 0 0 .4-.2l.3.1a1.5 1.5 0 0 1-.2-.4 3.9 3.9 0 0 0 .4.3 2.9 2.9 0 0 0 0-.4 3.8 3.8 0 0 0 .8.4 1.2 1.2 0 0 1-.2-.4 3.2 3.2 0 0 0 1 .4 3 3 0 0 0-.3-.7 4 4 0 0 0 .4 0l-.6-.6a2.1 2.1 0 0 0 .3 0s-.2-.1-.5-.4a1.7 1.7 0 0 0 .5 0h.3a4.7 4.7 0 0 0-.2.5 3 3 0 0 0 .5-.2 1.2 1.2 0 0 0 .4 0l-.2.2a1.4 1.4 0 0 0 .5 0 .7.7 0 0 1-.2.1 2.8 2.8 0 0 0 .6 0 2.7 2.7 0 0 0-.2.4 2.4 2.4 0 0 0 .7-.2.9.9 0 0 1-.1.3 2.8 2.8 0 0 0 .6-.3 2.5 2.5 0 0 0 0 .3 2.8 2.8 0 0 0 .2-.2 1.3 1.3 0 0 0 0 .2 2 2 0 0 0-.7.3 2.6 2.6 0 0 0 .4.2 3.8 3.8 0 0 0-.4.5l-.5.1a1.7 1.7 0 0 0 .2.2 2.8 2.8 0 0 0-.4 0 3.5 3.5 0 0 0 .2-.4 2.4 2.4 0 0 0-1 .3 4.2 4.2 0 0 0-.3-.8 4.5 4.5 0 0 0-.4 1.1 4.4 4.4 0 0 0-1-.6 4 4 0 0 1 .2.4 1.9 1.9 0 0 0-.6-.5s.1.3.2.7a5.2 5.2 0 0 0-.3.7v.1a3.6 3.6 0 0 0-.5-.3 2.5 2.5 0 0 0 .2 1 2.7 2.7 0 0 1-.2.3 3.5 3.5 0 0 0 0-.6 3.5 3.5 0 0 0-.3.3 2 2 0 0 0 0-.3h.2l-.3-.3ZM88.2 43h.2v.1h-.2a.5.5 0 0 1 0-.1Zm.6 0a2.4 2.4 0 0 0 .5.2 3.2 3.2 0 0 0-.5.3v-.2h.2a1.2 1.2 0 0 1-.2-.3Zm1.2-.3a2 2 0 0 0 .7 0s0 0-.2-.2a1.7 1.7 0 0 0 .5-.1 4.3 4.3 0 0 0 .7.4 4.6 4.6 0 0 0-.5-1.1 4.7 4.7 0 0 0 1.2-.1s0 0-.4-.2a1.9 1.9 0 0 0 .7-.1s-.2-.1-.6-.4a4.7 4.7 0 0 0-.2-.7 3.4 3.4 0 0 0 .5-.1 3.1 3.1 0 0 0-.4-.5 2 2 0 0 0 .6 0s-.2-.2-.5-.3V39a1.2 1.2 0 0 0 .2 0 1.4 1.4 0 0 0 1 .2h.3a4.6 4.6 0 0 0 .5.6.8.8 0 0 0 0 .1 3.5 3.5 0 0 0-.4.3 3.3 3.3 0 0 0 .6.2 2 2 0 0 0-.6.3l.5.1.2.2a1.4 1.4 0 0 0-.2.1c-.7-.2-1.8.7-1.8.7a4.5 4.5 0 0 0 1.2 0 4.5 4.5 0 0 0-.3 1.1s0 0 .3-.2a1.8 1.8 0 0 0-.2.7s.2-.2.5-.4a2 2 0 0 0-.2.4 4 4 0 0 0-.3.1h.1a1.4 1.4 0 0 0-.4.4 2.7 2.7 0 0 1 .1-.3 3.4 3.4 0 0 0-.6.5 3.2 3.2 0 0 0-.4-.8 3 3 0 0 0-.1.5 1.3 1.3 0 0 0-.4.2V44a1.4 1.4 0 0 0-.3.4.7.7 0 0 1 0-.3 2.8 2.8 0 0 0-.4.4 2.5 2.5 0 0 0-.1-.4 2.6 2.6 0 0 0-.4.7 1 1 0 0 1 0-.3 2.7 2.7 0 0 0-.3.6l-.2-.2a2.2 2.2 0 0 0 0 .3l-.1-.2a2 2 0 0 0 .2-.7 2.6 2.6 0 0 0-.4.2.7.7 0 0 0 0-.1 3.5 3.5 0 0 0-.1-.5l.3-.5a1.6 1.6 0 0 0-.2 0 4 4 0 0 0-.2-.4 3.8 3.8 0 0 0 .8 0 1 1 0 0 1-.3-.1ZM92.5 26Zm5.2 53.4a3.7 3.7 0 0 0 .7-.3 4.3 4.3 0 0 0-.6-.3 1.4 1.4 0 0 0 .1-.1 4 4 0 0 0 .8-.4v.4a4.6 4.6 0 0 0 .5-.3 2 2 0 0 1-.2.5s.2 0 .4-.1a2.3 2.3 0 0 0 .5.3H99a2.2 2.2 0 0 0 .8.5h-.5a5.6 5.6 0 0 0 1.1.7 4 4 0 0 0-.4.4 3.8 3.8 0 0 0-.5-.5 3.2 3.2 0 0 0 0 .6c-.4-.3-1.2-.7-1.8-.5a1.2 1.2 0 0 0-.2-.2l.1-.2h.7a2.4 2.4 0 0 0-.7-.5Zm-2-16.8H95a2.3 2.3 0 0 0 .6.5 4 4 0 0 0-.7.2 4.4 4.4 0 0 0 .6.4h-.1a5.3 5.3 0 0 0-1 0 5.3 5.3 0 0 0 .6-1.4 3.2 3.2 0 0 0 .6.3ZM93.9 44a3.8 3.8 0 0 0-.4 0v-.2a3.1 3.1 0 0 1 .4.2Zm3.4-7.9.2.3a2.1 2.1 0 0 0-.3 0V36h.1Zm0 18.4Zm-3.7-16.7-.2.2a1.2 1.2 0 0 0 .2-.2Zm.1.2a3.7 3.7 0 0 0 .5.4 4.5 4.5 0 0 0-.8.4l-.3-.1a4.5 4.5 0 0 0 .6-.7Zm2.3-1.7Zm-.4-.5Zm-.5-.2a1.6 1.6 0 0 0 0-.2 1.5 1.5 0 0 0 .2-.1 1.8 1.8 0 0 0-.2.3Zm-.2-.6Zm.1.3Zm0 .4v.2l-.2-.1a1.4 1.4 0 0 0 .1-.1Zm.3.1v.4a2.8 2.8 0 0 0-.3-.3 2.6 2.6 0 0 0 .3 0Zm0 .6a1.2 1.2 0 0 0-.1 0h.1Zm1.7.3v-.1Zm-.4-.1a2.8 2.8 0 0 0-.2-.3 1.2 1.2 0 0 0 .3 0l-.1.3Zm-.6-.6v.2a2.7 2.7 0 0 0-.2-.2 2.2 2.2 0 0 0 .2 0Zm-3.3-4-.2.2V32h.2Zm1.5 5.7a3.7 3.7 0 0 0-.4-.1 2 2 0 0 0 0-.2s-.2 0-.5.1a2 2 0 0 0 .2-.3h.4a1.6 1.6 0 0 1-.4-.4 3.6 3.6 0 0 0 .6.2l-.2-.4a3.2 3.2 0 0 0 .5 0 2.3 2.3 0 0 0-.2 1Zm.3-1.3a2.3 2.3 0 0 0 .5 0v.1a1.8 1.8 0 0 0-.2 0l.1.1a2.8 2.8 0 0 0-.2.4 3.5 3.5 0 0 0-.2-.3h.3a1.2 1.2 0 0 1-.3-.3Zm-1 7.9V44l.1.2h-.2Zm3.7 11 .4-.1a1.5 1.5 0 0 0-.4-.3 2.5 2.5 0 0 0 .4-.2 3 3 0 0 0-.3-.1l.6-.3.1.2a4.3 4.3 0 0 0-.3.5 1.2 1.2 0 0 1 .5-.1l.1.3.1-.4H98.7a3.5 3.5 0 0 0 0 .5 3.2 3.2 0 0 0 .5-.4 2 2 0 0 0 0 .6s.1 0 .2-.2a5.2 5.2 0 0 0 .1.5 5.4 5.4 0 0 0-1.4-.1 1.1 1.1 0 0 0-.9-.2.7.7 0 0 0-.1-.1V55Zm4.1 25.7a1.5 1.5 0 0 1 0 .5 4 4 0 0 0-.2-.3 1.6 1.6 0 0 0 .2-.2Zm.3-.3a1.5 1.5 0 0 0 .2 0h.1v.1a2 2 0 0 0-.4 0 1 1 0 0 0 .1-.1Zm-3.2-24.7.1.1a3.3 3.3 0 0 0-.3-.1h.2Zm.1 25.4a4.3 4.3 0 0 0 .7 0 2.7 2.7 0 0 0-.2.4 3.6 3.6 0 0 0-.2-.4 3.2 3.2 0 0 0-.1.4l-.2-.4Zm2.4-.2v.2l-.1-.1h.1Zm.4-.2a1.4 1.4 0 0 0 .2-.1l.3.2v.1h-.3l-.2-.2Zm3.2-46.7a1 1 0 0 0 0-.2l.1-.1a1.8 1.8 0 0 1-.1.3Zm-6 1.4Zm-5.9-4.8Zm-.5.7a1 1 0 0 0 .4-.4h.2a2 2 0 0 0-.2.3l.3-.1a1.1 1.1 0 0 0 0 .1 2.2 2.2 0 0 0-.7.2ZM81 57.7H81a3.5 3.5 0 0 0-.6-.2 4.5 4.5 0 0 0 .7-.8 2.6 2.6 0 0 0 .3.1v.1a3.4 3.4 0 0 0-.3.5c-.3 0-.5.2-.5.2a1.4 1.4 0 0 0 .5.1Zm-1.8 2.7a1.4 1.4 0 0 0 .2 0h-.2Zm-1.9 1.4v-.1Zm-1.3-14.1a4.5 4.5 0 0 0-.2-.4s0 0 0 .3a1.6 1.6 0 0 0-.2-.2v-.2h.3a1.7 1.7 0 0 0 .7.8 3 3 0 0 0-.3.3 4.2 4.2 0 0 0-.2-.5v-.1ZM71 79.5v-.2a1.5 1.5 0 0 0 .2.3h-.2Zm-14.3-20a3.3 3.3 0 0 0-.2-.3l.3-.1h.2a1.1 1.1 0 0 0-.1.3.8.8 0 0 0-.2 0ZM53.3 62a3.3 3.3 0 0 0-.7.6 1.4 1.4 0 0 1 0-.5 4.4 4.4 0 0 0-.6.7 4.2 4.2 0 0 0-.2-.4 4.3 4.3 0 0 0-.3.6 1.9 1.9 0 0 1 0-.6s-.2 0-.3.2h-.3a1.3 1.3 0 0 0 .1-.3l.1.3a3.6 3.6 0 0 0 .4-.8 3.5 3.5 0 0 0 .7.6 3.1 3.1 0 0 0-.1-.6 1.5 1.5 0 0 0 .5-.2h.1a.3.3 0 0 1 0 .1 1 1 0 0 1 .4 0s0-.1-.2-.2h.1a2.2 2.2 0 0 0 .5.3l-.2.2Zm-7.7 24h.1l-.1.1a1.5 1.5 0 0 0 0-.2Zm5.2-23.5a1.4 1.4 0 0 0-.2 0h.2Zm2.7.3v-.1.2Zm3-4h-.1Zm6-15.5.5.4a2.4 2.4 0 0 0-.2-.7 4 4 0 0 0 .7.3 4.6 4.6 0 0 0-.1-.7h.3l.4.6a2.4 2.4 0 0 0 0-.8 3.6 3.6 0 0 0 .6.6 4 4 0 0 0 0-.7 1.4 1.4 0 0 0 .2 0h.2l.1.5.2-.3a1.5 1.5 0 0 1 .5.1 4.5 4.5 0 0 0-.3-.5l.1-.3.9.4-.2-.4a2.3 2.3 0 0 0 .3-.5v.8c.1 0 .8-.7.6-1.3a3.7 3.7 0 0 0 .8.2 3.8 3.8 0 0 0-.7-1 1.5 1.5 0 0 1 .5 0 4.4 4.4 0 0 0-.6-.7h.1l.6-.2a5 5 0 0 0 .7.2 1.2 1.2 0 0 0 .1 0 3.3 3.3 0 0 0-.3.6 3.2 3.2 0 0 0 .7-.1 2 2 0 0 0-.3.5s.2 0 .5-.2l.2.1a1 1 0 0 0-.1.2c-.8.2-1.2 1.5-1.2 1.5a4.4 4.4 0 0 0 1-.5 4.3 4.3 0 0 0 .3 1l.2-.3a1.9 1.9 0 0 0 .1.7 2.3 2.3 0 0 0-1 .2 4.3 4.3 0 0 0-.3-.8 4.7 4.7 0 0 0-.4 1.2 4.5 4.5 0 0 0-1-.7s.1 0 .2.4a1.9 1.9 0 0 0-.6-.4s.1.2.2.6a5.5 5.5 0 0 0-.2.7.6.6 0 0 0 0 .2 3.6 3.6 0 0 0-.5-.4 2.5 2.5 0 0 0 .1 1 3 3 0 0 1-.2.3 3.8 3.8 0 0 0 0-.5l-.3.2a3.6 3.6 0 0 0-.1-.8 1.2 1.2 0 0 1-.2.3 3.2 3.2 0 0 0-.3-1 2.8 2.8 0 0 0-.4.7 4 4 0 0 0-.2-.3 4.7 4.7 0 0 1-.1.7 2.2 2.2 0 0 0-.2-.2v.7a1.7 1.7 0 0 0-.4-.4 4 4 0 0 0-.2-.6 4.4 4.4 0 0 0-.5 1 4.7 4.7 0 0 0-.8-.7s0 0 0 .4a2 2 0 0 0-.5-.5s0 .3.2.7a5.3 5.3 0 0 0-.4.7 1 1 0 0 0 0 .1 3.4 3.4 0 0 0-.5-.4v.3a3.2 3.2 0 0 0-.3 0 1.4 1.4 0 0 0-.4-.2l.5-.2a1.3 1.3 0 0 0-.2 0c.3-.2.3-.3.5-.3a2.8 2.8 0 0 0-.3-.1 2.3 2.3 0 0 0 .4-.5 2.8 2.8 0 0 0-.5 0 2.2 2.2 0 0 0 .2-.6 4 4 0 0 0 .4.7 4 4 0 0 0 .2-.6h.2l.9.7a4.3 4.3 0 0 0-.4-1Zm7.4-.5.3-.6a1.8 1.8 0 0 0 .1.4l-.2.3a1.6 1.6 0 0 1 .5 0 3.5 3.5 0 0 0-.4.2 2.6 2.6 0 0 0-.5 0 4.3 4.3 0 0 0 .2-.3ZM67.5 39h-.1l.3-.2a1.6 1.6 0 0 0-.2.2Zm-.6 1.6Zm.3-1.8h.3l-.1.1-.2-.1Zm.4-.3a2.3 2.3 0 0 0 .1-.5l.1.2-.2.3Zm3 4.8h-.2.1Zm2.6 23.5a2.2 2.2 0 0 0 0-.2h.1v.2Zm.8-.3Zm-.6 1.2a.8.8 0 0 0 .1-.1v.2-.1Zm.5-.7h.1Zm-2-40.4.1-.1v.1Zm-.2-.1a1.6 1.6 0 0 0-.3 0 1.6 1.6 0 0 1 .4-.4 3.2 3.2 0 0 0-.1.4Zm-.4-.5a1.5 1.5 0 0 0 .1.1v.3a1.1 1.1 0 0 0-.2 0V26ZM61.3 46a1.5 1.5 0 0 0-.1-.2h.1v.2Zm-.4.1v.1h-.1.1Zm-.2-1.7a1.5 1.5 0 0 1 .2-.2v.1a1.6 1.6 0 0 0-.2 0Zm-.4-.2V44a1.3 1.3 0 0 0 .2-.3l.3.1v.3a3 3 0 0 0-.5.1Zm4.3 41.2-.2-.2a1.8 1.8 0 0 0 .2-.5 1 1 0 0 0 .2.2.9.9 0 0 0 0 .4 2 2 0 0 0-.2-.2s0 .1 0 .3ZM75.4 47a1.2 1.2 0 0 0 0 .3v.2h-.3a3 3 0 0 0 .3-.5Zm2.1 1.1Zm.4-.2Zm1 .8v.1Zm-.6 12.6v.2l-.1-.1h.1Zm.4-.4a3 3 0 0 0-.1-.3 3.6 3.6 0 0 0 .4 0l-.3.3Zm-1.3-12.4a1.3 1.3 0 0 0 0-.2v.2Zm1.7 12h.2a1.7 1.7 0 0 0-.2.5v-.4Zm.1-11.6a2.4 2.4 0 0 0 .1.4v.1l-.2-.3a2.2 2.2 0 0 0 .1-.2Zm4-24.5a1 1 0 0 0-.1 0h.1Zm-.2-.3a1 1 0 0 0 .1 0 1 1 0 0 1-.1 0Zm-2 32.5h-.3a1.6 1.6 0 0 0 .4-.4 1.2 1.2 0 0 0 .3.1 2.2 2.2 0 0 0-.4.3Zm.3-.6-.3.2h-.4a2 2 0 0 0 .3-.3h.3a.7.7 0 0 1-.1 0 .6.6 0 0 0 .1 0 .7.7 0 0 0 .2 0v.1Zm-.4-6.6a1 1 0 0 0-.2 0l-.6.1a2.7 2.7 0 0 0 .6.4h-.4a1.4 1.4 0 0 0 .4.2 2.4 2.4 0 0 0-.4.2 2.5 2.5 0 0 0 .3.2l-.1.2-.4-.1v.1a2.7 2.7 0 0 0-.2.2 2 2 0 0 0 .1-.6s-.2.1-.4.3h-.2a1 1 0 0 0 0-.3 1.2 1.2 0 0 0 .5-.6 4.5 4.5 0 0 0 .7-.9l.1.2a2.5 2.5 0 0 0 .2.4Zm8.6-6.1a1 1 0 0 0-.1.1v-.1Zm-8.2-21.8v-.1.1ZM77 25.9a1.7 1.7 0 0 0-.3-.3v-.3a2.3 2.3 0 0 0 .4.1v.5Zm-5.8.5a.9.9 0 0 0-.3 0 1.2 1.2 0 0 0-.1 0v-.2a2.1 2.1 0 0 0 .4.2ZM45.8 86.1a.7.7 0 0 0 0 .1Zm6.3-4.8.1.1Zm1 .5h-.2v-.1l.1.1Zm7.6 21.8Zm-.8.4v-.1Zm8-20.2h.2l-.2.2a1.6 1.6 0 0 0 0-.2Zm5.5 2-.6.4a1 1 0 0 0 0-.1 2.8 2.8 0 0 0-.2.3 1.6 1.6 0 0 0-.1-.3 1 1 0 0 0 0-.1 1 1 0 0 1-.1-.2 4.2 4.2 0 0 0 .4-.1 2 2 0 0 0 .6 0Zm-.5.5h.2l-.2.1v-.1ZM84.4 61a.8.8 0 0 0 .2 0V61.3l-.4.1v-.2a.7.7 0 0 0 .2-.2Zm1.5 1.6h-.2.2Zm.3.4a1.6 1.6 0 0 0 .5.3 3.5 3.5 0 0 0-.1.4l-.3-.4a4.5 4.5 0 0 0-.1.5 3.2 3.2 0 0 0-.2-.3 2.4 2.4 0 0 0 .2-.5Zm.9.2Zm1-.8Zm.2-.2Zm.2 0a1 1 0 0 1 0 .1 1.4 1.4 0 0 0 0 .2 1.2 1.2 0 0 1 0-.2Zm0 .1v-.2a1.5 1.5 0 0 0 .3-.2v.1a2.1 2.1 0 0 0-.2.3Zm.5-.1a1 1 0 0 0 .1-.2v.2a1 1 0 0 0-.1 0Zm9.3 21V83l.2.2h-.2Zm7.8-50.8h.1l.1.4a1 1 0 0 0-.1 0 1.8 1.8 0 0 0-.2-.3 1 1 0 0 0 .1 0Zm-1.3.7.2.1a1.2 1.2 0 0 1-.1-.3 2.9 2.9 0 0 0 .3.2 2.5 2.5 0 0 0 0-.3 2.8 2.8 0 0 0 .6.3.9.9 0 0 1-.2-.3 1.7 1.7 0 0 0 .3.1v.2a4.5 4.5 0 0 0-.2.6 1 1 0 0 0 0 .2 3.8 3.8 0 0 0-.5-.4 2.4 2.4 0 0 0 .1 1 3 3 0 0 1-.2.4 3.8 3.8 0 0 0 0-.6l-.3.2a3.7 3.7 0 0 0-.1-.8h.1-.3a1.4 1.4 0 0 0 .5-.3s-.2 0-.5 0a1.3 1.3 0 0 0 .3-.3Zm-1.6 1.1v.3V34.3Zm-3.8-12Zm.3 13.4a.7.7 0 0 1 0-.3l.2.4-.2.2a1.1 1.1 0 0 0-.2-.1 1 1 0 0 0-.2-.6l.1-.2a2.8 2.8 0 0 0 .3.6Zm-.6-.8a2.8 2.8 0 0 0 .1.3 2.2 2.2 0 0 0-.2-.2 1.3 1.3 0 0 0 .1-.1Zm-.7-12.5h-.1a.6.6 0 0 0 0-.1h.1a.2.2 0 0 0 0 .1Zm-.7-.5a2.6 2.6 0 0 0 .4.3 2.5 2.5 0 0 0-.3 0l.1.3a1 1 0 0 0 0 .2 3 3 0 0 0-.3-.2 3.2 3.2 0 0 0 0-.6Zm-.3.5v.5a1.2 1.2 0 0 0 0-.1 1.2 1.2 0 0 0 0-.4Zm-.3.1v.3l.1.2-.1.2a2.3 2.3 0 0 0-.2-.2.6.6 0 0 1 .2 0s0 0-.1-.1a1.5 1.5 0 0 0 0-.4Zm-.3.5Zm-8.6 4.5v.5a1.4 1.4 0 0 0 .4-.4 3 3 0 0 1 0 .3 3.2 3.2 0 0 0 .4-.7 3.3 3.3 0 0 0 .6.7 3 3 0 0 0 0-.4 2.3 2.3 0 0 0 .3.5 2.3 2.3 0 0 0 .2-.8.9.9 0 0 1 .1.3 2.7 2.7 0 0 0 .1-.6l.2.2a2.8 2.8 0 0 0 0-.4 1.2 1.2 0 0 1 .3.3 2 2 0 0 0 0-.3 1.5 1.5 0 0 0 .3-.1l-.2.4a1.4 1.4 0 0 0 .5-.2 2.8 2.8 0 0 1-.2.2 3 3 0 0 0 1-.6 2.8 2.8 0 0 0 .4.1 1.5 1.5 0 0 0-.4.2s.1 0 .3.1l.2.2a.7.7 0 0 0-.2 0c-.5-.1-1.3.5-1.3.5a3.4 3.4 0 0 0 .9.1 3.4 3.4 0 0 0-.3.8s0 0 .2-.2a1.3 1.3 0 0 0-.1.5l.4-.2a1.4 1.4 0 0 0-.1.3h-.3l.5.3a2.6 2.6 0 0 0-.6.2 2.3 2.3 0 0 0 .5.3 2.8 2.8 0 0 0-.3.2 2.3 2.3 0 0 1 .5 0 1.5 1.5 0 0 0-.3.3s0 0 .2 0a3.7 3.7 0 0 0-.5.5v-.5h-.2V30a4 4 0 0 0 0-.7 1.2 1.2 0 0 1-.3.3 3.2 3.2 0 0 0 .2-1 3 3 0 0 0-.7.4 3.5 3.5 0 0 0 0-.4l-.5.7a2.1 2.1 0 0 0 0-.2l-.3.5a1.5 1.5 0 0 0-.2-.4 4 4 0 0 0 0-.7 4.4 4.4 0 0 0-.8.8 3.4 3.4 0 0 0-.2-.5 4.3 4.3 0 0 0-.3-.5s0 0 0 .4a2 2 0 0 0-.4-.6v.6a2.8 2.8 0 0 0-.5 0 4.8 4.8 0 0 0 .4-1.1s0 0-.3.2a1.7 1.7 0 0 0 .2-.5l.2.2Zm-1.2-.8.2.1v.4a1.4 1.4 0 0 0 .2-.3 2.9 2.9 0 0 0 .2.4 2.6 2.6 0 0 0 .2-.3l.2.2-.5.3a5.4 5.4 0 0 0-.8 0 .9.9 0 0 0 .2-.7 1 1 0 0 0 .1 0Zm-3.3-15-.1.2v-.1Zm-.2.2a2.8 2.8 0 0 0 0 .3h-.2c0-.2.2-.2.2-.3Zm-6.7 12.9a1 1 0 0 0 .2 0 .9.9 0 0 0 .3.3 3.3 3.3 0 0 0 0 .4 1.3 1.3 0 0 0-.2-.2v.1s-.2-.1-.3-.4a2.4 2.4 0 0 1 0-.2ZM59 17a2.6 2.6 0 0 0 0 .3 2 2 0 0 1-.2-.3h.2ZM38.5 90.2l-.1-.4.2.1a1.4 1.4 0 0 0-.1.3Zm0-.5v-.4l.2.2h-.2a3 3 0 0 0 .3.3h-.2Zm7.6-2.6V87a4.7 4.7 0 0 0 0-.5v-.2.1-.2l.8.5-.1-.5a3.5 3.5 0 0 0 1 .3 3.9 3.9 0 0 0-.7-1.1 1.4 1.4 0 0 1 .5.1 4.4 4.4 0 0 0-.6-.8h.5a4.4 4.4 0 0 0-.5-.5 3.6 3.6 0 0 1 .4 0 3 3 0 0 0 .7 1 4.4 4.4 0 0 0 .2-.6 1.2 1.2 0 0 0 .1 0 5.8 5.8 0 0 0 .8.5l.4.7a2.3 2.3 0 0 0 .1-.8l.2.4a5.4 5.4 0 0 0 .3-1.3 5.3 5.3 0 0 0 1.3.7 4.9 4.9 0 0 0-.4-1 2.8 2.8 0 0 0 1.1-.6 4.6 4.6 0 0 0-.5-.1 3.1 3.1 0 0 0 .4-.4l.1.1a2 2 0 0 0 0-.2 1 1 0 0 1 .3-.2s-.1 0-.3 0v-.2a3.2 3.2 0 0 0 .8-.2l-.2.3a1.3 1.3 0 0 1 .4 0l.1.2.2-.3h.1a.9.9 0 0 0 .2-.1 3.6 3.6 0 0 0 0 .6 3.4 3.4 0 0 0 .5-.4 2 2 0 0 0 0 .6s.1-.2.3-.4h.3a3.7 3.7 0 0 0-.2.5 3.3 3.3 0 0 0 .6-.3 2 2 0 0 0-.1.6s.1 0 .4-.3a3.7 3.7 0 0 0-.3.9l.7-.5a1 1 0 0 0 .2 0 3.4 3.4 0 0 0 .1.5 3 3 0 0 0 .4-.5 2 2 0 0 0 .2.5s0-.1.2-.4l.2-.2c.2 1 1.7 1.5 1.7 1.5l-.2-.4a1.4 1.4 0 0 0 .2.2 1.4 1.4 0 0 0 0 .3 2.5 2.5 0 0 0-.4-.3 2.6 2.6 0 0 0 .1.5h-.1a3.8 3.8 0 0 0-.5 0l-.4-.5a1.4 1.4 0 0 0 0 .6l-.1-.2a3.4 3.4 0 0 0 0 .8 3.4 3.4 0 0 0-.8-.1 3.4 3.4 0 0 0 .3.3 2.3 2.3 0 0 0-.6-.2 2.3 2.3 0 0 0 .4.7 1 1 0 0 1-.3 0 2.8 2.8 0 0 0 .4.4h-.3a2.7 2.7 0 0 0 .3.3 1.2 1.2 0 0 1-.4 0s0 0 .2.2a1.6 1.6 0 0 0-.1.3l-.2-.5a1.4 1.4 0 0 0-.2.6v-.3s-.6 1-.2 1.6h-.2l-.4-.1a1.5 1.5 0 0 0 .2.4 2.3 2.3 0 0 0-.5-.1 2.9 2.9 0 0 0-.4.1 1.8 1.8 0 0 0-.2-.8 2.6 2.6 0 0 0-.2.3 2.2 2.2 0 0 0 0-.3s0-.1-.1-.1a.7.7 0 0 1-.1-.2s0 0 0 .2a.9.9 0 0 0-.2 0 2 2 0 0 0 0-.7 2.4 2.4 0 0 0-.5.5 1 1 0 0 1 0-.3 2.8 2.8 0 0 0-.4.4l-.1-.2a2.9 2.9 0 0 0-.2.3 1.2 1.2 0 0 1 0-.4s-.1.1-.2.2a1.6 1.6 0 0 0-.4 0l.5-.3a1.4 1.4 0 0 0-.6 0l.3-.2a3.4 3.4 0 0 0-.8 0 3.3 3.3 0 0 0 .3-1s-1 .5-1 1a.9.9 0 0 0-.2.1v-.5a1.6 1.6 0 0 0-.3.3 2.4 2.4 0 0 0 0-.5 2.8 2.8 0 0 0-.3.2 3.6 3.6 0 0 0-.3-.5l.2-.6a1.4 1.4 0 0 0-.5.4l.1-.3a3.4 3.4 0 0 0-.6.5 3.3 3.3 0 0 0-.4-.8 3 3 0 0 0-.1.5 1.3 1.3 0 0 0-.4.2v-.2a1.4 1.4 0 0 0-.3.4.6.6 0 0 1 0-.3 2.7 2.7 0 0 0-.4.4 3 3 0 0 0-.1-.4 2.4 2.4 0 0 0-.3.7 1 1 0 0 1-.2-.3 2.8 2.8 0 0 0-.2.6 2.3 2.3 0 0 0-.2-.2s0 .1 0 .3l-.1-.2a2 2 0 0 0 .2-.7 2.6 2.6 0 0 0-.4.2Zm8.7 7a.2.2 0 0 0 0 .1Zm.6-4.4a2 2 0 0 0-.4 0 3.7 3.7 0 0 0 .3-.3l.1.3Zm-.8 1.9h.1-.1Zm.6-1.2a.4.4 0 0 1 .1 0 .7.7 0 0 0-.1 0Zm-.4-.4a2.3 2.3 0 0 0 .5.1H55a2.9 2.9 0 0 0-.3-.1Zm.3.8h.1l-.2.2.1-.2Zm-.5.4h.1V91a1.3 1.3 0 0 0 .3.1h-.3ZM46.5 104a1 1 0 0 0 0-.2 2.2 2.2 0 0 0 .2.3 1.1 1.1 0 0 0 .1 0l-.2.2a.6.6 0 0 0-.1-.3Zm.1.5h.3a1.2 1.2 0 0 0-.3.2 1.8 1.8 0 0 0 0-.2Zm6.5-4.6Zm-6.3 5.2a.6.6 0 0 0-.2 0 2.2 2.2 0 0 0 0-.3h.2l.1.2a.8.8 0 0 0-.1 0Zm7-4.7Zm3.5 2a.6.6 0 0 0-.1 0 2.8 2.8 0 0 0 0-.5 2.2 2.2 0 0 0-.4.3 1.6 1.6 0 0 0 0-.5s0 .1-.2.3h-.2a.8.8 0 0 0 0-.2c.5-.3.4-1.4.4-1.4a3.4 3.4 0 0 0-.6.8 3.4 3.4 0 0 0-.5-.7s0 0 0 .4a1.3 1.3 0 0 0-.6-.3s.1.2.3.4a1.5 1.5 0 0 0-.4-.1v-.2a1.2 1.2 0 0 1-.2.3 2.5 2.5 0 0 0 0-.4l-.2.1a2.7 2.7 0 0 0-.2-.6.8.8 0 0 1-.1.3 2.4 2.4 0 0 0-.2-.8 2.3 2.3 0 0 0-.3.5.5.5 0 0 0-.3-.2.8.8 0 0 1 .1-.1s0 0-.2 0a1.2 1.2 0 0 0 0-.4l.6.5a1.4 1.4 0 0 0-.2-.5l.4.3a1.4 1.4 0 0 0-.1-.5l.2.2a3.4 3.4 0 0 0-.2-.8 3.3 3.3 0 0 0 .9 0s-.8-.7-1.4-.5a.7.7 0 0 0-.1-.1v-.2h.5a1.5 1.5 0 0 0-.4-.3 2.4 2.4 0 0 0 .4-.2 2.7 2.7 0 0 0-.4-.2 1 1 0 0 0 .1 0 4 4 0 0 0 .3-.5h.6a1.4 1.4 0 0 0-.5-.3h.3a3.4 3.4 0 0 0-.8-.4 2.2 2.2 0 0 0 .2-.2l.4.3a1.4 1.4 0 0 0-.2-.5l.3.1a3.5 3.5 0 0 0-.1-.3 3 3 0 0 0-.2-.5 3.3 3.3 0 0 0 1 0 3 3 0 0 0-.4-.3 1.2 1.2 0 0 0-.2-.3l.5.1H55.1a.9.9 0 0 1-.3.1 2.3 2.3 0 0 0 .3 0 1.4 1.4 0 0 0 .1.4l-.4-.2a1.4 1.4 0 0 0 .3.5 4 4 0 0 1-.3-.2 3.4 3.4 0 0 0 .4.7 3.3 3.3 0 0 0-.9.3s1 .5 1.4.2a.9.9 0 0 0 .2 0v.2l-.5.2a1.5 1.5 0 0 0 .5.1 2.4 2.4 0 0 0-.4.3 2.7 2.7 0 0 0 .4.1 4.5 4.5 0 0 0-.3.6l-.5.1a1.4 1.4 0 0 0 .5.2h-.3a3.5 3.5 0 0 0 .8.3 3.2 3.2 0 0 0-.4.8 3 3 0 0 0 .4-.2 1.3 1.3 0 0 0 .4.1l-.4.3a1.4 1.4 0 0 0 .2 0l-.4.4a3 3 0 0 0 .3 0 2.3 2.3 0 0 0-.3.6 2.4 2.4 0 0 0 .7-.3 1 1 0 0 1 0 .3 2.8 2.8 0 0 0 .5-.3v.3a2.7 2.7 0 0 0 .3-.3 1.3 1.3 0 0 1-.1.4s0 0 .2-.1a1.3 1.3 0 0 0 .3.2h-.5a1.4 1.4 0 0 0 .5.3h-.3a3.5 3.5 0 0 0 .7.4 3.4 3.4 0 0 0-.6.7s1 0 1.3-.5a.8.8 0 0 0 .2 0 1.9 1.9 0 0 1 0 .1l-.2.3a1.4 1.4 0 0 0 .4-.1 2.3 2.3 0 0 0-.2.5 2.6 2.6 0 0 0 .4-.2.8.8 0 0 0 0 .1 4.9 4.9 0 0 0 0 .6 9 9 0 0 1-.3.4 1.4 1.4 0 0 0 .5-.2l-.2.3a3.4 3.4 0 0 0 .9-.3 3 3 0 0 0 0 .4v.1a2 2 0 0 0-.3.2s.1 0 .3 0v.2h-.1l-.2-.1a1.2 1.2 0 0 1 0 .4 2.1 2.1 0 0 0-.2-.2l.1-.1a2.1 2.1 0 0 0-.6 0l.1-.3a3.5 3.5 0 0 1-.5.2 1.3 1.3 0 0 0 0-.2s0 .1-.3.2a1.4 1.4 0 0 0 0-.3 3.3 3.3 0 0 0 .3-.3 3.3 3.3 0 0 0-.9 0 3.5 3.5 0 0 0 .1-.8l-.2.3a1.4 1.4 0 0 0 .1-.6l-.4.4a4.3 4.3 0 0 0-.5 0Zm1.5 9a1.5 1.5 0 0 0 .3-.1 1.3 1.3 0 0 0-.1.2h-.2Zm7.9-10.5v-.1a1 1 0 0 1 0 .1Zm.4-16.5v-.1h.2L67 84l.1-.2a1.9 1.9 0 0 0 .2.3 2.8 2.8 0 0 0-.3.2Zm2 1a.9.9 0 0 0-.2 0V85a1.5 1.5 0 0 0-.3.3 2.3 2.3 0 0 0 0-.5 2.6 2.6 0 0 0-.4.2 4.1 4.1 0 0 0-.2-.6V84h.1a1 1 0 0 1 .2-.2 1.7 1.7 0 0 0 .1 0 2.8 2.8 0 0 0 .2-.4 4 4 0 0 0 .2.4 2.4 2.4 0 0 0 .4-1 4 4 0 0 0 .8.2 4.4 4.4 0 0 0-.7-1 4.5 4.5 0 0 0 1-.4s0 0-.3 0a1.9 1.9 0 0 0 .7-.3s-.3 0-.7-.2a1.2 1.2 0 0 1-.1-.2s1.5.9 2.2.4a1.2 1.2 0 0 0 .3 0l-.1.3-.6.3a2.4 2.4 0 0 0 .7.2 3.9 3.9 0 0 0-.7.4 4.4 4.4 0 0 0 .7.2 1.5 1.5 0 0 0 0 .2 5.9 5.9 0 0 0-.5.7l-.8.3a2.2 2.2 0 0 0 .9.3l-.5.1a5.6 5.6 0 0 0 1.3.4 4.8 4.8 0 0 0-.6.9v-.3a2.3 2.3 0 0 0-.5.5.9.9 0 0 1 0-.3 2.8 2.8 0 0 0-.4.4 2.4 2.4 0 0 0-.1-.2 3 3 0 0 0-.3.3 1 1 0 0 1 0-.4s0 .1-.1.2a1.4 1.4 0 0 0-.4 0l.5-.3a1.4 1.4 0 0 0-.6 0l.3-.2a3.4 3.4 0 0 0-.8 0 3.5 3.5 0 0 0 .3-1s-1 .5-1 1ZM70.8 99Zm6-8.7a2.3 2.3 0 0 0 0-.2 3.4 3.4 0 0 1-.2.5h-.2a2.6 2.6 0 0 0-.1-.4.8.8 0 0 1-.1.3h-.3l.2.2-.1.1a.8.8 0 0 0 0 .1 3 3 0 0 0-.4-.3 2.4 2.4 0 0 0 0 .5 1.5 1.5 0 0 0-.3-.2s0 .1 0 .3v.3a2.6 2.6 0 0 0-.3-.4 2.4 2.4 0 0 0-.2.5 1.5 1.5 0 0 0-.2-.4s0 .1 0 .4a2.7 2.7 0 0 0-.4-.6v.6a.6.6 0 0 0 0 .2 2.8 2.8 0 0 0-.5-.2 2.3 2.3 0 0 0 .2.5 1.5 1.5 0 0 0-.5-.2s.1.1.2.3v.2a1.7 1.7 0 0 0-1.3.2 2.4 2.4 0 0 0 0-.4 3.3 3.3 0 0 0 .8 0 3.1 3.1 0 0 0-.4-.3 1.6 1.6 0 0 0 0-.3l.4.1a1.1 1.1 0 0 0-.1-.1 3.5 3.5 0 0 1 .5.1s0 0-.1-.2a2.2 2.2 0 0 0 .6-.1 2.4 2.4 0 0 0-.6-.5.9.9 0 0 1 .3 0 2.9 2.9 0 0 0-.4-.3 1 1 0 0 0 0-.1 1.6 1.6 0 0 0 .1 0l-.2-.2v-.2a3.4 3.4 0 0 0 .8 0s-.7-.7-1.2-.6a1 1 0 0 0-.2 0 1.1 1.1 0 0 1 .1-.2h.4a1.5 1.5 0 0 0-.4-.3 2.4 2.4 0 0 0 .5-.2 3 3 0 0 0-.4-.2.8.8 0 0 0 .1 0 3.8 3.8 0 0 0 .4-.5h.5a1.4 1.4 0 0 0-.5-.3h.3l-.1-.1a4.2 4.2 0 0 0 .8-.4 3.9 3.9 0 0 0 0 .4 4.2 4.2 0 0 0 .5-.3 2 2 0 0 1-.2.5s.2 0 .4-.1a2.4 2.4 0 0 0 .5.3h-.8a2.3 2.3 0 0 0 .8.5H75a5.5 5.5 0 0 0 1.1.7 5.2 5.2 0 0 0-1 1s1.7 0 2.1-.8a1.2 1.2 0 0 0 .3 0v.2c0 .2-.1.3-.2.3a1.8 1.8 0 0 0-.4 0s.1.1.3.3a1.5 1.5 0 0 0-.3 0Zm.7-.2a2 2 0 0 0 .3 0 2.8 2.8 0 0 0-.1.2.4.4 0 0 0-.2-.2Zm4.6 3.2a.4.4 0 0 0 0-.1 2.5 2.5 0 0 0 0-.3 2.6 2.6 0 0 0 .3.3 2.6 2.6 0 0 0-.3 0Zm2.4 7.3a2.3 2.3 0 0 0 0-.4 2.6 2.6 0 0 0 .2.2 2.8 2.8 0 0 0 0-.5.5.5 0 0 0 .2.4 2.3 2.3 0 0 0-.4.3Zm0-1 .1.2a1.7 1.7 0 0 0 0-.2Zm.1 0 .3-.1a1.3 1.3 0 0 0 0 .3l-.3-.2Zm.6.6Zm12-9.1a1.3 1.3 0 0 0-.3.2V91a1.5 1.5 0 0 0-.3.4.8.8 0 0 1 0-.3 3.1 3.1 0 0 0-.4.5 2.3 2.3 0 0 0-.1-.4 2.3 2.3 0 0 0-.3.6.9.9 0 0 1-.1-.3 2.8 2.8 0 0 0-.3.6 2.4 2.4 0 0 0-.2-.2 2.6 2.6 0 0 0 0 .3l-.1-.2a2 2 0 0 0 .2-.6 2.6 2.6 0 0 0-.4.1 4.1 4.1 0 0 0 0-.6c0-.3.2-.5.2-.5a1.4 1.4 0 0 0-.5.3l.2-.3a3.5 3.5 0 0 0-.8.3 3.5 3.5 0 0 0-.2-.9 3 3 0 0 0-.3.6 1.7 1.7 0 0 0-.7-.4 3.3 3.3 0 0 0 .1.3 2 2 0 0 0-.3 0v-.1a.8.8 0 0 0-.1 0 .7.7 0 0 1-.2 0s0 0 0 .2a2 2 0 0 0-.5-.4 2.3 2.3 0 0 0 .1.8 1.8 1.8 0 0 0-.2-.1v-.2a1 1 0 0 0 0 .1.6.6 0 0 1-.2-.1 2 2 0 0 0 0 .2 1 1 0 0 0-.1.2v-.7a1.6 1.6 0 0 0-.3.3v-.5a1.4 1.4 0 0 0-.3.5v-.3a3.4 3.4 0 0 0-.5.6 3.3 3.3 0 0 0-.6-.7s0 1 .4 1.4a.9.9 0 0 0 0 .2h-.2l-.3-.3a1.4 1.4 0 0 0 0 .4 2.4 2.4 0 0 0-.3-.2 2.6 2.6 0 0 0 0 .4 4 4 0 0 0-.6 0l-.4-.4a1.4 1.4 0 0 0 .1.5l-.2-.2a3.4 3.4 0 0 0 .1.8 3.3 3.3 0 0 0-.9 0 2.6 2.6 0 0 0 .3.2 2.3 2.3 0 0 0-.5-.1 2.4 2.4 0 0 0 .4.6 1 1 0 0 1-.3 0 3 3 0 0 0 .3.5h-.2a2.7 2.7 0 0 0 .2.3 1.2 1.2 0 0 1-.3 0s0 0 .1.1a1.6 1.6 0 0 0-.1.4l-.2-.5a1.4 1.4 0 0 0-.1.5l-.1-.3s-.5 1-.2 1.7h-.2c-.2 0-.3-.2-.3-.2a1.5 1.5 0 0 0 .2.5 2.5 2.5 0 0 0-.5-.2 2.7 2.7 0 0 0 .2.4.8.8 0 0 0-.1 0l-.7.2a2.7 2.7 0 0 0 .6.3h-.4a1.4 1.4 0 0 0 .4.3 2.4 2.4 0 0 0-.4.1 2.9 2.9 0 0 0 .4.3l-.2.1h-.4a1.4 1.4 0 0 0 .3.3 2.4 2.4 0 0 0-.5 0 2.3 2.3 0 0 0 .3.3.6.6 0 0 0-.1 0l-.1.1-.3-.1a2.1 2.1 0 0 0 .1.2 1 1 0 0 1-.3.2 3 3 0 0 0 .4 0 1.7 1.7 0 0 0 0 .3 1.9 1.9 0 0 0-.2 0 3 3 0 0 0-.6-.1 3.4 3.4 0 0 0 .5-.7s0 0-.3.1a1.4 1.4 0 0 0 .3-.4s-.2 0-.5.1l-.3-.1a2.5 2.5 0 0 0 .5-.5 2.2 2.2 0 0 0-.5 0 1.4 1.4 0 0 0 .2-.4s-.1 0-.3 0a1.9 1.9 0 0 1-.2 0 .6.6 0 0 0 .1-.2c.6 0 1-1 1-1a3.4 3.4 0 0 0-.8.4 3.3 3.3 0 0 0-.1-.9s0 0-.2.3a1.4 1.4 0 0 0 0-.6s-.1.2-.3.5a1.6 1.6 0 0 0 0-.4l.2-.1a1.2 1.2 0 0 1-.4 0 3.2 3.2 0 0 0 .3-.3 2.3 2.3 0 0 0-.2 0 2.8 2.8 0 0 0 .5-.5 1 1 0 0 1-.4 0 2.4 2.4 0 0 0 .6-.5 2.1 2.1 0 0 0-.6 0 2.8 2.8 0 0 0 0-.3 3.8 3.8 0 0 1-.4.2 1.8 1.8 0 0 0 0-.2s-.2.1-.4.3a1.2 1.2 0 0 0 0-.4h.1l.2.1a3.8 3.8 0 0 0 0-.4 3 3 0 0 0 0-.8 1.6 1.6 0 0 1 .4.4 4.7 4.7 0 0 0-.1-1l.4.1a3.8 3.8 0 0 0-.1-.6 2 2 0 0 1 .4.4s0-.1 0-.4a2.4 2.4 0 0 0 .4-.3c0 .4-.2.7-.2.7a2.3 2.3 0 0 0 .7-.5 6 6 0 0 1-.1.5 5.5 5.5 0 0 0 1-.9 5.3 5.3 0 0 0 .6 1.3s.6-1.5 0-2.2a1.6 1.6 0 0 0 0-.3h.3l.4.6a2.3 2.3 0 0 0 0-.7 3.9 3.9 0 0 0 .6.5 4 4 0 0 0 0-.7l.2.1a6.4 6.4 0 0 0 .9.3l.4.7a2.2 2.2 0 0 0 0-.8l.3.4a5.6 5.6 0 0 0 .1-1.3 5.3 5.3 0 0 0 1.4.5 5 5 0 0 0-.4-.7 2.1 2.1 0 0 0 0-.6l.6.5a2 2 0 0 0 0-.3l.7.6a4.2 4.2 0 0 0 0-.5 3.5 3.5 0 0 0 .9.3 3.9 3.9 0 0 0-.6-1 1.5 1.5 0 0 1 .5 0 4.3 4.3 0 0 0-.6-.8h.4a4.4 4.4 0 0 0-.4-.5 4 4 0 0 1 .4 0 3 3 0 0 0 .7 1.1 5 5 0 0 0 .1-.7 1.3 1.3 0 0 0 .2.1 5.6 5.6 0 0 0 .8.4l.3.7a2.3 2.3 0 0 0 .2-.8l.2.4a5.5 5.5 0 0 0 .3-1.3 5.3 5.3 0 0 0 1.3.7 5 5 0 0 0-.5-1 2.8 2.8 0 0 0 1.2-.6 4.7 4.7 0 0 0-.5-.1 3 3 0 0 0 .4-.4l.1.1v-.2a1 1 0 0 1 .2-.2s0 0-.2 0v-.2a3 3 0 0 0 .6-.2h.1a5.3 5.3 0 0 0 .5.6l.1.1a3.6 3.6 0 0 0-.5.3 3 3 0 0 0 .6.2 2 2 0 0 0-.6.3l.6.1a1.9 1.9 0 0 1 0 .2 1.3 1.3 0 0 0-.1.2c-.7-.3-1.8.6-1.8.6a4.5 4.5 0 0 0 1.2 0 4.8 4.8 0 0 0-.3 1.2s0 0 .3-.3a1.9 1.9 0 0 0-.2.7s.2-.2.5-.4a2 2 0 0 0-.1.5h-.4a1.5 1.5 0 0 1 .5.3 3.7 3.7 0 0 0-.5 0c0 .2.1.3.2.3a3.8 3.8 0 0 0-.8.3 1.2 1.2 0 0 1 .4.1 3.2 3.2 0 0 0-1 .4 2.9 2.9 0 0 0 .8.3 4 4 0 0 0-.3.3 4.8 4.8 0 0 1 .8 0 1.9 1.9 0 0 0-.2.2s.3 0 .6 0a1.7 1.7 0 0 0-.2.3 4 4 0 0 0-.3.2 3.7 3.7 0 0 0-.3-.5 3.2 3.2 0 0 0-.1.6Zm.5.1h.1v.1Zm5.3 8.5v.2-.2Zm0 0-.1-.3a1 1 0 0 0 .2 0v.3Z"/><path fill="#73bf44" d="M72.7 85.4c-1.8-.5-3-.5-3.5.2-.5.6-.1 3.2.4 5.9a52.7 52.7 0 0 0 2.7 9.7 10.4 10.4 0 0 0 4.8 5.3c.7.2.6-.3.6-.9v-6.1c0-1.3.5-6.6 1-10.6-2-1.2-4.5-3.1-6-3.5ZM76.5 114.1a7.7 7.7 0 0 0-3-5 20.6 20.6 0 0 1-2.5-2.6l.2 2.5a3.7 3.7 0 0 1 1.9 2.4c1.3 5 0 10.2 1.5 15a4.2 4.2 0 0 1 .2 1 5.4 5.4 0 0 1 .6 2.3 2.6 2.6 0 0 1 0 .3.6.6 0 0 1 .1.4v1.2l.5-4a34.5 34.5 0 0 0 1-4.5 49.4 49.4 0 0 0-.5-9ZM80.2 94.6c-.2 2.6-.2 6.6-.2 8.6l-.1 4.5c0 .3 1.1-1 1.5-1.6.4-.7 2.5-2.5 3.6-3.7a6.7 6.7 0 0 0 1.3-3.9l1-6.7a24.3 24.3 0 0 1-6.5-1.9l-.6 4.7Z"/><path fill="#73bf44" d="M101.9 59.8a58 58 0 0 0-6.9 7.3 23.9 23.9 0 0 0-3.6 7.1 75.8 75.8 0 0 0-2.3 8l-1.6 8.9a18.7 18.7 0 0 1-3.8-.9c-1-.3-2-.6-2.8-1l.6-3c.4-2 1-3.7 1.6-6.6l1.2-5.7-2.5-.3-2.4 10.8-.6 3.8a43.6 43.6 0 0 0-5.2-3.3 6 6 0 0 0-4-.4c-.6.1-.8-.4-.7-1.5.2-1.2 1.4-3.5 2.4-5.8a21.3 21.3 0 0 0 1.3-7.7c0-2.6-3.5-.1-3.5-.1a13.7 13.7 0 0 1-.9 6.9s-.2-5.6-.2-7l-2.8.4s.5 6.6.4 8.2c-.1 1.6 0 3.3-.6 3.4-.6.2-2.3-.2-3.8.3-1.5.4-4.8.1-8.3 1.8s-5.7 1.3-5.7 1.3v1.2s3.6-.4 5.1-.7c1.6-.4 3.5-1.4 4.8-1.7 1.4-.2 3.1-.1 4.4-.4 1.3-.3 3.8-.1 4 1 .2 1.1 0 1.2 0 1.2a4 4 0 0 0-1.9 1c-.7.8-2.1 2.4-2.8 2.3A16.3 16.3 0 0 0 50.1 91l.6.9a26 26 0 0 1 3.6-1.6 18 18 0 0 1 4.8-.8c.6 0 2.2 1.2 3.1 0 1-1.1 2.4-2.8 3.4-2.5a69.7 69.7 0 0 0 1.7 11l.2 3.4h-.2a27.2 27.2 0 0 0-6.7-.8c-3.1.2-3.5.6-5.2.6-1.7 0-1.1.2-1.7-.6-.5-.7-1-3.3-3.9-4.8-2.8-1.5-2.4-.3-1.4.2a9.4 9.4 0 0 1 3.7 3.6c.5 1.3.6 3.1 2.3 3 1.7-.2 4.3-.5 7.3-.6a16.5 16.5 0 0 1 6 1l.1 2.8.2 2.8a4.3 4.3 0 0 1 3.2.3l-.2-2.5a20.6 20.6 0 0 0 2.5 2.6 7.7 7.7 0 0 1 3 5 49.4 49.4 0 0 1 .5 9 34.5 34.5 0 0 1-1 4.5c-.2.9-.4 3-.4 4a.2.2 0 0 1 0 .1.4.4 0 0 1 0 .1v.1a.6.6 0 0 1 0 .2v6.7h4.6s0-7.3.4-10.5 1.2-5 .9-8.7a49.7 49.7 0 0 1-.2-6.6c0-1.1-.3-2.4.4-3.5.7-1.2 3.4-3.7 4.4-5 1-1.3 2-2.3 2.2-4.1.2-1.9.5-6.7 1-9l1.8-8.7a68 68 0 0 1 1.8-6.8 40.3 40.3 0 0 1 3.5-7.8 36 36 0 0 1 6.8-7.3Zm-24.2 45.8c0 .6.1 1.1-.6.9a10.4 10.4 0 0 1-4.8-5.3 52.7 52.7 0 0 1-2.7-9.7c-.5-2.7-.9-5.3-.4-6 .6-.6 1.7-.6 3.5-.1 1.5.4 4 2.3 6 3.5-.5 4-1 9.3-1 10.6v6.1Zm8.6-7.1a6.7 6.7 0 0 1-1.3 4c-1 1.1-3.2 2.9-3.6 3.6-.4.7-1.5 1.9-1.5 1.6l.1-4.5c0-2 0-6 .2-8.6l.6-4.7a24.3 24.3 0 0 0 6.6 1.9c-.4 1.8-1 5.5-1 6.7Z"/><path fill="#73bf44" d="M82.2 150H72l.9-10.2.8-13.5c0-2.4 1.4-13.5.8-16.6-.6-3 8.3-2.7 8.3-2.7s-1 7.2-1 11.8c-.2 4.6 0 11.2-.4 13.3a60.4 60.4 0 0 0 0 10.2c.3 2.5 1 4.6 1 7.7Z"/><path d="M74.5 87c17.9 0 35-15.7 34.2-34.2a34.8 34.8 0 0 0-34.2-34.3c-18 0-35.1 15.8-34.3 34.3.9 18.5 15 34.2 34.3 34.2Z"/><path d="M73 107.5c18 0 35-15.8 34.3-34.3A34.8 34.8 0 0 0 73 39c-17.9 0-35 15.7-34.2 34.2.8 18.6 15 34.3 34.2 34.3ZM104.5 36.1c2.6 0 2.6-4 0-4-2.5 0-2.5 4 0 4Z"/><path d="M78.8 108c7.7 0 7.7-11.8 0-11.8-7.6 0-7.6 11.9 0 11.9Z"/><path fill="#73bf44" d="M74.4 87.4c18.4 0 36-16.2 35.2-35.3A35.8 35.8 0 0 0 74.4 17c-18.4 0-36 16.2-35.2 35.2.8 19.1 15.4 35.3 35.2 35.3Z"/><path fill="#73bf44" d="M69.5 108.3c18.5 0 36.1-16.2 35.3-35.3a35.8 35.8 0 0 0-35.3-35.2c-18.4 0-36 16.2-35.2 35.2.9 19.1 15.5 35.3 35.2 35.3Z"/><path fill="#73bf44" d="M76 106.4c17.8 0 35-15.7 34.2-34.2A34.8 34.8 0 0 0 75.9 38C58 38 41 53.7 41.7 72.2c.8 18.5 15 34.2 34.2 34.2Z"/><path fill="#73bf44" d="M77.5 109.5c3.8 0 3.8-6 0-6s-3.9 6 0 6Z"/><path fill="#73bf44" d="M80.6 108.3c3.8 0 3.8-6 0-6s-3.9 6 0 6Z"/><path fill="#73bf44" d="M83.1 106c3.8 0 3.8-5.9 0-5.9s-3.8 6 0 6ZM104 37.7c3.8 0 3.8-6 0-6-3.9 0-3.9 6 0 6Z"/></svg>