<svg xmlns="http://www.w3.org/2000/svg" viewBox="0 0 150 150"><path fill="#73bf44" d="M66 68a1.2 1.2 0 0 1 .3-.4 1.7 1.7 0 0 1 0-.4l-.5.1-.2.5a2.3 2.3 0 0 1 .5-.4s0 .2-.1.6ZM85 38l.3.1.8-.1a3.1 3.1 0 0 1-.6.7 4.6 4.6 0 0 1 1 0 5.5 5.5 0 0 1-.6.7l.2.1a9.8 9.8 0 0 1 1 .6l1-.3a3 3 0 0 1-.7.9l.6-.2a7.2 7.2 0 0 1-1.1 1.3 7 7 0 0 1 1.7.9 5.4 5.4 0 0 1-1 .2 3 3 0 0 1-.5.6h1l-.2.2a1.7 1.7 0 0 1 .9 0v-.2a20 20 0 0 0-.3-.5 2.4 2.4 0 0 1 .7.2 4 4 0 0 1-.3-.7 5.6 5.6 0 0 1 .7.2 1 1 0 0 1 0-.1l.1-1.1a4.4 4.4 0 0 1 .6 1v-.2l-.3-.5h.3v.1l.4.1a3.5 3.5 0 0 1-.8-1s.4 0 1.2.3a3.8 3.8 0 0 1-.6-.7H90a2.8 2.8 0 0 0 .7-.7 6.9 6.9 0 0 1-1 .2c0-.3.2-.5.3-.7a7 7 0 0 1-1.6.1 2.3 2.3 0 0 0 .6-.5 6.1 6.1 0 0 1-2-.1 5.2 5.2 0 0 1 1.3-1.1l-.2-.2h-.2a4.2 4.2 0 0 1-1 1.3 5.1 5.1 0 0 1 .1-1.4 5.2 5.2 0 0 1-1.3.2s0 0 .4-.4a1 1 0 0 1-.2 0 1.4 1.4 0 0 1-.6.3 1.8 1.8 0 0 1-.3.3ZM88 36.9h-.1v.1-.1ZM74.3 79l.1-.3a3 3 0 0 1-.3.3h.2ZM109.8 64a7.6 7.6 0 0 0-1.2.3s.1-.3.4-.6h-.4a5.6 5.6 0 0 1-1.8 2.5 8.6 8.6 0 0 1 .2-2.2 8.8 8.8 0 0 1-2 .3s0 0 .5-.5a3.6 3.6 0 0 1-1.4.2s.4-.4.9-.9a4 4 0 0 1-1 .1s.4-.5 1-1.1a1.5 1.5 0 0 1 .3-.2 2.5 2.5 0 0 1-.8 0l-.3.4a2.1 2.1 0 0 0 0-.4h-.3l.2-.2a5.1 5.1 0 0 1 0-.6 6.1 6.1 0 0 1-1.3 1.6 5.3 5.3 0 0 1-.1-1.7h-.3v.5a1.8 1.8 0 0 0-.3-.5h-.4l.2-.2a4.9 4.9 0 0 1-.5-.7l-.1.3.1.1h-.2l-.1.4-.2-.4-.2-.1a3.8 3.8 0 0 1 .3.7 4 4 0 0 1-.7-.2 1.3 1.3 0 0 1 0 .2 3.1 3.1 0 0 1 0 .6l.3.6a2.3 2.3 0 0 1-.7-.4l.2.4a5.8 5.8 0 0 1-1-.5 6.8 6.8 0 0 1 0 .8 5.3 5.3 0 0 1-.4-.5.4.4 0 0 0-.1 0 2.3 2.3 0 0 1 0 .7 5 5 0 0 1 1-.2 5 5 0 0 1-1 1 5.5 5.5 0 0 1 1.2.7s0 0-.5 0a2.3 2.3 0 0 1 .8.5h-.9a7.3 7.3 0 0 1-.5.7 1 1 0 0 1-.2.1 4.7 4.7 0 0 1 .6.4 4.2 4.2 0 0 1-.7.2 2.4 2.4 0 0 1 .6.4h-.6c0 .2 0 .2-.2.3a1.3 1.3 0 0 1 .3.2c.8-.3 2 .8 2 .8h-.3v.2a2.6 2.6 0 0 1 .3.1 6.2 6.2 0 0 0 .3-.8s0 .1.2.3a2.6 2.6 0 0 1 .5 0l-.6-.5s1 0 1.3.5a3.7 3.7 0 0 1 .5-.7 3.8 3.8 0 0 1 .3 1.1 1.4 1.4 0 0 0 .2-.4 4.4 4.4 0 0 1 .2 1l.4-.3a4.7 4.7 0 0 1 0 .7 2.2 2.2 0 0 0 .3-.5s0 .1 0 .3a2.4 2.4 0 0 1 .6.3l-.4-.7a2 2 0 0 1 1 .5v-.7a5.3 5.3 0 0 1 .7 1 5.4 5.4 0 0 1 1-1s.1 1.6-.6 2.1a1.4 1.4 0 0 1 0 .3h.2l.5-.5a2.4 2.4 0 0 1-.1.8 4 4 0 0 1 .7-.4 4.3 4.3 0 0 1-.1.7.7.7 0 0 1 .1 0 5.5 5.5 0 0 1 .9-.2l.6-.5a2.3 2.3 0 0 1-.1.8l.3-.3a6 6 0 0 1-.1.9 3 3 0 0 1 1 .2 5.2 5.2 0 0 1 .4-.8 6.2 6.2 0 0 1 .3.9 1.7 1.7 0 0 1 .8 0l.4-.3-.2-.2-.8-.2a3.2 3.2 0 0 1 .9-.4 5.3 5.3 0 0 1-1-.5 6 6 0 0 1 1-.3 1.2 1.2 0 0 1-.3-.2 9 9 0 0 1-.6-.9l-1.1-.2a3 3 0 0 1 1-.5l-.6-.1a7.1 7.1 0 0 1 1.6-.7 5.3 5.3 0 0 1-.4-.5l-.8.6a3 3 0 0 1 .4-1v-.1l-.5.4a6 6 0 0 1 .2-.8l-.1-.1h.1a6.2 6.2 0 0 1 .3-.8 7.3 7.3 0 0 1-1.9-.1 7 7 0 0 1 .9-.6 2.6 2.6 0 0 1 .2-.7l-.3.3v-.2l-.6.1a3 3 0 0 1 .2-.3ZM86 58.2h-.1a.6.6 0 0 1 0 .1ZM45 93l-.3.1a.4.4 0 0 1 0 .1h.2l.1-.1ZM48.5 52v.1ZM48.2 86.6l.1-.3a4.4 4.4 0 0 1-.4.2v-.4.2-.1a1 1 0 0 1-.2 0 2.3 2.3 0 0 1 .1.5 2.4 2.4 0 0 1 .4 0ZM112.2 72.1ZM94.7 61ZM95 61v.1ZM99.7 68a1 1 0 0 1 .1 0ZM109.2 72.2v.2h.1v-.2ZM99.6 68.5v-.2a3.4 3.4 0 0 1-.1-.3H99l.2.5.2.2a1.5 1.5 0 0 1 0-.2ZM86 59.1v-.4h-.3l.3.4ZM47.6 86.9a2.3 2.3 0 0 1 .2-.1l-.4-.4h-.1a2.7 2.7 0 0 1 0 .4h.3ZM136.5 47.7ZM126.1 86h.1v-.1ZM88.5 93l-.1.2a1.7 1.7 0 0 1 .4-.1h-.3ZM136.8 47.8a2.4 2.4 0 0 1 .2.3v-.2a1.6 1.6 0 0 1-.2 0ZM73.9 79.8H73l.2.2h-.8a2.1 2.1 0 0 1 .3.4 3.5 3.5 0 0 1 .5.2h.2a6.1 6.1 0 0 1 .5-.7ZM148.6 69ZM47.2 93.4ZM52.3 57.5l-.1.2v-.3a.6.6 0 0 0-.2 0 4.5 4.5 0 0 1-.4.4 2.5 2.5 0 0 1 .2.2l.4-.3a1.7 1.7 0 0 0 0 .3 3.3 3.3 0 0 1 .6-.4 3.6 3.6 0 0 1-.5-.1ZM52.8 58.7a3.3 3.3 0 0 1-.8 0 5.3 5.3 0 0 1-.1.6 5.5 5.5 0 0 1 .7-.2.8.8 0 0 0-.2-.1s.2 0 .4 0v-.3ZM52.2 56.5ZM49.7 51l-.5.2a5 5 0 0 1 .4.4 3 3 0 0 1 .9-.3l-.4-.4v.2a3.5 3.5 0 0 1-.4-.1ZM50.9 52.5l-.2.1.2.2a2.6 2.6 0 0 1 .4-.2 3.8 3.8 0 0 1-.4-.1ZM49.2 68.1a2 2 0 0 1-.1-.5l-.3.1a5 5 0 0 1 .4.4ZM47.9 87.3a4.3 4.3 0 0 1-.6-.2l-.1.1a5.5 5.5 0 0 1 .6.1l-.3.3a.9.9 0 0 1 .1 0l.1-.1.2-.2ZM50.4 55.3ZM136 48.4a2 2 0 0 1 .4.5 1.3 1.3 0 0 1 0-.2v-.2l-.3-.2ZM73.5 82.5v-.1a4.9 4.9 0 0 1 .6-.7 5.6 5.6 0 0 1-1.2-.5s0 0 .5 0a1.8 1.8 0 0 1-.5-.2 4.9 4.9 0 0 1-.8.1 5.4 5.4 0 0 1 .6 1.2l-.4-.2a2.2 2.2 0 0 1 .4.7s-.3-.2-.7-.3a5.4 5.4 0 0 1-.9.2.8.8 0 0 1-.1 0 4.5 4.5 0 0 1 .3.6 3.8 3.8 0 0 1-.7-.1 2.3 2.3 0 0 1 .3.6s-.2 0-.6-.2a2.7 2.7 0 0 0-.2.1 1.3 1.3 0 0 1 0 .3 1.1 1.1 0 0 1 .6.3 2 2 0 0 1 1.3 0V84l-.3-.5a2.3 2.3 0 0 1 .7.2 3.7 3.7 0 0 1-.3-.7 4.2 4.2 0 0 1 .7.3.9.9 0 0 1 0-.2c0-.7.2-.7.1-1a5.5 5.5 0 0 1 .5.6l.1-.2ZM66.3 90.2v.3l.1-.3h-.1ZM73.4 82.8l.1.1ZM73.8 82.7a1.7 1.7 0 0 1 .1.2l.1-.2h-.2ZM65.3 67c0 .2-.2.3-.3.4a2.8 2.8 0 0 1 .3-.2 1.6 1.6 0 0 1 0-.1ZM60.7 65.8a3 3 0 0 1 0-.7 2.2 2.2 0 0 1 0-.4l-.3.4a3 3 0 0 1 0-1 1.5 1.5 0 0 0-.3.3 6 6 0 0 1 0-1.2 5.7 5.7 0 0 1-.8.4A5 5 0 0 1 60 62a1.9 1.9 0 0 0-.7.2 6 6 0 0 1 .7-1.2 4.4 4.4 0 0 1-.6 0s.1-.2.3-.5l-.4.1a4.1 4.1 0 0 1-.7 1.4 5.7 5.7 0 0 1-.3-.9l-.2.2a8.5 8.5 0 0 1-1 .6l-.3 1a3 3 0 0 1-.4-1l-.1.5a7.3 7.3 0 0 1-.6-1.6 7.2 7.2 0 0 1-1.6 1 6.8 6.8 0 0 1 .4-1.2A3.7 3.7 0 0 1 53 60a6.4 6.4 0 0 1 .7-.2 4.9 4.9 0 0 1-.6-.4l-.2.1a2.7 2.7 0 0 1 0-.3h-.2a4.3 4.3 0 0 1-.8 1.7 8 8 0 0 1 1.3.8 8.1 8.1 0 0 1-2.2.3 8.9 8.9 0 0 1 .8 2s0-.1-.6-.5a3.6 3.6 0 0 1 .5 1.3l-1.1-.7a9.7 9.7 0 0 1-1.4.3 2.4 2.4 0 0 1-.3 0 6.5 6.5 0 0 1 .5 1 5 5 0 0 1-1.7-.6c-.2 0-.3.2-.5.3l.7.1a7 7 0 0 1-.5.5 7.2 7.2 0 0 1 1.5.5 2.4 2.4 0 0 0-.7.3 6.3 6.3 0 0 1 1.7.8 4.3 4.3 0 0 1-.5.2l.4.3a5 5 0 0 1 .8 0 1.5 1.5 0 0 1 .2 0 4.7 4.7 0 0 1-.2-.7 3.7 3.7 0 0 1 .7.3 2.2 2.2 0 0 1-.2-.7s.2.1.5.3h.3a1.1 1.1 0 0 1 0-.3c-.9-.4-1-2-1-2a5.1 5.1 0 0 1 1 1 5.5 5.5 0 0 1 .7-1.2s0 0 0 .4a2.3 2.3 0 0 1 .4-.7l.1.7a2.6 2.6 0 0 1 .4-.6l.1 1a.9.9 0 0 1 0 .2 1.8 1.8 0 0 1 .3-.4l-.1-.3a1.1 1.1 0 0 0 .2.1 2 2 0 0 1 .1-.1v.2l.4.1A3.7 3.7 0 0 1 54 64a3.2 3.2 0 0 1 1 .5v-.2l-.2-.2a1.1 1.1 0 0 0 .3 0 2 2 0 0 1 .2 0 2.4 2.4 0 0 1 .5 0l-.2-.4a2.8 2.8 0 0 1 1.2.4 4.4 4.4 0 0 1 .3-1 5.1 5.1 0 0 1 .5 1.4 5.3 5.3 0 0 1 1.1-.7s0 0-.2.4a2.1 2.1 0 0 1 .7-.4s-.1.3-.3.7a5.8 5.8 0 0 1 .3.8 1.7 1.7 0 0 1 0 .2 4.8 4.8 0 0 1 .6-.4 3 3 0 0 1-.2 1.2 3 3 0 0 0 .3.4 4.3 4.3 0 0 1 0-.7l.3.3a4.3 4.3 0 0 1 .2-1 1.4 1.4 0 0 0 .3.5ZM85.7 100a.9.9 0 0 1 0 .1l.1.2h.3a2.8 2.8 0 0 1-.4-.3ZM62 66v.5a5 5 0 0 1 0-.6ZM48 89.3a2.2 2.2 0 0 1-.4 0l.2.2-.8-.1a2 2 0 0 1 .3.5 1.2 1.2 0 0 1 .2 0 4.9 4.9 0 0 1 .5-.6ZM95 89.4h-.3l.4-.3a1 1 0 0 0 0-.1 3.2 3.2 0 0 1 .5-.6 2.5 2.5 0 0 1-.4 0v.3a1.8 1.8 0 0 1-.1-.2 1.2 1.2 0 0 0-.3 0s.1 0 .2-.2a1.6 1.6 0 0 1-.1-.5.8.8 0 0 1-.1.2l-.4 1a2.5 2.5 0 0 1-.2-.7l-.3.7a2.2 2.2 0 0 1-.2-.8l-.1.4a5.4 5.4 0 0 1-.4-1.3 5 5 0 0 1-1.2.7s.4-1.6 1.3-1.8a1.3 1.3 0 0 1 .1-.2 3 3 0 0 0-.2-.1l-.6.2a2.3 2.3 0 0 1 .3-.6 3.8 3.8 0 0 1-.7 0 3.8 3.8 0 0 1 .3-.5h-.1a5.5 5.5 0 0 1-.9-.3l-.7.3a2.2 2.2 0 0 1 .4-.7l-.4.2a5.3 5.3 0 0 1 .6-1.2h-.2v.3a3.6 3.6 0 0 1-.7-.3 2.3 2.3 0 0 1 .2.7s-.2-.1-.5-.4a4.4 4.4 0 0 1 .4 1l-1-.5a.8.8 0 0 1 0-.1 4.6 4.6 0 0 1-.3.6 3.6 3.6 0 0 1-.4-.6 2.3 2.3 0 0 1-.2.6l-.2-.6a2.8 2.8 0 0 0-.3-.1c-.2 1-1.6 1.5-2 1.6h.6a4.9 4.9 0 0 1-.5.5 2.1 2.1 0 0 1-.1.6l.6-.4a2.2 2.2 0 0 1 0 .3l.8-.4a4.5 4.5 0 0 1-.2.5 3.5 3.5 0 0 1 1 0 3.8 3.8 0 0 1-.9.8 1.4 1.4 0 0 0 .5 0 4.2 4.2 0 0 1-.8.7l.5.1a4.4 4.4 0 0 1-.6.4 2 2 0 0 0 .6 0s-.1.1-.3.3a2.3 2.3 0 0 1 0 .5l.5-.6a2.2 2.2 0 0 1 0 .8l.3-.4a5.5 5.5 0 0 1 .1 1.3 5.4 5.4 0 0 1 1.4-.5s-.7 1.5-1.6 1.6a1.2 1.2 0 0 1-.2.2l.3.2.6-.2a2.3 2.3 0 0 1-.5.6 4 4 0 0 1 .8 0l-.2.3a2.8 2.8 0 0 1 2-.2v-.3l-.2-.5a2.4 2.4 0 0 1 .6.2 4 4 0 0 1-.2-.8 4.7 4.7 0 0 1 .6.3.8.8 0 0 1 0-.2c0-.6.2-.6.2-1a4.4 4.4 0 0 1 .6.9v-.6a2.2 2.2 0 0 1 .4.6 3.8 3.8 0 0 1 .2-.8 4.4 4.4 0 0 1 .4.6l.2-.3-.1-.6a2.4 2.4 0 0 1 .5.4 3.8 3.8 0 0 1 0-.7 3.7 3.7 0 0 1 .6.4V90l.1-.2-.2-.3h.4ZM122 96.8ZM127.2 86.9l.2.2-.2-.2ZM108.2 101.2l-.2.4.3-.2v-.2ZM95.3 89.5c.2 0 .2.1.3.2a.5.5 0 0 1 0-.1h-.3ZM107.6 101v.2l-.2.2.3.2a3.7 3.7 0 0 1 0-.5ZM77.6 17.4ZM73.7 79.7l.2.1a2.3 2.3 0 0 1-.2-.1ZM126.4 85.6a1.5 1.5 0 0 1 0-.3h-.2a3 3 0 0 1 .1.3.7.7 0 0 1 .1 0ZM85.6 85.5l.4-.7a2.4 2.4 0 0 1-.5.2v.4l-.1.2a5.3 5.3 0 0 1 .8-.1l.2-.4a2.4 2.4 0 0 1-.8.4ZM107.4 18.2a2.7 2.7 0 0 1 .3-.5 3.4 3.4 0 0 1-.3.1v.4ZM86.3 58.7a.9.9 0 0 0-.1 0 1.6 1.6 0 0 1 .1 0ZM102.1 68.1ZM45.5 93.3l-.2-.1v.2h.3l.2-.6a4 4 0 0 1-.6-.1 2.3 2.3 0 0 1 .3.6ZM74 78.5a4.8 4.8 0 0 1-.4.3 2.7 2.7 0 0 1 .5.2v-.5ZM107.1 17.9h-.1v.1l.1-.1ZM15.4 83.9a4.3 4.3 0 0 1 .6 0 5.2 5.2 0 0 1-.2-.7 6.7 6.7 0 0 1-.4.7ZM16 82.9ZM16.3 82.5v-.3a1.2 1.2 0 0 1-.1.2l.1.1ZM20.7 41V41v.1ZM66.1 13.5ZM20.8 41.6a8 8 0 0 1 1-.6 1.7 1.7 0 0 1 0-.3 1.6 1.6 0 0 1-.2.1 18.3 18.3 0 0 0-.8.8ZM27.4 17.9Z"/><path fill="#73bf44" d="M149 70.6a2 2 0 0 1-.6-.4 5 5 0 0 0 1.6-.3 4.7 4.7 0 0 0-.9-.6c.8-.3.8-1.6.9-1.7l-.8.7a3.2 3.2 0 0 0 .1-.7 4.8 4.8 0 0 0 .5-.2 8.3 8.3 0 0 1-1.1-.5l.2-.4a6.8 6.8 0 0 0 .8 0 2 2 0 0 1-.6-.5l.1-.5-.5.3-.2-.2a2.3 2.3 0 0 0-.2 0 5.7 5.7 0 0 0 .6-.7 5.3 5.3 0 0 0-1-.1 3 3 0 0 0 .7-.7s-.3 0-.8.1c-.2 0-.2-.2-.4-.3a5.4 5.4 0 0 0 .8-.5 4.9 4.9 0 0 0-1-.3 3 3 0 0 0 .9-.5s-.3 0-.8-.1a5.5 5.5 0 0 0 1.3-.6c-.5 0-.5-.2-1.3-.4a1.6 1.6 0 0 0-.3 0 6 6 0 0 0 .5-.8 5.3 5.3 0 0 0-1 .2 3 3 0 0 0 .4-.9s-.3.1-.7.4l-.4-.2c.7-1.2-.3-3.5-.3-3.5l-.2.6a3 3 0 0 0-.3-1s-.1.3-.4.9a2.8 2.8 0 0 0-.2-.7 4.8 4.8 0 0 0 .3-.4 2.3 2.3 0 0 1-.8 0 5.7 5.7 0 0 0 .7-.5 4.5 4.5 0 0 0-.6-.1 6 6 0 0 0 .8-1 1.8 1.8 0 0 1-.6 0 5 5 0 0 0 .9-1.3 4.5 4.5 0 0 0-1.1.3 6.5 6.5 0 0 0 .6-.6 7 7 0 0 0-2 .1 7 7 0 0 0 .4-1.7l-.5.5a3 3 0 0 0 .3-1.2s-.4.3-.9.8a9 9 0 0 0-1.1 0 1.4 1.4 0 0 0-.2 0 5.5 5.5 0 0 0 .2-.9 5 5 0 0 0-1 .5 3.1 3.1 0 0 0 .2-1s-.2.3-.6.6h-.4a1.8 1.8 0 0 0 0-.4c1-.6 1-2.8 1-2.8a7 7 0 0 0-1.3 1.4 7 7 0 0 0-1-1.4s0 0 0 .6a2.2 2.2 0 0 0-.3-.6l-.3-.4h.3a9.5 9.5 0 0 0 1.3-.5l1.2.6a3.5 3.5 0 0 0-.7-1.2l.7.3a8.7 8.7 0 0 0-1-1.8 8.5 8.5 0 0 0 2.2-.6 7.6 7.6 0 0 0-1.2-.5 3.1 3.1 0 0 0-.4-.8l1.2.1a4.5 4.5 0 0 0-.3-.3 9.1 9.1 0 0 1 1.4 0 7.1 7.1 0 0 0-.5-.5 5.6 5.6 0 0 0 1.4-.5 6 6 0 0 0-1.8-.8 2.3 2.3 0 0 1 .8-.3 7 7 0 0 0-1.5-.6l.5-.4a6.2 6.2 0 0 0-1-.2 2.7 2.7 0 0 1 .9-.4 6 6 0 0 0-.6-.2 3.8 3.8 0 0 0-.2-.9l1 .8a3.5 3.5 0 0 0-.4-1.4 7.6 7.6 0 0 1 .5.5 8.8 8.8 0 0 0-.5-2 8.7 8.7 0 0 0 2.3 0s-2-1.9-3.3-1.4a2.3 2.3 0 0 0-.4-.3l.3-.4h1a4 4 0 0 0-1-.7 6.1 6.1 0 0 0 1.1-.4 7 7 0 0 0-1-.6 2.5 2.5 0 0 0 .3-.2 8.4 8.4 0 0 0 .9-1l1.3-.1a3.4 3.4 0 0 0-1.2-.7h.7a8.4 8.4 0 0 0-1.8-1.1 8.6 8.6 0 0 0 1.6-1.7 8.4 8.4 0 0 0-1.5.3 4.5 4.5 0 0 0-.5-2 7.4 7.4 0 0 0-.5.7 4.8 4.8 0 0 0-.3-.8 1.6 1.6 0 0 1 .2-.2s-.1 0-.3 0a1.6 1.6 0 0 1-.2-.5s-.1.1-.2.4h-.3a5.4 5.4 0 0 0 .1-1.7 6.1 6.1 0 0 0-1.4 1.4 2.4 2.4 0 0 1 0-.9 7.2 7.2 0 0 0-1 1.2l-.3-.6a6.6 6.6 0 0 0-.5.9 3 3 0 0 1 0-1s-.3.2-.5.5a3.8 3.8 0 0 0-.9-.2l1.1-.6a3.6 3.6 0 0 0-1.4-.1l.7-.4a8.4 8.4 0 0 0-2-.2 8.4 8.4 0 0 0 .7-2.2s-2.4 1.2-2.5 2.6a2.2 2.2 0 0 0-.4.2l-.2-.4.2-1a3.8 3.8 0 0 0-.9.8 6 6 0 0 0 0-1.3 7.5 7.5 0 0 0-.8.7 2 2 0 0 0-.1-.2 9.9 9.9 0 0 0-.6-1.3l.3-1.2a3.6 3.6 0 0 0-1 .8l.2-.7a8.5 8.5 0 0 0-1.7 1.3 8.5 8.5 0 0 0-1-2 7.4 7.4 0 0 0-.2 1.1 3.3 3.3 0 0 0-.7.6l-.1-1.2a3 3 0 0 0-.3.4 8.8 8.8 0 0 1-.2-1.5l-.5.7a5.4 5.4 0 0 0-.7-1.4 6 6 0 0 0-.5 1.9 2.3 2.3 0 0 1-.4-.7 7 7 0 0 0-.3 1.6l-.5-.5a6.5 6.5 0 0 0 0 1 5.3 5.3 0 0 1-.5-.5 4.5 4.5 0 0 0 .4-2 6.5 6.5 0 0 0-1 .7V19a9.4 9.4 0 0 0-.4-1.3l.4-1.2a3.5 3.5 0 0 0-1.1.7l.3-.7a8.8 8.8 0 0 0-1.8 1.2 8.6 8.6 0 0 0-.7-2.2 7.7 7.7 0 0 0-.5 1.5 4.5 4.5 0 0 0-2-.6 7.5 7.5 0 0 0 .4.8 5.2 5.2 0 0 0-.9 0v-.3a1.9 1.9 0 0 0-.3.2 1.6 1.6 0 0 1-.5 0s.1.1.3.3a2.5 2.5 0 0 0-.1.3 5.5 5.5 0 0 0-1.4-.9 6.2 6.2 0 0 0 .5 1.9 4.5 4.5 0 0 0-.5-.2V18a1.7 1.7 0 0 0-.2.2 1.8 1.8 0 0 1-.4-.2l.2.5a2.8 2.8 0 0 0-.4.7 1.5 1.5 0 0 0 0-.3l-.3-1.6a4 4 0 0 0-.6 1c0-.8-.1-1.3-.2-1.3a5.5 5.5 0 0 0-.3.6 4.3 4.3 0 0 0-.6-.3 1.4 1.4 0 0 0 .1-.2 6.6 6.6 0 0 0 .6-.6l.8-.1a2.2 2.2 0 0 0-.7-.4h.4a5.3 5.3 0 0 0-1-.7 5.3 5.3 0 0 0 .9-1 4.9 4.9 0 0 0-1 .1 2.8 2.8 0 0 0-.2-1.3 4.2 4.2 0 0 0-.3.5 3.7 3.7 0 0 0-.3-.5h.2a1.5 1.5 0 0 0-.2-.1 1 1 0 0 1-.2-.3s0 0 0 .2a1.6 1.6 0 0 0-.2 0 3.3 3.3 0 0 0 0-1 3.8 3.8 0 0 0-.9.8 1.6 1.6 0 0 1 0-.5 4.1 4.1 0 0 0-.6.8c0-.2 0-.3-.2-.4a4.8 4.8 0 0 0-.3.5 1.9 1.9 0 0 1 0-.6s-.1.1-.3.3a2 2 0 0 0-.5 0l.6-.5a2.1 2.1 0 0 0-.8 0l.4-.3a5.3 5.3 0 0 0-1.3-.1 5.3 5.3 0 0 0 .5-1.4s-1.5.7-1.6 1.6a1.7 1.7 0 0 0-.2.2l-.1-.3.1-.6a2.3 2.3 0 0 0-.6.5 3.8 3.8 0 0 0 0-.8 4.6 4.6 0 0 0-.5.4v-.1a7.5 7.5 0 0 0-.4-.8c0-.5.2-.8.2-.8a2.2 2.2 0 0 0-.7.5l.2-.4a5.5 5.5 0 0 0-1 .8 5.3 5.3 0 0 0-.7-1.3 5.4 5.4 0 0 0-.1.8 2.3 2.3 0 0 0-.5.3V10a1.6 1.6 0 0 0-.2.2 5.5 5.5 0 0 1-.1-.9 4 4 0 0 0-.3.4 3.5 3.5 0 0 0-.5-.8 3.8 3.8 0 0 0-.3 1.1 1.5 1.5 0 0 1-.2-.4 4.6 4.6 0 0 0-.2 1l-.4-.3a4.4 4.4 0 0 0 0 .6l-.2-.3a2.8 2.8 0 0 0 .2-1.2 4 4 0 0 0-.6.4 1 1 0 0 0 0-.2 5.8 5.8 0 0 0-.3-.8l.3-.8a2.2 2.2 0 0 0-.7.5l.2-.4a5.2 5.2 0 0 0-1.1.7 5.3 5.3 0 0 0-.5-1.4 5 5 0 0 0-.3 1 2.7 2.7 0 0 0-1.3-.4 4.3 4.3 0 0 0 .3.5 2.4 2.4 0 0 0-.5 0v-.2l-.2.1a1.4 1.4 0 0 1-.3 0s0 0 .2.2a1 1 0 0 0-.1.2 3.3 3.3 0 0 0-1-.6 3.8 3.8 0 0 0 .4 1.2 3.3 3.3 0 0 0-.3-.1v-.3a1.8 1.8 0 0 0-.1.2.8.8 0 0 1-.2-.2s0 .2 0 .3a1.6 1.6 0 0 0-.2.5.9.9 0 0 0 0-.2l-.2-1a2.6 2.6 0 0 0-.3.6l-.1-.8a2.2 2.2 0 0 0-.4.8v-.5a5.4 5.4 0 0 0-.7 1.2 5.4 5.4 0 0 0-1-1s0 1.7.9 2a1.3 1.3 0 0 0 0 .4h-.2l-.5-.4a2.3 2.3 0 0 0 .2.7 4 4 0 0 0-.8-.2 4.7 4.7 0 0 0 .3.6 1.6 1.6 0 0 0-.2 0 6.7 6.7 0 0 0-.9 0l-.6-.4a2.2 2.2 0 0 0 .2.8l-.3-.3a5.6 5.6 0 0 0 .4 1.3 3.3 3.3 0 0 0-.5 0v-.7a2.2 2.2 0 0 0-.5.7v-.4a5.4 5.4 0 0 0-.3.4h-.2l.1.1a4.5 4.5 0 0 0-.3.6 5.3 5.3 0 0 0-1-1 4.6 4.6 0 0 0 .1.8 1.9 1.9 0 0 0-.3.5l-.3-.7v.3l-.5-.8a4.2 4.2 0 0 0-.1.5 3.6 3.6 0 0 0-.8-.6 3.7 3.7 0 0 0 .2 1.2 1.4 1.4 0 0 1-.4-.3 4.8 4.8 0 0 0 .1.7 1.5 1.5 0 0 0 0 .2H79a2.6 2.6 0 0 0 0 .2v.4a5 5 0 0 0-1-1s0 1.6.7 2a1 1 0 0 0 0 .3h-.3l-.4-.4a2.3 2.3 0 0 0 .1.7l-.4-.1a1.3 1.3 0 0 0 0-.2s0 0-.2 0v.1a3.4 3.4 0 0 0-.8.5 1.6 1.6 0 0 1 .2-.5 4.7 4.7 0 0 0-.6.4l-.4-.3a3.3 3.3 0 0 0-.3.5 2 2 0 0 1 0-.6s0 0-.3.2a2.4 2.4 0 0 0-.5-.2l.8-.2a2.4 2.4 0 0 0-.9-.3h.5s-1.7-1-2.6-.4a2.9 2.9 0 0 1 0-.3c0-.3.2-.5.2-.5a2.4 2.4 0 0 0-.7.3 3.8 3.8 0 0 0 .2-.8 4.5 4.5 0 0 0-.6.3 1.1 1.1 0 0 0 0-.2l-.2-1a4.2 4.2 0 0 0-.5 1V14a2.3 2.3 0 0 0-.5.6 4.1 4.1 0 0 0-.2-.7 4 4 0 0 0-.4.6c0-.2-.1-.2-.2-.3l.1-.6a2.4 2.4 0 0 0-.5.5 3.7 3.7 0 0 0-.1-.8 4.2 4.2 0 0 0-.5.5 1.7 1.7 0 0 0 0-.2l-.2-.2.2-.4a3.5 3.5 0 0 0-.3.1 1.5 1.5 0 0 1-.3-.4 4.3 4.3 0 0 0-.1.6h-.3a6 6 0 0 1-.3-.7s0 0-.2.3a2.5 2.5 0 0 0-.5.1l.5-.6s-1 0-1.2.6a3.9 3.9 0 0 0-.5-.7 4 4 0 0 0-.2 1.2 1.4 1.4 0 0 1-.3-.4 4.4 4.4 0 0 0-.1 1 5 5 0 0 0-.4-.3 4.2 4.2 0 0 0 0 .7 1.9 1.9 0 0 1-.3-.5s0 .2 0 .4a2.3 2.3 0 0 0-.5.2l.3-.6a2.2 2.2 0 0 0-.8.4l.2-.4a5.5 5.5 0 0 0-1 .6 5.3 5.3 0 0 0-.5-1.4s-.8 1.5-.3 2.2a1.5 1.5 0 0 0-.1.3 2.8 2.8 0 0 1-.3-.1L61 15a2.4 2.4 0 0 0-.2.7 3.3 3.3 0 0 0-.5-.7 4.5 4.5 0 0 0-.1.7H60a8 8 0 0 0-.7-.5l-.3-.8a2.2 2.2 0 0 0-.3.9l-.1-.5a5.3 5.3 0 0 0-.4 1.3 5 5 0 0 0-1.2-.7 4.7 4.7 0 0 0 .3.7 2 2 0 0 0-.2.5l-.4-.5a2 2 0 0 0 0 .2l-.7-.6v.5a3.4 3.4 0 0 0-.8-.4 3.7 3.7 0 0 0 .4 1 1.3 1.3 0 0 1-.5-.1 4.4 4.4 0 0 0 .5.9H55a4.1 4.1 0 0 0 .4.5 1.8 1.8 0 0 1-.6-.2 3.6 3.6 0 0 0 .2.3 2.2 2.2 0 0 0-.3.5V18l-.2.1-.3.4v-.2a3.8 3.8 0 0 0-.2.3 3 3 0 0 0-.1-.5l.4-.3a2.4 2.4 0 0 1-.8 0 5.4 5.4 0 0 0 .7-.5 5.5 5.5 0 0 0-.5-.2 6 6 0 0 0 1-.9 1.9 1.9 0 0 1-.6 0 5.1 5.1 0 0 0 1.1-1 4.1 4.1 0 0 0-1.3 0 2 2 0 0 0 0-.3l.3-.1a2 2 0 0 1-.4-.2 2.8 2.8 0 0 0 0-.3s0 0-.2.2a4 4 0 0 0-.6-.4 6.3 6.3 0 0 0 .6-.3 3.6 3.6 0 0 0-1.7-.5 6.6 6.6 0 0 0 .3-1.2 6.6 6.6 0 0 0-1.5 1.2 7.4 7.4 0 0 0-.8-1.5s0 0 0 .6a3 3 0 0 0-.5-1l-.2 1a7.7 7.7 0 0 0-1 .8v.2a5.4 5.4 0 0 0-.5-.9 4.9 4.9 0 0 0-.4 1 3 3 0 0 0-.5-.9l-.1.8-.3.3a2 2 0 0 0-.2-.4c.4-1-1-2.8-1-2.8a7.1 7.1 0 0 0-.2 2 7.1 7.1 0 0 0-1.7-.6s.1 0 .4.5a3 3 0 0 0-1-.4s.2.4.5.9a3.2 3.2 0 0 0-.7-.2l-.1-.5a2.6 2.6 0 0 1-.4.7 5.5 5.5 0 0 0-.1-.9 5.2 5.2 0 0 0-.4.4 6 6 0 0 0-.4-1.3 2 2 0 0 1-.3.7 5 5 0 0 0-.6-1.5 4.7 4.7 0 0 0-.4 1.2 6.2 6.2 0 0 0-.5-.5 7.5 7.5 0 0 1 0 1.2l-.3-.3v1a2.9 2.9 0 0 0-.6-.4 6.4 6.4 0 0 0-.3-1 6.8 6.8 0 0 0-.6 1.9 7.5 7.5 0 0 0-1.5-1s0 .1.3.6a3 3 0 0 0-1-.6s.2.4.4 1a7.5 7.5 0 0 0-.4 1.1v.2a5.6 5.6 0 0 0-.8-.5 5 5 0 0 0 .1 1 3.1 3.1 0 0 0-.8-.4s.1.3.3.8l-.2.3a1.5 1.5 0 0 0-.3-.2c-.2-1.1-2.3-1.8-2.3-1.8a7.2 7.2 0 0 0 .8 1.7 7 7 0 0 0-1.7.4l.6.2a3 3 0 0 0-1.1.3s.4.1 1 .4a3.2 3.2 0 0 0-.8.1l-.4-.3a2.6 2.6 0 0 1 0 .8 5.7 5.7 0 0 0-.4-.7 5.2 5.2 0 0 0-.2.6 5.9 5.9 0 0 0-1-.9 1.9 1.9 0 0 1 .1.7 5.2 5.2 0 0 0-1.3-1 5.1 5.1 0 0 0 .2 1.1c-.7-.4-1.7.5-1.8.6h1a3.3 3.3 0 0 0-.6.5l-.4-.3a7.7 7.7 0 0 1 .4 1.2h-.4a6.2 6.2 0 0 0-.6-.4 2 2 0 0 1 .1.7 4.8 4.8 0 0 0-.5.3l.6.1v.3l.2.2a5.4 5.4 0 0 0-1 0 4.6 4.6 0 0 0 .7.8 3.4 3.4 0 0 0-1 0s.3.2.6.5l.1.5a5.4 5.4 0 0 0-.9-.2 5.2 5.2 0 0 0 .4 1 3 3 0 0 0-1-.3s.2.2.5.6a6 6 0 0 0-1.3-.5L23 24l.2.2a5 5 0 0 0-1 .2 4.6 4.6 0 0 0 1 .6 3 3 0 0 0-1 .3s.3.1.8.3l.1.4c-1.4.3-2.2 2.6-2.2 2.6l.5-.3a3 3 0 0 0-.5 1s.3-.1.9-.4a3.1 3.1 0 0 0-.3.7H21a2.8 2.8 0 0 1 .6.5 5.6 5.6 0 0 0-.9 0l.4.5a6 6 0 0 0-1.4.1 1.9 1.9 0 0 1 .6.4 5 5 0 0 0-1.6.3 4.8 4.8 0 0 0 1 .6 6.8 6.8 0 0 0-.9 0 7 7 0 0 0 1.5 1.3 7.3 7.3 0 0 0-1.5 1h.6a3 3 0 0 0-1 .6s.5 0 1.2 0a8 8 0 0 0 .8.8 2 2 0 0 0 .2.2 5.6 5.6 0 0 0-.8.5 5.3 5.3 0 0 0 1 .3 3.3 3.3 0 0 0-.7.5s.3 0 .8 0l.2.3a2.2 2.2 0 0 0-.3.3c-1.1-.3-2.6 1.4-2.6 1.4a7 7 0 0 0 1.9-.1 6.2 6.2 0 0 0-.2.9c-.4.8-.7 2-.2 2.8a2.2 2.2 0 0 0-.2.4c-.2 0-.3 0-.4-.2l-.4-.9a3.8 3.8 0 0 0-.3 1.1 5.8 5.8 0 0 0-.7-1 6.8 6.8 0 0 0-.3 1 2.4 2.4 0 0 0-.3 0 7.5 7.5 0 0 0-1.2-.7l-.4-1.3a3.5 3.5 0 0 0-.4 1.4l-.2-.8a8.6 8.6 0 0 0-.6 2 8.3 8.3 0 0 0-2-1 7.5 7.5 0 0 0 .4 1 3.2 3.2 0 0 0-.2 1l-.7-1a3 3 0 0 0 0 .5c-.6-.6-.8-.6-1-1a7.2 7.2 0 0 0 0 .7 5.5 5.5 0 0 0-1.4-.6 6 6 0 0 0 .6 1.8 2.4 2.4 0 0 1-.7-.4 7 7 0 0 0 .7 1.5 8 8 0 0 0-.7 0 6.4 6.4 0 0 0 .6.8 3.1 3.1 0 0 1-1-.3s.2.2.3.5a3.5 3.5 0 0 0-.4.8 28 28 0 0 1-.2-1.2 3.6 3.6 0 0 0-.6 1.2v-.8a8.8 8.8 0 0 0-1.1 1.8 8.2 8.2 0 0 0-1.7-1.5s0 2.6 1.4 3.3a2 2 0 0 0 0 .4h-.4a23 23 0 0 1-.8-.5 3.7 3.7 0 0 0 .3 1.1 6.3 6.3 0 0 0-1.2-.5 6.7 6.7 0 0 0 .4 1 1.9 1.9 0 0 0-.3 0 9.7 9.7 0 0 0-1.4.1l-1-.8a3.5 3.5 0 0 0 .3 1.3l-.5-.5a8.6 8.6 0 0 0 .5 2 8.5 8.5 0 0 0-2.3.1 8 8 0 0 0 1.3 1 4.4 4.4 0 0 0-1.1 1.7 5.2 5.2 0 0 0 .8-.2 5.1 5.1 0 0 0-.3.8H.7l.1.3a1.8 1.8 0 0 1-.2.5s.2-.1.4-.2a1.9 1.9 0 0 0 .2.2 5.3 5.3 0 0 0-1.2 1 6 6 0 0 0 2 .1 2.5 2.5 0 0 1-.7.6 7.6 7.6 0 0 0 1.6-.1 5.5 5.5 0 0 0-.2.6 6.7 6.7 0 0 0 1-.2 3 3 0 0 1-.7.7s.3 0 .6 0a3.7 3.7 0 0 0 .6.7 41 41 0 0 1-1.2-.3 3.5 3.5 0 0 0 .8 1l-.7-.2a8.7 8.7 0 0 0 1.3 1.6 8 8 0 0 0-2 1s2.4 1 3.5 0a1.7 1.7 0 0 0 .5 0c0 .3-.1.4-.2.5l-.8.5a3.6 3.6 0 0 0 1.1.2 6.4 6.4 0 0 0-.8.9 6.4 6.4 0 0 0 1 0 2.4 2.4 0 0 0 0 .3 9.6 9.6 0 0 0-.5 1.3l-1.2.7a3.7 3.7 0 0 0 1.4.1l-.7.4a8.8 8.8 0 0 0 2.1.2 8.6 8.6 0 0 0-.8 2.2 8 8 0 0 0 1.1-.7 3.1 3.1 0 0 0 1 .1l-.9.9a2.6 2.6 0 0 0 .5 0c-.6.6-.5.7-1 1.1a7.4 7.4 0 0 0 .9-.1 5.3 5.3 0 0 0-.5 1.5 6.2 6.2 0 0 0 1.7-1 2.2 2.2 0 0 1-.2.8 7 7 0 0 0 1.3-1 6.8 6.8 0 0 0 .1.7 6.3 6.3 0 0 0 .7-.7 6 6 0 0 1 0 .7A4.7 4.7 0 0 0 10 76a7 7 0 0 0 1 .2v.3a9.1 9.1 0 0 0-.6 1.2l-1.2.6a3.5 3.5 0 0 0 1.3.3l-.7.2a8.6 8.6 0 0 0 2 .5 8.2 8.2 0 0 0-1 2 7.6 7.6 0 0 0 1.4-.6 4.4 4.4 0 0 0 1 1.8 6.7 6.7 0 0 0 .3-.8 5 5 0 0 0 .6.6l-.2.2h.4a1.6 1.6 0 0 1 .3.4s0-.2 0-.5a2.4 2.4 0 0 0 .3 0 5.3 5.3 0 0 0 .4 1.5 6.4 6.4 0 0 0-.7 0 4.9 4.9 0 0 0 .8.6 2.7 2.7 0 0 0-.8 1 4.8 4.8 0 0 0 .6 0 3 3 0 0 0-.2.5 1.1 1.1 0 0 1-.2 0 1.3 1.3 0 0 0 .1.1 1.2 1.2 0 0 1-.1.3s0 0 .2 0h.2a3.2 3.2 0 0 0-.8.7 3.8 3.8 0 0 0 1.2 0 1.5 1.5 0 0 1-.4.4 4.6 4.6 0 0 0 1 0l-.2.4a4.3 4.3 0 0 0 .6-.1 2.1 2.1 0 0 1-.4.4 2.8 2.8 0 0 0 .4 0 2.2 2.2 0 0 0 .3.4c-.4 0-.7-.2-.7-.2a2.3 2.3 0 0 0 .5.7l-.4-.2A5.7 5.7 0 0 0 17 90a5 5 0 0 0-1.4.5s1.6.7 2.3.1a1.5 1.5 0 0 0 .2 0v.3l-.6.3a2.4 2.4 0 0 0 .7.2 3.8 3.8 0 0 0-.5.5 3.9 3.9 0 0 0 .6 0 1.5 1.5 0 0 0 0 .2 5.4 5.4 0 0 0-.3.8l-.8.4a2.2 2.2 0 0 0 .9.1l-.4.2a5.6 5.6 0 0 0 1.3.2 5.1 5.1 0 0 0-.6 1.3 4.5 4.5 0 0 0 .8-.4 1.8 1.8 0 0 0 .6.1l-.3.3a2.2 2.2 0 0 0 .8 0 1.2 1.2 0 0 1-.3.2 4.4 4.4 0 0 0 1 0 4.7 4.7 0 0 0-.3.6 3.8 3.8 0 0 0 1-.4 1.5 1.5 0 0 1-.1.5 4.2 4.2 0 0 0 .9-.5v.5a3.4 3.4 0 0 0 .3-.3v.3a3 3 0 0 0-1 .5 5.2 5.2 0 0 0 .6.3.8.8 0 0 0-.1.1 5.7 5.7 0 0 0-.5.7l-.8.2a2.2 2.2 0 0 0 .8.3 9 9 0 0 1-.5.1 5.5 5.5 0 0 0 1.2.5 5.1 5.1 0 0 0-.8 1.2 5 5 0 0 0 .9-.3 2.8 2.8 0 0 0 .5 1.2 4.1 4.1 0 0 0 .2-.4 3 3 0 0 0 .3.4l-.2.1a1 1 0 0 0 .3 0 1.2 1.2 0 0 1 .1.3v-.3h.3a3.3 3.3 0 0 0 0 1 3.7 3.7 0 0 0 .8-.9 3.4 3.4 0 0 0 0 .3l-.1.2a1.9 1.9 0 0 0 .2 0 1.4 1.4 0 0 1 0 .2l.2-.2a1.7 1.7 0 0 0 .5 0 .6.6 0 0 0-.2 0l-.7.8a2.2 2.2 0 0 0 .7 0l-.5.5a2.2 2.2 0 0 0 .8-.2l-.3.3a5.3 5.3 0 0 0 1.2-.1 5.3 5.3 0 0 0-.1 1.4s1.3-1 1.1-2a1.2 1.2 0 0 0 .2-.2 2 2 0 0 1 .2.2v.7a2.4 2.4 0 0 0 .5-.6 3.8 3.8 0 0 0 .2.7 4 4 0 0 0 .4-.5 1 1 0 0 0 0 .1 6.7 6.7 0 0 0 .6.7v.8a2.3 2.3 0 0 0 .5-.7v.5a5.4 5.4 0 0 0 .8-1 5.5 5.5 0 0 0 .9 1 4.6 4.6 0 0 0 0-.6 3.4 3.4 0 0 0 .4.7 3.8 3.8 0 0 0 .3-1.1 1.5 1.5 0 0 1 .3.4 4.2 4.2 0 0 0 .1-1l.4.3a4.4 4.4 0 0 0 0-.7 2 2 0 0 1 .3.5s0-.1 0-.3a2.3 2.3 0 0 0 .6-.3l-.4.7a2.2 2.2 0 0 0 .8-.4l-.3.4a5.4 5.4 0 0 0 .7-.2 6.4 6.4 0 0 0-.2.6s0 0 .4-.3a2 2 0 0 0-.3.9l.6-.5a2.3 2.3 0 0 0-.1.6h-.4a6.3 6.3 0 0 1 .8.5 4 4 0 0 0-1 .3 3.3 3.3 0 0 0 .8.4 4.2 4.2 0 0 0-.4.4 3.6 3.6 0 0 1 .8 0 2.3 2.3 0 0 0-.6.5s.3 0 .6 0a2.7 2.7 0 0 0-.3.4 5.6 5.6 0 0 0-.5.1 5.5 5.5 0 0 0 1 .5 6.4 6.4 0 0 0-.5.6s0 0 .6-.2a2.3 2.3 0 0 0-.3.5s.1 0 .4-.1v.2a4.1 4.1 0 0 0-1.6.5 5 5 0 0 0 1.4.4 5.6 5.6 0 0 0-.6 1.1 4 4 0 0 1 .4-.2 2.3 2.3 0 0 0-.5.8s.4-.2.8-.4a5 5 0 0 0 .8.3 1 1 0 0 0 .2 0 4 4 0 0 0-.4.6 4 4 0 0 0 .8-.1 2.4 2.4 0 0 0-.3.6s.2 0 .5-.2l.3.1a1 1 0 0 0-.1.3c-.9.2-1.4 1.8-1.4 1.8a5.6 5.6 0 0 0 1.3-.7 5.4 5.4 0 0 0 .3 1.3s0-.1.2-.5a2.2 2.2 0 0 0 .2.8s.1-.3.3-.7a2.4 2.4 0 0 0 .2.7s.2-.4.4-1a.8.8 0 0 0 0-.2 1.9 1.9 0 0 0 .2.5 3 3 0 0 0-.2.3 1 1 0 0 1 .3-.1v.2l.1-.2.4-.1a3.8 3.8 0 0 0-.6 1 3.6 3.6 0 0 0 1-.3v.2l-.2.2a1.2 1.2 0 0 1 .3 0 1.6 1.6 0 0 0 .1.2s0 0 0-.1a4.1 4.1 0 0 0 .6 0 5.3 5.3 0 0 0-.3.4 2.7 2.7 0 0 0 1.3 0 5 5 0 0 0 0 1 5.5 5.5 0 0 0 .8-1.3 5.6 5.6 0 0 0 1 1s0-.1-.1-.5a2.3 2.3 0 0 0 .6.6s0-.3-.1-.8a6.8 6.8 0 0 0 .4-.8 1.2 1.2 0 0 0 .1-.1 5.5 5.5 0 0 0 .5.5 3.1 3.1 0 0 0 0-1.2 3.6 3.6 0 0 0 .6-.4 4.5 4.5 0 0 0 .2.7 3.8 3.8 0 0 0 .2-.4 4.6 4.6 0 0 0 .5.9 1.4 1.4 0 0 1 .1-.5 3.8 3.8 0 0 0 .7 1 4 4 0 0 0 .2-.7 4.6 4.6 0 0 0 .7.6 1.3 1.3 0 0 1-.1-.4 2.2 2.2 0 0 0 .6.5s0-.2 0-.4a2.2 2.2 0 0 0 .7.3s0-.1-.2-.4a3.1 3.1 0 0 0 .5.2 4.6 4.6 0 0 0 .4.5 6.7 6.7 0 0 0 0-.8 5.3 5.3 0 0 0 1 .5s0 0-.2-.4a2.3 2.3 0 0 0 .7.4s0-.3-.2-.6a3 3 0 0 0 0-.6 1 1 0 0 0 0-.2 4 4 0 0 0 .6.2 3.9 3.9 0 0 0-.3-.7 2.3 2.3 0 0 0 .7.1l-.4-.4v-.3a.8.8 0 0 0 .3 0 4 4 0 0 0 1.7.4 8 8 0 0 0-.6-.6 5.5 5.5 0 0 0 1.1-.7s0 0-.4 0a2.2 2.2 0 0 0 .7-.5s-.3 0-.8 0a2.2 2.2 0 0 0 .5-.3l.4.1a1.9 1.9 0 0 1-.3-.5 3.8 3.8 0 0 0 .6.3v-.4a4.2 4.2 0 0 0 .9.4 1.4 1.4 0 0 1-.3-.5 4 4 0 0 0 1.2.4 3.2 3.2 0 0 0-.5-1 1.4 1.4 0 0 1 .2 0l.2.2a1.4 1.4 0 0 1 0-.3l.1-.2H58a3 3 0 0 0 0-.5 4 4 0 0 0 .4.3 2.8 2.8 0 0 0-.3-1.3 5.2 5.2 0 0 0 1-.3 5.2 5.2 0 0 0-1.4-.5 5.4 5.4 0 0 0 .8-1.1s0 0-.4.2a2.3 2.3 0 0 0 .5-.7s-.4 0-.8.2l-.5-.2a3.9 3.9 0 0 0 .7-.8 4 4 0 0 0-.8 0 2.3 2.3 0 0 0 .5-.6s-.3 0-.6.2l-.3-.2a1.7 1.7 0 0 0 .2-.2c.9 0 1.6-1.6 1.6-1.6a5.2 5.2 0 0 0-1.4.5 5.6 5.6 0 0 0-.1-1.3s0 0-.2.4a2.3 2.3 0 0 0-.1-.9s-.2.3-.4.7a2.4 2.4 0 0 0 0-.6l.2-.2a1.7 1.7 0 0 1-.6 0 4 4 0 0 0 .6-.4l-.4-.1a4.7 4.7 0 0 0 .7-.7 1.4 1.4 0 0 1-.5 0 3.8 3.8 0 0 0 .8-.9 3.4 3.4 0 0 0-1 0 5 5 0 0 0 .3-.4l-.9.4.1-.3-.6.3a2.1 2.1 0 0 0 0-.5 4.1 4.1 0 0 0 .6-.6 5.2 5.2 0 0 0-1.4.2 5.6 5.6 0 0 0 .2-1.3 4.7 4.7 0 0 1-.4.3 2.2 2.2 0 0 0 .2-.8l-.6.6a5.3 5.3 0 0 0-.9 0 .7.7 0 0 0-.2 0 4.5 4.5 0 0 0 .1-.6 3.8 3.8 0 0 0-.6.4 2.3 2.3 0 0 0 0-.7s-.1.2-.4.4h-.3a1.4 1.4 0 0 0 0-.3c.8-.5.6-2.1.6-2.1a5.5 5.5 0 0 0-.9 1 5.6 5.6 0 0 0-.8-1s0 .1 0 .7a2 2 0 0 0-1-.5s.3.3.5.7a2.4 2.4 0 0 0-.5-.2l-.1-.4a1.9 1.9 0 0 1-.4.5 4.2 4.2 0 0 0 0-.6 3.3 3.3 0 0 0-.3.2 4.3 4.3 0 0 0-.2-1 1.2 1.2 0 0 1-.2.5 3.8 3.8 0 0 0-.4-1.2 3.7 3.7 0 0 0-.4.7c-.2-.5-1.3-.4-1.3-.4l.6.5a2.5 2.5 0 0 0-.6 0l-.1-.4a3.3 3.3 0 0 0-.3-.4h.1a6 6 0 0 0 .9-.3l.7.3a2.3 2.3 0 0 0-.4-.7l.4.2a5 5 0 0 0-.6-1.1 5.4 5.4 0 0 0 1.3-.4h.1a2.7 2.7 0 0 0 .5 1.2 3.8 3.8 0 0 0 .2-.5 2.9 2.9 0 0 0 .3.5h-.2a1.4 1.4 0 0 0 .3 0 1.3 1.3 0 0 1 .1.4v-.3a1 1 0 0 0 .3 0 3.3 3.3 0 0 0 0 1 3.8 3.8 0 0 0 .8-1 3.2 3.2 0 0 0 0 .4l-.1.1a1.2 1.2 0 0 0 .2 0 1.3 1.3 0 0 1 0 .3 2.2 2.2 0 0 0 .2-.2 1.7 1.7 0 0 0 .5-.1 1.2 1.2 0 0 0-.2.1l-.7.7a2.2 2.2 0 0 0 .7 0l-.5.5a2.2 2.2 0 0 0 .8-.1 4.6 4.6 0 0 1-.3.3 5.5 5.5 0 0 0 1.2-.2 5.3 5.3 0 0 0-.1 1.4s1.3-1 1.1-1.9a1.3 1.3 0 0 0 .2-.2l.2.2v.6a2.3 2.3 0 0 0 .5-.6 3.4 3.4 0 0 0 .2.8 4.2 4.2 0 0 0 .4-.6 1 1 0 0 0 0 .2 5.7 5.7 0 0 0 .6.6v.9a2.1 2.1 0 0 0 .5-.7 4.4 4.4 0 0 1 0 .4 5.5 5.5 0 0 0 .8-1 5.1 5.1 0 0 0 .9 1 5 5 0 0 0 0-.5 3.6 3.6 0 0 0 .4.7 3.8 3.8 0 0 0 .3-1.2 1.5 1.5 0 0 1 .3.5 4.3 4.3 0 0 0 .1-1 4.3 4.3 0 0 0 .4.2 4.3 4.3 0 0 0 0-.6 2 2 0 0 1 .3.5s0-.2 0-.4a3 3 0 0 0 .6-.2l-.4.7a2.3 2.3 0 0 0 .8-.4l-.2.4s1.7-.6 2-1.6l.3.1.2.6a2.4 2.4 0 0 0 .2-.7 3.7 3.7 0 0 0 .4.7 4.4 4.4 0 0 0 .2-.7 1.2 1.2 0 0 0 .2.1l.9.6a4.1 4.1 0 0 0-.4-1l.5.4a2.4 2.4 0 0 0-.2-.7 4.7 4.7 0 0 0 .7.3 4 4 0 0 0-.2-.7h.4l.4.6a2.3 2.3 0 0 0 0-.7 3.6 3.6 0 0 0 .5.4v.2l.4-.3a2.2 2.2 0 0 0-.3.8l.6-.5a2.6 2.6 0 0 0-.1.6h-.4l.8.5a4 4 0 0 0-1 .3 3.8 3.8 0 0 0 .8.5 4.5 4.5 0 0 0-.4.3 4 4 0 0 1 .8 0 2.3 2.3 0 0 0-.6.5s.3 0 .6 0a2.3 2.3 0 0 0-.3.4 4.9 4.9 0 0 0-.5.2 6 6 0 0 0 1 .4 6.4 6.4 0 0 0-.5.6s0 0 .6-.2a2.7 2.7 0 0 0-.3.5s.1 0 .4 0v.1a4.1 4.1 0 0 0-1.6.5 5.5 5.5 0 0 0 1.4.4 5.2 5.2 0 0 0-.6 1.1s0 0 .4-.2a2.3 2.3 0 0 0-.5.8s.4-.2.8-.3a5.9 5.9 0 0 0 .8.2.9.9 0 0 0 .2 0 4.2 4.2 0 0 0-.4.7 3.9 3.9 0 0 0 .8-.2 2.2 2.2 0 0 0-.3.7s.2-.1.5-.3a2.7 2.7 0 0 1 .3.1 1.5 1.5 0 0 0-.1.3c-.9.2-1.4 1.8-1.4 1.8a5.2 5.2 0 0 0 1.3-.7 5.4 5.4 0 0 0 .3 1.3s0 0 .2-.5a2.3 2.3 0 0 0 .2.9s.1-.3.3-.7a2.3 2.3 0 0 0 .2.6s.1-.4.4-1a1.3 1.3 0 0 0 0-.1 1.9 1.9 0 0 0 .2.5l-.2.2a1.3 1.3 0 0 1 .3 0 1 1 0 0 0 0 .1l.1-.2a2 2 0 0 0 .4 0 3.8 3.8 0 0 0-.6 1 2.9 2.9 0 0 0 1-.3v.1l-.2.2a1.2 1.2 0 0 1 .3 0 1.6 1.6 0 0 0 .1.2s0 0 0-.1a5 5 0 0 0 .6 0 4.3 4.3 0 0 0-.3.5 2.9 2.9 0 0 0 1.3 0 4.9 4.9 0 0 0 0 .9 5.3 5.3 0 0 0 .8-1.3 5.5 5.5 0 0 0 1 1s0 0-.1-.5a2.3 2.3 0 0 0 .6.6s0-.3-.1-.8a7.1 7.1 0 0 0 .4-.7v-.2a4.6 4.6 0 0 0 .6.5 3.2 3.2 0 0 0 0-1.1 3.5 3.5 0 0 0 .6-.5 4.5 4.5 0 0 0 .2.7l.2-.3a4.7 4.7 0 0 0 .5.8 1.4 1.4 0 0 1 .1-.5 3.8 3.8 0 0 0 .7 1 3.8 3.8 0 0 0 .2-.6 4.4 4.4 0 0 0 .7.5 1.3 1.3 0 0 1-.1-.4 2.3 2.3 0 0 0 .6.5s0-.1 0-.4a2.3 2.3 0 0 0 .7.3s0-.1-.2-.3a2.5 2.5 0 0 0 .5.1 5.6 5.6 0 0 0 .4.5 7.6 7.6 0 0 0 0-.8 5.4 5.4 0 0 0 1 .5s0 0-.2-.4a2.3 2.3 0 0 0 .7.4s0-.2-.2-.6a3.1 3.1 0 0 0 0-.6 1.6 1.6 0 0 0 0-.2 3.9 3.9 0 0 0 .6.2 4.2 4.2 0 0 0-.3-.7 2.4 2.4 0 0 0 .7.2l-.4-.5v-.3a1.5 1.5 0 0 0 .3 0 2.4 2.4 0 0 0 .6.3 3.4 3.4 0 0 0 .9.4 3.6 3.6 0 0 0-.4.4 3.6 3.6 0 0 1 .8 0 2.3 2.3 0 0 0-.6.5s.2 0 .6 0a3 3 0 0 0-.3.4 4 4 0 0 0-.6.1 5.9 5.9 0 0 0 1 .5 5.7 5.7 0 0 0-.4.6s0 0 .5-.2a3 3 0 0 0-.3.5s.2 0 .4-.1l.1.2a4 4 0 0 0-1.6.5 5 5 0 0 0 1.4.4 5.7 5.7 0 0 0-.7 1.1s0 0 .4-.2a2.3 2.3 0 0 0-.4.7s.3-.1.8-.3a5.6 5.6 0 0 0 .8.3 1 1 0 0 0 .2 0 4.2 4.2 0 0 0-.4.6 3.9 3.9 0 0 0 .8-.1 2.2 2.2 0 0 0-.4.6s.2 0 .6-.2h.3a1.1 1.1 0 0 0-.2.4c-.8.1-1.3 1.8-1.3 1.8a6 6 0 0 0 1.3-.7 5.4 5.4 0 0 0 .3 1.2s0 0 .1-.4a2.2 2.2 0 0 0 .3.8s0-.3.2-.7a2.6 2.6 0 0 0 .3.7s.1-.4.3-1a1.8 1.8 0 0 0 .1-.2 2 2 0 0 0 .1.5l-.1.3a.8.8 0 0 1 .2-.1l.1.2v-.2l.4-.1a3.8 3.8 0 0 0-.6 1 3.4 3.4 0 0 0 1-.3v.2l-.2.2a1 1 0 0 1 .4 0 2 2 0 0 0 0 .2l.1-.2a2.8 2.8 0 0 0 .6.1 3.8 3.8 0 0 0-.4.4 2.8 2.8 0 0 0 1.3 0 5 5 0 0 0 .1 1 5.2 5.2 0 0 0 .8-1.3 5.4 5.4 0 0 0 1 1s-.1-.1-.2-.5a2.2 2.2 0 0 0 .6.6s0-.4 0-.8a7.5 7.5 0 0 0 .4-.8v-.1a5 5 0 0 0 .5.5 3.2 3.2 0 0 0 0-1.2 3.2 3.2 0 0 0 .6-.4 4.4 4.4 0 0 0 .3.7l.2-.4a4.3 4.3 0 0 0 .5.9 1.4 1.4 0 0 1 0-.5 3.8 3.8 0 0 0 .8 1 4 4 0 0 0 .1-.7 4.3 4.3 0 0 0 .7.6 1 1 0 0 1 0-.4 2.2 2.2 0 0 0 .6.5s0-.2-.1-.4a2.2 2.2 0 0 0 .8.3s-.1-.2-.3-.4a2.6 2.6 0 0 0 .5.2 4.7 4.7 0 0 0 .4.5 6.5 6.5 0 0 0 0-.8 5.6 5.6 0 0 0 1 .5s0 0-.2-.4a2.3 2.3 0 0 0 .8.4s-.1-.3-.3-.6a3.2 3.2 0 0 0 0-.6.6.6 0 0 0 0-.2 4 4 0 0 0 .7.2 3.7 3.7 0 0 0-.4-.7 2.3 2.3 0 0 0 .8.1l-.4-.5v-.2a1.6 1.6 0 0 0 .2 0 3.9 3.9 0 0 0 1.7.4 6.6 6.6 0 0 0-.5-.6 5.6 5.6 0 0 0 1-.7s0 0-.4 0a2.2 2.2 0 0 0 .8-.5s-.4 0-.8 0a2.4 2.4 0 0 0 .5-.4l.3.2a1.8 1.8 0 0 1-.2-.6 4.3 4.3 0 0 0 .5.4 3.8 3.8 0 0 0 0-.5 4.3 4.3 0 0 0 1 .5 1.2 1.2 0 0 1-.3-.5 3.7 3.7 0 0 0 1.1.4 3.4 3.4 0 0 0-.5-1h.2l.2.2a1 1 0 0 1 0-.3l.2-.2h-.2a2.9 2.9 0 0 0 0-.5 4.2 4.2 0 0 0 .5.3 2.8 2.8 0 0 0-.3-1.3 4.7 4.7 0 0 0 1-.3 5.5 5.5 0 0 0-1.4-.5 5.4 5.4 0 0 0 .8-1.1 4 4 0 0 1-.5.2 1.8 1.8 0 0 0 .4-.5l.4.4v.9a2.2 2.2 0 0 0 .5-.7v.4a5.4 5.4 0 0 0 .7-1 5.3 5.3 0 0 0 1 1.1 5.7 5.7 0 0 0 0-.6 3.5 3.5 0 0 0 .4.7 3.7 3.7 0 0 0 .3-1.2 1.4 1.4 0 0 1 .2.5 4.3 4.3 0 0 0 .2-1l.3.2a4.4 4.4 0 0 0 0-.6 1.9 1.9 0 0 1 .4.5 3.5 3.5 0 0 0 0-.4 2.2 2.2 0 0 0 .5-.2l-.3.7a2.2 2.2 0 0 0 .7-.4l-.2.4s1.8-.6 2-1.6l.3.1.2.6a2.3 2.3 0 0 0 .3-.7 3.9 3.9 0 0 0 .4.7 4 4 0 0 0 .2-.7l.1.2 1 .5a4.2 4.2 0 0 0-.4-1l.4.4a2.4 2.4 0 0 0-.1-.7 3.7 3.7 0 0 0 .7.3 4.1 4.1 0 0 0-.2-.7h.4l.3.6a2.3 2.3 0 0 0 0-.7 3.8 3.8 0 0 0 .6.5 3.9 3.9 0 0 0 0-.7 1 1 0 0 0 .2 0 1.3 1.3 0 0 0 .2.1l.1.4a3.6 3.6 0 0 0 .2-.3 1.2 1.2 0 0 1 .5.1 4.4 4.4 0 0 0-.3-.5 2 2 0 0 0 .1-.3 5.7 5.7 0 0 1 .8.4s0-.2 0-.4a2.3 2.3 0 0 0 .2-.4v.8s.8-.8.5-1.3a3.2 3.2 0 0 0 .8.1 3.8 3.8 0 0 0-.6-1 1.7 1.7 0 0 1 .5.1 4.6 4.6 0 0 0-.7-.8 2.4 2.4 0 0 0 .5 0 3.8 3.8 0 0 0-.5-.5 2 2 0 0 1 .6.1s-.1-.1-.3-.3a2.3 2.3 0 0 0 .2-.5l.3.7a2.1 2.1 0 0 0 .2-.8l.1.4a5.1 5.1 0 0 0 .4-1.2 5.2 5.2 0 0 0 1.2.7s-.4-1.6-1.3-1.8a1 1 0 0 0-.1-.3l.3-.1.5.3a2.3 2.3 0 0 0-.3-.7 4.1 4.1 0 0 0 .8.1 4.2 4.2 0 0 0-.4-.6h.2a6.7 6.7 0 0 0 .8-.2l.8.3a2.2 2.2 0 0 0-.5-.7l.5.2a5 5 0 0 0-.7-1.2 5.2 5.2 0 0 0 1.4-.3 4.8 4.8 0 0 0-.7-.4 2.1 2.1 0 0 0-.3-.4h.2l.1.4.2-.4h.2v-.1a3.5 3.5 0 0 1 .8 0s-.2-.2-.4-.4a3.6 3.6 0 0 0 .7-.2 8.2 8.2 0 0 0 .7.5s0 0-.1-.6a3 3 0 0 0 .8.8s0-.4-.2-1a3.2 3.2 0 0 0 .6.4 4.6 4.6 0 0 0 0 .5 2.8 2.8 0 0 1 .5-.5 5.4 5.4 0 0 0-.2.9l.5-.3a5.9 5.9 0 0 0-.1 1.4 1.8 1.8 0 0 1 .5-.5 5 5 0 0 0 0 1.6 4.2 4.2 0 0 0 1-1 1 1 0 0 0 .1.2l-.2.3a1.7 1.7 0 0 1 .4-.1 2.2 2.2 0 0 0 .3.1s0 0 0-.2a3.6 3.6 0 0 0 .6-.2 5 5 0 0 0-.2.7 3.7 3.7 0 0 0 1.5-.9 6.2 6.2 0 0 0 .8 1.1 7 7 0 0 0 .1-1.9 7.2 7.2 0 0 0 1.7.6s0-.1-.4-.5a2.8 2.8 0 0 0 1 .3l-.6-.9a8.7 8.7 0 0 0 .1-1.1v-.3a5.6 5.6 0 0 0 1 .3 5.2 5.2 0 0 0-.5-1 3.1 3.1 0 0 0 1 .3l-.5-.6v-.4a2 2 0 0 0 .4 0c.5 1.2 2.7 1.3 2.7 1.3a7.4 7.4 0 0 0-1.2-1.4 7.1 7.1 0 0 0 1.5-.8s0 0-.6 0a3.1 3.1 0 0 0 1-.6s-.4 0-1-.2a3.2 3.2 0 0 0 .7-.3l.4.2a2.6 2.6 0 0 1-.2-.7 5.7 5.7 0 0 0 .7.5v-.6a5.7 5.7 0 0 0 1.2.6 1.9 1.9 0 0 1-.3-.6 5 5 0 0 0 1.5.6 4.4 4.4 0 0 0-.5-1.1h.7l-1-.9a3.9 3.9 0 0 0 .5 0s-.3-.3-.8-.7a2.5 2.5 0 0 0 .8-.1 6.5 6.5 0 0 0 1 .4 7 7 0 0 0-1-1.7 7.5 7.5 0 0 0 1.8-.4s-.1 0-.6-.2a3.2 3.2 0 0 0 1-.3s-.3-.1-1-.4a8.4 8.4 0 0 0-.4-1 1.7 1.7 0 0 0-.2-.2 5.4 5.4 0 0 0 1-.2 5.9 5.9 0 0 0-.9-.7 3 3 0 0 0 1-.2s-.3-.1-.8-.3a3.6 3.6 0 0 1-.1-.4 2.1 2.1 0 0 0 .3-.1c1 .6 3-.4 3-.4a7.1 7.1 0 0 0-1.8-.5 6.8 6.8 0 0 0 .9-1.5l-.6.2a3 3 0 0 0 .6-1s-.3.2-1 .4a3.1 3.1 0 0 0 .5-.6h.5a2.3 2.3 0 0 1-.6-.6 6.6 6.6 0 0 0 .8.1 5.1 5.1 0 0 0-.3-.5 5.9 5.9 0 0 0 1.4 0Zm-.4-1.6ZM47.2 93.4Zm89.6-45.6a1.6 1.6 0 0 0 .2 0v.3a2.4 2.4 0 0 0-.2-.3Zm-.3 0Zm0 .7-.1.2a1.3 1.3 0 0 0 0 .2 2 2 0 0 0-.4-.5l.4.1ZM126 86l.2-.1h-.2Zm-37.7 7.2.1-.2h.3a1.7 1.7 0 0 0-.4.2Zm-15-12.6h-.2a3.5 3.5 0 0 0-.5-.2 2.1 2.1 0 0 0-.3-.4h.8l-.2-.2h.9a6.1 6.1 0 0 0-.5.8ZM52.6 59a5.5 5.5 0 0 0-.7.2 5.3 5.3 0 0 0 .1-.7 3.3 3.3 0 0 0 .8 0v.3h-.4a.8.8 0 0 1 .2.2ZM49 67.6a2 2 0 0 0 .1.5 5 5 0 0 0-.4-.4h.3Zm3-9.6a1.7 1.7 0 0 1 .1-.3s-.1.1-.4.3a2.5 2.5 0 0 0-.2-.2 4.5 4.5 0 0 0 .4-.4.6.6 0 0 1 .1 0v.3l.2-.2a3.6 3.6 0 0 0 .5 0 3.3 3.3 0 0 0-.6.5Zm-1.7-2.7Zm.3-2.7.2-.1a3.8 3.8 0 0 0 .4 0 2.6 2.6 0 0 0-.4.3l-.2-.2Zm1.5 3.9Zm-2.1-5.6.4.4a3 3 0 0 0-.9.3 5 5 0 0 0-.4-.4l.5-.2a3.5 3.5 0 0 0 .4.1V51Zm-2.6 36.7.3-.3a5.5 5.5 0 0 0-.6 0l.1-.2a4.3 4.3 0 0 0 .6.2l-.2.2v.2a.9.9 0 0 0-.2 0Zm-.1-1.2.4.4a2.3 2.3 0 0 0-.2 0h-.2a2.7 2.7 0 0 0-.1-.4Zm.5-.2a.1.1 0 0 1 0-.1v.4a4.4 4.4 0 0 0 .4-.2v.3a2.4 2.4 0 0 0-.5.1 2.3 2.3 0 0 0 0-.5Zm-3.2 7 .2-.2h.1v.3h-.3Zm3.8-41.1Zm25.9 27a.8.8 0 0 0-.1 0L74 79a3 3 0 0 0 .3-.3v.3Zm-8.8-11.3.2-.5h.4a1.7 1.7 0 0 0 0 .3 1.2 1.2 0 0 0-.2.5V68l.1-.6a2.3 2.3 0 0 0-.5.4ZM86 37.3l-.4.4a5.2 5.2 0 0 0 1.3-.2 5.1 5.1 0 0 0-.1 1.4 4.2 4.2 0 0 0 1-1.2l.2-.1.2.2a5.2 5.2 0 0 0-1.2 1 6.1 6.1 0 0 0 1.9.2 2.3 2.3 0 0 1-.6.5 7 7 0 0 0 1.6 0l-.3.6a6.9 6.9 0 0 0 1-.2 2.8 2.8 0 0 1-.7.7s.3 0 .6 0a3.8 3.8 0 0 0 .6.7l-1.2-.4a3.5 3.5 0 0 0 .8 1.1l-.4-.1-.3-.1.3.5v.1a4.4 4.4 0 0 0-.6-.9l-.1 1a1 1 0 0 0 0 .2 5.6 5.6 0 0 0-.7-.2 4 4 0 0 0 .3.7 2.4 2.4 0 0 0-.7-.2s.1.2.3.5v.3a1.7 1.7 0 0 0-.9-.1l.2-.1-1-.1a3 3 0 0 0 .5-.6 5.4 5.4 0 0 0 1-.2 7 7 0 0 0-1.7-.9 7.2 7.2 0 0 0 1.1-1.3s0 0-.6.2a3 3 0 0 0 .8-.9s-.4.1-1.1.3a9.8 9.8 0 0 0-1-.6H86a5.5 5.5 0 0 0 .6-.8 4.6 4.6 0 0 0-1 0 3.1 3.1 0 0 0 .6-.7s-.3 0-.8.1l-.4-.2a1.8 1.8 0 0 0 .3-.3 1.4 1.4 0 0 0 .6-.2 1 1 0 0 0 .2 0Zm1.9-.3v-.1.1Zm22.3 27.4.3-.3a2.6 2.6 0 0 0-.2.7 7 7 0 0 0-.9.6 7.3 7.3 0 0 0 2 0 6.2 6.2 0 0 0-.4.9h-.1v.1a6 6 0 0 0-.1.8s0 0 .4-.4a3 3 0 0 0-.3 1l.8-.5a5.3 5.3 0 0 0 .4.5 7.1 7.1 0 0 0-1.6.7s0 0 .6 0a3 3 0 0 0-1 .6s.4 0 1 .2a9 9 0 0 0 .7 1 1.2 1.2 0 0 0 .2 0 6 6 0 0 0-.8.4 5.3 5.3 0 0 0 .9.5 3.2 3.2 0 0 0-.9.4s.3.1.8.2l.2.2-.4.3a1.7 1.7 0 0 0-.8 0 6.2 6.2 0 0 0-.3-1 5.2 5.2 0 0 0-.3 1h-.2a3 3 0 0 0-1-.3 6 6 0 0 0 .2-1l-.3.4a2.3 2.3 0 0 0 0-.8l-.5.5a5.5 5.5 0 0 0-.9.1.7.7 0 0 0-.1 0 4.3 4.3 0 0 0 0-.6 4 4 0 0 0-.6.4 2.4 2.4 0 0 0 0-.8s0 .2-.4.5h-.3a1.4 1.4 0 0 0 0-.3c.8-.5.6-2.2.6-2.2a5.4 5.4 0 0 0-.9 1.2 5.3 5.3 0 0 0-.8-1.1s0 0 0 .7a2 2 0 0 0-.9-.5s.2.3.4.7a2.4 2.4 0 0 0-.5-.3v-.3a2.2 2.2 0 0 1-.4.5 4.7 4.7 0 0 0 0-.7l-.4.3a4.4 4.4 0 0 0-.2-1 1.4 1.4 0 0 1-.2.4 3.8 3.8 0 0 0-.3-1.1 3.7 3.7 0 0 0-.5.7c-.2-.6-1.3-.5-1.3-.5l.6.6a2.6 2.6 0 0 0-.5-.1l-.2-.3a6.2 6.2 0 0 1-.3.8 2.6 2.6 0 0 0-.3 0V68h.3s-1.2-1.2-2-1a1.3 1.3 0 0 0-.3 0l.2-.3h.6a2.4 2.4 0 0 0-.6-.5 4.2 4.2 0 0 0 .7-.2 4.7 4.7 0 0 0-.6-.4 1 1 0 0 0 .2 0 7.3 7.3 0 0 0 .5-.7l.9-.1a2.3 2.3 0 0 0-.8-.5h.5a5.5 5.5 0 0 0-1.2-.6 5 5 0 0 0 1-1 5 5 0 0 0-1 0 2.3 2.3 0 0 0 0-.6 5.3 5.3 0 0 0 .5.5 6.8 6.8 0 0 0 0-.8 5.8 5.8 0 0 0 1 .5s0 0-.2-.4a2.3 2.3 0 0 0 .7.4s0-.2-.2-.6a3.1 3.1 0 0 0 0-.6 1.3 1.3 0 0 0 0-.2 4 4 0 0 0 .6.2 3.8 3.8 0 0 0-.3-.7h.2c0 .2 0 .3.2.5l.1-.4h.2-.1l.1-.4a4.9 4.9 0 0 0 .5.7l-.2.2h.4a1.8 1.8 0 0 1 .2.5l.1-.5h.3a5.3 5.3 0 0 0 .1 1.7A6.1 6.1 0 0 0 104 61a5.1 5.1 0 0 0 .1.6l-.2.2h.3a2.1 2.1 0 0 1 0 .4l.3-.3a2.5 2.5 0 0 0 .8-.1 1.5 1.5 0 0 0-.2.2l-1.2 1.1a4 4 0 0 0 1.1-.1l-.9.9a3.6 3.6 0 0 0 1.4-.2l-.6.5a8.8 8.8 0 0 0 2.1-.3 8.6 8.6 0 0 0-.2 2.2 5.6 5.6 0 0 0 1.8-2.5h.4l-.4.6a7.6 7.6 0 0 1 1.2-.3 3 3 0 0 0-.2.3s.2 0 .6-.1v.2Zm2 7.7Zm-3 0 .1.2h-.1v-.1ZM86 59.2l-.3-.3.3-.1v.4ZM99 68h.4a3.4 3.4 0 0 0 .2.3l-.1.2a1.5 1.5 0 0 0 0 .2l-.3-.2-.2-.5Zm.7 0Zm-5.1-7Zm.3 0v.1Zm-9-2.8-.1.1Zm16.1 10Zm-28 10.3v.5a2.7 2.7 0 0 0-.5-.2 4.8 4.8 0 0 0 .5-.3Zm12.2-19.8a1.6 1.6 0 0 0-.1 0 .9.9 0 0 1 .1 0ZM74 79.8l-.2-.1a2.3 2.3 0 0 0 .3 0 1 1 0 0 0-.1.1Zm11.5 5.8V85a2.4 2.4 0 0 0 .6-.2l-.4.7a2.4 2.4 0 0 0 .8-.4l-.2.4a5.3 5.3 0 0 0-.8.1Zm41-.4a1.5 1.5 0 0 0 0 .4 3 3 0 0 0-.2-.4h.2Zm-19-67v-.4a3.4 3.4 0 0 0 .3-.1 2.7 2.7 0 0 0-.2.5Zm-.3-.3v.1h-.1l.1-.1Zm-29.5-.5Zm-11.5-3.9ZM27.4 18Zm-5.8 23a1.6 1.6 0 0 0 .2-.2 1.7 1.7 0 0 0 0 .3 8 8 0 0 0-1 .6l.8-.8Zm-.9.1V41v.1Zm-4.4 41.5-.1-.1a1.2 1.2 0 0 0 0-.2l.1.3Zm-1 1.4a6.7 6.7 0 0 0 .5-.7 5.2 5.2 0 0 0 .2.7 4.3 4.3 0 0 0-.6 0Zm.7-1Zm29.8 9.9-.2.7-.3-.1v-.2h.2a2.3 2.3 0 0 0-.3-.5 4 4 0 0 0 .6 0Zm1.5-3a2 2 0 0 0-.3-.4h.8l-.2-.1a2.2 2.2 0 0 0 .4 0 4.9 4.9 0 0 0-.5.7 1.2 1.2 0 0 0-.2-.1ZM60 66a4.3 4.3 0 0 0 0 .7 3 3 0 0 1-.3-.4 3 3 0 0 0 .2-1.2 4.8 4.8 0 0 0-.5.4 1.7 1.7 0 0 0 0-.2 5.8 5.8 0 0 0-.4-.8l.3-.7a2.1 2.1 0 0 0-.7.4l.2-.4a5.3 5.3 0 0 0-1.1.7 5.1 5.1 0 0 0-.5-1.3 4.4 4.4 0 0 0-.3.9 2.8 2.8 0 0 0-1.2-.4s0 .2.2.5a2.4 2.4 0 0 0-.5 0V64a2 2 0 0 0-.2.2 1.1 1.1 0 0 1-.3 0s0 0 .2.1v.2a3.2 3.2 0 0 0-1-.5 3.7 3.7 0 0 0 .4 1.1L54 65v-.2a2 2 0 0 0-.1.1 1.1 1.1 0 0 1-.2-.1s0 .1 0 .3a1.8 1.8 0 0 0-.2.4.9.9 0 0 0 0-.2l-.1-1a2.6 2.6 0 0 0-.4.6l-.1-.7a2.3 2.3 0 0 0-.4.7v-.4a5.5 5.5 0 0 0-.6 1.1 5.1 5.1 0 0 0-1.1-1s.1 1.7 1 2.1a1.1 1.1 0 0 0 0 .3h-.3l-.5-.3a2.2 2.2 0 0 0 .2.7 3.7 3.7 0 0 0-.7-.3 4.7 4.7 0 0 0 .2.7 1.5 1.5 0 0 0-.2 0 5 5 0 0 0-.8 0c-.2 0-.3-.2-.4-.3a4.3 4.3 0 0 0 .5-.2 6.3 6.3 0 0 0-1.7-.8 2.4 2.4 0 0 1 .7-.3 7.2 7.2 0 0 0-1.5-.5 7 7 0 0 0 .5-.5s-.3 0-.7-.1l.5-.3a5 5 0 0 0 1.7.6 6.5 6.5 0 0 0-.5-1 2.4 2.4 0 0 0 .3 0 9.7 9.7 0 0 0 1.4-.3l1.1.7a3.6 3.6 0 0 0-.5-1.3l.6.5a8.9 8.9 0 0 0-.8-2 8.1 8.1 0 0 0 2.2-.3 8 8 0 0 0-1.3-.8 4.3 4.3 0 0 0 .8-1.8l.2.1a2.7 2.7 0 0 0 0 .3s0 0 .2-.1a4.9 4.9 0 0 0 .6.4 6.4 6.4 0 0 0-.7.2 3.7 3.7 0 0 0 1.6.7 6.8 6.8 0 0 0-.4 1.2 7.2 7.2 0 0 0 1.6-1 7.3 7.3 0 0 0 .6 1.6s0 0 .1-.6a3 3 0 0 0 .4 1.1s.1-.4.3-1a8.5 8.5 0 0 0 1-.6l.2-.2a5.7 5.7 0 0 0 .3.9 4.1 4.1 0 0 0 .7-1.4h.4l-.3.4a4.4 4.4 0 0 0 .6 0 6 6 0 0 0-.7 1.2 1.9 1.9 0 0 1 .7-.2 5 5 0 0 0-.7 1.5 5.7 5.7 0 0 0 .9-.4 6 6 0 0 0 0 1.2 1.5 1.5 0 0 1 .3-.4 3 3 0 0 0-.1 1.1s.1-.1.3-.4a2.2 2.2 0 0 0 0 .4 3 3 0 0 0 0 .7 1.4 1.4 0 0 1-.3-.5 4.3 4.3 0 0 0-.2 1 5 5 0 0 0-.3-.3Zm2.1 0a5 5 0 0 0 0 .5V66Zm3 1.4.3-.3a1.6 1.6 0 0 0 0 .1 2.8 2.8 0 0 0-.3.3.9.9 0 0 0 0-.1Zm1.3 22.8h.1v.3l-.1-.3Zm6.6-8.2-.1 1a.9.9 0 0 0 0 .3 4.2 4.2 0 0 0-.7-.3 3.7 3.7 0 0 0 .3.7 2.3 2.3 0 0 0-.7-.2s.1.2.3.5v.3a2 2 0 0 0-1.3 0 1.1 1.1 0 0 0-.5-.3 1.3 1.3 0 0 0-.1-.3 2.7 2.7 0 0 1 .2-.1l.6.2a2.3 2.3 0 0 0-.3-.6 3.8 3.8 0 0 0 .7.1 4.5 4.5 0 0 0-.3-.6.8.8 0 0 0 .1 0 5.4 5.4 0 0 0 .9-.2l.7.3a2.2 2.2 0 0 0-.4-.7l.4.2a5.4 5.4 0 0 0-.6-1.2 4.9 4.9 0 0 0 .8-.1 1.8 1.8 0 0 0 .5.1l-.5.1a5.6 5.6 0 0 0 1.2.5 4.9 4.9 0 0 0-.5.7h-.1v.1l-.1.2a5.5 5.5 0 0 0-.5-.7Zm.5.8h.1v.1Zm.5.1a1.7 1.7 0 0 0 0-.2h.1v.2Zm11.7 17.2a.9.9 0 0 0 .1 0 2.8 2.8 0 0 0 .4.2h-.3l-.2-.2Zm9.2-10.4v.2l-.1.2a3.7 3.7 0 0 0-.6-.4 3.8 3.8 0 0 0 0 .7 2.4 2.4 0 0 0-.5-.4s0 .2.1.6l-.2.3a4.4 4.4 0 0 0-.4-.6 3.8 3.8 0 0 0-.2.8 2.2 2.2 0 0 0-.4-.6s0 .2 0 .6a4.4 4.4 0 0 0-.6-1l-.2 1.1a.8.8 0 0 0 0 .2 4.7 4.7 0 0 0-.6-.3 4 4 0 0 0 .2.8 2.4 2.4 0 0 0-.6-.2s0 .2.3.5v.3a2.8 2.8 0 0 0-2.1.2l.2-.3a4 4 0 0 0-.8 0 2.3 2.3 0 0 0 .5-.6s-.3 0-.6.2l-.3-.2a1.2 1.2 0 0 0 .2-.2c.9 0 1.6-1.6 1.6-1.6a5.4 5.4 0 0 0-1.4.5 5.5 5.5 0 0 0-.1-1.3s0 0-.2.4a2.2 2.2 0 0 0-.1-.8s-.2.2-.4.6a2.3 2.3 0 0 0 0-.5l.2-.3a2 2 0 0 1-.6 0 4.4 4.4 0 0 0 .6-.4l-.5-.1a4.2 4.2 0 0 0 .8-.7 1.4 1.4 0 0 1-.5 0 3.8 3.8 0 0 0 .8-.8 3.5 3.5 0 0 0-1 0 4.5 4.5 0 0 0 .3-.5l-.9.4a2.2 2.2 0 0 0 .1-.3s-.2.2-.6.4a2.1 2.1 0 0 0 0-.6 4.9 4.9 0 0 0 .6-.5h-.5c.3-.1 1.7-.7 2-1.6a2.8 2.8 0 0 1 .2.1l.2.6a2.3 2.3 0 0 0 .2-.6 3.6 3.6 0 0 0 .4.6 4.6 4.6 0 0 0 .2-.6.8.8 0 0 0 .2 0c.5.5.6.4.9.6a4.4 4.4 0 0 0-.4-1l.5.4a2.3 2.3 0 0 0-.2-.7 3.6 3.6 0 0 0 .7.3s0-.1 0-.3h.2a5.3 5.3 0 0 0-.6 1.2s0 0 .4-.2a2.2 2.2 0 0 0-.4.7s.3-.1.7-.3a5.5 5.5 0 0 0 .9.3h.1a3.8 3.8 0 0 0-.3.6 3.8 3.8 0 0 0 .7-.1 2.3 2.3 0 0 0-.3.6s.2 0 .6-.2a3 3 0 0 1 .2 0 1.3 1.3 0 0 0-.1.3c-.9.2-1.3 1.8-1.3 1.8a5 5 0 0 0 1.2-.7 5.4 5.4 0 0 0 .4 1.3s0 0 .1-.4a2.2 2.2 0 0 0 .2.8s.1-.3.3-.7a2.5 2.5 0 0 0 .2.6s.2-.4.4-1a1.6 1.6 0 0 0 .2.4c0 .2-.2.3-.2.3a1.2 1.2 0 0 1 .3-.1 1.8 1.8 0 0 0 0 .2l.1-.3a2.5 2.5 0 0 0 .4 0 3.2 3.2 0 0 0-.4.6l-.5.3.3.1h-.4l.2.3Zm.8 0-.2-.1h.3Zm11.8 11.7.1-.2.1-.1a3.7 3.7 0 0 0 .1.5l-.3-.2Zm.6.2.2-.4.1.2-.3.2Zm14-4.8Zm5.2-10 .2.3-.2-.1v-.1Z"/><path fill="#73bf44" d="M99 94c-4.3 1.2-7.5 1.5-7.7.4a54.4 54.4 0 0 1 1.4-12.6c1.1-4.5 3.7-6.5 4.9-10.6 1.2-4.2 2.6-4.6 6.1-4.2a38.6 38.6 0 0 1 8 2.3l1-1.3a32.3 32.3 0 0 0-7.4-2c-3.2-.5-7-1.8-8.5 1.4-1.4 3.2-2.5 5.2-2.5 5.2v-3.8c0-1.4.7-7.5 1.7-8.2 1-.6 3.8-.3 6.2-1.4 2.5-1.1 4.2-2.1 7.2-1.5l.2-1.2a12.6 12.6 0 0 0-4 0c-1.5.4-2 .8-4.3 1.6a15.2 15.2 0 0 1-5.1.9c-.8 0-.1-.7 1.5-3.7a51.3 51.3 0 0 0 3.1-8.9h-5.2L91.2 57c-1.1 2.6-3 7-3.3 10.9-.4 4-.3 6.2-.8 9-.6 2.7-2.4 14-2.6 16.7-.3 2.6-6 17.3-6.3 18.7-.4 1.4-3-4.6-3.3-7.7-.3-3-1.1-15.5-1-23.2.1-7.6-.7-12.7 1-19 1.8-6.4.9-8.6.9-8.6l-4.6.8s-2 10.8-2 14c0 3.4-1.5 11.3-1.5 14.7 0 3.4 1.4 11.2 1.7 15.5.3 4.2 1 10.3-.3 8.7-1.4-1.6-4.8-11.1-7.5-15.6-2.6-4.5-4.6-12.5-6.5-15.7-1.8-3.1-6.6-9.4-6.6-9.4l-2.7 5S51 79.3 53 84.6c2 5.3 5.7 15.6 7.3 19.3 1.6 3.7 0 3.3-1.3 1.2-1.3-2-10.4-11.6-12.3-14-1.9-2.5-8.6-10.5-8.6-10.5L33.5 83l7.4 9.8a107.5 107.5 0 0 0 12.2 13.6c4 3.4 7.7 5.2 8.7 6.3 1 1 1.5 4.4 2 6.2.5 1.8-.5 4.8-2.2 2.4-1.7-2.3-6.3-5.5-8.6-8.4L43 99.2l-1 2.3s6.8 10.5 10 14.9c3.4 4.3 7.2 7 9.4 9.1 2.2 2.2 3.2 5.7 4.1 10.3a15.8 15.8 0 0 1 .1 7.4h18.2s.5-8.4.4-15a54.5 54.5 0 0 1 4.7-21.3c2.8-5.8 2-8.1 3.6-9.1s6-.9 11.4-2.6a50.9 50.9 0 0 1 8.3-2.2l-.5-1.1s-8.5 1-12.7 2.2Z"/><path fill="#73bf44" d="M80.4 101C99 101 117 84.6 116 65.3a36.3 36.3 0 0 0-35.7-35.7c-18.7 0-36.6 16.4-35.7 35.7A36.3 36.3 0 0 0 80.4 101Z"/><path fill="#73bf44" d="M72.3 110.1c18.6 0 36.5-16.4 35.7-35.7a36.3 36.3 0 0 0-35.7-35.7c-18.7 0-36.6 16.4-35.8 35.7A36.3 36.3 0 0 0 72.3 110Z"/><path fill="#73bf44" d="M77.3 113.9c5.7 0 5.7-9 0-9-5.8 0-5.8 9 0 9Z"/></svg>