<svg xmlns="http://www.w3.org/2000/svg" viewBox="0 0 150 150"><path fill="#73bf44" d="M77.8 150h-5.1a18.2 18.2 0 0 0 .6-4.2l.1-5.5-.5-9.2h5.9s.2 7.5.4 9.7c.3 2.2.5 9.1.5 9.1Z"/><path fill="#73bf44" d="m125.8 87.6-.1-2.2.7-.3 1.1-1.3-1.4-.9.4-.9-.3-.5 1-1-1.5-1 .8-.2-.5-2-2-.9 1.2-.3-1.4-1v-1.5l-.2.2-1.4-.6-.4-1.4-1.1-.2.2-.2-.8-1h-1.6l.8-2-1-1.5-1 1-1-1.2-.6.6-.6-1.3h-.8l.4-1.4-.7-.6 1.2-.5-.7-1.8-1.8-.2-1.2-1 .8-1.3-1-1.2.5-.5.9-.7 2.4.8c2.4.9 0-1.1 0-1.1l.8-.4-.5-1.3-.3-.2.4-1-1-.5h-.5l-1.2-2 2.5.3-.7-.6 1-1.7-.8-.6.4-1-1.5-.5.8-1h-2l.6-1.3-2-.9 1.8-.5-.8-1c-.8-1.2 1.7-.1 1.7-.1l-.1-.3.9-.9-.5-.6.7-1-1-.3.6-2-1.5-.2h-.6l-1-.7-.4.2-.6-2.6-.9-.1.5-1.4-1.7.7.7-1.4-2.1.5v-.8h-1l-.1-1.4-.4.2V29l-1.4-.4 1.7-1-1-.9 1.1-1-1.3-.7.7-.8-.6-.4-1.5-2-.9 2c-.8 2-1.2-1.5-1.2-1.5l-.6 1.2c-.7 1.3-.2-1.3-.2-1.3l-1-.3 1-2.4-1-.4 1.8-1.4-1.1-.8 1.1-1-.5-.4-1.1-.8-1.8.6-.4-1.1-.7 1.3-1-1.6-.9.5-.5-1-.4.1.5-1.2-1-.5.8-1.3-1.2-1 1.2-1-1.9-.9.3-.7-2.3.3V6.1l-.9.6-1-1.4-.6 1.4-1-1-.2 1.8c-.2 1.8-.6-.6-.6-.6l-.9.6h-1.3l.2-1.5-1.3.5-1-2-.7 1.3-1.1-1L79 6l-.4-.5v1.4L77 6l.3 1.7-.3-.2-2.3.2.4-1.4-1.6-.2.6-2h-.6V2l-1.2.5v-.9l-1.3 1-.8-.9-1.1 1-.6-1.2-.5 1-1-.1-1.6-1-1.4.4L64 .5l-.8.2-1.3-.6-1 1.2-1.6-.7.5 2-1.9-.4.7 2.5-1.6-.5.4 2.1c.5 2.1-.8.2-.8.2l.7 1.2-.2 1.6-1.5.5 1 1.7-1.6.6-.6-1.7h-.8v1.3l-1.4-.5.1.9-1 .5.2 1.5-1.3.7-1.3-1.5-.8 1.3-.1-1-1 2.1-1-.2.4 2.1h-1l.8 1.9h-.4l.3.7-.4 1.6-1.4-.4 1.1 2-1.4-.2.5 1.8-1 .4.6 1.3 1.4 1-1.5.4 1.2 1.3-1 .2-1.4.8.2 1.3h-1.3l.6 1.4-.3 1.4-.7-.3 1.1 1.4-1.3.6 1.2.5-1 .5-.2 2.5 1.5.2-.4.6 1 .8h-1l.1 1-1.3 1.3-1.1-1.4-1.3.6-.4-.6-.2 2-1-1-.3 2-1.5-.2 1.2 1.7c1.2 1.8-1.4 0-1.4 0l.9 2.2h-1.2c-1.3.2-.5 1.5-.5 1.5l-1.6-.6.8 2.3H32l.9 1.2-.6.3.2 1.5-1-.2-.4 1-1.7-.7.8 1.3-.7 1.6.5 1.3 1.4.3-.8.7 1.1.7-2 .9 1.3.7-.2 1.3.7 1-1.1.7 1.2 1-1.5-.2v.8l-1.5-.6.4 1.7c.5 1.7-.7.4-.7.4l.6 2-1.7-.2v1l-1-.2.4 1.8-1.5.2-.1 1.6-1.5-.8.4 1.2h-1l-.5 1.1 1.2.7-.5.8.7.4-.4.6h.7l.2 1.3-1.2.3v1.1l1.7.4-.6 1 1 .2-.3.7h1l-.5 1.4h2.2l-.6.7 1.5.6-.6.3.4 1.1-1.6.4-.7-.6-.5 1h-.8l.2 1.5-.7.4 1.1 1.5-.6.9.9.6-.3.7.9.9-.2.5 1.1.6-.5 1-1.1.1-.2 1.6.3.6 1 .3v.7l-.6.2.8 1.4-.6.2.9 1.2-.7 1 .9.3-.2 1.2.6 1 1.7-.3.2 1 1.5.1-.5.6 1.4.6-1 1 1.4.7-.3.8 1.3.2-.3.8.6.3.3 1.8 1.1-.5 1 1.3 1.2-1 1.1.7.6-1h1l.2-1.4 1.1.4v-1.2l1.1.4v-2l1.2 1.2 2 .6H45l.5 1.2-.2.7-.8 1.5h-1.2l.6.7-1.4 1h1.1l.4 1.4 1.3-.4.2.6 1.7.4.4-.5 1.3 1 .8-1.1 1.1.8.4-1 1 .2.6-.4v-1l.7-.5 1 .2.7 1.5 1.1-.3.2 1.1h1l.3 1h-.3l-.8 1.3-.6-.2-.3.9-.3.3h-.3l.1 1.5h-.7l-1 2.4h-.8l.6 1.7-.6.3 1.3.9-.4.9 1.2.1v.7l1.3.3 1.2.7.8-.6v1.1l1.3-.2v1.1h1.3l-.1.7 1.5-.1.7.5.3-1h.8v-1.3l.7.5.6-1.8.6.5v-1.1c.1-1.1.7.6.7.6l.3-1 1.1.6.3-1.2.8.8.7-1 .6 1 .2-.3.2 1 1-.5.2 1.2.3-.2.4.7c1 1.7.6-.2.6-.2l.5 1.5.2-.4 1 1 .2-1.9.5.8 1.6-.4 1.5.2.6-1 .6.5.5-.7.4.6.7-.3.6 1 .7-1c.7-1.2 1.2.7 1.2.7l1-1.6c.9-1.7 1.3.4 1.3.4l1.7 1.2.3-.9.6.9 1.6-.6v-.3l.5-.7-2-1.2 1.4-1.3.8 1 2.2-.7 1.4 1 .9.6.2-1.2h2l.9-1.8.7.3-.3-1.3 1.4.4v-2.5l-2.2-.5 1-.7.8-1.7-1-.8 1 .1.9-1.7 1.3 1.2 1.3-.7 1.2 1.9 1.2-.6.5 1.4 2.4-1 .7 1.3 1.8.5 1 1.3.6-1 1.3 1 2.2-1.7-1.4-1.3 1.7-.3-1.7-2.2 1 .2.8-.2v1l1.8.2.5 1.5.5-.3 1.8.9v-1l1.2-1.2 1-1-.3-.6-.4-1.3-.9.3 1-2.8-2.3-2v-.9l.7.8 1.2-.6 2 .5-.3-1.1 1.3.4.3-.6-.7-1.2h.7l-1-.9-1-1.5-.4-1-1-.6-.4-1.2-1.7-.5 1.2-1.4-4.9-1.7.6-.3.6-.7 1.2-.4-1.4-2 1.4-.7.5-1.4 1.7.2 2.1-1.3.7-.4-1.3-.7-.1-1.2 1.8-.8-.4-.8 1-.7-1.3-1 2.4-.4Z"/></svg>