<svg xmlns="http://www.w3.org/2000/svg" viewBox="0 0 150 150"><path fill="#73bf44" d="m92 150-3-4a8 8 0 0 1-2-4l-1-6a17 17 0 0 1-1-4v-2l3-3 1-2a39 39 0 0 0 3-4 13 13 0 0 0 1-5l1-3h-2l-2 7c0 2-1 3-3 4a12 12 0 0 0-2 1 19 19 0 0 1 1-3 17 17 0 0 0 2-5 11 11 0 0 0 0-3l-2 1a14 14 0 0 1-2 4c-1 2-1 0-1 0v-4c1-2-3-3-3-3l-1 3v6a37 37 0 0 1-1 4 5 5 0 0 1-1-3l-1-5v-3l-3 1 1 5a25 25 0 0 1 0 4 10 10 0 0 1-1-3l-2-7-3 1a40 40 0 0 0 1 4v1l-4-6-3 1a8 8 0 0 0 2 5l3 5 1 2-5-3-4-5 1 4 4 3a11 11 0 0 0 4 2c2 1 3 1 4 4a11 11 0 0 1 2 8 84 84 0 0 1-3 10ZM44 60v1a1 1 0 0 1 0-1v1a2 2 0 0 1 0-1ZM44 60ZM96 72h-1a2 2 0 0 1 1 0ZM50 63a4 4 0 0 1-1 0 4 4 0 0 1 1 0ZM47 63ZM47 63l-1 1h1a6 6 0 0 1 0-1ZM46 63ZM68 62a1 1 0 0 1 1 0 3 3 0 0 1-1 0ZM57 39a1 1 0 0 1-1 0h1ZM54 45ZM52 45ZM50 48ZM94 42a6 6 0 0 1 0-1 4 4 0 0 1-1 1v-1a1 1 0 0 1 0 1 5 5 0 0 1 1 0ZM76 61ZM76 60ZM93 41v1-1ZM60 57ZM47 63a2 2 0 0 1-1 0h1ZM96 42a2 2 0 0 1 0-1v1ZM49 63ZM44 60ZM48 64v-1a3 3 0 0 1 0 1ZM45 62a3 3 0 0 1 1 0 2 2 0 0 1 0 1 2 2 0 0 1 0-1 1 1 0 0 0-1 0h1a1 1 0 0 1-1 0ZM43 58ZM43 60ZM51 48a3 3 0 0 1 0 1h1a1 1 0 0 1 1 0v-1a4 4 0 0 1 0 1 6 6 0 0 1 2-1 6 6 0 0 1-1-1 2 2 0 0 1 0-1s0 0 1 0a2 2 0 0 1-1 0 2 2 0 0 0 0-1 5 5 0 0 1 0 1 4 4 0 0 1-1 0l-1 1v-1a2 2 0 0 1 0 1 7 7 0 0 0-1 0 6 6 0 0 1 0 1 2 2 0 0 0 0-1v1ZM48 48a3 3 0 0 1 1 1 1 1 0 0 1 0-1 4 4 0 0 1-1 0ZM49 48ZM50 48a4 4 0 0 1 0-1 2 2 0 0 1 0 1ZM59 56a2 2 0 0 0-1 0 5 5 0 0 1 0-1l-1 1a3 3 0 0 1 1 0 3 3 0 0 1-1 0l1 1v-1a2 2 0 0 1 0 1 3 3 0 0 1 0 1 6 6 0 0 1 1-1 6 6 0 0 1 0 1 6 6 0 0 1 1 0 2 2 0 0 1 1 0v-1h-2v-1ZM56 39a2 2 0 0 1-1 0h1v1a2 2 0 0 1 0-1ZM62 34ZM43 52a3 3 0 0 1-1 0 2 2 0 0 1 1 0ZM43 50ZM46 49l-3 1h1a6 6 0 0 1-2 1 6 6 0 0 1 1 1 2 2 0 0 1 0-1 3 3 0 0 1 0 1 1 1 0 0 0 0-1 3 3 0 0 1 1 1v-1a3 3 0 0 1 0 1 1 1 0 0 0 0-1 2 2 0 0 1 1 0h-1a2 2 0 0 1 1 0h-1l2-1a3 3 0 0 1 0-1 3 3 0 0 1 1 1v-1a4 4 0 0 1-1 0ZM48 49ZM48 49v-1a3 3 0 0 1 0 1ZM55 40ZM61 60l1 1a5 5 0 0 1 0-1 4 4 0 0 1 0-1 4 4 0 0 1-1 1ZM61 59a2 2 0 0 1 0-1v1ZM65 33a3 3 0 0 1-1 0 1 1 0 0 0 1 0ZM57 55v1a2 2 0 0 1 0-1ZM53 50h1a4 4 0 0 1 1 0 2 2 0 0 1 0 1v-1a4 4 0 0 1 0 1 3 3 0 0 1 1 0 6 6 0 0 1 0-1 4 4 0 0 1 0-1 3 3 0 0 1-1 0s1 0 1 0a3 3 0 0 1-2 0l-1 1ZM68 87h-1 1ZM68 62ZM69 87ZM65 32v-1 1ZM50 62ZM68 87ZM76 61h-1 1ZM74 32ZM61 36ZM80 34ZM62 110ZM54 91a1 1 0 0 1 0-1v1ZM104 71a3 3 0 0 1 0 1 4 4 0 0 1 1-1l1 1a7 7 0 0 1 1 0 5 5 0 0 1 0-1 1 1 0 0 1-1-1 5 5 0 0 1 0 1 4 4 0 0 1 0-1 3 3 0 0 1-1 1v-1a2 2 0 0 1-1 1ZM55 98ZM108 87ZM60 108a5 5 0 0 1-1 0 3 3 0 0 1 0 1h-1a1 1 0 0 1 1 0 3 3 0 0 1 0 1 4 4 0 0 0 0-1 4 4 0 0 1 1-1ZM47 49a2 2 0 0 1 1 0h-1ZM76 78ZM79 88ZM91 100ZM95 100zM106 89a3 3 0 0 1 1-1 2 2 0 0 1 0 1v1a2 2 0 0 1 1-1 4 4 0 0 1 0 1 4 4 0 0 1 1-1v1a3 3 0 0 1 1 0v1l1-1a4 4 0 0 1 1 1 3 3 0 0 1 1 0 3 3 0 0 1 0-1 5 5 0 0 1-1 0 6 6 0 0 1 0-1 6 6 0 0 1-1 0s0 0 1-1a2 2 0 0 1-1 0s0 0 1 0a7 7 0 0 1 0-1 3 3 0 0 1 1-1 5 5 0 0 1-1 0 5 5 0 0 1-1 0 2 2 0 0 0 1 0 4 4 0 0 1-2 0 4 4 0 0 1 1-1 5 5 0 0 1-1 0 2 2 0 0 1-1 0h-1a3 3 0 0 1 0 1 3 3 0 0 1 1 1 2 2 0 0 1-1 0v1-1a2 2 0 0 1-1 0l1 1-1-1v1h-2a3 3 0 0 1 1 0h-1a2 2 0 0 1 1 1 3 3 0 0 0 0 1 3 3 0 0 1 0-1ZM129 64ZM130 64a2 2 0 0 1-1 0 2 2 0 0 1 1 0ZM76 78a2 2 0 0 1-1 0 7 7 0 0 1-1 0 5 5 0 0 1 0 1 4 4 0 0 1-1 0 3 3 0 0 1 1 0s-1 0-1 0a1 1 0 0 1 0 1 3 3 0 0 1 1 0 4 4 0 0 1 0-1s0 0 1 0a3 3 0 0 1 1 0 2 2 0 0 1 0-1s0 1 0 1a1 1 0 0 1 0-1ZM95 41ZM76 86ZM74 80Z"/><path fill="#73bf44" d="M50 48a3 3 0 0 1 1 0v-1h-1a4 4 0 0 1 0 1ZM71 85ZM93 90ZM84 60l1-1a2 2 0 0 1-1 0 4 4 0 0 1 0 1ZM88 40ZM81 59a3 3 0 0 1 1 0 2 2 0 0 1 0 1 3 3 0 0 1 0-1 1 1 0 0 0 0 1 2 2 0 0 1 0-1 6 6 0 0 1 1-1 7 7 0 0 0-1 0 5 5 0 0 1 0 1 4 4 0 0 1-1 0ZM83 59ZM84 60ZM83 59a3 3 0 0 1 0 1 2 2 0 0 1 1 0 3 3 0 0 1 0-1 3 3 0 0 1-1 0ZM96 72ZM89 47zM96 72ZM82 33ZM81 58ZM95 73ZM81 34ZM89 40a3 3 0 0 1 0 1 4 4 0 0 1 0-1 3 3 0 0 1-1 0 4 4 0 0 1 0 1h-1a1 1 0 0 1 1 0l2 1a6 6 0 0 1-2 0 6 6 0 0 1 1 2h-1a2 2 0 0 1 1 0s-1 0-1 0v1a5 5 0 0 1 1 0h-1a5 5 0 0 1 1 1 5 5 0 0 1 1 0 2 2 0 0 1 0-1v1a4 4 0 0 1 1 0 6 6 0 0 1-1-1h1a2 2 0 0 1-1-1s1 0 1 1a6 6 0 0 1 1-1 4 4 0 0 1 1 0 3 3 0 0 1 0-1s0 0 0 1h1a1 1 0 0 1-1-1l-1-2a3 3 0 0 1-1 0 3 3 0 0 1-1 1 2 2 0 0 1 0-1 2 2 0 0 1-1-1ZM73 61a4 4 0 0 1 0 1 2 2 0 0 0 0-1 5 5 0 0 1 0 1 4 4 0 0 1 0-1 4 4 0 0 1-1 1l1 1a1 1 0 0 1 0-1 3 3 0 0 1 1 0 2 2 0 0 1 0-1 3 3 0 0 1-1 1l1-1a2 2 0 0 1-1 0ZM88 40ZM64 34a5 5 0 0 1 0-1 4 4 0 0 1 0 1 2 2 0 0 1 0-1 4 4 0 0 1-1 0 2 2 0 0 0 1 0h-1a2 2 0 0 1 0 1 4 4 0 0 1 1 0ZM80 59ZM43 50h1a2 2 0 0 1-1 0ZM94 74a3 3 0 0 1 0-1 5 5 0 0 1 0-1 6 6 0 0 1-1 1v-1a2 2 0 0 1-1 0s0 0 1 0a3 3 0 0 1-1 0s0 0 1-1a2 2 0 0 1-1 0v-1a4 4 0 0 1-1 2 4 4 0 0 1 0-2v1a1 1 0 0 0 0-1h-1 1-1a4 4 0 0 1 1 1h-1a1 1 0 0 1 1 0s-1 0-1 0a5 5 0 0 1-1 0 3 3 0 0 1 1 1 3 3 0 0 1-1-1 2 2 0 0 1 0 1l1 1a3 3 0 0 1-1 0 3 3 0 0 1 0 1v-1a1 1 0 0 1-1 1v-1a1 1 0 0 1 0 1v1a1 1 0 0 1 1-1 4 4 0 0 1 0 1 4 4 0 0 1 1-1v1a4 4 0 0 1 1 0 3 3 0 0 1 0-1 4 4 0 0 1 0 1v-1h1a3 3 0 0 1-1 0 1 1 0 0 0 1 0 3 3 0 0 1 0-1 2 2 0 0 1 0 1v-1l1 1a3 3 0 0 1 0-1 4 4 0 0 1 1 1ZM74 62h1a3 3 0 0 1-1 0ZM76 78v-1 1ZM91 75ZM117 49ZM80 34a5 5 0 0 1 0-1 4 4 0 0 1-1 0 1 1 0 0 1 1 1ZM103 43ZM76 33a2 2 0 0 1 0-1v1ZM78 33ZM105 42v1a3 3 0 0 1 0-1ZM103 42ZM105 43a6 6 0 0 1 1-1 6 6 0 0 1 0 1 6 6 0 0 1 1-1 1 1 0 0 1-1 0 3 3 0 0 1 0-1 2 2 0 0 1 0 1v-1a1 1 0 0 1-1 1 1 1 0 0 1 0 1ZM74 32ZM60 36a5 5 0 0 1 1 0 4 4 0 0 1-1-1 1 1 0 0 1 0 1ZM61 36v-1a3 3 0 0 1 0 1ZM61 35a1 1 0 0 1 0-1v1ZM69 25a5 5 0 0 1-1 0 4 4 0 0 1-1 0 2 2 0 0 1 0 1 5 5 0 0 1 0 1 5 5 0 0 1 1 0h-2v1a4 4 0 0 1 0 1l1 1a2 2 0 0 1-1 0v1a2 2 0 0 1 1-1v1a1 1 0 0 1 0 1 2 2 0 0 1 0-1 3 3 0 0 1 1 0 4 4 0 0 1-1-1 4 4 0 0 1 1 0h1-1a1 1 0 0 0 1 0h1a6 6 0 0 1 0-1 6 6 0 0 1-1-1s0 0 1 0a2 2 0 0 1-1 0s0-1 1-1v-1a5 5 0 0 1-1 0 3 3 0 0 1 2 0v-1a5 5 0 0 1-1 1v-1a5 5 0 0 1-1 1 2 2 0 0 0 1-1 4 4 0 0 1-2 0 4 4 0 0 1 1 0ZM78 88a3 3 0 0 1-1 0 2 2 0 0 0 1 0ZM104 108ZM103 108v1a3 3 0 0 1 1-1 4 4 0 0 1-1 0ZM103 109ZM41 19v-1a5 5 0 0 1-1 0 6 6 0 0 1 1 1ZM104 108ZM128 40a4 4 0 0 1 0-1 3 3 0 0 1 0 1ZM119 30ZM119 30ZM112 107ZM129 52ZM111 105v1-1ZM111 107a4 4 0 0 1 1-1 4 4 0 0 1-1 0h-2a3 3 0 0 1 1 0 2 2 0 0 1-1 0 2 2 0 0 1 0 1v-1a3 3 0 0 1 0 1h-1a2 2 0 0 0-1 0l-1 1v-1a2 2 0 0 1 0 1v-1 1a1 1 0 0 0-1-1 3 3 0 0 1 0 1 3 3 0 0 1 0-1 2 2 0 0 1 0 1 3 3 0 0 1 1 1 2 2 0 0 0 0-1 5 5 0 0 1 0 1 5 5 0 0 1 1 0 2 2 0 0 1 1 1 2 2 0 0 1 0-1 3 3 0 0 1 0 1 1 1 0 0 0 0-1h2v-1l1-1a3 3 0 0 1 0 1v-1a2 2 0 0 1 0 1 3 3 0 0 1 0-1 3 3 0 0 1 1 0 4 4 0 0 1-1 0ZM24 36a2 2 0 0 1-1-1v1a1 1 0 0 0 1 0ZM105 109v-1 1ZM97 118ZM97 118ZM119 109ZM135 88ZM126 106ZM94 101a1 1 0 0 0 1 0 2 2 0 0 1 0-1 2 2 0 0 1-1 0s1 0 1 0a1 1 0 0 1 0-1h-2a3 3 0 0 1 1 0 4 4 0 0 1 0-1 2 2 0 0 1-1 0h1-1a1 1 0 0 0 1 0 3 3 0 0 1-1 0 3 3 0 0 1 0-1 3 3 0 0 1-1 0 2 2 0 0 1 1 0h-1a1 1 0 0 0 1-1 3 3 0 0 1-1 0 2 2 0 0 1 1-1 3 3 0 0 1-1 0 4 4 0 0 1 1 0 4 4 0 0 1 0-1s0 0 1 0a3 3 0 0 1 1 0 2 2 0 0 1 0-1s0 0 0 1a1 1 0 0 1 0-1v-1a3 3 0 0 1 0 1v-1h1a3 3 0 0 1-1 0 1 1 0 0 0 1 0 3 3 0 0 1 0-1 2 2 0 0 1 0 1v-1a4 4 0 0 0 1 1 3 3 0 0 1 0-1 4 4 0 0 1 1 1 3 3 0 0 1 0-1h1a4 4 0 0 1-1-1l1 1a1 1 0 0 1 0-1 4 4 0 0 1-1 0 2 2 0 0 1 0-1 2 2 0 0 1 0 1v-1a1 1 0 0 1-1 0v2a4 4 0 0 1 0-1 4 4 0 0 1-1 0s0 0 0-1a2 2 0 0 1-1 0s1 0 1 0h-1 1a2 2 0 0 1-1 0 1 1 0 0 1-1 0s1 0 1-1a2 2 0 0 1-1 0 2 2 0 0 1-1 0 3 3 0 0 1 0 1 3 3 0 0 1 1 1 2 2 0 0 1-1 0v1-1a2 2 0 0 1-1 0 2 2 0 0 1 1 1 5 5 0 0 0-1-1v1a1 1 0 0 1-1 0h-1a2 2 0 0 1 0 1v-1a3 3 0 0 1 0 1 3 3 0 0 1 1 1 5 5 0 0 1 1 0 6 6 0 0 1-1 1 6 6 0 0 1 1 1h-1a2 2 0 0 1 1 0h-1a7 7 0 0 1 0 1 1 1 0 0 1-1 0 4 4 0 0 1 1 1 4 4 0 0 1-1 0 3 3 0 0 1 1 0h-1v1c1-1 3 1 3 1a6 6 0 0 1-2 0 6 6 0 0 1 0 1 2 2 0 0 1 1 0 3 3 0 0 1 0-1 4 4 0 0 1 1 1 2 2 0 0 1 1 0h-1a5 5 0 0 1 1 1v1a3 3 0 0 1 0-1ZM130 64a2 2 0 0 1 1 0 2 2 0 0 1-1 0ZM130 63v1a2 2 0 0 1 0-1ZM69 87ZM52 97a3 3 0 0 1 0-1 1 1 0 0 0 0 1 3 3 0 0 1 0-1 2 2 0 0 1 0 1l1-1a4 4 0 0 0 0 1 4 4 0 0 1 1 0 2 2 0 0 1 1 0 4 4 0 0 1 0 1 6 6 0 0 1 1 0 6 6 0 0 1 0-2s0 0 0 1a2 2 0 0 1 0-1 4 4 0 0 1-1-1 4 4 0 0 1-1 1l1-2a3 3 0 0 1 0-1 4 4 0 0 1-1 0 4 4 0 0 1 0-1 4 4 0 0 1-1 0 3 3 0 0 1 1 0 2 2 0 0 1 0-1 6 6 0 0 1-1 0 7 7 0 0 1 0-1 6 6 0 0 1-1 1 6 6 0 0 1 1 1h-1a2 2 0 0 1 1 1l-1-1a7 7 0 0 1-1 0 5 5 0 0 1 0 1 4 4 0 0 1-1 0 3 3 0 0 1 1 1l-1-1v1l1 2a4 4 0 0 1 0 1 3 3 0 0 1 0-1 2 2 0 0 1 0 1 3 3 0 0 1 1 0ZM53 115a1 1 0 0 1 0-1 1 1 0 0 1 0 1Z"/><path fill="#73bf44" d="M50 95a6 6 0 0 1 0 1 4 4 0 0 1 1-1l-1 1a1 1 0 0 1 1 0 5 5 0 0 1-1-1ZM21 81ZM85 115ZM38 103a3 3 0 0 1 0 1 2 2 0 0 1 0-1ZM77 88v-1a4 4 0 0 1-1 1 4 4 0 0 1 0-1 7 7 0 0 1 0 1 5 5 0 0 1 1-1 3 3 0 0 1-1 2 5 5 0 0 0 1 0 5 5 0 0 1 0-1 4 4 0 0 1 0 1 4 4 0 0 1 0-1ZM75 86a2 2 0 0 1 1 0 1 1 0 0 1 0-1 3 3 0 0 1-1 0 3 3 0 0 1 1 0 2 2 0 0 1-1 0s1 0 1 0l-2-1a4 4 0 0 1 1 0 4 4 0 0 1-1-1s0 0 1 0a2 2 0 0 1-1 0h1a2 2 0 0 1-1 0 1 1 0 0 0 1 0 3 3 0 0 1-1 0v-1a3 3 0 0 1-1 0 2 2 0 0 1 1 0h-1a1 1 0 0 0 1-1h-1 1-1a6 6 0 0 1 0 1h-1a2 2 0 0 1 0 1v-1 1a2 2 0 0 0-1 0 5 5 0 0 1 1 0 5 5 0 0 1-1 0 5 5 0 0 1 1 1 2 2 0 0 0-1 0 4 4 0 0 1 1 1 4 4 0 0 1-1 0v1-1a2 2 0 0 1-1 1h1a7 7 0 0 0-1 0 5 5 0 0 1 0 1v1a2 2 0 0 1 0-1 3 3 0 0 1 1 0 4 4 0 0 1-1-1 4 4 0 0 1 1 1v-1h1a3 3 0 0 1 1 0 5 5 0 0 1 1-1 6 6 0 0 1 0 2 6 6 0 0 1 1-1ZM60 110ZM61 110ZM68 118a3 3 0 0 1-1 1 3 3 0 0 1 1 0 5 5 0 0 1 0-1ZM64 110a5 5 0 0 1 0 1v-1a1 1 0 0 1-1 1 3 3 0 0 1 1 0v-1ZM118 56zM120 53ZM120 53ZM118 49a1 1 0 0 0 0-1v1ZM117 57h1-1ZM118 56a3 3 0 0 0-1 0 2 2 0 0 1 1 0ZM117 48v1-1ZM112 67ZM118 49h-1a2 2 0 0 1 1 0ZM118 49ZM125 64ZM69 86a5 5 0 0 1 0 1 2 2 0 0 1 0-1ZM68 87ZM40 53v1a5 5 0 0 1 1 0 4 4 0 0 1 1 1 4 4 0 0 1-1 0 2 2 0 0 1 0 1h-1a5 5 0 0 1 1 0v1a3 3 0 0 1 1-1 2 2 0 0 1 0 1 2 2 0 0 1 0 1 3 3 0 0 1 1-1 4 4 0 0 1-1 0 3 3 0 0 1 1 0 2 2 0 0 1 0-1 3 3 0 0 0-1 0 3 3 0 0 1 1 0 2 2 0 0 1-1 0 3 3 0 0 1 1 0l-1-1h1-1a4 4 0 0 1 0-1 4 4 0 0 1-1 0s1-1 2-1a3 3 0 0 1-1 0s1 0 1 0l-1-1a7 7 0 0 1-1 1 3 3 0 0 1-1 0ZM57 96a1 1 0 0 0-1 0h1Z"/><path fill="#73bf44" d="M119 51a3 3 0 0 1-1 0 3 3 0 0 1 1-1 4 4 0 0 1-1 0h-1a2 2 0 0 1 1 0h-1a4 4 0 0 1 1 0h-1a6 6 0 0 1-1 0 5 5 0 0 1 1 1 4 4 0 0 1-1 0 3 3 0 0 1 1 0l-1 1 2 1a6 6 0 0 1-1 0 6 6 0 0 1 0 1 2 2 0 0 1 0 1l-1-1a3 3 0 0 1 1 1 2 2 0 0 0-1 0 4 4 0 0 1 1 1 1 1 0 0 1 1 0 1 1 0 0 1 0-1 1 1 0 0 1 0-1 2 2 0 0 1 0-1 3 3 0 0 1 1 1 1 1 0 0 0-1-1 3 3 0 0 1 1 1 2 2 0 0 1 0-1 3 3 0 0 1 0 1 1 1 0 0 0 0-1 2 2 0 0 1 1 0h-1a2 2 0 0 1 1 0 1 1 0 0 1-1-1v1a4 4 0 0 1 0-1 4 4 0 0 1-1 0s1-1 1-1ZM71 63ZM113 67a4 4 0 0 1 1 0 6 6 0 0 1-1-1h1a2 2 0 0 1 0-1s0 0 0 1a6 6 0 0 1 1 0 4 4 0 0 1 0-1 4 4 0 0 1 1 0 3 3 0 0 1 0-1s0 1 0 1h1a1 1 0 0 1 0-1l-1-2a6 6 0 0 1 1 1 6 6 0 0 1 0-1 2 2 0 0 1 1 0 1 1 0 0 1 0-1v1a4 4 0 0 1 0-1 4 4 0 0 1-1 0 3 3 0 0 1 1-1 4 4 0 0 1 0-1 3 3 0 0 1 0-1 3 3 0 0 1-1 0 3 3 0 0 1 1 0 8 8 0 0 0-1 0h-1a2 2 0 0 1 1 0 5 5 0 0 1 0 1 6 6 0 0 1-1 0 6 6 0 0 1 1 1h-1a2 2 0 0 1 1 1h-1a7 7 0 0 1-1 0 4 4 0 0 1-1 0 3 3 0 0 1 1 1h-1l1 2a6 6 0 0 1-1-1 6 6 0 0 1-1 2v-1a2 2 0 0 1 0 1v-1a2 2 0 0 1 0 1 2 2 0 0 0-1 0 5 5 0 0 1 1 1 5 5 0 0 1-1 0 5 5 0 0 1 1 1 2 2 0 0 0-1 0 3 3 0 0 1 1 0 2 2 0 0 1 0-1v1ZM113 91ZM76 78h-1v-1a2 2 0 0 1 0 1ZM91 75v1a1 1 0 0 1 0-1ZM79 88ZM70 30a2 2 0 0 1 1 0 2 2 0 0 1-1 0ZM61 110ZM65 30a4 4 0 0 1 1 1v-1 1a2 2 0 0 1 0-1 5 5 0 0 1-1 0ZM62 35ZM107 70l1 1a1 1 0 0 1 0-1 1 1 0 0 1-1 0 2 2 0 0 1 1 0s-1 0-1 0ZM119 62a4 4 0 0 1-1 0l1 1v-1ZM108 42ZM108 42v1a7 7 0 0 1 0 1 5 5 0 0 1 1 0 4 4 0 0 1 0 1 3 3 0 0 1 0-1v1a1 1 0 0 1 1 0 2 2 0 0 1 0-1 1 1 0 0 0 0-1 3 3 0 0 1 0 1 3 3 0 0 1 0-1 3 3 0 0 1-1 0 3 3 0 0 1-1 0 3 3 0 0 1 0-1h-1v1a2 2 0 0 1 1-1ZM56 98ZM41 19ZM57 96a1 1 0 0 1-1-1v1h1ZM53 90ZM21 81ZM125 64ZM120 52v1-1Z"/><path fill="#73bf44" d="M119 63a2 2 0 0 1 0-1v1ZM100 90ZM112 67v1-1ZM119 63ZM102 72ZM99 90ZM100 90a3 3 0 0 1-1 0h1ZM103 108Z"/><path fill="#73bf44" d="M142 78a4 4 0 0 0-2 0 2 2 0 0 1 1-1 5 5 0 0 0-1 0 5 5 0 0 0-1 0 2 2 0 0 1 1-1 3 3 0 0 0-1 0h1a2 2 0 0 0 0-1 6 6 0 0 0 0-1 6 6 0 0 0 1 0l-2-1h1a2 2 0 0 0-1-1 4 4 0 0 0 1 0 5 5 0 0 0-1 0 1 1 0 0 0 0-1 6 6 0 0 0 1 0h1a3 3 0 0 0-1-1h1a6 6 0 0 0-2-1 6 6 0 0 0 1-1 5 5 0 0 0-1 0 3 3 0 0 0 0-1 5 5 0 0 0 0 1 3 3 0 0 0 0-1h-1a3 3 0 0 0 0-1 4 4 0 0 0-1 1 1 1 0 0 1 0-1 5 5 0 0 0-1 1v-1a5 5 0 0 0 0 1 2 2 0 0 1 0-1s0 0 0 1a3 3 0 0 0-1 0l1-1a2 2 0 0 0-1 0 6 6 0 0 0-1 0 6 6 0 0 0 0-2s-1 1-1 2a1 1 0 0 0-1 0v-1a3 3 0 0 0 0 1 4 4 0 0 0 0-1 5 5 0 0 0-1 0 7 7 0 0 0 0-1v-1a2 2 0 0 0 1-1s-1 0-1 0h1a1 1 0 0 1-1 0 3 3 0 0 0 1 0 3 3 0 0 0 1 0 2 2 0 0 0 0-1v1a1 1 0 0 1 0-1 2 2 0 0 0 0-1 3 3 0 0 0 1 0 4 4 0 0 0-1 0 4 4 0 0 0 0-1h-1a3 3 0 0 0 1-1 2 2 0 0 0-1 0 2 2 0 0 0 1 0h-1a1 1 0 0 0 0-1l1-1a4 4 0 0 0-1 1 4 4 0 0 0 0-1 3 3 0 0 0 0-1 3 3 0 0 0 0-1 4 4 0 0 1-1 0 3 3 0 0 0 0-1 4 4 0 0 0-1 0 4 4 0 0 0 1-1l-1 1a1 1 0 0 0 0-1v1a5 5 0 0 0-1 0 3 3 0 0 0 0-1h1-1a3 3 0 0 0 2 0 5 5 0 0 0-1 0 4 4 0 0 0 1-1 1 1 0 0 1 0-1 3 3 0 0 0 1 0 3 3 0 0 0 1 0 2 2 0 0 0-1 0h1a2 2 0 0 0 0-1 2 2 0 0 0 0-1 4 4 0 0 0-1 0 4 4 0 0 0 1-1h-1a3 3 0 0 0 1-1 2 2 0 0 0-1 0l1-1a4 4 0 0 0-1 0 4 4 0 0 0 0-1h-1 1a1 1 0 0 1-1 0 3 3 0 0 0 1-1h-1a3 3 0 0 0 1 0 1 1 0 0 1-1 0 3 3 0 0 0 1-1 2 2 0 0 0-1 0 3 3 0 0 0 1 0h-1a4 4 0 0 0-1 0 4 4 0 0 0 0-1 1 1 0 0 0 0-1v1a4 4 0 0 0-1 0 3 3 0 0 0 0-1 2 2 0 0 0 0 1 2 2 0 0 0 0-1l-1 1a1 1 0 0 0 0-1v-1h1-1a2 2 0 0 0 1 0 3 3 0 0 0-1-1 1 1 0 0 1 1 0 3 3 0 0 0-1 0v-1a4 4 0 0 0 0-1 4 4 0 0 0 1 0h-1a1 1 0 0 0-1-1h1a2 2 0 0 0-1 0 3 3 0 0 0 1 0 4 4 0 0 0 0-1h1a1 1 0 0 0-1 0 4 4 0 0 0 0-1 2 2 0 0 0-1-1 1 1 0 0 1 0-1v1a2 2 0 0 0 0-1 3 3 0 0 0-1 1 1 1 0 0 1 0-1 3 3 0 0 0 0 1v-1a3 3 0 0 0-1 1 1 1 0 0 1 0-1s0 0 0 1v-1a4 4 0 0 0-1 0 4 4 0 0 0 0-1l-1 1a3 3 0 0 0 0-1 3 3 0 0 0 0 1 1 1 0 0 0-1 0 4 4 0 0 0 0-1 4 4 0 0 0-1 0 4 4 0 0 0 0-1 3 3 0 0 0 0 1 1 1 0 0 0-1 0 4 4 0 0 1 0-1 3 3 0 0 0 0 1 1 1 0 0 1-1-1 1 1 0 0 1 0-1 2 2 0 0 0 1 0 3 3 0 0 0-1 0 3 3 0 0 0 0-1 2 2 0 0 0 0-1v1l-1-1a2 2 0 0 1 1 0 3 3 0 0 0-1 0l1-1a2 2 0 0 0-1 0h1a4 4 0 0 0-1 0 4 4 0 0 0 1-1 3 3 0 0 0-1 0l1-1a4 4 0 0 0-1 0 3 3 0 0 0 1 0 3 3 0 0 0-1 0 1 1 0 0 1 0-1 3 3 0 0 0-1 1v-1a2 2 0 0 0 0-1v1a4 4 0 0 0-1-1 4 4 0 0 0 1-1l-1 1v-1a2 2 0 0 0-1 0 3 3 0 0 0 1 0 3 3 0 0 0-1 0 5 5 0 0 0 0-1h1a2 2 0 0 0-1 0l1-1a4 4 0 0 0-1 0 4 4 0 0 0 0-1 3 3 0 0 0-1 1 2 2 0 0 0 0-1 2 2 0 0 0 0-1 3 3 0 0 0-1 1 1 1 0 0 1 0-1 3 3 0 0 0 0 1 3 3 0 0 0-1-1 3 3 0 0 0 0 1 1 1 0 0 1 0-1s0 0 0 1a2 2 0 0 0 0-1h-1v-1a2 2 0 0 0 0 1v-1a4 4 0 0 0-1 1 4 4 0 0 0 0-2 3 3 0 0 0 0 1 1 1 0 0 0-1 0 4 4 0 0 1 0-1 3 3 0 0 0 0-1 3 3 0 0 0 0 1 1 1 0 0 1-1 0 3 3 0 0 0 0 1 1 1 0 0 1 0-1s0 0-1 0h1a2 2 0 0 0-1 0 4 4 0 0 0-1 0 4 4 0 0 0 1-1l-1 1a1 1 0 0 0-1 0 3 3 0 0 0 0-1 3 3 0 0 0 0 1 1 1 0 0 0-1 0 4 4 0 0 0 0-1 4 4 0 0 0-1 0 4 4 0 0 0 0-1 3 3 0 0 0 0 1 2 2 0 0 0-1 0 1 1 0 0 1-1 0h1-1a2 2 0 0 0 0-1 3 3 0 0 0 0 1 1 1 0 0 1 0-1 4 4 0 0 0 0 1 3 3 0 0 0-1 0v-1l-1 1v-1a2 2 0 0 0-1 1v-1a3 3 0 0 0 0 1 1 1 0 0 0-1 0v-1 1a1 1 0 0 0 0-1h1a2 2 0 0 0-1 0 4 4 0 0 0 1-1 5 5 0 0 0-1 0 6 6 0 0 0 1-1h1a2 2 0 0 0-1 0h1a6 6 0 0 0-2-1 6 6 0 0 0 1-1 5 5 0 0 0-1 0 3 3 0 0 0 0-2 5 5 0 0 0 0 1 4 4 0 0 0-1-1h1-1a4 4 0 0 0 0-1 4 4 0 0 0-1 1 2 2 0 0 1 0-1 5 5 0 0 0-1 1h-1 1a2 2 0 0 0-1-1 6 6 0 0 0-1 0 6 6 0 0 0 0-1l-1 1a1 1 0 0 0-1 1V5a4 4 0 0 0 0-1 5 5 0 0 0-1 1 6 6 0 0 0 0-1V3a2 2 0 0 0-1 0 6 6 0 0 0-1 1 6 6 0 0 0-1-2 5 5 0 0 0 0 1 2 2 0 0 0 0 1V3a7 7 0 0 1-1-1 4 4 0 0 0-1 1 2 2 0 0 1 0-1 5 5 0 0 0 0 1h-1a4 4 0 0 0 0 1 4 4 0 0 1 0-1 3 3 0 0 0 0-1 5 5 0 0 0 0 1 1 1 0 0 0 0-1 6 6 0 0 0-1 0l1-1a2 2 0 0 0-1 0 6 6 0 0 0-1 0 6 6 0 0 0-1-1 5 5 0 0 0 0 1 3 3 0 0 0-1 0 3 3 0 0 0-1 0 4 4 0 0 0-1 0 4 4 0 0 0 0 1 2 2 0 0 0-1 1 1 1 0 0 0 0-1V1a3 3 0 0 0 0 1V1a2 2 0 0 0-1 1V1a6 6 0 0 0 0 2 6 6 0 0 0-2-1s1 1 1 2a1 1 0 0 0 1 0h-1a3 3 0 0 0 0 1 4 4 0 0 0-1-1 5 5 0 0 0 0 1 6 6 0 0 0-1 0h-1a2 2 0 0 0 1 0h-1a6 6 0 0 0 1 2 4 4 0 0 0-1 0V6a2 2 0 0 0 0 1V6a6 6 0 0 0-1 1 6 6 0 0 0-1-1 5 5 0 0 0 0 1 2 2 0 0 0 0 1l-1-1V6v1a4 4 0 0 0-1-1 4 4 0 0 0 0 1 5 5 0 0 0 0 1h-1v1a6 6 0 0 0-1-1l1 2h-1a3 3 0 0 0 0 1 4 4 0 0 0 0-1 5 5 0 0 0 0 1 4 4 0 0 0-1 0l-1-1a3 3 0 0 0 0 1 3 3 0 0 0-1 0 2 2 0 0 0 0-1v1-2a5 5 0 0 0-1 1 5 5 0 0 0 0-1 2 2 0 0 0-1-1s0 1 0 1a1 1 0 0 0 0 1 2 2 0 0 0-1-1h1a1 1 0 0 1-1 0 3 3 0 0 0 0-1 3 3 0 0 0-1 1V8v1a4 4 0 0 0 0-1 3 3 0 0 0-1 1 4 4 0 0 0-1-1 5 5 0 0 0 0 1 5 5 0 0 0-1 0 2 2 0 0 0-1 0h1a5 5 0 0 0 0 1 4 4 0 0 0-1 0 3 3 0 0 0 0 1 4 4 0 0 0 0-1 1 1 0 0 1-1 1 3 3 0 0 0 0-1 4 4 0 0 0-1 0 2 2 0 0 0 0-1v1a2 2 0 0 0-1-1 5 5 0 0 0-1 1 5 5 0 0 0 0-1 2 2 0 0 0-1 0v1a1 1 0 0 0 0 1 4 4 0 0 0-1-1 4 4 0 0 0 0 1 2 2 0 0 0 0-1v1l-2-1a5 5 0 0 0 1 1 5 5 0 0 0-2 0h1a2 2 0 0 0-1 0l1 1a2 2 0 0 0-1 0 3 3 0 0 0 0-1 2 2 0 0 1 0 1 4 4 0 0 0 0-1 4 4 0 0 0-1 1 4 4 0 0 0 0-1 1 1 0 0 1 0 1 3 3 0 0 0-1-1 3 3 0 0 0 0 1v-1a1 1 0 0 1 0 1 3 3 0 0 0-1 0 3 3 0 0 0 0 1 5 5 0 0 0-1 0 5 5 0 0 0 1 1 5 5 0 0 0-1 0 2 2 0 0 0 0 1 6 6 0 0 0 1 1 4 4 0 0 0-1 0 4 4 0 0 0 1 0 2 2 0 0 0 0 1l-2 1a5 5 0 0 0 0 1 3 3 0 0 0-2-1 5 5 0 0 0 1 1 3 3 0 0 0-1 0 4 4 0 0 0-1 0 4 4 0 0 0 0 1v-1a2 2 0 0 0 0 1 1 1 0 0 1-1-1v1-1a3 3 0 0 0 0 1l-1-1a2 2 0 0 0 0 1v-1a6 6 0 0 0-1 1 6 6 0 0 0-1-1l1 3-1-1a3 3 0 0 0 1 1 4 4 0 0 0-1 0 5 5 0 0 0 0 1 6 6 0 0 0-1 0l-1-1a2 2 0 0 0 0 1 6 6 0 0 0 1 1 5 5 0 0 0-1 0v-1a2 2 0 0 0-1 1 6 6 0 0 0 0 1 6 6 0 0 0-1-1 6 6 0 0 0 0 1 2 2 0 0 0-1 0l-1-1a4 4 0 0 0 0 1 2 2 0 0 1-1 0 5 5 0 0 0 0 1 6 6 0 0 0-1-1l1 3h-1v-1a2 2 0 0 0 0 1 4 4 0 0 0-1 0 4 4 0 0 0 1 1 2 2 0 0 0-1 0 7 7 0 0 0-1 0v-1a2 2 0 0 0 0 1 6 6 0 0 0 0 1 6 6 0 0 0-2 0 5 5 0 0 0 1 1 3 3 0 0 0-1 1 5 5 0 0 0 1 0 1 1 0 0 1 0 1 4 4 0 0 0-1 1 4 4 0 0 0 1 0 5 5 0 0 0 1 0 5 5 0 0 0 1 0 2 2 0 0 1-1 1h1-1a2 2 0 0 0 0 1 4 4 0 0 0-1-1 5 5 0 0 0 0 1 7 7 0 0 0-1-1 2 2 0 0 0 0 1l-1-1a6 6 0 0 0 0 2 6 6 0 0 0-1-1 5 5 0 0 0 0 1 2 2 0 0 0 0 1 5 5 0 0 0 0 1 4 4 0 0 0-1-1 4 4 0 0 0 0 2 2 2 0 0 1 0-1 5 5 0 0 0 0 1 5 5 0 0 0 0 1 3 3 0 0 0-1-1 6 6 0 0 0-1 0v-1a2 2 0 0 0 0 1l-1-1a6 6 0 0 0 0 1 6 6 0 0 0-1 0 6 6 0 0 0 0 1 3 3 0 0 0-1 0 4 4 0 0 0 0 1l-1-1v1a4 4 0 0 0-1 0 4 4 0 0 0 1 1 2 2 0 0 0 0 1l-1-1a3 3 0 0 0 0 1l-1-1a2 2 0 0 0 1 1h-1a6 6 0 0 0 0 1 6 6 0 0 0-1 0l2 1v1h-1a3 3 0 0 0 1 0 4 4 0 0 0-1 0 5 5 0 0 0 1 1 6 6 0 0 0-1 0H9a2 2 0 0 0 1 1H9a6 6 0 0 0 1 1 6 6 0 0 0-1 1 5 5 0 0 0 1 0 4 4 0 0 0-1 0 4 4 0 0 0 1 1 5 5 0 0 0 1 0 2 2 0 0 1 0 1 2 2 0 0 0 0 1l1 2a3 3 0 0 0 0 1v1a5 5 0 0 0 1 0h-1a3 3 0 0 0 1 0 4 4 0 0 0 0 1 2 2 0 0 0-1 0 3 3 0 0 0 0 1v1l-1-1v1a4 4 0 0 0 0 1v-1a2 2 0 0 0 0 1 4 4 0 0 0 0 1 4 4 0 0 0-1 0 1 1 0 0 0 1 0h-1a3 3 0 0 0 0 1 2 2 0 0 0-1 0 3 3 0 0 0 1 0 1 1 0 0 1-1 0 3 3 0 0 0 1 1 2 2 0 0 0 0 1v-1a4 4 0 0 0 0 1 4 4 0 0 0-1 0l1 1H9a2 2 0 0 0 1 1 3 3 0 0 0-1 0 3 3 0 0 0 1 0H9a2 2 0 0 0 0 1 4 4 0 0 0-1 1 3 3 0 0 0 1 0 1 1 0 0 0 0 1 3 3 0 0 0 0 1 4 4 0 0 0 1 0 3 3 0 0 0-1 0 3 3 0 0 0 1 0 2 2 0 0 0 0 1H9h1v1a1 1 0 0 0 1 0 3 3 0 0 0-1 0 3 3 0 0 0 1 0l-1 1a3 3 0 0 0 1-1v1h-1a2 2 0 0 0 1 0l-1 1a4 4 0 0 0 1 0 4 4 0 0 0 0 1 4 4 0 0 0 1-1v1h-1 1a3 3 0 0 0 0 1 3 3 0 0 0 0-1 1 1 0 0 1 0 1 3 3 0 0 0 1-1 3 3 0 0 0 0 1 3 3 0 0 0 0-1 1 1 0 0 1 0 1v-1a2 2 0 0 0 1 1h-1a2 2 0 0 0 1 0h-1a4 4 0 0 0 1 0 4 4 0 0 0 0 1l1-1v1a2 2 0 0 0 1 0 3 3 0 0 0-1 0 3 3 0 0 0 1 0 4 4 0 0 0 0 1 4 4 0 0 0 1 0 4 4 0 0 0 0 1 4 4 0 0 0 0-1 2 2 0 0 0 1 1 2 2 0 0 0 0 1 3 3 0 0 0 1-1 3 3 0 0 0 1 0 2 2 0 0 0 1 1 4 4 0 0 0-1-1 5 5 0 0 0 0 1 7 7 0 0 0-1 0l-1-1a2 2 0 0 0 0 1 6 6 0 0 0 0 1 6 6 0 0 0-1 0 5 5 0 0 0 1 1 3 3 0 0 0-1 1 3 3 0 0 0 0 1 4 4 0 0 0-1 1 4 4 0 0 0 2 0 2 2 0 0 1-1 0 5 5 0 0 0 1 0v1a5 5 0 0 0 1 0 2 2 0 0 0 0 1l-1-1a2 2 0 0 0 1 1 6 6 0 0 0 0 1 6 6 0 0 0-1 1s2 0 2 0a1 1 0 0 0 1 0h-1a3 3 0 0 0 1 1 4 4 0 0 0-1 0 5 5 0 0 0 1 0 7 7 0 0 0 0 1l-1 1a2 2 0 0 0 1 0h-1a6 6 0 0 0 2 0 6 6 0 0 0-1 2 5 5 0 0 0 1-1 2 2 0 0 0 1 0l-1 1a3 3 0 0 0 1 0 5 5 0 0 0 1 0 4 4 0 0 0-1 1 4 4 0 0 0 2-1 2 2 0 0 1-1 1 5 5 0 0 0 1-1 4 4 0 0 0 0 1 4 4 0 0 0 1-1v1a3 3 0 0 0-1 0v1l-1 1a2 2 0 0 0 1 0h-1a6 6 0 0 0 2 1 6 6 0 0 0-1 1 5 5 0 0 0 1 0 3 3 0 0 0 0 1 5 5 0 0 0 0-1 5 5 0 0 0 1 1 4 4 0 0 0 0 1 4 4 0 0 0 1-1v1a2 2 0 0 0 1 0h-1a3 3 0 0 0 1 0l-1 1a2 2 0 0 0 1 0 6 6 0 0 0 1 0 6 6 0 0 0 0 2s1-2 1-3h1v1a3 3 0 0 0 0-1 4 4 0 0 0 0 1 5 5 0 0 0 1 0 6 6 0 0 0 1 1 6 6 0 0 0 1-1 6 6 0 0 0 1 1 4 4 0 0 0 1-1 2 2 0 0 1 0 1 5 5 0 0 0 0-1h1a4 4 0 0 0 0-1 2 2 0 0 1 0 1 2 2 0 0 0 0 1 3 3 0 0 0 1 0 1 1 0 0 1 0 1 4 4 0 0 0 0 1h1v1a4 4 0 0 0 0 1 4 4 0 0 0 1 0 4 4 0 0 0-1 1 3 3 0 0 0 1 0 2 2 0 0 0 1 0 3 3 0 0 0 0 1 3 3 0 0 0 1 0 1 1 0 0 0 0 1h-1a2 2 0 0 0 1 0h-1a4 4 0 0 0 1 1 4 4 0 0 0 0 1 3 3 0 0 0 0-1 2 2 0 0 0 1 1 2 2 0 0 0 0 1 3 3 0 0 0 1-1 2 2 0 0 0 0 1v1a1 1 0 0 0 1-1l-1 1a4 4 0 0 0 1 0l1-1v1a2 2 0 0 0 0-1 2 2 0 0 0 1 1 3 3 0 0 0 0-1 4 4 0 0 0 0 1 1 1 0 0 0 1 0 4 4 0 0 0 1 0 3 3 0 0 0 1-1 2 2 0 0 0 1 0h-1a4 4 0 0 0 1 0 4 4 0 0 0 0 1 2 2 0 0 0 0 1h1a3 3 0 0 0-1 0 2 2 0 0 0 1 0l-1 1a3 3 0 0 1 1 0 2 2 0 0 0-1 0h1a4 4 0 0 0-1 0 5 5 0 0 0 1 1 3 3 0 0 0-1 1 4 4 0 0 0 1 0 4 4 0 0 0 0 1v-1a2 2 0 0 0 0 1 4 4 0 0 0 1 0 2 2 0 0 0-1 0 3 3 0 0 0 1 0 2 2 0 0 0 0 1l-1 1a4 4 0 0 0 1 0h1a2 2 0 0 0 0 1v-1a2 2 0 0 0 0 1v-1a1 1 0 0 0 1 0 3 3 0 0 0-1 1 2 2 0 0 0 1 0 2 2 0 0 0 1 0 3 3 0 0 0-1 0 2 2 0 0 0 1 0 3 3 0 0 0 0 1 3 3 0 0 0 1-1 4 4 0 0 0 1 1l-1-1a2 2 0 0 0 1 1v-1a2 2 0 0 0 1-1 3 3 0 0 0 1 1 1 1 0 0 1 0-1 2 2 0 0 0 0 1 3 3 0 0 0 1 0 2 2 0 0 0 1 0h-1a1 1 0 0 0 1 0 4 4 0 0 0 1 0 2 2 0 0 0 0-1 2 2 0 0 0 1 0h-1v-1a3 3 0 0 0 2 1 5 5 0 0 0-1-1 4 4 0 0 0 1 0 2 2 0 0 0 0-1 3 3 0 0 0 1 0 3 3 0 0 0 1 0 2 2 0 0 0-1-1l1 1a1 1 0 0 1 0-1 2 2 0 0 0 0-1v1s2-1 1-2a1 1 0 0 0 1-1v1a5 5 0 0 0 1 0 6 6 0 0 0 1 1v1a2 2 0 0 0 0-1 6 6 0 0 0 1-1 6 6 0 0 0 1 1 4 4 0 0 0 0 1 4 4 0 0 0 1-2 2 2 0 0 1 0 1 5 5 0 0 0 0-1h1a5 5 0 0 0 0-1 2 2 0 0 1 0 1 4 4 0 0 0 0-1 3 3 0 0 0 1 0l-1 1a2 2 0 0 0 1-1v1l2-2 1 1a2 2 0 0 0 0-1 5 5 0 0 0 0 1 5 5 0 0 0 1-1l1 1a5 5 0 0 0-1-1h1a3 3 0 0 0 0-1 4 4 0 0 0 0 1 5 5 0 0 0 0-1h1v1a3 3 0 0 0 0-1 4 4 0 0 0 1 0h1a3 3 0 0 0 1 0 2 2 0 0 0-1 0 3 3 0 0 0 1 1 4 4 0 0 0-1 0 2 2 0 0 0 0 1 4 4 0 0 0 1 0 3 3 0 0 0-1 1 3 3 0 0 0 1 0 3 3 0 0 0 1 0 1 1 0 0 1 0 1v-1a2 2 0 0 0 0 1 3 3 0 0 0 1-1 2 2 0 0 0 0 1v1a4 4 0 0 0 1 0 4 4 0 0 0 0 1l1-2v1a2 2 0 0 0 0-1 3 3 0 0 0 0 1 3 3 0 0 0 1 0v1a1 1 0 0 0 0-1 4 4 0 0 0 1 0 2 2 0 0 0 1 1 3 3 0 0 0 0-1 3 3 0 0 0 0-1 3 3 0 0 0 0 1 3 3 0 0 0 0-1 1 1 0 0 1 1 0v1a2 2 0 0 0 0-1v1l2-2v1a2 2 0 0 0 0-1 2 2 0 0 0 0 1 3 3 0 0 0 1-1 1 1 0 0 0 0 1 4 4 0 0 0 1 0 3 3 0 0 0-1 1h2a3 3 0 0 0-1 1l1-1a6 6 0 0 0 1 1 6 6 0 0 0 1 1s0 0 0-1a3 3 0 0 0 0 1l1-1a3 3 0 0 0 0 1 5 5 0 0 0 2 1 3 3 0 0 0 1 0l-1-1a7 7 0 0 0 1-1 6 6 0 0 0 0 1 4 4 0 0 0 0-1 3 3 0 0 0 1 0v-1l2 1a6 6 0 0 0-1-1 6 6 0 0 0 1 0 2 2 0 0 0 1 1s0 0 0-1a2 2 0 0 0 0 1v-1a2 2 0 0 0 1 0 3 3 0 0 0-1 1 2 2 0 0 0 1 0 3 3 0 0 0 1 0 3 3 0 0 0-1 0 2 2 0 0 0 1 0 3 3 0 0 0 0 1 4 4 0 0 0 1-1 4 4 0 0 0 0 1v-1a2 2 0 0 0 1 1v-1a2 2 0 0 0 0-1 2 2 0 0 0 1 0 3 3 0 0 0 0 1 1 1 0 0 1 1-1 3 3 0 0 0 0 1 3 3 0 0 0 1 0 2 2 0 0 0 1 0 4 4 0 0 0 1 0h-1a2 2 0 0 0 1 0 2 2 0 0 0 0-1 2 2 0 0 0 1 0h-1v-1a3 3 0 0 0 2 1 5 5 0 0 0-1-1 4 4 0 0 0 1 0 2 2 0 0 0 0-1 3 3 0 0 0 1 0 3 3 0 0 0 1 0 2 2 0 0 0-1-1l1 1a1 1 0 0 1 0-1 2 2 0 0 0 0-1 4 4 0 0 0-1 0 4 4 0 0 0 1-1h-1a3 3 0 0 0 1-1 2 2 0 0 0-1 0 1 1 0 0 0 0-1l1-1a4 4 0 0 0-1 1 4 4 0 0 0 0-1h-1l1-1a1 1 0 0 1-1 0 3 3 0 0 0 1 0 3 3 0 0 0-1 0 3 3 0 0 0 1 0 1 1 0 0 1-1 0 3 3 0 0 0 1-1 2 2 0 0 0-1 0 3 3 0 0 0 1 0 4 4 0 0 1-1 0 3 3 0 0 0 0-1 4 4 0 0 0-1 0 3 3 0 0 0 0-1 2 2 0 0 1 0 1 2 2 0 0 0 0-1 2 2 0 0 0 1 0v1l1-1h2a2 2 0 0 0 0-1 2 2 0 0 0 0 1 3 3 0 0 0 0-1h2a2 2 0 0 0 1-1v1-1a3 3 0 0 0 0-1 3 3 0 0 0 0-1 1 1 0 0 1 0 1v-1a2 2 0 0 0 1 0 4 4 0 0 0 0-1 3 3 0 0 0 1 1l-1-1a1 1 0 0 0 0-1v1a2 2 0 0 0 0-1 2 2 0 0 0 1 0 3 3 0 0 0-1 0 1 1 0 0 0 1 0h1a2 2 0 0 0-1-1h1a4 4 0 0 0-1 0 4 4 0 0 0 1-1 1 1 0 0 0-1 0h1a2 2 0 0 0 1-1 3 3 0 0 0-1 0 3 3 0 0 0 0-1 4 4 0 0 0 0-1 3 3 0 0 0 1 0l-2-1h1a2 2 0 0 0-1 0 2 2 0 0 0 1 0 3 3 0 0 0-1-1 1 1 0 0 0 1 0 2 2 0 0 0 0-1 4 4 0 0 0-1 0 3 3 0 0 0 1-1 2 2 0 0 0-1-1 3 3 0 0 0 0 1 2 2 0 0 0 0-1 1 1 0 0 0 0-1v1a3 3 0 0 0 1 0 1 1 0 0 0 1 0h1a5 5 0 0 0-1-1l1 1a3 3 0 0 0-1-1 4 4 0 0 0 1 0 5 5 0 0 0 0-1v1h1a3 3 0 0 0 0-1 4 4 0 0 0 1 1 4 4 0 0 0 0-1v1-1a2 2 0 0 1 1 0 5 5 0 0 0-1 0h2-1a2 2 0 0 0 1-1v1-1a4 4 0 0 0 1 0 4 4 0 0 0-1-1 2 2 0 0 1 1 0 5 5 0 0 0-1-1 5 5 0 0 0 1 0 5 5 0 0 0-1-1 2 2 0 0 1 1 0 3 3 0 0 0 0-1v1a2 2 0 0 0 0-1v1a6 6 0 0 0 1-2 6 6 0 0 0 1 1l-1-2h1a3 3 0 0 0-1-1 4 4 0 0 0 1 1 4 4 0 0 0 0-1 7 7 0 0 0 1 0h1a2 2 0 0 0-1-1h1a6 6 0 0 0-1-1 6 6 0 0 0 1 0 6 6 0 0 0 0-1 2 2 0 0 0-1 0h1a6 6 0 0 1 1 0s0 0 0-1a4 4 0 0 0 1 0Zm-12-14a2 2 0 0 0-1 0 2 2 0 0 0 1 0Zm-1 0Zm-23 26a3 3 0 0 1 0-1 2 2 0 0 0-1-1h1a3 3 0 0 0-1 0h2v-1l1 1-1-1a2 2 0 0 0 1 0v1-1a2 2 0 0 0 1 0 3 3 0 0 0-1-1 3 3 0 0 0 0-1h1a2 2 0 0 0 1 0 5 5 0 0 0 1 0 4 4 0 0 0-1 1 4 4 0 0 0 2 0 2 2 0 0 1-1 0 5 5 0 0 0 1 0 5 5 0 0 0 1 0 3 3 0 0 0-1 1 7 7 0 0 0 0 1h-1a2 2 0 0 0 1 0l-1 1a6 6 0 0 0 1 0 6 6 0 0 0 0 1 5 5 0 0 0 1 0 3 3 0 0 0 0 1 3 3 0 0 0-1 0 4 4 0 0 0-1-1s-1 0-1 1v-1a3 3 0 0 0-1 0v-1a4 4 0 0 0-1 1 4 4 0 0 0 0-1 2 2 0 0 0-1 1v-1a2 2 0 0 0 0-1 3 3 0 0 0-1 1 3 3 0 0 0 0 1Zm-11 10Zm-2-10Zm-2 10ZM76 78a1 1 0 0 0 0 1v-1a2 2 0 0 0 0 1 3 3 0 0 0-1 0h-1a4 4 0 0 0 0 1 3 3 0 0 0-1 0 1 1 0 0 0 0-1h1a3 3 0 0 0-1 0 4 4 0 0 0 1 0 5 5 0 0 0 0-1 7 7 0 0 0 1 0 2 2 0 0 0 1 0Zm0 8Zm-2-6Zm-3 5Zm-9 25Zm-7-12Zm-1-8a1 1 0 0 0 0 1v-1Zm7-54Zm13-4Zm6 2Zm25 37a3 3 0 0 0 1-1 4 4 0 0 0 0 1 5 5 0 0 0 0-1 1 1 0 0 0 1 1 5 5 0 0 0 0 1 7 7 0 0 0-1 0l-1-1a4 4 0 0 0-1 1 3 3 0 0 0 0-1 2 2 0 0 0 1-1v1Zm3 16Zm-29 1Zm-3-10Zm-17 31a4 4 0 0 1 0 1 3 3 0 0 0 0-1 1 1 0 0 0-1 0h1a3 3 0 0 0 0-1 5 5 0 0 0 1 0 4 4 0 0 0-1 1ZM47 49h1a2 2 0 0 0-1 0Zm3-2h1v1a3 3 0 0 0-1 0 4 4 0 0 0 0-1Zm13-13a2 2 0 0 0 0-1h1a2 2 0 0 1-1 0 4 4 0 0 0 1 0 2 2 0 0 0 0 1 4 4 0 0 0 0-1 5 5 0 0 0 0 1 4 4 0 0 0-1 0Zm11 27a2 2 0 0 0 0 1 3 3 0 0 0-1 0 1 1 0 0 0 0 1l-1-1a4 4 0 0 0 1-1 4 4 0 0 0 0 1 5 5 0 0 0 0-1 2 2 0 0 1 0 1 4 4 0 0 0 0-1 2 2 0 0 0 1 0l-1 1a3 3 0 0 0 1-1Zm6-2Zm1-25Zm9 7a2 2 0 0 0 0 1 3 3 0 0 0 1-1 3 3 0 0 0 1 0l1 2a1 1 0 0 0 1 1h-1v-1a3 3 0 0 0 0 1 4 4 0 0 0-1 0 6 6 0 0 0-1 1l-1-1a2 2 0 0 0 1 1h-1a6 6 0 0 0 1 1 4 4 0 0 0-1 0v-1a2 2 0 0 0 0 1 5 5 0 0 0-1 0 5 5 0 0 0-1-1h1a5 5 0 0 0-1 0v-1h1a2 2 0 0 0-1 0h1a6 6 0 0 0-1-2 6 6 0 0 0 2 0l-2-1a1 1 0 0 0-1 0h1a4 4 0 0 0 0-1 3 3 0 0 0 1 0 4 4 0 0 0 0 1 3 3 0 0 0 0-1 2 2 0 0 0 1 1Zm5 32Zm-2 1-1-1v1a2 2 0 0 0 0-1 3 3 0 0 0 0 1 1 1 0 0 1-1 0 3 3 0 0 0 1 0h-1v1a4 4 0 0 0 0-1 3 3 0 0 0 0 1 4 4 0 0 0-1 0v-1a4 4 0 0 0-1 1 4 4 0 0 0 0-1 1 1 0 0 0-1 1v-1a1 1 0 0 0 0-1v1a1 1 0 0 0 1-1v1a3 3 0 0 0 0-1 3 3 0 0 0 1 0l-1-1a2 2 0 0 0 0-1 3 3 0 0 0 1 1 3 3 0 0 0-1-1 5 5 0 0 0 1 0h1a1 1 0 0 0-1 0h1a4 4 0 0 0-1-1h1-1 1a1 1 0 0 1 0 1v-1a4 4 0 0 0 0 2 4 4 0 0 0 1-2v1a2 2 0 0 0 1 0l-1 1a3 3 0 0 0 1 0h-1a2 2 0 0 0 1 0v1a6 6 0 0 0 1-1 5 5 0 0 0 0 1 3 3 0 0 0 0 1 4 4 0 0 0-1-1 3 3 0 0 0 0 1Zm-2 1Zm-15 3v-1 1Zm0-17h-1 1Zm-1 1h-1a3 3 0 0 0 1 0Zm13-22Zm0 0Zm-7 19a4 4 0 0 0 1 0 5 5 0 0 0 0-1 7 7 0 0 1 1 0 6 6 0 0 0-1 1 2 2 0 0 0 0 1 1 1 0 0 1 0-1 3 3 0 0 0 0 1 2 2 0 0 0 0-1 3 3 0 0 0-1 0Zm3 1Zm1-1-1 1a4 4 0 0 0 0-1 2 2 0 0 0 1 0Zm-1 1a2 2 0 0 0-1 0 3 3 0 0 0 0-1 3 3 0 0 0 1 0 3 3 0 0 0 0 1Zm-1-1Zm6-12Zm-7-14Zm-1 25Zm15 14Zm0 0Zm-1-31Zm0 31h1a2 2 0 0 0-1 0Zm1-30v-1a2 2 0 0 0 0 1Zm-3-1v1a4 4 0 0 0 1-1 6 6 0 0 0 0 1 5 5 0 0 0-1 0 1 1 0 0 0 0-1Zm0 1v-1 1ZM76 60Zm0 1Zm-33-3Zm3 4a2 2 0 0 0 0 1 2 2 0 0 0 0-1 3 3 0 0 0-1 0 1 1 0 0 0 1 0h-1a1 1 0 0 1 1 0Zm2 1v1a3 3 0 0 0 0-1Zm1 0Zm-5-3Zm3 3h-1a2 2 0 0 0 1 0Zm-4-3Zm4 3Zm0 0a6 6 0 0 0 0 1h-1l1-1Zm-1 0Zm-2-3a1 1 0 0 0 0 1v-1a2 2 0 0 0 0 1v-1Zm0 0Zm5 3a4 4 0 0 0 1 0 4 4 0 0 0-1 0Zm1-15Zm4-3Zm-2 0Zm4-6a1 1 0 0 0 1 0h-1Zm12 23a3 3 0 0 0 1 0 1 1 0 0 0-1 0Zm-8-5Zm-1 0h2v1a2 2 0 0 0-1 0 6 6 0 0 0-1 0 6 6 0 0 0 0-1 6 6 0 0 0-1 1 3 3 0 0 0 0-1 2 2 0 0 0 0-1v1l-1-1a3 3 0 0 0 1 0 3 3 0 0 0-1 0l1-1a5 5 0 0 0 0 1 2 2 0 0 1 1 0s0 1 0 1Zm-2-1v-1a2 2 0 0 0 0 1Zm7-23a3 3 0 0 0 1 0 1 1 0 0 1-1 0Zm-2 27a5 5 0 0 0 0 1l-1-1a4 4 0 0 0 1-1 4 4 0 0 0 0 1Zm-1-1v-1a2 2 0 0 0 0 1Zm-5-10h-1a3 3 0 0 0 1 0 4 4 0 0 0 0 1 6 6 0 0 0 0 1 3 3 0 0 0-1 0 4 4 0 0 0 0-1v1a2 2 0 0 0 0-1 4 4 0 0 0-1 0h-1l1-1a3 3 0 0 0 2 0Zm-6 13Zm18 25h-1 1Zm0 0Zm0-25Zm1 25Zm-4-55v-1 1Zm-3 2Zm-7 5a2 2 0 0 0 1 0 2 2 0 0 0 0 1v-1h-1Zm0 1Zm-4 7a7 7 0 0 1 1 0 2 2 0 0 0 0-1v1l1-1a4 4 0 0 0 1 0 5 5 0 0 0 0-1 2 2 0 0 1 0 1 2 2 0 0 0 1 0h-1a2 2 0 0 0 0 1 6 6 0 0 0 1 1 6 6 0 0 0-2 1 4 4 0 0 0 0-1v1a1 1 0 0 0-1 0h-1a3 3 0 0 0 0-1v-1a2 2 0 0 1 0 1 6 6 0 0 0 0-1Zm-1 1a2 2 0 0 0 0-1 4 4 0 0 0 0 1Zm-1 0Zm0 0a1 1 0 0 0 0 1 3 3 0 0 0-1-1 4 4 0 0 0 1 0Zm-1 1a3 3 0 0 0 0-1v1Zm0 0Zm-1 0v1a3 3 0 0 0-1-1 3 3 0 0 0 0 1l-2 1h1a2 2 0 0 0-1 0h1a2 2 0 0 0-1 0 1 1 0 0 1 0 1 3 3 0 0 0 0-1v1a3 3 0 0 0-1-1 1 1 0 0 1 0 1 3 3 0 0 0 0-1 2 2 0 0 0 0 1 6 6 0 0 0-1-1 6 6 0 0 0 2-1h-1l3-1a4 4 0 0 0 1 0Zm-4 3a2 2 0 0 0-1 0 3 3 0 0 0 1 0Zm0-2Zm0 0a2 2 0 0 0 1 0h-1Zm-2 3a7 7 0 0 0 1-1l1 1h-1a3 3 0 0 0 1 0l-2 1a4 4 0 0 0 1 0 4 4 0 0 0 0 1h1-1l1 1a3 3 0 0 0-1 0 2 2 0 0 0 1 0 3 3 0 0 0-1 0 3 3 0 0 1 1 0 2 2 0 0 0 0 1 3 3 0 0 0-1 0 4 4 0 0 0 1 0 3 3 0 0 0-1 1 2 2 0 0 0 0-1 2 2 0 0 0 0-1 3 3 0 0 0-1 1v-1a5 5 0 0 0-1 0h1a2 2 0 0 0 0-1 4 4 0 0 0 1 0 4 4 0 0 0-1-1 5 5 0 0 0-1 0v-1a3 3 0 0 0 1 0Zm16 43h-1a1 1 0 0 1 1 0Zm6 15a1 1 0 0 0 1-1v1a5 5 0 0 0 0-1v1a3 3 0 0 0-1 0Zm5-24Zm1 0a5 5 0 0 0 0-1 2 2 0 0 0 0 1Zm2-24Zm4 15h1-1a2 2 0 0 0 0-1v1Zm4 10Zm12-12v-1a1 1 0 0 0 0 1Zm34-12Zm-12 3a3 3 0 0 0-1 0 2 2 0 0 1 1 0 5 5 0 0 0-1-1 5 5 0 0 0 1 0 5 5 0 0 0-1-1 2 2 0 0 1 1 0 2 2 0 0 0 0-1v1a2 2 0 0 0 0-1v1a6 6 0 0 0 1-2 6 6 0 0 0 1 1l-1-2h1a3 3 0 0 0-1-1 4 4 0 0 0 1 0 7 7 0 0 0 1 0h1a2 2 0 0 0-1-1h1a6 6 0 0 0-1-1 6 6 0 0 0 1 0 5 5 0 0 0 0-1 2 2 0 0 0-1 0h1a8 8 0 0 1 1 0 3 3 0 0 0-1 0 3 3 0 0 0 1 0 3 3 0 0 0 0 1 4 4 0 0 0 0 1 3 3 0 0 0-1 1 4 4 0 0 0 1 0 4 4 0 0 0 0 1v-1a1 1 0 0 0 0 1 2 2 0 0 0-1 0 6 6 0 0 0 0 1 6 6 0 0 0-1-1l1 2a1 1 0 0 0 0 1h-1v-1a3 3 0 0 0 0 1 4 4 0 0 0-1 0 4 4 0 0 0 0 1 6 6 0 0 0-1 0v-1a2 2 0 0 0 0 1h-1a6 6 0 0 0 1 1 4 4 0 0 0-1 0v-1a2 2 0 0 0 0 1Zm6-15a4 4 0 0 0 0 1v-1a1 1 0 0 0 1 1 2 2 0 0 0-1 0h1a2 2 0 0 0-1 0 1 1 0 0 1 0 1 3 3 0 0 0 0-1 2 2 0 0 0 0 1 3 3 0 0 0-1-1 1 1 0 0 1 1 1 3 3 0 0 0-1-1 2 2 0 0 0 0 1 1 1 0 0 0 0 1 1 1 0 0 0 0 1 1 1 0 0 0-1 0 4 4 0 0 0-1-1 2 2 0 0 1 1 0 3 3 0 0 0-1-1l1 1a2 2 0 0 0 0-1 6 6 0 0 0 0-1 6 6 0 0 0 1 0l-2-1 1-1a3 3 0 0 0-1 0 4 4 0 0 0 1 0 5 5 0 0 0-1-1 6 6 0 0 0 1 0h1a4 4 0 0 0-1 0h1a2 2 0 0 0-1 0h1a4 4 0 0 0 1 0 3 3 0 0 0-1 1 3 3 0 0 0 1 0l-1 1a4 4 0 0 0 1 0Zm1 1Zm0 0Zm-2 4h-1 1Zm0-1Zm0 0a2 2 0 0 0-1 0 3 3 0 0 1 1 0Zm0-7v-1a1 1 0 0 1 0 1Zm-1 0h1a2 2 0 0 0-1 0Zm0 0Zm1-1Zm0 1Zm-1-1v1-1Zm-5 19Zm1 24Zm6-28-1-1a4 4 0 0 0 1 0v1Zm0 0Zm0-1a2 2 0 0 0 0 1v-1Zm1-9v-1 1Zm-18 19Zm-2 18Zm0 0h-1a3 3 0 0 0 1 0Zm-1 0Zm4 19Zm0-1Zm9-40v-1 1Zm13-4Zm-17-22Zm-1 0h1a3 3 0 0 0 0 1 3 3 0 0 0 1 0 3 3 0 0 0 1 0 3 3 0 0 0 0 1 3 3 0 0 0 0-1 1 1 0 0 1 0 1 2 2 0 0 0 0 1 1 1 0 0 0-1 0v-1a3 3 0 0 0 0 1 4 4 0 0 0 0-1 5 5 0 0 0-1 0 7 7 0 0 0 0-1v-1a2 2 0 0 0-1 1v-1Zm1 28a2 2 0 0 0-1 0 1 1 0 0 0 1 0 1 1 0 0 0 0 1l-1-1h1ZM71 30a2 2 0 0 0-1 0 2 2 0 0 0 1 0Zm-5 1v-1 1a4 4 0 0 0-1-1 5 5 0 0 0 1 0 2 2 0 0 0 0 1Zm-4 4ZM41 19ZM21 81Zm32 9Zm3 5a1 1 0 0 0 1 1h-1v-1Zm0 3Zm5 12Zm8-23Zm9 1a2 2 0 0 1-1 0 3 3 0 0 0 1 0Zm25 21Zm0 0v-1a4 4 0 0 0 1 0 3 3 0 0 0-1 1Zm1-1Zm0 0Zm7-3v1-1Zm1 2Zm17-55Zm-1-13a4 4 0 0 0 0 1 3 3 0 0 0 0-1Zm-9-9Zm0 0Zm-14 12a1 1 0 0 0 1-1v1a2 2 0 0 0 0-1 3 3 0 0 0 0 1 1 1 0 0 0 1 0 6 6 0 0 0-1 1 6 6 0 0 0 0-1 6 6 0 0 0-1 1 1 1 0 0 0 0-1Zm0 0a3 3 0 0 0 0 1v-1Zm-2 0Zm0 1ZM80 33a5 5 0 0 0 0 1 1 1 0 0 0-1-1 4 4 0 0 0 1 0Zm-2 0Zm-2-1a2 2 0 0 0 0 1v-1Zm-2 0Zm-4-7a2 2 0 0 1-1 1 5 5 0 0 0 1-1v1a5 5 0 0 0 1-1v1a3 3 0 0 0-2 0 5 5 0 0 0 1 0v1l-1 1a2 2 0 0 0 1 0h-1a6 6 0 0 0 1 1 6 6 0 0 0 0 1h-1a1 1 0 0 1-1 0h1-1a4 4 0 0 0-1 0 4 4 0 0 0 1 1 3 3 0 0 0-1 0 2 2 0 0 0 0 1 1 1 0 0 0 0-1v-1a2 2 0 0 0-1 1v-1a2 2 0 0 0 1 0l-1-1a4 4 0 0 0 0-1v-1h2a5 5 0 0 0-1 0 5 5 0 0 0 0-1 2 2 0 0 0 0-1 4 4 0 0 0 1 0 5 5 0 0 0 1 0 4 4 0 0 0-1 0 4 4 0 0 0 2 0Zm-9 9a1 1 0 0 0 0 1v-1Zm0 1v1a3 3 0 0 0 0-1Zm0 1a5 5 0 0 0-1 0 1 1 0 0 0 0-1 4 4 0 0 0 1 1ZM41 18v1a6 6 0 0 0-1-1 5 5 0 0 0 1 0ZM24 36a1 1 0 0 1-1 0v-1a2 2 0 0 0 1 1Zm-3 45Zm17 23a3 3 0 0 0 0-1 2 2 0 0 0 0 1Zm12-8 1-1a4 4 0 0 0-1 1 6 6 0 0 0 0-1 5 5 0 0 0 1 1 1 1 0 0 0-1 0Zm1 1a2 2 0 0 0 0-1 3 3 0 0 0 0 1 4 4 0 0 0 0-1l-1-2v-1l1 1a3 3 0 0 0-1-1 4 4 0 0 0 1 0 5 5 0 0 0 0-1 7 7 0 0 0 1 0l1 1a2 2 0 0 0-1-1h1a6 6 0 0 0-1-1 6 6 0 0 0 1-1 7 7 0 0 0 0 1 6 6 0 0 0 1 0 2 2 0 0 0 0 1 3 3 0 0 0-1 0 4 4 0 0 0 1 0 4 4 0 0 0 0 1 4 4 0 0 0 1 0 3 3 0 0 0 0 1l-1 2a4 4 0 0 0 1-1 4 4 0 0 0 1 1 2 2 0 0 0 0 1v-1a6 6 0 0 0 0 2 6 6 0 0 0-1 0 4 4 0 0 0 0-1 2 2 0 0 0-1 0 4 4 0 0 0-1 0 4 4 0 0 1 0-1l-1 1a2 2 0 0 0 0-1 3 3 0 0 0 0 1 1 1 0 0 1 0-1 3 3 0 0 0 0 1 3 3 0 0 0-1 0Zm2 18a1 1 0 0 0 0-1 1 1 0 0 0 0 1Zm7-5Zm1 0Zm6 9a3 3 0 0 0 1-1 5 5 0 0 0 0 1 3 3 0 0 0-1 0Zm7-32a6 6 0 0 0 0-2 5 5 0 0 0-1 1 3 3 0 0 0-1 0h-1v1a4 4 0 0 0-1-1 4 4 0 0 0 1 1 3 3 0 0 0-1 0 2 2 0 0 0 0 1v-1a5 5 0 0 0 0-1 7 7 0 0 1 1 0s0 0-1 0a2 2 0 0 0 1-1v1-1a4 4 0 0 0 1 0 4 4 0 0 0-1-1 2 2 0 0 1 1 0 5 5 0 0 0-1-1 5 5 0 0 0 1 0 5 5 0 0 0-1 0 2 2 0 0 1 1 0s0 0 0-1v1a2 2 0 0 0 0-1h1a6 6 0 0 0 0-1h1-1 1a1 1 0 0 1-1 1h1a2 2 0 0 0-1 0 3 3 0 0 0 1 0v1a3 3 0 0 0 1 0 1 1 0 0 1-1 0 2 2 0 0 0 1 0h-1a2 2 0 0 0 1 0h-1a4 4 0 0 0 1 1 4 4 0 0 0-1 0l2 1h-1a2 2 0 0 0 1 0 3 3 0 0 0-1 0 3 3 0 0 0 1 0 1 1 0 0 0 0 1 2 2 0 0 0-1 0 6 6 0 0 0-1 1Zm3 2a4 4 0 0 0 0-1 5 5 0 0 0 0 1 5 5 0 0 1-1 0 3 3 0 0 0 1-2 5 5 0 0 0-1 1 7 7 0 0 0 0-1 4 4 0 0 0 0 1 4 4 0 0 0 1-1v1a4 4 0 0 0 0 1Zm8 26Zm9-13v-1a5 5 0 0 0-1-1h1a2 2 0 0 0-1 0 4 4 0 0 0-1-1 3 3 0 0 0 0 1 2 2 0 0 0-1 0 6 6 0 0 0 0-1 6 6 0 0 0 2 0l-3-1v-1h1a3 3 0 0 0-1 0 4 4 0 0 0 1 0 4 4 0 0 0-1-1 1 1 0 0 0 1 0 7 7 0 0 0 0-1h1a2 2 0 0 0-1 0h1a6 6 0 0 0-1-1 6 6 0 0 0 1-1 5 5 0 0 0-1 0 3 3 0 0 0-1-1 3 3 0 0 0 0-1v1a2 2 0 0 0 0-1h1a1 1 0 0 0 1 0v-1a5 5 0 0 1 1 1 2 2 0 0 0-1-1 2 2 0 0 0 1 0v1-1a2 2 0 0 0 1 0 3 3 0 0 0-1-1 3 3 0 0 0 0-1 2 2 0 0 0 1 0 2 2 0 0 0 1 0l-1 1a1 1 0 0 0 1 0 2 2 0 0 0 1 0h-1 1-1a2 2 0 0 0 1 0v1a4 4 0 0 0 1 0 4 4 0 0 0 0 1v-2a1 1 0 0 0 1 0v1a2 2 0 0 0 0-1 2 2 0 0 0 0 1 4 4 0 0 0 1 0 1 1 0 0 0 0 1l-1-1a4 4 0 0 0 1 1h-1a3 3 0 0 0 0 1 4 4 0 0 0-1-1 3 3 0 0 0 0 1 4 4 0 0 1-1-1s0 0 0 1a2 2 0 0 0 0-1 3 3 0 0 0 0 1 1 1 0 0 1-1 0 3 3 0 0 0 1 0h-1v1a3 3 0 0 0 0-1v1a1 1 0 0 0 0 1v-1a2 2 0 0 0 0 1 3 3 0 0 0-1 0h-1a4 4 0 0 0 0 1 4 4 0 0 0-1 0 3 3 0 0 0 1 0 2 2 0 0 0-1 1 3 3 0 0 0 1 0 1 1 0 0 1-1 1h1a2 2 0 0 0-1 0 3 3 0 0 0 1 0 3 3 0 0 0 0 1 3 3 0 0 0 1 0 1 1 0 0 1-1 0s1 0 1 0h-1a2 2 0 0 0 1 0 4 4 0 0 0 0 1 3 3 0 0 0-1 0h2a1 1 0 0 0 0 1h-1a2 2 0 0 0 1 0 2 2 0 0 0 0 1 1 1 0 0 1-1 0 3 3 0 0 0 0 1Zm3 16Zm0 0Zm8-9v-1 1Zm7-2a3 3 0 0 0-1 0 3 3 0 0 0 0 1 2 2 0 0 0 0-1v1a3 3 0 0 0 0-1l-1 1v1h-2a1 1 0 0 1 0 1 3 3 0 0 0 0-1 2 2 0 0 0 0 1 2 2 0 0 0-1-1 5 5 0 0 0-1 0 5 5 0 0 0 0-1 2 2 0 0 1 0 1 3 3 0 0 0-1-1 2 2 0 0 0 0-1 3 3 0 0 0 0 1 3 3 0 0 0 0-1 1 1 0 0 1 1 1v-1 1a2 2 0 0 0 0-1v1l1-1a2 2 0 0 1 1 0h1a3 3 0 0 0 0-1v1a2 2 0 0 0 0-1 2 2 0 0 0 1 0 3 3 0 0 0-1 0h2a4 4 0 0 0 1 0 4 4 0 0 0-1 1 4 4 0 0 0 1 0Zm7 2Zm7-3Zm4-42v-1a2 2 0 0 0 0 1Zm0 0a2 2 0 0 0 1 0 2 2 0 0 0-1 0Zm5 24Z"/><path fill="#73bf44" d="M75 113a50 50 0 0 0 34-14c8-8 15-22 14-34-1-27-21-49-48-49a50 50 0 0 0-35 14c-8 9-15 23-14 35 1 26 21 48 49 48Z"/><path fill="#73bf44" d="M108 114c8 0 8-13 0-13s-8 13 0 13ZM124 70c8 0 8-13 0-13-9 0-9 13 0 13ZM130 64v-1 1ZM129 53v-1 1Z"/></svg>