<svg xmlns="http://www.w3.org/2000/svg" viewBox="0 0 150 150"><path fill="#73bf44" d="M71.4 150h-7.6a79.1 79.1 0 0 0 .3-8.4c-.2-3.6-1.3-12-1.5-16.5H65s.3 6.8.7 10c.4 3.2 1.7 14.1 2.2 8.9l1.9-18.7h1.9s-.4 7.5-.8 10.7c-.4 3 .1 3.7.8-.7a84.8 84.8 0 0 0 .6-10h2.3a61.5 61.5 0 0 1-.5 11c-.9 6-2.5 10.1-2.8 13.7Z"/><path fill="#73bf44" d="m123.6 58.4 2-.4-2.5-2 2.2-1.7-1.9-.6-.5-1.1h-1.4L120 51l-1.2 1.6-1.1-1.3-.6 1.4-.4-1.6-1 .5-1.4-.7 1-2-1.8-1 2-1.4c2-1.5-.8-.3-.8-.3l1.6-1.6-1.5-.9 1.5-2-2.2-1-.1-.7-2 1.1-1.2-1.3-.6 1.5-1.2-1.1-.8.7-.2-1.6-2.2-.6.6-1.5-1.2-1.1 1.6-.8 1.5 1.2 1-2v-.8l1.1-.5-1.1-1 1-1.4.7-.8-3.3-.7-2.2-1.3 1-1-.6-.7-.5-.3 1-.8.6-1.2-.9-.4 2-2-.7-.5-1.3-1.6-1.8 1.8-1.4-1-.3 1.4-1.4-1.4-1.5-1.2 1.5-1.4-1.5-.7 2-1.2-1.1-.5 1-1.3-1.2-.8.5-.8-1.4-.4.4-1.2-.7-.6.7-.8-1.5-.4.4-1.3-2.2-.7-2-.6L96 5.1c1.1-1.4-1.4-.7-1.4-.7l-1.4-2L92 3l-2.2-1.2.2 2.4-.9-1.1-2.5 1.1-.3-1.5-1 .5-.3-2L83 2.4l-.3-1.3-1.2 1.3-.7-1.1-.5 1.1-2-.6-.7 3.6-1.5-1-1 2-.6.2-1.3-.8.5 2.2-1-.3.2 1.7-1.8-.5.3-1.3-1.3-.9v1l-1.4-1.4-.5 1.9-.4-1.2-2-.5.6-1-.4-1.2-1.3-.1 1-1.8-1.6.4-.9-1.6-.9 2.1-.7-.4.8 2-1.7.3L59.5 4l1-.8-.8-.8V1l-.7.5-.8-.6-.7-.5-.9 1.7-1.4-2-1.4 1.6L53 .3l-3 1.8-.9-1-.6 1.8-1.9-1 .5 2.3h-.8l.7 2.7-1.3.4 1.7 1.5-1.5.8-1.3-.9-1-.9v1.6l-1.1-.2-.5 3-1.2-.4.3 1.5-1.3-.4-.5.7-1.5-2.2-1 1.3-1.8-.2 1.2 1.8h-1.4l.8 1.5-1.6-.2 1.3 2-1.4-.5-1.4 3.6-1.2-1v1.5l-1-.7.2 1-.7.9-.1 2h-1.2l2.3 2c2.3 2-1.8.4-1.8.4l1.6 1.5-1 .4.9.5.7.8-1.3.8 1.7.6-2.4 2.1 3.1.7-.7.7 1.6 1-1 .8.4 2-1 .2.2 1.4-.5.1.9 1.9H31l1 1.6h-1.3l.8 2.7 2-.4-.6.6 1.7.8-.9 1 2 1-1.3.6-.3.1 1.3 1.6H34l1.2 1.5H34l-2 1.2-1.3-.3-.4 1.5h-1l.1 2-.3 1.5-1.3-.3 1.4 2.4H28l1 2.2-.7.6 2.4.5v1h-1l1.5 2-1.3.5-3.2 1 .2 2.2-.8-.7-.2 1.9h-1l1.3 2.2h-1l1.5 2.7-.7.2-.6.3 1 1.8h-.6l-.3 1.3h-1l1.3 2.2-1 .1 1 1.7h-.5l2 2.2h-1.6l2.2 2-1.3 1.4 2.2.8-1 .9 1.1.3 1 .4 1.6-.7-1 1 2.4-.1-.2 1 1.3.3-1.6 1h-.8L32 97h-1l.4 1.5h-.7l.8 1.4 1.6-.8.2.6.7.7-.6.5-.1 1.2-1.1-.1.7 1.4-1.4.2-.6 1 1.4.3.3 1.4 1.3-.7.8.9 1.5-1.3.7 1.2.9-1.2-.2.7 1 .7-.5.6.4 1.3-2.4.4 1 .6-1.1.8.6.5-1 .6 1.3 1-.7.6 2 1.4-1.2.6 2.3 1-1 .7 1.2.8-1.2.7.8.8-.5.6L40 121l-1.2.3c-1.3.2.8 1 .8 1l-.2 1.6-1.2-.6-.1 2.1-1 .1.6 1.5-.6.5v1.5l1.3.2-1.3 1.4 1.3 1.2.6-1.1 1 .8.8-1.2.6 1 .2-1.2 1.2-.4.5-1.2.8.7.4 1.1-1.2.6.6.4.4 1.6-1.1.3 1 1-1.4 1.3 1.6 1-.7.6c-.7.8.7.2.7.2l.2 1.6 1-.7.8 1 1-.9.3 1 .6-1.8 1 .4v-1h1l-.5-1.4.4.2v-1.3l.7.3v-1.5l.9.3.2-1.1.8.5-.8-1.9.8-.9h1.2l-1-1.5 1.1-.5-.8-2 1 .5 1-1.7.7 1.1.5-.2-.3 1.4.8-.5.3 1.4.5-.3.5 1.3.5-.2-.2 1 1.2.5-.5 1 .7-.2.2.7.9.2v-1l.4.3.7-.4.2 1.6.6-.6.8 1.2.8-1 1.1 1v-.6l.7.4.1-.7.8.5.1-1.2h.6l.6.8.1-.8h.6v-.7h1l.1-1.5 1 .4.2-.4.8.4.5-.6.8.7v-.7l.4.7 1 .3.7 1.7.2-.4 1 1.7.9-.4 1 1.8 1.1-1v1.6l1.5-1-.3 1 3-1.3-1.6 1.1 1.4-.8.3.7 4.2 3 .5-1.2 1.8.2.4-1.8 1 .6-.2-1.6 1.5 1.4v-2.6l.8 1.6 1.1-1c1.2-1 .5 1.2.5 1.2l2-.1-.5.9-.2 2 2-1.4 1.3.6.9-1.2 2 1-.5-2.3h.5l-.7-1.6 1.9-.1-.9-1 .3-1.8.4-1-1.3-1 .9-.7-2.3-1.1 1.5-1.9-3.1-1.2 2.3-.9-1.9-1.3 2.1-.1-.7-2.4.6.7 3-.2-.4-1.3c-.4-1.3 2.7-1.2 2.7-1.2l-1.8-1 1.1-.9-.2-1.1-1.6-.7.3-1-.5-.7-2.3-.4.5-1.2-2.9.3c-2.9.4.8-.5.8-.5l-1.8-1.8-1.6-.6 2.7-1.8-2.1-.6 2.4-1.3-1-.8 2.4-.4-1.2-1h1.4l-.2-2 1.7.6.5-.7 1.7.6v-1.5l.9.4 2.8-.4.5-1.2-3-1.2 7.3-2.1-.6-.7-.8-.3 1.3-1-1-.7.8-.8-1.8-.4.6-.5-1.8-.5.2-1.2-.6-.8-.7-1-1.7-.3c-1.7-.3 1.1-1.9 1.1-1.9l-.8-.4 1-.5c.9-.5-2.2-.8-2.2-.8l.3-2.9h3.2l-.8-2 2.5.1-.2-2.3 1.5 1.3 1.1-1.6h1.8l-1.3-1.4 1.5-2.2-.8-.4.7-1.1-2-.3 2-2-.4-1.5 2 .6.4-1 1.8.2-1.3-1.8 2.3.5v-2l2.5.7-1-2.2 1.4-.2Z"/></svg>