<svg xmlns="http://www.w3.org/2000/svg" viewBox="0 0 150 150"><path fill="#73bf44" d="M107.4 102c-2.9-.6-2.8-1-2-1.8a42.4 42.4 0 0 1 4.5-3.1l-.5-.7a31.5 31.5 0 0 0-4.7 3.1c-1.7 1.4-1.4 2.1-3.8 2.6a17.8 17.8 0 0 1-6.3.1c-1.3-.2-1-1.4-.4-2.8.6-1.3 3-2.7 3.6-3.9.6-1.2 5.1-4.3 7.9-6.5l-.7-.8-3.4 2.7c-2 1.6-4 2.7-3.2.6l1.2-3.3h-1a16.6 16.6 0 0 0-1.4 4.6c-.2 1.8-1.5 3.1-2.5 4.3-1 1.1-2.4 2.8-2.5 4 0 1.1-.6 2-2.3 3a11.3 11.3 0 0 0-3.9 3.4c-1.3 1.7-4.5 3.3-5 3-.5-.4-.7-.4-1-2.8-.3-2.2-.4-6.8-.5-8.7l1.4-1.8c1.6-2.2 5-5.5 7-8.4 2-3 5-7.2 6.3-10.5a72.1 72.1 0 0 1 6.3-11c2-3 3-2.9 7-3.2 4-.2 13.3-3.1 13.3-3.1l-.4-1.1a47.7 47.7 0 0 1-11.5 3c-5.6.5-4.8.6-5-1-.4-1.7 0-3.4.2-5.7a7 7 0 0 1 2.4-5c1.4-1.3 6.5-4.7 6.5-4.7l-.5-.7s-8.6 5.4-9.2 8.2c-.5 2.8-.4 6.2-1.6 8.5-1.2 2.4-6.5 9.8-9.4 16.9a81.1 81.1 0 0 1-12.7 17l.9-8.2c.1-2.4 1-6 1-7.8a38 38 0 0 1 1.3-7.4c.6-2 1-4 2-5.4a24.9 24.9 0 0 0 3.2-6.7c.8-2.6 1.9-6 2-8.6 0-2.6-.1-5 .6-6L93 42l-.6-.3-1.7 2.6c-.5.7-.8 1.6-.9 1.2 0-.4.8-3.6.9-4.9h-1l-.7 3.9a42.5 42.5 0 0 0-.2 4.5 64 64 0 0 1-1 7.7A30.6 30.6 0 0 1 85 64c-1 1.5-2.3 2.2-2.7.2a32.3 32.3 0 0 1-.4-7.6 61.9 61.9 0 0 0 .3-7.3c0-2.3-.2-4.6.2-5.6s-1.4 0-1.4 0l-.2 5.7c0 3.1-.3 5.9-.3 7.3a44 44 0 0 0 .3 6 32 32 0 0 1 .5 6c-.2 1.2-1 7.6-1.6 9.6-.6 2-.9 4.3-1.2 6.1L77 94.7a70.9 70.9 0 0 0 0 10.7c.3 3 .5 7.8.6 10 0 2.2-1 5.4-1.5 7.4-.4 2-1.9 6.1-2.4 5.7-.5-.3-1-1.4-1.2-3.4-.2-2-.5-6 0-7.8.7-1.8 2.3-6.4 2.3-10.3 0-3.8-.4-7.4-.6-11.6-.2-4.1-.7-10.7-1-13.1-.4-2.4-1.5-4.5-1-8.2.6-3.7 2.1-6.7 1.6-12.3-.6-5.6 2.1-4.5 3.1-6.5a32 32 0 0 0 1.3-4.7l-.9-.1A20.7 20.7 0 0 1 76 55c-.6 1.2-2.2 2.1-2.8 1.3a22.4 22.4 0 0 1-1.6-3.5 16 16 0 0 1-.7-2.4l-.8.3a27.2 27.2 0 0 0 1 3.3 24.7 24.7 0 0 1 1 3 38 38 0 0 1 .5 5.2c0 1 0 3.8-.8 2.8a73.5 73.5 0 0 1-5-6.5c-1.2-2-2.4-2.3-3-4.4-.7-2.1-1.2.6-1.2.6a23.4 23.4 0 0 0 2.4 3.7l3.8 5.3a13.2 13.2 0 0 1 2 3.9 9.5 9.5 0 0 1-.7 4.2c-.4 1.4-3.3 0-5.9-2.6-2.5-2.6-9.7-6.6-9.7-6.6l-.6 1.5a31.6 31.6 0 0 1 6.9 4.1l6.7 6a9 9 0 0 1 2.3 4.4c.5 2 1 7 1.2 9.2.3 2.3.4 8.1.6 9.3a97.4 97.4 0 0 1 .5 11.2c-.2 2.8-.8 5.4-2.1 5.6-1.3.2-3.4-2.1-5.4-3.5a13.9 13.9 0 0 1-5-7c-1.1-3.1-.3-4.8-1.2-7.3-1-2.6-.8-4.1-2-6.5L52.5 83l-1 .5a37.8 37.8 0 0 0 2 4.3 23.5 23.5 0 0 1 2.2 5.8c0 .9-1.5.4-2.7-1a48 48 0 0 0-4.3-3.4l-.5.8a21 21 0 0 0 2.7 2.4c1 .6 2.7 2.5 3.8 3.3 1 .9 1.3 1.7 1.8 4.1.4 2.4 1 5.9 3 8 1.8 2.3 2.9 4.1 4.8 5.7 2 1.6 3 2.2 3.8 4.7.8 2.6.6 6.7 1.3 9.6.6 3 2 6.9 2.4 9.6.4 2.8.3 10-.6 12.5H78l-.7-2.2c-.4-1.4-.7-7.5-.6-11.3.2-3.8.2-5 1.3-8a41 41 0 0 0 2.1-8.8c.6-3.7.3-4.9 1.2-6a19 19 0 0 1 4.3-3.4 5.8 5.8 0 0 0 2.2-2A6.7 6.7 0 0 1 91 105c2-.9 3-2 5.4-1.7 2.5.3 4 .4 5.3-.1a6.4 6.4 0 0 1 3.7-.7c2.3.2 5.2.7 8.4-.3l-.6-1a13 13 0 0 1-5.7.6ZM78.4 21.8v.2-.1ZM97.9 63.3Z"/><path fill="#73bf44" d="M87.1 59.2a2.5 2.5 0 0 1 0-.6l-.3.3a2.9 2.9 0 0 1 .3.3ZM131.3 41.5zM121.3 49.4h.2a3 3 0 0 1-.2-.3 1.2 1.2 0 0 0 0 .3ZM100.5 54.8a2.7 2.7 0 0 1-.2.5 5.4 5.4 0 0 1 .4-.6h-.2ZM101.3 44.3h.1ZM100.8 44.1a3.6 3.6 0 0 1 .5.2V44a1.3 1.3 0 0 0-.2 0 3.6 3.6 0 0 1-.3 0ZM100.4 54.3a3.4 3.4 0 0 0 .4.3 3.3 3.3 0 0 1 .3-.3 4.7 4.7 0 0 1-.7 0Z"/><path fill="#73bf44" d="m102.1 53.6-.2-.1h-.4a1.3 1.3 0 0 0 .4.2 4.7 4.7 0 0 1-1.1.2 4.4 4.4 0 0 1 .3.4 1.4 1.4 0 0 1 .8-.4 1.5 1.5 0 0 1 .2-.3ZM37.8 59.1h-.1v.1h.1ZM73.5 27.9a1.6 1.6 0 0 0 .1-.6 4.7 4.7 0 0 1 .6 1 4.7 4.7 0 0 1 .2-.5 4.5 4.5 0 0 1 .2.5l.2-.4a3.4 3.4 0 0 1-.7-1 4.6 4.6 0 0 1 .7.1 1.5 1.5 0 0 1 0-.1 6.5 6.5 0 0 1 0-1h-.1a2 2 0 0 1-.7-.1l.4.3a5.7 5.7 0 0 1-1.6-.1 4.6 4.6 0 0 1 0 1 3.8 3.8 0 0 1 .7.9ZM38.6 60v-.1ZM38.4 59.5a3.8 3.8 0 0 1-.5.2 3.8 3.8 0 0 1 .4.2 2.2 2.2 0 0 1 0-.4ZM131.2 40.3a1.5 1.5 0 0 0 .3.5s-.2 0-.5-.2a3.6 3.6 0 0 1-.2.4 4.6 4.6 0 0 1 .4 0s0 .1-.1.2l.2.1a3.1 3.1 0 0 1 .5-.8 3.1 3.1 0 0 1-.6-.2ZM119.3 49a6 6 0 0 1-1.1-.4l-.2.1v.3a6.7 6.7 0 0 1-.2 1 5.7 5.7 0 0 1-.4-.6 5.3 5.3 0 0 1-.7.2l.2.2.4-.2a2.6 2.6 0 0 1-.1.5l.2.3a4.2 4.2 0 0 1 .7.4 4.1 4.1 0 0 1-1.3.3 1.6 1.6 0 0 0 .5.3 4.7 4.7 0 0 1-1 .2 4.3 4.3 0 0 1 .2.4 4.7 4.7 0 0 1-.7 0 2 2 0 0 0 .6.3s-.2 0-.4.1a2.6 2.6 0 0 1-.3.6l.8-.4a2.4 2.4 0 0 1-.4.8l.4-.3a5.9 5.9 0 0 1-.6 1.3 5.8 5.8 0 0 1 1.5.3s-1.5 1-2.3.6a1.4 1.4 0 0 1-.3.1l.1.3.7.2-.2.1h.2v.1a6.8 6.8 0 0 1 .7.7 7.3 7.3 0 0 1 .8-1.8s.8 2.1 0 3a1.8 1.8 0 0 1 0 .5l.5-.2.4-.7a3.3 3.3 0 0 1 .1 1 5.3 5.3 0 0 1 .8-.8 5.9 5.9 0 0 1 0 1 1.7 1.7 0 0 1 .3-.1 8.3 8.3 0 0 1 1.1-.4l.6-1a3.1 3.1 0 0 1 .1 1.2l.3-.6a7.5 7.5 0 0 1 .2 1.8 5.3 5.3 0 0 1 .6-.3 22 22 0 0 0-.3-.9 3.1 3.1 0 0 1 1 .7l-.3-.6.6.3.3-.2a2 2 0 0 0-.7 0s.2-.1.4-.3a2.6 2.6 0 0 1 0-.6l-.5.7a2.4 2.4 0 0 1-.1-1l-.3.5a5.9 5.9 0 0 1 0-1.4 5.8 5.8 0 0 1-1.5.5s.8-1.6 1.8-1.7a1.4 1.4 0 0 1 .2-.2c-.2 0-.2-.1-.3-.2l-.7.2.1-.2a4.6 4.6 0 0 1 .2-.6 1.4 1.4 0 0 1-.2 0 6.7 6.7 0 0 1-1 0l-.6.6a2.2 2.2 0 0 1 .3-1h-.6a6 6 0 0 1 1-1 5.8 5.8 0 0 1-1.3-.7 5.2 5.2 0 0 1 .8-.2 2.2 2.2 0 0 1 .5-.4l-.8-.1a2.7 2.7 0 0 1 .2-.2 6.3 6.3 0 0 0-1-.2 5 5 0 0 1 .5-.3 3.7 3.7 0 0 1-.8-.6 4.1 4.1 0 0 1 1.3-.2 1.6 1.6 0 0 0-.5-.3 4.7 4.7 0 0 1 1.1-.1 4.4 4.4 0 0 1-.2-.4 4.7 4.7 0 0 1 .5 0 4.6 4.6 0 0 1-.3-.9 4.7 4.7 0 0 1-.4.4 4.8 4.8 0 0 1 0-.7 2 2 0 0 0-.4.6s0-.2-.1-.4a2.6 2.6 0 0 1-.6-.1l.5.6a2.3 2.3 0 0 1-1-.3l.4.5ZM74.2 25.2a2.3 2.3 0 0 1 .9.2l-.4-.3a6 6 0 0 1 1.4.2 4.6 4.6 0 0 1-.1-.7 2 2 0 0 1-1-1.1 1.3 1.3 0 0 1-.4-.2v.3c0 .4.2.7.2.7a2 2 0 0 1-.2-.1 4.6 4.6 0 0 1-.6 0 1.5 1.5 0 0 1 0 .1 6.2 6.2 0 0 1 .2 1ZM106.7 21.1a.9.9 0 0 1 0 .1l.2-.2h-.2v.1ZM77.8 23.7a4.8 4.8 0 0 1 0 .6 3.7 3.7 0 0 1 .5-.3V24a2.3 2.3 0 0 1 .1 0 1.3 1.3 0 0 0 .4-.1s0 .1-.1.3l.1.1a3.6 3.6 0 0 1 .7-.9 4.7 4.7 0 0 1 0 .5 2.2 2.2 0 0 1 .6-1l-.4-.2-.8.2a3.5 3.5 0 0 1 .3-.4 5.1 5.1 0 0 1-.5-.4h-.3v.3a4.5 4.5 0 0 1-.5-.5 2 2 0 0 0 .1.7s-.1-.1-.3-.3a2.5 2.5 0 0 1-.6.3l.8.2a2.4 2.4 0 0 1-1 .3l.6.2a5.8 5.8 0 0 1-1.4.4 5.2 5.2 0 0 1 .6 1 3 3 0 0 1 1.1-1ZM81.5 7.8ZM116.9 47.5h-.1v.1l.2.2a1.5 1.5 0 0 1-.1-.3ZM38.5 60.8a5 5 0 0 1 .1-.8 4.7 4.7 0 0 1-.6.4 1.8 1.8 0 0 1 .2.1l.3.3ZM108.7 95.5ZM106.3 62a5.9 5.9 0 0 1 .4.8 5.4 5.4 0 0 0 .2-.6h-.1l-.1.2a2.7 2.7 0 0 1-.2-.5 3.8 3.8 0 0 1-.2-.4l-.4.3a5.6 5.6 0 0 1 .2-.6l-.3-.4h.4l.2-.3a5.2 5.2 0 0 1-1.8-.1 5.5 5.5 0 0 1 .7-.5 2.3 2.3 0 0 1 .2-.6l-.8.2a2.5 2.5 0 0 1 .2-.2 6 6 0 0 0-1 .2 4.8 4.8 0 0 1 .7-1 6.3 6.3 0 0 1-.9 0l-.3.3a2.6 2.6 0 0 1 0-.5 1.2 1.2 0 0 1-.4.1H102a4.8 4.8 0 0 1 .8-.7 4.6 4.6 0 0 1-.4-.2 4.7 4.7 0 0 1 .6-.3 2 2 0 0 0-.7 0s.2-.2.4-.3a2.5 2.5 0 0 1-.1-.6l-.5.7a2.4 2.4 0 0 1 0-1l-.3.5a5.9 5.9 0 0 1 0-1.5 4.7 4.7 0 0 1-.8.3 2 2 0 0 1-.3.5l.5-.3a6 6 0 0 1-.6 1.3 5.8 5.8 0 0 1 1.5.3s-1.5 1-2.4.6a1.4 1.4 0 0 1-.3 0l.2.4c.4 0 .6.2.6.2a2.7 2.7 0 0 1-.3.1h.4a2.4 2.4 0 0 1-.7.6h.5a5.9 5.9 0 0 1-1 1 5.8 5.8 0 0 1 1.4.7s-1.7.5-2.4-.2a1.5 1.5 0 0 1-.3 0v.3l.6.4a2.6 2.6 0 0 1-.8 0 4 4 0 0 1 .6.7 4.7 4.7 0 0 1-.8 0 1.4 1.4 0 0 1 0 .2 1.3 1.3 0 0 0 .3 0s0 0-.2.1v.2a3.7 3.7 0 0 1 1-.3 4.4 4.4 0 0 1-.4 1l.1.1h.1V63l.2.1a1.2 1.2 0 0 0 .2 0s0 0-.1.2a1.9 1.9 0 0 1 .1.6 1 1 0 0 1 .1-.2l.4-1a2.7 2.7 0 0 1 .2.6l.3-.7a2.4 2.4 0 0 1 .3.9l.1-.5a5.9 5.9 0 0 1 .4 1.3 1.5 1.5 0 0 1 .2-.1c.6-.3.7-.2 1-.5a5.2 5.2 0 0 1-.2.7 7 7 0 0 1 1 .3 7.4 7.4 0 0 1 0-2 7 7 0 0 1 .7.9 2.9 2.9 0 0 1 .7.2l-.3-1a3 3 0 0 1 .3.2 8 8 0 0 0-.4-1.2 6.2 6.2 0 0 1 .6.3 5 5 0 0 1 .1-1.3 5.3 5.3 0 0 1 1.1 1.3 2 2 0 0 0 0-.7 6 6 0 0 1 .9 1.1l.2-.5ZM79.3 22a1.8 1.8 0 0 0 0 .3l.1-.2h-.1ZM101 45a2 2 0 0 1 0 .2 1.3 1.3 0 0 0 .2 0l-.3.2a1.8 1.8 0 0 1-.1.5 1.1 1.1 0 0 1 .1-.1l.7-.5a4.7 4.7 0 0 1-.6-.3ZM134.1 60.5a2 2 0 0 1 0 .2v-.2ZM133.7 59.7v.2-.2ZM78 80.7h.1v-.1ZM99.6 41.4a5.3 5.3 0 0 1-.4 1 3 3 0 0 1 1.3.6 4.8 4.8 0 0 1-.5.1 3.6 3.6 0 0 1 .5.4 2.2 2.2 0 0 1 0 .2 3.2 3.2 0 0 1 .5-.6 1.6 1.6 0 0 0-.6.2 4.8 4.8 0 0 1 .6-1 4.7 4.7 0 0 1-.4 0 4.6 4.6 0 0 1 .4-.5 2 2 0 0 0-.6.1s0-.1.2-.3a2.5 2.5 0 0 1-.2-.6l-.2.8a2.4 2.4 0 0 1-.4-.8v.5a5.9 5.9 0 0 1-.6-1.4 5.7 5.7 0 0 1-1.2 1 5.8 5.8 0 0 1 .3 1 5.7 5.7 0 0 1 1.3-.7ZM98 37.7ZM97.5 38a3.5 3.5 0 0 1 .3.3l.2-.4a2.4 2.4 0 0 1-.5.1ZM101 45l-.2-.1a2.6 2.6 0 0 1-.4.1 3 3 0 0 1 .4.1l.1-.1ZM97.6 40.7a2 2 0 0 1 .1.6l.2-.5v.2l.1-.4a6 6 0 0 1-.4.1ZM87.3 59.5v.1ZM97.2 40.8v.1ZM98.1 40.3ZM99.2 38.6h-.3l-.6.3a2.6 2.6 0 0 1 .3-.7 4 4 0 0 1-.6.2h.2a4.8 4.8 0 0 1-.7.3 1.5 1.5 0 0 1 0 .2 6.5 6.5 0 0 1 .6.8h.2a1.5 1.5 0 0 1 .8-.8 1.4 1.4 0 0 1 .1-.3ZM18.2 45.3a4.2 4.2 0 0 1-.5.2 2.7 2.7 0 0 1 .4 0v-.2ZM37.9 70a1 1 0 0 1 0 .4 1.4 1.4 0 0 1 .3.2l.2-.2v-.5h-.5ZM31 74.5a6.8 6.8 0 0 1-.5.7 5.6 5.6 0 0 1 1-.4 4.1 4.1 0 0 1-.4-.3ZM18.4 45.5h-.2a1.9 1.9 0 0 1 .4.3l-.2-.3ZM41.7 68.9a1.6 1.6 0 0 1 .1.1l-.1-.1ZM41.4 68.5l.6-.1v-.2.1h.2l.1-.4a4.3 4.3 0 0 1-.3-1.4 6.1 6.1 0 0 1 .6.3 4.6 4.6 0 0 1 0-.7h-.2a3 3 0 0 1 .2-.2 1.5 1.5 0 0 0 0-.5s0 0 .2.3l.2-.2a4.6 4.6 0 0 1-.7-1.2 5.3 5.3 0 0 1 1.6.4 2 2 0 0 0-.4-.6 6 6 0 0 1 1.3.5V64a1.6 1.6 0 0 1 .2-.8h-.1.1V63a1.3 1.3 0 0 1 0-.4c-.2 0-.2.1-.3.2l-.3.6a2.6 2.6 0 0 1-.2-.8 4.2 4.2 0 0 1-.5.7 4.8 4.8 0 0 1-.2-.8 1.6 1.6 0 0 1-.1.1 6.8 6.8 0 0 1-.9.4l-.4.8a2.4 2.4 0 0 1-.2-1l-.2.6a6 6 0 0 1-.2-1.3l-.4.2-.3.5a5.3 5.3 0 0 1-.2-1.1h-.5l-.6.8a2.4 2.4 0 0 1 0-1v.1l-.1.1-.2.2a5.6 5.6 0 0 1-.9.5 5.7 5.7 0 0 1 1.2 1 5.4 5.4 0 0 1-1 0 2.2 2.2 0 0 1-.5.5h.4a2.5 2.5 0 0 1-.8.4 1.3 1.3 0 0 0 .4.1 5 5 0 0 1-.9.4 4.4 4.4 0 0 1 .6.5 4.1 4.1 0 0 1-1.3.2 1.5 1.5 0 0 0 .4.3 4.8 4.8 0 0 1-1 0 4.6 4.6 0 0 1 .2.4 4.6 4.6 0 0 1-.5 0l.2.3a3.4 3.4 0 0 1 1.3 0 4.8 4.8 0 0 1-.6.5 1.7 1.7 0 0 1 .2 0 6.5 6.5 0 0 1 .8.5c.6 0 1-.2 1-.2a2.4 2.4 0 0 1-.7.7l.5-.1a6 6 0 0 1-1 1 5.6 5.6 0 0 1 1.4.8s0 0-.1 0a4.8 4.8 0 0 1 .6.2 1.4 1.4 0 0 1 0-.2 6.4 6.4 0 0 1 0-1l-.6-.6a2.2 2.2 0 0 1 1.1.3V68a6 6 0 0 1 .9 1 5.7 5.7 0 0 1 .8-1.2 5.3 5.3 0 0 1 .1.8ZM64 30.2l.1.2a2 2 0 0 1 .2 0l-.2-.2ZM64.6 30l-.4-.3a6 6 0 0 1 1.3 0l-.3-.5v.2a4.7 4.7 0 0 1-.6-.5 1.4 1.4 0 0 1 0 .2 6.6 6.6 0 0 1-.6.7v.1a2 2 0 0 1 .6 0ZM18.9 45.5a2.4 2.4 0 0 1 0-.4l-.4.3.4.1ZM59 28.7a1.6 1.6 0 0 0-.3.4s0 0 0-.2a2.8 2.8 0 0 1-2.2.8 1.7 1.7 0 0 1-.3.2l.2.3h.9a3.3 3.3 0 0 1-.8.7 5.1 5.1 0 0 1 1 .3 5.8 5.8 0 0 1-.8.5 1.7 1.7 0 0 1 .2.1 8.7 8.7 0 0 1 .8.9H59a3 3 0 0 1-1 .7h.6a7.6 7.6 0 0 1-1.5 1 7.3 7.3 0 0 1 1.4 1.4 6.9 6.9 0 0 1-1.2-.1 2.8 2.8 0 0 1-.7.5l.5.1a3.2 3.2 0 0 1-1 .5 1.5 1.5 0 0 0 .5.1 6.6 6.6 0 0 1-.8.4 5.7 5.7 0 0 1 .8.7 1.3 1.3 0 0 1 0-.2l.7-1a4.8 4.8 0 0 1 .1 1 4.7 4.7 0 0 1 .4-.2 4.7 4.7 0 0 1 0 .7 2 2 0 0 0 .4-.5s0 .1 0 .4a2.6 2.6 0 0 1 .6.2l-.4-.7a2.4 2.4 0 0 1 .9.4l-.3-.4a6.1 6.1 0 0 1 .9.4l-.2-.3a4.7 4.7 0 0 1 .6 0 6.7 6.7 0 0 1 .3-1 5.5 5.5 0 0 1 .5 1 4.1 4.1 0 0 1 .6.2v-.5a4.8 4.8 0 0 1 .6.4 3.6 3.6 0 0 0-.2-.4 3.2 3.2 0 0 1-1.3-.5 4.7 4.7 0 0 1 .7-.3 1.7 1.7 0 0 1-.1-.1 6.8 6.8 0 0 1-.6-.8l-.9-.1a2.4 2.4 0 0 1 .8-.5h-.5a6 6 0 0 1 1.3-.7 5.7 5.7 0 0 1-1-1.1 5.2 5.2 0 0 1 1 .2 3 3 0 0 1 .4-1.4 4.7 4.7 0 0 1 .3.5 3.6 3.6 0 0 1 .3-.5l-.2-.1h.3a1.2 1.2 0 0 0 .1-.4s0 .1 0 .3a1.8 1.8 0 0 1 .3 0 3.6 3.6 0 0 1 0-1.1 4 4 0 0 1 .9 1 3.3 3.3 0 0 1 0-.4l-.2-.2h.2a1.4 1.4 0 0 0 0-.3s.1.1.3.3a1.9 1.9 0 0 1 .5 0 1 1 0 0 1-.2-.1c-.4-.5-.8-.7-.8-.7h.2a1.9 1.9 0 0 1-.3-.4l.1.5a6 6 0 0 1-1-1 5.7 5.7 0 0 1-.8 1.3 5.3 5.3 0 0 1-.2-1 3 3 0 0 1-1.4 0 4.9 4.9 0 0 1 .4-.4 3.5 3.5 0 0 1-.6 0v.1a2.4 2.4 0 0 1-.1-.2 1.1 1.1 0 0 0-.2 0 4.2 4.2 0 0 1-.5.6 4.1 4.1 0 0 1-.2-1.3ZM63.3 84.7a1.4 1.4 0 0 1-.3 0v.3l.6.4h-.1a1.8 1.8 0 0 1 .2.1l-.3-.7a1 1 0 0 1 0-.1ZM94.7 87.4a1.4 1.4 0 0 1-.1-.3l-.3.2-.1.6a2 2 0 0 1-.1-.2H94a1.2 1.2 0 0 1-.5.5 1.3 1.3 0 0 1 0 .3h.2l.6-.3a2.6 2.6 0 0 1-.2.7 4 4 0 0 1 .8-.3 4.6 4.6 0 0 1-.3.7 1.3 1.3 0 0 1 .2 0 4.2 4.2 0 0 1 .5 0c-.4-.5-.8-1.3-.6-2ZM38.7 61a1.5 1.5 0 0 0 .2.2h.3a4.7 4.7 0 0 1 .2-.9 6.3 6.3 0 0 1-.7.7ZM75.7 80.6a4.6 4.6 0 0 1 .3.4 1.5 1.5 0 0 1 0-.2 6.7 6.7 0 0 1 .8-.6v-.4a5.7 5.7 0 0 1-1 .8ZM76.8 78.5a1.4 1.4 0 0 1 .1-.3h-.3l-.6.3a2.6 2.6 0 0 1 .3-.8 4.1 4.1 0 0 1-.8.3 4.6 4.6 0 0 1 .3-.7 1.2 1.2 0 0 1-.2 0 6.4 6.4 0 0 1-1-.2l-.7.5a2.4 2.4 0 0 1 .4-.9l-.5.3a6 6 0 0 1 .5-1.2H74l-.5.2a5.3 5.3 0 0 1 .5-1l-.5-.3-.9.3a2.4 2.4 0 0 1 .6-.8l-.5.2a5.7 5.7 0 0 1 1-1.3 6.5 6.5 0 0 1-1.2.2 5 5 0 0 1 .9-1h-.5a2.6 2.6 0 0 1 .5-.5 4 4 0 0 1-.8-.1 4.6 4.6 0 0 1 .6-.5 1.6 1.6 0 0 1-.2-.1 6.6 6.6 0 0 1-.8-.5h-.9a2.4 2.4 0 0 1 .7-.6l-.5.1a6 6 0 0 1 1-1 5.8 5.8 0 0 1-1.3-.8 5.2 5.2 0 0 1 .7-.1 4 4 0 0 1-.8-.4 4.1 4.1 0 0 1 1.2-.4 1.6 1.6 0 0 0-.5-.3 4.8 4.8 0 0 1 1-.3 5 5 0 0 1-.3-.3 4.3 4.3 0 0 1 .5 0 4.7 4.7 0 0 1-.6-2 5.4 5.4 0 0 1 .6.5 2.5 2.5 0 0 1 .8.2l-.3-.8a2.4 2.4 0 0 1 .3.1 6.3 6.3 0 0 0-.3-1 5.2 5.2 0 0 1 .4.3 3.7 3.7 0 0 1 .1-1 4.1 4.1 0 0 1 .9 1 1.6 1.6 0 0 0 0-.5 4.8 4.8 0 0 1 .6.9l.2-.5a4.4 4.4 0 0 1 .3.7 3.9 3.9 0 0 0 .2-.5 3.2 3.2 0 0 1-.8-1 4.7 4.7 0 0 1 .7 0 1.2 1.2 0 0 1 0-.2 6.5 6.5 0 0 1-.1-.9l-.7-.6a2.5 2.5 0 0 1 1 .1l-.4-.3a6 6 0 0 1 1.4.2 5.8 5.8 0 0 1-.2-1.6 5.3 5.3 0 0 1 .8.8 3 3 0 0 1 1-1 4.4 4.4 0 0 1 0 .6 3.6 3.6 0 0 1 .5-.3v-.1h.2a1.2 1.2 0 0 0 .3-.1s0 .1-.1.3l.2.1a3.6 3.6 0 0 1 .6-1 4.1 4.1 0 0 1 .2 1.4 3.2 3.2 0 0 1 .2-.3v-.2h.2a1.2 1.2 0 0 0 0-.2l.1.4a1.9 1.9 0 0 1 .5.3 1 1 0 0 1 0-.2l-.4-1a2.7 2.7 0 0 1 .6.3l-.2-.8a2.4 2.4 0 0 1 .7.6l-.1-.5a6 6 0 0 1 1 .8 7 7 0 0 1 0-1 4.7 4.7 0 0 1 .4.4 7.2 7.2 0 0 1 .3-.7 4.4 4.4 0 0 1 .3 1.8 1.2 1.2 0 0 1 0 .7l.1.1.3-.5a2.5 2.5 0 0 1 .1.2v-.4a2.7 2.7 0 0 1 .4.5h.1a4.6 4.6 0 0 1 .3-.6 4.7 4.7 0 0 1 .3.6 1.4 1.4 0 0 1 .2-.1 6.7 6.7 0 0 1 .6-.7l.1-.8-.2.3a2.4 2.4 0 0 1 0-1 7 7 0 0 0-.3.5 5.9 5.9 0 0 1-.1-1.4 5.7 5.7 0 0 1-1.5.5s.8-1.6 1.8-1.7a1.4 1.4 0 0 1 .2-.2l-.3-.2c-.4 0-.6.2-.6.2v-.2a4.6 4.6 0 0 1 .2-.6 1.8 1.8 0 0 1-.2 0 6.5 6.5 0 0 1-.9 0l-.7.6a2.2 2.2 0 0 1 .3-1H84a6 6 0 0 1 1-1 5.7 5.7 0 0 1-1.3-.8 5.5 5.5 0 0 1 .9 0 2.2 2.2 0 0 1 .4-.5l-.8-.1a2.7 2.7 0 0 1 .3-.2 6.3 6.3 0 0 0-1-.2 5.1 5.1 0 0 1 .5-.3l-.2-.1a5.3 5.3 0 0 1-.7 0 5.8 5.8 0 0 1 .4 1.4s-1.6-.9-1.5-1.9a1.4 1.4 0 0 1-.3-.2l-.2.3.1.7a2.6 2.6 0 0 1-.6-.6 4 4 0 0 1 0 .9 4.8 4.8 0 0 1-.6-.6 1.7 1.7 0 0 1 0 .2 6.4 6.4 0 0 1-.5.8l.1.9a2.4 2.4 0 0 1-.7-.7l.2.5a5.9 5.9 0 0 1-1-1 5.7 5.7 0 0 1-.9 1.4 5.4 5.4 0 0 1-.1-1 3 3 0 0 1-1.4 0 4.7 4.7 0 0 1 .4-.4 3.6 3.6 0 0 1-.6-.1v.2l-.2-.2a1 1 0 0 0-.2 0 4.3 4.3 0 0 1-.5.6 4.1 4.1 0 0 1-.1-1.3 1.6 1.6 0 0 0-.4.4 4.8 4.8 0 0 1 0-1.1 4.7 4.7 0 0 1-.4.2s0 0 0-.3c-.4.3-1.5.8-2.1.4a1.5 1.5 0 0 1-.3.1l.1.3.7.2a2.6 2.6 0 0 1-.8.3 4 4 0 0 1 .7.5 4.8 4.8 0 0 1-.7.2 1.5 1.5 0 0 1 .1.1 6.4 6.4 0 0 1 .5.8l.9.3a2.4 2.4 0 0 1-.9.3l.5.1a6 6 0 0 1-1.4.5 5.7 5.7 0 0 1 .9 1.3 5.4 5.4 0 0 1-1-.3 2.5 2.5 0 0 1-.3.8c.3.6.2.7.5 1l-.4-.2a2.7 2.7 0 0 1-.5.4h.9a2.5 2.5 0 0 1-.8.6l.2.1a6.1 6.1 0 0 1-.7.2 4.3 4.3 0 0 1 .1.6 4.7 4.7 0 0 1-.5-.3l-.1.2a1.6 1.6 0 0 0 .3.2s-.2 0-.4 0a2.5 2.5 0 0 1-.5.5 1.3 1.3 0 0 1 .3 0l1.3-.3a3.3 3.3 0 0 1-.6.7l1-.2a3 3 0 0 1-.7.9l.6-.2a7.5 7.5 0 0 1-1.2 1.4 7.3 7.3 0 0 1 1.7 1s-2.2.6-3-.3a1.9 1.9 0 0 1-.5 0l.1.5.7.4a3.3 3.3 0 0 1-1 .1 5.3 5.3 0 0 1 .8.8 5.9 5.9 0 0 1-1 0 2 2 0 0 1 0 .3A8.6 8.6 0 0 1 68 66l1 .7a3 3 0 0 1-1.2 0l.5.3a7 7 0 0 1-2.4 0 5 5 0 0 1-.5.2 3.6 3.6 0 0 1 .5.4l.1-.1v.2a1.2 1.2 0 0 0 .3.3s-.2 0-.3 0a2 2 0 0 1 0 .2 3.6 3.6 0 0 1 1 .2 4 4 0 0 1-1.2.7 3 3 0 0 1 .4.1l.2-.1a2.2 2.2 0 0 1 0 .2 1.3 1.3 0 0 0 .2 0l-.3.2a1.9 1.9 0 0 1-.1.5 1 1 0 0 1 .1-.1l1-.7a2.6 2.6 0 0 1-.2.8l.6-.5a2.4 2.4 0 0 1-.3.9l.4-.4a6 6 0 0 1-.4 1.4 5.8 5.8 0 0 1 1.6 0s-1.4 1.3-2.3 1a1.4 1.4 0 0 1-.3.1l.2.3h.7a2.6 2.6 0 0 1-.7.5 4 4 0 0 1 .8.3 4.8 4.8 0 0 1-.7.3 1.1 1.1 0 0 1 .1.2 6.4 6.4 0 0 1 .6.7l.9.1a2.4 2.4 0 0 1-.8.5h.5a5.9 5.9 0 0 1-1.3.7l.2.2.4-.3a2.6 2.6 0 0 1-.1.5l.2.3a4.3 4.3 0 0 1 .7.4 4.1 4.1 0 0 1-1.3.3 1.6 1.6 0 0 0 .5.3 4.8 4.8 0 0 1-1 .2l.2.4a4.7 4.7 0 0 1-.7 0 2 2 0 0 0 .6.4s-.2 0-.5 0a2.5 2.5 0 0 1-.2.6l.7-.4a2.4 2.4 0 0 1-.4.8l.5-.2a6 6 0 0 1-.6 1.3 5.5 5.5 0 0 1 1.4.2A6.5 6.5 0 0 1 67 80a5.4 5.4 0 0 1 .8.7 3 3 0 0 1 1-1 4.7 4.7 0 0 1 0 .7 3.4 3.4 0 0 1 .5-.3v-.2a2.3 2.3 0 0 1 .2.1 1.2 1.2 0 0 0 .3-.1s0 0 0 .3a3.6 3.6 0 0 1 .7-.9 4 4 0 0 1 .2 1.3 2.8 2.8 0 0 1 .3-.3l-.1-.2.2.1a1.2 1.2 0 0 0 .1-.2s0 .1 0 .3a2 2 0 0 1 .5.3 1 1 0 0 1 0-.2l-.4-1a2.6 2.6 0 0 1 .6.4c0-.5-.2-.8-.2-.8a2.4 2.4 0 0 1 .8.6l-.2-.5a6 6 0 0 1 1 .8 7 7 0 0 1 0-1 4.5 4.5 0 0 1 .4.3 7.4 7.4 0 0 1 .3-.7 4.4 4.4 0 0 1 .3 1.8 1.3 1.3 0 0 1 0 .8 1 1 0 0 1 .2 0l.3-.5v.3-.4a2.6 2.6 0 0 1 .4.5l.2-.1a4.6 4.6 0 0 1 .2-.6s0 0 0 .1c.2-.5.5-1.6 1.2-1.9ZM65.4 29v-.2a2 2 0 0 1-.2-.2 3.5 3.5 0 0 1 0 .3l.2.1ZM62.1 87.7h.1ZM64.4 96.1H64l-.5.2a4.5 4.5 0 0 1 .8 0v-.2ZM65.8 97.6a1.3 1.3 0 0 1-.2 0h-.3l-.1.4h.4l.2-.4ZM67 81.5h.2v-.2l-.2.2ZM54.7 38.5v-.3h-.3a3.2 3.2 0 0 0 .3.3ZM45.8 64v.1h.1l-.1-.1ZM62.7 86.3a3.8 3.8 0 0 1 .1.5h.2a3 3 0 0 1-.3-.5ZM68.4 28.5a1.5 1.5 0 0 1-.2 0h.2ZM58.3 27.6a2 2 0 0 0-.4.5s0-.2 0-.4a3 3 0 0 1-.4-.2v.2l.1.4h-.2l-.1.3a5.8 5.8 0 0 1 1-.1 4.6 4.6 0 0 1 0-.7ZM39.2 61.6a1.6 1.6 0 0 1-.2.1h.2ZM58.3 28.3h.3V28l-.3.3ZM55.6 37.6v-.2h-.2a1.6 1.6 0 0 1 .2.2ZM64.6 84a2.5 2.5 0 0 1 .2.2 1.8 1.8 0 0 0 0-.5l-.2.2ZM66 84.2a3.2 3.2 0 0 1-.7-1 6.3 6.3 0 0 1-.4.5 4.6 4.6 0 0 1 .6.8c0-.1 0-.3.2-.4a4.7 4.7 0 0 1 .3.6 4 4 0 0 0 0-.5ZM66.6 29.5a1.2 1.2 0 0 1 .5.6V30c-.4-.3-1-.9-1-1.5a1.3 1.3 0 0 1-.2-.2l-.2.2a3.8 3.8 0 0 1 .9 1.1ZM71.8 27a5 5 0 0 1 .8.6v-.2a5.5 5.5 0 0 1-.3-.4 2.3 2.3 0 0 1-.6-.2l.2.6a1.2 1.2 0 0 0-.1-.4ZM73.6 50.4a2.6 2.6 0 0 1-.5-.3v.2l.5.1ZM67.7 29.6v-.2a4.6 4.6 0 0 1 0-.6 4.7 4.7 0 0 1 .6.4 1.3 1.3 0 0 1 0-.2v-.2a5.7 5.7 0 0 1-1 0 4.6 4.6 0 0 1 .2.7 2.4 2.4 0 0 1 .2 0ZM74 50.4v.1-.1Z"/><path fill="#73bf44" d="M65 81.8a1.4 1.4 0 0 1-.3.2l.1.2.7.2a2.7 2.7 0 0 1-.4.2h.4a2.4 2.4 0 0 1-.6.6l.5-.1a4.5 4.5 0 0 1 .6.2 1.4 1.4 0 0 1 0-.2 6.4 6.4 0 0 1 0-1c-.2 0-.3-.1-.3-.2a1.2 1.2 0 0 1-.7 0ZM69.4 59h.1a3 3 0 0 1-.4-.3 4.3 4.3 0 0 1 .3.3ZM67 98.6l-.4-.1-.5.3a2.5 2.5 0 0 1 .3.3 1 1 0 0 1 .4-.2 1.5 1.5 0 0 1 .1-.3Z"/><path fill="#73bf44" d="M136.9 70.2a7.6 7.6 0 0 0 .4-1.8s0 0-.5.5a3.1 3.1 0 0 0 .3-1.2s-.4.3-.9.7a3.2 3.2 0 0 0 .2-.8c.3 0 .5-.2.5-.2a2.6 2.6 0 0 1-.8-.3 6 6 0 0 0 .9-.2l-.5-.4a6.1 6.1 0 0 0 1.3-.5 2 2 0 0 1-.7-.2 5.2 5.2 0 0 0 1.5-.8 4.6 4.6 0 0 0-1.4-.4v-.2h.5a1.5 1.5 0 0 1-.4-.3v-.3l-.1.1a4.4 4.4 0 0 0-.6-.5 6 6 0 0 0 .8-.2 3.9 3.9 0 0 0-1.6-1 6.8 6.8 0 0 0 .6-1.1 7.4 7.4 0 0 0-1.8.8 7.6 7.6 0 0 0-.3-1.8s0 0-.1.3l-.2-.1a3.4 3.4 0 0 0-.1-.6c.7.7 2.5.2 2.5.2a5.8 5.8 0 0 0-1.4-.7 5.9 5.9 0 0 0 1-1s0 0-.5 0a2.4 2.4 0 0 0 .6-.6s0 0-.3 0a2.6 2.6 0 0 0 .3-.1s-.3-.1-.6-.2l-.2-.3a1.5 1.5 0 0 0 .3-.1c.8.4 2.3-.6 2.3-.6a5.8 5.8 0 0 0-1.5-.3 6 6 0 0 0 .6-1.3s0 0-.4.3a2.4 2.4 0 0 0 .4-.9s-.3.2-.8.4a2.5 2.5 0 0 0 .3-.5l.4-.1a2 2 0 0 1-.5-.4 4.5 4.5 0 0 0 .6 0l-.2-.4a4.8 4.8 0 0 0 1-.2 1.6 1.6 0 0 1-.5-.2 4.1 4.1 0 0 0 1.3-.4 4.3 4.3 0 0 0-.7-.4l-.2-.3a2.7 2.7 0 0 0 .2-.4s-.2 0-.4.2l-.3-.2a6 6 0 0 0 1.3-.6s0 0-.5-.1a2.5 2.5 0 0 0 .8-.4s-.3 0-.9-.2a6.5 6.5 0 0 0-.5-.7 1.4 1.4 0 0 0-.2-.1 4.6 4.6 0 0 0 .7-.4 4.1 4.1 0 0 0-.8-.3 2.6 2.6 0 0 0 .7-.4s-.3 0-.7 0l-.1-.3a1.4 1.4 0 0 0 .2-.2c1 .3 2.3-.9 2.3-.9a5.7 5.7 0 0 0-1.6 0 6 6 0 0 0 .5-1.4s0 0-.4.3a2.4 2.4 0 0 0 .3-1s-.3.3-.7.6a2.6 2.6 0 0 0 .2-.7s-.4.3-1 .6a.9.9 0 0 0 0 .1 1.9 1.9 0 0 0 0-.5l.4-.1a1.2 1.2 0 0 1-.3 0 2.2 2.2 0 0 0 0-.3s0 0-.2.2a3.3 3.3 0 0 0-.3-.2 4.1 4.1 0 0 0 1.1-.6 3.6 3.6 0 0 0-1-.3v-.2h.3a1.2 1.2 0 0 1-.3-.2 2.3 2.3 0 0 0 0-.3s0 0 0 .2a3.5 3.5 0 0 0-.5-.5 4.6 4.6 0 0 0 .5-.1 3 3 0 0 0-1.3-.6 5.4 5.4 0 0 0 .4-1 5.7 5.7 0 0 0-1.4.8 5.9 5.9 0 0 0-.4-1.4s0 0-.1.5a2.4 2.4 0 0 0-.3-1s-.1.4-.3 1a6.5 6.5 0 0 0-.8.4 1.6 1.6 0 0 0-.2.1 4.6 4.6 0 0 0-.1-.5 4.6 4.6 0 0 0 .5 0 3.7 3.7 0 0 0-.6-.8 5.1 5.1 0 0 0 .5 0l-.8-.6a2.4 2.4 0 0 0 .3-.1s-.2-.2-.7-.4a2.3 2.3 0 0 0 .6-.3 5.5 5.5 0 0 0 .8.2 4.7 4.7 0 0 0-1.2-1.5 4.5 4.5 0 0 0 .4-.2l-.4-.2a4.8 4.8 0 0 0 .9-.7 1.6 1.6 0 0 1-.6 0 4.2 4.2 0 0 0 1-.9 4 4 0 0 0-.9 0 5.3 5.3 0 0 0 .6-.3 5.7 5.7 0 0 0-1.5-.4 6 6 0 0 0 .6-1.2s0 0-.4.2a2.4 2.4 0 0 0 .4-.8s-.3.1-.8.4a6.7 6.7 0 0 0-1-.2 1.3 1.3 0 0 0-.1 0 4.6 4.6 0 0 0 .3-.7 4 4 0 0 0-.8.2 2.6 2.6 0 0 0 .3-.8s-.1.1-.4.3a5.1 5.1 0 0 0 .5-1.3 6.3 6.3 0 0 0-1.1.7 5.7 5.7 0 0 0 .5-1.7s0 0-.4.4a2.4 2.4 0 0 0 .3-1s-.3.3-.7.6a6.5 6.5 0 0 0-1 0h-.2a4.6 4.6 0 0 0 .3-.7 4.1 4.1 0 0 0-.8.3 2.5 2.5 0 0 0 .2-.8s-.2.2-.6.4h-.3a1.3 1.3 0 0 0 0-.3c1-.4 1-2.3 1-2.3a5.7 5.7 0 0 0-1.1 1.1 6 6 0 0 0-.7-1.3s0 .1 0 .6a2.4 2.4 0 0 0-.5-.9s0 .4-.1.9a2.6 2.6 0 0 0-.3-.6l.2-.3a2 2 0 0 1-.7.2 4.4 4.4 0 0 0 .5-.6 4.6 4.6 0 0 0-.5 0 4.8 4.8 0 0 0 .5-1l-1 .5a1.5 1.5 0 0 0-.3.1 6 6 0 0 0-.4-1.3s0 0-.1.5a2.4 2.4 0 0 0-.3-1s0 .4-.3.9a2.6 2.6 0 0 0-.2-.7s-.1.4-.4 1a.9.9 0 0 0 0 .2 1.9 1.9 0 0 0-.2-.5l.1-.3a1.1 1.1 0 0 1-.2 0 2 2 0 0 0-.1-.1s0 0 0 .2a3.4 3.4 0 0 0-.4.1 4.1 4.1 0 0 0 .6-1.2 3.6 3.6 0 0 0-1 .4l-.2-.2c.2 0 .3-.2.3-.2a1.2 1.2 0 0 1-.4 0 2.3 2.3 0 0 0 0-.2l-.1.1a3.5 3.5 0 0 0-.6 0 4.8 4.8 0 0 0 .4-.5 3 3 0 0 0-1.4 0 5.3 5.3 0 0 0-.2-1 5.8 5.8 0 0 0-.8 1.4 6 6 0 0 0-1-1s0 0 .1.5a2.4 2.4 0 0 0-.6-.7s0 .4.1 1a6.4 6.4 0 0 0-.5.7 1.6 1.6 0 0 0 0 .2 4.8 4.8 0 0 0-.6-.6 3.4 3.4 0 0 0 0 1.3l-.3.2a4.4 4.4 0 0 0 0-.5l-.4.2a4.8 4.8 0 0 0 0-1 1.6 1.6 0 0 1-.3.3 4 4 0 0 0 0-1.3 4.4 4.4 0 0 0-.6.6 5 5 0 0 0-.4-1 1.3 1.3 0 0 1 0 .5 2.5 2.5 0 0 0-.4-.8s0 .1-.1.4a2.2 2.2 0 0 0-.4-.6 5.4 5.4 0 0 0 0-1 5.7 5.7 0 0 0-1 1.2 5.9 5.9 0 0 0-.8-1.3s0 0 0 .6a2.4 2.4 0 0 0-.5-.9s0 .4 0 1a6.5 6.5 0 0 0-.7.6 1.4 1.4 0 0 0-.2.1 4.7 4.7 0 0 0-.3-.6 4.5 4.5 0 0 0-.2.5l-.2.2a2.4 2.4 0 0 0-.1-.3h.3a5.5 5.5 0 0 0-.8-.6 6.2 6.2 0 0 0 1-.7 1.6 1.6 0 0 1-.5 0 3.2 3.2 0 0 0 .9-.7s-.2 0-.5 0a3.1 3.1 0 0 0 .7-1s-.2.1-.6.2a3.5 3.5 0 0 0 .4-.5 6.8 6.8 0 0 0 .8-.4 9.9 9.9 0 0 0-1-.3 7.7 7.7 0 0 0 1-1.1s0 0-.6.1a3 3 0 0 0 .9-.8s-.4 0-1 0a4.5 4.5 0 0 0-.7-.2 1.8 1.8 0 0 0-.3 0 5.8 5.8 0 0 0 .6-.8 5.2 5.2 0 0 0-1.1.1 3.2 3.2 0 0 0 .5-.9l-.8.4-.4-.2a1.7 1.7 0 0 0 .2-.3 5.4 5.4 0 0 0 1.2-2 9.3 9.3 0 0 0-1 .4 7.6 7.6 0 0 0-.5-1.8s0 .1-.2.7a3 3 0 0 0-.3-1.2s-.1.4-.4 1a3.2 3.2 0 0 0-.2-.8l.4-.4a2.6 2.6 0 0 1-.9 0 5.9 5.9 0 0 0 .7-.5l-.6-.1a6.1 6.1 0 0 0 1-1 2 2 0 0 1-.7 0 5.3 5.3 0 0 0 1-1.3 4.6 4.6 0 0 0-1.4.3V6l.3-.2a1.5 1.5 0 0 1-.5 0 2.9 2.9 0 0 0 0-.4s-.1.1-.2.2a4.5 4.5 0 0 0-.7-.2 6 6 0 0 0 .6-.5 3.9 3.9 0 0 0-1.8-.2 6.7 6.7 0 0 0 0-1.3A7.3 7.3 0 0 0 101 5a7.6 7.6 0 0 0-1-1.4s0 0 0 .6a3 3 0 0 0-.7-1s0 .5 0 1.2l-.6.6a5.5 5.5 0 0 0-.7-1.3 5.2 5.2 0 0 0-.3 1 3.3 3.3 0 0 0-.6-.8s0 .3 0 .8l-.3.3a1.9 1.9 0 0 0-.3-.3c.3-1.2-1.4-2.8-1.4-2.8a7.3 7.3 0 0 0 0 2 7.5 7.5 0 0 0-1.7-.4s0 0 .5.5a3 3 0 0 0-1.2-.3s.3.4.7.8a3.2 3.2 0 0 0-.7-.1l-.3-.5a2.6 2.6 0 0 1-.3.8 6 6 0 0 0-.2-.9 5.8 5.8 0 0 0-.4.5A6.2 6.2 0 0 0 91 3a2 2 0 0 1-.2.7 5.3 5.3 0 0 0-.8-1.5 4.8 4.8 0 0 0-.4 1.3A6.8 6.8 0 0 0 89 3a8.1 8.1 0 0 1 .2 1.3 3.2 3.2 0 0 0-.4-.2s.1.4.2 1a2.8 2.8 0 0 0-.7-.4 6.6 6.6 0 0 0-.5-1 7.2 7.2 0 0 0-.4 2 7.6 7.6 0 0 0-1.6-.8l.3.6a3.1 3.1 0 0 0-1-.5l.5 1a8.2 8.2 0 0 0-.3 1.2 1.7 1.7 0 0 0 0 .2 6.2 6.2 0 0 0-.9-.4 5.2 5.2 0 0 0 .3 1 3.3 3.3 0 0 0-1-.4s.2.3.4.8v.4a1.8 1.8 0 0 0-.4-.2c-.3-.6-1-1-1.7-1.3a5.7 5.7 0 0 0 .6-.3 4.7 4.7 0 0 0-2-.5 4.1 4.1 0 0 0 .3-.4h-.5a4.8 4.8 0 0 0 .4-1 1.6 1.6 0 0 1-.5.3 4.1 4.1 0 0 0 .4-1.3 4 4 0 0 0-.8.5 5.2 5.2 0 0 0 .3-.6 5.7 5.7 0 0 0-1.5.6 5.9 5.9 0 0 0-.2-1.5s0 .1-.2.5a2.4 2.4 0 0 0-.1-1s-.2.4-.4.9a6.4 6.4 0 0 0-1 .3 4.7 4.7 0 0 0-.2-.7 4 4 0 0 0-.6.7 2.6 2.6 0 0 0 0-.8s-.2.2-.3.5a5.1 5.1 0 0 0-.4-1.4 6.4 6.4 0 0 0-.5 1.2 5.7 5.7 0 0 0-.5-1.6s0 0 0 .5a2.4 2.4 0 0 0-.4-1s0 .4-.3 1a6.3 6.3 0 0 0-.8.4 2 2 0 0 0-.1.1 4.6 4.6 0 0 0-.2-.7 4 4 0 0 0-.5.7 2.5 2.5 0 0 0-.3-.7s0 .2-.2.6l-.3.1a1.4 1.4 0 0 0 0-.2c.4-.9-.6-2.4-.6-2.4a5.7 5.7 0 0 0-.3 1.5A5.9 5.9 0 0 0 69 1s0 0 .3.4a2.5 2.5 0 0 0-.9-.4s.2.3.4.7a2.6 2.6 0 0 0-.6-.2V1a2 2 0 0 1-.4.5 4.8 4.8 0 0 0 0-.7 4.7 4.7 0 0 0-.4.3 4.8 4.8 0 0 0-.1-1.1c-.2.4-.3.3-.6 1a1.5 1.5 0 0 0-.1.2 6 6 0 0 0-1-1s0 .1 0 .6a2.4 2.4 0 0 0-.7-.6s.1.3.2.8a2.6 2.6 0 0 0-.5-.5s0 .5.2 1.1a1 1 0 0 0 0 .2 1.9 1.9 0 0 0-.4-.3v-.4a1.2 1.2 0 0 1-.1.3l-.3-.1.1.2a3.5 3.5 0 0 0-.2.3 4.1 4.1 0 0 0-.2-1.4 3.5 3.5 0 0 0-.6 1l-.2-.2.1-.3a1.2 1.2 0 0 1-.3.2l-.2-.1v.2a3.6 3.6 0 0 0-.5.2 4.7 4.7 0 0 0 0-.6 3 3 0 0 0-1 .9 5.3 5.3 0 0 0-.8-.8 5.7 5.7 0 0 0 .2 1.6 6 6 0 0 0-1.5-.3s0 0 .4.4a2.4 2.4 0 0 0-1-.2s.3.3.7.7a6.5 6.5 0 0 0 0 .9 1.4 1.4 0 0 0 0 .2 4.8 4.8 0 0 0-.7-.2 3.4 3.4 0 0 0 .7 1l-.1.4a4.5 4.5 0 0 0-.2-.4l-.3.4a4.8 4.8 0 0 0-.5-1 1.6 1.6 0 0 1-.1.6 4.1 4.1 0 0 0-.8-1 4.2 4.2 0 0 0-.1.7 5 5 0 0 0-.9-.5 1.3 1.3 0 0 1 .2.4 2.5 2.5 0 0 0-.7-.5s0 .2 0 .4a2.2 2.2 0 0 0-.6-.2 5.4 5.4 0 0 0-.4-.9 5.8 5.8 0 0 0-.3 1.5 5.9 5.9 0 0 0-1.3-.5s0 0 .3.4a2.4 2.4 0 0 0-.9-.4s.2.3.5.8a6.5 6.5 0 0 0-.2 1 1.3 1.3 0 0 0 0 .1 4.8 4.8 0 0 0-.7-.3 4.3 4.3 0 0 0 .1.6v.1a2.6 2.6 0 0 0-.6-.2s0 .1.2.4a2.2 2.2 0 0 0-.2-.2s0 .2 0 .6a1.3 1.3 0 0 0-.6-.6 4.4 4.4 0 0 0-1.2-1.3 7.9 7.9 0 0 0 .1.8 4.6 4.6 0 0 0-.5-.2 7.2 7.2 0 0 0 .5.9 6 6 0 0 0-1.2 0s0 0 .4.2a2.4 2.4 0 0 0-1 0s.3.2.7.5a2.6 2.6 0 0 0-.8 0s.4.3.9.7a1 1 0 0 0 .1.1 1.9 1.9 0 0 0-.5 0l-.2-.2a1.2 1.2 0 0 1 0 .2h-.2l.2.2a3.2 3.2 0 0 0 0 .4 4.1 4.1 0 0 0-1-1 3.6 3.6 0 0 0 0 1.2H47V9a1.2 1.2 0 0 1-.2.3 2.4 2.4 0 0 0-.2 0s0 0 .1.1a3.5 3.5 0 0 0-.3.6 4.5 4.5 0 0 0-.3-.6 3 3 0 0 0-.3 1.4 5.4 5.4 0 0 0-1-.2 5.7 5.7 0 0 0 1 1.2 5.9 5.9 0 0 0-1.3.6s0 0 .5.1a2.4 2.4 0 0 0-.9.4s.4 0 1 .2a6.3 6.3 0 0 0 .5.7 1.3 1.3 0 0 0 .2.1 4.5 4.5 0 0 0-.7.4 3.2 3.2 0 0 0 1.3.4 3.8 3.8 0 0 1 .1.4 4.6 4.6 0 0 0-.6-.3v.5a4.8 4.8 0 0 0-1-.4 1.6 1.6 0 0 1 .3.5A4.1 4.1 0 0 0 44 15a3.7 3.7 0 0 0 .5.9h-.5l.8.7a2.2 2.2 0 0 0-.4 0s.2.1.5.3l-.2.3a3 3 0 0 0-.4.2 5 5 0 0 0-.4 0v-.2h-.2a7.1 7.1 0 0 0-.6-.4s0 0 .2.6a3.1 3.1 0 0 0-1-.7l.3.9a5.5 5.5 0 0 0-.6.3 7.5 7.5 0 0 0-.2-1.8s0 0-.3.6a3 3 0 0 0-.1-1.2s-.2.4-.6 1a8.1 8.1 0 0 0-1.1.4 1.7 1.7 0 0 0-.2 0 5.9 5.9 0 0 0-.1-.9 5 5 0 0 0-.8.8 3.3 3.3 0 0 0-.1-1s-.2.3-.4.7l-.4.1a1.7 1.7 0 0 0-.1-.4c.8-.9 0-3 0-3a7.3 7.3 0 0 0-.8 1.8 7.5 7.5 0 0 0-1.5-1.2s0 .1.2.7a3 3 0 0 0-.9-.8l.3 1a3.3 3.3 0 0 0-.8-.5l.4 1.4a1.3 1.3 0 0 0 0 .2 2.5 2.5 0 0 0-.5-.4V15a1.7 1.7 0 0 1-.2.3 2.3 2.3 0 0 0-.3-.1l.1.2a4.6 4.6 0 0 0-.3.4 5.3 5.3 0 0 0-.2-1.7 4.5 4.5 0 0 0-.8 1.2 2.1 2.1 0 0 0-.3-.1l.2-.4a1.6 1.6 0 0 1-.4.2 2.3 2.3 0 0 0-.3 0v.1a4.4 4.4 0 0 0-.6.4 6 6 0 0 0 0-.8 3.9 3.9 0 0 0-1.3 1.2 6.8 6.8 0 0 0-1-1 7.3 7.3 0 0 0 .3 2 7.5 7.5 0 0 0-1.9-.3s.1 0 .5.5a3 3 0 0 0-1.2-.2s.4.3.9.8a8.1 8.1 0 0 0 0 1.2 2 2 0 0 0 .1.2 6 6 0 0 0-1-.1 4 4 0 0 0 1 1.4 4.8 4.8 0 0 1 0 .6 5.8 5.8 0 0 0-.4-.8c-.2.2-.3.3-.3.5a6.2 6.2 0 0 0-.8-1.1 2 2 0 0 1 0 .7 5.3 5.3 0 0 0-1.2-1.3 4.9 4.9 0 0 0 0 1.3 6 6 0 0 0-.7-.3 8 8 0 0 1 .4 1.2 2.8 2.8 0 0 0-.3-.2l.3 1a2.8 2.8 0 0 0-.7-.2 6.9 6.9 0 0 0-.7-.9 7.3 7.3 0 0 0 0 2 7.5 7.5 0 0 0-1.8-.4s0 0 .5.5a3 3 0 0 0-1.2-.3s.3.3.8.9a8.7 8.7 0 0 0 0 1.1 2.1 2.1 0 0 0 0 .3 5.9 5.9 0 0 0-1-.3 5.2 5.2 0 0 0 .5 1 3.3 3.3 0 0 0-1-.2s.2.3.5.7v.4a1.7 1.7 0 0 0-.4-.1c-.6-1-2.9-1-2.9-1a7.3 7.3 0 0 0 1.4 1.3 7.5 7.5 0 0 0-1.6 1s.1 0 .7 0a3.1 3.1 0 0 0-1 .6s.4 0 1 .1a3.1 3.1 0 0 0-.6.4l-.5-.2a2.6 2.6 0 0 1 .3.8 6 6 0 0 0-.7-.5v.6a6 6 0 0 0-1.3-.6 2 2 0 0 1 .3.7 5.3 5.3 0 0 0-1.5-.6 4.6 4.6 0 0 0 .6 1.3 2.3 2.3 0 0 0-.2.1l-.3-.3a1.5 1.5 0 0 1 0 .5 3 3 0 0 0-.2.2s.1 0 .2 0a4.3 4.3 0 0 0 0 .8 5.8 5.8 0 0 0-.6-.4 3.9 3.9 0 0 0 .4 1.7 6.8 6.8 0 0 0-1.3.4 7.2 7.2 0 0 0 1.8.7 7.6 7.6 0 0 0-1 1.5s0 0 .6-.2a3 3 0 0 0-.7 1l1-.4a8.4 8.4 0 0 0 1.2.5 1.8 1.8 0 0 0 .2 0 6 6 0 0 0-.6.8 5.3 5.3 0 0 0 1.1 0 3.3 3.3 0 0 0-.5.8l.8-.3.3.2a1.8 1.8 0 0 0-.2.4c-1.2.1-2 2.3-2 2.3a7.3 7.3 0 0 0 1.8-.8 7.6 7.6 0 0 0 .3 1.8s0-.1.2-.6a3.1 3.1 0 0 0 .2 1.2s.2-.4.5-1a3.2 3.2 0 0 0 .1.8l-.3.3a2.7 2.7 0 0 1 .8 0 6 6 0 0 0-.7.5l.5.2a6 6 0 0 0-1 1 2 2 0 0 1 .7 0 5.3 5.3 0 0 0-1 1.2 4.9 4.9 0 0 0 1.3-.1 6 6 0 0 0-.3.7 2.3 2.3 0 0 1 .7-.4l.5.7v.5a4.2 4.2 0 0 0 0 .5 1.2 1.2 0 0 0 0 .1 4.6 4.6 0 0 0-.8-.2 4 4 0 0 0 .3.8 2.6 2.6 0 0 0-.7-.2s.1.2.4.5v.3a1.4 1.4 0 0 0-.4 0c-.4-1-2.2-1-2.2-1a5.8 5.8 0 0 0 1 1.1 5.8 5.8 0 0 0-1.3.7s.1 0 .6 0a2.4 2.4 0 0 0-.9.4s.4 0 .8.2a2.5 2.5 0 0 0-.5.3l-.4-.2a2 2 0 0 1 .2.6 4.6 4.6 0 0 0-.5-.4 4.6 4.6 0 0 0 0 .4 4.8 4.8 0 0 0-1-.5 1.5 1.5 0 0 1 .2.5 4.1 4.1 0 0 0-1.2-.5 3.6 3.6 0 0 0 .5 1l-.2.1-.2-.2a1.3 1.3 0 0 1 0 .3l-.2.2h.2a3.4 3.4 0 0 0-.1.6 4.8 4.8 0 0 0-.5-.4 3 3 0 0 0 .2 1.5 5.5 5.5 0 0 0-1 .2 5.8 5.8 0 0 0 1.4.7 5.9 5.9 0 0 0-1 1s.1 0 .6-.1a2.4 2.4 0 0 0-.6.7s.3 0 .8-.2a6.7 6.7 0 0 0 .9.5 1.5 1.5 0 0 0 .2 0 4.7 4.7 0 0 0-.5.6 4.2 4.2 0 0 0 .8 0 2.6 2.6 0 0 0-.5.6s.3 0 .7-.1l.2.1a1.4 1.4 0 0 0-.2.3c-1 0-1.7 1.7-1.7 1.7a5.7 5.7 0 0 0 1.5-.6 5.9 5.9 0 0 0 0 1.5s.1 0 .3-.5a2.4 2.4 0 0 0 .1 1s.2-.3.4-.8a2.5 2.5 0 0 0 .1.6l-.3.3a2 2 0 0 1 .6 0 4.6 4.6 0 0 0-.6.4l.5.2a4.8 4.8 0 0 0-.9.7 1.6 1.6 0 0 1 .6 0 4.1 4.1 0 0 0-1 1 3.7 3.7 0 0 0 1 0 5.3 5.3 0 0 0-.1.4 6.3 6.3 0 0 1 .9-.4 2.6 2.6 0 0 0-.1.3s.3-.1.7-.3a2.2 2.2 0 0 0-.1.6 5.3 5.3 0 0 0-.6.6A5.7 5.7 0 0 0 16 64a6 6 0 0 0-.2 1.4s0 0 .4-.4a2.4 2.4 0 0 0-.2 1s.3-.3.7-.7a6.5 6.5 0 0 0 .9 0 1.2 1.2 0 0 0 .2 0 5.2 5.2 0 0 0-.1.5l-.1.2.6-.2.3.2a1.4 1.4 0 0 0-.2.3c-1 0-1.7 1.7-1.7 1.7a5.7 5.7 0 0 0 1.5-.6 6 6 0 0 0 .1 1.4s0 0 .3-.4a2.4 2.4 0 0 0 0 1s.2-.4.5-.8a2.6 2.6 0 0 0 0 .6l-.2.3a2 2 0 0 1 .6 0 4.7 4.7 0 0 0-.6.4l.5.1a4.7 4.7 0 0 0-.8.8 1.6 1.6 0 0 1 .5 0 4.1 4.1 0 0 0-.9.9 4 4 0 0 0 1 0c-.4.5.3 1.4.3 1.4l.1-.8a2.6 2.6 0 0 0 .3.5l-.2.4a6.4 6.4 0 0 1 1-.2v.3a5.4 5.4 0 0 0-.4.5 1.6 1.6 0 0 1 .5-.1l.2.4.2-.4h.2a1.3 1.3 0 0 0 .2-.1 4.8 4.8 0 0 0-.1.7 4 4 0 0 0 .7-.4 2.6 2.6 0 0 0 0 .8s.1-.2.4-.5h.4a4.7 4.7 0 0 0-.3.7 4 4 0 0 0 .8-.3 2.6 2.6 0 0 0-.2.8s.2-.1.5-.3a4.7 4.7 0 0 0-.5 1l1-.5a1.4 1.4 0 0 0 .2 0 4.7 4.7 0 0 0 .1.7 4.2 4.2 0 0 0 .6-.7 2.6 2.6 0 0 0 .1.8s.1-.3.3-.6a5.2 5.2 0 0 0 .8-.4 1.4 1.4 0 0 0 .3-.1 5.6 5.6 0 0 0 .5.3s0 0-.2-.5a2.4 2.4 0 0 0 .8.6s-.1-.4-.3-.8a2.6 2.6 0 0 0 .5.3v.4l.8-.8a1.3 1.3 0 0 0 .2-.3 5.1 5.1 0 0 0 .3.8 6.2 6.2 0 0 1 .4-1 2.5 2.5 0 0 0 .1.4s.1-.4.3-.8a2.3 2.3 0 0 0 .3.5 5.4 5.4 0 0 0 0 .8l-.3.2h.5a2.4 2.4 0 0 0-.8.4s.3.1.8.2a2.6 2.6 0 0 0-.7.4s.5 0 1.1.2a.9.9 0 0 0 .2 0 2 2 0 0 0-.5.3l-.3-.1a1.4 1.4 0 0 1 .1.2 2 2 0 0 0-.1.1s0 0 .2 0a3.3 3.3 0 0 0 .2.4 4 4 0 0 0-1.3-.4 3.5 3.5 0 0 0 .5 1H30c-.2 0-.3-.2-.3-.2a1.2 1.2 0 0 1 0 .4 2.2 2.2 0 0 0-.1.2h.1a3.7 3.7 0 0 0 0 .6 4.7 4.7 0 0 0-.5-.4 3 3 0 0 0 .3 1.4 5.3 5.3 0 0 0-1 .3 5.7 5.7 0 0 0 1.5.6 5.9 5.9 0 0 0-.8 1.2s0 0 .4-.2a2.4 2.4 0 0 0-.5.7s.3 0 .9-.2a6.3 6.3 0 0 0 .8.3 1.4 1.4 0 0 0 .2 0 4.6 4.6 0 0 0-.4.7 3.2 3.2 0 0 0 1.3-.2 3.6 3.6 0 0 1 .3.3 5 5 0 0 0-.7 0l.3.4a4.7 4.7 0 0 0-1 .1 2.5 2.5 0 0 1 .5.4 3.7 3.7 0 0 0 .8.5 5.3 5.3 0 0 0-.4.4 1.3 1.3 0 0 1 .4 0s.3 0 .8 0a2.2 2.2 0 0 0-.4.5 5.4 5.4 0 0 0-.8.3 4.7 4.7 0 0 0 1.9.6 4.4 4.4 0 0 0-.3.5 4.4 4.4 0 0 0 .4 0 4.8 4.8 0 0 0-.4 1 1.6 1.6 0 0 1 .5-.3 4.1 4.1 0 0 0-.4 1.2 4 4 0 0 0 .8-.4 5.3 5.3 0 0 0-.4.6 5.8 5.8 0 0 0 1.5-.5 5.8 5.8 0 0 0 0 1.2 2.7 2.7 0 0 0 0 .4s.3-.2.7-.5a6.6 6.6 0 0 0 1 .2 1.2 1.2 0 0 0 .1 0 4.7 4.7 0 0 0-.3.7 4 4 0 0 0 .9-.3 2.6 2.6 0 0 0-.3.8s.2-.1.4-.3a5.1 5.1 0 0 0-.3 1.3 6.3 6.3 0 0 0 1-.8 5.7 5.7 0 0 0-.4 1.7s0 0 .4-.4a2.4 2.4 0 0 0-.2 1s.3-.3.7-.7a6.5 6.5 0 0 0 .9 0 1.3 1.3 0 0 0 .2 0 4.8 4.8 0 0 0-.2.7 4 4 0 0 0 .8-.4 2.6 2.6 0 0 0-.2.8s.2-.2.5-.4a5.2 5.2 0 0 0 1 0 1 1 0 0 0 .6-.3 4.8 4.8 0 0 0 0 .5 5.7 5.7 0 0 0 1-1.2 5.9 5.9 0 0 0 .8 1.2s0 0 0-.5a2.4 2.4 0 0 0 .5.8s0-.4 0-.9a2.6 2.6 0 0 0 .5.6s0-.3 0-.7l.3.4a3.3 3.3 0 0 1 .1-.8l.4.1a5 5 0 0 0 .4.7 1.6 1.6 0 0 1 .1-.5h.3l-.1-.2a5.3 5.3 0 0 0 1 .2l-.4-.4v-.4a6 6 0 0 0 1.2.2s0 0-.3-.4a2.4 2.4 0 0 0 .9.2s-.3-.2-.6-.6a6.4 6.4 0 0 0 0-1 1.3 1.3 0 0 0 0-.2 4.7 4.7 0 0 0 .7.2 4.1 4.1 0 0 0-.4-.8 2.6 2.6 0 0 0 .7.2s-.1-.2-.4-.5v-.3a1.3 1.3 0 0 0 .3 0c.5.8 2.3.7 2.3.7a5.7 5.7 0 0 0-1.1-1 5.9 5.9 0 0 0 1.2-.8s-.1 0-.6 0a2.4 2.4 0 0 0 .8-.5s-.3 0-.8 0a2.6 2.6 0 0 0 .5-.4l.4.1a4.8 4.8 0 0 1-.4-.8 4.1 4.1 0 0 0 1.2-.5 4.1 4.1 0 0 0-.8-.3 2.6 2.6 0 0 0 .7-.4s-.2 0-.5-.1a4.8 4.8 0 0 0 .9-.5 3 3 0 0 0 0 .3s0-.1.3-.3a6.4 6.4 0 0 0 .9.1 4.7 4.7 0 0 0-.7 1 6 6 0 0 1 1-.3 2.7 2.7 0 0 0-.2.3s.3-.1.8-.2a2.2 2.2 0 0 0-.2.5 5.5 5.5 0 0 0-.8.5 5.2 5.2 0 0 0 1.8.1 6 6 0 0 0-.4 1.3s0 0 .6-.4a2.3 2.3 0 0 0 .2 1s.1-.4.3-.8a6 6 0 0 0 .9-.4 1.3 1.3 0 0 0 .1-.1 4.6 4.6 0 0 0 .2.5v.3l.8-.7a3.5 3.5 0 0 0 1 1.3v-1.2a1.6 1.6 0 0 0 0-.2 4.7 4.7 0 0 0 .5.2 5.1 5.1 0 0 0 .2.6c0-.3.2-.4.4-.8a1.9 1.9 0 0 0 .3.4l-.3.2a3.9 3.9 0 0 0 .8.3 5.1 5.1 0 0 0-.6.1 5.8 5.8 0 0 0 1.3.9 5.9 5.9 0 0 0-1 1s0 0 .4-.1a2.4 2.4 0 0 0-.7.6s.4 0 1 0a6.7 6.7 0 0 0 .7.4 1.5 1.5 0 0 0 .2.1 4.7 4.7 0 0 0-.6.5 4 4 0 0 0 .9.1 2.6 2.6 0 0 0-.6.6s.2 0 .5 0a5.1 5.1 0 0 0-.9 1 6.6 6.6 0 0 0 1.3-.3 5.7 5.7 0 0 0-1.1 1.4s0 0 .5-.2a2.4 2.4 0 0 0-.6.7s.4 0 .9-.2l.5.2a5.2 5.2 0 0 0-.5 1h-.1a1.8 1.8 0 0 0-.2 0 5.9 5.9 0 0 0 .2-.9 4 4 0 0 0-1.5 1A6.3 6.3 0 0 0 62 95c-.3.4-.4.3-1 .8a5.3 5.3 0 0 0-1.1-1.2 5.6 5.6 0 0 0 0 .9 5.8 5.8 0 0 0-1.1-1.2 2.8 2.8 0 0 1 0 .9 4.7 4.7 0 0 0-1.7-1 4.7 4.7 0 0 0 .5 1.3 4.2 4.2 0 0 0-.6-.1 6 6 0 0 0-.6-.5v.4H56a1.7 1.7 0 0 1 .2.2 3.7 3.7 0 0 0 0 .8 3.4 3.4 0 0 0-.8 0s.2.2.6.5a7.7 7.7 0 0 0-1.6-.2s.1 0 1.1 1a3.2 3.2 0 0 0-.8 0l-.4-.1a5.9 5.9 0 0 0 .1.6 6 6 0 0 0-1.3-.5 2 2 0 0 1 .3.6A5.3 5.3 0 0 0 52 98a4.6 4.6 0 0 0 .8 1.2l-.2.1-.3-.2a1.6 1.6 0 0 1 0 .4l-.2.2h.2a4.4 4.4 0 0 0 0 .8 6 6 0 0 0-.6-.4 3.9 3.9 0 0 0 .5 1.8 6.8 6.8 0 0 0-1.2.5 7.4 7.4 0 0 0 1.9.5 7.5 7.5 0 0 0-1 1.6s.1 0 .6-.3a3.1 3.1 0 0 0-.6 1s.4-.1 1-.4a8.3 8.3 0 0 0 1.2.4 2.1 2.1 0 0 0 .2 0 6 6 0 0 0-.5.9 5.3 5.3 0 0 0 1-.2 3.3 3.3 0 0 0-.4.9s.3-.1.8-.3l.4.1a1.8 1.8 0 0 0-.2.4c-1.2.2-2 2.4-2 2.4a7.4 7.4 0 0 0 1.8-.9v.5l-.2.4h.4v.3a6.4 6.4 0 0 0-.5 1c.5-.4.6-.2 1.4-.6a3.2 3.2 0 0 0-.1 1.2s.3-.4.7-.8a3.3 3.3 0 0 0 0 .9s.3-.4.9-1a3.1 3.1 0 0 0 0 1.2s.3-.5.8-1a6.4 6.4 0 0 0 .6.8 2.1 2.1 0 0 1 0-.8 3.3 3.3 0 0 0 .6.8s0-.4 0-1a7.7 7.7 0 0 0 1.1 1.1s0 0-.1-.6a3 3 0 0 0 .8.8s0-.4-.1-1a3.3 3.3 0 0 0 .7.6s0-.1-.1-.4a6 6 0 0 0 3.1.3s0 0-.6-.4a3.1 3.1 0 0 0 1.2 0s-.4-.3-1-.7a8.3 8.3 0 0 0-.2-1.1 1.7 1.7 0 0 0-.1-.3 6.2 6.2 0 0 0 1 0 5.2 5.2 0 0 0-.8-.8 3.3 3.3 0 0 0 1 0s-.3-.2-.7-.5v-.4a1.8 1.8 0 0 0 .3 0c.9.8 3.1.1 3.1.1a7.3 7.3 0 0 0-1.7-1 7.6 7.6 0 0 0 1.2-1.3s0 0-.7.2a3 3 0 0 0 .9-.9s-.5.1-1 .2a3.3 3.3 0 0 0 .5-.7s-.6.1-1.4.3a1.4 1.4 0 0 0-.2 0 2.4 2.4 0 0 0 .4-.5h.5a1.6 1.6 0 0 1-.3-.2 2.8 2.8 0 0 0 .1-.3s-.1 0-.3.1a4 4 0 0 0-.3-.3 5.3 5.3 0 0 0 1.6-.2 4.5 4.5 0 0 0-1-.8v-.3l.4.2a1.5 1.5 0 0 1-.2-.4l.2-.3h-.2a4 4 0 0 0-.2-.4l.1-.2h.2a6 6 0 0 0 .5 1.2s0 0 .1-.5a2.4 2.4 0 0 0 .4.9s0-.4.2-.9a2.6 2.6 0 0 0 .2.6l-.2.3a2 2 0 0 1 .6 0 4.7 4.7 0 0 0-.4.4h.4a4.7 4.7 0 0 0-.6 1 1.6 1.6 0 0 1 .6-.2 4.1 4.1 0 0 0-.6 1.2 4.2 4.2 0 0 0 .8-.3 1.1 1.1 0 0 1 0 .2 2.4 2.4 0 0 0 0 .2s.1 0 .2-.1a3.6 3.6 0 0 0 .4.4 4.6 4.6 0 0 0-.5.1 3 3 0 0 0 1.2.8 5.3 5.3 0 0 0-.5 1 5.7 5.7 0 0 0 1.4-.8 5.9 5.9 0 0 0 .3 1.5s0-.1.2-.5a2.4 2.4 0 0 0 .2.9s.1-.3.4-.8a6.4 6.4 0 0 0 .8-.4 1.2 1.2 0 0 0 .2 0 4.7 4.7 0 0 0 .1.7 4 4 0 0 0 .5-.7 2.6 2.6 0 0 0 .2.8s.1-.3.3-.6l.3-.1a1.4 1.4 0 0 0 .1.3c-.6.7.2 2.4.2 2.4a5.7 5.7 0 0 0 .5-1.5 6 6 0 0 0 1.2.8s0 0-.2-.5a2.4 2.4 0 0 0 .8.6s-.1-.3-.3-.8a2.5 2.5 0 0 0 .5.3v.4a2 2 0 0 1 .5-.4 4.6 4.6 0 0 0-.1.6l.4-.2a4.8 4.8 0 0 0 0 1.1 1.5 1.5 0 0 1 .4-.4 4.1 4.1 0 0 0 0 1.3 3.8 3.8 0 0 0 .7-.8 5.3 5.3 0 0 0 .3.4 6.4 6.4 0 0 1 .2-1 2.6 2.6 0 0 0 .2.4s0-.4.2-.8a2.3 2.3 0 0 0 .4.4 5.4 5.4 0 0 0 0 .9 5.5 5.5 0 0 0 1-1.4 5.7 5.7 0 0 0 1.3 1s0-.1-.2-.5a2.4 2.4 0 0 0 .8.5s-.2-.3-.3-.8a6.5 6.5 0 0 0 .4-.9 1.5 1.5 0 0 0 0-.2 4.7 4.7 0 0 0 .5.4l.1.2.1-.7.3-.2a1.4 1.4 0 0 0 .2.3c-.4.9.7 2.3.7 2.3a5.7 5.7 0 0 0 .2-1.5 6 6 0 0 0 1.3.4s0 0-.3-.4a2.4 2.4 0 0 0 1 .2s-.3-.2-.6-.6a2.5 2.5 0 0 0 .6.1c0 .3.2.4.2.4a2 2 0 0 1 .2-.6 4.8 4.8 0 0 0 .2.7l.3-.4a4.8 4.8 0 0 0 .4 1 1.6 1.6 0 0 1 .1-.5 4.1 4.1 0 0 0 .6 1.2 4.1 4.1 0 0 0 .3-.8c.4.5 1.5.2 1.5.2l-.7-.4a2.5 2.5 0 0 0 .6 0l.2.2a8.2 8.2 0 0 1 .2-1 2.5 2.5 0 0 0 .7-.5 5.2 5.2 0 0 0 .6.8 5.7 5.7 0 0 0 0-1.6 6 6 0 0 0 1.5.4s-.1 0-.4-.4a2.4 2.4 0 0 0 1 .3s-.3-.3-.6-.7a6.6 6.6 0 0 0 0-1 1.7 1.7 0 0 0 0-.1 4.7 4.7 0 0 0 .7.2 4 4 0 0 0-.3-.8 2.6 2.6 0 0 0 .8.2s-.2-.2-.5-.5v-.4a1.5 1.5 0 0 0 .4.1c.4.9 2.2 1 2.2 1a5.8 5.8 0 0 0-1-1.2l.3-.2.4.1-.1-.2.2-.1a5.1 5.1 0 0 0 .8.1 1.6 1.6 0 0 1-.3-.4 4.1 4.1 0 0 0 1.3.2 3.5 3.5 0 0 0-.8-1 5 5 0 0 0 .7.1c-.4-.2-.3-.3-.8-.8a1.1 1.1 0 0 0-.2-.1 4.7 4.7 0 0 0 .7-.4 3.2 3.2 0 0 0-1.3-.4 4 4 0 0 1-.2-.4 4.5 4.5 0 0 0 .6.3v-.5a4.7 4.7 0 0 0 1 .4 1.6 1.6 0 0 1-.3-.5 4.1 4.1 0 0 0 1.3.3 3.8 3.8 0 0 0-.6-.9 4.9 4.9 0 0 0 .6 0l-.9-.6a2.5 2.5 0 0 0 .4 0s-.3-.2-.7-.5a2.2 2.2 0 0 0 .5-.2 5.3 5.3 0 0 0 .9.2A4.7 4.7 0 0 0 99 97a4.4 4.4 0 0 0 .4-.3l-.4-.2a4.7 4.7 0 0 0 .9-.6 1.6 1.6 0 0 1-.6 0 4.1 4.1 0 0 0 1-1 4 4 0 0 0-.9 0 5.4 5.4 0 0 0 .6-.3 5.8 5.8 0 0 0-1.5-.3 5.9 5.9 0 0 0 .6-1.3s0 0-.4.2a2.4 2.4 0 0 0 .4-.8s-.3.2-.8.4a6.3 6.3 0 0 0-.9-.2 1.3 1.3 0 0 0-.2 0 4.6 4.6 0 0 0 .4-.7 4 4 0 0 0-.9.2 2.6 2.6 0 0 0 .4-.7s-.2 0-.5.2a5 5 0 0 0 .5-1.2 6.5 6.5 0 0 0-1.1.6 5.7 5.7 0 0 0 .5-1.6s0 0-.4.3a2.4 2.4 0 0 0 .3-.9s-.3.2-.7.6a1.4 1.4 0 0 1-.2 0 5.2 5.2 0 0 0 0-1.3 6 6 0 0 0 1.4.5s0 0-.3-.5a2.4 2.4 0 0 0 1 .3s-.3-.3-.6-.7a2.5 2.5 0 0 0 .6.2l.1.4a2 2 0 0 1 .3-.6v.3a6.2 6.2 0 0 0-.4.5 9.3 9.3 0 0 0 1 0 5.3 5.3 0 0 0 .2.5 1.6 1.6 0 0 1 .2-.5 3.7 3.7 0 0 0 .4 1v.5l.5-.5a3 3 0 0 0-.1 1.2s.3-.4.7-.9a8.3 8.3 0 0 0 1.2-.1 2 2 0 0 0 .2-.1 6 6 0 0 0 0 1 5.2 5.2 0 0 0 .8-.7 3.2 3.2 0 0 0 0 1s.2-.2.5-.6h.4a1.7 1.7 0 0 0 0 .4c-1 .7-.5 3-.5 3a7.3 7.3 0 0 0 1.1-1.6 7.6 7.6 0 0 0 1.2 1.4l-.1-.7a3 3 0 0 0 .8 1s0-.5 0-1.1a3.2 3.2 0 0 0 .4.6l-.1.5a2.6 2.6 0 0 1 .7-.4 6 6 0 0 0-.4.8 6 6 0 0 0 .6-.2 6 6 0 0 0-.3 1.4 2 2 0 0 1 .6-.4 5.3 5.3 0 0 0-.3 1.6 5.2 5.2 0 0 0 1-.6 1 1 0 0 0 .2.6 4.3 4.3 0 0 0-.4.2c.3 0 .3.2.8.4a1.2 1.2 0 0 0 .1 0 3.6 3.6 0 0 0-.4.5 3.2 3.2 0 0 0 .7 0 2 2 0 0 0-.4.5s.2 0 .5-.2l.3.2c-.7.7-.3 2.2-.3 2.2l.2-.4a1.9 1.9 0 0 0 .1.8s.1-.3.3-.6a2 2 0 0 0 0 .5l-.2.2a1.6 1.6 0 0 1 .5 0 3.8 3.8 0 0 0-.4.3 3.4 3.4 0 0 0 .3.1 3.7 3.7 0 0 0-.6.6 1.2 1.2 0 0 1 .4 0 3.2 3.2 0 0 0-.7.7 2.7 2.7 0 0 0 1 0 4 4 0 0 0-.3.5l.8-.4h.1a3.8 3.8 0 0 0 .1.6 3.2 3.2 0 0 0 .5-.5 2 2 0 0 0 0 .6s.2-.2.3-.5h.3a1 1 0 0 0 0 .2c-.5.6 0 1.9 0 1.9a4.5 4.5 0 0 0 .5-1.2 4.7 4.7 0 0 0 1 .7s0 0-.2-.4a1.9 1.9 0 0 0 .6.5l-.2-.7a2 2 0 0 0 .4.3v.3l.5-.5a3.4 3.4 0 0 0 0 1 3 3 0 0 0 .6-.6 4 4 0 0 0 .1.4 3 3 0 0 1 .3-.6 2 2 0 0 0 .2.5s0-.2.2-.5a2.1 2.1 0 0 0 .2.4 4 4 0 0 0 0 .5 5.1 5.1 0 0 0 .6-.7 4.5 4.5 0 0 0 .4.5s0 0 0-.5a2 2 0 0 0 .3.4s0-.2 0-.4h.2a3.4 3.4 0 0 0 0 1.4 4.5 4.5 0 0 0 .7-1 4.6 4.6 0 0 0 .7.9s0 0 0-.4a1.9 1.9 0 0 0 .4.5s0-.3 0-.7a5 5 0 0 0 .4-.6 1.1 1.1 0 0 0 0-.1 3.6 3.6 0 0 0 .4.4 3.2 3.2 0 0 0 .1-.6 2 2 0 0 0 .5.4s0-.2 0-.5v-.2a1.3 1.3 0 0 0 .3.2c-.1.7 1 1.5 1 1.5a4.5 4.5 0 0 0-.2-1.2 4.6 4.6 0 0 0 1.1 0s0 0-.3-.2a1.9 1.9 0 0 0 .8 0s-.3 0-.6-.3a2 2 0 0 0 .6 0s-.3-.3-.6-.6a.8.8 0 0 0-.2 0 1.5 1.5 0 0 0 .5 0l.1.1a1 1 0 0 1 0-.2 1.6 1.6 0 0 0 .2 0s0 0-.2-.1a2.2 2.2 0 0 0 0-.3 3.2 3.2 0 0 0 .8.7 2.8 2.8 0 0 0 0-.9h.1v.3a1 1 0 0 1 .2-.3h.2-.1a2.6 2.6 0 0 0 .2-.5 3.8 3.8 0 0 0 .2.4 2.4 2.4 0 0 0 .3-1 4.2 4.2 0 0 0 .8 0 4.5 4.5 0 0 0-.8-.8 4.6 4.6 0 0 0 1-.6s0 0-.4 0a2 2 0 0 0 .7-.3s-.3 0-.7-.2a5.2 5.2 0 0 0-.5-.5l-.1-.1a3.8 3.8 0 0 0 .5-.3 2.7 2.7 0 0 0-.9-.3 3 3 0 0 0-.2-.6 3.7 3.7 0 0 0 .6 0 3.6 3.6 0 0 0-.2-.3 3.7 3.7 0 0 0 .8-.1 1.2 1.2 0 0 1-.4-.2 3.2 3.2 0 0 0 1-.3 3.3 3.3 0 0 0-.5-.3 3.9 3.9 0 0 0 .6-.5 1 1 0 0 1-.3 0 2 2 0 0 0 .5-.4s0 0-.3 0a2 2 0 0 0 .5-.6s-.2 0-.4.1a1.8 1.8 0 0 0 .2-.2 7.5 7.5 0 0 0 1 .6l-.2-.6a3.1 3.1 0 0 0 1 .6s-.2-.5-.5-1a8.2 8.2 0 0 0 .4-1.2 1.8 1.8 0 0 0 0-.3 5.8 5.8 0 0 0 .8.5 5.4 5.4 0 0 0-.2-1 3.2 3.2 0 0 0 1 .4s-.2-.3-.4-.8l.1-.4a1.7 1.7 0 0 0 .4.2c.3 1.2 2.5 1.8 2.5 1.8a7.4 7.4 0 0 0-1-1.7 7.5 7.5 0 0 0 1.8-.5s-.1 0-.7-.2a3 3 0 0 0 1.2-.4s-.4-.1-1-.3a3.3 3.3 0 0 0 .9-.3s-.6-.2-1.3-.5a1.2 1.2 0 0 0-.3-.1 2.4 2.4 0 0 0 .7-.2l.3.2a1.7 1.7 0 0 1-.1-.3 2.6 2.6 0 0 0 .2-.2s0 0-.2 0a4.3 4.3 0 0 0-.2-.5 5.2 5.2 0 0 0 1.5.7 4.5 4.5 0 0 0-.5-1.3l.3-.1.2.3a1.6 1.6 0 0 1 0-.4 3 3 0 0 0 .3-.2s0 0-.2 0a4.5 4.5 0 0 0 .1-.8 6 6 0 0 0 .6.5 3.9 3.9 0 0 0-.2-1.8 6.8 6.8 0 0 0 1.4-.2 7.3 7.3 0 0 0-1.8-1 7.6 7.6 0 0 0 1.3-1.3s-.1 0-.7.1a3 3 0 0 0 .9-.9s-.5.1-1.2.3a8.2 8.2 0 0 0-1-.7 2.2 2.2 0 0 0-.2 0 6 6 0 0 0 .7-.7 4.3 4.3 0 0 0-1.6 0l-.3-.4a6 6 0 0 0 .6 0 5.7 5.7 0 0 0-.3-.5 6.2 6.2 0 0 0 1.4 0 2 2 0 0 1-.5-.4 5.3 5.3 0 0 0 1.7-.1 5.4 5.4 0 0 0-.8-.7 6.3 6.3 0 0 0 1.2-.5 1.6 1.6 0 0 1-.5-.1 3.2 3.2 0 0 0 1-.5s-.2 0-.5 0a2.8 2.8 0 0 0 .7-.6 6.7 6.7 0 0 0 1.2 0 7.3 7.3 0 0 0-1.4-1.3 7.5 7.5 0 0 0 1.5-1s0 0-.7 0a3 3 0 0 0 1-.6s-.4 0-1.1-.1a8.2 8.2 0 0 0-.8-.9 2.1 2.1 0 0 0-.2-.1 6 6 0 0 0 .8-.5 5.3 5.3 0 0 0-1-.3 3.3 3.3 0 0 0 .8-.6s-.3 0-.9 0l-.2-.4a1.7 1.7 0 0 0 .3-.2c1.2.3 2.8-1.4 2.8-1.4a7.3 7.3 0 0 0-2 0Zm-2.8-9.7v.2a2 2 0 0 0 0-.2Zm-.4-.8v.2-.2Zm-55.6 21v-.1.1Zm1.2-58.4a1.8 1.8 0 0 1 0-.3l.1.1-.1.2Zm2.2-14.5Zm35.3 39.8v-.1a1.5 1.5 0 0 0 .2.3l-.2-.2Zm-8 47.9ZM105.1 62a5.3 5.3 0 0 0-1-1.3 5 5 0 0 0-.2 1.3 6.2 6.2 0 0 0-.6-.3 8 8 0 0 1 .4 1.2 3 3 0 0 0-.3-.2l.3 1a2.9 2.9 0 0 0-.7-.2 7 7 0 0 0-.7-.9 7.4 7.4 0 0 0 0 2 7 7 0 0 0-1-.3 5.2 5.2 0 0 0 .3-.7c-.4.3-.5.2-1.1.5a1.5 1.5 0 0 0-.2.1 5.9 5.9 0 0 0-.4-1.3s0 0-.1.5a2.4 2.4 0 0 0-.3-1s0 .4-.3.8a2.7 2.7 0 0 0-.2-.7s-.1.5-.4 1a1 1 0 0 0 0 .3 1.9 1.9 0 0 0-.2-.6l.1-.3a1.2 1.2 0 0 1-.2.1l-.1-.1v.2H98a4.4 4.4 0 0 0 .5-1 3.7 3.7 0 0 0-1 .2v-.2l.1-.1a1.3 1.3 0 0 1-.2 0 1.4 1.4 0 0 0-.1-.2 4.7 4.7 0 0 0 .8 0 4 4 0 0 0-.6-.6 2.6 2.6 0 0 0 .8 0s-.2-.2-.6-.5v-.3a1.5 1.5 0 0 0 .3 0c.7.7 2.4.2 2.4.2a5.8 5.8 0 0 0-1.3-.8 5.9 5.9 0 0 0 1-1s-.1 0-.6.1a2.4 2.4 0 0 0 .7-.7s-.2 0-.4.1a2.7 2.7 0 0 0 .3-.1s-.2-.1-.6-.2l-.2-.3a1.4 1.4 0 0 0 .3-.1c.9.4 2.4-.6 2.4-.6a5.8 5.8 0 0 0-1.5-.3 6 6 0 0 0 .6-1.3s0 0-.5.3a2 2 0 0 0 .3-.5 4.7 4.7 0 0 0 .7-.3 5.9 5.9 0 0 0 .1 1.5s0 0 .3-.5a2.4 2.4 0 0 0 0 1s.2-.3.5-.7a2.5 2.5 0 0 0 0 .6l-.3.2a2 2 0 0 1 .7 0 4.7 4.7 0 0 0-.6.4 4.6 4.6 0 0 0 .4.2 4.8 4.8 0 0 0-.8.7h1.1a1.2 1.2 0 0 0 .4 0 2.6 2.6 0 0 0 0 .4s0-.1.3-.3a6.3 6.3 0 0 0 .9 0 4.8 4.8 0 0 0-.7 1 6 6 0 0 1 1-.2 2.5 2.5 0 0 0-.2.2s.3 0 .8-.2a2.3 2.3 0 0 0-.2.6 5.5 5.5 0 0 0-.7.5 5.2 5.2 0 0 0 1.8.1l-.2.3h-.4l.3.4a5.6 5.6 0 0 0-.2.6s0 0 .4-.3a3.8 3.8 0 0 0 .2.4 2.7 2.7 0 0 0 .2.5s0-.1 0-.3h.2a5.4 5.4 0 0 1-.2.7 5.9 5.9 0 0 0-.4-.8l-.2.5a6 6 0 0 0-.8-1.1 2 2 0 0 1-.1.7Zm-18-2.6h.1v.1-.1Zm10-18.7v.1Zm.7 0-.2.5a2 2 0 0 0-.1-.6l.4-.1v.4l-.1-.2Zm.2-.5Zm.2-.5-.2-.1a6.5 6.5 0 0 0-.5-.8 1.5 1.5 0 0 0-.1-.2 4.8 4.8 0 0 0 .7-.2l-.2-.1a4 4 0 0 0 .6-.2 2.6 2.6 0 0 0-.3.7s.2-.1.6-.3h.3a1.4 1.4 0 0 0-.1.3 1.5 1.5 0 0 0-.8.9Zm-.2-2Zm-.6.2a2.4 2.4 0 0 0 .5-.1l-.2.4a3.5 3.5 0 0 0-.3-.3Zm.5 3a5.7 5.7 0 0 0 1.2-.9 5.9 5.9 0 0 0 .5 1.4s0-.1.1-.5a2.4 2.4 0 0 0 .4.8s0-.3.2-.8a2.5 2.5 0 0 0 .2.6l-.2.3a2 2 0 0 1 .6-.1 4.6 4.6 0 0 0-.4.5 4.7 4.7 0 0 0 .4 0 4.8 4.8 0 0 0-.6 1 1.6 1.6 0 0 1 .6-.2 3.2 3.2 0 0 0-.4.6 2.2 2.2 0 0 0 0-.3s0 0-.1.1a3.6 3.6 0 0 0-.5-.4 4.8 4.8 0 0 0 .5-.1 3 3 0 0 0-1.3-.7 5.3 5.3 0 0 0 .4-1 5.7 5.7 0 0 0-1.3.9A5.8 5.8 0 0 0 98 41Zm2.8 3.9h.1l-.1.2a3 3 0 0 0-.4 0 2.6 2.6 0 0 0 .4-.2Zm0 1a1.8 1.8 0 0 0 .1-.5l.3-.1a1.3 1.3 0 0 1-.3-.1 2 2 0 0 0 0-.2 4.7 4.7 0 0 0 .7.3l-.7.5a1.1 1.1 0 0 0-.1.1Zm.5-1.6h.1Zm0 0a3.6 3.6 0 0 0-.5-.2 3.6 3.6 0 0 0 .3 0 1.3 1.3 0 0 1 .2 0v.2Zm-.8 10.5h.2a5.4 5.4 0 0 0-.4.5 2.7 2.7 0 0 0 .2-.5Zm.3-.2a3.4 3.4 0 0 1-.4-.3 4.7 4.7 0 0 0 .7 0 3.3 3.3 0 0 0-.3.3Zm.3-.3a4.4 4.4 0 0 0-.3-.4 4.7 4.7 0 0 0 1-.2 1.3 1.3 0 0 1-.3-.2h.4l.2.1a1.5 1.5 0 0 0-.2.3 1.4 1.4 0 0 0-.8.4Zm-3.2 9ZM78.4 21.8v.2-.2Zm8.7 36.8a2.5 2.5 0 0 0 0 .6 2.9 2.9 0 0 0-.3-.3l.3-.3Zm44.2-17.1Zm-9.8 7.9h-.2a1.2 1.2 0 0 1 0-.3 3 3 0 0 0 .2.3Zm10.3-9a3.1 3.1 0 0 0-.5 1l-.2-.2.1-.2a4.6 4.6 0 0 0-.4 0 3.6 3.6 0 0 0 .2-.4l.5.2a1.5 1.5 0 0 1-.3-.5 3.1 3.1 0 0 0 .6.2Zm-12.4 7.8a2.6 2.6 0 0 0 .6.1l.1.4a2 2 0 0 1 .3-.6 4.8 4.8 0 0 0 .1.7 4.7 4.7 0 0 0 .4-.4 4.6 4.6 0 0 0 .3 1 4.7 4.7 0 0 0-.5-.1 4.4 4.4 0 0 0 .2.4 4.7 4.7 0 0 0-1 0 1.6 1.6 0 0 1 .4.4 4.1 4.1 0 0 0-1.3.2 3.7 3.7 0 0 0 .8.6 5 5 0 0 0-.4.3 6.3 6.3 0 0 1 1 .2 2.7 2.7 0 0 0-.3.2s.3 0 .8.1a2.2 2.2 0 0 0-.5.4 5.2 5.2 0 0 0-.8.2 5.8 5.8 0 0 0 1.3.8 6 6 0 0 0-1 1s0 0 .6-.2a2.2 2.2 0 0 0-.3 1.1s.3-.2.7-.6a6.7 6.7 0 0 0 1 0 1.4 1.4 0 0 0 .1 0 4.6 4.6 0 0 0-.2.6v.2l.6-.2.3.2a1.4 1.4 0 0 0-.2.2c-1 0-1.8 1.7-1.8 1.7a5.8 5.8 0 0 0 1.5-.5 5.9 5.9 0 0 0 0 1.4s0 0 .3-.4a2.4 2.4 0 0 0 0 1s.2-.4.5-.8a2.6 2.6 0 0 0 0 .6l-.3.3a2 2 0 0 1 .7 0l-.3.2-.6-.3.3.6a3.1 3.1 0 0 0-1-.7l.3 1a5.3 5.3 0 0 0-.6.2 7.5 7.5 0 0 0-.2-1.8s0 0-.3.6a3.1 3.1 0 0 0-.1-1.2s-.2.4-.6 1a8.3 8.3 0 0 0-1.1.4 1.7 1.7 0 0 0-.2 0 5.9 5.9 0 0 0-.1-.9 5.3 5.3 0 0 0-.8.8 3.3 3.3 0 0 0-.1-1s-.2.3-.4.7l-.4.2a1.8 1.8 0 0 0-.1-.4c.8-1 0-3.1 0-3.1a7.3 7.3 0 0 0-.8 1.8 6.8 6.8 0 0 0-.8-.7l.1-.1h-.2l.2-.1-.6-.2-.2-.3a1.4 1.4 0 0 0 .3-.1c.8.4 2.3-.6 2.3-.6a5.8 5.8 0 0 0-1.5-.3 5.9 5.9 0 0 0 .6-1.3s0 0-.4.3a2.4 2.4 0 0 0 .4-.8s-.3.1-.8.4a2.6 2.6 0 0 0 .3-.6h.4a2 2 0 0 1-.6-.4 4.7 4.7 0 0 0 .7 0 4.3 4.3 0 0 0-.3-.4 4.7 4.7 0 0 0 1.1-.2 1.6 1.6 0 0 1-.5-.3 4.1 4.1 0 0 0 1.3-.3 4.2 4.2 0 0 0-.7-.4l-.2-.3a2.6 2.6 0 0 0 .1-.5s-.1.1-.4.2l-.2-.2a5.3 5.3 0 0 0 .7-.2 5.7 5.7 0 0 0 .4.7 6.7 6.7 0 0 0 .2-1v-.4h.2a6 6 0 0 0 1.1.3s0 0-.3-.5a2.3 2.3 0 0 0 1 .3s-.3-.2-.6-.6Zm-12.7-27V21h.2l-.2.1Zm-29.2 2L77 23a2.4 2.4 0 0 0 .9-.3s-.3 0-.8-.2a2.5 2.5 0 0 0 .6-.3l.3.3a2 2 0 0 1-.1-.7 4.5 4.5 0 0 0 .5.5V22h.3a5.1 5.1 0 0 0 .5.4 3.5 3.5 0 0 0-.3.4s.3 0 .8-.2l.4.2a2.2 2.2 0 0 0-.5 1 4.7 4.7 0 0 0-.1-.5 3.6 3.6 0 0 0-.7.9l-.1-.1v-.3a1.3 1.3 0 0 1-.3.2 2.3 2.3 0 0 0-.2-.1s0 0 0 .1a3.7 3.7 0 0 0-.5.3 4.8 4.8 0 0 0 .1-.6 3 3 0 0 0-1.1.8 5.2 5.2 0 0 0-.6-1 5.8 5.8 0 0 0 1.4-.3Zm-2.9 1a2 2 0 0 0 .2 0s-.1-.2-.3-.6l.1-.3a1.3 1.3 0 0 0 .3.2 2 2 0 0 0 1.1 1 4.6 4.6 0 0 0 .1.8 6 6 0 0 0-1.4-.2s0 0 .4.3a2.3 2.3 0 0 0-.8-.1 6.2 6.2 0 0 0-.2-1 1.5 1.5 0 0 0-.1-.2 4.6 4.6 0 0 0 .6 0Zm-.2 1.9-.4-.3a2 2 0 0 0 .7 0v.1a6.5 6.5 0 0 0 0 1 1.5 1.5 0 0 0 .1.1 4.6 4.6 0 0 0-.7-.1 3.4 3.4 0 0 0 .7 1l-.2.4a4.5 4.5 0 0 0-.2-.5 4.7 4.7 0 0 0-.2.4 4.7 4.7 0 0 0-.6-.9 1.6 1.6 0 0 1 0 .6 3.8 3.8 0 0 0-.7-1 4.6 4.6 0 0 0-.1-1 5.7 5.7 0 0 0 1.6.2ZM38.6 60v-.1Zm-.8-.9v.1h-.1.1Zm.1.6a3.8 3.8 0 0 0 .5-.2 2.2 2.2 0 0 0-.1.4 3.8 3.8 0 0 0-.5-.1h.1Zm.7.3a5 5 0 0 0-.1.8l-.3-.3a1.8 1.8 0 0 0-.2 0 4.7 4.7 0 0 0 .6-.5Zm.6 1.2H39a1.5 1.5 0 0 1-.2-.2 6.3 6.3 0 0 0 .7-.7 4.7 4.7 0 0 0-.2.9Zm0 .4v.1H39a1.6 1.6 0 0 0 .2 0Zm19-33.3.4-.3v.3h-.3Zm-2.6 9.3a1.6 1.6 0 0 0-.2-.2h.1v.2Zm9.2 46.1a1.8 1.8 0 0 1 0 .5 2.5 2.5 0 0 0-.2-.3l.2-.2ZM54.7 38.2v.2a.9.9 0 0 0 0 .1 3.2 3.2 0 0 1-.3-.3h.3Zm-9 25.9V64l.2.1h-.1Zm17 22.2a3 3 0 0 0 .3.5h-.2a3.8 3.8 0 0 0 0-.5Zm5.7-57.8h-.2a1.5 1.5 0 0 0 .2 0Zm-11-.5.2.1-.1-.4v-.2a3 3 0 0 0 .4.2v.4a2 2 0 0 1 .4-.5 4.6 4.6 0 0 0 0 .7 5.8 5.8 0 0 0-1 0l.1-.3Zm8.3 56-.2.5a4.6 4.6 0 0 0-.6-.8 6.3 6.3 0 0 0 .4-.5 3.2 3.2 0 0 0 .8 1 4 4 0 0 1-.1.5 4.7 4.7 0 0 0-.3-.6Zm.4 14.8c.2 0 .4-.2.5-.3h.3a1.5 1.5 0 0 0 0 .4 1 1 0 0 0-.5.2 2.5 2.5 0 0 0-.3-.3ZM66 82.2a6.4 6.4 0 0 0 0 .9 1.4 1.4 0 0 0 .1.2 4.5 4.5 0 0 0-.7-.1V83l-.4.1a2.4 2.4 0 0 0 .6-.7s-.1 0-.4 0a2.7 2.7 0 0 0 .4 0s-.3-.1-.7-.3l-.1-.2a1.4 1.4 0 0 0 .3-.2 1.2 1.2 0 0 0 .7.1l.2.3Zm3.2-23.5a3 3 0 0 0 .4.3 4.3 4.3 0 0 0-.4-.3Zm4-8.4v-.2a2.6 2.6 0 0 0 .5.3h-.4Zm1 0v.2h-.2l.2-.1ZM72.3 27a5.5 5.5 0 0 0 .3.4v.2a5 5 0 0 0-.8-.6 1.2 1.2 0 0 1 .1.4l-.2-.6a2.3 2.3 0 0 0 .6.2Zm-4 1.8v.2a1.3 1.3 0 0 0 0 .2 4.7 4.7 0 0 0-.7-.4 4.6 4.6 0 0 0 .2.6v.2a2.4 2.4 0 0 0-.3-.1 4.6 4.6 0 0 0-.3-.7 5.7 5.7 0 0 0 1.1 0Zm-2.4-.6a1.3 1.3 0 0 0 .2.2c0 .6.6 1.2 1 1.5v.3a1.2 1.2 0 0 0-.5-.7 3.8 3.8 0 0 0-1-1l.3-.3Zm-.5.6v.2h-.2a3.5 3.5 0 0 0 0-.4 2 2 0 0 0 .2.2Zm-.9.3a1.4 1.4 0 0 0 0-.2 4.7 4.7 0 0 0 .6.5v-.2l.4.5a6 6 0 0 0-1.3 0s0 0 .4.3a2 2 0 0 0-.6 0v-.2a6.6 6.6 0 0 0 .5-.7Zm-.4 1.3v-.2l.2.3a2 2 0 0 0-.2 0Zm-4.4-1a1.1 1.1 0 0 1 .2 0 2.4 2.4 0 0 0 0 .2l.1-.2a3.5 3.5 0 0 0 .6.1 4.9 4.9 0 0 0-.4.5 3 3 0 0 0 1.4-.1 5.3 5.3 0 0 0 .2 1 5.7 5.7 0 0 0 .8-1.3 6 6 0 0 0 1 1s0 0-.1-.5a1.9 1.9 0 0 0 .3.3h-.2l.8.8a1 1 0 0 0 .2 0 1.9 1.9 0 0 0-.5 0c-.2 0-.3-.2-.3-.2a1.4 1.4 0 0 1 0 .3h-.2l.2.2a3.3 3.3 0 0 0 0 .4 4 4 0 0 0-1-1 3.6 3.6 0 0 0 0 1.1 1.8 1.8 0 0 0-.1 0l-.1-.3a1.2 1.2 0 0 1-.1.3h-.3l.2.2a3.6 3.6 0 0 0-.3.5 4.7 4.7 0 0 0-.3-.5 3 3 0 0 0-.4 1.4 5.2 5.2 0 0 0-1-.2 5.7 5.7 0 0 0 1 1.1 6 6 0 0 0-1.3.7s0 0 .5 0a2.4 2.4 0 0 0-.8.5s.4 0 .9.1a6.8 6.8 0 0 0 .6.8 1.7 1.7 0 0 0 .1 0 4.7 4.7 0 0 0-.7.4 3.2 3.2 0 0 0 1.3.5 3.6 3.6 0 0 1 .2.4 4.8 4.8 0 0 0-.6-.4v.5a4.1 4.1 0 0 0-.6-.3 5.5 5.5 0 0 0-.5-1 6.7 6.7 0 0 0-.3 1.2 4.7 4.7 0 0 0-.6-.1l.2.3a6.1 6.1 0 0 0-.9-.4s0 0 .3.4a2.4 2.4 0 0 0-.9-.4s.2.3.4.7a2.6 2.6 0 0 0-.5-.2l-.1-.4a2 2 0 0 1-.4.5 4.7 4.7 0 0 0 0-.7 4.7 4.7 0 0 0-.4.3 4.8 4.8 0 0 0-.1-1.1c-.2.4-.3.3-.6 1a1.3 1.3 0 0 0-.1.2 5.7 5.7 0 0 0-.8-.7 6.6 6.6 0 0 0 .8-.4 1.5 1.5 0 0 1-.5-.1 3.2 3.2 0 0 0 1-.5s-.2 0-.5-.1a2.8 2.8 0 0 0 .7-.5 6.9 6.9 0 0 0 1.2 0 7.3 7.3 0 0 0-1.4-1.3 7.6 7.6 0 0 0 1.5-1s0 0-.6 0a3 3 0 0 0 1-.6s-.5 0-1.2-.1a8.7 8.7 0 0 0-.8-.9 1.7 1.7 0 0 0-.2-.1 5.8 5.8 0 0 0 .8-.5 5.1 5.1 0 0 0-1-.3 3.3 3.3 0 0 0 .8-.6s-.3 0-.9 0l-.2-.4a1.7 1.7 0 0 0 .3-.2 2.8 2.8 0 0 0 2.1-.8v.2a1.6 1.6 0 0 1 .4-.4 4.1 4.1 0 0 0 .2 1.3 4.2 4.2 0 0 0 .5-.6ZM18.9 45.5h-.4l.5-.4a2.4 2.4 0 0 0-.1.4Zm-.7-.2-.1.3a2.7 2.7 0 0 0-.4-.1 4.2 4.2 0 0 0 .5-.2Zm0 .3.2-.1.2.3a1.9 1.9 0 0 0-.4-.2Zm12.3 29.6a6.8 6.8 0 0 0 .6-.7 4.1 4.1 0 0 0 .3.3 5.6 5.6 0 0 0-1 .4Zm7.7-4.6a1.4 1.4 0 0 0-.2-.2 1 1 0 0 0-.1-.5h.4l.1.5-.2.2Zm2.3-1.6a6 6 0 0 0-1-1s0 0 .1.5a2.2 2.2 0 0 0-1-.3s.2.2.5.7a6.4 6.4 0 0 0 0 1 1.4 1.4 0 0 0 0 .1 4.8 4.8 0 0 0-.6-.2h.1a5.6 5.6 0 0 0-1.4-.7 6 6 0 0 0 1-1.1s0 0-.5.1a2.4 2.4 0 0 0 .6-.7s-.3.1-.9.2a6.5 6.5 0 0 0-.8-.4 1.7 1.7 0 0 0-.2-.1 4.8 4.8 0 0 0 .6-.6 3.4 3.4 0 0 0-1.3 0l-.2-.2a4.6 4.6 0 0 0 .5 0 4.6 4.6 0 0 0-.3-.4 4.8 4.8 0 0 0 1.1 0 1.5 1.5 0 0 1-.4-.3 4.1 4.1 0 0 0 1.3-.2 4.4 4.4 0 0 0-.6-.5 5 5 0 0 0 1-.4 1.3 1.3 0 0 1-.5 0 2.5 2.5 0 0 0 .8-.5s-.2 0-.4 0a2.2 2.2 0 0 0 .5-.5 5.4 5.4 0 0 0 1 0 5.7 5.7 0 0 0-1.2-1 5.6 5.6 0 0 0 1-.6v.1l.1-.2h.1v-.2a2.4 2.4 0 0 0 0 1s.2-.3.6-.7l.5-.1a5.3 5.3 0 0 0 .2 1l.3-.4.4-.2a6 6 0 0 0 .2 1.3s0 0 .2-.5a2.4 2.4 0 0 0 .2 1s.2-.4.4-.9a6.8 6.8 0 0 0 .9-.4 1.6 1.6 0 0 0 .1 0 4.8 4.8 0 0 0 .2.7 4.2 4.2 0 0 0 .5-.7 2.6 2.6 0 0 0 .2.8s0-.3.3-.6l.3-.2a1.3 1.3 0 0 0 0 .4H45v.1a1.6 1.6 0 0 0 0 .8h-.1v.6a6 6 0 0 0-1.3-.5 2 2 0 0 1 .4.6 5.3 5.3 0 0 0-1.6-.4 4.6 4.6 0 0 0 .7 1.2l-.2.2-.3-.3a1.5 1.5 0 0 1 0 .5 3 3 0 0 0-.1.2h.2a4.6 4.6 0 0 0 0 .7 6.1 6.1 0 0 0-.6-.3 4.3 4.3 0 0 0 .3 1.4v.4H42l-.6.3a5.3 5.3 0 0 0 0-.9 5.7 5.7 0 0 0-1 1.3Zm1.3 0a1.6 1.6 0 0 0-.1-.1h.1v.1Zm20.3 18.7h.1Zm1.4-2.3h.1l-.5-.4-.1-.3a1.4 1.4 0 0 0 .3 0 1 1 0 0 0 .1 0l.3.8a1.8 1.8 0 0 0-.2 0Zm0 10.9.5-.2h.4l-.1.2a4.5 4.5 0 0 0-.8 0Zm1.7 1.7.1-.4h.3a1.3 1.3 0 0 0 .2 0l-.2.4h-.4ZM67 81.5l.2-.2v.2H67Zm8.4-.6h-.2a2.6 2.6 0 0 0-.3-.4s0 .1 0 .4l-.1-.3-.3.6a1 1 0 0 0-.1-.1 1.3 1.3 0 0 0 0-.8 4.4 4.4 0 0 0-.4-1.8 7.4 7.4 0 0 0-.3.7 4.5 4.5 0 0 0-.3-.3 7 7 0 0 0 0 1 6 6 0 0 0-1.1-.8s0 0 .2.5a2.4 2.4 0 0 0-.8-.6s.1.3.2.8a2.6 2.6 0 0 0-.6-.4s.2.4.3 1a1 1 0 0 0 .1.2 2 2 0 0 0-.4-.3V80a1.2 1.2 0 0 1-.2.2h-.2v.1a2.8 2.8 0 0 0-.2.3 4 4 0 0 0-.2-1.3 3.6 3.6 0 0 0-.6 1l-.2-.1.1-.3a1.2 1.2 0 0 1-.3.1 2.3 2.3 0 0 0-.2 0s0 0 0 .1a3.4 3.4 0 0 0-.5.3 4.7 4.7 0 0 0 0-.6 3 3 0 0 0-1 1 5.4 5.4 0 0 0-.8-.8 6.5 6.5 0 0 0 .2 1.2 5.5 5.5 0 0 0-1.4-.2 6 6 0 0 0 .6-1.3s0 0-.5.2a2.4 2.4 0 0 0 .4-.8s-.3.2-.7.4a2.5 2.5 0 0 0 .2-.6h.5a2 2 0 0 1-.6-.4 4.7 4.7 0 0 0 .7 0 5 5 0 0 0-.3-.4 4.8 4.8 0 0 0 1-.2 1.6 1.6 0 0 1-.4-.3 4.1 4.1 0 0 0 1.3-.3 4.3 4.3 0 0 0-.7-.4l-.2-.3a2.6 2.6 0 0 0 .1-.5s-.1.1-.4.3l-.2-.2a5.9 5.9 0 0 0 1.3-.7s0 0-.5 0a2.4 2.4 0 0 0 .8-.5s-.4 0-.9-.1a6.4 6.4 0 0 0-.6-.7 1.1 1.1 0 0 0-.1-.2 4.8 4.8 0 0 0 .7-.3 4 4 0 0 0-.8-.3 2.6 2.6 0 0 0 .7-.4s-.3 0-.7-.1l-.2-.3a1.4 1.4 0 0 0 .3-.1c.9.3 2.3-1 2.3-1a5.8 5.8 0 0 0-1.6 0 6 6 0 0 0 .4-1.4s0 0-.4.4a2.4 2.4 0 0 0 .3-1s-.2.3-.6.6a2.6 2.6 0 0 0 .1-.8s-.3.3-.9.7a1 1 0 0 0-.1.1 1.9 1.9 0 0 0 .1-.5l.3-.2a1.3 1.3 0 0 1-.2 0 2.2 2.2 0 0 0 0-.2s0 0-.2.1a3 3 0 0 0-.4-.1 4 4 0 0 0 1.2-.7 3.6 3.6 0 0 0-1-.2 2 2 0 0 0 0-.2h.3a1.2 1.2 0 0 1-.3-.3v-.2l-.1.1a3.6 3.6 0 0 0-.5-.4 5 5 0 0 0 .5-.2 7 7 0 0 0 2.4 0s0 0-.5-.3a3 3 0 0 0 1.2 0s-.4-.3-1-.7a8.6 8.6 0 0 0-.3-1.1 2 2 0 0 0-.1-.3 5.9 5.9 0 0 0 1 0 5.3 5.3 0 0 0-.8-.8 3.3 3.3 0 0 0 1 0s-.2-.3-.7-.5V63a1.9 1.9 0 0 0 .3 0c1 .8 3.1.1 3.1.1a7.3 7.3 0 0 0-1.7-1 7.5 7.5 0 0 0 1.2-1.3s0 0-.6.2a3 3 0 0 0 .8-.9s-.4 0-1 .2a3.3 3.3 0 0 0 .5-.7s-.5.1-1.3.2a1.3 1.3 0 0 0-.3.1 2.5 2.5 0 0 0 .5-.5h.4a1.6 1.6 0 0 1-.3-.2V59a4.7 4.7 0 0 0 .6.3 4.3 4.3 0 0 0-.1-.6 6.1 6.1 0 0 0 .7-.2l-.2-.1a2.5 2.5 0 0 0 .8-.6s-.4 0-.9 0a2.7 2.7 0 0 0 .5-.4l.4.2c-.3-.3-.2-.4-.5-1a2.5 2.5 0 0 0 .3-.8 5.4 5.4 0 0 0 1 .3 5.7 5.7 0 0 0-.9-1.3 6 6 0 0 0 1.4-.5s0 0-.5 0a2.4 2.4 0 0 0 .9-.4s-.4-.1-.9-.3a6.4 6.4 0 0 0-.5-.8 1.5 1.5 0 0 0 0-.1 4.8 4.8 0 0 0 .6-.2 4 4 0 0 0-.7-.5 2.6 2.6 0 0 0 .8-.3s-.3 0-.7-.2l-.1-.3a1.5 1.5 0 0 0 .3 0c.6.3 1.7-.2 2.1-.5v.3a4.7 4.7 0 0 0 .4-.2 4.8 4.8 0 0 0 0 1.1 1.6 1.6 0 0 1 .4-.4 4.1 4.1 0 0 0 .1 1.3 4.3 4.3 0 0 0 .5-.7 1 1 0 0 1 .2 0l.1.3v-.2a3.6 3.6 0 0 0 .7 0 4.7 4.7 0 0 0-.4.5 3 3 0 0 0 1.4 0 5.4 5.4 0 0 0 .1 1 5.7 5.7 0 0 0 .8-1.4 5.9 5.9 0 0 0 1 1s0 0 0-.5a2.4 2.4 0 0 0 .6.7s0-.4-.1-.9a6.4 6.4 0 0 0 .5-.8 1.7 1.7 0 0 0 0-.2 4.8 4.8 0 0 0 .6.6 4 4 0 0 0 0-.9 2.6 2.6 0 0 0 .6.6s0-.3 0-.7l.1-.3a1.4 1.4 0 0 0 .3.2c0 1 1.5 2 1.5 2a5.8 5.8 0 0 0-.4-1.6 5.3 5.3 0 0 0 .7 0l.2.2a5.1 5.1 0 0 0-.5.3 6.3 6.3 0 0 1 1 .2 2.7 2.7 0 0 0-.3.2s.3 0 .8.1a2.2 2.2 0 0 0-.4.4 5.5 5.5 0 0 0-.9.1 5.7 5.7 0 0 0 1.4.8 6 6 0 0 0-1 1s0 0 .5 0a2.2 2.2 0 0 0-.3 1s.3-.2.7-.6a6.5 6.5 0 0 0 1 0 1.8 1.8 0 0 0 .1 0 4.6 4.6 0 0 0-.1.6l-.1.2.6-.2.3.2a1.4 1.4 0 0 0-.2.2c-1 0-1.8 1.7-1.8 1.7a5.7 5.7 0 0 0 1.5-.5 5.9 5.9 0 0 0 0 1.4s.1 0 .3-.4a2.4 2.4 0 0 0 .1 1s0-.2.2-.4v.8a6.7 6.7 0 0 0-.7.7 1.4 1.4 0 0 0-.2.1 4.7 4.7 0 0 0-.3-.6 4.6 4.6 0 0 0-.3.5v.1a2.7 2.7 0 0 0-.5-.5s0 .2 0 .4a2.5 2.5 0 0 0 0-.2l-.4.5a1.2 1.2 0 0 0 0-.8 4.4 4.4 0 0 0-.4-1.8 7.2 7.2 0 0 0-.3.7 4.7 4.7 0 0 0-.4-.4 7 7 0 0 0 0 1 6 6 0 0 0-1-.8s0 0 .1.5a2.4 2.4 0 0 0-.7-.6s.1.4.2.8a2.7 2.7 0 0 0-.6-.4s.2.5.3 1a1 1 0 0 0 0 .3 1.9 1.9 0 0 0-.4-.3v-.4a1.2 1.2 0 0 1-.1.3l-.3-.1.1.2a3.2 3.2 0 0 0-.2.3 4.1 4.1 0 0 0-.2-1.3 3.6 3.6 0 0 0-.6 1l-.2-.2v-.3a1.2 1.2 0 0 1-.2.2l-.2-.1v.1a3.6 3.6 0 0 0-.5.3 4.4 4.4 0 0 0 0-.6 3 3 0 0 0-1 1 5.3 5.3 0 0 0-.8-.8 5.8 5.8 0 0 0 .2 1.6 6 6 0 0 0-1.4-.2s0 0 .4.3a2.5 2.5 0 0 0-1-.1s.3.2.7.6a6.5 6.5 0 0 0 0 1 1.2 1.2 0 0 0 .1.1 4.7 4.7 0 0 0-.7 0 3.2 3.2 0 0 0 .8 1 3.9 3.9 0 0 1-.2.5 4.4 4.4 0 0 0-.3-.7l-.2.5a4.8 4.8 0 0 0-.6-1 1.6 1.6 0 0 1 0 .6 4.1 4.1 0 0 0-.9-1 3.7 3.7 0 0 0 0 1 5.2 5.2 0 0 0-.5-.2 6.3 6.3 0 0 1 .3 1 2.4 2.4 0 0 0-.3-.2s.1.3.3.8a2.5 2.5 0 0 0-.8-.2 5.4 5.4 0 0 0-.6-.4 4.7 4.7 0 0 0 .6 1.8 4.3 4.3 0 0 0-.5.1l.4.3a4.8 4.8 0 0 0-1.1.3 1.6 1.6 0 0 1 .5.3 4.1 4.1 0 0 0-1.2.4 4 4 0 0 0 .8.4 5.2 5.2 0 0 0-.7 0 5.8 5.8 0 0 0 1.3 1 6 6 0 0 0-1 .9s0 0 .5 0a2.4 2.4 0 0 0-.7.6s.4-.1 1-.1a6.6 6.6 0 0 0 .7.5 1.6 1.6 0 0 0 .2 0 4.6 4.6 0 0 0-.6.6 4 4 0 0 0 .8 0 2.6 2.6 0 0 0-.5.7s.2 0 .5-.1a5 5 0 0 0-.9 1 6.5 6.5 0 0 0 1.2-.2 5.7 5.7 0 0 0-1 1.3s0 0 .5-.2a2.4 2.4 0 0 0-.6.8s.4-.1.9-.3l.5.3a5.3 5.3 0 0 0-.5 1l.5-.2h.4a6 6 0 0 0-.5 1.2s0 0 .5-.3a2.4 2.4 0 0 0-.4.9s.3-.2.8-.5a6.4 6.4 0 0 0 .9.2 1.2 1.2 0 0 0 .2 0 4.6 4.6 0 0 0-.3.7 4.1 4.1 0 0 0 .8-.3 2.6 2.6 0 0 0-.3.8s.2-.2.6-.4l.3.1a1.4 1.4 0 0 0-.1.3c-.7.3-1 1.4-1.2 2v-.2a4.6 4.6 0 0 0-.2.6Zm.7 0a1.5 1.5 0 0 0-.1 0 4.6 4.6 0 0 0-.3-.3 5.7 5.7 0 0 0 1.1-.8v.4a6.7 6.7 0 0 0-.7.6Zm18.7 8.4a1.3 1.3 0 0 0-.2 0 4.6 4.6 0 0 0 .3-.7 4 4 0 0 0-.8.3 2.6 2.6 0 0 0 .2-.7s-.2.1-.6.4h-.3a1.3 1.3 0 0 0 .1-.4 1.2 1.2 0 0 0 .5-.5 2 2 0 0 0 .2.2s0-.2.1-.6l.3-.2a1.4 1.4 0 0 0 .1.3c-.2.6.2 1.4.6 1.9a4.2 4.2 0 0 0-.5 0Z"/><path fill="#73bf44" d="M59.1 83.4c17.4 0 34-15.3 33.2-33.2A33.8 33.8 0 0 0 59.1 17c-17.4 0-34 15.2-33.2 33.2.8 18 14.6 33.2 33.2 33.2Z"/><path fill="#73bf44" d="M78.6 84.4c17.4 0 34-15.3 33.3-33.2a33.8 33.8 0 0 0-33.3-33.3c-17.3 0-34 15.3-33.2 33.3.8 18 14.6 33.2 33.2 33.2Z"/><path fill="#73bf44" d="M102.6 82.5c14.3 0 28-12.5 27.3-27.3A27.8 27.8 0 0 0 102.6 28c-14.2 0-27.9 12.6-27.2 27.3.6 14.8 12 27.3 27.2 27.3Z"/><path fill="#73bf44" d="M75.5 90.3c14.3 0 28-12.6 27.3-27.3a27.8 27.8 0 0 0-27.3-27.3c-14.2 0-27.9 12.5-27.2 27.3.6 14.8 12 27.3 27.2 27.3Z"/></svg>