<svg xmlns="http://www.w3.org/2000/svg" viewBox="0 0 150 150"><path fill="#73bf44" d="M71.8 150h5.4s-.2-6.3 0-10.4c.1-4-4.3-.4-4.3-.4a92.5 92.5 0 0 1-1 10.8ZM108.7 84.2h-.8v.4h.5l.3-.4zM107.2 85.3l.1-.2h-.2l.1.2zM103.4 79.8l.1.2h.1v-.3l-.2.1z"/><path fill="#73bf44" d="m112 111.4-.8-.9-.9 1-.6-.4v.7l-1.3.3-.3-.7.6-.1-.2-.2.4-.2v-.6h.3v-.7h.5v-1.5h-.7l-.1-.4-1 .3.8-.9.6-.1v-.7s1 .9.6 0l-.4-.8.8-.4.1-1h.5l-.7-1 .4-1-1.1-.6-.3.3-.6-.2-.7.4-.7-.1-.3.5-.5-.2-.2-.3 1.3-.6-.4-.9v-.2l-.1-1 .4-.2-.2-.7h.6l-.3-.4s1 .7.8-.1l-.3-.8.9.1v-.8l.4.1.2-.8.5.2v-1.2h.5l-.7-.9.6-.2-.5-.7.7-.3-.2-.6-.8-.2-.9.7h-1.3l1-1.4.5-.6V90l.7-.2-.3-.5h1l-.3-.7 1.1-.2-.7-.6.6-.6-.6-.4 1.3-.4-.6-.8h1.7l-1.2-1.7.4-.5-1.5-.7-.6.8-.6-.2-.4.7-.5-.6 1-.2-1.1-1.2c-1.2-1.3-1-.9-1-.9v.9l-.6-.4-.8.5-1-.8 1.1-.2-.7-.6 1-.4-1.5-1.7-.1 1-.6-.2-.6-.5 1.2-.3-.4-1.2h.5l-.1-1 .7-.2-.6-.8h.6l-1-1.2-1.4.8-1 .6-.2.2-.1-.1-1-1 .1 1.2c0 1.2-.6-.6-.6-.6v.8l-1.2-.4-.2.8-1.2-.4-.6-.6.1-.2.7-.5v-.2l-.1-.3-.1-.3h.3l.8.4-.1-1h.3l.4.2v-1l.8-.2.5-.9-.2-.3.2-.2h.4v-.2l1.3.1-.1-1 1.4.5-.2-1.8h1l-.3-1h.5v-1l.9-.2-1-1-1-.7-.1.6-.7-.4-.1.8-.5-.4-2 1.2.7-.7-.7-.7 1.4-.9-.5-.7 1-.4-.2-.4-.3-.5c-.3-.5 1.3-.3 1.3-.3l-.5-.8 1-.6-.7-1.3-.4-.2v.7l-1.2-.3 1-.7-.3-.4 1-.5-.2-.6-.4-.2 1.1-.2.2-.4-.3-.4c-.2-.4.9-.3.9-.3v-.8l.4-1-.7-1-.2.7-.5-.5-.3.8h-.3l-.4-.4c-.5-.5 1.1-1 1.1-1l1.2-1.2-.4-.3.6-.3-1-1.6-.3 1-1-.7-.3.4-.1.3-1-.4.1 1-.7-.6-.3 1-1.2-.5.6-.2-.8-.7.5-.5-.6-.3-.7-.6 1.6-.4-.8-.5 1-.3-.6-.6.9-.5-.5-.3.6-1.1-.8-1.1v1.2l-.7-.6-.7.8-1.2-.3 1-.7-.5-.3.5-.6-1.2-.7-.2 1-.8-.2H95l-.4.4v.3l-1.4-.2-.2-.3-.4-.6 1-.1v-.5l.8-.2-.5-.6h1.3l-.4-1 1.1-.5-.2-1 .9-.3-.9-.5.4-1-.8-1.2-.5.8-.9-.4v.8l-1-.3v.8l-.8-.1v.3l-1.5-.3.5-.4.5-.6.7-.2c.8-.1-.1-.4-.1-.4l1-1 1-.5-.3-.3 1.1-.8-1-.8-1-.6.2 1-.6-.3-.2.4-.4.6-1.3-.2.7-.5v-.8l.6.1-.2-.4.5-1 .6-.2-.2-1.2.4-.8-1-.8v.6l-.4-.2-.9.5-.6-.8 1.3-.4-.4-.5 1.1-.5-.2-.9.7-.3-.2-1-.7-.3-.7-.6-.2 1.3-.4-.3v1c0 .8-.3-.3-.3-.3l-.5.3v.2l-.5.8c-.5.8-.9-1-.9-1l1-.6-.7-.3.4-.5.4-.2-.6-.9.7-.4-.6-.8.8-.4-.4-1.6-.2.8-.7-.5v.5l-.8.5-.5-.4.7-.6-.6-.4.8-.5-.8-.7.7-.7-.4-1.7-.4.6-.5-.6v1.5l-.4-.2-.2.4-.5.2-.7-1 1.2-.3v-.8l.7-.3-.5-.6.6-.2-.3-.7h.2l-.8-2.1.1.4c.1.5-.6 0-.6 0l-.6-.4v1.2l-.6-.5v.3l-.3.5-.9-.4.8-.4-.5-.3.6-.5-.5-.4.5-.3-.7-.5 1-.6-.7-1.3-.3.7-1.3-.7-.6.2-.3-.3L83 8l-2-1h.7l-.6-.4.3-.7h-.4l-1.2-1 .2-.3-1-1.2 1.7-.3-2-1h.8l-.7-.4.3-.7-.4.1L77.3 0l-.6.8a5 5 0 0 0-1 0c-.3.1 0 0 0 1.1-.1 1-.7.1-.7.1l.2.9h-.7l.7.8h-.4l-.3.7-.2-.1h-.9l.1.7-1.1.6.5.3-1 .6.6.4-.6.4.5.3-.1.8-.7 1-.6-.7h-.5L70 9l-.4.6.6.2-.6.7.6.2-.3.4.6.6-.3 1-1.8-1.3-.5 1-.4.7.7.3-.4 1 .6.2-.4.4.7.6-.7.5.7.2v1l.7 1-.7.2-1.2-.7-.8.3-.2.8.9.5-.4.4 1.5.6-.8.6 1 .8-1.3.5.6.7-.8.8.7.5-.5.8 1 .5-1.2 1.3-.4-.5-.8-.3-.1-.4-1-.2-.5-.9-.3.1-.7-1-.6-.3H62l-.6.2-.3 1.2.7.7-.6.5 1.2.5-1.2.9.6.2-.4.8 1.2.7.8.4-1 .5.8.5-.8.8-.9-.4-.5-.4-1-.5-1 .5 1 .9-.8.4 1 .8-.6.5 1.4.6-1.2.3.9.5-.2.7 1 .2.7.9-1.2.2.2.7 1.2.6-.5.2 1 .4-.2.5 1.5.3-.5.4 1.4.6-1.1.6.9.5-.6.7-1.2.4-.3-.7-1-.2-.2-.8-1-.5-.3-1-.8-1.2-1.4-.3-.9.6.8.3-.4.8h.3v1.4l.6.2-.4.6.7.2-.4 1 .5.2.8.2-.5.8 1.1.6-.4.7 1.3.3-.6.8c-.6.8.8.3.8.3l-.4.3.4 1.1.9.3-.6.8.8.4-.8.8-.3-.2-.5-.1-.8-.7-1-.2-.7-.6-.4.2-1.6-1.2-1.6-.7-1.1.4.7.3-.6.6 1.3.3-.5.4.2.5h.5l.1 1.4-1.4-.6-1.2-.5-.8.3.8.8-.7.5 1 .6-.5.4 1.4.3-.6.6 1 .2-.3.5.6.1h.1l.5 1.1h.7l-.2 1-.4-.2-.6.2-1.5-1.1-1.3-1-1.1-.6-.8.5-.8.6.8.4-.4.4.7.1v.7l1 .4-.7.7c-.6.7 1 .4 1 .4v.1l1.3 1-.4.5 1 .4-.4.5.9.4-.2.3.8 1.4h-1.1l-1.3-.8h-1l-.7-.7-1.6.2-.5 1h.3v.9h.4l.1.8.8.2-.4.8h.7l-.3.5.8.2.6.2 1.1.5-.9 1-.6-.2-.4-.3-1-.2-1.1-.6-.6.4.2.2-.3.9.7.3-.6.6.5.5-.7.5 1.6.4-.5.8.7.2-.3.4.5.9 1.2.3-.4.8h.9l-.1.6 1-.2-.3.7h.5l.2.7.5.7v1.1l-1-.2-.4.3-1.9-.8-.5.2-1.6-1-1-.6-1.4-.8-1 1.2h.6l-.6.8.7.3-.1 1h.5l-.4 1.1 1.2.3-.8.8.9.2-.2.7.7.2-.3 1 1 .4-.5.6.6.1-.7.7.7.4.3 1.2-.6.7.9.4-.4.7-.3-.3-.5-.1h-1.1l-.6-.5h-.4l-1-.4-1.4-.2-.6-.8-.6.1-.9-1.3-.6.2-.6-.8-1.5.7.4.5-1.2 1.7H39l-.6.8 1.3.4-.6.4.6.6-.7.6 1 .1-.2.8h1l-.3.5.8.2-.1.4.6.6.9 1.5-1.3-.1-1-.7-.6.2-.3.6.7.2-.5.7.6.3-.7.8.4.1v1.2l.6-.2.2.8h.5v.7l.8-.1-.3.8c-.3.8.8 0 .8 0l-.3.5h.6l-.2.7.5.1-.1 1 1 .3-.4.5.7.3.2 1-.5.3-.3-.4-.6.3-.3-.5h-.7l-.7-.3-.6.2-.3-.3-1 .7.3.8-.7 1 .5.2v1l.9.3-.4.8c-.4.9.6 0 .6 0v.7h.6l.8 1-1-.3v.4h-.7l-.1.5v1h.4v.7h.5l-.1.6.9.4-.5 1h.6l.3 1.2.7.1-.3.6.8.3-.3.5.8.2-.4.9 1.2.2-.7.6.4 1-.3-.4-.5.2-.8-.7h-.5l-.4-.6-.2.3-.8-.6-.7.8.4.2-.3.9 1 .2-.3.7.6.3.2.6-.3.3-.3-.2-.3.3h-.3l-.4.4-.1.8.8-.1v.4l-.1.7.3 1 .5-.3-.2.4c-.2.4.5.6.5.6l.4-.3v1h.6l-.1.8.3-.2.5 1.1.5.4-.6.4-.3-.2-.5.4.8.8-.5.6h.5l.3 1h.3v.4h.6l-.5.7h.7l.4.9.3-.3v.6l1-.1-.2.5h.5l-.3.9.9-.2.3.3-.3.6.8-.4.1.1.5.5.5-.1.2.6h.7l-.5.4.5.4-.5.3.5.7-.7.2.5.4-.5.1-.4.5h.6l-.1.6h.2l.4.6 1 .2v.7h1l-.3.5h.8l-.2.5h.4l.2.5.6-.3.3.5.3-.6h.3v-.4l1-.3v.5l.6-.2.4.6.5-.3v-.1h.7v-.5h.9v-.3l.8.2v-.4l.6.2.2-.4.9.2v-.5l1 .4v-.5l.8.6.1-.5.7.8.3-.5.6.3v.4l.9.3-.7.7.8-.4v.5l.4.7c.4.7.6-.3.6-.3l.4.4.6-.2.4.2.6-.6.3.3.4-.3.3.1.2-.3.3.1v.4l.3-.2.6.5 1.3-.5.8.7 1.1-.7.5.5 1.4-.3h.2v.7l1-.8s-.2.4.6.3a1.8 1.8 0 0 0 .2 0l.2.2.4-.3v.2l.7-.3.2.3.3-.1.4.3.3-.3.6.6.4-.2.6.2.4-.4s.2 1 .6.3l.4-.7v-.5l.8.4-.7-.7.9-.3v-.4l.6-.3.3.5.7-.7.1.4.9-.6v.5l1-.3v.4l.8-.2.2.5.6-.3v.4l.8-.1v.2h.9v.5h.7v.1l.5.3.4-.6.6.2v-.5l1 .4v.4l.3-.1.3.6.3-.5.7.3v-.5h.5l-.2-.5h.8l-.2-.6h.9v-.6l1-.2.4-.6h.2v-.6h.5l-.4-.5h-.5l.5-.5-.7-.1.6-.7-.6-.4.5-.4-.5-.4h.7l.2-.6.5.1.5-.5.1-.1.8.4-.3-.6.3-.3.9.2-.3-.9h.5l-.2-.5 1 .2v-.7l.3.3.4-.9h.7l-.5-.7h.6v-.5h.3l.3-.9h.5l-.5-.5.8-.9.8-.4a2.1 2.1 0 0 1 0-.8l-.6-.3 1-.2-.8-.8 1.4-.1-.4-1.2 1.2-.1-.7-1.2v-.2h1.3l-.3-1.4h.3l-.7-.8v.6l-.4-.4h-.2l-.4-.3-.3.2-.3-.3.2-.5.6-.4-.3-.7 1-.2-.1-.3h.2l-.2-.7h.2l-.2-.4 1.3-.3-.5-1.2c-.4-1.2 1 .2 1 .2l.2-1.1h.8l-.6-1.2 1-.1Zm-4-27.2h.7l-.3.4h-.5Zm-.7.9-.1.2-.1-.2Zm-3.8-5.1V79.7l.1.3Z"/></svg>