<svg xmlns="http://www.w3.org/2000/svg" viewBox="0 0 150 150"><path fill="#73bf44" d="M44.2 12.1c0 .2 0 .6.3.5 1 0 1 .7 1.2 1.3 0 .4 0 .6.5.5a1.1 1.1 0 0 1 .6.2c.2.1.4.4.6.1.3-.2 0-.3-.1-.5-.2-.3 0-.4.2-.6A2.9 2.9 0 0 0 48 11c-.2-.3-.5 0-.8 0-.3 0-.6-.2-.6-.5 0-.4.3-.3.6-.3.6 0 1.3.3 1.6-.2.5-.7 0-1.5 0-2.3 0-.3-.3-.6 0-1 .4 0 .4.4.4.7 0 .8.3.8.9.1l.2 1.7c.1.7 1 1 1.2 1.6.1.1.4 0 .5-.2 0-.3.2-.6 0-1 0-.2-.2-.5 0-.6.3-.1.6.1.7.3a8.2 8.2 0 0 1 .4 1.1c.2.7.6.5 1 .4a1.1 1.1 0 0 0 .1-.1c-.6-1 .6-1.5.3-2.4-.1-.3 0-.8-.6-.3-.4.4-.4-.2-.6-.3-1-.2-.6-1-.8-1.6a.2.2 0 0 1 .2-.3c.5 0 .7-.3 1-.5.8-.4.8.4 1 .8.3 0 .3-.8.8-.3.3.3.6.6.1 1-.1.2 0 .5-.3.6-.5.3-.2.7.1.7.4.1.6.1.7.6a.5.5 0 0 0 .6.4.8.8 0 0 0 .6-.6c.1-.4-.3-.3-.5-.4-.2-.2-.6-.4-.3-.8.3-.2.6 0 .8.3.3.2.4.7 1 .8 0-.3-.3-.7.3-1 .4-.2 0-1-.2-1.4 0-.2-.4-.4 0-.5.4-.1.4-1 1-.7 0 0 .7.6.2 1.1a1.2 1.2 0 0 0-.1.3c1.1.6-.3 2.8 1.7 2.7 0-.9 1-1 1.5-1.6.2-.2.5 0 .5.4a1 1 0 0 1-.4.9c-.4.4-.3.8 0 1.2a.3.3 0 0 0 .5.1c.1-.1 0-.3 0-.4-.1-.2-.4-.5 0-.7.2-.2.4.2.6.4 0 0 0 .2.2.2a.7.7 0 0 0 .8-.1c.4-.3-.1-.4-.2-.6-.1-.4-.5-.6-.8-1 .5 0 .7.3 1 .6a1.4 1.4 0 0 0 1.5.3 11 11 0 0 1 2.8-.2c.7 0 1.4.5 2-.3.3-.3.8 0 1 .2a5 5 0 0 0 2 1.2c.4.1.5.4.6.8.1.3.3.3.7.2.5-.2 0-.4 0-.5-.2-.3-.2-.8 0-.7.7 0 .2-1.4 1.1-.8a1.7 1.7 0 0 0 1.2-.1 1.6 1.6 0 0 1 2 1 .3.3 0 0 1 0 .3c-.2.3-.1.7.3.7a2.5 2.5 0 0 1 .8 0c.2.2.4.2.5 0 .2-.2-.1-.3-.2-.4 0-.2-.1-.3 0-.4.1-.2.3-.1.5 0 .3.1.3.5.6.8a1.1 1.1 0 0 0-.2-1.3c-.3-.2-.6-.6-.2-.9.4-.3.5.2.8.4.4.3 0 1 .5 1.2a.6.6 0 0 0 .5-.5c0-.5.2-.5.6-.6h.2c.8-.8 1.3-.4 1.7.5h.5c-.4.4-.9.7-.5 1.3.1.2 0 .5-.1.4-.6-.3-1.1.6-1.7 0 0 .5.4 1 .1 1.5-.2.3.3.4.5.4.3 0 .4-.1.2-.4-.1-.2 0-.4.2-.4.6 0 1-.8 1.4-.8.6.1 0 1 .2 1.4.2.2.5.7.2.8-.4 0-.8.5-1.3.3-.5-.4-.7 0-.7.4 0 .6.2 1.2.9 1.3a3.4 3.4 0 0 1 1.5.4c.6.3.7.5.4 1.2.9-.7 1-1.3.6-2.2-.1-.2-.3-.4 0-.6.2-.2.3 0 .5.2.1.2.3.4.6.3.7-.4.8 0 .7.6 0 .5.1 1.1-.4 1.5v.1c.5 1-.6 2-.3 3a1.9 1.9 0 0 0 1 1 .8.8 0 0 0 1.2-.7c0-.2 0-.5.2-.5.7 0 .5-.4.4-.9.7-.1 1 .6 1.6.7-.2.4-.5.2-.8.4.3 0 .3.6.8.2.1-.2.4 0 .5.3.2 1.1 1.1.9 1.9.9.1 0 .3-.2.5 0a1.2 1.2 0 0 1-1.2.5c-.3 0-.6 0-.5.2 0 .5.3 1 0 1.5 0 .2.7-.2 1 .1.2-.3 0-.4 0-.6-.1-.4.2-.6.4-.4.5.5 1.1.2 1.6.5.6.4.7 0 .8-.5 0-.1-.1-.6.1-.5.4.2.9-.2 1 .2.2.4.6.6.8.9.5.6 0 1.3-.3 1.8-.6 1-1.2 1.9-.6 3.2.2.4-.1 1-.2 1.5a1.5 1.5 0 0 0 .2 1.2c.3.5.6.6 1 0 .4-.5 1.1-.4 1.5-1 .3-.3.5-.6.5-.9-.2-.7 0-1.2.7-1.3.2 0 .2-.8.5-.5.4.5 1.6 0 1.4 1.2l.1.2a3.4 3.4 0 0 0 .5-2.9c-.2-.6-.8-.6-1.2-.9-.4-.2-.6-.2-.6-.8 0-.6.4-.4.6-.5a1.3 1.3 0 0 1 1.7.1.3.3 0 0 0 .6-.2c0-.2.1-.5-.2-.6a.4.4 0 0 1-.3 0c-.8-1-.8-.9.2-1.4a1.8 1.8 0 0 0 .9-.5c.2-.3.3-.9.7-.9a3.3 3.3 0 0 1 2 .4 2.3 2.3 0 0 1 0 1.3c-.7 0-.6.6-.6.8a1.4 1.4 0 0 0 1 .9 1.1 1.1 0 0 0 1.1-.3l.7-1.1c.4-.6.9-.6 1.3 0a1.7 1.7 0 0 1 0 .2 10.2 10.2 0 0 0 2.1 2c-.9 0-1.2.4-1.2 1.2 0 .7-.3 1.5-.4 2.2 0 1.2.4 1.7 1.5 1.4.2 0 .3 0 .4-.2 0-.2-.2-.2-.3-.3a1.6 1.6 0 0 1-.4-.3c-.1-.2-.2-.4 0-.5 0-.2.2-.1.4 0 .4.1.6.6 1 1 .3-.2 0-1 .5-.6a14.3 14.3 0 0 1 1.2 1 1 1 0 0 1 .4 1.2h.3c.6-.5 1-.5 1.3.4.1.5 0 1.3.9 1.5.1 0-.1.4-.4.5-.5.3-1 .5 0 .8l.3.3c.3.4.7.6 1 .3a.9.9 0 0 0 .1-1.2c-.5-.7-.6-1 .4-1.3.7-.1.8-1 1.4-1.4.5-.3 1-1 1.4-1.2.9-.6 1.8-1.3 3-.8.5.1.3.4.1.6-.5.6-.4 1 .3 1.3.5.1.6.6 1.2.7.5 0 0 .6-.2.8-.3.2-1 0-.5.8.3.5.5.8 1.1.4.3-.2.8-.3.9.2 0 .4 0 .9-.6 1-.2 0-.2.1-.1.3a1.3 1.3 0 0 0 1.7.6c.1.3-.2.4-.2.6-.1.5-.2 1 .2 1.4.3.2 1 0 1.2-.2.5-.4.7-.2 1 .2.2.2.2.6.7.4 0 0 .2.2 0 .3-.6.4 0 1.1-.3 1.6-.2.2-.2.4 0 .4.7.2.6.7.4 1.2 0 .1-.1.3 0 .4.5.8 0 1.2-.5 1.7a3.5 3.5 0 0 0-.3-.6h-.3c-.2.3.2.6 0 1 0 0 .3.5.5.3.6-.7 1 0 1.3.3.3.4 1.3.9.1 1.6 0 0-.2 1 .4 1.4.4-.3.2-.6.2-.9 0-.6.3-1.2.9-1.4a1.5 1.5 0 0 1 1.4.6c.3.3.4.7.8.6 0 .4-.2.4-.4.6-.2.2-.1.4 0 .5.1.2.2.4.4.3.2 0 .6-.4.6-.1-.2.7.7.8.5 1.6-.2 1.3-1.2.8-1.8 1.1-.4.2-.4-.5-.8-.9 0 .7-.7 1.1-.3 1.8.2.3-.1.4-.3.6-.1.1-.7.5.1.5l-.5 1.8s-.3-.3-.5 0c.5.7 1.2.5 1.7.1.3-.2.6-.5.8-.2.7.8 1.6.7 2.4 1 .5.3.6.8.8 1.2.2.2-.6.2-.8.6.2.3.5.1.7.2.3.2.3.5 0 .6-1 .3-.7 1.1-.7 1.8s0 1.1-.8 1c-.1 0-.4 0-.4.2-.1.5 0 1.2-.8.4a.3.3 0 0 0-.2.1.4.4 0 0 0 .2.6c.7.4 1.2 0 1.8-.2.4-.1.6 0 .5.3-.2.5 0 .7.3 1 .1.2.2.5.6.4.3-.1.3-.4.3-.6 0-.4 0-.7-.5-.7a.5.5 0 0 1-.4-.6 4 4 0 0 0 0-1.8c0-.3.2-.3.4-.2.2 0 .6-.3.5.3a4.8 4.8 0 0 0 .2 1.3c.2 1 .8 1.2 1.4.5.6-.6.8-.7 1.2 0 0 .1.2 0 .4 0a1 1 0 0 1 0 .2c-.2.4-1 .5-.5 1s.7-.1 1-.5c.3-.6.4.1.6.1.4 0 .5.3.3.7-.1.3-.4.6.3.5l.2.1c-.1.9.7 1.3 1 2-1 .4-1.4-.6-2-1-.3-.2-.4-.2-.5 0-.1.3-.1.8-.6.4-.1 0-.3.3-.2.4.2.3.3.7.5.8.6.3.8.6.2 1a.4.4 0 0 0 0 .7 1 1 0 0 0 1.1.3c.2-.1.4-.3.6 0a.6.6 0 0 1 0 .7c-.4.4-.4.7 0 1a.5.5 0 0 1 .1.8c-.2.3-.4.1-.5 0-.5-.5-.8 0-1 .2-.6.5-1 .1-1.2-.2-.5-1-1.3-.8-2-.8l-.2.1c0 .2.2.2.4.3a.5.5 0 0 1 .4.5c0 .2-.3.2-.5.2s-.5 0-.5.3.1.7.5.6c.6 0 .6.4.5.7 0 .4.1.5.3.7.2 0 .3.4.2.4-1 .4-.5.7 0 1.1a.5.5 0 0 1 0 .5c-.3.6 0 1 .4 1.3a.6.6 0 0 1 .2.7c-.2.2-.4 0-.5 0-.5 0-1 .6-1.1-.4a2 2 0 0 1-.3.1.6.6 0 0 1-.7-.4c-.1-.2-.4-.5.2-.5v-.2c-.5-.8 0-.6.5-.7.2 0 .4.3.5 0 .1-.3-.1-.4-.2-.5-.2-.1-.4-.3-.7-.2-1.1.7-1.3.7-2-.4-.2-.3-.4-.6-.9-.5a.8.8 0 0 0-.6.5c0 .2-.2.6.2.6.7 0 .6.3.2.6-.4.4-.5.6-.2 1.1a.8.8 0 0 1-.4 1.2 9.1 9.1 0 0 0 1.2.2c.3 0 .5.2.3.5-.3.6.1 1.2.3 1.7.2.6 0 .8-.3 1a4.8 4.8 0 0 1 1.4 1.5.4.4 0 0 1-.3.7c-.2 0-.5-.4-.5.1 0 .3-.4.6 0 1a1.7 1.7 0 0 1 .4.3.4.4 0 0 1 .1.5c0 .2-.2.1-.4.1-.6 0-1.2.4-1.8.4l-.3.3c0 .2.2.3.4.4.3.2.8.3 0 .8-.4.3-.1 1-.3 1.4-.3 0-.6-.5-1 0-.1.3-.4 0-.5-.2-.6-.7-1.2-.7-1.8-.1-.2.3-.3.6-.8.2-.2-.3-.6.4-1 .4-.2.1-.5.7-.6.5-.4-.6-1.2 0-1.5-.7a.6.6 0 0 0-.9-.3c-.3.3-1 .3-.9 1 0 .2 0 .6-.2.5-.5-.5-1 .7-1.4-.2a1.7 1.7 0 0 0-1-.8c-.4-.2-.3-.2 0-.7a2.6 2.6 0 0 0-.7-1.7c-.1-.1-.4-.1-.3-.3.2-.6-.4-.4-.6-.6-.7-1-1-.4-1.1.3-.5 0-.5-.5-.9-.6-.5-.2-.8-.4-1 .3-.2.6-.4-.3-.6 0-.4-.7-1.2-.4-1.4-.2-.5.3-.8.3-1.2-.5a2.6 2.6 0 0 0 .4 1.7c-.3-.1-.6-.6-1 0 0 .2-.3 0-.5-.2-.3-.2-.2-.3 0-.5a2.5 2.5 0 0 0 .2-.4l-.1-.5c-.3-.2-.4.1-.5.3a1.4 1.4 0 0 0 0 .4c0 .2 0 .5-.3.5s-.3-.3-.3-.5a4.9 4.9 0 0 0-1.6-2 1.3 1.3 0 0 0 .2 1c.2.3.8.7-.2.8v.3c.7.5 0 .5-.2.6-.4.4-1-.4-1.4.3a.9.9 0 0 1-.2-.4c0-.5-.3-.5-.7-.5l.2 1a5 5 0 0 0-1.3-1.2c-.3-.2-.9-.4-.6-1 .1-.2 0-.3-.2-.4-.2 0-.3.1-.4.3 0 .2-.1.5-.4.4-.3-.1-.2-.4-.2-.6 0-.5.4-1 0-1.3-.4-.3-.7.4-1.2.5-.3.1-.6.5-1 .6-.2.1-.3.2-.2.4.4.8-.4.7-.6.6-1-.7-1.2.4-1.7.7-.1 0-.2.5-.4.4-1-.9-1.4.7-2.3.6-.4 0-.4.4 0 1.4.3-.2.3-.7.5-.9.2-.1.3-.4.5-.3a.6.6 0 0 1 .3.6c0 .3-.2.3-.4.3a1.5 1.5 0 0 0-1 1.3c-.1.5-1 1.1-1.3 1a6.9 6.9 0 0 1-.8-.5c-.6-.4.2-.5.3-.9-.6-.3-1.4-.5-1.3-1.5 0-.2-.2-.2-.4-.2l-.2.2c.5.7-.5 1-.4 1.5 0 .3-.3.5-.6.6a1.2 1.2 0 0 0-1 .8.3.3 0 0 1 0 .1c-.1.2-.3.2-.5.3-.4.2.1-1-.6-.4-.5.5-.5-.1-.6-.4a3.3 3.3 0 0 0-1.7-2.6 5.7 5.7 0 0 0-4.9-.2 5.4 5.4 0 0 0-1.9 2c-.3.4.1.6.2.8.2.4.5.8-.4.8-1.5 0-2.2 1.2-2.9 2.3-.5.8-1.2 1.4-1.6 2.2a22.6 22.6 0 0 1-1.4 2.3 2.6 2.6 0 0 0-.4 2.6c0 .3.2.7-.2.8-.3 0-.3-.4-.3-.7v-.5c-.4 0-.4.3-.5.5a20.9 20.9 0 0 0-2.3 5c-.7 3.5-2 7-1.5 10.7.3 2-.3 4.2-.4 6.3l-.1 6.5c-.5 5.4.5 10.8 1.4 16 .2 1.8.2 1.7-1.4 1.7h-9.1c-.7 0-1-.2-1-1 .8-3.4.5-7 1.2-10.5 1-4.5 1.1-9 1.3-13.6a17.8 17.8 0 0 0-.7-5.8c-1.4-4.6-2.2-9.4-3.4-14.2-.4-1.9-1.7-3.1-2.7-4.6-.5.2-.1.7-.5 1V96c0-.4-.2-.7-.6-.7a13 13 0 0 0-2 .2c-.5.2-.2.5 0 .8 0 .2.3.5 0 .7-.3.2-.5-.1-.6-.3-.2-.7-.7-.3-1.1-.4-.6-.2-.7.1-1 .6 0 .4-.6.6-.3 1.2v.1c0 .2-.2.3-.3.2-.8-.4-1 1.5-2 .5-.6-.5-1.3-1-1.5-1.8-.2-.5-.7-.6-1.1-1.2-.1.7 0 1.2-.6 1.5-.3.2-.1.5.2.7a9.1 9.1 0 0 1 1 .7.3.3 0 0 1 .1.5c-.1.2-.2 0-.4 0-.4 0-.8-.3-1.3 0-.2.2-.3 0-.4-.3 0-.3-.2-.4-.5-.4-.2 0-.5-.1-.3-.3.4-.6-.3-1.2 0-1.8a.4.4 0 0 0-.2-.6c-.2 0-.2.2-.3.4-.1.3-.3.5-.6 0h-.3c-.3.3-.6.4-.8-.2 0 .8 0 1.4-.5 1.8l-.3.2c-.5-.8-1.5-.1-2.2-.9 0 .5 0 1-.7.7-.5-.3-1-.4-.5-1a.4.4 0 0 0 0-.6c-.2-.2-.4 0-.5 0a1.3 1.3 0 0 0-1 1.9 1.3 1.3 0 0 0 .2 2v.2l-1.2.2c-.8-1-1.5 0-2.2-.1-.1-.9-.1-.9.5-1.4a1.3 1.3 0 0 1-1.1-1.2c0-.2-.2-.8.3-.2a5 5 0 0 0 .9-.8c.2-.3-.2-.5-.3-.7-.3-1-1.4-1.5-1.5-2.7 0-.2.2-.3.3-.2.4.1.6-1 1.1-.2.2.2.2.7.6.7a23.5 23.5 0 0 0 2.4 0 .4.4 0 0 0 .3-.6c-.5-.6.2-1 .2-1.6.4.5.7.7.4 1.2 0 .3 0 .4.2.5.2 0 .4 0 .5-.2.1-.4.8-.7 0-1.2a1.3 1.3 0 0 1-.4-1.4c-.6 0-1 .7-1.6.1 0 .5-.7.6-.7 1-.1 1-.7.7-1.2.5-.2-.1-.4-.3-.6-.2l.6 1c-.8-.4-2-.3-2.7-1a3.4 3.4 0 0 1-.6-1.3c-.1-.3.2-.7.5-1 .3-.2.6-.5.5-.9-.2-.3-.6-.1-.9-.1-1 0-1.8-.8-2.7-1-.4-.2-.2-.4 0-.7.3-.9.1-1.1-.8-1.2-.6-.1-1.3.3-1.9-.2-.3-.2-.3-.6-.8-.5.2-.4.5-.4.7-.5.3-.2.3-.4.1-.7-.2-.2-.3-.2-.6 0a1 1 0 0 1-1.4.2c0-.2-.1-.2-.3-.1-.7.5-1.7.4-2.4 1-.4.6-.7 0-1 0-.3-.2 0-.5.2-.6v-.5c-.3-.2-.7-.3-.4-.8L24 83a1.7 1.7 0 0 0-1 .4c1.6.5 1 1.6.8 2.6-.1.7-.6.3-.9.4 0-.6-.8-.5-.9-1 0-.4-.3-.3-.5-.3-.4 0-.6-.1-.3-.6.3-.6-.5-.6-.5-1-.2 0-.4 0-.3.3.2 1-.6.9-1 1-.6.1-.7.9-1.4.8 0 .2 0 .4.2.4.8 0 .6.4.3.8a.3.3 0 0 0 0 .2c.7.7-.3.8-.4 1.2 0 .2-.2.2-.3 0a1 1 0 0 1-.2-1.3c-.6-.1-1.4 0-2-.3-.2-.1-.4-.2-.6 0-.1.3 0 .4.2.6.2.2.4.3.3.6-.2.3-.5 0-.7.1a1.8 1.8 0 0 1-1.5 0c.4-.2-.3-.8.2-1.1.1-.1-.4-.3-.3-.5.1-.5 1 .2.8-.4-.1-.5-.4-1.1-1.2-1a1.8 1.8 0 0 1-1.8-1.2c-.2-.3-.3-1-1-1-.4 0-1.2-.2-.6-1 0-.1.4-.4-.2-.5-.5 0 0-.7-.1-1-.1-.4.8-1 1.2-.9.4.2.7 0 1-.3-.3-.4-.5-1-1.2-1-.3 0-.5-.2-.3-.6a.8.8 0 0 0-.4-1.2c-.6-.3-.6-.8-.7-1.3-.1-.7.4-.6.7-.7.7-.3.8-.8.8-1.4.4-.1.4.5.8.2.3-.2 0-.4-.1-.6-.2-.4.1-.5.4-.5.5-.1.9-1.3.5-1.6-.7-.7-.7.1-.8.5-.7-.4-1.5-.7-1.8-1.7l-.1.5c0 .4.3 1-.1 1.3-.3 0-.9-.2-1.2-.6-.3-.4-1.8.3-2 1 0 .2.3.5-.3.8a1.2 1.2 0 0 1-1.6-.4c-.5-1.1-1.4-.5-2.1-.7 0 .3.1.4.3.4.7.1.3.5.2.8 0 .3-.1.8-.6.4-.2-.2-1 .1-.7-.7.2-.5.1-1-.5-1.1-.3 0-.7-.5-.5-.7.4-.4-.2-1.3.8-1.5.4 0 1.2.1 1.4-.6h.2c.2.9.8 0 1.1.2.3.1.9.2.3.7-.1.1-.2.3 0 .4a.5.5 0 0 0 .4 0l1.5-.7c.6-.3.6-2 0-2.5A15.2 15.2 0 0 0 4 65c-.7-.4-1 .5-1.6.6a2 2 0 0 1 .9-1.2c.6-.5 1.2-1 .5-1.9-.4-.5.3-.7.4-1a2.4 2.4 0 0 0-1.7-.4c.2-.4.3-.9 0-1.2-.3-.3-.6.4-1 .3 0-.7 0-1.5-1-1.6a.2.2 0 0 1-.2-.4c.4-.4-.2-1.5 1-1.2.1 0 .3-.6 0-.8-.7-.4-.2-.6.1-.9.6-.5 1.1-.5 1.5.1 0 .2.2.4.4.3.3-.3 0-.7.2-1-1.2-.4-.4-1.4-.6-2 .3 0 .4.4.9.3-.4-.6-.6-1.2.4-.8.3 0 .4-.3.3-.4-.5-.5.2-1.1-.2-1.7a.2.2 0 0 1 .2-.3 1.2 1.2 0 0 0 1.2-.6c.2-.3.4 0 .4.4l.2 1c.4-.1.9 0 1.2-.2.3 0 .6-.6.7-1a1.5 1.5 0 0 0-.1-2 .8.8 0 0 1 .1-.2 3.3 3.3 0 0 0 .8-1.5c.1-.4.4-.1.6 0a2 2 0 0 0 2.3-.5c.3-.3.7-.6 0-1 .7 0 1.5.5 1.8-.5a.5.5 0 0 1 .3 0c.3.2.6.3.7-.2a.6.6 0 0 0-.6-.7c-.4 0-.6-.4-.8-.6.3-.4 0-1 .5-1.2.5 0 .6-.3.6-.7a.5.5 0 0 1 .4-.5c.6-.1.4-1 .9-1.1-.4-.8.1-.6.6-.7.4 0 .6-.5.8-.8.1-.3-.3-.3-.6-.5-.3-.1-.6-.4-.2-.8v-.3c-.1-1 0-1.3.9-1.2 0-.5-1-.1-.8-.9 0-.2 0-.7.3-.7.2.1.8.1.8.6s.1.7.6.5c.5-.2.3-.5 0-.8 0-.3-.3-.5 0-.8.2-.3.5 0 .7.1l1.8 1c.2.1.4.3.5 0 .2-.3 0-.3-.3-.4-.6 0-1-.8-1.9-.7.7-.6.3-1.8 1.5-1.6 0-1 1.2-1 1.6-1.6.3-.5.1-1 .3-1.5.3-.7.6-.7 1-.5.3.1.5.4.8.2.3-.3 0-.5 0-.8a1.7 1.7 0 0 0-.9-1.5c-.8-.4-.6-1-.2-1.5.2-.4.6-.8-.1-1.1-.2-.1-.3-.3 0-.6.7-.5 1.6-1 1.2-2a.3.3 0 0 1 .3-.5.4.4 0 0 1 .5.4c.2 1 1.1 1.6 1.7 2.3.4.5.6.9 1.2.2.5-.5.5.4.9.5.4 0 0 .5-.1.7a2.1 2.1 0 0 1 1.7 1l.3.4c.2 0 .2-.1.3-.3a3.3 3.3 0 0 1 1.2-1.8 1.3 1.3 0 0 0 .5-1.3c-.1-.6.7-.3.8-.7.2-.3.4 0 .5.2.2.2.2.4.5 0 .3-.5.7 0 1 .2.3.2.5.5 1 .3.3 0 .3 0 0 .3-.1.3.3.3.4.4a.3.3 0 0 0 .5 0c.2-.1 0-.3 0-.5-.4-1-.3-1 .7-1.2a.6.6 0 0 0 .2 0c-.2-.8.5-1.3.4-2-.1-.5-.4-1 .1-1.2.7-.3.7.5 1 .9.6-.4 1.2-1.4 1.7-1 1.3 1 1.3 1.6.8 2.2.2.2.3 0 .5-.2.4-.2.8-.6 1.2.2.3.6 1 .6 1.5.5a.5.5 0 0 0 .3-.7 1.4 1.4 0 0 1 0-1.9c.2-.3-.4-.9.4-1-.5-.1-1 0-.9-.7-.3.3 0 .5-.2.7-.2-.4-.9-.6-.9-1.2 0-.2-.2-.2-.3-.2-.7.2-1.1-.7-1.8-.3-.1-.3-.3-.6-.1-1 0 0 .2-.2 0-.4-.4.4-.5 1.1-1.1 1.3a3.7 3.7 0 0 1 2.8-2.7Zm89 66.2v.2l.7.3c.3 0 .4.2.3.5-.2.5.1.7.3 1.1a3.1 3.1 0 0 1 .6 1.7c0 .5.2.6.5.7.6.2 1.4-.2 2 .4 0 .1.6.1.5-.5-.2-.5.2-.7.6-.8.3 0 .6 0 .6-.5 0-.3-.4-.3-.5-.5-.4-.4-1-.2-1.2-1a1.8 1.8 0 0 0-1.4-1.5c-.4-.1-1 0-1.3-.5 0-.1.3-.5-.1-.5a.7.7 0 0 0-.7.5c-.1.6-.5.5-1 .4Zm-36.3 1.9c-.7-.5-1.3-1-1.7-.5a4 4 0 0 0-.5 2c0 .2.3.5 0 .7-.4.1-.6-.2-.7-.5-.4-.6-.7-.5-1 0l-1.3 2.3a20.8 20.8 0 0 0 4-1.4c1-.5 1-1 .3-1.9-.3-.3-.3-.4-.1-.7.3-.5.5 0 1 0ZM4.6 61.9c-.2.8.3 1.2.8 1.6.3.3 1.3.4.4 1.2-.2.2.1.4.4.5.2 0 .6 0 .5-.1a1 1 0 0 1 .6-1.3.8.8 0 0 1 .5 1.2c0 .2.4.3.4.3.2-.6.8-.7 1-1.2.1-.2-.1-.4-.3-.3-1 .5-1.6-.7-2.5-.3a4 4 0 0 0 0-.9 1.2 1.2 0 0 0-.5-1c-.5-.2-.5.3-.7.5-.5.8-.3-.3-.6-.2Zm52.2 28c1 1.7 3 1.4 4.4 2.3a4.2 4.2 0 0 0-.5-.8c-.8-1-1.7-1.8-3.2-1.2-.4.2-.4-.4-.7-.4ZM3.6 56.1c.2 1-.2 1.1-.8.7a.8.8 0 0 0-.3 0c-.5-.1-.4.4-.5.6a.2.2 0 0 0 .2.4c.7-.2 1.5.3 2-.6.1-.4.5-.2.7 0 .3.3.6.2.8-.1.1-.2.4-.2.2-.5a.7.7 0 0 0-.9-.3c-.5.4-.8.2-1.4-.2Z"/><path fill="#73bf44" d="M124.8 22.8a2.6 2.6 0 0 0 0 1.6c.2.4-.7.6 0 1 .4.4.8.8.5 1.4a.3.3 0 0 0 0 .3 1.6 1.6 0 0 1 0 2.1.4.4 0 0 1-.5.2.4.4 0 0 1-.1-.5 8.8 8.8 0 0 1 .4-.9c-1.4-.5-2.2-.1-2.5 1.3-.1.5-.3.4-.6.1a1.2 1.2 0 0 0-2 0c-.7-.7-.3-1.8-1-2.6a.4.4 0 0 1 0-.7c.2-.1.4 0 .5.2a1.5 1.5 0 0 0 1.6.5c.9-.2.7-1 .8-1.6 0-.8.3-1 1-.8.4 0 .6-.5.8-.7a2 2 0 0 1 1.1-.9ZM44.2 12.1l-.6-.4c.4-.4.4-.7-.2-1a1.2 1.2 0 0 1-.4-1.4 1.5 1.5 0 0 1 2-.1c.3.3.4.5.9.2-.8 1.2-.8 1.4.7 2 .6.3.7.6 1 1.1-1.2 0-2.2-.9-3.4-.4ZM68.9 4.8c0 .7-.4.7-.8.7-.3 0-.8 0-.4.5.2.3.1.5-.2.6a.8.8 0 0 0-.3.1c.3 1-.9.7-1 1.3H66a7.2 7.2 0 0 0-1.4-1.2c.3-.5-.3-1.4.7-1.6a1.7 1.7 0 0 0 1-.6 1 1 0 0 1 1 0c.4.5 1 .3 1.6.2ZM123.5 89.8c.4.3.2.8.8.8-.2-.7-.2-1.2.7-.8.3 0 .2-.2.3-.3.1-.3.2-.6.5-.4a.4.4 0 0 1 .2.6 1 1 0 0 0 .4 1.3.5.5 0 0 1 .1.7c-.1.2-.3 0-.5 0-.2-.2-.2-.1-.3.1-.2.3-.4.4-.6 0-.2-.5-.4 0-.6 0-.4 0-.2.3-.1.6.4.7-.4.7-.6 1-.3.3-.6-.2-1-.3l.1-.4a2.7 2.7 0 0 0 .6-3ZM149.4 71.8a.6.6 0 0 0 .1.5c.3.4.3.7-.2.8-.3 0-.3.6-.4.5a2.1 2.1 0 0 0-2 .6 1 1 0 0 1-.5-.6 2.2 2.2 0 0 1 .6-1.4c.2-.1 1.3-.2.3-.8.2-.1.5-.5.6-.4.4.2.9 0 1.3.1.3.1.3.4.2.7ZM8.6 40.8c.4-.4 1-.3 1-.8a.2.2 0 0 1 .4 0c.5.5 1 .2 1.4-.3.1-.2.3-.2.5 0 .1.2.3.4 0 .7a1.7 1.7 0 0 1-1 .6c-.4 0-.7.2-.2.6.6.4 0 .6-.1.8-.2.2-.3.4-.8 0-.6-.4-.3-1.4-1.2-1.6ZM58 98.7a2.3 2.3 0 0 0 .5 0c.3-.7.7-.4 1.2-.1 0 0 .4-.2.5.2a.6.6 0 0 1-.4.6.8.8 0 0 0-.5 1c0 .3 0 .6-.3.7-.3 0-.4-.3-.4-.5l-.1-.3c-1.3.3-.6-.8-.8-1.3-.2-.4.2-.3.3-.3ZM93.7 85c7.7 0 7.7-11.8 0-11.8-7.6 0-7.6 11.9 0 11.9ZM59 94.3c7.7 0 7.7-12 0-12s-7.7 12 0 12ZM134.8 85.8c7.6 0 7.6-12 0-12-7.7 0-7.7 12 0 12ZM43.2 95.8c7.7 0 7.7-11.9 0-11.9-7.6 0-7.6 12 0 12Z"/></svg>