<svg xmlns="http://www.w3.org/2000/svg" viewBox="0 0 150 150"><path fill="#73bf44" d="m84.6 94.7-1.8-2.3a2 2 0 0 1-.2.3.6.6 0 0 1-.6.3 2.8 2.8 0 0 1-1.3-1 2.2 2.2 0 0 1-.5-1.4 5.2 5.2 0 0 1 .3-1.2l-3.7-4.6-6.7 3.8a.3.3 0 0 1 .1.1 3.6 3.6 0 0 1 1 2.8c-.2 1.1-.8 1.2-1.2 1.1a5.5 5.5 0 0 1-1.8-1 7 7 0 0 1-1-.8L66 96.3a4 4 0 0 1 2.4.7c1.1.8 1.3 2 2.3 2.4 1 .4 1.7 2.2 1.9 3.9l.3 5a31.7 31.7 0 0 1-.2 4.9c0 1.5-.6 3.2-.6 4.5a3.7 3.7 0 0 1-.8 2.4 10.2 10.2 0 0 0-.4 2.6H80a8.9 8.9 0 0 0-.5-3.5c-.4-.7-.2-1.8-.4-3a9.8 9.8 0 0 1-.3-3.7c.2-1.1 0-1.9.1-3.6a15.1 15.1 0 0 1 .8-4.5l1.3-4a3.7 3.7 0 0 1 2.5-2.7c1.2-.4 1-3 1-3ZM89.9 97.3v.4l.4-.2-.4-.2z"/><path fill="#73bf44" d="m149.5 66.6-.6-.5.4-1.6-1.4.2v-1.6h-.8v-.8l-1.1.2.2-2-1 .3v-1l-.6.1-1-1-.7 1.2-.7-1.6-1.3.3-.3-.9-.6.2v-1.6l-2 1.4-.5-1-.2 1.3-1-.7.1 1.8-.7-.3-.8 1-.1-1.8-.8.2-.2-1h-.5v-.8l-1.2.3-.5-.5-.3.4-.8-.5.3 1.4-2-.2.6 1.2h-1l-.4.4-.2-.8-1.3.3.1-1.6h-.5l.1-.9h-.4l.1-1.4-.6.1V54l-1 .2v-.8h-1.1l.5-.4-.9-.1V52l-.6.1-.2-.9-.4.4-.6-.6-.3.9-.7-.3-1.6.1.5-1.1-.3-.4 1-.6h-.7l.3-1.2h-.8l.2-.8-.8-.3V47h-.4v-.6l-1 .2-.1-.3h-.2l-.5-.8 1.7-.3-1.8-.1 1.7-.6v-.7l-.6.1V43l-1.6.2-.2-.8-.8.5-.6-.4-.1 1-.3-.2-1 .5v-.6h-1.4l.2-.7-.3-.1.4-.6-.7-.2-.3-.7-.5.3-.2-1.7-1.1.2-.4-1-.5.1-.2-.5-.5.1-.3-.8-.3.1-.1-.5h-.9l.3-1-.6-.1-.2-.7-.5.1-.4-.5-.6.2v-1l-1.7.3-.2-.9-1 .5-.7-.7-.5.7-1-.5v1l-.4-.3-1 .3-1.2-.5-1.1.2v-.8l-1.5.4-.8-.7-.3.3-.8-1-.2.4-.7-.6v1.5h-.7v.9h-.8l.6 1.1h-1.2v1l-.4-.4-.7.4-.5-1-.8.2-.5-.9-1 .3-.3-1.4-1 .4-.2-.6-.8.5-.4-.5-.7.4-.4-.1.2.6-.7.2.3.3H79v.7l-1.5-.8h-.6v-.7l-.8.2-.5-.6-.6.2-.4-.7-.7.4-.5-.6-1 .8-.5-1.4-.1.7H71l-1.2-.5v1H69l-.4.7-.6-.6-1 .5-.5-.7-.3.4-.6-.3.1 1.2h-1l-.1.7h-1V35l-.6-.3.5-.5-.7-.4.6-.1-.3-.3.6-.2-.4-.2.3-.5-1 .1v-.5l-1 .5-.1-.6-1.3 1.1-.2-.7-.8.6-.5-.3v.8h-1l.4.5-1 .2.2.3-.7.3.6.5h-1v.6H56l-.4.2-.4-.3-.4.7-1.1-.2.3.7-1.4.6-.2-1-.3.2-.7-.7-.3.4-1-.8v.7l-1.2-.3v1.1l-.5-.3-.6.2-.2-1.2H47v-.7h-.8v-.3h-.5v-.7l-.8.1-.2-.4-.9.5.3.6h-.7l.4.7h-.5v1.1l-1-.2-.4.2-.3-.5-.5.1-.2-.4-.4.2v-1h-.8l-.2-.4-.5.3-1.3-.7-.2 1-.6-.2-.5.6-.3-.4-.2.6-.7-.4v1.2l-.6.2v.8l.5-.4.4.5.2-.3.3.2.4-.1v.6h.7l-.3.8H38l-.5.5h.6l-.4.6h.5v.4h.7l-.5.6.5.2-.9.3.3.3-.5.2.3.5h-1.3v.9l-.6-.1-.2.7-.6-.4-.1 1.3-1.2-.2v.6l-1-.2-.6 1-.8-.4-.3 1.3-1.8-.7-.2 1.2-.8-.5-.3 1h-1l-.1 1.5h-.8l.2.9H26l.3 1-.5.2.6.9-1 .4.3.6h-1.3l1.2 1-1 .4.8.5-.5.6h.5l-.2.6.5.1-.4.6 1 .4-.8.8.7.3-.7.5v.4h-2.1v1h-.9v.8l-.6.2.1 1-.8.1v1H20l.3.7-1.7-.4-.3.8-.4-1.7-1 .2-.2-1.3-1 .1-.1-.9-1 .5-.3-1-1.1.5.1-1.6-1.8.4-.1-1-1 .8-.7-.8-.3.6h-1v.7l-1.3-.3v1L5.9 61l-.3.6-.6-.9-.8.8-.6-.5-.3 1.1H2l-.5 1 .5.4-.6 1.5.6.2-.2.5.7.4-.3.6H3l-.2 1 1.5-.2-.4.9.8-.1-.2.6h1.2v.4l.3.5-.5 1 .7.5-1.5.5.7.8-1.5.6.3 1.1-.7.2.6.9-.4.8.6.5-1.4.9.5.4-.3.9.5.2-.6 1.2h.9l.1.4v.2l-2.4.4 1.2 1-.5.4.4.8-1.2.8.7 1.6-1.4-.4V87l-.4.4.7.6-1 .6 1.5 1.2-1 .6.8.6-.7.6 1.2 1-1.2 1 1.4.8v.7l.9-.7.7 1.6.9-1.4 1 1 .6-1 .6.6.5-1.7 1-1.4v.8l.6-.4.2 1 .5-.3v.8l.5-.1-.2 1 .7-.2.2 1 .7-.3.2 1.3.5-.3.3 1 .5-.1.2.7.6-.5.5 1 .3-.3v.7l1-.3v.6l1.3-.5h.1l-.2.3.8.6-1.6.8 1.4.8-.8.8 1.2.8v.4l.9-.2.8 1.4.6-.8 1 2.1 1-1.6.3 1.3.5-.6.5.4.4-.8.7.9.2-.7 1.3 1.3 1.2-1.7.5.8.7-1.3.8.5.2-1 .5.4.6-.6.4.4 1.8-1.8.2 1.2.7-.8h1.4l-.1-.6 2 1.1.2-1.8.6.6 1.4-1.6.6.7v-.2l.5.5.5-.4.5.6.6-.4.2 1 .8-.5.6 1.3.6-.8 1.1 1.7 1.3-1.3.2.7.8-1 .3 1 .5-.5.5.6.4-1.3 1 1.6.9-2 .6.7.9-1.4.9.2v-.4l1-.7.4.3.3-.9.5.5.7-.4.2.5.9-.7v1l.4-.2.3.2.1-.3.5.2.3-1 .6 1 .5-.5.4.6.3-.7.6.7.2-.6.5.4.2-.4.6.8.4-.8.4.6.4-.8.3.7.3-.7.1.6.4-1v1.4l.4-.2.2.4.6-1 .1.8.4-.3.3.1.1-.5.5.3v-.3h.2l-.2-.5.5.1v-.3l.2.1-.3-.5.5.1v-.4.2l.4-.2a8 8 0 0 1 .4-1.8c.5-1.2 1.8-1.4 3-1.4a21 21 0 0 1 2.7.2l2.2.2c2.2.1 5 .2 6.4 2.2l.7.2 1.3-.3.4.5.3-.5 1.2 1.2.5-.6.5.7 1.6.8L90 98l.8.8-1.4.9 1.6.8-.7.8h.8l.8 1.4.8-1.2 1.2 1.2.5-.6.6.6.7-1 1.2 1.6.5-1 .6.8.5-.5h1.4l-.4-1.4 1.7.8.7-1.3.8.5.3-.6 1.1 1.2.3-1.4 1.2-.7.3-.2.1.2v.4h1.3l.8.8.1-1.2 1.8 1.8.5-.5.5.7.5-.4.2 1 .8-.6.7 1.3.5-.7 1.2 1.7 1.3-1.4.2.7.8-.8.3.8.5-.5.5.7.4-1.3.9 1.6 1-2.1.6.8.8-1.5 1 .3v-.5l1-.7-.7-.8 1.4-.8-1.6-.8.8-.7-.3-.2 1.8.1v-.4l1 .3V96l2 .3v-.9l1.5 1.2.6-2.3.4.5 1-1h1l-.7-1 1.5.1.2.4.5-.4h.2l.4 1 1.1-1.1.9 1.4.7-1.6 1 .7-.1-.8 1.4-.8-1-.6 1 .1v-1.8l.6.3v-1.2l.7.4v-.7l.9.1-.6-1.2 1.7.5-.8-2.2 1 .2-.4-1.6.8-.5-.3-.3.3-1.3h-1.2l.5-1.6-1.7.5v-1l-.8.1v-.4h-.5l.3-.5-1.5.3.2-1.7-1.6.5v-2.3l-1.3-.3-.3-.8h1.5l-.2-1.1h1.4l-.2-.7 2 .2v-.8h.9l-.5-.9.6-.1-.5-1.7 1.5.5v-1.2l2 .4 1.4.8.1-.9 1.1.4V68l1.7.4-.6-1.7ZM89.9 97.3l.4.2-.4.2Z"/></svg>