<svg xmlns="http://www.w3.org/2000/svg" viewBox="0 0 150 150"><path fill="#73bf44" d="M85.6 150.3h-5.8a36.7 36.7 0 0 1-.3-5.5c.1-2.5.2-6.3-1.8-8.4s-5.2-2.4-7-5.5c-1.8-3-2.3-7.1-4.7-8.1l1.5-1.2a11.7 11.7 0 0 1 3 5.2 8.7 8.7 0 0 0 4.2 5.6c1.6 1 4.4 2.8 3.7-.3a39.1 39.1 0 0 1-1-7c-.3-2-3.5-4.8-4.8-7.4l1.3-.4s3.1 4.5 1.5-.8h3.8s.4 5.3 1 8.2c.5 2.8 1.4 4 1.4.7l.1-9 3.3.3-.3 7.4c-.2 2.2-1.2 6.5-.2 5.6a9.8 9.8 0 0 0 3-6 31 31 0 0 0-.3-7l1.5.2s.2 4.2.8 2.2c.6-2.1.3-2.3.3-2.3l1.5.3a43.1 43.1 0 0 0-1.7 5.7 32.1 32.1 0 0 1-2 6.2c-.9 2.4-3 3-3.3 4.5a26.2 26.2 0 0 0 .2 8.3 42 42 0 0 1 1.1 8.5Z"/><path fill="#73bf44" d="m74.5 121.8.1.2c.3.2 1 1-.8.6-2.1-.3-1.4-.8-1.4-.8l.2 1.2-.9-.7.3 1.1-.6-.2.6 1.3-1.2-.7.6 1.4-1.6.7.1 1h-.7v1.9L68 128l-.2 1.3-1.2-.6-.8.6-1-1.3-.3.6-1-.9-.3.7-1-1-.6 1-1.2-1-.4 1-1-.8-.2 2.1-.3 1.7-1.7-1-.2 1-1-1-.6.9-.4-.7-1 1.1-.8-.5-.3 1.2-1.2-.5-.7 1.7-1.2-.7-.5 1.3-1.2-1-1.4.9-.3-1.4h-1.6l-.5-1.6h-1.4l.2-1-1 .6-.2-1-.7.6-1.3-1.3-1.1.6-.5-2.3h-1.5v-1.9l1.5-.9-.9-1.3h2l-.5-1.2 1.5-.5-.9-1.8 1.5-1-1.9-1.4-1.2 1.4-.9-.8-.6 1.6-1.4-.9L32 117v-1.3l-1.5-.6.4-.6h.4l.5-1 1 .8 2-1.8-1.3-1 1.6-.7-1.4-1-1-1.8v-.8l-1.5 1.4-.7-.5v1.4l-1.6-.4-.6-1.1s-.4 3.6-1 1.7l-.6-2h-1.9l.7-1.1-1.8-1.5 1.4-.7-1-.7 1-.6-.8-2 .3-.4h-1.4l-.7-2.8h1.4l-1.6-2h.6l-.7-1.6 1.2.7-.2-1.3 1.1.5.9-2 .6.2-.8-1.3 1.2.2-.4-1.4h1.5l-1.5-1.1.7-.8-2-.3v-1.9l.5-.4s-2 1-1.5-.4l.6-1.4h-1.4l-.5-1-.6.7-.7-1.1-.3.6-1.7-1-1 .2-.4-1.7 1.2-.4-1.8-1 .8-.2-1.5-1.6.9-.5-.6-.8 1-.2-1.2-1.6 1.4-1.4-.9-1.3 1.2.5V71l1.3-.2-.3-1.7-1.6.2-.9-1.3v-.2l-1 .2-.7-1.5.4-1 .8.3.7-1.9.5.2-1-3.6.8.6.7-1.1 1.6 1.5.1-1.3 2.4.5-1.2-1H22l-.4-1.8-.6.2.7-2.2-1.4.4.5-1.5h-1.6l1.5-1.2-1.8-1.8 1.8.2-1-2.5 1.6.7-1.1-3h.9l1-.7-1-2s1.6 3.2 1.3 0l-.3-3.1.9 1 .8-1.6 1.7 1.7.5-1 1.3 2.2 2.8-.4-1.8-1.8 1.3.2L29 40l.4-3.6 1.3 1 .5-1.4 1.6 1.6.2-1.1.7.8 2-2.9-1.7-.6.6-.4-1.6-1.7-.7-1 .8-.5-1.8-.8.8-.8-1-2.1 1.4.9v-2L35 27l.8-1-1.3-1.2s2.4 2.5 1.5 0l-1-2.7 1.3.6.1-.7.5-3s1.8 1.8 1.8.8l-.1-1 1.6 2.5 1.6-.2.9-1-1.8-.6.8-2-1.7-.7 1.5-1-1.8-1.5 1.9-.2-1.3-2 .2-2.3 1.3-.3-.2-2.1 1.7 1.3V4.5l1.3.7.8-1.9 1.6.8.4-.1 1.4 2.4h.7l-.6 2.4 1.6.1 2.2 1.3-1-2.6L53.2 6 54.6 7l-1.2-3s.3 2.3 1 .3l.6-2 1.4.4 1.9-.8.4 2 1.2-.6L59 6l2.6 1 .6-1-.1-.5 1.8-.6-.1-2.3 1.4.8.7-1.5 1.8-.3-.5-1.8 2.2.7L71-.3l.8 2.4L73.6 1l.1 1.6 2.2-.4-.6 1.3 2 .6-.8 1.5 1.8 1.3L77 8.1l1 1-.5 2.5L80 10l2.3 1.3L81 8l1.8 1V7.6l1.4.2-.6-2.2 1.5 1 .8-1.3L87 6.7l.3-2.2S89 7 89.2 5l.3-2 .8 1.7 2-1.2.3 1.2 2.5-.1-.7 1.8 2 1.4-.3 1.9 1.2.5-1.7.9.7 1.1 1.8 1.8.2-1.4 1.1 1.1-.4-2.5 1.9 1 .8-1.7.7 1.5 1.2-.8L105 13l.9-.4.6-.4.5 1.8 2.2-.9-.4 1.7 2.5-.2-.7 1.4 1.3.7-.3 1.3s2.3-.4 1 .7l-1.3 1.1.4.6 2.5 1-.1-1.4 1.1.7.6-1.2L117 21l1.7-1-.7 2 2.2.4-1 1.7.5 1.1-.7 2.5 1.5.2-1 1.5.6.5s-2.1.3-1.3.9l.8.5s-2.3.9-.6 2.2l1.7 1.4.5-1.8.1-1.3 1.3.6.5-1.8s-1.4 2 .8.6l2.3-1.4s-3.2 2.6-.6 2.2l2.6-.4-.4 1.3 2.5.4-.7.9 1.9 1-.2 2.9.9.6-1.2 1.5 1.1 1-1.8.7.7 1s-1.2 1.3-.7 1.9l.5.5-.4 1.2-1.4.6-.2.6-1.8-.9.2 2-2.8.4 1.5.7s-1.6 1.7-.7 2l.8.2 1.5.2-1 1.7 1.5.7 2 .3-1.2 1.3 1.9.3-.3 1.6 2.1-.7.4 1 1.8-1.4.5 4.8-3 .2 1.2 1-2.2.1 2.3 2.2-2 1 2 .6-2 2.2-.5 2.9-3.7.6 2.3 1.5-2.1.4.8 1-2.2.8.8.5.1 2h1.6l2-1.6.3 1.5 2.5 1-.5 1.3 1 .7-1.5 1.5 2 .3-2 2 2.2 1.3-4.4 3.7-1.8-1.1-.3 1.1-1.7-.2.8 2-3.1.2 1.4 2-2 .7.7 1.4-1 3-2.2.1.8 2.2-2.5-1.5-1.7.8-2.6-1.4-.4 1.9-2.5-1.1-1 1.6-3.8.7.2 1.5 1.5 2 1.9 1.2-1.7.6 1.8.8-1.6 1 1 2-.5 1.4 2.9 1.1-3 1.3 2.1 1.4 1 2.4-5 2.6.6 2.5-2.5-.4.4 2.8-2.8-2.2-2.4-1.6-2 2.2-.7-2.4-2.3 2L95 123l-1.4.3-1.5-1.8v.2l-1.1-.7-.4.1-1.5-.2s.3 1.5-.8 1.1l-1.1-.3-.5 1-.5.7-1.3.8-.8 1-1-.5-1 .2-1.3-1s.5 2.4-.4.3l-.8-2.1-.8.3-.8-.3-1.4 1.7-.2-.8-.4-.8-.6.5"/></svg>