<svg xmlns="http://www.w3.org/2000/svg" viewBox="0 0 150 150"><path fill="#73bf44" d="M104.5 17.3a.4.4 0 0 0 .4 0c.2 0 .3-.2.4 0a.7.7 0 0 1 0 .5c-.6 0-.8.6-1.4.6v-.2l.2-.2c-1 0-.9.9-1 1.5l-.3.2c0 .7-.8 1.4-.3 2.2l.2.6v.2l-.2.5v.2c.4.8-.4 1.3-.4 2 0 .3-.3.5-.2.8.5 0 .7-.5 1-.9.4-.4.5-1 1-1.4V24.5c0 .2 0 .3.3.3a2 2 0 0 0 1.6-1.4 6.3 6.3 0 0 1-.6 2.6c1.2-1.3 2.8-2 4-3.2-.7.7-1 1.7-2.1 2.1-.8.3-1.3 1.1-1.9 1.8a13.3 13.3 0 0 0-1.8 2.2c1.3-.7 2.7-.4 3.7-1.2.8.6 1.6 0 2.4 0 2.7-.4 5.4 0 8.3-.3a1.2 1.2 0 0 1-1 .3 40.3 40.3 0 0 0-10 .8 12.2 12.2 0 0 0-5.6 3L97.4 35l5-.8a9 9 0 0 0 2.5-.4c.5-.2.1.5.5.6a11 11 0 0 0 2.8 0 4.3 4.3 0 0 1 1.7 0 5.4 5.4 0 0 0-2.2.7l2.5 1.3v.2a12.7 12.7 0 0 1-1.3-.6 11 11 0 0 0-8-1.2l-3 .5a4.2 4.2 0 0 0-3 2c-.4.8-1.3 1.1-1.9 1.8-.2.2-.5.4-.3.8s.5.6 1 .4l1.2-.5c.4.3-1 .7.1.9l-.4.5a30 30 0 0 1-6.5 4.5c2.3.4 4.6.6 6.7 1.7l-4.4-.8a9 9 0 0 0-1.8-.2c-.6 0-1.3 0-1.4 1a3.7 3.7 0 0 1-.5.8c-.3-.2 0-.4 0-.7.2-.2.4-.4.3-.6-.2-.4-.5 0-.8 0a3.2 3.2 0 0 0-1.8.7l-4.2 4.3a13.4 13.4 0 0 0 4-.9c.4.3.7 0 1-.1a1 1 0 0 1 1.3 0l-6.8 1.5a1.6 1.6 0 0 0-.8.4c-2.6 2.6-5.4 5-7 8.2a14.8 14.8 0 0 0-1.9 7.3c.2 5 .3 9.9 0 14.8v6.7a119.6 119.6 0 0 0 .5 14.2 91.7 91.7 0 0 1-.3 12 78.2 78.2 0 0 0 .1 11 78.6 78.6 0 0 1 0 8.1 75.6 75.6 0 0 0 .4 12.1c.5 3 .8 2.5-2 2.6h-.8c-.6 0-.9-.2-.8-.8.1-1.4.3-2.8.3-4.3q.2-4 0-8c-.1-1.6 0-3.3.1-5 0-2.6-.3-5.2-.4-7.8a80.6 80.6 0 0 1 .7-10 81.8 81.8 0 0 0 .2-15.2 90 90 0 0 1-.2-9.3c0-4.5-.1-9 .2-13.5a9.2 9.2 0 0 0-.8-3.8 38 38 0 0 0-7-11.1c-2.6-3-6-3.7-9.5-4.4a9.9 9.9 0 0 1-1.3-.3 10.2 10.2 0 0 0 2.3 0c0-.4-.5-.6-.3-1.1 1.4 2.1 3.9 2 5.8 2.9l.2-.2-2.1-2.7a98.5 98.5 0 0 1-7.8-11.5C44.7 39 42 34.3 38.6 30a1.5 1.5 0 0 0-1.6-.6c-1.6.2-3.2.1-4.8.2l4.6-.6c.7 0 1-.2.5-1l.6.7a1 1 0 0 0 1.2.1c.5-.2.3-.6.2-1a4.6 4.6 0 0 1-.3-2.7l.2-.4a8.8 8.8 0 0 0 .4 3.2c.3 1 .5 1.3 1.6 1.2.4 0 .6-.2.4-.6a44.3 44.3 0 0 1-1.7-4.3c0-.1 0-.3-.3-.3l-.2.3-.2.5a1.2 1.2 0 0 0-1-1.4 2.7 2.7 0 0 1-1.3-.7c1-.2 1.4.6 2.3.6L38 21.7c-.2-.3-.5-.7.1-1v.1c.3.5 1.2-.1 1.3.7a5.3 5.3 0 0 0 .2-2.2c.6.3.3 1 .3 1.5a4.4 4.4 0 0 0 1.7 3.7c.3.3.9.6 1.1.3.3-.3-.2-.6-.5-.6V24a29.8 29.8 0 0 1-.9-4.1c.5.7.4 1.6 1.2 2.2-.2-1.6-1-2.7-1.2-4a.8.8 0 0 0 0-.2c0-.4.5-.2.6-.5.2.1.1.4 0 .6a10.2 10.2 0 0 0 1.3 4.1c.1-2.4.7-4.7.5-7.2.8 1 .7 2.5 1.7 3.5.3-1.5-.5-2.4-1-3.6 0-.2-.1-.7-.5-.6-.4.1-.2.5-.2.8a1.5 1.5 0 0 1-.3-.8c0-.3-.1-.6-.4-.6-1.6.3-1.4-1.2-1.8-2v-.2c.5-.1.7.1.9.5a2 2 0 0 0 1 1c.1.2.3.4.4.1a.4.4 0 0 0 0-.4c-.6-.6 0-1.5-.6-2.2.5.2.3.7.7.9a13.4 13.4 0 0 0-.1-3 6.7 6.7 0 0 1 .5 2.4v.5c.1.4.3.7.7.7.3 0 .2-.4.3-.7a19.3 19.3 0 0 0 .1-3.6c0-.3 0-.5.2-.6.2 0 .3.2.4.3a.6.6 0 0 0 .8.3c.3-.1.1-.5 0-.7 0-.8.2-1.6 0-2.3.4.6.5 1.6 1.7 1.2.7 1 2 .7 2.8 1.5a2.2 2.2 0 0 1-1-.3c-.2 0-.5-.3-.8 0 .5.2-.5.9.4 1a2 2 0 0 1 .5.4c-1.2.4-.4 1.4-.7 2.1-.2.5.7.5.5 1l.4-.4a7.3 7.3 0 0 0 0 1c.1.1.1.5.5.4a.5.5 0 0 0 .4-.6c-.3-.7.1-1.2.4-1.8a4 4 0 0 0 2.2 1.3c1 1.5 2.8 1.9 4.2 2.7a1 1 0 0 0 1.2 0c.4-.5 0-.9-.2-1.3a2.4 2.4 0 0 0-.5-.6l-2.5-2a1 1 0 0 1-.5-.8c1.4.7 2.1 2.2 3.6 2.8.2 0 .3.3.5.2a.4.4 0 0 0 0-.5 17.6 17.6 0 0 0-1.2-2.6 9.1 9.1 0 0 1-1.2-3V5.7c.2 0 .4-.2.4-.5-.3-1.4-.1-3-1.5-3.9A4.6 4.6 0 0 1 54.8.2a3.4 3.4 0 0 1 1.9 1.3c.4.6.8.6 1.2-.3a6.8 6.8 0 0 0 1 4.8c-.5 0-.6-.6-1-.8 0 1 .2 1.5 1.3 2.8a13 13 0 0 0 2.6 7 3.6 3.6 0 0 0-.6-2.5 25.3 25.3 0 0 1-1.6-4.3c.8.6 1 1.5 1.8 2.2a6.2 6.2 0 0 0-1-3.1c.1 0 .3.4.5.3.2-.2.1-.5.1-.7L60.3.8c0 1.1 1 2 .7 3.3a5.5 5.5 0 0 0 .3 2.4 4.5 4.5 0 0 1 .2 1.3c0 1 1 1.4 1.5 2 .3-.1 0-.4.2-.5.3.2.2.6.6 1v-2c.3.4 0 .8.3 1.1 1.1-1.5.4-3.2.8-4.7v2.8c.7-.8.7-1.9 1.5-2.3a19 19 0 0 0-1 2.5c-.6 1.7-1.1 3.5.4 5a1.2 1.2 0 0 1 .4.9c-.5-.3-.5-1-1.2-1-.4 1.6.5 2.7 1.5 3.7.3.3.5.2.6-.2a1.3 1.3 0 0 0-.2-1 3.6 3.6 0 0 1-.7-1.5 5.4 5.4 0 0 1 1.3 1.7l.7-4a1 1 0 0 0-.4-.9 5 5 0 0 1-1-1.8c.5.3.5 1 1.1 1.4.3-.1 0-.5.3-.7v.7c0 .2 0 .5.3.6.3 0 .4-.3.4-.5 0-.3.1-.6.4-.8.5-.3.9-.8 1.5-.9.4.3.6 0 .7-.3a6 6 0 0 0 .6-2l.2-.5c.8.8.9-.4 1.5-.5a1.7 1.7 0 0 1-.6 1c-1.4 1.6-1.4 3.6-1.9 5.4-.1.5.3.6.6.4.7-.3.8-.8.6-1.5.6 1 1.1-.4 1.7 0a.6.6 0 0 1-.1.5 3.4 3.4 0 0 0-.8 2.6c0 .5 0 .7-.7.5 1 .5.9 1.3.9 2.1a5.3 5.3 0 0 0 .7 2.3c.2-1-.5-1.7-.5-2.6.7.6.5 1.9 1.8 2a4.7 4.7 0 0 0 .2 3.3c0 .1.4.4.4.2-.1-.8.6-1.2.6-1.8a7.5 7.5 0 0 1 .4-2.2 4.3 4.3 0 0 0 0-2.4 9.1 9.1 0 0 0 .5-4.4c-.2-.6-.4-1.3-1.4-1 .5-.2.8-.4.8-.8V7.6c1.3 0 1.8 1 2.1 2.2a18.4 18.4 0 0 1 .8 2c.4.3 0-1 .6-.2l.2-.3c-.2-.6.3-.9.6-1.3a4.5 4.5 0 0 0 .8-2.7c0-1.7.3-3.4.3-5.2v2.1a3.2 3.2 0 0 0 .5-1.7 5.3 5.3 0 0 1 .1-2l.4 5.5c.4-.4 0-.8.3-1.2l.2 3.3c0 .3 0 .8.3.9.4 0 .8-.3 1-.6a2.7 2.7 0 0 0 0-2.4c-.1-.4-.3-.8.2-1.2a4 4 0 0 0 .6 2.4V5.4c0-.3.2-.5.4-.5a.3.3 0 0 1 .3.4c-.3.6 0 1.3-.2 2a4.8 4.8 0 0 0 2.5-3c0 1-.3 2 .3 2.9.1.2 0 .6.4.4 0 .4.4.7-.1 1.4-.9 1-1.8 2.2-1.1 3.8a19.5 19.5 0 0 1 .5 2.6 3.9 3.9 0 0 1 0 2.5 1.3 1.3 0 0 0 .7-1.5 21 21 0 0 1-.2-4.8v1c0 .3 0 .8.3.8.4.1.5-.3.6-.6l.5-1.4c.1-.2 0-.6.5-.4.4.1.3.3.2.6a29 29 0 0 0-.8 3.8.6.6 0 0 0 0 .6c0 .3-.6.6 0 1-.7.8-.4 1.7-.2 2.7.7-.4.9-1.3 1.5-1.7-.2 1-1.3 1.7-1.4 3.2a4.5 4.5 0 0 1 1.3-1.5c1.1-.8 1.1-2 1.3-3.2 0-.2-.2-.1-.3-.1a.5.5 0 0 0-.4-.4l.9-1c.2-.5.4-1 1-1.3.2 0 .2-.1.2-.3l-.2-.8c.3-.8.8-1.6.4-2.5.3.3.2.8.6 1 0 .2.5.4 0 .8-.4.1-.2 2 0 2.4a2.1 2.1 0 0 1 .5.8c-.4-.2-.5-.7-1-.4a1 1 0 0 0-.5 1.2c.1.6-.6 1.3.3 2 .4.3.2.5.8.2l.4-.2c1.5-.7 1.5-.7.6-2.1a.8.8 0 0 1 0-.2c.5.3.7 1.2 1.6.9.8.3.9-.7 1.4-.8.8-.3.6-1 .6-1.5a.6.6 0 0 0-.5-.6c-.3 0-.6 0-.6.4 0 .2-.2.1-.3.1-.4-.6-.5-1.1.3-1.5.2-.1.2-.5.3-.7a.8.8 0 0 1 .3.7.8.8 0 0 0 .4.6c.2.2.5.4.8.3.3-.2 0-.5.2-1l.7 2 .2-.7c-.1 1 1 .8 1.4 1.3a2 2 0 0 0 2.3-.4 1.5 1.5 0 0 1-.5.9c-.4-.3-1 0-1.4 0-.3 0-1 0-.9.7.1.6 0 1.3 1 1a2.2 2.2 0 0 1 .6 0Zm-39.8 2.2Zm-4 3 .2.2.4 1.7c0 .1.1.3.3.1l.4.2.3 1c.3.3.7.5.7 1l-.3.2v.1a.6.6 0 0 0-.7.7 16 16 0 0 0-.1 3.7 4.1 4.1 0 0 1-.5 2.5 1.8 1.8 0 0 0 .3 2c.1.1.3.2.3.4.2 1.9 1.5 2.8 2.7 4 .4.3.6.1.7-.3a4.5 4.5 0 0 0 0-1l-.1-6.5a3.5 3.5 0 0 0-.7-2.2 4.6 4.6 0 0 1-1.1-2.3l-.2-.7a1.3 1.3 0 0 1 1.4.7c.3-2.7-1.5-4.7-1.9-7 0-.2-.2-.3-.3-.5 0-.1-.2-.4 0-.5.3-.4.1-.6 0-.9a5.4 5.4 0 0 1-.6-1.1c-.2-.4-.1-1-.7-1-.6.1.2.7-.1 1.1l-.2-.3c-.2-.4-.2-1-.8-.8-.6.2-.3.7-.1 1.1a5 5 0 0 1 .1 2.3.6.6 0 0 1-.2-.6 8 8 0 0 0-.4-2.4c-.1-.6-.6-.5-1-.4-.4.2-.2.5 0 .8.6.7-.3.3-.4.6a2.3 2.3 0 0 1 0-.6c0-.8-.5-1-1.1-.8l-2.2.1c-1.3.1-1.3.1-1 1.3a4.9 4.9 0 0 0 .1 2.1 6.8 6.8 0 0 0 .5 1.5c.6 1.2.5 2.7 1.4 3.9.3.3 0 1 0 1.6-.1 1-.3 1.9.6 2.7a6.6 6.6 0 0 1 1.4 2.6 1.1 1.1 0 0 0 .6.7c.2-1.2-.5-2.2-.7-3.3.4.2.3.6.7.7v-.2c.3-.1.2 0 .2.2.1.3-.1 1 .4 1 .4 0 .1-.8.2-1.1a2 2 0 0 1 .2-.3V33l.2-.6c.4.6.2 1.4.7 2a2.4 2.4 0 0 0 .3-2.2 27.4 27.4 0 0 1-1.3-2.6c-.6-2.2-1.7-4.2-2.3-6.3.5.3.4 1 .9 1.6.1-1.3-.2-2.5-.2-3.7a8.3 8.3 0 0 0 .5 1.5 4.4 4.4 0 0 0 .3 2.7l2.8 7.6a11.6 11.6 0 0 0 0-2.3 42 42 0 0 0-.8-5.4c-.1-.6-1-.6-.8-1.3.2 0 .5.4.5 0-.2-1 .1-2-.4-3 .8-.1.4.8.7 1l.2.4Zm-10 10h-.2c0 .5.5 1.8 1 1.8s.1-.2 0-.4a2 2 0 0 0-.5-1 1.3 1.3 0 0 1-.1 0ZM51.8 18v-.5a.7.7 0 0 0-.3.7.2.2 0 0 0 .4.1l-.1-.3Zm48.4 6.5c-.5.9 0 1.7 0 2.5a12.9 12.9 0 0 0 1.6-3 3.7 3.7 0 0 0 .1-2 7.2 7.2 0 0 0 .2-2.3v-1.1c0-.3 0-.5-.3-.7-.3 0-.5.2-.6.4a9.4 9.4 0 0 0-1.2 2c-.3.8-.7 1.8-.2 2.7.4-.2.5-.6.8-.7a4.2 4.2 0 0 1-.6 1.3c-.3.4-.4.8.2 1ZM44.8 35.6l-.4-.5c-.2-.2-.3-.8-.7-.7-.4.1-.5.7-.5 1.1a.8.8 0 0 0 .1.5l1.3 2.2c.3.4.5.2.7 0a2.6 2.6 0 0 0 1.1 2.5 4 4 0 0 0 3 3c-.4.1-.8-.3-1.3-.1l.4.8a109.5 109.5 0 0 0 6.8 9.7 41.6 41.6 0 0 0 7.6 7.8c-1-2.5-2-5-4.2-6.6a9.4 9.4 0 0 1-3-3.5c1.5 2.3 3.7 3.6 5.8 5.5-.3-2-1.4-3.3-2-4.8a13.6 13.6 0 0 0-4.2-5.4 15.6 15.6 0 0 0-4-2.7 3.7 3.7 0 0 1 2 .8l3.3 2.4.1-.2c-.4-.6-.6-1.5-1.4-1.9l-4.1-2a1.9 1.9 0 0 1-1-.8c1.7.5 3.1 1.5 4.8 2.2a5.1 5.1 0 0 0-1.1-2.2c-2.4-2.8-5.1-5.3-7.7-8.1a11.9 11.9 0 0 0-1.2-1.7c-.1-.1-.3-.4-.5-.3-.3 0-.3.4-.3.6l.6 2.4Zm2-21.1.4 1c-.1-.8 0-1.3.7-1.3.2 0 .2-.2.2-.3a3 3 0 0 0-.6-2.4c0-.2 0-.5-.4-.4a.5.5 0 0 0-.3.6 1.5 1.5 0 0 1-.2 1 3.3 3.3 0 0 0-.3-1.6 2.5 2.5 0 0 1 0-.4c1 0 .4-.7.3-1 0-.6-.2-1.4-.9-1.2-.7.1-.2.9-.4 1.5.4-.5 0-1 .5-1.3.5 2.4-.6 4.9.8 7.2.4-.5 0-1 .2-1.4Zm-2.4 6.9.2.3a5.8 5.8 0 0 1-.1 1.8 2.3 2.3 0 0 0 1.7 3c.7.2.9-.1.9-.7l-.1-1.6c.7-.2.7-.7.5-1.2a17.8 17.8 0 0 0-1.3-2.6c-.4-.6-.8-.8-1.4-.5-.3-.1-.6-.2-.7.1a1.1 1.1 0 0 0 .3 1.4Zm48.5 5.3c0 .5.1 1 .6 1a1.3 1.3 0 0 0 1.6-.4 6.7 6.7 0 0 1 1-1.4.6.6 0 0 0 0-1 6.3 6.3 0 0 0-.8-.6 4.5 4.5 0 0 0 0-.6c0-.3-.2-.6-.4-.7-.4-.1-.6.1-.7.3a7.3 7.3 0 0 0-1.5 2.2 1 1 0 0 0 .2 1.2Zm5.3-3.5c0 .8-.4 1.5-.5 2.4 2-1 1.7-2.8 1.7-4.6-.5.3-.4.8-.7 1.1a.6.6 0 0 1 0-.7c.2-.2.2-.5-.1-.6a2 2 0 0 0 .2-1.6c0-.2 0-.5-.4-.5a4.2 4.2 0 0 0-3 1.8.8.8 0 0 0 .1 1 .8.8 0 0 0 1.2.2 3 3 0 0 1 1.3-.5 6.2 6.2 0 0 1-1.8 1c-.5.2-.7.5-.5 1 .1.6.4 1.2 1.1 1.3.5 0 1 0 1-.7a1 1 0 0 1 .4-.6Zm-17.7 5.5c.7.6.5 1.6 1 2.5a8.9 8.9 0 0 0 1-3.6c0-.8-.3-1.5-1.3-1.6a6.4 6.4 0 0 0 .1-2.5c0-.3 0-.8-.4-.8-.5 0-.6.4-.7.8l-.7 3.8a4 4 0 0 0 .1.9c0 .5.3.7.9.5Zm-2-9.8-.5 1c-.2.6-.7 1.1-.7 1.8 0 .5-.1 1 .4 1.3.5.1.6-.6.8-.9a9.4 9.4 0 0 0 .7-1 2.2 2.2 0 0 0 .2-1.9c-.1-.3-.3-.4-.6-.3l.2-1.3c.4.8.8.5 1 0a19.2 19.2 0 0 1 .6-2.1.5.5 0 0 0 0-.5c-.6-.6-.6-1.6-1.3-2.2 0-.1 0-.4-.2-.5-.3-.2-.7-.5-1-.5-.3 0-.2.6-.3 1a40 40 0 0 0-.3 5.2.8.8 0 0 0 .7 1Zm12.1 13h.1a1.3 1.3 0 0 1 .3 1v2.5c0 .3-.2.7.3.8.4 0 .5-.3.6-.5.3-.3.4-.7.8-.8-.6 1.5-2 2.5-2.4 4.1a10.2 10.2 0 0 0 2-2.5c.7-.9 1.6-1.7 1.4-3a1.8 1.8 0 0 1 .5-1.1c.4-.7.2-1.2-.2-1.7-.3-.6-.8-.5-1.3-.4a3.6 3.6 0 0 0-1.3.5 1.3 1.3 0 0 0-.2 0l-.6.8a4.3 4.3 0 0 0-1.3 2.9A8.8 8.8 0 0 1 89 37a11.3 11.3 0 0 0-.4 2.4c.6-.4.5-.9.7-1.3a2.3 2.3 0 0 0 0-.3.7.7 0 0 0 .2 0c1 .2 1.3-.5 1.3-1.2a20.7 20.7 0 0 0-.2-4.8ZM55.3 14.1v.4c-.4.6-1 .8-1.4 1.4-.3.4-.3.8.3.8 1-.2 2.1 0 3.2 0 .7-.1.9-.5.9-1.2s-.5-.6-1-.6c-.2 0-.5 0-.8-.2.5-.1.9.1 1.3-.1-1.3-1-1.7-1.1-2.5-.5Zm12.3 54c.1-3-3.5-11.3-5.6-12.4-.6 2.5 1.1 4.2 2 6.2a18 18 0 0 0 3.6 6.1Zm-5.2-19.3c.7 2 2.2 3.5 3.3 5.4.2-.8.3-1.3 0-1.8a9.2 9.2 0 0 1-1.5-4.4 4 4 0 0 0-1.6-2.7c-1.2-1-1.2-1-1.5.5v.4a2.9 2.9 0 0 0 1.2 3.5c.2-.3-.1-.6.1-1Zm7-32.4a1.5 1.5 0 0 0-.6 1c-.8 2.3-.5 4.6-.5 6.9a.7.7 0 0 0 0 .2l.2-.2c1-.3 1.4-1.3 2-2 .1 0 0-.2 0-.4-.2-1.8-.6-3.6-1-5.5Zm18.8 27.8c-.5.2.3-.8-.4-.4a8.5 8.5 0 0 0-2.3 2.5c3.4-1.3 8-4.1 8.7-5.4-2-.2-5.3 1.6-6 3.3ZM42.7 35c1-.5.1-1.7 1.1-2.1v-.1a6.2 6.2 0 0 0-.3-1.7c-.4.4 0 1-.5 1.4a2.2 2.2 0 0 1 0-.4c.5-1.7-.7-2.8-2.5-2.7-.7 0-.8.3-.5.8l2.7 4.8ZM73 30.4c.4 0 .4-.4.7-.5.9-.3 1-.7.7-1.6l-.3-.9c-.4-1.4-1.5-2.6-1.7-4.2-.4 1-1 1.9-.7 3a18.6 18.6 0 0 1 .8 4 .4.4 0 0 0 .3.4v-1.8h.2ZM59 42.6c0-.6-.6-1-.3-1.7a2 2 0 0 0-.4-2 1.4 1.4 0 0 1-.4-.8c0-1-1-1.5-1.7-2.2l-.1 1.7a4.7 4.7 0 0 0 0 1.6c.1 0 0-.5.4-.4-.3.6 0 1 .1 1.6.5 1.8 1 2.2 2.4 2.2Zm12.7-23.1v1.4a1.6 1.6 0 0 0 .1-1 13.6 13.6 0 0 1 0-3.9 3 3 0 0 0-.4-1.6c-.3-.6-.4-.4-.7 0a3.9 3.9 0 0 0-.8 3 23.8 23.8 0 0 0 .5 2.7c.1.6 0 1.3.5 1.8.6-.7.4-1.6.8-2.4Zm-19.5 4.6c0-.1 0-.4-.2-.4-.5 0-.5 0-.5-.3v-.7c0-.2 0-.5-.4-.5-.2 0-.3.2-.3.4a6.9 6.9 0 0 1-.7 1.8 1.2 1.2 0 0 0-.1 1 10.3 10.3 0 0 0 1.5 3c.2.2.3.4.5.3.3 0 .2-.3.2-.5a8.6 8.6 0 0 1 0-4Zm19.7 34 3-3.3a1.6 1.6 0 0 0 .4-1.3 1.8 1.8 0 0 1 .3-1.5 6.9 6.9 0 0 0-3.7 6.2ZM54 24.3c0-1.5-.7-2.8-.8-4.2 0-.4-.2-1-.6-1-.4 0-.4.6-.5.9a8.4 8.4 0 0 1-.4.8 1 1 0 0 0 0 1.1 14.9 14.9 0 0 1 1.5 2.9 1.3 1.3 0 0 0 .1.2c.1.2.2.4.4.2.2 0 .4-.1.4-.3v-.6Zm42.3 10a12.3 12.3 0 0 1 1.3-1.1 5.8 5.8 0 0 0 1.8-2.8.9.9 0 0 0-.3-1 .5.5 0 0 0-.7-.1 3 3 0 0 0-1.4 1.7c-.3 1 .2 2.4-.7 3.3Zm-19.8-11-.8 2-.7 2c-.2.7.8 1 .5 1.7a1.8 1.8 0 0 0 .6 2 33 33 0 0 0 .4-7.7Zm5.7-10.6C84 9.8 83.4 7 83 4c-.3 2.1-.8 4.2-1 6.3a7.1 7.1 0 0 0 .3 2.2Zm.2 25c.1.5-.3.8.1 1.2l1.9-2.7c.4-.6-.2-1-.5-1.3-.3-.4-.6 0-.8.3a5 5 0 0 0-1 2l-1 2.4c0 .2 0 .4.2.5.2 0 .3 0 .4-.2a1.4 1.4 0 0 0 .4-1 1.5 1.5 0 0 1 .3-1.1ZM55 40.2l-.6-1.4-1.7-3.2c-.1-.3-.4-.7-.7 0-.3.7.5 3.6 1 4.1.6.5.6 0 .7-.5.3.6.6 1 1.3 1Zm35-18.5a6.2 6.2 0 0 1-.3-1.7c0-.4 0-.7-.4-.8-.3-.1-.5.2-.7.4-1 .9-.4 2.1-.7 3.2 0 .3.6 1 .8.8a11.7 11.7 0 0 0 1.3-1.9Zm-12.4 24a23.9 23.9 0 0 0 2.8-4.2c0-.2.2-.4 0-.6-.2-.3-.4 0-.6 0-1.6.5-2.7 2.9-2.2 4.8ZM86 19l-.1.5c-.2.3-.1.7.2.8.4.1.4-.4.4-.6l.5-2.8a1.3 1.3 0 0 0-.4-1 .4.4 0 0 0-.6-.1 4.2 4.2 0 0 0-.8 3.2c.2.4.4.4.8 0Zm15 11.9.3-.3a10.6 10.6 0 0 0 2.7-4V26h-.5c-.8.4-2.8 3.3-2.8 4.2 0 .2 0 .5.3.6ZM95.4 33c-1.3 2.2-3 4-4.3 6.1 3.3-2.3 4.4-2.9 4.3-6.1ZM49.2 9.8a4.6 4.6 0 0 0-.5-2.2 1.2 1.2 0 0 0-1.4-.5c-.5 0-.2.6-.3 1 0 .7.7 1.2.9 2 0 .3.2.8.8.7.6-.1.5-.6.5-1ZM43 29.5l1 1.5c.3.5.5.4.8 0a2.8 2.8 0 0 0-1-3.5c-.3-.2-.6-.1-.7.3l-.1 1.7Zm33.7 14.9c-.9.7-2.9 5-3 6.2.8-1 1.4-1.9 2.2-2.7a3.9 3.9 0 0 0 .8-3.5Zm1.6 5.9c-1.4 0-2.5 1.3-2.6 3 0 .2-.1.5.1.6.2.1.4 0 .6-.2a1 1 0 0 0 .4-.4 4.6 4.6 0 0 1 1.4-2 1.5 1.5 0 0 0 .4-.7c0-.3 0-.4-.3-.3ZM84 23.8a38 38 0 0 1-1.6 6.8c2-1.8 2.3-4 1.6-6.8ZM52.5 40.3c-.8-2-2-3.5-2.9-5.3 0-.1-.2-.3-.3-.2a.4.4 0 0 0-.2.2c0 .7-.2 1.5.3 2a40 40 0 0 0 3.1 3.3Zm10.8 22a6.8 6.8 0 0 0 1.1 2.8 19.2 19.2 0 0 1 2 3.2l1.6 3.2a3.6 3.6 0 0 0-.3-2 40.4 40.4 0 0 1-3.7-6.3 1.3 1.3 0 0 0-.7-.8ZM40.4 24.5a24.6 24.6 0 0 0 2 4.8c.8-1.6.3-2.8-2-4.8Zm56 3.8a8 8 0 0 0-2.1.2c-.4.1-.6.3-.5.7l1 2.2c.2-.5.8-.7.3-1.2-.2-.2 0-.2.1-.2 1-.2 1-1 1.3-1.7Zm-28.3 7.2a26.8 26.8 0 0 0 .1-3.4 1.3 1.3 0 0 0-.8-1.2c-.4-.3-.6-.2-.5.3.3 1.4 0 3 1.2 4.3Zm-14.2-5c-.3-1.2.1-2.4-.2-3.7a10.2 10.2 0 0 0-.1 4c0 .1.2.4-.1.5-.4 0-.4-.2-.5-.4l-.2-.5c0 .5-.4 1 .1 1.3a2.1 2.1 0 0 1 1.3 1.4c.6-1.3.8-2.3-.1-3.5ZM80.3 20a22.1 22.1 0 0 1-1.6 2.3c-.8.9-.8 1.7.2 2.8-.2-1.5 1.6-2.2.8-3.7.2.1.4.3.6.1.3-.4.2-.8 0-1.5Zm-14 13-.2.1.1 2 .4 6.8c0 .6 0 .6.7 1-.2-3.4-.9-6.6-1-9.8Zm-.5 24c-.4-2.5-1.9-4.3-3.5-6 .9 2.2 2.4 4 3.5 6Zm9.2-7 .2.3 1-.8c.2-.2.2-.7.6-.6a1.2 1.2 0 0 0 1.2-.7c.7-.9 1.2-1.9 1.8-2.9l-.2-.1Zm-9.4-31c1.3-1.8 1.1-2.6-.6-4-.5 1.5.2 2.7.6 4ZM82 42.9c-.7 1.5-1.8 2.6-2 4.2 1.8-.7 2.4-2.1 2-4.2Zm.8-16c.8-1.6.8-4.6.1-5.6-.9 1.9 0 3.8-.1 5.6Zm5.3 9.8a8.5 8.5 0 0 0-1.3 2.6c-.3.7 0 .9.6.9a.8.8 0 0 0 1-.8 17.4 17.4 0 0 0-.3-2.7ZM86.5 32c1.3-.6 1.6-1 1.7-2.4 0-.3.2-.7-.1-.8-.3-.1-.7 0-1 .3a1 1 0 0 0-.3.7l-.3 2.2ZM65 24.3l.6 4.3c0 .2 0 .5.3.5s.2-.3.3-.5a4.6 4.6 0 0 0-1.2-4.3Zm5.4 8.1a1.3 1.3 0 0 0 .2-.2 2.3 2.3 0 0 0-.1-2 2.2 2.2 0 0 1-.6-.6c-.2-.2-.3-.6-.7-.4a.6.6 0 0 0-.2.8l1 2.2.4.2Zm8.2-4c-.1 1.1-1.2 1.7-1.4 2.8.7-.6.7-.2.8.3l.6 2c.5-1.7-.2-3.4 0-5Zm-5-5.6a5.5 5.5 0 0 0-.2-1.6c-.1-.3-.2-.6-.6-.4-.3.1-.7.2-.6.7l.5 2c.1.2 0 .7.5.6a.7.7 0 0 0 .4-.8v-.5ZM65 58.1l.2-.2-1.7-3-1.1-1.8c-.3-.4-.6-.1-.7 0-.2 0-.1.4 0 .5a1.1 1.1 0 0 1 .5.4c.8 1.5 2 2.7 2.8 4Zm21.3-28.5a20.8 20.8 0 0 1-1.6 2.1.7.7 0 0 0 .1 1.2c.6.2 1-.1 1.1-.6a4.8 4.8 0 0 0 .4-2.7Zm-40 4a3.5 3.5 0 0 0-.6-2.9c0-.1-.2-.4-.4-.1-.2.5-.8 1-.4 1.6a5.5 5.5 0 0 0 1.4 1.5Zm45.3-9.2a6.8 6.8 0 0 1 .9-1.7c.3-.5.8-1 .6-1.7L91.8 22c-1 1-1.3.8-.2 2.3Zm-26-3.3c-1.1 1.2-.4 2.1 0 3 .3.3.4 1 .8.7.4-.1 0-.5-.2-.8a.3.3 0 0 1 0-.2c.3-1-.4-1.7-.7-2.7ZM82 15.5a1.2 1.2 0 0 0-.1 0v.1h.1Z"/><path fill="#73bf44" d="M41.2 16a1 1 0 0 1-.3-1 3.3 3.3 0 0 0-1.8-3.5l-.2-.2c.5-1.2-.5-2.1-.6-3.2 0-.5-.2-1 .3-1.4.3-.3.2-.8.4-1.2L39 8a2.2 2.2 0 0 0 .3 1.5c.2.4.5.7.3 1.3-.3.6.5.7.8 1.2a5.2 5.2 0 0 1 .9 4ZM69.3 9.3a7 7 0 0 0-.2-4.5c-.2-.6-.6-1.1-.5-1.8a7.7 7.7 0 0 1 1 2.5c.1.2 0 1 .7.4.2-.2.4.4.5.8v1.7c-.6 0-1 .6-1.5.9ZM77 8.7c-.3 0-.6.2-.5-.3l-.1-1h.2v.1h-.2c-.3 0-.3.2-.5.4-.1-.5.3-1-.1-1.6.2.7 1.6.2 1.2 1.3v1.1ZM102.7 22.5l-.2-.6a2.4 2.4 0 0 1 .5-1.5 5.9 5.9 0 0 1-.3 2ZM105.6 23l.7-1.3c.2.7-.3 1.2-.5 1.7ZM106.3 21.7a.4.4 0 0 0-.3-.3l.8-.8h.1ZM105.4 22a.8.8 0 0 1-.5.3.7.7 0 0 1 .4-.6l.1.2ZM37.4 17.3h-.1a1.6 1.6 0 0 1-.1-.1 1.5 1.5 0 0 1 .2 0ZM102.5 23.2l.2-.5c.1.2 0 .4-.2.5ZM103.8 18.6l.1-.4v.4h-.1ZM57.1 6.2l-.1-.4h.2ZM102.7 22.7v-.2a.7.7 0 0 1 0 .2ZM57 5.8l-.2-.2ZM102.5 23.4v-.2a1.4 1.4 0 0 1 0 .2ZM105.4 22v-.3h.2l-.2.2ZM60.9 22.6c.7.5.4 1.3.7 2-.2.1-.3 0-.3-.2l-.4-1.8ZM105.6 23a4.8 4.8 0 0 1-1.7 1.5v-.2c.7-.3 1-1 1.7-1.3ZM62 24.7c0-.2.2-.3.3 0a1 1 0 0 1 0 1l-.3-1ZM51.6 33.9a1.3 1.3 0 0 1-.7-.8l.1-.2a2 2 0 0 1 .6 1ZM63.3 27.1l-.6-.2.3-.1.3.3ZM60.5 22.1l.2.4-.2-.4ZM60.7 22.5l.2.2ZM104 18.2l.1-.2-.2.2ZM57.2 6.3a1.3 1.3 0 0 1 0-.1ZM50.5 32.5h.2v.4ZM50.9 32.9v.2l-.2-.2ZM51.8 18v.1-.1z"/></svg>