<svg xmlns="http://www.w3.org/2000/svg" viewBox="0 0 150 150"><path fill="#73bf44" d="M77 150.2h-9.7a5.6 5.6 0 0 1 .2-2.2 7.8 7.8 0 0 0 .8-2.6c0-1.2.3-3.4 0-4a2.8 2.8 0 0 1 0-2.1 6.6 6.6 0 0 0 .2-3.5 5.1 5.1 0 0 1-.3-2.4 9 9 0 0 0 0-3.3 5.5 5.5 0 0 1-.2-3 18.5 18.5 0 0 0 .4-4.3l-.2-7.7h6.2v7l.3 6.3c0 2.9 0 4.6.2 6.2a11.1 11.1 0 0 0 .5 3.3 2.9 2.9 0 0 1 .3 2.2 9.7 9.7 0 0 0-.1 3.8 4.8 4.8 0 0 0 .9 2.7 3 3 0 0 1 .5 2 4 4 0 0 0 0 1.6Z"/><path fill="#73bf44" d="m68.6 130.2-1.3 1.6-1.5.3-.2-.7-1.1.3-.9-.9 1.1-.6-.6-.9.6-.7-.3-1.2.6-1.4-1.7.1-.8.7.8 1.2-1 .9-.1 1.3-1.3.2-.6 1.2-2-.3-.7 1.5h-1.3l-.6.6-1.6-.3-2.1.6-1.4-.7v-1.4l-1.8-.1-.3 1.1h-2.2l-.6.8-1.6-.1-.6.6-1.5-.8-2.3-.7.4-1.4-2.2-.7-.2-2.2-2.1-.8 1.3-3-1.5-1.5-2.2.2-3-1.5-2.1-.3-.9-1.4-2.8.5-1.3-1 2.4-1 .8-1.4-3-.4-1-2 1.7-1.1 2.5.1-.8-1.1-3.5.3-1.8-.9-4.6-.9-.5-1.4 1.3-.4-.7-1.5.8-1.2 2.6-1.1-2.6-.6-3 .9-1.4-1.8.9-2.7 2.1.2 1.6-1.1 5-.1 1.1-1.2-1.5-1.5-3.1.8-1.6-.4-1.3.7-.9-1.6h-1.9l-.6-1.4-1.6-1.1 1.3-2 3.1.6 2-.8-1.7-.8-.6-2.4 1.9-.4 2.9 1.1-.3-2.4-3.1-1.5-.5-2.4 3.2-.6-.5-2-2.3-.7-1.1-1.7-1.9-.5-.3-2.5 2.1-.1 3.7 1.5.1-1.9-2-1.1-1.1-3.1h2.9l.6-1.9 3.3.8 1.3-1.2 3.3.4 2.9-1.5-2.6-1.7-2.5.2-3.4-1.4 2-1.8-2.4-1.3-.1-1.8-1.1-2.6 3.4.2 4.3 1.5 1.4-1.6-1.9-1.9-3.1.2-2.2-1.4 1.5-1.3-3.6-.2-.6-1.4 1.4-.9-3.4-1.2-.2-2.8 2.7.2 4.8 2.5.2-2.1-2.8-2.3.4-2.4 2.1.7 1.4-2.6 5.5 4.6.2-3.2 4.6 1.8-2.4-3.6 1.2-1.2 2.1 1-.4-2.6 1.2-.4-.1-3.2 1.5-1.4 2.1 1.3.3-2.4-.4-2.1 1.7-2.5 2 2.1 1.7.6-.4-3.6 1.7.2.2-3.2H50l1-1.4 2.6.9V20l2.8.5-.4-2.3 1.3-.6.2-1.7 1.1-2.1 2.2-.2 1.8 1.2.5-1.5-.6-1.5.8-1.4-.8-2.1 2.3-1 3.3 1.3.9-1.7-.8-2 1.3-.6V1.9l2.1-2.1 2.7 1.7L76 .8l2.8 2.4-.4 2.1 1.6-.1L81.2 7l-.5 2.1 1.7.6.8 3.9 1.9-2.1 2.8 1.4 1.2-2 2.3 1.3 1.2 3.3 2.1-1.3 2.5 2.4 1.5-.6 5.1 4.3-.2 2.5 1.2.5 1.5 2.7-.6 1.1 2.7-.2 1.8 2.4.4 2.8 2.6-.3.3 2.5-.8 1.4 1.6.9 1.6-.7 1.5 2.8-.9 2.8 3.4.1 1.2-1.8 2.1 3.5-2.2 3.9 2.2.3 1 2.1 1.8-.9.7 2.2-1.2 2.3 2.3-.3L129 56l-1.2 2.6 1.7 1.3-1.3 2.1-2.2.6.3 1.9-3.9.5-.2 2.1 4.6-.9 3.9 1.1 3.2-.9.5 2-3.1 1.1 2 1.2-2.4 2.1-1.6.2.1 1.1-1.4.9-1.9.7 2 1-2.1 1.2h-2.1l.4 2.4 3.1-.1 1.9 1.8-2 2.8 5-1.4 1.6 1.2 2.9-.7 1 1.7-3.2 1.9-.2 2.1-3.3 1-1.4 2.3 3.6-.6v2.1l.7 1.7-4.5 1.6 1.4 1.3 2.9-.8-.8 2.5-5 1.2 1.7 1.6 5.2-1.1 1 2.3-1.9 1.4 5.5-.6-.1 2.4-5.3-.1-.9 1.6-3.1.3 2.3 2.7-3.9.3 3.7 2.1-1.1 1-4.5.5.9 3.8-3.9.8-1.4 3.1-2.6-.5-.1 1.4-4.1-1.3v2.1l-1.7.5-1.6-1.2-.8 2.9-2.6.5-2.7-.8-3.9 2.7-5.7-1.3-3.8-.8-3.2 1.7-4 .5-3.3-.5-1.4 1.2-3.4-.2-2.9.6-4-.9-1.8-.4z"/></svg>