<svg xmlns="http://www.w3.org/2000/svg" viewBox="0 0 150 150"><path fill="#73bf44" d="M110.5 84.5a14.5 14.5 0 0 1-5.9.5 22.6 22.6 0 0 1-2.7-.4L97.7 83c-.6-.2-.7-.3-.7-1 .1.2 0 .4.2.6v-.5c.1 0 0 .3.3.3l-.2-.7.3.6v-.6l.2.3v-.3a2 2 0 0 0 .1.2l.1.1c0-.6.5-.3.7-.5h-4a3.8 3.8 0 0 1-1.5-.4.3.3 0 0 1-.2-.2l-.2-1c.1.3.1.7.4 1.1A11.5 11.5 0 0 0 93 80c.2.2.1.5.3.7 0-.3-.1-.5 0-.8l.2.8a.7.7 0 0 0 0-.4l.1-.2.2.1c.1.1 0 .3.2.4v-.6l.2.5c0-.9.5-.3.9-.5a4.4 4.4 0 0 0-.5-.1l-2.1-.2c-.5 0-.6-.2-.5-.7l.1.2c.1-.3.4-.1.6-.2a.5.5 0 0 0-.4-.1l-2.8-.4c-.2 0-.5-.1-.4-.4 0-1-.2-.9-1-1.1h-.3c-.3-.2-.3-.4-.3-.6.2.2.2.2.3-.1-.4-.1-.4-.1-.8-.6a.6.6 0 0 0-.1-.1.9.9 0 0 1-.6-1.1c.1.2 0 .5.3.8l-.1-1c.2.3.1.6.3 1 0-.4-.2-.7 0-.8.3-.1.3.3.4.4 0-.6 0-.6-.5-.7a21.4 21.4 0 0 1-2.6-.6s-.3 0-.2-.1V72c.1.4 0 .8.2 1 .2-.2.6-.4.3-.9.2.3.1.6.3.6.3 0 .1-.3.1-.4v-.1c.2.5.5.1.7.1 0 0 .1-.2.3 0v.2c-.1 0-.1.1 0 .2l1-1.2c0 .6-.6.9-.7 1.4a.6.6 0 0 0 .3-.2l1.4-1.7c.1 0 .1-.2.3-.1.1 0 0 .2 0 .2L86.5 73s-.2.1 0 .3l1.8-2.2h.1c-.4 1-1.2 1.6-1.7 2.4v.1l1.5-1.7c0 .8-.8 1.1-1 1.8.4-.1.4-.5.7-.6 0 .4-.3.6-.4 1 .3 0 .4-.5.7-.3 0 .2-.3.3-.2.5.3-.3.7-.3.7-.8l-.2 1.2a12.7 12.7 0 0 1 0 1.4c0 .2 0 .4.2.4.3 0 .5 0 .6-.3a.3.3 0 0 1 .2-.2.8.8 0 0 0 .7-.6l.1.3c.2 0 .5 0 .4-.3.1 0 0 .2.2.3 0 0 0-.3.2-.3 0 .2 0 .5.2.4h.5c.1 0 .3-.2.3.1 0 .1 0 .1 0 0 .2 0 .4 0 .5-.2v.5c.2 0 0-.3.3-.2 0 .1-.1.3.1.3.1 0 .2.2.1.3 0 .2-.2.4.2.3h.1c0 .3.1.2.2.2.4 0 .6-.2.8-.5 0 .3-.3.4-.3.8.4-.2.4-.6.7-.8l-.2.8c.3 0 .2-.4.4-.4.2.2 0 .4 0 .6.3 0 .2-.5.5-.3.2 0-.1.3 0 .5.1 0 .2-.4.4-.1.1.1-.2.3 0 .4a2.5 2.5 0 0 1 .2-.2.2.2 0 0 1 .3 0V78.6c.2-.3.7 0 .6-.5.1.2 0 .4 0 .4.4.1.6-.2.7-.5 0 .3-.2.5-.1.8.3-.2.3-.6.5-.8 0 .3-.3.6 0 .9.1-.2 0-.5.3-.7l-.1.3-.2 1.3c0 .1 0 .4.3.2a2.4 2.4 0 0 1 1.4-.5h.2c0-.3.3-.2.3-.2.3.3.6.2.6-.2l.1.2c.2 0 .1-.3.2-.4l.1.4c.3-.4.1-.8.3-1.2v1c.7-.1.4-.7.6-1.1v.7l.1.2.1-.2a3.1 3.1 0 0 1 0-.9c.2.5 0 .9.2 1.2.2-.1.1-.3.1-.5V78c.1.4 0 .7.2 1 .2-.2 0-.5.1-.7 0 .2 0 .4.2.5v-1.5a9 9 0 0 0 .2 1.5v-1.3a7.6 7.6 0 0 1 .2.9c0 .2.1.1.2.2.2.1.2 0 .3-.1.2-.2 0-.4.1-.6 0 .1 0 .3.2.4 0-.2.2-.2.2-.3 0-.2.1.1.2 0l.2-.1.2-.1c.1 0 .3 0 .4-.2a7.8 7.8 0 0 1 .8-.6l.5-.4a13.5 13.5 0 0 0 1.3-1.2c.2-.1.1-.2 0-.3-.2-.2-.3-.4.2-.6h-1l-.3-.1c0-.2.2-.4.4-.3l.2-.1a20 20 0 0 1 1.7-2.1.4.4 0 0 0 .1-.3c0-.2.2-.3.3-.4l.3-.3a4.7 4.7 0 0 0 .5-1.6c0-.5 0-.6-.5-.5a14.8 14.8 0 0 1-6.5.8 12.3 12.3 0 0 1-1.6-.1 17.9 17.9 0 0 0-2-.5 12.3 12.3 0 0 0-2-.5c-.1 0-.4 0-.4-.3 0-.2-.1-.2-.2-.2-.5 0-.6-.3-.6-.7l.2-.8.3 1.2a3 3 0 0 1 .2-1.4 2.7 2.7 0 0 0 .4 1.2 3.9 3.9 0 0 1 0-.8c.3 0 .3.2.4.3.2-.2 0-.5.2-.6.2 0 .1.3.3.4.2-.2-.1-.4.1-.6.2 0 .2.3.4.2 0-.1-.1-.3 0-.4.2-.3.2.2.3 0v-.3c.2-.2.2.1.4.1 0-.1-.1-.2 0-.4.6 0 0-.4.2-.5.2 0 .1.3.3.2 0-.4-.4-.7-.4-1.2l.6 1c0-.6-.5-1-.6-1.6l.8 1.2-1.2-2.3h.1l1.2 2h.1c-.3-.7-.8-1.3-1-2V62l1.2 1.9v-.1l-1-1.9h.2l1 1.6h.1l-1-1.6.2-.1.9 1.4-.7-1.4.9 1-.7-1.2c.2 0 .6.2.6-.3l-2.1.6c-.6.2-.6.1-.6-.5 0 .2.2.3.3.4a5.5 5.5 0 0 0 0-1.1l.5 1a11.7 11.7 0 0 0-.3-2.3l.6 1.8a4.8 4.8 0 0 0-.1-1.3 6.5 6.5 0 0 1 .5 1c.1-.4-.3-.7 0-1.1.1.2.1.6.4.9 0-.5-.4-.9-.3-1.4l.4 1 .1-.1-.5-1.6.6 1.4-.3-1.5.5 1.2a7 7 0 0 0-.4-1.4c0-.3-.2-.5-.5-.5a.2.2 0 0 1-.2-.2c0-.3-.2-.2-.4 0a3.2 3.2 0 0 1-1.7.4c-.1 0-.4.2-.5 0 0-.3 0-.4.3-.6h-.8c0-.2.2-.2.3-.3l-1.7-.4a.6.6 0 0 1-.6-.4 2 2 0 0 0-.3-.8c-.2-.3-.5 0-.8 0-.1 0-.4 0-.4-.2 0-.3-.2-.7 0-1.1.2.3 0 .7.2 1 .3-.3 0-.6 0-1 .3.3.2.7.4 1 0-.2-.1-.3 0-.4.2 0 .1.2.3.2v-.6l.3.7c0-.3-.2-.6 0-.7.2 0 .1.3.2.3 0-.2.1-.3.4-.1.1.1.3.1.4-.2a1.3 1.3 0 0 1 .2-.6 9.4 9.4 0 0 1 .8-.6c.2-.2.1-.5.5-.5v-.3h.1a.8.8 0 0 0 .5-.2c.2-.1.2-.4.3-.6.3-.4.9-.7 1-1.4l.1.2v-.8l.3.8a4.5 4.5 0 0 1 0-.6c0-.2-.3-.4.1-.5.3 0 .4-.1.6.2 0-.3 0-.4-.2-.4-.4 0-.6-.2-.4-.6a2.6 2.6 0 0 0 0-1.1c0-.3 0-.4-.4-.3a10 10 0 0 1-5 0l-1.3-.4a16.7 16.7 0 0 1-1.7-.5c-.4-.1-.6-.4-1-.4a14.3 14.3 0 0 1-2.3-1l-.8-.5c-1.1-.5-2.1-1.2-3.2-1.8-.1 0-.3-.2-.1-.2.2-.1.2-.4.4-.3.2 0 .2-.2.2-.3v-.4c.4 0 .5-.1.4-.4 0-.1 0 0 0 0 .1-.1.3-.1.4-.4 0 .4.5.5.7.6.3.2.4.4.2.6a7 7 0 0 0-.5.8c0 .1-.2.2 0 .3a.3.3 0 0 0 .3 0 1 1 0 0 1 .7-.2 2.7 2.7 0 0 0 1.3-.1 1.5 1.5 0 0 1 .6 0c.3 0 .7 0 .9-.2.2-.4.7-.1 1-.4l.1.2-.1 1-.2 1.6c0 .2 0 .4.2.3.1 0 .4-.2.4-.4.1-.5.6-.4.8-.5.4-.3.5-.2.5-.6V43a8.8 8.8 0 0 0 .1 1.1c.2-.4.1-.7.2-1l.1.6c.3-.3 0-.6.2-1 0 .4 0 .7.2 1v-.9l.1.6a3.2 3.2 0 0 0 1.2-.9v1a.1.1 0 0 0 .1.1l.2-.1c0-.4.4-.8.2-1.3a.2.2 0 0 1 0-.3v.9s0 .2.2.2l.1-.2v-1.2c.2.3 0 .7.2 1 .2-.5 0-1 .1-1.6.2.5 0 1 .2 1.4h.2l-.1-2c.2.5 0 1.1.3 1.6v-2.2l.4 2.2h.1l-.4-4.1.6 3.5h.2l-.6-4.3.8 4.3h.1l-.4-3.3.5 2.8h.2l-.2-1.5a2.2 2.2 0 0 0 .8 1.7c0-.2.2-.4.1-.6v-1c.1.2.1.4.3.5v-.6c0 .1 0 .3.2.3.3 0-.2-.5.3-.3v-.6s.1.3.2.2c.2-.1 0-.3 0-.5.1 0 .2.3.3 0a1.4 1.4 0 0 0-.1-.4c.1 0 0 .2.3.2l-.2-.6c.2 0 .1.2.3.2l-.2-.7c.2.2.2.4.4.4 0-.3-.3-.5-.4-.8.2.1.2.4.5.4 0-.2-.4-.4-.2-.5.2-.3-.2-.4-.2-.5V35.9a.9.9 0 0 0-.3 0 9.2 9.2 0 0 1-5.5.5 8 8 0 0 1-2.8-1 .5.5 0 0 0-.3 0 3.2 3.2 0 0 1-1.2-.5s-.1-.1 0-.1c.3 0 0-.3 0-.4a6.8 6.8 0 0 1 0-.9c0 .3 0 .6.3.8l-.3-1.4c.2.3.2.7.5 1l-.3-1.5c.2.4.2.8.5 1.2l-.5-2.2.7 2h.2l-.9-2.6h.1l.9 2.2h.1l-.8-2.3 1 2v-.1l-.7-1.9.8 1.5-.5-1.4a7.3 7.3 0 0 0 .7 1l-.3-.7c.2 0 .2.3.4.4l-.5-1c.1 0 .1.2.2.1 0-.3-.2-.3-.5-.3a7.4 7.4 0 0 1-2.2.2c-.3 0-.4-.1-.4-.4l.2-1c0-.4 0-.5-.4-.4a1 1 0 0 1-.7 0s-.2 0-.1-.2c.2-.4 0-.9.4-1.3a.8.8 0 0 0 0-.9v-.1c.2 0 .1.2.3.2-.1-.3-.2-.5.3-.6-.3-.1-.6 0-.6-.4 0-.5-.1-.5-.6-.5a2.5 2.5 0 0 1-1.6 0 .3.3 0 0 1-.2-.5c0-.3.2.2.2 0 0 0 .2 0 .2-.2 0-.4.3-.7.3-1.1v-1.7a9 9 0 0 0 .2 2v-3a17.6 17.6 0 0 0 .3 2.4 24.6 24.6 0 0 0 0-2.7 20 20 0 0 0 .3 2.1c0-.6.7-1 .4-1.6.5.3.5 1 .9 1.4a3.9 3.9 0 0 0 0-1c0-.4-.2-.8-.4-1.2.3.2.3.6.6.7l-.5-1.1.6.7a13 13 0 0 1-.6-1.5c.2.3.3.6.6.8L88 18l.6.8c-.1-.3-.4-.6-.4-.9a2.3 2.3 0 0 1 0-.9l-.4.1a3.4 3.4 0 0 1-2 0 .7.7 0 0 0-.2 0 1.3 1.3 0 0 1-1-.3.4.4 0 0 0-.3-.1 1.1 1.1 0 0 1-.9-.4l-.3-.1a1 1 0 0 1-.7-.4 7 7 0 0 0-1.5-.8c-.6-.3-.7-.7-.9-1.1l.1-.4c.4.1.3-.2.4-.3l.2-.6c.2.2 0 .4.2.7l.5-2-.2 1.8h.1l.4-1.6c0 .4-.2.8 0 1.2a14 14 0 0 0 .3-1.8v1.4l.2-1.6a21.4 21.4 0 0 1 .2 3.5 9.1 9.1 0 0 0 0 1.2v.2l.2-.1c0-.5.3-1 .2-1.5.1.1 0 .3.2.3l.1-.3v-1a4.7 4.7 0 0 0 .2 1h.1l-.1-2.3.2 1a2 2 0 0 0 .2 1 8 8 0 0 0-.1-1.6c.2.4 0 .7.3 1v-.6c.1 0 .2.3.3 0v-.3s0 .2.2.2c-.2-.4 0-.7 0-1a5.6 5.6 0 0 0-.4-2.6l-.4-.2a5.4 5.4 0 0 1-2.7-.9 2.5 2.5 0 0 1-1.2-2.2v-.9a2.9 2.9 0 0 0 .8 1.1l-.1-.4-1-2A1.6 1.6 0 0 1 79 3a15 15 0 0 0-.8-3 2.2 2.2 0 0 0-.5 0 .6.6 0 0 1-.3.3l-.8.4a5.6 5.6 0 0 0-.9 1.5c-.2.5 0 1-.7 1.1l-.1.2a6.1 6.1 0 0 0-.5.9c-.1.2-.1.5-.5.4-.2 0-.2 0-.3.2a5.7 5.7 0 0 0-.9 2.4 3.4 3.4 0 0 0 0 .7v.2l.3-.1c0 .3-.3.5-.2.7l.2-.2c0 .3-.2.5 0 1l.6-1.9c0 .5-.2 1-.3 1.4a.6.6 0 0 1-.6.6 1.5 1.5 0 0 0-.8.1.5.5 0 0 1-.4.1c-.5-.1-1 0-1.6 0-.7-.2-.8-.1-1 .6l-.1.3a7.8 7.8 0 0 0-.2 2.8c0 .3.2 0 .2 0v.3c.2 0 .1-.2.3-.2-.1.5-.1.5-.6.4l-.1.1-.5 1.3.6-.6a9 9 0 0 0-.6 1.2l.8-1.1-1 1.6c.4 0 .4-.3.6-.4-.2.3-.5.6-.4 1l1-1.6-1 2h.1l.8-1.3h.1l-.8 2.2h.2l.8-1.8a8.2 8.2 0 0 1-.5 2.1.3.3 0 0 1-.1.2l-2.2.8a11.4 11.4 0 0 1-1.7.2 3.1 3.1 0 0 1-1.3 0c-.7 0-1.3-.3-2-.5.7.3.2.5 0 .8l-.2.5c.2 0 .3-.2.5-.3a7.4 7.4 0 0 0-.5.9c.6-.3.6-1 1.1-1.4-.3.8-.7 1.3-1 1.9.5-.3.6-.8 1-1.2a13.2 13.2 0 0 1-1 1.8c.5-.2.5-.7.8-.9l-.6 1.4c.4-.3.4-.8.8-1 0 .6-.5 1-.6 1.6.3-.2.4-.6.6-1 .4.7-.3 1.1-.2 1.7.3-.3.3-.7.5-1 0 .2-.1.4 0 .8l.6-2-.5 2.3c0 .2-.2.2-.4.2a6 6 0 0 1-2-.5c-.3 0-.5 0-.6.3a4.7 4.7 0 0 0-.3 1c0 .4.2.7 0 1 .2 0 .2-.4.4-.3.2.1 0 .3.1.5a5.6 5.6 0 0 1 0 .8c0 .2.1.3.3.4l.1-.3.2-.4-.2 1 .7-1.4-.6 1.8h.2l.9-2.2-.8 2.6h.1l1-2.7-.7 2.7c0 .2-.2.4 0 .6l-.1.3c-.3 0-.5 0-.3.4v.1c-.3.6 0 1 .1 1.6h.1c.3-.2.2 0 .2.1a10.6 10.6 0 0 0 .6 2c.1.3 0 .4-.2.5a12 12 0 0 0-1.8.5 6.1 6.1 0 0 1-2 .2 7.8 7.8 0 0 1-3.3-.4c-.2 0-.4-.2-.4.1a3.8 3.8 0 0 0 0 1.8 21 21 0 0 0 1.2 2.3 2 2 0 0 0 .8 1c.2 0 .2 0 .3-.2l.3-1.1a10.2 10.2 0 0 0-.2 1.5l.4-1a13.1 13.1 0 0 0-.2 1.5c.3-.3.2-.7.3-1 0 .4-.2.7 0 1 .2 0 .1-.2.2-.3v.4c.2 0 .2-.2.3-.3-.1.3 0 .6.2.7 0 0 .2.1.1.3h-.3l-1.7-1c-.1 0-.2-.2-.4-.1.3.4-.2.6-.3 1l.7-.6-.7.7.1.1.8-.7-.9 1h.1l.8-.7-.9 1 1.3-1-1.2 1.4c.2 0 .3-.2.5-.1a2.2 2.2 0 0 1-.3.3c-.2.2.1.1 0 .3-.1.5-.1.5-.7.4h-.4a1.4 1.4 0 0 0 .6.2c.3 0 .5.2.3.5a.5.5 0 0 0-.2.3l.3-.1c0 .1-.2.2-.1.3.1 0 0-.1.2 0 0 0-.2.1 0 .3.2.1.2 0 .4 0a.6.6 0 0 1-.6.5l-1.5.1a5.6 5.6 0 0 1-3.3-.5c-.2-.2-.5-.4-.8-.1v-.3c-.3 0-.3.6-.7.2a1 1 0 0 0 0 .2 3 3 0 0 1-.3.4c-.2.2 0 .5-.1.8.3 0 .2.1.1.2 0 .2-.1.2 0 .2.2 0 .2.1.1.2 0 0-.2.1 0 .2 0 .1.1-.2.2 0 .1 0 0 .2 0 .2 0 .1-.1.2 0 .2s.2-.2.4-.1l-.2.4s-.1.1 0 .2l.3-.3-.2 1a.8.8 0 0 0 .2-.2s.1-.2.2 0c.2 0 0 .1 0 .2v.3l.7-1a5.4 5.4 0 0 1-.4 1.3l.5-.7c.2.4-.1.8-.1 1.2.1-.5.7-.7.7-1.3a.6.6 0 0 1 .2-.4 9 9 0 0 1-.5 2v.1l.6-1.2a10.6 10.6 0 0 1-.2 1.7l.6-.7a4.4 4.4 0 0 0 0 1.2 1.3 1.3 0 0 0 .3-.6l.6-2.4c0-.1 0-.3.2-.2l.1.2a1.9 1.9 0 0 1 0 .2l-.5 2.9v.3c.2 0 .2-.2.2-.3l.3-1.6a5.4 5.4 0 0 1 .3-1.3c.2.2.1.4.1.5l-.2 2.4.1.4.4-2.8h.1l-.1 3.3h.2c.2-1 0-2.2.2-3v2.9l.1.2a5.2 5.2 0 0 0-.5 1.7L54 53c0 .5-.4.9-.4 1.4.3 0 .2-.3.4-.4 0 .2-.2.4-.1.6.2 0 .1-.2.3-.3a.5.5 0 0 0 .3.7c.2.1 0-.3.2-.3v.4c0 .1 0 .3.2.3s.2-.2.2-.3a4.4 4.4 0 0 1 0-1c.2.4 0 .9.2 1.4l.1-.7a3.5 3.5 0 0 1 0 .7.3.3 0 0 0 .3.3c.2 0 .2-.2.2-.3v-.7L56 56c.2-.3 0-.6.2-1l.1 1 .2-.1v-.1c0 .5.5.6.8.8 0 0 .3 0 .2.2l-.2.1-1 .5-1.5.4a9.5 9.5 0 0 1-2 .7 3.8 3.8 0 0 0-1.1.5h-.3a12.6 12.6 0 0 1-3 .7 6.7 6.7 0 0 1-1.3.1 16.4 16.4 0 0 1-3.3-.4c-.3 0-.5 0-.5.3a3.5 3.5 0 0 0 .6 1.8 9.5 9.5 0 0 0 1.3 2.3c.4.4.6 1 1 1.3.1 0 .2 0 .1.1-.2.3 0 .5 0 .8a4.3 4.3 0 0 0 .3 1.2c-.3.1-.7-.2-1 0-.2.2-.5.4-.4.8l.3-.3a1.1 1.1 0 0 0 .2.8.6.6 0 0 1 0 .5.4.4 0 0 0 0 .4l.4-1.3h.1a10.3 10.3 0 0 0-.2 1.6c.2 0 .2-.3.2-.4 0 0 0-.2.2-.2v.8c.1-.1 0-.4.2-.5.2.2 0 .4 0 .6.2-.1.2-.3.4-.3v.5a12 12 0 0 1 .5-1.5l-.2 1.7.4-1.2v1.4a10.5 10.5 0 0 1 .3-1 7.7 7.7 0 0 0 0 1c.3 0 .1-.3.2-.4a1.3 1.3 0 0 1 .3.8 2.8 2.8 0 0 0 .2-.3.1.1 0 0 1 .2 0c0 .1-.1.6.3.3 0 .2.3.3.5.3.2.2.2.6.6.6.2 0 .3.1.5.3 0 .1.1.2.4.3.2 0 .3.3.4.5l-.4.3a2.4 2.4 0 0 0-1 .2 9 9 0 0 1-1.7.5 9.2 9.2 0 0 1-3.7-.2h-.3a1.1 1.1 0 0 0-.3 1 1.6 1.6 0 0 0 .4 1c.4.1.2.2 0 .3.2.1.4 0 .4.3a.2.2 0 0 1-.1.2c-.4.3-.4.3-.3.7.1-.1 0-.3.3-.4v.6c.1-.2 0-.5.3-.8a4.4 4.4 0 0 0 0 1c.2-.4 0-.7.3-1a2.1 2.1 0 0 0 0 1.1c.2-.2 0-.5.2-.7a.8.8 0 0 0 .6 1c.4.2.4.2.4-.3.2.2 0 .4.1.5 0 .3.4 0 .3.3.3-.1.5 0 .7.1.2.1.3.2.4 0 0 0 0 .2.2.3l.1-1v.9a.1.1 0 0 0 .2.1v-.7a3 3 0 0 1 .1.6l.1.3c.2 0 .2-.2.2-.2.1.1 0 .3.2.4.2-.2 0-.5 0-.8l.3.9c.2-.2 0-.5.2-.7l.1.7c.2.1.5.1.7.4h.1c.1-.2.2 0 .3 0 0 .3.4.2.5.4l-.2.2a10.7 10.7 0 0 1-2.7.8 13.4 13.4 0 0 1-2.2.4 11.2 11.2 0 0 1-3.7-.7.5.5 0 0 0-.7.2c-.1.3-.2.7-.7.8.2 0 .4 0 .4.3s.2-.2.2 0v.6c.1-.1 0-.4.3-.5 0 .3-.2.6 0 1 .2.2.7.4.8.8.4-.2.3.2.4.3a13.6 13.6 0 0 1 .7-2 1.6 1.6 0 0 1 0 .2 7 7 0 0 1-.5 1.5l.1.6c.2 0 .3 0 .3.2 0 .4.4.2.5.5.2 0 0-.3.2-.4v.7l.4-.7c0 .4-.5.9 0 1.2.2 0 .1-.4.3-.4.2 0 .2 0 .2-.2l.1-1c.2.6 0 1.1 0 1.7a3 3 0 0 0 .3-1c.3.4 0 .8.1 1.3.3-1 .3-1.9.5-2.8v2.8h.1l.1-1.2.2.4v-1.2 2.4h.2l.1-2.2h.2v2.4h.1l.1-2.2a8.8 8.8 0 0 1 .1 2l.2.2v-1.6a5.3 5.3 0 0 1 .2 1.7c0 .1 0 .3.2.3s0-.2 0-.3v-1.5c.3.6 0 1.3.3 2h.1v-1.4c.2.6.1 1.1.2 1.7h.2v-1.7a11 11 0 0 0 .2 1.9 5.5 5.5 0 0 0 .1-1.3c0-.2-.1-.6.1-.6s.4.3.6.4v.1a1.3 1.3 0 0 0 .6.6c.2.1.5.3.5.5.1.3.3.2.5.3.2-.2.3.5.6 0 0 0 .1.1.1 0v-.5c.1.3 0 .6.3.9v-1l.1 1.3c.2-.1.1-.3.1-.4 0 .4.2.6.7.5a.8.8 0 0 1 .3.2c.4.1.5.5.9.7 0 0 0 .2.1.1l.1-.2a3.8 3.8 0 0 0 0-.4l-.2-2.3c.2.2.1.5.4.7l-.3-1.3c.3.4.3.9.6 1.3h.1l-.6-2.1 1 2.4h.1l-.7-2.3a20.5 20.5 0 0 1 .9 2.2c0 .2 0 .5-.2.5-.4 0-.6.4-.9.5a.3.3 0 0 1 .4.2c.1-.1 0-.3.3-.3v.3c.4 0 0 .4.1.5.2 0-.1.5.3.3V90.8c-.2 0 0-.2-.2-.2 0 .2-.1.3.1.4.4.2.8.1 1.1.4 0 0 .1-.2.2 0l-.2.1a.5.5 0 0 0-.4.2 1.3 1.3 0 0 1-.6.4 34.4 34.4 0 0 1-5.4 2 5.2 5.2 0 0 0-.7.2 21.2 21.2 0 0 1-2.7 1h-.2c-.5 0-1-.3-1.4 0h-.2c0-.2 0-.2-.1 0s-.3.2-.5.2a13.3 13.3 0 0 1-4.4-.3c-.5-.2-1-.8-1.7-.3-.2-.2-.2 0-.2.1l.2.3c.2 0 .2.2.1.3-.1.6.2 1 .5 1.4.1.2.3-.1.3 0 0 .5.4.7.5 1 .3.4.4 1 .9 1.3 0 0-.1.5.2.2v.1a.6.6 0 0 0 .4.6c.3 0 .3.1.2.3v.1c.1 0 .1-.2.3-.2-.2.5.2.1.2.1v.5c.2 0 .1-.2.3-.2 0 .2-.2.4 0 .7l.4-1c.1.3-.2.6-.1.9h.1l.2-.6v1a1.8 1.8 0 0 0 .4-1 10.6 10.6 0 0 1 0 1.3c.2 0 .1-.3.3-.3.2 0 0 .2.1.3.2.1.4 0 .6.3v-.2a2.4 2.4 0 0 0 .1-.2c0-.2.1-.2.3-.2.1 0 0 .2 0 .2l.1.6c.3-.2 0-.5.3-.6.2.2 0 .6.2.8.3 0 0-.4.3-.4.1 0 0 .2.2.3.2 0 0-.2.2-.2l.1.2c0 .1 0 .2.2.3l.1-.3c.3.4.3.5.5.3 0 .3.4.6.6.6.4 0 .1-.4.3-.5a.5.5 0 0 1 .2.3.1.1 0 0 0 .1.1 1.4 1.4 0 0 1 1 .5l.2.2c.2 0 .2-.2.1-.3V102c0 .2 0 .4.2.4v-1.1a10.1 10.1 0 0 1 .5 1.2 5.1 5.1 0 0 0 0-1.6l.4 1.4h.2l-.2-.9c.4.2.3.7.6 1 .2-.3-.1-.6.1-.8l.2.7s0 .2.2.2v-.3l-.2-1.1.4 1.1c0 .1 0 .2.2.2v-.3l-.3-1h.1v.3c.3.4.2 1 .9 1 .1 0 .1.3.3.3 0 0 .1.2.2 0 .1 0 0 0 0-.2l-.4-1.6v-.3a.2.2 0 0 1 .3 0 1.3 1.3 0 0 0 1.1.2 3.7 3.7 0 0 1 1 0c.1 0 .2.2.3 0a.3.3 0 0 0 0-.2c-.1-.6 0-1.2-.2-1.8l.4.7-.1-.8c.2.2.1.5.4.7v-.6c.2.2.1.5.3.6.1-.3-.1-.5 0-.8.2.2.1.6.4.8 0-.4-.2-.6-.1-1 .2.3.2.7.5 1l-.2-1.1c.2.3.2.7.4.9.1-.2 0-.3 0-.4v-.3a.4.4 0 0 1 .1.3c0 .4.4.3.6.5v-.1c.2-.3.4-.2.6-.1.2 0 .5-.2.7.1.2-.3.4-.3.7-.1a2.3 2.3 0 0 0-.3-1s-.2-.3 0-.4a2.3 2.3 0 0 1 .7-.5.5.5 0 0 1 .5.2c.1-.3 0-.5 0-.8.1 0 0 .3.3.3l-.2-1 .4 1v-.6c.1.2 0 .4.3.4 0-.1-.1-.3 0-.4l.3.4c0-.1-.1-.2 0-.4v.2a.5.5 0 0 1 .7-.3c0-.2.1-.2.2-.1.2 0 .3 0 .2-.2l.1-.1a.8.8 0 0 0 .8-.2c.2-.2.5 0 .7.2a4.2 4.2 0 0 1 .6 1c0 .1 0 .3.2.3s0-.2.1-.4a5 5 0 0 1 0-1h.2c.2 0 0-.1.1-.2a9.4 9.4 0 0 1 1.2 1.1l.1-.1a1 1 0 0 0 0-.2c0-.6 0-.7.6-1 .2-.2.2 0 .2 0 .4-.4.9.1 1.3-.3a3.1 3.1 0 0 1 .6-.2c.3 0 .3-.4.4-.7v.7l.4-.9a1.6 1.6 0 0 1-.5 1.4l-3.7 3.4a12 12 0 0 1-2.4 1.8 17 17 0 0 1-2.5 1l-.7.2c.3 0 .2.4.4.4.4.2.2.4 0 .5a8.3 8.3 0 0 1-3 1.7l-2.6 1a6 6 0 0 1-2.7.4 11.7 11.7 0 0 1-2-.4c-.2 0-.4 0-.5.2-.3.6-.4.6-1 .5l-.5-.1c-.8-.2-.8-.1-.7.7l.1.3a4.1 4.1 0 0 0 .4 1c.1.2.1.3-.2.3a2.2 2.2 0 0 1-1.3-.1l-2-.8c.3.2 0 .3 0 .5l.3-.2s-.2.1 0 .3c0 0 0-.2.2-.2 0 .1-.2.2-.1.4.1 0 .2-.3.4-.3-.1.3-.5.5-.5.8l.6-.7-.6 1q.5-.4.9-1v.1l-.9 1.2 1.2-1-1 1.3c.3-.1.4-.4.7-.6-.1.4-.4.6-.6 1.1.4-.4.6-.8 1-1l-.7 1.2c.4-.3.6-.8 1-1l-.9 1.3c.3-.1.4-.5.7-.7l-.5 1 .8-.9-.6 1.2.7-.9c0 .4-.4.7-.5 1.1l.6-.7c0 .5-.4.8-.5 1.2.4-.2.4-.6.7-.8 0 .4-.4.7-.3 1l.7-1.2a12.8 12.8 0 0 1-.5 1.5l.6-1c0 .5-.3.9-.3 1.5a1.9 1.9 0 0 0 .4-.7s0-.2.1-.1c.2 0 0 .1 0 .2 0 .2-.2.4-.1.8.3-.3.2-.7.5-.9.1.4-.2.8-.2 1.3.3-.3.2-.6.5-.8v.9c.2 0 0-.3.2-.3.3.2 0 .5.3.9l.5-2.3a13 13 0 0 1-.1 2.1h.1l.4-2a23.3 23.3 0 0 1 0 2.4l.4-2v2.1l.3-1.9v2.2a12 12 0 0 0 .3-1.4v1.8c.3-.3.1-.6.2-1l.1 1.1c.2-.1 0-.3.2-.5a4.8 4.8 0 0 0 0 .5c0 .2.1.5.3.5.3 0 .2-.3.2-.5l.2-2.8v.6c.3-.2.1-.4.3-.7v.9c.3-.1.2-.3.3-.5a.6.6 0 0 0 .3.6 1 1 0 0 0 .5.6c.2.1.2.2 0 .4a.7.7 0 0 0 .2.9c.1.1 0 .5.4.4-.1.3.1.4.2.6l.2-.5v.7c.3-.4.3-.9.5-1.2l-.4 1.5c.2 0 .1-.3.3-.3-.1.4-.1.8.4.8.1 0 0 .1 0 .2v.2c.3-.1.2-.4.4-.6 0 .4-.2.6-.1 1l.4-1a10.4 10.4 0 0 0-.2 1.2c.3-.3.2-.7.5-1 0 .4-.3.7-.2 1.2.3-.3.2-.7.4-1v1.2c.2-.2 0-.6.3-.8.2.4 0 .7 0 1 .3-.1.1-.4.4-.6.1.3-.1.6 0 .8.2 0 .1-.3.3-.3l.1.3c0 .2.1.3.2.3.2 0 .1-.2.1-.3V118h.1l.1 1.4h.1c.1-.5 0-1 .2-1.6a9 9 0 0 0 .2 1.8c.2-.5 0-1 0-1.7a8.6 8.6 0 0 0 .3 1.7c.2-.5 0-1 0-1.4l.3 1.8h.1v-.4l.4.3c0 .5.5.3.6.6a4 4 0 0 0 0-.7l-.2-1.5c0-.1 0-.3.2-.3l1.2.1c.1 0 .4 0 .5.2.1.5.5.8.5 1.3 0 0 0 .2.2.1v-1.4c0-.2 0-.3.2-.4a6.2 6.2 0 0 1 1.3-.2c.2 0 .6-.2.8.1.2-.3.4.2.6 0 .1.2.3 0 .5 0 .2.1.4.4.5 0a1.3 1.3 0 0 0 .8.2c.3 0 .5-.2.4-.6a1.5 1.5 0 0 0 .5.2c0-.2-.1-.2-.2-.3l-1-.9c-.2-.3-.2-.4.2-.8 0 0 0-.2 0 0 .2.2.3 0 .3-.1a2.6 2.6 0 0 0 .6-.9c.1-.2.2-.6.5-.6a1.5 1.5 0 0 1 1 0 2.4 2.4 0 0 0 1.6.1c.4 0 .4 0 .4.4v5.8l-.2 9.9c-.1 3 0 6.2-.3 9.3l-.4 5.1-.4 4.9c0 .3.1.5.5.5h5.3c.3 0 .5-.1.4-.5l-.1-2.3-.4-4.7-.3-5.7-.1-7.2-.2-11.4-.1-7.4V105c.1.2 0 .4.2.5.2 0 .2-.3.3-.4 0 .4.3.4.5.5.2.1 0-.1.2-.2 0 .3 0 .3.2.3.1-.1 0 .3.2.1 0 0 .2 0 .2-.2a3 3 0 0 1 0-.3c0 .2 0 .5.2.6v-.3l.3.1c0 .3.5.3.3.7l-.2.5c-.2.2-.1.4.2.4a1.8 1.8 0 0 1 .7.1c.5.3.6 0 .7-.4 0 .3-.2.4-.1.7.3-.1.3-.4.5-.6 0 .2-.2.3 0 .5 0 0 .1-.3.2-.2.1.3.4.4.6.6.2.4.3.1.3 0 .2 0 .3.3.5.2.1 0 .2.2.3 0 0 .3.3.5.2.9a5.3 5.3 0 0 0 0 .9v.2a.1.1 0 0 0 .2-.1c.1-.6.6-.8.8-1.2h.3a.9.9 0 0 0 .8.6l.9.2c.3 0 .5.4 1 .3.1.4.4.4.7.4.1 0 .3.3.5.2h.1c-.1.5.2.5.4.6.4 0 .5.3.4.7l-.3.4a.2.2 0 0 0 0 .2h.2c.2-.3.4 0 .5 0 .1.1.2.1.2 0 .4-.4.8 0 1.2 0a1.4 1.4 0 0 1 .9.3l.3-.1c0-.2.3 0 .3 0 .3.4.4.3.6-.1v.3l.2-.2.2-.5a1.1 1.1 0 0 1-.1.5v.2c.4 0 .2.3.2.4 0 .3-.1.5 0 .8a1 1 0 0 0 .5-.8v.5c.2-.2.1-.5.3-.7.2.1 0 .4.1.6.2-.3.1-.6.3-.7l.1.6c.2 0 0-.4.3-.5l.1.6.2-.8a1.4 1.4 0 0 0 0 .6l1.2-.8V115.4a.2.2 0 0 0 .3-.1c.1-.4.5-.4.8-.7.3-.2.9-.3.6-1 .2.2 0 .5.3.6v-.8c.1.2 0 .5.2.7v-.6c.1.1 0 .3.2.4.2-.2 0-.3.1-.5l.1.3c.2 0 .1-.2.1-.3v-.8.8c.1 0 .2.2.2 0s.3 0 .3 0a.3.3 0 0 0 .4-.1c0-.3.4-.3.5-.6.4 0 .5-.4.7-.5a5.8 5.8 0 0 0 1.2-1.4c.1-.3.5-.5.6-.9 0 .1 0 .3.2.2v-.5l.1.2c.1 0 .1-.2 0-.2v-.5a1 1 0 0 0 .6.6 2 2 0 0 1 .3-1c.2-.4.7-.9.4-1.4l.3.4c0-.3-.2-.5-.1-.7.1.1.1.4.3.4 0-.2-.2-.3 0-.5 0 0 0 .2.2.2l-.1-.5c.1 0 0 .2.2.2 0-.3.5-.6.1-1l.2.1a.5.5 0 0 0 0-.6 4.7 4.7 0 0 0-.7-1l-.3.2-1.3.4a7 7 0 0 1-2.2.3c-.6 0-.6 0-.8-.5l-.2.1a1 1 0 0 1-1.2.5l-2.8-.6a7.7 7.7 0 0 1-2.4-.6c-.1 0-.4 0-.5-.3a1.1 1.1 0 0 1 0-.6l.3.6v-.5c.2 0 .1.3.3.3 0-.5 0-1-.2-1.4.3.3.2.8.5 1.2l-.2-1.3h.1l.1.3c.5-.4.1-.8 0-1.2.2 0 .2.2.4.3-.1-.2 0-.5-.4-.4-.1 0-.3 0-.3-.2 0-.3.1 0 .2 0a.3.3 0 0 0 0-.2c-.1-.1 0-.2 0-.2.3 0 .2-.1 0-.2a.3.3 0 0 1 0-.4l.2.2c-.1-.3 0-.6.1-1l.1.5c.2 0 0-.2.2-.3l.1.2c.1 0 .2 0 .2-.2l.2-.6c0 .3-.2.6 0 .9a3.5 3.5 0 0 0 .2-.9c.2.3 0 .7 0 1 .3-.2.2-.4.4-.6l-.2 1.6c0 .2-.1.4.1.5.2 0 .2-.2.4-.3l.7-.6c.4 0 .5-.2.5-.5a.4.4 0 0 0 .5.1c.5-.2.3-.8.4-1.2l.1.9c.2-.3 0-.6.1-.8v.4a.2.2 0 0 0 .3.2c.2 0 .1-.1.1-.2 0-.3.1-.1.2-.1 0 0 .1.1.2 0a11 11 0 0 1 .9-.9l1-1.5a3.5 3.5 0 0 0 .8-1.7c0-.4 0-.5-.5-.5l-1.2.1c-.3 0-.4 0-.4-.3.1-.1.1.1.2 0l-.4-1.1.6 1-.4-1c.3.2.4.5.6.8 0-.3-.3-.6-.2-.9l.3.6c0-.3-.4-.8.3-.8a.4.4 0 0 0 0-.1l-1 .1c-.2 0-.4 0-.4-.3l-.1-.2v-.1l-.2-.2.3.1c0-.3-.2-.6.2-.9a1.4 1.4 0 0 0-.6.2 7.8 7.8 0 0 1-2.8.8l-.4-.1V92c.2 0 .2 0 .3-.2 0 .2.2.4.3.3a.8.8 0 0 1 .7-.5v-.1l1-.7c.2-.1.6-.2.7-.7v.4c.3-.1.2-.5.5-.6.1.3-.2.5 0 .7.2-.1.2-.3.2-.5 0-.1 0-.3.3-.3 0 .3-.2.5 0 .8.1-.3 0-.6.4-.7 0 .2-.1.4 0 .8a2.3 2.3 0 0 1 .5-1.1 4.5 4.5 0 0 0 0 1l.2-.5v-.2c.2 0 .2.2.2.2v.5l.2-.6c.2.2 0 .5.2.9l.2-1.3v.8c0 .2 0 .4.2.4.3 0 .2.1.2.3v.6c0 .1 0 .3.2.3.1 0 .3 0 .3-.2.3-.4.5-.7 1-.6h.1c0-.4.3-.3.4-.3.5 0 .7-.4 1-.5.3 0 .3-.2.3-.5a2 2 0 0 1 0-.4c0 .2 0 .5.2.6.2-.1 0-.3 0-.4.2.1 0 .3.3.4.1-.1 0-.3 0-.4.1.1.1.1.4 0 .3 0 .6 0 .8-.3.4-.6 1.1-.9 1.5-1.5a22.5 22.5 0 0 0 1.6-1.9 1 1 0 0 0 .3-.9c-.1 0 0-.1 0-.2V84.6c0-.2-.3-.1-.4 0ZM100 69.2l2.5.6c.2 0 .3.5.2.7h-.2a8.8 8.8 0 0 1-2.5-1.2Zm-4.3-.9c.2.2 0 .6.3.7v-.5c.3 0 .2.3.3.5 0-.3 0-.3.3-.2l1.4.5s.3.1.2.3c0 .2-.2.3-.4.3a6 6 0 0 1-1.9-.7.7.7 0 0 1-.2-.9Zm-1.9-15.2c.3 0 .3-.2.5-.2a8.4 8.4 0 0 0 1.1-.4c.1 0 .2 0 .2.2l.1 1.5a.1.1 0 0 1-.1.2.7.7 0 0 1-.8-.5c0-.3-.2-.3-.4-.3h-1.6c.3-.3.6-.6 1-.5Zm-2-1.4c0 .5-.2.9-.1 1.4.3-.5.3-1.1.6-1.5a12.5 12.5 0 0 0-.2 1.5c.3-.4.3-.9.5-1.3 0 .5-.2 1-.3 1.4 0 .3-.2.4-.4.4a3.5 3.5 0 0 1-1.2-.4c1 0 .8-.9 1.2-1.5Zm-4.6-.3a.6.6 0 0 1 .5.2c.2.2.5 0 .7 0a.4.4 0 0 1 .3 0c.1.1.2.2.3.1.2-.1.1 0 .2.1a1.4 1.4 0 0 1 0 .2c0 .2-.3.5-.1.6.2 0 .2-.2.4-.3 0 0 .2-.2.3 0h.2c.2-.2.4-.3.5 0 .2.2 0 .5-.1.7 0 .2-.2.1-.3 0l-2.8-.8h-.1c-.2-.6-.6-.6-1.1-.8.4-.2.7 0 1 0ZM92.3 36l1.9.6c.3 0 .3.2.2.4 0 .3-.3.1-.4.1a6.2 6.2 0 0 1-1.7-1Zm-3.2-1h.1c.3 0 .2.3.4.4.1 0 .3-.3.5-.1a2 2 0 0 0 .6.2c.2 0 .3.2.2.4l-.2.5c-.2.5-.5.5-.8.1l-1-1.3c0-.2.1-.2.2-.3Zm-35 17.3a.2.2 0 0 1 0-.1Zm2.6-1.4a8.1 8.1 0 0 1-.8 0c-.3 0-.5-.2-.7-.3-.1.1 0 .3-.2.4a.6.6 0 0 1-.5 0v-1.5a3.7 3.7 0 0 0 1.1.7c.4.2.7.5 1.2.4.3.3.5.2.7 0-.2.3-.5.2-.8.3Zm-7 31.2c-.3.1-.3 0-.4-.1 0-.4 0-.6.5-.8.6-.1 1.1-.4 1.7-.6a4.5 4.5 0 0 1-1.9 1.5Zm2.6-9.4c-.2 0-.2-.1-.2-.2.2-.6.2-1.3.3-2l.1 1.5h.2c0-1.1-.4-2.3 0-3.5a5 5 0 0 1 0 1c0 .4.3.7.3 1l.2 1.2a1.2 1.2 0 0 1-1 1Zm1.5-.9a.5.5 0 0 1-.3.2l-.1-.2c0-.7-.4-1.5 0-2.2a7 7 0 0 0 .4 1.9v.3Zm-.9-12c-.3-1-.3-1 .6-1.2a4.5 4.5 0 0 1 .7-.2 8.9 8.9 0 0 1-1.3 1.4Zm3-1.2c-.2.2-.3.2-.4 0-.3-.6-.2-.6.3-.8l1.3-.5-1.2 1.3ZM70.4 38h.7c.2.1.4.2.3-.2 0-.1 0-.2.2-.2l1-.2.1.1-1.7 1-.8.5c-.2.1-.3 0-.3-.1v-.4c0-.3 0-.6.5-.5Zm-6.2-14.8V23l.1-.5v2c0 .1-.1.3-.3.3-.2 0-.2-.2-.2-.4l.1-.7c0-.2 0-.2.3-.4Zm-1.2 1 1-3-.4 3a1 1 0 0 1 0 .3c-.2.2-.3.1-.5.1s-.1-.2-.1-.3Zm-3.8 62a.1.1 0 0 1-.2 0c0-.2.1-.1.2-.1v-.3l-.3-1.5c.5.4.3 1 .7 1.5v-.6l-.2-.6v-.2l.2.1.3 1a.8.8 0 0 0 .2.4c0-.7-.4-1.3-.3-2l.7 2 .2-.1-.7-2 1 2h.1l-.7-2c.5.7.6 1.5 1 2.1a10 10 0 0 1-2.2.4Zm2-43.4c-.2 0-.1-.1-.2-.2 0-.2.1-.3.3-.3h1.5a3.9 3.9 0 0 1-1.6.5ZM65.4 84l-1.8.2-.3-.1.1-.2.6-.5c.1-.3-.2-.5-.2-.8.7.5 1.5.7 2.1 1.3l-.5.1Zm-.7-42.3a2.4 2.4 0 0 1-.6.2 17 17 0 0 1-2.8.4c-.3 0-.6-.2-.9 0-.1 0-.2 0-.2-.2l-.3-.6c-.1.7-.1.7-.8.7-.3 0-.5-.2-.5-.6l.2-2.2a2 2 0 0 1 0-.2c.1.3 0 .6.2 1 .2-.4 0-.7.1-1 .1.4 0 .9.2 1.4a1.5 1.5 0 0 0 .1-.9v-.9l.3 1.8V39a10.5 10.5 0 0 0 .4 1.8 2 2 0 0 0 0-1c.3.5.1 1 .4 1.3.1-.3 0-.6 0-.8a1.8 1.8 0 0 1 .1.5c0 .3.3.3.5.5.1 0 .3 0 .4.2 0 .2.2.2.3.4.2-.7-.3-1.3.2-2 0 .1 0 .3.2.4.1-.1 0-.3 0-.4.2.1.1.4.3.5.2 0 0-.1.2-.2.1.1 0 .4.3.4l-.1-.6c.1.2.2.5.5.4.5-.1.7.3 1.2.3 0 0 .1.2.2 0v-.2c0-.1-.2-.3 0-.4a.5.5 0 0 1 .6 0h.2c.5-.4.9.2 1.3.1.4 0 .3 0 .2-.3a7.7 7.7 0 0 1-.3-.8c.6.4 1.4 0 1.9.8l-.2-1.5.4.5h.1c0-.2 0-.5.2-.5l.3.4c.3.5.3.6-.3.8l-4.5 2.1ZM68.5 61c-.3-.5-.3-.6.3-.8l.7-.4h.2a16.1 16.1 0 0 1-1.2 1.2Zm.8-1.7-2.2 1c-.3.2-.4.2-.5-.1l-.2-.4c.2 0 .3.3.5 0l.5.1c0-.7 0-.7.7-.9a.3.3 0 0 0 .1-.1c.1-.1.3-.2.4 0l.1.2c.2 0 0-.2.1-.3.1.2 0 .4.2.4.2-.1 0-.3 0-.4 0-.4.2-.6.5-.6a.4.4 0 0 0 .4-.1c.1-.2.2-.4.5-.2.3-.5.7-.4 1-.6l.4.1c0 .1 0 .2-.2.3a13.2 13.2 0 0 1-2.3 1.6Zm2.9-1.2a1 1 0 0 1 .1.6c.3-.2.2-.6.3-.7a.8.8 0 0 1 .1 1.4l-.3.3h-.5c-.7-1.1-.8-.8.3-1.6ZM72 45.7l.1.1.8 1.2c0 .1.2.2 0 .3l-.2-.1a5.3 5.3 0 0 1-.8-1.1v-.4ZM71.3 96l1-1s.1-.1.2 0a.2.2 0 0 1 0 .3l-.8 1c-.2.1-.3.3-.2.4a.5.5 0 0 0 .5.1h.5c.2.2.3.4 0 .5-.1 0-.2.1-.2.3a.3.3 0 0 1-.6.2 1.3 1.3 0 0 1-.6-1.3.6.6 0 0 1 .2-.5Zm-1.6 1.3 1-.7a15 15 0 0 1-.2 2.2h-.1l-.8-1.2.1-.3Zm3.4 11.5v4.2l-.4-.2a8.3 8.3 0 0 1-2.1-2.7c-.4-.9-1-1.7-1.3-2.6a.3.3 0 0 1 0-.1l1.4 2.3h.1l-1.1-2.5c.5.8.8 1.7 1.4 2.4-.1-.7-.6-1.3-.8-2l.8 1.5a2 2 0 0 0 .2.2c0 .1 0 .3.2.2v-.4s0 .4.3.1h.1c0 .2.1.4.3.3a.4.4 0 0 0 0-.5l-.1-.5h.9c.2 0 .1.2.1.3Zm0-70a.3.3 0 0 0-.3.2v1c0 .6-.2.8-.8.9-.2 0-.3-.1-.3-.2l-.7-1.2c-.1-.2 0-.3 0-.4l2-1.1h.3c.2.6.3.6-.3.8Zm2.3-3.5a.6.6 0 0 1-.3.6l-1.4 1c-.1 0-.2.2-.4 0a.3.3 0 0 1 0-.4c0-.2.2-.2.4-.2.1 0 .2.3.4 0 .2-.2 0-.3 0-.5l-.2-.4c.2 0 .3.2.3.2.3-.1.5 0 .8 0 .2 0 0-.2 0-.3v-.5a.1.1 0 0 1 .2 0c.2.1.2.3.2.5Zm8.1-12.6a3.3 3.3 0 0 0 1.7-2 9 9 0 0 0 .3-1l.1 4c0 .3 0 .5-.4.4l-.8-.2c-.5-.1-.5-.2-.2-.7l-.6-.1s-.2 0-.3-.2a.3.3 0 0 1 .2-.2Zm-1.6-1c.3 0 .3-.2.4-.4l.4-.9-.4 1.5 1-.5a6.5 6.5 0 0 1-.3 1.3.2.2 0 0 1-.3.2 8.2 8.2 0 0 1-.9-.3c-.1 0-.4 0-.4-.3a.5.5 0 0 1 .5-.6Zm-3 10.8v.4c.2-.2 0-.6.3-.7v.5l.1-.7c.3.2.2.4.3.6v-.2l.1-.3c.2 0 .1.2.2.3 0-.2 0-.2.3-.1.2-.6.6-.2.8-.2.4 0 .5.3.4.8l-.7 2.5c0 .3-.2.4-.5.2a8.6 8.6 0 0 1-2.8-2 .7.7 0 0 1-.3-.5l.1-2h.1v2.3h.1l.1-1.3v1.3h.2l.1-1.4c.2.4 0 .8.2 1.2a8.7 8.7 0 0 0 .1-1.2l.2 1.2v-.9c.3.3 0 .5.3.7Zm0 16.6-.7 1.3-.3.2-.1-.3c-.1-.9.3-1.4 1.2-1.2Zm-1.7-22c.3 0 .5-.4.8 0l.2-.1.2.2a1 1 0 0 1-.8.4c-.2 0-.3-.1-.5-.3v-.2Zm.5 3.3c.3 0 .5-.2.6-.1.2.2 0 .3-.2.5 0 .2-.2.2-.4.1-.3-.1-.7-.1-.8-.6a1 1 0 0 0 .8.1Zm-.2 53.3s-.1.2-.2.1c-.3-.3-.6-.5-.5-1v.3l.2-.5v.4l.1-.5.1.5v-.6c.2.1 0 .3.2.4v-.5l.1.4.1-.3c.1-.1 0 .2.1 0 .2-.2.1.2.2 0h.3l.2.2c.3.2 0 .3 0 .4l-.9.7Zm1.7 1.4c0 .8 0 .8-.7.4-.3-.1-.6-.2-.5-.6l.1.3V85c0-.1 0-.3.2-.3l.2.2a.5.5 0 0 1 .6-.3c.2 0 .1.3.1.4ZM79.1 65a2.5 2.5 0 0 0 .2-.8v.4l.1.2.1-.2v-.4c.2.1 0 .2.2.3v-.3h.2c.2.3.3 0 .5 0l-.5-.2a13.7 13.7 0 0 1-2.9-1.3 3.9 3.9 0 0 1-.4-.3.5.5 0 0 1 0-1 3 3 0 0 0 1.4 1 1 1 0 0 1 .4.1c.4.4.9.3 1.3.4a.7.7 0 0 1 .5.3c.2-.2 0-.4.2-.6.1.3 0 .6 0 .8.2-.2.2-.4.3-.7v1c.2-.2.1-.5.2-.7v.6a2 2 0 0 0 .2-1 3.4 3.4 0 0 1-.6 2.6.3.3 0 0 1-.5.2l-.9-.4Zm1.8 21.5c0 .2-.2.2-.3 0a2.7 2.7 0 0 1-.9-1.7.4.4 0 0 1 .6-.4 5.3 5.3 0 0 1 1 .7v.4c0 .4-.2.7-.4 1Zm3.3 7.9a.2.2 0 0 1-.3 0 10.8 10.8 0 0 1-2.6-1.5c.2.2.5-.3.7.1h.2c0-.1 0-.3.2-.2.3 0 0 .2.1.3.2 0 .2-.3.4-.2.3.2-.1.3 0 .5.2 0 .2-.3.4-.2.2.1 0 .3 0 .5a.6.6 0 0 1 .9.3.3.3 0 0 1 0 .4Zm5.4 4a11.4 11.4 0 0 1-3-.9l-.2-.1.2-.2a8.3 8.3 0 0 0 1-.5.7.7 0 0 1 1 .3v.1c.1.2.2.4.4.4l.2-.4.3-.8-.2 1.2c.3-.3.3-.8.6-1.1 0 .7-.8 1.3-.3 2Zm7 6.7c.4 0 .2.4.2.6 0 .2-.2 0-.4 0a4.1 4.1 0 0 1-1.2-1l1.4.4Zm-2.8-.6a1.8 1.8 0 0 1-.3.9.1.1 0 0 1-.2 0l-.8-.7c0-.2-.1-.4.1-.5.3 0 .1.2.3.3 0-.1 0-.5.3-.1.3 0 .6-.1.6.1Zm0-5.2c.2.4.1.5-.3.6a7.2 7.2 0 0 1-1.4.2c-.6 0-.7-.2-.5-.8.2.1 0 .4.2.6v-.2c0-.1 0-.4.2-.4l.1.4c.1-.5.1-.5-.3-.7.2 0 .2-.2.3-.3 0 .2 0 .5.3.1.2.4.3-.1.4 0 .3.2.3-.2.4-.3v.5c.3-.3.3-.7.6-1 0 .4-.3.7-.3 1.2.3-.2.3-.5.4-.8v.5a.7.7 0 0 0 0 .4Zm5.3-15c0 .2-.2.3-.4.2a2 2 0 0 1-1-.3.5.5 0 0 1-.1-.6c.1-.2.3 0 .5 0l.8.3c.2 0 .2.2.2.4Zm3.3 1.8-.5-.2c-.2-.2-.6-.3-.5-.7V85a2.1 2.1 0 0 1-1.2-.8l2 .7c.3 0 .3.3.3.6l-.1.5Z"/><path fill="#73bf44" d="m99.6 92.1.2.1v.3l-.1-.1v-.1ZM111 84.6c0 .1.2.2 0 .3v-.1ZM111 85V85v.1ZM111 84.8v.1Z"/></svg>