<svg xmlns="http://www.w3.org/2000/svg" viewBox="0 0 150 150"><path fill="#73bf44" d="M73.6 94.4a5.8 5.8 0 0 0 1.8-3.3c0-.6-.5 0-1.3.7a4.6 4.6 0 0 1-1 .6 58 58 0 0 0 .5 2Z"/><path fill="#73bf44" d="M77.5 87.7c-.3-1.4-.8.4-1 1a19.6 19.6 0 0 1-.7 3.8 5.4 5.4 0 0 1-2 2.7l1.8 7c.7 3.3 1 6.4 1.3 7.3.2.9.6-1.6.6-2.4l.8-6.3c.2-1.1.5-5.5.8-6.8a3.6 3.6 0 0 0-.4-3 12.3 12.3 0 0 1-1.2-3.3Z"/><path fill="#73bf44" d="m104.4 57.3.1-.4a11.7 11.7 0 0 0-1.6-.5 4.5 4.5 0 0 1-1.9-.7 36.2 36.2 0 0 0-4.3-1.9 6.5 6.5 0 0 0-4-.7 11.9 11.9 0 0 0-4.3 1.3c-1.1.4-.8-1.2-.6-2.1l.4-2.7-2.1-.2-1 6-1.5 11c-.3 2-.8 2.5-1.2.6a58 58 0 0 1-.7-3.6l-1.2.4s.4 3.7.9 5.5a26.4 26.4 0 0 1 1 6.9c0 2.3-1 7.5-1.4 10-.3 2.7-.8 4.2-1 3.8a31 31 0 0 1-1.7-4.1c-.5-1.3-1.3-.7-2 .3-.5.9-.9 3.7-3.3 5.4-.4-2.4-1-5.6-1.2-8.3-.4-3.6-1.3-8.5-1.6-11-.3-2.5-.4-4.3-.9-7.2l-1.1-7.5a51.5 51.5 0 0 0-.9-5.3l-3.2.2 1.3 7.8 1.2 8.3c.3 2 .4 3.7-.1 3.1a13 13 0 0 0-7.4-3.6v1.6a8.6 8.6 0 0 1 4.2 1.6 29 29 0 0 1 2.9 3.1 2.8 2.8 0 0 1 1 2c.3 1.1.6 6.5.9 8.5l.8 7.4c.3 2 1.4 7.7 2.1 10.7.7 2.9 1.2 8.8 1.6 10.4.4 1.7 1.5 5.7 1.8 7.9a720 720 0 0 1 2 16.9l.5 11.8h7.4l-.9-11.5c-.4-6.1-1.4-13-1.4-19a133.6 133.6 0 0 1 1-17.2l.5-5.7c0-1.4.8-1 1.4-2.3.6-1.2 2.2-2.6 3.3-2.3a6.2 6.2 0 0 1 2.3.8 6.3 6.3 0 0 1 1.8 2.4c.4 1.1.4 2 1.3 2.5a24.7 24.7 0 0 0 2.3 1.2 1.9 1.9 0 0 1 .8 1.3c.1.6 0 2.9 1 4l.5-.3a4 4 0 0 1-.9-2.4c-.1-1.6-.1-2 .6-1.8l3.2 1.2.1-.5-3-1.1a24 24 0 0 1-2.6-1.4c-.8-.4-1.8-.7-2-1.6a7.8 7.8 0 0 0-1.7-3.3 9 9 0 0 0-3.4-2 3.6 3.6 0 0 0-2.5.7 17.3 17.3 0 0 0-1.7 1.7c-.2.2-1 1.3-.8 0 .2-1.3.7-2.7.8-4l.4-4.3c.2-1 .2-1.3.6-1.7A4.8 4.8 0 0 0 87 82a10 10 0 0 1 4.5-2.8l5.2-1.4c1.1-.3 2-.4 1.9 0 0 .4-.5 1.5.4 1.8a22.7 22.7 0 0 1 2.6.6l.4-.5a4.6 4.6 0 0 0-1.4-.6c-1.1-.2-1.5-.4-1.3-.9.2-.5.4-.7 1.2-.8l3.2-.6-.1-.8-4 .6c-1.5.1-3.4.2-5.1.6a19.2 19.2 0 0 0-5 1.4 22.6 22.6 0 0 0-2.7 1.8c-.8.6-1.7 1.6-1.7 1.2l.6-4.6a28.9 28.9 0 0 1 .4-4 10.3 10.3 0 0 1 2.6-2.6 6.8 6.8 0 0 1 4.3-.6 4 4 0 0 1 2.4 2.4c.4 1 .7 3.5 3 3.7s3.2-.8 5.7 0l.1-.5a5.7 5.7 0 0 0-2.2-.3 17.5 17.5 0 0 1-3.1.2c-.7 0-1.3-.5-1.4-1-.2-.4.6-.1 1.4 0a5.7 5.7 0 0 0 2.4.3 6.2 6.2 0 0 1 2.8 0l.2-.5s-.3-.2-2 0a7.2 7.2 0 0 1-3.3-.3A3.2 3.2 0 0 1 97 72c-.5-.9-1.4-2.8-2.5-3.3-1-.6-2.7-.7-5-.2-2.4.5-3.5 2.1-3.3 1.1l.5-5.2c0-1.5.6-6.2.8-7.6.2-1.4 1.5-1.4 2.4-2a6.4 6.4 0 0 1 6.1-.5c2.9 1.3 5 1.4 5.7 2.5.8 1 .7 2.4 2 2.9l.3-.5a3 3 0 0 1-1.3-1.5c-.4-1 .7-.8 1.8-.4ZM74.1 91.8c.8-.7 1.3-1.3 1.3-.7a5.8 5.8 0 0 1-1.8 3.3 47 47 0 0 1-.4-2 4.6 4.6 0 0 0 .9-.6Zm5 2.2c-.3 1.3-.6 5.7-.8 6.8l-.8 6.3c0 .8-.4 3.3-.6 2.4-.2-.9-.6-4-1.3-7.3l-1.8-7a5.4 5.4 0 0 0 2-2.7 19.6 19.6 0 0 0 .8-3.7c.1-.7.6-2.5 1-1a12.3 12.3 0 0 0 1 3.3 3.6 3.6 0 0 1 .5 2.9ZM93.8 46a1.9 1.9 0 0 1 0-.2 7.4 7.4 0 0 1 0-1 4.5 4.5 0 0 1-.7 1 5.4 5.4 0 0 1 .7.3ZM92.7 46.3l.4.2h.2a5.2 5.2 0 0 1-.3-.6l-.1.2a1.7 1.7 0 0 1-.2.2ZM105.4 71.5l.1-.4-.3.2.2.2ZM95.3 44.2V44a2.7 2.7 0 0 0-.4 0h.4ZM91.8 43.3l.4-1a2.9 2.9 0 0 1 .2 1.2l.3-.6a7.2 7.2 0 0 1 .4 1.7l.3-.2-.3-.4a3 3 0 0 1 .8.2h.1l-.3-.4a6.7 6.7 0 0 1 1 .2l.3-.3a3.2 3.2 0 0 1 0-.7l-.6.9a3 3 0 0 1-.1-1.2l-.3.6s-.7-2.5.3-3.6l-.1-.1a5.7 5.7 0 0 1-.5.8 4.7 4.7 0 0 1-.2-.7v-.1h-.3v-.1a1.6 1.6 0 0 1 0-.2l-.1.7a2.3 2.3 0 0 1-.2-.2 5.7 5.7 0 0 0-.1.9 4.2 4.2 0 0 1-.3-.4 3.3 3.3 0 0 1-.5.8s0-.1 0-.2a5.4 5.4 0 0 1-.8.7l.6.2a5.6 5.6 0 0 1-.6.5 2.4 2.4 0 0 0 .7 0s0 .1-.3.3a3 3 0 0 1 .2.7ZM91.5 40.7a2.8 2.8 0 0 0 .4 0v-.3a3.3 3.3 0 0 1-.4.3ZM94.1 44.3V44v.1ZM91 39.6v.1a3.2 3.2 0 0 1 .4 0v-.3l-.3.2ZM107.5 93.9ZM107.1 93.8ZM87.3 64.9v.1-.1ZM105.8 71.7h-.2l.1.2v-.2Z"/><path fill="#73bf44" d="m103.7 73-.1.2V73ZM104.2 72.5l-.2.1h.3l-.1-.1ZM107.4 93.7ZM124.7 87.1ZM83.4 76.2h-.2l-.4.3a2.7 2.7 0 0 1 .4.4l.2.2a5.2 5.2 0 0 1 0-.9ZM85.4 64.4v.3a2.2 2.2 0 0 1 .3-.5l-.3.2ZM82 66a6 6 0 0 1-.4-.5 5.1 5.1 0 0 1-.3.6 1.2 1.2 0 0 0 .1 0l.5-.2ZM98.9 72.3a8.8 8.8 0 0 1-.5 2 8.5 8.5 0 0 1 2.3 0 8 8 0 0 1-1.1 1 4.5 4.5 0 0 1 1.2 1.7 6.8 6.8 0 0 1-.9-.2 5.2 5.2 0 0 1 .4.8h.2a3.5 3.5 0 0 1-.1.3v.1h.4a5.3 5.3 0 0 1 .6-.3 1.1 1.1 0 0 1 .2-.1 3.8 3.8 0 0 1-.5-.5 3.4 3.4 0 0 1 .7 0 2.1 2.1 0 0 1-.4-.5s.2 0 .5 0h.2a1.1 1.1 0 0 1-.1-.3c-.8 0-1.6-1.3-1.6-1.3a4.8 4.8 0 0 1 1.2.4 5 5 0 0 1 0-1.2s0 0 .3.3a2 2 0 0 1 0-.8l.4.6a2.1 2.1 0 0 1 0-.6l.6.7a.8.8 0 0 1 0 .2 1.6 1.6 0 0 1 0-.5l-.1-.2a1 1 0 0 0 .2 0 1.8 1.8 0 0 1 0-.1l.1.1h.2a2.5 2.5 0 0 1-.3-.4v-.1.5a6.6 6.6 0 0 1-1-1.3 6.5 6.5 0 0 1-1.1 1.4 6 6 0 0 1 0-1.2 3.4 3.4 0 0 1-1.6-.1 5 5 0 0 1 .5-.4 3.7 3.7 0 0 1-.6-.2v.1a2.4 2.4 0 0 1-.2-.2 1.3 1.3 0 0 0-.4-.1s.1 0 .3-.2v-.2h-.3a3.4 3.4 0 0 1-.3 1.3l.6-.5ZM74 93.2ZM124.6 49.5ZM62.3 75.6a2.7 2.7 0 0 1-.3-.2 3.6 3.6 0 0 1 .3.4v-.2ZM79.9 64.9l-.1.1v.1h.2l-.1-.2ZM80.5 65.8a4.2 4.2 0 0 1 0-.6 5.1 5.1 0 0 1-.3.5 2 2 0 0 1 .2 0ZM70.8 62.6a2.4 2.4 0 0 1 0-.3l-.2.3h.2ZM57 86.9ZM80.6 64.8h-.3v.2h.3v-.2ZM69.3 80.6H69l.1.2.2-.2ZM88.6 92.8l-.1.1a2.4 2.4 0 0 1 .3 0l-.2-.1Z"/><path fill="#73bf44" d="m81.1 74 .9-.8a3.1 3.1 0 0 1-.3 1.2l.5-.4a7.6 7.6 0 0 1-.4 1.8 6.7 6.7 0 0 1 1.5-.1 2 2 0 0 0 0-.3s.1.1.3.3h.1l.2-.1A5.3 5.3 0 0 1 83 74a6.1 6.1 0 0 1 1.9.5 2.3 2.3 0 0 0-.4-.7 7 7 0 0 1 1.5.6l-.1-.7.5.2a3.7 3.7 0 0 1 1 0L86 72.7a8.9 8.9 0 0 1 1.8.2l-.7-.5a4 4 0 0 1 1 0 4.3 4.3 0 0 1 0-1 2 2 0 0 0-.3-.2s.2 0 .3 0l.1-.6a6.8 6.8 0 0 1 .7.7 5 5 0 0 1 .7.1 5.5 5.5 0 0 1-.6-1.4 5.5 5.5 0 0 1 2 1 3.2 3.2 0 0 0 0-1 6.6 6.6 0 0 1 1.3 1.4 6.4 6.4 0 0 1 0-1 6.1 6.1 0 0 1 1.4 1.3l1-.9a7.3 7.3 0 0 1-.2 1.4 4.7 4.7 0 0 1 1.7-1 7 7 0 0 1-.3 1 2 2 0 0 1 .3 0 9.7 9.7 0 0 1 1.4 0l.8-.7a5 5 0 0 1-.8.1 4.6 4.6 0 0 1 1-1.2 3.9 3.9 0 0 1-.5 0l-.1.3a1.9 1.9 0 0 1 0-.2 1.5 1.5 0 0 0-.4 0s.1 0 .2-.2a2.1 2.1 0 0 1 0-.6 1.1 1.1 0 0 1-.2.2l-.6 1a3 3 0 0 1-.1-.8l-.5.8a2.7 2.7 0 0 1-.1-1l-.3.5A6.6 6.6 0 0 1 96 69a6.4 6.4 0 0 1-1.7.6s.9-1.8 2-1.9a1.5 1.5 0 0 1 .1-.3l-.3-.2-.7.2a2.9 2.9 0 0 1 .5-.7 4.6 4.6 0 0 1-1 0 5.2 5.2 0 0 1 .6-.6 1.3 1.3 0 0 1-.2 0 7.2 7.2 0 0 1-1-.5H94l.6.8a6.6 6.6 0 0 1-1.3-.4l.4.4a2.9 2.9 0 0 1-.7-.1 3.2 3.2 0 0 1-.1.6 1.5 1.5 0 0 0 .1.2s0 0-.2 0l-.1.4a5.2 5.2 0 0 1-.4-.6 3.8 3.8 0 0 1-.5-.2 4.1 4.1 0 0 1 .2 1.2 4 4 0 0 1-1.3-1.2 2.4 2.4 0 0 0-.2.8 5 5 0 0 1-.6-1.2 4.9 4.9 0 0 1-.2.7 4.5 4.5 0 0 1-.8-1.2c-.5.3-.6.2-.9.5a5.4 5.4 0 0 1 .4-1 3 3 0 0 1-1 .3 8.3 8.3 0 0 1 .2 1.2 4.5 4.5 0 0 1-1.6-2l-.5.3v.2l-.2-.1a2.8 2.8 0 0 1-.5-.6 5 5 0 0 1-.1 1 5.5 5.5 0 0 1-.6-.7 2 2 0 0 1-.1.2 8 8 0 0 1-.7 1l.1 1a3 3 0 0 1-.8-.9l.1.7a7.1 7.1 0 0 1-.6-.6 2.2 2.2 0 0 1-.3.5l.5-.3a6.8 6.8 0 0 1-.8 1.4 6.5 6.5 0 0 1 1.7.5 6.2 6.2 0 0 1-1.1.4 3.5 3.5 0 0 1 .4 1.6 5.1 5.1 0 0 1-.6-.3 4.1 4.1 0 0 1 0 .7h.3a2.5 2.5 0 0 1-.2.1 1.4 1.4 0 0 0 0 .5s-.1-.1-.3-.3l-.1.1a4 4 0 0 1 .6 1.1 4.7 4.7 0 0 1-1.4-.3 1.8 1.8 0 0 0 .3.5A5.4 5.4 0 0 1 80 72a5.4 5.4 0 0 1 .1.5s-.1 0-.3-.2a2.8 2.8 0 0 1-.8.1l.9.8V73v.1h.1a5.8 5.8 0 0 1-.2.9 2 2 0 0 1 .2 0 8.4 8.4 0 0 1 1.2 0ZM82.5 85a1.5 1.5 0 0 1-.7-.4 1.7 1.7 0 0 1-.4 0l.1.4.7.5a3.3 3.3 0 0 1-1 0 5.1 5.1 0 0 1 .8.9 6 6 0 0 1-1 0 2 2 0 0 1 0 .2 8.5 8.5 0 0 1 .4 1.2l.7.5a5.5 5.5 0 0 1 .7-.4 3.3 3.3 0 0 1-.6-1.4 5 5 0 0 1 .6.2 3.9 3.9 0 0 1 0-.6h-.3a2.4 2.4 0 0 1 .2-.2 1.3 1.3 0 0 0 0-.4s0 0 .2.2l.2-.1a3.5 3.5 0 0 1-.6-.7Z"/><path fill="#73bf44" d="m78.6 73.1.5.4a3.2 3.2 0 0 1-.6 0v.5a3.7 3.7 0 0 1 1-.7 7 7 0 0 1-1-.2ZM72.3 74.3l-.2.1v-.2a5.1 5.1 0 0 1 .2-.6 1.7 1.7 0 0 1-.2 0 7.6 7.6 0 0 1-1.1 0l-.8.7a2.8 2.8 0 0 1 .3-1l-.5.4a6.8 6.8 0 0 1 .4-1.6 6.6 6.6 0 0 1-1.8 0 6 6 0 0 1 1-.7 3.4 3.4 0 0 1-1-1.3 5.2 5.2 0 0 1 .6 0 4 4 0 0 1-.2-.6l-.2.1a2.7 2.7 0 0 1 .1-.2 1.4 1.4 0 0 0-.2-.4s.1 0 .3.1l.2-.1a4 4 0 0 1-1-.8 4.7 4.7 0 0 1 1.5-.2 3.7 3.7 0 0 1-.3-.3l-.3.1.1-.2a1.5 1.5 0 0 0-.2-.2s.1 0 .4 0a2.2 2.2 0 0 1 .4-.5 1 1 0 0 1-.3 0l-1.2.3a3 3 0 0 1 .5-.6l-1 .2a2.8 2.8 0 0 1 .8-.8l-.6.1a6.7 6.7 0 0 1 1.1-1.2 6.5 6.5 0 0 1-1.5-.8s2-.6 2.7.1a1.6 1.6 0 0 1 .4 0v-.4l-.7-.4a3 3 0 0 1 .9 0 4.4 4.4 0 0 1-.5-.6l-.3.3a5.7 5.7 0 0 1 0-1 1.7 1.7 0 0 1-.3.2c-.8.4-.8.2-1.3.5a6.1 6.1 0 0 1 .4-.8 4.2 4.2 0 0 1-1.4 0 5 5 0 0 1 1.1-1 1.9 1.9 0 0 0-.7 0 5.8 5.8 0 0 1 1-.9 5.3 5.3 0 0 1-.5-.2 5.5 5.5 0 0 1 .7-.4 2.5 2.5 0 0 0-.8-.1s.2-.1.4-.3l-.4-.2-.2.3a3.3 3.3 0 0 1-.1-.4l-.3-.2-.3-.1a7.9 7.9 0 0 1-.3 1.9l-.3-.7a3.3 3.3 0 0 1-.2 1.3s-.2-.4-.5-1a2 2 0 0 1-1.6.4 1.4 1.4 0 0 1-.3.2l.3.3h.7a2.8 2.8 0 0 1-.7.5 4.4 4.4 0 0 1 .9.3 5 5 0 0 1-.7.5 1.8 1.8 0 0 1 .1.1 7 7 0 0 1 .8.7l1 .1a2.7 2.7 0 0 1-1 .6h.7a6.5 6.5 0 0 1-1.4.8 6.3 6.3 0 0 1 1.3 1.2 5.7 5.7 0 0 1-1.1 0 2.4 2.4 0 0 1-.6.4h.4a2.7 2.7 0 0 1-.9.5 1.4 1.4 0 0 0 .5 0 5.5 5.5 0 0 1-1 .5 4.6 4.6 0 0 1 .6.6 4.6 4.6 0 0 1-1.4 0 1.8 1.8 0 0 0 .5.5 5.3 5.3 0 0 1-1.3 0l.3.4a4.7 4.7 0 0 1-.6 0l.3.3a3.7 3.7 0 0 1 1.4 0 5.1 5.1 0 0 1-.6.6 1.7 1.7 0 0 1 .2 0 6.8 6.8 0 0 1 .9.6l1-.2a2.7 2.7 0 0 1-.8.8l.6-.2a6.6 6.6 0 0 1-1.1 1.2 6.4 6.4 0 0 1 1.5.8 5.9 5.9 0 0 1-1.1.2 3.4 3.4 0 0 1 0 1.6 5 5 0 0 1-.4-.4 4 4 0 0 1-.1.6h.2a2.6 2.6 0 0 1-.3.2 1.4 1.4 0 0 0 0 .4s0-.1-.2-.3H63a3.5 3.5 0 0 1 .3 1 3.3 3.3 0 0 1 .3.3l1-.8a6.3 6.3 0 0 1-.2 1.2 4.1 4.1 0 0 1 1.4-.9 6 6 0 0 1-.2 1 1.8 1.8 0 0 1 .3 0 8.4 8.4 0 0 1 1.1 0l1-.8a3 3 0 0 1-.3 1.1l.4-.4a7.6 7.6 0 0 1-.3 1.8 5.5 5.5 0 0 1 .5-.1v-.4a5.8 5.8 0 0 1 .6.3 4.4 4.4 0 0 1 0-.7h-.2l.2-.3a1.5 1.5 0 0 0 0-.4s0 0 .2.2h.3a4.6 4.6 0 0 1-.8-1.3 5.3 5.3 0 0 1 1.6.4 2 2 0 0 0-.4-.6 6.1 6.1 0 0 1 1.4.5 6 6 0 0 1-.1-.6s.1 0 .4.2a3.2 3.2 0 0 1 .8-.1l-1.1-1a7.7 7.7 0 0 1 1.6.2l-.4-.3ZM70.8 84.5a3.3 3.3 0 0 1 .6-1 5.3 5.3 0 0 1-1.1.2 6 6 0 0 1 .5-.8 2 2 0 0 1-.2 0l-.5-.2a5.2 5.2 0 0 1-1.6.1 4.2 4.2 0 0 1 .3.4l.3-.1a2.8 2.8 0 0 1-.2.2 1.7 1.7 0 0 0 .3.2s-.1 0-.4 0a2.4 2.4 0 0 1-.5.6 1.3 1.3 0 0 1 .3 0l1.4-.4a3.4 3.4 0 0 1-.6.8l1-.2a3 3 0 0 1-.8.9l.7-.2a7.6 7.6 0 0 1-1.3 1.3 6.2 6.2 0 0 1 1 .5c.3-.6.9-2 1.8-2.1a1.9 1.9 0 0 1 .2-.4l-.4-.2-.8.4ZM72.8 74h.1ZM100.3 78.6l-.1-.2.4.1a1.7 1.7 0 0 1-.4-.3l-.2.2.3.2ZM112.1 98h.2v-.2a1.9 1.9 0 0 1-.2.2ZM67.5 87.1v.3l.3-.2a1.2 1.2 0 0 1-.1-.1 2 2 0 0 1-.2 0ZM112.1 97.3a.8.8 0 0 1 0-.2 1.5 1.5 0 0 1-.3.3v.3a1.1 1.1 0 0 0-.2-.2h-.2l.1-.1a2.7 2.7 0 0 1-.2-.3 3.3 3.3 0 0 1-.2 1 4 4 0 0 1 .8 0l.2-.8ZM87.4 91.9a4.8 4.8 0 0 1-.2.8c.2 0 .3-.2.5-.3a3.3 3.3 0 0 1-.3-.5ZM98.8 91a2.3 2.3 0 0 1 .4 0s0 0 .4-.1a2 2 0 0 1-.7-.4s.2 0 .7 0a2.2 2.2 0 0 1-.5-.3l-.3.2a1.7 1.7 0 0 0 .2-.6 3.8 3.8 0 0 1-.5.4v-.4a4 4 0 0 1-.8.5 1.3 1.3 0 0 0 .2-.5 3.5 3.5 0 0 1-1 .5 3.2 3.2 0 0 1 .2-.7 6.2 6.2 0 0 1-1.8-.2v.4a5.2 5.2 0 0 1-.5-.4v.2a3.8 3.8 0 0 1-.2.4h.2a2.5 2.5 0 0 1-.2.2 1.3 1.3 0 0 0 0 .4s-.1 0-.2-.3l-.2.1a4 4 0 0 1 .3 1.2 4.5 4.5 0 0 1-1.2-.7 1.7 1.7 0 0 0 .2.6 5.3 5.3 0 0 1-1-.7 5.2 5.2 0 0 1-.1.5s-.1 0-.3-.2a2.8 2.8 0 0 1-.7 0l.7 1a6.7 6.7 0 0 1-1.2-.5l.4.5a3 3 0 0 1-.8-.2 3.2 3.2 0 0 1 0 .7 1.3 1.3 0 0 0 0 .2s0 0-.1 0l-.2.3a5 5 0 0 1-.4-.5 3.4 3.4 0 0 1-.4-.3 4 4 0 0 1 0 1 5.7 5.7 0 0 1 .8.3 5.7 5.7 0 0 1-.7.3 4.2 4.2 0 0 1 .6.5l.1-.2a3 3 0 0 1 0 .3 1.5 1.5 0 0 0 .5.2s-.2 0-.4.1v.3a4.6 4.6 0 0 1 1.4.1 5.3 5.3 0 0 1-1.4 1 4 4 0 0 1 .5.1l.2-.2v.3a1.6 1.6 0 0 0 .3 0s-.1.1-.3.3a2.4 2.4 0 0 1-.1.6 1.3 1.3 0 0 1 .1-.1l1-1a3.3 3.3 0 0 1 0 1l.7-.8v.3a1.2 1.2 0 0 1 .3 0l-.1-.3-.5-.3a2.2 2.2 0 0 1 .7 0 3.5 3.5 0 0 1-.5-.6 4 4 0 0 1 .6 0 1.4 1.4 0 0 1 0-.2l-.4-.9a4 4 0 0 1 .8.5 15 15 0 0 0-.2-.5 2.2 2.2 0 0 1 .6.3 3.5 3.5 0 0 1-.1-.7 3.8 3.8 0 0 1 .5.3V94l-.3-.4a2.2 2.2 0 0 1 .6 0 3.5 3.5 0 0 1-.3-.6 4 4 0 0 1 .6.2 1 1 0 0 1 0-.2v-.2l-.4-.2h.4a1.3 1.3 0 0 0 0-.6 4.2 4.2 0 0 1 .4.4h.2a5.6 5.6 0 0 0-.1-.8s.1 0 .3.2a2.1 2.1 0 0 1 .5-.2l-.7-.2s.8-.5 1.2-.2a3.5 3.5 0 0 1 0-.7 3.5 3.5 0 0 1 .8.8 1.3 1.3 0 0 0 0-.5 4 4 0 0 1 .6.8c0-.2 0-.3.2-.4a3.9 3.9 0 0 1 .2.5 1.7 1.7 0 0 0 .1-.5s.1 0 .2.2a2.2 2.2 0 0 1 .5 0l-.6-.4ZM96.9 91.6ZM86.5 91.4a2 2 0 0 1 0 .3v-.2ZM100 80.4h-.2l.2.2v-.2ZM82.8 81.5h.2l.2-.4H83a2.4 2.4 0 0 1-.5.5 1.3 1.3 0 0 1 .3-.1ZM83.8 83.8h-.6a5.3 5.3 0 0 1 .5.2 2 2 0 0 1 .4-.2 1.1 1.1 0 0 1-.3 0ZM99.3 79.6a5 5 0 0 1 .4.4h.2v-.1l.1-.3a4 4 0 0 1-.7 0ZM100.2 79.7ZM100 80v.2-.1ZM57.2 86a4.8 4.8 0 0 1-.7.2l.4.4a2.9 2.9 0 0 1 .3-.5ZM82.6 80.3a4 4 0 0 1 .3.3H83.5l.2-.3a4.3 4.3 0 0 1-1.1 0ZM40.8 81.2ZM91 39.2zM39 52.8ZM101.5 91.5a1 1 0 0 1-.1 0 .8.8 0 0 1 0 .2 1.2 1.2 0 0 1 0 .2l.1-.1v-.3ZM111.7 21.7Z"/><path fill="#73bf44" d="M127.6 63a4.3 4.3 0 0 0-.8-.8 5.5 5.5 0 0 0 .5-.3 7 7 0 0 1-1-.3 2.7 2.7 0 0 0 .3-.2s-.4 0-1-.2a2.4 2.4 0 0 0 .6-.5 5.8 5.8 0 0 0 1 0 6.4 6.4 0 0 0-1.5-1 6.6 6.6 0 0 0 1.2-1s0 0-.5 0a2.7 2.7 0 0 0 .8-.7s-.4 0-1 0a7.4 7.4 0 0 0-.9-.6 1.6 1.6 0 0 0-.2 0 5.1 5.1 0 0 0 .7-.6 4.7 4.7 0 0 0-1-.2 2.9 2.9 0 0 0 .7-.6s-.3 0-.7 0l-.3-.1a1.6 1.6 0 0 0 .2-.3c1.1.1 2.3-1.5 2.3-1.5a6.4 6.4 0 0 0-1.7.3 6.6 6.6 0 0 0 .1-1.6l-.3.4a2.7 2.7 0 0 0 0-1s-.2.3-.6.7a2.9 2.9 0 0 0 0-.7l.5-.2a2.3 2.3 0 0 1-.7-.2 5.2 5.2 0 0 0 .7-.3 5.3 5.3 0 0 0-.5-.3 5.4 5.4 0 0 0 1.1-.6 1.8 1.8 0 0 1-.6-.1 4.7 4.7 0 0 0 1.2-.8 4.5 4.5 0 0 0-1-.2c.5-.6 0-1.7 0-1.7l-.4.9a2.8 2.8 0 0 0-.2-.7l.4-.3a7.3 7.3 0 0 1-1.2 0v-.3a5.8 5.8 0 0 0 .6-.5 1.7 1.7 0 0 1-.6 0v-.5l-.4.4h-.3a1.4 1.4 0 0 0-.2 0 5.2 5.2 0 0 0 .3-.8 4.5 4.5 0 0 0-.9.3 2.9 2.9 0 0 0 .3-.8s-.3.2-.6.4h-.5a5.2 5.2 0 0 0 .5-.8 4.8 4.8 0 0 0-1 .1h.2a3 3 0 0 0 .3-.8s-.2.1-.6.3a5.2 5.2 0 0 0 .8-1l-1.3.2a1.8 1.8 0 0 0-.2.1v-.5a7.7 7.7 0 0 0 1.3-.6s-.1 0-.7-.1a3 3 0 0 0 1-.5s-.4-.1-1-.2a8.3 8.3 0 0 0-.8-1 2 2 0 0 0-.2-.1 6 6 0 0 0 .9-.4 4.3 4.3 0 0 0-1.5-.6 4.8 4.8 0 0 0-.4-.9 6 6 0 0 0 1 0 5.7 5.7 0 0 0-.3-.4 6.1 6.1 0 0 0 1.3-.3 2 2 0 0 1-.6-.3 5.2 5.2 0 0 0 1.6-.5 5.5 5.5 0 0 0-.8-.5 6.3 6.3 0 0 0 1-.7 1.6 1.6 0 0 1-.6 0 3.2 3.2 0 0 0 1-.7s-.3 0-.6 0a3.1 3.1 0 0 0 .7-1s-.2.1-.5.2a3.5 3.5 0 0 0 .4-.5 6.5 6.5 0 0 0 .8-.4 9.8 9.8 0 0 0-1-.3 7.6 7.6 0 0 0 1-1.1s0 0-.6.1a3 3 0 0 0 .8-.8s-.3 0-.9.1a4.4 4.4 0 0 0-.7-.3 1.6 1.6 0 0 0-.3 0 6 6 0 0 0 .5-.8 5.2 5.2 0 0 0-1 .1 3.2 3.2 0 0 0 .5-.8l-.8.3-.4-.2a1.7 1.7 0 0 0 .2-.3 5.4 5.4 0 0 0 1.2-2 9.1 9.1 0 0 0-1 .4 7.5 7.5 0 0 0-.5-1.7s0 0-.2.6a3 3 0 0 0-.3-1.1s-.1.4-.4 1a3.3 3.3 0 0 0-.2-.8l.4-.4a2.6 2.6 0 0 1-.9 0 6 6 0 0 0 .7-.5 6 6 0 0 0-.6-.1 6.1 6.1 0 0 0 1-1 2 2 0 0 1-.7 0 5.2 5.2 0 0 0 1-1.3 4.6 4.6 0 0 0-1.4.2l-.1-.2.4-.2a1.5 1.5 0 0 1-.5-.1 2.9 2.9 0 0 0 0-.3s-.1 0-.2.2a4.6 4.6 0 0 0-.7-.2 5.8 5.8 0 0 0 .6-.5 3.9 3.9 0 0 0-1.8-.2 6.7 6.7 0 0 0 0-1.3 7.3 7.3 0 0 0-1.2 1.5 7.4 7.4 0 0 0-1.1-1.4s0 0 0 .6a3 3 0 0 0-.7-1s0 .5 0 1.2l-.5.6a5.4 5.4 0 0 0-.8-1.3 6 6 0 0 0-.2.5 3.5 3.5 0 0 0-.4 0 2.3 2.3 0 0 0 .5-.5s-.2 0-.6 0l-.2-.1a1.3 1.3 0 0 0 .2-.2c.8 0 1.7-1.3 1.7-1.3a5.1 5.1 0 0 0-1.3.3 5.2 5.2 0 0 0 0-1.3s0 0-.3.4a2.2 2.2 0 0 0 0-.8s-.1.2-.4.5a2 2 0 0 0 0-.2l.3-.1a1 1 0 0 1-.3-.1 2 2 0 0 0 0-.2s0 0-.1.1h-.2l.3-.1.3-.1a3.9 3.9 0 0 0-.3-.3 4.2 4.2 0 0 0 .9-.3 1.4 1.4 0 0 1-.5-.2 3.6 3.6 0 0 0 1-.5 3.4 3.4 0 0 0-.8-.3 4.4 4.4 0 0 0 .3-.4 5.4 5.4 0 0 1-.9.1 2.4 2.4 0 0 0 .2-.2s-.3 0-.8.1a2 2 0 0 0 .3-.4 4.7 4.7 0 0 0 .7-.4 5 5 0 0 0-1.4-.3 5.2 5.2 0 0 0 .5-1.1l-.3.2a2.3 2.3 0 0 0 .2-.7s-.3.2-.7.5a1.2 1.2 0 0 1-.1 0 4.5 4.5 0 0 0 .5-.4 2 2 0 0 1-.6-.1c.3-.5-.1-1.3-.1-1.3l-.3.7a2.3 2.3 0 0 0-.1-.5l.2-.3a1.8 1.8 0 0 1-.6.1 4.1 4.1 0 0 0 .5-.4 3.9 3.9 0 0 0-.6-.1 4.6 4.6 0 0 0 .4-.6 2 2 0 0 1-.6.1 4 4 0 0 0 .4-.3 3.2 3.2 0 0 0-1-.1v-.2h.3a1.1 1.1 0 0 1-.3-.2v-.2h-.1a2.8 2.8 0 0 0-.2 0 2.2 2.2 0 0 0-.5-.7 4.7 4.7 0 0 0 .7-.6 5 5 0 0 0-1.4 0 5.2 5.2 0 0 0 .3-1.2s0 0-.3.3a2.2 2.2 0 0 0 .2-.8s-.2.2-.6.5a5.8 5.8 0 0 0-.8 0 1.3 1.3 0 0 0-.2 0 4 4 0 0 0 .2-.6 4.1 4.1 0 0 0-.5.2l.2-.2a2 2 0 0 1-.6 0c.1-.5-.5-1.2-.5-1.2V6a2.2 2.2 0 0 0-.4-.5l.2-.3a1.8 1.8 0 0 1-.6.2 4.2 4.2 0 0 0 .3-.5 3.7 3.7 0 0 0-.6.1 4.5 4.5 0 0 0 .2-.7 1.4 1.4 0 0 1-.4.3 3.7 3.7 0 0 0 .3-1.1 3.1 3.1 0 0 0-.8.5 1.7 1.7 0 0 0-.1-.2l.1-.2a1 1 0 0 1-.3 0l-.1-.1v.2a2.6 2.6 0 0 0-.3 0 2.2 2.2 0 0 0-.8-.2 4.7 4.7 0 0 0 .3-1 5 5 0 0 0-1.1 1 5.3 5.3 0 0 0-.4-1.2s0 0-.1.4a2.1 2.1 0 0 0-.3-.8s0 .3-.2.8a5.8 5.8 0 0 0-.8.4 4 4 0 0 0-.3-.6 3.6 3.6 0 0 0-.4.7 2.3 2.3 0 0 0-.2-.7s0 .2-.2.5l-.3.2a1.2 1.2 0 0 0 0-.3c.4-.7-.5-2.1-.5-2.1a5 5 0 0 0-.3 1.3 5.2 5.2 0 0 0-1.1-.6l.2.4a2.1 2.1 0 0 0-.7-.4s.1.3.3.7a1.8 1.8 0 0 0-.2-.1v-.3a1 1 0 0 1-.2.2 1.9 1.9 0 0 0-.2 0v.2a4.2 4.2 0 0 0 0-.6 4 4 0 0 0-.3.2 4.2 4.2 0 0 0 0-1 1.4 1.4 0 0 1-.3.4A3.7 3.7 0 0 0 93 0a3.3 3.3 0 0 0-.7.7 4.4 4.4 0 0 0-.2-.5 5.5 5.5 0 0 1-.2.9 2.2 2.2 0 0 0-.2-.3s0 .3-.2.7a2 2 0 0 0-.3-.4 4.8 4.8 0 0 0 0-.8 5 5 0 0 0-.9 1.1 5.2 5.2 0 0 0-.8-1s0 0 0 .5a2.1 2.1 0 0 0-.4-.7s0 .4 0 .8a1 1 0 0 1-.1.2 4.5 4.5 0 0 0 0-.6 2 2 0 0 1-.4.4c-.3-.5-1.2-.6-1.2-.6l.5.6a2.2 2.2 0 0 0-.5-.1l-.1-.4a1.8 1.8 0 0 1-.3.6 4.2 4.2 0 0 0-.1-.6 3.8 3.8 0 0 0-.4.4 4.6 4.6 0 0 0-.3-.6 2 2 0 0 1-.2.5 4 4 0 0 0-.1-.5 3.2 3.2 0 0 0-.6.8h-.1V.6a1.1 1.1 0 0 1-.2.2 2 2 0 0 0-.2-.1s0 0 0 .1a2.8 2.8 0 0 0-.2.2 2.2 2.2 0 0 0-.8 0 4.6 4.6 0 0 0-.1-.9 5 5 0 0 0-.7 1.2 5.3 5.3 0 0 0-1-1l.2.5a2.1 2.1 0 0 0-.6-.6s0 .4.1.8a6 6 0 0 0-.5.7 1.3 1.3 0 0 0 0 .2 4 4 0 0 0-.5-.5 3.6 3.6 0 0 0 0 .7 2.2 2.2 0 0 0-.6-.5s0 .3.1.6l-.2.2a1.3 1.3 0 0 0-.2-.1c0-.9-1.3-1.8-1.3-1.8a5 5 0 0 0 .3 1.4 5.3 5.3 0 0 0-1.2 0s0 0 .3.2a2.1 2.1 0 0 0-.8 0s.2.2.6.5a2.2 2.2 0 0 0-.5 0l-.2-.3a1.8 1.8 0 0 1-.2.5 4.2 4.2 0 0 0-.2-.5l-.2.3a4.3 4.3 0 0 0-.5-.8 1.4 1.4 0 0 1-.1.5 3.7 3.7 0 0 0-.7-.9 3.3 3.3 0 0 0-.1 1 4.5 4.5 0 0 0-.4-.3 5.5 5.5 0 0 1 .2.8 2.5 2.5 0 0 0-.2-.1s0 .3.2.7a2 2 0 0 0-.5-.2 4.8 4.8 0 0 0-.5-.6 5 5 0 0 0 0 1.4 5.2 5.2 0 0 0-1.2-.3s0 0 .3.3a2.2 2.2 0 0 0-.8-.2s.2.3.5.6a2.2 2.2 0 0 1 0 .3l-.2-.4a2 2 0 0 1-.2.6c-.5-.4-1.3 0-1.3 0l.7.3a2.2 2.2 0 0 0-.6 0l-.2-.2a1.8 1.8 0 0 1 0 .6 4 4 0 0 0-.4-.5 3.8 3.8 0 0 0-.1.6 4.6 4.6 0 0 0-.6-.5 1.4 1.4 0 0 1 0 .5 3.7 3.7 0 0 0-.8-.7 3.2 3.2 0 0 0 .1 1h-.2v-.3a1 1 0 0 1-.2.3 2 2 0 0 0-.2 0l.1.2a2.7 2.7 0 0 0 0 .2 2.2 2.2 0 0 0-.6.6 4.7 4.7 0 0 0-.7-.6 5 5 0 0 0 .3 1.4 5.3 5.3 0 0 0-1.3-.1s0 0 .4.3a2.2 2.2 0 0 0-.8 0s.2.1.6.4a5.8 5.8 0 0 0 .1.8 1.3 1.3 0 0 0 .1.2 4 4 0 0 0-.7 0 3.7 3.7 0 0 0 .5.6 2.3 2.3 0 0 0-.7 0s.2.1.4.3v.3a1.3 1.3 0 0 0-.2 0c-.6-.6-2.1-.3-2.1-.3a5.1 5.1 0 0 0 1.1.7 5.2 5.2 0 0 0-1 .9s.1 0 .5 0a2.1 2.1 0 0 0-.6.5s.3 0 .8 0a2.3 2.3 0 0 0-.4.3l-.4-.1a1.8 1.8 0 0 1 .3.5 4 4 0 0 0-.5-.2v.4l-.2-.1a6.6 6.6 0 0 0-.6-.4v.6a3 3 0 0 0-.3 0 7.6 7.6 0 0 0-1-1 3.2 3.2 0 0 1 .1 1 5.5 5.5 0 0 0-2-1 5.5 5.5 0 0 0 .6 1.5 5 5 0 0 0-.7-.2 6.8 6.8 0 0 0-.7-.6v.5h-.4a2 2 0 0 1 .3.3 4.4 4.4 0 0 0 0 .8 4 4 0 0 0-1 .1s.3.2.7.5a8.9 8.9 0 0 0-1.8-.2s.1.1 1.3 1.1a3.6 3.6 0 0 0-1 .1l-.4-.2v.7a7.1 7.1 0 0 0-1.4-.5 2.3 2.3 0 0 1 .4.7 6.1 6.1 0 0 0-2-.5 5.4 5.4 0 0 0 1 1.4h-.1a6.2 6.2 0 0 0-.7-.3 6.5 6.5 0 0 0 .1.8l-.1.1h.2v.8a1.8 1.8 0 0 1-.4-.4s0 .1 0 .2l-.3-.1a6 6 0 0 0 .3 1.3h-.2a6.1 6.1 0 0 0 .4.8 4.8 4.8 0 0 1-.6-.3 4.3 4.3 0 0 0-.5-1.7 6.3 6.3 0 0 0-.5.9 2 2 0 0 0-.1-.3 8.6 8.6 0 0 0-1-.8L51 18a3.3 3.3 0 0 0-.6 1v-.6a8 8 0 0 0-1 1.7 7.7 7.7 0 0 0-1.5-1.5 7.1 7.1 0 0 0 .1 1.4 4.1 4.1 0 0 0-1.8.4 6 6 0 0 0 .6.4 4.5 4.5 0 0 0-.7.4l-.1-.2a2.5 2.5 0 0 0 0 .3 1.6 1.6 0 0 1-.5.2s.1 0 .4.1v.3a4.8 4.8 0 0 0-1.6-.1 5.5 5.5 0 0 0 1.3 1.3 4.5 4.5 0 0 0-.6 0l-.1-.3a2.5 2.5 0 0 0 0 .3 1.7 1.7 0 0 1-.5 0s.2.1.4.3a2.6 2.6 0 0 0 0 .7 1.4 1.4 0 0 0-.2-.2l-1-1.2a3.5 3.5 0 0 0 0 1l-.6-1a3.2 3.2 0 0 0 0 1.4l-.4-.6a8 8 0 0 0 0 1.9 7.8 7.8 0 0 0-2-.5s1.2 2 2.5 2a1.8 1.8 0 0 0 .3.3l-.3.3-1-.1a3.4 3.4 0 0 0 .8.7 5.4 5.4 0 0 0-1.1.2 6.2 6.2 0 0 0 .7.7 2.4 2.4 0 0 0-.2 0 8.9 8.9 0 0 0-1 .8l-1.3-.2a3.3 3.3 0 0 0 1 .9l-.8-.2a8 8 0 0 0 1.4 1.4 5.5 5.5 0 0 0-.6.3l-.5-.8a3.3 3.3 0 0 0-.1 1.2l-.4-.6a7.3 7.3 0 0 0 0 .9h-.2l.2.1a7 7 0 0 0 0 1 7.8 7.8 0 0 0-2-.6 7.1 7.1 0 0 0 .6 1 3 3 0 0 0 0 .7l-.9-.6a3.3 3.3 0 0 0 0 .4l-1-.8a6.7 6.7 0 0 0 .1.8 5.1 5.1 0 0 0-1.3-.3 5.6 5.6 0 0 0 1 1.4 2.1 2.1 0 0 1-.8-.1 6.8 6.8 0 0 0 .7.9v.3h-.4l.4.4v.5a7.7 7.7 0 0 0-2-.6s1.1 2.1 2.4 2.2a1.9 1.9 0 0 0 .3.3l-.4.3-.9-.2a3.4 3.4 0 0 0 .7.8 5.6 5.6 0 0 0-1.1 0 6.3 6.3 0 0 0 .6.8 2.2 2.2 0 0 0-.2 0 9.1 9.1 0 0 0-1.1.7l-1.2-.3a3.2 3.2 0 0 0 .9 1l-.7-.2a8 8 0 0 0 1.2 1.4 7.8 7.8 0 0 0-1.8 1 7.1 7.1 0 0 0 1.4.3A4.1 4.1 0 0 0 34 47a6.4 6.4 0 0 0 .7-.5 4.8 4.8 0 0 0 0 .8 50 50 0 0 1 0 .2 1.7 1.7 0 0 1 .1.5s.1-.2.3-.4l.2.2a4.8 4.8 0 0 0-.6 1.4 5.5 5.5 0 0 0 1.6-.8 2.1 2.1 0 0 1-.2.7 6.5 6.5 0 0 0 1.3-.7v.6a6 6 0 0 0 .7-.5 2.7 2.7 0 0 1-.2.8s.2-.1.5-.3a3.7 3.7 0 0 0 .5.3 3 3 0 0 0-.7 0s.1 0 .3.2l-.5.1a3.5 3.5 0 0 0 1 .5l-.6.1.5.3a4.4 4.4 0 0 0 0 .5 1.6 1.6 0 0 0 .1.2 5.1 5.1 0 0 0-.8-.1 3.5 3.5 0 0 0 .9 1.2l-.2.3a5.4 5.4 0 0 0-.3-.5l-.2.5a5.3 5.3 0 0 0-.7-1 1.7 1.7 0 0 1 0 .6 4.6 4.6 0 0 0-1-1.1 4.2 4.2 0 0 0 0 1.1 6 6 0 0 0-.6-.3 6.8 6.8 0 0 1 .4 1 2.6 2.6 0 0 0-.4 0l.4.8a2.5 2.5 0 0 0-.7-.2 5.8 5.8 0 0 0-.6-.7 6.3 6.3 0 0 0 0 1.7 6.6 6.6 0 0 0-1.5-.4s0 0 .4.4a2.7 2.7 0 0 0-1-.2s.2.3.6.7a7.2 7.2 0 0 0 0 1 1.5 1.5 0 0 0 0 .3 5.2 5.2 0 0 0-.8-.2 4.5 4.5 0 0 0 .4.8 2.9 2.9 0 0 0-.9-.2s.2.2.5.6v.3a1.6 1.6 0 0 0-.4 0c-.5-1-2.5-1-2.5-1a6.3 6.3 0 0 0 1.2 1.3 6.6 6.6 0 0 0-1.3.8s0 0 .6 0a2.7 2.7 0 0 0-1 .5s.4 0 1 .1a2.7 2.7 0 0 0-.6.4l-.4-.2a2.2 2.2 0 0 1 .3.7 5 5 0 0 0-.7-.5v.6a5.3 5.3 0 0 0-1-.5 1.7 1.7 0 0 1 .2.5 4.6 4.6 0 0 0-1.3-.4 4 4 0 0 0 .5 1l-.2.2-.2-.3a1.4 1.4 0 0 1 0 .4 2.2 2.2 0 0 0-.2.2s0 0 .2 0a3.8 3.8 0 0 0 0 .7 4.9 4.9 0 0 0-.5-.4 3.4 3.4 0 0 0 .3 1.5 5.8 5.8 0 0 0-1.1.4 6.3 6.3 0 0 0 1.6.6 6.6 6.6 0 0 0-1 1.3s.1 0 .6-.2a2.7 2.7 0 0 0-.6.8l1-.3a7.1 7.1 0 0 0 .9.4 1.6 1.6 0 0 0 .2 0 5 5 0 0 0-.5.8 4.7 4.7 0 0 0 1-.1 2.8 2.8 0 0 0-.6.7l.7-.2c.1 0 .2 0 .3.2a1.5 1.5 0 0 0-.1.3c-1.1 0-1.9 2-1.9 2a6.4 6.4 0 0 0 1.6-.7 6.5 6.5 0 0 0 .3 1.5s0 0 .2-.5a2.7 2.7 0 0 0 .2 1s.1-.3.4-.8a2.8 2.8 0 0 0 .1.7l-.3.3a2.3 2.3 0 0 1 .7 0 5 5 0 0 0-.6.4l.5.2a5.3 5.3 0 0 0-.9.8 1.8 1.8 0 0 1 .6 0 4.6 4.6 0 0 0-1 1 4.3 4.3 0 0 0 1.2 0 5.4 5.4 0 0 0-.2.5l1-.5a2.7 2.7 0 0 0-.1.4s.3-.2.8-.5a2.4 2.4 0 0 0-.1.7 5.8 5.8 0 0 0-.6.7 6.3 6.3 0 0 0 1.7-.3 6.5 6.5 0 0 0-.1 1.6s0 0 .3-.5a2.7 2.7 0 0 0 0 1s.2-.2.6-.7a7.7 7.7 0 0 0 1-.1 1.8 1.8 0 0 0 .2 0 5.1 5.1 0 0 0 0 .8 4.5 4.5 0 0 0 .7-.6 2.8 2.8 0 0 0 0 .9s.1-.2.4-.6h.4a1.5 1.5 0 0 0 0 .4c-.9.6-.5 2.6-.5 2.6a6.2 6.2 0 0 0 1-1.4 6.5 6.5 0 0 0 1 1.2v-.6a2.7 2.7 0 0 0 .6.8s0-.3 0-.9a2.7 2.7 0 0 0 .4.5l-.1.4a2.3 2.3 0 0 1 .6-.3 5.2 5.2 0 0 0-.3.7 5 5 0 0 0 .5-.1 5.3 5.3 0 0 0-.3 1.1 1.8 1.8 0 0 1 .5-.3 4.6 4.6 0 0 0-.3 1.4 4.4 4.4 0 0 0 .8-.6c0 .8 1.2 1.2 1.2 1.2l-.3-.9a2.8 2.8 0 0 0 .5.4v.4l.8-.8.2.3a5.7 5.7 0 0 0 0 .7 1.8 1.8 0 0 1 .4-.4l.4.3v-.6l.1-.1a1.6 1.6 0 0 0 .2-.2 5.2 5.2 0 0 0 .3.8 4.4 4.4 0 0 0 .4-.9 2.8 2.8 0 0 0 .4.8s0-.3.2-.7l.3-.3a5.1 5.1 0 0 0 .2.9 4.5 4.5 0 0 0 .6-.8 2.8 2.8 0 0 0 .2.9s0-.3.3-.6a5.2 5.2 0 0 0 .1 1.2l.7-1a1.5 1.5 0 0 0 .1-.2 5.2 5.2 0 0 0 .6.6 4.5 4.5 0 0 0 0-1 2.8 2.8 0 0 0 .7.7s0-.3 0-.8l.1-.3c.9 1 3.1.8 3.1.8l-.5-.4a2.7 2.7 0 0 0 1 0s-.2-.2-.6-.5a2.9 2.9 0 0 0 .6 0l.3.4a2.2 2.2 0 0 1 .1-.7 5 5 0 0 0 .3.7l.3-.5a5.3 5.3 0 0 0 .6 1 1.4 1.4 0 0 1 0-.3 2.5 2.5 0 0 0 .2.3 6.8 6.8 0 0 0-1.2.5 7.4 7.4 0 0 0 1.9.6 7.6 7.6 0 0 0-1 1.6s0 0 .6-.3a3.1 3.1 0 0 0-.6 1s.4-.2 1-.4a8.4 8.4 0 0 0 1.2.4 1.7 1.7 0 0 0 .2 0 5.7 5.7 0 0 0-.3.5l-.2-.2a5.1 5.1 0 0 0 0 1 3 3 0 0 0-1.4.2 4.6 4.6 0 0 0 .4.3 3.3 3.3 0 0 0-.5.2v-.2l-.2.3a1.2 1.2 0 0 1-.3 0s.1.1.3.2v.2a3.5 3.5 0 0 0-1.2-.2 4 4 0 0 0 .8 1 1.5 1.5 0 0 1-.5 0 4.7 4.7 0 0 0 .7.8 4.5 4.5 0 0 0-.5 0 4.7 4.7 0 0 0 .6.5 2 2 0 0 1-.7 0s.1 0 .3.3a2.5 2.5 0 0 0-.2.5l-.3-.7a2.4 2.4 0 0 0-.2.9 8 8 0 0 1-.2-.5 5.8 5.8 0 0 0-.3 1.4 7 7 0 0 0-.8-.4 4.2 4.2 0 0 0 1 1.6 1.3 1.3 0 0 0 0 .2l-.2.1-.6-.2a2.5 2.5 0 0 0 .3.7 4 4 0 0 0-.8-.1 4.6 4.6 0 0 0 .4.6 1.8 1.8 0 0 0-.2 0 3.6 3.6 0 0 0-.6.2h-.7a2.4 2.4 0 0 0 .7.6l-.5-.1a6 6 0 0 0 .8.8 7 7 0 0 0-.8.3 5 5 0 0 0 .7.3 2.6 2.6 0 0 0 .3.4l-.5-.1a2.4 2.4 0 0 0 .6.7h-.4a2.4 2.4 0 0 0 .7.5 1.2 1.2 0 0 1-.4 0 5 5 0 0 0 .8.6 4 4 0 0 0-.7.4 4 4 0 0 0 1.3.3 1.6 1.6 0 0 1-.5.3 4.8 4.8 0 0 0 1 .2 4.6 4.6 0 0 0-.3.4 4.7 4.7 0 0 0 .8 0 3.6 3.6 0 0 0-.3.7 3.3 3.3 0 0 0-1.1.4 4.6 4.6 0 0 0 .7.3 1.6 1.6 0 0 0-.2.2 6.6 6.6 0 0 0-.6.7l-.8.1a2.4 2.4 0 0 0 .8.4H52a5.8 5.8 0 0 0 1.2.7 5.6 5.6 0 0 0-1 1.2 5.3 5.3 0 0 0 1-.2 3 3 0 0 0 .4 1.3 4.7 4.7 0 0 0 .3-.5 3.3 3.3 0 0 0 .2.6h-.1l.2.1a1.2 1.2 0 0 1 .2.3v-.3h.3a3.5 3.5 0 0 0 0 1.1 4 4 0 0 0 .9-.9 3.1 3.1 0 0 0 0 .4l-.2.1a2 2 0 0 0 .2 0 1.2 1.2 0 0 1 0 .3s0 0 .2-.2a1.8 1.8 0 0 0 .5 0 1 1 0 0 0-.1 0l-.9.8a2.6 2.6 0 0 0 .8 0l-.7.5a2.4 2.4 0 0 0 1 0l-.5.2a5.9 5.9 0 0 0 1.5 0 5.6 5.6 0 0 0-.3 1.5s1.4-1 1.4-2a1.5 1.5 0 0 0 .2-.2l.2.3v.6a2.5 2.5 0 0 0 .5-.5 4 4 0 0 0 0 .8 4.7 4.7 0 0 0 .6-.6 1.6 1.6 0 0 0 0 .2 6.2 6.2 0 0 0 .6.7v1a2.4 2.4 0 0 0 .5-.8v.5a5.8 5.8 0 0 0 .9-1 5.6 5.6 0 0 0 .8 1.3 4.4 4.4 0 0 0 0-1.8h.3v.4a2.7 2.7 0 0 0 .3-.4v.6a5.7 5.7 0 0 0 .5-.6 6.6 6.6 0 0 0 .8.8 5.2 5.2 0 0 0 0-.6 2.5 2.5 0 0 0 .3-.4l.2.6a2.6 2.6 0 0 0 .2-.8 4 4 0 0 1 .4.8 5.1 5.1 0 0 0 .2-.5 3.7 3.7 0 0 0 .7.7 4.3 4.3 0 0 0 0-1.1l.7.6v-.4a2.5 2.5 0 0 0 .5-.3l-.3.8a2.3 2.3 0 0 0 .8-.6l-.2.5a5.8 5.8 0 0 0 1.1-.8 5.7 5.7 0 0 0 .6 1.4s.7-1.7 0-2.4a1.4 1.4 0 0 0 .2-.3h.3l.3.7a2.5 2.5 0 0 0 .1-.8 4 4 0 0 0 .6.6 4.5 4.5 0 0 0 0-.7 1.8 1.8 0 0 0 .2 0l1 .5a5.1 5.1 0 0 0-.2-.7 3.4 3.4 0 0 0 1.1.1 4.1 4.1 0 0 0-.9-1 1.5 1.5 0 0 1 .6 0 4.7 4.7 0 0 0-.9-.6l.5-.2a4.7 4.7 0 0 0-.6-.3 2 2 0 0 1 .6 0s0-.2-.3-.4a2.5 2.5 0 0 0 .1-.6l.4.8a2.4 2.4 0 0 0 .1-1l.3.5s.5-2-.3-2.8l.2-.2.7.2a2.5 2.5 0 0 0-.5-.6 4 4 0 0 0 .8 0 4.7 4.7 0 0 0-.4-.6 1.5 1.5 0 0 0 .2 0l1-.5a4.6 4.6 0 0 0-1.1-.3l.5-.2a2.5 2.5 0 0 0-.7-.3 4 4 0 0 0 .7-.4 4.5 4.5 0 0 0-.7-.2l.3-.4h.6a2.5 2.5 0 0 0-.6-.4 4 4 0 0 0 .8-.3 4.9 4.9 0 0 0-.7-.4 1.2 1.2 0 0 0 .2-.1l.2-.1h.4l-.2-.3a1.6 1.6 0 0 1 .4-.4 5 5 0 0 0-.6 0l-.2-.2.8-.6h-.4a2.5 2.5 0 0 0-.3-.6l.8.4s-.3-1-1-1.2a4 4 0 0 0 .7-.6 4 4 0 0 0-1.3 0 1.5 1.5 0 0 1 .4-.4 4.7 4.7 0 0 0-1.1.2 4.7 4.7 0 0 0 .2-.5 4.7 4.7 0 0 0-.7.2 2 2 0 0 1 .4-.5s-.2 0-.4 0a2.5 2.5 0 0 0-.4-.4l.8.2a2 2 0 0 0-.8-.8l.7-.2a5.8 5.8 0 0 0-1.3-.5 5.7 5.7 0 0 0 .8-1.2s-1.7.3-2 1.2a1.3 1.3 0 0 0-.3.2v-.3c0-.4.2-.6.2-.6a2.5 2.5 0 0 0-.7.3 4 4 0 0 0 .2-.8 4.8 4.8 0 0 0-.7.3 1.4 1.4 0 0 0 0-.2 6.5 6.5 0 0 0-.2-.9 6.4 6.4 0 0 0 1.9-.3l-.5-.3a6.9 6.9 0 0 0 1.4-.8v.5l-.2.3h.3l.1.3a6.5 6.5 0 0 0-.5 1 14 14 0 0 1 1.4-.5 3.2 3.2 0 0 0-.1 1.1s.2-.3.7-.8a3.4 3.4 0 0 0 0 1s.3-.5.9-1a3.1 3.1 0 0 0 0 1.1s.3-.4.7-1a6.6 6.6 0 0 0 .7.8 2 2 0 0 1 0-.7 3.4 3.4 0 0 0 .6.7s0-.3 0-.9a7.7 7.7 0 0 0 1.1 1s0 0-.1-.6a3.1 3.1 0 0 0 .8.9s0-.4-.1-1a3.3 3.3 0 0 0 .7.6s0-.2 0-.4a6 6 0 0 0 3 .2s0 0-.6-.3a2.8 2.8 0 0 0 1 0 6 6 0 0 0 1.4.3 6.5 6.5 0 0 0-.7 1.4s0 0 .5-.3a2.7 2.7 0 0 0-.5 1s.4-.3 1-.5a7.2 7.2 0 0 0 1 .2 1.8 1.8 0 0 0 .1 0 5.1 5.1 0 0 0-.4.8 3.5 3.5 0 0 0 1.4-.5 5 5 0 0 0-.3.8 5.5 5.5 0 0 0-.9.6 1.9 1.9 0 0 0-.2.1 6 6 0 0 0-.3-1 4.1 4.1 0 0 0-.7 1.6 6.4 6.4 0 0 0-.6-1.1 6.3 6.3 0 0 1-.3 1.1 5.3 5.3 0 0 0-1.7-.4 5.8 5.8 0 0 0 .5.8 5.8 5.8 0 0 0-1.5-.4 2.8 2.8 0 0 1 .4.7 4.7 4.7 0 0 0-2 .1 4.8 4.8 0 0 0 1.2.9 4.2 4.2 0 0 0-.6.2 5.7 5.7 0 0 0-.8-.2q0 .3.2.5H78a1.7 1.7 0 0 1 .3.1 3.8 3.8 0 0 0 .4.7 3.5 3.5 0 0 0-.7.5s.3 0 .7 0a7.6 7.6 0 0 0-1.4.7s.1 0 1.5.2a3.2 3.2 0 0 0-.7.6h-.4c0 .2.2.3.3.5a6.1 6.1 0 0 0-1.3.2 2 2 0 0 1 .6.4 5.3 5.3 0 0 0-1.6.5 4.7 4.7 0 0 0 1.3.6l-.1.2h-.4a1.6 1.6 0 0 1 .3.3l-.1.3h.2a4.4 4.4 0 0 0 .4.5 6.1 6.1 0 0 0-.7 0 4 4 0 0 0 1.3 1.3 6.8 6.8 0 0 0-.8 1 7.2 7.2 0 0 0 2-.4 7.6 7.6 0 0 0 0 1.8s0 0 .3-.5a3.1 3.1 0 0 0 0 1.2s.3-.4.7-1a8.2 8.2 0 0 0 1.1-.2 1.7 1.7 0 0 0 .3-.1 6 6 0 0 0 0 1 5.3 5.3 0 0 0 .8-.7 3.3 3.3 0 0 0 0 1s.2-.3.5-.7h.4a1.8 1.8 0 0 0 0 .3c-.8.9-.3 3.1-.3 3.1a7.3 7.3 0 0 0 1-1.7l.4.4v.5l.2-.2.2.2a6.5 6.5 0 0 0 .1 1c.2-.4.4-.3.9-1a3.2 3.2 0 0 0 .5 1s0-.5.2-1a3.3 3.3 0 0 0 .5.7s0-.5.2-1.3a3.1 3.1 0 0 0 .7 1s0-.6 0-1.3a6.5 6.5 0 0 0 1 .4 2 2 0 0 1-.3-.7 3.4 3.4 0 0 0 .9.4s-.2-.3-.5-.8a7.8 7.8 0 0 0 1.5.3s0 0-.5-.5a3.1 3.1 0 0 0 1.2.3s-.3-.3-.7-.8a3.3 3.3 0 0 0 1 .2s-.1-.1-.3-.3a3.5 3.5 0 0 0 1.1-.4 3.7 3.7 0 0 0-.6.7 3.2 3.2 0 0 0 .8 0 4.4 4.4 0 0 0-.2.5 3.4 3.4 0 0 1 .7-.3 2.1 2.1 0 0 0-.3.6s.2-.1.5-.2a2.2 2.2 0 0 0 0 .4 4.2 4.2 0 0 0-.4.4 5.8 5.8 0 0 0 1 0 4.9 4.9 0 0 0-.2.6s0 0 .4-.4a2.3 2.3 0 0 0 0 .5s.1 0 .3-.2l.1.1a3.7 3.7 0 0 0-1 1 4.9 4.9 0 0 0 1.2-.2 5 5 0 0 0 0 1.2s0 0 .2-.3a2 2 0 0 0 0 .8s.1-.3.4-.6a5.4 5.4 0 0 0 .8-.1 1.3 1.3 0 0 0 .2 0 3.9 3.9 0 0 0 0 .5 3.5 3.5 0 0 0 .5-.4 2.2 2.2 0 0 0 0 .7s.1-.2.4-.4h.2a1.2 1.2 0 0 0 0 .2c-.6.5-.3 2-.3 2a4.8 4.8 0 0 0 .7-1 5 5 0 0 0 .8.8s0 0 0-.4a2 2 0 0 0 .5.6s0-.3 0-.7a2.2 2.2 0 0 0 .4.4s0-.4-.1-.9a1 1 0 0 0 0-.2 1.6 1.6 0 0 0 .3.4v.2a1.2 1.2 0 0 1 .1-.1h.2v-.1a2.6 2.6 0 0 0 .2-.2 3.5 3.5 0 0 0 0 1 3 3 0 0 0 .6-.6l.1.1v.3a1.1 1.1 0 0 1 .2-.2 1.8 1.8 0 0 0 .2.2s0 0 0-.2a3 3 0 0 0 .4-.1 4 4 0 0 0-.1.4 2.6 2.6 0 0 0 1-.6 4.5 4.5 0 0 0 .5.8 4.9 4.9 0 0 0 .1-1.3 5 5 0 0 0 1.2.3s0 0-.3-.3a2 2 0 0 0 .8.2s-.2-.2-.5-.6a5.5 5.5 0 0 0 0-.8 1.3 1.3 0 0 0 0-.1 4 4 0 0 0 .7.2 2.8 2.8 0 0 0-.5-1 3.1 3.1 0 0 0 .3-.6 4 4 0 0 0 .5.5 4 4 0 0 0 0-.4 4 4 0 0 0 .8.5 1.3 1.3 0 0 1-.1-.5 3.5 3.5 0 0 0 1 .6 3.6 3.6 0 0 0-.2-.6 4.3 4.3 0 0 0 .8.1 1 1 0 0 1-.2-.3 2.1 2.1 0 0 0 .7.2s-.1-.1-.3-.3a2.1 2.1 0 0 0 .8-.1s-.1 0-.3-.2a2.4 2.4 0 0 0 .4 0 4.8 4.8 0 0 0 .6.2 6 6 0 0 0-.3-.7 5.1 5.1 0 0 0 1 0s0 0-.4-.3a2 2 0 0 0 .8 0s-.2 0-.5-.3a3 3 0 0 0-.2-.5 1.1 1.1 0 0 0-.1-.1 4 4 0 0 0 .6-.2 3.4 3.4 0 0 0-.5-.4 2.1 2.1 0 0 0 .6-.2l-.5-.2-.1-.3a1.1 1.1 0 0 0 .2 0 3.6 3.6 0 0 0 1.6-.4 6.5 6.5 0 0 0-.8-.3 5 5 0 0 0 .7-1s0 0-.4.2a2 2 0 0 0 .4-.7s-.3.1-.7.3a2.1 2.1 0 0 0 .3-.5h.3a1.7 1.7 0 0 1-.4-.4 4 4 0 0 0 .6 0 3.7 3.7 0 0 0-.2-.2 4 4 0 0 0 1-.1 1.3 1.3 0 0 1-.5-.3 3.5 3.5 0 0 0 1.1-.1 3 3 0 0 0-.8-.6l.1-.1h.3a1.1 1.1 0 0 1-.2-.2 2 2 0 0 0 .1-.2s0 0-.1 0a3 3 0 0 0-.2-.4 3.8 3.8 0 0 0 .5 0 2.6 2.6 0 0 0-.8-.9 4 4 0 0 0 .4-.3v.2a2 2 0 0 0 .6-.5l-.2.5a5 5 0 0 0 1-.7 4.8 4.8 0 0 0 .5 1.2s.6-1.4 0-2a1.2 1.2 0 0 0 .1-.3h.3l.2.6a2.2 2.2 0 0 0 .2-.7 3.4 3.4 0 0 0 .4.5 3.8 3.8 0 0 0 .1-.6 1.2 1.2 0 0 0 .2.1 5.4 5.4 0 0 0 .7.3l.3.7a2 2 0 0 0 .2-.8l.1.4a4.9 4.9 0 0 0 .2-1.2 4.9 4.9 0 0 0 1.2.5 4.7 4.7 0 0 0-.2-.5 3.3 3.3 0 0 0 .6.4 3.4 3.4 0 0 0-.2-1 1.3 1.3 0 0 1 .4.2 4 4 0 0 0-.3-.9 3.8 3.8 0 0 0 .4 0 4.1 4.1 0 0 0-.3-.4 1.7 1.7 0 0 1 .5.2s0-.1-.1-.3a2.1 2.1 0 0 0 .3-.4v.7a2 2 0 0 0 .5-.6v.4s1.1-1.2 1-2.2h.2l.4.4a2.1 2.1 0 0 0 0-.6 3.3 3.3 0 0 0 .6.3 4 4 0 0 0-.1-.6 1.2 1.2 0 0 0 .1 0l1 .1a4 4 0 0 0-.7-.7l.5.2a2.2 2.2 0 0 0-.4-.6 3.4 3.4 0 0 0 .7 0 3.7 3.7 0 0 0-.5-.5h.4c.3 0 .5.2.5.2a2.2 2.2 0 0 0-.3-.6 3.4 3.4 0 0 0 .7.1 3.8 3.8 0 0 0-.3-.5 1.4 1.4 0 0 0 .2 0h.2l.2.2v-.3a1.3 1.3 0 0 1 .5-.1 4.3 4.3 0 0 0-.5-.3v-.3a5.2 5.2 0 0 1 .8 0s0-.1-.2-.3a2 2 0 0 0 0-.5l.4.6s.3-.9-.2-1.2a3.4 3.4 0 0 0 .8-.2 3.5 3.5 0 0 0-1-.5 1.3 1.3 0 0 1 .4-.2 4 4 0 0 0-.8-.3l.3-.3a3.8 3.8 0 0 0-.6-.1 1.7 1.7 0 0 1 .6-.2s-.2 0-.4-.2a2.1 2.1 0 0 0 0-.5l.5.5a2 2 0 0 0-.2-.8l.3.3a5 5 0 0 0-.2-1.1 4.8 4.8 0 0 0 1.3 0s-1-1-1.8-.9a1.2 1.2 0 0 0-.3-.2l.2-.2h.6a2.2 2.2 0 0 0-.6-.4 3.4 3.4 0 0 0 .7-.2 4 4 0 0 0-.5-.3 1.4 1.4 0 0 0 .1-.1 5.6 5.6 0 0 0 .6-.6h.7a2 2 0 0 0-.6-.4h.4a5 5 0 0 0-1-.7 4.8 4.8 0 0 0 1-.9 4.5 4.5 0 0 0-.7 0 1.8 1.8 0 0 0-.5-.2l.7-.3a2.2 2.2 0 0 0-.3 0l.8-.4a3.8 3.8 0 0 0-.5-.2 3.1 3.1 0 0 0 .6-.6 3.5 3.5 0 0 0-1 0 1.4 1.4 0 0 1 .2-.3 4 4 0 0 0-.9.2l.2-.4a3.9 3.9 0 0 0-.6.1 1.8 1.8 0 0 1 .3-.4s-.1 0-.3 0a2 2 0 0 0-.3-.3l.7.1a2 2 0 0 0-.6-.6l.4.1a5 5 0 0 0-.8-.8 4.8 4.8 0 0 0 1.2-.7s-1.5-.4-2 .2a1.3 1.3 0 0 0-.3 0v-.3l.5-.3a2.2 2.2 0 0 0-.7 0 3.5 3.5 0 0 0 .5-.6 3.9 3.9 0 0 0-.6 0 1.4 1.4 0 0 0 0-.2 3 3 0 0 0 .2-.4 6.1 6.1 0 0 0 1 .6 7.4 7.4 0 0 0-.5-1.2l.1-.1h-.2l-.1-.4a6.6 6.6 0 0 0 1.5-.2s0 0-.5-.2a2.7 2.7 0 0 0 1-.2l-.8-.5a7.3 7.3 0 0 0-.4-1 1.8 1.8 0 0 0-.1-.1 5.2 5.2 0 0 0 .8-.2 4.8 4.8 0 0 0-.7-.6 2.8 2.8 0 0 0 .9-.2l-.7-.3-.1-.4a1.5 1.5 0 0 0 .3 0c.9.6 2.8-.2 2.8-.2a6.4 6.4 0 0 0-1.7-.6 6.6 6.6 0 0 0 1-1.3s-.1 0-.6.2a2.7 2.7 0 0 0 .6-.9s-.3.2-.9.3a2.8 2.8 0 0 0 .4-.5h.5a2.3 2.3 0 0 1-.5-.6 5.2 5.2 0 0 0 .8.2l-.3-.5a5.4 5.4 0 0 0 1.2 0 1.8 1.8 0 0 1-.4-.4 4.7 4.7 0 0 0 1.4 0Zm-3-13.5ZM74.1 93.2Zm50.6-6Zm-42-10.7c.2 0 .4-.2.5-.3h.2a5.2 5.2 0 0 0 0 .9l-.2-.2a2.7 2.7 0 0 0-.4-.4Zm2.7-12.1.3-.2a2.2 2.2 0 0 0-.3.5v-.3ZM62 75.4a2.7 2.7 0 0 0 .3.2v.2a3.6 3.6 0 0 0-.3-.4Zm7.3 5.2-.2.2-.1-.3h.3Zm11-15.7h.3v.1h-.3V65ZM57 86.9Zm13.8-24.6a2.4 2.4 0 0 0 0 .3h-.2l.2-.3Zm9 2.8V65l.2.2h-.2Zm.7.1a4.2 4.2 0 0 0 0 .6h-.1a2 2 0 0 0-.2 0 5.1 5.1 0 0 0 .3-.6Zm1 .3.4.4-.5.2a1.2 1.2 0 0 1-.1 0 5.1 5.1 0 0 0 .3-.6Zm25.6 28.3Zm-16-51.5a5.6 5.6 0 0 0 .7-.5l-.6-.2a5.4 5.4 0 0 0 .8-.7v.2a3.3 3.3 0 0 0 .5-.8 4.2 4.2 0 0 0 .3.4 5.7 5.7 0 0 1 .1-.9 2.3 2.3 0 0 0 .2.2s0-.3 0-.7a1.6 1.6 0 0 0 .2.2l-.1.2.3-.1a4.7 4.7 0 0 0 .2.8 5.7 5.7 0 0 0 .5-.8h.1c-1 1.2-.3 3.7-.3 3.7l.3-.6a3 3 0 0 0 0 1.2s.3-.4.6-1a3.2 3.2 0 0 0 .1.8l-.3.3a6.7 6.7 0 0 0-1-.2s0 0 .3.3a3 3 0 0 0-.9 0s.1 0 .3.3l-.3.2a7.2 7.2 0 0 0-.4-1.7s0 0-.3.6a2.9 2.9 0 0 0-.2-1.1s-.2.4-.4 1a3 3 0 0 0-.2-.8l.3-.4a2.4 2.4 0 0 1-.7 0Zm.8-1.6a2.8 2.8 0 0 1-.4 0 3.3 3.3 0 0 0 .3-.3l.1.3Zm2.2 3.6v-.1Zm1.2-.2H95a2.7 2.7 0 0 1 .4 0Zm-1.5.7a7.4 7.4 0 0 0 0 1 1.9 1.9 0 0 0 0 .3 5.4 5.4 0 0 0-.7-.2 4.5 4.5 0 0 0 .7-1.1Zm-.8 1.1a5.2 5.2 0 0 0 .3.5l-.2.1-.4-.2a1.7 1.7 0 0 0 .2-.2l.1-.2Zm12.4 25.6c-.1 0-.2 0-.2-.2 0 0 .2 0 .3-.2l-.1.4Zm2 22.2ZM103.7 73h-.1Zm.5-.6-.2.1.2-.1Zm1.6-.8v.2l-.2-.2h.2Zm1.7 22.2ZM91 39.7l.3-.3v.2a3.2 3.2 0 0 0-.3.1ZM87.2 65h.2l-.1.1V65ZM99 71.5v.2l-.3.2a1.3 1.3 0 0 1 .4 0 2.4 2.4 0 0 0 .1.3v-.1a3.7 3.7 0 0 0 .7.2 5 5 0 0 0-.5.4 3.4 3.4 0 0 0 1.6.1 6 6 0 0 0 0 1.2 6.5 6.5 0 0 0 1-1.4 6.6 6.6 0 0 0 1 1.3s0 0 0-.5a2.5 2.5 0 0 0 .4.5h-.2v-.1a1.8 1.8 0 0 0-.1.1 1 1 0 0 1-.2 0s0 0 .2.2a1.6 1.6 0 0 0 0 .5.8.8 0 0 0-.1-.2l-.6-.7a2.1 2.1 0 0 0 0 .6l-.4-.6a2 2 0 0 0 0 .8l-.3-.3a5 5 0 0 0 0 1.2 4.8 4.8 0 0 0-1.2-.4s.8 1.4 1.6 1.3a1.1 1.1 0 0 0 .1.2l-.2.2-.5-.1a2.1 2.1 0 0 0 .4.5 3.4 3.4 0 0 0-.7 0 3.8 3.8 0 0 0 .5.5 1.1 1.1 0 0 0-.2 0 5.3 5.3 0 0 0-.6.5h-.4v-.2a3.5 3.5 0 0 0 .1-.3s0 0-.2 0a5.2 5.2 0 0 0-.4-.8 6.8 6.8 0 0 0 .9.2 4.5 4.5 0 0 0-1.2-1.7 8 8 0 0 0 1.1-1 8.5 8.5 0 0 0-2.3 0 8.8 8.8 0 0 0 .5-2s0 0-.6.5a3.4 3.4 0 0 0 .3-1.2h.3Zm1.3 6.7a1.7 1.7 0 0 0 .4.3h-.4v.1l-.2-.2.2-.2ZM100 80v.1-.1Zm.3-.4h-.1Zm-.3 0v.2h-.1l-.2.1a5 5 0 0 0-.4-.4 4 4 0 0 0 .7 0Zm-.2.8h.2-.2Zm-16.6 3.3h.6a1.1 1.1 0 0 0 .3 0 2 2 0 0 0-.4.2 5.3 5.3 0 0 0-.5-.2ZM83 81l.2.1c0 .2-.1.3-.2.3h-.2a1.3 1.3 0 0 0-.3.2 2.4 2.4 0 0 0 .5-.6Zm.2-.4H83a4 4 0 0 0-.4-.3 4.3 4.3 0 0 0 1.1 0l-.2.3h-.3Zm18.1 11.1a.8.8 0 0 0 0-.1 1 1 0 0 0 .2 0V91.8a1.2 1.2 0 0 0-.2-.2Zm10.4-70ZM91 39.2ZM39 52.8Zm1.8 28.4Zm16.4 4.9a2.9 2.9 0 0 0-.3.5l-.4-.4a4.8 4.8 0 0 0 .7-.1Zm10.3 1.3v-.3a2 2 0 0 0 .2 0 1.2 1.2 0 0 0 .1.1l-.3.2Zm4.3-2.7c-1 .1-1.5 1.5-1.8 2.1a6.2 6.2 0 0 0-1-.5 7.6 7.6 0 0 0 1.3-1.3s-.1 0-.7.2a3 3 0 0 0 .8-1s-.4.2-1 .3a3.4 3.4 0 0 0 .6-.8s-.6.2-1.4.3a1.3 1.3 0 0 0-.3 0 2.4 2.4 0 0 0 .5-.4h.4a1.7 1.7 0 0 1-.3-.3 2.8 2.8 0 0 0 .2-.2s-.1 0-.3 0a4.2 4.2 0 0 0-.3-.3 5.2 5.2 0 0 0 1.6 0h.5a2 2 0 0 0 .2.1 6 6 0 0 0-.5.8 5.3 5.3 0 0 0 1-.1 3.3 3.3 0 0 0-.5.9s.4-.2.8-.4l.4.2a1.9 1.9 0 0 0-.2.4Zm.4-9.3a3.2 3.2 0 0 0-.8 0l-.4-.1a6 6 0 0 0 0 .6 6.1 6.1 0 0 0-1.3-.5 2 2 0 0 1 .4.6 5.3 5.3 0 0 0-1.6-.4 4.6 4.6 0 0 0 .8 1.2l-.3.1-.3-.2a1.5 1.5 0 0 1 0 .4l-.1.3h.2a4.4 4.4 0 0 0 0 .7 5.8 5.8 0 0 0-.6-.3v.4a5.5 5.5 0 0 0-.5 0 7.6 7.6 0 0 0 .3-1.7s0 0-.4.4a3 3 0 0 0 .2-1.1s-.3.3-.9.7a8.4 8.4 0 0 0-1.1 0 1.8 1.8 0 0 0-.3 0 6 6 0 0 0 .2-.9 4.1 4.1 0 0 0-1.4 1 6.3 6.3 0 0 0 .1-1.3l-.9.8a3.3 3.3 0 0 0-.3-.4 3.5 3.5 0 0 0-.3-.8h.2l.2.2a1.4 1.4 0 0 1 0-.4 2.6 2.6 0 0 0 .3-.1s0 0-.2 0a4 4 0 0 0 0-.7 5 5 0 0 0 .6.4 3.4 3.4 0 0 0-.1-1.6 5.9 5.9 0 0 0 1.1-.2 6.4 6.4 0 0 0-1.5-.8 6.6 6.6 0 0 0 1-1.2s0 0-.5.2a2.7 2.7 0 0 0 .7-.8s-.4.1-1 .2a6.8 6.8 0 0 0-.8-.5 1.7 1.7 0 0 0-.2-.1 5.1 5.1 0 0 0 .6-.6 3.7 3.7 0 0 0-1.4 0l-.3-.3a4.7 4.7 0 0 0 .6 0l-.3-.4a5.3 5.3 0 0 0 1.3 0 1.8 1.8 0 0 1-.5-.4 4.6 4.6 0 0 0 1.4-.1 4.6 4.6 0 0 0-.6-.6 5.5 5.5 0 0 0 1-.4 1.4 1.4 0 0 1-.5-.1 2.7 2.7 0 0 0 1-.4s-.2 0-.5-.1a2.4 2.4 0 0 0 .6-.5 5.7 5.7 0 0 0 1 .1 6.3 6.3 0 0 0-1.2-1.2 6.5 6.5 0 0 0 1.4-.8s-.1 0-.6 0a2.7 2.7 0 0 0 .9-.6s-.5 0-1 0a7 7 0 0 0-.8-.8 1.8 1.8 0 0 0-.1-.1 5 5 0 0 0 .7-.5 4.4 4.4 0 0 0-1-.3 2.8 2.8 0 0 0 .8-.5s-.3 0-.7 0l-.3-.3a1.4 1.4 0 0 0 .3-.2 2 2 0 0 0 1.6-.5l.5 1a3.3 3.3 0 0 0 .2-1.2l.3.7a7.9 7.9 0 0 0 .3-2l.3.2.3.2a3.3 3.3 0 0 0 .1.4s0-.1.2-.3l.4.2-.4.3a2.5 2.5 0 0 1 .8 0 5.5 5.5 0 0 0-.7.5 5.3 5.3 0 0 0 .5.2 5.8 5.8 0 0 0-1 .9 1.9 1.9 0 0 1 .7 0 5 5 0 0 0-1 1 4.2 4.2 0 0 0 1.3 0 6.1 6.1 0 0 0-.4.8c.5-.3.5-.1 1.3-.5a1.7 1.7 0 0 0 .2-.1 5.7 5.7 0 0 0 .1.9l.3-.3a4.4 4.4 0 0 0 .5.5 3 3 0 0 0-.9.1s.3.2.6.4l.1.4a1.6 1.6 0 0 0-.4 0c-.7-.7-2.7-.1-2.7-.1a6.5 6.5 0 0 0 1.5.8 6.7 6.7 0 0 0-1 1.2s0 0 .5-.1a2.8 2.8 0 0 0-.7.8s.4-.1 1-.2a3 3 0 0 0-.6.6s.5-.1 1.2-.2a1 1 0 0 0 .3 0 2.2 2.2 0 0 0-.4.4H69a1.5 1.5 0 0 1 .2.2v.2h.2a3.7 3.7 0 0 0 .3.2 4.7 4.7 0 0 0-1.5.2 4 4 0 0 0 1 .8l-.2.1-.3-.1a1.4 1.4 0 0 1 .2.4 2.7 2.7 0 0 0-.1.2s0 0 .2 0a4 4 0 0 0 .2.6 5.2 5.2 0 0 0-.6-.1 3.4 3.4 0 0 0 1 1.3 6 6 0 0 0-1 .8 6.6 6.6 0 0 0 1.8-.1 6.8 6.8 0 0 0-.4 1.6s0 0 .5-.4a2.8 2.8 0 0 0-.3 1s.3-.3.8-.7a7.6 7.6 0 0 0 1 0 1.7 1.7 0 0 0 .3 0 5.1 5.1 0 0 0-.2.5V74.5h.2l.4.2a7.7 7.7 0 0 0-1.6-.2s.1 0 1.1 1Zm.6-1.3h.1Zm5.6 0 .1-.5a3.2 3.2 0 0 0 .6-.1s-.2-.1-.5-.3a7 7 0 0 0 .9 0 3.7 3.7 0 0 0-1 .8Zm1.5 0a2 2 0 0 0-.2 0 5.8 5.8 0 0 0 .2-.8V73h-.1a52 52 0 0 1-.9-.7 2.8 2.8 0 0 0 .8 0l.3.1a5.4 5.4 0 0 0 0-.5 5.4 5.4 0 0 0 1.1.4 1.8 1.8 0 0 1-.3-.5 4.7 4.7 0 0 0 1.4.3 4 4 0 0 0-.6-1l.1-.2.3.3a1.4 1.4 0 0 1 0-.5 2.5 2.5 0 0 0 .2-.1s-.1 0-.2 0a4.1 4.1 0 0 0 0-.7 5.1 5.1 0 0 0 .5.3 3.5 3.5 0 0 0-.4-1.6 6.2 6.2 0 0 0 1-.4 6.5 6.5 0 0 0-1.6-.5 6.8 6.8 0 0 0 .8-1.4s0 0-.5.3a2.2 2.2 0 0 0 .3-.5 7.1 7.1 0 0 0 .6.6s0-.1 0-.7a3 3 0 0 0 .7.9s0-.4-.1-1a8 8 0 0 0 .7-1 2 2 0 0 0 0-.2 5.5 5.5 0 0 0 .7.7 5 5 0 0 0 .1-1 2.8 2.8 0 0 0 .5.5l.2.2V65l.5-.3a4.5 4.5 0 0 0 1.6 2 8.3 8.3 0 0 0-.2-1.2 3 3 0 0 0 1-.3 5.4 5.4 0 0 0-.4 1c.3-.3.4-.2 1-.5a4.5 4.5 0 0 0 .7 1.2 4.9 4.9 0 0 0 .2-.7 5 5 0 0 0 .6 1.2 2.4 2.4 0 0 1 .2-.8 4 4 0 0 0 1.3 1.2 4.1 4.1 0 0 0-.2-1.2 3.8 3.8 0 0 0 .5.2 5.2 5.2 0 0 0 .4.6l.1-.4h.2a1.5 1.5 0 0 1-.1-.2 3.2 3.2 0 0 0 0-.6 2.9 2.9 0 0 0 .8.1s-.1-.2-.4-.4a6.6 6.6 0 0 0 1.3.4s0 0-.6-.8h.3a7.2 7.2 0 0 0 1 .4 1.3 1.3 0 0 0 .1 0 5.2 5.2 0 0 0-.5.7 4.6 4.6 0 0 0 1 0 2.9 2.9 0 0 0-.6.7s.3 0 .7-.2l.3.2a1.5 1.5 0 0 0-.2.3c-1 0-1.9 2-1.9 2a6.4 6.4 0 0 0 1.7-.7 6.6 6.6 0 0 0 .1 1.6s0 0 .3-.5a2.7 2.7 0 0 0 .1 1l.5-.8a3 3 0 0 0 .1.8l.6-1a1.1 1.1 0 0 0 .2-.2 2.1 2.1 0 0 0 0 .6l-.2.3a1.5 1.5 0 0 1 .3-.1 1.9 1.9 0 0 0 .1.2l.1-.2a3.9 3.9 0 0 0 .4 0 4.6 4.6 0 0 0-.9 1.1 5 5 0 0 0 .8 0l-.8.6a9.7 9.7 0 0 0-1.4 0 2 2 0 0 0-.3 0 7 7 0 0 0 .3-1 4.7 4.7 0 0 0-1.7 1 7.3 7.3 0 0 0 .2-1.4l-1 .9a6.1 6.1 0 0 0-1.4-1.4 6.4 6.4 0 0 0 0 1 6.6 6.6 0 0 0-1.3-1.3 3.2 3.2 0 0 1 0 1 5.5 5.5 0 0 0-2-1 5.5 5.5 0 0 0 .6 1.4 5 5 0 0 0-.7-.1 6.8 6.8 0 0 0-.7-.7v.6h-.4a2 2 0 0 1 .3.2 4.3 4.3 0 0 0 0 1 4 4 0 0 0-1 0s.3.2.7.5a8.9 8.9 0 0 0-1.8-.2s.2 0 1.3 1.1a3.7 3.7 0 0 0-1 .1l-.4-.2.1.7a7 7 0 0 0-1.5-.6 2.3 2.3 0 0 1 .4.7 6.1 6.1 0 0 0-1.9-.5 5.3 5.3 0 0 0 .9 1.5H83.6c-.2 0-.3-.2-.3-.2a2 2 0 0 1 0 .3 6.7 6.7 0 0 0-1.5 0 7.6 7.6 0 0 0 .4-1.7s0 0-.5.4a3.1 3.1 0 0 0 .3-1.2s-.4.4-.9.8a8.4 8.4 0 0 0-1.2 0Zm3 11.6-.3-.2a1.3 1.3 0 0 1 .1.4 2.4 2.4 0 0 0-.2.2s.1 0 .2 0a3.9 3.9 0 0 0 .1.6 5 5 0 0 0-.6-.2 3.3 3.3 0 0 0 .6 1.4 5.5 5.5 0 0 0-.7.4l-.7-.5a8.5 8.5 0 0 0-.3-1.2 2 2 0 0 0-.1-.2 6 6 0 0 0 1 0 5.1 5.1 0 0 0-.8-.8 3.3 3.3 0 0 0 1-.1s-.3-.2-.7-.5v-.4a1.7 1.7 0 0 0 .3 0 1.5 1.5 0 0 0 .7.3 3.5 3.5 0 0 0 .6.7l-.2.1Zm3.6 6a2 2 0 0 0 0-.3V91.7Zm.7 1a4.8 4.8 0 0 0 .2-.8 3.3 3.3 0 0 0 .3.5l-.5.3Zm1.3.2v-.1l.3.2a2.4 2.4 0 0 0-.3 0Zm8.4-1.3Zm2-.2-.2-.2a1.7 1.7 0 0 1 0 .5 3.9 3.9 0 0 0-.3-.5l-.2.4a4 4 0 0 0-.6-.8 1.3 1.3 0 0 1 0 .5 3.5 3.5 0 0 0-.7-.8 3.5 3.5 0 0 0 0 .7c-.5-.3-1.3.2-1.3.2l.7.2a2.1 2.1 0 0 0-.5.2l-.3-.2a5.6 5.6 0 0 1 .1.8h-.2a4.2 4.2 0 0 0-.4-.4 1.3 1.3 0 0 1 0 .5l-.4.1.4.2v.2a1 1 0 0 0 0 .2 4 4 0 0 0-.6-.2 3.5 3.5 0 0 0 .3.7 2.2 2.2 0 0 0-.6-.1s.1.1.4.4v.3a3.8 3.8 0 0 0-.6-.3 3.5 3.5 0 0 0 .1.7 2.2 2.2 0 0 0-.6-.3s.1.2.2.5a4 4 0 0 0-.8-.5c.2.3 0 .4.3 1a1.4 1.4 0 0 0 .1 0 4 4 0 0 0-.6.1 3.5 3.5 0 0 0 .5.5 2.2 2.2 0 0 0-.7.1s.2.1.5.3v.3a1.2 1.2 0 0 0-.2 0v-.3l-.7.7a3.3 3.3 0 0 0 0-.9s-.3.4-1 1a1.3 1.3 0 0 0-.1.1 2.4 2.4 0 0 0 0-.6l.4-.3a1.6 1.6 0 0 1-.3 0V96l-.2.2a4 4 0 0 0-.5 0 5.3 5.3 0 0 0 1.4-1 4.6 4.6 0 0 0-1.5-.2v-.3h.5a1.5 1.5 0 0 1-.4-.3 3 3 0 0 0 0-.3s-.1 0-.2.2a4.2 4.2 0 0 0-.6-.5 5.7 5.7 0 0 0 .7-.3 5.7 5.7 0 0 0-.7-.4 4 4 0 0 0-.1-.9 3.4 3.4 0 0 0 .4.3 5 5 0 0 0 .4.5l.2-.4h.2a1.3 1.3 0 0 1-.2-.1 3.2 3.2 0 0 0 .1-.7 3 3 0 0 0 .8.2s-.2-.2-.4-.5a6.7 6.7 0 0 0 1.2.5s0-.1-.7-1a2.8 2.8 0 0 0 .7 0l.3.2a5.2 5.2 0 0 0 0-.5 5.3 5.3 0 0 0 1 .7 1.7 1.7 0 0 1-.1-.6 4.5 4.5 0 0 0 1.2.7 4 4 0 0 0-.3-1.2h.2l.2.2a1.3 1.3 0 0 1 0-.4 2.5 2.5 0 0 0 .2-.1s0 0-.2 0a3.8 3.8 0 0 0 .1-.5h.1v-.2a5.2 5.2 0 0 0 .4.4v-.4a6.2 6.2 0 0 0 2 .2 3.2 3.2 0 0 0-.3.7 3.5 3.5 0 0 0 1-.5 1.3 1.3 0 0 1-.2.5 4 4 0 0 0 .8-.5v.4a3.8 3.8 0 0 0 .5-.4 1.7 1.7 0 0 1-.2.6s.1-.1.3-.2a2.2 2.2 0 0 0 .5.2l-.7.1a2 2 0 0 0 .7.4H99a2.3 2.3 0 0 0-.3.1s.3.2.6.4a2.2 2.2 0 0 0-.5 0Zm12.2 6.7a3.3 3.3 0 0 0 .2-1 2.7 2.7 0 0 0 .2.3v.1h.1a1.1 1.1 0 0 1 .1.2v-.3a1.5 1.5 0 0 0 .5-.3.8.8 0 0 0-.1.2l-.2.7a4 4 0 0 0-.8.1Zm1 0a1.9 1.9 0 0 0 .2-.3v.2h-.2Z"/><path fill="#73bf44" d="M86.3 98.7c18.2 0 35.6-16 34.7-34.7a35.3 35.3 0 0 0-34.7-34.7c-18.1 0-35.5 16-34.7 34.7a35.3 35.3 0 0 0 34.7 34.7Z"/><path fill="#73bf44" d="M76 103.8c12.8 0 12.9-19.9 0-19.9-12.7 0-12.7 19.9 0 19.9Z"/><path fill="#73bf44" d="M77.1 109.5c5.7 0 5.8-9 0-9-5.7 0-5.8 9 0 9Z"/><path fill="#73bf44" d="M77.1 110.4c5.7 0 5.8-9 0-9-5.7 0-5.8 9 0 9Z"/><path fill="#73bf44" d="M77.1 112.5c5.7 0 5.8-9 0-9-5.7 0-5.8 9 0 9Z"/><path fill="#73bf44" d="M77.1 114.4c5.7 0 5.8-9 0-9-5.7 0-5.8 9 0 9Z"/><path fill="#73bf44" d="M77.1 115.4c5.7 0 5.8-9 0-9-5.7 0-5.8 9 0 9Z"/></svg>