<svg xmlns="http://www.w3.org/2000/svg" viewBox="0 0 150 150"><path fill="#73bf44" d="m90 27 2-1v1a1 1 0 0 0 0 2l1 1 1 1 1 1-1 1v1l-1 2 1 1a2 2 0 0 0 0 2l-2 1 1 1a4 4 0 0 0 1 0 1 1 0 0 1 0 1h-1a2 2 0 0 1 0 3l-1 2h2a1 1 0 0 1 1 0l-1 1h-1a2 2 0 0 1 1 3v1l1-1a1 1 0 0 1 1 0 4 4 0 0 1-1 0l1 1v1l-1 1a5 5 0 0 1 0 1v2l2 1 3-1a8 8 0 0 1 1 0v1l-1 2 1 1h-1 1a2 2 0 0 1-1 1l-1 1h1a2 2 0 0 0 0 2v1l-1 1v2h1v4l-1 2v1a2 2 0 0 1 1 0v1l-1 1a1 1 0 0 1 1 0c0 2 0 2 2 1v-1h-1l1-1c1 1 1 0 2-1l-1-1a1 1 0 0 1-1-1h2a1 1 0 0 0 0-1s0-1 0 0l1-1 1-1v3l1 1h-1 2l-1 2c0 1 0 2-1 1l-2 1v2a2 2 0 0 1 1 0v1h2l-3 1h2v2h1a1 1 0 0 0 0-2 4 4 0 0 1 0-1l1-1v1h3a2 2 0 0 1-1 1h-1c-1 1 1 1 1 1l1 1-2 1a1 1 0 0 0-1 0 1 1 0 0 0 1 1h1v2h1l-1 1a6 6 0 0 1-1-1v1a5 5 0 0 0 1 0v1c-1 1-1 1 1 2-1 0-2 0-1 1a2 2 0 0 0 1 2h1l-1 1-1 1a1 1 0 0 1 1 0v1l-1 1v2a2 2 0 0 1-2 0 1 1 0 0 0 0 1c-1 0-2 0-1 1h-2l-1 1v1h1l1-1a38 38 0 0 1-3 4v1h-1l-1 1v2l-2 1v1a2 2 0 0 1 1 1c-2 0-2 0-1 1a5 5 0 0 1 0 1 1 1 0 0 1 0 1 1 1 0 0 1-2 0l-1-1-1 2v2h-1l1 1h-1c-2-1-1 0-1 1h-2l-8 8-6 5a4 4 0 0 0-2 4l1 8-1 1h-4l-1-1v-9a4 4 0 0 0-1-2l-2-3-1-3a4 4 0 0 0-1-2 34 34 0 0 1-9-9c-1-1-1-2-2-1v-2l-5-5a3 3 0 0 0-2-2 1 1 0 0 1-1 0l1-1a1 1 0 0 0 0-1h-1v-1l-1-2h-1v-2a1 1 0 0 1 1-2v-1l-1-1h-1l1-1a3 3 0 0 1-2-2 2 2 0 0 1 2 1h1l-3-3-1-1 3 2v1-2h-1l-1-2-1 1a3 3 0 0 0-3-2v-1h1l1-1 1-1v-1h-1l-1 1v-2h-1l1-1h-1l-1-2a1 1 0 0 1 1 0l-1-1c1-1 1 0 2 1l1 1h2l-1 1 1 1h-1l1 1h-1a1 1 0 0 0 1 1l1-1v1s-1 0 0 0c0 1 0 0 0 0a2 2 0 0 1 3 0v-1h1v1-1a1 1 0 0 1 1-1h-1v-1l-1-1a6 6 0 0 1-1-3 20 20 0 0 0 3 4l-2-4-1-1v1l-1 1-1 1v-1a1 1 0 0 1 1-1v-1a4 4 0 0 1-1 1v-1h-1l1-1v-1h-1v1-1l-1-1c1-1 2-1 1-2a1 1 0 0 1 1 0l2 2 1 1v-1l1 1a1 1 0 0 1 1 1h2v-1h-1l1-1s0 1 0 0a8 8 0 0 0-2 0 2 2 0 0 1-2 0l2-1h2v-1h-1l-1 1v-1a1 1 0 0 1 1-1l1-1-1-1a1 1 0 0 1-1 0h1v-1a1 1 0 0 0-1 0h-1s-1 0 0 0a2 2 0 0 0 1-2l-1 1a1 1 0 0 1 0-1l-1-1v-2l-1-1h-1l1-1a1 1 0 0 1 0-2h1v1l1-1a3 3 0 0 1 1-2v-2l1 1 1-1 1 1v1-6l-1 1 1-3h1a3 3 0 0 1 0 2v2l1-1 1-2h1l-1-1h1a3 3 0 0 0-1-2v-1a2 2 0 0 1 1 0v-1a1 1 0 0 1 0-1l1 1-1-2-1-1h1l-1-1 1-1v-3l-2 1a4 4 0 0 1 2-1q1 1 2-1l-1-1v-2l1-1-1-2s-1 0 0 0l1-1h-1c2 0 2 0 1-2a16 16 0 0 1 0-1h2v1h1l1-1-1-1v-2h1v-1a2 2 0 0 1-1-1h1v-1a2 2 0 0 1-1 0v-1a3 3 0 0 0-1 0l-1-1h1l1-1h-1l-1-1h1l1-1a5 5 0 0 1-1 0h-1l1-1a1 1 0 0 0 0-1v-1l2-1a2 2 0 0 1 0-2v-1l-1 1-1-1 1-1a1 1 0 0 1-1-1 6 6 0 0 1 1-1l1-1a1 1 0 0 0-1 0V6l1-2v1a1 1 0 0 0 0 1V5l1-1-1-2 1 3V3h1l1 1h1a1 1 0 0 1 0 1l-1 2a2 2 0 0 1 3-2V4h1l1-1 1-1 1-1c0-1 0 0 0 0h1a2 2 0 0 0 2 1 3 3 0 0 0 1 0h-1a4 4 0 0 1 1-2v1a3 3 0 0 0 1 0l1 1v1l2 1a1 1 0 0 1 2 0 1 1 0 0 1-1 2 1 1 0 0 0-1 0 5 5 0 0 1 1 1v1l-1 1 1 1a1 1 0 0 1 1 0l-1 1h1l1-1v1a2 2 0 0 1-1 1c0 1 0 1 0 0h1a1 1 0 0 1 1 0v1l1 1-1 1h1v1a3 3 0 0 0 2 1v2l2-1h1v2h-1v1h-2v1l1 2a1 1 0 0 1 1 0h-2l2 3h2Zm-37 89a1 1 0 0 1 0-1v-1h-2l1-1-1-1a1 1 0 0 0 0-1v-1a1 1 0 0 0-1 1v1a6 6 0 0 1-1 0l4 4Zm-8-23 1-1a1 1 0 0 0-1 0l-1-1h1l1-1a2 2 0 0 0-2 1 1 1 0 0 0 0 1 6 6 0 0 1 1 1Zm56-9 1 1 1-1v-2h-1a4 4 0 0 0-1 1v1Zm-51 26a3 3 0 0 0-2-2 4 4 0 0 1 1 3h1v-1Zm-3-27a5 5 0 0 0 0 2h1v-1h1l-1-1a3 3 0 0 1-1 0Z"/><path fill="#73bf44" d="M96 51a1 1 0 0 0-1 0 6 6 0 0 0 0-2 2 2 0 0 1 0-1 4 4 0 0 0 0-1l-1-3c1 1 1 0 2-1a13 13 0 0 0 1-1l1-1h1a1 1 0 0 1-1 1l-1 1v1l1-1a5 5 0 0 1 0 3v2l-1 1-1 2ZM108 75h-1v-2a1 1 0 0 1 0-1h2v-1l1-1h1a1 1 0 0 1 0 1h2a3 3 0 0 1 0 2l-1 1a6 6 0 0 1-1-1v1h-2v2h1-1l-1-1ZM89 15h1-1v2a3 3 0 0 1-1-1h-1v-1h2ZM101 87c4 0 4-6 0-6s-4 6 0 6ZM51 112c3 0 3-6 0-6-4 0-4 6 0 6Z"/><path fill="#73bf44" d="M52 114c4 0 4-6 0-6s-4 6 0 6Z"/><path fill="#73bf44" d="M53 116c4 0 4-6 0-6s-4 6 0 6Z"/><path fill="#73bf44" d="M54 117c4 0 4-6 0-6s-4 6 0 6Z"/><path fill="#73bf44" d="M53 115c4 0 4-6 0-6s-4 6 0 6Z"/></svg>