<svg xmlns="http://www.w3.org/2000/svg" viewBox="0 0 150 150"><path fill="#73bf44" d="M77 150h-5l1-10v-9l1-9h4v9l-1 9v10ZM27 41l-1-1 1 1Z"/><path fill="#73bf44" d="M136 107v-1l-2 1-1-2h-1l1-1h-2v-2l-1 1-1-1-1 2h-1l-1 1-1-1-1 1h-2l1-1 2-1h-2l2-2h-1l1-1-1-1 2-1h-2l2-2-1-1h-1l2-2h-2l1-1h-2l1-1-1-1 1-1h-2v-4l2-1h-2l2-1v-2l-2-1h2v-1l2 1 1-2h2l2-1-1-1h2l-1-2h1l2-1-1-1 1-1-3-1 1-1-2-1 3-1-2-2 1-1-1-1 3-1-1-1h2l-1-1 2-2h-1l3-3-3-1 2-2h-3v-1h-1v-2l-1 1v-3h-1l3-3h-3l1-3h-1l-1-1-1 1-1-1 1 2-2-1-2-1v-2h-2l1-2h-3l1-1h-1v-1l-2-1 1-1-4-1 1-1h-3v-1l-2 1v-2l-1 1-1-2-1 2-1-1v2l-5-1 2-2-2-1 2-1-2-1 2-1-3-1 2-1h-3v-2l-2 1 1-2-3 1v-2l-1 2-1-1h-2l1-2-1-1 2-1h-3v-2l-2 1-1-1-1 1h-1l2-2h-1l2-1h-2V8l-2 1h-2l-1-1-1 1V7l-1 1V6h-1V4l-2-1 1-1h-2V0l-2 1V0l-1 2-1-2v2l-3 1-2-1v2l-1-1-2 1-1-1-1 1V2l-1 1-1-2v1l-2-1v2l1 3h-2l2 2h-1v2l-1-1 2 3h-1v1h2l-2 1 1 2h-2l1 2h-2l1 1h-2l-1-2-1 1-1-1-1 1-1-2-2 1-1-1-1 1-1-1v1l-1-1v3l-1-1 1 2h-1l1 1v2l-1-1-1 1-1-1v2l-1-1v1l-1 1 1 2h-2l2 2h-1v1h1v1h1l-1 1v1h-1v1h-2l1 2-1-1-1 1-1-1-1 1v-2l-1 1v-1l-2 1v-1l-2 2 2 1h-3v1l-1-2-1 2v-1 3a5 5 0 0 1 0 1h-1v2l-1-1-1 1-1-1-1 2 1 2h-1l2 1-1 1h2l-1 1 2 1h-1l1 1-1 1v1l-1-1v1h-1l1 1-1 1 1 1 1 1 1-1v1h1l-1 1h1l1 1h-2v2l-2-1v1l-2-1-1 1-1-1-1 1h-2l1 1v1l-1 1 1 1h1v2h1v1l2-1-1 1 2 1h-1v2l-2-1 1 1-2 1 3 1-1 2h1l-1 2 2-1-1 2 3-1-1 1h3l-2 2h1l-1 1 1 1v1h2l-1 1h1v2l2-1v1h2l-1 1 2 2h-2v1h-1l-1 2-2-1v1l-1-2-1 2-1-2-1 1-1-1h-3v-1l-1 1-1-1-1 2-1-2 2 4-3-1 1 2-1 1 1 1-2 1 1 1h-2l2 1-1 1h1v1h1v1h3l1 2 1-1 1 2 1-1v1l2-2v1l1-1v1l1 1h-1v2l-2 1 1 1-1 1h1l-1 2h2l-1 2h1v1h1v1h1v2h1v1h1v1h1l1 1 1-2v1l1-1v2h1v1h2l1 1 1-1 1 2 1-1 1 1 1-1v2l2-1 1 2 1-1 1-2 1 1 2-2v1l1-1 1 2 1-1v2h1v1l2-1-1 1h2v-1 2h1v1h2v1l2-2v2-2h2-1l2-1v1h1l1-1v2l1-1h2v-1l2 1v-2 1-1h1v1l2-1 1 1 1-1h1v-1l2 1v-1l1 1h-1l1 1-1 1h2v1l2 1v-3l2 2v2l2-1v1l1-2a4 4 0 0 1 1 0v-1l1 1 1-1v2l1-1v2l2-1 1 1 1-2v-2h1l-1-1h1v-1l2-1v-1h1v1l1 1v-2h2v-1h-1l1-2h-1 1l-1-1 3 1 1-1v2l1-1 1 1v1h1l2 2v-2h4l1-1 1 1 1-1 2 1v-3l2 1-1-2 2 1v-1l2 1v-1l1 1v-2l3 1 1-2 2 1-1-1h3l-1-1 2-1-1-1 1-1h-2l2-1-1-1 2-1Z"/></svg>