<svg xmlns="http://www.w3.org/2000/svg" viewBox="0 0 150 150"><path fill="#73bf44" d="M79 150h-9l1-5v-5l1-7c0-2 8 0 8 0l-1 5v12Z"/><path fill="#73bf44" d="m145 52-3-1 2-1-4-1 2-3-4-2 1-1v-2l-2-1 3-5-2-1v-2h-3l-1-4h-2v-2h-2l1-2h-3v-2h-1l-1-1-1-1v-2h-4v-2h-3v-4h-3l-4-2-3-1v2l-3 2v-3l-2-1-1 1h-3v1l-1 2-3-1 1-2-1-1 1-3h-2l1-3-3-2-4 1h-3v2h-3v2l-3 1v1h-5V7l-4-2 1-1V3l-1-1-1-2h-7l-1 3h-2v1h-3v1l-2 1V3l-3-1-1 2h-3v2l-1 1-2-1-1 1-1 1v1l-2 3 1 1-1 1 1 3h-2v1h-1l-3-2-1 3-3-1 1 3h-3v3l-1 1 1 2-2 1-2-1 1 4h-2v2h-1v2h-2l-1 3-1 1v3l2 2-2 1 2 2h-2v3h-3l-1 1 2 1v2h-2v1h-3l3 5-2 1v2l-2 1 1 3H9l1 1v2H8v3l-1 2h2l-1 3H7v2H5l1 2h3l-1 1v2l-2 1 3 2-2 1 2 1-1 1 1 1-1 1 1 1v1l1 1-1 1 2 1-1 1-2 2h1l1 1-1 3 5-1-1 1h4l-1 1v2l1 2-1 2-2-1v3h3v1l2 1v1l2 1-2 1 1 2 2-1 1 1 1 1v1h1v1h4v2l1-1 1 1 1-1 1 2v1l2-1v2h2v1h1v1l-1 1 1 1 1 1-1 1 3 1h2l1 1 1-2 3 2h3l1 1h2v1h2v2h2v1h1v1l1 1 2-1h1l-1-1h1l1-1 1 1 1-1 1 1h1v1l1 1v-1l1 1h2v-1 1h1v-1h1v1h2l6 1h1v1h4l1-1h1v-1h4l-1 2h3l1-1h-1l1-1h1v-1l1 1v-2h2v-1h2v-1l1 1v-1h3l2-1 1 1h1l1-1h3v-1l1-1-1-1h1l-1-1 1-1v-1h2v-2l1 1 1-1v-1h3l1-2h2l1-1h1l1-1v-1l2 1 1-2h-1l1-1v-2h2v-1h3v-3l-2 1-1-2 1-1v-2l-1-1h3v-1h4v-3h1l-2-2v-1l1-1-1-1h1v-1l1-1h-1l1-2-1-1 2-1-2-1 2-1-1-1v-2h-1l3-1 1-1h-2v-2h-1l-1-3h2l-1-2v-2h-1v-1l2-2-1-2h2l1-2-1-1v-3l-1-1v-2h-2l-1-2h-1l-3-2 5-2v-2l2-1v-2h3v-3Z"/></svg>