<svg xmlns="http://www.w3.org/2000/svg" viewBox="0 0 150 150"><path fill="#73bf44" d="M93.3 150s-.7-10.3 2.5-12.3a9.8 9.8 0 0 0 4-5.6l-1-.2s-1.5 3.1-4 4c-2.4.7.7-5.5.7-5.5l-3.6-.8a87.7 87.7 0 0 0-1.2 9.5 95.8 95.8 0 0 0 0 10.9ZM87 150s0-10-4.3-14.7l1.6-1.4s2.3 3.5 3.1 2.3c.9-1.1 1.2-5 1.2-5h1.7a17 17 0 0 1-1.7 7.2c-1.8 3.3.5 5.2.6 11.6ZM77 132.9a33.2 33.2 0 0 1 5.7 17.1h2.8s-1-12.3-6-18.6Z"/><path fill="#73bf44" d="M69 134.2s5.9 3.5 6.5 15.8h3.8l.4-17.7h-2.9l-.5 7.2c-.2 2.5-3.6-7.2-3.6-7.2Z"/><path fill="#73bf44" d="M135.5 81.7a31.7 31.7 0 0 0-3.6-3.1 6.2 6.2 0 0 0-.9-.6 25 25 0 0 0 3.2-2.2 20.6 20.6 0 0 0-4.2-1 13.3 13.3 0 0 0 3.2-2.6s-1.4 0-3.5 0l-1.1-1.1a6.3 6.3 0 0 0 1.2-1.1c4.9 1 10.8-6.3 10.8-6.3a28.9 28.9 0 0 0-8 .8 30 30 0 0 0 1.1-7.2s-.2.2-1.8 2a12.4 12.4 0 0 0 .8-4.8s-1.2 1.2-3 3a13 13 0 0 0 .3-3l2-1a10.4 10.4 0 0 1-3.2-1 23 23 0 0 0 3.3-1.1 24.3 24.3 0 0 0-2-1.4 24.6 24.6 0 0 0 5.1-2.5 8.2 8.2 0 0 1-2.8-.7 21.1 21.1 0 0 0 5.8-3.5 18.3 18.3 0 0 0-5.7-1.2l.2-1h1.6a5.9 5.9 0 0 1-1.5-1.2 10.7 10.7 0 0 0 0-1.2s-.2.2-.6.6a17.6 17.6 0 0 0-2.3-2 23.7 23.7 0 0 0 2.8-.9 15.5 15.5 0 0 0-6.4-3.3 27.4 27.4 0 0 0 2-5 29.8 29.8 0 0 0-7 3.9 29.7 29.7 0 0 0-1.8-7.1s0 .3-.8 2.5a9.3 9.3 0 0 0-.3-1.8l.2-.2h-.2a13.7 13.7 0 0 0-1-2.7s-.4 1.3-1.2 3.3a18 18 0 0 0-3.4.7 8.3 8.3 0 0 0-1 .3 23.7 23.7 0 0 0 .2-4 21.4 21.4 0 0 0-3.4 2.7 13.5 13.5 0 0 0 0-4s-.8 1-2.2 2.7l-1.6.2a7.3 7.3 0 0 0 0-1.7c3.7-3.2 1.8-12.3 1.8-12.3a29.4 29.4 0 0 0-4.3 6.7 30.8 30.8 0 0 0-5-5.3s0 .3.4 2.6a12.3 12.3 0 0 0-3.3-3.5s.2 1.7.5 4.2a13.2 13.2 0 0 0-2.2-2.2l.5-2c-1.3 1.2-1.8 1-3.6 2.2a23.7 23.7 0 0 0 .8-4.3 23.2 23.2 0 0 0-2.1 1.1 24.7 24.7 0 0 0 0-5.6 7.8 7.8 0 0 1-1.9 2.2 21.1 21.1 0 0 0-.6-6.7 20 20 0 0 0-3.3 4.1 23.9 23.9 0 0 0-1.3-2.5c-.2 2-.7 2-1.4 4.9a13 13 0 0 0-.8-1.4s-.4 1.7-1 4.1a11.5 11.5 0 0 0-2-2.4 26.7 26.7 0 0 0-.4-4.4 29.4 29.4 0 0 0-4.5 6.7 30.2 30.2 0 0 0-4.9-5.6s.1.4.5 3.2c-2-1.7-5.5-2-5.5-2L64 8.6a34 34 0 0 0-.2 4.7 7.5 7.5 0 0 0 0 1 23.4 23.4 0 0 0-2.9-1l-.9-.6.6 3.4-1 1.4a7.6 7.6 0 0 0-1.2-1.1c.2-5-7.9-9.7-7.9-9.7a29.5 29.5 0 0 0 2 7.8 30.7 30.7 0 0 0-7.3 0s.3.2 2.3 1.5a12.5 12.5 0 0 0-4.9 0s1.5 1 3.5 2.5a12.4 12.4 0 0 0-3 .1l-1.3-1.7a10.5 10.5 0 0 1-.6 3.3 23.9 23.9 0 0 0-1.5-3.2l-1.1 2.2a24.4 24.4 0 0 0-3.3-4.6c.3 2.2-.4 2.2-.4 6a6.2 6.2 0 0 0 .3 2.2A13.5 13.5 0 0 0 33 22s1.1 1.5 2.5 3.9a31.8 31.8 0 0 0-.7 4.7 5.7 5.7 0 0 0 0 1 24 24 0 0 0-3.6-1.4 20.9 20.9 0 0 0 1.4 4.1 13.1 13.1 0 0 0-3.8-1.3s.8 1.1 1.9 2.9l-.3 1.4c-2.6-3.9-10.7-4.8-10.7-4.8a29.6 29.6 0 0 0 5 6.2 30.2 30.2 0 0 0-6.7 3s.3 0 2.7.4a12.4 12.4 0 0 0-4.5 2s1.8.3 4.3 1a13.1 13.1 0 0 0-3.4 1.7s2.3.4 5.5 1.2a4.8 4.8 0 0 0 1 .1 10 10 0 0 0-2.5 1.2l-1.6-.5a5.6 5.6 0 0 1 .7 1.2l-.8.7h1.2a15.4 15.4 0 0 0 .7 1.9 21 21 0 0 0-6.4-2.2 18 18 0 0 0 2.7 5l-.9.6-1.1-1.2a6.2 6.2 0 0 1 .1 1.9 10.2 10.2 0 0 0-1 .8s.4 0 1 0a17.7 17.7 0 0 0 0 3 23.3 23.3 0 0 0-2.6-1.5 15.6 15.6 0 0 0 1.6 7 27 27 0 0 0-5.2 1.6 29.4 29.4 0 0 0 7.5 3 31.1 31.1 0 0 0-4.3 6s.3-.2 2.5-1a12.6 12.6 0 0 0-2.8 3.9s1.7-.7 4.4-1.4A31.7 31.7 0 0 0 21 80a9.2 9.2 0 0 0 1 .3 24 24 0 0 0-2.4 3.1 16.2 16.2 0 0 0 6.8-1 19.3 19.3 0 0 1 1.9 1.6 24.1 24.1 0 0 0-3.6-.2l1.4 2a24.6 24.6 0 0 0-5.5.7c1.5.6 1.7 1.1 3 2l-.5.3a19.3 19.3 0 0 0 4.7 2.4 25.5 25.5 0 0 0-2.2 1.8 6.2 6.2 0 0 1 2.1 0l-.3.4 4.2.1a11.6 11.6 0 0 0-2 2.5 27.3 27.3 0 0 0-4.1 1.2c4.2 2.4 7.3 3.3 9.5 3.4a22.9 22.9 0 0 0-1.4 2.3 22.8 22.8 0 0 0 2.4-.2 25 25 0 0 0-2.3 5.2 8 8 0 0 1 2.6-1.3 21 21 0 0 0-2.2 6.4 21.1 21.1 0 0 0 4.2-2 25.7 25.7 0 0 0-1.8 2.8 29.3 29.3 0 0 0 7.6-2.4 29.7 29.7 0 0 0 .2 6 14.5 14.5 0 0 0-.6 2s1.6-1 4-2.4a34.6 34.6 0 0 0 4.7.8 8.5 8.5 0 0 0 1 0 24.8 24.8 0 0 0-1.5 3.6 21 21 0 0 0 4.2-1.4 13.3 13.3 0 0 0-1.4 3.9s.9-.6 2.3-1.5a26 26 0 0 0-1.9 6.6 33.5 33.5 0 0 0 5.2-3.8 29.5 29.5 0 0 0-2 8.6s.3-.3 2-2a12.3 12.3 0 0 0-1 4.8s1.4-1.3 3.4-3.1a33.2 33.2 0 0 0 4.8-.1 6.2 6.2 0 0 0 1-.2 23.8 23.8 0 0 0-.8 3.8 20.6 20.6 0 0 0 3.8-2 13.2 13.2 0 0 0-.6 4s1-1 2.5-2.4a25 25 0 0 0 4.6-.1 5.3 5.3 0 0 0 3.2-1.4 24.7 24.7 0 0 0 0 2.6 29.3 29.3 0 0 0 5.3-6 30 30 0 0 0 4.1 6.1s0-.3 0-2.6a12.5 12.5 0 0 0 2.7 4s0-1.7.2-4.3a13.4 13.4 0 0 0 2.2 3s0-1.4.2-3.5a24 24 0 0 0 1.2 2c0-1.8.5-2 .9-4.1l1.7.6a27.5 27.5 0 0 0 2.2 3.7 8.1 8.1 0 0 1 .6-3l1.7.4-.7-1.2a27.2 27.2 0 0 0 4.7 1.1l-1.6-2.4-.4-2a30.7 30.7 0 0 0 6.7 1.2s-.2-.2-1.9-1.9a12.5 12.5 0 0 0 4.8 1s-1.3-1.4-3.2-3.5a32 32 0 0 0 0-4.8 6.7 6.7 0 0 0-.3-1 24.2 24.2 0 0 0 3.9.9 21.9 21.9 0 0 0-2.1-3.9 13 13 0 0 0 4 .7s-1-1-2.4-2.6V114a7.3 7.3 0 0 0 1.7.2c2.6 4.2 12 3.7 12 3.7a29.3 29.3 0 0 0-6-5.3 30.4 30.4 0 0 0 6-4.1s-.3 0-2.6 0a12.5 12.5 0 0 0 4-2.7s-1.8 0-4.3-.2a13.3 13.3 0 0 0 2.5-1.8l2 .8c-1.1-1.5-.8-2-1.9-4.3a21.6 21.6 0 0 0 6.1-2.4 20.8 20.8 0 0 0-4-1.8 13 13 0 0 0 3.6-1.9s-1-.1-2.7-.5a26 26 0 0 0 5.9-3.6 33 33 0 0 0-6.4-.7 29 29 0 0 0 7.2-5s-.3 0-2.7.2a12.5 12.5 0 0 0 4-2.9s-2 0-4.7 0Z"/><path fill="#73bf44" d="M94.4 135.7c7.7 0 7.7-11.9 0-11.9-7.6 0-7.7 12 0 12Z"/></svg>