<svg xmlns="http://www.w3.org/2000/svg" viewBox="0 0 150 150"><path fill="#73bf44" d="M85.6 150h-5.8a36.5 36.5 0 0 1-.3-5.5c.1-2.4.2-6.3-1.8-8.3s-5.2-2.4-7-5.5c-1.8-3-2.3-7.1-4.7-8.1l1.5-1.2a11.7 11.7 0 0 1 3 5.2 8.7 8.7 0 0 0 4.2 5.5c1.6 1 4.4 2.9 3.7-.2a39 39 0 0 1-1-6.9c-.3-2-3.5-4.9-4.8-7.4l1.3-.5s3.1 4.5 1.5-.8h3.8s.4 5.4 1 8.2c.5 2.8 1.4 4 1.4.7l.1-9 3.2.3-.3 7.4c-.1 2.2-1.1 6.5-.1 5.6a9.7 9.7 0 0 0 3-6 30.8 30.8 0 0 0-.3-6.9l1.4.2s.2 4.2.8 2.1c.6-2 .4-2.3.4-2.3l1.4.4a43 43 0 0 0-1.7 5.6 32 32 0 0 1-2 6.2c-.8 2.4-3 3-3.2 4.5a26.1 26.1 0 0 0 .1 8.3 41.8 41.8 0 0 1 1.2 8.4Z"/><path fill="#73bf44" d="M74.5 121.7h.1c.3.3.9 1-.8.7-2-.3-1.4-.7-1.4-.7l.2 1.1-.9-.7.4 1.1-.7-.2.6 1.4-1.2-.7.6 1.3-1.6.7.1 1h-.7v1.8L68 128l-.2 1.3-1.2-.7-.8.7-1-1.3-.2.6-1-.9-.3.7-1-1-.7 1-1.2-1-.3 1-1-.8-.3 2.1-.2 1.7-1.7-1-.3 1-.9-1-.6.9-.4-.7-1 1-.9-.4-.2 1.2-1.2-.5-.8 1.7-1.1-.7-.5 1.3-1.2-1-1.3.9-.4-1.4h-1.6l-.5-1.7h-1.3v-1l-.8.7-.2-1-.8.6-1.2-1.3-1.2.6-.5-2.3h-1.5v-1.9l1.6-.9-1-1.3h2l-.5-1.2 1.5-.4-.9-1.8 1.6-1-2-1.4-1.1 1.4-1-.9-.5 1.6-1.5-.9-2.6-1.7v-1.3l-1.5-.6.4-.5h.5l.4-1 1 .7 2.1-1.8-1.4-.9 1.6-.8-1.3-.9-1-1.8v-.8l-1.5 1.4-.8-.5v1.3l-1.5-.3-.6-1.2s-.5 3.7-1 1.7l-.6-1.9-1.9-.1.7-1L24 105l1.4-.7-1-.8 1-.6-.8-1.8.3-.5h-1.4l-.7-2.8H24l-1.6-2 .6.1-.7-1.7 1.2.7-.2-1.3 1.1.5.9-2 .6.2-.8-1.2 1.2.1-.4-1.4h1.5l-1.5-1 .7-.8-2-.3v-1.9l.5-.5s-2 1-1.5-.3l.6-1.5-1.4.2-.5-1.2-.6.8-.7-1.1-.3.6-1.6-1.1-1 .3-.5-1.7 1.2-.4-1.7-1 .8-.2-1.5-1.6.8-.5-.6-.8 1-.2-1.1-1.6 1.3-1.4-.9-1.3 1.2.5V71l1.3-.2-.3-1.7-1.6.2-.8-1.3v-.2l-1.1.2-.7-1.5.4-.9.9.3.6-2 .5.2-1-3.6.9.7.6-1.2 1.6 1.5.1-1.2 2.4.5-1.2-1h1.4l-.4-1.8-.6.1.7-2-1.4.3.5-1.5h-1.6l1.5-1.2-1.7-1.8 1.7.2-1-2.5 1.6.7-1.1-3h.9l1-.7-.9-2s1.5 3.2 1.2 0l-.3-3 .9 1L24 41l1.6 1.6.6-1 1.3 2.2 2.8-.4-1.8-1.8 1.3.2-.7-1.7.4-3.6 1.3 1 .4-1.3 1.6 1.5.3-1 .6.7 2-2.8-1.7-.7.6-.3-1.6-1.8-.6-.9.8-.5-1.9-.9 1-.7-1-2.1 1.3.9v-2l2.4 1.6.8-1-1.2-1.2s2.4 2.5 1.4 0l-1-2.7 1.3.6.2-.7.4-3s1.9 1.8 1.8.8v-.9l1.5 2.4 1.6-.2 1-1-1.8-.6.7-2L40 17l1.5-1-1.7-1.5 1.8-.2-1.2-2V10l1.4-.3-.1-2L43.3 9V4.7l1.3.8.8-2 1.6.9.4-.2 1.4 2.5h.7L48.9 9l1.6.1 2.2 1.2-1-2.5 1.5-1.7 1.5 1-1.2-3s.3 2.3 1 .3l.6-2 1.4.5 1.8-.8.5 2 1.1-.6-.8 2.6 2.6 1 .7-1-.2-.5 1.8-.6V2.8l1.4.7.7-1.4 1.7-.3-.5-1.8 2.2.6L71 0l.8 2.4 1.8-1.2.1 1.6 2.2-.4-.6 1.3 2 .6-.8 1.5 1.8 1.3L77 8.3l1 1-.5 2.6 2.4-1.7 2.3 1.4L81 8l1.8 1V8l1.4.2-.6-2.2L85 7l.8-1.4L87.1 7l.3-2.2s1.5 2.5 1.8.6l.2-2 .8 1.7 2-1.2.3 1.2 2.5-.2-.7 1.8 2 1.4-.3 2 1.2.4-1.7 1 .7 1 1.8 1.8.2-1.4 1.2 1.1-.5-2.5 1.9 1 .8-1.6.7 1.4 1.2-.8 1.3 1.9.9-.4.6-.5.5 1.8 2.1-.8-.3 1.6 2.4-.2-.7 1.4 1.3.7-.2 1.3s2.2-.4 1 .7l-1.3 1.1.4.7 2.5 1-.2-1.5 1.1.7.7-1.2 1.2 1.5 1.7-1-.7 2 2.2.4-1 1.7.5 1-.7 2.6 1.5.2-1 1.4.6.6s-2.1.3-1.3.8l.8.6s-2.2.8-.6 2.2l1.7 1.3.5-1.7.1-1.3 1.3.5.5-1.7s-1.3 2 .9.6L126 30s-3.1 2.7-.6 2.3l2.6-.4-.4 1.2 2.5.5-.7.8 1.9 1.1-.2 2.8.8.7-1.1 1.4 1 1-1.7.7.7 1s-1.2 1.3-.7 1.9l.5.6-.4 1-1.4.7-.3.6-1.7-.9.2 2-2.7.4 1.4.7s-1.6 1.7-.7 2l.9.1 1.4.3-1 1.7 1.5.7 2 .3-1.2 1.3 1.9.2-.3 1.7 2-.8.5 1.1 1.8-1.4.5 4.8-3 .1 1.2 1-2.2.2 2.3 2.2-2 1 2 .5-2 2.2-.5 2.9-3.7.6 2.2 1.5-2 .4.8 1-2.2.7.8.6.1 2 1.6-.1 2-1.5.3 1.5 2.4 1-.4 1.3 1 .7-1.5 1.4 2 .4-2 1.9 2.1 1.4-4.3 3.6-1.8-1.1-.3 1.1-1.7-.1.8 1.8-3 .3 1.3 2-2 .7.7 1.4-1 3-2.2.1.8 2.2-2.4-1.5-1.8.8-2.6-1.4-.4 1.9-2.5-1.1-.9 1.6-3.8.7.1 1.5 1.6 2 1.8 1.2-1.7.6 1.9.8-1.7 1 1.2 2-.6 1.4 2.8 1-3 1.3 2.2 1.4 1 2.5-5 2.5.6 2.5-2.5-.4.4 2.8-2.8-2.2-2.4-1.6-2 2.2-.7-2.4-2.3 2-1.1-2.2-1.3.4-1.5-1.9v.2L91 121h-.3l-1.6-.2s.3 1.5-.8 1.1l-1-.3-.5 1-.6.7-1.3.8-.7 1-1-.5-1 .2-1.3-1s.5 2.4-.4.3l-.9-2.1-.7.3-.8-.2-1.4 1.6-.2-.8-.4-.7-.6.4"/></svg>