<svg xmlns="http://www.w3.org/2000/svg" viewBox="0 0 150 150"><path fill="#73bf44" d="M74 37.8a89.5 89.5 0 0 1-5.9 27.5s3.4-16.8 6-27.5ZM66.3 62.8s2.2-20.2 4.3-28.4c0 0-1.7 20.2-4.3 28.4ZM64.6 33s3 19.4 0 27.6V33ZM60 30.7s4.6 16.2 2.8 28.2c0 0-2.3-21-2.8-28.2ZM56.8 28.4s5 20.1 3.9 28.2c0 0-2.6-16.7-4-28.2ZM58.6 54.4S58 40 53.2 30c0 0 2.5 10.7 5.4 24.5ZM56 52.3s.4-7.5-5.4-21.4c0 0 2.1 10.3 5.5 21.4ZM53.4 50s-.4-8-5.6-18.7A186.7 186.7 0 0 0 53.4 50ZM51.2 48.6a47.6 47.6 0 0 0-7.5-19s5.2 12.4 7.5 19Z"/><path fill="#73bf44" d="M48.7 47s.2-9-9.2-18c0 0 6.7 8.5 9.2 18Z"/><path fill="#73bf44" d="M46.2 45.8a26.4 26.4 0 0 0-11.3-18.1 48.8 48.8 0 0 1 11.3 18ZM31.7 28.6s8.2 4.6 12.3 16.2a65.8 65.8 0 0 0-12.3-16.2Z"/><path fill="#73bf44" d="M41.5 43.7s-4.9-12.8-15.1-14.5c0 0 8 2.7 15 14.5Z"/><path fill="#73bf44" d="M39 42.8S33 31.5 22.6 30.3c0 0 8.8 2.8 16.4 12.5Z"/><path fill="#73bf44" d="M35.8 42S29.4 31.2 18 30.8A36 36 0 0 1 36 42Z"/><path fill="#73bf44" d="M33 41.5s-9.5-10-19.4-10c0 0 8.6 1.6 19.3 10Z"/><path fill="#73bf44" d="M29.7 40.7s-8-7.4-18.9-7c0 0 8.5.8 19 7Z"/><path fill="#73bf44" d="M26.5 40.7S17.2 33.9 8 36.4c0 0 7.8-.8 18.4 4.3Z"/><path fill="#73bf44" d="M6.8 39s7.1-3.2 17.3 2.1c0 0-11.4-3.6-17.3-2.1Z"/><path fill="#73bf44" d="M4.3 42.2a17.4 17.4 0 0 1 16.7-.6s-8.8-2-16.7.6Z"/><path fill="#73bf44" d="M18 42.3s-5.6-2.1-14.9 2.4c0 0 10.5-2.7 15-2.4ZM14.5 43.7S8.6 43 1.2 48c0 0 10.1-4.2 13.3-4.3Z"/><path fill="#73bf44" d="M11 45.4s-5 .4-11.1 8.3c0 0 9-7.3 11-8.3Z"/><path fill="#73bf44" d="M89 127.1h.9c.6-7.3 0-16.1-3.5-26.6-11.5-34.8-29.2-53.4-51-59 0 0-10.6-4-24.7 4 4-2.1 13.8-6.4 24.2-3.4 13.5 4 21.7 9.1 30.5 20.1 6.7 8.2 25.8 39.1 23.6 65Z"/><path fill="#73bf44" d="M49.6 44a102.6 102.6 0 0 1 4 25.3S51 54 49.5 44ZM51.7 68.1s-4.3-17.6-5.2-25.3c0 0 4.6 17.4 5.2 25.3ZM42.3 44.3S49.6 59 50 67.1l-7.7-22.8ZM38.8 44.6s7.4 11.2 9.6 22c0 0-7.3-16.4-9.6-22ZM36 44.2s9 14.2 10.4 21.4c0 0-6.3-12.5-10.3-21.4ZM44.5 64.8S40 53 34.2 47c0 0 4.6 7.6 10.3 17.7ZM42.3 64.2s-1.9-6.4-9.5-15.1c0 0 4.3 7.5 9.5 15.1ZM40 63.6A40.6 40.6 0 0 0 31 50.7 145.4 145.4 0 0 0 40 63.6ZM38.1 63.4s-3.6-7.7-10-12.2c0 0 6.7 7.8 10 12.2ZM36.1 63.3a18.3 18.3 0 0 0-10.8-10.6A36 36 0 0 1 36 63.3Z"/><path fill="#73bf44" d="M34.2 63.4s-3.7-8.7-12.2-9.7c0 0 6.2 2 12.2 9.7ZM20.2 56s6.5-.1 12.3 7.6a37.5 37.5 0 0 0-12.3-7.7Z"/><path fill="#73bf44" d="M30.6 63.9s-6.6-8.4-13.6-5c0 0 5.8-1.5 13.6 5Z"/><path fill="#73bf44" d="M28.8 64.3s-6.9-6.7-13.9-2.8c0 0 6.4-1.7 13.9 2.8Z"/><path fill="#73bf44" d="M26.5 65s-7-5.9-14.4-1a18.4 18.4 0 0 1 14.4 1Z"/><path fill="#73bf44" d="M24.6 66s-8.7-3.9-15 .7c0 0 5.8-2.7 15-.7Z"/><path fill="#73bf44" d="M22.3 66.8a15.8 15.8 0 0 0-14 3 28.6 28.6 0 0 1 14-3Z"/><path fill="#73bf44" d="M20.2 68.3S12.5 67 7.4 73.2a23.9 23.9 0 0 1 12.8-5Z"/><path fill="#73bf44" d="M7.3 76a14.6 14.6 0 0 1 11.6-6.3S10.7 72 7.3 76Z"/><path fill="#73bf44" d="M6.6 79.7S10 72.2 17 71.6a25.4 25.4 0 0 0-10.4 8.1Z"/><path fill="#73bf44" d="M15.3 73.5s-4.1.8-8.7 8.8c0 0 5.8-7 8.7-8.8Z"/><path fill="#73bf44" d="M13.5 76.3s-4 2-7.2 9.6c0 0 5.2-8 7.2-9.6Z"/><path fill="#73bf44" d="M11.7 79.3s-3 2.6-4.7 12c0 0 3.6-10.2 4.7-12Z"/><path fill="#73bf44" d="M84 134.1h1.3A55.8 55.8 0 0 0 75 90C58 66.6 41.5 59.4 26 64.8c0 0-7.8 1.6-14.5 14.7 2-3.6 7-11.6 14.4-14 9.7-3 16.3-2.4 25 2.5 8.6 5 42.4 32.7 33 66.1ZM110.4 65.6a74.1 74.1 0 0 0-2.1 18.4l2-18.4ZM109.6 83s2.6-12.7 3-18.3c0 0-2.8 12.6-3 18.4ZM115.7 65.6s-4.9 10.8-5 16.6l5-16.6ZM118.2 65.7s-5 8.3-6.3 16.1l6.3-16ZM120.2 65.4s-6 10.5-6.9 15.7c0 0 4.2-9.2 6.9-15.7ZM114.7 80.5s2.8-8.6 6.9-13.1l-7 13ZM116.2 80s1.2-4.7 6.4-11.2c0 0-2.8 5.5-6.4 11.2ZM118 79.5a29.2 29.2 0 0 1 5.9-9.5 105.6 105.6 0 0 1-6 9.5ZM119.2 79.3a25 25 0 0 1 7-9.1s-4.7 5.8-7 9ZM120.7 79.1a13.2 13.2 0 0 1 7.5-7.9 26 26 0 0 0-7.5 8Z"/><path fill="#73bf44" d="M122 79.2s2.5-6.4 8.6-7.4c0 0-4.4 1.7-8.5 7.4ZM132 73.4s-4.7.2-8.7 5.9a27 27 0 0 1 8.6-5.9Z"/><path fill="#73bf44" d="M124.7 79.4s4.5-6.2 9.6-4c0 0-4.2-1-9.6 4Z"/><path fill="#73bf44" d="M126 79.6s4.7-5 9.9-2.3c0 0-4.6-1.1-10 2.3Z"/><path fill="#73bf44" d="M127.6 80.1s5-4.4 10.4-1a13.3 13.3 0 0 0-10.4 1Z"/><path fill="#73bf44" d="M129 80.7s6.2-3 11 .1c0 0-4.4-1.7-11 0Z"/><path fill="#73bf44" d="M130.7 81.3a11.4 11.4 0 0 1 10.1 1.7 20.5 20.5 0 0 0-10-1.7Z"/><path fill="#73bf44" d="M132.2 82.3a10.4 10.4 0 0 1 9.4 3.2 17.3 17.3 0 0 0-9.4-3.2Z"/><path fill="#73bf44" d="M141.8 87.5a10.6 10.6 0 0 0-8.5-4.2s6 1.4 8.5 4.2Z"/><path fill="#73bf44" d="M142.4 90.2s-2.6-5.3-7.7-5.6a18.4 18.4 0 0 1 7.7 5.6Z"/><path fill="#73bf44" d="M136 86s3 .4 6.5 6c0 0-4.4-4.9-6.6-6Z"/><path fill="#73bf44" d="M137.3 87.9s3 1.4 5.5 6.7c0 0-4-5.6-5.5-6.7Z"/><path fill="#73bf44" d="M138.7 90s2.2 1.8 3.7 8.5c0 0-2.9-7.2-3.7-8.5Z"/><path fill="#73bf44" d="M138.8 90.2c-5.2-9.3-10.9-10.2-10.9-10.2-11.3-3.5-22.9 2.1-34.5 19.4-11.6 17.3-5.9 33.4-5.9 33.4l.9-.5C79.9 108.1 103.9 86.8 110 83a20 20 0 0 1 18-2.5c5.3 1.5 9.2 7.1 10.7 9.7ZM102.7 42.9a93.2 93.2 0 0 0 1.8 23.2s-1-14.1-1.8-23.2ZM105.9 64.7s0-16.5-.7-23.5c0 0-.4 16.3.7 23.5ZM109.2 41.7s-3.4 14.4-2 21.6l2-21.6ZM112.4 41.2s-4.2 11.4-4 21.3c0 0 3.1-15.9 4-21.3ZM114.7 40.2s-4.9 14.4-4.7 21.1c0 0 3-12.3 4.7-21ZM111.5 60.2S113 49 117 42.4l-5.4 17.8ZM113.4 59.2s.3-6 5.2-15.3c0 0-2.2 7.5-5.2 15.3ZM115.3 58.2a36.8 36.8 0 0 1 5-13.2 132.6 132.6 0 0 1-5 13.2ZM116.9 57.6s1.6-7.6 6.3-12.8c0 0-4.3 8.3-6.3 12.8ZM118.6 57.1a16.6 16.6 0 0 1 7.4-11.6 32.5 32.5 0 0 0-7.4 11.6Z"/><path fill="#73bf44" d="M120.3 56.8s1.5-8.4 8.8-11c0 0-5 3-8.8 11Z"/><path fill="#73bf44" d="M131.1 47.3s-5.7 1.3-9.2 9.3a34 34 0 0 1 9.2-9.3Z"/><path fill="#73bf44" d="M123.6 56.5s4.1-8.7 11-7.3c0 0-5.5 0-11 7.3Z"/><path fill="#73bf44" d="M125.3 56.4s4.7-7.2 11.7-5.3c0 0-6-.2-11.7 5.3Z"/><path fill="#73bf44" d="M127.4 56.7s5-6.7 12.6-3.9a16.7 16.7 0 0 0-12.6 3.9Z"/><path fill="#73bf44" d="M129.3 57s7-5.1 13.5-2.4c0 0-5.8-1.2-13.5 2.5Z"/><path fill="#73bf44" d="M131.5 57.3a14.3 14.3 0 0 1 13-.3 25.8 25.8 0 0 0-13 .3Z"/><path fill="#73bf44" d="M133.6 58.2s6.6-2.8 12.4 1.7a21.7 21.7 0 0 0-12.4-1.7Z"/><path fill="#73bf44" d="M146.7 62.3a13.3 13.3 0 0 0-11.5-3.1s7.7.3 11.5 3Z"/><path fill="#73bf44" d="M148 65.5s-4.4-6-10.8-5a23 23 0 0 1 10.8 5Z"/><path fill="#73bf44" d="M139 61.8s3.9-.1 9.7 6c0 0-6.7-5-9.6-6Z"/><path fill="#73bf44" d="M141.3 63.9s3.9 1 8.4 7c0 0-6.4-6-8.4-7Z"/><path fill="#73bf44" d="M143.5 66.2s3.1 1.6 6.6 9.5c0 0-5.3-8.2-6.6-9.5Z"/><path fill="#73bf44" d="M127.8 56.4C113 54.8 100 64.6 89.9 88.7a51.3 51.3 0 0 0-1.3 37.8l.7-.8c-11.2-26.5 11-55.4 17.2-61.3 6.6-6.2 12.3-8 21.5-7.4 7 .5 13.1 6.5 15.6 9.3-8.6-10.1-15.8-9.9-15.8-9.9ZM89.5 73.1S83 62.8 71.3 61.6c0 0 11.4-.6 18.2 11.5Z"/><path fill="#73bf44" d="M73.7 57.3a59.2 59.2 0 0 1 15.8 13.8 32.1 32.1 0 0 0-15.8-13.8ZM76.8 50.5s10.1 11.3 13 18a43.6 43.6 0 0 0-13-18ZM75.8 53.7s5.5 2.1 13.7 15.4c0 0-8.3-11.5-13.7-15.4ZM79.8 45.7s7.4 9.2 11 18.7c0 0-9.3-15.4-11-18.7ZM78.8 47.8s7.3 9.4 11.6 18c0 0-9.1-12-11.6-18ZM81.6 41.2s4.6 13.7 9.7 20.4c0 0-7-16.3-9.7-20.4ZM83.3 36.5s3.7 14.4 8.7 23c0 0-6.3-18.8-8.7-23ZM85.8 35s3.5 15.3 7.4 21.4c0 0-5-16.3-7.4-21.4ZM87.2 32.5s3.3 14.4 7.2 20.6c0 0-5.2-17.3-7.2-20.6ZM89.5 31.9s2.4 12.7 6.2 18.6c0 0-4.4-15-6.2-18.6ZM92 29.5S92.6 39.7 97 48c0 0-3.5-15.2-4.9-18.5ZM98.3 45.2s-4-10.1-3.8-17.4c0 0 3.4 12.8 3.8 17.4ZM96.4 25.4s.4 9.6 3.8 17c0 0-2.2-13-3.8-17ZM99.3 22.8s-.2 11 2.5 17.6c0 0-.8-12.8-2.5-17.6ZM102.3 23.8s-1 8.2 1 14.8c0 0-.2-11.3-1-14.8ZM104.5 20.7s-1.7 8.5.5 15.8c0 0 .1-13.1-.5-15.8ZM106.7 22.8s-1.2 6.8 0 12c0 0 .5-9.4 0-12ZM108.3 33.7s-.3-8.4.6-11.8a48.2 48.2 0 0 1-.6 11.8ZM110.6 20.4s-1.2 7.1-.3 11.5c0 0 1-6.6.3-11.5Z"/><path fill="#73bf44" d="M125.3 28.3s-14.4-2.6-25.1 14c-10.7 16.7-21 52-14.4 76.4h1a86.4 86.4 0 0 1-.4-35.7c4-19.3 11.2-54.1 39-54.7Z"/><path fill="#73bf44" d="M125.1 28.3a40 40 0 0 1 7.8 1 14.6 14.6 0 0 0-7.8-1ZM124.9 28.2s2.2-1 6.5-.5c0 0-4.1-1.5-6.5.5ZM112 31.2s-1-6 1.6-10.5c0 0-.4 4.7-1.6 10.5ZM114.6 22s-1.6 4.6-1.1 8.6c0 0 1.5-5.6 1.1-8.7ZM116.8 21s-2.6 4.6-1.6 8.8c0 0 1.6-6.2 1.6-8.7ZM118 22.2s-2 4-1.2 7.2c0 0 1.5-4.8 1.2-7.2ZM118.3 28.8a7.4 7.4 0 0 1 1.4-5.3 24.2 24.2 0 0 1-1.4 5.3ZM119.4 28.6s0-4 3.7-4.8a7.1 7.1 0 0 0-3.7 4.8Z"/><path fill="#73bf44" d="M120.4 28.4a4.4 4.4 0 0 1 3.6-3.6 15.5 15.5 0 0 0-3.6 3.6ZM126.1 25.4a4.5 4.5 0 0 0-4 2.9s2.3-2.3 4-2.9ZM127.7 26.1s-3 0-4.5 2.2c0 0 3-2 4.5-2.2ZM79 63.2s6.2-12.4 18.4-14.6c0 0-12 .1-18.4 14.6Z"/><path fill="#73bf44" d="M94.5 43.8a64.2 64.2 0 0 0-15.6 17s4.5-11.6 15.6-17ZM90.7 36.2S80.9 50 78.4 57.8c0 0 3-12.3 12.3-21.6Z"/><path fill="#73bf44" d="M92 39.9s-5.7 2.7-13.3 18.6c0 0 8-13.8 13.3-18.6ZM87.1 30.8S80.1 42 77 53.2c0 0 8.6-18.4 10.1-22.4ZM88.4 33.2s-7 11.3-10.8 21.6c0 0 8.6-14.6 10.8-21.6ZM85 25.8S81 41.8 76.2 50c0 0 6-19.3 8.6-24.2ZM82.8 20.5s-2.8 17-7.5 27.1c0 0 5.3-22 7.5-27.1ZM80 19S77.5 36.8 74 44c0 0 4-19 6.1-25.1ZM78.3 16.2S76 33 72.3 40.5c0 0 4.2-20.4 6-24.3ZM75.9 15.6s-1.6 14.9-5.2 22c0 0 3.6-17.6 5.2-22ZM73 13.1s.2 11.7-3.7 21.6c0 0 2.5-17.8 3.7-21.6ZM67.6 31.6s3.5-12 2.7-20.3c0 0-2.6 15-2.7 20.3ZM68.1 8.7s.4 11-2.7 19.7c0 0 1.3-15 2.7-19.7ZM64.8 5.8s1 12.8-1.3 20.5c0 0 0-14.8 1.3-20.5ZM61.8 7.3s1.6 9.3.1 17c0 0-.7-13-.1-17ZM59.2 3.8s2.5 9.6.6 18.2c0 0-1-15-.6-18.2ZM57 6.3s1.9 7.8 1 14c0 0-1.3-10.9-1-14ZM56.2 19s-.4-9.6-1.6-13.4A60.8 60.8 0 0 0 56.2 19ZM52.7 3.9S54.5 12 53.9 17c0 0-1.6-7.5-1.2-13.2Z"/><path fill="#73bf44" d="M37.8 14s15-4 27.6 14.4c12.6 18.4 26.1 58.4 21 87h-1A108.5 108.5 0 0 0 83 74.3c-5.6-22-16-61.6-45.2-60.3Z"/><path fill="#73bf44" d="M38 14a38.8 38.8 0 0 0-8 1.6 14.3 14.3 0 0 1 8-1.6Z"/><path fill="#73bf44" d="M38.3 14s-2.4-1.2-6.9-.2c0 0 4.2-2 6.9.1ZM52.1 16.4s.7-7-2.5-12c0 0 .8 5.4 2.5 12ZM48.6 6s2.1 5.2 1.9 9.8c0 0-2-6.3-2-9.8ZM46.2 5.1s3.1 5 2.4 10c0 0-2.2-7.1-2.4-10ZM45 6.5s2.4 4.6 1.9 8.2c0 0-2-5.4-1.9-8.2ZM45.3 14a9.1 9.1 0 0 0-2-6 29.7 29.7 0 0 0 2 6ZM44 14s-.2-4.6-4.2-5.3A8 8 0 0 1 44 14Z"/><path fill="#73bf44" d="M43 13.8a5 5 0 0 0-4-3.9 17.3 17.3 0 0 1 4 4ZM36.7 10.8s2.9-.4 4.6 3c0 0-2.7-2.5-4.6-3ZM35.2 11.7s3.2-.2 4.8 2.1c0 0-3.3-2-4.8-2.1ZM78 96.6s10.2 14.4 4.2 49.6h19.3s-16.8-25.7-9.7-37.3l-4-3a24.4 24.4 0 0 1-8.2-9.3Z"/></svg>