<svg xmlns="http://www.w3.org/2000/svg" viewBox="0 0 150 150"><path fill="#73bf44" d="M77 150h-9.6a5.6 5.6 0 0 1 .1-2.3 7.7 7.7 0 0 0 .8-2.6c.1-1.2.3-3.4 0-4a2.8 2.8 0 0 1 0-2 6.5 6.5 0 0 0 .3-3.5 5.1 5.1 0 0 1-.4-2.5 9 9 0 0 0 0-3.3 5.5 5.5 0 0 1-.2-2.8 18.4 18.4 0 0 0 .4-4.4l-.2-7.7h6.2v7l.3 6.2c0 3 0 4.7.2 6.3a11 11 0 0 0 .5 3.3 2.9 2.9 0 0 1 .3 2.1 9.7 9.7 0 0 0-.1 3.8 4.8 4.8 0 0 0 .9 2.7 3 3 0 0 1 .5 2 3.9 3.9 0 0 0 0 1.6Z"/><path fill="#73bf44" d="m68.7 130-1.4 1.5-1.4.3-.3-.6-1 .3-.9-1 1.1-.6-.7-.8.6-.7-.3-1.2.6-1.4-1.6.1-.9.7.8 1.2-.9.9-.1 1.3-1.4.2-.6 1.1-1.9-.2-.8 1.5-1.3-.1-.5.7-1.6-.4-2.1.7-1.4-.8v-1.3l-1.8-.2-.3 1.2h-2.2l-.6.8-1.6-.2-.6.6-1.5-.7-2.3-.7.4-1.4-2.2-.8-.1-2.1-2.1-.8 1.2-3-1.5-1.5-2.1.2-3-1.5-2.1-.3-.9-1.4-2.7.5-1.3-1 2.3-1 .8-1.4-2.9-.3-1-2.1 1.6-1.1 2.5.2-.8-1.1-3.5.2-1.8-.9-4.6-.8-.4-1.5 1.2-.3-.6-1.5.8-1.2 2.6-1.1-2.6-.6-3.1.8-1.4-1.7 1-2.7 2.1.2 1.6-1.1 4.9-.1 1.1-1.2-1.5-1.5-3.1.8-1.6-.4-1.2.7-1-1.6H13l-.7-1.4-1.5-1.1 1.2-2 3.1.6 2-.8-1.6-.7-.7-2.4 1.9-.5 2.9 1.1-.3-2.3-3.1-1.5-.4-2.5 3.1-.5-.4-2.1-2.4-.6-1.1-1.8-1.9-.4-.2-2.5 2-.1 3.7 1.5.1-1.9-1.9-1.1-1.2-3.1h2.9l.6-1.9 3.3.8 1.3-1.2 3.3.4 2.9-1.4-2.6-1.7-2.5.1-3.3-1.4 1.9-1.7-2.4-1.4-.1-1.7-1.1-2.6 3.4.2 4.3 1.5 1.4-1.6-1.9-1.9-3.1.2-2.2-1.4 1.5-1.3-3.5-.2-.7-1.4 1.4-.9-3.3-1.2-.3-2.7 2.7.1 4.8 2.5.2-2.1-2.7-2.2.4-2.4 2 .7 1.4-2.6 5.5 4.5.2-3.2 4.6 1.8-2.4-3.5 1.2-1.3 2 1-.3-2.5 1.1-.4v-3.2l1.5-1.4 2.1 1.3.3-2.5-.4-2 1.6-2.5 2 2.1 1.7.6-.4-3.6 1.7.2.2-3.2h2.3l1-1.4 2.6.9v-1.8l2.8.5-.4-2.3 1.3-.5.2-1.8 1.1-2 2.2-.3 1.8 1.3.5-1.5-.6-1.5.7-1.4-.7-2.1 2.3-1 3.2 1.3.9-1.7-.8-2 1.3-.6.1-2.4 2-2.1 2.7 1.7 1.7-.7 2.8 2.4-.4 2.1 1.6-.1 1.2 1.8-.5 2 1.7.6.7 3.9 2-2 2.8 1.3 1.1-1.9 2.4 1.3 1.1 3.3 2.1-1.3 2.5 2.4 1.5-.6 5.1 4.2-.2 2.5 1.2.5 1.5 2.7-.6 1.1 2.6-.1 1.9 2.3.3 2.7 2.7-.3.2 2.6-.8 1.3 1.6.9 1.6-.6 1.5 2.8-.9 2.8h3.4l1.2-1.7 2.1 3.4-2.2 3.9 2.2.3 1 2.1 1.8-.9.7 2.2-1.2 2.3 2.3-.3 1.2 3.1-1.2 2.6 1.7 1.3-1.3 2-2.2.6.3 1.9-3.9.5-.2 2.1 4.5-.9 4 1.1 3.2-.9.5 2.1-3.1 1 2 1.3-2.4 2-1.6.2.1 1.1-1.4.9-1.9.7 2 .9-2.1 1.3h-2.1l.4 2.4 3.1-.2 1.9 1.9-2 2.7 5-1.3 1.5 1.1 2.9-.7 1 1.8-3.2 1.8-.2 2.1-3.2 1-1.4 2.3 3.5-.6.1 2.1.7 1.7-4.5 1.6 1.3 1.3 3-.8-.8 2.5-5 1.1 1.6 1.7 5.3-1.2.9 2.3-1.8 1.5 5.4-.6v2.3l-5.4-.1-.8 1.7-3.2.3 2.4 2.6-3.9.4 3.7 2-1.2 1-4.4.5.9 3.8-3.9.8-1.4 3.1-2.6-.5-.1 1.4-4-1.3v2.1l-1.8.4-1.6-1.2-.7 3-2.7.4-2.6-.7-3.9 2.6-5.7-1.2-3.8-.8-3.1 1.7-4 .4-3.3-.4-1.5 1.2-3.3-.2-2.9.6-4-.9-1.7-.4z"/></svg>