<svg xmlns="http://www.w3.org/2000/svg" viewBox="0 0 150 150"><path fill="#73bf44" d="m91.9 126 .2-.7c-.2-.1-.4.2-.6 0-.2-.3.3-.3.2-.6-.2-.9-.2-1.8-1.2-2.2-.3-.1-.2 0-.4 0a3.8 3.8 0 0 1-1.3 1.1c-.2 0 0 .3 0 .4-.2.2 0 .8-.5.9-.6 0-1-.2-1-.8a1.6 1.6 0 0 0-.7-1.1 5.8 5.8 0 0 0 .6 2.5c.1.3.5.5.2.7-.3.2-.7 0-.8-.2a17.4 17.4 0 0 0-2.4-1.9c-.3-.2-.5-.7-1.1-.4-.2 0-.5-.6-.5-.8a4.2 4.2 0 0 0-1.2-2.2c-.2-.2-.5-.5-.2-.8a1.7 1.7 0 0 0 .2-1.8c-.3.2 0 .5-.2.7a3 3 0 0 1-.4.5c-.4-.3-.3-.6-.2-1 0-.2 0-.4-.4-.4s-.4 0-.2.4c.1.3-.4.3-.5.3-.2-.1-.7 0-.6-.6a2.2 2.2 0 0 1 0-.3c-.6.3-1.5.3-2 1 .6.1 1 .3.7 1-.1.6.4.7.8 1a24.2 24.2 0 0 1 3.5 2.7c-.2.3-.4.1-.5 0a2.5 2.5 0 0 0-1.3-.5 2.5 2.5 0 0 1-1.7-1.1c-.6-.7-1 0-1.4 0-.5.2 0 .6 0 .9a2.2 2.2 0 0 0 .1.3c-.6.4-.8-.8-1.4-.4-.4.3-1 .2-1.4.6 0 .2 1-.1.3.5-.2.1.2.3.3.6.2.8-.5.7-.5.6-.8-.5-1.6-.2-2.4-.5a1.9 1.9 0 0 1 .4 2.2c-.3.5-.4.6-1 .4-.3 0-.4 0-.4.5v2.6c0 3.7.6 7.3.9 11 .2 2.6.5 5.2 1 7.7.1 1.3 0 1.3-1.2 1.3h-7.1c-.7 0-1-.2-.9-1 1-5.4 1-11 1.7-16.5a46.3 46.3 0 0 0 .3-7.4c0-.3 0-.5-.3-.5-.6 0-.5-.5-.4-.8a4.3 4.3 0 0 1 .4-1c.2-.3.2-.5-.1-.6-.2-.1-.6-.3-.3.3a2.5 2.5 0 0 1-1.3 0c-1-.4-.1-.5 0-.7-.3 0-1 .5-.6-.5.2-.4-.5-.1-.7-.4-.2-.2 0 .2-.1.3 0 0 0 .2-.3.2-.6-.1-1 0-1 .5a15 15 0 0 0-.5 3.3 1 1 0 0 1-.9.8c-.2 0-.3.4-.6.3-.2-.3.2-.6.1-.9-.3 0-.4.4-.6.4-.4-.2.2-.6 0-.6l-1-.2c-.6.4-.4 0-.5-.2-.3-.5.1-.8.2-1.1.2-.6.7-1 .8-1.8v-.7c.4-.5-.1-.6-.3-.4-.4.4-1-.1-1.3.3-.2-.3 0-.5 0-.8-.2 0-.7.8-.8-.2h-.3c-.5.5-1.2.4-1.8.7-.2-.2 0-.4-.2-.6-.5.3-.9.8-1.6.5a.2.2 0 0 0-.3.2.6.6 0 0 0 .3.5 1.8 1.8 0 0 1 1 1v.6c-.3-.2-.4.3-.6 0a.4.4 0 0 0-.2 0c-.4 0-.7-.5-1-.2-.1.1 0 .6.1.9a1.4 1.4 0 0 1 0 .4c0 .2.2.5-.2.6-.3 0-.3-.3-.3-.6a11.6 11.6 0 0 0-.5-2c-.4 1 .1 1.9-.3 2.8a6.5 6.5 0 0 1-.4-2.4 1.5 1.5 0 0 0-.7-1.2c-.3-.2-.4-.6-.5-1a.5.5 0 0 0-.6-.2c-.2 0-.2.2-.3.4a4 4 0 0 0 0 1.2c.2 1.1-.4 2.2-.4 3.3l.1.8c0 .6-.1.7-.7.3l.3.7a1.2 1.2 0 0 0-1.2.2c-.1-.4.1-.6.1-.8-.3 0-.4.3-.7.2-.2-.3.2-.4.3-.7l-.6.1c-.1-.5.3-.6.5-.8-1 0-1.7-.3-1.7-.9-.2.8-1 .3-1.4.8-.2.1-.1.8-.7.5-.2-.2-.9.5-.6-.4 0-.3-.5 0-.7-.2 0-.4.5-.3.7-.6-.5-.1-1 .3-1.5-.2-.3-.3 0-.6.2-1-.6.5-.8.2-1-.1-.3 0 .4.8-.4.4-.3-.1-.4.2-.5.3-.6.4-.9.2-1.1-.5a5.3 5.3 0 0 1 0-2.5 4.3 4.3 0 0 0-.6-2 1.6 1.6 0 0 0-1.2.2c-.8.7-1.7.3-2.5.2a1.4 1.4 0 0 0-.9.2c-.2-.4 0-.6 0-.9-.3.3-.7.4-1 0h-.3c0 1-.8 0-.9.5-.2-.3 0-.5 0-.7-.2 0-.4.3-.5.2-.2-.5-.3-1-1-1 .2-.6-.1-.5-.5-.3h-.2c-.5-.7-.6-.7-1.1 0-.2.2-.5.7-.8.5-.1-.2-1 0-.4-.8-.4-.1-.7-.7-1.2-.1-.3-.4 0-.6 0-.8H23c-.4.2-.7.4-.9-.2 0-.3-.1-.2-.4 0-.4.2-.8-.1-1.2.2-.2-.3.2-.4.2-.6-.2-.4-.9.4-.8-.4 0-.2-.2 0-.3 0-.7.3-1-.3-1.4-.7-.1 0 0-.5-.4-.3-.3.1-.7 0-.7.5 0 .2.1.4 0 .4-.7-.2-1.1.4-1.8.4l.4.4c-.4.1-.8 0-1 .3-.3-.5.2-.5.1-.8-.3 0-.6.3-.9 0 0-.3.5-.3.7-.6a1.2 1.2 0 0 0-1.2.6 2 2 0 0 1-1.9 1c-.1-.3.2-.4.1-.7-.3 0-.5.7-.8.3a2.8 2.8 0 0 1-.4-1c-.2-.6.1-1.2 0-1.8-.6.2-1 .7-1.5 1-.7.4-1 .1-1.2-.6-.2-.5.2-1-.2-1.3l.3-.2c.7-.3.7-1 1.2-1.5l-.2-.3c-.6 0-.4-.5-.4-.8a2.9 2.9 0 0 1-2.6.5c-.1-.1-.2-.2-.1-.4a.8.8 0 0 1 .7-.6 13.5 13.5 0 0 0 2-.5c.3-.1.5-.2.5-.4s-.3-.3-.5-.4c-.4-.2-1-.1-1-.8l-.4.2c-.3 0 .5-.7-.4-.5-.1 0 0-.5-.2-.7-.1-.1 1.3-1 1.3-.9 0 .7.6.1.9.3a.7.7 0 0 0 1-.3c.1-.4.4-.8.2-1.4a2.6 2.6 0 0 1-.4-2c0-.1-.4-.4-.3-.8 0-.2-.1-.3 0-.4l.5.1 1.4 1c.2 0 .4.2.6 0a2 2 0 0 0 .2-.6c.3-.7-.6-1.2-.2-1.8.1-.2 0-.1-.2-.1-.4 0-.5-.5-.5-.6.4-1-.3-.6-.7-.6-.5 0-1.2.5-1.1-.6l-.4-.2c.4-.3.6 0 .8-.1 0-.3-.7-.5 0-.8.4 0 1.2-.2 1-.8-.3-.6-.9 0-1.3.1-.2.1-.4 0-.6.2-.1-.3-.6 0-.5-.2 0-.3-.3-.7 0-.9.2 0 .3 0 .3-.3-.1-.8 0-.8-.9-.7l-1 .1h-.2l2.5-.6a1.7 1.7 0 0 1-1.3-.6c.4-.2-.5-1 .7-.9-.5-.1-.8-.5-1.2-.2-.1 0-.5-.1-.6-.3-.1-.1.3-.2.3-.3-.2-.2-.4-.1-.5 0-.3 0-.6.4-.8 0-.2-.3-.6-.7-.2-1.2a.8.8 0 0 0 0-1 .4.4 0 0 1 .1-.5 1.6 1.6 0 0 0 .2-1.5c-.1.3-.2.4-.6.3-.3 0 0 .5-.5.4-.2-.3 0-.6 0-1-.4.2-.2.7-.6.8-.4-.2 0-.5-.2-.8l-.6.4a5 5 0 0 0 0-1.2c0-.1.4-.5.8-.5a7.1 7.1 0 0 0 2.2-.4c.1 0 .2-.5 0-.6a6.5 6.5 0 0 1-1.4-1.4c-.3-.4-.8-.1-1-.5-.2-.3-.3-.6-.2-.8.2-.4.4 0 .5 0 .2-.5.7.3 1-.1.2.7.9.2 1.3.5.1.1.5 0 .4.5v.2l.2-.2c.3-.6.1.6.6.2.2-.3.6 0 .6.5 0 .3 0 .6.3.7l.5.1a2 2 0 0 0-.2-1.2c-.2-.6-.4-1.1.7-1-.3-.1-.6 0-.8-.3l.1-.2H9c.7-.9.8-.9 2-.5.1 0 1-.8 1-1-.3-1 .3 0 .5-.2-.4-.5-.2-1 0-1.4.4-.7-.4-1-.6-1.7-.1-.2-.2-.2 0-.4.4-.1.4-.2 0-.4-.2 0 0-.2.1-.2.1-.1.7 0 .2-.4.1-.2.3-.7.1-.6-.5 0-1-.4-1.4 0A6.3 6.3 0 0 1 9 75c.9-1.2 2.3-1.9 2.8-3.3-.2-.2-.5 0-.8 0-.7.1-1-.2-.7-.8 0-.4.4-.9-.4-.8 0-.7-.3-.5-.6-.4a1.1 1.1 0 0 0-.5-.8l.6-.4-1-.2c.3-.3.8-.4.7-1 .4 0 .3.5.6.6.1-.2-.2-.5 0-.7.4 0 .4.3.5.4a1.8 1.8 0 0 0 .4-.5c.1-.6-.1-.9-.7-1a.8.8 0 0 0 0-1.2c-.3-.4-.7-.7 0-1.1l.5-.8c-.4 0-.6 0-.8.3a.6.6 0 0 1-.8.3c-.4-.2 0-.5-.1-.7-.1-.3.2-.8 0-.8a1.7 1.7 0 0 0-1.3 0c-.3.1-.3.2-.5-.2-.1-.4-.4.3-.6 0-.1-.2.3-.4.2-.7l-.7.4c-.2-.3.2-.7-.1-1 .4-.1.3-.7.8-.8a5.2 5.2 0 0 0 1.8-.4c1-.5 1.2-.6 1.6-2-.2-.1-.4.3-.6 0a1.7 1.7 0 0 0 .3-1c.3-.1.3.2.5.3 0-.2-.1-.7.5-.6.4 0 0-.5.3-.7.3-.2-.1-.8.3-1.1-.8-.1-.4-.7-.4-1a1.4 1.4 0 0 1 1-1.4c-.6 0-1-.4-1.6.1a.8.8 0 0 1-.8-.2c-.4-.5 0-.8.4-1a10.6 10.6 0 0 1 2-1 4.8 4.8 0 0 1 1.8-.4.8.8 0 0 0 .7-.6c.2-.5-.3-.4-.5-.6a1.1 1.1 0 0 1-.3-1 14.5 14.5 0 0 1 .6-2c.2-.5-.6 0-.5-.4-.9.1-.6-.5-.6-.9 0 0 .3-.2 0-.3-.7-.3-.8-.8-.4-1.4 0-.1.4-.2 0-.3 0 0-.4 0-.3-.2.1-.3.4-.2.7-.3-.2-.2-.6-.1-.8-.5a1.2 1.2 0 0 0 1-.8c.2-.6.7-.5 1.2-.5a1.1 1.1 0 0 0 .5-.2c.2-.1.1-.8.6-.3.1.1.2-.2.2-.3 0-.6.4-1.1 0-1.7 0-.2-.3-.7.1-1 .4 0 .6.2 1 .3.4 0 .4.2.6-.3.2-.2.5-.7.6-.4.2.2 1.1.2.6.8a3 3 0 0 1 2.4.7c.3 0-.2-1 .5-.3.2.2.2.1.2-.1-.2-.5.1-.7.6-.8-.9-.2-.4-.9-.5-1.4-.1-.5.7-.5.5-1a2.5 2.5 0 0 1 1.1 0c.7.3.7 1 .8 1.4.1.3-.2 1 .6.7.2 0 .1.2 0 .3v.3c1-.4.3.6.7.6 0 .2 0 .3.2.3a.2.2 0 0 0 .2-.3v-.7c.1-.5.1-.8.7-1 .5 0 .2-.9.8-1.1l-.8.2c-.2-.7 1-.8.7-1.6.9.5 1.9 0 2.8.3.2.1 0-.1.1-.2a14 14 0 0 1 1.4-.9 1.2 1.2 0 0 0 .4-1.9 2.5 2.5 0 0 0-1.3-1c0-.3.4-.3.5-.5-.3-.2-.6 0-.9-.2.3-.3.9-.4.4-1.3.8.8 1-.1 1.3 0 0-.8.5-.7 1-.7.4 0 0-.7.5-.9-.7.4-1 0-1.2-.4-.1-.2.2-.5.5-.6.4-.1 0-.3 0-.4.2-.9-.6-1.6-.5-2.5 0-.2-.4-.3 0-.4.1 0 .4-.3.6 0 .2.2.5 0 .6.2a.2.2 0 0 0 .3 0 .7.7 0 0 0 0-.4c-.3 0-.5-.4-.7-.5-.1-.1-.5 0-.3-.4 0-.3.1-.6.6-.3-.3-.7-1-.6-1.3-1-.2 0-.4 0-.4-.2.6 0-.4-.8.4-.9a2.2 2.2 0 0 1 2.1-.6c-.5-.4-.7-1-1.3-1.3-.3-.1-.4-.7-.3-1.1 0-.2.6-.4.8-.4a2.8 2.8 0 0 1 1 .4c.6.5.8.3.8-.4a10.7 10.7 0 0 1 .3-1.6c0-.4 0-.9.7-.9.4 0 .5-.6 1-.8.9-.5.5 0 .6.4.3 0 .1-1 .8-.3.5.6 1.4 0 1.5-.8v-.6c.5.3.8 0 1.1-.1v.4c.3 0 .3-.5.6-.5l.1.1a.5.5 0 0 0 .4.6.7.7 0 0 0 .8-.3 2 2 0 0 1 1.3-1 .8.8 0 0 1 1 .7c0 .4.5-.1.6.2 0 .3-.3.3-.4.5.4 0 0 .6.3.6s.4-.2.4-.5a1 1 0 0 1 .5-.7c.3.1 0 .4.2.6.2-.4.3-.7.8-.3.2.2.7.4.9 0 .1-.4.7-.8.2-1.1-.3-.3.2-.5-.2-.7.7-.3-.2-.3-.1-.6.1-.2.5 0 .7-.1a3.9 3.9 0 0 1-.6-.2c-.2-.1-.7-.2 0-.5.3-.1-.3-.3-.1-.5.2-.2.4.1.6 0 0-.2-.3-.3-.2-.5.5-.3 1 .2 1.6 0 .4-.2.3.3.6.6-.2-1.1.6-.8 1-.7.4 0 .6 0 .9-.3a1.5 1.5 0 0 1 2-.4c.5.2.9.3 1.2-.2.3-.7.9-1.4 0-2-.2-.3 0-.7-.3-.8.2 0 0-.8.6-.3.2 0 .8-.4 1.2-.3.2 0 .3 0 .4.2v.2c.5-.8 1 .2 1.5 0 .8-.5 1.3-.2 1.6.7.6 0 .4-1 1-1 .2 0 .4-.8.9-.5.5.2.4.8.3 1.3a2.2 2.2 0 0 1-.1.2c.8-.3.5.7 1 .8.1-.1 0-.8.6-.3.4.2 1-.2 1.7 0 .2.1.3-.6.4-.9.2-.5 1-1 1.4-.7a1.7 1.7 0 0 1 .6 1.8c0 .2-.3.5 0 .6.4.2.6-.2.8-.5A2.2 2.2 0 0 1 72.2 2l1-.2c0-.2-.4-.1-.3-.5a3.4 3.4 0 0 0 1-.3c.2.2.6.2.6.5 0 .2-.4.2-.1.4.2-.4.6.4 1 0a1.7 1.7 0 0 1 1.6-1c.3.1.3 0 .1-.3a.5.5 0 0 1 .4-.6 1.8 1.8 0 0 1 .6 0c-.4.3.6.4.2.8-.1 0 .2.5-.2.7.6 0 .4.6.6 1 .1.2.3.2.4.1.3 0 .5 0 .1-.3C80 2 80 1 80.6.8a1 1 0 0 0 .3-.1c.1-.2 0-.7.5-.4a.8.8 0 0 1 .5.7 5.4 5.4 0 0 1 0 .8c0 .4 0 .8.3.9.4 0 .7-.3.9-.7l.3-1c.1-.2.2-.6.6-.6a.5.5 0 0 1 .5.6c0 .7.7 1 1.1 1.4.3.2.5.3.3.7-.2.7.5.1.6.4-.1.3-.5.2-.7.4l.1.1c.6.2 1-.3 1.4-.4.2 0 .4-.6.7 0 0 0 0-.5.4-.5.2.2 0 .5.2.7.3-.1.2-.6.6-.8.3.3-.2 1 .6 1l-.9.3c.3.2.6 0 .8.4-.6.1-.7.7-1.1 1 .6.4 1.3 0 1.8 0 1-.1 1.2.2 1.3 1h-.5c.6.4.7 1 0 1.5l3.2-.5c0-.1-.4-.4 0-.5.6-.3 1.5 0 1.7.3.2.4-.3.2-.3.5.5-.1 1 .6 1.5.4a1.2 1.2 0 0 0 .8-1.3c.3 0 .4.3.7.3-.4-1.3.8-.1.9-.8l-.2.8c.2 0 .4-.3.7-.2-.3 1.5.9 2.8.4 4.3.6 0 1-.4 1.6-.2-.7.6-1.7 1-1.6 2.2.2 0 .7-.3.6.4 0 .3.4.3.5.3.4-.2 1 .3 1.2-.4a.8.8 0 0 1 1 0c.4.2.1.3-.1.5-.1 0 .2.5 0 1 .5-.7 1-.3 1.6-.4a.2.2 0 0 0 .1 0c.2-.4.2-.5.4 0 .2.2.6-.6.8 0 .2 0 .4-.2.5.3a.6.6 0 0 1-.5.7c-.5 0-.9.4-1.4.4a.8.8 0 0 0-.7.4 4 4 0 0 0 .9.5c.5.2.8-.4 1.2-.6.4-.3 1-.4 1.1 0a.8.8 0 0 1-.2.8c-.1.1-.2.2 0 .4.2.3 0-.2.2-.2.4 0 .9-.1 1.3.2.2-.3-.3-.4 0-.7.6.2 1.5 0 2.2.6.2-.1-.2-.4.2-.6.3 0 .2.5.4.7.3-.3 0-.7.3-1 .3.2.4.8 1 .6-.3.4-.6.4-.9.6h.8v.2c-.2.2-.3.7-.1.8.2.2.5.6 1 .3.2-.2.3 0 .3.2a4.5 4.5 0 0 1 0 .8c-.4 0-.4.2-.6.5-.1.3-.2.3.2.5a7.3 7.3 0 0 1 1.2.5c.5.3.5.8.6 1.3 0-.8 1-.5 1-1.2l.5.5c.2-.3 0-.6.2-.8.3 0 .2.4.4.7.3-.3 0-.7.4-1 .3.3.3.9.8.8 0 .4-.5.3-.6.5.1.2.5 0 .6.2-.2.5-.7.2-1.2.4 1.8 0-.1.7.3 1-.7.5-.5 1.5-1 2.1-.3.2.1.5.4.7a4.7 4.7 0 0 0 1.4.4c.4 0 1.2 0 .9 1l.3.4c-.2.2-.4-.1-.7 0 .3.3.2.7.2 1 0 .3-.2.9.4.8 0 .5 1 .3 1 1 0 .4 0 .7-.5.7h-1c-.3 0-.5.3-.5.6 0 .5.4.1.4.2a2.8 2.8 0 0 1 .5 1.3c.2.6-.4.4-.6.4-.3 0-.6 0-.7.3-.2.5.3.2.5.4.1.2.2.5.6.5a.4.4 0 0 1 .1.6c-.3.5-.9 1-.5 1.7-.4 0 0 .7-.7.6-.5 0-.5.8-.3 1.4 0 .2.4.3-.1.5-.3.1.2.9.6.9a2 2 0 0 1 .6.1c.3 0 .4.2.4.5 0 .2-.3.3-.5.2l-1.6-.2a3 3 0 0 1 .9 1.8c0 .6 0 1.6.9 2-.4.9.6.7.7 1 .4.7-.3.8-.6 1-.3 0-.3.2-.5.3-.2 0-.2.2-.1.4 0 .1.2 0 .4 0a4 4 0 0 0 1.6-.5c.5-.3.9 0 1.3-.2.2-.1.4.4.4.7 0 .4-.2.2-.3.1 0 .6-.8.5-1 .9a.4.4 0 0 0 .7.5c.5-.2 1 .7 1.6 0 0 0 0 .5.2.7l.3-.7c0 .6 1.3 0 .7 1 .4-.2 1-.7.8.2 0 .3.5.3 1 .2l-.5.5.6-.1s.1 0 0 .1c-.6 1.6.6.6 1 .6a1.5 1.5 0 0 1 1.3 1.2c.2 1 .7.4 1 .3a4.1 4.1 0 0 1 2.2-.8c.1 0 .6.2.6-.3.7 0 1.4-.6 2.1-.4.3 0 .4.1.2.3a.3.3 0 0 0 0 .4c.3.6.2 1-.5 1.3a12.8 12.8 0 0 0-1.2.6l-.2.3 2.4.1c.3 0 .8.1.3.6-.2.2-.2.3-.2.5.2.6-.3.7-.6.7a9 9 0 0 0-3 .1c1.3.3 1.6 1.4 2 2.3a6.5 6.5 0 0 0 .8 1.2c.4.5.2.9 0 1.3a3.3 3.3 0 0 0-.2 2.8 2 2 0 0 0 .6.5 1.5 1.5 0 0 1 .9 1.5c-.1 1 .7.8 1.2.7a7.2 7.2 0 0 0 1.1-.3 2.8 2.8 0 0 1 2.6.3c.3.2.5.4 0 .6-.6.3-.9 1-1.7 1 1 0 1.5.8 2.3 1 .2.1-.3.4-.2.7.2 0 .5-.3.8 0a1 1 0 0 0-.3 1.2l-.6-.2a4.6 4.6 0 0 0 .9 2.5c.1.2 0 .3-.1.3-.9 0 .2.3 0 .4-.5.3-1 0-1.4 0-.2 0-.6 0-.6.2a.8.8 0 0 0 .4.9c.2 0 .6 0 .3.3.5.4 0 .8-.1 1.2 0 .3 0 .6.5.5a1.9 1.9 0 0 1 1 0c.5.1 1 .3.8 1-.4.6.1 1.1 0 1.8l-.5 2.3c.2 0 .3-.3.7-.2 0 .2-.4.8.3.7 0 .3-.1.9-.3.9-.6 0-.4.5-.5.8l-.1.3s-.7-.3-.2.3c.3.2.8.7.1 1.2-.5.4-.2 1.2.5 1.2.3 0 .7.5 1 0 .2-.2.3.2.3.4s.4.6 0 .5c-.4 0-.3.6-.5.4-.4-.6-.7 0-.8 0 0 .4.5.3.5.7-.5.4-1.1 0-1.6.3a4 4 0 0 1 .8 1.2c-.3.3-1-.4-1 .4a1.2 1.2 0 0 0 1.2 1.1c.5 0 1-.1 1.4.3.3.4.6.8-.1 1-.4.3-.5.4-.1.8.3.3.7.6.7 1.2 0 .2.6-.4.6.3 0 .5.3.5-.2.8h.3c.3 0 .7-.4.8 0 .1.4-.5.3-.7.4.3.2.7-.1 1 .2 0 .4-.4.1-.5.4l.7.3c0 .4-.5.2-.6.5 0 .3-.2.3-.3 0l-.2-.2c-.4 0-.4 0-.5-.7v.5c-.8-.2-.6.5-.9.7-.5.6-.6-.1-1-.2a3.6 3.6 0 0 0 0 1.2c.2.5-.1.4-.3.8-.3.7-.5.4-.8.2l.1.9c-.5-.5-.9-.5-1.3-.1.2.1.8.2.1.5a.6.6 0 0 0-.2.7c.2.6-.4.8-.7.8-.7.2-1.4.2-1.7-.8-.5.6.1 1.2 0 1.7-.2.5-.2.6-.7.5h-.8c-.3.3 0 .6.2.9.3.6.2 1.2-.3 1.2-.3 0-.4-.5-.8-.7a1.1 1.1 0 0 1-.6-.8s-.1-.6-.6-.4c-.4.1-.4.4-.3.7 0 .4.3 1-.5.8 0 .3.5.3.6.6a1.3 1.3 0 0 0-.9 1.4c.2.6-.3.5-.4.5a.7.7 0 0 1-.7-.5 1.5 1.5 0 0 0-1.6-1c0 .1.7.4 0 .6-.3 0-.2.2 0 .3.1.3 0 .4-.3.3-.5-.1-.7.5-1.1.6-.8.3-.7.5-1.2.6 0-.3.3-.4.3-.7-.3 0-.6.3-.9 0 0-.3.5-.3.6-.6-.6.2-1.4-.2-1.6.8a.8.8 0 0 1-.6 0 1.2 1.2 0 0 1-.3-.8c.6-.3.2-.4 0-.7l-.4-.6c0 .7-.4 1-1 .7-.2 0-.3 0-.2-.3.2-.6-.3-1-.9-1-.5 0-1 .5-1.5-.4.1 1.4.1 1.4-1 1.2-.4 0-.6-.4-.7.2l-.8.3c0-.4-.7-.6-.1-1-1-.4-1.5.4-2.2.4-.3-.3.1-.4 0-.6-.3 0-.4.2-.6.4-.7 1-.7 1-1.3 0a3.1 3.1 0 0 0-2.4-1.7c1-.4 0-.9.2-1.2-.8-.3.1-.4 0-.6a3 3 0 0 0-.8 0c-.6.2-.9 0-1.1-.6 0-.1 0-.5-.4-.3-.2 0-.3.2-.2.5a1 1 0 0 1 0 .1c.3 1.4-.2 2.7.1 4 .1.6 0 1-.7 1-.2-.1-.3 0-.5.2-.5.5-1 .7-1.6 0-.3-.4-1-.4-1.2-1-.4.2-.6.6-.9 1a2.6 2.6 0 0 0-.5 1.5c-.5-.3-.4.3-.7.4-.1 0-.3-.1-.4.2 0 .2.2.3.4.4.7.3 1.3 0 2 .1.4 0 .7-.2 1.2-.1.2 0 .3.2.4.3 0 .3 0 .3-.2.5a1.6 1.6 0 0 1-1 .6c-.5 0-.6.2-.6.7 0 1-1 .8-1.6 1.2a1.3 1.3 0 0 0 1 .5 1.2 1.2 0 0 1 1.4.7c0 .1.4.3.1.5-.2 0-.3.4-.6.3a.8.8 0 0 0-.3 0c-.5 0-1-.3-1.2.2-.2.3.3.7.5 1.1a3.5 3.5 0 0 1 .6 1.5c0 .5-.2.6-.4.5-.5-.3-.8.2-.9.4-.4.8-.8.6-1.4.1-.3-.2-.2-.1-.5.2a1 1 0 0 1-1.3.2 3.3 3.3 0 0 1-.4-.3 2 2 0 0 0 .3 1.6c.2.4-.2.6.1.8-.2.2-.3.4-.5.4.2-.5-.7-.3-.5-.7a1.4 1.4 0 0 0 .1-.4c-.1.4-1 .2-.7.9l-1-.2c.3-.5-.5-.4-.5-.8a.5.5 0 0 0-.7-.2 3.6 3.6 0 0 1-2.1.5c-.3 0-.5.3-.9.5-.3 0-.4.1-.7-.2-.1-.2-.4-.2-.4.2a4.3 4.3 0 0 1-.1.9c0 .2.3.8-.5.4h-.1c.4 1.2-1 0-.9.9-.2-.5 0-.7 0-1-.2 0-.3.4-.6.3Z"/></svg>