<svg xmlns="http://www.w3.org/2000/svg" viewBox="0 0 150 150"><path fill="#73bf44" d="M91 77.1a18.4 18.4 0 0 1-3.7 1.7c-2 .7-2.9 1-2.3 0a44 44 0 0 0 2-5l-1-.3a34.3 34.3 0 0 1-2.2 5.1 12.1 12.1 0 0 1-3.5 4 30.6 30.6 0 0 0-4.8 4.8c-.8 1.1-1.4 2.6-2.6 3.5l-4.1 3c-1.1.7-2 1.3-2 .7-.2-.6.2-6.7.5-10.5.3-3.7.9-6.5 1.2-9.3.4-2.8 1.6-2 3.1-2.6a5.5 5.5 0 0 0 3-2.3c.6-1 1.8-3.7 3-4.6a19.4 19.4 0 0 1 4.3-2v-.6a24.4 24.4 0 0 0-4.3 1.8c-2.2 1.2-2.2 5-5.7 6.7-3.5 1.6-2.9-.3-2.8-1.4.1-1 0-4.3.9-5.8.8-1.4 2-2.4 2.6-4.2.7-1.8 1.7-4.8 2-6.3l1.6-6.4c.4-2 1.2-4 1.1-5.8 0-1.7-.8-2.7-.2-4.4.7-1.7 2.7-2.4 3.2-4.2.6-1.8 3.4-4.3 3.4-4.3l-1.6-.3a16.5 16.5 0 0 0-2.5 3.2c-.9 1.6-1.5 2.6-2 2.3-.4-.2-.1-.3.4-2a8.7 8.7 0 0 0-.1-4l-1.2.8-.1 3.1c-.2 1.5-.6 2.2-.7 3.2-.2 1.1-.5 3-.5 4.3 0 1.3.6 3-.3 6-.8 3.1-1.5 7.3-3.4 11.6-2 4.2-2.6 5-2.7 4-.2-1.2-.4-4.3-.7-8.6-.2-4.3-.8-8.2-1-10.3-.1-2 0-5-.2-7.3-.1-2.3-.8-2.4-1-1.7s0 6.6 0 9.1 0 4.8.3 9.2l1 10.7c.2 2.5-.3 6-.8 5.6-.5-.5-4-2.3-5.2-4.8a21.6 21.6 0 0 0-4.9-5.3l-.5.8a41.6 41.6 0 0 1 4.1 4.6A17.3 17.3 0 0 0 64 67c1.4 1 2.1 1.8 2.3 3.4.2 1.7-.4 6-.9 8.6-.5 2.7-.7 5.3-1 7.8a63.3 63.3 0 0 0-.4 8.4c0 4 .4 8.4.6 10.4.1 2 1 7.7.8 9.6a101 101 0 0 1-2.7 10c-.5 1.8-1 4.1-1.5 3-.5-1.2-1.5-5-2.2-7.6-.6-2.6-1.1-4-.5-6.3.6-2.4 2-5.9 2.2-8 .2-2-.4-7.3-.7-10.2a78.2 78.2 0 0 1-1-9.5 43.7 43.7 0 0 0-1-9.6L55.3 67c-.3-2-1.6-7.8-1.6-7.8l-2.1.7s.8 5.1 1.8 9c1 4 2.3 9 2.6 11 .3 1.8.6 7.3.8 10.2.2 3 1.3 10.4 1.3 12a25.3 25.3 0 0 1-.9 7.4c-.7 2-1.6 3.8-2.1 2.8a15.5 15.5 0 0 0-3.8-4.8c-2.3-1.9-4.9-3.1-6.7-7.3a47.6 47.6 0 0 1-3.2-11c-.7-3.3-1-4.5-.5-6.8a51.7 51.7 0 0 0 1-6.9l-1 .1s-1 7.3-1.3 7.7c-.3.4-.6 0-1.2-1.2a52.8 52.8 0 0 0-3.7-5.3l-.5.7s3.1 4.5 3.8 5.7c.6 1.2 1.2 4.9 1.6 6.7.5 1.7 1.5 6.7 2.3 9.2A21.4 21.4 0 0 0 47 107c2.3 2 4.2 3 5.2 4.8a47.7 47.7 0 0 1 3.6 10.2c.9 3.9 1.3 6.5 2.4 8.8a35 35 0 0 1 2 9.4 29 29 0 0 1-.3 7.7c-.5 1.2-1.2 1.1-1.3 2.1h8.2l-.8-2.8c-.6-1.9-1-8.9-.9-12.3a42.3 42.3 0 0 1 1.4-9.3c.9-3.6 1.8-6.3 1.9-8.5 0-2.2 0-3.7.3-4.7.4-1 2-2.4 4.2-4 2.3-1.7 3.5-2.1 5-4a14 14 0 0 1 5.3-4.3l-.3-.7a15.6 15.6 0 0 0-3.6 2c-1.3 1.2-2.3 2.8-3.8 3.9l-4 2.5A10.3 10.3 0 0 0 69 110c-.4.4-.6.5-.6-.3a3.1 3.1 0 0 1 .5-2.3c.6-.7 2.8-1.7 4-2.8 1.3-1 1.6-1.5 1.9-2.6.2-1-.1-1.3 1.1-2l-.3-.5s-1 .4-1.3 1c-.2.8 0 2-1.5 3.4a17.5 17.5 0 0 1-3.4 2.3c-1 .5-1.5.4-1.7-.5a45.7 45.7 0 0 1-.5-6.2c0-2.6-.4-2.6.7-3.4l5.7-4.3a4.5 4.5 0 0 0 2.1-2.4 17.1 17.1 0 0 1 3.8-4.7c2-1.7 2.8-2.8 4.3-3.7a16.6 16.6 0 0 1 4.3-1.6 15.2 15.2 0 0 0 3.4-1.7Z"/><path fill="#73bf44" d="m82 40.2.1-.2-.2.1.2.1ZM78.5 31.2ZM79 30.3a2.3 2.3 0 0 1-.1.3l.2.2h.2a.8.8 0 0 1 0-.2.8.8 0 0 1-.4-.3ZM78.2 30.6a.9.9 0 0 0 0-.1v.1ZM78.9 44.9z"/><path fill="#73bf44" d="M81.9 39.9h-.2l.2.2v-.2ZM78.8 30.8v.2a1.2 1.2 0 0 1 0-.2ZM80.3 77.7a.8.8 0 0 0-.2.1s0 0 0-.2H80a1.3 1.3 0 0 1 0 .3l.4-.2h-.1ZM79.8 43.8a1.7 1.7 0 0 1 .4.4l-.1-.4a1.9 1.9 0 0 1-.3 0ZM99.5 81.6l-.2-.3a1 1 0 0 1-.4.4 1.2 1.2 0 0 1 0 .3h.2l.4-.4ZM87 71.7a2.2 2.2 0 0 1-.2.2h.3a1.2 1.2 0 0 1-.2-.2ZM80.7 77.4a2.3 2.3 0 0 1-.3.2v.1a1.7 1.7 0 0 1 0 .2 2.3 2.3 0 0 1 .3-.2 2.8 2.8 0 0 1 0-.3ZM98.7 80.8a3 3 0 0 1 0-.6l-.2.2.2.4ZM106 82h.1a1.3 1.3 0 0 1 0-.2v.1ZM101.4 80.9a1.5 1.5 0 0 1 0-.2 4.5 4.5 0 0 1-.6.4 3.1 3.1 0 0 1 .2-1.3 4.4 4.4 0 0 0-.3-.4 4.4 4.4 0 0 1 0 .7l-.3-.3a4.7 4.7 0 0 1-.2 1.1 1.5 1.5 0 0 0-.3-.5 4 4 0 0 1-.3 1.3 2.1 2.1 0 0 1-.2.6 3.3 3.3 0 0 1 .7-.4 3.8 3.8 0 0 1-.2.6 1.4 1.4 0 0 1 .2 0 5.4 5.4 0 0 1 .8 0l.5-.5a2 2 0 0 1-.1.7l.1-.1.3-.9a6.3 6.3 0 0 1-.3-.8ZM101.8 83a2.3 2.3 0 0 1 .5.3 3 3 0 0 1 .1-.3c0 .3.2.2.3.6a1.4 1.4 0 0 1 0-.2s.1.2.3.4a1.3 1.3 0 0 1 .2-.3 3.2 3.2 0 0 1-.1-.5 3.5 3.5 0 0 1 .7.6 3 3 0 0 1 .2-.4 3.3 3.3 0 0 1 .2-.3s0 0 0 .3a1.5 1.5 0 0 1 .3-.5v.4a2.5 2.5 0 0 1 .4 0 3.5 3.5 0 0 1-.2-.6 2.3 2.3 0 0 1-.7-.2 5.2 5.2 0 0 1-.3 1 5.7 5.7 0 0 1-.5-1.5 5.9 5.9 0 0 1-1.2.7s0 0 .2-.4a2.3 2.3 0 0 1-.7.4 4.8 4.8 0 0 1-.2 1 3.6 3.6 0 0 1 .6 0 2.9 2.9 0 0 1 0-.6ZM78 31h.4v-.2a3 3 0 0 1 .3.1 2.4 2.4 0 0 1-.3-.5l-.1.2h.2a4.1 4.1 0 0 1-.4.4ZM104.6 97.8ZM105.8 82.2ZM105.7 82.2a3.4 3.4 0 0 1-.6 0 2.6 2.6 0 0 1 .6 0ZM74.8 92.3ZM94.4 13ZM117.7 96.2ZM81.5 82.4ZM63.2 56.1ZM23.6 52.2ZM60.8 83.3ZM40.5 84.6ZM95.6 41.5ZM84.7 44.9v-.2h-.2l.2.2ZM90 44.3ZM94.3 13.4h.2v-.1h-.1a.8.8 0 0 0-.1 0ZM83.6 44.7a2.8 2.8 0 0 1 .2.7 1.3 1.3 0 0 0 .2-.4 4 4 0 0 1 .2.8l.3-.3a4 4 0 0 1 0 .5l.2-.3v-.1a3 3 0 0 1-.3-.8 3.6 3.6 0 0 1-.5 0s0 0 .2-.2a1.5 1.5 0 0 1-.5.1ZM92 43.8a2.2 2.2 0 0 1-.2-.3 1.6 1.6 0 0 1-.1.5l-.1-.4-.2-.1a1 1 0 0 1-.1.2 4.5 4.5 0 0 1 .3.6 3.9 3.9 0 0 1 .4-.5ZM121.1 21h-.1a1.1 1.1 0 0 1 .1 0Z"/><path fill="#73bf44" d="M82.4 43.1a2.7 2.7 0 0 1-.1.3 1.9 1.9 0 0 1-.3-.8 3.5 3.5 0 0 1-.6.2 3.5 3.5 0 0 1 .5-.8 3.6 3.6 0 0 1-.8-.3s0 0 .3 0a1.5 1.5 0 0 1-.5-.3s.2 0 .5-.1a4 4 0 0 1 .3-.5.7.7 0 0 1 .1 0 2.8 2.8 0 0 1-.4-.3l.2-.1a2.6 2.6 0 0 1-.5 0 1.3 1.3 0 0 0 .3.3 4 4 0 0 1-.9 0 3.6 3.6 0 0 1 .2.4 4.2 4.2 0 0 1-.5 0 1.7 1.7 0 0 0 .4.3s-.2 0-.4 0a2 2 0 0 1-.2.4l.6-.2a2 2 0 0 1-.4.6l.4-.2a4.8 4.8 0 0 1-.6 1 4.6 4.6 0 0 1 1.2.4 4.1 4.1 0 0 1-1.1.4 5 5 0 0 1 .9.7 4.7 4.7 0 0 1 .5-1.1 4.5 4.5 0 0 1 .2.8 1.8 1.8 0 0 1 .5.3v-.3a2 2 0 0 1 .4.5 1 1 0 0 0 0-.4 4 4 0 0 1 .5.6 3.4 3.4 0 0 1 .3-.5 3.7 3.7 0 0 1 .2.3l.3-.3a1.6 1.6 0 0 1-.4 0s.2-.2.4-.5a.7.7 0 0 1 .1 0 1.2 1.2 0 0 1-.3 0l-.1.1a.8.8 0 0 0 0-.1h-.2l.2-.1a2 2 0 0 1 0-.3 2.5 2.5 0 0 1-.6.7 2.2 2.2 0 0 1 0-.7.9.9 0 0 1-.2 0v.2a.8.8 0 0 0-.1-.2h-.2.1a2 2 0 0 1-.2-.4ZM96.2 40.3l-.3.1.2.2a2.7 2.7 0 0 1-.3 0 2.9 2.9 0 0 1 .5.6 1 1 0 0 0-.4-.1 2.6 2.6 0 0 1 .5.7 2.6 2.6 0 0 1-.5-.1c.1.3-.4.8-.4.8V42a1.6 1.6 0 0 1-.2.3v.3c-.1-.2-.2-.1-.5-.3v.2a3 3 0 0 1 .2.3 1 1 0 0 0-.4 0v.2l-.2-.3h-.1a.6.6 0 0 1-.1-.1 2.8 2.8 0 0 1 0 .5 2.5 2.5 0 0 1-.4-.4 1.6 1.6 0 0 1 0 .5s-.1-.1-.3-.3h-.2a2.8 2.8 0 0 1 .1.4 2.4 2.4 0 0 1-.5-.2 1.6 1.6 0 0 1 .1.4s0 0-.3-.2a2.9 2.9 0 0 1 .2.7c-.1-.2-.2-.1-.4-.3 0 .4-.2 1.2-.6 1.5a1.2 1.2 0 0 1 0 .3h.2l.4-.4a2.1 2.1 0 0 1-.1.7 3.3 3.3 0 0 1 .6-.4 3.8 3.8 0 0 1-.1.7 1.3 1.3 0 0 1 .1 0 5.2 5.2 0 0 1 .8-.1l.6-.5a2 2 0 0 1-.2.8l.3-.3a4.8 4.8 0 0 1-.2 1.1 4.7 4.7 0 0 1 1.3 0 4.6 4.6 0 0 1-.4.3 2.9 2.9 0 0 1 .4 0 4 4 0 0 1 .4-.3 2.5 2.5 0 0 1-.6-1 3.7 3.7 0 0 1 .4.1 3 3 0 0 1-.1-.5h-.2l.1-.1a1 1 0 0 0 0-.3s0 0 .2.1a3 3 0 0 1-.6-.7 3.4 3.4 0 0 1 1 0 1.3 1.3 0 0 0-.3-.3 4 4 0 0 1 1 0 3.8 3.8 0 0 1-.2-.3 3.7 3.7 0 0 1 .5.1 1.7 1.7 0 0 0-.3-.4 3.2 3.2 0 0 1 .3 0 2 2 0 0 1 .3-.4l-.6.2a2 2 0 0 1 .5-.6l-.4.1a4.9 4.9 0 0 1 .7-.9 4.7 4.7 0 0 1-1.2-.5 4 4 0 0 1 1.3-.2V41a1.3 1.3 0 0 1 0-.2 4.6 4.6 0 0 1-.7.2 4.1 4.1 0 0 1 .4-.8 2.6 2.6 0 0 1-.8.2l.4-.5v-.3a1.5 1.5 0 0 1-.3 0 1 1 0 0 1-.2.3 1.3 1.3 0 0 1-.2.2h-.2v.1ZM97.4 52.4l.2.2a2.5 2.5 0 0 1 .2-.7s.1.3.2.6l.3.2a2.1 2.1 0 0 1 .9-1v-.5H99v-.5a4.7 4.7 0 0 1-1 .9s0-1.5.8-1.9a1.1 1.1 0 0 1 0-.2h-.2l-.5.3a2.1 2.1 0 0 1 .2-.7 3.4 3.4 0 0 1-.6.3 3.8 3.8 0 0 1 .1-.6 1.3 1.3 0 0 1-.1 0 5.4 5.4 0 0 1-.8 0l-.6.4a2 2 0 0 1 .2-.7l-.3.3a4.9 4.9 0 0 1 .4-1.2 4.1 4.1 0 0 1-.9 0 2.7 2.7 0 0 1-.4.6 1.3 1.3 0 0 0 .4-.1 4 4 0 0 1-.5.7h.4a4 4 0 0 1-.5.4 1.7 1.7 0 0 0 .6 0s-.1 0-.2.2a2 2 0 0 1 .1.5l.3-.6a2 2 0 0 1 .2.7l.1-.4s.7 1.5.2 2.3l.2.1.5-.2a2 2 0 0 1-.3.6h.2a4.5 4.5 0 0 1 .1-.5l.2.4h.2v.1ZM79.4 45.3a1.3 1.3 0 0 1 0-.2 5.3 5.3 0 0 1 .4-.7l-.2-.6a.9.9 0 0 1-.4-.1 1.2 1.2 0 0 1-.2 0v.3l.6.2a2 2 0 0 1-.7.2 3.5 3.5 0 0 1 .6.4 4.1 4.1 0 0 1-.5.1 3.9 3.9 0 0 1 .4.4ZM78.9 91h-.1v.2a1 1 0 0 1 0-.1ZM79.7 88a1.2 1.2 0 0 1 .2 0l-.1-.3h-.6a2.3 2.3 0 0 1 .4-.3 2 2 0 0 1-.8-.2.8.8 0 0 1-.2 0v.1l.3.3a1.5 1.5 0 0 1-.5 0 2.5 2.5 0 0 1 .2.4 2.8 2.8 0 0 1-.4-.1.8.8 0 0 1 0 .1 2.1 2.1 0 0 1 0 .4v.1a1.9 1.9 0 0 1 1.5-.4ZM77.9 88.5v.2h.1a1 1 0 0 1-.1-.2ZM95.4 79.8v-.1l.2.1v-.2a6.7 6.7 0 0 1-.4-.8 1.3 1.3 0 0 1 0-.2 4.7 4.7 0 0 1-.6.5 4.1 4.1 0 0 1 0-.9 2.5 2.5 0 0 1-.6.5s0-.3.1-.6l-.1-.3a1.3 1.3 0 0 1-.3.2c0 1-1.7 1.7-1.7 1.7a5.6 5.6 0 0 1 .6-1.5 5.7 5.7 0 0 1-1.4-.1s0 0 .4-.3a2.4 2.4 0 0 1-.9 0s.3-.2.7-.5a2.4 2.4 0 0 1-.6 0l-.2.2a2 2 0 0 0 0-.6 4.4 4.4 0 0 1-.4.6 5 5 0 0 1-.2-.5 4.7 4.7 0 0 1-.7.9 1.6 1.6 0 0 0 0-.6 4 4 0 0 1-1 .9 3.6 3.6 0 0 1 .1-1.1h-.2v.3a1.2 1.2 0 0 0-.2-.4 1.9 1.9 0 0 1-.2 0s0 0 .1-.1a3.5 3.5 0 0 1-.2-.5 4.5 4.5 0 0 1-.4.5 3 3 0 0 1-.3-1.4 5.2 5.2 0 0 1-1 .1 5.7 5.7 0 0 1 1-1 5.8 5.8 0 0 1-1.2-.8s.1 0 .6 0a2.4 2.4 0 0 1-.9-.5h1a6.4 6.4 0 0 1 .5-.8 1.3 1.3 0 0 1 .2 0 4.4 4.4 0 0 1-.6-.4 3.4 3.4 0 0 1-.3.3 3.4 3.4 0 0 1 0-1 1.3 1.3 0 0 0-.3.2 4 4 0 0 1 0-.8 3.8 3.8 0 0 1-.3.1s0-.2.1-.4a1 1 0 0 0-.3.2s0-.1 0-.2l-.2.1v.1h-.1a1.5 1.5 0 0 1-.3 0 .8.8 0 0 1-.1.2v.1h.5a1.6 1.6 0 0 1-.4.3 2.4 2.4 0 0 1 .5.2 2.7 2.7 0 0 1-.4.2.7.7 0 0 1 0 .1 2.2 2.2 0 0 1 .4.3l.4.1a1.5 1.5 0 0 1-.6.2h.3a3.7 3.7 0 0 1-.7.3 4.9 4.9 0 0 1 .4.4 3.1 3.1 0 0 1-.5 0 1.6 1.6 0 0 1-.3.1h.3a1.5 1.5 0 0 1-.5.3l.2.2a1.6 1.6 0 0 1-.5 0 .8.8 0 0 0 .2.2 3.1 3.1 0 0 1-.6 0 2.6 2.6 0 0 1 .3.4 2.5 2.5 0 0 1-.8-.1 1 1 0 0 0 .2.3 3 3 0 0 1-.7-.2 2.5 2.5 0 0 1 0 .3 2.8 2.8 0 0 1-.4-.2 2.4 2.4 0 0 1 0 .4 2.1 2.1 0 0 1 .5.6 3.1 3.1 0 0 1-.5 0v.1a4.2 4.2 0 0 1 .2.6l.5.3a1.5 1.5 0 0 1-.6 0l.2.2a3.7 3.7 0 0 1-.9 0 3.5 3.5 0 0 1 .3 1 3.4 3.4 0 0 1-.5-.5 1.8 1.8 0 0 1-.6.6.8.8 0 0 0 .2 0 3.2 3.2 0 0 1-.1.2 2.3 2.3 0 0 1 .6 0 2.6 2.6 0 0 1-.6.6 1 1 0 0 0 .4 0 3 3 0 0 1-.5.4 2.8 2.8 0 0 1 .2.1 2.7 2.7 0 0 1-.3.3 1.3 1.3 0 0 0 .4 0s-.1 0-.2.2a1.6 1.6 0 0 1 0 .3l.3-.4a1.5 1.5 0 0 1 0 .6l.2-.3a3.7 3.7 0 0 1 0 .9 3.7 3.7 0 0 1 1-.4s-.5 1-1 1a1 1 0 0 1-.2.3H81.7a1.6 1.6 0 0 1-.3.3 2.5 2.5 0 0 1 .5 0 2.8 2.8 0 0 1-.4.5l.3.2.5-.1a1.6 1.6 0 0 1-.3.4h.2v-.2a3.8 3.8 0 0 1 .3.5 1.7 1.7 0 0 0 0-.6s.2.1.3.3a2 2 0 0 1 .5 0l-.6-.4a2 2 0 0 1 .8 0L83 82a4.9 4.9 0 0 1 1.1 0 4.7 4.7 0 0 1-.4-1.3s1.4.6 1.4 1.4a1.3 1.3 0 0 1 .2.2l.2-.2-.2-.6a2.1 2.1 0 0 1 .5.4 3.4 3.4 0 0 1 0-.7 3.7 3.7 0 0 1 .5.4 1.3 1.3 0 0 1 0-.1 5.3 5.3 0 0 1 .4-.7c0-.4-.2-.7-.2-.7a2 2 0 0 1 .6.5l-.1-.4a4.8 4.8 0 0 1 1 .7 4.7 4.7 0 0 1 .5-1.1 4.4 4.4 0 0 1 .1.7 1.9 1.9 0 0 1 .5.4v-.4a2 2 0 0 1 .5.6 1 1 0 0 0 0-.4 4.1 4.1 0 0 1 .5.6 3.4 3.4 0 0 1 .2-.5 3.4 3.4 0 0 1 .4 1 1.3 1.3 0 0 0 .2-.5 4 4 0 0 1 .3.9 3.8 3.8 0 0 1 .3-.3 3.9 3.9 0 0 1 0 .4l.2-.2a2.8 2.8 0 0 1-.3-1 3.8 3.8 0 0 1 .5.3 1.1 1.1 0 0 1 0-.2 5.2 5.2 0 0 1 .2-.7l-.3-.7a2 2 0 0 1 .7.4l-.2-.4a4.8 4.8 0 0 1 1 .5 4.7 4.7 0 0 1 .3-1.3 4.3 4.3 0 0 1 .4.8 2.5 2.5 0 0 1 1-.4 3.6 3.6 0 0 1-.1.4 2.7 2.7 0 0 1 .4 0ZM73 64.7ZM97.2 79.8l-.1-.3a5.2 5.2 0 0 1-.6.5 2.6 2.6 0 0 1-.1.6 3 3 0 0 1 .2-.2v-.2l.2.2a1.1 1.1 0 0 0 .1-.2v.3a1.5 1.5 0 0 1 .2.4.8.8 0 0 1 0-.2v-.9ZM57.4 68.6a3.6 3.6 0 0 1 .6-.6 3.8 3.8 0 0 1-1-.2 3.4 3.4 0 0 1 .4.8ZM61.3 48.4ZM62.1 26.7a4 4 0 0 1 .5-.7v-.1a3.9 3.9 0 0 1-.7-.4s0 0 .3 0a1.6 1.6 0 0 1-.6-.3s.2 0 .6 0a1.5 1.5 0 0 1-.3-.2 2.9 2.9 0 0 1-.3.2 1.3 1.3 0 0 0 0-.4 3 3 0 0 1-.3.3 2.8 2.8 0 0 1 0-.3 3.2 3.2 0 0 1-.6.4 1 1 0 0 0 .1-.3 2.7 2.7 0 0 1-.7.4 2.4 2.4 0 0 1 .2-.6h-.4l.4-.5a1.6 1.6 0 0 1-.2 0s.1-.1.3-.4a1.4 1.4 0 0 1-.4 0 3.6 3.6 0 0 1-.4.3 3.8 3.8 0 0 1 .3-1 3.4 3.4 0 0 1-.5 0 3.4 3.4 0 0 1 .2.6 3.6 3.6 0 0 1-.8-.5 3.7 3.7 0 0 1-.3.8v-.3a1.5 1.5 0 0 1-.2.6l-.2-.5a1.5 1.5 0 0 1-.1.4l.2.2a1.2 1.2 0 0 0-.5 0 2.8 2.8 0 0 1 .4.2 2.6 2.6 0 0 1-.3 0 3 3 0 0 1 .4.6 1 1 0 0 0-.3 0 2.6 2.6 0 0 1 .4.6 2.6 2.6 0 0 1-.5-.1c.1.3-.3.8-.3.8V26a1.5 1.5 0 0 1-.3.3l.1.3-.5-.3-.1.2a3.2 3.2 0 0 1 .2.3 1 1 0 0 0-.3 0l-.2.2v-.3h-.2a2.8 2.8 0 0 1 0 .4 2.6 2.6 0 0 1-.5-.4 1.5 1.5 0 0 1 0 .5s0-.1-.2-.3h-.3a2.8 2.8 0 0 1 .1.4 2.6 2.6 0 0 1-.4-.2 1.6 1.6 0 0 1 0 .5s0-.1-.2-.3a2.9 2.9 0 0 1 .2.7l-.6-.4a1 1 0 0 1-.1 0 2.8 2.8 0 0 1-.1.4 2.5 2.5 0 0 1-.3-.5 1.6 1.6 0 0 1-.2.5l-.1-.4-.2-.1c-.2.6-1 1-1.3 1a3 3 0 0 1-.8.4l-.1.4a4.8 4.8 0 0 1 .4-.3 4.4 4.4 0 0 1 0 .5 4.6 4.6 0 0 1 1-.5 1.6 1.6 0 0 0-.3.5 4 4 0 0 1 1.2-.5 4.2 4.2 0 0 1-.3.7 5 5 0 0 1 1 0 1.2 1.2 0 0 0-.3.3 2.5 2.5 0 0 1 .8 0s0 0-.3.2a2.2 2.2 0 0 1 .7.2l.3-.2a5.5 5.5 0 0 1-.7-.8 4.3 4.3 0 0 1 .9.1 2.5 2.5 0 0 1 .2-1 3.6 3.6 0 0 1 .3.3 2.9 2.9 0 0 1 .2-.4h-.1l.2-.1a1 1 0 0 0 .1-.3s0 0 0 .2a1.5 1.5 0 0 1 .2 0 3 3 0 0 1 0-.9 3.4 3.4 0 0 1 .8.8 1.3 1.3 0 0 0 0-.5 4 4 0 0 1 .6.7l.1-.4a3.8 3.8 0 0 1 .3.5 1.7 1.7 0 0 0 0-.5s.1 0 .3.2a2 2 0 0 1 .4 0 15 15 0 0 0-.5-.4 2 2 0 0 1 .7 0l-.3-.2a4.8 4.8 0 0 1 1.1-.2 4.8 4.8 0 0 1-.4-1.2s1.3.7 1.4 1.5a1.2 1.2 0 0 1 .2.1l.1-.2-.1-.5a2.1 2.1 0 0 1 .5.4 3.4 3.4 0 0 1 0-.7 3.9 3.9 0 0 1 .5.4 1.2 1.2 0 0 1 0-.2l.2-.3a3.4 3.4 0 0 1-.4.1ZM98 80a1.1 1.1 0 0 1 0 .2V80ZM128.8 37.5ZM123.1 40.1a.9.9 0 0 1-.3.2v.1a1.2 1.2 0 0 1-.2.1l.3.1.4-.2.1-.2a1.5 1.5 0 0 1-.5.3s0-.2.2-.4ZM121.6 21.3a3.4 3.4 0 0 1 .5-.3h-.6a2.7 2.7 0 0 1 .1.3ZM104.2 97.6l-.1.1h.1ZM98.4 79.7a2 2 0 0 1-.3.2 5.1 5.1 0 0 1 .3.5v-.7ZM58 68.3a1.2 1.2 0 0 1 .2-.2H58v.2ZM114.7 55.7v.1a2.8 2.8 0 0 1 .4.2 1.7 1.7 0 0 1-.4-.3ZM109.5 79.1a1.3 1.3 0 0 1 0 .3 1 1 0 0 1 .4.3 3.2 3.2 0 0 1 .2-.4l-.3-.2h-.3ZM60.6 48.1ZM61.5 47.3a3.2 3.2 0 0 0-.4 0 2 2 0 0 1-.2.4 1.8 1.8 0 0 1 .1.6l.1-.4.1.1a3 3 0 0 1 .3-.2l-.4-.1a3.8 3.8 0 0 1 .4-.4ZM57.5 25.6ZM59.3 22.9zM58.5 12.4v-.1ZM58.2 12.4l.1-.2-.2-.1a1.4 1.4 0 0 0 0 .3ZM59.2 22.4l-.3-.2H58.6a.9.9 0 0 1 .1.3.7.7 0 0 1 .3.1h.2V22a1.8 1.8 0 0 1 0 .3ZM63.7 26.2V25.9a1 1 0 0 1-.2 0l.2.3ZM94.7 12.4a2 2 0 0 1-.2-.6l-.1.2s0 .2.3.4ZM94.3 12a3 3 0 0 1-.4.4 3.6 3.6 0 0 1 .5.3V12ZM63.9 26.4ZM29.5 48.8ZM49.6 94.5v.2a1.6 1.6 0 0 1 .3.3 5 5 0 0 1 .2-.5 1.8 1.8 0 0 1-.2 0 5 5 0 0 1-.3 0ZM42 75.6l-.1-.1h-.4a1.3 1.3 0 0 1 .1.3.6.6 0 0 1 .1 0 2.3 2.3 0 0 1 .3-.2ZM51.8 28.1a1.1 1.1 0 0 1-.1 0h.1ZM56.4 67.2a1.3 1.3 0 0 1-.3 0v.2l.1.2.1-.1a.9.9 0 0 0 0 .3h.1a1.7 1.7 0 0 1 0 .3 1.8 1.8 0 0 1 .1-.2v.5a1.4 1.4 0 0 1 .3-.2 3.2 3.2 0 0 1 .1-.5 1.1 1.1 0 0 1-.5-.5ZM53.8 87.3a2.4 2.4 0 0 1-.3-.5 3.2 3.2 0 0 1 0 .4 3.9 3.9 0 0 1-.5-.5h-.2a2.1 2.1 0 0 1 .3.3.8.8 0 0 0 .2.2s0 0-.2 0v.1h.1l.1-.2s0 .2.2.3l.2.1.2.1a4.6 4.6 0 0 1 0-.5l-.1.2ZM52.1 28.3zM29.5 26.8Z"/><path fill="#73bf44" d="M132.3 31.4a2.3 2.3 0 0 0 .6-.2 2.6 2.6 0 0 0-.7-.4 1 1 0 0 1 .3 0 3 3 0 0 0-.6-.3l.2-.2a2.8 2.8 0 0 0-.4 0 1.3 1.3 0 0 1 .3-.3s0 0-.2 0a1.5 1.5 0 0 0 0-.4l.3.3a1.5 1.5 0 0 0-.1-.5l.2.2a3.6 3.6 0 0 0-.2-.9 3.5 3.5 0 0 0 1 0s-.9-.8-1.5-.6a.9.9 0 0 0-.1 0l.1-.2.4-.1a1.5 1.5 0 0 0-.4-.2 2.6 2.6 0 0 0 .5-.2 2.8 2.8 0 0 0-.4-.3 4 4 0 0 0 .4-.5h.6a1.5 1.5 0 0 0-.5-.3h.3a3.6 3.6 0 0 0-.8-.5 3.4 3.4 0 0 0 .7-.7 3.3 3.3 0 0 0-.6.1 1.9 1.9 0 0 0-.2-.8 2.7 2.7 0 0 0-.2.3 2.3 2.3 0 0 0-.2-.3h.1l-.1-.1a.7.7 0 0 1-.1-.2s0 0 0 .1h-.2a2.2 2.2 0 0 0 0-.7 2.5 2.5 0 0 0-.5.6 1 1 0 0 1 0-.3 2.9 2.9 0 0 0-.5.5V24a2.8 2.8 0 0 0-.3.4 1.2 1.2 0 0 1 0-.4 2.5 2.5 0 0 0-.2.1 1.5 1.5 0 0 0-.4 0l.5-.3a1.5 1.5 0 0 0-.6 0l.3-.2a3.6 3.6 0 0 0-.9 0 3.5 3.5 0 0 0 .4-1s-1 .5-1 1a.9.9 0 0 0-.3.2V23.2a1.6 1.6 0 0 0-.3.3 2.6 2.6 0 0 0 0-.5 2.8 2.8 0 0 0-.4.3.8.8 0 0 0 0-.1 4.2 4.2 0 0 0-.3-.5l.2-.6a1.5 1.5 0 0 0-.5.4l.1-.3a3.6 3.6 0 0 0-.7.6 3.6 3.6 0 0 0-.4-1 3.2 3.2 0 0 0-.1.6 1.3 1.3 0 0 0-.3.2v-.5a1.2 1.2 0 0 0-.1.2 3.9 3.9 0 0 1-.1-.6 3 3 0 0 0-.2.2 2.3 2.3 0 0 0-.3-.5 2.5 2.5 0 0 0-.2.8 1 1 0 0 1-.2-.3 3 3 0 0 0-.1.6s-.2 0-.2-.2a3 3 0 0 0 0 .5 2.5 2.5 0 0 1-.2-.3 2 2 0 0 0 .1-.8 3 3 0 0 0-.4.3 1.1 1.1 0 0 0 0-.1 4 4 0 0 0-.2-.6l.2-.5a1.5 1.5 0 0 0-.5.3l.1-.2h.1c-.4-.3-1.4-1.2-2.2-1a1.4 1.4 0 0 0-.2-.1l.2-.3h.6a2.5 2.5 0 0 0-.6-.5 4.1 4.1 0 0 0 .8-.2 4.8 4.8 0 0 0-.7-.4 1.6 1.6 0 0 0 .2-.1 6.7 6.7 0 0 0 .6-.7h.9a2.4 2.4 0 0 0-.8-.6h.5a5.9 5.9 0 0 0-1.2-.7 5.7 5.7 0 0 0 1-1.1 5.3 5.3 0 0 0-1 .1 3 3 0 0 0-.2-1.4 4.5 4.5 0 0 0-.3.5 3.6 3.6 0 0 0-.3-.5l.2-.1a2 2 0 0 0-.2 0 1.2 1.2 0 0 1-.2-.4s0 .1 0 .3h-.3a3.6 3.6 0 0 0 .1-1.1 4.1 4.1 0 0 0-1 .8 1.5 1.5 0 0 1 0-.5 4.7 4.7 0 0 0-.6.8l-.2-.5a4.5 4.5 0 0 0-.4.6 2 2 0 0 1 0-.6s-.1 0-.3.3a2.4 2.4 0 0 0-.6-.1l.8-.4a2.4 2.4 0 0 0-1-.2l.5-.2a5.8 5.8 0 0 0-1.4-.2 5.6 5.6 0 0 0 .6-1.4s-1.7.7-1.8 1.6a1.4 1.4 0 0 0-.2.2l-.2-.3.2-.6a2.6 2.6 0 0 0-.6.5 4.1 4.1 0 0 0 0-.9 4.7 4.7 0 0 0-.6.5 1.2 1.2 0 0 0 0-.2 6.2 6.2 0 0 0-.4-.8l.2-.9a2.4 2.4 0 0 0-.7.6l.2-.5a5.8 5.8 0 0 0-1.2.8 5.6 5.6 0 0 0-.6-1.4 5.2 5.2 0 0 0-.2 1 2.2 2.2 0 0 0-.6.3v-.4a2.4 2.4 0 0 0-.5.6 1.2 1.2 0 0 1 0-.4 5 5 0 0 0-.7.7 4.2 4.2 0 0 0-.2-.7 4 4 0 0 0-.6 1.2 1.6 1.6 0 0 1-.2-.5 4.7 4.7 0 0 0-.3 1l-.4-.3a4.5 4.5 0 0 0 0 .4l-.2-.3a3.3 3.3 0 0 0 .4-1.1 4.4 4.4 0 0 0-.7.3 1.6 1.6 0 0 0 0-.2 6.2 6.2 0 0 0-.2-1l.5-.7a2.4 2.4 0 0 0-.9.4l.3-.4a6 6 0 0 0-1.3.5 5.7 5.7 0 0 0-.2-1.5 5.2 5.2 0 0 0-.6.9 3 3 0 0 0-1.2-.6 4.7 4.7 0 0 0 .2.5 3.4 3.4 0 0 0-.6 0V9a2.1 2.1 0 0 0-.2.1 1.2 1.2 0 0 1-.3 0s0 0 .2.2l-.2.1a3.6 3.6 0 0 0-.8-.7 4 4 0 0 0 .1 1.3 3 3 0 0 0-.3-.2v-.3l-.1.2a1.3 1.3 0 0 1-.2-.2v.3a1.8 1.8 0 0 0-.3.5 1 1 0 0 0 0-.3v-1a2.5 2.5 0 0 0-.4.5v-.8a2.4 2.4 0 0 0-.6.7V9a5.8 5.8 0 0 0-.8 1.2 5.7 5.7 0 0 0-1-1.2s-.2 1.7.6 2.3a1.4 1.4 0 0 0 0 .3h-.3l-.4-.5a2.5 2.5 0 0 0 0 .8 4 4 0 0 0-.7-.4 4.5 4.5 0 0 0 .2.7 1.6 1.6 0 0 0-.2 0 6.4 6.4 0 0 0-1-.1l-.6-.6v.2a3.5 3.5 0 0 0-.4 0 1.5 1.5 0 0 0-.4-.1l.5-.2a1.4 1.4 0 0 0-.2-.1l.6-.3a3 3 0 0 0-.3-.1 2.5 2.5 0 0 0 .4-.5 2.7 2.7 0 0 0-.9 0 1 1 0 0 1 .3-.2 3.1 3.1 0 0 0-.7.1V10a3 3 0 0 0-.4.2 1.3 1.3 0 0 1 .3-.4s-.1 0-.3.1a1.7 1.7 0 0 0-.3-.3h.6a1.6 1.6 0 0 0-.5-.3h.4a3.8 3.8 0 0 0-.7-.6 3.6 3.6 0 0 0 .9-.5s-1.2-.3-1.6.2a.8.8 0 0 0-.2 0v-.2l.4-.3a1.6 1.6 0 0 0-.6 0 2.6 2.6 0 0 0 .4-.5 3.1 3.1 0 0 0-.5 0 4.5 4.5 0 0 0 .2-.6l.4-.4a1.6 1.6 0 0 0-.6 0l.3-.2a3.9 3.9 0 0 0-1 0 3.7 3.7 0 0 0 .3-1 3.4 3.4 0 0 0-.5.5 1.5 1.5 0 0 0-.4-.5 2 2 0 0 0 0-.2 1.4 1.4 0 0 0-.1 0 .8.8 0 0 1 0-.3s-.1.1-.2.2h-.1a2.3 2.3 0 0 0 0-.7 2.7 2.7 0 0 0-.6.5 1 1 0 0 1 0-.3 3.2 3.2 0 0 0-.3.3 3 3 0 0 0-.1-.5 2.9 2.9 0 0 0-.3.4 1.3 1.3 0 0 1 0-.4s0 0-.2.2a1.7 1.7 0 0 0-.4-.1l.5-.2s-.6-.3-1 0a1.5 1.5 0 0 1 0-.5s-.1.2-.2.3a1.6 1.6 0 0 1 0-.2l.4-.4a1.6 1.6 0 0 0-.6.1l.2-.2a3.8 3.8 0 0 0-.9.2 3.8 3.8 0 0 0 0-1 3.5 3.5 0 0 0-.3.4 1.5 1.5 0 0 0-.4.1c0-.3.2-.5.2-.5a1.6 1.6 0 0 0-.2.1 4 4 0 0 1 .2-.6s-.2 0-.3.2a2.4 2.4 0 0 0 0-.7 2.7 2.7 0 0 0-.6.7 1 1 0 0 1 0-.4 3.1 3.1 0 0 0-.5.6 3 3 0 0 0-.1-.3 2.9 2.9 0 0 0-.2.4 1.3 1.3 0 0 1 0-.4s-.1 0-.2.2a1.6 1.6 0 0 0-.4 0l.4-.3a1.6 1.6 0 0 0-.6 0l.3-.2a3.8 3.8 0 0 0-1 0 3.7 3.7 0 0 0 .3-1s-1 .6-1 1.2a.8.8 0 0 0-.1.2l-.1-.2v-.4a1.6 1.6 0 0 0-.3.3 2.6 2.6 0 0 0-.1-.5 3 3 0 0 0-.3.3 4 4 0 0 0-.4-.6V.4a1.6 1.6 0 0 0-.4.5l.1-.4a3.9 3.9 0 0 0-.7.7 3.8 3.8 0 0 0-.5-.9 3.4 3.4 0 0 0 0 .7 1.6 1.6 0 0 0-.6 0 1.7 1.7 0 0 0-.2-.2 1.4 1.4 0 0 0-.1 0 .8.8 0 0 1-.2-.1s0 0 0 .2a2.3 2.3 0 0 0-.5-.5 2.8 2.8 0 0 0 0 .3 1.4 1.4 0 0 1-.2-.4 3.2 3.2 0 0 0-.2.5 2.7 2.7 0 0 0-.3-.4 2.9 2.9 0 0 0-.1.5 1.2 1.2 0 0 1-.2-.4s0 0 0 .2a1.5 1.5 0 0 0-.5.1l.4-.4s-.7 0-.8.4a1.4 1.4 0 0 1-.4-.3 3.4 3.4 0 0 0 0 .4V.1a1.5 1.5 0 0 0-.4.5V.4a3.8 3.8 0 0 0-.5.7 3.7 3.7 0 0 0-.6-.8 3.5 3.5 0 0 0 0 .5 1.4 1.4 0 0 0-.3.3L73 .6a1.6 1.6 0 0 0 0 .2 4.1 4.1 0 0 1-.2-.6 3.5 3.5 0 0 0-.2.3 2.4 2.4 0 0 0-.4-.5 2.6 2.6 0 0 0 0 .8 1 1 0 0 1-.3-.2 3 3 0 0 0 0 .7 2.7 2.7 0 0 0-.3-.2 2.9 2.9 0 0 0 .1.5l-.1-.1v-.1a1 1 0 0 1-.2-.1s0 0 0 .2a1.5 1.5 0 0 0-.2 0l.3-.4a1.6 1.6 0 0 0-.6.3l.2-.3a3.8 3.8 0 0 0-.8.4 3.7 3.7 0 0 0-.3-1s-.6 1-.3 1.6a.9.9 0 0 0 0 .2l-.2-.1-.2-.4a1.6 1.6 0 0 0-.2.4 2.6 2.6 0 0 0-.3-.4 3 3 0 0 0 0 .4.9.9 0 0 0-.2 0 4.2 4.2 0 0 0-.5-.3l-.2-.6a1.6 1.6 0 0 0-.2.6v-.3a3.8 3.8 0 0 0-.4.8 3.7 3.7 0 0 0-.8-.6 3.4 3.4 0 0 0 .2.6 1.6 1.6 0 0 0-.5.1 1.9 1.9 0 0 0-.3 0 .7.7 0 0 1-.3 0s0 0 .1.2a2.3 2.3 0 0 0-.7-.3 2.7 2.7 0 0 0 .3.8 1 1 0 0 1-.4-.2 3.3 3.3 0 0 0 .2.5 2.7 2.7 0 0 0-.5 0 3 3 0 0 0 .2.3 1.3 1.3 0 0 1-.3-.2V4a1.7 1.7 0 0 0-.2.3v-.5s-.5.4-.4.8a1.5 1.5 0 0 1-.4 0s0 0 .1.1a3.2 3.2 0 0 0-.3-.1 3 3 0 0 0 0 .4 4.3 4.3 0 0 0-.6 0l-.5-.4a1.6 1.6 0 0 0 .1.6l-.2-.2a3.9 3.9 0 0 0 .2 1 3.7 3.7 0 0 0-1-.1 3.4 3.4 0 0 0 .5.4 1.5 1.5 0 0 0-.3.5 1.7 1.7 0 0 0-.2 0 1.3 1.3 0 0 0 0 .1.8.8 0 0 1-.3.2s0 0 .2 0v.1a2.4 2.4 0 0 0-.7 0 3 3 0 0 0 .3.4 1.5 1.5 0 0 1-.5-.1 3.5 3.5 0 0 0 .3.4 2.6 2.6 0 0 0-.4 0 3 3 0 0 0 .3.4A1.3 1.3 0 0 1 60 8s0 0 .1.2a1.7 1.7 0 0 0 0 .4l-.3-.5s-.3.5 0 .9a1.5 1.5 0 0 1-.5.1 3.4 3.4 0 0 0 .4.2 1.1 1.1 0 0 1-.1 0l-.5-.3a1.6 1.6 0 0 0 .1.5l-.2-.2a3.8 3.8 0 0 0 .3.9 3.7 3.7 0 0 0-1 .2 3.4 3.4 0 0 0 .5.2 1.4 1.4 0 0 0 .2.4l-.5-.1a1.5 1.5 0 0 0 .1.2 3.9 3.9 0 0 1-.6-.1 3.5 3.5 0 0 0 .2.2 2.5 2.5 0 0 0-.7.2 2.7 2.7 0 0 0 .8.4 1 1 0 0 1-.4.1s0 0 .1 0l-.1.2a1.4 1.4 0 0 0-.4 0l.4-.3a1.5 1.5 0 0 0-.5 0l.3-.2a3.6 3.6 0 0 0-1 0 3.4 3.4 0 0 0 .4-1s-1 .5-1 1a.8.8 0 0 0-.2.2V11.3a1.6 1.6 0 0 0-.4.3 2.7 2.7 0 0 0 0-.5 2.9 2.9 0 0 0-.3.3.8.8 0 0 0 0-.1 4.2 4.2 0 0 0-.3-.5l.1-.6a1.5 1.5 0 0 0-.4.4v-.3a3.7 3.7 0 0 0-.6.5 3.6 3.6 0 0 0-.4-.8 3.4 3.4 0 0 0-.1.5 1.4 1.4 0 0 0-.3.2v-.5a1.7 1.7 0 0 0-.2.2 3.7 3.7 0 0 1 0-.6 3.2 3.2 0 0 0-.3.2 2.3 2.3 0 0 0-.3-.5 2.5 2.5 0 0 0-.2.7 1 1 0 0 1-.1-.3 3 3 0 0 0-.2.7l-.2-.2a3 3 0 0 0 0 .5 2.3 2.3 0 0 1-.2-.3 2 2 0 0 0 .2-.8 2.9 2.9 0 0 0-.4.3 1 1 0 0 0 0-.1 4 4 0 0 0-.2-.6c0-.3.2-.5.2-.5a1.5 1.5 0 0 0-.5.3L51 9a3.7 3.7 0 0 0-.7.5 3.4 3.4 0 0 0-.3-1 3.2 3.2 0 0 0-.2.7 1.9 1.9 0 0 0-.9-.2 3 3 0 0 0 .2.3 2 2 0 0 0-.4 0V9a.8.8 0 0 1-.3 0s0 .1.1.2a2.2 2.2 0 0 0-.6-.3 2.5 2.5 0 0 0 .2.8 1.8 1.8 0 0 0-.2 0v-.2a1 1 0 0 0-.1 0 .8.8 0 0 1-.1 0s0 0 0 .2a1.2 1.2 0 0 0-.1.3.6.6 0 0 0 0-.2l-.2-.6a1.6 1.6 0 0 0-.2.4v-.5a1.5 1.5 0 0 0-.3.5v-.3a3.6 3.6 0 0 0-.5.7 3.5 3.5 0 0 0-.7-.6s0 1.1.6 1.4a.8.8 0 0 0 0 .2h-.1l-.4-.2a1.6 1.6 0 0 0 .2.4 2.6 2.6 0 0 0-.5-.2 2.9 2.9 0 0 0 .1.5 3.7 3.7 0 0 0-.6 0l-.5-.3a1.5 1.5 0 0 0 .2.6l-.3-.2a3.5 3.5 0 0 0 .3.8 2.8 2.8 0 0 0-.3 0V12a1.5 1.5 0 0 0-.3.5v-.3a3.2 3.2 0 0 0-.3.3 3 3 0 0 0-.2.5 3.5 3.5 0 0 0-.7-.7 3.2 3.2 0 0 0 0 .5 1.4 1.4 0 0 0 0 .4l-.3-.5a1.4 1.4 0 0 0 0 .2l-.4-.5a3.2 3.2 0 0 0 0 .3 2.3 2.3 0 0 0-.5-.4 2.5 2.5 0 0 0 0 .8 1 1 0 0 1-.2-.2 3.1 3.1 0 0 0 0 .5v.1h-.1v.4a3.6 3.6 0 0 0-.8-.7s0 1.1.6 1.4a.8.8 0 0 0 0 .2H41l-.3-.3a1.6 1.6 0 0 0 0 .5 2.7 2.7 0 0 0-.4-.2 2.8 2.8 0 0 0 .1.4 4.1 4.1 0 0 0-.7 0l-.4-.3a1.5 1.5 0 0 0 .2.6l-.3-.3a3.7 3.7 0 0 0 .2.9 3.4 3.4 0 0 0-1 0 3.2 3.2 0 0 0 .6.4 1.9 1.9 0 0 0-.5.7 2.8 2.8 0 0 0 .4 0 2.3 2.3 0 0 0-.2.3.7.7 0 0 1-.1.3s0 0 .2-.1a.7.7 0 0 0 0 .1 2.2 2.2 0 0 0-.5.4 2.5 2.5 0 0 0 .8 0 1 1 0 0 1-.2.3 3 3 0 0 0 .6 0v.3a2.8 2.8 0 0 0 .3-.1 1.3 1.3 0 0 1-.2.3s0 0 .2 0a1.5 1.5 0 0 0 .2.2l-.5-.1a1.5 1.5 0 0 0 .4.5l-.3-.1a3.6 3.6 0 0 0 .5.7 3.4 3.4 0 0 0-.9.3 2.1 2.1 0 0 0 1.4.1v.4h-.1a2.8 2.8 0 0 0 0 .6 1.6 1.6 0 0 1-.4-.5 4.6 4.6 0 0 0-.1 1 5 5 0 0 0-.4-.2 4.7 4.7 0 0 0 0 .6 2 2 0 0 1-.4-.5s0 .2 0 .4a2.4 2.4 0 0 0-.6.3l.4-.8a2.4 2.4 0 0 0-.8.5l.2-.5s-1.9.6-2.2 1.8l-.3-.2-.2-.6a2.5 2.5 0 0 0-.3.7 4 4 0 0 0-.4-.7 4.7 4.7 0 0 0-.2.7 1.6 1.6 0 0 0-.2-.1c-.5-.5-.6-.4-1-.6a4.5 4.5 0 0 0 .4 1l-.4-.3a2.5 2.5 0 0 0 .1.7 4.2 4.2 0 0 0-.7-.3 4.5 4.5 0 0 0 .2.7h-.4l-.4-.6a2.5 2.5 0 0 0 0 .8 4 4 0 0 0-.7-.6 4.5 4.5 0 0 0 0 .8 1.2 1.2 0 0 0-.2 0l-.2-.2-.1-.4-.2.4a1.6 1.6 0 0 1-.6-.2 5 5 0 0 0 .4.6l-.1.2a6.4 6.4 0 0 1-1-.3s.1.1.2.3a2.4 2.4 0 0 0-.3.5v-.8c-.1 0-.8.8-.6 1.4a4 4 0 0 0-.9-.2 4 4 0 0 0 .8 1 1.6 1.6 0 0 1-.6 0 4.7 4.7 0 0 0 .7.8 6 6 0 0 0-.4.1 4.7 4.7 0 0 0 .5.5 2 2 0 0 1-.7 0s.1 0 .3.2a2.5 2.5 0 0 0-.2.6l-.3-.8a2.4 2.4 0 0 0-.2 1l-.2-.6a5.9 5.9 0 0 0-.4 1.4 5.6 5.6 0 0 0-1.3-.8s.5 1.7 1.4 2a1.3 1.3 0 0 0 .1.3h-.2l-.7-.2a2.5 2.5 0 0 0 .4.7 4.2 4.2 0 0 0-.8-.2 4.7 4.7 0 0 0 .4.7 1.6 1.6 0 0 0-.2 0 6.4 6.4 0 0 0-.9.3 19 19 0 0 1-.8-.4 2.4 2.4 0 0 0 .4.8l-.4-.2a5.8 5.8 0 0 0 .7 1.2 5.7 5.7 0 0 0-1.5.4 5.3 5.3 0 0 0 .8.4 2.1 2.1 0 0 0 .3.5l-.8-.1a2.6 2.6 0 0 0 .2.2 6.2 6.2 0 0 1-1 0l.4.4a3.7 3.7 0 0 0-1 .3 4.1 4.1 0 0 0 1.2.6 1.6 1.6 0 0 1-.5.1 4.7 4.7 0 0 0 1 .4l-.4.3a4.7 4.7 0 0 0 .7.1 2 2 0 0 1-.6.3s.2 0 .4.2a2.5 2.5 0 0 0 .2.5l-.7-.5a2.4 2.4 0 0 0 .3 1l-.4-.4a5.9 5.9 0 0 0 .4 1.3 5.6 5.6 0 0 0-1.6 0s1.3 1.3 2.2 1a1.4 1.4 0 0 0 .3.2l-.2.2-.7.1a2.4 2.4 0 0 0 .7.4 4.2 4.2 0 0 0-.8.3 4.4 4.4 0 0 0 .7.4 1.3 1.3 0 0 0-.2.1 6.5 6.5 0 0 0-.6.7h-.9a2.4 2.4 0 0 0 .8.6h-.5a5.9 5.9 0 0 0 1.3.7 5.6 5.6 0 0 0-1 1 5.3 5.3 0 0 0 1 0 3 3 0 0 0 .2 1.3 4.7 4.7 0 0 0 .3-.5 3.5 3.5 0 0 0 .3.6h-.1a2.1 2.1 0 0 0 .2 0 1.2 1.2 0 0 1 .1.4s0 0 .1-.3h.2a3.6 3.6 0 0 0 0 1.2 4 4 0 0 0 .9-1 1.6 1.6 0 0 1 0 .6 4.7 4.7 0 0 0 .7-.8c0 .1 0 .3.2.4a4.4 4.4 0 0 0 .3-.5 2 2 0 0 1 0 .6s.2-.1.3-.3a2.6 2.6 0 0 0 .6 0l-.1.1-.6.4a2.7 2.7 0 0 0 .4 0v.3a1.5 1.5 0 0 0-.2 0l-1-.7a4.6 4.6 0 0 0 .4 1l-.5-.3a2.5 2.5 0 0 0 .2.8 4.2 4.2 0 0 0-.8-.4 4.6 4.6 0 0 0 .2.7H27l-.4-.6a2.5 2.5 0 0 0 0 .8 4 4 0 0 0-.6-.5 4.5 4.5 0 0 0 0 .7 1.6 1.6 0 0 0-.2 0l-.2-.1-.2-.5-.2.4a1.6 1.6 0 0 1-.5-.1 5 5 0 0 0 .3.5v.3a6.5 6.5 0 0 1-1-.4s0 .2.2.4a2.4 2.4 0 0 0-.4.5v-.8s-.8.7-.5 1.3a4 4 0 0 0-.9-.1 4 4 0 0 0 .7 1 1.6 1.6 0 0 1-.5 0 4.6 4.6 0 0 0 .7.8 5 5 0 0 0-.5 0 4.7 4.7 0 0 0 .5.5 2 2 0 0 1-.6 0s.1 0 .3.3a2.5 2.5 0 0 0-.2.5l-.3-.7a2.4 2.4 0 0 0-.3.9l-.1-.5a5.8 5.8 0 0 0-.4 1.3 5.7 5.7 0 0 0-1.3-.7s.4 1.7 1.4 2a1.3 1.3 0 0 0 .1.2l-.3.1-.6-.3a2.5 2.5 0 0 0 .4.7 4 4 0 0 0-.9-.1 4.8 4.8 0 0 0 .4.6 1.2 1.2 0 0 0-.2 0 6.4 6.4 0 0 0-.8.3l-.9-.3a2.4 2.4 0 0 0 .5.8l-.5-.3a5.8 5.8 0 0 0 .7 1.3 5.6 5.6 0 0 0-1.4.4 5.2 5.2 0 0 0 .7.3 2.2 2.2 0 0 0 .3.5h-.8a2.2 2.2 0 0 0 .2.2 6 6 0 0 1-1 0 5.2 5.2 0 0 0 .4.3 3.7 3.7 0 0 0-1 .4 4 4 0 0 0 1.2.5 1.5 1.5 0 0 1-.5.2 4.7 4.7 0 0 0 1 .3l-.3.4a4.6 4.6 0 0 0 .7 0 2 2 0 0 1-.6.4s.2 0 .4 0a2.5 2.5 0 0 0 .1.7l-.6-.5a2.4 2.4 0 0 0 .2.9l-.4-.4a5.9 5.9 0 0 0 .4 1.4 5.7 5.7 0 0 0-1.5 0s1.3 1.2 2.2 1a1.4 1.4 0 0 0 .3.1l-.2.3h-.7a2.6 2.6 0 0 0 .7.5 4.1 4.1 0 0 0-.8.3 4.5 4.5 0 0 0 .6.3 1.3 1.3 0 0 0-.1.1 6.2 6.2 0 0 0-.6.7l-.9.1a2.4 2.4 0 0 0 .8.5H18a5.8 5.8 0 0 0 1.2.7 5.6 5.6 0 0 0-1 1.1 5.2 5.2 0 0 0 1-.1 3 3 0 0 0 .3 1.4 4.6 4.6 0 0 0 .3-.5 3.5 3.5 0 0 0 .3.5h-.2a2.2 2.2 0 0 0 .2.1 1.2 1.2 0 0 1 .2.4v-.3h.3a3.6 3.6 0 0 0 0 1.1 4.1 4.1 0 0 0 .8-.9 1.6 1.6 0 0 1 0 .6 4.7 4.7 0 0 0 .7-.9l.2.5a4.6 4.6 0 0 0 .4-.6 2 2 0 0 1 0 .6s.1 0 .3-.3a2.4 2.4 0 0 0 .6.1l-.7.4a2.4 2.4 0 0 0 .9.1 8 8 0 0 1-.5.3 5.8 5.8 0 0 0 1.4.1 5.7 5.7 0 0 0-.5 1.5s1.6-.8 1.7-1.7a1.3 1.3 0 0 0 .2-.2l.2.3-.2.6a2.6 2.6 0 0 0 .7-.5 4 4 0 0 0 0 .9 4.4 4.4 0 0 0 .5-.5 1.7 1.7 0 0 0 0 .2 6.8 6.8 0 0 0 .5.8l-.2.9a2.4 2.4 0 0 0 .7-.6l-.2.5a5.8 5.8 0 0 0 1.1-1 5.6 5.6 0 0 0 .7 1.5 5.3 5.3 0 0 0 .2-.8 2.2 2.2 0 0 0 .4-.4v.8a2.5 2.5 0 0 0 .3-.3 6 6 0 0 1 .1 1 5.3 5.3 0 0 0 .3-.4 3.7 3.7 0 0 0 .5.9 4 4 0 0 0 .4-1.3 1.5 1.5 0 0 1 .2.5 4.7 4.7 0 0 0 .2-1l.4.2a4.5 4.5 0 0 0 0-.7 4.1 4.1 0 0 1 .3.4 3.1 3.1 0 0 0-.3 1.3 4.7 4.7 0 0 0 .6-.4 1.4 1.4 0 0 0 0 .2 6.3 6.3 0 0 0 .4.8l-.3.9a2.4 2.4 0 0 0 .8-.5l-.2.4a5.8 5.8 0 0 0 1.1-.7 5.7 5.7 0 0 0 .5 1.4 5.2 5.2 0 0 0 .4-1 3 3 0 0 0 1.3.4 4.7 4.7 0 0 0-.2-.5 3.4 3.4 0 0 0 .5 0v.2a2 2 0 0 0 .2-.2 1 1 0 0 1 .4 0s-.1 0-.3-.1a1.9 1.9 0 0 0 .1-.2 3.5 3.5 0 0 0 1 .6 4 4 0 0 0-.4-1.3 3.1 3.1 0 0 0 .4.2v.2l.1-.2a1.3 1.3 0 0 1 .3.2s0-.1-.1-.3a1.9 1.9 0 0 0 .2-.5 1 1 0 0 0 0 .2l.2 1a2.7 2.7 0 0 0 .4-.6l.1.9a2.4 2.4 0 0 0 .4-.9v.5a5.8 5.8 0 0 0 .7-1.2 5.6 5.6 0 0 0 1.2 1 3.7 3.7 0 0 0-.7-2 2.1 2.1 0 0 0 .5 0 1 1 0 0 1-.3.2 3 3 0 0 0 .7 0 2.8 2.8 0 0 0-.1.3 2.8 2.8 0 0 0 .4-.1 1.2 1.2 0 0 1-.3.3s.1 0 .3 0a1.5 1.5 0 0 0 .2.3l-.5-.2a1.5 1.5 0 0 0 .4.5l-.3-.1a3.7 3.7 0 0 0 .5.7 3.5 3.5 0 0 0-.9.3s1 .5 1.5 0a.8.8 0 0 0 .2.1v.2l-.4.2a1.6 1.6 0 0 0 .5.1 2.7 2.7 0 0 0-.4.3 2.9 2.9 0 0 0 .4.1.7.7 0 0 0 0 .1 4 4 0 0 0-.2.5l-.5.3a1.5 1.5 0 0 0 .6 0l-.3.2a3.6 3.6 0 0 0 .8.2 3.5 3.5 0 0 0-.3.8 3.3 3.3 0 0 0 .5-.3 1.3 1.3 0 0 0 .4.1l-.2.2a1.5 1.5 0 0 0 .6 0 .8.8 0 0 1-.2.1 3 3 0 0 0 .6 0 2.9 2.9 0 0 0-.2.5 2.6 2.6 0 0 0 .7-.3 1 1 0 0 1-.1.3 3 3 0 0 0 .6-.3v.3a2.7 2.7 0 0 0 .2-.2 2.3 2.3 0 0 0 0 .2 2 2 0 0 0-.7.4 2.8 2.8 0 0 0 .4.1.8.8 0 0 0 0 .1 4 4 0 0 0-.4.5h-.1a3.2 3.2 0 0 0 0-.5 3.6 3.6 0 0 0-.7.8 3.6 3.6 0 0 0-.5-.7v.3a1.5 1.5 0 0 0-.3-.5v.6a4 4 0 0 0-.4.4 1 1 0 0 0 0 .1 3 3 0 0 0-.3-.4 2.6 2.6 0 0 0-.2.5 1.6 1.6 0 0 0-.3-.3s0 .1 0 .4l-.1.1a.8.8 0 0 0-.1-.1c0-.6-.8-1.3-.8-1.3a3.5 3.5 0 0 0 .1 1 3.7 3.7 0 0 0-.9-.2s0 0 .4.3a1.3 1.3 0 0 0-.7.2s.2 0 .5.2a1.6 1.6 0 0 0-.4.1l-.2-.1a1.3 1.3 0 0 1 .1.4 3 3 0 0 0-.3-.3 2.9 2.9 0 0 0 0 .3 3 3 0 0 0-.6-.4 1 1 0 0 1 0 .3 2.6 2.6 0 0 0-.6-.4 2.5 2.5 0 0 0 .1.5c-.4 0-.8.4-.8.4h.5a1.5 1.5 0 0 0-.3.3l-.2-.1c.1.2 0 .2.3.5l-.2.1a3.2 3.2 0 0 0-.4-.2 1 1 0 0 1 .1.3l-.2.2h.3v.2a.8.8 0 0 0 .1.1 3 3 0 0 0-.5 0 2.8 2.8 0 0 0 .4.4 1.6 1.6 0 0 0-.5 0s.2.2.4.3v.2a2.7 2.7 0 0 0-.4 0 2.5 2.5 0 0 0 .2.4 1.6 1.6 0 0 0-.4 0s0 0 .2.2a3 3 0 0 0-.7-.1l.5.5a.8.8 0 0 0 0 .1 2.9 2.9 0 0 0-.4.2 2.4 2.4 0 0 0 .5.2 1.6 1.6 0 0 0-.5.2s.2 0 .4.1l.2.2c-.7.3-1 1.5-1 1.5l.2-.2a1.5 1.5 0 0 0-.2.5s.2 0 .5-.2a1.6 1.6 0 0 0-.2.3 2.5 2.5 0 0 0-.2 0 1.2 1.2 0 0 1 .3.3 3 3 0 0 0-.4 0 2.5 2.5 0 0 0 .2.2 3 3 0 0 0-.7.2 1 1 0 0 1 .4.2 2.5 2.5 0 0 0-.8.2 2.2 2.2 0 0 0 .6.3 3 3 0 0 0-.3.3h.7a.8.8 0 0 0 .1 0 3 3 0 0 0-.1.5 2.5 2.5 0 0 0 .4-.2 1.6 1.6 0 0 0-.1.5s.1-.1.3-.3h.2a.8.8 0 0 0 0 .3c-.6.2-.7 1.3-.7 1.3a3.5 3.5 0 0 0 .8-.6 3.7 3.7 0 0 0 .4.8s0 0 0-.3a1.5 1.5 0 0 0 .3.5v-.5a1.6 1.6 0 0 0 .2.3v.2a3.7 3.7 0 0 1 .5-.1 2.7 2.7 0 0 0-.3.6 2.3 2.3 0 0 0 .6-.2 3.4 3.4 0 0 0 0 .4c0-.2.1-.2.3-.4a1.6 1.6 0 0 0 0 .5s0-.1.3-.3a1.7 1.7 0 0 0 0 .3 3 3 0 0 0-.2.4 4.1 4.1 0 0 0 .7-.2 3.6 3.6 0 0 0 0 .4s0 0 .2-.3a1.6 1.6 0 0 0 .2.3s0 0 0-.2h.2a2.7 2.7 0 0 0-.5 1 3.5 3.5 0 0 0 .8-.4 3.7 3.7 0 0 0 .3.9s0 0 0-.4a1.5 1.5 0 0 0 .2.6s0-.2.2-.5a3.8 3.8 0 0 0 .5-.3 1 1 0 0 0 .1 0 2.8 2.8 0 0 0 .1.4 2.6 2.6 0 0 0 .3-.4 1.5 1.5 0 0 0 .2.5s0-.2.1-.4l.2-.1a.9.9 0 0 0 0 .2c-.2.5.3 1.5.3 1.5a3.6 3.6 0 0 0 .3-1 3.6 3.6 0 0 0 .7.5s0 0-.1-.3a1.5 1.5 0 0 0 .5.3s0-.2-.2-.5a1.6 1.6 0 0 0 .4.2s-.1-.2-.3-.6a.6.6 0 0 0 0-.1 1.1 1.1 0 0 0 .3.2v.2a1 1 0 0 1 0-.2 1.4 1.4 0 0 0 .2 0 1.5 1.5 0 0 0 0-.3 2.6 2.6 0 0 0 .3.8 2.3 2.3 0 0 0 .3-.6 1 1 0 0 0 .1 0v.2a.8.8 0 0 1 .2-.1 1.4 1.4 0 0 0 .1 0 2.1 2.1 0 0 0 .3-.3 2.6 2.6 0 0 0 0 .4 1.9 1.9 0 0 0 .6-.7 3.3 3.3 0 0 0 .5.4 3.6 3.6 0 0 0-.2-1 3.6 3.6 0 0 0 .8 0s0 0-.2 0a1.5 1.5 0 0 0 .6 0s-.2-.2-.5-.4a4.4 4.4 0 0 0-.1-.6v-.1a3.1 3.1 0 0 0 .4 0 4.3 4.3 0 0 0 .6-.3 2.8 2.8 0 0 0-.4.8s.3-.1.7-.3h.3a1.5 1.5 0 0 0-.1.4c-1 .3-1.4 2.3-1.4 2.3a6.2 6.2 0 0 0 1.4-1 6.4 6.4 0 0 0 .6 1.5s0-.1 0-.6a2.6 2.6 0 0 0 .4 1s.1-.4.3-.9a2.9 2.9 0 0 0 .3.7s.1-.4.3-1.1a1 1 0 0 0 0-.2 2 2 0 0 0 .3.5l-.1.4a1.4 1.4 0 0 1 .2-.2l.2.2v-.2a3.9 3.9 0 0 0 .4-.2 4.4 4.4 0 0 0-.6 1.4 4 4 0 0 0 1.2-.6v.2l-.2.3a1.3 1.3 0 0 1 .4 0l.1.2v-.2a3.7 3.7 0 0 0 .7 0 4.8 4.8 0 0 0-.4.6 3.3 3.3 0 0 0 1.6-.3 5.7 5.7 0 0 0 .2 1.1 6.3 6.3 0 0 0 .7-1.5 6.5 6.5 0 0 0 1.2 1s0 0-.1-.5a2.6 2.6 0 0 0 .8.6s-.2-.4-.3-1a6.9 6.9 0 0 0 .5-.9 1.7 1.7 0 0 0 0-.2 5 5 0 0 0 .7.6 3.5 3.5 0 0 0-.1-1.5 5.4 5.4 0 0 0 .8.6 5.4 5.4 0 0 1-.2-1 4.5 4.5 0 0 0 1.3-.4 4.7 4.7 0 0 0-.6-.4A4.9 4.9 0 0 0 63 96a2.4 2.4 0 0 1-.7-.3 4 4 0 0 0 1.4-1 4.1 4.1 0 0 0-1.2-.1 3.8 3.8 0 0 0 .4-.4 5 5 0 0 0 .6-.2l-.3-.3v-.2a1.4 1.4 0 0 1-.2.1 3 3 0 0 0-.6-.2 3 3 0 0 0 .3-.7s-.2.1-.5.3a6.5 6.5 0 0 0 .7-1.1s-.1 0-1.2.4a2.7 2.7 0 0 0 .3-.6l.3-.3a4.9 4.9 0 0 0-.5-.1 5.1 5.1 0 0 0 .9-.8 1.7 1.7 0 0 1-.6 0 4.5 4.5 0 0 0 1-1 3.9 3.9 0 0 0-1.3 0v-.2l.3-.1a1.3 1.3 0 0 1-.4-.1 2.5 2.5 0 0 0 0-.3s0 0-.1.2a3.6 3.6 0 0 0-.6-.3 5 5 0 0 0 .5-.3 3.3 3.3 0 0 0-1.5-.3 5.8 5.8 0 0 0 .1-1.2A6.3 6.3 0 0 0 59 88a6.4 6.4 0 0 0-.8-1.3s0 0 0 .6a2.7 2.7 0 0 0-.5-1s0 .5-.1 1a7 7 0 0 0-.8.8 1.4 1.4 0 0 0 0 .1 5 5 0 0 0-.5-.7 4.4 4.4 0 0 0-.3.9 2.8 2.8 0 0 0-.5-.7s0 .3 0 .7l-.3.2a1.5 1.5 0 0 0-.2-.3c.2-.6-.4-1.5-.8-2v-.1l.3.1a2.9 2.9 0 0 0 0-.4 1.3 1.3 0 0 1 .2.3V86a1.6 1.6 0 0 0 .4-.2l-.3.5a1.5 1.5 0 0 0 .6-.3l-.2.3s1.2-.4 1.4-1h.2v.4a1.6 1.6 0 0 0 .3-.4 2.6 2.6 0 0 0 .2.4 2.8 2.8 0 0 0 .2-.4l.7.4a2.9 2.9 0 0 0-.3-.7l.3.3a1.6 1.6 0 0 0 0-.5 2.4 2.4 0 0 0 .4.2 2.8 2.8 0 0 0-.1-.4h.2l.3.3a1.6 1.6 0 0 0 0-.4 2.5 2.5 0 0 0 .4.3 2.8 2.8 0 0 0 0-.5.8.8 0 0 0 .1 0l.1.1.1.3.2-.2a1 1 0 0 1 .3 0 3 3 0 0 0-.2-.3V84l.6.3V84a1.6 1.6 0 0 0 .1-.3v.5s.5-.4.4-.8a2.4 2.4 0 0 0 .5 0 2.5 2.5 0 0 0-.4-.6 1 1 0 0 1 .3 0 3 3 0 0 0-.4-.4 2.6 2.6 0 0 0 .2 0 3 3 0 0 0-.3-.4 1.3 1.3 0 0 1 .4 0s0 0-.1-.1a1.5 1.5 0 0 0 0-.4l.3.5a1.5 1.5 0 0 0 .1-.6l.1.3a3.6 3.6 0 0 0 .2-.8 3.6 3.6 0 0 0 .9.5s-.3-1-.9-1.2a.7.7 0 0 0 0-.2h.5a1.6 1.6 0 0 0-.2-.3 2.5 2.5 0 0 0 .5 0 3 3 0 0 0-.3-.3.7.7 0 0 0 .1 0 4.2 4.2 0 0 0 .6-.2c.3 0 .5.2.5.2a1.5 1.5 0 0 0-.3-.5l.3.1a3.6 3.6 0 0 0-.4-.7 3.6 3.6 0 0 0 .9-.3 3.4 3.4 0 0 0-.5-.2 1.3 1.3 0 0 0-.2-.3h.5a1.8 1.8 0 0 0-.1-.1 4 4 0 0 1 .6 0 3.2 3.2 0 0 0-.2-.2 2.4 2.4 0 0 0 .6-.2 2.6 2.6 0 0 0-.8-.4 1 1 0 0 1 .4 0 3 3 0 0 0-.7-.3l.2-.2a3 3 0 0 0-.4 0 1.2 1.2 0 0 1 .4-.3s-.1 0-.3 0a1.5 1.5 0 0 0 0-.4l.4.3a1.5 1.5 0 0 0-.2-.5l.2.2a3.6 3.6 0 0 0-.2-.9 3.5 3.5 0 0 0 1 0s-.9-.8-1.4-.6a.9.9 0 0 0-.2 0l.1-.2h.4a1.6 1.6 0 0 0-.4-.3 2.6 2.6 0 0 0 .5-.2 2.8 2.8 0 0 0-.4-.3h.1a4.4 4.4 0 0 0 .4-.5h.5a1.4 1.4 0 0 0-.5-.3h.3a3.6 3.6 0 0 0-.7-.5 3.5 3.5 0 0 0 .6-.7 3.4 3.4 0 0 0-.6.1 1.9 1.9 0 0 0-.2-.8 2.8 2.8 0 0 0-.2.3 2.2 2.2 0 0 0-.1-.3s0-.1 0-.1a.7.7 0 0 1-.2-.2s0 0 0 .1h-.2a2.2 2.2 0 0 0 0-.7 2.5 2.5 0 0 0-.5.6 1 1 0 0 1 0-.3 2.9 2.9 0 0 0-.4.5l-.1-.3a2.9 2.9 0 0 0-.3.4 1.2 1.2 0 0 1 0-.4 2.5 2.5 0 0 0-.2.1 1.5 1.5 0 0 0-.3 0l.4-.3a1.5 1.5 0 0 0-.6 0l.3-.2a3.6 3.6 0 0 0-.8 0 3.4 3.4 0 0 0 .3-1s-1 .5-1 1.1a1 1 0 0 0-.2.1l-.1-.2V69a1.6 1.6 0 0 0-.3.3 2.6 2.6 0 0 0 0-.5 2.8 2.8 0 0 0-.4.3.7.7 0 0 0 0-.1 4 4 0 0 0-.2-.5l.1-.6a2.2 2.2 0 0 0-.2.2 4.7 4.7 0 0 0-.8-1 4.9 4.9 0 0 0 1-.5s0 0-.4 0a2 2 0 0 0 .7-.4s-.3 0-.7-.1a2 2 0 0 0 .4-.3l.3.2a1.7 1.7 0 0 1-.1-.5 3.9 3.9 0 0 0 .4.3 3.8 3.8 0 0 0 0-.4 3.9 3.9 0 0 0 .8.5 1.3 1.3 0 0 1-.1-.5 3.4 3.4 0 0 0 1 .5 3 3 0 0 0-.4-.8 4.4 4.4 0 0 0 .5 0l-.6-.6a1.8 1.8 0 0 0 .3 0s-.3-.2-.6-.4a1.8 1.8 0 0 0 .5-.1 4.3 4.3 0 0 0 .7.2 4.7 4.7 0 0 0-.6-1.1 5 5 0 0 0 1.1-.3s0 0-.4-.1a2 2 0 0 0 .8-.2s-.3-.1-.7-.3a5.5 5.5 0 0 0-.3-.7 1.3 1.3 0 0 0-.1-.1 3.7 3.7 0 0 0 .6-.1 3.4 3.4 0 0 0-.5-.5 2.1 2.1 0 0 0 .6-.1s-.2-.1-.5-.3l-.1-.2a1.1 1.1 0 0 0 .2 0c.7.4 2-.3 2-.3a4.8 4.8 0 0 0-1.2-.4 4.8 4.8 0 0 0 .6-1l-.4.2a2 2 0 0 0 .4-.7s-.2.1-.6.3a2 2 0 0 0 .3-.4h.3a1.7 1.7 0 0 1-.4-.4 4 4 0 0 0 .6 0l-.2-.3a4 4 0 0 0 .9 0 1.3 1.3 0 0 1-.4-.3 3.4 3.4 0 0 0 1-.2 3.3 3.3 0 0 0-.5-.4c.5-.2.5-1 .5-1.1l-.5.4a2 2 0 0 0 .1-.4l.3-.2c-.3 0-.3-.1-.7-.3l.1-.2a4.3 4.3 0 0 0 .5-.1 1.3 1.3 0 0 1-.4-.3l.2-.3-.4.2-.2-.1a1.2 1.2 0 0 0-.1-.1 4 4 0 0 0 .5-.4 3.2 3.2 0 0 0-.7-.1 2.1 2.1 0 0 0 .4-.5s-.2 0-.5 0l-.3-.1a3.8 3.8 0 0 0 .6-.3 3.5 3.5 0 0 0-.7-.3 2.1 2.1 0 0 0 .6-.3s-.2 0-.5 0a3.9 3.9 0 0 0 .8-.5l-.9-.2a1.3 1.3 0 0 0-.1 0 3.8 3.8 0 0 0 .3-.6 3.3 3.3 0 0 0-.7.2 2.1 2.1 0 0 0 .3-.6s-.2 0-.5.2h-.3a1.7 1.7 0 0 0 .2-1.2h.1a4 4 0 0 0 0 .4l.6-.5a1.8 1.8 0 0 0 0 .3l.5-.4a1.8 1.8 0 0 0 0 .5 4.3 4.3 0 0 0-.4.6 4.8 4.8 0 0 0 1.2-.4 4.9 4.9 0 0 0 .1 1.2s0 0 .2-.4a2 2 0 0 0 0 .8s.2-.3.5-.7a5.2 5.2 0 0 0 .7-.2 1.2 1.2 0 0 0 .2 0 3.8 3.8 0 0 0 0 .6 3.4 3.4 0 0 0 .5-.5 2.1 2.1 0 0 0 0 .6s.2-.1.4-.4h.2a1.1 1.1 0 0 0 0 .2c-.5.6 0 2 0 2a4.7 4.7 0 0 0 .5-1.2 4.9 4.9 0 0 0 1 .8s0 0-.2-.4a2 2 0 0 0 .6.5s0-.3-.2-.7a2 2 0 0 0 .4.4v.3a1.7 1.7 0 0 1 .4-.3 3.8 3.8 0 0 0-.1.5 3.8 3.8 0 0 0 .3-.1 4 4 0 0 0 0 .9 1.3 1.3 0 0 1 .2-.4 3.4 3.4 0 0 0 0 1.1 3 3 0 0 0 .7-.6v.3a1 1 0 0 1 .2-.1 1.9 1.9 0 0 0 .2.1s0 0 0-.1a2.8 2.8 0 0 0 .4-.2 3.7 3.7 0 0 0 0 .5 2.6 2.6 0 0 0 1-.6 3.4 3.4 0 0 0-.9.7 3.1 3.1 0 0 0 .9.1 4.3 4.3 0 0 0-.3.4 5.4 5.4 0 0 1 .8-.2 2 2 0 0 0-.1.2s.2 0 .6-.2a1.8 1.8 0 0 0-.1.5 4.4 4.4 0 0 0-.6.4 4.7 4.7 0 0 0 1.3 0 4 4 0 0 0-.2.6H73v.1a4.5 4.5 0 0 0 0 .5s0 0 .2-.2a2 2 0 0 0-.2.7l.5-.4a3.3 3.3 0 0 0 .3.3 4.8 4.8 0 0 0-1.1.5s0 0 .4 0a2 2 0 0 0-.7.4s.3 0 .7.1a5.3 5.3 0 0 0 .5.6 1 1 0 0 0 .1.2 3.8 3.8 0 0 0-.6.2 3.4 3.4 0 0 0 .7.3 2 2 0 0 0-.6.3s.2 0 .5.1l.2.2a1 1 0 0 0-.3.2c-.7-.3-1.9.6-1.9.6a4.7 4.7 0 0 0 1.3.1 5 5 0 0 0-.4 1.1s0 0 .3-.2a2 2 0 0 0-.2.7l.6-.4a2.2 2.2 0 0 0-.2.6l.7-.5a.8.8 0 0 0 .2 0 1.6 1.6 0 0 0-.2.3l-.2.1a1.1 1.1 0 0 1 .2.1 1.7 1.7 0 0 0 0 .2l.1-.1a2.6 2.6 0 0 0 .3 0 3.4 3.4 0 0 0-1 .6 3 3 0 0 0 1 .2l-.1.2h-.3a1 1 0 0 1 .2.2 1.9 1.9 0 0 0 0 .2l.1-.1a1.4 1.4 0 0 1 0 .4 3 3 0 0 0-.2-.3v.3a3 3 0 0 0-.6-.4 1 1 0 0 1 0 .3 2.5 2.5 0 0 0-.6-.4 2.5 2.5 0 0 0 .1.5c-.4-.1-.8.4-.8.4h.5a1.6 1.6 0 0 0-.3.3L72 65c.1.2 0 .2.3.5l-.2.1a3.2 3.2 0 0 0-.4-.2 1 1 0 0 1 .1.3l-.2.2h.3v.2a.7.7 0 0 0 .1 0 2.9 2.9 0 0 0-.5.1 2.6 2.6 0 0 0 .4.4 1.6 1.6 0 0 0-.5 0s.2.1.4.3v.2a2.9 2.9 0 0 0-.4 0 2.6 2.6 0 0 0 .2.4 1.6 1.6 0 0 0-.4 0s0 0 .2.2a2.8 2.8 0 0 0-.7-.1l.5.5a.9.9 0 0 0 0 .1 2.8 2.8 0 0 0-.4.2 2.5 2.5 0 0 0 .5.2 1.6 1.6 0 0 0-.5.2s.2 0 .4.1l.1.2c-.6.3-1 1.5-1 1.5l.3-.2a1.5 1.5 0 0 0-.2.5s.2 0 .5-.2a1.6 1.6 0 0 0-.2.3h-.2a1.2 1.2 0 0 1 .3.3 2.7 2.7 0 0 0-.4 0l.2.2a3 3 0 0 0-.7.2 1 1 0 0 1 .4.1 2.6 2.6 0 0 0-.8.3 2 2 0 0 0 .6.3 3.5 3.5 0 0 0-.3.3h.7a.8.8 0 0 0 .1 0 2.8 2.8 0 0 0-.2.5 2.6 2.6 0 0 0 .5-.2 1.6 1.6 0 0 0-.1.5s.1-.1.3-.3h.2a.9.9 0 0 0 0 .3c-.6.2-.7 1.3-.7 1.3a3.5 3.5 0 0 0 .8-.6 3.7 3.7 0 0 0 .4.8s0 0 0-.3a1.5 1.5 0 0 0 .3.5v-.5h.1v.7a3 3 0 0 0-.3-.4 2.5 2.5 0 0 0-.2.5 1.6 1.6 0 0 0-.3-.4s0 .2 0 .4a3 3 0 0 0-.3-.6l-.1.7a.8.8 0 0 0 0 .1 3 3 0 0 0-.5-.2 2.5 2.5 0 0 0 .2.5 1.5 1.5 0 0 0-.5-.1s.1.1.3.3v.2c-.8-.3-1.8.4-1.8.4h.3a1.5 1.5 0 0 0-.5.3s.2 0 .5 0a1.6 1.6 0 0 0-.4.2l-.2-.1a1.2 1.2 0 0 1 .1.4 2.8 2.8 0 0 0-.3-.3 2.7 2.7 0 0 0 0 .3 3 3 0 0 0-.6-.3 1 1 0 0 1 0 .3 2.5 2.5 0 0 0-.6-.4 2.2 2.2 0 0 0 .2.7 2.8 2.8 0 0 0-.4 0l.4.5a.8.8 0 0 0 .1 0 3 3 0 0 0-.4.3 2.6 2.6 0 0 0 .5.2 1.6 1.6 0 0 0-.5.2s.2 0 .4 0l.2.2a.9.9 0 0 0-.2.1c-.6-.2-1.4.6-1.4.6a3.6 3.6 0 0 0 1 0 3.7 3.7 0 0 0-.4.9s0 0 .3-.2a1.5 1.5 0 0 0-.2.5l.4-.3a1.6 1.6 0 0 0 0 .4h-.3l.5.4a2.7 2.7 0 0 0-.7.2 2.4 2.4 0 0 0 .6.3 3.5 3.5 0 0 0-.3.2 2.7 2.7 0 0 1 .5 0 1.6 1.6 0 0 0-.3.3s.1 0 .4 0a1.7 1.7 0 0 0-.2.3 3.1 3.1 0 0 0-.4.1 4.1 4.1 0 0 0 .6.3 3.8 3.8 0 0 0-.2.4s0 0 .3-.1a1.7 1.7 0 0 0-.2.3s.1 0 .3 0a2.7 2.7 0 0 0-1 .4 3.6 3.6 0 0 0 .9.3 3.7 3.7 0 0 0-.5.7s0 0 .3-.1a1.5 1.5 0 0 0-.3.5s.2-.1.6-.2a4 4 0 0 0 .5.1 1 1 0 0 0 .1 0 2.8 2.8 0 0 0-.2.5 2.8 2.8 0 0 0 .5-.1 1.5 1.5 0 0 0-.2.4s.1 0 .3-.1h.2a.9.9 0 0 0 0 .2c-.6.1-1 1.2-1 1.2a3.6 3.6 0 0 0 .9-.5 3.6 3.6 0 0 0 .2.9s0 0 .1-.3a1.5 1.5 0 0 0 .2.6s0-.2.2-.5a1.6 1.6 0 0 0 0 .4s.2-.3.4-.6a.6.6 0 0 0 0-.1 1.2 1.2 0 0 0 0 .3v.2a.9.9 0 0 1 .1-.1 1.4 1.4 0 0 0 .1.1s0 0 0-.1a1.9 1.9 0 0 0 .3 0 2.5 2.5 0 0 0-.4.6 2.2 2.2 0 0 0 .6-.2V88.8a.7.7 0 0 1 .2 0v.1a2.5 2.5 0 0 0 .4 0 2.8 2.8 0 0 0-.2.2 1.9 1.9 0 0 0 .8 0 3.3 3.3 0 0 0 .1.6 3.6 3.6 0 0 0 .5-.8 3.6 3.6 0 0 0 .7.6s0 0-.1-.3a1.5 1.5 0 0 0 .4.4s0-.2 0-.5a4.1 4.1 0 0 0 .2-.5 1 1 0 0 0 0-.1 3 3 0 0 0 .4.3 2 2 0 0 0 0-.7 2.3 2.3 0 0 0 .4-.4 2.8 2.8 0 0 0 .2.5l.1-.2a3 3 0 0 0 .4.6 1 1 0 0 1 0-.4 2.5 2.5 0 0 0 .5.7 2.6 2.6 0 0 0 0-.4 3 3 0 0 0 .6.3.8.8 0 0 1-.1-.2 1.6 1.6 0 0 0 .4.3s0-.1 0-.3a1.5 1.5 0 0 0 .5.2s0 0-.2-.2a1.7 1.7 0 0 0 .3 0 3.3 3.3 0 0 0 .3.4 4.8 4.8 0 0 0 0-.5 3.8 3.8 0 0 0 .6.3 4.7 4.7 0 0 0 1.2 0v.4l-.4.1.2.1v.2a4.2 4.2 0 0 0-.6.4 1.3 1.3 0 0 1 .5 0 3.4 3.4 0 0 0-1 .7 3 3 0 0 0 1 0l-.2.2v-.1a2.6 2.6 0 0 0-.2.5 1.6 1.6 0 0 0-.3-.4s0 .2 0 .4l-.1.2a.8.8 0 0 0-.1-.2c0-.6-.8-1.3-.8-1.3a3.6 3.6 0 0 0 .1 1 3.7 3.7 0 0 0-.9-.1s0 0 .4.3a1.3 1.3 0 0 0-.7.2s.2 0 .5.1a1.6 1.6 0 0 0-.4.2 2.5 2.5 0 0 0-.2-.2 1.3 1.3 0 0 1 0 .4 3 3 0 0 0-.2-.3v.3a3 3 0 0 0-.6-.4 1 1 0 0 1 0 .4 2.5 2.5 0 0 0-.6-.4 2.4 2.4 0 0 0 .1.5c-.4-.1-.8.4-.8.4h.5a1.5 1.5 0 0 0-.3.2h-.2l.2.5H74a3 3 0 0 0-.4-.1 1 1 0 0 1 .1.3l-.2.2h.3v.1a.7.7 0 0 0 .1.2 3 3 0 0 0-.5 0 2.6 2.6 0 0 0 .4.4 1.6 1.6 0 0 0-.5 0s.2.1.4.2v.3a2.8 2.8 0 0 0-.4 0 2.4 2.4 0 0 0 .2.4 1.6 1.6 0 0 0-.4-.1s0 .1.2.3a3 3 0 0 0-.7-.2l.5.6a2.9 2.9 0 0 0-.4.2 2.4 2.4 0 0 0 .5.3 1.6 1.6 0 0 0-.5.2s.2 0 .4 0l.1.2c-.6.3-1 1.5-1 1.5l.3-.2a1.5 1.5 0 0 0-.2.6s.2-.1.5-.3a1.6 1.6 0 0 0-.2.4h-.2a1.3 1.3 0 0 1 .3.2 3 3 0 0 0-.4 0 2.6 2.6 0 0 0 .2.3 2.9 2.9 0 0 0-.7.2 1 1 0 0 1 .3.1 2.6 2.6 0 0 0-.7.3 2.2 2.2 0 0 0 .6.3 3.1 3.1 0 0 0-.3.2l.7.1a.8.8 0 0 0 .1 0 2.9 2.9 0 0 0-.2.4 2.5 2.5 0 0 0 .5-.1 1.6 1.6 0 0 0-.1.4s.1 0 .3-.2h.2a.8.8 0 0 0 0 .2c-.6.3-.7 1.4-.7 1.4a3.6 3.6 0 0 0 .8-.7 3.6 3.6 0 0 0 .4.8s0 0 0-.3a1.5 1.5 0 0 0 .3.5v-.5a1.5 1.5 0 0 0 .2.4v.2a4 4 0 0 1 .5-.2 2.7 2.7 0 0 0-.3.6 2.5 2.5 0 0 0 .6-.1 3.2 3.2 0 0 0 0 .3c0-.2.1-.1.3-.3a1.6 1.6 0 0 0 0 .5s0-.2.3-.3a1.7 1.7 0 0 0 0 .3 3.2 3.2 0 0 0-.2.3 4.1 4.1 0 0 0 .7-.2 3.6 3.6 0 0 0 0 .5s0 0 .2-.4a1.7 1.7 0 0 0 .1.4s0-.1.2-.2h.1a2.7 2.7 0 0 0-.5 1 3.5 3.5 0 0 0 .8-.5 3.7 3.7 0 0 0 .2 1s0-.1.2-.4a1.5 1.5 0 0 0 .1.6s0-.2.2-.6a4 4 0 0 0 .5-.2.8.8 0 0 0 .1 0 3 3 0 0 0 .1.4 2.6 2.6 0 0 0 .3-.5 1.6 1.6 0 0 0 .2.5s0-.1.1-.4h.2a.8.8 0 0 0 0 .1c-.2.5.3 1.5.3 1.5a3.6 3.6 0 0 0 .3-.9 3.7 3.7 0 0 0 .7.4s0 0-.1-.2a1.5 1.5 0 0 0 .5.3s-.1-.2-.2-.5a1.6 1.6 0 0 0 .4.2s-.1-.3-.3-.6a.7.7 0 0 0 0-.2 1.1 1.1 0 0 0 .3.2v.2a.9.9 0 0 1 0-.1h.2v-.1a1.8 1.8 0 0 0 0-.2 2.6 2.6 0 0 0 .3.7 2.3 2.3 0 0 0 .3-.6h.1v.3a.8.8 0 0 1 .2-.2 1.4 1.4 0 0 0 .1 0 2.5 2.5 0 0 0 .3-.2 2.7 2.7 0 0 0 0 .3 1.9 1.9 0 0 0 .6-.6 3.3 3.3 0 0 0 .5.4 3.5 3.5 0 0 0-.3-1 3.8 3.8 0 0 0 1 0s-.1 0-.3-.1a1.5 1.5 0 0 0 .5 0s-.1-.2-.4-.4a4.4 4.4 0 0 0-.1-.5v-.1a3 3 0 0 0 .4 0 2.4 2.4 0 0 0-.4-.5 3 3 0 0 0 .3-.1 1 1 0 0 0 .2-.1 3.9 3.9 0 0 0 0 .6 2.6 2.6 0 0 0 .7-.9 3.5 3.5 0 0 1 .4 0 3.8 3.8 0 0 0-.4.4h.4a3.9 3.9 0 0 0-.6.7 1.3 1.3 0 0 1 .5 0 3.4 3.4 0 0 0-.6.8 3.2 3.2 0 0 0 .8-.1 4 4 0 0 0 0 .4l.6-.5a1.8 1.8 0 0 0 0 .3l.5-.5a1.8 1.8 0 0 0 0 .6 4.4 4.4 0 0 0-.4.5 4.7 4.7 0 0 0 1.3-.4 4.9 4.9 0 0 0 0 1.2s0 0 .3-.4a2 2 0 0 0 0 .8s.2-.2.4-.6a5.6 5.6 0 0 0 .7-.2 1.5 1.5 0 0 0 .2 0 3.8 3.8 0 0 0 0 .5 3.6 3.6 0 0 0 .5-.4 2.1 2.1 0 0 0 0 .6s.2-.2.4-.5h.2a1.2 1.2 0 0 0 0 .2c-.5.6 0 2 0 2a4.7 4.7 0 0 0 .6-1.1 4.8 4.8 0 0 0 .9.8s0 0-.2-.4a2 2 0 0 0 .6.5s0-.3-.1-.7a2 2 0 0 0 .4.3v.4a1.6 1.6 0 0 1 .3-.4 3.7 3.7 0 0 0-.1.6 3.8 3.8 0 0 0 .3-.2 4 4 0 0 0 0 1 1.3 1.3 0 0 1 .3-.4 3.4 3.4 0 0 0 0 1 3 3 0 0 0 .6-.6 1.4 1.4 0 0 0 .1.1l-.1.3a1 1 0 0 1 .3-.1h.1a2.6 2.6 0 0 0 .5-.2 3.7 3.7 0 0 0-.2.4 2.5 2.5 0 0 0 1-.5 4.4 4.4 0 0 0 .5.7 4.7 4.7 0 0 0 .1-1.3 4.8 4.8 0 0 0 1.2.4s0 0-.3-.4a2 2 0 0 0 .7.3l-.4-.6a5.4 5.4 0 0 0 0-.8 1.2 1.2 0 0 0 0-.1 3.7 3.7 0 0 0 .6.2 3.5 3.5 0 0 0-.2-.7 2.1 2.1 0 0 0 .6.2l-.3-.5v-.2a1.2 1.2 0 0 0 .3 0c.3.8 1.8.9 1.8.9a4.8 4.8 0 0 0-.8-1 5 5 0 0 0 1-.5s0 0-.4 0a2 2 0 0 0 .7-.4s-.3 0-.7-.1a2 2 0 0 0 .4-.3l.3.2a1.7 1.7 0 0 1-.1-.5 4 4 0 0 0 .4.3v-.4a4 4 0 0 0 .8.5 1.3 1.3 0 0 1-.1-.5 3.4 3.4 0 0 0 1 .5 3 3 0 0 0-.4-.8h.5l-.6-.6a2 2 0 0 0 .3 0s-.3-.2-.5-.4a1.8 1.8 0 0 0 .4-.1 4.4 4.4 0 0 0 .7.2 4.6 4.6 0 0 0-.6-1.1 5 5 0 0 0 1.1-.3s0 0-.4-.1a2 2 0 0 0 .8-.2s-.3-.1-.7-.3a5.4 5.4 0 0 0-.3-.7 1.5 1.5 0 0 0-.1-.1 3.7 3.7 0 0 0 .6-.1 3.5 3.5 0 0 0-.5-.5 2.1 2.1 0 0 0 .6-.1s-.2-.1-.5-.3l-.1-.2a1.2 1.2 0 0 0 .2 0 1.9 1.9 0 0 0 1.6-.1h.2a2.2 2.2 0 0 0 0 .5 2.5 2.5 0 0 0 .5-.6 2.1 2.1 0 0 0 0 .2v.1a.8.8 0 0 1 0 .2l.2-.2a1.1 1.1 0 0 0 .3 0l-.5.6a1.6 1.6 0 0 0 .4 0l-.3.3a1.5 1.5 0 0 0 .5-.1l-.2.2a3.6 3.6 0 0 0 .9-.1 3.6 3.6 0 0 0-.1 1s.8-.8.7-1.4a.9.9 0 0 0 .1-.1l.2.1v.4a1.5 1.5 0 0 0 .3-.3 2.5 2.5 0 0 0 .1.5 3 3 0 0 0 .3-.4 4 4 0 0 0 .4.5v.6a1.5 1.5 0 0 0 .4-.5v.3a3.6 3.6 0 0 0 .5-.7 3.5 3.5 0 0 0 .6.8 3.2 3.2 0 0 0 0-.4 2.4 2.4 0 0 0 .3.4 2.5 2.5 0 0 0 .2-.7 1 1 0 0 1 .1.3 3 3 0 0 0 .1-.7l.3.2a3 3 0 0 0 0-.5 1.3 1.3 0 0 1 .2.4s0-.1 0-.3a1.7 1.7 0 0 0 .4-.1l-.3.4a1.5 1.5 0 0 0 .6-.2l-.2.2s1.2-.3 1.4-1h.2v.4a1.6 1.6 0 0 0 .3-.4 2.5 2.5 0 0 0 .2.4 2.8 2.8 0 0 0 .2-.4l.7.5a2.8 2.8 0 0 0-.3-.7l.3.2a1.6 1.6 0 0 0 0-.5 2.7 2.7 0 0 0 .4.3 2.8 2.8 0 0 0-.1-.5h.2l.3.4a1.6 1.6 0 0 0 0-.5 2.6 2.6 0 0 0 .4.3 2.8 2.8 0 0 0 0-.4 1 1 0 0 0 .1 0h.1l.1.3a2.6 2.6 0 0 0 .1-.2 1 1 0 0 1 .4 0 3.2 3.2 0 0 0-.2-.2V97c.4.1.4 0 .6.2l-.1-.2a1.6 1.6 0 0 0 .2-.3v.5s.5-.5.4-.9a2.5 2.5 0 0 0 .5.1 2.6 2.6 0 0 0-.5-.6 1 1 0 0 1 .4 0 3 3 0 0 0-.4-.5h.2a2.9 2.9 0 0 0-.3-.3 1.3 1.3 0 0 1 .4 0s0 0-.1-.2a1.6 1.6 0 0 0 0-.3l.2.4a1.5 1.5 0 0 0 .2-.5l.1.3a3.6 3.6 0 0 0 .2-.9 3.5 3.5 0 0 0 .9.5s-.3-1-1-1.2a.8.8 0 0 0 0-.2h.2l.4.1a1.6 1.6 0 0 0-.3-.4 2.5 2.5 0 0 0 .6 0 2.8 2.8 0 0 0-.3-.3.7.7 0 0 0 .1 0 4 4 0 0 0 .6-.2l.5.2a1.5 1.5 0 0 0-.3-.5l.3.2a3.6 3.6 0 0 0-.4-.8 3.4 3.4 0 0 0 .9-.2 3.2 3.2 0 0 0-.5-.3 1.4 1.4 0 0 0-.2-.3h.5a1.7 1.7 0 0 0-.1 0 3.8 3.8 0 0 1 .6 0 3.3 3.3 0 0 0-.2-.3 2.4 2.4 0 0 0 .6-.2 2.5 2.5 0 0 0-.8-.3 1 1 0 0 1 .3-.2 3 3 0 0 0-.6-.2l.2-.2a2.9 2.9 0 0 0-.4 0 1.2 1.2 0 0 1 .4-.2s-.1 0-.3-.1a1.5 1.5 0 0 0 0-.4l.3.4a1.5 1.5 0 0 0-.1-.6l.2.2a3.7 3.7 0 0 0-.2-.8 3.5 3.5 0 0 0 1 0s-.9-.8-1.4-.6a1 1 0 0 0-.2-.2l.1-.1h.4a1.6 1.6 0 0 0-.4-.3 2.5 2.5 0 0 0 .5-.2 2.7 2.7 0 0 0-.4-.2 4.3 4.3 0 0 0 .5-.5h.5a1.4 1.4 0 0 0-.5-.4h.3a3.7 3.7 0 0 0-.7-.4 3.4 3.4 0 0 0 .6-.7 3.3 3.3 0 0 0-.6 0 1.9 1.9 0 0 0-.2-.8 2.6 2.6 0 0 0-.2.3 2.3 2.3 0 0 0-.1-.3s0 0-.1 0a.7.7 0 0 1 0-.3s-.1 0-.1.2a1.1 1.1 0 0 0-.2 0 2.2 2.2 0 0 0 0-.7 2.5 2.5 0 0 0-.5.5 1 1 0 0 1 0-.3 2.9 2.9 0 0 0-.4.5l-.1-.3a3 3 0 0 0-.3.4 1.2 1.2 0 0 1 0-.4s0 0-.2.2a1.5 1.5 0 0 0-.3 0l.4-.3a1.5 1.5 0 0 0-.6 0l.3-.2a3.7 3.7 0 0 0-.9-.1 3.4 3.4 0 0 0 .4-1s-1 .5-1 1.1a1 1 0 0 0-.2.1l-.1-.1V82a1.6 1.6 0 0 0-.3.3 2.6 2.6 0 0 0 0-.6 3 3 0 0 0-.4.3 4 4 0 0 0-.3-.6l.2-.5a1.5 1.5 0 0 0-.5.3l.1-.3a3.6 3.6 0 0 0-.6.6 3.5 3.5 0 0 0-.4-.9 3.4 3.4 0 0 0-.2.5 1.3 1.3 0 0 0-.3.3v-.5a1.5 1.5 0 0 0-.1.1 3.8 3.8 0 0 1 0-.6 2.9 2.9 0 0 0-.3.3 2.4 2.4 0 0 0-.3-.6 2.5 2.5 0 0 0-.2.8 1 1 0 0 1-.2-.3 3 3 0 0 0 0 .7 2.6 2.6 0 0 0-.3-.2 2.9 2.9 0 0 0 0 .4 2.2 2.2 0 0 1-.2-.2 2 2 0 0 0 .2-.8 2.7 2.7 0 0 0-.4.2 4.2 4.2 0 0 0-.3-.6l.2-.5a1.5 1.5 0 0 0-.4.3v-.3a3.7 3.7 0 0 0-.7.5 3 3 0 0 0-.2-.7h.1a2.5 2.5 0 0 0-.2-.7 4 4 0 0 0 .8.3 4.6 4.6 0 0 0-.3-.7 1.3 1.3 0 0 0 .2 0 6.3 6.3 0 0 0 1-.1l.7.5a2.4 2.4 0 0 0-.3-.9l.4.4a5.9 5.9 0 0 0-.5-1.4 4 4 0 0 0 .5 0l.1.8a2.4 2.4 0 0 0 .4-.8l.1.5a5.4 5.4 0 0 0 .3-.6h.2-.1a5.3 5.3 0 0 0 .3-.7 5.7 5.7 0 0 0 1.1 1 5.3 5.3 0 0 0-.1-.7 2.2 2.2 0 0 0 .3-.6l.3.7a2.2 2.2 0 0 0 .1-.3c.3.6.4.5.5 1l.1-.6a3.7 3.7 0 0 0 .8.6 4.4 4.4 0 0 0 0-1 2.6 2.6 0 0 0 .2.2s0-.1 0-.2h.1a4.3 4.3 0 0 0 .5 0 4.8 4.8 0 0 0-.3.5 3.3 3.3 0 0 0 1.5-.2 5.7 5.7 0 0 0 .2 1.1 6.3 6.3 0 0 0 .8-1.5 6.4 6.4 0 0 0 1.2 1s0 0-.2-.6a2.6 2.6 0 0 0 .8.7s-.1-.4-.2-1a7 7 0 0 0 .4-.9 1.6 1.6 0 0 0 0-.2 5 5 0 0 0 .7.6 3.5 3.5 0 0 0-.1-1.5 5.5 5.5 0 0 0 .9.6 5.4 5.4 0 0 1-.3-1 4.5 4.5 0 0 0 1.4-.4 4.7 4.7 0 0 0-.7-.4 4.9 4.9 0 0 0 1.3-.3 2.4 2.4 0 0 1-.7-.3 4 4 0 0 0 1.4-1 4 4 0 0 0-1.1-.1 3.8 3.8 0 0 0 .3-.4 4.8 4.8 0 0 0 .6-.3l-.3-.2V70a1.6 1.6 0 0 1-.1.1 3 3 0 0 0-.6-.3 2.9 2.9 0 0 0 .2-.6s-.2 0-.5.3a6.5 6.5 0 0 0 .8-1.2s-.2 0-1.2.5a2.7 2.7 0 0 0 .2-.7c.2 0 .3-.2.3-.2a4.9 4.9 0 0 0-.5-.2 5.2 5.2 0 0 0 1-.8 1.7 1.7 0 0 1-.7 0 4.5 4.5 0 0 0 1-1 3.8 3.8 0 0 0-1.3.1 2.1 2.1 0 0 0 0-.2l.3-.1a1.3 1.3 0 0 1-.3-.2 2.5 2.5 0 0 0-.1-.2s0 0 0 .2a3.6 3.6 0 0 0-.7-.3 5 5 0 0 0 .5-.4 3.3 3.3 0 0 0-1.5-.3 5.7 5.7 0 0 0 .2-1 6.3 6.3 0 0 0-1.2 1.1 5.8 5.8 0 0 0-.4-.7l.1-.1-.2-.1-.3-.4v.3h-.2a3 3 0 0 0-.4-.6s0 .2 0 .5a1.6 1.6 0 0 0-1.3.2 1.4 1.4 0 0 0-.3 0l.1-.3.6-.4a2.5 2.5 0 0 0-.8 0 4 4 0 0 0 .7-.7 4.7 4.7 0 0 0-.8 0 1.5 1.5 0 0 0 .1-.2 6.5 6.5 0 0 0 .3-.9l.8-.4a2.3 2.3 0 0 0-1-.1l.6-.2a5.8 5.8 0 0 0-1.4-.2 5.6 5.6 0 0 0 .5-1.5 5.2 5.2 0 0 0-.8.5 2.1 2.1 0 0 0-.7-.2l.3-.2a2.5 2.5 0 0 0-.8 0 1.2 1.2 0 0 1 .3-.2 4.8 4.8 0 0 0-1 0 4.3 4.3 0 0 0 .3-.7 4.1 4.1 0 0 0-1.2.4 1.6 1.6 0 0 1 .2-.5 4.7 4.7 0 0 0-1 .5V58a4.3 4.3 0 0 0-.3.3V58a3.3 3.3 0 0 0 1.2-.6 4.5 4.5 0 0 0-.6-.2 3.2 3.2 0 0 0 .3-.5v-.1a3.6 3.6 0 0 0 .3.3 3.3 3.3 0 0 1 0-.7h.2v.1-.1l.5-.1a4.2 4.2 0 0 0 .2.6 4.7 4.7 0 0 0 .5-1.2 5 5 0 0 0 1 .8s-.1 0-.2-.4a2 2 0 0 0 .6.5s0-.3-.2-.7a5.4 5.4 0 0 0 .4-.7 1.1 1.1 0 0 0 0-.1 3.6 3.6 0 0 0 .5.4 3.4 3.4 0 0 0 0-.7 2.1 2.1 0 0 0 .5.4s0-.2 0-.5v-.3a1.1 1.1 0 0 0 .3.2c0 .8 1.3 1.5 1.3 1.5a4.7 4.7 0 0 0-.4-1.2 4.8 4.8 0 0 0 1.2-.1s0 0-.4-.2a2 2 0 0 0 .8 0s-.2-.2-.6-.5a2.1 2.1 0 0 0 .5 0l.2.3a1.7 1.7 0 0 1 0-.6 3.6 3.6 0 0 0 .4.5l.1-.3a4 4 0 0 0 .6.7 1.3 1.3 0 0 1 0-.5 3.4 3.4 0 0 0 .7.8 3 3 0 0 0 0-1 1.2 1.2 0 0 0 .2 0v.3a1 1 0 0 1 .2-.3 1.9 1.9 0 0 0 .2 0s0 0-.1 0a3 3 0 0 0 .2-.5 3.7 3.7 0 0 0 .2.4 2.5 2.5 0 0 0 .3-1.1 4.4 4.4 0 0 0 .9.2 4.6 4.6 0 0 0-.9-1 5 5 0 0 0 1-.5s0 0-.3 0a2 2 0 0 0 .7-.4l-.8-.2a5.1 5.1 0 0 0-.5-.6 3.8 3.8 0 0 0 .5-.3 3.4 3.4 0 0 0-.7-.3 2 2 0 0 0 .6-.3l-.5-.1-.2-.2a1.2 1.2 0 0 0 .2-.2c.8.3 2-.7 2-.7a4.7 4.7 0 0 0-1.4 0 4.9 4.9 0 0 0 .4-1.2s0 0-.3.3a2 2 0 0 0 .2-.7s-.2.1-.5.4a2 2 0 0 0 0-.5l.4-.1a1.7 1.7 0 0 1-.5-.3 3.9 3.9 0 0 0 .6 0l-.3-.3a3.9 3.9 0 0 0 .9-.3 1.3 1.3 0 0 1-.4-.2 3.4 3.4 0 0 0 1-.4 3 3 0 0 0-.8-.3 4.4 4.4 0 0 0 .3-.3 5 5 0 0 1-.8 0 2 2 0 0 0 .2-.2s-.3 0-.7 0a1.8 1.8 0 0 0 .3-.4 4.4 4.4 0 0 0 .6-.2 4.7 4.7 0 0 0-1.2-.4 5 5 0 0 0 .6-1s0 0-.3.2a2 2 0 0 0 .4-.7s-.3.1-.7.3a5.4 5.4 0 0 0-.8-.3 1.1 1.1 0 0 0-.1 0 3.8 3.8 0 0 0 .3-.5 3.6 3.6 0 0 0-.7 0 2 2 0 0 0 .3-.4c.3-.1 1.2-.5 1.4-1h.1l.2.4a1.6 1.6 0 0 0 .1-.5 2.6 2.6 0 0 0 .3.5 2.9 2.9 0 0 0 .1-.5.7.7 0 0 0 .1.1l.6.4a2.8 2.8 0 0 0-.2-.7l.3.3a1.6 1.6 0 0 0-.1-.5 2.5 2.5 0 0 0 .5.2 2.7 2.7 0 0 0-.2-.4h.3l.2.3a1.5 1.5 0 0 0 0-.4 2.6 2.6 0 0 0 .5.3 2.9 2.9 0 0 0 0-.5l.2.1v.3s.2 0 .2-.2a1 1 0 0 1 .4 0 3 3 0 0 0-.3-.3l.1-.2a4.1 4.1 0 0 1 .6.3s0-.1-.1-.3a1.6 1.6 0 0 0 .2-.3v.5s.5-.4.3-.8a2.6 2.6 0 0 0 .6 0 2.5 2.5 0 0 0-.5-.6 1 1 0 0 1 .4 0 3 3 0 0 0-.5-.4 2.6 2.6 0 0 0 .3 0 3 3 0 0 0-.3-.4 1.3 1.3 0 0 1 .4 0s0 0-.2-.1a1.5 1.5 0 0 0 .1-.4l.2.5a1.5 1.5 0 0 0 .2-.6v.3a3.6 3.6 0 0 0 .3-.8 3.6 3.6 0 0 0 .8.5s-.3-1.1-.8-1.2a.8.8 0 0 0-.1-.2h.5a1.6 1.6 0 0 0-.2-.3 2.3 2.3 0 0 0 .5 0 2.8 2.8 0 0 0-.2-.4 1 1 0 0 0 .1 0 4.2 4.2 0 0 0 .6-.1c.3 0 .5.2.5.2a1.5 1.5 0 0 0-.3-.5l.3.1a3.7 3.7 0 0 0-.5-.7 3.4 3.4 0 0 0 1-.3 3.3 3.3 0 0 0-.5-.2 1.4 1.4 0 0 0-.2-.3h.5a1.8 1.8 0 0 0-.1-.1 4 4 0 0 1 .6 0 2.8 2.8 0 0 0-.3-.2ZM23.6 52.2Zm16.9 32.4Zm20.3-1.3ZM63.2 56Zm11.6 36.2Zm42.9 4v-.1Zm-36.2-14a1 1 0 0 1 0 .1Zm13-69.4Zm0 .4h-.2.2Zm1.8 27v-.1a1.3 1.3 0 0 0 .3-.2 1 1 0 0 0 .2-.2 1.5 1.5 0 0 0 .3-.1v.3l-.4.5a2.6 2.6 0 0 0 .8-.2 4.1 4.1 0 0 0-.4.8 4.6 4.6 0 0 0 .7-.2 1.3 1.3 0 0 0 0 .2v.4a4 4 0 0 0-1.3.2 4.7 4.7 0 0 0 1.2.5 4.9 4.9 0 0 0-.7 1s0 0 .4-.2a2 2 0 0 0-.5.6s.2 0 .6-.2a2 2 0 0 0-.3.4 3.2 3.2 0 0 0-.3 0 1.7 1.7 0 0 1 .3.4 3.7 3.7 0 0 0-.5-.1 3.8 3.8 0 0 0 .1.3 4 4 0 0 0-.9 0 1.3 1.3 0 0 1 .4.3 3.4 3.4 0 0 0-1.1 0 3 3 0 0 0 .7.6 1.6 1.6 0 0 0-.1.1h-.3a1 1 0 0 1 .1.2v.2a3 3 0 0 0 .2.4 3.7 3.7 0 0 0-.4-.1 2.5 2.5 0 0 0 .6 1 4 4 0 0 0-.4.2 2.9 2.9 0 0 0-.4.1 4.6 4.6 0 0 0 .4-.4 4.7 4.7 0 0 0-1.3.1 4.8 4.8 0 0 0 .2-1.1l-.3.3a2 2 0 0 0 .2-.8s-.3.2-.6.5a5.2 5.2 0 0 0-.8 0 1.3 1.3 0 0 0-.1 0 3.8 3.8 0 0 0 .1-.6 3.3 3.3 0 0 0-.6.4 2.1 2.1 0 0 0 .1-.7s-.2.2-.4.4h-.3a1.2 1.2 0 0 0 0-.3c.5-.3.6-1 .7-1.5l.4.3a2.9 2.9 0 0 0-.2-.7l.3.2a1.6 1.6 0 0 0 0-.4 2.4 2.4 0 0 0 .4.2 2.8 2.8 0 0 0-.1-.5h.2l.3.4a1.6 1.6 0 0 0 0-.5 2.5 2.5 0 0 0 .4.4 2.8 2.8 0 0 0 0-.5h.2l.1.4.1-.3a1 1 0 0 1 .4.1 3 3 0 0 0-.2-.3v-.2l.6.3-.1-.3a1.6 1.6 0 0 0 .2-.3v.5s.5-.5.4-.8a2.6 2.6 0 0 0 .5 0 2.6 2.6 0 0 0-.5-.6 1 1 0 0 1 .4 0 2.9 2.9 0 0 0-.5-.5 2.7 2.7 0 0 0 .3 0s0-.1-.2-.2h.2a.9.9 0 0 1 .1 0s0 0 0-.1h.1ZM121.1 21a1.1 1.1 0 0 0-.1 0h.1Zm-24 31a4.5 4.5 0 0 0-.1.3h-.2a2 2 0 0 0 .3-.5s-.2 0-.5.2h-.2c.5-.9-.2-2.4-.2-2.4l-.1.4a2 2 0 0 0-.2-.7s-.1.2-.3.6a2 2 0 0 0-.1-.5l.2-.2a1.7 1.7 0 0 1-.6 0 4 4 0 0 0 .5-.4h-.4a4 4 0 0 0 .5-.7 1.3 1.3 0 0 1-.4 0 2.7 2.7 0 0 0 .4-.5 4.1 4.1 0 0 0 .9 0 4.9 4.9 0 0 0-.4 1.2s0 0 .3-.3a2 2 0 0 0-.2.7s.3-.2.6-.4a5.4 5.4 0 0 0 .8 0 1.3 1.3 0 0 0 .1 0 3.8 3.8 0 0 0-.1.6 3.4 3.4 0 0 0 .6-.3 2.1 2.1 0 0 0-.2.7s.2-.2.5-.4h.2a1.1 1.1 0 0 0 0 .3c-.7.4-.8 1.9-.8 1.9a4.7 4.7 0 0 0 1-.9v.6h.2v.3a2.1 2.1 0 0 0-.9 1H98l-.2-.7a2.5 2.5 0 0 0-.2.7l-.2-.2.1-.2h-.2s0-.2-.2-.3Zm-14.4-8.5a.8.8 0 0 1 0 .2s.1 0 .1-.2a.9.9 0 0 0 .2 0 2.2 2.2 0 0 0 0 .7 2.5 2.5 0 0 0 .5-.7 2 2 0 0 0 0 .3.8.8 0 0 1 0 .2l.2-.1a1.2 1.2 0 0 0 .3 0l-.5.5a1.6 1.6 0 0 0 .4 0l-.3.3a3.7 3.7 0 0 0-.2-.3 3.4 3.4 0 0 0-.3.5 4 4 0 0 0-.5-.6 1 1 0 0 1 0 .4 2 2 0 0 0-.5-.5s0 0 0 .3a1.8 1.8 0 0 0-.4-.3 4.5 4.5 0 0 0-.2-.8 4.7 4.7 0 0 0-.5 1.1 5 5 0 0 0-1-.7 4.1 4.1 0 0 0 1.2-.4A4.6 4.6 0 0 0 80 43a4.8 4.8 0 0 0 .6-1l-.4.2a2 2 0 0 0 .4-.6s-.2 0-.6.2a2 2 0 0 0 .2-.4h.4a1.7 1.7 0 0 1-.4-.4 4.2 4.2 0 0 0 .5 0 3.6 3.6 0 0 0-.2-.3 4 4 0 0 0 1 0 1.3 1.3 0 0 1-.4-.3 2.6 2.6 0 0 0 .5 0l-.2.1a2.8 2.8 0 0 0 .4.2 4 4 0 0 0-.4.6l-.5.1a1.5 1.5 0 0 0 .5.2h-.3a3.6 3.6 0 0 0 .8.4 3.5 3.5 0 0 0-.5.8 3.5 3.5 0 0 0 .6-.2 1.9 1.9 0 0 0 .3.8 2.7 2.7 0 0 0 .1-.3 2 2 0 0 0 .2.3Zm1.7 1.3a3 3 0 0 0 .3.8v.1l-.1.3a4 4 0 0 0-.1-.5l-.3.3a4 4 0 0 0-.2-.8 1.3 1.3 0 0 1-.2.4 2.8 2.8 0 0 0-.2-.7 1.5 1.5 0 0 0 .5 0l-.2.1a3.6 3.6 0 0 0 .5 0Zm11.2-3.3ZM90 44.3Zm1.3-.8h.2v.5a1.6 1.6 0 0 0 .2-.5 2.2 2.2 0 0 0 .2.3 3.9 3.9 0 0 0-.4.5 4.5 4.5 0 0 0-.3-.6 1 1 0 0 0 0-.2Zm-6.7 1.4-.2-.1h.3Zm-6.4-14.3.1-.2a2.4 2.4 0 0 0 .3.5 3 3 0 0 0-.3-.1s0 0 0 .2h-.3a4.1 4.1 0 0 0 .4-.3h-.2Zm.5.2a1.2 1.2 0 0 0 0 .2v-.2Zm3 9v.3-.2Zm-1.7 4v.4a1.7 1.7 0 0 0-.3-.4 1.9 1.9 0 0 0 .3 0Zm-1.2 1.1Zm0-.5a2 2 0 0 0 .7-.2s-.2 0-.5-.2l-.1-.3a1.2 1.2 0 0 0 .2 0 .9.9 0 0 0 .4.1l.2.6a5.3 5.3 0 0 0-.4.7 1.3 1.3 0 0 0 0 .2 3.9 3.9 0 0 0-.4-.4 4.1 4.1 0 0 0 .5-.1 3.5 3.5 0 0 0-.6-.4Zm-.4-13.2Zm3.6 9h-.2l.2-.2v.2Zm-3-9.4-.2-.2a2.3 2.3 0 0 0 0-.3.8.8 0 0 0 .3.3.8.8 0 0 0 0 .2h-.1Zm-.9-.2v-.1a.9.9 0 0 1 0 .1ZM79.9 78a1.3 1.3 0 0 0 0-.3h.2v.2a.8.8 0 0 1 .2-.1l-.4.2Zm21.5 4.7-.1.1a2 2 0 0 0 .1-.7s-.2.2-.5.5a5.4 5.4 0 0 0-.8 0 1.4 1.4 0 0 0-.2 0 3.8 3.8 0 0 0 .2-.6 3.3 3.3 0 0 0-.7.4 2.1 2.1 0 0 0 .2-.6 4 4 0 0 0 .3-1.3 1.5 1.5 0 0 1 .3.5 4.7 4.7 0 0 0 .2-1l.3.2a4.4 4.4 0 0 0 0-.7 4.4 4.4 0 0 1 .3.4 3.1 3.1 0 0 0-.2 1.3 4.5 4.5 0 0 0 .6-.4 1.5 1.5 0 0 0 0 .2 6.3 6.3 0 0 0 .3.8l-.3.9Zm-2.5-.9a1 1 0 0 0 .4-.4l.2.3-.4.4H99a1.2 1.2 0 0 0 0-.3Zm6.3.6-.1-.2a3.4 3.4 0 0 0 .6 0v.1a2.6 2.6 0 0 0-.5 0Zm.6 0v-.1Zm-4.5 1.3a4.8 4.8 0 0 0 .2-1 2.3 2.3 0 0 0 .7-.5l-.2.4a5.9 5.9 0 0 0 1.2-.7 5.7 5.7 0 0 0 .5 1.4 5.2 5.2 0 0 0 .3-1 2.3 2.3 0 0 0 .7.3 3.5 3.5 0 0 0 .2.6 2.5 2.5 0 0 0-.3 0v-.4a1.5 1.5 0 0 0-.4.5v-.3a3.3 3.3 0 0 0-.2.3 3 3 0 0 0-.2.4 3.5 3.5 0 0 0-.7-.6 3.2 3.2 0 0 0 0 .5 1.3 1.3 0 0 0-.1.3l-.2-.4a1.4 1.4 0 0 0-.1.2l-.3-.6a3 3 0 0 0 0 .3 2.3 2.3 0 0 0-.6-.4 2.9 2.9 0 0 0 0 .6 3.6 3.6 0 0 0-.5 0Zm4.7-1.7v-.1a1.3 1.3 0 0 0 .1.2Zm-25.7-4a1.7 1.7 0 0 0 0-.2h.1a2.3 2.3 0 0 0 .3-.3 2.8 2.8 0 0 0 0 .3 2.3 2.3 0 0 0-.4.2Zm6.6-6.2a1.2 1.2 0 0 0 .2.1l-.3.1a2.2 2.2 0 0 0 .1-.2Zm11.7 8.5a3 3 0 0 0 .1.5 4 4 0 0 0-.2-.3l.1-.2Zm6 17.6Zm17-76.5a2.7 2.7 0 0 0 0-.3h.5a3.4 3.4 0 0 0-.5.3Zm-27-9-.2-.3.1-.2a2 2 0 0 0 .2.6Zm-.3-.2v.6a3.6 3.6 0 0 0-.4-.3 3 3 0 0 0 .4-.3ZM64 26.4Zm-.2-.5v.2l-.2-.1a1 1 0 0 0 .2-.1Zm-4.4-3Zm-.1-.4-.2.1a.7.7 0 0 0-.3-.1.9.9 0 0 0 0-.2l.1-.1h.1l.3.2a1.8 1.8 0 0 0 0-.2 2 2 0 0 0 0-.1v.4Zm-1.7 3Zm1-13.1v-.2.2Zm-.2-.2-.1.2a1.4 1.4 0 0 1 0-.3h.1Zm3.2 35.6a3 3 0 0 0-.3.2V48l-.2.4a1.8 1.8 0 0 0-.1-.6 2 2 0 0 0 .2-.4 3.2 3.2 0 0 1 .4 0 3.8 3.8 0 0 0-.4.4h.4ZM51.8 28h-.1a1.1 1.1 0 0 0 .1 0Zm.3.2Zm-22.6-1.5Zm0 22Zm12.1 27a1.3 1.3 0 0 0 0-.3h.4a2.3 2.3 0 0 0-.3.4.6.6 0 0 0-.1 0ZM49.9 95a1.6 1.6 0 0 0-.3-.3v-.2h.3a1.8 1.8 0 0 0 .2 0 5 5 0 0 0-.2.5Zm3.8-7.4-.2-.2-.2-.3v.3H53v-.2h.2a.8.8 0 0 1-.2-.1 1.4 1.4 0 0 0 0-.2 2.1 2.1 0 0 0-.3-.2h.2a3.9 3.9 0 0 0 .5.5 3.2 3.2 0 0 0 0-.4 2.4 2.4 0 0 0 .3.5s0 0 0-.2a4.6 4.6 0 0 0 .1.5h-.2Zm3.1-19.4a1.4 1.4 0 0 0-.3.2V68a1.8 1.8 0 0 0-.1.2 1.7 1.7 0 0 0 0-.2v-.1a.9.9 0 0 1 0-.3l-.2.1-.1-.2v-.2a1.3 1.3 0 0 0 .3 0 1.1 1.1 0 0 0 .5.5 3.2 3.2 0 0 0 0 .5Zm1.2.1v-.2h.2a1.2 1.2 0 0 0-.2.2Zm0-.3a3.6 3.6 0 0 0-.6.6 3.4 3.4 0 0 0-.4-.8 3.8 3.8 0 0 0 1 .2Zm2.6-19.9Zm.7.3Zm1-21.3a3.9 3.9 0 0 0-.5-.4 3.4 3.4 0 0 0 0 .7 2.1 2.1 0 0 0-.5-.4s0 .2.1.5l-.1.2a1.2 1.2 0 0 0-.2-.1c0-.8-1.4-1.5-1.4-1.5a4.8 4.8 0 0 0 .4 1.2 4.8 4.8 0 0 0-1.1.2s0 0 .3.2a2 2 0 0 0-.7 0s.2.2.5.4a2 2 0 0 0-.4 0l-.3-.2a1.7 1.7 0 0 1 0 .5 3.8 3.8 0 0 0-.3-.5l-.1.4a4 4 0 0 0-.6-.7 1.3 1.3 0 0 1 0 .5 3.4 3.4 0 0 0-.8-.8 3 3 0 0 0 0 1 1.5 1.5 0 0 0-.1 0l-.1-.3a1 1 0 0 1-.1.3H56h.1a2.9 2.9 0 0 0-.2.5 3.6 3.6 0 0 0-.3-.4 2.5 2.5 0 0 0-.2 1.1 4.3 4.3 0 0 0-.9 0 5.5 5.5 0 0 0 .7.7c-.1 0-.2 0-.3.2a2.2 2.2 0 0 0-.7-.2l.3-.2a2.5 2.5 0 0 0-.8 0 1.2 1.2 0 0 1 .3-.3 5 5 0 0 0-1 0 4.2 4.2 0 0 0 .3-.7 4 4 0 0 0-1.2.5 1.6 1.6 0 0 1 .2-.5 4.6 4.6 0 0 0-1 .5 4.4 4.4 0 0 0 0-.5 4.8 4.8 0 0 0-.3.3v-.4a3 3 0 0 0 1-.4c.2 0 1-.4 1.2-1h.2l.1.5a1.6 1.6 0 0 0 .2-.5 2.5 2.5 0 0 0 .3.5 2.8 2.8 0 0 0 .1-.5 1 1 0 0 0 0 .1l.7.4a2.9 2.9 0 0 0-.2-.7l.3.3a1.6 1.6 0 0 0-.1-.5 2.6 2.6 0 0 0 .4.2 2.8 2.8 0 0 0 0-.5h.2l.2.4a1.5 1.5 0 0 0 0-.5 2.6 2.6 0 0 0 .4.4 2.8 2.8 0 0 0 0-.5.7.7 0 0 0 .1 0l.2.1v.3l.2-.3a1 1 0 0 1 .3.1 3.2 3.2 0 0 0-.2-.3v-.2l.6.3v-.3a1.5 1.5 0 0 0 .1-.3v.5s.5-.5.4-.8a2.6 2.6 0 0 0 .5 0 2.6 2.6 0 0 0-.4-.6 1 1 0 0 1 .3 0 3 3 0 0 0-.4-.4 2.6 2.6 0 0 0 .3-.1 2.8 2.8 0 0 0-.3-.3 1.2 1.2 0 0 1 .4 0s-.1 0-.2-.1a1.5 1.5 0 0 0 0-.4l.3.5a1.5 1.5 0 0 0 .1-.6l.1.3a3.7 3.7 0 0 0 .3-.8 3.6 3.6 0 0 0 .8.5 3.4 3.4 0 0 0-.2-.6 3.4 3.4 0 0 0 .5 0 3.8 3.8 0 0 0-.3 1 3.6 3.6 0 0 0 .4-.3 1.4 1.4 0 0 0 .4 0l-.3.4a1.6 1.6 0 0 0 .2 0l-.4.5h.4a2.4 2.4 0 0 0-.2.6 2.7 2.7 0 0 0 .7-.4 1 1 0 0 1 0 .3 3.2 3.2 0 0 0 .5-.4 2.8 2.8 0 0 0 0 .3 3 3 0 0 0 .4-.3 1.3 1.3 0 0 1-.1.4 2.9 2.9 0 0 0 .3-.2 1.5 1.5 0 0 0 .3.1l-.6.1a1.6 1.6 0 0 0 .6.3h-.3a3.9 3.9 0 0 0 .7.4v.1a4 4 0 0 0-.5.7 3.4 3.4 0 0 0 .4 0l-.2.2a1.2 1.2 0 0 0 0 .2ZM73 64.7Zm4.9 23.8a1 1 0 0 0 .1.2l-.1-.2Zm.3 0a2.1 2.1 0 0 0 0-.5.8.8 0 0 0 0-.1 2.8 2.8 0 0 0 .4.1 2.5 2.5 0 0 0-.2-.5 1.5 1.5 0 0 0 .5.1l-.3-.3v-.2a.8.8 0 0 0 .2 0 2 2 0 0 0 .8.3 2.3 2.3 0 0 0-.4.2s.2 0 .6.1l.1.2a1.2 1.2 0 0 0-.2.2 1.9 1.9 0 0 0-1.5.4Zm.6 2.6h.1-.1ZM94 79.9a4.3 4.3 0 0 0-.4-.8 4.7 4.7 0 0 0-.3 1.3 4.8 4.8 0 0 0-1-.5s0 0 .2.4a2 2 0 0 0-.7-.4s.1.3.3.7a5.2 5.2 0 0 0-.1.7 1.1 1.1 0 0 0 0 .2 3.8 3.8 0 0 0-.6-.3 2.8 2.8 0 0 0 .3 1l-.2.2a3.9 3.9 0 0 0 0-.4 3.8 3.8 0 0 0-.3.3 4 4 0 0 0-.3-.9 1.3 1.3 0 0 1-.2.5 3.4 3.4 0 0 0-.4-1 3.4 3.4 0 0 0-.2.5 4.1 4.1 0 0 0-.6-.6 1 1 0 0 1 0 .4 2 2 0 0 0-.4-.6s0 .2 0 .4a1.9 1.9 0 0 0-.5-.4 4.4 4.4 0 0 0-.1-.7A4.7 4.7 0 0 0 88 81a4.8 4.8 0 0 0-.9-.7s0 0 .1.4a2 2 0 0 0-.6-.5s.1.3.2.7a5.3 5.3 0 0 0-.3.7 1.3 1.3 0 0 0 0 .1 3.7 3.7 0 0 0-.6-.4 3.4 3.4 0 0 0 0 .7 2.1 2.1 0 0 0-.5-.4s0 .2.2.6l-.2.2a1.3 1.3 0 0 0-.2-.2c0-.8-1.4-1.4-1.4-1.4a4.7 4.7 0 0 0 .4 1.2 4.9 4.9 0 0 0-1.1.1s0 0 .4.2a2 2 0 0 0-.8 0s.2.2.6.4a2 2 0 0 0-.5.1l-.2-.3a1.7 1.7 0 0 1 0 .6 3.8 3.8 0 0 0-.4-.5v.2H82a1.6 1.6 0 0 0 .3-.4s-.2 0-.5.1a4 4 0 0 0-.3-.2 2.8 2.8 0 0 0 .4-.5 2.5 2.5 0 0 0-.5 0 1.6 1.6 0 0 0 .3-.3s-.2 0-.4 0H81a1 1 0 0 0 .1-.2c.6 0 1.1-1 1.1-1a3.7 3.7 0 0 0-1 .3 3.7 3.7 0 0 0 0-1s0 .1-.1.4a1.5 1.5 0 0 0-.1-.6s-.1.2-.3.4a1.6 1.6 0 0 0 0-.3l.2-.2a1.3 1.3 0 0 1-.4 0 2.7 2.7 0 0 0 .3-.3 2.8 2.8 0 0 0-.2 0 3 3 0 0 0 .5-.5 1 1 0 0 1-.4 0 2.6 2.6 0 0 0 .6-.6 2.3 2.3 0 0 0-.6 0 3.2 3.2 0 0 0 0-.3.8.8 0 0 1 0 .1 1.8 1.8 0 0 0 .5-.6 3.4 3.4 0 0 0 .5.4 3.5 3.5 0 0 0-.3-1 3.7 3.7 0 0 0 1 0s-.1 0-.3-.1a1.5 1.5 0 0 0 .6 0s-.2-.1-.5-.3a4.2 4.2 0 0 0-.1-.6v-.1a3.1 3.1 0 0 0 .4 0 2.1 2.1 0 0 0-.5-.6 2.4 2.4 0 0 0 0-.4 2.8 2.8 0 0 0 .5.2 2.5 2.5 0 0 0 0-.3 3 3 0 0 0 .6.2 1 1 0 0 1-.2-.3 2.5 2.5 0 0 0 .8.1 2.6 2.6 0 0 0-.3-.3 3.1 3.1 0 0 0 .6-.1.8.8 0 0 1-.2-.2 1.6 1.6 0 0 0 .5 0s0 0-.2-.2a1.5 1.5 0 0 0 .5-.2s0 0-.3 0a1.6 1.6 0 0 0 .3-.2 3.1 3.1 0 0 0 .5 0 4.9 4.9 0 0 0-.4-.4 3.7 3.7 0 0 0 .7-.2s0 0-.3-.1a1.5 1.5 0 0 0 .6-.2s-.2 0-.4-.1a2.2 2.2 0 0 0-.3-.3.7.7 0 0 0-.1 0 2.7 2.7 0 0 0 .4-.3 2.4 2.4 0 0 0-.5-.2 1.6 1.6 0 0 0 .4-.3h-.4l-.1-.1a.8.8 0 0 0 0-.1 1.5 1.5 0 0 0 .4-.2v.1l.3-.2v.2a1 1 0 0 1 .2-.2h.1v.4a3.8 3.8 0 0 0 .3-.1 4 4 0 0 0-.1.8 1.3 1.3 0 0 1 .3-.3 3.4 3.4 0 0 0 0 1.1 3.4 3.4 0 0 0 .3-.3 4.4 4.4 0 0 0 .6.3 1.3 1.3 0 0 0-.2.1 6.4 6.4 0 0 0-.6.7l-.9.1a2.4 2.4 0 0 0 .9.5h-.6a5.8 5.8 0 0 0 1.3.7 5.7 5.7 0 0 0-1 1.1 5.2 5.2 0 0 0 1-.1 3 3 0 0 0 .2 1.4 4.5 4.5 0 0 0 .4-.5 3.5 3.5 0 0 0 .2.5h-.1a1.9 1.9 0 0 0 .2.1 1.2 1.2 0 0 1 .1.4s0-.1.1-.3h.2a3.6 3.6 0 0 0 0 1.1 4 4 0 0 0 .9-.9 1.6 1.6 0 0 1 0 .6 4.7 4.7 0 0 0 .7-.9c0 .2 0 .3.2.5a4.4 4.4 0 0 0 .3-.6 2 2 0 0 1 0 .6s.2 0 .3-.3a2.4 2.4 0 0 0 .6.1l-.7.4a2.4 2.4 0 0 0 1 .1l-.5.3a5.7 5.7 0 0 0 1.4.1 5.6 5.6 0 0 0-.6 1.5s1.7-.8 1.7-1.7a1.3 1.3 0 0 0 .3-.2l.1.3-.1.6a2.5 2.5 0 0 0 .6-.5 4.1 4.1 0 0 0 0 .9 4.7 4.7 0 0 0 .6-.5 1.3 1.3 0 0 0 0 .2 6.7 6.7 0 0 0 .4.8v.2l-.2-.1v.1a2.7 2.7 0 0 0-.4.1 3.6 3.6 0 0 0 .1-.4 2.5 2.5 0 0 0-1 .4Zm2.8.6v-.3a1.1 1.1 0 0 1-.1.2l-.2-.2v.2a3 3 0 0 0-.2.2 2.6 2.6 0 0 0 .1-.6 5.2 5.2 0 0 0 .6-.5v1.2a.8.8 0 0 0 0 .2 1.5 1.5 0 0 0-.2-.4Zm1-.4.1-.1v.2a1.1 1.1 0 0 0 0-.1Zm.2-.2a2 2 0 0 0 .3-.2v.7a5.1 5.1 0 0 0-.3-.5Zm6 17.7.1.1h-.1Zm5.8-17.9a1 1 0 0 0-.4-.3 1.3 1.3 0 0 0 0-.3h.3l.3.2a3.2 3.2 0 0 0-.2.4Zm4.8-24a1.7 1.7 0 0 0 .4.3 2.8 2.8 0 0 0-.4-.2v-.1Zm8.6-15.3-.4.2h-.3a1.2 1.2 0 0 0 .1-.3.8.8 0 0 1 0 .1s0 0 .1-.1a.9.9 0 0 0 .3-.2l-.2.4a1.5 1.5 0 0 0 .5-.3v.2Zm5.5-3Z"/><path fill="#73bf44" d="M57.3 35.9c10.9 0 10.9-16.9 0-16.9-10.8 0-10.9 16.9 0 16.9ZM82.1 38.2c10.9 0 10.9-16.9 0-16.9s-10.9 17 0 17Z"/><path fill="#73bf44" d="M82.1 51c10.9 0 10.9-16.8 0-16.8S71.2 51 82.1 51Z"/><path fill="#73bf44" d="M96 56.8c12.7 0 12.7-19.8 0-19.8C83 37 83 56.8 96 56.8ZM96.4 91.4c12.8 0 12.8-19.8 0-19.8s-12.8 19.8 0 19.8Z"/><path fill="#73bf44" d="M87.6 86.8c12.8 0 12.8-19.9 0-19.9s-12.8 19.9 0 19.9Z"/><path fill="#73bf44" d="M65 78.6c9 0 17.7-8 17.3-17.4A17.7 17.7 0 0 0 65 44c-9.1 0-17.8 8-17.4 17.3.4 9.4 7.6 17.4 17.4 17.4Z"/></svg>