<svg xmlns="http://www.w3.org/2000/svg" viewBox="0 0 150 150"><path fill="#73bf44" d="M118 94a1 1 0 0 0 1 1 3 3 0 0 1 1 3l-1-1v3l1 1h-1a2 2 0 0 0 0 2s0 1 0 0l-1 1v2l1 2a3 3 0 0 1 0 2c1 0 0 0 0 0a5 5 0 0 0-1 1l-1-1a4 4 0 0 1-1-2 5 5 0 0 0 0-4l-1-1-1-1a18 18 0 0 0 0-2l-1 2-1-1v1a2 2 0 0 0 1 0l1 2v1l-1-1-1 2v1s0-1 0 0h-1c0-2 0-4-2-5v2l-1 1c0-1 0 0 0 0v1l-1-1h-1a2 2 0 0 0 1 1 13 13 0 0 1 1 1v1h-1v1c1 0 1 0 0 0h-1v1a3 3 0 0 1 0 2c0 1 0 1 0 0l-1 1h-2l-2-1v-2l-1 1v1l-1 2c1 0 0 0 0 0v1l-1 1h-1a3 3 0 0 1 0-2h-2l-2 1s0-1 0 0h-1l1 2-1 1v1-1a3 3 0 0 1-1-2 12 12 0 0 0 0-2l-1 1v-1a3 3 0 0 1 1-2 1 1 0 0 0 1-1 7 7 0 0 1-1-2 1 1 0 0 0 0 2l-1 1-1-1v-3h-1l-1 1v1h-1a1 1 0 0 0-1-1h-1v-1h-1v-3l-1 1v-2l2-2 1-2a1 1 0 0 1-1-1h-1a1 1 0 0 1 0-1l1-1v-2l-1-1v-4l-2 1 1-1a1 1 0 0 0 0-1h-1v1l-1-1h-1a3 3 0 0 1 1-1v-1l-1-1v-1a2 2 0 0 0 0-1v1l-1 1-1-1-1-1a5 5 0 0 0-2 1 26 26 0 0 0-4 6l-3 5a4 4 0 0 0 0 2v8a26 26 0 0 1 0 5l-1 8v6a28 28 0 0 0 0 6 492 492 0 0 0 0 8h-7l-1-1v-6a116 116 0 0 1 2-16 110 110 0 0 0 1-12V94a17 17 0 0 0-2-8l-3-7-1-1h-1c-2 0-2 1-1 3v1l-1-1-1 1-1 1c-2 0-1 1-1 2a12 12 0 0 1-1 1v-1l-1 1a4 4 0 0 1-1 2l1 1c-1 1 0 2 1 2v3l-1-1v1a3 3 0 0 1 0 1l1 1-1-1v1a1 1 0 0 1-1 0 3 3 0 0 1-1-2v-1 1h-2a2 2 0 0 1-1 1 1 1 0 0 0 1 2 2 2 0 0 1 1 1l-1 2-1-1-1 1v2l1 4 1 1-2 1-2-1v-1l-1 1v-1a2 2 0 0 1 1-1l1-1v-4l-2-1v2l-1-1v2l-1-1v-1h-1l1-1h1l-1-1-1-1v-1 1a15 15 0 0 0 0 2 26 26 0 0 1 0-3c-1-2 1-4 1-5a16 16 0 0 0 1-3 2 2 0 0 1 2-1l1-3-1 1v-1a2 2 0 0 1 1-1 1 1 0 0 0 1-1 1 1 0 0 0 0-1h-3v1h-2c0 1 0 0 0 0l-2 1c-1 1-2 0-2-1-1 0 0 0 0 0l-1 1-1-1v-1 1h-1v-1l1-1 1-2v-1h-1l-1-1-2-1h-2a4 4 0 0 1 0 1h-1l-1-2v-1c2 0 2-1 2-2l2-3a3 3 0 0 1 1-1v-1h-1c0-1 2-1 1-2a3 3 0 0 1 1-2 1 1 0 0 0 0-1 7 7 0 0 0-1-1v-1l1-1h-1a3 3 0 0 1 0-1l-2 1-1-1h-1v-2l-1 1a1 1 0 0 0 0 1 2 2 0 0 0 2 0c-2 1-1 1 0 2v1h-1v-1h-1v2l-1-1v-1l-1 2-1 1h-1v1h-1l-1-2v4l-1 1v-5l-2 3v2a2 2 0 0 1 0 1l-1-1v1l-1 1v-1h-2v-1a1 1 0 0 0 1-1l-1 1a3 3 0 0 0-1-2 3 3 0 0 1 0-2 19 19 0 0 0 0-3l2 1v1h-1l1 2h1v-1a6 6 0 0 1 0-2v-4 1-3 1l-1-1a1 1 0 0 1-1 1l-1-2-1 2-1-1v1l-1 1-1-2-1-1a8 8 0 0 0-1 0h3a6 6 0 0 0 1 0v-2l2-2H8a3 3 0 0 0 0-2l1-1h3l-1 1a1 1 0 0 0 0 1l1 1 1-1v-2h1v-1a1 1 0 0 0 0-1l-1 1 1-2v-1h-1l-1 2-1 2v-1h-1l-1-1a2 2 0 0 0-2 0 13 13 0 0 0-1 3 3 3 0 0 1-1 2l2-5v-2l-1 1H5l1-1 1-1a1 1 0 0 1 0-1 1 1 0 0 1 1 0v-1l1 1 3-1 2-2c1-2 2-2 3-2l1 2 1 1h2a7 7 0 0 0 4 1 1 1 0 0 1 1 0l5 1h2v-2h-1v-1s-1 0 0 0a1 1 0 0 1 0-1h1l-1-1h1l1-1h1a12 12 0 0 1 0 6v1l1-1 1 2h1v-3l1-1 1-1a3 3 0 0 1 3-2v1a2 2 0 0 1 1 2l-1-1v2a1 1 0 0 1-1 0 1 1 0 0 0-1 1 1 1 0 0 0 0 1h3l2-1h-1v-2h1v-2l-1 1v-2h-1 1l-2-3h-1a2 2 0 0 1-1-1v-1h-1v-1a11 11 0 0 0-2-2l-1 1a7 7 0 0 1 0 1l-1 1v-3h-1a29 29 0 0 0-5 0l-1 1 1 1-1-1v1l-1-1h-1v1l-1-1-1 1h-2a20 20 0 0 0-4 3 7 7 0 0 1 2-2 14 14 0 0 1 3-2l1-1h-1c-1 0 0 0 0 0v-1a15 15 0 0 0-2 2l-1 1-1-2a1 1 0 0 0 0-1l1-1h5l2 1 2-1v-2a2 2 0 0 1 0-1v-1l-1-1v2l-1-1a3 3 0 0 1 0-1h1l-2-1h1s1 1 1-1h1l1-1v-1h1v1a1 1 0 0 1 2 2v1l1 1a1 1 0 0 0 0 1h2v1h2a9 9 0 0 0 0 2v1-1l1-1v1l-1 1v1l1 1h1v-2a7 7 0 0 0 1-3l-1 1-1-2v1a1 1 0 0 1-1-1h-1l-1-1 1-1a7 7 0 0 1 2 0l1-1 4-3a8 8 0 0 0 1-1 2 2 0 0 1 2 0 14 14 0 0 1 4 1 1 1 0 0 0 1 0h1l-1-1a1 1 0 0 1 2 0h1a2 2 0 0 1 1 0h1l-1 1h2a2 2 0 0 1 1 0h1v1l-3 1 1 1v1h1a6 6 0 0 1 1-1l1 2 4 1 2-1-1-1 1-1a2 2 0 0 0 0-1 1 1 0 0 1 2-1l1-1v-1l1 1a2 2 0 0 0 0-3 3 3 0 0 1 0-1 1 1 0 0 1 0-1l1 1v1h2l2 1v2a7 7 0 0 1 3 1l1-1a1 1 0 0 1-1-1h1l4 1 1 1h1a18 18 0 0 1 5-1 9 9 0 0 1 3 1h-1v1l2 1v1h-1l-1-1-2 1 2 2-2-2-1 1h-2a8 8 0 0 1 0-2h-4l-1 1a2 2 0 0 1 2 2v1a8 8 0 0 0 2 0h1l1-1h1l1-1 1 1h-1l-1 1v1h1a9 9 0 0 1 1-1h1c0 1 0 0 0 0v-1c1 1 2 0 2 2h1a1 1 0 0 1 1 2l2 3h-2v1a1 1 0 0 1-1-1v-1 1h-1c0 1 0 0 0 0l-1-1v3a2 2 0 0 1 1 2l1 2a3 3 0 0 1 2 0l4 1 1-1h1a1 1 0 0 0 1 0 1 1 0 0 1 0 1l1 1 1 1h1l-1 1h1v2a3 3 0 0 0 0 2v1h-1l-1-1v1h-1a2 2 0 0 0 0-1l-1 1-1-2v1h-2a1 1 0 0 0 1 1 2 2 0 0 1 1 1v1l1 1v1l2 3a2 2 0 0 0 1 0l1 1c1 0 0 0 0 0l1 1 1-1v-1l-1-1h1v-2h1v2l1 1-1 2a4 4 0 0 0 2 2l2-1a1 1 0 0 1 1-1v-3l1-1h2v1h1l1 1a2 2 0 0 0 0 1h1c1 0 0 0 0 0a2 2 0 0 1 0 2l-2-1h-1a1 1 0 0 1-1 0v2c-1 0 0 0 0 0a2 2 0 0 0 2 0 1 1 0 0 1 1-1h1l2-1 2 1c1 1 1 0 2-1h4l1 2h-1l1 1 2 2v1h-1c0-1 0-1 0 0h-2l1 1 1 1h2a2 2 0 0 1 2-1 1 1 0 0 0 1 0h1l1-1v-1h1v-2a1 1 0 0 0-1-2h4v1a2 2 0 0 1-1 0c2 0 1 2 2 3l1 2a3 3 0 0 1 2 1h-1a3 3 0 0 0-2-1l-2 1v2h-1a1 1 0 0 1 0-1 12 12 0 0 1 0-1l-1-1a3 3 0 0 1-1 0 2 2 0 0 1 1 2v1h-2a4 4 0 0 1 0-2c1-1 0-1 0 0h-1v1h-1a2 2 0 0 0 1 1 2 2 0 0 1 1 2l-1-1a2 2 0 0 0-1 2 17 17 0 0 1 1 3 1 1 0 0 0 1 0l2 2h1a3 3 0 0 0 1 3 3 3 0 0 1 1 1l3 3v2l-1 1-1 1v-1l-1-1v1l-1 1v1l-1-1-1-3v1h-1l-1-1a4 4 0 0 0 0-1v1a1 1 0 0 1-1 0 4 4 0 0 1 0-2l1-1v-1l-1-1c1-1-1-2-1-3h-1v-1h1v-2a16 16 0 0 0-1-3v-1l-1 1s0 1 0 0h-1v-3h-2s0 2-1 1l1 1a11 11 0 0 1-2-1h-1c0 2 0 2 2 2a3 3 0 0 1 1 0l1 1h1v2h-1v-1c-1 2-1 2-2 1l-1 2h1l1 2-1-1a1 1 0 0 0-1 0v1c1-1 1 0 2 1a1 1 0 0 1 1 0v2h-1 1l1 2-1 1v2h1v1h-1l2 4 1 1h-1l1 2 1 1v1h1v1l1 1-1 1h-4a1 1 0 0 1 0-1 1 1 0 0 0-1-2v1h-1v-1l-1 1h-1v1c2 0 1 1 2 2v1a2 2 0 0 1 1 1c1 1 0 1-1 1l-1 1-1-1v-2 1h-1a3 3 0 0 0-1-2l-1-3a13 13 0 0 0 0 3 1 1 0 0 0 0 1 2 2 0 0 1 1 2 2 2 0 0 0 1 2h-1l2 5-1-1-1 2a1 1 0 0 0 1 1l1 1v1l-1-2v2h-1v-1h-2l1-1 1-1a1 1 0 0 0 0-1 2 2 0 0 1-2-2l-1 1a3 3 0 0 0-2-2v-4l-1 1h-1v-1l-1 1v-1l1-1 1-1a12 12 0 0 1 2-2h-1l-1 1a2 2 0 0 0 0-4l-1 4-1-3a6 6 0 0 0 0 3l-1 2-1 1v-1a6 6 0 0 1 1-1v-4l-1-1-1-1a6 6 0 0 0 1 3 2 2 0 0 1 0 3c0-2-1-1-2-1v-2l-2-1h-2v-1 5a2 2 0 0 0 1 3 1 1 0 0 0 1 0v-1a1 1 0 0 1 1-2l1-1Zm-17 10c-2 0-2 1-1 2l-1-1-1 1-1 1h1a4 4 0 0 1 2 0v-1l1-2v-2l-1-1h-1v1l2 2Zm7-9 1 1v3l1-1a16 16 0 0 1 0-2v-1c-1 0 0 0 0 0l-1-1-1 1 1-2a3 3 0 0 1-1-1l1-2-1-1-1-1v1h-1c0-1 0-1 0 0a2 2 0 0 0 0 2c1 0 2 1 1 2l1 2ZM74 17a2 2 0 0 0-2 0v1a3 3 0 0 1 1 2 1 1 0 0 0 1 0h1l1-1v1a1 1 0 0 0 2 1v-1a3 3 0 0 1 0-2h-1v-1h-2a1 1 0 0 1-1 0Zm59 67h-1v-2h-1v-1h-1a4 4 0 0 0 0 2l2 3a2 2 0 0 1 1 2v1h2a1 1 0 0 0 0-1 9 9 0 0 1-1-2v-1h-1a9 9 0 0 1 0-1Zm-65 5a42 42 0 0 1 3-4 21 21 0 0 1 4-3h-1a1 1 0 0 1-1 0l-2 1v1-2h-1l-2 7Zm53-31c-1 1-2 0-2 2-2 0-2 1-3 2h3a1 1 0 0 1 0-1l1 1a4 4 0 0 0 2-1l-1-2a9 9 0 0 0 0-1Zm11 9v-1h-2a5 5 0 0 1 0-1 2 2 0 0 0-1-2h-1v1h-1l2 3v2l1-1a1 1 0 0 1 1 0h1a1 1 0 0 1 0-1ZM43 87a1 1 0 0 0 0 1 21 21 0 0 1 0 4c-1 1 0 1 1 1a3 3 0 0 0 1-1h-1l1-2-1-1s0-1 0 0l-1-1v-1ZM16 39v1l-1-1h-3l1 1a2 2 0 0 1 1 1h-2l1 1a4 4 0 0 0 3-1v-2Zm103 44h1v-2h-1a8 8 0 0 1-1 2 5 5 0 0 0-1 2l2 1v-1l-1 1v-1l1-1v-1Zm-16-35a3 3 0 0 1 0-1v-1h-1v1l-1 1v3l1-1c2 0 1-1 1-1v-1ZM82 23l3 2c0-2 1-1 1-1h1v-1a25 25 0 0 1-3 0h-2Zm49 33-2 1v1h2v2l-1-1h-1a2 2 0 0 0 0 1h3a2 2 0 0 0 0-2 3 3 0 0 1-1-2ZM42 73l2-1-1-1-1-1h-1a1 1 0 0 0 0 1l1 1v1Zm1 9a4 4 0 0 0 0-2v-1l-1 1v3h1a8 8 0 0 1 0-1Zm1-51v1h1v-4l-1 1a4 4 0 0 1 0 2Zm-6 59a9 9 0 0 0-2 1l1 3h1v-1l-1-1a2 2 0 0 0 1-2Zm-5-28-1 1h-1l2 2a12 12 0 0 0 1-1v-1c-1 0-2 0-1-1Zm24-40a9 9 0 0 0-2 0h-1c-1 1-1 0-1-1h-1a7 7 0 0 0 0 2s0 2 1 0l4-1ZM32 47a12 12 0 0 0-3 1v2h1a14 14 0 0 1 2-2h1l-1-1Zm50-22a3 3 0 0 1-1-2l-1-1v1l-1 1v1l1-1 2 1Zm46 47-1-1-1 1a4 4 0 0 0 1 1h1v-1Zm-4 1h-1a3 3 0 0 1 0 2v1l2-1v-1l-1-1ZM25 41l-2-1a3 3 0 0 1-2 1h-1a2 2 0 0 0 1 1 4 4 0 0 1 2-1 2 2 0 0 0 2 0Zm-4-2a5 5 0 0 1-1 0 7 7 0 0 0-2 0h-1l1 2h1a4 4 0 0 1 2-2Zm12-13h1a2 2 0 0 0-2-2h-1v1l2 1Zm-2 16a6 6 0 0 0 1 2c1-3 0-3-3-4l3 2ZM21 57v-2 1l-1 3h1a4 4 0 0 0 0-2Zm82-17-1 1v1l1 1 1-1v-2a11 11 0 0 0-1 0Zm14 30h1l1 2v-2a2 2 0 0 0 0-1l-2 1ZM41 91v1a5 5 0 0 0 1 1v-1l1-2h-1c-1 0 0 0 0 0v1h-1Zm66 11v-1s0-1 0 0h-1a3 3 0 0 0-1 2h1l1-1Zm38-25h-1a4 4 0 0 1 0-2h-1c-1 2-1 2 1 2h1ZM34 39l-1 1v2a5 5 0 0 0 1 1v-4Zm-1 39 1 1 1-1-1-1-1 1Zm10 11v-3l-1-1a1 1 0 0 0 0 1l1 3Zm60-9s-1 1 1 1v1h1a1 1 0 0 0 0-1 1 1 0 0 0-1-1 1 1 0 0 1-1 0ZM54 23l1 1h1v-2a7 7 0 0 0-2 1ZM5 63h1l2 2s0 1 0 0a3 3 0 0 1-1 0v1a2 2 0 0 1 1 1l-1-1v5a2 2 0 0 0-1 1v1l-1-1c0-1 0-1 0 0l-1-1v-2a2 2 0 0 0 0-2 1 1 0 0 1 1-2 1 1 0 0 0 0-1v-1Z"/><path fill="#73bf44" d="m141 53-2-1-1 1h-2a3 3 0 0 0-2 0v-1a2 2 0 0 1-1 0h-1 1v-1l1-1h2c1 0 1 0 0 0v1h1l2-1v2h1l1 1ZM80 105a1 1 0 0 1 0-1 4 4 0 0 0-1-2l-1-1a1 1 0 0 0 1-1h1l1-1h1a12 12 0 0 1 1 1v1h-1l1 1a1 1 0 0 1-2 1l-1 1v1ZM18 26v1l1 1h-1v1a1 1 0 0 1-1 0 2 2 0 0 1 0-2v-1l-1 1v1a1 1 0 0 1-1 1v-1c0-2 1-2 2-2a12 12 0 0 0 1 0ZM10 69l-1 2v1-1l-1-1a1 1 0 0 1 1-2l1-1a3 3 0 0 1 1 2h-1ZM3 48v1l-1 1v-1a3 3 0 0 1-1 0v-1l-1 1v-1a2 2 0 0 1 1-1 1 1 0 0 1 1 0l1 1 1 1H3v-1ZM147 62a4 4 0 0 1 1 4v1a1 1 0 0 1-1-1v-4ZM115 110v1l-1-1h-1a2 2 0 0 1 1-1 1 1 0 0 1 1 0 4 4 0 0 1 1 1v1l-1-1ZM101 116v-2a1 1 0 0 1 1 0 20 20 0 0 1 0 3h-1v-1ZM26 22v-1h-1s0 1 0 0l-1-1 1-1 2 1-1 2ZM133 99a2 2 0 0 1 0-1 1 1 0 0 1 1 0 5 5 0 0 1 1 1 1 1 0 0 1 0 1h-2v-1ZM38 33l1 1a1 1 0 0 1-2-1v-1l1-1c0-1 0-1 0 0 1 0 0 0 0 0v1a1 1 0 0 1 1 0v1a5 5 0 0 0-1 0ZM31 52c4 0 4-6 0-6s-4 6 0 6ZM19 60c4 0 4-6 0-6s-4 6 0 6Z"/><path fill="#73bf44" d="M19 60c4 0 4-6 0-6s-4 6 0 6ZM34 66c3 0 3-6 0-6-4 0-4 6 0 6ZM42 75c4 0 4-6 0-6s-4 6 0 6ZM35 81c4 0 4-6 0-6s-4 6 0 6ZM104 83c4 0 4-6 0-6-3 0-3 6 0 6ZM107 93c4 0 4-6 0-6s-4 6 0 6Z"/><path fill="#73bf44" d="M108 98c4 0 4-6 0-6-3 0-3 6 0 6Z"/><path fill="#73bf44" d="M108 100c4 0 4-6 0-6-3 0-3 6 0 6Z"/><path fill="#73bf44" d="M105 104c4 0 4-6 0-6s-4 6 0 6Z"/><path fill="#73bf44" d="M100 105c3 0 3-6 0-6-4 0-4 6 0 6Z"/><path fill="#73bf44" d="M99 109c4 0 4-6 0-6s-4 6 0 6ZM119 85c4 0 4-6 0-6s-4 6 0 6Z"/><path fill="#73bf44" d="M118 88c4 0 4-6 0-6s-4 6 0 6ZM118 73c4 0 4-6 0-6s-4 6 0 6Z"/><path fill="#73bf44" d="M123 77c4 0 4-6 0-6s-4 6 0 6Z"/><path fill="#73bf44" d="M127 75c4 0 4-6 0-6s-4 6 0 6ZM120 63c4 0 4-6 0-6s-4 6 0 6Z"/><path fill="#73bf44" d="M118 65c3 0 3-6 0-6-4 0-4 6 0 6ZM101 51c4 0 4-6 0-6s-4 6 0 6ZM53 25c4 0 4-6 0-6-3 0-3 6 0 6Z"/><path fill="#73bf44" d="M55 26c4 0 4-6 0-6s-4 6 0 6ZM46 33c4 0 4-6 0-6s-4 6 0 6ZM80 28c4 0 4-6 0-6-3 0-3 6 0 6Z"/><path fill="#73bf44" d="M83 27c4 0 4-6 0-6s-4 6 0 6Z"/><path fill="#73bf44" d="M86 29c4 0 4-6 0-6s-4 6 0 6ZM130 62c4 0 4-6 0-6s-4 6 0 6Z"/><path fill="#73bf44" d="M128 67c3 0 3-6 0-6-4 0-4 6 0 6Z"/><path fill="#73bf44" d="M129 70c4 0 4-6 0-6s-4 6 0 6ZM23 46c3 0 3-6 0-6-4 0-4 6 0 6ZM144 78c2 0 2-4 0-4-3 0-3 4 0 4ZM32 26c3 0 3-4 0-4-2 0-2 4 0 4Z"/></svg>