<svg xmlns="http://www.w3.org/2000/svg" viewBox="0 0 150 150"><path fill="#73bf44" d="M78.4 150H73a59.6 59.6 0 0 0 .6-7.8l.2-10.3c0-3.2-.4-12.2-.6-17.2h6.1s.2 14 .5 18.1l.5 17.2Z"/><path fill="#73bf44" d="m119.5 76.7-.1-2 .6-.3 1-1-1.3-.8.4-.8-.3-.5.8-.8-1.2-1h.7l-.4-1.8-1.8-.9 1-.2-1.2-.8v-1.4l-.1.2-1.3-.5-.3-1.2-1-.2.2-.2-.7-1-1.4.1.7-1.7-.8-1.3-1 .9-.8-1.1-.6.5-.5-1.2h-.7l.4-1.2-.7-.5 1-.5-.5-1.5-1.6-.2-1-.9.7-1.1-1-1 .6-.5.7-.6 2.1.7c2.1.7 0-1 0-1l.7-.3-.4-1.2-.3-.2.4-.8-1-.4h-.4l-1-1.8 2.2.3-.6-.5.9-1.5-.7-.6.3-.8-1.3-.5.7-.8-1.8-.1.5-1.1-1.7-.8 1.6-.4-.7-1c-.7-1 1.4 0 1.4 0v-.3l.8-.7-.5-.6.7-.8-1-.3.6-1.8-1.3-.1h-.5l-1-.7-.2.2-.6-2.2-.7-.2.3-1.2-1.4.6.5-1.2-1.8.4v-.7l-.9.1v-1.3l-.3.2v-1l-1.3-.3 1.5-1-.9-.6 1-1-1.2-.6.7-.6-.5-.4-1.4-1.7-.8 1.7c-.7 1.7-1-1.4-1-1.4l-.6 1.2c-.5 1-.1-1.2-.1-1.2l-1-.3.9-2-.7-.4 1.5-1.2-1-.7 1-1-.4-.3-1-.7-1.6.5-.3-1-.7 1.2-.9-1.4-.7.5-.4-1-.4.2.4-1-.9-.5.8-1.2-1-.8 1-1-1.7-.7.3-.6-2 .3v-1l-.8.5-.9-1.2-.5 1.2-1-.8-.1 1.6c-.2 1.5-.5-.6-.5-.6l-.8.5h-1.2l.2-1.3-1 .4-1-1.7-.6 1.2-1-1-.5 1-.3-.3V6l-1.4-.8.3 1.4-.3-.2-2 .2.4-1.2-1.4-.2.5-1.8h-.6l.1-1.8-1 .6-.1-.8-1 .9-.8-.9-1 1-.5-1.1-.4.8h-1l-1.4-.9-1.1.4-.2-1.2-.7.2-1.1-.6-.9 1-1.4-.6.4 1.9-1.6-.4.5 2.1-1.4-.3.4 1.8c.5 1.8-.7.1-.7.1l.6 1-.2 1.5-1.3.4 1 1.5-1.5.6L57 9h-.7v1l-1.3-.3.1.8-.9.4.2 1.3-1 .6-1.3-1.3-.6 1.2-.1-1-1 2-.9-.3.4 1.9H49l.8 1.6h-.3l.2.7-.4 1.3-1.2-.3 1 1.7-1.3-.1.5 1.5-1 .4.7 1.1 1.2 1-1.3.3 1 1.1-.8.2-1.3.6.2 1.2h-1.2l.6 1.2-.3 1.2-.6-.2 1 1.3-1.2.5 1 .4-.7.5-.3 2.1 1.3.2-.3.5.8.7h-.9l.2.8-1.2 1.2-1-1.2-1 .5-.4-.5-.2 1.7-1-.8-.1 1.7-1.4-.2 1.1 1.6c1.1 1.5-1.3 0-1.3 0l.9 1.8-1.1.1c-1.1.2-.4 1.3-.4 1.3l-1.4-.6.7 2h-1l.7 1.1-.5.3.2 1.3-1-.1-.2.8-1.5-.6.6 1-.6 1.5.5 1.2 1.2.2-.7.7 1 .5-1.7.8 1 .7-.1 1 .6 1-1 .5 1.1 1-1.4-.2v.7l-1.3-.5.4 1.4c.4 1.5-.6.4-.6.4l.6 1.7-1.5-.1v.9l-1-.2.4 1.5-1.3.3-.1 1.4-1.3-.8.4 1h-1l-.4 1 1 .7-.4.7.7.3-.4.6h.6l.1 1-1 .3v1l1.5.4-.5.8.8.2-.1.6h.8l-.5 1.2h2l-.5.7 1.3.5-.5.2.3 1-1.4.4-.7-.6-.4 1h-.6l.1 1.2-.6.3 1 1.3-.6.9.8.5-.2.6.7.8-.1.4 1 .6-.5.8-1 .1-.1 1.4.2.6 1 .2-.1.6-.6.2.8 1.2-.5.2.7 1-.6.9.8.3-.2 1 .6.9 1.5-.2.1.8 1.4.1-.5.5 1.2.6-.9.9 1.2.5-.2.8 1.2.1-.3.7.5.3.3 1.5 1-.4.9 1.2 1-.9 1 .6.5-1h.8l.2-1 1 .3v-1.1l1 .3V97l1 1 1.8.5h-.7l.5 1-.2.6-.7 1.3-1 .1.4.6-1.2.8h1l.4 1.2 1.1-.3.2.6 1.4.3.4-.5 1.2.9.7-1 1 .7.2-.8 1 .2.5-.4v-.8l.6-.5 1 .2.5 1.3 1-.3v1h1l.3 1h-.3l-.7 1-.5-.1-.3.7-.3.3h-.2v1.3h-.6l-.8 2.1h-.7l.5 1.5-.5.3 1 .7-.2.8 1 .1v.7l1.2.2 1 .6.7-.6v1l1.1-.1v1l1.2-.1-.1.6h1.3l.6.4.3-1h.6v-1l.7.4.5-1.6.5.5v-1c.1-1 .7.5.7.5l.2-.9 1 .6.2-1 .7.6.6-.9.6 1 .2-.3.1.8.8-.4.3 1 .2-.1.4.6c.8 1.5.5-.2.5-.2l.5 1.4.1-.4.9 1 .2-1.8.4.7 1.4-.3 1.4.1.4-.8.5.4.5-.6.4.5.6-.3.5 1 .6-1c.6-1 1 .7 1 .7l.9-1.5c.8-1.4 1.2.4 1.2.4l1.5 1 .2-.7.5.7 1.5-.5v-.2l.4-.7-1.7-1 1.2-1.1.7.8 2-.6 1.1 1 .8.4.2-1 1.7-.1.8-1.5.7.2-.4-1.1 1.3.4v-2.2l-1.9-.5.9-.6.7-1.4-.9-.8.9.1.7-1.5 1.1 1 1.2-.5 1 1.6 1-.5.5 1.2 2.2-.8.5 1 1.6.5 1 1.2.4-.9 1.2.8 2-1.4-1.3-1.1 1.5-.3-1.5-2 .8.2.7-.1.1.8 1.5.3.5 1.2.4-.2 1.6.7v-.9l1-1 1-.9-.4-.4-.3-1.2-.8.3.8-2.5-2-1.7v-.8l.7.6 1-.5 1.8.5-.2-1 1.1.4.2-.6-.6-1h.6l-.8-.8-.8-1.3-.5-.9-.9-.6-.3-1-1.5-.4 1.1-1.2-4.3-1.5.5-.3.5-.6 1.1-.4-1.2-1.7 1.2-.7.4-1.2 1.5.3 1.9-1.2.6-.4-1.2-.6-.1-1 1.6-.7-.3-.7.8-.6-1.1-1 2.1-.2Z"/></svg>