<svg xmlns="http://www.w3.org/2000/svg" viewBox="0 0 150 150"><path fill="#73bf44" d="M83.9 57a.7.7 0 0 1 0 .2 1.8 1.8 0 0 1 .2-.5v-.3a1.2 1.2 0 0 0 .2.2 1.5 1.5 0 0 1 0-.2l.1.3.3.1a3.4 3.4 0 0 1-.3-1l-.7.2.2 1ZM83.6 56l-.2.4a2.7 2.7 0 0 1 .2-.3ZM67.7 66.4ZM80.1 49.3ZM51 97l-.2-.1h-.3a1.7 1.7 0 0 1-.3.2h.7V97ZM64.2 58.2a7.2 7.2 0 0 1-.7-.5 6.1 6.1 0 0 1-.2 1 9.1 9.1 0 0 1 .9-.5ZM103 71.8a2.1 2.1 0 0 1 .3.5h.1l.3-.4h-.7ZM107 74l-.7 1.1a6.1 6.1 0 0 1 .9-.4 1.7 1.7 0 0 0-.1-.2s0 0 .2.2l.2-.2a5 5 0 0 1-.5-.6ZM83.2 43.6a8.6 8.6 0 0 1-.6 2l-.2-.7a3.7 3.7 0 0 1-.4 1.4s-.1-.5-.4-1.2a3.7 3.7 0 0 1-.3.9l.4.4a3 3 0 0 0-1 0l.6.4c.8-.5 2.2-1 3.2-.6a2.4 2.4 0 0 1 .4-.2l-.2-.5-1-.3a4.2 4.2 0 0 1 1.1-.5 7 7 0 0 1-1.2-.7s0 0 .1 0a5.8 5.8 0 0 1-.5-.4ZM99.3 59.7l-.4.2a2.3 2.3 0 0 1 .8 0s-.2.2-.6.5a2.3 2.3 0 0 1 .5 0l.3-.3a1.9 1.9 0 0 0 0 .7 4.1 4.1 0 0 1 .3-.6l.2.4a4.4 4.4 0 0 1 .7-.7 1.5 1.5 0 0 0 0 .5 3.5 3.5 0 0 1 .7-.8 8 8 0 0 1-.7-.4l.4-.1a7.3 7.3 0 0 1 .4-.8l-.3-.5a4.8 4.8 0 0 1-1-.7l-.7-.3a4.4 4.4 0 0 1 1-.4h-.1a7 7 0 0 0-.2 0v-.2h-.1V56a1.4 1.4 0 0 0-.2-.2s.2 0 .4 0v-.2a4.3 4.3 0 0 1-1-.3 4 4 0 0 1-.3.1 4.5 4.5 0 0 1 .3 1 2.3 2.3 0 0 0 .4 0s-.1.1-.3.2a6 6 0 0 1 .1.6 7.6 7.6 0 0 1-.9-.5 5.9 5.9 0 0 1-.8.1 6 6 0 0 1 1 1.4 8.1 8.1 0 0 1-.8 0 5.1 5.1 0 0 1-.4 1.2 5.5 5.5 0 0 1 1.3.2ZM102.4 59.9a6 6 0 0 1-.5-.2v.3a3.4 3.4 0 0 1 .5-.1ZM100 55c0-.2.2-.2.4-.3a8.5 8.5 0 0 1-.9.1l.4.1ZM100.7 75.9a1.2 1.2 0 0 1 .2 0v-.4l-.3.1a1.6 1.6 0 0 1 .1.3Z"/><path fill="#73bf44" d="m96.7 59-.2.7.1.2a1.4 1.4 0 0 1 .3-.1c0-.8 1-1.4 1.4-1.6a4.5 4.5 0 0 1-1.5-.4 3.5 3.5 0 0 0 .4 1 7.4 7.4 0 0 1-1.8-1 6.5 6.5 0 0 1 .3 1.2l.4-.3a3.8 3.8 0 0 1 0 .8 2.5 2.5 0 0 1 .6-.4ZM84.8 43.6ZM81.5 59a2 2 0 0 1-.1-.3 1 1 0 0 1-.1 0 2.1 2.1 0 0 1-.5.1 4 4 0 0 1 .7.3ZM116 87h.2-.1ZM100 53.7l.3.2a2.3 2.3 0 0 1 .2-.5 1.2 1.2 0 0 1-.2.1l-.3.2ZM49 75.8v.2-.2ZM51 97a.3.3 0 0 0 0-.1ZM132.1 61.3l-.2-.2v.4a1.4 1.4 0 0 1 .2-.2ZM132.9 60.6ZM50.8 83.5a5 5 0 0 1-.6.6 2.3 2.3 0 0 1 0 .5l.6-.3a2.4 2.4 0 0 1 0 .3l.8-.4-.2.5a3.1 3.1 0 0 1 .6 0l.1-.3a1.8 1.8 0 0 1 .1-.2 4.6 4.6 0 0 1-.7 0 4.3 4.3 0 0 1 .6-.6 2.4 2.4 0 0 1-.7-.1s.2-.2.5-.3v-.3a1.2 1.2 0 0 1-.2 0c-.6.4-2 0-2.2-.1a5.3 5.3 0 0 1-.2.9 5.3 5.3 0 0 1 1.5-.2ZM137.2 47ZM85.5 55.8a6.8 6.8 0 0 1-1-.8 7.7 7.7 0 0 1 1-.2 5.7 5.7 0 0 1-.6-.7c-.2 0-.2.2-.2.2v-.4a2 2 0 0 0-.4-.5s.2 0 .5 0l.1-.2a6 6 0 0 1-1.7-.7 6.7 6.7 0 0 1 2-.8 5.8 5.8 0 0 1-.5-.3l-.4.2.1-.3a2.1 2.1 0 0 0-.4-.2s.2 0 .5-.2a3 3 0 0 1 .3-.8 1.7 1.7 0 0 1-.3.2l-1.5.9a4.4 4.4 0 0 1 .4-1.1l-1.2.6a4 4 0 0 1 .7-1.4l-.8.5a9.7 9.7 0 0 1 1-2.2 9 9 0 0 1-2.2-.3 7.2 7.2 0 0 1 1 1.1 2.4 2.4 0 0 0-.9-.1 6.1 6.1 0 0 1 1.1 1.6 5.9 5.9 0 0 1-1.3-.3 1.6 1.6 0 0 1-.2 1.4l.4-.3a4.3 4.3 0 0 1-.2 1.1 2.8 2.8 0 0 0 .7-.7 8.6 8.6 0 0 1-.1 1.4l1.6-.3a4 4 0 0 1-1 1.2l1.8-.2a4.2 4.2 0 0 1-.9.9l1.4-.2a4 4 0 0 1-1.1 1c1 .4 1 .6 1.7.7l-.3.1a3.1 3.1 0 0 1 .7.5 1.8 1.8 0 0 1 0-.2l-.1-.2a1 1 0 0 0 .3 0ZM43.8 73.8a2 2 0 0 0-.5.2 4.3 4.3 0 0 1 .6.2 4.2 4.2 0 0 1-.3.3 4 4 0 0 1 .7.2 3.9 3.9 0 0 1 .6-1.4l-1.1.5ZM51.5 87.5a3.9 3.9 0 0 1 0-.6 2.5 2.5 0 0 1 0 .6ZM43.6 73.3l-.3-.2a2.3 2.3 0 0 1 .1.5l.2-.3ZM51.6 86.7v-.4a4 4 0 0 1-.5.4 3.1 3.1 0 0 0 .5 0ZM43.8 73ZM51.8 85.8a.3.3 0 0 0 0-.1l-.1.1ZM51.6 86l-.4.2a3.5 3.5 0 0 1 .4.1l.1-.4h-.1ZM42.2 79.4Z"/><path fill="#73bf44" d="M49.3 81.8a2.3 2.3 0 0 1-.1.9l.3-.4v.4a5.2 5.2 0 0 1 1.3-.5 5.5 5.5 0 0 1-.8-1s0 0 .4 0a2.2 2.2 0 0 1-.5-.6s.3 0 .8.2a2.3 2.3 0 0 1-.4-.4H50a1.8 1.8 0 0 0 .4-.5 4.5 4.5 0 0 1-.6.2l.2-.4a4.5 4.5 0 0 1-1 0 1.4 1.4 0 0 0 .4-.3 3.9 3.9 0 0 1-1.2-.1 3.4 3.4 0 0 1 .8-.7 1.4 1.4 0 0 1-.1-.1l-.3.1a1.3 1.3 0 0 0 .1-.3V78a3.2 3.2 0 0 1 .3-.5 4.2 4.2 0 0 1-.6.1 2.8 2.8 0 0 1 .8-1l-.3-.3-.3.7a4 4 0 0 1-.4-1.4l-.3.8a10 10 0 0 1-.6-1.8l-.6 1a4.4 4.4 0 0 1-.1-1.2 2.7 2.7 0 0 0-.5.8 8.3 8.3 0 0 1-.3-1.3l-1.4.7h.2a1.4 1.4 0 0 0-.5.3 3.8 3.8 0 0 1 1.1.5 3.6 3.6 0 0 1-.9.3 4.8 4.8 0 0 1 .4.4 5.7 5.7 0 0 0-1 0 2 2 0 0 1 .3.1s-.3 0-.8 0a2 2 0 0 1 .3.4 4.8 4.8 0 0 1 .7.4 5.3 5.3 0 0 1-1.4.3 5.3 5.3 0 0 1 .7 1.2s0 0-.5-.2a2.2 2.2 0 0 1 .5.7 4.2 4.2 0 0 1 0 .8l.4-.2a4.8 4.8 0 0 1 0 .6 1.9 1.9 0 0 0 .4-.5 3.5 3.5 0 0 1 0 .4 2.2 2.2 0 0 1 .6.2l-.4-.7a2 2 0 0 1 1 .6v-.8a5.6 5.6 0 0 1 .7 1.1 5.5 5.5 0 0 1 1-1.1s.1 1.7-.6 2.2a1.2 1.2 0 0 1 0 .3h.2l.5-.5a2.4 2.4 0 0 1 0 .8 3.8 3.8 0 0 1 .6-.5 4.1 4.1 0 0 1-.1.7 1.5 1.5 0 0 1 .2 0 6 6 0 0 1 .8 0l.6-.7ZM49.6 98.4l.3.3a7.1 7.1 0 0 1 .7-.4V98l-.1-.2a5 5 0 0 1-1 .6ZM43 79a2.7 2.7 0 0 1 0 .4 2 2 0 0 0 .2-.3L43 79ZM18.7 65v.3a1.8 1.8 0 0 1 .2-.4h-.2ZM19.1 64.8v.5a4 4 0 0 1 .5 0 5 5 0 0 1-.2-.7l-.3.2ZM42.3 79ZM50.2 97.6h.3l.3-.1v-.2a2 2 0 0 1-.6.3ZM99.8 78ZM131.5 61.5v.6a1.2 1.2 0 0 1 .3-.2 1 1 0 0 1 0-.2l-.3-.2ZM133 61.6h-.1.1ZM133.8 82.7ZM131 61.2a4.4 4.4 0 0 1 0 .5 2.3 2.3 0 0 1 .3-.3l-.3-.2ZM68.9 94.5ZM77 90.3ZM81.3 84.2a.8.8 0 0 1 .2-.2 1.5 1.5 0 0 1-.2 0 1 1 0 0 1 0 .2ZM116.3 86.2a1.4 1.4 0 0 1-.1 0v.3-.2a.6.6 0 0 1 .2 0ZM34.2 31.7h-.5a2.6 2.6 0 0 1 .7.3l-.2-.3ZM67 65.2l-.4.4.4-.2v-.2ZM92.5 58.2a1.8 1.8 0 0 1 .3-.3v-.2a3.2 3.2 0 0 1-.3.4ZM103.6 71.7l.1.1.1-.1h-.2ZM97 82.3l-.1-.1ZM95.5 59.2l.2-.2-.3-.1v.1a1.8 1.8 0 0 1 .1.2ZM99.5 85.6a.6.6 0 0 1-.1 0ZM93.7 58.2v.1l.3-.2h-.2l-.1.1ZM71.4 12.3h-.1ZM56 57.8a7 7 0 0 1 .6-1 6.7 6.7 0 0 1 .7 2 8.2 8.2 0 0 0 1.5-.3 8.1 8.1 0 0 1-1 1.3 5.2 5.2 0 0 1 2.3-.2 7.5 7.5 0 0 1-.8 1 2 2 0 0 1 .3 0 10.9 10.9 0 0 1 1.3.8l1.5-.4a4 4 0 0 1-1 1.2l.8-.2a9.7 9.7 0 0 1-1.5 1.8 9.5 9.5 0 0 1 2.3 1 8.7 8.7 0 0 1-1.7.5 3.7 3.7 0 0 1 .3.8 2.8 2.8 0 0 1 .2-.3l.2 1a.9.9 0 0 1 0 .2 1.8 1.8 0 0 1 .3-.5l-.1-.3a1.3 1.3 0 0 0 .2.2 2 2 0 0 1 .1-.2v.2a2.6 2.6 0 0 1 .4.2 3.8 3.8 0 0 1-.4-1.2 3.2 3.2 0 0 1 .9.5l.1-.1-.2-.2a1 1 0 0 0 .3 0 2 2 0 0 1 .2-.2v.2a3 3 0 0 1 .5 0 4.9 4.9 0 0 1-.2-.5 2.8 2.8 0 0 1 1.2.4 4.8 4.8 0 0 1 .4-1A5.1 5.1 0 0 1 66 66a6.6 6.6 0 0 1 0-2 8.1 8.1 0 0 0-1.5-.1 8.3 8.3 0 0 1 1.2-1 5.2 5.2 0 0 1-2.2-.5 7.5 7.5 0 0 1 1-.6 2.4 2.4 0 0 1-.2-.2 9.9 9.9 0 0 1-1.1-1l-1.5-.1a4 4 0 0 1 1.3-.9h-.9l.8-.6a6 6 0 0 1-.6-1 7.6 7.6 0 0 1 0 1 8.7 8.7 0 0 1-1.5-1.7 8.9 8.9 0 0 1-1.2 1.7V58a3.6 3.6 0 0 1-.8 1.1s0-.5 0-1.3a9.2 9.2 0 0 1-1-1 1.9 1.9 0 0 1 0-.3 7 7 0 0 1-.7 1 6 6 0 0 1-.4-1.3 3.9 3.9 0 0 1-.7 1s0-.5 0-1c0-.2-.2-.3-.3-.4l-.2.2a6.9 6.9 0 0 1 .5 1.7ZM106.3 75.2a4 4 0 0 1-.2-1.5l-.4.8a9.7 9.7 0 0 1-.2-2.4 9.5 9.5 0 0 1-2.4.9 4 4 0 0 1-.4 0 5.5 5.5 0 0 1 .6 1.2l-.4-.3a2.2 2.2 0 0 1 .4.8s-.3-.1-.8-.3a6.1 6.1 0 0 1-.8.2 1.4 1.4 0 0 1-.2 0 4.5 4.5 0 0 1 .4.6 4 4 0 0 1-.6 0 5.8 5.8 0 0 1 1.2 1 2.6 2.6 0 0 0 0-.8 7.9 7.9 0 0 1 1.2 1.3l.2-.7s.2.1.3.4a4.1 4.1 0 0 1 1 .4l-.7-1.8a9.7 9.7 0 0 1 1.7 1.1l-.4-.8a4.4 4.4 0 0 1 1 .5 4 4 0 0 1 .2-.4 5 5 0 0 1-.7-.2ZM35.3 32l.2-.3a4 4 0 0 1-.7 0l.5.3ZM108.7 75.6v-.3a1.3 1.3 0 0 1-.2 0 .9.9 0 0 1-.2 0l.3.3ZM123.9 26.3h-.2.2Z"/><path fill="#73bf44" d="M139.1 73.5a3.5 3.5 0 0 0 .9-.3 3.9 3.9 0 0 0-1.1-.5 1.5 1.5 0 0 1 .5-.2 4.5 4.5 0 0 0-1-.3l.3-.3a4.4 4.4 0 0 0-.6-.1 2 2 0 0 1 .6-.3 3.9 3.9 0 0 0-.4-.1 2.3 2.3 0 0 0-.1-.6l.6.5a2.2 2.2 0 0 0-.3-.8l.4.3a5.4 5.4 0 0 0-.4-1.3 5.4 5.4 0 0 0 1.5 0s-1.2-1.2-2-.9a1.3 1.3 0 0 0-.3-.2l.1-.2h.7a2.4 2.4 0 0 0-.7-.4 3.8 3.8 0 0 0 .8-.3 4 4 0 0 0-.6-.4 6.9 6.9 0 0 0 .7-.7l.8-.1a2.2 2.2 0 0 0-.8-.5h.5a5.4 5.4 0 0 0-1.1-.6 5.3 5.3 0 0 0 1-1 5 5 0 0 0-1 0 2.8 2.8 0 0 0-.3-1.2 3.7 3.7 0 0 0-.3.4 3.6 3.6 0 0 0-.2-.5h.1l-.2-.1a1 1 0 0 1-.1-.3s0 0-.1.3h-.2a3.2 3.2 0 0 0 0-1.1 3.8 3.8 0 0 0-.8.8 1.5 1.5 0 0 1 0-.5 4.4 4.4 0 0 0-.7.8l-.1-.4a4.2 4.2 0 0 0-.4.5 2 2 0 0 1 0-.6s-.1.1-.3.3a2.2 2.2 0 0 0-.5 0l.6-.5a2.2 2.2 0 0 0-.8 0l.4-.3a5.9 5.9 0 0 0-.9-.1 5.6 5.6 0 0 0-.2-.6 5.2 5.2 0 0 0 .2-.5h.2a1.6 1.6 0 0 1-.1-.1v-.2l-.1.1a7.3 7.3 0 0 0-.6-.6 2.7 2.7 0 0 0 .4 0s-.3-.3-.8-.7a2.6 2.6 0 0 0 .8-.2 6.6 6.6 0 0 0 1 .4 7.2 7.2 0 0 0-1-1.7 7.5 7.5 0 0 0 1.8-.4s-.1 0-.6-.2a3 3 0 0 0 1.1-.3s-.4-.1-1-.4a8.8 8.8 0 0 0-.5-1 1.6 1.6 0 0 0-.2-.3 5.8 5.8 0 0 0 1-.2 5 5 0 0 0-.9-.6 3.2 3.2 0 0 0 1-.3s-.3 0-.8-.3l-.1-.4a1.8 1.8 0 0 0 .3 0c1 .6 3-.4 3-.4a6.9 6.9 0 0 0-1.8-.6 7.2 7.2 0 0 0 1-1.5l-.7.2a3 3 0 0 0 .7-1s-.4.2-1 .4a3 3 0 0 0 .4-.6h.5a2.5 2.5 0 0 1-.6-.6 5.5 5.5 0 0 0 .8.1 5.3 5.3 0 0 0-.3-.5 6 6 0 0 0 1.4 0 2 2 0 0 1-.5-.5 5.1 5.1 0 0 0 1.6-.2 5.2 5.2 0 0 0-1-.7c.8-.2 1-1.6 1-1.6l-.9.6a3.1 3.1 0 0 0 .2-.7c.3 0 .5-.2.5-.2-.5 0-.5-.2-1.2-.5l.2-.3a6.8 6.8 0 0 0 .8-.2 2 2 0 0 1-.6-.3l.2-.6-.5.3-.3-.1a1.4 1.4 0 0 0-.2-.1 5.7 5.7 0 0 0 .7-.7 5 5 0 0 0-1-.1 3.2 3.2 0 0 0 .6-.7s-.3 0-.8.1l-.4-.3a5.8 5.8 0 0 0 .9-.5 5 5 0 0 0-1-.4 3.1 3.1 0 0 0 .8-.5s-.3 0-.7 0a6 6 0 0 0 1.3-.7c-.5 0-.5-.2-1.4-.3a1.8 1.8 0 0 0-.2 0 5.9 5.9 0 0 0 .4-.9 4.8 4.8 0 0 0-1 .2 3 3 0 0 0 .4-.9s-.3.2-.7.4l-.4-.1c.8-1.3-.3-3.6-.3-3.6l-.2.6a3 3 0 0 0-.3-1s-.1.3-.4.9a2.9 2.9 0 0 0-.2-.7l.3-.4a2.5 2.5 0 0 1-.8 0 6 6 0 0 0 .7-.5l-.6-.1a6 6 0 0 0 .8-1 2 2 0 0 1-.7 0 5 5 0 0 0 1-1.3 5 5 0 0 0-1.1.2 7 7 0 0 0 .6-.5 7 7 0 0 0-2 0 7 7 0 0 0 .4-1.7l-.5.5a3 3 0 0 0 .2-1.2s-.3.4-.8.8a8.2 8.2 0 0 0-1.2 0 1.8 1.8 0 0 0-.2 0 6 6 0 0 0 .2-.9 5 5 0 0 0-1 .5 3.3 3.3 0 0 0 .2-1s-.2.3-.6.6h-.4a1.6 1.6 0 0 0 0-.4c1-.6 1-2.9 1-2.9a7.1 7.1 0 0 0-1.3 1.5 7.3 7.3 0 0 0-1-1.5s0 .1 0 .7a3 3 0 0 0-.7-1s0 .4 0 1a3.2 3.2 0 0 0-.6-.7s0 .6 0 1.4a1.3 1.3 0 0 0 0 .2 2.2 2.2 0 0 0-.4-.5V26h.1v-.2a1 1 0 0 1-.1 0 5.5 5.5 0 0 0-.6-.1 5.7 5.7 0 0 0 0-1l.2-.2.1.1v-.2a1.1 1.1 0 0 1 .2-.3s-.1 0-.3 0l-.1-.1a3.6 3.6 0 0 0 1-.5 4 4 0 0 0-1.3-.4 1.6 1.6 0 0 1 .5-.2 5 5 0 0 0-.8-.2 4 4 0 0 0 .5-.5 4.5 4.5 0 0 0-.7 0 2 2 0 0 1 .6-.4s-.2 0-.4 0a2.6 2.6 0 0 0-.3-.6l.7.4s-.2-1-.7-1.2a2 2 0 0 1 .3-.5 5.1 5.1 0 0 0-.6.1 1.6 1.6 0 0 1 .1-.1l.9-.1a2.4 2.4 0 0 0-.8-.5h.5a5.7 5.7 0 0 0-1.2-.7 5.6 5.6 0 0 0 1-1.1 5.2 5.2 0 0 0-.8 0 2.2 2.2 0 0 0-.5-.2l.7-.4a2.6 2.6 0 0 0-.3 0c.5-.3.5-.4.9-.5a4.8 4.8 0 0 0-.5-.2 3.7 3.7 0 0 0 .6-.7 4 4 0 0 0-1.3.1 1.7 1.7 0 0 1 .4-.4 4.7 4.7 0 0 0-1 .2V15a4.8 4.8 0 0 0-.6.2 1.9 1.9 0 0 1 .4-.5s-.2 0-.4 0a2.5 2.5 0 0 0-.4-.4l.8.1a2.4 2.4 0 0 0-.7-.6h.5a5.9 5.9 0 0 0-1-.9 5.6 5.6 0 0 0 1.3-.8s-1.8-.4-2.4.3a1.3 1.3 0 0 0-.3 0v-.3l.6-.4a2.5 2.5 0 0 0-.8 0 4 4 0 0 0 .5-.7 4.5 4.5 0 0 0-.7 0 1 1 0 0 0 0-.1 6.4 6.4 0 0 0 .2-1l.7-.5a2.4 2.4 0 0 0-1 0l.5-.2a5.9 5.9 0 0 0-1.4 0 5.6 5.6 0 0 0 .3-1.5 5.2 5.2 0 0 0-.8.7 2.3 2.3 0 0 0-.5-.7 2.5 2.5 0 0 0-.1-.3h.1l-.2-.1a1.1 1.1 0 0 1 0-.4 3 3 0 0 0-.2.3h-.2a3.5 3.5 0 0 0 .1-1.1 4 4 0 0 0-1 .8 1.5 1.5 0 0 1 .1-.5 4.8 4.8 0 0 0-.6.5 4.6 4.6 0 0 0-.2-.7 4.3 4.3 0 0 0-.4.6 2 2 0 0 1 0-.7s0 .1-.2.3a2.5 2.5 0 0 0-.6-.1l.7-.4s-.9-.4-1.4 0a2.2 2.2 0 0 1-.2-.6s-.1.2-.2.4a2.7 2.7 0 0 1 0-.3l.5-.7a2.3 2.3 0 0 0-.9.3l.4-.4a5.7 5.7 0 0 0-1.4.3 5.6 5.6 0 0 0 0-1.5 5 5 0 0 0-.5.6 2.2 2.2 0 0 0-.6.2l.3-.8a2.4 2.4 0 0 0-.3.2 5.7 5.7 0 0 1 .3-1 4.6 4.6 0 0 0-.4.3 3.9 3.9 0 0 0-.1-1 4 4 0 0 0-.8 1 1.6 1.6 0 0 1 0-.6 4.8 4.8 0 0 0-.7 1l-.2-.5a4.2 4.2 0 0 0-.3.6 2 2 0 0 1-.1-.6s-.1.1-.2.3a2.5 2.5 0 0 0-.6 0l.6-.5a2.4 2.4 0 0 0-.9 0l.4-.3a5.8 5.8 0 0 0-1.4 0 5.5 5.5 0 0 0 .4-1.4s-1.5.9-1.5 1.8a1.5 1.5 0 0 0-.2.2l-.2-.2.1-.7a2.4 2.4 0 0 0-.6.5 3.9 3.9 0 0 0 0-.8 4.7 4.7 0 0 0-.6.5 1.5 1.5 0 0 0 0-.1 5.8 5.8 0 0 0-.5-.8l.1-.9a2.3 2.3 0 0 0-.6.7V.6a6 6 0 0 0-1 1 5.6 5.6 0 0 0-.7-1.3 5.3 5.3 0 0 0-.1 1 2.4 2.4 0 0 0-.9-.1 2.8 2.8 0 0 0-.3-.2V1h-.1a1.1 1.1 0 0 1-.3-.1v.3l-.1.1a3.4 3.4 0 0 0-.6-.9 4.2 4.2 0 0 0-.2.6 2.2 2.2 0 0 1-.2-.6 5 5 0 0 0-.3.7 4.3 4.3 0 0 0-.4-.6 4.6 4.6 0 0 0-.2.7 2 2 0 0 1-.2-.6s-.1.2-.2.4a2.3 2.3 0 0 0-.6.1l.6-.6s-1 0-1.3.6a2.2 2.2 0 0 1-.5-.5 5.6 5.6 0 0 0 0 .7 1.8 1.8 0 0 1 0-.2V.2a2.3 2.3 0 0 0-.6.7V.4a6 6 0 0 0-.9 1 5.5 5.5 0 0 0-.9-1.2 5.2 5.2 0 0 0 0 .8 2.1 2.1 0 0 0-.4.5l-.2-.8a2.6 2.6 0 0 0-.1.3 6 6 0 0 1-.3-1s-.2.3-.3.6a3.7 3.7 0 0 0-.6-.8 4 4 0 0 0-.1 1.3 1.5 1.5 0 0 1-.4-.4 4.6 4.6 0 0 0 0 1 4.4 4.4 0 0 0-.4-.2 4.4 4.4 0 0 0 .2.7l-.2-.1.1-.2a2 2 0 0 0-.2 0 1.3 1.3 0 0 1-.2-.2s0 .2 0 .3a2.4 2.4 0 0 0-.3.2l.4-.7a2.4 2.4 0 0 0-.8.4l.2-.5a5.8 5.8 0 0 0-1.2.7 5.7 5.7 0 0 0-.3-1.5s-1 1.5-.5 2.3a1.3 1.3 0 0 0-.1.3l-.3-.1-.2-.7a2.5 2.5 0 0 0-.3.8 3.7 3.7 0 0 0-.4-.7 4.8 4.8 0 0 0-.3.7A1.6 1.6 0 0 0 84 3a6.1 6.1 0 0 0-.8-.5l-.3-.8a2.3 2.3 0 0 0-.3.8v-.5a5.7 5.7 0 0 0-.5 1.3 5.6 5.6 0 0 0-1.2-1 5 5 0 0 0 .2 1 2.3 2.3 0 0 0-.8.2 2.8 2.8 0 0 0-.3 0v-.2a2.1 2.1 0 0 0-.2.2 1.1 1.1 0 0 1-.3 0s0 0 .1.2V4a3.6 3.6 0 0 0-1-.6 4.1 4.1 0 0 0 .3 1.2 1.5 1.5 0 0 1-.4-.3 5 5 0 0 0 .2.8A3.9 3.9 0 0 0 78 5a4.9 4.9 0 0 0 .3.6 1.9 1.9 0 0 1-.6-.3l.2.4a2.5 2.5 0 0 0-.4.4v-.8s-.7.7-.6 1.3a2.3 2.3 0 0 1-.7 0s.1 0 .2.2a4.5 4.5 0 0 0-.5-.3 4.8 4.8 0 0 0 .2.7 1.5 1.5 0 0 0-.2 0 6.5 6.5 0 0 0-.9 0l-.7-.6a2.4 2.4 0 0 0 .2 1l-.3-.4a6 6 0 0 0 .3 1.4 5.7 5.7 0 0 0-1.5 0 5.3 5.3 0 0 0 .8.6 2.4 2.4 0 0 0-.6.6l-.2.2-.1-.1v.2a1.1 1.1 0 0 1-.4.2s.1 0 .3 0v.3a3.6 3.6 0 0 0-1 0 4.3 4.3 0 0 0 .4.4 2 2 0 0 1-.7-.1 5 5 0 0 0 .5.6 4.2 4.2 0 0 0-.8.1 4.3 4.3 0 0 0 .5.5 2.4 2.4 0 0 1-.5 0l-.3-.6a7.9 7.9 0 0 0-.3 1.2 3.3 3.3 0 0 0-.7.6l-.1-1.2a3.6 3.6 0 0 0-.3.4 9.1 9.1 0 0 1-.2-1.5l-.5.6a5.5 5.5 0 0 0-.7-1.3 6.2 6.2 0 0 0-.5 1.9 2.4 2.4 0 0 1-.4-.7 7.2 7.2 0 0 0-.3 1.6l-.6-.5a7 7 0 0 0 0 1 6 6 0 0 1-.4-.5 4.8 4.8 0 0 0 .4-2 7 7 0 0 0-1 .7 2 2 0 0 0 0-.3 10 10 0 0 0-.5-1.3c.2-.8.5-1.3.5-1.3a3.6 3.6 0 0 0-1.2.8l.3-.7a9 9 0 0 0-1.8 1.1 8.3 8.3 0 0 0-.7-2.2 7.9 7.9 0 0 0-.6 1.5 4.5 4.5 0 0 0-2-.5 6.3 6.3 0 0 0 .4.7 5.1 5.1 0 0 0-.9 0v-.3a2.4 2.4 0 0 0-.2.3 1.8 1.8 0 0 1-.5 0s0 0 .3.3l-.2.2a5.4 5.4 0 0 0-1.4-.8 6.2 6.2 0 0 0 .5 1.9 4.5 4.5 0 0 0-.5-.3v-.3a3.1 3.1 0 0 0-.2.2 1.9 1.9 0 0 1-.4-.2l.2.5a2.8 2.8 0 0 0-.4.7 1.3 1.3 0 0 0 0-.3l-.3-1.7a3.9 3.9 0 0 0-.6 1c0-.7-.2-1.2-.2-1.2a3.5 3.5 0 0 0-.6 1.2V10a8.7 8.7 0 0 0-1 2 9 9 0 0 0-1.8-1.6s.2 2.7 1.5 3.3a2 2 0 0 0 .1.5h-.5l-.8-.5a3.7 3.7 0 0 0 .4 1.1 6 6 0 0 0-1.2-.5 6.8 6.8 0 0 0 .4 1.1 2 2 0 0 0-.3 0 9.4 9.4 0 0 0-1.4.1l-1.1-.8a3.6 3.6 0 0 0 .4 1.4l-.6-.5a8.8 8.8 0 0 0 .7 2 6.3 6.3 0 0 0-.8 0v-1a3.8 3.8 0 0 0-.7 1l-.1-.6a9.2 9.2 0 0 0-.5.7h-.2v.2a7.5 7.5 0 0 0-.4 1 8.6 8.6 0 0 0-1.7-1.7 8 8 0 0 0 .2 1.3 3.4 3.4 0 0 0-.4.8l-.5-1.1a4 4 0 0 0-.2.4c-.4-.7-.5-.7-.7-1.3l-.2.8a5.6 5.6 0 0 0-1.2-1 6.2 6.2 0 0 0 .2 2 2.3 2.3 0 0 1-.6-.5 7.8 7.8 0 0 0 .2 1.2l-.2.3-.4-.1a5 5 0 0 0 .2.5l-.2.5a8.6 8.6 0 0 0-1.7-1.6s0 2.7 1.3 3.4a1.9 1.9 0 0 0 0 .4h-.4l-.8-.6a3.8 3.8 0 0 0 .3 1.2 6.3 6.3 0 0 0-1.2-.6 7.3 7.3 0 0 0 .3 1.1 2 2 0 0 0-.3 0 9.5 9.5 0 0 0-1.4 0l-1-.8a3.6 3.6 0 0 0 .3 1.3l-.5-.5a8.9 8.9 0 0 0 .5 2 8.5 8.5 0 0 0-2.3 0 8 8 0 0 0 1.2 1 4.5 4.5 0 0 0-1.2 1.8 7.1 7.1 0 0 0 .9-.2 5.3 5.3 0 0 0-.4.9l-.2-.1.2.3a2 2 0 0 1-.3.5s.2 0 .5-.2a2.5 2.5 0 0 0 .2.2 5.3 5.3 0 0 0-1.3 1h-.3l.5 1a7.6 7.6 0 0 0-.2 1.1 1.7 1.7 0 0 0 0 .3 5.8 5.8 0 0 0-.9-.5 4.2 4.2 0 0 0 .5 1.5l-.3.4a6.3 6.3 0 0 0 0-.6l-.5.4a6 6 0 0 0-.4-1.3 2.1 2.1 0 0 1-.3.6 5.3 5.3 0 0 0-.6-1.5 5 5 0 0 0-.4.9 6.1 6.1 0 0 0-.8-1 1.5 1.5 0 0 1 0 .6 3 3 0 0 0-.7-.8s0 .1 0 .5a2.6 2.6 0 0 0-.6-.5 6.8 6.8 0 0 0-.3-1.2 7.1 7.1 0 0 0-.8 1.7 7.4 7.4 0 0 0-1.4-1s0 0 .2.5a3 3 0 0 0-1-.7s.2.4.3 1a8.5 8.5 0 0 0-.5 1.1v.2a5.6 5.6 0 0 0-.8-.6 4.8 4.8 0 0 0 0 1 3.2 3.2 0 0 0-.8-.5s.1.3.3.8l-.3.3a2 2 0 0 0-.3-.2c0-1.2-2-2.2-2-2.2a7 7 0 0 0 .6 1.8 7.4 7.4 0 0 0-1.8.2s0 0 .6.3a3 3 0 0 0-1.2.1s.4.2 1 .6a3.1 3.1 0 0 0-.8 0l-.4-.4a2.7 2.7 0 0 1 0 .9 5.9 5.9 0 0 0-.5-.8l-.2.6a6 6 0 0 0-.9-1 2 2 0 0 1 0 .6 5 5 0 0 0-1.1-1.1 4.4 4.4 0 0 0 0 1.4h-.2l-.1-.4a1.4 1.4 0 0 1-.2.4l-.3.1.2.1a4.6 4.6 0 0 0-.4.7 5.6 5.6 0 0 0-.3-.6 3.7 3.7 0 0 0-.4 1.7 6.8 6.8 0 0 0-1.3-.2 7.1 7.1 0 0 0 1.3 1.4 7.4 7.4 0 0 0-1.6.8s.1 0 .7 0a3 3 0 0 0-1 .6s.4.1 1 .2a8.4 8.4 0 0 0 .8.9 1.8 1.8 0 0 0 .2.1 5.6 5.6 0 0 0-.8.5 5 5 0 0 0 1 .4 3.2 3.2 0 0 0-1 .5s.4 0 .9 0l.2.4a1.6 1.6 0 0 0-.3.2c-1.1-.4-2.8 1.1-2.8 1.1a7.1 7.1 0 0 0 2 .1l-.2.5a4.2 4.2 0 0 0-.4.1l.3.2-.1.3a6.1 6.1 0 0 0-.9.5 2 2 0 0 1 .7.2 5.2 5.2 0 0 0-1.3 1 4.7 4.7 0 0 0 1.2 0 6.4 6.4 0 0 0-.3.7 8 8 0 0 1 1.2-.3 2.5 2.5 0 0 0-.2.3s.3-.1 1-.3a3 3 0 0 0-.3.7 6.5 6.5 0 0 0-.9.6 7 7 0 0 0 2 .2 5.9 5.9 0 0 0-.4.8h-.1v.1a6.6 6.6 0 0 0-.1.8s0 0 .4-.4a3.1 3.1 0 0 0-.3 1l.8-.5a5.6 5.6 0 0 0 .4.5 7.3 7.3 0 0 0-1.6.7s0 0 .6.1a3 3 0 0 0-1 .5s.4 0 1 .2a8.2 8.2 0 0 0 .7 1 1.9 1.9 0 0 0 .2.1 6 6 0 0 0-.9.4 5.2 5.2 0 0 0 1 .5 3.3 3.3 0 0 0-.9.4s.3 0 .8.2l.3.3a1.7 1.7 0 0 0-.4.2c-1.1-.5-2.9 1-2.9 1a7 7 0 0 0 2 .1 7.2 7.2 0 0 0-.7 1.7s0 0 .6-.4a3 3 0 0 0-.5 1.1l1-.6a3.2 3.2 0 0 0-.4 1l1.2-.8a1.1 1.1 0 0 0 .2-.2 2.4 2.4 0 0 0-.2.7l-.4.1a1.7 1.7 0 0 1 .3.1v.3l.2-.2a3.8 3.8 0 0 0 .5.2 5.1 5.1 0 0 0-1.5.7 4.4 4.4 0 0 0 1.3.4v.3h-.4a1.5 1.5 0 0 1 .3.3 2.6 2.6 0 0 0 0 .3l.1-.2a4.2 4.2 0 0 0 .6.5 5.6 5.6 0 0 0-.7.2 3.8 3.8 0 0 0 1.4 1 6.6 6.6 0 0 0-.6 1c.3 0 .5 0 .7-.2l-.2.3v.1a4.7 4.7 0 0 0-.3.6 5.3 5.3 0 0 0-1-1 4.6 4.6 0 0 0 0 .8 1.9 1.9 0 0 0-.2.5l-.3-.7a2.4 2.4 0 0 0-.1.3l-.5-.8a4.6 4.6 0 0 0-.1.5 3.6 3.6 0 0 0-.7-.6 3.7 3.7 0 0 0 .1 1.2 1.4 1.4 0 0 1-.4-.3 4.5 4.5 0 0 0 .1.7v.2h-.3V67.3a5.1 5.1 0 0 0-1-1s0 1.6.7 2a1.4 1.4 0 0 0 0 .3h-.2l-.5-.3a2.4 2.4 0 0 0 .1.7 3.8 3.8 0 0 0-.7-.3 4.3 4.3 0 0 0 .2.6 1.1 1.1 0 0 0-.2 0 6.4 6.4 0 0 0-.8 0l-.7-.5a2.2 2.2 0 0 0 .2.8l-.3-.3a5.6 5.6 0 0 0 .3 1.3 5.4 5.4 0 0 0-1.5 0 5 5 0 0 0 .8.6 2.8 2.8 0 0 0-.7 1.1 4.3 4.3 0 0 0 .5-.1 3.1 3.1 0 0 0-.2.5h-.2a1.7 1.7 0 0 0 .2.2 1.1 1.1 0 0 1-.2.3s.1 0 .3-.2a1.6 1.6 0 0 0 .1.2 3.3 3.3 0 0 0-.8.7 3.8 3.8 0 0 0 1.2 0 1.5 1.5 0 0 1-.4.4 4.4 4.4 0 0 0 1 0l-.1.3a4.2 4.2 0 0 0 .6-.1 2 2 0 0 1-.4.4s.1 0 .4 0a2.3 2.3 0 0 0 .3.5l-.8-.2a2.3 2.3 0 0 0 .6.7 9 9 0 0 1-.5-.2 5.6 5.6 0 0 0 .8 1 5.1 5.1 0 0 0-1.3.6s1.5.6 2.2 0a1.2 1.2 0 0 0 .3.1v.3l-.6.3a2.4 2.4 0 0 0 .7.1 4 4 0 0 0-.6.6 4.4 4.4 0 0 0 .7 0 1.2 1.2 0 0 0 0 .2 6.1 6.1 0 0 0-.4.8l-.7.4a2.3 2.3 0 0 0 .9.1l-.5.3a5.5 5.5 0 0 0 1.3.1 5.5 5.5 0 0 0-.5 1.4 4.7 4.7 0 0 0 .8-.5 2.1 2.1 0 0 0 .6.2l-.3.2a2.3 2.3 0 0 0 .8 0 1.2 1.2 0 0 1-.3.2 4.6 4.6 0 0 0 1 0 4 4 0 0 0-.3.7 3.9 3.9 0 0 0 1.1-.5 1.3 1.3 0 0 1-.2.5 4.4 4.4 0 0 0 .9-.4v.4a3.6 3.6 0 0 0 .4-.2 3.1 3.1 0 0 0-.1.3 3.1 3.1 0 0 0-1 .5 4.2 4.2 0 0 0 .6.2.9.9 0 0 0-.1.2 5.7 5.7 0 0 0-.5.7l-.8.2a2.3 2.3 0 0 0 .8.3l-.5.1a5.5 5.5 0 0 0 1.3.5 5.3 5.3 0 0 0-.9 1.2 5 5 0 0 0 1-.3 2.8 2.8 0 0 0 .4 1.2 3.9 3.9 0 0 0 .2-.4 3 3 0 0 0 .3.4l-.1.1a1.8 1.8 0 0 0 .2 0 1.1 1.1 0 0 1 .2.3V88a1.4 1.4 0 0 0 .2 0 3.4 3.4 0 0 0 .1 1 3.8 3.8 0 0 0 .8-.9 3.3 3.3 0 0 0 0 .4l-.1.1h.2a1.3 1.3 0 0 1 0 .3l.2-.3a1.6 1.6 0 0 0 .5 0 1.2 1.2 0 0 0-.2 0l-.7.8a2.4 2.4 0 0 0 .7 0l-.6.5a2.3 2.3 0 0 0 .9-.1l-.4.3a5.5 5.5 0 0 0 1.3-.2 5.5 5.5 0 0 0-.1 1.4s1.3-1 1.1-2a1.1 1.1 0 0 0 .2-.1l.2.2v.6a2.4 2.4 0 0 0 .5-.6 4 4 0 0 0 .2.8 4.6 4.6 0 0 0 .4-.6 1 1 0 0 0 0 .2 5.2 5.2 0 0 0 .6.6v.9a2.2 2.2 0 0 0 .6-.7 4.4 4.4 0 0 1 0 .4 5.3 5.3 0 0 0 .7-1 5.3 5.3 0 0 0 1 1 5.6 5.6 0 0 0 0-.5 3.6 3.6 0 0 0 .4.7 3.8 3.8 0 0 0 .3-1.2 1.4 1.4 0 0 1 .2.5 4.3 4.3 0 0 0 .2-1l.3.2a4 4 0 0 0 0-.6 1.9 1.9 0 0 1 .4.5s0-.2 0-.4h.1a2 2 0 0 0 .3-.2 2.5 2.5 0 0 0-.2.6.4.4 0 0 1 0 .1l.2-.1a2.1 2.1 0 0 0 .4-.2 2.6 2.6 0 0 0-.1.4l-.4.1.8.5a4 4 0 0 0-1 .3 3.8 3.8 0 0 0 .8.4 5.1 5.1 0 0 0-.4.4 3.7 3.7 0 0 1 .8 0 2.3 2.3 0 0 0-.6.5s.3 0 .6 0a2.4 2.4 0 0 0-.2.4 4.9 4.9 0 0 0-.6.1 6.6 6.6 0 0 0 1 .5 5.4 5.4 0 0 0-.5.6s0 0 .6-.2a2.6 2.6 0 0 0-.3.5s.2 0 .4-.1v.2a4.1 4.1 0 0 0-1.6.5 5.4 5.4 0 0 0 1.4.4 5.7 5.7 0 0 0-.6 1.2s0 0 .4-.3a2.3 2.3 0 0 0-.4.8s.3-.1.7-.3a5.5 5.5 0 0 0 .9.2h.1a4.1 4.1 0 0 0-.3.7 4 4 0 0 0 .8-.1 2.3 2.3 0 0 0-.4.6s.2-.1.6-.2h.3a1.3 1.3 0 0 0-.2.3c-.9.2-1.3 1.9-1.3 1.9a5.5 5.5 0 0 0 1.2-.7 5.6 5.6 0 0 0 .4 1.3s0-.1.1-.5a2.2 2.2 0 0 0 .3.8s0-.3.3-.7a2.5 2.5 0 0 0 .2.7s.1-.4.3-1a1.3 1.3 0 0 0 .1-.2 1.7 1.7 0 0 0 .1.5l-.1.3a1.2 1.2 0 0 1 .2-.1l.1.2v-.2a2 2 0 0 0 .4-.1 3.9 3.9 0 0 0-.6 1 3.3 3.3 0 0 0 1-.3l.1.2a2.8 2.8 0 0 0-.2.2 1.3 1.3 0 0 1 .3 0 1.8 1.8 0 0 0 .1.2s0 0 0-.1a3.7 3.7 0 0 0 .6 0 4 4 0 0 0-.4.5 2.9 2.9 0 0 0 1.4-.1 5 5 0 0 0 0 1 5.3 5.3 0 0 0 .8-1.3 5.4 5.4 0 0 0 1 1s0 0-.1-.5a2.2 2.2 0 0 0 .6.6s0-.3-.1-.8a7.2 7.2 0 0 0 .5-.7 1.7 1.7 0 0 0 0-.2 5.3 5.3 0 0 0 .5.5 3.3 3.3 0 0 0 0-1.2 4 4 0 0 0 .6-.4 4 4 0 0 0 .3.7l.2-.4a4.4 4.4 0 0 0 .5 1 1.5 1.5 0 0 1 .1-.6 4 4 0 0 0 .7 1 3.7 3.7 0 0 0 .1-.7 4.6 4.6 0 0 0 .8.6 1.1 1.1 0 0 1-.1-.4 2.4 2.4 0 0 0 .6.5s0-.2 0-.4a2.3 2.3 0 0 0 .7.3s0-.1-.2-.3a2.6 2.6 0 0 0 .5.1 5.2 5.2 0 0 0 .4.5 7.5 7.5 0 0 0 0-.8 5.6 5.6 0 0 0 1 .5s0 0-.2-.4a2.3 2.3 0 0 0 .8.4s-.1-.2-.3-.6a3 3 0 0 0 0-.6 1.2 1.2 0 0 0 0-.2 4.7 4.7 0 0 0 .7.2 3.6 3.6 0 0 0-.4-.7 2.4 2.4 0 0 0 .8.1l-.5-.5v-.3a1.3 1.3 0 0 0 .3 0 3.2 3.2 0 0 0 1.3.5l-.2.1c.6 0 .6.2 1.8.2a4 4 0 0 0-.8 1.3s.5-.2 1.3-.5a4.2 4.2 0 0 0-.6 1s.7-.3 1.7-.6a4 4 0 0 0-.7 1.4s.6-.3 1.5-.8a8.6 8.6 0 0 0 .2 1.4 2.7 2.7 0 0 1 .5-.8 4.5 4.5 0 0 0 .2 1.1s.2-.4.6-1a10 10 0 0 0 .6 1.8s0 0 .2-.8a4 4 0 0 0 .5 1.5s.1-.5.4-1.3a4.4 4.4 0 0 0 .4 1.1s0-.1.2-.4a7.7 7.7 0 0 0 3.4 2s0 0-.5-.6a4 4 0 0 0 1.4.6s-.3-.5-.7-1.3a10.6 10.6 0 0 0 .3-1.5 3 3 0 0 0 0-.3 7.6 7.6 0 0 0 1.2.5 6.5 6.5 0 0 0-.4-1.3 4.2 4.2 0 0 0 1.2.5s-.2-.4-.5-1l.1-.5a2.4 2.4 0 0 0 .5.2c.5 1.5 3.4 2 3.4 2a9.5 9.5 0 0 0-1.4-2 9.6 9.6 0 0 0 2.2-.9s-.1 0-.8-.2a4 4 0 0 0 1.4-.5s-.5-.1-1.3-.4a4.4 4.4 0 0 0 1.1-.5s-.7-.1-1.7-.5a1.3 1.3 0 0 0-.4 0 3 3 0 0 0 .8-.4l.6.2a2.3 2.3 0 0 1-.3-.4c.2 0 .3-.2.3-.2h-.3a5.7 5.7 0 0 0-.2-.6 6.6 6.6 0 0 0 2 .8 6 6 0 0 0-.8-1.7l.3-.1.3.4a2 2 0 0 1 0-.6l.4-.2h-.3v-.4a5.7 5.7 0 0 0 .6-.2l.2.1v-.3a2.2 2.2 0 0 0 1.1-1.1l.3.1.2.6a2.4 2.4 0 0 0 .2-.7 4.2 4.2 0 0 0 .4.7 4.6 4.6 0 0 0 .3-.7 1 1 0 0 0 0 .1c.6.5.7.4 1 .6a4.5 4.5 0 0 0-.3-1l.4.4a2.3 2.3 0 0 0-.2-.8 3.9 3.9 0 0 0 .8.4 3.7 3.7 0 0 0-.2-.7h.4l.3.6a2.4 2.4 0 0 0 0-.8 3.9 3.9 0 0 0 .6.5 4 4 0 0 0 0-.7 1.3 1.3 0 0 0 .2.1h.2l.1.5a3.8 3.8 0 0 0 .3-.4 1.4 1.4 0 0 1 .4.2 4.1 4.1 0 0 0-.3-.5l.1-.3a6.5 6.5 0 0 1 .9.4s0-.2-.2-.4a2.4 2.4 0 0 0 .3-.5v.8c.1 0 .8-.7.6-1.3a3.8 3.8 0 0 0 .8.2 3.8 3.8 0 0 0-.7-1 1.5 1.5 0 0 1 .5 0 4.7 4.7 0 0 0-.6-.7 4 4 0 0 0 .4-.1 4.6 4.6 0 0 0-.5-.4 2 2 0 0 1 .6 0s0-.1-.2-.3a2.6 2.6 0 0 0 .1-.5l.3.7a2.2 2.2 0 0 0 .2-.8l.2.4a5.3 5.3 0 0 0 .3-1.2 5.3 5.3 0 0 0 1.3.7s-.4-1.6-1.3-1.8a1.3 1.3 0 0 0-.1-.3l.2-.1.6.2a2.3 2.3 0 0 0-.3-.6 3.7 3.7 0 0 0 .7.1 4 4 0 0 0-.3-.6 1.2 1.2 0 0 0 .2 0v.1l.3-.2.5-.2h.1v.2h.4l-.6.6a2.5 2.5 0 0 0 .7 0l-.5.5a2.2 2.2 0 0 0 .8-.2l-.3.4a5.5 5.5 0 0 0 1.3-.2 5.7 5.7 0 0 0-.2 1.4s1.3-1 1.2-2a1.3 1.3 0 0 0 .2-.2 2.8 2.8 0 0 1 .2.2v.7a2.5 2.5 0 0 0 .4-.6 4 4 0 0 0 .2.8 4.1 4.1 0 0 0 .4-.6v.1l.2.1c.2.4.4.4.5.6v.8a2.2 2.2 0 0 0 .5-.7v.5a6.3 6.3 0 0 0 .4-.5 6 6 0 0 0 .6 1 2 2 0 0 0 .2.2 7.8 7.8 0 0 0-1.2.4 6.8 6.8 0 0 0 1.2.7 4.3 4.3 0 0 0-1.2.5s.4 0 1 .3c.2.1.2.3.3.4a2.2 2.2 0 0 0-.4.3c-1.5-.8-4 1-4 1a9.5 9.5 0 0 0 2.6.4 9.7 9.7 0 0 0-1 2.1s.1 0 .8-.4a4 4 0 0 0-.7 1.4s.5-.3 1.2-.7a4.2 4.2 0 0 0-.4 1.1s.6-.4 1.5-.8a2 2 0 0 0 .3-.2 3 3 0 0 0-.3.8l-.5.2a2 2 0 0 1 .4.1 3 3 0 0 0 0 .4s0 0 .3-.2a5.3 5.3 0 0 0 .5.2 6.8 6.8 0 0 0-2 .9 6 6 0 0 0 1.7.6 3.2 3.2 0 0 0 0 .3h-.6a2 2 0 0 1 .4.4 3.7 3.7 0 0 0 0 .4s0 0 .2-.2a6 6 0 0 0 .6.8 8 8 0 0 0-1 .1 5 5 0 0 0 2 1.4 8.8 8.8 0 0 0-1 1.5 9.5 9.5 0 0 0 2.4-1 9.7 9.7 0 0 0 .3 2.4s0 0 .4-.7a4 4 0 0 0 .1 1.5s.3-.5.8-1.3a10 10 0 0 0 1.4-.4 1.9 1.9 0 0 0 .3-.2 7.7 7.7 0 0 0 .1 1.3 5.2 5.2 0 0 0 1.4-1.7 8.1 8.1 0 0 0 .3 1.6c.2-.6.4-.6.8-1.3a6.8 6.8 0 0 0 2 1 7.2 7.2 0 0 0-.4-1.2 7.3 7.3 0 0 0 1.8 1 3.6 3.6 0 0 1-.4-1 6 6 0 0 0 2.5.4 6 6 0 0 0-1.1-1.3 5.3 5.3 0 0 0 .8-.1 7.6 7.6 0 0 0 1 .4 6.1 6.1 0 0 0-.2-.6h.3a2.6 2.6 0 0 1-.4-.2 4.8 4.8 0 0 0-.3-1 4.3 4.3 0 0 0 1-.4s-.3 0-.9-.2a9.8 9.8 0 0 0 2-.4s-.1 0-1.7-.8a4 4 0 0 0 1-.4h.5a7.5 7.5 0 0 0-.3-.6h.1a8.1 8.1 0 0 0 1.7 0 2.4 2.4 0 0 1-.7-.5 7.8 7.8 0 0 0 3.5 2s-.1-.1-.5-.7a4 4 0 0 0 1.4.6s-.3-.5-.7-1.3a10.4 10.4 0 0 0 .3-1.5 3 3 0 0 0 0-.3 7.6 7.6 0 0 0 1.2.5 7 7 0 0 0-.4-1.3 4.2 4.2 0 0 0 1.2.5s-.2-.4-.5-1l.1-.5a2.2 2.2 0 0 0 .5.2c.5 1.5 3.4 2 3.4 2a9.3 9.3 0 0 0-1.4-2 9.7 9.7 0 0 0 2.2-.9s-.1 0-.9-.2a4 4 0 0 0 1.5-.5s-.5-.1-1.3-.4a4.3 4.3 0 0 0 1-.4s-.6-.2-1.6-.6a1.8 1.8 0 0 0-.4 0 3 3 0 0 0 .8-.4l.6.3a2 2 0 0 1-.3-.4l.3-.3h-.3a5 5 0 0 0-.2-.6 6.8 6.8 0 0 0 2 .8 6 6 0 0 0-.8-1.6l.3-.2.3.4a2.2 2.2 0 0 1 0-.4 1.8 1.8 0 0 0 .5-.1l-.3.3a5.4 5.4 0 0 0 1.3-.2 5.3 5.3 0 0 0-.1 1.5s1.3-1.1 1-2a1.3 1.3 0 0 0 .3-.2l.2.2v.6a2.4 2.4 0 0 0 .4-.5 4 4 0 0 0 .2.7 4.1 4.1 0 0 0 .4-.6l.1.2a5.6 5.6 0 0 0 .6.6v.9a2.3 2.3 0 0 0 .5-.7v.5a5.5 5.5 0 0 0 .8-1.1 5.2 5.2 0 0 0 .9 1.1 4.5 4.5 0 0 0 0-.6 3.8 3.8 0 0 0 .4.7 3.8 3.8 0 0 0 .3-1.2 1.5 1.5 0 0 1 .3.5 4.6 4.6 0 0 0 .2-1l.3.2a4.4 4.4 0 0 0 0-.6 2 2 0 0 1 .4.5s0-.2 0-.4a2.4 2.4 0 0 0 .5-.2l-.3.7a2.2 2.2 0 0 0 .8-.4l-.3.4s1.8-.6 2.1-1.6a3 3 0 0 1 .3.1l.1.6a2.5 2.5 0 0 0 .3-.7 4 4 0 0 0 .4.7 4.5 4.5 0 0 0 .2-.7l.2.1.9.6a4.3 4.3 0 0 0-.3-1l.4.4a2.3 2.3 0 0 0-.2-.8 3.7 3.7 0 0 0 .7.4 4.6 4.6 0 0 0-.1-.7h.3l.4.6a2.4 2.4 0 0 0 0-.8 3.8 3.8 0 0 0 .6.5 4.3 4.3 0 0 0 0-.7 1.1 1.1 0 0 0 .2.1h.2l.1.5.2-.4a1.5 1.5 0 0 1 .5.2 4.6 4.6 0 0 0-.3-.5 2.8 2.8 0 0 0 .1-.3c.5.2.6.1.9.4l-.2-.4a2.6 2.6 0 0 0 .3-.5v.8c.1 0 .8-.7.6-1.3a3.6 3.6 0 0 0 .8.2 3.9 3.9 0 0 0-.7-1 1.5 1.5 0 0 1 .5 0 4.4 4.4 0 0 0-.6-.7 4.4 4.4 0 0 0 .4-.1 4.7 4.7 0 0 0-.5-.4 2 2 0 0 1 .6 0s0-.1-.2-.3a2.6 2.6 0 0 0 .1-.5l.3.7a2.2 2.2 0 0 0 .2-.8l.2.4a5.8 5.8 0 0 0 .3-1.2 5.4 5.4 0 0 0 1.3.7s-.5-1.6-1.3-1.9a1.2 1.2 0 0 0-.2-.2l.3-.1.6.2a2.4 2.4 0 0 0-.3-.6 3.9 3.9 0 0 0 .7.1 4.5 4.5 0 0 0-.3-.6 1.4 1.4 0 0 0 .1 0 6.9 6.9 0 0 0 .9-.3l.7.4a2.3 2.3 0 0 0-.4-.8l.4.2a5.5 5.5 0 0 0-.6-1.1 5.2 5.2 0 0 0 1.4-.4 4.8 4.8 0 0 0-.7-.3 2 2 0 0 0-.3-.5h.7a2.8 2.8 0 0 0-.2-.2 5.6 5.6 0 0 1 1 0 5 5 0 0 0-.4-.3Zm-1.9-26.4ZM133 60.6Zm-.8.7a1.4 1.4 0 0 0-.1.2l-.1-.4.2.2Zm-16 25.7h.1-.1ZM85.4 56a1.8 1.8 0 0 0-.1.2 3.1 3.1 0 0 0-.7-.5h.3c-.7-.2-.7-.4-1.7-.8a4 4 0 0 0 1-1s-.5 0-1.3.2a4.2 4.2 0 0 0 .9-.9s-.8.1-1.8.2a4 4 0 0 0 1-1.2s-.7.2-1.6.3a8.6 8.6 0 0 0 .1-1.4 2.8 2.8 0 0 1-.7.7 4.3 4.3 0 0 0 .2-1.1s-.2 0-.4.3a1.6 1.6 0 0 0 .2-1.4 5.9 5.9 0 0 0 1.3.3 6.1 6.1 0 0 0-1-1.6 2.4 2.4 0 0 1 .8.1 7.2 7.2 0 0 0-1-1.1 9 9 0 0 0 2.2.3 9.7 9.7 0 0 0-1 2.2s.1-.1.8-.5a4 4 0 0 0-.7 1.4s.5-.3 1.2-.6a4.4 4.4 0 0 0-.4 1s.6-.3 1.5-.8a1.7 1.7 0 0 0 .3-.2 3 3 0 0 0-.3.8l-.5.2a2.1 2.1 0 0 1 .4.2v.3l.3-.2a5.8 5.8 0 0 0 .5.3 6.7 6.7 0 0 0-2 .8 6 6 0 0 0 1.7.7v.3h-.6a2 2 0 0 1 .4.4v.4l.2-.2a5.7 5.7 0 0 0 .6.7 7.7 7.7 0 0 0-1 .2 6.8 6.8 0 0 0 1 .8 1 1 0 0 1-.3 0s0 0 .2.2ZM51 97a.3.3 0 0 1 0-.1Zm-1.5-14.2c.2 0 1.6.5 2.2 0a1.2 1.2 0 0 0 .3 0l-.1.4-.5.3a2.4 2.4 0 0 0 .7 0 4.3 4.3 0 0 0-.6.6 4.6 4.6 0 0 0 .7.1 1.8 1.8 0 0 0 0 .2l-.2.2a3.1 3.1 0 0 0-.6 0l.2-.4-.9.4a2.4 2.4 0 0 0 .1-.3s-.3.1-.7.3a2.3 2.3 0 0 0 .1-.5 5 5 0 0 0 .6-.6 5.3 5.3 0 0 0-1.5.2 5.3 5.3 0 0 0 .2-1Zm-6-8.3a4.2 4.2 0 0 0 .4-.3 4.3 4.3 0 0 0-.6-.2 2 2 0 0 1 .5-.2l1.1-.5a3.9 3.9 0 0 0-.6 1.4 4 4 0 0 0-.7-.2Zm.3-1.5Zm7.8 13.3a3.5 3.5 0 0 0-.4-.1l.4-.3h.1v.4Zm.2-.5h-.1l.1-.1Zm-.2.5v.4a3.1 3.1 0 0 1-.5 0 4 4 0 0 0 .5-.4Zm-.2.7.1-.1a3.9 3.9 0 0 0 0 .6 2.5 2.5 0 0 0 0-.5Zm-8-13.9s0 .2.2.2l-.2.3a2.3 2.3 0 0 0-.1-.5Zm5.6 2.7v.2-.2ZM50.5 97h.5v.3h-.8a1.7 1.7 0 0 0 .3-.3Zm13.7-38.7a9.1 9.1 0 0 0-1 .5 6.1 6.1 0 0 0 .3-1 7.2 7.2 0 0 0 .7.5Zm43.2 16.5-.3-.2a1.7 1.7 0 0 1 0 .2 6.1 6.1 0 0 0-.8.4l.7-1.1a5 5 0 0 0 .5.5l-.1.2Zm-4-2.4a2.1 2.1 0 0 0-.4-.5h.7l-.3.5ZM84.7 44.7a4.2 4.2 0 0 0-1.2.5s.4.1 1 .3l.3.5a2.4 2.4 0 0 0-.4.2c-1-.5-2.4.1-3.2.6l-.6-.5a3 3 0 0 1 1 .1s-.1-.2-.4-.4a3.7 3.7 0 0 0 .3-.9l.4 1.2a3.7 3.7 0 0 0 .4-1.4l.2.8a8.6 8.6 0 0 0 .6-2.1 5.8 5.8 0 0 0 .5.4 7 7 0 0 0 1.1.7Zm-1.4 11.7.2-.3a2.7 2.7 0 0 0-.2.3Zm1-.6a3.4 3.4 0 0 0 .3 1 4 4 0 0 0-.3-.1v-.3a1.5 1.5 0 0 0-.1.2 1.2 1.2 0 0 1-.3-.2l.1.3a1.8 1.8 0 0 0-.2.5.7.7 0 0 0 0-.2l-.2-1 .7-.2Zm-4.3-6.4Zm-12.4 17Zm13.6-7.8a1 1 0 0 0 0 .1 2 2 0 0 0 .2.4 4 4 0 0 0-.7-.3 2.1 2.1 0 0 0 .5-.2Zm3.5-15Zm16 32 .1.4a1.2 1.2 0 0 0-.2-.1 1.6 1.6 0 0 0 0-.3h.2Zm-4.7-16.9-.4.3a6.5 6.5 0 0 0-.3-1.1 7.4 7.4 0 0 0 1.8 1 3.5 3.5 0 0 1-.4-1 4.5 4.5 0 0 0 1.5.3c-.4.2-1.4.8-1.4 1.6a1.4 1.4 0 0 0-.3.1l-.1-.2c0-.4.2-.6.2-.6a2.5 2.5 0 0 0-.6.4 3.8 3.8 0 0 0 0-.8Zm3.2-.4a6 6 0 0 0-1.1-1.4 5.9 5.9 0 0 0 .8 0 7.6 7.6 0 0 0 1 .4 6 6 0 0 0-.2-.6l.3-.1a2.3 2.3 0 0 1-.4-.2 4.5 4.5 0 0 0-.3-.9l.4-.1a4.3 4.3 0 0 0 1 .3l-.1.2h-.4a1.4 1.4 0 0 1 .2.2h.1v.4l.2-.2v.1a4.4 4.4 0 0 0-1 .4s.4.1.8.3a4.8 4.8 0 0 0 1 .7l.3.5a7.3 7.3 0 0 0-.4.8l-.4.1.7.4a3.5 3.5 0 0 0-.7.8 1.5 1.5 0 0 1 0-.5 4.4 4.4 0 0 0-.7.7l-.2-.4a4.1 4.1 0 0 0-.3.6 1.9 1.9 0 0 1 0-.7s-.2.2-.3.3a2.3 2.3 0 0 0-.5 0l.6-.4a2.3 2.3 0 0 0-.8-.1l.4-.2a5.5 5.5 0 0 0-1.3-.2 5.1 5.1 0 0 0 .4-1.2 8.1 8.1 0 0 0 .9 0Zm3 1.6a3.4 3.4 0 0 0-.4.1v-.3l.5.2Zm-2.4-5h-.4a8.5 8.5 0 0 0 1-.2l-.6.2Zm.4-1-.3-.2.3-.2a1.2 1.2 0 0 0 .2-.1 2.3 2.3 0 0 0-.2.5Zm-.5 24ZM97 82.2h-.1ZM95.7 59l-.2.2a1.8 1.8 0 0 0 0-.2v-.1h.2Zm3.8 26.6h-.1Zm4.2-13.8v-.1h.1v.1ZM94 58.1l-.3.2v-.1l.1-.2.2.1Zm-1.2-.2a1.8 1.8 0 0 0-.3.3 3.2 3.2 0 0 0 .2-.5v.2ZM67 65.2v.2l-.4.2.4-.4Zm38.8 10.1.4.8a9.7 9.7 0 0 0-1.7-1s.1 0 .7 1.7a4.1 4.1 0 0 0-1-.4l-.3-.4-.2.7a7.9 7.9 0 0 0-1.3-1.3 2.6 2.6 0 0 1 0 .9 5.8 5.8 0 0 0-1-1.1 4 4 0 0 0 .5 0 4.5 4.5 0 0 0-.4-.6 1.4 1.4 0 0 0 .2 0 6.1 6.1 0 0 0 .8-.2l.8.3a2.2 2.2 0 0 0-.4-.8l.4.3a5.5 5.5 0 0 0-.6-1.2 4 4 0 0 0 .4 0 9.5 9.5 0 0 0 2.4-.9 9.7 9.7 0 0 0 .2 2.4s0-.1.4-.8a4 4 0 0 0 .1 1.5 5 5 0 0 0 .8.2 4 4 0 0 0-.2.4 4.4 4.4 0 0 0-1-.5Zm2.7 0a1.3 1.3 0 0 0 .2 0v.3l-.4-.3a.9.9 0 0 0 .2 0Zm7.6 11.2v-.3a1.4 1.4 0 0 0 .2 0 .6.6 0 0 0 0 .1l-.2.2Zm7.8-60.2h-.2.2Zm-52.5-14a.8.8 0 0 0-.1 0ZM55.8 56l.3.3v1a3.9 3.9 0 0 0 .7-1 6 6 0 0 0 .4 1.3 7 7 0 0 0 .6-.9 1.9 1.9 0 0 0 .2.2 9.2 9.2 0 0 0 .9 1v1.4a3.6 3.6 0 0 0 .8-1v.7a8.9 8.9 0 0 0 1.2-1.7 8.7 8.7 0 0 0 1.5 1.8 7.6 7.6 0 0 0 0-1 6 6 0 0 0 .6 1l-.8.5h.9a4 4 0 0 0-1.3.9s.6 0 1.5 0a9.9 9.9 0 0 0 1.1 1 2.4 2.4 0 0 0 .3.3 7.5 7.5 0 0 0-1 .6 5.2 5.2 0 0 0 2.1.5 8.3 8.3 0 0 0-1.2 1 8.1 8.1 0 0 1 1.5 0 6.6 6.6 0 0 0 0 2.1 5.1 5.1 0 0 0-.4-1.3 4.8 4.8 0 0 0-.4.9 2.8 2.8 0 0 0-1.2-.4 4.9 4.9 0 0 0 .2.5 3 3 0 0 0-.5 0v-.2a2 2 0 0 0-.2.2 1 1 0 0 1-.3 0s0 0 .2.2l-.1.1a3.2 3.2 0 0 0-.9-.5 3.8 3.8 0 0 0 .4 1.2 2.6 2.6 0 0 0-.4-.2v-.2a2 2 0 0 0-.1.2 1.3 1.3 0 0 1-.2-.2s0 .1 0 .3a1.8 1.8 0 0 0-.2.5.9.9 0 0 0 0-.2l-.2-1a2.8 2.8 0 0 0-.2.3 3.7 3.7 0 0 0-.3-.8 8.7 8.7 0 0 0 1.7-.4 9.5 9.5 0 0 0-2.3-1.1 9.7 9.7 0 0 0 1.5-1.8s-.1 0-.8.2a4 4 0 0 0 1-1.2s-.6.2-1.5.4a10.9 10.9 0 0 0-1.3-.7 2 2 0 0 0-.3-.1 7.5 7.5 0 0 0 .8-1 5.2 5.2 0 0 0-2.2.2 8.1 8.1 0 0 0 .9-1.3 8.2 8.2 0 0 1-1.5.4 6.7 6.7 0 0 0-.7-2 7 7 0 0 0-.5 1 6.9 6.9 0 0 0-.5-1.8l.2-.2ZM35.5 31.7l-.2.3-.5-.3a4 4 0 0 0 .7 0Zm-1.8 0h.5s0 .2.2.3a2.6 2.6 0 0 0-.7-.4Zm-15 33.6V65l.2-.1a1.8 1.8 0 0 0-.2.4Zm.5 0v-.5l.2-.2a5 5 0 0 0 .2.7 4 4 0 0 0-.4 0Zm23 14.1Zm0-.5h.1Zm.8 0 .2.2a2 2 0 0 1-.2.3 2.7 2.7 0 0 0 0-.4Zm4.9 3.6a1.5 1.5 0 0 0-.2 0 4.1 4.1 0 0 0 0-.7 3.8 3.8 0 0 0-.6.5 2.4 2.4 0 0 0 0-.8s0 .2-.4.5h-.3a1.2 1.2 0 0 0 0-.3c.8-.5.6-2.2.6-2.2a5.5 5.5 0 0 0-.9 1.1 5.6 5.6 0 0 0-.8-1s0 0 0 .7a2 2 0 0 0-1-.6s.2.3.5.7a2.2 2.2 0 0 0-.6-.2 3.5 3.5 0 0 0 0-.4 1.9 1.9 0 0 1-.4.5 4.8 4.8 0 0 0 0-.6 6 6 0 0 0-.3.2 4.2 4.2 0 0 0-.2-.8 2.2 2.2 0 0 0-.4-.7l.5.2a5.3 5.3 0 0 0-.7-1.2 5.3 5.3 0 0 0 1.4-.3 4.8 4.8 0 0 0-.7-.4 2 2 0 0 0-.3-.4h.8a2 2 0 0 0-.2-.2 5.7 5.7 0 0 1 .9 0 4.8 4.8 0 0 0-.4-.3 3.6 3.6 0 0 0 1-.3A3.8 3.8 0 0 0 44 75a1.4 1.4 0 0 1 .5-.2s0 0-.2-.1l1.4-.7a8.3 8.3 0 0 0 .3 1.3 2.7 2.7 0 0 1 .5-.8 4.4 4.4 0 0 0 .1 1.2s.3-.4.6-1a10 10 0 0 0 .6 1.8s0-.1.3-.8a4 4 0 0 0 .4 1.4s.1-.2.3-.7l.3.2a2.8 2.8 0 0 0-.8 1.1 4.2 4.2 0 0 0 .6 0 3.2 3.2 0 0 0-.2.4h-.2l.1.2a1.3 1.3 0 0 1-.1.3s0 0 .3-.1a1.4 1.4 0 0 0 0 .1 3.4 3.4 0 0 0-.7.7 3.9 3.9 0 0 0 1.2 0 1.4 1.4 0 0 1-.4.4 4.5 4.5 0 0 0 1 0l-.2.4a4.5 4.5 0 0 0 .6-.2 1.8 1.8 0 0 1-.4.5s.2 0 .4 0a2.3 2.3 0 0 0 .4.4l-.8-.2a2.2 2.2 0 0 0 .5.7L50 81a5.5 5.5 0 0 0 .8 1 5.2 5.2 0 0 0-1.3.6v-.4l-.3.4a2.3 2.3 0 0 0 .1-.9l-.6.6a6 6 0 0 0-.8.1Zm2.7 15.8a7.1 7.1 0 0 0-.7.4l-.3-.3a5 5 0 0 0 .9-.6l.2.2-.1.3Zm-.1-.6h-.3a2 2 0 0 0 .7-.4l-.1.2-.3.2Zm18.4-3.2Zm8.1-4.2Zm4.4-6.1a1 1 0 0 0-.1-.1 1.5 1.5 0 0 0 .2 0 .8.8 0 0 0-.1 0ZM131 61.7a4.4 4.4 0 0 0 0-.5l.3.2a2.3 2.3 0 0 0-.3.3Zm.6.4-.2-.3.1-.3.4.2a1 1 0 0 0 0 .2 1.2 1.2 0 0 0-.3.2Zm1.3-.5h.1-.1Zm1 21.1Z"/><path fill="#73bf44" d="M77.1 150.6h12a88.1 88.1 0 0 0-.9-12.8C87.3 132.2 87 124 87 124s-1.7-13.7-1.2-19.4.6-10 2.6-13.6c2-3.7 4.1-8.4 4.1-8.4l-1.8-1.4S88 86 86.7 89c-1.2 3.1-2.6 3.8-2.8 3s-.3-11.8-.3-11.8l-2.6.5s.8 7.7.8 10.4-1.7 1.8-1.7 1.8l-3-13.1-2.3 1.4s3 9.8 3 11.2c.2 1.5-1.9 1-2.5.3-.7-.8-5.7-5-5.7-5l-.8 1.2s4.4 5.9 5.2 6.6a4.3 4.3 0 0 1 1 3.2c-.1.8-8.5-4-8.5-4v2l7.1 4.6s2.9 1.6 4 8.1c1.2 6.5.4 13.3 1.2 18.4.9 5.1-.5 10.6-.7 14-.3 3.2-1 5.9-1 8.8Z"/><path fill="#73bf44" d="M77.5 80.5c15.4 0 30-13.5 29.3-29.3A29.8 29.8 0 0 0 77.5 22c-15.3 0-30 13.4-29.2 29.2a29.8 29.8 0 0 0 29.2 29.3Z"/><path fill="#73bf44" d="M49.4 91.3c12.2 0 23.9-10.7 23.3-23.3a23.7 23.7 0 0 0-23.3-23.3c-12.2 0-23.9 10.7-23.3 23.3a23.7 23.7 0 0 0 23.3 23.3ZM101.8 82c12.2 0 23.9-10.7 23.3-23.3a23.7 23.7 0 0 0-23.3-23.3C89.6 35.4 78 46 78.5 58.7A23.7 23.7 0 0 0 101.8 82Z"/></svg>