<svg xmlns="http://www.w3.org/2000/svg" viewBox="0 0 150 150"><path fill="#73bf44" d="M119 112.8c-.3-.3-.5-.6-1-.3-.3.4-.6-.1-1 0-.3 0-.5.5-.8-.1 0-.2-.4.3-.5.6 0 .2.2.4-.3.3-.4-.1-.4 0-.2.5-.5.3-.6 1-1.3 1.2-.3-.4 0-1-.6-1.3a.4.4 0 0 1 0-.5c.2-.9-.2-1.5-1-1.2-.7.3-1.2.8-2 .3-.3.4-.7.2-1 .3-1 .2-.6-.2-.5-.6.1-.3 0-.7-.2-.6-.7.3-.5-.2-.7-.4-.3-.4-.6-1-1.1-.9-.6.2-1 .1-1.1-.6 0-.3-.2-.3-.5-.2-.2 0-.5.6-.7 0 0-.4 0-.8.5-.9a.7.7 0 0 0 .5-.7c0-.4-.5-.6-.8-.7l-.8.3c-.2.1-.4.3-.4 0 0-.5-.6-.4-.7-.7l-.1.2c0 .4.2.8-.2 1a.2.2 0 0 1-.3 0c-.2-.3 0-.7.1-1.1-.4.1-.6-.2-.8-.5-.1-.2-.4-.3-.5 0-.1.2 0 .7-.4.6-.3-.1-1 0-.9-.7 0-.3-.3-.4-.6-.5a2.5 2.5 0 0 1-.8 1.6s-.3.2-.2.3c.4.6 0 .8-.4 1-.5.3-.4.6 0 .9.2.1.5.2.3.6-.2.5 0 .4.4.3.1 0 .3-.2.4 0 .1 0 0 .2 0 .4-.3.7-.3.7.6 1 .1-.4 0-.6-.2-.8a.6.6 0 0 1 .1-.6.2.2 0 0 1 .3 0 .5.5 0 0 1 .2.5v.2c0 .6.1.5.6.5.5-.1.6-.3.7-.7a.4.4 0 0 1 .7-.2c.5.4 1.1.6 1.3 1.3a.7.7 0 0 1-.6.1c-.1 0-.3-.4-.4 0 0 .3.2.3.4.3s.6.1.4.4c-.5.4.2.6 0 .8 0 .4-.6.2-.8.7l-.1.4c-.1.3-1.1.8-1.2.6-.2-.7-1-.3-1.4-.8 0-.2-.5-.1-.7 0-.5.5-.6 0-.7-.3-.1-.2 0-.4-.2-.6-.2.3 0 .8-.5.8s-.2-.5-.5-.6c-.1 0-.3.2-.3.5s0 .7-.3.7c-.4 0-.1-.5-.2-.8l-.1-.1c-.8.7-1.1 0-1.5-.5a1.2 1.2 0 0 1-.2-.8c0-.5-.4-.5-.6-.2-.3.5-.4.2-.8 0-.6-.2-.5-.7-.8-1.3a13.3 13.3 0 0 0 0 2.8c0 .2 0 .7-.2.7-.6-.2-.4.3-.4.5a.5.5 0 0 1-.2.3l-.2-.1c0-.5-.6-1 .1-1.4.5-.2.5-.5.2-1-.2-.2-.4-.6.1-.8.3-.2.3-.7.2-.7-.5-.2-.3-.7-.5-1-.9.9-.9.9-1.5.7-.4 0-1-1-.9-1.3a1.1 1.1 0 0 0 .2-1.1c-.1-.4 0-1-.2-1.5-.2-.3-.7-.4-1.1-.6 0-.4.7-.3.5-.8-.2-.5-.7-.3-1.1-.4.1-.4.3-.7 0-1.2-1.1-1.4-3.6-1.1-4.8 0a35.2 35.2 0 0 0-3.5 3.6 34.2 34.2 0 0 0-5.8 10.3 11.6 11.6 0 0 0-1.1 5.6 5 5 0 0 1 0 .7 27 27 0 0 0 0 4.9l1.2 8.4c.1.6 0 .9-.6.9h-8.7c-.5 0-.6-.2-.5-.8l.8-6.1a41.6 41.6 0 0 0 .7-5.6v-10.6a19.2 19.2 0 0 0-1.3-6.8 58 58 0 0 0-7.2-13 1.9 1.9 0 0 0-3 .4c-.4-.7-.8-.8-1.2 0a.5.5 0 0 1-.7.2c-.3-.1.2-.5 0-.7-1.8.7-3.6-.3-5.5.1.5.1.6.6 1 .7.7.2.9.7.4 1.3-.2.3-.3.6 0 1 .2.1.1.2-.1.4a.7.7 0 0 1-1.2-.7c0-.2 0-.4-.3-.3-.6.2-.5-.2-.3-.5 0-.3 0-.4-.3-.6-.1 0-.4-.2-.5 0-.2.6-.6.3-1.2.2.4.4 1 .6.6 1-.3.4-.5-.2-.8-.4a.3.3 0 0 0-.5.1c0 .7-.7.9-1 1-.6.2-1 .7-1.5.8-.3-.7-.1-1 .8-1.5-.6.1-.8-.2-.9-.7a11.7 11.7 0 0 1-.3-1.6c0-.2 0-.4-.3-.5-.2 0-.3.2-.3.3-.1.2-.3.5-.5.2-.3-.3-.4 0-.7.1-.3.2-.5.8-1 .3-.3-.3-1-.6-.8-1 .1-.5.8-.4 1.2-.4l.3-.3c-.8 0-1.7-.2-2 0-.5.6-1 1-1.7.8-.3-.1-.6.6-.7 0 0-.4-.5-.5-.3-.9.1-.2.2-.4-.2-.5-.2 0-.5.2-.5.4 0 .5-.6.5-.7.9-1-.5-.2.5-.4.6-.3-.1-.3-.5-.5-.7 0 .2-.3.3-.2.5.3.4.3.6-.1.9-.2 0-.1.3 0 .4 0 .3.1.7-.2.8-.3 0-.3-.3-.5-.5s-.4-.7-.7-.5c-.5.2-1.3.5-1.3 1-.1.6-.5.5-1.1.6.6.2 1.1.3.6.8-.3.4-.5.8-1 .2a1 1 0 0 0-1-.2c-.5.6-.5.2-.7-.1-.4-.4-.5-1-1.4-.6a3.2 3.2 0 0 1-2.3.6 2.4 2.4 0 0 1-1.3-.6c-.2-.4.5-.4.6-.8a.9.9 0 0 0 0-.2c-.4 0-.7.3-1 .1-.5-.3.4-.6 0-1a.9.9 0 0 1-1 .3l-.5.1c-.2.2-.2.7-.7.4-.3-.3-.2-.6 0-1 .2-.5 1-.4 1-1.1-.7.4-.6-.3-.8-.5-.2-.3 0-.7-.5-.7a1 1 0 0 0-.8.6 4.9 4.9 0 0 0-.4 1.4c0 .3 0 .8-.6.7-.4 0-.5.2-.3.6 0 .4.2 1-.3 1.3l-1.6 1c-.7.5-1.1-.3-1.7-.1-.1 0-.1-.3 0-.4.1-.1.3-.2.2-.4-.4-.2-.5.1-.7.3-.7.4-1.2.2-1.3-.5 0-.3 0-.5-.4-.6-.7-.2-.5.4-.8.7-.1.2-.4.4 0 .7.5.2.2.4 0 .6a3.3 3.3 0 0 0-1 .6c-.5.7-1 .2-1.1-.2-.2-.4-.8-.7-.4-1.4a1.2 1.2 0 0 0-.2-1.2c-.2-.3-.3-.5.1-.7.3 0 .1-.3 0-.5-.1-.4.3-.6.5-.9.2-.3.4-.1.6.1.1.1.2.2.4 0 .1 0 .3-.2.1-.4-.2-.3 0-.5.3-.6.4-.4.7-1 1.1-1.2.1 0 .3-.3.1-.4a1.3 1.3 0 0 0-1-.1c-.4 0 0 .3 0 .5s0 .4-.4.5c-.8.2-1.3 1.2-2.3 1 0 .8-.8.8-1.1 1.2-.1.1-.3.3-.4.2-.7-.7-.9.1-1 .4-.6.6-.8.2-.9-.2a2.1 2.1 0 0 1 .7-2.3c-.5 0-.7-.6-1.2-.4-.2 0-.5.2-.5 0 .1-.3-.4-.7 0-1a.8.8 0 0 0 .1-1c-.1-.4.2-.6.5-.8 0 0 .3-.1.4 0 .2.3-.2.4-.2.7l.1.2c.3-.4 1.2-.4.8-1.3 0-.4.3-1 .6-.9 1.2.2.8-.5.7-1 0-.3-.3-.8.2-.6.6.2 1-.2 1.6.1.1 0 .3 0 .3-.2a.3.3 0 0 0-.1-.3c-.4-.4-.8-.6-1.3-.2-.3.3-.6.3-.8 0a1.8 1.8 0 0 1-.2-2.3 3.8 3.8 0 0 0-.7 0c-.2 0-.4.5-.6 0-.2-.3 0-.6.2-.8.3-.3.7 0 1-.2.5-.2-.3-.7.1-.9.5-.3 0-.6 0-1 0-.2-.5-.2-.7-.1-.4 0-.6.2-.4.6.2.3-.1.2-.2.3-.1 0-.3.2-.5 0v-.3c.3-.8 1.4-1.7 2.2-1.5.6.2 1-.2 1.5-.4a.4.4 0 0 0 0-.6c-.1-.3-.2 0-.4.1a1.6 1.6 0 0 1-2 0c-.1-.2-.3-.4-.6-.2l-.6.1c.2-.5-.7-.8-.2-1.3.2-.3 0-1.3 1-.8v-.1c.3-.5.5-.4.9 0 .3.2.7 0 1-.1.4-.3.2-.6.1-.9-.1-.6.2-1 .8-1 0-.2-.6-.5-.1-.7.2-.2.4 0 .5.4.2.6.6.7 1 .2a2.3 2.3 0 0 1 1.1-.8c-.6-.2-1 0-1.6 0a2.9 2.9 0 0 1 1-.3c.4 0 .8 0 .7-.7 0-.4.4-.5.6-.1.2.5.6.3 1 .4.7.1.5-.3.5-.8l.3-.2c0-.6.8-.5.9-1.1a.7.7 0 0 1 .9-.7c.3.1.9.2.7 1 .1-.5.2-.8.7-.5h.3a1.3 1.3 0 0 1 1.5-.6h.5l-.2-.4c-.2-.5-.5-.6-.8 0 .3-1 0-1.4-1-1.3a1 1 0 0 1-1-.7.9.9 0 0 1 .5-1c.5-.3.4-.7 0-1-.5-.3-.2-.7 0-1.1.2.3 0 .9.6.8.6-.1.1-.5.2-.7.1-.7-.7-1.1-.4-1.8l-.3-.2-.2.2c.3.7-.5.5-.5.9 0 0-.6-.1-.2.3a.5.5 0 0 1-.2.8c-.3.1-.3-.3-.4-.6 0-.5-.2-1-.9-1-.8.2-1.2-.4-1.8-.8-.3.7-.8 1-1 .6-.7-.7-1.2 0-1.4.2-.4.5-.8.5-1 .3-.5-.4.2-.6.2-.9-.8-.2-.8-.2-.8-1.1v-.2c0-.6 0-.7.6-.5.4 0 .4-.1.5-.4a1 1 0 0 0 0-.9c.4 0 .5.3.8.1-.7-.5-.6-1.4-1-2a5.1 5.1 0 0 0 2.6 1.1c.7.2.5.4.3 1a1.8 1.8 0 0 1 2.3-.3.2.2 0 0 0 .2-.3c-.4-.5-.1-.9.2-1.3.3-.4 0-.7-.2-1-.3-.3-.4-.3-.6.1-.2.3-.5 0-.8-.1-.3 0-.2-.5 0-.6.6-.6.2-1.2 0-1.8-.3 0-.2.7-.6.4-.3-.2-.7.1-.9-.1-.3-.5.2-.7.4-1 .3-.3.2-.5 0-.7-.4-.2-.4-.5 0-.8.2-.2.2-.3.1-.7a7.7 7.7 0 0 1-.3-2c.1-1 .1-1.6-.4-2.1a1 1 0 0 1-.2-.4c0-.1-.1-.3-.3-.2-.5.2-1-.3-1.5-.3.2-.2.6-.4.5-.5-.8-.5 0-.4.1-.6.2-.1.1-.3.1-.5l.2-.3c.3.4 1-.3 1.3.5l.2.1c.7-.6.9.1 1.1.6.8-1.4.7-1.5-.5-1.7.3-.9 1.1-.5 1.7-.8-.4-1.2-.3-1.4 1-1.2h.2c.2 0 .5 0 .5-.3s-.3-.2-.5-.3h-1.3c-.3-.1-.4-.2-.3-.5 0-.4 0-.8.6-.7.2 0 .5-.2.4 0 0 1 .5 1 1.2 1 .2 0 .7.5.7.1.1-.5.6-1 .4-1.4a.7.7 0 0 1 .2-1c.4-.3.3-.4 0-.7 0-.2-.2-.5 0-.5.6.1.3-.3.4-.5 0-.2 0-.4.3-.4.3-.1.5-.4.5-.7-.8-.1-1 .4-1.4.9-.2.2-.4.5-.6.4-.2-.2 0-.5 0-.8a5 5 0 0 0 .5-1 5.6 5.6 0 0 1 .7-1.6c.2-.2.5-.4.6 0 .4 1 .8.8 1.3-.4 0 1.6 1.4.9 1.7 1.7 0 .1.3 0 .3-.2.1-.1.2-.3.1-.4-.3-.3-.4-.4 0-.8.5-.4.6-1 1 0a.2.2 0 0 0 .4 0c.6 0 1 1.1 1.7.5.5.7.7 0 1.2-.1-.5-.4-1.3-.6-1-1.3a2.6 2.6 0 0 1 1-1.2c.8-.4.9.5 1.3.3-.1.8.4.2.6.3-.2.4 0 1-.3 1.1-.3.5.2.4.2.6 0 .1.1.4.3.1.1-.1.4-.2.3-.5-.3-.4.3-.5.2-.9-.4.1-.6 0-.5-.4 0-.7.3-1.4-.4-2v-.3c.4-.3.7-.9 1.1-.8.5.1.4.7.5 1.1v.2c0 .4.2.8.7.4a.2.2 0 0 1 .4 0 1.6 1.6 0 0 1-.1.3c-.1.2-.4.3-.1.5.2.3.3 0 .5-.2a2 2 0 0 0 .3-.2c.4-.5.4-1.3 0-1.3-.8.1-.5-.5-.6-1v-.5c-.7.5-.7-.3-1-.5a1.6 1.6 0 0 0-.8 0c.3 1-.7.7-1 1.1a.3.3 0 0 1-.4.1c-.3 0-.1-.2-.1-.4 0-.5.2-1 .1-1.6 0-.2-.4-.4-.1-.6.3-.3.5 0 .8.2 0 .1 0 .4.2.4.5-.7 1.7-1.2.4-2.3.6.3 1.1-.2 1.6.1a1.2 1.2 0 0 0 2-.2c0 1.2.2 1.6 1 2.1 0-.3-.2-.9.4-.9.7 0 0-.7.5-.8a.4.4 0 0 1 .4.3l.3.6c.1.3.4.3.7.3.5 0 0-.4.3-.5.7.7 1 .7 1.5 0 .2-.5-.4-.7-.2-.9.6-.6.7-1.5 1.7-1.7-.7.1-.9-.3-1-.8-.2-.3-.2-.8-.4-.8-1-.4-.7-1.2-.8-1.8 0-.5-.1-1.2.8-1a.8.8 0 0 0 .6-.2 1 1 0 0 1 1.5.2c.2.6.4.5.6.1.3-.3.4-.6 1-.4-.3.3-.4.8-.8.9-.3 0-.2.3-.2.5 0 .1.2.3.3.1.7-.6.8 0 1 .4.2.4 1.4 1 1.6.8 1-.9.4.3.7.4.7-.9 1.5.2 2.3-.1.2 0 .5.6.8.3.3-.4-.4-.5-.3-1 .4.5.5.1.6-.3a.6.6 0 0 1 .5-.5c.2 0 .4 0 .3-.3 0-.2 0-.3-.3-.4a.9.9 0 0 1-.6-.7c0-.3 1.6-1.3 1.8-1 .4.4.6 0 1-.1a4.6 4.6 0 0 1-1.5-1.1c0-.1-.4-.2-.3-.4.1-.3.3-.4.5-.5.2 0 .3.3.4 0 0-.2-.1-.3-.3-.4-.6-.3 0-1.2-.5-1.6.4-.1.5-.7.9-.9.2-.1.4.1.6.3.2.1.3 0 .4-.1.4-.4 1.7-.3 1.9.2.1.5.6.5 1 .8.2.3.3 0 .4-.3a1 1 0 0 0-.4-.7c-.3-.4-.2-.8.2-1a.9.9 0 0 0 .5-.5c.2-.6.8-.8 1.1-1.3.1-.2.3-.3.5-.2.2.1 0 .4 0 .5 0 .2-.3.5 0 .6.3.2 1 0 1.3.6.4-.6.6-.5 1 0 .1.3.3.7.7.8.5.1 1.2 0 1.1 1 1 .3.2.9 0 1.2-.2.4-.8 0-1.2.3-.3.1 0-.4-.3-.6a3 3 0 0 0-.6 2s.3-.2.6 0c.2 0 .6.2.7-.4.1-.3.5-.7.8-.2.6.5.8.3 1-.3a.7.7 0 0 1 1.2-.1c.1.2.2.5.6.4.3-.2.3-.5.3-.8a1.2 1.2 0 0 0-.7-1.1l-.2 1c0-1-.2-1-.5-.4-.1.3-.3.5-.6.3-.4-.3 0-.6 0-.8 0-.3.3-.2.5-.2s.5 0 .5-.4c0-.5-.3-.1-.5-.2-.2 0-.4 0-.4-.2.4-.4 1-.4 1.6-.6.3 0 .4 0 .5.2.3.4 0 .4-.2.5a.6.6 0 0 0-.3.5l.1.2c.5-.4.4.1.4.3a.5.5 0 0 0 .6.5c.3 0 .2-.2.2-.4 0-.3.3-.3.4-.2.3.4.8.3 1.3.5-.7.2-.3.7-.4 1.1-.5-.4-.5-.4-1.4-.2-.3 0-.4-.4-.6-.3a1 1 0 0 0 .2 1c.3.4-.2.7-.1 1 0 .4 1 .4.4 1l.1.2c.4-.1.7.2 1-.3.1-.3.4-.6.8 0 .2.2.4 0 .6-.1a1.8 1.8 0 0 0 .6-1c.1-.8 1-1 1.2-1.6h.5a.8.8 0 0 0 .8 0c.2-.3.4-.2.5 0a1.2 1.2 0 0 0 1.5.7.6.6 0 0 1 .6.3c.2.2.6.4.7.3.3-.4.7-.6 1-.8.5-.5.2-1.9-.4-1.8-.7 0-.8-.5-1.1-.8-.3-.3-.4-.4 0-.7.2-.2.1-.7.1-1-1 .1-.7-.8-1-1.2a.5.5 0 0 1 0-.7.2.2 0 0 1 .3 0 .5.5 0 0 1 .2.6c-.1.5.3.7.7.8l1 .3c.5.1 1.2 1.7.8 2-.7.6-.3.8.2 1.3 0-.7.8-.9.4-1.5-.2-.5 0-.8.2-1.2.1-.6.6-.3.8-.4.3 0 .2.4.1.6l.1.4c.2 0 .3-.2.3-.3.1-.2.2-.4.4-.3.3.5 1 .4 1.3.7.3.2.4.3.3.6 0 .2-.1.5.2.5.3.1.3-.2.4-.4l.4-.5c.3-.3.1-.4-.1-.4h-.6c-.3 0-.6 0-.5-.3 0-.4-.2-.9.4-1 .3 0 .6-.2.6.4 0 .1 0 .3.2 0 .4-.2.5 0 .6.3.1.2.1.2.4 0a3 3 0 0 1 1.5-.2c.6 0 1.1-.1.7-1a4.6 4.6 0 0 0 .5 0c.5 0 1.2-.5 1.5.3 0 0 .7.2.6-.3-.2-.7.5-.3.7-.6.1-.1.8-.2.9 0 .2.7 1.4.4 1 1.4l.1.1c.7.6.8 1 .1 1.6.3 0 1 0 .5.5-.6.5.3.5.2.7a2 2 0 0 1-2 .8c.4.4.9.4 1.1.9l-1.1.1c1.1.5.9 1 .6 1.7a.3.3 0 0 0 .1.4c.2 0 .3 0 .3-.2.2-.7 1-1.2.7-2 0-.3.1-.6.4-.4.6.8 1.3.7 2.1.4 0 .3-.3.4-.3.6.8.2.8.2.6 1l.2.4a2 2 0 0 1 .5.7c.2-.2.2-.4.5-.6.7-.2.8-1 1-1.6 0-.6-.4-.8-.8-1-.3-.2-.7-.4-.5-.7.4-.4.3-.5-.1-.6-.2 0-.2-.4 0-.5 0-.3 0-.5-.2-.7-.8-.6.1-.3.2-.5-.1-.3-.5-.2-.6-.7-.2-1 .7-1 .7-1.6a2.4 2.4 0 0 1 1.3.2c-.3.6.3.6.6.8.5.4.7.2.9-.3a10.9 10.9 0 0 1 .4-1 .8.8 0 0 1 .5-.6l.2.1a.6.6 0 0 1-.2.7 1 1 0 0 0-.4 1c0 .7.8 1 1.1 1.6a2 2 0 0 0 1.9.7c0-.2-.1-.4 0-.4.2-.4 2 .1 2 .6 0 .6.7 1.1.3 1.9 0 0 .2.6.3.5.6-.4.7.3 1 .4.3 0 .5.2.7 0 .6-.7.7 0 .9.5 0 .1 0 .4.3.4.2-.3-.1-.5 0-.7 0-.1.2-.4.3-.3.4.5.9 0 1.3.3a6.4 6.4 0 0 0-.2.6c0 .4-.5 1 .5.7.3 0 .3.2.3.5a3.6 3.6 0 0 1-1 2.3.4.4 0 0 0-.1.3c.1.4 0 .5-.3.6a.4.4 0 0 0-.1.7 11.2 11.2 0 0 0 1.8.3c.8 0 1 .1.8.9 0 .2-.2.5.1.6.2.1.4 0 .5-.3 0-.3.3-.2.5-.2s.6 0 .5-.1c-.1-1.4.6-.5 1.1-.5.8-.1.5.5.6.8.2.5-.5 0-.6.3.5.4.5.4 1.4.3a.4.4 0 0 1 .3 0c.3.3 1 .2 1 .6 0 .4-.2.8.2 1.2-.6.4 0 1-.2 1.4a1 1 0 0 0-1.2.5c-.1.1-.4.3-.2.5.1.2.3 0 .5-.1.1-.1.3-.4.4-.2a3 3 0 0 1 .6 1l-.5.4c-.3.1-.4-.1-.5-.2a.6.6 0 0 0-.7 0 .3.3 0 0 0-.2.4c.2.2.4.1.6.1.3 0 .5.2.7.4a1.7 1.7 0 0 1-1 .3c-.7.1-1 .6-.7 1.3.1.4.2.8-.3 1.2h.4c1 0 1 0 1 1a2.2 2.2 0 0 0 .1.3c0 .6.3 1 1 .8.2-.1.5.1.8 0q.2 0 .3.2a6 6 0 0 1-2 1.3h-.3c-.7-.2-.8.2-.8.7 0 .2-.2.4-.5.4-.1 0-.2-.1-.3.1a.3.3 0 0 0 .2.4c.5.3.5.3 0 .8.5.3 1 .7 1.5 0 .1 0 .4.2.3.4-.2.4.1 1-.3 1.3a.3.3 0 0 0 .1.5c.4 0 .7 0 .5.6a.5.5 0 0 0 .2 0c.2 0 .3 0 .3-.2a1.4 1.4 0 0 1-.2-.8c.1-.3.2-.6.6-.3.1.1 0 .5.4.3a.8.8 0 0 0 .3-.8.6.6 0 0 0-.4-.6c-.8-.4-.8-.3 0-1a.5.5 0 0 0 0-.2c-.4-.6-.6 0-.9.2-.2 0-.3.4-.6.2v-.6c.5-1.4 1-1.6 2-.6.3.2.4 0 .6-.1a1.2 1.2 0 0 0-.2-1.9c.1-.4.1-1 .8-1.1-.1.6-.2 1.1.2 1.4.8.5 1 1 .2 2 1.4-1 1 .5 1.7.7a.8.8 0 0 1-1.2 0c.2.6.6.8.7 1.3 0 .1.2.2.4 0 .4-.4.5 0 .5.4.1.6.4.5.7.2a1 1 0 0 1 1.3-.2c-.3-.4-.7-.6-.2-1a1.4 1.4 0 0 0 .7-1.2c-.1-.8 0-1.4.8-1.7a.7.7 0 0 0 .4-.4c.1-.4.3-.6.7-.7a1.4 1.4 0 0 0 .5-.5c-.4-.7.2-1 .4-1.4a.8.8 0 0 1 1.5 0c.5.7.5.8.3 1.6l-.2.4a4.4 4.4 0 0 0 1.9-.6 13.6 13.6 0 0 1-1.3 2 1.4 1.4 0 0 0-.2 1c0 .5.6.5.6 1 0 0-.2.3.2.4a.4.4 0 0 0 .2-.1c.2-.2 0-.4 0-.6-.5-.4-.1-.6.1-.8.2-.2.3-.5.5-.3.2.3.4.6.2 1a.6.6 0 0 0 0 .7c1-.9 1.3-1 2.4-.8a.6.6 0 0 0 .1 0c.9 0 1.2.6.8 1.3 0 .2-.3.2-.2.4a.4.4 0 0 0 .6.1c.8-.5.6.7 1 .8.2 0 .2.6 0 .9l-.9.8s-.3.1-.2.2c.6.7-.2.7-.4.9-.4.2-.4.6-.6 1 0 .1.1.2.3.2.2 0 0 0 0-.1.2-1 .8 0 1.2-.3.2-.2.2.2.3.4.2.3 0 .3-.2.4a1.7 1.7 0 0 0-.6.2c-.6.4-1.3.8-1.7-.3a.3.3 0 0 0-.3-.3c0 .5-.2 1-.9.8.5.5.9 1 1.4 1 .7.2.8.5.6 1.2.4-.2.7-.3 1 0 .3.5.2 1-.6 1.1-1 .2-.4 1.5-1.3 1.7a.8.8 0 0 0 .1.2c.2.4.3 1 1 .5a.6.6 0 0 1 .8.1c0 .2-.2.2-.3.2-.2.1-.2.3 0 .5a.5.5 0 0 0 .5.3c.1 0 .5 0 .5-.2-.2-.4.2-.8.2-1 0-.7.3-.7.8-.8a2.3 2.3 0 0 0 .7-.1c.7-.4 0-.7-.2-1 .3 0 .5-.1.6-.5.1-.3.5-.8.9-.3s.6.3 1 0 .8-.8 1.6-.7c-1.4 2-1.4 2-1 2.9.2-.4.2-.8.6-1 .3-.2.6-.5.8-.1.2.2 0 .5-.2.7-.2.1-.5.4-.1.5.5 0 1 .4 1.5.1.4-.2.6-.3.9.1 0 .2.3.2.5.2.3 0 .6 0 .3.5v.5c.4.3.2.4-.1.5-.7.1-.8.4-.4 1.1v.3c-.3.4 0 .7.2 1 0 .3 1.1.5.1 1a1.2 1.2 0 0 0 .1.4c.2.3.4.7-.2 1v.2c0 .4.8.7.3 1.3.5.3.3.4 0 .5-1.3.6-1.4.8-1 1.7a.5.5 0 0 0 0 .1 2.3 2.3 0 0 0 .8-.7c.3-.4 2-.5 2.1-.1l.2 1.3a1.2 1.2 0 0 1-.2.8 1.7 1.7 0 0 0 .8 2.4c.2.1.2.2.2.4 0 .6 0 1.1-.7 1.3a.4.4 0 0 0-.2.6c.6-.3.9 0 1 .5-.5.1-.4 1.1-1.2.9-.5-.1-.7.3-.7.6s-.3.8.3 1a.3.3 0 0 1 .1.4.6.6 0 0 0 0 .8c.2.3.1.4-.3.4h-.3c-1.2.6-1.3.6-2.3.1-.2 0-.4 0-.6.3a5 5 0 0 1-1.6-1.2l-.5-.2c-.9 0-1.8.2-2.6.3-.4 0-.5.3-.5.7h-.2c-.3-.1-.2-.6-.5-.5a.2.2 0 0 0-.1.2c0 .3.2.4.4.5.3.2.6.6 1 0 0-.2.2 0 .4 0 .3 0 .7.2 1 .1.6-.2.9.7 1.5.5a.4.4 0 0 1 .1.1c0 1 .3 1.2 1.5 1.3-.4-.4-.4-1-.9-1.2a.2.2 0 0 1 0-.3.3.3 0 0 1 .4 0c.2 0 .5.2.6-.3.3 0 .5-.1.7.3a9.4 9.4 0 0 0 .7 1.5c.2.3.5.5 0 .8a.2.2 0 0 0 .1.4c.2.1.3 0 .4-.2l.3-.9a.8.8 0 0 1 .5-.6.2.2 0 0 1 .3.2c.1.3-.1.5-.3.7a.8.8 0 0 0 0 1.3c.6.4.6.6.1 1-.3.3-.4.6-.8.7a.8.8 0 0 0-.6 1c-.3-.5-.6-.6-1-.2-.2 0-.5 0-.5-.2 0-.4-.4-.5-.4-.8 0-.4 0-.4-.3-.4s-.5 0-.4.4c0 .3-.3.6 0 1 .2 0 0 .2-.2.3a3.7 3.7 0 0 0-1.9 1.5 1.4 1.4 0 0 1-.7.7c-.5.2-.4.9-1 1v.2c.7-.2.9.5 1.3.7h.4c.3-.8.5-.6.7 0 .2.2.3 0 .4 0a.5.5 0 0 1 .6.3c.1.2 0 .5.3.4.3-.2.5-.3.3-.6 0-.3-.4-.5 0-.7.2-.1.4.2.5.4.3.3 1.6.2 1.5-.1 0-.6.5-.8.7-1.2.3-.6.8-.2 1.2-.1.5 0 0 .5.2.8.2-.6.8-.7 1-1.3.1-.2 0-.7.5-.4.4.3.5-.6.8-.2a1.1 1.1 0 0 0 .9.6l.1.3c-.6.3.3 1.2-.6 1.2v.2c.5.6-.1.6-.4.9-.1.2-.5.3-.3.7.1.2 0 .3-.2.4a.6.6 0 0 0-.6.4c0 .2-.2.3-.4.1-.5-.5-.4 0-.5.3-.2.7.7 1.2.5 2 0 .4.2.7-.3.8-.4 0-.4.7-1 .5 0 0-.3-.2-.4 0a.5.5 0 0 0 .2.5 1.8 1.8 0 0 0 1.4.3.9.9 0 0 1 .8.4c.2.3 0 .5-.3.7a.3.3 0 0 0-.1.2c0 1.2-1 .8-1.6 1.3.3.1 1 .2.4.8v.1c.8.7 0 .6-.4.7a.5.5 0 0 0-.3.7c.1.3.3 0 .5 0 .9 0 1.6-1 2.6-.5.1 0 .8.3.9 0 .4-.5.9-.2 1.3 0 .2-.3-.3-.4-.2-.7.6.1.8-.5.9-.9.2-.6.3-.4.8-.3.7.3 1.3 1 2.1 1a.3.3 0 0 1 .4.2c.3 1 .7 1.2 1.4.3 0 0 .2-.2.3 0a.3.3 0 0 1 0 .3l-.4.6s-.1.4 0 .4c.5-.3 1 .5 1.5 0 .4-.3 1-1 1.7 0 .3.4.1.8.3 1.1-.3.1-.7.4-1 .2-.9-.4-.7.4-.6.6.2.5.1.9-.7 1 .7.2 1 .3 1 .9-.1.2.1.4.4.5.2.1.6.2.5.5-.2.4-.5.1-.8 0-.2-.2-.5-.5-.7-.1-.1.3.3.4.5.5l.1.2a5.7 5.7 0 0 1-2-.4c-.4-.3 0-.6 0-1 0 0-.2 0-.2-.2-.1-.6-.7-.9-1-1.4a.2.2 0 0 0-.4 0c-.1 0-.2.1 0 .3.4.5 0 .6-.4.7-.4 0-.3.7-1 .5a1.7 1.7 0 0 1-1-1c-.2-.2-.3-.5-.8-.5.3.4.4.7.1.9.5.6 1.2.7 1.8 1.1.2.2.6.5.7.9 0 .7.3.6.7.3a2.3 2.3 0 0 1 .6-.3c.4 0 .8-.3.4.5-.2.4.2.3.4.5s.8.3.3.8c.5.6-.1 1.2 0 1.8 0 .2.2.2.3.2.4 0 .5.1.3.4 0 .1-.2.3 0 .4.2.3.3.5-.1.6-.4.1-.4.6-.8.6-.9-.1-1.3-1-2.1-1l-1.1-.5c-.8.6-1 .3-1-.6 0-.2-.2-.4-.4-.4a1 1 0 0 0-.6.2c-.3.2 0 .4 0 .6.5.7.5.7.2 1.6-.1.5-.2.5-.6.3-.1 0-.2-.2-.4-.1v.3c0 .2.2.2.4.2s.6-.1.5.2c0 .3.5 1.2-.5 1l-.2.4c0 .9-.8 1-1.3 1.2 0 0-.2 0-.2.2 0 .1.1.3.3.3a1 1 0 0 0 .5-.2c.6-.4 1-.2 1.4.3-.7 0-1.1.5-1 .9 0 .6-.3.7-.6.9 0 .4.6.4.8.8-.5 0-.8 0-1.1.2-.2.2-.2.5-.1.5.6-.2 1 1 1.7.1.3-.5.6 0 1 .2.3 0 .2.3.1.5 0 .5-.2 1 .3 1.4.2.2 0 .7.6.8.4 0-.2.5-.1.8 0 .5-1.2 1.4-1.6 1.1-.4-.3-1-.3-1.4-.6-.1 1.2-.4 1.3-1.3.7-.2-.1-.4-.3-.6 0-.7.7-1-.5-1.5-.5-.3 0 .3-.4.3-.7-1 0-1 0-.8.8v.6c-.5-.4-1.2 0-1.5-.8a12.6 12.6 0 0 1-.4-1.4c-.6.2 0 .8-.4 1 0 0-.3.1-.2.3l.4.3c.9-.3.6.3.6.7a2.2 2.2 0 0 0 .3 1.8c.2.1.4.3.2.6-.2.2-.5.1-.6 0a6.3 6.3 0 0 1-1-.6l-.1.5c-.4 0-.7-.2-1.2-.1-.2 0-.2-.4-.2-.6 0-.3-.3-.5-.5-.4-.5.3 0 .3 0 .5.2.5.4 1-.3 1.3a1 1 0 0 0-.6.8c0 .2 0 .6-.3.6-.2 0-.5-.1-.6-.4-.1-.6-.4-.4-.7-.1a.8.8 0 0 1-1.4-.1c-.5-1-1-2-.3-3 .2-.2.4-.7 0-.9-.6-.4-.4-1.1-.6-1.8 0-.1 0-.3-.2-.4-1.2-.1-.5-.6-.1-1 .3-.2.2-.4 0-.7-.1-.3-.3-.3-.5-.2-.4.2-.5 0-.6-.3 0-.1 0-.4-.2-.4-1.2 0-.4-.6-.2-1 0-.1.2-.3 0-.4 0-.1-.2.2-.5 0 .5-.4.2-.7-.2-1-.2 0-.3-.2-.2-.3a1 1 0 0 0-.2-1.2c0-.1.2-.5-.2-.4-.2 0-.6 0-.7.3a.5.5 0 0 0 .2.7c.4.2.4.6.3.9a1 1 0 0 0 .1.8c-.4 0-.9 0-1 .5-.1.2-.3.2-.6 0a1.2 1.2 0 0 0-1.4-.3.8.8 0 0 1-1.2-.8c0-.3-.2-.3-.4-.4ZM74 108.4a29.4 29.4 0 0 1 6.7-7l2.7-2.2a4.6 4.6 0 0 0 1.4-2l1.4-3.4c.5-1.1.1-2.3.4-3.4 0-.2-.1-.2-.2-.2l-.4-.1c0-.5 0-1-.6-1.4.2-.4 0-.7-.3-1l-.1-.7c-.1-.3.5-.5 0-.7a1.3 1.3 0 0 0-1.4 0 34.8 34.8 0 0 0-4 3.2 19.7 19.7 0 0 1-2 1.9c-1.4 1-2.2 2.7-3 4.1-1.6 2.4-2.2 5.2-2.9 7.9a10.3 10.3 0 0 0 0 3l.3 5c.8-1 1.4-2 2-3Zm-1.5-14.6a5 5 0 0 0 1.2-1.5 15.5 15.5 0 0 1 2.8-3c2-1.9 4.2-3.6 6.3-5.4.6-.5 0-.9 0-1.3-.7.4-1 1.3-2 1.2 0-.6.5-1.2.2-2-.2 0-.2.3-.3.4-.2.3-.4.5-.7 0-.1-.3-.4-.5-.8-.2 0 .1-.1.5-.4.3a1 1 0 0 1-.3-.6 3.3 3.3 0 0 1 0-.8c.1-.4 0-.5-.3-.4-.7.3-.8-.1-1-.7-2.5 4.3-3.6 9.2-4.7 14Zm52.4-11a1 1 0 0 0 1-.2c.4-.4-.4-.6-.2-1h.2c.3.3.6.6 1 .4.2-.2 0-.7 0-1-.3-.6 0-.6.5-.6s1 0 1-.7c0-.2.2-.3.5-.3.5-.1.6-.2.3-.6v-.3c.2-.2.4-.4.2-.4-.9-.3-.4-.7-.2-1.1.1-.3-.2-.4-.4-.4-.3 0-.7-.4-.9.2-.1.4-.3.4-.6.3-.4-.3-.7-.1-1 0a5.2 5.2 0 0 0-1.8.7c-.2.1-.4-.1-.5-.2-.3-.1-.4-.5-.8-.3a2.3 2.3 0 0 0-1 1.2c0 .2.3.3.5.3.7.1 1 .5.5 1.2a1.8 1.8 0 0 1-.4.6.7.7 0 0 0-.4.8c.2.5.4.1.6 0 .2 0 .2.3.2.4 0 .3.5.5 0 .8-.4.3.2.5.1.8.3 0 .5.5.8.2.1 0 0-.1 0-.2 0-1.1 0-1.2 1.2-1.4 0 .4-.5.4-.4.7ZM64.6 99.4l-2-5.1c-.1-.6-.6-.9-1-1.3-.4-.6-.8-.2-1.3-.2-.3 0-.8-.3-1 .2a1.7 1.7 0 0 0 .1 1.6c1.4 3.3 3.7 6.2 5.2 9.5.1-1.5.6-3 0-4.7ZM113 50.6c-.2.2-.5.3-.7.2-.2-.2 0-.5 0-.7a3.6 3.6 0 0 1 .3-.4c.4-.7 0-1.3-.8-1.8-.6-.5-1-.1-1.5 0 .2.3.4.5.2 1-.2.6.2 1.2.3 1.9.1.3 0 .5-.3.6-.5 0-.5.6-.9.9-.2.1 0 .5.3.5.2 0 .5.4.8 0 0-.1 0-.5.1-.2.4.4.7 0 1 0a11.1 11.1 0 0 0 3-1.8 1.2 1.2 0 0 0-.3-2 .7.7 0 0 0-1 .3c-.3.5.2.5.4.6a1.1 1.1 0 0 0 .3.2c-.6 0-.9.5-1.2.7ZM47.7 91.4c.2.4.8.6.2 1a.2.2 0 0 0 0 .2c.4.3.6.6-.1.7-.4 0-.4.8-1 .5-.2-.2-.2 0-.2.1 0 .2 0 .2.2.2.4 0 1 .5 1.3-.4.3-.7 1 0 1 .3.4 1 1.1.6 1.7.7.4 0 .8 0 1.2.2a.2.2 0 0 0 .1 0c.5 0 1 0 1.1-.6.3.5.7.5 1.3.2-2.2-1.3-4-3.4-6.8-3Zm43.2 0c.2.3-.1.3-.3.2-.6-.5-1-.6-1 .4 0 .4-.6.7-.2 1.1v.2c-1 0-.9.8-1.3 1.3a2.8 2.8 0 0 1-.3.3c-.1 0-.2.1-.4 0v-.4c.1 0 .2 0 .2-.2.2-.1.6-.3.3-.5-.3-.3-.4.1-.6.3a5.6 5.6 0 0 0-.3 1s-.2.3 0 .2c.4 0 .4 0 .4.3s-.2.6-.5.5c-.4-.2-.4 0-.5.3a.7.7 0 0 0 .3.9c.1.2.3 0 .5 0a2.2 2.2 0 0 0 2-1.5l.6-1.9c0-.2 0-.5.3-.5.5 0 .2-.3.2-.5-.1-.3-.2-.6 0-.7.4-.2.5.1.6.3 0 .2.1.3.3.2a1.7 1.7 0 0 0 1-1.8c-.1-.4-.4-.2-.7-.2-.4 0-1-.1-.6.8Zm1.1 14.1c0 .8.7.5.8.5.7-.8 1 .8 1.6.4v.3c-.3.2-.3.4 0 .6a.2.2 0 0 1 .1.3c-.6.7.1.6.4.7h.7c.2.1.4.3.6-.1.2-.3.2-.6-.1-.8l-.2-.2c.1-.3.4 0 .5-.2.2-.6.4-1 1.2-.5.2.3.6-.5.8-.8a.6.6 0 0 0 0-.8.8.8 0 0 0-1 .1c-.1.1 0 .5-.3.2-.6-.8-.9 0-1.2.3-.2.2-.3.7-.6.5a1 1 0 0 1-.4-1c.1-.3-.2-.2-.4-.2-1 .2-2 0-2.9.5.1.2.5 0 .4.2ZM14.3 46c-.3 0 0-.4.1-.6.2-.2.6-.2.4-.6a.7.7 0 0 0-1-.2c-.3.3-.4.3-.6 0-.2-.2-.5-.4-.8-.2a1 1 0 0 0-.4 1 .5.5 0 0 1-.3.7c-.3.2-.2.6 0 1 .1.4.3.1.6 0l.4.1c0 .2.2.5 0 .6-.4.4 0 .5.1.7.2.4.5.3.7 0 .4-.3.5 0 .7.3.1.2.3.6.6.4.3-.1.2-.4.2-.7l-.1-1.2c0-.5.1-1-.6-1.3Zm104-.1c-.1-.5-.4-1-.5-1.7 0-.1 0-.3-.3-.3a.6.6 0 0 0-.4.3c-.2.4-.3 1-1 1a.2.2 0 0 0-.1.3.4.4 0 0 1 0 .5c-.7.9 0 1.4.5 1.9a1.2 1.2 0 0 0 1.7 0c.6-.4 1-.7 1-1.5-.5.1-1 .5-1-.5Zm-12 46c.3.2.4-.2.4-.6a1.2 1.2 0 0 0-1.4-1c-.9.2-1-.7-1.5-1-.2 0-.3-.4-.6-.3-.2.2-.8.2-.6.4.3.3 0 1.1.7 1 .3 0 .3 0 .3.3 0 .6 0 1.2.9 1.1.5 0 .2.8.8.9.3-.3.3-.9 1-.7Zm25.9-36.6c0 .2.5.2.5.5-.3 0-.5-.3-.9-.2-.2.1-.5.1-.4.4a.3.3 0 0 0 .4.3c.4 0 .5.2.5.6 0 .9 1 .5 1.3 1.2-.4-.8.4-1.1.5-1.6a4.2 4.2 0 0 0 .3-1c0-.3 0-.5-.3-.3-.6.3-.6-.1-.5-.5.3-.6.3-.6-.6-1 .7 1.3-.7 1-.8 1.6ZM21.6 39.5c-.4.1-.8.1-1 .5 0 .1-.1.3-.3.2a.4.4 0 0 1-.2-.5l.3-1a1 1 0 0 0-.4-1.1c-.3-.2-.5 0-.7.2-.3.2-.8-.3-1 .3.6.3 1 .5.5 1.3-.2.3.5.8 1 1.2 1 .6 1.7-.1 2.6 0-.3-.5-1.7.3-.8-1.1ZM51 89.8c.1 0 0 0 0 .4a1 1 0 0 0 .4.9l3.8 2.4a1.7 1.7 0 0 0-.9-1.5 18.6 18.6 0 0 0-1.9-1.2.6.6 0 0 1-.4-.5c-.1-1.5-.4-1.6-1.6-.8.1.2.4.2.6.3ZM86.5 102c1 .7 1.9 0 2.7 0 .3 0 .6 0 .6-.4a.6.6 0 0 0-.5-.6c-1.6-.4-3.1-.4-4.4 1 .6.4 1.2-.4 1.6 0Zm24-7.8c.3-.3.6-.4.8 0a.6.6 0 0 0 .6.4c.3 0 .5.1.3.5 0 .1-.2.3 0 .3.3 0 .3 0 .3-.2.1-.6.5-1.3-.2-1.7a2.5 2.5 0 0 0-2.6-.5c-.5.2-.4.7-.2 1.1a6.4 6.4 0 0 0 .7 1 1.6 1.6 0 0 1 .4-1ZM37.3 26a.2.2 0 0 1 .2.3c-.5 1 0 1.4 1 1.6 0-.3 0-.5.2-.8A.7.7 0 0 0 38 26a.9.9 0 0 1-.8-1c0-.3-.1-.5-.5-.2 0 .1 0 .2-.2.2-1.1.2-1.3.5-1.2 1.9a2.6 2.6 0 0 1 1.8-.8ZM103 40.3c0-.2-.3 0-.4 0l-.1.2c-1.3 1.2-1.3 1.2-.5 3 0-.5.2-.6.6-.7.6-.1 1-.7 1.3-1.2a1 1 0 0 0 0-.1c-1-.3 0-.8 0-1.4-.3.2-.5.7-.9.2ZM62.7 22.8c.8 0 .2-.5 0-.9h.4c.3 0 .6 0 .7-.3.1-.2-.2-.3-.4-.5-.3-.5.3-.8.4-1.2 0 0 .2 0 .1-.2a1.6 1.6 0 0 0-1.7.7c-.1.2-.3.4-.1.6a.6.6 0 0 1 0 .2c-.6.3-.2 1.2-1 1.4a2 2 0 0 0 1.6.2Zm26 82c.6 0 1 .2.6 1-.2.3.7 1.7 1.1 1.8.3 0 .5-.2.4-.3-.2-.5.2-1 0-1.4A3.6 3.6 0 0 0 88 104c-.1 0-.4-.1-.4.2a1 1 0 0 0 1 .7Zm6.7 6c.4.3.4 1 1 1.1.1 0 .4.2.5 0a.3.3 0 0 0-.4-.5c-.6 0-.5-.2-.4-.6.1-.5-.2-.7-.6-.5-.2.1-.4.1-.5-.1-.1-.2-.3-.5 0-.7.2 0 .3-.2 0-.3-.5-.3-.8-1-1.6-.9-.3.1-.4-.7-.7 0-.1.3.3.4.6.6l.8.4c.2 0 .4.1.3.2-.7 1 .7 1.2.7 2Zm5.5-69.4a2.7 2.7 0 0 0-2.3 1.4c-.1.3-.1.5.3.5.2.1.9-.5.8.4a3.4 3.4 0 0 0 1.3-.3c0-.4.3-.4.4-.7-1.4 0-.6-.8-.5-1.3Zm-13.3 33c0 .3-.1.5.1.6.2.2.3 0 .5-.2s.2-.2.4.1v.2a2.6 2.6 0 0 0 1.5-.6.8.8 0 0 0 .2-.9c-.2-.5-.6-.4-1-.5a3 3 0 0 0-1.7 1.3Zm29.9 31c.2.2.4.3.7 0a.4.4 0 0 0 0-.6c-.4-.3-.3-.4 0-.6.5-.3.6-.6.2-1a1.6 1.6 0 0 0-.2-.2c-.4.6-1.2.5-1.5 1a2 2 0 0 1-.5.6.4.4 0 0 0-.2.6c.1.2.4.2.6 0a.9.9 0 0 0 .2-.2l.7.5Zm12.6 8.2c-.2-.3-.6-.7-.9-.5a.5.5 0 0 0 .1.9v.4c.3.5.1 1 .3 1.6 0 .4.2.7.6.6.5 0 .3-.4.1-.7a.6.6 0 0 1 0-.2c.8-.2 0-1 .6-1.4.2-.1.1-.4-.2-.4-.4.4-.5 0-.6-.3Zm-26.2-66.4h.3a1 1 0 0 0 .4-1c0-.1-.7-.5 0-.4.2 0 .2-.2.1-.3-.2-.4-.4-.9.1-1.4.1 0 0-.2-.2-.2-.3 0-.6.1-.6.3a.9.9 0 0 1-1 1c-.2 0 0 .2 0 .5-.6 1 .9.8 1 1.5Zm11.2 60.8c.5 0 .8-.2.7-.7-.1-.5.2-.5.4-.6-1-.8-2.1-.1-3.2 0 .8.2 1 1.4 2 1.3Zm16.1-20.7a.6.6 0 0 0 0 .6c0 .4.3 0 .5 0a8 8 0 0 0 1.5-.3c.4 0 .6-.6 1-.8.2-.1 0-.3-.3-.3a2.6 2.6 0 0 0-.8.2c-.5.2-.8.2-.9-.5a4.6 4.6 0 0 0-1 1ZM57.7 25c.4.1.8.2.9-.2 0-.4-.4-.6-.8-.7a1.7 1.7 0 0 1-.4 0c-.2 0-.5-.2-.6 0a.8.8 0 0 0 .1 1 1.2 1.2 0 0 1 .6 1.5c0 .2.4.4.2 1 .9-1.1-.1-1.8 0-2.6Zm48.6 65a3 3 0 0 0 2.6.5c.2 0 .3-.2.3-.4s0-.4-.3-.4a.8.8 0 0 1-.8-.3c-.6.6-1.3-.2-1.9.2a.3.3 0 0 0-.1.3l.2.2ZM13 57a.5.5 0 0 1 .2 0c-.2 1 1 .3 1 1 0 0 .5-.1.7-.4a1.1 1.1 0 0 0 .2-.8c-.1-.3-.5-.3-.7-.2-.5.2-1 0-1.4 0-.2-.2.3-.3 0-.6-.3.2-.7.1-1 .6.4 0 .6.4 1 .4ZM92.3 101c-.2-.2-.4-.2-.7-.1-.2 0-.2.2-.2.3a1.3 1.3 0 0 1-1.6 1.1 2.2 2.2 0 0 0-1.5.1 6.8 6.8 0 0 0 3 .2c.3 0 .6 0 .5-.7 0-.9.5-.1.8-.2a4.9 4.9 0 0 0-.3-.7ZM89 71.5c-.3-.4 0-.7.2-1 .2-.1.5-.1.4-.4 0-.1-.2-.3-.3-.2-.2 0-.6 0-.6.4 0 .2-.2.3-.2.3.2.7-.1 1-.7 1.1v.4a4.2 4.2 0 0 0 .5.4c1.3 0 1.3 0 .7-1Zm-3-.6-1 2c.6.2.3 1.3 1.3 1.1.2-1-.6-2-.3-3Z"/><path fill="#73bf44" d="M115.2 113.8c-.5.3-.6 1-1.3 1.2 0 .3-.1.6-.5.7-.4 0-.3.4-.4.7l.2.2c.4 0 .5 0 .6-.4 0-.1 0-.2.3-.2l.2.2c-.3.8.3 1.2.5 1.8a.4.4 0 0 1-.1.4c-.2 0-.4-.5-.7-.3-.2.3.1.6.2.7a2.2 2.2 0 0 1 .5 2 .5.5 0 0 0 .1.4l.4-.2c.5-.3.7-1.2 1.7-.5-.2-.4-.2-.7 0-1 .2-.1.4-.5.1-.7a.5.5 0 0 1 0-1c.7-.3 1.1-1.2 2-.9.2.1.4 0 .4 0a.8.8 0 0 1 .8-.6c.2 0 .3-.2.1-.3-.2-.2-.4-.4 0-.7.1-.1 0-.3-.2-.4-1-.3-1.2-.5-1-1.6a1 1 0 0 0-.1-.5 1 1 0 0 0-.6 1c0 .5-.1.7-.6.3-.3-.3-.6-.2-.5 0 0 .5-.1.7-.3 1 0 0 .2.5-.3.2-.4-.1-.2-.3-.1-.5s.2-.5-.1-.6c-.5 0-.8-.5-1.3-.4ZM83.4 109.3c.3.4.7.6.4 1.1 0 .1 0 .4.1.3.5-.2 1 .7 1.4 0 .2-.2.6 0 .9.3.1.3.4.3.6 0a.8.8 0 0 1 .8-.3c.2 0 .3-.2.2-.4-.2-.2-.1-.4 0-.6.2 0 .3-.3.1-.3a1.3 1.3 0 0 1-.9-.7c-.3.3-.9-.1-1.2.3-.3.4-.5.4-.8 0-.5-.5-.8-.4-1 .2-.1.3-.3 0-.6.1ZM126 125c0-.3.2-.4.4-.5 0-.3.3-.5 0-.7-.2-.2-.5.1-.5.3a7 7 0 0 0-.5 1.5c-.2.8.6.3.9.6-.6.8-.6 1 0 1.3.7.3.7-.6 1.2-.6.2 0 0-.3-.1-.5a.2.2 0 0 1 0-.3c.2-.3.3-.7 0-1a1 1 0 0 0-1.3-.1h-.1ZM107.3 36.5c0 .6.3 1 1 .8.2-.1.5.1.8 0 .5-.5 0-.6-.2-.8-.1-.2-.5-.3-.3-.6a.4.4 0 0 1 .7-.2c.1 0 .3 0 .4-.2a3.5 3.5 0 0 0-1-1.5c-.1 0-.3.1-.2.3 0 .6-.5 1-.5 1.5a.8.8 0 0 1-.7.7ZM141.2 91.4c-.8-.2-1.4-.6-2-.3 0 .2 0 .2.2.3.6.3-.5.6 0 1 .2.2.8.3.4.9a4.8 4.8 0 0 0-.5 1.2c0 .3 0 .5.2.6a.3.3 0 0 0 .4-.4c-.2-1 .7-1.3.9-2 0-.2.2-.3 0-.5-.4-.4-.2-.7.4-.8ZM50 101c.5.1.4-.2.4-.5l-.2-1c.2-.8.2-.8-.6-.7-.7 0 0 .8-.6 1-.1.1.7 1.2 1 1.2ZM83.6 87.8c-.2.3-.1.5-.1.7 0 .3.4.4 0 .7-.2.3-.4-.1-.6-.2a4 4 0 0 0 .3 2c.1.2.3.1.5.2a.3.3 0 0 0 .3-.4c-.2-.6.5-1.1.2-1.8a2.7 2.7 0 0 0-.6-1.2ZM88.1 77.7c7.7 0 7.7-11.9 0-11.9-7.6 0-7.6 12 0 12ZM107.5 98.9c9.6 0 9.6-15 0-15s-9.6 15 0 15Z"/><path fill="#73bf44" d="M114.6 110c9.6 0 9.6-14.8 0-14.8-9.5 0-9.5 14.9 0 14.9ZM49.1 95.2c9 0 9-14 0-14s-9 14 0 14Z"/><path fill="#73bf44" d="M51.6 95.4c9 0 9-14 0-14-8.9 0-9 14 0 14ZM56.1 35.5c9 0 9-14 0-14s-9 14 0 14Z"/><path fill="#73bf44" d="M66.5 32.7c8.9 0 8.9-14 0-14-9 0-9 14 0 14ZM99.5 51.7c8.9 0 8.9-13.9 0-13.9-9 0-9 14 0 14Z"/><path fill="#73bf44" d="M110.5 60.1c9 0 9-13.9 0-13.9s-9 14 0 14Z"/><path fill="#73bf44" d="M115.5 57c9 0 9-14 0-14s-9 14 0 14ZM123.8 84.5c9 0 9-13.9 0-13.9-8.9 0-9 14 0 14Z"/><path fill="#73bf44" d="M126.9 80.8c9 0 9-14 0-14s-9 14 0 14Z"/><path fill="#73bf44" d="M127.2 80.3c8.9 0 9-13.9 0-13.9s-9 14 0 14Z"/><path fill="#73bf44" d="M127.2 80.4c9 0 9-13.8 0-13.8s-9 13.8 0 13.8ZM131 117.7c4.4 0 4.4-7 0-7-4.5 0-4.5 7 0 7ZM92.5 95c4.5 0 4.5-6.9 0-6.9s-4.5 7 0 7Z"/><path fill="#73bf44" d="M89.3 99.6c4.5 0 4.5-7 0-7s-4.5 7 0 7Z"/></svg>