<svg xmlns="http://www.w3.org/2000/svg" viewBox="0 0 150 150"><path fill="#73bf44" d="M70.2 115.5s2.8-19.3 3.6-29.2c.8-9.8.3-9.1 2.1-8.2a3.2 3.2 0 0 0-3-2.5c-2.7-.2-2.2 33.2-2.7 39.9Z"/><path fill="#73bf44" d="M73.3 75.9s-2.4-1.8-3.2 0c-.8 1.8-8.8 24.8-13.5 34.3 0 0 4-13.6 5.4-19.6a94.8 94.8 0 0 1 4.8-14.3c1.3-3 4-3.5 6.5-1.4 0 0 1.6 1.9 0 1Z"/><path fill="#73bf44" d="M69.4 74s-1.7-1.7-3 .1c-1.2 1.8-12 24.1-17.8 32.9 0 0 4.7-13 8.4-20.9 3.7-7.8 6.2-14.8 10.8-13.9 0 0 2 .4 2.1 1.8.1 1.5-.5 0-.5 0Z"/><path fill="#73bf44" d="M66.6 72.2A3.8 3.8 0 0 0 63 71c-2.2.5-15.4 12.2-21.9 32.6 0 0 6.4-9.1 10.9-16 4.4-6.8 10.3-16.4 14.2-15.3l.4.3Z"/><path fill="#73bf44" d="M64 71s-2-2.6-6.3-1.4a60.6 60.6 0 0 0-27.7 29S39 88 44.6 82.5C50.1 77 58.5 68 63.4 71.1Z"/><path fill="#73bf44" d="M60.5 69.5s-1-2.2-5.1-1.4a60 60 0 0 0-35.6 25.8s6.4-5.5 19.9-15.6c13.4-10.1 17-10 20.4-8.6Z"/><path fill="#73bf44" d="M57.3 68.1s-2.7-2.4-8-1.4C44.3 67.7 19 75.9 6 92.9c0 0 5.2-2.8 14.1-8.4 9-5.5 29.9-19.7 36-16Z"/><path fill="#73bf44" d="M51 66.8s-18.6-10-49 18.7c0 0 11.3-5.6 21.4-11.6 10.2-6 21.5-7.5 25-6.5Z"/><path fill="#73bf44" d="M41.3 65.7S26.4 58.4 0 74.5a170.7 170.7 0 0 0 18.2-5.2c12.4-4.1 19.5-4 21.2-3.2Z"/><path fill="#73bf44" d="M32.7 64.4s-16-4.2-27.2.7c0 0 11 .2 23.6-.3ZM76.6 107.7s-3.5-28.9-1-30.8c0 0 2.3-1.2 2.8 3.5v.1c.6 5-1.4-1.6-1.4 1.1-.1 2.7-.5 22.6-.4 26.1Z"/><path fill="#73bf44" d="M86.6 114.7s-1-24-9.6-33.9l1.2-.1s4 5.4 7 17 2 17.6 2 17.6Z"/><path fill="#73bf44" d="M84.3 133.6h5.5s-1.4-7.8.6-12.6l-.4-.7-.5.6a24.4 24.4 0 0 1 .4-5.3c.4-3.3-3-1.3-3-1.3s-.8-.3-.2 3c.5 3-.4 8.2-.4 8.2l-.3-1.6-.7 1s1.2 5.5-1 8.7ZM80.6 80.7S90 83 95 88a93 93 0 0 1-14.4-7.4Z"/><path fill="#73bf44" d="M94.7 87.3s-6.5-8.6-14.4-7.8a13.2 13.2 0 0 1 9.7 1.6c5 3 5.2 6.3 5.2 6.3Z"/><path fill="#73bf44" d="M95.7 85.8s-5.8-10-15-9.7c0 0 7.3-.6 12.7 4a12.3 12.3 0 0 1 3 4.7ZM82.5 84.8s5.2-.4 12 3.9l-.2 1a24.5 24.5 0 0 0-11.8-5Z"/><path fill="#73bf44" d="M84.5 87A15 15 0 0 1 94 90l-.4 1.5s-2.8-3.6-9-4.6ZM150 81.6a67.2 67.2 0 0 0-24.1-5.5s7.6 2.7 24.1 5.5Z"/><path fill="#73bf44" d="M148 85.8s-4.7-4.7-16.8-8.2a172.7 172.7 0 0 0 16.9 8.2ZM145.1 76.9s-11-1.2-18.5-.7a68.7 68.7 0 0 0 18.5.7Z"/><path fill="#73bf44" d="M138.7 87s-2.8-7.4-7.6-9.7a62.5 62.5 0 0 0 7.6 9.7ZM138.2 73.3a20.4 20.4 0 0 0-12.6 2.8 84.2 84.2 0 0 0 12.6-2.8ZM98.5 62.7s2.8 4.5 2.3 17l-1 .9S97.7 70 98.6 62.7ZM85 74s7.4-.8 12.6 8.8l-1 1.7S93.6 76.2 85 74Z"/><path fill="#73bf44" d="M97.6 82.8s-3-9-8.5-10.6c0 0 6.2-.6 9.5 9.4ZM113.3 63.3s-5.1.8-7 13.1l1-.3a66 66 0 0 1 6-12.8ZM116 64.7s-3.9 1-7 10.8h1.2s3-7.9 5.8-10.8ZM106 63.8s1.1 3.5-1.1 13.2l-1.3 1s0-8.2 2.4-14.2ZM102.2 64a44.5 44.5 0 0 1 .4 14.3l-1 .9s-1-9 .6-15.1Z"/><path fill="#73bf44" d="M95.3 69s2.9 1.4 4.4 12l-.8.4A38.8 38.8 0 0 1 95.3 69ZM131 68.2s-4.4 1-9.2 7a9.3 9.3 0 0 0 1.5.3 68 68 0 0 0 7.7-7.3ZM124.3 67s-3.8 2-5.8 7.7l1 .2a43.8 43.8 0 0 0 4.8-7.8ZM126.7 67a21.5 21.5 0 0 0-6.4 8l1.1.2a60.7 60.7 0 0 0 5.3-8.2ZM121.6 65.9s-3.3 2.3-5.5 8.7l1.2.1a50.7 50.7 0 0 0 4.3-8.8ZM132 70.7s-3.8.9-7.7 5.1l1 .2a46 46 0 0 0 6.7-5.3ZM118.7 64.8a22.5 22.5 0 0 0-4.7 10.1l1.2-.2a52.5 52.5 0 0 0 3.5-10ZM116 65.3s-2.6 3-4.6 9.4h1.4a74.8 74.8 0 0 0 3.3-9.4ZM132.8 82a10.8 10.8 0 0 0-2.6-5l-1.6-.2a53 53 0 0 0 4.2 5.2ZM129 79.6s-.1-1.3-2.2-3.4l-1.5-.1 3.7 3.5Z"/><path fill="#73bf44" d="M125.8 78.1a5.5 5.5 0 0 0-2.6-2.7h-1.8a28.4 28.4 0 0 0 4.4 2.7ZM122.9 77.2s-.6-1.2-3.7-2.4h-1.4a15.7 15.7 0 0 0 5 2.4ZM118.6 76.2a7.6 7.6 0 0 0-4-1.6l-1.3.2a24.8 24.8 0 0 0 5.3 1.4ZM113.7 76.5a7.2 7.2 0 0 0-3.3-1.3l-1.5.4a16.7 16.7 0 0 0 4.8.9ZM110.2 77.7a6.3 6.3 0 0 0-3.4-1.3l-1.4.7a33.9 33.9 0 0 0 4.8.6ZM107.4 78.5a10.3 10.3 0 0 0-3.6-.7l-1 1a46.3 46.3 0 0 0 4.6-.3ZM100.8 80s.6-.3 2.5.2a14 14 0 0 1-3.2.9ZM100.4 82.5a2.8 2.8 0 0 0-1.6-.4l-.7.9a5.5 5.5 0 0 0 2.3-.5Z"/><path fill="#73bf44" d="M132.3 77.8s-15.6-5.5-23.8-2.4c-8.2 3.2-13.6 7-16.3 19.9-2.7 12.9-3.7 20.7-3.7 20.7h1.3s1.9-20.2 5.4-28a23 23 0 0 1 16.2-12.9 24.7 24.7 0 0 1 8.3 0c5 .8 12.6 2.7 12.6 2.7Z"/><path fill="#73bf44" d="M87.7 88.6s4 .9 5.7 3.5l-.2 1.4a13.4 13.4 0 0 0-5.5-5ZM115.7 75.6S105 65.6 100 60.3c-5-5.4-4.4-5.2-5-3.8a2.4 2.4 0 0 1 .5-3c1.5-1.3 16.7 18.5 20 22.1Z"/><path fill="#73bf44" d="M95.5 54s.6-2.2 2-1.5c1.2.7 16.5 10.4 23.7 13.7 0 0-8.6-6-12.3-8.8a71.4 71.4 0 0 0-9.4-6.2c-2.1-1.1-3.9-.2-4.5 2.2 0 0 0 1.8.5.6Z"/><path fill="#73bf44" d="M96.9 51s.2-1.7 1.8-1.2c1.5.4 18.2 8.5 25.6 10.9 0 0-8.8-5.4-14.5-8.3-5.8-2.8-10.5-5.8-12.7-3.1 0 0-1 1.1-.4 2 .5 1 .2-.3.2-.3Z"/><path fill="#73bf44" d="M97.7 48.7a2.8 2.8 0 0 1 1.6-2.4c1.6-.7 14.7 0 27.9 9 0 0-8-2.4-13.7-4.4-5.8-1.9-13.6-4.8-15.4-2.4l-.1.4Z"/><path fill="#73bf44" d="M98.7 46.8s0-2.4 3-3.7c3-1.3 18.2-2.3 29.6 4 0 0-10.2-1.9-16-2.5-5.7-.7-14.8-2-16.1 2Z"/><path fill="#73bf44" d="M100 44.3s-.4-1.7 2.4-3.2c2.8-1.5 17-7 32.7-1.3 0 0-6.3-.3-18.8 0-12.6.3-14.6 2-16 4.5Z"/><path fill="#73bf44" d="M101.3 42s.4-2.6 4-4.4a64 64 0 0 1 37.4-4.9s-4.3.8-12 1.7c-7.9.9-26.6 2.3-28.5 7.2Z"/><path fill="#73bf44" d="M104.3 38.4s6.3-14.4 37.3-11.8c0 0-9.2 2-17.9 3.2-8.7 1.2-16 5.5-17.5 7.7Z"/><path fill="#73bf44" d="M109.5 33.2s5.3-11 28.2-14a128.1 128.1 0 0 1-13 5.5c-9.2 3.3-13.3 6.7-14 8Z"/><path fill="#73bf44" d="M113.9 28.5s7.4-9.8 16.2-12.1c0 0-6.4 5.1-13.9 10.7ZM108.3 74S97 55.7 94.7 55.7c0 0-2 .4 0 3.4 2 3.2 0-1.5 1.3 0s10.8 13 12.3 15Z"/><path fill="#73bf44" d="M95.4 55.3s-8.2 17.2-8 61.3l1.8-.4s-2.6-32.4 6.5-60ZM18.3 38.6a95.8 95.8 0 0 1 34.3 8s-11.4-1.3-34.3-8Z"/><path fill="#73bf44" d="M18.1 45.2s9-3 26.7.1c0 0-9.3.7-26.7 0ZM27.5 35.6S42.4 41 51.7 46.4a98 98 0 0 1-24.2-10.8Z"/><path fill="#73bf44" d="M29.4 52.7S37.6 44.8 45 45c0 0-8.8 5.5-15.7 7.7ZM38.6 35.3A29 29 0 0 1 53 46.8a120.2 120.2 0 0 1-14.4-11.5ZM96 46.6s-6.4 4-13.4 20.2l.5 1.8s9.4-12 13-22ZM106.2 69.3s-8.9-5.5-21.5 3.6l.2 2.8s9-8.8 21.3-6.4Z"/><path fill="#73bf44" d="M84.7 73s9.4-9.7 17.6-8.4c0 0-7.7-4.7-18.2 6ZM76.6 38.1s6.1 4.2.9 21.1l-1-1a93.4 93.4 0 0 0 .1-20ZM72.4 38.2s4.3 3.7 2.1 18.1l-1.4-.7s1-11.9-.7-17.4ZM85.8 43.3s-3.6 3.8-6.9 17.6l1.1 2s5.1-10.4 5.8-19.6ZM90.4 46a63.3 63.3 0 0 0-9.3 18l.7 1.8s6.8-10.9 8.6-19.8Z"/><path fill="#73bf44" d="M96.3 56.6s-4.6 0-13.2 12.6l.8 1.1s7.9-6 12.4-13.7ZM51 33.3s5 4 7.4 14.6a14.1 14.1 0 0 1-2.1-.4c.2 0-3.4-6.6-5.2-14.2ZM60.2 36s3.8 4.8 2.7 13.4l-1.4-.3a62.7 62.7 0 0 1-1.3-13ZM57.3 34.5a30.7 30.7 0 0 1 3.1 14.2l-1.6-.4a87 87 0 0 1-1.5-13.8ZM64.5 36.2s2.8 5 1.6 14.6l-1.7-.6a72.1 72.1 0 0 1 .1-14ZM48.1 36s4.3 3.4 6.6 11.2l-1.2-.3a65.1 65.1 0 0 1-5.4-11ZM68.9 36.6a32 32 0 0 1-.3 16l-1.4-1s0-8.8 1.7-15ZM72 38.9s1.5 5.5 0 15l-1.7-.8a106.4 106.4 0 0 1 1.6-14.2ZM40 50s2.8-3.8 6.5-5l2.1.8s-1.4 1-8.6 4.1ZM46.5 49.2s1-1.7 4.8-3l2 .8-6.8 2.2Z"/><path fill="#73bf44" d="M51.5 49.3a7.9 7.9 0 0 1 5-2l2.2 1.2a40.4 40.4 0 0 1-7.2.8ZM55.8 50s1.4-1.3 6.2-.8l1.9.8a22.3 22.3 0 0 1-8.1 0ZM61.9 51.2a10.8 10.8 0 0 1 6.2.6l1.4 1a35.4 35.4 0 0 1-7.6-1.6ZM68 54.7a10.3 10.3 0 0 1 5 .5l1.6 1.4a23.7 23.7 0 0 1-6.7-1.9ZM71.7 58.4a9 9 0 0 1 5.1.6l1.5 1.7a48 48 0 0 1-6.6-2.3ZM74.7 61.3a14.7 14.7 0 0 1 5.1 1.3l.7 2a64.8 64.8 0 0 1-5.8-3.3ZM82.3 67.2s-.5-.6-3.4-1.2a20 20 0 0 0 3.6 3.1ZM81.3 70.8a4 4 0 0 1 2.3.5l.4 1.5a8 8 0 0 1-2.7-2Z"/><path fill="#73bf44" d="M75.3 56.6c5.3 5.7 9 11 10 18.7a9.3 9.3 0 0 0-1 .9 33.7 33.7 0 0 0-12.6-21.8 35.3 35.3 0 0 0-10.6-5.1c-6.9-2.2-17.8-4.5-17.8-4.5s23.5 2.7 32 11.8Z"/><path fill="#73bf44" d="M83.9 72.5S86 84.2 87 110l1.2 2.3s-1-28.6-3.5-39.9Z"/><path fill="#73bf44" d="M87 107.8a1 1 0 0 0 0-2 1 1 0 0 0 0 2Z"/><path fill="#73bf44" d="M87.2 109a1 1 0 0 0 0-2 1 1 0 0 0 0 2Z"/><path fill="#73bf44" d="M87.2 110a1 1 0 0 0 0-2 1 1 0 0 0 0 2Z"/><path fill="#73bf44" d="M87.5 111.2a1 1 0 0 0 0-2 1 1 0 0 0 0 2Z"/><path fill="#73bf44" d="M87.6 112a1 1 0 0 0 0-2 1 1 0 0 0 0 2Z"/><path fill="#73bf44" d="M87.6 112.6a1 1 0 0 0 0-2 1 1 0 0 0 0 2Z"/><path fill="#73bf44" d="M87.6 113.7a1 1 0 0 0 0-2 1 1 0 0 0 0 2Z"/><path fill="#73bf44" d="M87.6 114.9a1 1 0 0 0 0-2 1 1 0 0 0 0 2Z"/><path fill="#73bf44" d="M87.6 115.9a1 1 0 0 0 0-2 1 1 0 0 0 0 2Z"/><path fill="#73bf44" d="M87.6 117.3a1 1 0 0 0 0-2 1 1 0 0 0 0 2Z"/><path fill="#73bf44" d="M87.8 118.5a1 1 0 0 0 0-2 1 1 0 0 0 0 2ZM88 114.5a1 1 0 0 0 0-2 1 1 0 0 0 0 2Z"/><path fill="#73bf44" d="M87.8 113.5a1 1 0 0 0 0-2 1 1 0 0 0 0 2Z"/><path fill="#73bf44" d="M87.8 112.8a1 1 0 0 0 0-2 1 1 0 0 0 0 2Z"/><path fill="#73bf44" d="M88 111.9a1 1 0 0 0 0-2 1 1 0 0 0 0 2Z"/><path fill="#73bf44" d="M87.6 111a1 1 0 0 0 0-2 1 1 0 0 0 0 2Z"/><path fill="#73bf44" d="M87.6 109.8a1 1 0 0 0 0-2 1 1 0 0 0 0 2Z"/><path fill="#73bf44" d="M87.5 108.9a1 1 0 0 0 0-2 1 1 0 0 0 0 2Z"/></svg>