<svg xmlns="http://www.w3.org/2000/svg" viewBox="0 0 150 150"><path fill="#73bf44" d="M82.4 150s-.6-8.2 2-9.8a7.8 7.8 0 0 0 3.3-4.5l-1-.2s-1 2.5-3 3.2c-2 .6.5-4.4.5-4.4l-3-.6a69.7 69.7 0 0 0-.9 7.6 74.2 74.2 0 0 0 0 8.7ZM77.4 150s0-8-3.5-11.8l1.3-1s1.8 2.7 2.5 1.8c.7-1 1-4 1-4H80a13.6 13.6 0 0 1-1.4 5.7c-1.4 2.6.5 4.2.6 9.3ZM70.6 138.4a22.5 22.5 0 0 1 3.9 11.6h1.8s-.6-8.3-4-12.6Z"/><path fill="#73bf44" d="M65.1 139.2s4 2.5 4.5 10.8h2.6l.2-12h-2l-.3 4.9c-.1 1.6-2.4-5-2.4-5Z"/><path fill="#73bf44" d="M24.6 85.1a10.6 10.6 0 0 1 .3-4.9 18.5 18.5 0 0 1-3.6-.5A19.9 19.9 0 0 1 26 77a20.6 20.6 0 0 1-3.5-3.6s.2 0 1.8.4a8.5 8.5 0 0 1-2.4-2.3s1.3.2 3.2.5a23 23 0 0 1 2.7-1.8 5.5 5.5 0 0 1 .6-.2 16.3 16.3 0 0 1-1.9-1.9 14.2 14.2 0 0 1 3-.2 9 9 0 0 1-1.9-2s1 0 2.3.3l1-.6a5 5 0 0 1-.8-.9c-3.4.1-6.6-5.3-6.6-5.3a20 20 0 0 1 5.3 1.4 20.6 20.6 0 0 1 0-5s.1.2 1 1.5a8.5 8.5 0 0 1 0-3.3s.7 1 1.7 2.4a8.9 8.9 0 0 1 .1-2.1l-1.2-.9a7 7 0 0 0 2.3-.3 16.3 16.3 0 0 1-2.2-1.1l1.5-.7a16.6 16.6 0 0 1-3.1-2.3 5.5 5.5 0 0 0 2-.1 14.4 14.4 0 0 1-3.6-3 13.2 13.2 0 0 1 3.6-.2A17.7 17.7 0 0 1 30 44c1.2.7 1.5.4 3.3 1.2a8.5 8.5 0 0 1-.5-1s1.1.4 2.7 1a7.8 7.8 0 0 1-.6-2 18.6 18.6 0 0 1-2.2-2 19 19 0 0 1 5.8.2 20 20 0 0 1-.3-5.7s.1.2 1 1.5a8.5 8.5 0 0 1 0-3.3s.7 1 1.9 2.5a22.7 22.7 0 0 1 3.2.6 4.9 4.9 0 0 1 .6.2 16.2 16.2 0 0 1-.1-2l-.3-.8 2.2 1 1-.4a5 5 0 0 1-.5-1c-3.3-.8-5-6.8-5-6.8a20 20 0 0 1 4.7 2.6 20.6 20.6 0 0 1 1.3-4.8s0 .2.6 2a8.2 8.2 0 0 1 1.2-3.4s.3 1.2.8 2.8a8.8 8.8 0 0 1 .7-2l-.8-1.1a7 7 0 0 0 2.2.4 16.3 16.3 0 0 1-1.6-1.8 16.4 16.4 0 0 1 1.6-.2 16.6 16.6 0 0 1-2.2-3 5.5 5.5 0 0 0 1.9.4 14.3 14.3 0 0 1-2.3-4 13.9 13.9 0 0 1 3 .9c-.7-2.2 2.2-4.7 2.2-4.7v2.9a8.9 8.9 0 0 1 1.3-1.6l-.5-1.4c1.1.8 1.4.6 3.3 1.7a8.8 8.8 0 0 1 3-1 18.4 18.4 0 0 1-1.1-3.5 20 20 0 0 1 4.5 3 20.5 20.5 0 0 1 1.6-4.8s0 .2.5 1.7a8.4 8.4 0 0 1 1-3s.4 1.2 1 3a22.8 22.8 0 0 1 2.8 1.6 5.1 5.1 0 0 1 .5.4 16 16 0 0 1 .8-2.5 14.2 14.2 0 0 1 1.5 2.5 9 9 0 0 1 1-2.5s.3.8.7 2.2l1 .5a4.9 4.9 0 0 1 .4-1c-1.6-3 1.8-8.3 1.8-8.3a19.9 19.9 0 0 1 1.2 5.3l1.2-.7.2-1.2.7.7.7-.3a17.7 17.7 0 0 1 1-2.7 5.4 5.4 0 0 0 .7 1.8 14.4 14.4 0 0 1 2-4.1 12.3 12.3 0 0 1 1.2 3.9 17.9 17.9 0 0 1 1-1.9c.1 1.5.5 1.4 1 4a5.2 5.2 0 0 1 0 .6 16.4 16.4 0 0 1 2.3-1.2 11 11 0 0 1-1.4 4.5 13.3 13.3 0 0 0 1 1.3 16 16 0 0 1 .2-2.3l1.2 1.1a16.7 16.7 0 0 1 1-3.7 5.5 5.5 0 0 0 .8 1.8A14.4 14.4 0 0 1 98.3 4a13 13 0 0 1 1.4 3.3 17.8 17.8 0 0 1 1.3-1.4c-.3 1.3 0 1.5 0 3.4a9.1 9.1 0 0 1 .8-.7s-.1 1.1-.2 2.8a7.8 7.8 0 0 1 1.8-1.2 18.5 18.5 0 0 1 1-2.7 16.4 16.4 0 0 1 1.9 6.6 15.8 15.8 0 0 1 1.6-.9l-.2 1.7a16.7 16.7 0 0 1 3.6-1.3 5.4 5.4 0 0 0-1 1.7 14.4 14.4 0 0 1 4.4-1.2 13.8 13.8 0 0 1-1.6 2.7 18.6 18.6 0 0 1 2-1 20 20 0 0 1-2 5 20.6 20.6 0 0 1 5 .7s-.3 0-1.7.7a8.5 8.5 0 0 1 3.3.5s-1.2.6-2.8 1.5a22.5 22.5 0 0 1-1.1 3 4.9 4.9 0 0 1-.4.6 16.2 16.2 0 0 1 2.7.4 14.2 14.2 0 0 1-2.2 2 9 9 0 0 1 2.7.4s-.6.4-1.7 1a17.8 17.8 0 0 1 4.6 1 22.4 22.4 0 0 1-4 1.8 19.9 19.9 0 0 1 5.7 1.7s-.2 0-1.7.5a8.4 8.4 0 0 1 3.1 1s-1.2.4-3 1a22.8 22.8 0 0 1-1.6 2.8 5.6 5.6 0 0 1-.5.5 16.3 16.3 0 0 1 2.6.8 14.3 14.3 0 0 1-2.6 1.6 9 9 0 0 1 2.6 1s-.8.2-2.2.6l-.5 1a4.8 4.8 0 0 1 1 .5c3-1.7 8.3 1.7 8.3 1.7a20 20 0 0 1-5.3 1.2 20.6 20.6 0 0 1 2.3 4.4s-.2-.1-1.6-.9a8.4 8.4 0 0 1 1.5 3s-1-.6-2.6-1.4a8.8 8.8 0 0 1 .9 2l1.4.1a7 7 0 0 0-1.8 1.4 16.2 16.2 0 0 1 2.4 0 16.4 16.4 0 0 1-1 1.3 16.6 16.6 0 0 1 3.8.5c-1.4.5-1.2 1-3.4 2.1a4.8 4.8 0 0 1-.7.4 20.8 20.8 0 0 1 3 3.6s-.1 0-1.7-.5a8.5 8.5 0 0 1 2.2 2.5s-1.2-.3-2.9-.6a9.2 9.2 0 0 1 1.6 2s-1.5-.4-3.7-.9a3.4 3.4 0 0 1-.7-.2 6.6 6.6 0 0 1 1.2 1.5l1.1.1a4.3 4.3 0 0 0-.8.5l.4.8-.8-.3a11.6 11.6 0 0 1-1 .8 14.3 14.3 0 0 1 4.6.6 12.5 12.5 0 0 1-3.2 2.3l.4.6 1-.4a4.3 4.3 0 0 0-.5 1 8.4 8.4 0 0 1 .3.8s-.2 0-.5-.2a12.5 12.5 0 0 1-.9 1.9 16.3 16.3 0 0 1 2-.3 10.6 10.6 0 0 1-3 4 18.6 18.6 0 0 1 2.7 2.4 20 20 0 0 1-5.4-.4 20.5 20.5 0 0 1 .9 5s-.1-.2-1.3-1.4a8.5 8.5 0 0 1 .6 3.3s-.9-1-2.3-2.2a22.6 22.6 0 0 1-3.2-.1 5.3 5.3 0 0 1-.7-.1 16 16 0 0 1 .6 2.6 11.8 11.8 0 0 1-3.7-2.4l-1.2.4a15.8 15.8 0 0 1 1.6.7l-1.5.9a16.7 16.7 0 0 1 3.3 2 5.5 5.5 0 0 0-2 .3 14.4 14.4 0 0 1 3.7 2.7 14.9 14.9 0 0 1-2.6.4 17.4 17.4 0 0 1 1.9 3 4.4 4.4 0 0 0-1.5-.6 8.7 8.7 0 0 1 1.7 2.6s-.5-.2-1.3-.5a7.7 7.7 0 0 1 .8 2.3 18.8 18.8 0 0 1 3 1.6 20 20 0 0 1-5.4 1 20.4 20.4 0 0 1 2 4.5s-.1-.1-1.5-1a8.4 8.4 0 0 1 1.4 3s-1.1-.7-2.8-1.5a22.8 22.8 0 0 1-3.1.6 5.2 5.2 0 0 1-.7 0 16.3 16.3 0 0 1 1.1 2.5 16 16 0 0 1-2-.5l-.6.1a9.3 9.3 0 0 1 .8 2.1s-.5-.2-1.2-.7a8.6 8.6 0 0 1 .6.7s-.9 0-2.2-.2v.4a4.4 4.4 0 0 1 2.1 1.7 15.5 15.5 0 0 1 4.6 4.3 26 26 0 0 1-2.7-.4 17 17 0 0 1 .4 1.7 24.6 24.6 0 0 1-3-1.8 21 21 0 0 1 .3 4.4s-.1-.1-1.1-1.4a8.4 8.4 0 0 1 .2 3.3s-.7-1-1.9-2.3a9 9 0 0 1 0 2.6s-1-1.3-2.4-3a3.5 3.5 0 0 1-.5-.5 6.5 6.5 0 0 1 .1 1.9l.9.8a4.4 4.4 0 0 0-1 0l-.1.7-.5-.7a11.4 11.4 0 0 1-1.3 0 14.3 14.3 0 0 1 3.4 3.3 12.5 12.5 0 0 1-4 0v.6l1 .3a4.3 4.3 0 0 0-1 .6l-.2.8-.4-.5a12.4 12.4 0 0 1-1.8 1 16 16 0 0 1 1.8 1 10.6 10.6 0 0 1-4.8 1.3 18.4 18.4 0 0 1 .7 3.6 20 20 0 0 1-4-3.6 20.6 20.6 0 0 1-2.3 4.5s0-.3-.2-1.8a8.5 8.5 0 0 1-1.5 2.9s-.2-1.3-.5-3.1a22.8 22.8 0 0 1-2.6-2 5.3 5.3 0 0 1-.4-.6 16.4 16.4 0 0 1-1.2 2.4 11 11 0 0 1-1.5-4.4 13.3 13.3 0 0 0-1.5-.6 16.4 16.4 0 0 1 1.2 2.1 16.4 16.4 0 0 1-1.7-.2 16.8 16.8 0 0 1 1.4 3.6 5.5 5.5 0 0 0-1.7-1 14.4 14.4 0 0 1 1.2 4.4 13.2 13.2 0 0 1-3-1.8 18 18 0 0 1-.3 1.8c-.6-1.2-1-1-2-2.7a8.8 8.8 0 0 1-.3 1.1s-.6-1-1.6-2.4a8.6 8.6 0 0 1-1 2.7 18.6 18.6 0 0 1 0 2.5 16.4 16.4 0 0 1-4.1-5.5 15.6 15.6 0 0 1-1.2 1.3l-.4-1.6a16.7 16.7 0 0 1-2.9 2.4 5.5 5.5 0 0 0 .3-1.9 14.4 14.4 0 0 1-3.7 2.7 14 14 0 0 1 .6-3.1 18.4 18.4 0 0 1-1.6 1.7 20 20 0 0 1 .2-5.4 20.6 20.6 0 0 1-5 1s.3 0 1.3-1.2a8.4 8.4 0 0 1-3.2.7s1-1 2.1-2.4a22.3 22.3 0 0 1 0-3.2 5 5 0 0 1 0-.7 16.3 16.3 0 0 1-2.5.6 14.3 14.3 0 0 1 1.4-2.6 9 9 0 0 1-2.8.5s.5-.5 1.3-1.4a17.8 17.8 0 0 1-4.7.6 22.4 22.4 0 0 1 3.1-3.1 19.9 19.9 0 0 1-6 .4s.3-.1 1.6-1a8.4 8.4 0 0 1-3.3 0s1-.7 2.4-1.9c.2-.6.1-1 .3-2a18.5 18.5 0 0 1-3.8-.5l1.7-1.2.8-1.1a20.7 20.7 0 0 1-4.6-1s.2 0 1.7-.7a8.4 8.4 0 0 1-3.3-.6s1.2-.5 3-1.4a22.3 22.3 0 0 1 1.2-3 5 5 0 0 1 .4-.5 16.4 16.4 0 0 1-2.6-.5 14.4 14.4 0 0 1 2.3-1.9 9 9 0 0 1-2.7-.6s.9-.4 2.1-1l.4-1a4.8 4.8 0 0 1-1-.3c-2.8 2-8.5-.8-8.5-.8a20 20 0 0 1 5.2-1.8 20.6 20.6 0 0 1-2.8-4.1s.2 0 1.7.7a8.4 8.4 0 0 1-1.8-2.7s1 .4 2.7 1a8.9 8.9 0 0 1-1.1-1.8h-1.5a7 7 0 0 0 1.7-1.6 16.1 16.1 0 0 1-2.4.3l.8-1.4a16.6 16.6 0 0 1-3.8-.1 5.5 5.5 0 0 0 1.5-1.2 14.4 14.4 0 0 1-4.5-.5 14.3 14.3 0 0 1 2.2-1.9 4 4 0 0 0 0-.6 8.3 8.3 0 0 1-.8-.4s.2 0 .6-.2a12.4 12.4 0 0 1-.4-2 16.1 16.1 0 0 1-1.5 1.3Z"/></svg>