<svg xmlns="http://www.w3.org/2000/svg" viewBox="0 0 150 150"><path fill="#73bf44" d="M61.4 24.5h-.7a3 3 0 0 1 1 .3l-.3-.3ZM95.3 134.5ZM47.4 48ZM101.5 95ZM99.2 96.9Z"/><path fill="#73bf44" d="M108.6 84a4.5 4.5 0 0 0-1.2-.6 1.7 1.7 0 0 1 .5-.2 5.2 5.2 0 0 0-1-.4 4.4 4.4 0 0 0 .3-.4 5.3 5.3 0 0 0-.7-.1 2.2 2.2 0 0 1 .6-.3s-.2 0-.4-.2a2.7 2.7 0 0 0-.2-.6l.7.6a2.7 2.7 0 0 0-.3-1l.5.4a6.4 6.4 0 0 0-.5-1.5 6.3 6.3 0 0 0 1.7 0s-1.4-1.4-2.4-1a1.5 1.5 0 0 0-.3-.3l.2-.2.8-.1a3 3 0 0 0-.8-.5 4.8 4.8 0 0 0 .9-.3 4.7 4.7 0 0 0-.7-.4.8.8 0 0 0 .1-.1 7.7 7.7 0 0 0 .7-.8h1a2.5 2.5 0 0 0-1-.6h.6a6.3 6.3 0 0 0-1.3-.8 6.2 6.2 0 0 0 1.1-1.2 5.5 5.5 0 0 0-1 .2 3.3 3.3 0 0 0-.4-1.5 4.7 4.7 0 0 0-.3.5 4.4 4.4 0 0 0-.3-.5l.2-.1h-.3a1.2 1.2 0 0 1-.1-.5s0 .2-.2.4h-.2a3.8 3.8 0 0 0 .1-1.3 4.5 4.5 0 0 0-1 1 1.6 1.6 0 0 1 0-.6 5 5 0 0 0-.8.9c0-.1 0-.3-.2-.5a4.6 4.6 0 0 0-.3.7 2.1 2.1 0 0 1 0-.7 4.3 4.3 0 0 0-.4.3 2.9 2.9 0 0 0-.6 0l.7-.5a2.5 2.5 0 0 0-1-.2l.5-.2a7 7 0 0 0-1.2-.2l-.2-.2a3 3 0 0 0 .2-.3 4.6 4.6 0 0 0 2 .5 7.6 7.6 0 0 0-.6-.8 6.4 6.4 0 0 0 1.3-.8s0 0-.5 0a2.6 2.6 0 0 0 .8-.5s-.3 0-.9-.1a3 3 0 0 0 .6-.4l.4.2a2.2 2.2 0 0 1-.3-.6 5.4 5.4 0 0 0 .7.4 4.7 4.7 0 0 0 0-.5 5.5 5.5 0 0 0 1 .5 1.8 1.8 0 0 1-.3-.6 4.6 4.6 0 0 0 1.4.5 3.8 3.8 0 0 0-.6-1.1l.2-.1.2.2a1.2 1.2 0 0 1 0-.4l.2-.1a1.9 1.9 0 0 0-.2 0 3.7 3.7 0 0 0 0-.7 4.9 4.9 0 0 0 .6.4 3.3 3.3 0 0 0-.3-1.6 6 6 0 0 0 1-.3 6.3 6.3 0 0 0-1.5-.6 6.2 6.2 0 0 0 .9-1.3s0 0-.5.2a2.7 2.7 0 0 0 .6-.8s-.4.2-1 .3l-.6-.3a4.5 4.5 0 0 0 1-1 4.4 4.4 0 0 0-1 0 2.8 2.8 0 0 0 .5-.6s-.3 0-.7.2a2.6 2.6 0 0 1-.3-.2 1.7 1.7 0 0 0 .2-.3c1 0 1.9-1.8 1.9-1.8a6.4 6.4 0 0 0-1.6.6 6.4 6.4 0 0 0-.2-1.6 5.4 5.4 0 0 1-.2.5 2.6 2.6 0 0 0-.1-1s-.2.3-.5.8a2.8 2.8 0 0 0 0-.7 3.7 3.7 0 0 0 .3-.3 2.1 2.1 0 0 1-.7 0 4.7 4.7 0 0 0 .6-.4 5 5 0 0 0-.5-.2 5 5 0 0 0 1-.8 1.7 1.7 0 0 1-.7 0 4.5 4.5 0 0 0 1-1 4.3 4.3 0 0 0-1.1 0 4.8 4.8 0 0 0 .2-.5c-.3.3-.4.2-1 .5a2.7 2.7 0 0 0 .1-.4s-.3.2-.8.5a2.5 2.5 0 0 0 .2-.7 6 6 0 0 0 .6-.7 6.5 6.5 0 0 0-1.7.2 6.4 6.4 0 0 0 .2-1.5l-.3.4a2.5 2.5 0 0 0 .1-1l-.7.7h-.8l-.3-.4v-.3l-.2.1-.3-.4a11.2 11.2 0 0 0 2.5-1s0 0-1-.2a4.6 4.6 0 0 0 1.7-.6s-.6-.1-1.5-.4a5 5 0 0 0 1.3-.6s-.8-.2-2-.6a2.6 2.6 0 0 0-.4 0 3.3 3.3 0 0 0 1-.4l.6.2a2.7 2.7 0 0 1-.3-.4l.4-.3h-.5a5.6 5.6 0 0 0-.2-.7 8 8 0 0 0 2.3 1 6.8 6.8 0 0 0-.9-2l.4-.2.4.5a2.3 2.3 0 0 1 0-.7 4.2 4.2 0 0 0 .3-.3s0 0-.3 0a6.2 6.2 0 0 0 0-1.2 8.8 8.8 0 0 0 1 .7 5.7 5.7 0 0 0-.4-2.7 10 10 0 0 0 2-.4 11.1 11.1 0 0 0-2.8-1.3 11.3 11.3 0 0 0 1.8-2s-.1 0-1 .2a4.6 4.6 0 0 0 1.2-1.4s-.7.2-1.7.5a12.3 12.3 0 0 0-1.6-.9 2.5 2.5 0 0 0-.3 0 8.4 8.4 0 0 0 1-1.2 6.1 6.1 0 0 0-2.6.2 9.4 9.4 0 0 0 1-1.5 9.5 9.5 0 0 1-1.7.4 7.8 7.8 0 0 0-.8-2.3 8.4 8.4 0 0 0-.6 1.2 8.5 8.5 0 0 0-.6-2.3 4.2 4.2 0 0 1-.6 1.1 3.5 3.5 0 0 0-.3-.6l.4-.3h-.4a6.3 6.3 0 0 0 .1-1.1 9.8 9.8 0 0 0 1 .6 5.8 5.8 0 0 0-.5-2.6 9.8 9.8 0 0 0 2-.5 11.1 11.1 0 0 0-2.7-1.3 11.3 11.3 0 0 0 1.7-2s-.1 0-1 .2a4.6 4.6 0 0 0 1.2-1.3s-.7.2-1.7.4a10.9 10.9 0 0 0-1.6-.8 2.3 2.3 0 0 0-.3-.1 9 9 0 0 0 1-1.1 6 6 0 0 0-2.6.2 9.5 9.5 0 0 0 1-1.5 9 9 0 0 1-1.7.4 7.8 7.8 0 0 0-.8-2.4 8.4 8.4 0 0 0-.6 1.2 8.5 8.5 0 0 0-.6-2.3 4.2 4.2 0 0 1-.5 1.2 5.2 5.2 0 0 0-1-1.6l.3-.2h-.3a6.5 6.5 0 0 0 0-1.2 8.7 8.7 0 0 0 1 .7 5.8 5.8 0 0 0-.5-2.7 9.8 9.8 0 0 0 2-.4 10.7 10.7 0 0 0-2.7-1.3 11.3 11.3 0 0 0 1.7-2.1s0 0-1 .3a4.6 4.6 0 0 0 1.2-1.4s-.7.2-1.7.4a11.2 11.2 0 0 0-1.5-.8 3.5 3.5 0 0 0-.4 0 8.7 8.7 0 0 0 1-1.2 6 6 0 0 0-2.6.2 9.7 9.7 0 0 0 1-1.5 9 9 0 0 1-1.6.4 8 8 0 0 0-.8-2.4 8.1 8.1 0 0 0-.7 1.2 8.5 8.5 0 0 0-.6-2.3 4.2 4.2 0 0 1-.5 1.2A7 7 0 0 0 80.3 0a7 7 0 0 0-.2 2 6.8 6.8 0 0 0-.7-.6A8.7 8.7 0 0 0 79 .3l-.5.6-.3-.2a2.7 2.7 0 0 1 .2.5 5.2 5.2 0 0 0-.5 1 5 5 0 0 0-1.2-.5s.2.3.6 1a11.6 11.6 0 0 0-2-1.4s0 .2.8 2a4.6 4.6 0 0 0-1.2-.4l-.3-.5-.3.9a9 9 0 0 0-1.4-1.6 3 3 0 0 1 0 1.1 8 8 0 0 0-1.8-1.7 6.8 6.8 0 0 0 .1 2.2 3.6 3.6 0 0 0-.3 0l-.3-.6a2.3 2.3 0 0 1-.2.7l-.4.1.3.2a6.9 6.9 0 0 0-.5 1 9 9 0 0 0-.6-1 5.8 5.8 0 0 0-.5 2.7 9.9 9.9 0 0 0-2-.2 11 11 0 0 0 2.1 2 11.2 11.2 0 0 0-2.3 1.5s0 0 1 0a4.7 4.7 0 0 0-1.6 1s.7 0 1.7.1a12.7 12.7 0 0 0 1.3 1.3 3.2 3.2 0 0 0 .2.2 9.1 9.1 0 0 0-1.2.7 7.3 7.3 0 0 0 1.5.6 4.8 4.8 0 0 0-1.2.8s.5 0 1.2.1l.4.5a2.6 2.6 0 0 0-.5.3 2.6 2.6 0 0 0-1.7.3.7.7 0 0 1-.1 0 5.8 5.8 0 0 0-.6.3 8.8 8.8 0 0 0-1.2-1 7.2 7.2 0 0 0 .1 1.8l-.3.3-.2-.5a2.5 2.5 0 0 1-.2.7 4.4 4.4 0 0 0-.5.1s.1 0 .3.1a6.6 6.6 0 0 0-.4 1 9 9 0 0 0-.7-.8 5.8 5.8 0 0 0-.5 2.6 9.8 9.8 0 0 0-2-.2 11 11 0 0 0 2.2 2 11.3 11.3 0 0 0-2.4 1.5s.1 0 1 0a4.5 4.5 0 0 0-1.5 1l-.3-.1.8 1a9 9 0 0 0-.1 1.4 2.2 2.2 0 0 0 0 .2 6.4 6.4 0 0 0-1-.3 5.7 5.7 0 0 0 .4 1.1 3.8 3.8 0 0 0-1.1-.3l.5.8v.4a2 2 0 0 0-.5 0c-.6-1.3-3.2-1.5-3.2-1.5a8.3 8.3 0 0 0 1.5 1.7 8.7 8.7 0 0 0-1.8.9s0 0 .7 0a3.5 3.5 0 0 0-1.2.7s.5 0 1.2.2a3.7 3.7 0 0 0-.8.4l-.5-.3a3 3 0 0 1 .3 1 7.3 7.3 0 0 0-.8-.7 6 6 0 0 0 0 .7 6.8 6.8 0 0 0-1.4-.8 2.4 2.4 0 0 1 .3.8A6 6 0 0 0 52 31a5.3 5.3 0 0 0 .6 1.4h-.8l1 1a3.1 3.1 0 0 0-.5 0s.4.3 1 .8a3.1 3.1 0 0 0-1 .2 7.2 7.2 0 0 0-1-.5 8.4 8.4 0 0 0 1 2 8.6 8.6 0 0 0-2 .4s0 0 .6.3a3.5 3.5 0 0 0-1.3.3s.5.2 1.2.5a9.2 9.2 0 0 0 .6 1.2 2 2 0 0 0 .1.3 6.8 6.8 0 0 0-1 .2 6 6 0 0 0 1 .7 3.8 3.8 0 0 0-1.2.3s.4.2 1 .4l.1.4a2 2 0 0 0-.4.2c-1.2-.8-3.5.4-3.5.4a8.2 8.2 0 0 0 2.1.7 8.5 8.5 0 0 0-1 1.7l.6-.3a3.4 3.4 0 0 0-.7 1.1s.5-.2 1.1-.4a3.4 3.4 0 0 0-.4.7 5.9 5.9 0 0 0-.6 0 2.8 2.8 0 0 1 .7.7 6.8 6.8 0 0 0-1-.1 6.5 6.5 0 0 0 .3.6 7 7 0 0 0-1.5 0 2.3 2.3 0 0 1 .6.5 6 6 0 0 0-1.9.3 5.8 5.8 0 0 0 1 .8c-.8.3-.9 1.8-.9 1.9l1-.8a3.7 3.7 0 0 0-.3.9 5.7 5.7 0 0 0-.5.2c.5.1.5.3 1.3.6l-.2.4a7.9 7.9 0 0 0-1 .1 2.3 2.3 0 0 1 .7.5 5.9 5.9 0 0 0-.2.6l.7-.3.2.1a1.7 1.7 0 0 0 .3.1 7 7 0 0 0-.8.8 5.8 5.8 0 0 0 1.2.1 3.8 3.8 0 0 0-.8.8s.4 0 1 0l.4.3a6.3 6.3 0 0 0-1 .5 6.2 6.2 0 0 0 1.2.5 3.6 3.6 0 0 0-1 .5s.3 0 .9.2a6.7 6.7 0 0 0-1.6.7c.7 0 .6.2 1.7.4a1.6 1.6 0 0 0 .2 0 6.7 6.7 0 0 0-.5 1 5.4 5.4 0 0 0 1.2-.3 3.7 3.7 0 0 0-.5 1s.3-.1.9-.4l.4.2c-.9 1.4.3 4.1.3 4.1l.2-.7a3.5 3.5 0 0 0 .4 1.3s.2-.5.4-1.2a3.7 3.7 0 0 0 .3.9l-.4.4a3 3 0 0 1 1 0 7.3 7.3 0 0 0-.8.6l.7.1a6.6 6.6 0 0 0-1 1.3 2.1 2.1 0 0 1 .8-.2 5.1 5.1 0 0 0-.9 1.2h-.1v.4l.4-.1.4.2-.2.2a5 5 0 0 0-.4 0l-.4-.4a3 3 0 0 1-.1 1 6.6 6.6 0 0 0-.5-1 6.5 6.5 0 0 0-.3.7 6.8 6.8 0 0 0-1-1.2 2.2 2.2 0 0 1 0 .8 6 6 0 0 0-1.3-1.3 5.2 5.2 0 0 0 0 1.6H48a6 6 0 0 0-.2-.4 1.8 1.8 0 0 1-.2.5 3.4 3.4 0 0 0-.3 0s0 0 .2.2a4.9 4.9 0 0 0-.4.7 6.6 6.6 0 0 0-.4-.7 4.4 4.4 0 0 0-.5 2 7.5 7.5 0 0 0-1.5-.2 8.4 8.4 0 0 0 1.5 1.6 8.5 8.5 0 0 0-1.8 1s.1 0 .8 0a3.6 3.6 0 0 0-1.2.7s.5 0 1.3.2a9 9 0 0 0 .8 1l.2.2a6.6 6.6 0 0 0-1 .5 6.2 6.2 0 0 0 1.2.4 3.7 3.7 0 0 0-1 .6s.4 0 1 .1a4.2 4.2 0 0 1 .3.4 2.3 2.3 0 0 0-.4.3c-1.3-.5-3.3 1.3-3.3 1.3a8.2 8.2 0 0 0 2.3 0l-.2.6-.5.2.3.2v.3a7.3 7.3 0 0 0-1 .7 2.2 2.2 0 0 1 .7 0 6 6 0 0 0-1.5 1.2 5.6 5.6 0 0 0 1.4.2 6.6 6.6 0 0 0-.4.6 9.9 9.9 0 0 1 1.4-.3 3.9 3.9 0 0 0-.2.4s.4-.2 1.1-.3a3.2 3.2 0 0 0-.3.8 7.5 7.5 0 0 0-1 .7 8.3 8.3 0 0 0 2.3.1 7.1 7.1 0 0 0-.4 1h-.2l.1.1a7.8 7.8 0 0 0-.2 1s0-.2.5-.5a3.6 3.6 0 0 0-.3 1.2l.8-.6.5.5a8.4 8.4 0 0 0-1.8.9s0 0 .7 0a3.5 3.5 0 0 0-1.2.6s.5.1 1.2.3a8.5 8.5 0 0 0 .8 1 1.4 1.4 0 0 0 .2.3 6.6 6.6 0 0 0-1 .4 6.4 6.4 0 0 0 1.1.6 3.7 3.7 0 0 0-1 .5s.4 0 1 .1l.2.4a2.3 2.3 0 0 0-.4.3c-1.3-.6-3.3 1-3.3 1a8.5 8.5 0 0 0 2.2.3 8.4 8.4 0 0 0-.7 2s0-.1.6-.5a3.5 3.5 0 0 0-.5 1.2l1-.6a3.8 3.8 0 0 0-.3 1l1.3-.9a1.1 1.1 0 0 0 .3-.1 2.8 2.8 0 0 0-.3.7l-.4.2a2 2 0 0 1 .4 0 2.8 2.8 0 0 0 0 .4l.2-.2a5.2 5.2 0 0 0 .5.2 6 6 0 0 0-1.7.8 5 5 0 0 0 1.5.5 2.2 2.2 0 0 0 0 .3h-.5a1.8 1.8 0 0 1 .4.3v.4l.1-.2a4.7 4.7 0 0 0 .6.6 6 6 0 0 0-.8.2 4.4 4.4 0 0 0 1.7 1v.2a7 7 0 0 0-.4.7.7.7 0 0 0-.1 0v.1c0 .3-.2.4-.2.4h.3l-.2.7a10 10 0 0 0-2-2s0 3.2 1.5 4a2.6 2.6 0 0 0 .1.5H49l-.9-.7a4.4 4.4 0 0 0 .3 1.4 7.3 7.3 0 0 0-1.3-.7 8.1 8.1 0 0 0 .3 1.3 2.7 2.7 0 0 0-.3 0 10.9 10.9 0 0 0-1.6 0l-1.2-1a4.2 4.2 0 0 0 .4 1.6l-.7-.6a10.4 10.4 0 0 0 .6 2.4 9.6 9.6 0 0 0-2.7 0 9 9 0 0 0 1.4 1.1 5.3 5.3 0 0 0-1.3 2 8 8 0 0 0 1-.2 6.2 6.2 0 0 0-.4 1h-.3l.2.3a2.2 2.2 0 0 1-.3.5s.2 0 .5-.2l.2.3a6.3 6.3 0 0 0-1.4 1.2 7.1 7.1 0 0 0 2.2.2 2.6 2.6 0 0 1-.7.6 7.9 7.9 0 0 0 1.9 0l-.4.7a8.5 8.5 0 0 0 1.2-.3 3.6 3.6 0 0 1-.8.9s.3 0 .7 0a4.4 4.4 0 0 0 .7.8l-1.4-.4a4.1 4.1 0 0 0 1 1.2l-.9-.3a10.4 10.4 0 0 0 1.5 2 9.7 9.7 0 0 0-2.5 1s3 1.2 4.2.2a2.5 2.5 0 0 0 .5 0l-.1.6-1 .6a4.4 4.4 0 0 0 1.3.2 7.6 7.6 0 0 0-1 1 8.7 8.7 0 0 0 1.2.2 1.6 1.6 0 0 0-.1.2 11.5 11.5 0 0 0-.6 1.5l-1.4.8a4.2 4.2 0 0 0 1.7.2l-.9.4a10.2 10.2 0 0 0 2.5.3 10 10 0 0 0-1 2.5 9 9 0 0 0 1.4-.8 3.7 3.7 0 0 0 1.2.3l-.6.4a4.3 4.3 0 0 0 1.6 0 2.2 2.2 0 0 1-.6.5 8.3 8.3 0 0 0 1.7 0 7.4 7.4 0 0 0-.5 1.1 7.2 7.2 0 0 0 2.1-.8 2.7 2.7 0 0 1-.4.9 8.2 8.2 0 0 0 1.7-.8 8 8 0 0 0 0 .8 8.5 8.5 0 0 0 .7-.5l-.2.6a5.8 5.8 0 0 0-2 1 7.8 7.8 0 0 0 1.3.4 2.1 2.1 0 0 0-.2.3 10.6 10.6 0 0 0-1 1.3l-1.4.4a4.2 4.2 0 0 0 1.5.6l-.9.2a10.3 10.3 0 0 0 2.3.9 9.8 9.8 0 0 0-1.6 2.2 9.1 9.1 0 0 0 1.8-.5 5.2 5.2 0 0 0 .8 2.3 7.5 7.5 0 0 0 .4-1 6.4 6.4 0 0 0 .6 1h-.3a3.5 3.5 0 0 0 .5.1 2 2 0 0 1 .3.6s0-.2 0-.6h.4a6.2 6.2 0 0 0 .2 2 7.1 7.1 0 0 0 1.4-1.8 5.7 5.7 0 0 0 .1.6l-.3.3h.4a2.5 2.5 0 0 1 0 .5l.3-.5a3 3 0 0 0 1 0 1.8 1.8 0 0 0-.3.2l-1.4 1.3a4.6 4.6 0 0 0 1.3-.1l-1 1a4.1 4.1 0 0 0 1.6-.2l-.7.6a10.1 10.1 0 0 0 2.5-.4 10 10 0 0 0-.3 2.7s2.4-2 2.1-3.6a2.6 2.6 0 0 0 .4-.5l.3.4v1.2a4.4 4.4 0 0 0 .9-1 7.2 7.2 0 0 0 .3 1.3 8.2 8.2 0 0 0 .8-1 2.8 2.8 0 0 0 .2.2 10.4 10.4 0 0 0 1 1.3v1.5a4.3 4.3 0 0 0 1-1.3v1a10.2 10.2 0 0 0 1.4-2 9.7 9.7 0 0 0 1.7 2 8.7 8.7 0 0 0 0-1.1 7 7 0 0 0 .8 1.3 7 7 0 0 0 .6-2.2 2.8 2.8 0 0 1 .5.8 8.1 8.1 0 0 0 .3-1.8 8.1 8.1 0 0 0 .6.5 8.6 8.6 0 0 0 0-1.2 3.6 3.6 0 0 1 .7.9s0-.3.1-.7a4.1 4.1 0 0 0 1-.5l-.7 1.3a4.2 4.2 0 0 0 1.4-.7l-.4.8s3.3-1 3.9-3l.5.2.3 1.1a4.4 4.4 0 0 0 .5-1.3 7.1 7.1 0 0 0 .8 1.3 8.2 8.2 0 0 0 .4-1.3 3 3 0 0 0 .2.3c1 .7 1.2.5 1.7 1a8 8 0 0 0-.6-1.9l.8.7a4.5 4.5 0 0 0-.3-1.3 6.9 6.9 0 0 0 1.3.6 8.3 8.3 0 0 0-.3-1.3l.7.1.7 1a4.5 4.5 0 0 0 0-1.4 7 7 0 0 0 1.2 1 8 8 0 0 0 0-1.4 2.6 2.6 0 0 0 .3.2h.4c0 .3 0 .6.2.9a7 7 0 0 0 .4-.7 2.9 2.9 0 0 1 .9.3 8.7 8.7 0 0 0-.6-1l.2-.5a11.3 11.3 0 0 1 1.6.7s-.1-.3-.3-.7a4.2 4.2 0 0 0 .6-.8v1.4s1.4-1.4 1-2.4a6.9 6.9 0 0 0 1.5.3 7 7 0 0 0-1.3-1.9 2.7 2.7 0 0 1 1 .2 8 8 0 0 0-1.3-1.5l.8-.1a8.5 8.5 0 0 0-.9-.8 3.6 3.6 0 0 1 1.2.1s-.2-.2-.5-.5a4.4 4.4 0 0 0 .3-1l.5 1.3a4.2 4.2 0 0 0 .5-1.6l.2.9a10.1 10.1 0 0 0 .7-2.4 9.8 9.8 0 0 0 2.3 1.4s-.8-3-2.4-3.4a2.2 2.2 0 0 0-.3-.5l.6-.2 1 .4a4.4 4.4 0 0 0-.6-1.2 6.8 6.8 0 0 0 1.4.3 8 8 0 0 0-.6-1.1 2.5 2.5 0 0 0 .3 0 11.4 11.4 0 0 0 1.5-.6l1.5.7a4.2 4.2 0 0 0-.8-1.4l.7.4a10.3 10.3 0 0 0-1.2-2.2 9.8 9.8 0 0 0 2.6-.7 9 9 0 0 0-1.3-.6 3.5 3.5 0 0 0-.6-.9c.9 0 1.5.2 1.5.2a4.8 4.8 0 0 0-.4-.5 10 10 0 0 1 1.7.1 7.9 7.9 0 0 0-.6-.7 6.5 6.5 0 0 0 1.6-.6 7.1 7.1 0 0 0-2-.9 2.8 2.8 0 0 1 .9-.3 8.4 8.4 0 0 0-1.8-.6l.6-.6a7.8 7.8 0 0 0-1.2-.2 3.7 3.7 0 0 1 1-.5s-.2-.1-.6-.2a4.3 4.3 0 0 0-.3-1l1.1.8a4.1 4.1 0 0 0-.4-1.5l.7.6a10.3 10.3 0 0 0-.7-2.4 10 10 0 0 0 2.7 0s-2.3-2.2-3.9-1.7a2.2 2.2 0 0 0-.4-.3l.3-.4 1.2-.2a4.5 4.5 0 0 0-1.2-.7 7.3 7.3 0 0 0 1.4-.5 8.3 8.3 0 0 0-1.2-.6 2.7 2.7 0 0 0 .3-.3 11 11 0 0 0 1-1.2l1.6-.1a4.2 4.2 0 0 0-1.4-.8l.9-.1a10.3 10.3 0 0 0-2.2-1.2 9.8 9.8 0 0 0 1.9-2 8.6 8.6 0 0 0-1.8.3 5.3 5.3 0 0 0-.5-2.4 9 9 0 0 0-.6.9 6.4 6.4 0 0 0-.4-1l.2-.1-.4-.1a2.1 2.1 0 0 1-.2-.6s0 .2-.2.5h-.3a5 5 0 0 0 0-.7 1.2 1.2 0 0 1 .4.1s0-.1-.2-.4a3.2 3.2 0 0 0 .4-.5v.9s.9-.9.6-1.5a4.2 4.2 0 0 0 1 .2 4.4 4.4 0 0 0-.8-1.2 1.8 1.8 0 0 1 .5.1 5 5 0 0 0-.7-.9h.5a5 5 0 0 0-.6-.6 2.3 2.3 0 0 1 .7 0s0 0-.3-.3a3 3 0 0 0 .2-.6l.3.9a2.5 2.5 0 0 0 .3-1l.2.5a6.2 6.2 0 0 0 .4-1.5 6 6 0 0 0 1.5.9s-.6-2-1.6-2.1a1.5 1.5 0 0 0-.1-.4h.3l.7.2a2.7 2.7 0 0 0-.4-.7 4.3 4.3 0 0 0 .9.1 5 5 0 0 0-.4-.7 1.4 1.4 0 0 0 .2 0 6.5 6.5 0 0 0 1-.3l.8.4a2.6 2.6 0 0 0-.5-.9l.5.3a6.4 6.4 0 0 0-.8-1.4 5.9 5.9 0 0 0 1.7-.4 6.2 6.2 0 0 0-.9-.4 2.3 2.3 0 0 0-.3-.5h.9a3 3 0 0 0-.3-.2 7.4 7.4 0 0 1 1.1 0s-.2-.2-.4-.4a4 4 0 0 0 1-.4ZM47.4 48Zm13.3-23.6.7.1.2.3a3 3 0 0 0-.9-.4Zm34.6 110Zm4-37.5Zm2.2-2Z"/><path fill="#73bf44" d="M72 135s.2 11.5-1 15h6.7s-.4-10 0-16-5.6 1-5.6 1Z"/></svg>