<svg xmlns="http://www.w3.org/2000/svg" viewBox="0 0 150 150"><path fill="#73bf44" d="M149.7 88.4a9 9 0 0 0-2.3-1.7l.3-.4.7.2a3 3 0 0 1-.4-.8 5.9 5.9 0 0 0 .3-.5s-.2 0-.4.2a6.9 6.9 0 0 0-.4-.8 6.2 6.2 0 0 0-.2-2.2 13.4 13.4 0 0 0 2.6-.3 14 14 0 0 0-3.4-2 15 15 0 0 0 2.6-2.2s-.1 0-1.3.1a6 6 0 0 0 1.9-1.4s-.6 0-1.5 0a18.8 18.8 0 0 0-2-1.4 3.8 3.8 0 0 0-.4-.2 11.8 11.8 0 0 0 1.5-1.2 10.3 10.3 0 0 0-2.1-.3 6.5 6.5 0 0 0 1.4-1.4s-.7 0-1.7.2l-.6-.5a3.4 3.4 0 0 0 .5-.6c2.4.2 5-3.6 5-3.6a14.4 14.4 0 0 0-3.9.8 14.9 14.9 0 0 0 .2-3.6s-.1.1-.8 1a6.1 6.1 0 0 0 0-2.3s-.4.7-1.2 1.6a5.6 5.6 0 0 0 0-.8c.5-.1.7-.3.7-.3a3.2 3.2 0 0 1-.7-.2v-.5l-.3.3-.5-.2.8-.1.9-.3-1-.8a12 12 0 0 0 2.6-1 4 4 0 0 1-1.4-.4 10.4 10.4 0 0 0 3-1.6 9.6 9.6 0 0 0-2.6-.7 12.8 12.8 0 0 0 1-1 15.6 15.6 0 0 1-2.5.2 6.3 6.3 0 0 0 .4-.6s-.8.2-2 .4a5.7 5.7 0 0 0 .7-1.4 13.5 13.5 0 0 0 1.9-1 14.4 14.4 0 0 0-3.9-.8 14.8 14.8 0 0 0 1.6-3.2s-.2 0-1 .6a6.4 6.4 0 0 0 .6-2s-.8.6-2 1.3a3.4 3.4 0 0 1-.4 0 12.8 12.8 0 0 0 1.6-1 5.6 5.6 0 0 1-1.7-.4c.8-1.3-.4-3.5-.4-3.5l-.7 2a6.3 6.3 0 0 0-.5-1.5l.7-.8a5.1 5.1 0 0 1-1.6.2 11.6 11.6 0 0 0 1.2-1.2 11 11 0 0 0-1.8-.3 13 13 0 0 0 1.3-1.6 5.5 5.5 0 0 1-1.7.3 11.5 11.5 0 0 0 1-1 9 9 0 0 0-2.7-.3v-.5l.8-.1a3 3 0 0 1-.8-.5 6 6 0 0 0 0-.6s-.2.1-.3.3a7.5 7.5 0 0 0-.7-.4 6.2 6.2 0 0 0-1.4-1.7 13.2 13.2 0 0 0 2.1-1.7 14.5 14.5 0 0 0-3.9 0 15 15 0 0 0 1-3.5s-.2.2-1 1a6.1 6.1 0 0 0 .5-2.4s-.7.6-1.7 1.5a16.4 16.4 0 0 0-2.4-.1 3.8 3.8 0 0 0-.5 0 11.7 11.7 0 0 0 .6-1.8 12 12 0 0 0-1.4.6l.5-.6a5.6 5.6 0 0 1-1.7 0c.4-1.5-1.5-3.2-1.5-3.2v2a6.3 6.3 0 0 0-1-1.1l.4-1a5.1 5.1 0 0 1-1.4.7 11.9 11.9 0 0 0 .8-1.5 10.8 10.8 0 0 0-1.8.3 12.7 12.7 0 0 0 .7-2 4 4 0 0 1-1.3.7 10.4 10.4 0 0 0 1-3.2 9 9 0 0 0-2.5 1.5l-.3-.4.6-.6a3 3 0 0 1-1 .1 5.7 5.7 0 0 0-.4-.4s0 .1 0 .4a7.4 7.4 0 0 0-.8 0 6.2 6.2 0 0 0-2-.5 13.4 13.4 0 0 0 .6-2.6 14 14 0 0 0-3.2 2.5 15 15 0 0 0-1-3.3s0 .1-.4 1.2a6.1 6.1 0 0 0-.7-2.2s-.2.8-.7 2.1a16.7 16.7 0 0 0-2 1.1 3.8 3.8 0 0 0-.5.3 11.7 11.7 0 0 0-.5-1.8 10.5 10.5 0 0 0-1.2 1.8 6.4 6.4 0 0 0-.6-2s-.2.7-.6 1.7l-.7.3a3.5 3.5 0 0 0-.3-.7c1.3-2.1-1-6-1-6a14.5 14.5 0 0 0-1 3.8 14.8 14.8 0 0 0-3.2-1.8l.6 1.2a6 6 0 0 0-2-1.1s.3.7.9 1.9a5.7 5.7 0 0 0-.7-.4v-.8a3.1 3.1 0 0 1-.5.6l-.5-.2.2.4-.4.3a11.8 11.8 0 0 0 .3-1.7l-1 .5a12 12 0 0 0 0-2.7 4 4 0 0 1-.9 1 10.3 10.3 0 0 0 0-3.3 9.5 9.5 0 0 0-1.8 2 12.5 12.5 0 0 0-.6-1.3 15.7 15.7 0 0 1-.8 2.4 6.3 6.3 0 0 0-.4-.8s-.2.9-.5 2a5.6 5.6 0 0 0-1-1.2 13.2 13.2 0 0 0 0-2.1 14.4 14.4 0 0 0-2.4 3.1 14.9 14.9 0 0 0-2.3-2.8s0 .1.2 1.3a6 6 0 0 0-1.5-1.9s0 1 0 2.3a3.2 3.2 0 0 1-.2.4 12.6 12.6 0 0 0 0-1.8 5.7 5.7 0 0 1-1.2 1.2c-.7-1.4-3.2-1.6-3.2-1.6l1.3 1.7a6.4 6.4 0 0 0-1.5-.4l-.3-1a5 5 0 0 1-.7 1.5 11.6 11.6 0 0 0-.4-1.7 11 11 0 0 0-1.1 1.4 12.8 12.8 0 0 0-.8-1.9 5.5 5.5 0 0 1-.6 1.6 11.7 11.7 0 0 0-.3-1.5 9 9 0 0 0-1.7 2.3l-.4-.3.3-.8a3 3 0 0 1-.8.5 5.5 5.5 0 0 0-.6-.3s0 .2.2.4a7.5 7.5 0 0 0-.8.3 6.2 6.2 0 0 0-2.2.3 13.2 13.2 0 0 0-.2-2.6 14.4 14.4 0 0 0-2.1 3.3 14.9 14.9 0 0 0-2.5-2.6l.2 1.3a6.1 6.1 0 0 0-1.6-1.7s.1.9.3 2.2a16.1 16.1 0 0 0-1.3 2 3.4 3.4 0 0 0-.2.4 11.8 11.8 0 0 0-1.3-1.4 10.3 10.3 0 0 0-.3 2.1 6.4 6.4 0 0 0-1.4-1.4s.1.7.2 1.7l-.5.7a3.6 3.6 0 0 0-.5-.6c.1-2.4-3.8-4.8-3.8-4.8a14.4 14.4 0 0 0 1 3.8 14.8 14.8 0 0 0-3.7 0s.2 0 1.1.7a6.1 6.1 0 0 0-2.4-.1s.7.5 1.7 1.3a6.4 6.4 0 0 0-1.5 0l-.6-.9a5.2 5.2 0 0 1-.3 1.6 11.9 11.9 0 0 0-.7-1.6l-.6 1a12 12 0 0 0-1.5-2.2 4 4 0 0 1-.2 1.4 10.4 10.4 0 0 0-2-2.6 9.5 9.5 0 0 0-.3 2.6 12.7 12.7 0 0 0-1.2-.6 15.8 15.8 0 0 1 .8 2.3 6.3 6.3 0 0 0-.7-.3s.3.7.7 2a5.6 5.6 0 0 0-1.5-.5 13.4 13.4 0 0 0-1.3-1.7 14.4 14.4 0 0 0 0 4 14.9 14.9 0 0 0-3.6-1s.2.1 1 1a6 6 0 0 0-2.4-.7s.6.8 1.4 1.8a6 6 0 0 1 0 .8 12.5 12.5 0 0 0-.5-1.2 5.7 5.7 0 0 1-.7 1.7c-1.2-1-3.6-.1-3.6-.1l2 1a6.3 6.3 0 0 0-1.6.2l-.7-.7a5 5 0 0 1 0 1.6 11.7 11.7 0 0 0-1-1.4 10.9 10.9 0 0 0-.5 1.7 12.9 12.9 0 0 0-1.5-1.4 4 4 0 0 1 .1 1.4 10.4 10.4 0 0 0-2.5-2.1 9 9 0 0 0 .3 2.8h-.5l-.3-.7a3 3 0 0 1-.3.9 5.8 5.8 0 0 0-.5.2s.1 0 .3.2a8 8 0 0 0-.3.7 6.2 6.2 0 0 0-1.4 1.7 13.4 13.4 0 0 0-2-1.7 14.4 14.4 0 0 0 .8 3.8 14.9 14.9 0 0 0-3.6-.1s.1 0 1 .7a6 6 0 0 0-2.3 0s.7.5 1.8 1.3a16.3 16.3 0 0 0 .4 2.4 3.8 3.8 0 0 0 .1.4 11.7 11.7 0 0 0-1.9-.1 10.3 10.3 0 0 0 1.3 1.7 6.4 6.4 0 0 0-2 0s.5.4 1.3 1l.1.8a3.6 3.6 0 0 0-.8 0c-1.6-1.8-6-.9-6-.9a14.4 14.4 0 0 0 3.2 2.2 14.9 14.9 0 0 0-2.6 2.4s.1 0 1.3-.2A6.1 6.1 0 0 0 10 49s.9-.1 2.1-.3a6.4 6.4 0 0 0-1 1.1l-1.1-.2A5 5 0 0 1 11 51a11.6 11.6 0 0 0-1.6-.6c0 .4.2.8.3 1.1A12 12 0 0 0 7 51a4 4 0 0 1 .9 1.2 10.4 10.4 0 0 0-3.3-.5 9.5 9.5 0 0 0 1.6 2 12.4 12.4 0 0 0-1.3.4c1 .3.9.6 2.1 1.2a6.4 6.4 0 0 0-.7.2s.7.4 1.8 1a5.6 5.6 0 0 0-1.3.7 13.5 13.5 0 0 0-2.1-.3 14.4 14.4 0 0 0 2.6 2.8 14.9 14.9 0 0 0-3.1 1.8s.1 0 1.3 0a6 6 0 0 0-2.1 1.2s.9 0 2.2.3a3.5 3.5 0 0 1 .3.4 13 13 0 0 0-1.7-.4 5.6 5.6 0 0 1 1 1.4c-1.5.4-2.1 3-2.1 3l1.8-1a6.3 6.3 0 0 0-.6 1.3l-1 .2a5 5 0 0 1 1.3 1 11.7 11.7 0 0 0-1.7 0 11 11 0 0 0 1.2 1.4 12.8 12.8 0 0 0-2 .4 4 4 0 0 1 1.2.7A10.4 10.4 0 0 0 0 72a9 9 0 0 0 2.5 1.4l-.2.4-.8-.1a3 3 0 0 1 .5.7 5.8 5.8 0 0 0-.1.6s.1-.1.3-.3a7.3 7.3 0 0 0 .5.8 6.2 6.2 0 0 0 .6 2 13.4 13.4 0 0 0-2.6.7A14.5 14.5 0 0 0 4.4 80a15 15 0 0 0-2.1 2.8l1.2-.4A6 6 0 0 0 2 84.2s.8-.3 2.1-.7a16.4 16.4 0 0 0 2.2 1 3.5 3.5 0 0 0 .4.1 11.7 11.7 0 0 0-1.1 1.6 10.4 10.4 0 0 0 2-.1 6.5 6.5 0 0 0-1 1.6s.6-.2 1.6-.5l.7.4a3.6 3.6 0 0 0-.5.7c-2.4.2-4.2 4.4-4.2 4.4A14.5 14.5 0 0 0 8 91.2a14.8 14.8 0 0 0 .5 3.6s0-.2.5-1.2a6 6 0 0 0 .3 2.3s.4-.7 1-1.8a6.3 6.3 0 0 0 .3 1.5l-.8.7a5.1 5.1 0 0 1 1.7 0 11.8 11.8 0 0 0-1.5 1l1.1.4a12 12 0 0 0-2 1.9 3.9 3.9 0 0 1 1.4-.1 10.4 10.4 0 0 0-2.2 2.4 9.6 9.6 0 0 0 2.6-.1 12.7 12.7 0 0 0-.5 1.2c.8-.5 1-.4 2.2-1a6.2 6.2 0 0 0-.2.7s.7-.4 1.8-1a5.6 5.6 0 0 0-.2 1.5 13.3 13.3 0 0 0-1.4 1.6 14.4 14.4 0 0 0 3.9-.6 14.8 14.8 0 0 0-.4 3.6s0-.1.8-1a6.1 6.1 0 0 0-.2 2.4s.6-.7 1.5-1.7l1.8-.2a11.3 11.3 0 0 0-1 1 11.7 11.7 0 0 0 1.3 0 12.1 12.1 0 0 0-1.6 2.3 4 4 0 0 1 1.4-.3 10.4 10.4 0 0 0-1.7 2.8 9.6 9.6 0 0 0 2.5-.7 12.8 12.8 0 0 0-.2 1.4c.7-.8.9-.7 2-1.6a6.4 6.4 0 0 0 0 .8s.5-.6 1.5-1.4a5.6 5.6 0 0 0 0 1.6 13.4 13.4 0 0 0-1 1.8 14.4 14.4 0 0 0 3.7-1.4 14.9 14.9 0 0 0 .4 3.6s0-.2.6-1.2a6 6 0 0 0 .3 2.4s.4-.8 1-2a3.7 3.7 0 0 1 .6-.2 13 13 0 0 0-1 1.5 5.6 5.6 0 0 1 1.6-.4c-.1 1.6 2 3 2 3l-.3-2a6.4 6.4 0 0 0 1 1c0 .7-.2 1.1-.2 1.1a5 5 0 0 1 1.4-.9 11.7 11.7 0 0 0-.6 1.6 11 11 0 0 0 1.7-.5 12.9 12.9 0 0 0-.3 2 4 4 0 0 1 1-.9 10.4 10.4 0 0 0-.3 3.3 9 9 0 0 0 2.1-1.8l.3.3-.7.7a4 4 0 0 1 1.4 0c.2 0 .3.2.3.2v-.3h.5a6.2 6.2 0 0 0 2 .6 13.3 13.3 0 0 0-.6 2.5 14.4 14.4 0 0 0 3.1-2.4 14.9 14.9 0 0 0 1.4 3.3s0-.1.3-1.2a6 6 0 0 0 .9 2.1s.2-.9.5-2.2a16.2 16.2 0 0 0 2-1.3 3.5 3.5 0 0 0 .3-.4 11.8 11.8 0 0 0 .7 1.8 10.2 10.2 0 0 0 1-1.9 6.4 6.4 0 0 0 .8 1.8s.2-.7.4-1.6l.7-.5a3.5 3.5 0 0 0 .3.8c-1 2.2 1.8 5.8 1.8 5.8a14.4 14.4 0 0 0 .5-3.9 14.9 14.9 0 0 0 3.4 1.4s-.1-.2-.8-1.1a6.1 6.1 0 0 0 2.2.9s-.5-.7-1-1.8a6.2 6.2 0 0 0 1 .4l.2 1.3a5.1 5.1 0 0 1 1-1.3 11.8 11.8 0 0 0 0 1.7l1-.7a12 12 0 0 0 .4 2.7 4 4 0 0 1 .7-1.2 10.4 10.4 0 0 0 .8 3.2 9.6 9.6 0 0 0 1.3-2.2 12.8 12.8 0 0 0 .8 1.1 15.6 15.6 0 0 1 .3-2.5 6.4 6.4 0 0 0 .5.7s0-.9.2-2.1a5.7 5.7 0 0 0 1.1 1 13.5 13.5 0 0 0 .5 2.1 14.4 14.4 0 0 0 1.7-3.5 14.8 14.8 0 0 0 2.8 2.3l-.4-1.2a6 6 0 0 0 1.8 1.5s-.2-1-.5-2.2a3.4 3.4 0 0 1 .2-.5 11.5 11.5 0 0 0 .2 1.3 9.5 9.5 0 0 0 1.7-1.9 12.6 12.6 0 0 0 .6 1.3 15.5 15.5 0 0 1 .8-2.3 6.3 6.3 0 0 0 .4.7s.2-.8.6-2a5.6 5.6 0 0 0 1 1.3 13.6 13.6 0 0 0 0 2 14.4 14.4 0 0 0 2.4-3 14.8 14.8 0 0 0 2.2 2.9s0-.2-.1-1.3a6.1 6.1 0 0 0 1.4 1.8s0-.9 0-2.2c.3-.4.6-.6 1.1-1.4a11.6 11.6 0 0 0 0 1.3l1-.7a12 12 0 0 0 .4 2.7 4 4 0 0 1 .8-1.2 10.4 10.4 0 0 0 .7 3.2 9.5 9.5 0 0 0 1.3-2.2 12.6 12.6 0 0 0 .8 1 15.3 15.3 0 0 1 .4-2.4 6.5 6.5 0 0 0 .5.7s0-.9.1-2.1a5.6 5.6 0 0 0 1.2 1 13.4 13.4 0 0 0 .5 2 14.4 14.4 0 0 0 1.7-3.4 14.6 14.6 0 0 0 2.8 2.3l-.4-1.3a6 6 0 0 0 1.8 1.5s-.2-.9-.5-2.2a3.4 3.4 0 0 1 .2-.4 13.1 13.1 0 0 0 .2 1.7 5.7 5.7 0 0 1 1-1.4c1 1.3 3.5 1 3.5 1l-1.6-1.4a6.3 6.3 0 0 0 1.5 0l.6 1a5 5 0 0 1 .4-1.7 11.6 11.6 0 0 0 .6 1.6 11 11 0 0 0 .9-1.6 13 13 0 0 0 1.1 1.7 4 4 0 0 1 .2-1.3 10.4 10.4 0 0 0 2 2.6 9 9 0 0 0 .3-2.8h.4v1a3.9 3.9 0 0 1 1-1h.3l-.1-.1.3-.4a6.2 6.2 0 0 0 1.9-1 13.4 13.4 0 0 0 1.3 2.2 14.4 14.4 0 0 0 .6-3.8 14.8 14.8 0 0 0 3.3 1.4l-.7-1a6.1 6.1 0 0 0 2.2.9s-.5-.8-1.2-2a16.5 16.5 0 0 0 .5-2.3 4.1 4.1 0 0 0 0-.5 11.8 11.8 0 0 0 1.7.8 10.3 10.3 0 0 0-.6-2 6.4 6.4 0 0 0 1.9.7s-.4-.6-.9-1.5l.2-.7a3.5 3.5 0 0 0 .8.2c.8 2.3 5.3 3 5.3 3a14.4 14.4 0 0 0-2.3-3.1 14.9 14.9 0 0 0 3.4-1.3s-.2 0-1.3-.3a6 6 0 0 0 2.2-.9s-.8-.2-2-.5a6.1 6.1 0 0 0 1.1-.5 12.5 12.5 0 0 0 1 .8 5 5 0 0 1-.2-1.6 11.7 11.7 0 0 0 1.2 1.3 11.3 11.3 0 0 0 .2-1.2 11.9 11.9 0 0 0 2.1 1.7 4 4 0 0 1-.3-1.4 10.4 10.4 0 0 0 2.8 1.8 9.6 9.6 0 0 0-.6-2.5 12.6 12.6 0 0 0 1.4.3c-.7-.7-.6-1-1.5-2a6.2 6.2 0 0 0 .8 0s-.5-.6-1.3-1.6a5.6 5.6 0 0 0 1.6 0 13.4 13.4 0 0 0 1.8 1.1 14.5 14.5 0 0 0-1.2-3.7 14.9 14.9 0 0 0 3.6-.2s-.2 0-1.2-.6a6 6 0 0 0 2.4-.2s-.8-.5-2-1.2c0-.5 0-.8-.4-1.9a12.9 12.9 0 0 0 2 .9c-.5-.8-.4-1-1-2.2a11.7 11.7 0 0 0 1.4.2 9.6 9.6 0 0 0-1.3-2l.6-.2a13 13 0 0 0 1.5.6 3.1 3.1 0 0 1-.5-.9 12.7 12.7 0 0 0 1.2-.4 5.1 5.1 0 0 1-1.5-.7c1.7 0 2.8-2.5 2.8-2.5l-2 .7a6.4 6.4 0 0 0 .8-1.3h1a5 5 0 0 1-1.1-1.2 11.7 11.7 0 0 0 1.7.3 10.7 10.7 0 0 0-1-1.6 12.7 12.7 0 0 0 2 0 4 4 0 0 1-1-1 10.4 10.4 0 0 0 3.3-.3Z"/><path fill="#73bf44" d="M63.7 136.7s.3-5 2.3-8c2-3.1 3.1-1.8 4.5-6l-1.6-.6a4.3 4.3 0 0 1-1.8 3 8.7 8.7 0 0 0-3.3 4.3c-.3 1.3-1.5.2-1.5-2.1a10.3 10.3 0 0 0-1.5-4.7l-1.5.6a9.8 9.8 0 0 1 1.6 5c.3 3.5 1.4 2.7 1.3 4.7l-.3 3.8ZM60.7 136.7s-.2-5.7-2.2-8.4-1-6.6-1-6.6H55a8.7 8.7 0 0 0 .3 4.2c.7 1.9-.5 2.8-1.8 1.1a7.1 7.1 0 0 1-1.4-4l-2 .8s.4 3 2.2 4.6c1.8 1.4 4.1.4 5.2 3.4a12 12 0 0 1 .8 4.9Z"/><path fill="#73bf44" d="M55.2 136.7a8 8 0 0 1 .8-5.6c1.6-2.4 5-3.9 7.4-8.4l-1.5-1a13.8 13.8 0 0 1-3.7 4.5c-2.6 2.2-4.5 4.4-5 6.3-.3 2-2.2-1.4-3-3.1a50 50 0 0 1-1.6-6.2l-1.5.5s1 5 2.6 7.8c1.6 2.7 3.4 3.4 3.5 5.2ZM72.3 136.7s.1-6.1 1.5-9c1.3-3 .7-7.2.7-7.2H76a14.7 14.7 0 0 1-.1 4.5c-.5 2 .3 3 1.2 1.3a11 11 0 0 0 1-4.3l1.3.8s-.3 3.3-1.5 4.9c-1.2 1.6-2.8.5-3.5 3.7a19.9 19.9 0 0 0-.6 5.3Z"/><path fill="#73bf44" d="M67.9 136.7a9.6 9.6 0 0 0-.7-5.4c-1.2-2.3-3.9-3.8-5.7-8l1.2-1a13.4 13.4 0 0 0 2.8 4.3c2 2 3.5 4.2 3.8 6 .3 2 1.7-1.3 2.3-3a58.4 58.4 0 0 0 1.3-6l1.1.5a35.6 35.6 0 0 1-2 7.5c-1.2 2.6-2.6 3.4-2.6 5ZM78.8 136.7s.3-5 2.3-8c2-3.1 3.1-1.8 4.5-6l-1.6-.6a4.3 4.3 0 0 1-1.8 3 8.7 8.7 0 0 0-3.3 4.3c-.3 1.3-1.5.2-1.5-2.1a10.3 10.3 0 0 0-1.5-4.7l-1.4.6a9.8 9.8 0 0 1 1.5 5c.3 3.5 1.4 2.7 1.3 4.7l-.3 3.8Z"/><path fill="#73bf44" d="M80.7 136.7s.2-6.1 1.5-9c1.3-3 .7-7.2.7-7.2h1.7a14.7 14.7 0 0 1-.2 4.5c-.4 2 .3 3 1.2 1.3a11 11 0 0 0 1-4.3l1.3.8s-.2 3.3-1.4 4.9c-1.2 1.6-2.9.5-3.6 3.7a20 20 0 0 0-.6 5.3ZM96 136.7s.4-5 2.4-8c2-3.1 3.1-1.8 4.5-6l-1.6-.6a4.3 4.3 0 0 1-1.8 3 8.7 8.7 0 0 0-3.3 4.3c-.3 1.3-1.5.2-1.5-2.1a10.3 10.3 0 0 0-1.5-4.7l-1.5.6a9.8 9.8 0 0 1 1.6 5c.3 3.5 1.4 2.7 1.3 4.7l-.3 3.8Z"/><path fill="#73bf44" d="M93.1 136.7s-.2-5.7-2.2-8.4-1-6.6-1-6.6h-2.5a8.7 8.7 0 0 0 .3 4.2c.7 1.9-.5 2.8-1.8 1.1a7.1 7.1 0 0 1-1.4-4l-2 .8s.4 3 2.2 4.6c1.8 1.4 4.1.4 5.2 3.4a12 12 0 0 1 .8 4.9Z"/><path fill="#73bf44" d="M87.6 136.7a8 8 0 0 1 .8-5.6c1.6-2.4 5-3.9 7.4-8.4l-1.5-1a13.8 13.8 0 0 1-3.7 4.5c-2.6 2.2-4.5 4.4-5 6.3-.3 2-2.2-1.4-3-3.1a50.1 50.1 0 0 1-1.6-6.2l-1.5.5s1 5 2.6 7.8c1.6 2.7 3.4 3.4 3.5 5.2Z"/></svg>