<svg xmlns="http://www.w3.org/2000/svg" viewBox="0 0 150 150"><path fill="#73bf44" d="m77 149-1-5-1-3a1 1 0 0 1 0-1v-1h-4a263 263 0 0 0 0 11h5l1-1ZM97 110h-1v-1s0-1 0 0l1 1ZM104 67v1a2 2 0 0 1-1-1h1Z"/><path fill="#73bf44" d="M115 122v-1a2 2 0 0 0 0-1h-1l-1-1h-2v-1a2 2 0 0 0-3 1v-1l-1-1h1v-1a3 3 0 0 0-2 0l-1 1-1-1a2 2 0 0 0-2 0 3 3 0 0 1-2 0h-1 1c0-2 0-2-2-1a2 2 0 0 1 1-1h1l-1-2h2v1l1-2a3 3 0 0 0 0-1l1 1c-1 0 0 0 0 0h1l1 1c0 1 0 1 0 0h2v-2l1 2v-1h1v-1l1-1h-1a3 3 0 0 0 1 0l-2-2h-1a2 2 0 0 1-1 1h-1l-1 1v-1s-1 0 0 0a2 2 0 0 1 1-1 2 2 0 0 0 1-2l1-1a1 1 0 0 1 1 0 1 1 0 0 0 0 2v-2l2 1-1-1 2-1h-3v-1h1l1 1a1 1 0 0 0 1 0v-1l-1-1 1-1v1l1-1v1h1c1 0 0 0 0 0l1-1h-1l1-1a1 1 0 0 0-1 0l-1-2-1 1 1 1a1 1 0 0 1-1-1 1 1 0 0 0-2 0 2 2 0 0 1-2 0l1-1a1 1 0 0 0 1 0v-2h-1v-1a1 1 0 0 0 0 1v1l-1-1s1 0 0 0v-1l-1 1v-3a3 3 0 0 1 1 0h1v1l2-2-1-1-1-1v-1a2 2 0 0 0-1 1 1 1 0 0 1-1 1v-1h1-1l1-1-1-1h2a2 2 0 0 1 1-2c0-1 0 0 0 0v-1a2 2 0 0 1 1-1 1 1 0 0 0 1-1h-1v-1l-1 1-2 1a1 1 0 0 1 0-1c0-1 0 0 0 0l-1-1-1-1h-2l1-1h-2l-1-1-1-1-1 1v-1h1v-1a1 1 0 0 0-2 0 4 4 0 0 1-2-1 2 2 0 0 0 2-1h1v1-1l1 1v-1l1 1 1-1v2-1h1l1 1-1-1v-2l1 1a1 1 0 0 1 2-2c-2 0 0 0-1-1l-1 1-1 1h-2c0-1-2-1-1-3l1 1h1v-2a2 2 0 0 1 1 0v1h1l1-1 1 1-1-2 1-1a1 1 0 0 0-1 0v1a1 1 0 0 1 0-1h-1a2 2 0 0 1-1 0v-3h-2a4 4 0 0 0-2-1v1a4 4 0 0 0-2 1v-1l-1-1v-2h1-2v-1h1l-1-1v-1h1l1 1h1l-1 1h1v1-1a1 1 0 0 0 1 0 1 1 0 0 1 0-1 4 4 0 0 0 0 1h1l1-1a3 3 0 0 1 0-1l-1-1h-2l1 1-2-1a3 3 0 0 0-1-1l1 1-1 1-1-1h-1a5 5 0 0 1 2-1l-2-1-1-1h-1l1 1-1 1h1l1-1a2 2 0 0 1-2 2l-1-1h1a5 5 0 0 0-1-1l-2-2-1-2c1 0 2 0 1 1h1a2 2 0 0 1 2-1 1 1 0 0 0-1 0h-2a5 5 0 0 1-1 0v-1h1v-1l1 1v-2 1h2s1 0 0 0l1-1 1 1 1-1h1l-1 1h2v-2l2 1v-2h-1a1 1 0 0 1-1-1l-1 1h-2v-1h1-1v-2a1 1 0 0 0-1 1v2h-1c0-2-1-1-1-1a1 1 0 0 1 1 0 1 1 0 0 0 0-2 1 1 0 0 1 1 0l1-1 1-1a3 3 0 0 0-2 0h-3a4 4 0 0 0-2-1v-1h-1v-3h2l2-1h-1v-1l-1-1 1-1h2v-2h-1a1 1 0 0 1-1 1v-1h-3c1 1 0 0-1 1 1-1 0-2-1-2h-2a3 3 0 0 1-1-1s0-1 0 0c-1 0 0 0 0 0a1 1 0 0 1-1 1l-1-2c-1 0-1 0 0 0v-1 1c1-1 0-2 1-1l1-2h2v2l1-1v1-2l1-1h2v-2l-3 1 1-1-1 1h-1a1 1 0 0 1 0-1h1s-1 0 0 0l-1-2 1-1h-1v-5h1l-1-2h-1v1l-1-1v-1l-1-1V8l-1 1a1 1 0 0 1 0-1 5 5 0 0 0 2 0 8 8 0 0 0-1 0l-2-1v1-1l-1-1-1-1h1l-1-1h-1v1a26 26 0 0 0-1-5 12 12 0 0 0 0 2l-1 2h1v1l-1 1s1 0 0 0V5l-2 2v1h-1v1a1 1 0 0 1-1 0h-1l-1 1-1 1a3 3 0 0 0 3 0h-1l-1 1-2-1 1 1v1l1 1v-1h1v-1 3-1 1h-1l-1 1-1 1s0-1 0 0h1l-1 1 1-1h1v2-1l1 1 1-1v1l1 1a3 3 0 0 1-2 0l-4-1-2 1-1 2h2v2l1-1 1 2h1c0 1 0 0 0 0a4 4 0 0 0 1 0l1-1v1h-1v1h-2l-1 1h-1l1 1-2 1a5 5 0 0 1-1 0l-1-1h-1v2h-1l-1-1a5 5 0 0 1-1 0l2 1h-1l1 1h-1v1a3 3 0 0 0 1-1h2l1 1-1 1h1l1 2a2 2 0 0 0-1 0 6 6 0 0 0 1 2l-1 2h-3l1 1v1l1-1 1 1v1l1-1v1h-3v-1a3 3 0 0 0-1-1v1h-4l1-1h-1a1 1 0 0 0-1 1h1l-2 1v1c-1-2-1 0-2 0l1 1s1-1 0 0h2-1v1h1v1-1l1 1v1a1 1 0 0 0 1-1v1l-1 1h1v2l1-1h2v1a1 1 0 0 0 1 0v1h1v1-1h1v1h-1l-1 1h1l-1 1v1h-1v-1h-1v1a2 2 0 0 0-1-1l-1-1a1 1 0 0 1-2 0v1-1h1-2v-1 1c-1-1-1 0-2 1h-1c-2 0-2 2-3 3l2-1c1-1 1 0 1 1v-1a2 2 0 0 1 1 0v1h1l1 1v-1l1 1h2v1a1 1 0 0 1-2 0l1 1a1 1 0 0 1-1 0 1 1 0 0 0-1 0h-1l-1-1v-1 1s1 2-1 2h1l-1 1v1a1 1 0 0 1 0 1h-1v-1s1 0 0 0c0 0-1 0 0 0l-1 1-1-1 1-1-1 1h-2l-1-1v1a3 3 0 0 0 1 0v2c-1 0 0 0 0 0h-1c0 1 0 0 0 0h-1v1h-1 2v1h1v1h1-2v2l1 1v1-1a1 1 0 0 0 2 0l1 1v1-1h2v2h3l1-1h1-1l2 1 1-1v1l-2 1v2h-1a10 10 0 0 1-2 1c0 1 0 1 0 0l-1-1-1-1v1l-1 1h-2v-1l-1 1v-1l-1 1a8 8 0 0 1-1 0l4 1-1 1h-2c-1 0-1 0 0 0l-1-1h-1a2 2 0 0 1 0-1h-1l-1 1h-1a3 3 0 0 0-1-1l1 1-3 1h1v1h1-1a1 1 0 0 0 1 1v-1l1 1v-1l1-1v1h1v1h-1v1h-1 1l-1 3-2-1a2 2 0 0 0-1 0l-1 1h1v1h1c0-1 0-1 0 0 1 0 1 0 0 0v1s1 0 0 0l1 1 1-1v1-1l1 2h2a1 1 0 0 1 1 1v2h1v-1l1 1v-1a2 2 0 0 0 1-1h1l-1 1h1v1h1v-1h2l-1 1h2v2a6 6 0 0 1-4-1h-1l-1 1-2 1 1-1v-1h-1s1 0 0 0c0 0 0 1 0 0l-3 1c0-1 0-1 0 0h1v1a1 1 0 0 1-2 0 1 1 0 0 0 0-1h-1 1l-1-1h-1v1l-3-1h1a2 2 0 0 0-2 0h1l-1 1-1 1a1 1 0 0 0 0 1h1v1a1 1 0 0 0 1 0h1v1-1h1l1 1a1 1 0 0 1 0 1h1s1 0 0 0h1a3 3 0 0 0 0 1 1 1 0 0 1-1 0h-1a3 3 0 0 0 0 1h-2a4 4 0 0 1-1-1v1c1 0 0 0 0 0a1 1 0 0 0-1 1l1 1 1-1v1l-1 1c0 1 0 0 0 0h-1s0-1 0 0v1h-1 1v1l1 1h-1l1 1s0-1 0 0a1 1 0 0 0-1 2l1-1v1-1l1-1v-1 1h1v1h2l1-1 1 1h2l-2 1a1 1 0 0 0-1 0l-1 1a3 3 0 0 0 0 1v2l-1-1-1-1a2 2 0 0 1-1-1 2 2 0 0 0-1 0v1-2l-1 1h-1v1h1v1l-1-1-2 2 1 1v-1h2v1h1l-1 1a1 1 0 0 0-1 0h-2 1v1l-1-1-1 2v1l2 1a1 1 0 0 0 0-1l1 1v-1a3 3 0 0 1 1 1c1 1 1 2 2 1v2h1v1l1-1s-1 0 0 0h1l-1-1h1a1 1 0 0 0 1 0l1 1a1 1 0 0 1-1 1l-1 1a2 2 0 0 0-1 0h-1l1 1h1v1-1h2a3 3 0 0 1-1 2c-1 0-2 0-1 1v1h1l-1 1c1 0 2 0 2 2l1-1 1-1v1h2v1l2-1c0-1 0 0 0 0h1v-1 3h1v1l1-1v1l1-1h1l1 1v-1h1a5 5 0 0 1 0-1h1-1v1h1v1h1v-2h5a1 1 0 0 0 0-1l1-1v2a3 3 0 0 0 0 1l-1 1 1-1 1 1c-1-1 0-1 1-2l1 1v1l-1 1h1v1c-1 0-1 0 0 0l1 1a1 1 0 0 0 0 1l1-1v1l-1 1h2l1-2 1 2v-1h1c-1 1 0 1 1 1h3a1 1 0 0 0 0-1v-2a1 1 0 0 1 1-1h1l1 1h1l1 1a1 1 0 0 0 0-1l-1-1h1v-1h1v-1h1v1s0-1 0 0l1-1a7 7 0 0 0 1-1c1 0 0 0 0 0a2 2 0 0 1 0 1v1l1 1v1-2l2 1v1-1l1-1a1 1 0 0 0 1 0l1 1h1c-2-3-2-3-1-4l1 1-1 1h1l1-2v2c2 0 3 0 3-2l1 1s1 0 0 0l2 1v1-1l1 1-2-3v-1h1l1 1v1l1-1a2 2 0 0 0 1-1v1l1-1v1c1-2 0-2-1-2v-1l1-1h1l1 1 1-1s0 1 0 0v-2l2 1a1 1 0 0 0 0-1v-4 1h1a3 3 0 0 0 1 0h3l1-1-1 1h1v1-1a3 3 0 0 1 1-1l1-1Zm-12-53a1 1 0 0 1-2 0 6 6 0 0 1-1-1h2l1 1Zm-4-2a8 8 0 0 0 2-1h1v1l-3 1h-1l1-1ZM68 21h-1a1 1 0 0 0-1-1h-1 3a2 2 0 0 1 0 1ZM47 88h-2a13 13 0 0 1-3-2v-1h1v2l1-2v1h2a8 8 0 0 0 1 1v1Zm-3 26-1 1-1-1v-1l1 1v-3l1 3h1-1ZM72 14h-2v-1h1a1 1 0 0 1 1 0v1Zm-1-5h1l1 1-2-1Zm10 2v1s0 1 0 0l-1 1-1-1 2-1Zm5 30c1 0 0 0 0 0a2 2 0 0 1-2-2l-1-1h1l-1-1h2a5 5 0 0 1 1 2l2 1v2h-1l-1-1Zm1 4a1 1 0 0 1-1-1h1l1-1a2 2 0 0 0 1 1v1a2 2 0 0 1-2 0Zm6 18-1 1v-2a1 1 0 0 1 0-1l1 1v1Zm5 22-1-1 2-1c-1 0 0 0 0 0l1 1v1h1-3Z"/><path fill="#73bf44" d="M97 92c8 0 8-12 0-12s-8 12 0 12ZM89 71c7 0 7-12 0-12-8 0-8 12 0 12ZM47 121c8 0 8-11 0-11s-8 11 0 11ZM78 18c5 0 5-8 0-8s-5 8 0 8Z"/></svg>