<svg xmlns="http://www.w3.org/2000/svg" viewBox="0 0 150 150"><path fill="#73bf44" d="M118 94a1 1 0 0 0 1 1 3 3 0 0 1 1 3l-1-1v3l1 1-1 1v-1a2 2 0 0 0 0 2v1h-1v2l1 2a3 3 0 0 1 1 2h-1a5 5 0 0 0-1 1l-1-1a4 4 0 0 1-1-2 5 5 0 0 0 0-4l-1-1v-1a18 18 0 0 0-1-2l-1 2-1-1v1a2 2 0 0 0 1 1l1 1v1l-1-1-1 2v1s0-1 0 0h-1c0-2 0-4-2-5v2l-1 1c0-1 0 0 0 0v1h-1l-1-1a2 2 0 0 0 1 1 13 13 0 0 1 1 1v1h-1l1 1h-2v1a3 3 0 0 1 1 2l-1 1h-3l-2-1v-2 2h-1l-1 2c1 0 0 0 0 0v1l-1 1h-1a3 3 0 0 1 0-2h-2c0 1-1 2-2 1 0 0 0-1 0 0l-1 1 1 1-1 1v1-1a3 3 0 0 1-1-2 12 12 0 0 0 0-2l-1 1v-1a3 3 0 0 1 1-2 1 1 0 0 0 1-1 7 7 0 0 1-1-2 1 1 0 0 0 0 2s0 1 0 0l-1 1-1-1v-3h-1l-1 1v1h-1a1 1 0 0 0-1-1h-1v-1h-1v-3l-1 1v-2l2-2 1-2a1 1 0 0 1-1-1h-1a1 1 0 0 1 0-1l1-1v-2l-1-1v-4l-2 1 1-1a1 1 0 0 0 0-1h-1v1l-1-1h-1a3 3 0 0 1 1-1v-1l-1-1a2 2 0 0 0 0-2v1l-1 1-1-1-1-1a5 5 0 0 0-2 1 26 26 0 0 0-4 6l-3 5a4 4 0 0 0 0 2v8a26 26 0 0 1 0 5l-1 8v6a28 28 0 0 0 0 6 493 493 0 0 0 0 8h-7l-1-1v-6a117 117 0 0 1 2-16 110 110 0 0 0 1-12V94a17 17 0 0 0-2-8l-3-7-1-1h-1c-2 0-2 1-1 3v1l-1-1-1 1v1h-1c-2 0-1 1-1 2a12 12 0 0 1-1 1v-1l-1 1a4 4 0 0 1-1 2v1l2 2v3l-1-1v1a3 3 0 0 1 0 1l1 1-1-1v1a1 1 0 0 1-1 0 3 3 0 0 1-1-2v-1 1h-2a2 2 0 0 1-1 1 1 1 0 0 0 1 2 2 2 0 0 1 1 1l-1 2-1-1-1 1v2l1 4 1 1-2 1-2-1v-1l-1 1v-1a2 2 0 0 1 1-1l1-1-1-2v-1l1-1-2-1v2l-1-1v2l-1-1v-1h-1l1-1h1l-1-1-1-1v-1 1a15 15 0 0 0 0 2 26 26 0 0 1 0-3c-1-2 1-4 1-5a16 16 0 0 0 1-3 2 2 0 0 1 2-1l1-3-1 1v-1a2 2 0 0 1 1-1 1 1 0 0 0 1-1 1 1 0 0 0 0-1h-3l-1 1h-2l-1 1c-2 1-2 0-2-1-1 0 0 0 0 0l-1 1-1-1v-1 1h-1v-1l1-1 1-2v-1h-1l-1-1-2-1h-2a4 4 0 0 1 0 1h-1l-1-2v-1l2-2 2-3a3 3 0 0 1 1-1v-1a1 1 0 0 0-1 0c0-1 2-1 1-3v1a3 3 0 0 1 1-2 1 1 0 0 0 0-1 7 7 0 0 0-1-1v-1l1-1h-1a3 3 0 0 1-1-1l-1 1-1-1h-1v-2l-1 1a1 1 0 0 0 0 1 2 2 0 0 0 2 0c-2 1-1 1 0 2v1h-1v-1h-1v2l-1-2-1 2-1 1h-1v1h-1l-1-2v4l-1 1v-1l-1-4-1 3v2a2 2 0 0 1 0 1l-1-1v1l-1 1v-1h-2v-1a1 1 0 0 0 0-1v1a3 3 0 0 0-1-2 3 3 0 0 1 0-2 19 19 0 0 0 0-3l2 1v1h-1l1 2h1v-1a6 6 0 0 1 0-2v-4 1-3l-1 1v-1a1 1 0 0 1-1 1l-1-2-1 2-1-1v1l-1 1-1-2-1-1a9 9 0 0 0-1 0l3-1a6 6 0 0 0 1 0c0 1 0 0 0 0v-1l1-2a3 3 0 0 0 0-2l1-1h3l-1 1a1 1 0 0 0 0 1l1 1 1-1v-2h1v-2l-1 1 1-2v-1h-1l-1 2-1 2v-1h-1l-1-1a2 2 0 0 0-2 0 13 13 0 0 0-1 3 3 3 0 0 1-1 2l2-5v-2l-1 1H5l1-1 1-1a1 1 0 0 1 0-1h1v-1l1 1 3-2 2-1v-1l3-1 1 2c-1 1 0 1 1 1h2a7 7 0 0 0 4 1 1 1 0 0 1 1 0l5 1h1l1-2h-1a1 1 0 0 0 0-1h-1a1 1 0 0 1 1-1h1l-1-1h1l1-1h1a12 12 0 0 1 0 6v1l1-1 1 2h1v-3l1-1 1-1v-1a3 3 0 0 1 3-1v1a3 3 0 0 1 1 1v1l-1-1v2a1 1 0 0 1-1 0 1 1 0 0 0-1 1 1 1 0 0 0 0 1h3l2-1h-1v-2h1v-2l-1 1v-2h-1 1l-2-3h-1a2 2 0 0 1-1-1v-1h-1v-1c1 0 1 0 0 0a11 11 0 0 0-2-2l-1 1a7 7 0 0 1 0 1l-1 1v-1l-1-2a29 29 0 0 0-5 0h-1v2-1l-1 1v-1h-1v1l-1-1-1 1h-2a20 20 0 0 0-4 3 7 7 0 0 1 2-2 14 14 0 0 1 3-2l1-1h-1c-1 0 0 0 0 0v-1a15 15 0 0 0-2 2h-1l-1-1a1 1 0 0 0 0-1l1-1 3-1 2 1 2 1 2-1v-2a2 2 0 0 1 0-2l-1-1v2l-1-1a3 3 0 0 1 0-1h1l-2-1 2-1h1l1-1v-1h1v1a1 1 0 0 1 2 2v1l1 1a1 1 0 0 0 0 1h2v1h2a9 9 0 0 0 0 2v1-1l1-1v1l-1 1v1l1 1h1v-2a8 8 0 0 0 0-3v1l-1-2v1a1 1 0 0 1-1-1h-1l-1-1 1-1a7 7 0 0 1 2 0l1-1 4-3a8 8 0 0 0 1-1 2 2 0 0 1 2 0 14 14 0 0 1 4 1 1 1 0 0 0 1 0h1l-1-1a1 1 0 0 1 2 0h1a2 2 0 0 1 1 0h1-1v1h2a2 2 0 0 1 1 0h1v1l-3 1 1 1v1h1a6 6 0 0 1 1-1l1 2 4 1 2-1-1-1 1-1a2 2 0 0 0 0-1 1 1 0 0 1 2-1l1-1v-1l1 1a2 2 0 0 0 0-3 3 3 0 0 1 0-1 1 1 0 0 1 0-1l1 1v1h2l2 1v2a7 7 0 0 1 3 1l1-1a1 1 0 0 1-1-1h1l4 1h1l1 1a18 18 0 0 1 5-1 9 9 0 0 1 3 1h-1v1l2 1v1h-1l-1-1-2 1 2 2-2-2-1 1h-2a8 8 0 0 1 0-2l-1-1-3 1-1 1h1a2 2 0 0 1 1 2v1a8 8 0 0 0 2 0l1-1h2l1-1 1 1h-1l-1 1v1h1a9 9 0 0 1 1-1h1c0 1 0 0 0 0v-1c1 0 2 0 2 2h1a1 1 0 0 1 1 1 1 1 0 0 0 0 1l2 3h-2v1a1 1 0 0 1-1-1v-1 1h-1l-1-1v3a2 2 0 0 1 1 2l1 2a3 3 0 0 1 2 0l4 1 1-1h1a1 1 0 0 0 1 0 1 1 0 0 1 0 1l1 1 1 1h1l-1 1h2l-1 1v1a3 3 0 0 0 0 2v1h-1l-1-1v1h-1a2 2 0 0 0 0-1l-1 1-1-2v1h-2a1 1 0 0 0 1 1 2 2 0 0 1 1 1v1l1 1v1l2 3a2 2 0 0 0 2 0h1l-1 1 1 1 1-1v-1l-1-1h2l-1-1v-1h1v2l1 1-1 2a4 4 0 0 0 2 2l2-1a1 1 0 0 1 1-1v-4h3v1h1l1 1a2 2 0 0 0 0 1h2-1a2 2 0 0 1 0 2l-2-1h-1a1 1 0 0 1-1 0v2a2 2 0 0 0 2 0 1 1 0 0 1 1-1h1l2-1 2 1c1 1 1 0 2-1h4l1 2h-1l1 1 2 2-1 1c0-1 0-1 0 0h-2l1 1 1 1 2-1a2 2 0 0 1 2 0 1 1 0 0 0 1 0h1l1-1v-1h1v-2a1 1 0 0 0 0-2h3v1a2 2 0 0 1-1 0c2 0 1 2 2 3l1 2a3 3 0 0 1 2 1 3 3 0 0 1-1 0 3 3 0 0 0-2-1c-2 0-1 0-1 1l-1 2h-1a1 1 0 0 1 0-1 12 12 0 0 1 0-1l-1-1a3 3 0 0 1-1 0 2 2 0 0 1 1 2v1h-2a4 4 0 0 1 0-2c1-1 0-1 0 0h-1v1h-1a2 2 0 0 0 1 1 2 2 0 0 1 1 2l-1-1a2 2 0 0 0-1 2 17 17 0 0 1 1 3 1 1 0 0 0 1 0l2 2h1a3 3 0 0 0 1 3 3 3 0 0 1 2 1l2 3v2l-1 1v1l-1-1v-1l-1 1-1 1v1l-1-1-1-3v1h-1v-1a4 4 0 0 0-1-1v1a1 1 0 0 1-1 0 4 4 0 0 1 0-2l1-1v-1l-1-1c1-1-1-2-1-3h-1v-1h1l1-2a16 16 0 0 0-2-3v-1l-1 1s0 1 0 0l-1-1v-2h-2s0 2-1 1l1 1a11 11 0 0 1-2-1h-1c0 2 0 2 2 2a3 3 0 0 1 1 0l1 1h1v2h-1v-1c0 2 0 2-2 1l-1 2h1l1 2-1-1a1 1 0 0 0-1 0s0 1 0 0l2 2a1 1 0 0 1 1 0v2h-1 1l1 2-1 1v2h1v1h-1l2 4h1v1h-1l1 2 1 1v1h1v1l1 1-1 1h-4a1 1 0 0 1 0-1 1 1 0 0 0-1-1h-1v-1l-1 1h-1v1c2 0 1 1 2 2v1a2 2 0 0 1 1 1c1 1 0 1-1 1l-1 1-1-1v-2 1h-1a3 3 0 0 0-1-2l-1-3a13 13 0 0 0 0 3 1 1 0 0 0 0 1 2 2 0 0 1 1 2 2 2 0 0 0 1 2h-1l2 5-1-1v2a1 1 0 0 0 0 1l1 1v1l-1-1v1h-1v-1h-2l2-1v-1a1 1 0 0 0 0-1 2 2 0 0 1-2-1h-1a3 3 0 0 0-2-2v-4l-1 1h-1v-1l-1 1v-1l1-1 1-1a12 12 0 0 1 2-2h-1l-1 1a2 2 0 0 0 0-4l-1 4-1-3a6 6 0 0 0 0 3l-1 3-1-1a6 6 0 0 1 1-1v-4h-1l-1-2a7 7 0 0 0 1 3 2 2 0 0 1 0 3c0-2-1-1-2-1v-2l-2-1h-1l-1-1v5a2 2 0 0 0 1 3 1 1 0 0 0 1 0v-1a1 1 0 0 1 1-2h1v-1Zm-17 10c-2 0-2 1-1 2l-1-1-1 1v2a4 4 0 0 1 2-1v-1l1-2v-2l-1-1h-1v1l2 2Zm7-9 1 1v2l1 1v-1a16 16 0 0 1 0-2v-1c-1 0 0 0 0 0v-1l-2 1 1-2a3 3 0 0 1-1-1l1-2-1-1-1-1v1h-1a2 2 0 0 0 1 2l1 2v2ZM74 17a2 2 0 0 0-2 0v1a3 3 0 0 1 1 2 1 1 0 0 0 1 0h1l1-1v1a1 1 0 0 0 2 1v-1a3 3 0 0 1 0-2l-1-1c0 1 0 1 0 0h-2a1 1 0 0 1-1 0Zm59 67h-1v-2l-1-1h-1a4 4 0 0 0 0 2l2 3a2 2 0 0 1 1 2v1h2a1 1 0 0 0 0-1 9 9 0 0 1 0-2h-1l-1-1a9 9 0 0 1 0-1Zm-65 5a42 42 0 0 1 3-4 21 21 0 0 1 4-3h-1a1 1 0 0 1-1 0l-2 1v1-2h-1l-2 7Zm53-31-2 1v1l-3 2h3a1 1 0 0 1 0-1l1 1a4 4 0 0 0 2-1l-1-2a9 9 0 0 0 0-1Zm11 9v-1h-2a5 5 0 0 1 0-1 2 2 0 0 0-1-2h-1v1h-1l2 3v2l1-1a1 1 0 0 1 1 0h1a1 1 0 0 1 0-1ZM43 87a1 1 0 0 0 0 1 21 21 0 0 1 0 4c-1 1 0 1 1 1a3 3 0 0 0 1-1h-1l1-2-1-1s0-1 0 0l-1-1v-1ZM16 39l-1 1v-1h-3l1 1a2 2 0 0 1 1 1h-2l1 1a4 4 0 0 0 3-1v-2Zm103 44h1v-2h-1a8 8 0 0 1-1 2 5 5 0 0 0 0 2c-1 1 0 1 1 1v-1l-1 1v-1l1-1v-1Zm-16-35a3 3 0 0 1 0-1v-1h-1v1l-1 1v3l1-1h1v-2ZM82 23l3 2a1 1 0 0 0 0-1h2v-1a25 25 0 0 1-3 0h-2Zm49 33-1 1h-1l1 1h1v1h-1s0-1 0 0a2 2 0 0 0-1 1h3a2 2 0 0 0 0-2 3 3 0 0 1-1-2ZM41 73l3-1-1-1-1-1h-1a1 1 0 0 0 0 1l1 1v1h-1Zm2 9a5 5 0 0 0 0-2l-1-1v4l1 1a1 1 0 0 0 0-1 8 8 0 0 1 0-1Zm1-51c0 1 0 2 1 1v-4l-1 1a4 4 0 0 1 0 2Zm-6 59a9 9 0 0 0-2 1l1 3h1l-1-1v-1a2 2 0 0 0 1-2Zm-5-28-1 1h-1l2 2a12 12 0 0 0 1-1v-1c-1 0-2 0-1-1Zm24-40v-1a9 9 0 0 0-2 1h-1l-1-1h-1a7 7 0 0 0 0 2h1l4-1ZM32 47a12 12 0 0 0-3 1v2h1a14 14 0 0 1 2-2h1l-1-1Zm50-22a3 3 0 0 1-1-2l-1-1v1l-1 1v1l1-1 2 1Zm46 47c1-1 0-1-1-1v1a4 4 0 0 0 0 1h1v-1Zm-4 1h-1a3 3 0 0 1 0 2v1l2-1v-1l-1-1ZM24 41l-2-1a3 3 0 0 1-1 1h-1a2 2 0 0 0 1 1 4 4 0 0 1 2-1 2 2 0 0 0 1 0Zm-3-2a5 5 0 0 1-1 0 7 7 0 0 0-2 0h-1l1 2a4 4 0 0 1 3-2Zm12-13a2 2 0 0 0-1-2h-1v1l2 1Zm-2 16a6 6 0 0 0 1 2c1-3 0-4-3-4l3 2ZM21 57v-2l-1 1v3h1a4 4 0 0 0 0-2Zm82-17-1 1v1h2v-2a11 11 0 0 0-1 0Zm14 30h1l1 2v-2a2 2 0 0 0 0-1l-2 1ZM41 91v1a5 5 0 0 0 1 1v-1l1-2h-1c-1 0 0 0 0 0v1h-1Zm66 11v-1h-1a3 3 0 0 0-1 2h1l1-1Zm38-25h-1a4 4 0 0 1 0-2h-1c-1 2-1 2 1 2h1ZM34 39l-1 1v1a5 5 0 0 0 1 2v-4Zm-1 39 1 1 1-1-1-1-1 1Zm10 11v-3l-1-1a1 1 0 0 0-1 1l2 3Zm60-9s-1 1 1 1v1h1a1 1 0 0 0 0-1 1 1 0 0 0-1-1 1 1 0 0 1-1 0ZM54 23l1 1h1v-2a7 7 0 0 0-2 1ZM5 63h1l2 2s0 1 0 0a3 3 0 0 1-1 0v1a2 2 0 0 1 1 1H7l-1-1 1 3v2a2 2 0 0 0-1 1v1l-1-1H4v-3a2 2 0 0 0 0-2 1 1 0 0 1 1-2 1 1 0 0 0 0-1v-1Z"/><path fill="#73bf44" d="m141 53-2-1-1 1h-1a3 3 0 0 0-2 0l-1-1a2 2 0 0 1-1 0h-1 1v-1l1-1h2c1 0 1 0 0 0v1h1l3-2-1 2v1h1l1 1ZM80 105a1 1 0 0 1 0-1 4 4 0 0 0-1-2l-1-1a1 1 0 0 0 1-1h1l1-1h1a12 12 0 0 1 1 1v1h-1l1 2a1 1 0 0 1-2 0l-1 1v1ZM18 26v1l1 1h-1v1a1 1 0 0 1-1 0 2 2 0 0 1 0-2v-1l-1 1v1a1 1 0 0 1-1 1v-1c0-2 1-2 2-2a12 12 0 0 0 1 0ZM10 69l-1 2v1l-1-1v-1a1 1 0 0 1 1-2l1-1a3 3 0 0 1 1 2h-1ZM3 48l-1 1v1l-1-1v-1l-1 1v-1a2 2 0 0 1 1-1 1 1 0 0 1 1 0l1 1 1 1H3v-1ZM147 62a4 4 0 0 1 1 4v1a1 1 0 0 1-1-1v-4ZM115 110v1l-1-1h-1a2 2 0 0 1 1-1 1 1 0 0 1 1 0 4 4 0 0 1 1 1v1h-1v-1ZM101 116v-2a1 1 0 0 1 1 0 20 20 0 0 1 0 3h-1v-1ZM26 21v-1l-1 1-1-1 1-1 1 1v1ZM133 99a2 2 0 0 1 0-1 1 1 0 0 1 1 0 5 5 0 0 1 1 1 1 1 0 0 1 0 1h-2v-1ZM38 33l1 1a1 1 0 0 1-2-1v-1l1-2v2a1 1 0 0 1 1 0v1a5 5 0 0 0-1 0ZM43 76c5 0 5-8 0-8s-5 8 0 8ZM35 80c5 0 5-8 0-8s-5 8 0 8ZM33 68c5 0 5-8 0-8s-5 8 0 8ZM31 53c5 0 5-8 0-8s-5 8 0 8ZM18 60c5 0 5-8 0-8s-5 8 0 8Z"/><path fill="#73bf44" d="M19 60c5 0 5-8 0-8-6 0-6 8 0 8ZM45 85c5 0 5-8 0-8s-5 8 0 8ZM54 27c5 0 5-8 0-8s-5 8 0 8ZM104 84c5 0 5-8 0-8-6 0-6 8 0 8ZM119 87c5 0 5-8 0-8s-5 8 0 8ZM123 77c5 0 5-8 0-8s-5 8 0 8Z"/><path fill="#73bf44" d="M126 76c5 0 5-8 0-8s-5 8 0 8Z"/><path fill="#73bf44" d="M119 75c6 0 6-8 0-8-5 0-5 8 0 8ZM119 65c5 0 5-8 0-8s-5 8 0 8ZM103 90a4 4 0 0 0 4 4h1a4 4 0 0 0 2-1l1-1a4 4 0 0 0 0-2 4 4 0 0 0-4-4h-1a4 4 0 0 0-2 1v1a4 4 0 0 0-1 2Z"/><path fill="#73bf44" d="M108 100c5 0 5-8 0-8s-5 8 0 8Z"/><path fill="#73bf44" d="M105 105c5 0 5-8 0-8s-5 8 0 8Z"/><path fill="#73bf44" d="M99 107c5 0 5-8 0-8s-5 8 0 8Z"/><path fill="#73bf44" d="M98 110c6 0 6-8 0-8-5 0-5 8 0 8ZM100 53c5 0 5-8 0-8s-5 8 0 8ZM130 62c4 0 4-6 0-6s-4 6 0 6Z"/><path fill="#73bf44" d="M127 66c4 0 4-6 0-6-3 0-3 6 0 6Z"/><path fill="#73bf44" d="M129 70c4 0 4-6 0-6s-4 6 0 6ZM81 28c4 0 4-6 0-6-3 0-3 6 0 6Z"/><path fill="#73bf44" d="M85 29c4 0 4-6 0-6s-4 6 0 6Z"/><path fill="#73bf44" d="M84 28c3 0 3-6 0-6-4 0-4 6 0 6ZM23 46c3 0 3-6 0-6-4 0-4 6 0 6ZM144 78c3 0 3-4 0-4s-3 4 0 4ZM32 26c3 0 3-4 0-4-2 0-2 4 0 4Z"/></svg>