<svg xmlns="http://www.w3.org/2000/svg" viewBox="0 0 150 150"><path fill="#73bf44" d="M86 150h-7.5s.1-4 0-5.5a113 113 0 0 0-1-9.6 41 41 0 0 1-.8-6 14.3 14.3 0 0 0-1.9-6.5h4l1.2 6c.4 2.5 1.5 6.5 1.8 8.3.2 1.9.4 5.7.7 1.9.3-3.9.1-7.3.2-8.7V123h3.7l-.2 8.3A176.7 176.7 0 0 0 86 150ZM133.6 82.2l-.4.4 1.9.6-.5-.8-.8.2-.2-.4zM128 58.9l-.3.2v.1l.3-.3z"/><path fill="#73bf44" d="m139.2 122.5.3-1.1-1-1 1.1-.8-.6-.2-1-2.3-.9-.2-1-.3.8-.8-1-.6 1-.8-2.1-.3 1-1-2.1-1.3.7-1.3-1.5-.1.7-1.1-1.9-.4 1.6-1.2-1.5-.5.6-.6-1.6-.5 1-.7-1-.2 1-1-.8-.8 1.2.2-.3-1.4c-.4-1.4 1.2.5 1.2.5l.5-.7 1.2 1 1.6-2.5-1.4-.4 1.6-1.1-.4-.5h-1.8l1.7-1.1-2.4-2.9.9-1.3-1.6-.4 1.3-.9-1.6-1.3 1 .1.4-1.2 2.2.8-.5-1 1.2.2-1-3.3-1-.8.6-.3-1.2-1 .8-.7 1-.7-.3-.5 1-.1-.5-1 1-.2-.7-.8-.2-.7.5-.2s-1.8-1.1 0-.4l1.7.8-.9-1.5-.7-.5h-.3v-.9l-1-.4 1-.5-1.2-.4.3-1.1-.7.3-.8-.9h-.8l.4-1-.5-.1-.3-.6h-.2l.6-.4-.6-.7h1.3v-1.1H133l1.5-1.3h-.9l.6-1.1-1-.7 1-.8-1.3-.4.9-1-1.2-.2 1-1.1h-1l1-1.7-1.4.1v-1.3l-1.2.3-.8-.7.3-.6-1.4.4-.5-1.1.4-.2-1-.8-.2-1.8 1.8 1.3.7-1.3 1.2 1.4 1.2-.4.9 1.2 1-.7.9 1.5 1.2-.5 1.2 1 .7-1.3c.7-1.4 2.2-.3 2.2-.3l-1.3-1 .6-1-1-1.4.2-.8-1.1-1 1-.4-2.4-1.9 1-.8c1-1-2-1.1-2-1.1l2-.7-1.4-1.1 1.3-1.1-1.2-.5.8-1-1.6-.5 1-.9-1.2-.7-.3-1.3-1.2.3-.2-1.5-1.4 1-.7-1-.8.7-1.4-1-.2.3-1.8-.6.8-1.4-1.9-.5 1.4-.7-1.5-1 1-.4.6.7.8-1 .7.6.3-.6.4.8.7-.6 1.5.5v-1.3l1.6.3v-1l1.7.7-.3-1h1l-1.4-1.4h1.4l-.2-1a.7.7 0 0 0-1.2-.6V28l-.8-.3-.5-1.6-.7.6-.9-1.2-.8.5-1-1-.7.7-.4-1-1 .9-.8-1.4.8-1-1.7.2-.8-1.1-1.4.6-1.2-.9.4-.2-1-1.2-.5-.7.6-.6-1.4-.5-1.4-1-.5-.3-.3-1-1.6-.4.6-.8-2.1-1.5-1.4.3-2.2.6-.8-1-1 .8-.5-.9-1.4.3-.5-.4-.6.7-1.5-.4V15l-2.4-.6v-.3l-1 .6-.7-.9-1 .1.3-1.5-1.3.5-2.6-2-.9.4-.5-1s-.1 1.4-1 .3l-.8-1.1s0 1.8-.8.8l-.8-1-.7.8-2.6-.5-.4.6-1.2-1.6-1.3 1-.2-1.9-1.8.8-1.2-.5-.8 1.6-.3-.2-1 .1-.4-.1v.2l-.1-1.5-1.2-.2.9-1.3-1.4-.5.8-.8-.5-.6 1.8-.1.4-1.3-1.5-.4.3-1.7-1.2.6L78 .2l-1 .4-1.6-.6-.1 1.5-1-.8-1 1.3-1 .2.7.8-1 .5.4 1-1 .5v.7L70 6l-1 1-.7-.5-.7 1.3-1.2-.9-.7.8.2-1-2.2.4.2-1-1.3 1-1.3-1.7-1.9.5V5l-1.3.3-.4-.6-.5.4-1.1-.3-.4.8-.9-.6-.6.7-1.8-.4-1.1-.3L49.5 6l.4.7-1.2.4-.3.7-.4.3-1.2.8-1.1.4.4.5-.4.6-.8.9.7.4-.6.3 1.6.7-.9.5-.3.7h-.8l-.2.8-.9-.9-.6.6-1-.7-.7.8-1-.7-.3.7-.6-.5-.7.8-.7-.4-.8 1-.5-.5-.4 1.3-.8.2V18a.6.6 0 0 0-.8.4l-.2.9h1l-1 1.1.7.1-.2.8 1.4-.6v.8l1.4-.2v1l1.2-.4.5.5.7-1.4.9.6 1.5.8-1.2.8 1.1.5-1.5.4.6 1.2-1.4.5-.1-.3-1.2.9-.6-.7-.6 1-1.2-1-.2 1.3-1-.2-.2 1-1 .6.8.7-1.3.5.7.7-1 .5 1 .8-1 1 1.6.5s-2.5.2-1.7 1l.9.6-.6.5-.6-.8-.8 1.1-1.4-.9-.1.3-1.4-1-2.4 1.9-1.8-.8-1 1.4-2-.3 1 1.3-1 1.7h-1.4l.7 1.3h-1.4l.4 2.3-1.5.3.1 1h-1.5v2.3h1.5l-.4 1.1h.8l.3 1.8.8 1.3.8-.8 1 1.3.9-.9 1.2.6.1-1.5 1.6.2-.4-1.4 1.3.5-.2-1.7 1.1.8.5-1c.4-1 .7.6.7.6l1-.7v1.9l2.5-1 .6 1.4 1.3-.6v1l1 1-1.5.4-1.5 1.3 1.4 1.2-1.6.7.8.5.6 1.4-2-.3v1.4h-1.7l-1.4 1.3.4 1.3-1.6.2.7 1.3-1 .3-.8 1 .8 1.7 1.3-1.4-.5 1 1.7-.3c1.7-.4-.4 1-.4 1l-.5 1.4 1.8-.8.4 1.1 1-.3c.8-.3.1.8.1.8l.4-.1.3 1.2H30l.8 1.7-.5.7h-1l.2 1.4-1.2-.5.6 1.3-1.1.6.7.3-2.2 1.8 1.9.6-1.5 1 1 .4-1 1.2 1.2.5-.3.3.7 1-1.3 1.3-1-1.3-1 .4-.8-1-1.5 1-1.4-1-.7 1.6-1.7-.6.4.8-1 .9-1.5-.5.1 1.6h-1.6l1 2h-1.2l1.2 1.3-1.4.3 1.1 1.1-1.7.6 1.3 1-1.2.8.7 1.4h-1l1.8 1.4-1.5.1v1.4H16l-.7.8 1.4 1-2 .4.6 1.2h-1l-1 1-.9-.3.5 1.3-1.4.6 1 .6-1.2.5v1H11l-1 .7-1 1.8 2.2-1c2-.9 0 .6 0 .6l.5.1-.2.9-1 1 1.3.2-.6 1.2 1.3.2-.4.6 1.3.8.7-1.2.9.3.2-.5 1.2 1 .6-1.5c.6-1.3.7.4.7.4l.7-1 1.3-.3.1 1 1.3.5-1.5.8.5.8-1.8.8 1.2.8-.8 1h1l-.4 1.3c-.3 1.4 1.3.2 1.3.2l.6.1-.1 1.2.2.8 1.9-.4-.6 1.2 1.4-.3.2 1.2 1.4-1 .7.6 1-.7 1 .7.5-1.7.2.7 1.3-.2 1.1 1-1-.3.4.8-1.5 1.5-1-.2.7.8-2 .4.6.9-.6.5.8.6-.4 1 .5 1.2 1.6-.7-.2 1 .7-.7.5 1.2 1-.7-.4.9 1 .5-1.3 1 .8.2-.4.9 1.2 1 1-1.7.1.5 1.2-.9v1h1l-.2 1.5-.2.6 1 .5-1.2 1.1h1.3l1.4 1 .4-1.4.5.3.6-1.7 1 .4.5-1 .8 1 .7-1 .2.4-.2 1.1h.8l.5 1.3.7-1.2.8.5 1-1.1v.8a4.7 4.7 0 0 0 .8.4l-.5 1.2 1.2-.1v1l1.6 1-.2-1.4 1-.4-.1-1 .9-1 1 .9a4.6 4.6 0 0 1-.6.6h.2l.1.8 1 .6.6-.6.3 1 1.4-.8v1.2c0 1.2.6-.4.6-.4l1 1v-1.8l1 .3v-2.2l1 .6-.6-2.2 1 .4 1-.5.5 1.7.5-.9.4.6 1.1-.2 1 1 1.1-.6v.9l1-.5.2.7v-.6l1.2.6.2-1 .6.3c.6.2-.5-1.8-.5-1.8l1.2.2-.2-1 .5-.7-.2-1.7 1.7.8-.3-1.8 1-.4-.3 1.5.7-.9.5 1.9.3-1 .7.5.2-1 .6.8.3-2.1.7.6.1-1.6.5.4 1-.8.2.4 1 2.4.7-1.6 1.2 1 1.2-1.6.4 1.2h1l-.2 1.2 1.4.9.4-1.8.2-.5 1 1.2c1 1.1.5-1.5.5-1.5l1.7.5.6 1.4.6-1.1.6 1.6 1.1-1.7.5 1.7.4-.8.2.8 1 .2-.8 1.4 3.4.2-2 2.1 2.6-.7-.4.8 1.4.3-.8 2 2.4-1 .5 1.3c.5 1.3 1.5-.6 1.5-.6l-.3 1.5 1 .4 1-.1-.3 1.7 1.7-1.3-.7.8 1 .4 1 1.2 2 1.7c2 1.6.7-1.8.7-1.8l1.5 1.4 1.3-1.3.2.8 1.6.6v-1.4l-.2-1.6.7.6 1.4-1.2 1.4.4-1 2.4 2.2-1v1.7l1.4 1 1.1-1.7.3.5 1.7-.3-.8-1.4-.2-1.7 1.1-1 1 2.2 1.3-1.1 1.3 1.5.7-1.4 1.3.7.4-1.9.5.4 1.6-2.2-1.7-1 1.4.2-.5-2 1-.2-.6-.8h.8l-.3-.4.8-1.9-.5-2h.1l1-1.6.5 1.2a1.6 1.6 0 0 0 1.4 1.3l.8-1.4c.8-1.4 1.7 1.3 1.7 1.3l.8-1.9 1 1.5.6-1 1 1 1.8.6-.6-2 1.1.2Zm-4.6-40.1.5.8-1.9-.6.4-.4.2.4ZM128 58.9l-.3.3Z"/><path fill="#73bf44" d="M81.3 131.2c5.1 0 5.1-8 0-8s-5.1 8 0 8Z"/><path fill="#73bf44" d="M81.8 138c5.1 0 5.1-8 0-8s-5.1 8 0 8Z"/><path fill="#73bf44" d="M82 140.7c5 0 5.1-8 0-8s-5.1 8 0 8Z"/></svg>