<svg xmlns="http://www.w3.org/2000/svg" viewBox="0 0 150 150"><path fill="#73bf44" d="M71.9 94.4a5.8 5.8 0 0 0 1.7-3.3c0-.6-.4 0-1.3.7a4.6 4.6 0 0 1-.9.6 58.2 58.2 0 0 0 .5 2Z"/><path fill="#73bf44" d="M75.8 87.7c-.3-1.4-.8.4-1 1a19.6 19.6 0 0 1-.8 3.8 5.4 5.4 0 0 1-2 2.7c.6 2.1 1.3 4.5 1.8 7 .7 3.3 1.1 6.4 1.4 7.3.2.9.5-1.6.6-2.4 0-.8.6-5.2.8-6.3l.7-6.8a3.6 3.6 0 0 0-.4-3 12.3 12.3 0 0 1-1.1-3.3Z"/><path fill="#73bf44" d="m102.7 57.3.1-.4a11.7 11.7 0 0 0-1.7-.5 4.5 4.5 0 0 1-1.8-.7 36.2 36.2 0 0 0-4.3-1.9 6.5 6.5 0 0 0-4-.7 11.9 11.9 0 0 0-4.3 1.3c-1.2.4-.8-1.2-.7-2.1l.4-2.7-2-.2-1 6a627 627 0 0 1-1.6 11c-.3 2-.7 2.5-1.2.6a58 58 0 0 1-.7-3.6l-1.2.4s.5 3.7 1 5.5a26.4 26.4 0 0 1 1 6.9c0 2.3-1.1 7.5-1.4 10-.3 2.7-.8 4.2-1.1 3.8a31 31 0 0 1-1.7-4.1c-.4-1.3-1.3-.7-2 .3-.4.9-.8 3.7-3.2 5.4-.5-2.4-1-5.6-1.3-8.3-.3-3.6-1.2-8.5-1.5-11l-1-7.2c-.4-2.8-.8-4.8-1-7.5a51.5 51.5 0 0 0-1-5.3l-3.2.2 1.4 7.8 1.1 8.3c.3 2 .5 3.7-.1 3.1a13 13 0 0 0-7.4-3.6v1.6a8.6 8.6 0 0 1 4.2 1.6 29 29 0 0 1 3 3.1 2.8 2.8 0 0 1 1 2c.3 1.1.6 6.5.8 8.5l.8 7.4c.3 2 1.5 7.7 2.2 10.7.6 2.9 1.2 8.8 1.6 10.4.4 1.7 1.5 5.7 1.8 7.9.2 2.1 1.7 14.2 1.9 16.9L75 150h7.4l-.8-11.5c-.4-6.1-1.4-13-1.4-19a133.6 133.6 0 0 1 .9-17.2c.8-7.3.5-4.4.5-5.7.1-1.4.8-1 1.4-2.3.6-1.2 2.3-2.6 3.3-2.3a6.2 6.2 0 0 1 2.4.8 6.3 6.3 0 0 1 1.8 2.4c.4 1.1.4 2 1.2 2.5a24.7 24.7 0 0 0 2.3 1.2 1.9 1.9 0 0 1 .9 1.3c0 .6-.1 2.9 1 4l.4-.3a4 4 0 0 1-.8-2.4c-.2-1.6-.2-2 .5-1.8l3.2 1.2.2-.5-3-1.1a24 24 0 0 1-2.6-1.4c-.8-.4-1.8-.7-2.1-1.6a7.8 7.8 0 0 0-1.7-3.3 9 9 0 0 0-3.4-2 3.6 3.6 0 0 0-2.5.7 17.3 17.3 0 0 0-1.7 1.7c-.2.2-1 1.3-.8 0l.9-4c.2-1.4.2-3.4.4-4.3.1-1 .1-1.3.5-1.7a4.8 4.8 0 0 0 1.7-1.5 10 10 0 0 1 4.6-2.8l5.1-1.4c1.2-.3 2-.4 2 0-.1.4-.5 1.5.4 1.8a22.7 22.7 0 0 1 2.6.6l.4-.5a4.6 4.6 0 0 0-1.5-.6c-1-.2-1.4-.4-1.2-.9.2-.5.4-.7 1.2-.8l3.2-.6-.2-.8-3.9.6c-1.6.1-3.5.2-5.2.6a19.2 19.2 0 0 0-4.9 1.4 22.6 22.6 0 0 0-2.8 1.8c-.8.6-1.7 1.6-1.7 1.2l.6-4.6a28.9 28.9 0 0 1 .4-4 10.3 10.3 0 0 1 2.7-2.6 6.8 6.8 0 0 1 4.3-.6 4 4 0 0 1 2.4 2.4c.4 1 .6 3.5 3 3.7s3.1-.8 5.6 0l.2-.5a5.7 5.7 0 0 0-2.2-.3 17.5 17.5 0 0 1-3.2.2c-.6 0-1.3-.5-1.4-1-.1-.4.6-.1 1.5 0a5.7 5.7 0 0 0 2.3.3 6.2 6.2 0 0 1 2.9 0l.1-.5s-.3-.2-1.9 0a7.2 7.2 0 0 1-3.3-.3A3.2 3.2 0 0 1 95 72c-.4-.9-1.4-2.8-2.4-3.3-1.1-.6-2.7-.7-5.1-.2-2.4.5-3.5 2.1-3.3 1.1l.6-5.2c0-1.5.6-6.2.8-7.6.2-1.4 1.5-1.4 2.3-2a6.4 6.4 0 0 1 6.2-.5c2.8 1.3 4.9 1.4 5.7 2.5.7 1 .6 2.4 2 2.9l.2-.5a3 3 0 0 1-1.2-1.5c-.4-1 .7-.8 1.8-.4ZM72.3 91.8c.9-.7 1.3-1.3 1.3-.7a5.8 5.8 0 0 1-1.7 3.3 47 47 0 0 1-.5-2 4.6 4.6 0 0 0 1-.6Zm5 2.2-.7 6.8-.8 6.3c0 .8-.4 3.3-.6 2.4-.3-.9-.7-4-1.4-7.3-.5-2.5-1.2-4.9-1.7-7a5.4 5.4 0 0 0 2-2.7 19.6 19.6 0 0 0 .7-3.7c.2-.7.7-2.5 1-1a12.3 12.3 0 0 0 1.1 3.3 3.6 3.6 0 0 1 .4 2.9ZM92 46a1.9 1.9 0 0 1 0-.2 7.4 7.4 0 0 1 0-1 4.5 4.5 0 0 1-.7 1 5.4 5.4 0 0 1 .8.3ZM91 46.3l.3.2h.2a5.2 5.2 0 0 1-.2-.6l-.2.2a1.7 1.7 0 0 1-.1.2ZM103.6 71.5l.2-.4-.4.2.2.2ZM93.6 44.2V44a2.7 2.7 0 0 0-.5 0h.5ZM90 43.3l.4-1a2.9 2.9 0 0 1 .3 1.2l.2-.6a7.2 7.2 0 0 1 .4 1.7l.4-.2-.3-.4a3 3 0 0 1 .8.2l-.2-.4a6.7 6.7 0 0 1 1 .2l.3-.3a3.2 3.2 0 0 1-.1-.7l-.6.9a3 3 0 0 1 0-1.2l-.4.6s-.6-2.5.4-3.6l-.2-.1a5.7 5.7 0 0 1-.4.8 4.7 4.7 0 0 1-.2-.7l-.1-.1h-.3l.1-.1a1.6 1.6 0 0 1-.1-.2v.7a2.3 2.3 0 0 1-.3-.2 5.7 5.7 0 0 0 0 .9 4.2 4.2 0 0 1-.4-.4 3.3 3.3 0 0 1-.4.8s0-.1 0-.2a5.4 5.4 0 0 1-.8.7l.6.2a5.6 5.6 0 0 1-.7.5 2.4 2.4 0 0 0 .8 0s-.1.1-.3.3a3 3 0 0 1 .1.7ZM89.7 40.7a2.8 2.8 0 0 0 .5 0l-.1-.3a3.3 3.3 0 0 1-.4.3Z"/><path fill="#73bf44" d="m92.4 44.3-.1-.2v.1h.1ZM89.3 39.6v.1a3.2 3.2 0 0 1 .3 0v-.3l-.3.2ZM105.7 93.9ZM105.4 93.8ZM85.5 64.9v.1l.1-.1ZM104 71.7h-.2l.2.2v-.2ZM101.9 73l-.1.2.1-.1ZM102.4 72.5l-.1.1h.2v-.1ZM105.7 93.7ZM123 87.1ZM81.6 76.2h-.1l-.5.3a2.7 2.7 0 0 1 .4.4l.3.2a5.2 5.2 0 0 1 0-.9ZM83.6 64.4v.3a2.2 2.2 0 0 1 .4-.5l-.4.2ZM80.2 66a6 6 0 0 1-.4-.5 5.1 5.1 0 0 1-.3.6 1.2 1.2 0 0 0 .1 0l.6-.2ZM97.1 72.3a8.8 8.8 0 0 1-.4 2 8.5 8.5 0 0 1 2.3 0 8 8 0 0 1-1.2 1A4.5 4.5 0 0 1 99 77a6.8 6.8 0 0 1-.8-.2 5.2 5.2 0 0 1 .3.8h.3a3.5 3.5 0 0 1-.2.3v.1h.4a5.3 5.3 0 0 1 .7-.3 1.1 1.1 0 0 1 .1-.1 3.8 3.8 0 0 1-.4-.5 3.4 3.4 0 0 1 .7 0 2.1 2.1 0 0 1-.5-.5s.2 0 .6 0h.2a1.1 1.1 0 0 1-.2-.3c-.8 0-1.6-1.3-1.6-1.3a4.8 4.8 0 0 1 1.3.4 5 5 0 0 1 0-1.2s0 0 .2.3a2 2 0 0 1 0-.8l.4.6a2.1 2.1 0 0 1 0-.6l.6.7a.8.8 0 0 1 .1.2 1.6 1.6 0 0 1 0-.5l-.2-.2a1 1 0 0 0 .2 0 1.8 1.8 0 0 1 .1-.1v.1h.2a2.5 2.5 0 0 1-.3-.4v-.1.5a6.6 6.6 0 0 1-1-1.3 6.5 6.5 0 0 1-1 1.4 6 6 0 0 1 0-1.2 3.4 3.4 0 0 1-1.6-.1 5 5 0 0 1 .5-.4 3.7 3.7 0 0 1-.7-.2v.1a2.4 2.4 0 0 1-.1-.2 1.3 1.3 0 0 0-.4-.1s0 0 .3-.2v-.2h-.3a3.4 3.4 0 0 1-.3 1.3l.5-.5ZM72.3 93.2ZM122.9 49.5ZM60.6 75.6a2.7 2.7 0 0 1-.3-.2 3.6 3.6 0 0 1 .3.4v-.2ZM78.1 64.9v.2h.1v-.2ZM78.7 65.8a4.2 4.2 0 0 1 0-.6 5.1 5.1 0 0 1-.3.5 2 2 0 0 1 .2 0h.1ZM69 62.6a2.4 2.4 0 0 1 0-.3c0 .1 0 .2-.2.3h.3ZM55.3 86.9ZM78.8 64.8h-.3v.2h.3v-.2ZM67.6 80.6h-.4l.2.2.2-.2ZM86.8 92.8v.1a2.4 2.4 0 0 1 .2 0l-.2-.1Z"/><path fill="#73bf44" d="m79.4 74 .8-.8a3.1 3.1 0 0 1-.2 1.2l.4-.4a7.6 7.6 0 0 1-.3 1.8 6.7 6.7 0 0 1 1.5-.1 2 2 0 0 0 0-.3s0 .1.2.3h.2l.1-.1a5.3 5.3 0 0 1-.8-1.5 6.1 6.1 0 0 1 1.8.5 2.3 2.3 0 0 0-.4-.7 7 7 0 0 1 1.6.6l-.1-.7.4.2a3.7 3.7 0 0 1 1 0l-1.3-1.2a8.9 8.9 0 0 1 1.8.2l-.7-.5a4 4 0 0 1 1 0 4.3 4.3 0 0 1 0-1 2 2 0 0 0-.3-.2s.1 0 .3 0v-.6a6.8 6.8 0 0 1 .7.7 5 5 0 0 1 .7.1 5.5 5.5 0 0 1-.5-1.4 5.5 5.5 0 0 1 2 1 3.2 3.2 0 0 0 0-1 6.6 6.6 0 0 1 1.2 1.4 6.4 6.4 0 0 1 0-1 6.1 6.1 0 0 1 1.4 1.3l1-.9a7.3 7.3 0 0 1-.1 1.4 4.7 4.7 0 0 1 1.7-1 7 7 0 0 1-.3 1 2 2 0 0 1 .3 0 9.7 9.7 0 0 1 1.4 0l.7-.7a5 5 0 0 1-.7.1 4.6 4.6 0 0 1 .9-1.2 3.9 3.9 0 0 1-.5 0v.3a1.9 1.9 0 0 1-.1-.2 1.5 1.5 0 0 0-.3 0s0 0 .2-.2a2.1 2.1 0 0 1-.1-.6 1.1 1.1 0 0 1-.1.2l-.6 1a3 3 0 0 1-.2-.8l-.4.8a2.7 2.7 0 0 1-.1-1l-.3.5A6.6 6.6 0 0 1 94 69a6.4 6.4 0 0 1-1.6.6s.8-1.8 1.9-1.9a1.5 1.5 0 0 1 .2-.3l-.3-.2-.7.2a2.9 2.9 0 0 1 .5-.7 4.6 4.6 0 0 1-1 0 5.2 5.2 0 0 1 .6-.6 1.3 1.3 0 0 1-.2 0 7.2 7.2 0 0 1-1-.5h-.2l.5.8a6.6 6.6 0 0 1-1.2-.4l.4.4a2.9 2.9 0 0 1-.8-.1 3.2 3.2 0 0 1 0 .6 1.5 1.5 0 0 0 0 .2s0 0-.1 0l-.2.4a5.2 5.2 0 0 1-.4-.6 3.8 3.8 0 0 1-.4-.2 4.1 4.1 0 0 1 .1 1.2 4 4 0 0 1-1.3-1.2 2.4 2.4 0 0 0-.1.8 5 5 0 0 1-.7-1.2 4.9 4.9 0 0 1-.2.7 4.5 4.5 0 0 1-.7-1.2l-1 .5a5.4 5.4 0 0 1 .4-1 3 3 0 0 1-1 .3 8.3 8.3 0 0 1 .3 1.2 4.5 4.5 0 0 1-1.7-2l-.5.3v.2l-.1-.1a2.8 2.8 0 0 1-.5-.6 5 5 0 0 1-.2 1 5.5 5.5 0 0 1-.6-.7 2 2 0 0 1-.1.2 8 8 0 0 1-.7 1l.1 1a3 3 0 0 1-.7-.9v.7a7.1 7.1 0 0 1-.5-.6 2.2 2.2 0 0 1-.4.5l.6-.3a6.8 6.8 0 0 1-.9 1.4 6.5 6.5 0 0 1 1.7.5 6.2 6.2 0 0 1-1.1.4 3.5 3.5 0 0 1 .5 1.6 5.1 5.1 0 0 1-.6-.3 4.1 4.1 0 0 1 0 .7h.2a2.5 2.5 0 0 1-.2.1 1.4 1.4 0 0 0 0 .5s0-.1-.2-.3l-.2.1a4 4 0 0 1 .7 1.1A4.7 4.7 0 0 1 79 72a1.8 1.8 0 0 0 .4.5 5.4 5.4 0 0 1-1.2-.4 5.4 5.4 0 0 1 0 .5s0 0-.3-.2a2.8 2.8 0 0 1-.7.1l.8.8.1-.1v.1a5.8 5.8 0 0 1-.2.9 2 2 0 0 1 .3 0 8.4 8.4 0 0 1 1.2 0ZM80.8 85a1.5 1.5 0 0 1-.7-.4 1.7 1.7 0 0 1-.4 0v.4l.8.5a3.3 3.3 0 0 1-1 0 5.1 5.1 0 0 1 .7.9 6 6 0 0 1-1 0 2 2 0 0 1 .1.2 8.5 8.5 0 0 1 .3 1.2c.3.2.6.3.7.5a5.5 5.5 0 0 1 .8-.4 3.3 3.3 0 0 1-.6-1.4 5 5 0 0 1 .6.2 3.9 3.9 0 0 1-.1-.6h-.2a2.4 2.4 0 0 1 .1-.2 1.3 1.3 0 0 0 0-.4s0 0 .2.2l.2-.1a3.5 3.5 0 0 1-.5-.7Z"/><path fill="#73bf44" d="m76.8 73.1.5.4a3.2 3.2 0 0 1-.5 0l-.1.5a3.7 3.7 0 0 1 1-.7 7 7 0 0 1-.9-.2ZM70.6 74.3l-.3.1v-.2a5.1 5.1 0 0 1 .2-.6 1.7 1.7 0 0 1-.2 0 7.6 7.6 0 0 1-1 0l-.8.7a2.8 2.8 0 0 1 .2-1l-.4.4a6.8 6.8 0 0 1 .3-1.6 6.6 6.6 0 0 1-1.8 0 6 6 0 0 1 1-.7 3.4 3.4 0 0 1-1-1.3 5.2 5.2 0 0 1 .7 0 4 4 0 0 1-.3-.6l-.2.1a2.7 2.7 0 0 1 .1-.2 1.4 1.4 0 0 0-.1-.4s0 0 .3.1l.1-.1a4 4 0 0 1-1-.8A4.7 4.7 0 0 1 68 68a3.7 3.7 0 0 1-.3-.3l-.2.1v-.2a1.5 1.5 0 0 0-.2-.2s.2 0 .4 0a2.2 2.2 0 0 1 .4-.5 1 1 0 0 1-.2 0l-1.3.3a3 3 0 0 1 .6-.6c-.6 0-1 .2-1 .2a2.8 2.8 0 0 1 .8-.8l-.6.1a6.7 6.7 0 0 1 1.1-1.2 6.5 6.5 0 0 1-1.6-.8s2-.6 2.8.1a1.6 1.6 0 0 1 .4 0l-.1-.4-.7-.4a3 3 0 0 1 1 0 4.4 4.4 0 0 1-.6-.6l-.2.3a5.7 5.7 0 0 1-.1-1 1.7 1.7 0 0 1-.2.2c-.8.4-.9.2-1.3.5a6.1 6.1 0 0 1 .4-.8 4.2 4.2 0 0 1-1.4 0 5 5 0 0 1 1-1 1.9 1.9 0 0 0-.6 0 5.8 5.8 0 0 1 1-.9 5.3 5.3 0 0 1-.6-.2 5.5 5.5 0 0 1 .8-.4 2.5 2.5 0 0 0-.8-.1s.1-.1.3-.3l-.4-.2c0 .2-.2.3-.2.3a3.3 3.3 0 0 1 0-.4c-.2 0-.3-.1-.3-.2l-.3-.1a7.9 7.9 0 0 1-.3 1.9l-.3-.7a3.3 3.3 0 0 1-.2 1.3s-.2-.4-.6-1a2 2 0 0 1-1.5.4 1.4 1.4 0 0 1-.3.2l.2.3h.7a2.8 2.8 0 0 1-.7.5 4.4 4.4 0 0 1 1 .3 5 5 0 0 1-.8.5 1.8 1.8 0 0 1 .2.1 7 7 0 0 1 .7.7l1 .1a2.7 2.7 0 0 1-.9.6h.6a6.5 6.5 0 0 1-1.3.8 6.3 6.3 0 0 1 1.2 1.2 5.7 5.7 0 0 1-1 0 2.4 2.4 0 0 1-.7.4h.5a2.7 2.7 0 0 1-1 .5 1.4 1.4 0 0 0 .6 0 5.5 5.5 0 0 1-1 .5 4.6 4.6 0 0 1 .6.6 4.6 4.6 0 0 1-1.5 0 1.8 1.8 0 0 0 .5.5 5.3 5.3 0 0 1-1.2 0l.2.4a4.7 4.7 0 0 1-.5 0l.2.3a3.7 3.7 0 0 1 1.4 0 5.1 5.1 0 0 1-.6.6 1.7 1.7 0 0 1 .2 0 6.8 6.8 0 0 1 .9.6c.6 0 1-.2 1-.2a2.7 2.7 0 0 1-.7.8l.5-.2a6.6 6.6 0 0 1-1 1.2 6.4 6.4 0 0 1 1.4.8 5.9 5.9 0 0 1-1.1.2 3.4 3.4 0 0 1 .1 1.6 5 5 0 0 1-.5-.4 4 4 0 0 1 0 .6h.1a2.6 2.6 0 0 1-.2.2 1.4 1.4 0 0 0 0 .4s-.1-.1-.2-.3H61a3.5 3.5 0 0 1 .4 1 3.3 3.3 0 0 1 .3.3l.9-.8a6.3 6.3 0 0 1-.2 1.2 4.1 4.1 0 0 1 1.5-.9 6 6 0 0 1-.2 1 1.8 1.8 0 0 1 .2 0 8.4 8.4 0 0 1 1.2 0l.9-.8a3 3 0 0 1-.3 1.1l.5-.4a7.6 7.6 0 0 1-.4 1.8 5.5 5.5 0 0 1 .6-.1v-.4a5.8 5.8 0 0 1 .6.3 4.4 4.4 0 0 1 0-.7h-.3l.2-.3a1.5 1.5 0 0 0 0-.4s.1 0 .3.2h.2a4.6 4.6 0 0 1-.8-1.3 5.3 5.3 0 0 1 1.7.4 2 2 0 0 0-.4-.6 6.1 6.1 0 0 1 1.3.5 6 6 0 0 1 0-.6s0 0 .3.2a3.2 3.2 0 0 1 .9-.1c-1-1-1.2-1-1.2-1a7.7 7.7 0 0 1 1.6.2l-.3-.3ZM69.1 84.5a3.3 3.3 0 0 1 .5-1 5.3 5.3 0 0 1-1 .2 6 6 0 0 1 .4-.8 2 2 0 0 1-.2 0l-.5-.2a5.2 5.2 0 0 1-1.6.1 4.2 4.2 0 0 1 .3.4l.3-.1a2.8 2.8 0 0 1-.1.2 1.7 1.7 0 0 0 .3.2s-.2 0-.5 0a2.4 2.4 0 0 1-.4.6 1.3 1.3 0 0 1 .2 0l1.4-.4a3.4 3.4 0 0 1-.6.8l1-.2a3 3 0 0 1-.7.9l.6-.2a7.6 7.6 0 0 1-1.2 1.3 6.2 6.2 0 0 1 1 .5c.2-.6.8-2 1.8-2.1a1.9 1.9 0 0 1 .2-.4l-.4-.2-.8.4ZM71 74h.2-.1ZM98.5 78.6l-.1-.2.4.1a1.7 1.7 0 0 1-.3-.3l-.3.2.3.2ZM110.3 98h.2v-.2a1.9 1.9 0 0 1-.2.2ZM65.7 87.1v.3l.4-.2a1.2 1.2 0 0 1-.2-.1 2 2 0 0 1-.2 0ZM110.3 97.3a.8.8 0 0 1 .1-.2 1.5 1.5 0 0 1-.4.3v.3a1.1 1.1 0 0 0-.1-.2h-.2v-.1a2.7 2.7 0 0 1-.1-.3 3.3 3.3 0 0 1-.2 1 4 4 0 0 1 .7 0l.2-.8ZM85.7 91.9a4.8 4.8 0 0 1-.2.8l.4-.3a3.3 3.3 0 0 1-.2-.5ZM97 91a2.3 2.3 0 0 1 .4 0s0 0 .4-.1a2 2 0 0 1-.7-.4s.3 0 .7 0a2.2 2.2 0 0 1-.4-.3l-.3.2a1.7 1.7 0 0 0 .1-.6 3.8 3.8 0 0 1-.5.4v-.4a4 4 0 0 1-.8.5 1.3 1.3 0 0 0 .2-.5 3.5 3.5 0 0 1-1 .5 3.2 3.2 0 0 1 .3-.7 6.2 6.2 0 0 1-1.9-.2v.4a5.2 5.2 0 0 1-.5-.4v.2a3.8 3.8 0 0 1-.1.4h.2a2.5 2.5 0 0 1-.3.2 1.3 1.3 0 0 0 0 .4s0 0-.2-.3l-.2.1a4 4 0 0 1 .4 1.2 4.5 4.5 0 0 1-1.3-.7 1.7 1.7 0 0 0 .2.6 5.3 5.3 0 0 1-1-.7 5.2 5.2 0 0 1 0 .5s-.2 0-.3-.2a2.8 2.8 0 0 1-.7 0l.7 1a6.7 6.7 0 0 1-1.3-.5l.4.5a3 3 0 0 1-.7-.2 3.2 3.2 0 0 1-.1.7 1.3 1.3 0 0 0 .1.2s0 0-.2 0l-.1.3a5 5 0 0 1-.4-.5 3.4 3.4 0 0 1-.5-.3 4 4 0 0 1 .1 1 5.7 5.7 0 0 1 .7.3 5.7 5.7 0 0 1-.7.3 4.2 4.2 0 0 1 .6.5l.2-.2a3 3 0 0 1 0 .3 1.5 1.5 0 0 0 .4.2s-.2 0-.4.1v.3a4.6 4.6 0 0 1 1.4.1 5.3 5.3 0 0 1-1.4 1 4 4 0 0 1 .5.1l.2-.2v.3a1.6 1.6 0 0 0 .4 0s-.2.1-.4.3a2.4 2.4 0 0 1 0 .6 1.3 1.3 0 0 1 0-.1l1.1-1a3.3 3.3 0 0 1 0 1l.7-.8v.3a1.2 1.2 0 0 1 .2 0v-.3l-.5-.3a2.2 2.2 0 0 1 .6 0 3.5 3.5 0 0 1-.5-.6 4 4 0 0 1 .6 0 1.4 1.4 0 0 1 0-.2l-.4-.9a4 4 0 0 1 .9.5 15 15 0 0 0-.3-.5 2.2 2.2 0 0 1 .7.3 3.5 3.5 0 0 1-.2-.7 3.8 3.8 0 0 1 .6.3V94l-.4-.4a2.2 2.2 0 0 1 .7 0 3.5 3.5 0 0 1-.3-.6 4 4 0 0 1 .6.2 1 1 0 0 1 0-.2v-.2l-.4-.2h.3a1.3 1.3 0 0 0 0-.6 4.2 4.2 0 0 1 .4.4h.3a5.6 5.6 0 0 0-.2-.8s.2 0 .3.2a2.1 2.1 0 0 1 .5-.2l-.7-.2s.8-.5 1.3-.2a3.5 3.5 0 0 1 0-.7 3.5 3.5 0 0 1 .8.8 1.3 1.3 0 0 0 0-.5 4 4 0 0 1 .5.8l.2-.4a3.9 3.9 0 0 1 .3.5 1.7 1.7 0 0 0 0-.5s.1 0 .3.2a2.2 2.2 0 0 1 .5 0L97 91ZM95.1 91.6ZM84.7 91.4a2 2 0 0 1 0 .3v-.2ZM98.2 80.4H98l.2.2v-.2ZM81 81.5h.3l.1-.4h-.2a2.4 2.4 0 0 1-.5.5 1.3 1.3 0 0 1 .3-.1ZM82 83.8h-.5a5.3 5.3 0 0 1 .4.2 2 2 0 0 1 .4-.2 1.1 1.1 0 0 1-.2 0ZM97.6 79.6a5 5 0 0 1 .4.4h.1l.1-.1v-.3a4 4 0 0 1-.6 0ZM98.5 79.7ZM98.2 80v.2-.1ZM55.4 86a4.8 4.8 0 0 1-.6.2l.3.4a2.9 2.9 0 0 1 .3-.5ZM80.8 80.3a4 4 0 0 1 .4.3h.5l.3-.3a4.3 4.3 0 0 1-1.2 0ZM39 81.2ZM89.3 39.2zM37.3 52.8ZM99.7 91.5a.8.8 0 0 1-.1.2 1.2 1.2 0 0 1 0 .2l.2-.1v-.3ZM110 21.7Z"/><path fill="#73bf44" d="M125.9 63a4.3 4.3 0 0 0-.9-.8 5.5 5.5 0 0 0 .5-.3 7 7 0 0 1-1-.3 2.7 2.7 0 0 0 .3-.2s-.4 0-.9-.2a2.4 2.4 0 0 0 .5-.5 5.8 5.8 0 0 0 1 0 6.4 6.4 0 0 0-1.4-1 6.6 6.6 0 0 0 1.2-1s0 0-.6 0a2.7 2.7 0 0 0 .8-.7s-.4 0-1 0a7.4 7.4 0 0 0-.8-.6 1.6 1.6 0 0 0-.2 0 5.1 5.1 0 0 0 .6-.6 4.7 4.7 0 0 0-.9-.2 2.9 2.9 0 0 0 .7-.6s-.3 0-.8 0l-.3-.1a1.6 1.6 0 0 0 .3-.3c1 .1 2.3-1.5 2.3-1.5a6.4 6.4 0 0 0-1.8.3 6.6 6.6 0 0 0 .2-1.6l-.4.4a2.7 2.7 0 0 0 0-1s-.1.3-.5.7a2.9 2.9 0 0 0 0-.7l.4-.2a2.3 2.3 0 0 1-.7-.2 5.2 5.2 0 0 0 .7-.3 5.3 5.3 0 0 0-.4-.3 5.4 5.4 0 0 0 1-.6 1.8 1.8 0 0 1-.6-.1 4.7 4.7 0 0 0 1.2-.8 4.5 4.5 0 0 0-1-.2c.5-.6 0-1.7 0-1.7l-.4.9a2.8 2.8 0 0 0-.1-.7l.3-.3a7.3 7.3 0 0 1-1.1 0v-.3a5.8 5.8 0 0 0 .6-.5 1.7 1.7 0 0 1-.7 0v-.5l-.4.4h-.2a1.4 1.4 0 0 0-.2 0 5.2 5.2 0 0 0 .3-.8 4.5 4.5 0 0 0-1 .3 2.9 2.9 0 0 0 .3-.8s-.2.2-.6.4h-.5a5.2 5.2 0 0 0 .6-.8 4.8 4.8 0 0 0-1 .1h.1a3 3 0 0 0 .4-.8s-.3.1-.7.3a5.2 5.2 0 0 0 .8-1l-1.2.2a1.8 1.8 0 0 0-.2.1v-.5a7.7 7.7 0 0 0 1.2-.6s0 0-.7-.1a3 3 0 0 0 1.1-.5s-.4-.1-1.1-.2a8.3 8.3 0 0 0-.8-1 2 2 0 0 0-.1-.1 6 6 0 0 0 .8-.4 4.3 4.3 0 0 0-1.5-.6 4.8 4.8 0 0 0-.4-.9 6 6 0 0 0 1 0 5.7 5.7 0 0 0-.3-.4 6.1 6.1 0 0 0 1.4-.3 2 2 0 0 1-.7-.3 5.2 5.2 0 0 0 1.6-.5 5.5 5.5 0 0 0-.8-.5 6.3 6.3 0 0 0 1-.7 1.6 1.6 0 0 1-.5 0 3.2 3.2 0 0 0 .9-.7s-.2 0-.5 0a3.1 3.1 0 0 0 .7-1s-.2.1-.6.2a3.5 3.5 0 0 0 .4-.5 6.5 6.5 0 0 0 .8-.4 9.8 9.8 0 0 0-1-.3 7.6 7.6 0 0 0 1-1.1s0 0-.6.1a3 3 0 0 0 .9-.8s-.4 0-.9.1a4.4 4.4 0 0 0-.8-.3 1.6 1.6 0 0 0-.2 0 6 6 0 0 0 .5-.8 5.2 5.2 0 0 0-1 .1 3.2 3.2 0 0 0 .4-.8l-.8.3-.3-.2a1.7 1.7 0 0 0 .1-.3 5.4 5.4 0 0 0 1.2-2 9.1 9.1 0 0 0-1 .4 7.5 7.5 0 0 0-.4-1.7s0 0-.3.6a3 3 0 0 0-.2-1.1s-.2.4-.4 1a3.3 3.3 0 0 0-.2-.8l.3-.4a2.6 2.6 0 0 1-.8 0 6 6 0 0 0 .7-.5 6 6 0 0 0-.6-.1 6.1 6.1 0 0 0 1-1 2 2 0 0 1-.8 0 5.2 5.2 0 0 0 1-1.3 4.6 4.6 0 0 0-1.4.2v-.2l.3-.2a1.5 1.5 0 0 1-.4-.1 2.9 2.9 0 0 0-.1-.3s0 0-.1.2a4.6 4.6 0 0 0-.7-.2 5.8 5.8 0 0 0 .5-.5 3.9 3.9 0 0 0-1.8-.2 6.7 6.7 0 0 0 0-1.3 7.3 7.3 0 0 0-1.2 1.5 7.4 7.4 0 0 0-1-1.4s0 0 0 .6a3 3 0 0 0-.7-1s0 .5 0 1.2l-.6.6a5.4 5.4 0 0 0-.7-1.3 6 6 0 0 0-.2.5 3.5 3.5 0 0 0-.4 0 2.3 2.3 0 0 0 .4-.5s-.2 0-.6 0l-.2-.1a1.3 1.3 0 0 0 .2-.2c.9 0 1.8-1.3 1.8-1.3a5.1 5.1 0 0 0-1.4.3 5.2 5.2 0 0 0 0-1.3s0 0-.2.4a2.2 2.2 0 0 0 0-.8s-.2.2-.4.5a2 2 0 0 0 0-.2l.2-.1a1 1 0 0 1-.2-.1 2 2 0 0 0 0-.2s0 0-.2.1h-.1l.3-.1.3-.1a3.9 3.9 0 0 0-.4-.3 4.2 4.2 0 0 0 1-.3 1.4 1.4 0 0 1-.5-.2 3.6 3.6 0 0 0 1-.5 3.4 3.4 0 0 0-.9-.3 4.4 4.4 0 0 0 .3-.4 5.4 5.4 0 0 1-.9.1 2.4 2.4 0 0 0 .2-.2s-.3 0-.7.1a2 2 0 0 0 .2-.4 4.7 4.7 0 0 0 .7-.4 5 5 0 0 0-1.3-.3 5.2 5.2 0 0 0 .5-1.1l-.4.2a2.3 2.3 0 0 0 .3-.7s-.3.2-.7.5a1.2 1.2 0 0 1-.2 0 4.5 4.5 0 0 0 .6-.4 2 2 0 0 1-.6-.1c.3-.5-.2-1.3-.2-1.3l-.2.7a2.3 2.3 0 0 0-.2-.5l.3-.3a1.8 1.8 0 0 1-.6.1 4.1 4.1 0 0 0 .4-.4 3.9 3.9 0 0 0-.6-.1 4.6 4.6 0 0 0 .4-.6 2 2 0 0 1-.6.1 4 4 0 0 0 .4-.3 3.2 3.2 0 0 0-1-.1v-.2h.3a1.1 1.1 0 0 1-.2-.2v-.2h-.2a2.8 2.8 0 0 0-.2 0 2.2 2.2 0 0 0-.5-.7 4.7 4.7 0 0 0 .8-.6 5 5 0 0 0-1.4 0 5.2 5.2 0 0 0 .3-1.2s0 0-.3.3a2.2 2.2 0 0 0 .2-.8s-.3.2-.7.5a5.8 5.8 0 0 0-.8 0 1.3 1.3 0 0 0-.2 0 4 4 0 0 0 .2-.6 4.1 4.1 0 0 0-.4.2l.1-.2a2 2 0 0 1-.6 0c.2-.5-.5-1.2-.5-1.2V6a2.2 2.2 0 0 0-.3-.5l.1-.3a1.8 1.8 0 0 1-.5.2 4.2 4.2 0 0 0 .3-.5 3.7 3.7 0 0 0-.7.1 4.5 4.5 0 0 0 .3-.7 1.4 1.4 0 0 1-.5.3 3.7 3.7 0 0 0 .4-1.1 3.1 3.1 0 0 0-.9.5 1.7 1.7 0 0 0 0-.2v-.2a1 1 0 0 1-.2 0l-.2-.1v.2a2.6 2.6 0 0 0-.3 0 2.2 2.2 0 0 0-.7-.2 4.7 4.7 0 0 0 .2-1 5 5 0 0 0-1 1 5.3 5.3 0 0 0-.4-1.2s0 0-.2.4A2.1 2.1 0 0 0 97 2s-.1.3-.3.8a5.8 5.8 0 0 0-.7.4 1.1 1.1 0 0 0-.1 0 4 4 0 0 0-.2-.6 3.6 3.6 0 0 0-.4.7 2.3 2.3 0 0 0-.3-.7s0 .2-.2.5l-.2.2a1.2 1.2 0 0 0-.1-.3c.4-.7-.4-2.1-.4-2.1a5 5 0 0 0-.3 1.3 5.2 5.2 0 0 0-1.2-.6l.3.4a2.1 2.1 0 0 0-.8-.4s.2.3.3.7a1.8 1.8 0 0 0-.2-.1v-.3a1 1 0 0 1-.2.2 1.9 1.9 0 0 0-.1 0l-.1.2a4.2 4.2 0 0 0 .1-.6 4 4 0 0 0-.4.2 4.2 4.2 0 0 0 0-1 1.4 1.4 0 0 1-.3.4 3.7 3.7 0 0 0 0-1.2 3.3 3.3 0 0 0-.6.7 4.4 4.4 0 0 0-.2-.5 5.5 5.5 0 0 1-.3.9 2.2 2.2 0 0 0-.1-.3s-.1.3-.2.7a2 2 0 0 0-.4-.4 4.8 4.8 0 0 0 0-.8 5 5 0 0 0-.8 1.1 5.2 5.2 0 0 0-.8-1s0 0 0 .5a2.1 2.1 0 0 0-.5-.7s0 .4 0 .8a1 1 0 0 1 0 .2 4.5 4.5 0 0 0 0-.6 2 2 0 0 1-.5.4c-.2-.5-1.1-.6-1.1-.6l.4.6a2.2 2.2 0 0 0-.5-.1l-.1-.4a1.8 1.8 0 0 1-.2.6 4.2 4.2 0 0 0-.2-.6 3.8 3.8 0 0 0-.4.4 4.6 4.6 0 0 0-.2-.6 2 2 0 0 1-.3.5 4 4 0 0 0 0-.5 3.2 3.2 0 0 0-.7.8h-.1l.1-.4a1.1 1.1 0 0 1-.3.2 2 2 0 0 0-.2-.1s0 0 0 .1a2.8 2.8 0 0 0-.2.2 2.2 2.2 0 0 0-.8 0 4.6 4.6 0 0 0 0-.9 5 5 0 0 0-.8 1.2 5.3 5.3 0 0 0-.9-1l.1.5a2.1 2.1 0 0 0-.6-.6s.1.4.2.8a6 6 0 0 0-.5.7 1.3 1.3 0 0 0 0 .2 4 4 0 0 0-.5-.5 3.6 3.6 0 0 0-.1.7 2.2 2.2 0 0 0-.5-.5s0 .3 0 .6l-.1.2a1.3 1.3 0 0 0-.2-.1c0-.9-1.3-1.8-1.3-1.8A5 5 0 0 0 77 2a5.3 5.3 0 0 0-1.3 0s0 0 .4.2a2.1 2.1 0 0 0-.8 0s.2.2.5.5a2.2 2.2 0 0 0-.5 0l-.2-.3a1.8 1.8 0 0 1-.1.5 4.2 4.2 0 0 0-.3-.5l-.2.3a4.3 4.3 0 0 0-.5-.8 1.4 1.4 0 0 1 0 .5 3.7 3.7 0 0 0-.8-.9 3.3 3.3 0 0 0 0 1 4.5 4.5 0 0 0-.5-.3 5.5 5.5 0 0 1 .3.8 2.5 2.5 0 0 0-.3-.1s.1.3.3.7a2 2 0 0 0-.5-.2 4.8 4.8 0 0 0-.5-.6 5 5 0 0 0 0 1.4 5.2 5.2 0 0 0-1.3-.3s0 0 .4.3a2.2 2.2 0 0 0-.9-.2s.3.3.5.6a2.2 2.2 0 0 1 0 .3l-.1-.4a2 2 0 0 1-.3.6c-.4-.4-1.2 0-1.2 0l.6.3a2.2 2.2 0 0 0-.5 0c-.2 0-.3-.2-.3-.2a1.8 1.8 0 0 1 0 .6 4 4 0 0 0-.3-.5 3.8 3.8 0 0 0-.2.6 4.6 4.6 0 0 0-.5-.5 1.4 1.4 0 0 1 0 .5 3.7 3.7 0 0 0-.9-.7 3.2 3.2 0 0 0 .1 1h-.1l-.1-.3a1 1 0 0 1-.1.3 2 2 0 0 0-.2 0v.2a2.7 2.7 0 0 0 0 .2 2.2 2.2 0 0 0-.5.6 4.7 4.7 0 0 0-.7-.6 5 5 0 0 0 .3 1.4 5.3 5.3 0 0 0-1.3-.1s0 0 .4.3a2.2 2.2 0 0 0-.9 0s.3.1.7.4a5.8 5.8 0 0 0 0 .8 1.3 1.3 0 0 0 .1.2 4 4 0 0 0-.6 0 3.7 3.7 0 0 0 .4.6 2.3 2.3 0 0 0-.7 0s.2.1.5.3v.3a1.3 1.3 0 0 0-.3 0c-.5-.6-2-.3-2-.3a5.1 5.1 0 0 0 1 .7 5.2 5.2 0 0 0-.9.9s0 0 .5 0a2.1 2.1 0 0 0-.6.5s.3 0 .7 0a2.3 2.3 0 0 0-.4.3l-.3-.1a1.8 1.8 0 0 1 .3.5 4 4 0 0 0-.6-.2l.1.4-.3-.1a6.6 6.6 0 0 0-.5-.4v.3H61v.3a3 3 0 0 0-.3 0 7.6 7.6 0 0 0-.9-1 3.2 3.2 0 0 1 0 1 5.5 5.5 0 0 0-2-1 5.5 5.5 0 0 0 .6 1.5 5 5 0 0 0-.7-.2 6.8 6.8 0 0 0-.7-.6v.5h-.3a2 2 0 0 1 .2.3 4.4 4.4 0 0 0 0 .8 4 4 0 0 0-1 .1s.4.2.8.5a8.9 8.9 0 0 0-1.9-.2s.2.1 1.3 1.1a3.6 3.6 0 0 0-1 .1l-.4-.2.1.7a7.1 7.1 0 0 0-1.5-.5 2.3 2.3 0 0 1 .4.7 6.1 6.1 0 0 0-1.9-.5 5.4 5.4 0 0 0 1 1.4h-.2a6.2 6.2 0 0 0-.6-.3 6.5 6.5 0 0 0 0 .8v.1h.1l.1.4v.4a1.8 1.8 0 0 1-.5-.4s0 .1 0 .2l-.2-.1a6 6 0 0 0 .2 1.3h-.2a6.1 6.1 0 0 0 .5.8 4.8 4.8 0 0 1-.6-.3 4.3 4.3 0 0 0-.5-1.7 6.3 6.3 0 0 0-.5.9 2 2 0 0 0-.2-.3 8.6 8.6 0 0 0-1-.8V18a3.3 3.3 0 0 0-.7 1v-.6a8 8 0 0 0-1 1.7 7.7 7.7 0 0 0-1.5-1.5 7.1 7.1 0 0 0 .2 1.4 4.1 4.1 0 0 0-1.9.4 6 6 0 0 0 .7.4 4.5 4.5 0 0 0-.7.4l-.1-.2a2.5 2.5 0 0 0-.1.3 1.6 1.6 0 0 1-.5.2s.2 0 .4.1v.3a4.8 4.8 0 0 0-1.5-.1 5.5 5.5 0 0 0 1.2 1.3 4.5 4.5 0 0 0-.5 0l-.2-.3a2.5 2.5 0 0 0 0 .3 1.7 1.7 0 0 1-.4 0s.1.1.3.3a2.6 2.6 0 0 0 0 .7 1.4 1.4 0 0 0-.2-.2l-.9-1.2a3.5 3.5 0 0 0 0 1l-.7-1a3.2 3.2 0 0 0 0 1.4l-.4-.6a8 8 0 0 0 0 1.9 7.8 7.8 0 0 0-2-.5s1.3 2 2.6 2a1.8 1.8 0 0 0 .3.3l-.4.3-.9-.1a3.4 3.4 0 0 0 .8.7 5.4 5.4 0 0 0-1.2.2 6.2 6.2 0 0 0 .8.7 2.4 2.4 0 0 0-.3 0 8.9 8.9 0 0 0-1 .8l-1.2-.2a3.3 3.3 0 0 0 .9.9l-.7-.2a8 8 0 0 0 1.4 1.4 5.5 5.5 0 0 0-.6.3l-.6-.8a3.3 3.3 0 0 0 0 1.2l-.4-.6a7.3 7.3 0 0 0-.1.9H38l.1.1a7 7 0 0 0 0 1 7.8 7.8 0 0 0-2-.6 7.1 7.1 0 0 0 .7 1 3 3 0 0 0 0 .7l-1-.6a3.3 3.3 0 0 0 .1.4c-.6-.5-.7-.4-1-.8a6.7 6.7 0 0 0 0 .8 5.1 5.1 0 0 0-1.3-.3 5.6 5.6 0 0 0 1 1.4 2.1 2.1 0 0 1-.7-.1 6.8 6.8 0 0 0 .7.9v.3h-.4l.3.4v.5a7.7 7.7 0 0 0-2-.6s1.2 2.1 2.5 2.2a1.9 1.9 0 0 0 .2.3l-.3.3-1-.2a3.4 3.4 0 0 0 .8.8 5.6 5.6 0 0 0-1.2 0 6.3 6.3 0 0 0 .7.8 2.2 2.2 0 0 0-.2 0 9.1 9.1 0 0 0-1.1.7l-1.2-.3a3.2 3.2 0 0 0 .8 1l-.7-.2a8 8 0 0 0 1.3 1.4 7.8 7.8 0 0 0-1.9 1 7.1 7.1 0 0 0 1.4.3 4.1 4.1 0 0 0-.2 1.9 6.4 6.4 0 0 0 .6-.5 4.8 4.8 0 0 0 0 .8 50.2 50.2 0 0 1 .1.2 1.7 1.7 0 0 1 0 .5s.2-.2.3-.4l.3.2a4.8 4.8 0 0 0-.6 1.4 5.5 5.5 0 0 0 1.6-.8 2.1 2.1 0 0 1-.3.7 6.5 6.5 0 0 0 1.3-.7v.6a6 6 0 0 0 .8-.5 2.7 2.7 0 0 1-.3.8s.2-.1.5-.3a3.7 3.7 0 0 0 .6.3 3 3 0 0 0-.8 0s.1 0 .3.2l-.5.1a3.5 3.5 0 0 0 1 .5l-.5.1.5.3a4.3 4.3 0 0 0 0 .5 1.6 1.6 0 0 0 0 .2 5.1 5.1 0 0 0-.7-.1 3.5 3.5 0 0 0 .8 1.2l-.2.3a5.4 5.4 0 0 0-.2-.5l-.3.5a5.3 5.3 0 0 0-.6-1 1.7 1.7 0 0 1-.1.6 4.6 4.6 0 0 0-1-1.1 4.2 4.2 0 0 0 0 1.1 6 6 0 0 0-.5-.3 6.8 6.8 0 0 1 .3 1 2.6 2.6 0 0 0-.3 0l.3.8a2.5 2.5 0 0 0-.6-.2 5.8 5.8 0 0 0-.6-.7 6.3 6.3 0 0 0 0 1.7 6.6 6.6 0 0 0-1.6-.4s0 0 .4.4a2.7 2.7 0 0 0-1-.2s.3.3.6.7a7.2 7.2 0 0 0 0 1 1.5 1.5 0 0 0 0 .3 5.2 5.2 0 0 0-.8-.2 4.5 4.5 0 0 0 .4.8 2.9 2.9 0 0 0-.8-.2s.2.2.5.6v.3a1.6 1.6 0 0 0-.4 0c-.5-1-2.5-1-2.5-1a6.3 6.3 0 0 0 1.2 1.3 6.6 6.6 0 0 0-1.4.8s.1 0 .6 0a2.7 2.7 0 0 0-.9.5s.4 0 1 .1a2.7 2.7 0 0 0-.6.4l-.5-.2a2.2 2.2 0 0 1 .3.7 5 5 0 0 0-.6-.5v.6a5.3 5.3 0 0 0-1.1-.5 1.7 1.7 0 0 1 .3.5 4.6 4.6 0 0 0-1.4-.4 4 4 0 0 0 .6 1l-.2.2-.3-.3a1.4 1.4 0 0 1 0 .4 2.2 2.2 0 0 0-.1.2s0 0 .2 0a3.8 3.8 0 0 0 0 .7 4.9 4.9 0 0 0-.6-.4 3.4 3.4 0 0 0 .3 1.5 5.8 5.8 0 0 0-1 .4 6.3 6.3 0 0 0 1.5.6 6.6 6.6 0 0 0-1 1.3s.2 0 .6-.2a2.7 2.7 0 0 0-.6.8l1-.3a7.1 7.1 0 0 0 1 .4 1.6 1.6 0 0 0 .1 0 5 5 0 0 0-.5.8 4.7 4.7 0 0 0 1-.1 2.8 2.8 0 0 0-.5.7l.7-.2s.2 0 .3.2a1.5 1.5 0 0 0-.2.3c-1 0-1.8 2-1.8 2a6.4 6.4 0 0 0 1.6-.7 6.5 6.5 0 0 0 .2 1.5s0 0 .3-.5a2.7 2.7 0 0 0 .1 1s.2-.3.5-.8a2.8 2.8 0 0 0 0 .7l-.3.3a2.3 2.3 0 0 1 .8 0 5 5 0 0 0-.7.4l.5.2a5.3 5.3 0 0 0-.8.8 1.8 1.8 0 0 1 .6 0 4.6 4.6 0 0 0-1 1 4.3 4.3 0 0 0 1.2 0 5.4 5.4 0 0 0-.2.5l1-.5a2.7 2.7 0 0 0-.2.4s.4-.2.8-.5a2.4 2.4 0 0 0 0 .7 5.8 5.8 0 0 0-.7.7 6.3 6.3 0 0 0 1.7-.3 6.5 6.5 0 0 0-.1 1.6s0 0 .4-.5a2.7 2.7 0 0 0-.1 1s.2-.2.6-.7a7.7 7.7 0 0 0 1-.1 1.8 1.8 0 0 0 .3 0 5.1 5.1 0 0 0-.1.8 4.5 4.5 0 0 0 .7-.6 2.8 2.8 0 0 0 0 .9s.2-.2.5-.6h.3a1.5 1.5 0 0 0 0 .4c-.8.6-.5 2.6-.5 2.6a6.2 6.2 0 0 0 1-1.4 6.5 6.5 0 0 0 1 1.2v-.6a2.7 2.7 0 0 0 .6.8s0-.3 0-.9a2.7 2.7 0 0 0 .4.5l-.1.4a2.3 2.3 0 0 1 .6-.3 5.2 5.2 0 0 0-.3.7 5 5 0 0 0 .5-.1 5.3 5.3 0 0 0-.3 1.1 1.8 1.8 0 0 1 .5-.3 4.6 4.6 0 0 0-.2 1.4 4.4 4.4 0 0 0 .8-.6c0 .8 1.1 1.2 1.2 1.2l-.4-.9a2.8 2.8 0 0 0 .6.4v.4l.7-.8.3.3a5.7 5.7 0 0 0-.1.7 1.8 1.8 0 0 1 .5-.4l.4.3-.1-.6.2-.1a1.6 1.6 0 0 0 .1-.2 5.2 5.2 0 0 0 .4.8 4.4 4.4 0 0 0 .4-.9 2.8 2.8 0 0 0 .4.8s0-.3.1-.7l.4-.3a5.1 5.1 0 0 0 .1.9 4.5 4.5 0 0 0 .6-.8 2.8 2.8 0 0 0 .2.9s.1-.3.3-.6a5.2 5.2 0 0 0 .2 1.2l.7-1a1.5 1.5 0 0 0 0-.2 5.2 5.2 0 0 0 .6.6 4.5 4.5 0 0 0 .1-1 2.8 2.8 0 0 0 .7.7s0-.3-.1-.8l.2-.3c.8 1 3 .8 3 .8l-.4-.4a2.7 2.7 0 0 0 1 0s-.3-.2-.7-.5a2.9 2.9 0 0 0 .7 0l.2.4a2.2 2.2 0 0 1 .2-.7 5 5 0 0 0 .3.7l.2-.5a5.3 5.3 0 0 0 .7 1 1.4 1.4 0 0 1 0-.3 2.5 2.5 0 0 0 .2.3 6.8 6.8 0 0 0-1.3.5 7.4 7.4 0 0 0 2 .6 7.6 7.6 0 0 0-1 1.6s0 0 .6-.3a3.1 3.1 0 0 0-.7 1s.5-.2 1.1-.4a8.4 8.4 0 0 0 1.1.4 1.7 1.7 0 0 0 .3 0 5.7 5.7 0 0 0-.4.5l-.2-.2a5.1 5.1 0 0 0 0 1 3 3 0 0 0-1.4.2 4.6 4.6 0 0 0 .5.3 3.3 3.3 0 0 0-.6.2v-.2l-.1.3a1.2 1.2 0 0 1-.4 0s.1.1.3.2v.2a3.5 3.5 0 0 0-1.1-.2 4 4 0 0 0 .8 1 1.5 1.5 0 0 1-.6 0 4.7 4.7 0 0 0 .7.8 4.5 4.5 0 0 0-.4 0 4.7 4.7 0 0 0 .5.5 2 2 0 0 1-.6 0s0 0 .2.3a2.5 2.5 0 0 0-.1.5 18 18 0 0 1-.3-.7 2.4 2.4 0 0 0-.2.9 8 8 0 0 1-.2-.5 5.8 5.8 0 0 0-.3 1.4 7 7 0 0 0-.9-.4 4.2 4.2 0 0 0 1 1.6 1.3 1.3 0 0 0 .1.2l-.3.1-.6-.2a2.5 2.5 0 0 0 .4.7 4 4 0 0 0-.8-.1 4.6 4.6 0 0 0 .4.6 1.8 1.8 0 0 0-.2 0 3.6 3.6 0 0 0-.6.2h-.7a2.4 2.4 0 0 0 .7.6L49 95a6 6 0 0 0 .8.8 7 7 0 0 0-.8.3 5 5 0 0 0 .6.3 2.6 2.6 0 0 0 .3.4l-.4-.1a2.4 2.4 0 0 0 .5.7h-.4a2.4 2.4 0 0 0 .7.5 1.2 1.2 0 0 1-.4 0 5 5 0 0 0 .8.6 4 4 0 0 0-.6.4 4 4 0 0 0 1.2.3 1.6 1.6 0 0 1-.5.3 4.8 4.8 0 0 0 1 .2 4.6 4.6 0 0 0-.2.4 4.7 4.7 0 0 0 .8 0 3.6 3.6 0 0 0-.3.7 3.3 3.3 0 0 0-1.2.4 4.6 4.6 0 0 0 .7.3 1.6 1.6 0 0 0-.1.2 6.6 6.6 0 0 0-.6.7l-.9.1a2.4 2.4 0 0 0 .8.4h-.5a5.8 5.8 0 0 0 1.3.7 5.6 5.6 0 0 0-1 1.2 5.3 5.3 0 0 0 1-.2 3 3 0 0 0 .3 1.3 4.7 4.7 0 0 0 .3-.5 3.3 3.3 0 0 0 .3.6h-.1l.2.1a1.2 1.2 0 0 1 .1.3s0 0 .1-.3h.2a3.5 3.5 0 0 0 0 1.1 4 4 0 0 0 1-.9 3.1 3.1 0 0 0 0 .4l-.3.1a2 2 0 0 0 .3 0 1.2 1.2 0 0 1 0 .3s0 0 .2-.2a1.8 1.8 0 0 0 .5 0 1 1 0 0 0-.2 0l-.8.8a2.6 2.6 0 0 0 .7 0l-.6.5a2.4 2.4 0 0 0 1 0l-.5.2a5.9 5.9 0 0 0 1.4 0 5.6 5.6 0 0 0-.3 1.5s1.5-1 1.4-2a1.5 1.5 0 0 0 .2-.2l.2.3v.6a2.5 2.5 0 0 0 .5-.5 4 4 0 0 0 .1.8 4.7 4.7 0 0 0 .5-.6 1.6 1.6 0 0 0 .1.2 6.2 6.2 0 0 0 .5.7v1a2.4 2.4 0 0 0 .6-.8l-.1.5a5.8 5.8 0 0 0 1-1 5.6 5.6 0 0 0 .8 1.3 4.4 4.4 0 0 0 0-1.8h.2v.4a2.7 2.7 0 0 0 .4-.4v.6a5.7 5.7 0 0 0 .5-.6 6.6 6.6 0 0 0 .7.8 5.2 5.2 0 0 0 0-.6 2.5 2.5 0 0 0 .3-.4l.2.6a2.6 2.6 0 0 0 .3-.8 4 4 0 0 1 .3.8 5.1 5.1 0 0 0 .2-.5 3.7 3.7 0 0 0 .7.7 4.3 4.3 0 0 0 0-1.1l.7.6v-.4a2.5 2.5 0 0 0 .5-.3l-.2.8a2.3 2.3 0 0 0 .7-.6l-.2.5a5.8 5.8 0 0 0 1.2-.8 5.7 5.7 0 0 0 .5 1.4s.7-1.7.1-2.4a1.4 1.4 0 0 0 .1-.3h.3l.3.7a2.5 2.5 0 0 0 .2-.8 4 4 0 0 0 .5.6 4.5 4.5 0 0 0 .1-.7 1.8 1.8 0 0 0 .2 0l1 .5a5.1 5.1 0 0 0-.3-.7 3.4 3.4 0 0 0 1.2.1 4.1 4.1 0 0 0-1-1 1.5 1.5 0 0 1 .6 0 4.7 4.7 0 0 0-.8-.6l.4-.2a4.7 4.7 0 0 0-.5-.3 2 2 0 0 1 .6 0s-.1-.2-.3-.4a2.5 2.5 0 0 0 0-.6l.5.8a2.4 2.4 0 0 0 0-1l.3.5s.5-2-.3-2.8l.3-.2.6.2a2.5 2.5 0 0 0-.4-.6 4 4 0 0 0 .8 0 4.7 4.7 0 0 0-.5-.6 1.5 1.5 0 0 0 .2 0l1-.5a4.6 4.6 0 0 0-1-.3l.5-.2a2.5 2.5 0 0 0-.7-.3 4 4 0 0 0 .7-.4 4.5 4.5 0 0 0-.8-.2l.3-.4h.7a2.5 2.5 0 0 0-.7-.4 4 4 0 0 0 .8-.3 4.9 4.9 0 0 0-.6-.4 1.2 1.2 0 0 0 .1-.1l.2-.1h.5l-.2-.3a1.6 1.6 0 0 1 .4-.4 5 5 0 0 0-.7 0l-.2-.2.8-.6h-.4a2.5 2.5 0 0 0-.2-.6l.7.4s-.2-1-.9-1.2a4 4 0 0 0 .6-.6 4 4 0 0 0-1.3 0 1.5 1.5 0 0 1 .4-.4 4.7 4.7 0 0 0-1 .2 4.7 4.7 0 0 0 .1-.5 4.7 4.7 0 0 0-.7.2 2 2 0 0 1 .4-.5s-.1 0-.4 0a2.5 2.5 0 0 0-.4-.4l.9.2a2 2 0 0 0-.9-.8l.8-.2a5.8 5.8 0 0 0-1.4-.5 5.7 5.7 0 0 0 .9-1.2s-1.8.3-2 1.2a1.3 1.3 0 0 0-.4.2v-.3l.3-.6a2.5 2.5 0 0 0-.7.3 4 4 0 0 0 .2-.8 4.8 4.8 0 0 0-.7.3 1.4 1.4 0 0 0 0-.2 6.5 6.5 0 0 0-.2-.9 6.4 6.4 0 0 0 1.8-.3l-.5-.3a6.9 6.9 0 0 0 1.4-.8l.1.5-.3.3h.4v.3a6.5 6.5 0 0 0-.4 1 14 14 0 0 1 1.3-.5 3.2 3.2 0 0 0 0 1.1s.2-.3.6-.8a3.4 3.4 0 0 0 0 1s.4-.5 1-1a3.1 3.1 0 0 0 0 1.1s.2-.4.7-1a6.6 6.6 0 0 0 .7.8 2 2 0 0 1 0-.7 3.4 3.4 0 0 0 .5.7s0-.3 0-.9a7.7 7.7 0 0 0 1.2 1s0 0-.2-.6a3.1 3.1 0 0 0 .9.9s-.1-.4-.2-1a3.3 3.3 0 0 0 .7.6s0-.2 0-.4a6 6 0 0 0 3 .2s0 0-.5-.3a2.8 2.8 0 0 0 .9 0 6 6 0 0 0 1.4.3 6.5 6.5 0 0 0-.7 1.4s0 0 .5-.3a2.7 2.7 0 0 0-.4 1s.3-.3.9-.5a7.2 7.2 0 0 0 1 .2 1.8 1.8 0 0 0 .2 0 5.1 5.1 0 0 0-.4.8 3.5 3.5 0 0 0 1.4-.5 5 5 0 0 0-.3.8 5.5 5.5 0 0 0-1 .6 1.9 1.9 0 0 0-.1.1 6 6 0 0 0-.3-1 4.1 4.1 0 0 0-.8 1.6 6.4 6.4 0 0 0-.5-1.1 6.3 6.3 0 0 1-.4 1.1 5.3 5.3 0 0 0-1.6-.4 5.8 5.8 0 0 0 .5.8A5.8 5.8 0 0 0 78 93a2.8 2.8 0 0 1 .5.7 4.7 4.7 0 0 0-2 .1 4.8 4.8 0 0 0 1.1.9 4.2 4.2 0 0 0-.6.2 5.7 5.7 0 0 0-.8-.2l.2.5h-.2a1.7 1.7 0 0 1 .3.1 3.8 3.8 0 0 0 .4.7 3.5 3.5 0 0 0-.7.5s.3 0 .8 0a7.6 7.6 0 0 0-1.5.7s.2 0 1.5.2a3.2 3.2 0 0 0-.7.6H76l.4.5a6.1 6.1 0 0 0-1.4.2 2 2 0 0 1 .6.4 5.3 5.3 0 0 0-1.6.5 4.7 4.7 0 0 0 1.3.6v.2h-.5a1.6 1.6 0 0 1 .3.3v.3h.1a4.4 4.4 0 0 0 .5.5 6.1 6.1 0 0 0-.8 0 4 4 0 0 0 1.4 1.3 6.8 6.8 0 0 0-.9 1 7.2 7.2 0 0 0 2-.4 7.6 7.6 0 0 0 0 1.8s0 0 .3-.5a3.1 3.1 0 0 0 0 1.2s.3-.4.7-1a8.2 8.2 0 0 0 1.2-.2 1.7 1.7 0 0 0 .2-.1 6 6 0 0 0 0 1 5.3 5.3 0 0 0 .8-.7 3.3 3.3 0 0 0 0 1s.3-.3.6-.7h.4a1.8 1.8 0 0 0 0 .3c-.9.9-.3 3.1-.3 3.1a7.3 7.3 0 0 0 1-1.7l.3.4v.5l.3-.2.2.2a6.5 6.5 0 0 0 0 1l1-1a3.2 3.2 0 0 0 .5 1s0-.5.2-1a3.3 3.3 0 0 0 .4.7s.1-.5.3-1.3a3.1 3.1 0 0 0 .6 1s0-.6.1-1.3a6.5 6.5 0 0 0 1 .4 2 2 0 0 1-.3-.7 3.4 3.4 0 0 0 .8.4s-.2-.3-.4-.8a7.8 7.8 0 0 0 1.4.3s0 0-.4-.5a3.1 3.1 0 0 0 1.2.3s-.3-.3-.7-.8a3.3 3.3 0 0 0 1 .2s-.2-.1-.3-.3a3.5 3.5 0 0 0 1-.4h.1a3.7 3.7 0 0 0-.7.7 3.2 3.2 0 0 0 .9 0 4.4 4.4 0 0 0-.2.5 3.4 3.4 0 0 1 .7-.3 2.1 2.1 0 0 0-.3.6s.2-.1.5-.2a2.2 2.2 0 0 0 0 .4 4.2 4.2 0 0 0-.5.4 5.8 5.8 0 0 0 1 0 4.9 4.9 0 0 0-.1.6s0 0 .4-.4a2.3 2.3 0 0 0 0 .5s0 0 .2-.2l.2.1a3.7 3.7 0 0 0-1.1 1 4.9 4.9 0 0 0 1.2-.2 5 5 0 0 0 0 1.2s0 0 .2-.3a2 2 0 0 0 0 .8s.2-.3.5-.6a5.4 5.4 0 0 0 .8-.1 1.3 1.3 0 0 0 .1 0 3.9 3.9 0 0 0 0 .5 3.5 3.5 0 0 0 .6-.4 2.2 2.2 0 0 0 0 .7s0-.2.3-.4h.3a1.2 1.2 0 0 0 0 .2c-.7.5-.4 2-.4 2a4.8 4.8 0 0 0 .8-1 5 5 0 0 0 .8.8s0 0 0-.4a2 2 0 0 0 .5.6s0-.3-.1-.7a2.2 2.2 0 0 0 .4.4s0-.4 0-.9a1 1 0 0 0 0-.2 1.6 1.6 0 0 0 .2.4v.2a1.2 1.2 0 0 1 .2-.1h.1v-.1a2.6 2.6 0 0 0 .2-.2 3.5 3.5 0 0 0 0 1 3 3 0 0 0 .7-.6v.4a1.1 1.1 0 0 1 .3-.2 1.8 1.8 0 0 0 .1.2v-.2a3 3 0 0 0 .5-.1 4 4 0 0 0-.2.4 2.6 2.6 0 0 0 1-.6 4.5 4.5 0 0 0 .6.8 4.9 4.9 0 0 0 0-1.3 5 5 0 0 0 1.2.3s0 0-.2-.3a2 2 0 0 0 .7.2s-.2-.2-.4-.6a5.5 5.5 0 0 0 0-.8 1.3 1.3 0 0 0 0-.1 4 4 0 0 0 .6.2 2.8 2.8 0 0 0-.4-1 3.1 3.1 0 0 0 .2-.6 4 4 0 0 0 .5.5 4 4 0 0 0 0-.4 4 4 0 0 0 .8.5 1.3 1.3 0 0 1 0-.5 3.5 3.5 0 0 0 .9.6 3.6 3.6 0 0 0-.2-.6 4.3 4.3 0 0 0 .8.1 1 1 0 0 1-.2-.3 2.1 2.1 0 0 0 .7.2s0-.1-.2-.3a2.1 2.1 0 0 0 .8-.1s-.2 0-.4-.2a2.4 2.4 0 0 0 .5 0 4.8 4.8 0 0 0 .5.2 6 6 0 0 0-.3-.7 5.1 5.1 0 0 0 1 0s0 0-.3-.3a2 2 0 0 0 .8 0s-.2 0-.5-.3a3 3 0 0 0-.3-.5 1.1 1.1 0 0 0 0-.1 4 4 0 0 0 .6-.2 3.4 3.4 0 0 0-.6-.4 2.1 2.1 0 0 0 .6-.2l-.5-.2v-.3a1.1 1.1 0 0 0 .1 0 3.6 3.6 0 0 0 1.6-.4 6.5 6.5 0 0 0-.7-.3 5 5 0 0 0 .6-1s0 0-.4.2a2 2 0 0 0 .4-.7s-.2.1-.6.3a2.1 2.1 0 0 0 .2-.5h.4a1.7 1.7 0 0 1-.4-.4 4 4 0 0 0 .5 0 3.7 3.7 0 0 0-.2-.2 4 4 0 0 0 1-.1 1.3 1.3 0 0 1-.4-.3 3.5 3.5 0 0 0 1-.1 3 3 0 0 0-.7-.6v-.1h.3a1.1 1.1 0 0 1-.1-.2 2 2 0 0 0 0-.2 3 3 0 0 0-.3-.4 3.8 3.8 0 0 0 .5 0 2.6 2.6 0 0 0-.8-.9 4 4 0 0 0 .4-.3v.2a2 2 0 0 0 .6-.5l-.2.5a5 5 0 0 0 1-.7 4.8 4.8 0 0 0 .5 1.2s.6-1.4.1-2a1.2 1.2 0 0 0 0-.3h.3l.3.6a2.2 2.2 0 0 0 .1-.7 3.4 3.4 0 0 0 .5.5 3.8 3.8 0 0 0 0-.6 1.2 1.2 0 0 0 .2.1 5.4 5.4 0 0 0 .7.3l.4.7a2 2 0 0 0 .1-.8l.2.4a4.9 4.9 0 0 0 .2-1.2 4.9 4.9 0 0 0 1.2.5 4.7 4.7 0 0 0-.3-.5 3.3 3.3 0 0 0 .7.4 3.4 3.4 0 0 0-.3-1 1.3 1.3 0 0 1 .4.2 4 4 0 0 0-.3-.9 3.8 3.8 0 0 0 .4 0 4.1 4.1 0 0 0-.2-.4 1.7 1.7 0 0 1 .4.2s0-.1 0-.3a2.1 2.1 0 0 0 .2-.4v.7a2 2 0 0 0 .5-.6v.4s1.2-1.2 1-2.2h.3l.4.4a2.1 2.1 0 0 0-.1-.6 3.3 3.3 0 0 0 .6.3 4 4 0 0 0-.1-.6 1.2 1.2 0 0 0 .2 0l1 .1a4 4 0 0 0-.8-.7l.5.2a2.2 2.2 0 0 0-.4-.6 3.4 3.4 0 0 0 .7 0 3.7 3.7 0 0 0-.4-.5h.3c.3 0 .5.2.5.2a2.2 2.2 0 0 0-.3-.6 3.4 3.4 0 0 0 .7.1 3.8 3.8 0 0 0-.3-.5 1.4 1.4 0 0 0 .2 0h.2l.3.2v-.3a1.3 1.3 0 0 1 .5-.1 4.3 4.3 0 0 0-.5-.3v-.3a5.2 5.2 0 0 1 .8 0s-.1-.1-.3-.3a2 2 0 0 0 0-.5l.4.6s.3-.9-.1-1.2a3.4 3.4 0 0 0 .7-.2 3.5 3.5 0 0 0-1-.5 1.3 1.3 0 0 1 .5-.2 4 4 0 0 0-.9-.3l.4-.3a3.8 3.8 0 0 0-.6-.1 1.7 1.7 0 0 1 .5-.2s-.1 0-.3-.2a2.1 2.1 0 0 0-.1-.5l.5.5a2 2 0 0 0-.2-.8l.4.3a5 5 0 0 0-.3-1.1 4.8 4.8 0 0 0 1.3 0s-1-1-1.8-.9a1.2 1.2 0 0 0-.2-.2l.2-.2h.5a2.2 2.2 0 0 0-.5-.4 3.4 3.4 0 0 0 .7-.2 4 4 0 0 0-.6-.3 1.4 1.4 0 0 0 .2-.1 5.6 5.6 0 0 0 .5-.6h.8a2 2 0 0 0-.7-.4h.5a5 5 0 0 0-1-.7 4.8 4.8 0 0 0 1-.9 4.5 4.5 0 0 0-.8 0 1.8 1.8 0 0 0-.4-.2l.6-.3a2.2 2.2 0 0 0-.2 0l.7-.4a3.8 3.8 0 0 0-.4-.2 3.1 3.1 0 0 0 .6-.6 3.5 3.5 0 0 0-1.1 0 1.4 1.4 0 0 1 .3-.3 4 4 0 0 0-1 .2l.2-.4a3.9 3.9 0 0 0-.5.1 1.8 1.8 0 0 1 .3-.4s-.1 0-.4 0a2 2 0 0 0-.3-.3l.7.1a2 2 0 0 0-.5-.6l.4.1a5 5 0 0 0-.8-.8 4.8 4.8 0 0 0 1.1-.7s-1.4-.4-2 .2a1.3 1.3 0 0 0-.3 0v-.3l.5-.3a2.2 2.2 0 0 0-.6 0 3.5 3.5 0 0 0 .4-.6 3.9 3.9 0 0 0-.6 0 1.4 1.4 0 0 0 0-.2 3 3 0 0 0 .2-.4 6.1 6.1 0 0 0 1 .6 7.4 7.4 0 0 0-.5-1.2l.2-.1h-.2l-.2-.4a6.6 6.6 0 0 0 1.6-.2s0 0-.5-.2a2.7 2.7 0 0 0 1-.2l-.9-.5a7.3 7.3 0 0 0-.4-1 1.8 1.8 0 0 0 0-.1 5.2 5.2 0 0 0 .8-.2 4.8 4.8 0 0 0-.8-.6 2.8 2.8 0 0 0 1-.2l-.8-.3v-.4a1.5 1.5 0 0 0 .3 0c.8.6 2.7-.2 2.7-.2a6.4 6.4 0 0 0-1.6-.6 6.6 6.6 0 0 0 1-1.3s-.1 0-.6.2a2.7 2.7 0 0 0 .6-.9s-.4.2-1 .3a2.8 2.8 0 0 0 .5-.5h.4a2.3 2.3 0 0 1-.5-.6 5.2 5.2 0 0 0 .8.2l-.2-.5a5.4 5.4 0 0 0 1.2 0 1.8 1.8 0 0 1-.5-.4 4.7 4.7 0 0 0 1.5 0Zm-3-13.5ZM72.3 93.2Zm50.7-6ZM81 76.4c.2 0 .3-.2.5-.3h.1a5.2 5.2 0 0 0 0 .9l-.2-.2a2.7 2.7 0 0 0-.4-.4Zm2.6-12.1.4-.2a2.2 2.2 0 0 0-.3.5v-.3Zm-23.3 11a2.7 2.7 0 0 0 .3.2v.2a3.6 3.6 0 0 0-.3-.4Zm7.3 5.2-.2.2-.2-.3h.4Zm11-15.7h.2v.1h-.3V65Zm-23.3 22ZM69 62.3a2.4 2.4 0 0 0 0 .3h-.3l.3-.3Zm9 2.8V65l.1.2H78Zm.6.1a4.2 4.2 0 0 0 0 .6 2 2 0 0 0-.3 0 5.1 5.1 0 0 0 .3-.6Zm1.1.3.4.4-.6.2a5.1 5.1 0 0 0 .2-.6Zm25.6 28.3Zm-16-51.5a5.6 5.6 0 0 0 .7-.5l-.6-.2a5.4 5.4 0 0 0 .7-.7v.2a3.3 3.3 0 0 0 .5-.8 4.2 4.2 0 0 0 .3.4 5.7 5.7 0 0 1 .1-.9 2.3 2.3 0 0 0 .2.2s0-.3 0-.7a1.6 1.6 0 0 0 .2.2v.2l.2-.1a4.7 4.7 0 0 0 .3.8 5.7 5.7 0 0 0 .4-.8h.2c-1 1.2-.4 3.7-.4 3.7l.3-.6a3 3 0 0 0 .1 1.2s.2-.4.6-1a3.2 3.2 0 0 0 0 .8l-.3.3a6.7 6.7 0 0 0-1-.2s.1 0 .4.3h-.1a3 3 0 0 0-.8 0s0 0 .3.3l-.4.2a7.2 7.2 0 0 0-.4-1.7s0 0-.2.6a2.9 2.9 0 0 0-.3-1.1s-.1.4-.4 1a3 3 0 0 0-.1-.8l.3-.4a2.4 2.4 0 0 1-.8 0Zm.8-1.6a2.8 2.8 0 0 1-.5 0 3.3 3.3 0 0 0 .4-.3v.3Zm2.2 3.6-.1-.1h.1Zm1.1-.2h-.4a2.7 2.7 0 0 1 .4 0Zm-1.5.7a7.4 7.4 0 0 0 0 1 1.9 1.9 0 0 0 0 .3 5.4 5.4 0 0 0-.7-.2 4.5 4.5 0 0 0 .7-1.1Zm-.7 1.1a5.2 5.2 0 0 0 .2.5l-.2.1s-.2 0-.3-.2a1.7 1.7 0 0 0 .1-.2l.2-.2Zm12.3 25.6-.2-.2.4-.2-.2.4Zm2 22.2ZM102 73h-.1.1Zm.5-.6h.1l-.2.1.1-.1Zm1.6-.8v.2l-.2-.2h.2Zm1.7 22.2ZM89.3 39.7l.3-.3v.2a3.2 3.2 0 0 0-.3.1ZM85.5 65h.1v.1l-.1-.1Zm11.6 6.6v.2l-.2.2a1.3 1.3 0 0 1 .4 0 2.4 2.4 0 0 0 0 .3l.1-.1a3.7 3.7 0 0 0 .7.2 5 5 0 0 0-.5.4 3.4 3.4 0 0 0 1.6.1 6 6 0 0 0 0 1.2 6.5 6.5 0 0 0 1-1.4 6.6 6.6 0 0 0 1 1.3s0 0 0-.5a2.5 2.5 0 0 0 .3.5h-.1l-.1-.1a1.8 1.8 0 0 0 0 .1 1 1 0 0 1-.3 0s0 0 .2.2a1.6 1.6 0 0 0 0 .5.8.8 0 0 0 0-.2l-.6-.7a2.1 2.1 0 0 0 0 .6l-.5-.6a2 2 0 0 0 0 .8l-.2-.3a5 5 0 0 0 0 1.2 4.8 4.8 0 0 0-1.3-.4s.8 1.4 1.6 1.3a1.1 1.1 0 0 0 .2.2l-.2.2-.6-.1a2.1 2.1 0 0 0 .5.5 3.4 3.4 0 0 0-.7 0 3.8 3.8 0 0 0 .4.5 1.1 1.1 0 0 0-.1 0 5.3 5.3 0 0 0-.7.5h-.3l-.1-.2a3.5 3.5 0 0 0 .2-.3s-.1 0-.3 0a5.2 5.2 0 0 0-.3-.8 6.8 6.8 0 0 0 .8.2 4.5 4.5 0 0 0-1.2-1.7 8 8 0 0 0 1.2-1 8.5 8.5 0 0 0-2.3 0 8.8 8.8 0 0 0 .4-2s0 0-.5.5a3.4 3.4 0 0 0 .3-1.2h.2Zm1.3 6.7a1.7 1.7 0 0 0 .4.3h-.4l.1.1-.3-.2.2-.2Zm-.2 1.9v.1-.1Zm.3-.4Zm-.3 0v.2l-.2.1a5 5 0 0 0-.4-.4 4 4 0 0 0 .6 0Zm-.2.8h.2-.2Zm-16.6 3.3h.7a1.1 1.1 0 0 0 .2 0 2 2 0 0 0-.4.2 5.3 5.3 0 0 0-.5-.2Zm-.2-2.8h.1l.1.1-.1.3H81a1.3 1.3 0 0 0-.3.2 2.4 2.4 0 0 0 .5-.6Zm.2-.4h-.2a4 4 0 0 0-.4-.3 4.3 4.3 0 0 0 1.2 0l-.3.3h-.3Zm18.2 11.1a.8.8 0 0 0 0-.1 1 1 0 0 0 .1 0V91.8a1.2 1.2 0 0 0-.1-.2Zm10.4-70ZM89.3 39.2Zm-52 13.6ZM39 81.2Zm16.4 4.9a2.9 2.9 0 0 0-.3.5l-.3-.4a4.8 4.8 0 0 0 .6-.1Zm10.3 1.3v-.3a2 2 0 0 0 .2 0 1.2 1.2 0 0 0 .2.1l-.4.2Zm4.4-2.7c-1 .1-1.6 1.5-1.8 2.1a6.2 6.2 0 0 0-1-.5 7.6 7.6 0 0 0 1.2-1.3s0 0-.6.2a3 3 0 0 0 .8-1s-.4.2-1 .3a3.4 3.4 0 0 0 .5-.8s-.5.2-1.4.3a1.3 1.3 0 0 0-.2 0 2.4 2.4 0 0 0 .4-.4h.5a1.7 1.7 0 0 1-.3-.3 2.8 2.8 0 0 0 .1-.2s0 0-.3 0a4.2 4.2 0 0 0-.3-.3 5.2 5.2 0 0 0 1.6 0h.5a2 2 0 0 0 .2.1 6 6 0 0 0-.5.8 5.3 5.3 0 0 0 1.1-.1 3.3 3.3 0 0 0-.5.9s.3-.2.8-.4l.4.2a1.9 1.9 0 0 0-.2.4Zm.4-9.3a3.2 3.2 0 0 0-.9 0l-.4-.1a6 6 0 0 0 .1.6 6.1 6.1 0 0 0-1.3-.5 2 2 0 0 1 .4.6 5.3 5.3 0 0 0-1.7-.4 4.6 4.6 0 0 0 .8 1.2l-.2.1-.3-.2a1.5 1.5 0 0 1 0 .4l-.2.3h.2a4.4 4.4 0 0 0 0 .7 5.8 5.8 0 0 0-.6-.3v.4a5.5 5.5 0 0 0-.5 0 7.6 7.6 0 0 0 .4-1.7s0 0-.5.4a3 3 0 0 0 .3-1.1s-.4.3-1 .7a8.4 8.4 0 0 0-1.1 0 1.8 1.8 0 0 0-.2 0 6 6 0 0 0 .2-.9 4.1 4.1 0 0 0-1.5 1 6.3 6.3 0 0 0 .2-1.3c-.3.4-.4.3-1 .8a3.3 3.3 0 0 0-.2-.4 3.5 3.5 0 0 0-.4-.8h.3l.2.2a1.4 1.4 0 0 1 0-.4 2.6 2.6 0 0 0 .2-.1s0 0-.2 0a4 4 0 0 0 .1-.7 5 5 0 0 0 .5.4 3.4 3.4 0 0 0-.1-1.6 5.9 5.9 0 0 0 1.1-.2 6.4 6.4 0 0 0-1.5-.8 6.6 6.6 0 0 0 1.1-1.2s0 0-.5.2a2.7 2.7 0 0 0 .7-.8s-.4.1-1 .2a6.8 6.8 0 0 0-.9-.5 1.7 1.7 0 0 0-.2-.1 5.1 5.1 0 0 0 .6-.6 3.7 3.7 0 0 0-1.4 0l-.2-.3a4.7 4.7 0 0 0 .5 0l-.2-.4a5.3 5.3 0 0 0 1.2 0 1.8 1.8 0 0 1-.5-.4 4.6 4.6 0 0 0 1.5-.1 4.6 4.6 0 0 0-.6-.6 5.5 5.5 0 0 0 1-.4 1.4 1.4 0 0 1-.5-.1 2.7 2.7 0 0 0 .9-.4s-.2 0-.5-.1a2.4 2.4 0 0 0 .6-.5 5.7 5.7 0 0 0 1.1.1 6.3 6.3 0 0 0-1.2-1.2 6.5 6.5 0 0 0 1.3-.8s0 0-.6 0a2.7 2.7 0 0 0 .9-.6s-.4 0-1 0a7 7 0 0 0-.7-.8 1.8 1.8 0 0 0-.2-.1 5 5 0 0 0 .7-.5 4.4 4.4 0 0 0-.9-.3 2.8 2.8 0 0 0 .7-.5s-.2 0-.7 0l-.2-.3a1.4 1.4 0 0 0 .3-.2 2 2 0 0 0 1.5-.5l.6 1a3.3 3.3 0 0 0 .2-1.2l.3.7a7.9 7.9 0 0 0 .3-2l.2.2.3.2a3.3 3.3 0 0 0 .1.4s.1-.1.2-.3l.4.2-.3.3a2.5 2.5 0 0 1 .8 0 5.5 5.5 0 0 0-.8.5 5.3 5.3 0 0 0 .6.2 5.8 5.8 0 0 0-1 .9 1.9 1.9 0 0 1 .7 0 5 5 0 0 0-1.1 1 4.2 4.2 0 0 0 1.4 0 6.1 6.1 0 0 0-.4.8c.4-.3.5-.1 1.3-.5a1.7 1.7 0 0 0 .2-.1 5.7 5.7 0 0 0 0 .9l.3-.3a4.4 4.4 0 0 0 .5.5 3 3 0 0 0-.9.1s.3.2.7.4v.4a1.6 1.6 0 0 0-.3 0c-.8-.7-2.8-.1-2.8-.1a6.5 6.5 0 0 0 1.6.8 6.7 6.7 0 0 0-1.1 1.2s0 0 .6-.1a2.8 2.8 0 0 0-.8.8s.4-.1 1-.2a3 3 0 0 0-.6.6s.6-.1 1.3-.2a1 1 0 0 0 .2 0 2.2 2.2 0 0 0-.4.4h-.4a1.5 1.5 0 0 1 .3.2l-.1.2h.2a3.7 3.7 0 0 0 .3.2 4.7 4.7 0 0 0-1.5.2 4 4 0 0 0 1 .8l-.1.1-.3-.1a1.4 1.4 0 0 1 .1.4 2.7 2.7 0 0 0 0 .2s0 0 .1 0a4 4 0 0 0 .3.6 5.2 5.2 0 0 0-.7-.1 3.4 3.4 0 0 0 1 1.3 6 6 0 0 0-1 .8 6.6 6.6 0 0 0 1.8-.1 6.8 6.8 0 0 0-.3 1.6s0 0 .4-.4a2.8 2.8 0 0 0-.2 1s.3-.3.8-.7a7.6 7.6 0 0 0 1 0 1.7 1.7 0 0 0 .2 0 5.1 5.1 0 0 0-.1.5V74.5h.2s.2 0 .3.2a7.7 7.7 0 0 0-1.6-.2s.2 0 1.2 1ZM71 74Zm5.6 0v-.5a3.2 3.2 0 0 0 .6-.1s-.2-.1-.5-.3a7 7 0 0 0 1 0 3.7 3.7 0 0 0-1.1.8Zm1.5 0a2 2 0 0 0-.3 0 5.8 5.8 0 0 0 .2-.8V73c-.2 0-.5-.3-1-.7a2.8 2.8 0 0 0 .8 0l.4.1a5.4 5.4 0 0 0-.1-.5 5.4 5.4 0 0 0 1.2.4 1.8 1.8 0 0 1-.4-.5 4.7 4.7 0 0 0 1.5.3 4 4 0 0 0-.7-1l.2-.2.3.3a1.4 1.4 0 0 1 0-.5 2.5 2.5 0 0 0 .1-.1s0 0-.2 0a4.1 4.1 0 0 0 0-.7 5.1 5.1 0 0 0 .6.3 3.5 3.5 0 0 0-.5-1.6 6.2 6.2 0 0 0 1.1-.4 6.5 6.5 0 0 0-1.7-.5 6.8 6.8 0 0 0 .9-1.4s0 0-.6.3a2.2 2.2 0 0 0 .4-.5 7.1 7.1 0 0 0 .6.6s0-.1-.1-.7a3 3 0 0 0 .7.9s0-.4 0-1a8 8 0 0 0 .6-1 2 2 0 0 0 .1-.2 5.5 5.5 0 0 0 .6.7 5 5 0 0 0 .2-1 2.8 2.8 0 0 0 .4.5l.2.2V65l.5-.3a4.5 4.5 0 0 0 1.7 2 8.3 8.3 0 0 0-.2-1.2 3 3 0 0 0 1-.3 5.4 5.4 0 0 0-.4 1c.3-.3.4-.2.9-.5a4.5 4.5 0 0 0 .7 1.2 4.9 4.9 0 0 0 .2-.7 5 5 0 0 0 .7 1.2 2.4 2.4 0 0 1 .1-.8 4 4 0 0 0 1.3 1.2 4.1 4.1 0 0 0-.1-1.2 3.8 3.8 0 0 0 .4.2 5.2 5.2 0 0 0 .4.6l.2-.4h.2a1.5 1.5 0 0 1-.2-.2 3.2 3.2 0 0 0 .1-.6 2.9 2.9 0 0 0 .8.1s-.2-.2-.4-.4a6.6 6.6 0 0 0 1.2.4s0 0-.5-.8h.2a7.2 7.2 0 0 0 1 .4 1.3 1.3 0 0 0 .2 0 5.2 5.2 0 0 0-.6.7 4.6 4.6 0 0 0 1 0 2.9 2.9 0 0 0-.5.7s.2 0 .7-.2l.3.2a1.5 1.5 0 0 0-.2.3c-1.1 0-2 2-2 2a6.4 6.4 0 0 0 1.7-.7 6.6 6.6 0 0 0 .2 1.6s0 0 .3-.5a2.7 2.7 0 0 0 0 1l.5-.8a3 3 0 0 0 .2.8l.6-1a1.1 1.1 0 0 0 .1-.2 2.1 2.1 0 0 0 0 .6 5 5 0 0 0-.1.3 1.5 1.5 0 0 1 .3-.1 1.9 1.9 0 0 0 0 .2l.1-.2a3.9 3.9 0 0 0 .5 0 4.6 4.6 0 0 0-1 1.1 5 5 0 0 0 .8 0l-.7.6a9.7 9.7 0 0 0-1.4 0 2 2 0 0 0-.3 0 7 7 0 0 0 .3-1 4.7 4.7 0 0 0-1.7 1A7.3 7.3 0 0 0 93 71l-1 .9a6.1 6.1 0 0 0-1.5-1.4 6.4 6.4 0 0 0 0 1 6.6 6.6 0 0 0-1.3-1.3 3.2 3.2 0 0 1 0 1 5.5 5.5 0 0 0-2-1 5.5 5.5 0 0 0 .6 1.4 5 5 0 0 0-.7-.1 6.8 6.8 0 0 0-.7-.7v.6H86a2 2 0 0 1 .3.2 4.3 4.3 0 0 0 0 1 4 4 0 0 0-1 0s.3.2.7.5a8.9 8.9 0 0 0-1.8-.2s.1 0 1.3 1.1a3.7 3.7 0 0 0-1 .1l-.4-.2v.7a7 7 0 0 0-1.5-.6 2.3 2.3 0 0 1 .4.7 6.1 6.1 0 0 0-1.8-.5 5.3 5.3 0 0 0 .8 1.5H81.8l-.3-.2a2 2 0 0 1 0 .3 6.7 6.7 0 0 0-1.4 0 7.6 7.6 0 0 0 .3-1.7s0 0-.4.4a3.1 3.1 0 0 0 .2-1.2s-.3.4-.8.8a8.4 8.4 0 0 0-1.2 0Zm3 11.6-.3-.2a1.3 1.3 0 0 1 0 .4 2.4 2.4 0 0 0-.1.2s0 0 .2 0a3.9 3.9 0 0 0 0 .6 5 5 0 0 0-.5-.2 3.3 3.3 0 0 0 .6 1.4 5.5 5.5 0 0 0-.8.4c-.1-.2-.4-.3-.7-.5a8.5 8.5 0 0 0-.3-1.2 2 2 0 0 0 0-.2 6 6 0 0 0 .9 0 5.1 5.1 0 0 0-.7-.8 3.3 3.3 0 0 0 1-.1s-.3-.2-.7-.5l-.1-.4a1.7 1.7 0 0 0 .4 0 1.5 1.5 0 0 0 .7.3 3.5 3.5 0 0 0 .5.7l-.2.1Zm3.5 6a2 2 0 0 0 0-.3V91.7Zm.8 1a4.8 4.8 0 0 0 .2-.8 3.3 3.3 0 0 0 .2.5l-.4.3Zm1.2.2.1-.1.2.2a2.4 2.4 0 0 0-.3 0Zm8.4-1.3Zm2-.2-.1-.2a1.7 1.7 0 0 1-.1.5 3.9 3.9 0 0 0-.3-.5l-.2.4a4 4 0 0 0-.5-.8 1.3 1.3 0 0 1 0 .5 3.5 3.5 0 0 0-.8-.8 3.5 3.5 0 0 0 0 .7c-.5-.3-1.3.2-1.3.2l.7.2a2.1 2.1 0 0 0-.5.2l-.3-.2a5.6 5.6 0 0 1 .2.8h-.3a4.2 4.2 0 0 0-.4-.4 1.3 1.3 0 0 1 0 .5l-.3.1.3.2v.2a1 1 0 0 0 0 .2 4 4 0 0 0-.5-.2 3.5 3.5 0 0 0 .3.7 2.2 2.2 0 0 0-.7-.1s.2.1.4.4v.3a3.8 3.8 0 0 0-.6-.3 3.5 3.5 0 0 0 .2.7 2.2 2.2 0 0 0-.7-.3s.1.2.3.5a4 4 0 0 0-.9-.5l.4 1a4 4 0 0 0-.6.1 3.5 3.5 0 0 0 .5.5 2.2 2.2 0 0 0-.6.1s.2.1.4.3l.1.3a1.2 1.2 0 0 0-.2 0v-.3l-.8.7a3.3 3.3 0 0 0 .1-.9s-.4.4-1 1a1.3 1.3 0 0 0-.2.1 2.4 2.4 0 0 0 .1-.6l.4-.3a1.6 1.6 0 0 1-.4 0V96l-.2.2a4 4 0 0 0-.5 0 5.3 5.3 0 0 0 1.4-1 4.6 4.6 0 0 0-1.4-.2v-.3h.4a1.5 1.5 0 0 1-.4-.3 3 3 0 0 0 0-.3s0 0-.2.2a4.2 4.2 0 0 0-.6-.5 5.7 5.7 0 0 0 .7-.3 5.7 5.7 0 0 0-.7-.4 4 4 0 0 0-.1-.9 3.4 3.4 0 0 0 .5.3 5 5 0 0 0 .4.5l.1-.4h.2a1.3 1.3 0 0 1-.1-.1 3.2 3.2 0 0 0 0-.7 3 3 0 0 0 .8.2s-.1-.2-.4-.5a6.7 6.7 0 0 0 1.3.5s0-.1-.7-1a2.8 2.8 0 0 0 .7 0l.2.2a5.2 5.2 0 0 0 .1-.5 5.3 5.3 0 0 0 1 .7 1.7 1.7 0 0 1-.2-.6 4.5 4.5 0 0 0 1.3.7 4 4 0 0 0-.4-1.2h.2l.2.2a1.3 1.3 0 0 1 0-.4 2.5 2.5 0 0 0 .3-.1s0 0-.2 0a3.8 3.8 0 0 0 0-.5h.1v-.2a5.2 5.2 0 0 0 .5.4v-.4a6.2 6.2 0 0 0 1.9.2 3.2 3.2 0 0 0-.3.7 3.5 3.5 0 0 0 1-.5 1.3 1.3 0 0 1-.2.4 4 4 0 0 0 .8-.4v.4a3.8 3.8 0 0 0 .5-.4 1.7 1.7 0 0 1-.1.6s0-.1.3-.2a2.2 2.2 0 0 0 .4.2l-.7.1a2 2 0 0 0 .7.4h-.4a2.3 2.3 0 0 0-.3.1s.2.2.6.4a2.2 2.2 0 0 0-.5 0Zm12.3 6.7a3.3 3.3 0 0 0 .2-1 2.7 2.7 0 0 0 .2.3l-.1.1h.2a1.1 1.1 0 0 1 0 .2l.1-.3a1.5 1.5 0 0 0 .4-.3.8.8 0 0 0 0 .2l-.3.7a4 4 0 0 0-.7.1Zm1 0a1.9 1.9 0 0 0 .2-.3v.2h-.3Z"/><path fill="#73bf44" d="M84.4 100.7c17.4 0 34-15.3 33.2-33.2a33.8 33.8 0 0 0-33.2-33.3c-17.4 0-34 15.3-33.3 33.3.9 18 14.7 33.2 33.3 33.2ZM75.4 109.7c5.7 0 5.7-9 0-9-5.8 0-5.8 9 0 9Z"/><path fill="#73bf44" d="M75 112.1c5.8 0 5.8-8.9 0-8.9-5.7 0-5.7 9 0 9Z"/><path fill="#73bf44" d="M75.5 115.7c5.7 0 5.7-9 0-9-5.8 0-5.8 9 0 9Z"/><path fill="#73bf44" d="M74.8 106.8c10.8 0 10.8-16.8 0-16.8-10.9 0-10.9 16.8 0 16.8ZM110.7 97.9a1.5 1.5 0 0 0 0-3 1.5 1.5 0 0 0 0 3Z"/><path fill="#73bf44" d="M109.4 98.5a1.5 1.5 0 0 0 0-3 1.5 1.5 0 0 0 0 3Z"/><path fill="#73bf44" d="M108.6 99.3a1.5 1.5 0 0 0 0-3 1.5 1.5 0 0 0 0 3Z"/><path fill="#73bf44" d="M108.2 100.4a1.5 1.5 0 0 0 0-3 1.5 1.5 0 0 0 0 3Z"/><path fill="#73bf44" d="M108.7 101a1.5 1.5 0 0 0 0-3 1.5 1.5 0 0 0 0 3Z"/></svg>