<svg xmlns="http://www.w3.org/2000/svg" viewBox="0 0 150 150"><path fill="#73bf44" d="M79.7 148.6c-.2-1-1-1.6-1.6-2.4-.6-.9-.4-2.2-.4-3.6v-3.3a25.5 25.5 0 0 0-.2-2.6 1.5 1.5 0 0 1 0-.5v-.7l.1-.6c0-.3.1-.5-.1-.6a3 3 0 0 0-1.5-.2h-4.6c-.7 0-2 .1-2.2 1a20.3 20.3 0 0 1 0 3.5c0 .8.4 2.8.4 3.9a29.1 29.1 0 0 1 .1 4 2.8 2.8 0 0 1-1.5 2c-.6.2-1 1.5-1 1.5h13c0-1.2-.3-.4-.5-1.4Z"/><path fill="#73bf44" d="m115 120.2.7-.7-.6.1-1-1.6-.2-1-1.8.3.3-.9-2 .6-.7-.6-1 1-.6-.8-.8.2.5-1.7-1.2-.6.4-.2-.4-1.2.9.6.2-1.9.5.5.3-.2 1 .7.2-1.3 1.6.5-.7-1.3.5-.2-.4-1.4 1.3.2 1.3-1-2.4-.6 1.4-.6-.9-1 1 .2v-.8l1 .4-.6-1.2 1.3.6-.4-2 .9.4.2-.8-1.1-.8-2-.4 1.6-.3-.4-1.6-1.5-.2.8-1.5-1.3-.7 1.8.2-1-1 .8-.8H111l.4-1.7-.9-1 1-.7-1.3-.5 1-.5-.9-1.3 1.3.2-1-1.5 1-.1-1.2-1.4.9-.4-1.1-.8-2-.4 1.7-1-2.6-.5 1-.6-.2-.8h-.6l1-1.5-1.3-.3.7-1.3h-2.3l1-1.2-2.6-.7 1.1-.5-1.4-.3 1.3-1-1.5-.3.8-1.3.4.5 1.4-.2-.8-1.2 2.1-.6-.5-.9 1 .5v-1.2l1.2.3 1.6-.9-1.6-1 1.1-.2-.2-.9-1.8.2.7-.4-.8-.6h-.9l.2-.7-.9-.7-1.7.7v-.4l-1-.3.4-1.2.8.2.4-1.1h.8l-.3-.9h.5l.6-1 .6 1 .9-.7.6.4 1-1.2-1.8-.9 1-.2-.4-1 1.3.3-.7-1h1.2l-1.3-1.6.6-.1v-.8l-1.3-.5.6-.6-.2-.8-1 .2.2-.4-1.2-.2v-.6h-.8l-.2-.6-1-.4 1-.8-.3-.3-1-.2.7-.4-.5-.6-1.7-.7 1.3-.3.3-.5-1.2-.7 1.4-.8-.7-.6h1v-.7l1.2.3-.7-.9 1.4.3-1-1.4 1-.2.3-.3-1.1-.7 1.2-.8-.4-.3-.9-.6 1-.4-.2-.1-.1-.8h.6l-.9-1 .6-.7-.8-.7-1 .3.6-.7h-1.4l.5-.8v-.8l-.8.1v-.6h-.6l.4-.8-1.5-.6h.7l-.6-1.2-2.2.2.8-.5-.6-.5-.7.3-.2-.6.1-.2h-1.3l.4-1-1-.7-.6.4-.3-.9-.9.3-.1-.7-.6-.3 1-.2-.2-.8.7.2.3-1 .7.3.1-1 .6.7.1-1 1.3-.3-1-.7.6-.2-.5-.6-1 .1.1-.6h-1l-.3-1 .5.3V22l1 .3-.4-.8h.8l.2-.6 1 .7-.3-1.2.8.2.3-.9-1.6-.2 1-.2-.2-.6h-1.2l.4-.3-.7-.4-1 .3-.4-.7-1.6.7.4-.6-1-.4-.4.8-1.1-.2.7-.7-.1-.5-1.1.9V16l-.6.3-.2-1-.8.7-.7-1.1.8-.2.3-.7-.8-.6 1-.3v-.6l-1.3-.3.9-.6-.7-.6-1 .6.2-1-1.3.4.7-1-.6-.1.2-.8h.7l-.5-.9h.5l.1-.7-1.4-.4 1.6-.5-.7-.8 1-.5-.8-.3.4-.7-1.5-.6 1-.4-.8-1-1.4.8.2-.7-.4-.7-1 .6.2-.7H85l.6.6-.9.6-.1-.5-.8-.7v.6l-.7-.4-.5.1.2-.8-1.2.4.1-.7-.5-.7L80 1l-.3-.7-1 .2.2 1-1.3-.2.7.5-.8.3-.6-.6-.2-.6-.1.2h-.8l.5-.7-1.2-.3-.2 1.2-1.5.3.9-.8-.8-.3-1.4 1 .3-.9L71 .2v1l-.8.7.2-.6-.8-.4-.5 1.9-.4-.5L68 2l.2 1.3-.8-.7-1.1.7 1.6.7v1l-1-.5.4.9h-1.1l.9 1.3h-.7l-.6.6-.6-1-.3.7-1-1.1.6-1-.5-.4-.9 1-.4-.6-.4.9-.8-.9-.2.8-.9-.2.3-.8-1 .2.2-1h.9l.1-.6-1-.2.7-.3-1-.7L58 3.7l.1-1.1-1 .1-.2 1.6-.9-.7.1.7h-1V4h-.8l-.2-.8-1 1.1-.8-.7-.2 1.8-.7-.6v.9L50 5.4l1 1.2-1.5.3-.6-.4-.4 1.1-.4-.4.1 1.4-1.3-.2.7 1.2-1.4.1 1.4 1-1.4.1 1 1.2 1-.4.1 1h1l-.3.8 1.3.4-.6.5.5.6-.8.6 1.7.2-.2 1-.8-.6-.8.6-.5-1-1.1 1.2-.5-.5-.3 1h-1.1l-.2 1.2-.3-.5h-1.5l1.3 1-.5.7-.9-.4-.6 1.3 2.1.5h-.6v.7h1.1l.7 1.1-1-.4-.6 1.2h-1l.6 1.3-1.1-.6-1.2.5.9.7-.2 1-.6-.2-1 1.3 1 .4-.2.8-.4-.3-1 .7 1.6 1h-.5l-.4.8h1.2l.5.8-1 .3.4 1 1.4-.7-.3 1.4h-1.3l.7 1-1.5.2 1 1.6h-1.2l-.1 1 1.3-.3 2.4.4-.5 1.1-1.8.2 1.3.8-1 .7 1.3.7-1.2.4.4 1 1-.3.4.7.9-.5.6.9-.9.3.9 1.1-1.4.4v-1l-.7-.4-.6.9-.4-.7-.8.6.4 1.5h-1.4l1 1.3-1.1.7-.3-.8h-1.3l.8 1.1-.7.6-1.2.1 1.3 1.2h-.9l.4 1.7-1.3-.6-.2 1.2 1.2.4.8 1-1.7-.3.5 1.2-.3 1-1.2-.3.1 1.6 1.1-.3v.9l.7-.3.6.7H39v1l-1-.2.6 1.1-1.4-.2.7 1h-1l.6 1h-1.2l.9.8-.4 1-.6-.6-1 .4 1.4 1-.6 1-.8-.8-.7 1L36 67l-1 .1.6 1-1-.4.6 1.3 1.8.4-.5.8h1l-.2.8-1.1.5 1.5.7-1.2.7-1.5-.6-.6 1.3 2.1.3.2 1.4-1.3-.3-.5 1 1.5.5.3.4H35l.9 1-1 .3 2 .6-1 .9h.9l-.4.9-1 .1.6 1h-.8l-.2.8 1.4.2-.6.6 1.5.6-1 .4.7.6-.9.4.9.3-.7.5 1.4.3-.6.3.4.6h.7l.3.7h-1.2l-.1.7 1.3.2-.6.4.8.6-1.4.2.2.8 1-.4v.7l.6.2-.7.5 1 .3-1.2.5 1 1h-.8l-.1.7 1.7.1-1 .2.4.7.9-.4v.6l.8-.2.3.7-1.1.2.5.6h-.4v.8l-.4-.2-.8.5 1.1.7-1-.1.6.5-.7.2v.6l-.7.3.7 1.2-.6-.3-.7.5 1.1 1h-1.2v.7l1.2-.4h1l-.4.7-.8-.2-.1.7 1.5.4-1.2.5.4.7 1.4-.7.9.7-1 .2.5.5.7-.2-.2.8.8-.2-.2.8H42l-.2.6-.7-.4-.4 1-.8-.2.3.8-1-.1-.7.8 1 .4-.4.6h1.2l-.5.6.6.5-.9.2.3.5-.8.2.6.7-.9.2.2.8 1.5.2.3.5H39l.4 1 1.7-.5.1.7-1-.1.4.7.5-.2-.3.5h.4l-.6 1 1 .3-.6.5 1 .1-.3.6h-1l.2.7h-1l.4 1h-.8l.3.8-1.4-.5.1.8 1.1.4-.3.6-.6-.4-.4.5.6.6h-1l-.2.6H37l.6 1-1-.3v.7l-1 .4.4.5-.8.8.7 1.2 1-.2-.1.6.7-.2.1.6 1-.3-1 .8v.6l2.1-.4-.8.6 1.2.1-.5.7.8-.1.1.8H40l-.7.3 1 .6-1 .3.9.7-1.2.1.7.8 1-.4v.6h1.2l-.3.4-.1.5 1.2-.5-.4.8.5.1 1.1-.4.4 1 .5-.9.2.5.9-.3-.3-1.4.4.6h1v-1.2l.9-.5.1.7h1l-.4-.7.8-.4v-.7l.6.4.8-.4-.1.6h.9l-.5.7h-.8l-.6.8 2.3-.4-.2.4 1.1-.1.3.4 1-.5-.3 1 .9.5v-1.5l.3.6.6-.7.4.8 1-1.3h.7l-.3-.5.7-.6.4.6.4-.2.3.8h.4l.3.9.7-.4v.7l.6-.3v.7l1.2-.6.2.6.8-.5v.6l.4.4.6-1.2.6.7.4-.5.3.7.7-1.1.4.1.2-1 .6.2.5-.3.1.7.6-.4-.1.6.3.4.5-1.1.8.7.2-.7s-.2 1.6.5.8l.8-.8 1.2 1.3 1.3-1 .9 1 1.1-.7v1l1.8.3.5-.6.2.7 1.3.8-.1-1.3.7.5 1-.6-.4 1.4 2 .3-.4-.4-.8-1.7 2.2-.3-.2-.7-.6-.7 1.1-.7.7 1.5.9-1.1.6.7 1.2.1-.7.7v1l1.9-.4-.2 1h.8l.8 1 .8-1.7-.2.8h2l.5 1.6 1.4-.2.6 1.2 1.1-1v.7l2.1.1-.4-1.3 1-1-1-1 1-.5.2-1.5 1.2 1.1v-1.8l1 .7v-1l1.3.2-.6-1.2 1.3-.1-1.2-1.4 2-.2-.8-.7.8-1.3-1.3-.3 1.6-1.4h-.8l-1.2-.8v-1l1.5.3 1.1-1.1 1 1.5 1.2-.8.3 1 .7-.6 1.1.1.7-1h2l-.7-1 1.7.3-.2-2 1.5.2-.8-1.1h1.4Z"/></svg>