<svg xmlns="http://www.w3.org/2000/svg" viewBox="0 0 150 150"><path fill="#73bf44" d="M43.8 118.6c-.3-.3-.6-.8-1.1-.3-.1.1-.2 0-.3-.1-.3-.6-1-.6-1.3-1.2.2-.2.3 0 .4 0 .3 0 .5.5.9.2.2-.2 0-.4 0-.5-.3-.4-.3-1-1-.9-.6.1-1-.4-1.5-.6a.4.4 0 0 1-.2-.5c0-.2.3-.2.4-.2a1 1 0 0 1 .8.1c.4.3.6.3.6-.4s.7-1 1.2-1.5c1-.7 1-1 0-1.8-1-.7-1.1-.7 0-1.5.4-.2.4-.3 0-.5a2.5 2.5 0 0 0-.4-.3c-.5-.1-1.3-.2-.4-.9.3-.2 0-.6 0-.8 0-.2-.3-.3-.6-.3a6.2 6.2 0 0 0-.8.2l.1-.7c.5-.4.6-.7-.1-.8h-.2c.1-1.1-.4-.5-.9-.1.6-1.9-.9-1.2-1.6-1.5l.1-.2c.4-.3 1 0 1-.7 0-.6-.7-.5-1-.9-.2-.3-.3.2-.5.3-.2 0-.3.3-.5.1a.4.4 0 0 1 0-.6 6.5 6.5 0 0 1 .6-.8c.1-.2.4-.3.2-.6a.6.6 0 0 0-.8-.3 3.5 3.5 0 0 1-1 .1c-.8 0-1-.1-.6-.9.1-.3-.2-.2-.3-.3-.2 0-.4-.1-.4-.4 0-.2.2-.3.4-.4a1.8 1.8 0 0 1 1.8.2 3 3 0 0 1-.4-1.4c.3 0 .3.4.5.5.2 0 .5.4.6-.2.1-.4.6-.7.9-1a5.7 5.7 0 0 1 1.8-1.3 1.2 1.2 0 0 1-.1.2c-.3.5-.3.5.1.9.2.1.1.3 0 .4-.3.3-.3.8-.5 1.2a.4.4 0 0 0 .2.5l.4-.2c.7-.3 1-.8.4-1.5l.1-.2c1 .5.8 1.7 1.6 2.3a.5.5 0 0 1 0 .5c-.5.9 0 .9.7.9 0 .3.3.5.6.7.2.1.4.3.3.6-.4.6.3.8.6 1 .3.2.6-.3.8-.6a.6.6 0 0 0-.1-1 6.1 6.1 0 0 0-2-.9 1.8 1.8 0 0 1 0-.6c.3-.4.7-.9-.3-1a.6.6 0 0 1-.4-.8c.2-.5 0-1 0-1.4a1.8 1.8 0 0 0-.8-1.5c-.1-.1-.3-.3-.4 0-.3.6-.8.5-1.3.5a8.6 8.6 0 0 1 1.1-2c.3-.2 0-.8-.5-.8s-1.1 0-.7-.9c-.1-1.6-.1-1.6-1.7-1-.2 0-.4.1-.6-.1-.2-.2 0-.5 0-.7a2.7 2.7 0 0 1 1.3-.8c-.3-.4-.7 0-1-.1-.5-.1-.6-.2-.4-.7.3-.7.6-1 1.4-.6a1.7 1.7 0 0 0 1.6-.2 1.3 1.3 0 0 1 1.1 0c-1.3.5-.3 1.6-.7 2.4v1c.5-1 .1-2 .8-3 .3.3.2.5.1.7-.2.3 0 .8.2.9a.8.8 0 0 0 .8-.7c0-.3 0-.7.3-1a4 4 0 0 0 3.7 1.6c-1-.8-.7-1.5.1-2.2-1-.1-1.5-.6-1.4-1.5a.7.7 0 0 1 .8-.5 1.6 1.6 0 0 0 1.2-.4.7.7 0 0 0-.6-.4c-.3 0-.7.2-.8-.3 0-.6 0-1 .4-1.5.3-.2.6-.3.7-.7a2 2 0 0 0-1.3.1c-.2 0-.6.2-.7-.2a.6.6 0 0 1 .4-.6c.6-.2 1-.3.8-1.1 0-.2.2-.4.5-.3a2.5 2.5 0 0 1 .8.5l.1-.2c-.4-.6-.7-1.2 0-1.7.2-.1.3-.4 0-.5l-1.5-1.2c-.7-.4-.8-.5-.3-1.2a2.4 2.4 0 0 1 .5-.4 8.3 8.3 0 0 1-1-.6c-.3-.3-.5-.6 0-.8.1 0 .3-.1.3-.3 0-.2-.3-.2-.4-.2a1.9 1.9 0 0 0-.6 0c-.7.3-1 0-.8-.7l.5-1.7a4.2 4.2 0 0 1 1.3 1.2c.1-1 .1-1.6.7-2.1.2-.2.6-1 .8 0a.2.2 0 0 0 .3.3c.2-.1.4-.4.3-.6-.3-.8.3-1 .9-1-.1-.3-.3-.2-.4-.2a.5.5 0 0 1-.4-.7c0-.3.3-.1.5-.2.4 0 1 .7 1.2 0 .2-.6-.3-1-.5-1.4a1.3 1.3 0 0 0-.8-.6c-.2 0-.4-.2-.4-.5a.4.4 0 0 1 .5-.3c.8.3 1.4-.5 2.2-.4.3 0 .5-.4.6-.7 0-.2-.3-.2-.5-.3-.1 0-.4-.1-.3-.4a.8.8 0 0 1 .5-.5c.2-.1.5 0 .6-.3 0-.4-.5-.3-.6-.4a2.2 2.2 0 0 1-.6-1.5.6.6 0 0 0-.3-.7c-.3-.2-.8-.5-.6-.9a1.4 1.4 0 0 1 1.1-.6c.3 0 .6.2.9-.2-.3-.2-.7 0-1-.1-.2 0-.6 0-.5-.3a.6.6 0 0 1 .4-.6c.5 0 1 0 1.3-.5a2.8 2.8 0 0 0 0-2.5c0-.1-.1-.4-.3-.5-.7-.2-1.2-.4-.4-1.2.2-.2-.1-.4-.3-.5a2 2 0 0 1-1.2-1c1 .6 1.4.3 1.4-.6 0-.4.2-.7.7-.1 0-.7-.4-1.4.8-1a1.5 1.5 0 0 0 1.5-.5c.4-.6.8-.5 1.3 0 0-.6 0-1-.6-1a4 4 0 0 0-.7 0 .5.5 0 0 1-.6-.3c0-.4.2-.5.5-.6.4 0 1 .2 1-.6.3.2.3.6.7.8a1.3 1.3 0 0 1 1-1.5c.5-.2 0-.6.2-.8.2-.2 1-.2.4-.9-.2-.2-.1-.7-.6-1-.4 0-.5-.6-1-.7-.4-.1-.2-.6-.2-.9 0-.2.3-.8-.4-.5-.2 0-.5-.7-.3-1 .3-.6.2-1-.5-1a.4.4 0 0 1-.1-.1c-.3-.3-1-.3-1-.8.2-.5.7-.4 1.1-.4.4 0 .5-.3.6-.7.2-.5 0-1.4 1.1-1 .2-.6.5 0 .7 0 .5 0 .6-.5 1-.7.3-.1.4 0 .5.3 0 .2-.1.5.3.7-.1-.6 0-.9.6-1 .2 0 1-.3.3-.9-.2-.1-.5-.7.2-.7.4 0 0-.5.3-.7a.4.4 0 0 1 .1 0c.3.2.5.7.8.3a.6.6 0 0 0-.4-.9c-.7 0-.7-1-1.4-1 0 0-.5-.6.2-.8 1.2-.3 1.2-.6.7-1.7a6.3 6.3 0 0 1-.6-1.2c-.1-.5-.6-1 0-1.6.2-.3 0-1-.5-1.4-.2-.2-.4-.3-.5-.6 0-.3-.5-.7-.3-.7.4 0 .4-.8 1-.5.3.2.1-.3.4-.4.2.3 0 .7.4 1a1.6 1.6 0 0 0-.2-2 5 5 0 0 1-.6-1.2.4.4 0 0 1 .2-.6.4.4 0 0 1 .5.1 3.9 3.9 0 0 1 .4.7c.2-.1 0-.4.3-.5a27.3 27.3 0 0 0 .2 4.1.5.5 0 0 0 .3-.5c0-1 0-1 1-.8 0-.8.4-2-1-2a.3.3 0 0 1 .2-.3c.6-.2 1.3-.1.4-1-.3-.3.2-.7.4-.8.5-.2.7.2.8.6l.8-.6a2.1 2.1 0 0 1-1.8-.9c-.2-.3-.3-.5.2-.6l.8-.2c.8-.1.8-.8.6-1.1-.2-.6.3-.7.4-.6 1 .5.8-.8 1.4-.9a10 10 0 0 0-1.2 0c-.3 0-.7 0-.9-.3-.2-.4.4-.5.5-1-.2-.2-1 0-.8-.5.1-.6.8-.3 1.3-.4 0-.5-.7-.1-.7-.6a1.3 1.3 0 0 1 .5-.9c.2-.2.5-.4.4-.8-.2-.4-.5 0-.7-.1a.8.8 0 0 1-.5-.2c-.2-.2.1-.3.2-.5.2-.2.7-.4 0-.7 0 0-.3-.4-.1-.6a.5.5 0 0 1 .7 0c.7.6 1 .4 1.2-.5 0-.2.3-.6.5-.6.5 0 .6-.4.8-.8.4-.6.9-1.2-.2-1.6a1.2 1.2 0 0 1-.5-1c.2-.2.3 0 .4.1.2.2.3.5.6.2a.4.4 0 0 0 0-.6c-.5-.5 0-1.2-.4-1.7l.2-.2a.6.6 0 0 1 .4.1 2 2 0 0 1 .5 1.5c0 .1-.1.5.2.4.3 0 .7.4 1 0 .4-.6.8-.8 1 0 .1.3.3.4.5.2.2-.4.7-.4 1-.5a1.6 1.6 0 0 1 1.5 0c.7.2 1.4.8 2.2.6a1.2 1.2 0 0 1 1.3.4c.3.3.4.5 0 .9-.1 0-.4.2-.2.4a.4.4 0 0 0 .5 0 .8.8 0 0 1 .7-.2c.2 0 .5.2.3.3-.5.7.4 1.5-.3 2.2-.2.2.2.3.3.3a1.2 1.2 0 0 1 1 .7c0-.6 0-1.2.7-1 .6.3 0 .8 0 1.2 1 1 1.7 0 2.6-.2a.5.5 0 0 0 .1-.8c-.4-.4-.3-.8-.4-1.3 0-.4 0-.8.7-.7.6.1.9-.4 1-1a5 5 0 0 0 0-1.8c.3.9.9.1 1.3.2.4 0 .8-.2 1 0 .3.4-.2.5-.2.7a.5.5 0 0 0 0 .3c.2.6 0 .8-.5.7-.4 0-.7-.1-.7.4 0 .3.3.4.6.3h.3c.1.7.8.6 1.2.8v.2c-1.1 0-1.5.5-1.1 1.5a.5.5 0 0 1-.2.7c-.2.2-.4.5-.2.8.2.2 0 .4-.1.6-.2.1-.4.2-.2.4.1.2.3 0 .5 0 1 .1 2-.4 2.8.6a3.2 3.2 0 0 0 .6-1.1c.3-1.3.7-1.5 2-1.7a.5.5 0 0 1 .6.2c0 .2-.2.3-.3.5-.1.2-.5.1-.5.5.4.2 1-.3 1 .3.1.4-.6.3-1 .6h-1c.6 1 1.8.9 2.6 1.4-.6.5-1.4-.6-1.8.4-.4.8.2 1 .7 1.5a2 2 0 0 0-1.2 2 .9.9 0 0 1-.4.9c-.6.4-.6 1.2-.9 1.8a18.3 18.3 0 0 1-1 2.6c1.5 0 1.5 0 1.7-1.2 0-.6.5-1 .8-1.4.1-.2.3-.3.5-.2a.4.4 0 0 1 .1.6 2.5 2.5 0 0 1-.9 1 1.3 1.3 0 0 0-.5 1.5c0 .2.2.4 0 .6-.1.3 0 .4.3.5.2.3.4.1.5 0l.4-.4c.4-.3.7-.7 1 .1 0 .2.2.3.4.5-.7 0-1 .7-1.5 1-.2.3-.6.6-.4 1 .1.5.6 0 1 .2-.8.6-.5 1.1.2 1.6 0 0 .2.2 0 .3-.5.4-.3 1-.7 1.5a.6.6 0 0 0 0 .6c0 .3.3.1.5.1l.5-.1a.7.7 0 0 1 .4.2c.1.2-.1.2-.2.3-.5.6-.2 1.4-.8 2l.2.3c.3.3.2.5-.1.6-1.1.4-1.3 1.4-1.4 2.2a3.4 3.4 0 0 1-.6 1.8c-.3.3-.7.7.1.9.4 0 .5.5.3 1a1.5 1.5 0 0 0 .4 1.8l.2-.1c-.5-1 .4-1.9 0-2.8 0-.3-.1-.7.2-.9.3-.1.6.2.8.4a5.1 5.1 0 0 1 .6 1.3l1-1.6a.6.6 0 0 1 .8-.2 4.1 4.1 0 0 1 1.2 1 1.1 1.1 0 0 0-.8.9c0 .6.6.7.6 1.3 0 .1.3.2.4 0 .3-.6 1-.3 1.4-.5.3-.1.7-.1.8.2 0 .3-.2.5-.5.6-.3.1-.7.1-.9.4a2.5 2.5 0 0 0-.5 1.2c0 .7.7 0 1 .3a1 1 0 0 0 .4.2c.5 0 1 .3.7.7-.3.4-.5 1.3-1.3.8-.2-.2-.4-.4-.7-.2-.3.3 0 .5.1.8.1.4.4.6-.2.9-1 .4 0 .9.2 1.3 0 .2.7.2.5.6-.2.4-.6.8-1.2.5 0 .7.1 1.2.8 1.4.4 0 .6.4.2.7l-1 1.4c-.2.2 0 .8.1 1.2a5.7 5.7 0 0 1 .1.8c.1.3-.1.7.5.9.5 0 .2.7.3 1.1.6.1 1.1-.5 1.8-.3 0-.4-.6-.6-.5-1a1.8 1.8 0 0 1 .7.4c.5.3 1 .9 1.5 0 .2 0 .6-.1.6.1.1.6.7.8.7 1.4-.3.2-.6-.2-1 0-.1 0-.4 0-.4.3 0 .2.2.2.4.3.2.1.5 0 .7.2 0 .4-.4.3-.6.6a1.7 1.7 0 0 0 .4 2.3c.3.2.5.4.5.7-.2.4-.5.2-.8.2-.4 0-.6.1-.6.5l.8.1c.4.7.5.2.7-.2.2.5-.2 1 .3 1.3.2.2.2-.3.5-.3 0 .3-.2.7.1.9.4.3.5-.3.8-.4l.8-.3a.8.8 0 0 0 .6 1.1 5.2 5.2 0 0 0-2.1 1.4 1 1 0 0 0-.4 1.3c.3.7 0 1.5.3 2.2 0 .1 0 .4-.2.4-.8-.4-.8.3-1 .7a3 3 0 0 0 0-.7c-.1-.3 0-.7-.4-.7s-.6.3-.6.7a2.2 2.2 0 0 1-.4 1.3c-.5.7.7.2.6.8.3 0 .4-.1.4-.4a2.5 2.5 0 0 1 .4-1c0 .3 0 .6.2.8.3.2.4.5.8.3a.7.7 0 0 0 .3-.7c0-.3-.3-.8.4-.4.4.2.4-.2.4-.4a1.6 1.6 0 0 1 .7-1.2 1.2 1.2 0 0 1 .4 1c0 .8.2 1 1 .6a3 3 0 0 1 1.1-.4c.5 0 .5-.5.5-.8.1-.4-.3-.2-.5-.2-.6 0-1-.4-1.3-.7-.3-.3-.2-.6.3-.7l.8.2c.3 0 .7.2.6-.4-.2-.4 0-.6.2-.7.3 0 .5.2.6.5a2.7 2.7 0 0 1 0 1.2c.4-.6.8-.7 1.2-.2.2.4.3.2.5 0a2.1 2.1 0 0 1 2.4 0c.2.1.5.2.4.6 0 .3-.4.3-.7.2-.2 0-.4-.3-.6 0-.2.5.3.4.3.7-.3 0-.8 0-.5.6a1.8 1.8 0 0 1 0 .8c0 .7-.3 1-1 .8-.3 0-.6-.1-.6.2.1 1-.4.4-.7.3-.2 0-.5-.4-.7-.2-.4.2-.5.6-.9.9 0 0 0 .3.2.4l.6.9c.2.2.4.4.2.6a.5.5 0 0 1-.7 0l-.9-.9c-.4.3-.3.8-.3 1.2 0 .7-.3.8-1 .5a6.7 6.7 0 0 0-.8-.3c-.2.7.8.7.8 1.3a1.9 1.9 0 0 0-2.3 0c-.4.4-.7.7 0 1 .5.2.7.7 1 1 .1.2.2.4 0 .4-1.2.4 0 1-.1 1.5v.3a2.6 2.6 0 0 1-1.2-.5c-.6-.5-1.2-.2-1.4.6-.2 1 .8 1 1.2 1.5.4.4 1 0 1.3-.4 0 .4 0 1 .5 1l.2.3c0 1 1 1.6 1.3 2.6a.7.7 0 0 0 1.2.1c.4-.5 1.6 0 1.8.9.1.5.4.1.6.2-.4.5-.7 1-1.2 1.4-.4.5-.3.8.3.9.3 0 .6 0 .7.4-.5 0-1 0-1.4.2-.3.2 0 .9-.3 1.3a2.5 2.5 0 0 1-.5.9 2 2 0 0 0-.4 1.6s0 .3.1.2c.9-.5.9.7 1.5.8.3 0 .5.4 0 .7-.2 0-.5.2-.4.4a.5.5 0 0 0 .5.4.6.6 0 0 1 .7.5c0 .4-.5.4-.8.3a1.7 1.7 0 0 0-.7.1c-.4.1-.4.3-.2.5a1.6 1.6 0 0 1 .3.8c.3 1 .2 1-.8 1.1-.5 0-1.2 0-1.4.4-.1.3.6.5.9.8.4.6.9.4 1.4.2.3-.2.5-.5 1-.5a1 1 0 0 1-.1.4 2.2 2.2 0 0 0 .7 2.6.8.8 0 0 1 .3.7c0 .2 0 .5.3.4l.4-.2a.3.3 0 0 0 0-.6 2 2 0 0 1-.8-1.2.6.6 0 0 1 .6.3c.3.5.7.8 1.2 0 .2.6.2 1.2.9 1.2 0-.2-.4-.4-.3-.7.1-.1.3 0 .4 0 .7.7 1.2.3 1.5-.3a10.4 10.4 0 0 1 1-1.5c.3-.5.3-.7-.3-.8a2.4 2.4 0 0 1 2.2-.3c1.2.2.1 1.4.9 1.9-.6 0-.5-.5-.7-.7-.6.6-.3 1.5-.3 2.3-.6-.3-.6-.8-.8-1.2-.2-.4-.4-.5-.8-.3a4 4 0 0 0-1.8 1.8c-.2.6-.8.4-1.1.7-.2-.5-.5-.4-.8-.2-.1 0-.3.3-.4.2-.6-.7-.7 0-1 .2a5.6 5.6 0 0 1-.6.3c-.1-.6-.6-.7-1.1-.8.3.8 0 1.2-.8 1-.8-.1-1 .2-.9 1 0 .2.2.8-.4.8-.8 0-1 .6-1 1.2.7-.2 1-.9 1.7-1 0 .2-.4.3-.3.6a3.2 3.2 0 0 0 1-.4 48.7 48.7 0 0 0 4.2-2.6 5.6 5.6 0 0 1-2 1.6l-3 1.9c-.2 0-.5.1-.4.4 0 .2.2.3.4.3a1 1 0 0 0 .6.1c.3 0 .7.1.7.5 0 .3-.3.5-.7.6a3 3 0 0 1-1.6-.2c.4 1 1.5.3 1.9 1-.3.3-.7 0-1 .1-.2 0-.5-.2-.5.2 0 .2 0 .5.3.5 1 .1.4 1 .7 1.4 0 0 0 .2-.1.1-1-.3-.8.7-1 1-.5.5-.5 1.2-1 1.6.4.2.6-.3 1-.1 0 .4-.4.4-.5.7.3 0 .6 0 1 .2s.7 0 .8-.5c0-.4.2-.7.7-.4a.4.4 0 0 0 .7-.2 2.9 2.9 0 0 0 .5-2.4c-.2-.6-.1-1.3-.8-1.8-.2-.2-.1-.6.3-.7.5 0 1-.1.5-.7l.1-.4c.7-.2 1.1-1 1.9-.4.3.2.5 0 .7 0 .2-.2.2-.4 0-.7a2.2 2.2 0 0 1 0-1c0-.4 0-.7.5-.6.3 0 .4-.2.6-.4a.6.6 0 0 1 .7-.3.7.7 0 0 1 .5.7 1.6 1.6 0 0 0 1 1.7c.2.2.5.6.3.9-.2.3-.6.1-.9 0-.1-.2-.2-.2-.4-.3-.2-.2-.4-.4-.6 0-.2.3.2.4.4.5 1 .2.8 1.1 1 1.8.2.3 0 .5-.2.4-.8-.2-1.3.5-2 .5-.2 0-.5.4-.8.1-.3-.2-.5.1-.6.4 0 .7-.8 1.5.3 2.2h-.5c-.7-.6-1.2-.3-1.8.2a1.8 1.8 0 0 0-.6 2.1c.2.4.5.6 0 1l.3.3c.4.3.4.8.6 1.2a.5.5 0 0 1 0 .5c0 .2-.2 0-.4 0a.5.5 0 0 0-.6 0 4 4 0 0 0-1.2 2.2c-.3 0-.3-.3-.4-.4-.1-.2-.2-.5-.4-.3-.2 0-.5.3-.3.5.4.5 0 .4-.2.4a1.5 1.5 0 0 0-1.4.6.6.6 0 0 1-.6.1c-.4 0-.7 0-.3.5.2.2 0 .4 0 .6a.7.7 0 0 0-.2.7c0 .2 0 .7-.3.7s-.8.4-1-.3c-.2-.4-.5-.7-1-.2-.3.4-1 .7-.4 1.5l.6.7c-.6-.1-1-.7-1.4-.2-.1 0 0-.4-.2-.7a74.3 74.3 0 0 0-6 5 48 48 0 0 1-13 9.4 20.9 20.9 0 0 0-3.6 2.3 1.5 1.5 0 0 0-.6 1.3c0 2.2-.2 4.5-.1 6.7 0 .7-.3 1-1 1h-3.7c-.5 0-.7-.2-.8-.7a45 45 0 0 1 0-7 2 2 0 0 0-.8-1.8c-1.7-1.7-4-2.7-6-4.1a23.7 23.7 0 0 1-4.3-3.8c-.4-.5-.6-.4-1 0-.1.3-.4.5-.7.3a.6.6 0 0 1 0-.9c.6-.7.2-1.2-.3-1.7-.8-.6-1.4-1.6-2.3-1.8-1.7-.6-2.3-2.2-3.7-3a32.5 32.5 0 0 1-3.9-3l-2.3-2.4c.3-.2.4.6.8 0 1.4 2 4.5 4.5 5.4 4.3-.6-.2-.6-.6-.5-1 0-.6-.5-1.3-1-1.2-.4.1-.5 0-.3-.4a.8.8 0 0 0-.5-1.1 1 1 0 0 1-.7-1.3c.1-.5-.2-.6-.5-.7-.9-.3-1.8.1-2.6 0Zm42.8 7-1 1.4-3 3.5a28.8 28.8 0 0 1-3.3 3.2A24.8 24.8 0 0 0 75 138c-.3.3-.6.6-.5 1.1a2 2 0 0 0 .4-.1 40.6 40.6 0 0 1 5.5-3 12.3 12.3 0 0 0 5.1-4.6c.5-.8 1.1-1.7.5-2.8a.3.3 0 0 1 .2-.5c.2.2.3.6.7.3a.9.9 0 0 0 .4-1 3.6 3.6 0 0 0-.7-1.9Zm.1-112-.3.8a1.6 1.6 0 0 0 1-2.1c-.3 0-.4.4-.7.3a1.2 1.2 0 0 0-1.5-1.4c-.3.1-.4.4-.6.7 0 .2.2.3.4.4.1.1.4.2.3.4-.1.3-.3.1-.5 0l-.6.1c-.2.2 0 .4.2.5l.2.5c.5 1 .5 1 1.4.2a1.2 1.2 0 0 1 .7-.5Zm-37.8 58c0-.4 0-.6-.2-.5-.8.4-.6-.1-.6-.5s-.4-.5-.7-.7l-.4.1a2.6 2.6 0 0 0-.2 2.8c.2.4.5.8.8.7a6.7 6.7 0 0 0 1.6-1l-.1-.2c-.5-.2-.2-.5-.2-.8Zm-4.6 42.8c-.5-.2-.5-.6-.5-1a.5.5 0 0 0-.2-.5c-.2-.1-.3.1-.4.2l-.8.8c-.3.1-.7 0-.5.5.1.4.1 1 .6 1a4 4 0 0 1 2 1c.3.1.8 0 .8-.4.1-.7-.9-1.3-1.6-1a1.4 1.4 0 0 1-1.2.3 4 4 0 0 1 1.8-.9Zm58.4-12.3c0-.3.9.1.3-.6a.2.2 0 0 1 .2-.3c.8.3.6-.4.7-.8.1-.5-.5-1 .2-1.5 0 0 0-.5-.3-.6-.5-.2-.6.4-1 .6-.2.3 0 .3.2.5s1.4.6-.1.7c-.3 0-.2.5-.3.7-.1.2 0 .6-.6.4-.2-.2-.5-.6-.7 0-.2.4.3.5.5.7a4.4 4.4 0 0 0 .9.2Zm-24 28.2a23.9 23.9 0 0 0-4 5.2 75.6 75.6 0 0 0 3.2-3c-.4-1 .3-1.5.8-2.2Zm16-14.2a1.8 1.8 0 0 0 2-.5c.3-.3.4-.5-.2-.7a3.6 3.6 0 0 1-1.4-.4c-.2-.1-.5 0-.5.2a3.2 3.2 0 0 1-.5 1.7c0 .2 0 .3.2.4 0 0 .2.2.3 0 .2 0 .1-.2 0-.3v-.4ZM53 49.3a2 2 0 0 0 .4 1.5c.2.3.5 0 .8 0 .8 0 1 .1 1 1l.3.2a.2.2 0 0 0 .3-.2c0-.4.3-1-.4-1.2a.7.7 0 0 1-.5-.8c0-.5-.1-.5-.5-.4-.5 0-1 .4-1.4 0Zm41.4 77c1.1-1 3-1.3 3-3.2 0-.2.4-.5.1-.6-.3-.2-.4.2-.5.3l-2.6 3.5ZM66.7 130a10.3 10.3 0 0 0 2.3 3.9c0-.7.7-1.4-.5-1.6l-.2-.4c0-1-1-1.3-1.6-2Zm30.7-15.7c.2-.5-.1-1.3.7-1.5.2 0 .8 0 .2-.6-.2-.2.4-.6.2-1-1.7.6-2 1.4-1.1 3.1Zm6.8-24.5c-.7.3-1 1-1.8.7-.5-.3-.7 0-.8.4 0 .3-.2.5-.3.7-.1.3-.4.7.1.8.6 0 0-.4.2-.5l.1-.1a17 17 0 0 0 2-1.1c.5-.3.5-.4.5-.9Zm-62.5.4c.3.3-.2 1.1.6 1 .5 0 1.2.2 1.3-.5.1-.5-1-1.3-1.5-1.2-.5 0-.2.4-.4.7Z"/><path fill="#73bf44" d="M36 95a2.2 2.2 0 0 1 .5-1.4c.2-.3.4-.5.7-.4.3 0 .2.5.2.7-.1.6-.8 1 0 1.7a1.7 1.7 0 0 1-1 .8c-.5.1-.3-.4-.4-.7a2.5 2.5 0 0 1 0-.7ZM68.6 137c7.7 0 7.7-11.9 0-11.9-7.6 0-7.6 12 0 12Z"/><path fill="#73bf44" d="M74 136c7.7 0 7.7-11.8 0-11.8-7.6 0-7.6 11.9 0 11.9Z"/><path fill="#73bf44" d="M73.6 139.8c7.7 0 7.7-11.9 0-11.9-7.6 0-7.7 12 0 12Z"/><path fill="#73bf44" d="M78.3 137.2c7.6 0 7.6-12 0-12-7.7 0-7.7 12 0 12Z"/><path fill="#73bf44" d="M82.6 134.3c7.6 0 7.7-11.9 0-11.9s-7.7 12 0 12ZM93.6 119.2c7.7 0 7.7-12 0-12-7.6 0-7.7 12 0 12Z"/><path fill="#73bf44" d="M92.4 126.8c7.6 0 7.7-12 0-12s-7.7 12 0 12ZM54.4 53.3c3.2 0 3.2-5 0-5s-3.2 5 0 5ZM85.7 15.4c3.2 0 3.2-5 0-5s-3.2 5 0 5Z"/></svg>