<svg xmlns="http://www.w3.org/2000/svg" viewBox="0 0 150 150"><path fill="#73bf44" d="M26 82.2c.2-.7 1.3-.4 1.2-1.3 0-.2.4 0 .6 0 .2.3.5.5.8.4.3 0 .8.2.8-.3s-.6-.6-.8-.5c-.7.2-1.5-.3-2 .5a.3.3 0 0 1-.5 0c-.3-.6-.5-.6-.9-.1-.2.3-.4 0-.5-.2a7.7 7.7 0 0 1-.2-.9c-.1-.5-.3-.9-1-.3.1-.8.2-1.6-.7-2-.2 0-.1-.2 0-.3.3-.4 0-.6-.3-.7-.3-.2-.7 0-.9-.6-.1-.3-.3.1-.4.2-.7.2-.6.7-.3 1.3.2.4.3.7.7 0l.4.3a1.4 1.4 0 0 1-.1 1.1.4.4 0 0 0 .5 0c.5-.2.7.1.7.6 0 .4 0 .5.5.6l-.7.3a5.4 5.4 0 0 1 .6.6.5.5 0 0 1 0 .6c0 .2-.3 0-.4 0-1.2.4-2-1-3.2-.6-.4 0-.9-.4-1.3-.7a6.5 6.5 0 0 1 .6-2c.1 0 .2.2.4.1-.2-.6-.5-1-1.3-.8-.7.2-.6.7-.7 1.2 0 .8.4 1.5.4 2.4 0 1 0 1.1-1 .6a3.5 3.5 0 0 1-.4-.3c-.3.8 0 1.2.7 1.3.5 0 .3.4.4.7.2.2 0 .3-.3.4a1.9 1.9 0 0 1-2.4-1c0-.4 1-1.3-.5-.8-.3.2-.8-.5-1.4 0h-.5c-.5 0-.5.2-.3.6a1.6 1.6 0 0 1-.5 2.4 4.3 4.3 0 0 1-1.3 1c-1-.2.8-1.1-.4-1.3-.5 0-1-.4-1.3.5-.2-.2.1-.7-.5-.7-.8 0-1-.4-.4-1a.5.5 0 0 0 0-.7c-.2-.5 0-1 .5-1.2.4-.1 1-.1.7-.9-.1-.2 0-.3.2-.3l.2-.2c-.8 0-.2-.6-.3-.8-.6-.8.2-.7.5-.8-.5-.4-.1-1-.5-1.5-.2-.2.3-.4.5-.4.8 0 1-.5 1.1-1.1 0-.4.3-.5.5-.4.9.7 1.6 0 2.4-.2 1.1-.4 1.2-.4 1.4 1 .3-.4 1.1-.3.6-1.2-.2-.3.5-.8 1-1a3.6 3.6 0 0 1 .9-.2c-.7-.4-.5-1-.5-1.4 0-.5-.2-.4-.6-.4-1-.1-1.1 1-2 1-.4 0-.7.3-.6-.4-.2 0-.3 0-.3.2a.5.5 0 0 1-.7.4c-.4 0-.3-.3-.4-.5-.1-.3 0-1.2-.7-.3-.1.1-.4 0-.4-.2-.2-.8-.7-.6-1.1-.4a2.4 2.4 0 0 1-1.3 0l.4-.6c1.2-.5.6-.9 0-1.3l-.4-.5-.5 1.1c0 .2-.2.5-.5.4-.3-.1-.2-.5-.1-.7a2.3 2.3 0 0 0 .3-1.2c-.1-.6-.6-.8-1-.6-.5.3-1 0-1.5 0 .4-.5.4-1.2 1-1.3 0-.3-.6-.1-.4-.2.7-.6-.1-.7-.3-.8-.7-.4-.9-.7-.2-1.2.6-.5.4-.7-.2-.9 0-1.3-1.3-.7-1.8-1.2-.1-.3-.5-.5-.3-.7.5-.9-.3-1.2-.6-1.6l.5-.9h.1c-.3-.8.6-.8.8-1.3.3-.5-.1-1-.2-1.6-.1-.6-.1-1.2.4-1.6.6-.3.5-1 .8-1.6A.5.5 0 0 0 5 53c-.6-.2-1.2-.2-.7-1.1.1-.2-.3-.1-.5 0-.2.2-.3.7-.6.4-.3-.2 0-.4.2-.6.2-.5-.1-.7-.4-1a.7.7 0 0 1-.5-.7c.1-.3.5 0 .7-.1.5-.3 1.2 0 1.5-.7.1-.2.4-.2.7 0 .1.1.4.4.6 0 .1-.3-.3-.3-.6-.4-.2-.1-.6 0-.4-.5 0-.2 0-.5.2-.5s.6 0 .7.3c.4.6.5.2.8-.1a1.9 1.9 0 0 1 1.1-.7 2 2 0 0 0 1.3-2.1.6.6 0 0 1-.8 0c-.2-.2-.5-.5-1 0-.2.4-1-.1-1-.6a1.2 1.2 0 0 0-1-1.3c.3-.4.8-.2 1.2-.4a2.7 2.7 0 0 0-1.8-.7 10.8 10.8 0 0 0 2.4-.3c.3-.1.6-.2.7-.6 0-.5-.4-.4-.6-.6-.2-.2-.8-.2-.6-.7.1-.3.5-.4 1-.3h.1c.6 0 1.3.1 1.5-.6.2-.6-.6-.6-1-.9A3.3 3.3 0 0 1 8 38c.7.1 1.5.4 1.1-.9 0-.2.2-.6.4-.5.8.4.7-.3.8-.6.3-.6-.3-.4-.5-.6-.2-.1-.4-.3-.2-.5a4.1 4.1 0 0 0 .7-2.1c0-.2.1-.3.3-.3a.3.3 0 0 1 .3.3V34a.9.9 0 0 1 1.2 0c0-.8.7-.6 1-1 .3-.5.8-.4 1.2.1-.2-.3.7-1-.4-1 .2-.3.2-.8.6-1 .6 0 .8-.5 1.1-.8-.3-.3-.5-.8-1-.9-.6 0-.7-.3-.2-.7a.7.7 0 0 0 .1 0c-.8-1.2.5-1 .8-1.4.4-.5.9-.1 1 .3.1.5.3.5.7.5-.7.9-.7.9.2 1.2.2.5-1.2.7-.2 1.4a4.3 4.3 0 0 0 .7-1.5.7.7 0 0 1 .6-.7c.5 0 .9 0 1 .4.2 1.2.9.6 1.6.5-.4-.3-1 0-1-.2.2-.5-.4-.7-.4-1 0-.5.5-.5.8-.5.3 0 .6.5.8 0 0-.6-.5-.5-.7-.5a1.4 1.4 0 0 1-1.2-1 1.8 1.8 0 0 1 .7-1.7c.1-.2.7-.2.5-.4-.5-.5.3-1.2-.3-1.6a.9.9 0 0 1-.2-.2c-.2-.3-.5-.6-.2-.8.4-.2.6.2.7.4.3.4.2 1 .6 1.3.4 0 .2-.5.5-.7.3 0 0 .5.3.5a.5.5 0 0 0 .3-.4c.3-1.4.8-1.7 2-1a1 1 0 0 0 1 .2.8.8 0 0 1 1 .3c0 .1.2.3.1.5 0 .1-.2.1-.4 0-.2 0-.4 0-.4.3 0 .4.3.2.5.1.7-.3 1.3-.7 1.6.4a.8.8 0 0 0 .8.2c1-1 .8.2 1 .7-.1-.6.4-1 .3-1.6a.3.3 0 0 1 .3-.4c.8.4 1.3-.3 2-.5-1 .2-1-.5-1.4-1.1a1.6 1.6 0 0 1-.1-1.8 3.7 3.7 0 0 1 .8-1.2c.6-.5 0-.9-.2-1.1-1-1-1.3-1.4-.4-2.2 1-.8.7-1.2 0-1.9.7.2 1.3.6 1.2 1.3-.2.5-.7 1-1.1 1.5 1 .4 1.5-.3 2.3-.7-1-.3-.3-1-.3-1.5 0-.2.3-.3.5-.1.3.4.8.3 1.2.4.2-.3-.3-.7.2-.9.3-.1.4.3.6.4a3.9 3.9 0 0 0 .7.5.7.7 0 0 0 .8-.2c.3-.4 0-.5-.3-.6-.2-.1-.5-.3-.2-.5s.3-.4 0-.6c-.2-.1-.2-.4 0-.4 1 0 .7-1 1-1.5-.4.4-.8.3-.8-.4 0-.3.5-.7-.2-1l.4-.3c.4 0 .7.2 1.2.4-.3-1 .8-1.2.8-2 0-.2.2-.2.4 0s.4.1.6 0c.3-.3.5-.1.5.2 0 .6.6.7.8 1a.3.3 0 0 0 .2.2c.2 0 .4-.6.6 0a.9.9 0 0 1-.3 1L41 9c.6.3 1 .7 1.7.5.3-.1.3.1.4.3a2.8 2.8 0 0 0 .8.5c.2.1.6-.1.6.3s0 .9-.3 1.2a.6.6 0 0 1-.9 0c-.3-.5-.7-.1-.9.2-.2.3 0 .6.3.8.6.4 1 .7 1.6 0 .4-.7.8 0 1 .3.2.2.4.4.8.3.3-.1.5-.3.3-.7a.3.3 0 0 1 0-.2c.8 0 .6-.7.6-1.1 0-.5.2-.8.7-.8.2 0 .5-.3.4-.5-1-1.2 0-1.6.7-2.3.3.4 0 .8.2 1.2 0 .2 0 .3.3.3a.2.2 0 0 0 .2-.3c-.2-.3.2-.6.1-.7 0-1 .4-.7 1-.6.6.2.5-.4.4-.7 0-.3-.3-.5 0-.7a.5.5 0 0 1 .7.2c.2.4 1.5.3.6 1.4-.3.3.4.4.6.6-.7.9-.7.9.3 1.3a1.7 1.7 0 0 1 .2.2c.3.1.6.4 1 .2.2-.2 0-.6 0-1 .6 0 .7 1 1.4.8v.3a1.5 1.5 0 0 0-.4 1.1c0 .8-.5 0-.7 0a1.2 1.2 0 0 0 .2 1c.1.2.3.5.5.3.8-1 .9.1 1 .5 0 .7.5.8 1 1 0-.4-.2-.4-.3-.6-.2-.2-.3-.5-.2-.8.2-.2.4 0 .6 0a4.2 4.2 0 0 0 1.8-.8c.3-.2.7-.5 1.1-.3.3.2.4 0 .5-.2a2.2 2.2 0 0 1 1.2-1c.3 0 .9-.1.2-.8-.7-.6.2-2.2 1.2-2.3.3 0 .6 0 .9-.2a.3.3 0 0 1 .5.2 2.6 2.6 0 0 0 .5 1.9c.2.3 0 .6 0 1 .8-1 1-2.6 2.4-2.8 0-.2 0-.3-.2-.4-.1-.2-.2-.4 0-.5a.3.3 0 0 1 .5.1c.3.7 1.2.7 1.4 1.4.2.3.5.2.8.1.3 0 .2-.2.1-.4-.1-.3 0-.6.2-.6.3 0 .8 0 1 .4v.6c.3 1 .4 1 1.1.2.3-.2.5-.1.6 0 .1.6 1.1.5.9 1.4 0 .1.3.3.7.3-.4-.6 0-1.1-.2-1.8 0-.2 0-.3-.3-.5-.6-.4 0-1 0-1.5s.3-.4.6-.3a.8.8 0 0 0 .7 0 1 1 0 0 1 1.4.1c.4.4.8.2 1.1-.3.2-.2.5-.5.9-.3.3.2.3.6.3.9 0 .3-.1.2-.4.1-.5-.2-1.1.5-1 1.1 0 .2.3.3.4.2.8-.9.7 0 .9.5.3-.3.3-1 1-.6l.1-.1c-.1-.8 1-1 .8-1.9v-.1c.5.3.9-.5 1.3-.2.7.5 1 0 1.4-.6 0 0 .3 0 .3-.3l-.2-.2a.9.9 0 0 1-.4-.8.2.2 0 0 1 .3-.2c.3 0 .4.3.5.6.2.4.2 1 .6 1.2.3.1.7.7 1 .3a1 1 0 0 0-.1-1.3c-.3-.3-.6-.5-.4-1a.2.2 0 0 1 .2 0c.4 0 .5.5.7.8.7 1.7 0 3.2-.5 4.6 0 .2-.2.5 0 .5.8.2.1 1 .5 1.4l-.1.2c-.4 0-.9 0-1.1.5H85c0-.5-.3-.5-.5-.3-.3.3.1.4.2.6.2.3.8.9-.3.7-.2 0-.1.2 0 .3 0 .2 0 .4.2.4s.6-.3.6.2a.7.7 0 0 1-.5.6c-.1.1-.5 0-.4.3 0 .4.3.1.5.1.3 0 .3.4.5.5.4 0 .6 1 1.3.1.2-.4.4.5.8.5 0-1.2.9-1.4 1.7-1.8.4-1.3 1.3-.4 1.5-.2.7.6 2 .3 2 1.7a.7.7 0 0 0 .5.7c.5 0 .6.4.9.7.3.5.8.6 1 .2.8-.9 1.1-.2 1.5.3h.2c.1-1.1.6-1.5 1.8-1.7.3 0 .6 0 .5-.6-.2-.8.8-.7 1.2-1.2.2-.2.4.3.5.5.2.3 1.2.4 1.4.2l.3-.2.2.2c.5.5 1.3.8 1.3 1.7 0 .3-.4.3-.6.2-.4 0-.8-.1-.8.5 0 .5.3.9.8.8.6 0 .5.4.6.7.1.1 0 .4.3.3a.5.5 0 0 0 .3-.2 5.6 5.6 0 0 0 .4-1.1c0-.4.3-.4.6-.5.3 0 .2.3.3.5a2 2 0 0 1 0 1.7v.3c-1.6.3-.4 1.2-.4 1.9l.2.5c0 .2.2.4 0 .6-.2.2-.4 0-.5-.1-.5-.3-1-.4-1 .4l-.3.6c-.2.6-.6 1.1-.2 1.8.2.2 0 .5-.1.7-.1.2-.3.4 0 .5.1 0 .4.2.6-.1a2.5 2.5 0 0 1 .9-1.3c.3-.3 0-.5-.2-.8-.2-.2-.4-.5-.2-.7.3-.3.6 0 .8.3a6.7 6.7 0 0 1 .8 1.5c.3.5-.4.8-1 1h.8a2 2 0 0 1 2 .7c.7.7 1 .6 1.4-.3.3-.6 1.1-.7 1.5-1.3 0 0 .5.1.5.3a1.4 1.4 0 0 0 1.4 1c.3.1.5.6.7-.1h.1c.6.5 1.4.2 2 .7l1 1.8c-.4.4-.2 1-.3 1.3a1.3 1.3 0 0 0 0 1.2 1.5 1.5 0 0 1-.7 2.2c-.2.1-.6 0-.5.4 0 .3.4.3.6.4a1.7 1.7 0 0 0 1 .1c0-.4-.4-.5-.4-.9.7.3.8 1 .9 1.5.3-.2.7-.2 1-.5.3-.3.7-.2 1 .2a1.4 1.4 0 0 0 .5.6.6.6 0 0 0 .6 0c.3-.1.2-.3.1-.6 0-.2-.1-.5.2-.6.2-.1.4.1.6.3.5.7 1 1.3 2 1a.9.9 0 0 1 1 .2c-1 .7-.3 1.4 0 1.8a2 2 0 0 1 .2 2c0 .3-.2.7.2 1 .3.3.5-.3.7-.3 1.1-.2.7-1.2.9-1.9.4.7 1.3.7 1.3 1.7.2-.3.5-.4.5-.8 0-.2-.2-.4.1-.5.3-.1.4 0 .5.1a.4.4 0 0 1 .1.6c-.3.5 0 .8.2 1.2a2.9 2.9 0 0 1 0 1.6c-.1.2-.4-.1-.7 0 .7.6.5 1.1-.2 1.6-.2.1-.3.4 0 .5.3.2.5.7 1 .3.3-.3.5-.8 1.2-.6.1 0 .5-.6.3-1-.2-.7-.2-1.2.6-1.5a1.3 1.3 0 0 0 .4-2c-.5-.7.4-.8.1-1.2-.4-.7.2-.6.6-.7l.4-.2c.3-.6.7-.4 1 0 .2.3.4.6.8.6-.2.5-1 .6-.5 1.3.2.3.1.2.3 0 .2-.3.4 0 .5.2a2.6 2.6 0 0 0 1 1c.9.4 1 1.4 1.5 2 .2.3-.1.4-.4.3-.4 0-.7.1-.6.5 0 .3.3.4.6.2l.4.1a.3.3 0 0 1-.2.5c-.5 0 .3 1.4-.8 1-.3-.2-.3-.1-.4.2a5 5 0 0 0 0 2c0 .4.6.4.9 0 .4-.5.7 0 1 .2.4.2.2.5 0 .7-.3.2-.1.5 0 .7 0 .2 0 .5-.3.6-.2 0-.6-.3-.6.2 0 .4.3.5.6.5 1 .2.6 1.1.8 1.7a1.5 1.5 0 0 0-1.1-.2c-.3 0-.7.2-.6.5.4.8-.4.6-.7.8.3.4.6.4 1 .4.2 0 .5 0 .3.4l-.2.3c0 .2 0 .5.2.4a.7.7 0 0 0 .5-.7 2.2 2.2 0 0 1 .6-1.9 1.2 1.2 0 0 0 .9 1c.4.7 0 1.2-1.2 1.2.4.3.4.4 1 .1l2.6-1a2 2 0 0 1 1.5-.1c.6.2 1.1-.2 1.8-.3-1.2-.5-.2-1 0-1.3.3-.6.5 0 .7.1a3 3 0 0 1 1.7 1.1l.2.3c0 .8.2 1 1 .5.2-.2 1.1 1 1.2 1.4 0 .5-.4 1 .2 1.4a.7.7 0 0 1 .3 1c-.4-.3-.9.3-1.2-.1-.3-.4-.5-.3-.9-.2a1.8 1.8 0 0 1-1.7-.3.5.5 0 0 0-.7 0 14.5 14.5 0 0 1 .6 1.3c.1.2.5.7.8.1l.3-.2c.2.8 1.4.4 1.5 1.3 0 .2.3.3 0 .6a.5.5 0 0 1-.5 0c-.7-.6-1 0-1.5.3a.5.5 0 0 0-.1.8c.3.1.4.6.9.4.8-.3 1-.2.8.8v.2c1.1.7-.3 1-.3 1.5 0 .2-.2.2-.4 0-.1 0-.3-.1-.4 0-1.3 1-.7-.3-.8-.8-1.3 0-1.3 0-1 1.1.2.3.2.6 0 .7-.2.2-.7 0-.3.6.1.1-.1.2-.3.3-.2 0-.7-.3-.6.2.1.4.1 1.2.9 1 .7 0 1.5 0 2-.7.2-.3.6-.4.7 0 .1.4.4.3.6.4a3 3 0 0 0-.9 2.4l-.1.3c-.2 0-.6 0-.4.3.1.3.3.7.7.7.6 0 1.4-.2.7 1a.3.3 0 0 0 0 .2c.9.5 0 1 .1 1.6.1.2-.3.3-.4.2-.5-.4-.8 0-1.3.4.3-.8-.1-.8-.5-.9-.5 0-.5.3-.4.6a.2.2 0 0 1 0 .2c-1.5.9-.4 1 .3 1.3l.5.4c.5.2.8.5.2 1-.4.3-.4.9-1 1.1-.7.3-.9.3-1-.5a4 4 0 0 1 .1-.5c-.4.2-.3.5-.4.7-.1.3-.2.7-.6.5h-.5c-.1.3-.1.6.1.7.6.2.2.7.3 1 .2.9-.4.5-.7.6-.3 0-.3.4-.6.5-.3-1-2.1-.9-3.1.1 0 .3.2.2.3.2.2 0 .5 0 .5.3a.4.4 0 0 1-.5.4 1.4 1.4 0 0 0-1.3.7c-.1.2-.6.4-.7 0-.2-1-1.1-.9-1.7-.9a18.2 18.2 0 0 0-1.9-.2c.3 1 0 1.3-.9 1.3h-.2c-.4-1-1.7-.3-2-1.4a1 1 0 0 0-.2 1.2c.4.6.3 1-.4 1-.8.1-1.4.4-1 1.4.1.5 0 .9-.7.6a12.8 12.8 0 0 1-1.4-.4c-.6-.3-.7 0-.7.5 0 .3.3.6-.3.8-.2.2.4.4.4.7 0 .3-.6-.1-.6.4s.4.8.7 1.4a2.8 2.8 0 0 1 .6-1.9c.2-.2.3-.2.6 0 .2.2.3.4 0 .6-.4.4-.8.7 0 1.5.3.4-.6.7-.9 1-.3.5-.5 0-.8-.4.2.8 0 1.2-.7 1.2-.4 0-1.4.2-.9 1.2 0 .2 0 .4-.3.4-.8.1-.8.1-.4.9l.3.5c-.4 0-.6-.4-.8-.5-.2-.2-.3-.4-.6-.2a.5.5 0 0 0-.1.7c.1.2.8.6 0 .7-.3 0 0 .3 0 .4a1.6 1.6 0 0 1 .5.8c-.8 0-1.1-.7-1.5-1.2a1.4 1.4 0 0 0-.9-.5c-.4 0-.3.4-.5.7a4.8 4.8 0 0 1-1.4 1.2c-.1.1-.4.1-.5.3-.2.4-.4.3-.6 0-.2-.7-.5-.5-.8 0-.5.5-.7-.7-1.2-.3-.1-1-1-.4-1.2-.4-1.7.3-3.3.8-4.9 1.2-.2.1-.5.2-.5.4 0 .3.3.4.5.5a7.7 7.7 0 0 0 2.4.3c-1-.8-.1-1.1.3-1.6.8 1.2.8 1.2.4 1.8 1.4-.2 2.6.4 4 .7h.2c.8-.7 1.3.3 2 .4.4 0 .7.2.7-.4 0-.5.1-.5.6-.4.4.2 1-.2 1.2.5a.5.5 0 0 0 .4 0c.3-1.2 1.5-.4 2.1-1 .1 0 .3 0 .3.2 0 .4.2.5.5.7.5.4-.3.4-.3.9a3.6 3.6 0 0 0 2-.6c.2-.1.3-.3.5-.2.2 0 .2.3.2.4 0 1.2.1 1.4 1.2 1.2a.3.3 0 0 1 .4.2v.5c-.7.5-.8 1 0 1.4.1.2.3.7.1.7-.4 0-1 .4-1.2 0-.3-.3-.4-.6-.8-.5l-.3-.2c.7-.7-.3-.8-.5-1.2a.6.6 0 0 0-1-.4c-.3.3-.8.8-.4 1.4 0 .1.1 1.2.8.3h.2a2.7 2.7 0 0 0 1.2 1.8c-.4.3-.8-.3-1 .3-.1.1-.3 0-.4-.1 0-.9-1-.8-1.3-1.4-.2-.3-.7-.2-1 0-.1.2 0 .8-.4.6-.4-.2-.9-.4-1-1 0-.4-.1-.7-.5-.1a.2.2 0 0 1-.3 0c-.7-.5-1.3-.8-2 .1h-.3c-.3 0-.2-.3-.1-.4.4-.6 0-.8-.4-1-.5-.1-1-.6-1.5-.6a.3.3 0 0 1-.4-.4c.3-.7 0-1-.6-1.3-1.2-.5-1.3-.5-2 .1.2.3.6.2.8.6.1.2.3.4.2.6-.1.4-.4.2-.5 0-.4-.1-.4.3-.6.4-.4.3-.7.9-1.1.7-.4-.2.4-.6 0-1-.2 0-.6 0-1 .2-.2 0-.4 0-.5-.4-.1-.3-.3-.7-.8-.7-.3 0-.6-.3-.8 0-.3.4.1.7.3 1a4.7 4.7 0 0 0 1.8 1.7h.1c1.4.7 1.4.7 2.7 2.5l.2.1c.6-.4.8 0 1.3.3a3.3 3.3 0 0 1 1.5 2.3c0 .2-.1.4-.3.4l-.3-.3c-.2-.3 0-.6 0-1-1.4 1.5-1.6-.4-2.3-.8 0 .4.6 1.2-.5 1.1a.5.5 0 0 0-.2.7 1.3 1.3 0 0 0 2.1.5c.2-.1.3-.3.5-.2a.4.4 0 0 1 .1.6c-.2.5 0 .8.3 1.2.3.2.4.5-.3.7-.8.4-1-.5-1.7-.4-.2 0-.1-.2 0-.4a1.3 1.3 0 0 1 .8-.4c-.8-.2-1.4-.8-2.3-.4-.4.2-1.5 1.2-1.5 1.7 0 .2.2.2.3.3.2.3.4.6.2 1-.3-.2-.7.6-1.1-.2l-.8-1c-.3-.7-.5.3-.9.1V109c0-.5-.4-.5-.8-.4a3.6 3.6 0 0 1-2.9-.4c-.1-.2-.1-.3 0-.4.7-.5.1-.7-.2-.8-.9-.3-.7-1.2-1.1-2.1a1.4 1.4 0 0 1-.5 1.1c-.2.1-.4.3-.2.5.1.2.5.3.2.6a.6.6 0 0 1-.9-.1c-.3-.3-.5-.6-.8 0-.1.2-.5.5-.8.3-.4-.3 0-.6.2-.8a.6.6 0 0 0 0-.5c-.2-.5-.3-.7.4-.7.5 0 .5-.5.3-1-.1-.2-.4-.4 0-.5.8-.3.5-.8.4-1.3l-.5-1.8a1.3 1.3 0 0 0-1.7-1.3 2 2 0 0 1-1.7-.2c-.1-.1-.5-.2-.3.3.2.4-.3.4-.4.6.3.5.6 0 1 0 0 .2.3.2.3.4 0 .3-.2.3-.4.3a4.6 4.6 0 0 1-1.7-.5c-.3-.1-.6-.2 0-.5.3-.2-.5-.7 0-1.3-.6.3-.8.9-1.4.4a3.4 3.4 0 0 0 1.2 2c.1.2.4.4.2.7-.2.2-.5 0-.8 0-.4-.2-.4-1-1-1-.1.4.4 1 0 1-.5 0-1 .7-1.6 0-.1-.4-.4-.3-.7 0a1.5 1.5 0 0 1-1.3.2c0-.3.2-.3.3-.4.6-.4 1.5-.4 1-1.5-.1-.2.1-.3.3-.4h.6c.7-.6.6-.7 0-1.3-.3-.3-.8-.3-1.2-.4-.6-.2-.6.3-.9.7a1.3 1.3 0 0 1-1 .4c-.6-.1-.8.3-1 .6L81.5 112c-1.2 1.8-1.7 4-2.6 5.9a5.2 5.2 0 0 0-.4 3.4 31.4 31.4 0 0 1 .4 8.4c-.2 2 .2 4 0 6-.1 1.5-.1 3-.4 4.6a16 16 0 0 0 0 5.5c.3 1 .2 1.2-.9 1.2H69c-1.2 0-1.4-.1-1.2-1.3.8-5.3.5-10.7 2-15.9a19.7 19.7 0 0 0 .4-4.5l.1-7.7a6 6 0 0 0-.6-2.5c-1.4-3.2-2-6.7-3.2-10a11.4 11.4 0 0 0-.6-1.3c-1.7-3-2.4-6.3-3.4-9.4a8.4 8.4 0 0 0-1.4-2.8c-.9-1-1.7-2.2-2.5-3.3-.5-.8-1.3-1.3-1.8-2-.3-.7-.6-.6-.8 0-.2.2-.3.4-.6.5-.2-.3.3-.5.1-1a16.2 16.2 0 0 1-5.3.4 15 15 0 0 1-4-.5c-.3 0-.6-.1-.8.1-.1.4.3.4.4.6.2.2.4.7.2.7-.4.1-.9.6-1.2.3a2.8 2.8 0 0 0-.8-.5c-.6-.3.2-.5.1-.9a1.5 1.5 0 0 0-1.4.8c-.5.8-1.4 1.2-1.9 2-.1.2-.3.4 0 .7.3.4.2-.1.4-.2.6-.2 1.7.3 2 1 .2.3.4.2.6.2a.9.9 0 0 1 .6 1l-.1.3c-.2.1-.2 0-.3-.1a3.4 3.4 0 0 0-1.4-.7 3.7 3.7 0 0 1-1.5-.4c-.4-.2-.8-.2-.6.4 0 .2.1.5-.1.5a13.7 13.7 0 0 0-2.1.2l-.1-.2c0-.3.2-.3.4-.4.3-.1.9.2 1-.5-.2-.3-.5.1-.7 0-.4-.5.7-.7.1-1.2-.3-.2-.8 0-1-.4.2-.4.6 0 .9-.2.2 0 .6 0 .7-.3-.5 0-.4-.7-.8-.6-.4.2-.5 0-.6-.2 0-.4-.1-.8-.7-.7-.4 0-.9.2-1 .8 0 .2 0 .6-.2.6a.9.9 0 0 1-1-.4 1.1 1.1 0 0 0-1-.6c-.6 0-.8-.2-1-.6-.1-.4-.3-.7-.8-.1-.2.3-.7.5-1 .8-.6.5-1.3 0-1.4-.5-.3-.6-.3-1.3-1-1.5-.1 0 0-.2-.2-.3l-.2.2c0 1.6-.2 1.8-1.8 1.5-.7-.1-.5.4-.4.7 0 .3.3.4-.2.6-.3.1-.4 1.2 0 1.6.4.4.3.6-.1.7H26c-1 1-1 .2-1.2-.6 0-.2-.2-.4-.3-.3-.7.5-1.5-.2-2.2.3-.3.1-1-.4-1.4-.8-.2-.2.3-.4.3-.7-.7-.1-1.3-1-2.2-.3a.3.3 0 0 1-.3 0c-.4-.9-1-.5-1.5-.2-.2 0-.3 0-.5-.2-.2-.3-.2-1-1-.7l-.2-.4c-.2-.7-.2-.7-1-1 .2-.3.8 0 .7-.6 0-.2-.1-.8.3-.7.2.1 1 0 1 .7-.1.5.4.5.8.5.2 0 .4-.4.7-.3.3.3-.3.5-.1.8.4 0 .6-1 1.1-.3.2-.4.7-.4.8-.8.2-.7.6-.2.9-.1.6 0 .2.3.2.5-.3.6 0 .9.5 1l.4-.1c.1-.2-.1-.3-.2-.4-.2-.6.3-.8.8-1 .4.6.8.7 1.2 0 .3-.3.5-.5.9-.2 0 .4 0 .7.5.5.8-.3 1.8-.2 1.8-1.5.3.2.2.7.6.6.1 0 .3-.2.2-.3-.4-1 .5-.6.8-.8-.2-.2-.6-.3-.6-.6.1-1-.4-.6-1-.5l-.7.2Zm82 8.7c.1-.2.4-.3.4-.6a12.5 12.5 0 0 1 .5-3c0-.4 0-1 .6-.4.3.3 1-.2 1-.5a3.2 3.2 0 0 1 1-1.7s.4.7.4-.1c0-.2 0-.6-.4-.4-.8.3-1.5-.2-2.3-.4-.2 0-.3 0-.4.2 0 .3.1.3.3.3.2 0 .3 0 .3.3-1 0-.6.6-.4 1 0 .2.2.4 0 .6-.2.2-.4 0-.5-.1-.4-.6-.8-.2-1.2 0 .2.4 1.2.5.7 1.1-.7.8.1.6.3.7a4.2 4.2 0 0 0-.3 3 2.3 2.3 0 0 1-.3 1.7c-.4.5-1.2.9-1.7.5-.2-.2-.4-.4-.6-.2-.3.2-.1.5 0 .7 0 .4.3.7.7.8a1.5 1.5 0 0 1 1.1.5c.3-.2-.1-.6.2-.8.3 0 .6.2.7.5.1.4.3 0 .5 0 .5.1 1.2-.2 1.5.3.3.6.5.5 1 .4l3.9-1c.8-.1 1.8-.1 1.2-1.5.5.2.5.8 1 1.1-.2-1.3 1.5-.7 1.4-1.9h.2c1 0 1.2-.1 1.4-.9V91c.8.2 1.2-1.2 2-.6.3.1.8.1.4-.5-.3-.5.1-.5.5-.5a1 1 0 0 1 .6.4c.2.3.4.2.6 0 .4-.4-.1-.3-.2-.4a.3.3 0 0 1 0-.4c.2-.2.3-.4 0-.7-.2-.3 0-.5.3-.5a1 1 0 0 0 1-1l-.4-1a4.1 4.1 0 0 0-1 .2l-.3-.1c.3-.6 1-1.1.2-1.6-.5-.3-.5-.5-.3-1 .2 0 .3-.3 0-.4-.2 0-.3.1-.3.3 0 .2 0 .6-.3.5-.7-.3-1.6-.3-2-.6-.6-.5-.8-.3-1.1.1-.3-.4.2-.8-.2-1-.6-.4-.5.5-1 .5-.1-.5-.2-1-.9-1-.3.1-.6.3-.5.7 0 .2 0 .6-.2.5-.5-.3-1 .7-1.4 0-.2-.3-1-.1-.6-.8.1-.2.6-.4.3-.7-.4-.3-.3.4-.6.4l-.2.1a2.8 2.8 0 0 0-1.2 3.4c.1.3.3.8.1.8-.4 0-.7.5-1.2.3 0 0-.1-.5-.4-.1-.2.2-.2.5 0 .7.5.4.2.7-.2 1-.2.2-.6.4-.5.6.5.6.2.8-.2 1a.4.4 0 0 0-.2.5c0 .2.2.8 0 .8-.5-.3-1 .7-1.5 0-.1-.2-.3-.3-.5-.2-.2.2-.2.4 0 .6 0 .2.3.3 0 .6-.3-.3-.4-.8-.8-1Zm-29.9 15.6c1.9-3.2 5-5.4 6-9.1.1-.3.4-.5.4-.8.2-.4 1.2-.9 0-1.3a.3.3 0 0 1 0-.2c.4-.7-.3-1.5.3-2.1-.4 0-.8.3-.8 0 0-.5-.7-.8-.3-1.5.2-.4-.5-1.3-1-1.1-.3 0-.7.1-.9-.2-.2-.3 0-.6.2-1 .4-.6.4-1.2-.4-1.6l-1.7-.6c-1 6.4-1 13-1.8 19.5Zm-8-7.4c0-1.2.3-2.1 0-3a49.4 49.4 0 0 0-3.3-8.7 4.2 4.2 0 0 0-1-1.5l-1.5 4.7c-.1.4 0 .7.3 1l3 4.2a18.8 18.8 0 0 0 2.5 3.3Zm33-.8c-.2 1.5 1.6 1.6 2 2.8 0 .2.5.3.7.1.5-.5 1-.4 1.2.1.1.3 1 .5.3 1.1v.3c.2.3.3.6-.3.4-.5 0-.5.4-.4.7.1.2-.2.8.5.7.6-.1 1 .1 1 .8 0 .6.2 1.2 1 .9a2.4 2.4 0 0 1 1.4 0c-.1-.7-.9-.6-1.2-1.2 1 .3 1.3-.1 1.4-1 0-.3.4-.8.6-.7.5 0 .3-.4.3-.5 0-.2-.1-.5-.5-.4-.2.1-.5.1-.6-.2a3.5 3.5 0 0 0-1-2.1c-.5-.7-.8-1.2-1.7-.7-.4.2-.7 0-1-.2-.3-.2-.5-.4-.9-.3a.4.4 0 0 1-.5-.4c-.2-1-1-.5-1.3-.2-.4.2-.6.4-1 0ZM48.7 81.7c-.4 0 0-.5-.3-.4a1 1 0 0 0-.8.9.6.6 0 0 0 .6.8l2.2.5a24.1 24.1 0 0 1 4.2 1.2.6.6 0 0 0 .9-.2c.2-.3-.2-.4-.4-.6a2.2 2.2 0 0 1-.4-.5 64.5 64.5 0 0 0-4.2-5.3c-.1-.2-.3-.4-.5-.2a.6.6 0 0 0-.1.6 2.1 2.1 0 0 1-.8 2.7 8.7 8.7 0 0 1 .6-2.1c-.5 0-.8 0-1-.4.1-.3.6-.1.5-.7-.5.3-1.4-.7-1.6.6h-.2c-.7-.2-.6.4-.5.6.3.4 0 .6-.2.9-.3.2-.2.5 0 .7.3.3.3-.2.4-.2.5-.2 1-.6 1.5-.2a1 1 0 0 1 .1 1.3ZM11.2 64.3a1.6 1.6 0 0 1-.1-.2c-.6-1.3 1.3-.1 1-1.2 0-.1.4 0 .5.2 0 .3.4.9.5.7.5-.4 1.4-.1 1.7-1 .1-.4 0-1 .5-1.3.1-.2 0-.5-.4-.4l-1 .3c-.8.2-1.4.8-2.3.8l1.6-.9a1 1 0 0 0 .5-1c0-.4-.6-.5-.9-.5a2.5 2.5 0 0 0-1.2.5c-.7.6-1.4 1.2-2.3.4a.5.5 0 0 0-.6 0c-.4.6-1 .6-1.5.8h-.3c0 .6 0 1.1.4 1.4.2.3.7 0 1-.2.5-.3.6-.3.9.3.4 1.3.6 1.5 2 1.3ZM28 76.6a1.4 1.4 0 0 0-.4-2.3.7.7 0 0 1-.2-1c.6-.8-.2-1-.5-1.2-.6-.3-.3.3-.3.5s-.2.1-.3 0c-.3 0-.5.2-.7.3-.9.3-1.1 1.3-1.8 1.9-.3.3-.7.6-.4 1 .3.6.6 1 1.3.9 1.2-.2 2.4-.3 3 1.2h.3c.5-.2.7 0 .7.5 0 .7.7-.1.7.4a.3.3 0 0 0 .3-.3c-.5-1 .1-1.4 1-1.7-.7.2-.9-.3-1.2-.6-.7-.5-.7.7-1.5.4Zm8.6 6.8c-.2.8-.2.8-1 .7-.5 0-1 .6-.8 1 .2.1.2.3 0 .4-.3.3 0 .5.2.5.5 0 1.2.2 1.6-.4a1 1 0 0 1 1.7.2c.3.5.5.5 1 .3.6-.3 1.3-.4 1.7-1.1a.7.7 0 0 1 0 .7c-.1.3 0 .4.3.4a1 1 0 0 0 1.1-.5c.1-.2.2-.4 0-.5-.7-.1-1.1-1.3-2-.5a.2.2 0 0 1-.3 0c-.5-1.2-1.5-.8-2.2-.5-.4.2-.6 0-.8-.2-.2-.1-.2-.5-.5-.5ZM34.4 78c.6-1 1-.1 1.6.1.4-1.4.5-2.6-.8-3.6-.4 1-1.2 2-.8 3.5Zm106-24.7a4.7 4.7 0 0 0-2 1.1.4.4 0 0 0 0 .6c0 .1.3.2.3 0 .5-.6 1-.6 1.5 0 .2.1.5-.1.7-.3.4-.2.7-.4.8.2 0 .2 0 .3.3.3s.4-.2.4-.4.2-.6 0-.6c-.7-.2-1.1-.8-2-.9Zm-29-22.9c-.3.5 0 .8 0 1.1-1-.2-.5.9-1 1.1a.4.4 0 0 0 0 .7 1.3 1.3 0 0 0 1.2.3c.6-.1 0-.4 0-.5.2-.3 0-1.1.8-.6.5.2.6-.3 1-.4v-.4c-.2-.3-.6-.4-.7-.3-.6.7-.7 0-.9-.3l-.4-.7Z"/><path fill="#73bf44" d="M144.6 44.8c.4.3.6-.6 1 0 .2.3-.2.6-.3 1-.2.3.2.4.3.6 0 .2.2.4 0 .6-.1.2-.3 0-.5 0-.2-.2-.4-.4-.7-.2-.3.3-.1.5 0 .8.4.6-.5.5-.5.9 0 .7-.3.5-.8.4a1.3 1.3 0 0 0-.5 0c-.3 0-.7 0-.7-.3 0-.4-.5-.9.1-1.2a.7.7 0 0 0 .5-.8c-.1-.7.6-.4.8-.9.2-.2.7-.3.8-.8 0-.3.3-.1.5 0ZM139.1 52.4c0-.3.5-.7-.2-.8-.2 0 0-1.6.1-1.6.7.4 1-1.2 1.7-.4l.2-.3c.5-.5.7-.2 1 .2.1.3-.2 1 .5.7-.5.5 0 1.3-.4 1.7-.3.2-1 .9-1.5 0h-.1c-.3.8-1 .1-1.3.5ZM3.4 59.4l-.5.9c-.3-.3-.7.2-1-.2-1.2 1.2-1.4-.3-2-.8a.2.2 0 0 1 0-.4c.4-.1.5-.3.3-.6V58c.6.3 1.2-.6 1.8.2.3.4 1.2.4 1.4 1.2ZM132.6 86c-.5 0-.4.4-.5.7-.1.6-.4 1-1 .5l-.2-.2c-1.1.9-.8-.7-1.4-.8v-.3c.5-.6 1-1.3 1.8-1.3.3 0 .4.1.4.3 0 .6.5.7 1 1ZM24.8 83.2l.2.3c.5.4.4.7-.1 1l-.4.1c-.4-.3-.6 0-.9.3-.4.6-.8.5-1.2-.1-.6-.5-.3-1-.2-1.6.3-.8.7-.6 1-.3a1.5 1.5 0 0 0 1.6.3ZM114.8 92.4a1.3 1.3 0 0 0-.5 1.2c0 .6-1 0-1.2.6-.5-.8-1.4-.4-2-1-.2-.1-.4-.2-.4-.5 0-.4.4-.2.5-.3.4-.1 1 0 .7-.8a.3.3 0 0 1 .3-.3c.7-.1.1-.5 0-.6 0-.2-.5 0-.4-.5.2-.3-.9 0-.3-.5a.6.6 0 0 1 1 .1 8.9 8.9 0 0 1 1.7 2.3c.1.4.5 0 .6.3ZM27.2 81c7.7 0 7.7-12 0-12-7.6 0-7.6 12 0 12Z"/><path fill="#73bf44" d="M34.6 81c7.6 0 7.7-12 0-12s-7.7 12 0 12ZM22 87.1c7.6 0 7.6-11.9 0-11.9-7.7 0-7.7 12 0 12Z"/><path fill="#73bf44" d="M23.8 86.5c7.7 0 7.7-12 0-12-7.6 0-7.7 12 0 12Z"/><path fill="#73bf44" d="M21.7 87.5c7.7 0 7.7-11.9 0-11.9s-7.7 12 0 12Z"/><path fill="#73bf44" d="M18.5 86.4c3.9 0 3.9-6 0-6-3.8 0-3.8 6 0 6ZM11.5 66.4c6.4 0 6.4-10 0-10s-6.4 10 0 10ZM108.7 37.5c6.4 0 6.4-10 0-10s-6.4 10 0 10ZM104 92c10.2 0 10.2-16 0-16s-10.2 16 0 16Z"/><path fill="#73bf44" d="M104.8 89.3c10.2 0 10.2-16 0-16s-10.2 16 0 16Z"/><path fill="#73bf44" d="M105 89.2c10.2 0 10.2-16 0-16s-10.3 16 0 16ZM49.8 84.7c7.7 0 7.7-12 0-12s-7.7 12 0 12Z"/><path fill="#73bf44" d="M54.5 85.2c7.6 0 7.6-11.9 0-11.9-7.7 0-7.7 12 0 12ZM36.9 86.7c7.6 0 7.7-12 0-12s-7.7 12 0 12Z"/><path fill="#73bf44" d="M40.5 86.6c7.6 0 7.6-12 0-12-7.7 0-7.7 12 0 12ZM119.8 92.2c7.7 0 7.7-11.9 0-11.9s-7.7 12 0 12Z"/><path fill="#73bf44" d="M114 92.7c7.6 0 7.6-12 0-12-7.7 0-7.7 12 0 12Z"/><path fill="#73bf44" d="M114.7 94.4c7.7 0 7.7-11.9 0-11.9s-7.7 11.9 0 11.9Z"/><path fill="#73bf44" d="M108.5 95.6c7.6 0 7.6-12 0-12-7.7 0-7.7 12 0 12Z"/><path fill="#73bf44" d="M109.5 95.6c7.7 0 7.7-12 0-12-7.6 0-7.6 12 0 12Z"/><path fill="#73bf44" d="M112.1 95c7.7 0 7.7-11.8 0-11.8-7.6 0-7.7 11.9 0 11.9Z"/></svg>