<svg xmlns="http://www.w3.org/2000/svg" viewBox="0 0 150 150"><path fill="#73bf44" d="M12.6 10.6s16 30.7 25.6 60.6c9.5 30 22.2 71.5 25.5 78.1l-1.9 1s-9-23.7-13.7-33.6c-4.7-9.9-18.5-43.8-21.5-55.5-3-11.7-6.5-27.8-14-50.6Z"/><path fill="#73bf44" d="m61.9 150.3 1.8-.4s-10.4-22-16-35.1c-5.5-13.1-28.8-44-37.6-51.4 0 0 4.2 9.4 8 16.3s13.2 22.6 14.9 25.8c1.7 3.3 14.7 23 17 26.5l11.9 18.3Z"/><path fill="#73bf44" d="M65 150.3v-.1S51.8 92.6 49.2 78.7c-2.5-13.8-11-34.9-11-34.9 1.6 7 5.6 41 8.8 51.8l15.7 54.6Z"/><path fill="#73bf44" d="m65.2 150.3 3.5-.5s1.2-49.5-3.2-78.7-11-62.8-11-62.8-1 51.9-.6 62.3c.3 10.5 5.6 60.3 8.1 68.6l3.2 11ZM84 150.3h3.3s19.6-30.2 27-42.8c7.3-12.5 20-33 21.2-42.3 0 0-12.5 15.7-16.4 22.2-3.8 6.5-22.1 41.3-26.8 49.3-4.7 8-8.3 13.6-8.3 13.6Z"/><path fill="#73bf44" d="m79.6 150 5.7.3s14.8-32 19.3-41.3c4.4-9.2 32.1-66.5 35.3-83.4 0 0-29 51.6-33.7 59.4a685.5 685.5 0 0 0-26.6 65Z"/><path fill="#73bf44" d="M106.4 14.7s-3 32.3-4.5 42.9c-1.5 10.6-15.6 75.5-21 92.7h-3s9.2-46.4 13.6-68.9a977.6 977.6 0 0 1 15-66.7Z"/><path fill="#73bf44" d="m73.4 150.3 4.8-.4S93.4 74 93.5 39.7c0 0 .2-28.7 0-34.7l-8 38.1a1100 1100 0 0 0-12 107.2Z"/><path fill="#73bf44" d="m67.4 150.3 4.2-.4s10.7-59.7 10.9-84.1c.1-24.4-3.3-66-3.3-66s-4.7 27.7-5.7 38.6c-.9 10.9-6 77.6-6 87.7Z"/><path fill="#73bf44" d="M73.6 142c7.6 0 7.6-11.9 0-11.9-7.7 0-7.7 12 0 12Z"/><path fill="#73bf44" d="M73 147.8c7.6 0 7.6-12 0-12-7.7 0-7.7 12 0 12ZM65 149.5c2.5 0 2.5-4 0-4-2.6 0-2.6 4 0 4Z"/><path fill="#73bf44" d="M72.5 150c7.7 0 7.7-12 0-12-7.6 0-7.6 12 0 12Z"/></svg>