<svg xmlns="http://www.w3.org/2000/svg" viewBox="0 0 150 150"><path fill="#73bf44" d="M81.3 124.9a32 32 0 0 1-4.1 3.3 2 2 0 0 0-.8 1.9c0 .8.2.7.2.7.6.1 2.5-2.3 3-3.2.5-.8 2-1.7 3.3-2.5a5.1 5.1 0 0 0 1.8-2.1 6.5 6.5 0 0 0-3.4 1.9Z"/><path fill="#73bf44" d="M88.3 116.9a4.6 4.6 0 0 0-2.8 2.5c-.3.8-.6 1.7-2.9 2.2-2.3.6-1.9 2-3.6 3-1.7.9-1.8.6-2 0-.1-.7.7-3.6 1.2-4.8a10.5 10.5 0 0 1 3-4c1-.7.7-.7 3.3-1.4 2.6-.7 2-.2 3.2-.6 1.1-.5.6-1.1-1.1-.7-1.7.5-1-.5-.5-1 .5-.6.1-1.2-1 .2-1.3 1.3-5.2 1.6-6.5 4.2-1.3 2.5-1.4-.1-1.3-1.6 0-1.5 1-5.6 1-5.6s-8-1.7-8-.1c0 1.5.6 3.1.5 4.5-.1 1.4-.2 4.5 0 5.7 0 1.3-.2 1.7-1 1.3-.7-.4-.4-2.3-.8-3.4a6.8 6.8 0 0 1-.2-3.6c.3-1 0-1 0-2.3 0-1.1-.5-2.4-.6-1.1 0 1.3 0 1-.7.5a1.3 1.3 0 0 0-1.4.1 2.2 2.2 0 0 1 1.9 2.6c-.5 2.2.3 3 .3 4.6 0 1.6 0 2.3-.7 2l-3.9-1.4c-1.7-.7-5.3-3.7-3.2-1.4 2 2.4 6.5 3.3 7.3 3.8.7.5.8 1.1.8 2.1s.1 1 .7 2.4S68 125 67 124c-.8-1-1.8-.8-3.8-1.6a20.2 20.2 0 0 1-4.7-3.4s-2.2.1-.3 1.1c2 1 3.5 3.5 5.3 3.7 2 .3 2.4 1.2 3.6 2.4a8.1 8.1 0 0 0 2.7 2 1.2 1.2 0 0 1 .7.6c.9 2.8 0 3.6-.2 4.8-.2 1.2-.3 4.3-.4 6-.1 1.6-1 6.7-1.8 8.1a10.4 10.4 0 0 0-1 2.3h9.3c0-1.3-.7-1.8-1.1-3.2-.4-1.5 0-4.4.2-6.4.2-2.1.8-5.4 1.8-6.2a8.8 8.8 0 0 0 2.4-3.3c.4-1 .3-1.5 4.2-4a11.4 11.4 0 0 0 5.2-7.3c.5-1.6.8-3.3-.8-2.7Zm-5.4 8.2c-1.3.8-2.8 1.7-3.3 2.5-.5.9-2.4 3.3-3 3.2 0 0-.2 0-.2-.7a2 2 0 0 1 .8-1.9 32 32 0 0 0 4-3.3 6.5 6.5 0 0 1 3.5-2 5.1 5.1 0 0 1-1.8 2.2ZM28.8 68.9Z"/><path fill="#73bf44" d="m128.2 100.3 1.6-1-2.9-1 .6-.4v-1.3l-1 .1.2-1-.5-.2 1.5-1H126l.6-.5h-.5l.3-.3-.6-1 2.3-.3-.4-.4.9-.3.4-.6-.4-.1.3-.7-.7-.1.7-.6-.5-.4.2-.8-.6-.1v-.6l.3-.7h-.3l.1-.6h-.4l.4-.7-.5-.3 1-1.3h-1l.5-.5-.2-.2.2-.4h-.6l.1-.5h-.5l.3-1.1-.6.1.2-1.8h-.4v-.4l-.3-.1v-1l-.6-.2.4-.3.1-.9v-.3l-.7-.2 1.6-1-.8-.4 1.2-.7-.4-.5.5-.8-.8-.4V71l-.3-.1.6-1h-.9l.1-.8h-.2l.1-1.1-1.2.2v-.8l-.1.2v-1.2h-1v-.9l-.4-.1v-.5l-.8.1.3-1.1-.6-.2 1.7-.4-.6-.4 1.5-.1-.8-.7 1.3-1h-1.4l1-.4-.5-.1.6-.4-.2-.2.3-.9h-.6l.6-1.9h-.5v-1h-.3l-.3-.3h-.2V55l-.6.1.3-.7h-.4l.2-.7-.2-.2.5-.8-.4-.2 1-.6-.9-.2.7-.5-.9-.1v-.4h-.4l.3-1.2h-.4l-.1-.7-.4.5.3-.8h-.3l.4-1-1.4.3.4-1.1-1.8.5.3-1.2-.5-.8-1.2-.7 1.4-.6v-1.3l.8.1v-1.1l.8.2v-1.4h1.3l-.2-.6.5-.1-.8-.6.8-.7-.4-.1-.4-1.2.1-.6-.5-.2 1-.7h-1.7l.2-.8h-1l.2-.7-1 .3v-.8h-.2l-.4-.7-.9.3-.6-.4-.5.3-.3-.6-1.2.1V32l-1.3.1v-1h-1.5l.3-1.1h-.9l.7-1.1-1.6.3v-.5l-.4.2-.4-1.4-.8 1-.4-1.9-1 .6-.1-1.2-.5.4-.1-.4.8-.4-.4-.6.2-.3h-.6l.3-.3-1-.3.5-1-.8-.2.5-2.2-1.4.3.6-.5-.4-.3v-.7h-1.5l.4-1.3h-1.3V17l-1.3.2-.1-.4-.5.4-.4-.9-.6.9-.7-.8-.6.3-.4.1v-1.1l-.6-.3-.1-1.1h-.7l.3-1.4-1.3.1 1-2.5-1.8.2V10l-1.5-.3v-.7h-1l1.5-2.8h-1.5l.3-1.3-.8-.2.3-.6h-1.3l.4-1.1h-1.6v-2l-1 2.1-.1-2-1.4.3-.4-.4-1 .3.1-1.2-2.3.6-.2-.8-.5.5-1.1-.5v1.1L80.9.6l-.6.8-.6-.4v.7l-.7-.1-.5.7-.3-.5-.7.3-.3-.4-.4.7-.3-.4-1 .3-.2-1-.1.8-.6-.5.3 1.2-1 .4.8.5-1 .5 1 1.4-1.5-.2v1.4l-.9-.2-.2.8-.3-.2-.2.8-.3-2-.7-.2V5l-.5-.2.6-.6-1.9-.2.2-1-.8.2v-1l-.7.7-1.4-.7.3 1-2.3-.2.1 1.1h-.9l-.6.9-.7-.5-.8.8-.1-.7-1 .3-.8-.8-.2 1.4-.6-.4v1l-1-.5v1l-1.1-.4.2 1.3-.6-.2-.6 1.3-1.9-.3.6 2-2.2-.5-.2.9-.7-1-.6.5-.1-.6-.4.2-.1-.6h-1.1l.1-.7h-.7l.2-1-1.2.4.2-1-.5.2-.4-.8-.5.2-.8-.6-.2.8-.5-.8-.4.8-.2-.5-.6.2-.3-1.2-.4.8-.8-.8v1.4l-.5-.4-.2.8-.1-.2-.1 1.4-.8-1 .3 2h-.6l.7 1.4-1.3.1.4.7-.8.3.5.2-.3.8.3.5-.3.5 1 .3-1.2.8.3.4-.3.2.5.5h-.8v1.6l-.8-.7-.4.3-.2-.3-.3.3-.3-.2-.1.9-.7-.4.4 1.8h-.6l.9 1.5h-.7l1 1.3-1.2.4.4.1-1 1.1h1.5l-.5 1.8h1l.2.7h.5l.6 1.1.5-.1.1.7 1-.8.7 1 .8-.3-.3.7.7.1-.3.4.4.6-.6.2.2.9-1.6.2.6.4-.7.4.6.4-.3.6.7.4-.3.5.8.7h-.6l.6.9-1 .1 1 1.4-1.2.1.1 1-1-.3.2 1.3-.8-.2v1l-.9-.2.3 1.2-1 .3 1 .6-1.6 1 1.3.2-.2.7h.4v.6l.4-.4.2 1 1.1-.3.6.6.3-.7.3.7.3-.3.3.2.2-.6.6 1.6.4-.4v.9h.8v.4l1 .2-.4 1 1 .6-.7.4.5.8h-.4v.8l-1 .1 1.3.6-1.4.3.7.7h-1.3l-.3 1.8-.4-.5-1 .6-.4-.6-.2.8-1.4-.3.5 1.1h-1l.4 1.2-.5 1.9-.4-.9-.4 1.2L36 58l-.5 3-1-.3v1.8l-.8-.1-.4 1.5h-.7l.5 1.2h-.5l-.3.8-.5-.6v1.4h-1l.4 1.4h-1.3l.1.9-1.1-.2 1.1 1.6-1.7.1.8 1.2-.7.1.8 1.5-.5.6 1.4 1.5-1.7.2 1 1.4H28l.2.8-1.2-.3.6 2.1-.8.6 1 1.2-.7.5.8.3-.1 1 .5.1-.3.7 1 .6-.7.7.8.4-1.1.6.7.6-.3.3.4 1.2h-1.2l1 1.2-1.8-.1v1.5l-.6-.3V92l-.7-1-.3 2-.5-1v1.8l-1-.5v.9l-.5-.2.1.6-.6-.2-.4 1.2-.4-.4.2 2-.7-.2.5 2-.6.3.3.7-.9.3.8 1.2-.8.3 1 .7-.9 1 1.2.2-.2 1 .7.1v.8l.4-.2.5 1.4.7.2.1 1h1.7l-.7 1.5H27l-.9 1.8 1 1-1.1.7 1.1.5-.5.6.6.2-.4 1.6H28l.1 1.8 1.7-.5v2h.9l.3.5.7-.9-.3 2 2.8-.8.4 1 1.2-.7.4 1.5.4-.5v.9l.4-.3.7.5.6-1.1 1.3.6.6-1 .3 2.6.9-1 .3 1.2.6-.3.4.6.7-1.1 1.3 1.4.9-.9.2.9 1-.6.6.8.4-.7.9.3.6-.5 1.6.3v-.6l.4.1.3-.9h1.9l-.6-1 .8-.1.5.4.6-.3.4.6.4-.7.7.5.2-.7.7.7 1-1 .6.8.2-.5.5.2.2-1 .7.9.3-2 .4.8 1-.5.4.9.6-.4.3.2v-.6l.3.3.3-1.1 1 .5.2-.7 2.2.5-.3-1.4.5.6.3-.4h.7v-1.5l1.3.4v-.6l.4.2.2.8h.3l-.2.7h.5l-.2.5h.4v.7l1.2.3-.6 1h1.4l.3.7.3-.2v.5l1.2-.2.5.3.7-.2.3.5.5-.6.7.5.1-.7.7.7.7-.7v.7-.8l.3-.3.6.9.3-.5.4.2.1-.3.3-.4.5.6.2-1.3.8.2a2.5 2.5 0 0 1 .5-.3l.4 1 2.4.3 2.5.4.5.1.3-.4v.6l.5-.4v.3l.5-.3.6.6.8-.3-.1.5h.4l-.1.2h1l-.3.3h.8l-.3.4.7.3.2.8h.3l-.2.6h.5l-.2.6h.4v.6l1.2.4-.6.9H97l.3.7.3-.1v.4l1.2-.2.5.4.7-.2.3.5.5-.6.7.4.1-.6.7.7 1-1.1.6.8.2-.4.5.2.3-1 .6.8.3-2 .4.8 1-.4.5.8.5-.4.3.2v-.6l.3.3.3-1 1 .5.3-.8 2 .5-.2-1.4.6.6.3-.4h.6v-1.5l1.3.4v-1.3h1.2l-.3-1.3.4-.1-.4-.5.9-.4-.8-.6.7-.7-.4-.7.4-.1.4 1.8 1-1.6 1.3 1 .1-1 1.3.8.1-.7.4.2 1.7-.5.2-.7 1 .6v-2.9l.6.6.6-2 .5.2-.2-1.3.8.1-.6-2.2.7.5.7-2.2-.6-.5 1.8-.4-1.9-.7 1.6-.2-.9-1.2-.8-1.2 1.2-.2-.7-1.1 1.2-.2-.5-1 1-.5Z"/><path fill="#73bf44" d="M78.1 130c2.6 0 2.6-3.9 0-3.9-2.5 0-2.5 4 0 4Z"/><path fill="#73bf44" d="M79.5 129.2c2.6 0 2.6-4 0-4-2.5 0-2.5 4 0 4Z"/><path fill="#73bf44" d="M80.8 128.1c2.5 0 2.5-4 0-4-2.6 0-2.6 4 0 4Z"/><path fill="#73bf44" d="M82.3 127.3c2.5 0 2.5-4 0-4-2.6 0-2.6 4 0 4Z"/><path fill="#73bf44" d="M83.8 126.4c2.5 0 2.5-4 0-4-2.6 0-2.6 4 0 4Z"/><path fill="#73bf44" d="M85 125.2c2.5 0 2.5-4 0-4-2.6 0-2.6 4 0 4Z"/><path fill="#73bf44" d="M83.4 125.6c2.5 0 2.5-4 0-4-2.6 0-2.6 4 0 4Z"/><path fill="#73bf44" d="M82.3 126.5c2.5 0 2.5-4 0-4-2.6 0-2.6 4 0 4Z"/><path fill="#73bf44" d="M81.2 127.8c2.5 0 2.5-4 0-4-2.6 0-2.6 4 0 4Z"/><path fill="#73bf44" d="M79.5 128.8c2.6 0 2.6-4 0-4-2.5 0-2.5 4 0 4Z"/><path fill="#73bf44" d="M78.5 129.2c2.6 0 2.6-4 0-4s-2.6 4 0 4Z"/><path fill="#73bf44" d="M75.2 133.4c5.1 0 5.1-8 0-8s-5.1 8 0 8Z"/></svg>